pid,taskRunCount,taskID,taskName,i,channel,pitch,velocity,microseconds
1,1,Ticks_Pract_5,0,5,42,127,419399996
1101,1,Ticks_Pract_5,1,5,42,127,419899712
1101,1,Ticks_Pract_5,2,5,42,127,420399576
1101,1,Ticks_Pract_5,3,1,48,29,420458220
1101,1,Ticks_Pract_5,4,5,42,127,420900092
1101,1,Ticks_Pract_5,5,1,48,32,420934548
1101,1,Ticks_Pract_5,6,5,42,127,421400008
1101,1,Ticks_Pract_5,7,1,48,38,421414272
1101,1,Ticks_Pract_5,8,1,48,37,421895476
1101,1,Ticks_Pract_5,9,5,42,127,421899696
1101,1,Ticks_Pract_5,10,1,48,39,422397044
1101,1,Ticks_Pract_5,11,5,42,127,422400736
1101,1,Ticks_Pract_5,12,1,48,41,422889252
1101,1,Ticks_Pract_5,13,5,42,127,422900132
1101,1,Ticks_Pract_5,14,1,48,29,423383192
1101,1,Ticks_Pract_5,15,5,42,127,423399756
1101,1,Ticks_Pract_5,16,1,48,39,423877804
1101,1,Ticks_Pract_5,17,5,42,127,423899452
1101,1,Ticks_Pract_5,18,1,48,40,424361340
1101,1,Ticks_Pract_5,19,5,42,127,424400564
1101,1,Ticks_Pract_5,20,1,48,39,424876744
1101,1,Ticks_Pract_5,21,5,42,127,424899888
1101,1,Ticks_Pract_5,22,1,48,42,425399812
1101,1,Ticks_Pract_5,23,5,42,127,425401152
1101,1,Ticks_Pract_5,24,1,48,36,425875452
1101,1,Ticks_Pract_5,25,5,42,127,425900624
1101,1,Ticks_Pract_5,26,1,48,41,426358100
1101,1,Ticks_Pract_5,27,5,42,127,426400168
1101,1,Ticks_Pract_5,28,1,48,46,426855368
1101,1,Ticks_Pract_5,29,5,42,127,426899840
1101,1,Ticks_Pract_5,30,1,48,41,427378480
1101,1,Ticks_Pract_5,31,5,42,127,427399460
1101,1,Ticks_Pract_5,32,1,48,43,427861100
1101,1,Ticks_Pract_5,33,5,42,127,427900424
1101,1,Ticks_Pract_5,34,1,48,43,428376724
1101,1,Ticks_Pract_5,35,5,42,127,428400120
1101,1,Ticks_Pract_5,36,1,48,35,428866620
1101,1,Ticks_Pract_5,37,5,42,127,428899712
1101,1,Ticks_Pract_5,38,1,48,38,429353300
1101,1,Ticks_Pract_5,39,5,42,127,429400680
1101,1,Ticks_Pract_5,40,1,48,40,429882164
1101,1,Ticks_Pract_5,41,5,42,127,429900004
1101,1,Ticks_Pract_5,42,5,42,127,430399704
1101,1,Ticks_Pract_5,43,1,48,36,430406936
1101,1,Ticks_Pract_5,44,1,48,43,430874972
1101,1,Ticks_Pract_5,45,5,42,127,430899688
1101,1,Ticks_Pract_5,46,1,48,43,431374964
1101,1,Ticks_Pract_5,47,5,42,127,431400504
1101,1,Ticks_Pract_5,48,1,48,43,431891264
1101,1,Ticks_Pract_5,49,5,42,127,431899976
1101,1,Ticks_Pract_5,50,1,48,42,432368072
1101,1,Ticks_Pract_5,51,5,42,127,432399672
1101,1,Ticks_Pract_5,52,1,48,38,432881832
1101,1,Ticks_Pract_5,53,5,42,127,432899588
1101,1,Ticks_Pract_5,54,5,42,127,433400116
1101,1,Ticks_Pract_5,55,1,48,39,433405772
1101,1,Ticks_Pract_5,56,1,48,36,433883612
1101,1,Ticks_Pract_5,57,5,42,127,433899804
1101,1,Ticks_Pract_5,58,1,48,38,434381660
1101,1,Ticks_Pract_5,59,5,42,127,434399572
1101,1,Ticks_Pract_5,60,1,48,41,434878436
1101,1,Ticks_Pract_5,61,5,42,127,434900388
1101,1,Ticks_Pract_5,62,1,48,43,435387560
1101,1,Ticks_Pract_5,63,5,42,127,435400156
1101,1,Ticks_Pract_5,64,1,48,41,435886952
1101,1,Ticks_Pract_5,65,5,42,127,435899776
1101,1,Ticks_Pract_5,66,1,48,39,436389940
1101,1,Ticks_Pract_5,67,5,42,127,436399548
1101,1,Ticks_Pract_5,68,1,48,44,436892176
1101,1,Ticks_Pract_5,69,5,42,127,436900288
1101,1,Ticks_Pract_5,70,5,42,127,437399764
1101,1,Ticks_Pract_5,71,1,48,43,437427864
1101,1,Ticks_Pract_5,72,1,48,41,437871292
1101,1,Ticks_Pract_5,73,5,42,127,437899600
1101,1,Ticks_Pract_5,74,5,42,127,438400348
1101,1,Ticks_Pract_5,75,1,48,38,438402864
1101,1,Ticks_Pract_5,76,1,48,41,438899068
1101,1,Ticks_Pract_5,77,5,42,127,438900632
1101,1,Ticks_Pract_5,78,1,48,41,439343276
1101,1,Ticks_Pract_5,0,9999,9999,9999,419397708
1101,1,Ticks_Pract_5,1,9999,9999,9999,419897424
1101,1,Ticks_Pract_5,2,9999,9999,9999,420397140
1101,1,Ticks_Pract_5,3,9999,9999,9999,420897880
1101,1,Ticks_Pract_5,4,9999,9999,9999,421397576
1101,1,Ticks_Pract_5,5,9999,9999,9999,421897336
1101,1,Ticks_Pract_5,6,9999,9999,9999,422398004
1101,1,Ticks_Pract_5,7,9999,9999,9999,422897772
1101,1,Ticks_Pract_5,8,9999,9999,9999,423397468
1101,1,Ticks_Pract_5,9,9999,9999,9999,423897164
1101,1,Ticks_Pract_5,10,9999,9999,9999,424397908
1101,1,Ticks_Pract_5,11,9999,9999,9999,424897604
1101,1,Ticks_Pract_5,12,9999,9999,9999,425397304
1101,1,Ticks_Pract_5,13,9999,9999,9999,425898040
1101,1,Ticks_Pract_5,14,9999,9999,9999,426397808
1101,1,Ticks_Pract_5,15,9999,9999,9999,426897480
1101,1,Ticks_Pract_5,16,9999,9999,9999,427397176
1101,1,Ticks_Pract_5,17,9999,9999,9999,427897912
1101,1,Ticks_Pract_5,18,9999,9999,9999,428397684
1101,1,Ticks_Pract_5,19,9999,9999,9999,428897352
1101,1,Ticks_Pract_5,20,9999,9999,9999,429398096
1101,1,Ticks_Pract_5,21,9999,9999,9999,429897792
1101,1,Ticks_Pract_5,22,9999,9999,9999,430397492
1101,1,Ticks_Pract_5,23,9999,9999,9999,430897256
1101,1,Ticks_Pract_5,24,9999,9999,9999,431397996
1101,1,Ticks_Pract_5,25,9999,9999,9999,431897692
1101,1,Ticks_Pract_5,26,9999,9999,9999,432397384
1101,1,Ticks_Pract_5,27,9999,9999,9999,432897080
1101,1,Ticks_Pract_5,28,9999,9999,9999,433397828
1101,1,Ticks_Pract_5,29,9999,9999,9999,433897592
1101,1,Ticks_Pract_5,30,9999,9999,9999,434397288
1101,1,Ticks_Pract_5,31,9999,9999,9999,434898028
1101,1,Ticks_Pract_5,32,9999,9999,9999,435397724
1101,1,Ticks_Pract_5,33,9999,9999,9999,435897416
1101,1,Ticks_Pract_5,34,9999,9999,9999,436397112
1101,1,Ticks_Pract_5,35,9999,9999,9999,436897852
1101,1,Ticks_Pract_5,36,9999,9999,9999,437397552
1101,1,Ticks_Pract_5,37,9999,9999,9999,437897316
1101,1,Ticks_Pract_5,38,9999,9999,9999,438398064
1101,1,Ticks_Pract_5,39,9999,9999,9999,438897756
1102,0,Ticks_Pract_8,0,5,42,127,464607480
1102,0,Ticks_Pract_8,1,5,42,127,465408504
1102,0,Ticks_Pract_8,2,5,42,127,466208036
1102,0,Ticks_Pract_8,3,1,48,47,466247732
1102,0,Ticks_Pract_8,4,5,42,127,467007844
1102,0,Ticks_Pract_8,5,1,48,39,467053320
1102,0,Ticks_Pract_8,6,5,42,127,467807728
1102,0,Ticks_Pract_8,7,1,48,46,467853804
1102,0,Ticks_Pract_8,8,1,48,48,468608828
1102,0,Ticks_Pract_8,9,5,42,127,468609944
1102,0,Ticks_Pract_8,10,5,42,127,469408044
1102,0,Ticks_Pract_8,11,1,48,48,469421408
1102,0,Ticks_Pract_8,12,5,42,127,470207776
1102,0,Ticks_Pract_8,13,1,48,53,470236776
1102,0,Ticks_Pract_8,14,1,48,51,470991460
1102,0,Ticks_Pract_8,15,5,42,127,471007724
1102,0,Ticks_Pract_8,16,1,48,55,471800320
1102,0,Ticks_Pract_8,17,5,42,127,471808580
1102,0,Ticks_Pract_8,18,5,42,127,472608096
1102,0,Ticks_Pract_8,19,1,48,61,472614956
1102,0,Ticks_Pract_8,20,1,48,57,473396272
1102,0,Ticks_Pract_8,21,5,42,127,473407976
1102,0,Ticks_Pract_8,22,5,42,127,474207564
1102,0,Ticks_Pract_8,23,1,48,55,474222300
1102,0,Ticks_Pract_8,24,1,48,56,474994792
1102,0,Ticks_Pract_8,25,5,42,127,475008364
1102,0,Ticks_Pract_8,26,1,48,56,475792952
1102,0,Ticks_Pract_8,27,5,42,127,475808024
1102,0,Ticks_Pract_8,28,5,42,127,476607840
1102,0,Ticks_Pract_8,29,1,48,54,476615744
1102,0,Ticks_Pract_8,30,1,48,54,477402520
1102,0,Ticks_Pract_8,31,5,42,127,477407712
1102,0,Ticks_Pract_8,32,5,42,127,478208724
1102,0,Ticks_Pract_8,33,1,48,49,478245204
1102,0,Ticks_Pract_8,34,1,48,58,478989796
1102,0,Ticks_Pract_8,35,5,42,127,479008228
1102,0,Ticks_Pract_8,36,1,48,54,479788852
1102,0,Ticks_Pract_8,37,5,42,127,479807884
1102,0,Ticks_Pract_8,38,5,42,127,480607776
1102,0,Ticks_Pract_8,39,1,48,55,480618324
1102,0,Ticks_Pract_8,40,5,42,127,481408808
1102,0,Ticks_Pract_8,41,1,48,55,481426284
1102,0,Ticks_Pract_8,42,5,42,127,482208096
1102,0,Ticks_Pract_8,43,1,48,55,482229088
1102,0,Ticks_Pract_8,44,1,48,53,482991704
1102,0,Ticks_Pract_8,45,5,42,127,483007820
1102,0,Ticks_Pract_8,46,1,48,51,483753736
1102,0,Ticks_Pract_8,47,5,42,127,483807704
1102,0,Ticks_Pract_8,48,1,48,49,484587732
1102,0,Ticks_Pract_8,49,5,42,127,484608484
1102,0,Ticks_Pract_8,50,1,48,44,485366900
1102,0,Ticks_Pract_8,51,5,42,127,485408068
1102,0,Ticks_Pract_8,52,1,48,49,486160868
1102,0,Ticks_Pract_8,53,5,42,127,486207728
1102,0,Ticks_Pract_8,54,1,48,47,486991568
1102,0,Ticks_Pract_8,55,5,42,127,487007684
1102,0,Ticks_Pract_8,56,1,48,49,487792900
1102,0,Ticks_Pract_8,57,5,42,127,487808416
1102,0,Ticks_Pract_8,58,1,48,46,488601532
1102,0,Ticks_Pract_8,0,9999,9999,9999,464605260
1102,0,Ticks_Pract_8,1,9999,9999,9999,465406064
1102,0,Ticks_Pract_8,2,9999,9999,9999,466205744
1102,0,Ticks_Pract_8,3,9999,9999,9999,467005552
1102,0,Ticks_Pract_8,4,9999,9999,9999,467805288
1102,0,Ticks_Pract_8,5,9999,9999,9999,468606016
1102,0,Ticks_Pract_8,6,9999,9999,9999,469405752
1102,0,Ticks_Pract_8,7,9999,9999,9999,470205556
1102,0,Ticks_Pract_8,8,9999,9999,9999,471005284
1102,0,Ticks_Pract_8,9,9999,9999,9999,471806064
1102,0,Ticks_Pract_8,10,9999,9999,9999,472605804
1102,0,Ticks_Pract_8,11,9999,9999,9999,473405532
1102,0,Ticks_Pract_8,12,9999,9999,9999,474205272
1102,0,Ticks_Pract_8,13,9999,9999,9999,475006000
1102,0,Ticks_Pract_8,14,9999,9999,9999,475805808
1102,0,Ticks_Pract_8,15,9999,9999,9999,476605548
1102,0,Ticks_Pract_8,16,9999,9999,9999,477405272
1102,0,Ticks_Pract_8,17,9999,9999,9999,478206060
1102,0,Ticks_Pract_8,18,9999,9999,9999,479005788
1102,0,Ticks_Pract_8,19,9999,9999,9999,479805520
1102,0,Ticks_Pract_8,20,9999,9999,9999,480605260
1102,0,Ticks_Pract_8,21,9999,9999,9999,481406068
1102,0,Ticks_Pract_8,22,9999,9999,9999,482205804
1102,0,Ticks_Pract_8,23,9999,9999,9999,483005528
1102,0,Ticks_Pract_8,24,9999,9999,9999,483805264
1102,0,Ticks_Pract_8,25,9999,9999,9999,484606044
1102,0,Ticks_Pract_8,26,9999,9999,9999,485405776
1102,0,Ticks_Pract_8,27,9999,9999,9999,486205512
1102,0,Ticks_Pract_8,28,9999,9999,9999,487005244
1102,0,Ticks_Pract_8,29,9999,9999,9999,487806048
1103,4,T1_SMS_5,0,5,42,127,588064100
1103,4,T1_SMS_5,1,5,42,127,588563816
1103,4,T1_SMS_5,2,1,48,35,588793524
1103,4,T1_SMS_5,3,5,42,127,589063512
1103,4,T1_SMS_5,4,1,48,43,589137392
1103,4,T1_SMS_5,5,1,48,42,589558604
1103,4,T1_SMS_5,6,5,42,127,589564248
1103,4,T1_SMS_5,7,1,48,45,590050744
1103,4,T1_SMS_5,8,5,42,127,590063944
1103,4,T1_SMS_5,9,5,42,127,590563940
1103,4,T1_SMS_5,10,1,48,48,590572520
1103,4,T1_SMS_5,11,5,42,127,591064608
1103,4,T1_SMS_5,12,1,48,46,591101388
1103,4,T1_SMS_5,13,1,48,46,591556552
1103,4,T1_SMS_5,14,5,42,127,591564072
1103,4,T1_SMS_5,15,1,48,51,592030228
1103,4,T1_SMS_5,16,5,42,127,592063992
1103,4,T1_SMS_5,17,1,48,52,592535528
1103,4,T1_SMS_5,18,5,42,127,592563760
1103,4,T1_SMS_5,19,5,42,127,593064364
1103,4,T1_SMS_5,20,1,48,50,593066076
1103,4,T1_SMS_5,21,5,42,127,593563908
1103,4,T1_SMS_5,22,1,48,46,593618264
1103,4,T1_SMS_5,23,1,48,49,594032824
1103,4,T1_SMS_5,24,5,42,127,594063968
1103,4,T1_SMS_5,25,1,48,45,594501520
1103,4,T1_SMS_5,26,5,42,127,594563664
1103,4,T1_SMS_5,27,1,48,51,595018200
1103,4,T1_SMS_5,28,5,42,127,595064032
1103,4,T1_SMS_5,29,1,48,51,595513028
1103,4,T1_SMS_5,30,5,42,127,595563876
1103,4,T1_SMS_5,31,1,48,50,596034412
1103,4,T1_SMS_5,32,5,42,127,596063792
1103,4,T1_SMS_5,33,1,48,50,596529844
1103,4,T1_SMS_5,34,5,42,127,596564212
1103,4,T1_SMS_5,35,1,48,43,597039636
1103,4,T1_SMS_5,36,5,42,127,597063980
1103,4,T1_SMS_5,37,1,48,48,597517792
1103,4,T1_SMS_5,38,5,42,127,597563748
1103,4,T1_SMS_5,39,1,48,51,597991156
1103,4,T1_SMS_5,40,5,42,127,598063740
1103,4,T1_SMS_5,41,1,48,46,598558692
1103,4,T1_SMS_5,42,5,42,127,598564184
1103,4,T1_SMS_5,43,1,48,51,599059960
1103,4,T1_SMS_5,44,5,42,127,599064032
1103,4,T1_SMS_5,45,1,48,53,599555836
1103,4,T1_SMS_5,46,5,42,127,599563800
1103,4,T1_SMS_5,47,1,48,54,600036012
1103,4,T1_SMS_5,48,5,42,127,600064244
1103,4,T1_SMS_5,49,1,48,49,600548796
1103,4,T1_SMS_5,50,5,42,127,600563940
1103,4,T1_SMS_5,51,1,48,51,601044972
1103,4,T1_SMS_5,52,5,42,127,601063784
1103,4,T1_SMS_5,53,1,48,49,601525596
1103,4,T1_SMS_5,54,5,42,127,601563700
1103,4,T1_SMS_5,55,5,42,127,602064224
1103,4,T1_SMS_5,56,1,48,48,602069440
1103,4,T1_SMS_5,57,5,42,127,602563844
1103,4,T1_SMS_5,58,1,48,51,602574292
1103,4,T1_SMS_5,59,1,48,43,603061872
1103,4,T1_SMS_5,60,5,42,127,603063608
1103,4,T1_SMS_5,61,1,48,39,603542628
1103,4,T1_SMS_5,62,5,42,127,603564496
1103,4,T1_SMS_5,63,5,42,127,604063976
1103,4,T1_SMS_5,64,1,48,48,604067920
1103,4,T1_SMS_5,65,1,48,49,604533336
1103,4,T1_SMS_5,66,5,42,127,604563812
1103,4,T1_SMS_5,67,5,42,127,605063588
1103,4,T1_SMS_5,68,1,48,44,605076428
1103,4,T1_SMS_5,69,5,42,127,605564332
1103,4,T1_SMS_5,70,1,48,51,605570148
1103,4,T1_SMS_5,71,1,48,50,606044440
1103,4,T1_SMS_5,72,5,42,127,606064092
1103,4,T1_SMS_5,73,1,48,48,606546820
1103,4,T1_SMS_5,74,5,42,127,606563564
1103,4,T1_SMS_5,75,1,48,47,607062692
1103,4,T1_SMS_5,76,5,42,127,607064356
1103,4,T1_SMS_5,77,1,48,51,607558556
1103,4,T1_SMS_5,78,5,42,127,607564124
1103,4,T1_SMS_5,79,1,48,52,608055032
1103,4,T1_SMS_5,80,5,42,127,608063748
1103,4,T1_SMS_5,81,1,48,50,608543812
1103,4,T1_SMS_5,82,5,42,127,608563588
1103,4,T1_SMS_5,83,5,42,127,609064484
1103,4,T1_SMS_5,84,1,48,51,609087056
1103,4,T1_SMS_5,85,1,48,54,609561912
1103,4,T1_SMS_5,86,5,42,127,609563952
1103,4,T1_SMS_5,87,1,48,49,610042668
1103,4,T1_SMS_5,88,5,42,127,610063648
1103,4,T1_SMS_5,89,1,48,49,610540648
1103,4,T1_SMS_5,90,5,42,127,610563416
1103,4,T1_SMS_5,91,1,48,33,611055296
1103,4,T1_SMS_5,92,5,42,127,611064308
1103,4,T1_SMS_5,93,5,42,127,611563788
1103,4,T1_SMS_5,94,1,48,50,611567880
1103,4,T1_SMS_5,95,1,48,47,612029404
1103,4,T1_SMS_5,96,5,42,127,612063548
1103,4,T1_SMS_5,97,1,48,48,612562404
1103,4,T1_SMS_5,98,5,42,127,612564364
1103,4,T1_SMS_5,99,5,42,127,613064140
1103,4,T1_SMS_5,100,1,48,49,613068756
1103,4,T1_SMS_5,101,1,48,52,613552356
1103,4,T1_SMS_5,102,5,42,127,613563680
1103,4,T1_SMS_5,103,1,48,53,614035592
1103,4,T1_SMS_5,104,5,42,127,614063376
1103,4,T1_SMS_5,105,5,42,127,614564420
1103,4,T1_SMS_5,106,1,48,50,614570164
1103,4,T1_SMS_5,107,5,42,127,615063968
1103,4,T1_SMS_5,108,1,48,55,615084516
1103,4,T1_SMS_5,109,1,48,56,615563960
1103,4,T1_SMS_5,110,5,42,127,615565296
1103,4,T1_SMS_5,111,5,42,127,616064556
1103,4,T1_SMS_5,112,1,48,53,616067156
1103,4,T1_SMS_5,113,1,48,54,616550452
1103,4,T1_SMS_5,114,5,42,127,616564092
1103,4,T1_SMS_5,115,5,42,127,617063724
1103,4,T1_SMS_5,116,1,48,52,617068864
1103,4,T1_SMS_5,117,1,48,53,617563468
1103,4,T1_SMS_5,118,5,42,127,617564804
1103,4,T1_SMS_5,119,1,48,50,618030436
1103,4,T1_SMS_5,120,5,42,127,618064500
1103,4,T1_SMS_5,121,5,42,127,618563904
1103,4,T1_SMS_5,122,1,48,49,618575768
1103,4,T1_SMS_5,123,5,42,127,619063596
1103,4,T1_SMS_5,124,1,48,52,619091252
1103,4,T1_SMS_5,125,1,48,53,619559660
1103,4,T1_SMS_5,126,5,42,127,619564480
1103,4,T1_SMS_5,127,1,48,54,620036468
1103,4,T1_SMS_5,128,5,42,127,620064396
1103,4,T1_SMS_5,129,1,48,45,620543268
1103,4,T1_SMS_5,130,5,42,127,620563796
1103,4,T1_SMS_5,131,1,48,52,621040796
1103,4,T1_SMS_5,132,5,42,127,621063492
1103,4,T1_SMS_5,133,1,48,52,621523804
1103,4,T1_SMS_5,134,5,42,127,621564456
1103,4,T1_SMS_5,135,1,48,55,622046544
1103,4,T1_SMS_5,136,5,42,127,622063928
1103,4,T1_SMS_5,137,5,42,127,622563552
1103,4,T1_SMS_5,138,1,48,54,622571908
1103,4,T1_SMS_5,139,5,42,127,623064368
1103,4,T1_SMS_5,140,1,48,54,623070332
1103,4,T1_SMS_5,141,1,48,52,623550488
1103,4,T1_SMS_5,142,5,42,127,623564352
1103,4,T1_SMS_5,143,1,48,54,624054516
1103,4,T1_SMS_5,144,5,42,127,624063824
1103,4,T1_SMS_5,145,1,48,53,624550172
1103,4,T1_SMS_5,146,5,42,127,624563444
1103,4,T1_SMS_5,147,1,48,51,625035656
1103,4,T1_SMS_5,148,5,42,127,625064408
1103,4,T1_SMS_5,149,1,48,48,625515452
1103,4,T1_SMS_5,150,5,42,127,625563956
1103,4,T1_SMS_5,151,1,48,52,626055316
1103,4,T1_SMS_5,152,5,42,127,626063576
1103,4,T1_SMS_5,153,1,48,54,626549252
1103,4,T1_SMS_5,154,5,42,127,626563496
1103,4,T1_SMS_5,155,1,48,52,627049468
1103,4,T1_SMS_5,156,5,42,127,627064388
1103,4,T1_SMS_5,157,1,48,52,627530068
1103,4,T1_SMS_5,158,5,42,127,627563860
1103,4,T1_SMS_5,159,1,48,53,628039484
1103,4,T1_SMS_5,160,5,42,127,628063556
1103,4,T1_SMS_5,161,1,48,51,628549952
1103,4,T1_SMS_5,162,5,42,127,628564344
1103,4,T1_SMS_5,163,1,48,54,629061092
1103,4,T1_SMS_5,164,5,42,127,629064188
1103,4,T1_SMS_5,165,1,48,54,629534676
1103,4,T1_SMS_5,166,5,42,127,629563808
1103,4,T1_SMS_5,167,1,48,48,630030260
1103,4,T1_SMS_5,168,5,42,127,630063428
1103,4,T1_SMS_5,169,1,48,49,630526288
1103,4,T1_SMS_5,170,5,42,127,630564244
1103,4,T1_SMS_5,171,5,42,127,631064024
1103,4,T1_SMS_5,172,1,48,47,631087864
1103,4,T1_SMS_5,173,1,48,55,631556424
1103,4,T1_SMS_5,174,5,42,127,631563560
1103,4,T1_SMS_5,175,1,48,53,632040332
1103,4,T1_SMS_5,176,5,42,127,632064304
1103,4,T1_SMS_5,177,5,42,127,632564152
1103,4,T1_SMS_5,178,1,48,50,632565268
1103,4,T1_SMS_5,179,5,42,127,633063848
1103,4,T1_SMS_5,180,1,48,51,633101452
1103,4,T1_SMS_5,181,1,48,48,633563020
1103,4,T1_SMS_5,182,5,42,127,633564584
1103,4,T1_SMS_5,183,1,48,50,634051608
1103,4,T1_SMS_5,184,5,42,127,634064352
1103,4,T1_SMS_5,185,1,48,52,634547112
1103,4,T1_SMS_5,186,5,42,127,634564048
1103,4,T1_SMS_5,187,1,48,51,635027284
1103,4,T1_SMS_5,188,5,42,127,635063520
1103,4,T1_SMS_5,189,1,48,54,635525332
1103,4,T1_SMS_5,190,5,42,127,635564260
1103,4,T1_SMS_5,191,1,48,49,636033036
1103,4,T1_SMS_5,192,5,42,127,636064104
1103,4,T1_SMS_5,193,1,48,52,636517992
1103,4,T1_SMS_5,194,5,42,127,636563724
1103,4,T1_SMS_5,195,1,48,53,637036380
1103,4,T1_SMS_5,196,5,42,127,637063496
1103,4,T1_SMS_5,197,1,48,54,637543488
1103,4,T1_SMS_5,198,5,42,127,637564236
1103,4,T1_SMS_5,199,1,48,50,638047816
1103,4,T1_SMS_5,200,5,42,127,638064152
1103,4,T1_SMS_5,201,1,48,50,638544716
1103,4,T1_SMS_5,202,5,42,127,638563624
1103,4,T1_SMS_5,203,1,48,51,639052940
1103,4,T1_SMS_5,204,5,42,127,639064492
1103,4,T1_SMS_5,205,1,48,53,639556592
1103,4,T1_SMS_5,206,5,42,127,639564188
1103,4,T1_SMS_5,207,1,48,50,640049564
1103,4,T1_SMS_5,208,5,42,127,640064032
1103,4,T1_SMS_5,209,1,48,53,640549628
1103,4,T1_SMS_5,210,5,42,127,640563500
1103,4,T1_SMS_5,211,1,48,49,641053660
1103,4,T1_SMS_5,212,5,42,127,641064244
1103,4,T1_SMS_5,213,1,48,53,641536532
1103,4,T1_SMS_5,214,5,42,127,641564092
1103,4,T1_SMS_5,215,5,42,127,642063716
1103,4,T1_SMS_5,216,1,48,52,642064980
1103,4,T1_SMS_5,217,1,48,50,642563340
1103,4,T1_SMS_5,218,5,42,127,642564900
1103,4,T1_SMS_5,219,5,42,127,643064080
1103,4,T1_SMS_5,220,1,48,56,643068324
1103,4,T1_SMS_5,221,5,42,127,643563924
1103,4,T1_SMS_5,222,1,48,54,643572056
1103,4,T1_SMS_5,223,5,42,127,644063468
1103,4,T1_SMS_5,224,1,48,52,644070704
1103,4,T1_SMS_5,225,1,48,55,644564064
1103,4,T1_SMS_5,226,5,42,127,644565548
1103,4,T1_SMS_5,227,1,48,50,645036196
1103,4,T1_SMS_5,228,5,42,127,645063976
1103,4,T1_SMS_5,229,5,42,127,645563824
1103,4,T1_SMS_5,230,1,48,53,645566420
1103,4,T1_SMS_5,231,5,42,127,646063448
1103,4,T1_SMS_5,232,1,48,56,646066196
1103,4,T1_SMS_5,233,1,48,52,646549412
1103,4,T1_SMS_5,234,5,42,127,646564184
1103,4,T1_SMS_5,235,5,42,127,647063884
1103,4,T1_SMS_5,236,1,48,54,647065224
1103,4,T1_SMS_5,237,5,42,127,647563652
1103,4,T1_SMS_5,238,1,48,51,647574400
1103,4,T1_SMS_5,239,1,48,57,648062504
1103,4,T1_SMS_5,240,5,42,127,648064316
1103,4,T1_SMS_5,241,1,48,53,648560688
1103,4,T1_SMS_5,242,5,42,127,648564084
1103,4,T1_SMS_5,243,5,42,127,649063860
1103,4,T1_SMS_5,244,1,48,50,649090692
1103,4,T1_SMS_5,245,5,42,127,649563384
1103,4,T1_SMS_5,246,1,48,54,649566124
1103,4,T1_SMS_5,247,1,48,55,650062052
1103,4,T1_SMS_5,248,5,42,127,650064168
1103,4,T1_SMS_5,249,5,42,127,650564016
1103,4,T1_SMS_5,250,1,48,54,650569232
1103,4,T1_SMS_5,251,5,42,127,651063640
1103,4,T1_SMS_5,252,1,48,56,651088152
1103,4,T1_SMS_5,253,1,48,54,651544816
1103,4,T1_SMS_5,254,5,42,127,651564372
1103,4,T1_SMS_5,255,1,48,53,652060072
1103,4,T1_SMS_5,256,5,42,127,652064140
1103,4,T1_SMS_5,257,1,48,55,652563916
1103,4,T1_SMS_5,258,5,42,127,652565256
1103,4,T1_SMS_5,259,1,48,56,653046368
1103,4,T1_SMS_5,0,9999,9999,9999,588061816
1103,4,T1_SMS_5,1,9999,9999,9999,588561456
1103,4,T1_SMS_5,2,9999,9999,9999,589061224
1103,4,T1_SMS_5,3,9999,9999,9999,589561960
1103,4,T1_SMS_5,4,9999,9999,9999,590061656
1103,4,T1_SMS_5,5,9999,9999,9999,590561356
1103,4,T1_SMS_5,6,9999,9999,9999,591062100
1103,4,T1_SMS_5,7,9999,9999,9999,591561784
1103,4,T1_SMS_5,8,9999,9999,9999,592061556
1103,4,T1_SMS_5,9,9999,9999,9999,592561252
1103,4,T1_SMS_5,10,9999,9999,9999,593062000
1103,4,T1_SMS_5,11,9999,9999,9999,593561696
1103,4,T1_SMS_5,12,9999,9999,9999,594061384
1103,4,T1_SMS_5,13,9999,9999,9999,594561080
1103,4,T1_SMS_5,14,9999,9999,9999,595061820
1103,4,T1_SMS_5,15,9999,9999,9999,595561588
1103,4,T1_SMS_5,16,9999,9999,9999,596061260
1103,4,T1_SMS_5,17,9999,9999,9999,596562000
1103,4,T1_SMS_5,18,9999,9999,9999,597061692
1103,4,T1_SMS_5,19,9999,9999,9999,597561464
1103,4,T1_SMS_5,20,9999,9999,9999,598061156
1103,4,T1_SMS_5,21,9999,9999,9999,598561900
1103,4,T1_SMS_5,22,9999,9999,9999,599061596
1103,4,T1_SMS_5,23,9999,9999,9999,599561292
1103,4,T1_SMS_5,24,9999,9999,9999,600062032
1103,4,T1_SMS_5,25,9999,9999,9999,600561728
1103,4,T1_SMS_5,26,9999,9999,9999,601061496
1103,4,T1_SMS_5,27,9999,9999,9999,601561192
1103,4,T1_SMS_5,28,9999,9999,9999,602061940
1103,4,T1_SMS_5,29,9999,9999,9999,602561632
1103,4,T1_SMS_5,30,9999,9999,9999,603061348
1103,4,T1_SMS_5,31,9999,9999,9999,603562064
1103,4,T1_SMS_5,32,9999,9999,9999,604061764
1103,4,T1_SMS_5,33,9999,9999,9999,604561524
1103,4,T1_SMS_5,34,9999,9999,9999,605061228
1103,4,T1_SMS_5,35,9999,9999,9999,605561968
1103,4,T1_SMS_5,36,9999,9999,9999,606061660
1103,4,T1_SMS_5,37,9999,9999,9999,606561352
1103,4,T1_SMS_5,38,9999,9999,9999,607062084
1103,4,T1_SMS_5,39,9999,9999,9999,607561840
1103,4,T1_SMS_5,40,9999,9999,9999,608061536
1103,4,T1_SMS_5,41,9999,9999,9999,608561228
1103,4,T1_SMS_5,42,9999,9999,9999,609061976
1103,4,T1_SMS_5,43,9999,9999,9999,609561704
1103,4,T1_SMS_5,44,9999,9999,9999,610061360
1103,4,T1_SMS_5,45,9999,9999,9999,610561128
1103,4,T1_SMS_5,46,9999,9999,9999,611061872
1103,4,T1_SMS_5,47,9999,9999,9999,611561576
1103,4,T1_SMS_5,48,9999,9999,9999,612061264
1103,4,T1_SMS_5,49,9999,9999,9999,612562032
1103,4,T1_SMS_5,50,9999,9999,9999,613061704
1103,4,T1_SMS_5,51,9999,9999,9999,613561396
1103,4,T1_SMS_5,52,9999,9999,9999,614061164
1103,4,T1_SMS_5,53,9999,9999,9999,614561912
1103,4,T1_SMS_5,54,9999,9999,9999,615061608
1103,4,T1_SMS_5,55,9999,9999,9999,615561300
1103,4,T1_SMS_5,56,9999,9999,9999,616062044
1103,4,T1_SMS_5,57,9999,9999,9999,616561732
1103,4,T1_SMS_5,58,9999,9999,9999,617061436
1103,4,T1_SMS_5,59,9999,9999,9999,617561180
1103,4,T1_SMS_5,60,9999,9999,9999,618061916
1103,4,T1_SMS_5,61,9999,9999,9999,618561616
1103,4,T1_SMS_5,62,9999,9999,9999,619061312
1103,4,T1_SMS_5,63,9999,9999,9999,619562044
1103,4,T1_SMS_5,64,9999,9999,9999,620061812
1103,4,T1_SMS_5,65,9999,9999,9999,620561508
1103,4,T1_SMS_5,66,9999,9999,9999,621061204
1103,4,T1_SMS_5,67,9999,9999,9999,621561944
1103,4,T1_SMS_5,68,9999,9999,9999,622061640
1103,4,T1_SMS_5,69,9999,9999,9999,622561340
1103,4,T1_SMS_5,70,9999,9999,9999,623062084
1103,4,T1_SMS_5,71,9999,9999,9999,623561844
1103,4,T1_SMS_5,72,9999,9999,9999,624061540
1103,4,T1_SMS_5,73,9999,9999,9999,624561232
1103,4,T1_SMS_5,74,9999,9999,9999,625061976
1103,4,T1_SMS_5,75,9999,9999,9999,625561672
1103,4,T1_SMS_5,76,9999,9999,9999,626061364
1103,4,T1_SMS_5,77,9999,9999,9999,626561136
1103,4,T1_SMS_5,78,9999,9999,9999,627061880
1103,4,T1_SMS_5,79,9999,9999,9999,627561572
1103,4,T1_SMS_5,80,9999,9999,9999,628061268
1103,4,T1_SMS_5,81,9999,9999,9999,628561984
1103,4,T1_SMS_5,82,9999,9999,9999,629061680
1103,4,T1_SMS_5,83,9999,9999,9999,629561448
1103,4,T1_SMS_5,84,9999,9999,9999,630061144
1103,4,T1_SMS_5,85,9999,9999,9999,630561884
1103,4,T1_SMS_5,86,9999,9999,9999,631061588
1103,4,T1_SMS_5,87,9999,9999,9999,631561276
1103,4,T1_SMS_5,88,9999,9999,9999,632062016
1103,4,T1_SMS_5,89,9999,9999,9999,632561716
1103,4,T1_SMS_5,90,9999,9999,9999,633061488
1103,4,T1_SMS_5,91,9999,9999,9999,633561184
1103,4,T1_SMS_5,92,9999,9999,9999,634061920
1103,4,T1_SMS_5,93,9999,9999,9999,634561612
1103,4,T1_SMS_5,94,9999,9999,9999,635061308
1103,4,T1_SMS_5,95,9999,9999,9999,635562048
1103,4,T1_SMS_5,96,9999,9999,9999,636061744
1103,4,T1_SMS_5,97,9999,9999,9999,636561512
1103,4,T1_SMS_5,98,9999,9999,9999,637061208
1103,4,T1_SMS_5,99,9999,9999,9999,637561952
1103,4,T1_SMS_5,100,9999,9999,9999,638061644
1103,4,T1_SMS_5,101,9999,9999,9999,638561340
1103,4,T1_SMS_5,102,9999,9999,9999,639062128
1103,4,T1_SMS_5,103,9999,9999,9999,639561824
1103,4,T1_SMS_5,104,9999,9999,9999,640061520
1103,4,T1_SMS_5,105,9999,9999,9999,640561216
1103,4,T1_SMS_5,106,9999,9999,9999,641061960
1103,4,T1_SMS_5,107,9999,9999,9999,641561656
1103,4,T1_SMS_5,108,9999,9999,9999,642061428
1103,4,T1_SMS_5,109,9999,9999,9999,642561128
1103,4,T1_SMS_5,110,9999,9999,9999,643061868
1103,4,T1_SMS_5,111,9999,9999,9999,643561564
1103,4,T1_SMS_5,112,9999,9999,9999,644061256
1103,4,T1_SMS_5,113,9999,9999,9999,644562000
1103,4,T1_SMS_5,114,9999,9999,9999,645061688
1103,4,T1_SMS_5,115,9999,9999,9999,645561464
1103,4,T1_SMS_5,116,9999,9999,9999,646061160
1103,4,T1_SMS_5,117,9999,9999,9999,646561896
1103,4,T1_SMS_5,118,9999,9999,9999,647061600
1103,4,T1_SMS_5,119,9999,9999,9999,647561292
1103,4,T1_SMS_5,120,9999,9999,9999,648062052
1103,4,T1_SMS_5,121,9999,9999,9999,648561720
1103,4,T1_SMS_5,122,9999,9999,9999,649061424
1103,4,T1_SMS_5,123,9999,9999,9999,649561168
1103,4,T1_SMS_5,124,9999,9999,9999,650061924
1103,4,T1_SMS_5,125,9999,9999,9999,650561656
1103,4,T1_SMS_5,126,9999,9999,9999,651061352
1103,4,T1_SMS_5,127,9999,9999,9999,651562084
1103,4,T1_SMS_5,128,9999,9999,9999,652061780
1103,4,T1_SMS_5,129,9999,9999,9999,652561480
1104,2,T1_SMS_8,0,5,42,127,721071576
1104,2,T1_SMS_8,1,5,42,127,721872300
1104,2,T1_SMS_8,2,1,48,31,722065508
1104,2,T1_SMS_8,3,1,48,51,722647464
1104,2,T1_SMS_8,4,5,42,127,722671956
1104,2,T1_SMS_8,5,5,42,127,723471620
1104,2,T1_SMS_8,6,1,48,54,723503236
1104,2,T1_SMS_8,7,5,42,127,724271576
1104,2,T1_SMS_8,8,1,48,56,724313316
1104,2,T1_SMS_8,9,5,42,127,725072208
1104,2,T1_SMS_8,10,1,48,53,725099360
1104,2,T1_SMS_8,11,5,42,127,725872040
1104,2,T1_SMS_8,12,1,48,53,725873080
1104,2,T1_SMS_8,13,1,48,53,726652140
1104,2,T1_SMS_8,14,5,42,127,726671692
1104,2,T1_SMS_8,15,5,42,127,727471656
1104,2,T1_SMS_8,16,1,48,56,727502376
1104,2,T1_SMS_8,17,5,42,127,728272140
1104,2,T1_SMS_8,18,1,48,54,728276084
1104,2,T1_SMS_8,19,5,42,127,729072024
1104,2,T1_SMS_8,20,1,48,57,729095336
1104,2,T1_SMS_8,21,5,42,127,729871680
1104,2,T1_SMS_8,22,1,48,52,729880712
1104,2,T1_SMS_8,23,1,48,52,730661796
1104,2,T1_SMS_8,24,5,42,127,730671628
1104,2,T1_SMS_8,25,5,42,127,731472488
1104,2,T1_SMS_8,26,1,48,54,731492312
1104,2,T1_SMS_8,27,5,42,127,732272100
1104,2,T1_SMS_8,28,1,48,55,732285992
1104,2,T1_SMS_8,29,5,42,127,733071760
1104,2,T1_SMS_8,30,1,48,55,733075476
1104,2,T1_SMS_8,31,1,48,56,733861576
1104,2,T1_SMS_8,32,5,42,127,733871484
1104,2,T1_SMS_8,33,5,42,127,734672124
1104,2,T1_SMS_8,34,1,48,56,734695808
1104,2,T1_SMS_8,35,1,48,52,735462236
1104,2,T1_SMS_8,36,5,42,127,735471996
1104,2,T1_SMS_8,37,1,48,54,736270984
1104,2,T1_SMS_8,38,5,42,127,736272628
1104,2,T1_SMS_8,39,5,42,127,737071620
1104,2,T1_SMS_8,40,1,48,57,737112464
1104,2,T1_SMS_8,41,1,48,45,737857104
1104,2,T1_SMS_8,42,5,42,127,737872168
1104,2,T1_SMS_8,43,1,48,56,738630208
1104,2,T1_SMS_8,44,5,42,127,738671928
1104,2,T1_SMS_8,45,1,48,58,739430864
1104,2,T1_SMS_8,46,5,42,127,739471588
1104,2,T1_SMS_8,47,1,48,57,740232988
1104,2,T1_SMS_8,48,5,42,127,740271616
1104,2,T1_SMS_8,49,1,48,59,741045960
1104,2,T1_SMS_8,50,5,42,127,741072176
1104,2,T1_SMS_8,51,5,42,127,741871916
1104,2,T1_SMS_8,52,1,48,54,741898452
1104,2,T1_SMS_8,53,5,42,127,742671652
1104,2,T1_SMS_8,54,1,48,56,742683896
1104,2,T1_SMS_8,55,5,42,127,743471604
1104,2,T1_SMS_8,56,1,48,57,743494772
1104,2,T1_SMS_8,57,5,42,127,744272236
1104,2,T1_SMS_8,58,1,48,54,744318168
1104,2,T1_SMS_8,59,1,48,56,745026904
1104,2,T1_SMS_8,60,5,42,127,745071916
1104,2,T1_SMS_8,61,1,48,56,745827036
1104,2,T1_SMS_8,62,5,42,127,745871648
1104,2,T1_SMS_8,63,1,48,56,746649356
1104,2,T1_SMS_8,64,5,42,127,746671456
1104,2,T1_SMS_8,65,5,42,127,747472392
1104,2,T1_SMS_8,66,1,48,51,747494588
1104,2,T1_SMS_8,67,1,48,53,748245460
1104,2,T1_SMS_8,68,5,42,127,748272044
1104,2,T1_SMS_8,69,1,48,54,749009588
1104,2,T1_SMS_8,70,5,42,127,749071852
1104,2,T1_SMS_8,71,1,48,54,749785536
1104,2,T1_SMS_8,72,5,42,127,749871436
1104,2,T1_SMS_8,73,1,48,54,750653564
1104,2,T1_SMS_8,74,5,42,127,750672220
1104,2,T1_SMS_8,75,1,48,55,751449356
1104,2,T1_SMS_8,76,5,42,127,751471828
1104,2,T1_SMS_8,77,5,42,127,752271644
1104,2,T1_SMS_8,78,1,48,52,752299072
1104,2,T1_SMS_8,79,5,42,127,753071376
1104,2,T1_SMS_8,80,1,48,55,753078684
1104,2,T1_SMS_8,81,5,42,127,753872228
1104,2,T1_SMS_8,82,1,48,50,753918284
1104,2,T1_SMS_8,83,5,42,127,754671964
1104,2,T1_SMS_8,84,1,48,56,754681968
1104,2,T1_SMS_8,85,5,42,127,755471844
1104,2,T1_SMS_8,86,1,48,52,755488724
1104,2,T1_SMS_8,87,5,42,127,756271356
1104,2,T1_SMS_8,88,1,48,52,756301324
1104,2,T1_SMS_8,89,5,42,127,757072356
1104,2,T1_SMS_8,90,1,48,44,757084024
1104,2,T1_SMS_8,91,5,42,127,757871964
1104,2,T1_SMS_8,92,1,48,46,757880172
1104,2,T1_SMS_8,93,5,42,127,758671700
1104,2,T1_SMS_8,94,1,48,48,758683048
1104,2,T1_SMS_8,95,1,48,51,759470752
1104,2,T1_SMS_8,96,5,42,127,759472400
1104,2,T1_SMS_8,97,1,48,43,760260504
1104,2,T1_SMS_8,98,5,42,127,760272356
1104,2,T1_SMS_8,99,1,48,51,761066368
1104,2,T1_SMS_8,100,5,42,127,761072164
1104,2,T1_SMS_8,101,1,48,52,761818908
1104,2,T1_SMS_8,102,5,42,127,761871748
1104,2,T1_SMS_8,103,1,48,54,762670736
1104,2,T1_SMS_8,104,5,42,127,762672308
1104,2,T1_SMS_8,105,5,42,127,763472416
1104,2,T1_SMS_8,106,1,48,55,763528448
1104,2,T1_SMS_8,107,1,48,54,764195592
1104,2,T1_SMS_8,108,5,42,127,764272172
1104,2,T1_SMS_8,109,1,48,47,765039260
1104,2,T1_SMS_8,110,5,42,127,765071680
1104,2,T1_SMS_8,111,1,48,52,765845576
1104,2,T1_SMS_8,112,5,42,127,765871340
1104,2,T1_SMS_8,113,5,42,127,766672200
1104,2,T1_SMS_8,114,1,48,46,766698208
1104,2,T1_SMS_8,115,5,42,127,767472232
1104,2,T1_SMS_8,116,1,48,55,767499960
1104,2,T1_SMS_8,117,5,42,127,768271888
1104,2,T1_SMS_8,118,1,48,51,768295132
1104,2,T1_SMS_8,119,5,42,127,769071328
1104,2,T1_SMS_8,120,1,48,46,769097632
1104,2,T1_SMS_8,121,1,48,52,769847536
1104,2,T1_SMS_8,122,5,42,127,769872176
1104,2,T1_SMS_8,123,5,42,127,770672388
1104,2,T1_SMS_8,124,1,48,46,770674680
1104,2,T1_SMS_8,125,5,42,127,771472120
1104,2,T1_SMS_8,126,1,48,49,771473760
1104,2,T1_SMS_8,127,1,48,55,772268896
1104,2,T1_SMS_8,128,5,42,127,772271548
1104,2,T1_SMS_8,129,5,42,127,773072336
1104,2,T1_SMS_8,130,1,48,55,773078524
1104,2,T1_SMS_8,131,1,48,55,773847572
1104,2,T1_SMS_8,132,5,42,127,773872064
1104,2,T1_SMS_8,133,1,48,56,774668700
1104,2,T1_SMS_8,134,5,42,127,774671948
1104,2,T1_SMS_8,135,5,42,127,775471464
1104,2,T1_SMS_8,136,1,48,54,775474360
1104,2,T1_SMS_8,137,5,42,127,776272096
1104,2,T1_SMS_8,138,1,48,50,776316076
1104,2,T1_SMS_8,139,1,48,53,777009928
1104,2,T1_SMS_8,140,5,42,127,777071920
1104,2,T1_SMS_8,141,1,48,55,777809660
1104,2,T1_SMS_8,142,5,42,127,777871652
1104,2,T1_SMS_8,143,1,48,50,778620864
1104,2,T1_SMS_8,144,5,42,127,778671388
1104,2,T1_SMS_8,145,1,48,54,779470584
1104,2,T1_SMS_8,146,5,42,127,779472092
1104,2,T1_SMS_8,147,5,42,127,780271908
1104,2,T1_SMS_8,148,1,48,51,780277568
1104,2,T1_SMS_8,149,1,48,54,781065392
1104,2,T1_SMS_8,150,5,42,127,781071860
1104,2,T1_SMS_8,151,1,48,55,781858172
1104,2,T1_SMS_8,152,5,42,127,781871592
1104,2,T1_SMS_8,153,1,48,54,782654612
1104,2,T1_SMS_8,154,5,42,127,782672148
1104,2,T1_SMS_8,155,1,48,50,783448008
1104,2,T1_SMS_8,156,5,42,127,783471904
1104,2,T1_SMS_8,157,1,48,54,784249612
1104,2,T1_SMS_8,158,5,42,127,784271936
1104,2,T1_SMS_8,159,1,48,54,785048076
1104,2,T1_SMS_8,160,5,42,127,785071448
1104,2,T1_SMS_8,161,1,48,49,785829412
1104,2,T1_SMS_8,162,5,42,127,785872152
1104,2,T1_SMS_8,163,1,48,54,786652028
1104,2,T1_SMS_8,164,5,42,127,786672036
1104,2,T1_SMS_8,165,1,48,53,787470188
1104,2,T1_SMS_8,166,5,42,127,787471696
1104,2,T1_SMS_8,167,5,42,127,788271584
1104,2,T1_SMS_8,168,1,48,54,788296244
1104,2,T1_SMS_8,169,5,42,127,789072216
1104,2,T1_SMS_8,170,1,48,52,789078056
1104,2,T1_SMS_8,171,5,42,127,789871972
1104,2,T1_SMS_8,172,1,48,54,789889004
1104,2,T1_SMS_8,173,1,48,55,790667632
1104,2,T1_SMS_8,174,5,42,127,790671852
1104,2,T1_SMS_8,175,5,42,127,791471368
1104,2,T1_SMS_8,176,1,48,55,791476360
1104,2,T1_SMS_8,177,5,42,127,792272148
1104,2,T1_SMS_8,178,1,48,52,792296812
1104,2,T1_SMS_8,179,5,42,127,793072104
1104,2,T1_SMS_8,180,1,48,54,793144036
1104,2,T1_SMS_8,181,1,48,50,793841884
1104,2,T1_SMS_8,182,5,42,127,793871756
1104,2,T1_SMS_8,183,1,48,51,794670596
1104,2,T1_SMS_8,184,5,42,127,794672012
1104,2,T1_SMS_8,185,5,42,127,795472276
1104,2,T1_SMS_8,186,1,48,48,795523064
1104,2,T1_SMS_8,187,1,48,54,796271888
1104,2,T1_SMS_8,188,5,42,127,796273372
1104,2,T1_SMS_8,189,1,48,50,797057296
1104,2,T1_SMS_8,190,5,42,127,797071836
1104,2,T1_SMS_8,191,1,48,48,797852088
1104,2,T1_SMS_8,192,5,42,127,797871420
1104,2,T1_SMS_8,193,1,48,50,798653916
1104,2,T1_SMS_8,194,5,42,127,798672200
1104,2,T1_SMS_8,195,1,48,47,799468760
1104,2,T1_SMS_8,196,5,42,127,799471932
1104,2,T1_SMS_8,197,5,42,127,800271824
1104,2,T1_SMS_8,198,1,48,48,800295660
1104,2,T1_SMS_8,199,5,42,127,801071484
1104,2,T1_SMS_8,200,1,48,55,801087768
1104,2,T1_SMS_8,201,5,42,127,801872112
1104,2,T1_SMS_8,202,1,48,51,801905100
1104,2,T1_SMS_8,203,5,42,127,802671872
1104,2,T1_SMS_8,204,1,48,53,802675960
1104,2,T1_SMS_8,205,5,42,127,803471828
1104,2,T1_SMS_8,206,1,48,52,803507108
1104,2,T1_SMS_8,207,1,48,51,804253720
1104,2,T1_SMS_8,208,5,42,127,804271924
1104,2,T1_SMS_8,209,5,42,127,805072120
1104,2,T1_SMS_8,210,1,48,49,805089896
1104,2,T1_SMS_8,211,1,48,51,805839052
1104,2,T1_SMS_8,212,5,42,127,805871848
1104,2,T1_SMS_8,213,1,48,53,806639604
1104,2,T1_SMS_8,214,5,42,127,806671656
1104,2,T1_SMS_8,215,1,48,53,807420860
1104,2,T1_SMS_8,216,5,42,127,807471760
1104,2,T1_SMS_8,217,5,42,127,808272100
1104,2,T1_SMS_8,218,1,48,53,808274840
1104,2,T1_SMS_8,219,5,42,127,809071932
1104,2,T1_SMS_8,220,1,48,49,809108864
1104,2,T1_SMS_8,221,1,48,50,809842980
1104,2,T1_SMS_8,222,5,42,127,809871660
1104,2,T1_SMS_8,223,1,48,55,810648544
1104,2,T1_SMS_8,224,5,42,127,810671692
1104,2,T1_SMS_8,225,1,48,52,811467352
1104,2,T1_SMS_8,226,5,42,127,811472172
1104,2,T1_SMS_8,227,5,42,127,812271988
1104,2,T1_SMS_8,228,1,48,50,812321628
1104,2,T1_SMS_8,229,1,48,51,813042956
1104,2,T1_SMS_8,230,5,42,127,813071712
1104,2,T1_SMS_8,231,1,48,51,813792800
1104,2,T1_SMS_8,232,5,42,127,813871444
1104,2,T1_SMS_8,233,1,48,50,814625820
1104,2,T1_SMS_8,234,5,42,127,814672376
1104,2,T1_SMS_8,235,1,48,51,815438492
1104,2,T1_SMS_8,236,5,42,127,815471908
1104,2,T1_SMS_8,237,1,48,46,816235704
1104,2,T1_SMS_8,238,5,42,127,816271644
1104,2,T1_SMS_8,239,1,48,51,817033188
1104,2,T1_SMS_8,0,9999,9999,9999,721069140
1104,2,T1_SMS_8,1,9999,9999,9999,721869940
1104,2,T1_SMS_8,2,9999,9999,9999,722669668
1104,2,T1_SMS_8,3,9999,9999,9999,723469404
1104,2,T1_SMS_8,4,9999,9999,9999,724269140
1104,2,T1_SMS_8,5,9999,9999,9999,725069920
1104,2,T1_SMS_8,6,9999,9999,9999,725869680
1104,2,T1_SMS_8,7,9999,9999,9999,726669404
1104,2,T1_SMS_8,8,9999,9999,9999,727469144
1104,2,T1_SMS_8,9,9999,9999,9999,728269924
1104,2,T1_SMS_8,10,9999,9999,9999,729069660
1104,2,T1_SMS_8,11,9999,9999,9999,729869392
1104,2,T1_SMS_8,12,9999,9999,9999,730669120
1104,2,T1_SMS_8,13,9999,9999,9999,731469904
1104,2,T1_SMS_8,14,9999,9999,9999,732269664
1104,2,T1_SMS_8,15,9999,9999,9999,733069396
1104,2,T1_SMS_8,16,9999,9999,9999,733869124
1104,2,T1_SMS_8,17,9999,9999,9999,734669908
1104,2,T1_SMS_8,18,9999,9999,9999,735469636
1104,2,T1_SMS_8,19,9999,9999,9999,736269376
1104,2,T1_SMS_8,20,9999,9999,9999,737069108
1104,2,T1_SMS_8,21,9999,9999,9999,737869880
1104,2,T1_SMS_8,22,9999,9999,9999,738669640
1104,2,T1_SMS_8,23,9999,9999,9999,739469372
1104,2,T1_SMS_8,24,9999,9999,9999,740269108
1104,2,T1_SMS_8,25,9999,9999,9999,741069888
1104,2,T1_SMS_8,26,9999,9999,9999,741869628
1104,2,T1_SMS_8,27,9999,9999,9999,742669364
1104,2,T1_SMS_8,28,9999,9999,9999,743469168
1104,2,T1_SMS_8,29,9999,9999,9999,744269876
1104,2,T1_SMS_8,30,9999,9999,9999,745069628
1104,2,T1_SMS_8,31,9999,9999,9999,745869360
1104,2,T1_SMS_8,32,9999,9999,9999,746669168
1104,2,T1_SMS_8,33,9999,9999,9999,747469880
1104,2,T1_SMS_8,34,9999,9999,9999,748269684
1104,2,T1_SMS_8,35,9999,9999,9999,749069416
1104,2,T1_SMS_8,36,9999,9999,9999,749869148
1104,2,T1_SMS_8,37,9999,9999,9999,750669932
1104,2,T1_SMS_8,38,9999,9999,9999,751469612
1104,2,T1_SMS_8,39,9999,9999,9999,752269428
1104,2,T1_SMS_8,40,9999,9999,9999,753069160
1104,2,T1_SMS_8,41,9999,9999,9999,753869940
1104,2,T1_SMS_8,42,9999,9999,9999,754669676
1104,2,T1_SMS_8,43,9999,9999,9999,755469408
1104,2,T1_SMS_8,44,9999,9999,9999,756269140
1104,2,T1_SMS_8,45,9999,9999,9999,757069920
1104,2,T1_SMS_8,46,9999,9999,9999,757869676
1104,2,T1_SMS_8,47,9999,9999,9999,758669412
1104,2,T1_SMS_8,48,9999,9999,9999,759469144
1104,2,T1_SMS_8,49,9999,9999,9999,760269920
1104,2,T1_SMS_8,50,9999,9999,9999,761069652
1104,2,T1_SMS_8,51,9999,9999,9999,761869384
1104,2,T1_SMS_8,52,9999,9999,9999,762669128
1104,2,T1_SMS_8,53,9999,9999,9999,763469908
1104,2,T1_SMS_8,54,9999,9999,9999,764269660
1104,2,T1_SMS_8,55,9999,9999,9999,765069392
1104,2,T1_SMS_8,56,9999,9999,9999,765869128
1104,2,T1_SMS_8,57,9999,9999,9999,766669912
1104,2,T1_SMS_8,58,9999,9999,9999,767469644
1104,2,T1_SMS_8,59,9999,9999,9999,768269380
1104,2,T1_SMS_8,60,9999,9999,9999,769069112
1104,2,T1_SMS_8,61,9999,9999,9999,769869888
1104,2,T1_SMS_8,62,9999,9999,9999,770669652
1104,2,T1_SMS_8,63,9999,9999,9999,771469384
1104,2,T1_SMS_8,64,9999,9999,9999,772269112
1104,2,T1_SMS_8,65,9999,9999,9999,773069900
1104,2,T1_SMS_8,66,9999,9999,9999,773869628
1104,2,T1_SMS_8,67,9999,9999,9999,774669360
1104,2,T1_SMS_8,68,9999,9999,9999,775469176
1104,2,T1_SMS_8,69,9999,9999,9999,776269880
1104,2,T1_SMS_8,70,9999,9999,9999,777069632
1104,2,T1_SMS_8,71,9999,9999,9999,777869364
1104,2,T1_SMS_8,72,9999,9999,9999,778669176
1104,2,T1_SMS_8,73,9999,9999,9999,779469892
1104,2,T1_SMS_8,74,9999,9999,9999,780269620
1104,2,T1_SMS_8,75,9999,9999,9999,781069420
1104,2,T1_SMS_8,76,9999,9999,9999,781869152
1104,2,T1_SMS_8,77,9999,9999,9999,782669932
1104,2,T1_SMS_8,78,9999,9999,9999,783469616
1104,2,T1_SMS_8,79,9999,9999,9999,784269424
1104,2,T1_SMS_8,80,9999,9999,9999,785069160
1104,2,T1_SMS_8,81,9999,9999,9999,785869940
1104,2,T1_SMS_8,82,9999,9999,9999,786669676
1104,2,T1_SMS_8,83,9999,9999,9999,787469412
1104,2,T1_SMS_8,84,9999,9999,9999,788269148
1104,2,T1_SMS_8,85,9999,9999,9999,789069928
1104,2,T1_SMS_8,86,9999,9999,9999,789869684
1104,2,T1_SMS_8,87,9999,9999,9999,790669412
1104,2,T1_SMS_8,88,9999,9999,9999,791469152
1104,2,T1_SMS_8,89,9999,9999,9999,792269932
1104,2,T1_SMS_8,90,9999,9999,9999,793069668
1104,2,T1_SMS_8,91,9999,9999,9999,793869396
1104,2,T1_SMS_8,92,9999,9999,9999,794669136
1104,2,T1_SMS_8,93,9999,9999,9999,795469916
1104,2,T1_SMS_8,94,9999,9999,9999,796269672
1104,2,T1_SMS_8,95,9999,9999,9999,797069400
1104,2,T1_SMS_8,96,9999,9999,9999,797869132
1104,2,T1_SMS_8,97,9999,9999,9999,798669912
1104,2,T1_SMS_8,98,9999,9999,9999,799469648
1104,2,T1_SMS_8,99,9999,9999,9999,800269388
1104,2,T1_SMS_8,100,9999,9999,9999,801069120
1104,2,T1_SMS_8,101,9999,9999,9999,801869900
1104,2,T1_SMS_8,102,9999,9999,9999,802669656
1104,2,T1_SMS_8,103,9999,9999,9999,803469388
1104,2,T1_SMS_8,104,9999,9999,9999,804269116
1104,2,T1_SMS_8,105,9999,9999,9999,805069904
1104,2,T1_SMS_8,106,9999,9999,9999,805869632
1104,2,T1_SMS_8,107,9999,9999,9999,806669368
1104,2,T1_SMS_8,108,9999,9999,9999,807469172
1104,2,T1_SMS_8,109,9999,9999,9999,808269884
1104,2,T1_SMS_8,110,9999,9999,9999,809069644
1104,2,T1_SMS_8,111,9999,9999,9999,809869372
1104,2,T1_SMS_8,112,9999,9999,9999,810669104
1104,2,T1_SMS_8,113,9999,9999,9999,811469884
1104,2,T1_SMS_8,114,9999,9999,9999,812269624
1104,2,T1_SMS_8,115,9999,9999,9999,813069428
1104,2,T1_SMS_8,116,9999,9999,9999,813869160
1104,2,T1_SMS_8,117,9999,9999,9999,814669940
1104,2,T1_SMS_8,118,9999,9999,9999,815469620
1104,2,T1_SMS_8,119,9999,9999,9999,816269428
1105,23,Ticks_Phase_5,0,5,42,127,827083200
1105,23,Ticks_Phase_5,1,5,42,127,827582764
1105,23,Ticks_Phase_5,2,5,42,127,828082400
1105,23,Ticks_Phase_5,3,1,48,40,828570992
1105,23,Ticks_Phase_5,4,5,42,127,828583300
1105,23,Ticks_Phase_5,5,5,42,127,829083144
1105,23,Ticks_Phase_5,6,1,48,43,829091140
1105,23,Ticks_Phase_5,7,5,42,127,829582760
1105,23,Ticks_Phase_5,8,1,48,42,829599204
1105,23,Ticks_Phase_5,9,5,42,127,830082448
1105,23,Ticks_Phase_5,10,1,48,45,830093580
1105,23,Ticks_Phase_5,11,5,42,127,830583104
1105,23,Ticks_Phase_5,12,1,48,46,830598432
1105,23,Ticks_Phase_5,13,5,42,127,831082944
1105,23,Ticks_Phase_5,14,1,48,46,831097220
1105,23,Ticks_Phase_5,15,5,42,127,831582556
1105,23,Ticks_Phase_5,16,1,48,45,831583596
1105,23,Ticks_Phase_5,17,5,42,127,832083216
1105,23,Ticks_Phase_5,18,1,48,43,832100944
1105,23,Ticks_Phase_5,19,1,48,40,832581064
1105,23,Ticks_Phase_5,20,5,42,127,832583020
1105,23,Ticks_Phase_5,21,1,48,40,833051832
1105,23,Ticks_Phase_5,22,5,42,127,833082712
1105,23,Ticks_Phase_5,23,1,48,34,833577424
1105,23,Ticks_Phase_5,24,5,42,127,833582400
1105,23,Ticks_Phase_5,25,5,42,127,834083216
1105,23,Ticks_Phase_5,26,1,48,42,834091136
1105,23,Ticks_Phase_5,27,1,48,41,834575076
1105,23,Ticks_Phase_5,28,5,42,127,834582972
1105,23,Ticks_Phase_5,29,1,48,39,835049148
1105,23,Ticks_Phase_5,30,5,42,127,835082660
1105,23,Ticks_Phase_5,31,5,42,127,835583328
1105,23,Ticks_Phase_5,32,1,48,53,835584964
1105,23,Ticks_Phase_5,33,5,42,127,836083016
1105,23,Ticks_Phase_5,34,1,48,38,836117060
1105,23,Ticks_Phase_5,35,5,42,127,836582704
1105,23,Ticks_Phase_5,36,1,48,47,836598696
1105,23,Ticks_Phase_5,37,5,42,127,837082540
1105,23,Ticks_Phase_5,38,1,48,50,837089700
1105,23,Ticks_Phase_5,39,5,42,127,837583200
1105,23,Ticks_Phase_5,40,1,48,49,837589612
1105,23,Ticks_Phase_5,41,5,42,127,838083112
1105,23,Ticks_Phase_5,42,1,48,49,838093052
1105,23,Ticks_Phase_5,43,1,48,54,838577820
1105,23,Ticks_Phase_5,44,5,42,127,838582572
1105,23,Ticks_Phase_5,45,1,48,54,839078628
1105,23,Ticks_Phase_5,46,5,42,127,839083528
1105,23,Ticks_Phase_5,47,1,48,51,839571360
1105,23,Ticks_Phase_5,48,5,42,127,839583216
1105,23,Ticks_Phase_5,49,5,42,127,840083060
1105,23,Ticks_Phase_5,50,1,48,54,840116364
1105,23,Ticks_Phase_5,51,5,42,127,840582376
1105,23,Ticks_Phase_5,52,1,48,53,840602872
1105,23,Ticks_Phase_5,53,5,42,127,841083184
1105,23,Ticks_Phase_5,54,1,48,53,841096864
1105,23,Ticks_Phase_5,55,5,42,127,841583172
1105,23,Ticks_Phase_5,56,1,48,54,841584136
1105,23,Ticks_Phase_5,57,5,42,127,842072456
1105,23,Ticks_Phase_5,58,1,48,52,842082016
1105,23,Ticks_Phase_5,59,5,42,127,842573164
1105,23,Ticks_Phase_5,60,1,48,53,842604696
1105,23,Ticks_Phase_5,61,5,42,127,843073152
1105,23,Ticks_Phase_5,62,1,48,56,843096368
1105,23,Ticks_Phase_5,63,1,48,51,843566060
1105,23,Ticks_Phase_5,64,5,42,127,843572460
1105,23,Ticks_Phase_5,65,1,48,51,844058112
1105,23,Ticks_Phase_5,66,5,42,127,844073344
1105,23,Ticks_Phase_5,67,1,48,51,844567312
1105,23,Ticks_Phase_5,68,5,42,127,844573036
1105,23,Ticks_Phase_5,69,1,48,53,845056888
1105,23,Ticks_Phase_5,70,5,42,127,845073020
1105,23,Ticks_Phase_5,71,1,48,48,845563996
1105,23,Ticks_Phase_5,72,5,42,127,845572412
1105,23,Ticks_Phase_5,73,1,48,44,846041224
1105,23,Ticks_Phase_5,74,5,42,127,846073148
1105,23,Ticks_Phase_5,75,1,48,46,846567036
1105,23,Ticks_Phase_5,76,5,42,127,846573056
1105,23,Ticks_Phase_5,77,1,48,60,847063212
1105,23,Ticks_Phase_5,78,5,42,127,847072524
1105,23,Ticks_Phase_5,79,1,48,43,847556904
1105,23,Ticks_Phase_5,80,5,42,127,847573332
1105,23,Ticks_Phase_5,81,1,48,41,848058904
1105,23,Ticks_Phase_5,82,5,42,127,848073020
1105,23,Ticks_Phase_5,83,1,48,44,848557920
1105,23,Ticks_Phase_5,84,5,42,127,848572932
1105,23,Ticks_Phase_5,85,5,42,127,849072480
1105,23,Ticks_Phase_5,86,1,48,54,849074996
1105,23,Ticks_Phase_5,87,5,42,127,849573360
1105,23,Ticks_Phase_5,88,1,48,38,849599692
1105,23,Ticks_Phase_5,89,1,48,45,850073348
1105,23,Ticks_Phase_5,90,5,42,127,850074388
1105,23,Ticks_Phase_5,91,1,48,42,850547836
1105,23,Ticks_Phase_5,92,5,42,127,850572732
1105,23,Ticks_Phase_5,93,1,48,60,851058836
1105,23,Ticks_Phase_5,94,5,42,127,851082536
1105,23,Ticks_Phase_5,95,1,48,52,851576792
1105,23,Ticks_Phase_5,96,5,42,127,851583344
1105,23,Ticks_Phase_5,97,1,48,41,852070340
1105,23,Ticks_Phase_5,98,5,42,127,852083032
1105,23,Ticks_Phase_5,99,5,42,127,852582952
1105,23,Ticks_Phase_5,100,1,48,45,852607712
1105,23,Ticks_Phase_5,101,1,48,61,853082420
1105,23,Ticks_Phase_5,102,5,42,127,853083832
1105,23,Ticks_Phase_5,103,1,48,46,853567436
1105,23,Ticks_Phase_5,104,5,42,127,853583344
1105,23,Ticks_Phase_5,105,1,48,43,854073648
1105,23,Ticks_Phase_5,106,5,42,127,854083032
1105,23,Ticks_Phase_5,107,1,48,47,854569584
1105,23,Ticks_Phase_5,108,5,42,127,854582872
1105,23,Ticks_Phase_5,109,1,48,62,855064184
1105,23,Ticks_Phase_5,110,5,42,127,855083236
1105,23,Ticks_Phase_5,111,1,48,39,855550160
1105,23,Ticks_Phase_5,112,5,42,127,855583220
1105,23,Ticks_Phase_5,113,1,48,47,856057864
1105,23,Ticks_Phase_5,114,5,42,127,856082832
1105,23,Ticks_Phase_5,115,1,48,48,856560316
1105,23,Ticks_Phase_5,116,5,42,127,856582372
1105,23,Ticks_Phase_5,117,1,48,66,857072200
1105,23,Ticks_Phase_5,118,5,42,127,857083308
1105,23,Ticks_Phase_5,119,5,42,127,857582928
1105,23,Ticks_Phase_5,120,1,48,44,857593988
1105,23,Ticks_Phase_5,121,1,48,38,858033528
1105,23,Ticks_Phase_5,122,5,42,127,858082684
1105,23,Ticks_Phase_5,123,5,42,127,858583348
1105,23,Ticks_Phase_5,124,1,48,43,858591272
1105,23,Ticks_Phase_5,125,5,42,127,859102808
1105,23,Ticks_Phase_5,126,1,48,59,859106456
1105,23,Ticks_Phase_5,127,5,42,127,859603248
1105,23,Ticks_Phase_5,128,1,48,49,859609208
1105,23,Ticks_Phase_5,129,1,48,44,860090772
1105,23,Ticks_Phase_5,130,5,42,127,860103076
1105,23,Ticks_Phase_5,131,1,48,51,860588724
1105,23,Ticks_Phase_5,132,5,42,127,860602912
1105,23,Ticks_Phase_5,133,5,42,127,861102384
1105,23,Ticks_Phase_5,134,1,48,61,861104472
1105,23,Ticks_Phase_5,135,1,48,52,861603416
1105,23,Ticks_Phase_5,136,5,42,127,861604680
1105,23,Ticks_Phase_5,137,5,42,127,862103032
1105,23,Ticks_Phase_5,138,1,48,48,862117160
1105,23,Ticks_Phase_5,139,1,48,51,862576776
1105,23,Ticks_Phase_5,140,5,42,127,862602860
1105,23,Ticks_Phase_5,141,5,42,127,863103308
1105,23,Ticks_Phase_5,142,1,48,55,863108744
1105,23,Ticks_Phase_5,143,1,48,44,863599664
1105,23,Ticks_Phase_5,144,5,42,127,863603140
1105,23,Ticks_Phase_5,145,5,42,127,864102908
1105,23,Ticks_Phase_5,146,1,48,36,864120324
1105,23,Ticks_Phase_5,147,1,48,51,864597020
1105,23,Ticks_Phase_5,148,5,42,127,864602740
1105,23,Ticks_Phase_5,149,1,48,58,865087168
1105,23,Ticks_Phase_5,150,5,42,127,865103152
1105,23,Ticks_Phase_5,151,1,48,54,865594320
1105,23,Ticks_Phase_5,152,5,42,127,865603036
1105,23,Ticks_Phase_5,153,5,42,127,866102808
1105,23,Ticks_Phase_5,154,1,48,47,866121284
1105,23,Ticks_Phase_5,155,5,42,127,866603244
1105,23,Ticks_Phase_5,156,1,48,53,866614752
1105,23,Ticks_Phase_5,157,1,48,58,867086348
1105,23,Ticks_Phase_5,158,5,42,127,867103152
1105,23,Ticks_Phase_5,159,5,42,127,867583524
1105,23,Ticks_Phase_5,160,1,48,55,867611740
1105,23,Ticks_Phase_5,161,5,42,127,868082988
1105,23,Ticks_Phase_5,162,1,48,48,868103260
1105,23,Ticks_Phase_5,163,1,48,52,868556200
1105,23,Ticks_Phase_5,164,5,42,127,868582744
1105,23,Ticks_Phase_5,165,1,48,52,869061136
1105,23,Ticks_Phase_5,166,5,42,127,869082508
1105,23,Ticks_Phase_5,167,1,48,51,869574300
1105,23,Ticks_Phase_5,168,5,42,127,869583168
1105,23,Ticks_Phase_5,169,1,48,57,870059084
1105,23,Ticks_Phase_5,170,5,42,127,870082856
1105,23,Ticks_Phase_5,171,1,48,55,870557200
1105,23,Ticks_Phase_5,172,5,42,127,870582620
1105,23,Ticks_Phase_5,173,1,48,55,871059132
1105,23,Ticks_Phase_5,174,5,42,127,871083580
1105,23,Ticks_Phase_5,175,1,48,57,871559044
1105,23,Ticks_Phase_5,176,5,42,127,871582972
1105,23,Ticks_Phase_5,177,1,48,59,872071696
1105,23,Ticks_Phase_5,178,5,42,127,872082880
1105,23,Ticks_Phase_5,179,1,48,55,872549280
1105,23,Ticks_Phase_5,180,5,42,127,872582720
1105,23,Ticks_Phase_5,181,1,48,53,873041944
1105,23,Ticks_Phase_5,182,5,42,127,873083752
1105,23,Ticks_Phase_5,183,1,48,53,873563572
1105,23,Ticks_Phase_5,184,5,42,127,873582992
1105,23,Ticks_Phase_5,185,5,42,127,874082616
1105,23,Ticks_Phase_5,186,1,48,50,874085356
1105,23,Ticks_Phase_5,187,1,48,54,874569952
1105,23,Ticks_Phase_5,188,5,42,127,874583640
1105,23,Ticks_Phase_5,189,1,48,56,875050988
1105,23,Ticks_Phase_5,190,5,42,127,875083156
1105,23,Ticks_Phase_5,191,5,42,127,875532676
1105,23,Ticks_Phase_5,192,1,48,57,875566044
1105,23,Ticks_Phase_5,193,1,48,55,876019436
1105,23,Ticks_Phase_5,194,5,42,127,876033552
1105,23,Ticks_Phase_5,195,1,48,53,876506552
1105,23,Ticks_Phase_5,196,5,42,127,876533164
1105,23,Ticks_Phase_5,197,1,48,52,876998444
1105,23,Ticks_Phase_5,198,5,42,127,877032776
1105,23,Ticks_Phase_5,199,1,48,55,877511852
1105,23,Ticks_Phase_5,200,5,42,127,877532468
1105,23,Ticks_Phase_5,201,1,48,57,878011688
1105,23,Ticks_Phase_5,202,5,42,127,878033500
1105,23,Ticks_Phase_5,203,1,48,56,878505304
1105,23,Ticks_Phase_5,204,5,42,127,878532964
1105,23,Ticks_Phase_5,205,1,48,58,879007836
1105,23,Ticks_Phase_5,206,5,42,127,879032728
1105,23,Ticks_Phase_5,207,1,48,52,879504456
1105,23,Ticks_Phase_5,208,5,42,127,879533684
1105,23,Ticks_Phase_5,209,1,48,56,880014996
1105,23,Ticks_Phase_5,210,5,42,127,880043632
1105,23,Ticks_Phase_5,211,1,48,54,880524424
1105,23,Ticks_Phase_5,212,5,42,127,880543024
1105,23,Ticks_Phase_5,213,1,48,54,880997968
1105,23,Ticks_Phase_5,214,5,42,127,881042784
1105,23,Ticks_Phase_5,215,1,48,52,881505524
1105,23,Ticks_Phase_5,216,5,42,127,881542476
1105,23,Ticks_Phase_5,217,1,48,56,882039132
1105,23,Ticks_Phase_5,218,5,42,127,882043728
1105,23,Ticks_Phase_5,219,5,42,127,882542904
1105,23,Ticks_Phase_5,220,1,48,56,882555756
1105,23,Ticks_Phase_5,221,1,48,59,883035220
1105,23,Ticks_Phase_5,222,5,42,127,883042808
1105,23,Ticks_Phase_5,223,1,48,56,883523124
1105,23,Ticks_Phase_5,224,5,42,127,883543548
1105,23,Ticks_Phase_5,225,1,48,52,884031352
1105,23,Ticks_Phase_5,226,5,42,127,884093484
1105,23,Ticks_Phase_5,227,1,48,54,884563492
1105,23,Ticks_Phase_5,228,5,42,127,884593320
1105,23,Ticks_Phase_5,229,1,48,54,885086988
1105,23,Ticks_Phase_5,230,5,42,127,885092860
1105,23,Ticks_Phase_5,231,5,42,127,885592556
1105,23,Ticks_Phase_5,232,1,48,54,885602044
1105,23,Ticks_Phase_5,233,1,48,55,886080344
1105,23,Ticks_Phase_5,234,5,42,127,886093336
1105,23,Ticks_Phase_5,235,1,48,53,886562444
1105,23,Ticks_Phase_5,236,5,42,127,886592948
1105,23,Ticks_Phase_5,237,1,48,53,887074188
1105,23,Ticks_Phase_5,238,5,42,127,887092712
1105,23,Ticks_Phase_5,239,1,48,54,887587576
1105,23,Ticks_Phase_5,240,5,42,127,887593376
1105,23,Ticks_Phase_5,241,5,42,127,888092996
1105,23,Ticks_Phase_5,242,1,48,57,888107272
1105,23,Ticks_Phase_5,243,1,48,56,888586508
1105,23,Ticks_Phase_5,244,5,42,127,888592676
1105,23,Ticks_Phase_5,245,1,48,58,889073612
1105,23,Ticks_Phase_5,246,5,42,127,889092440
1105,23,Ticks_Phase_5,247,5,42,127,889593328
1105,23,Ticks_Phase_5,248,1,48,60,889601772
1105,23,Ticks_Phase_5,249,1,48,57,890079572
1105,23,Ticks_Phase_5,250,5,42,127,890092860
1105,23,Ticks_Phase_5,251,1,48,57,890592480
1105,23,Ticks_Phase_5,252,5,42,127,890593892
1105,23,Ticks_Phase_5,253,5,42,127,891093516
1105,23,Ticks_Phase_5,254,1,48,58,891104800
1105,23,Ticks_Phase_5,255,1,48,56,891587400
1105,23,Ticks_Phase_5,256,5,42,127,891593272
1105,23,Ticks_Phase_5,257,1,48,57,892065372
1105,23,Ticks_Phase_5,258,5,42,127,892092664
1105,23,Ticks_Phase_5,259,1,48,57,892569104
1105,23,Ticks_Phase_5,260,5,42,127,892692836
1105,23,Ticks_Phase_5,261,1,48,51,893179324
1105,23,Ticks_Phase_5,262,5,42,127,893192540
1105,23,Ticks_Phase_5,263,5,42,127,893693208
1105,23,Ticks_Phase_5,264,1,48,53,893759828
1105,23,Ticks_Phase_5,265,5,42,127,894193116
1105,23,Ticks_Phase_5,266,1,48,54,894212568
1105,23,Ticks_Phase_5,267,1,48,56,894675768
1105,23,Ticks_Phase_5,268,5,42,127,894692652
1105,23,Ticks_Phase_5,269,1,48,57,895163104
1105,23,Ticks_Phase_5,270,5,42,127,895192416
1105,23,Ticks_Phase_5,271,1,48,57,895653960
1105,23,Ticks_Phase_5,272,5,42,127,895693300
1105,23,Ticks_Phase_5,273,1,48,54,896164500
1105,23,Ticks_Phase_5,274,5,42,127,896192836
1105,23,Ticks_Phase_5,275,1,48,54,896641724
1105,23,Ticks_Phase_5,276,5,42,127,896692676
1105,23,Ticks_Phase_5,277,1,48,54,897189112
1105,23,Ticks_Phase_5,278,5,42,127,897193412
1105,23,Ticks_Phase_5,279,1,48,53,897654356
1105,23,Ticks_Phase_5,280,5,42,127,897693248
1105,23,Ticks_Phase_5,281,1,48,46,898181236
1105,23,Ticks_Phase_5,282,5,42,127,898192640
1105,23,Ticks_Phase_5,283,1,48,53,898684808
1105,23,Ticks_Phase_5,284,5,42,127,898692404
1105,23,Ticks_Phase_5,285,1,48,59,899173492
1105,23,Ticks_Phase_5,286,5,42,127,899193288
1105,23,Ticks_Phase_5,287,1,48,55,899665312
1105,23,Ticks_Phase_5,288,5,42,127,899693124
1105,23,Ticks_Phase_5,289,1,48,51,900189856
1105,23,Ticks_Phase_5,290,5,42,127,900192512
1105,23,Ticks_Phase_5,291,1,48,53,900659344
1105,23,Ticks_Phase_5,292,5,42,127,900693248
1105,23,Ticks_Phase_5,293,1,48,46,901175360
1105,23,Ticks_Phase_5,294,5,42,127,901193360
1105,23,Ticks_Phase_5,295,1,48,54,901670024
1105,23,Ticks_Phase_5,296,5,42,127,901692824
1105,23,Ticks_Phase_5,297,5,42,127,902093144
1105,23,Ticks_Phase_5,298,1,48,53,902176168
1105,23,Ticks_Phase_5,299,5,42,127,902592908
1105,23,Ticks_Phase_5,300,1,48,48,902628676
1105,23,Ticks_Phase_5,301,1,48,46,903075336
1105,23,Ticks_Phase_5,302,5,42,127,903092516
1105,23,Ticks_Phase_5,303,1,48,53,903542300
1105,23,Ticks_Phase_5,304,5,42,127,903593252
1105,23,Ticks_Phase_5,305,1,48,54,904088936
1105,23,Ticks_Phase_5,306,5,42,127,904093164
1105,23,Ticks_Phase_5,307,1,48,52,904559340
1105,23,Ticks_Phase_5,308,5,42,127,904592704
1105,23,Ticks_Phase_5,309,1,48,50,905066824
1105,23,Ticks_Phase_5,310,5,42,127,905092468
1105,23,Ticks_Phase_5,311,1,48,46,905558868
1105,23,Ticks_Phase_5,312,5,42,127,905593052
1105,23,Ticks_Phase_5,313,1,48,51,906062436
1105,23,Ticks_Phase_5,314,5,42,127,906093040
1105,23,Ticks_Phase_5,315,1,48,51,906588576
1105,23,Ticks_Phase_5,316,5,42,127,906592504
1105,23,Ticks_Phase_5,317,1,48,48,907069364
1105,23,Ticks_Phase_5,318,5,42,127,907093388
1105,23,Ticks_Phase_5,319,1,48,51,907571760
1105,23,Ticks_Phase_5,320,5,42,127,907593052
1105,23,Ticks_Phase_5,321,1,48,53,908067320
1105,23,Ticks_Phase_5,322,5,42,127,908092888
1105,23,Ticks_Phase_5,323,1,48,47,908579360
1105,23,Ticks_Phase_5,324,5,42,127,908592428
1105,23,Ticks_Phase_5,325,5,42,127,909093168
1105,23,Ticks_Phase_5,326,1,48,53,909105276
1105,23,Ticks_Phase_5,327,1,48,50,909585556
1105,23,Ticks_Phase_5,328,5,42,127,909593000
1105,23,Ticks_Phase_5,329,1,48,51,910091488
1105,23,Ticks_Phase_5,330,5,42,127,910092984
1105,23,Ticks_Phase_5,331,5,42,127,910593428
1105,23,Ticks_Phase_5,332,1,48,47,910613552
1105,23,Ticks_Phase_5,333,5,42,127,911093044
1105,23,Ticks_Phase_5,334,1,48,51,911116532
1105,23,Ticks_Phase_5,335,1,48,50,911587452
1105,23,Ticks_Phase_5,336,5,42,127,911592948
1105,23,Ticks_Phase_5,0,9999,9999,9999,827080768
1105,23,Ticks_Phase_5,1,9999,9999,9999,827580476
1105,23,Ticks_Phase_5,2,9999,9999,9999,828080184
1105,23,Ticks_Phase_5,3,9999,9999,9999,828580936
1105,23,Ticks_Phase_5,4,9999,9999,9999,829080636
1105,23,Ticks_Phase_5,5,9999,9999,9999,829580396
1105,23,Ticks_Phase_5,6,9999,9999,9999,830080084
1105,23,Ticks_Phase_5,7,9999,9999,9999,830580820
1105,23,Ticks_Phase_5,8,9999,9999,9999,831080508
1105,23,Ticks_Phase_5,9,9999,9999,9999,831580272
1105,23,Ticks_Phase_5,10,9999,9999,9999,832080980
1105,23,Ticks_Phase_5,11,9999,9999,9999,832580692
1105,23,Ticks_Phase_5,12,9999,9999,9999,833080424
1105,23,Ticks_Phase_5,13,9999,9999,9999,833580112
1105,23,Ticks_Phase_5,14,9999,9999,9999,834080852
1105,23,Ticks_Phase_5,15,9999,9999,9999,834580536
1105,23,Ticks_Phase_5,16,9999,9999,9999,835080300
1105,23,Ticks_Phase_5,17,9999,9999,9999,835581040
1105,23,Ticks_Phase_5,18,9999,9999,9999,836080728
1105,23,Ticks_Phase_5,19,9999,9999,9999,836580416
1105,23,Ticks_Phase_5,20,9999,9999,9999,837080180
1105,23,Ticks_Phase_5,21,9999,9999,9999,837580916
1105,23,Ticks_Phase_5,22,9999,9999,9999,838080604
1105,23,Ticks_Phase_5,23,9999,9999,9999,838580284
1105,23,Ticks_Phase_5,24,9999,9999,9999,839081020
1105,23,Ticks_Phase_5,25,9999,9999,9999,839580780
1105,23,Ticks_Phase_5,26,9999,9999,9999,840080476
1105,23,Ticks_Phase_5,27,9999,9999,9999,840580164
1105,23,Ticks_Phase_5,28,9999,9999,9999,841080900
1105,23,Ticks_Phase_5,29,9999,9999,9999,841580660
1105,23,Ticks_Phase_5,30,9999,9999,9999,842070092
1105,23,Ticks_Phase_5,31,9999,9999,9999,842570876
1105,23,Ticks_Phase_5,32,9999,9999,9999,843070568
1105,23,Ticks_Phase_5,33,9999,9999,9999,843570248
1105,23,Ticks_Phase_5,34,9999,9999,9999,844070984
1105,23,Ticks_Phase_5,35,9999,9999,9999,844570748
1105,23,Ticks_Phase_5,36,9999,9999,9999,845070436
1105,23,Ticks_Phase_5,37,9999,9999,9999,845570124
1105,23,Ticks_Phase_5,38,9999,9999,9999,846070860
1105,23,Ticks_Phase_5,39,9999,9999,9999,846570624
1105,23,Ticks_Phase_5,40,9999,9999,9999,847070312
1105,23,Ticks_Phase_5,41,9999,9999,9999,847571048
1105,23,Ticks_Phase_5,42,9999,9999,9999,848070732
1105,23,Ticks_Phase_5,43,9999,9999,9999,848570424
1105,23,Ticks_Phase_5,44,9999,9999,9999,849070192
1105,23,Ticks_Phase_5,45,9999,9999,9999,849570924
1105,23,Ticks_Phase_5,46,9999,9999,9999,850070612
1105,23,Ticks_Phase_5,47,9999,9999,9999,850570296
1105,23,Ticks_Phase_5,48,9999,9999,9999,851080248
1105,23,Ticks_Phase_5,49,9999,9999,9999,851580984
1105,23,Ticks_Phase_5,50,9999,9999,9999,852080748
1105,23,Ticks_Phase_5,51,9999,9999,9999,852580444
1105,23,Ticks_Phase_5,52,9999,9999,9999,853080132
1105,23,Ticks_Phase_5,53,9999,9999,9999,853580908
1105,23,Ticks_Phase_5,54,9999,9999,9999,854080600
1105,23,Ticks_Phase_5,55,9999,9999,9999,854580288
1105,23,Ticks_Phase_5,56,9999,9999,9999,855081024
1105,23,Ticks_Phase_5,57,9999,9999,9999,855580784
1105,23,Ticks_Phase_5,58,9999,9999,9999,856080472
1105,23,Ticks_Phase_5,59,9999,9999,9999,856580160
1105,23,Ticks_Phase_5,60,9999,9999,9999,857080944
1105,23,Ticks_Phase_5,61,9999,9999,9999,857580640
1105,23,Ticks_Phase_5,62,9999,9999,9999,858080320
1105,23,Ticks_Phase_5,63,9999,9999,9999,858581060
1105,23,Ticks_Phase_5,64,9999,9999,9999,859100224
1105,23,Ticks_Phase_5,65,9999,9999,9999,859600960
1105,23,Ticks_Phase_5,66,9999,9999,9999,860100716
1105,23,Ticks_Phase_5,67,9999,9999,9999,860600404
1105,23,Ticks_Phase_5,68,9999,9999,9999,861100100
1105,23,Ticks_Phase_5,69,9999,9999,9999,861600832
1105,23,Ticks_Phase_5,70,9999,9999,9999,862100596
1105,23,Ticks_Phase_5,71,9999,9999,9999,862600276
1105,23,Ticks_Phase_5,72,9999,9999,9999,863101020
1105,23,Ticks_Phase_5,73,9999,9999,9999,863600704
1105,23,Ticks_Phase_5,74,9999,9999,9999,864100472
1105,23,Ticks_Phase_5,75,9999,9999,9999,864600156
1105,23,Ticks_Phase_5,76,9999,9999,9999,865100868
1105,23,Ticks_Phase_5,77,9999,9999,9999,865600604
1105,23,Ticks_Phase_5,78,9999,9999,9999,866100296
1105,23,Ticks_Phase_5,79,9999,9999,9999,866601032
1105,23,Ticks_Phase_5,80,9999,9999,9999,867100788
1105,23,Ticks_Phase_5,81,9999,9999,9999,867581012
1105,23,Ticks_Phase_5,82,9999,9999,9999,868080700
1105,23,Ticks_Phase_5,83,9999,9999,9999,868580460
1105,23,Ticks_Phase_5,84,9999,9999,9999,869080148
1105,23,Ticks_Phase_5,85,9999,9999,9999,869580880
1105,23,Ticks_Phase_5,86,9999,9999,9999,870080572
1105,23,Ticks_Phase_5,87,9999,9999,9999,870580332
1105,23,Ticks_Phase_5,88,9999,9999,9999,871081068
1105,23,Ticks_Phase_5,89,9999,9999,9999,871580756
1105,23,Ticks_Phase_5,90,9999,9999,9999,872080444
1105,23,Ticks_Phase_5,91,9999,9999,9999,872580208
1105,23,Ticks_Phase_5,92,9999,9999,9999,873080944
1105,23,Ticks_Phase_5,93,9999,9999,9999,873580632
1105,23,Ticks_Phase_5,94,9999,9999,9999,874080328
1105,23,Ticks_Phase_5,95,9999,9999,9999,874581056
1105,23,Ticks_Phase_5,96,9999,9999,9999,875080792
1105,23,Ticks_Phase_5,97,9999,9999,9999,875530312
1105,23,Ticks_Phase_5,98,9999,9999,9999,876031040
1105,23,Ticks_Phase_5,99,9999,9999,9999,876530804
1105,23,Ticks_Phase_5,100,9999,9999,9999,877030492
1105,23,Ticks_Phase_5,101,9999,9999,9999,877530184
1105,23,Ticks_Phase_5,102,9999,9999,9999,878030916
1105,23,Ticks_Phase_5,103,9999,9999,9999,878530680
1105,23,Ticks_Phase_5,104,9999,9999,9999,879030368
1105,23,Ticks_Phase_5,105,9999,9999,9999,879531100
1105,23,Ticks_Phase_5,106,9999,9999,9999,880041048
1105,23,Ticks_Phase_5,107,9999,9999,9999,880540736
1105,23,Ticks_Phase_5,108,9999,9999,9999,881040496
1105,23,Ticks_Phase_5,109,9999,9999,9999,881540188
1105,23,Ticks_Phase_5,110,9999,9999,9999,882040924
1105,23,Ticks_Phase_5,111,9999,9999,9999,882540616
1105,23,Ticks_Phase_5,112,9999,9999,9999,883040372
1105,23,Ticks_Phase_5,113,9999,9999,9999,883541108
1105,23,Ticks_Phase_5,114,9999,9999,9999,884090972
1105,23,Ticks_Phase_5,115,9999,9999,9999,884590664
1105,23,Ticks_Phase_5,116,9999,9999,9999,885090428
1105,23,Ticks_Phase_5,117,9999,9999,9999,885590120
1105,23,Ticks_Phase_5,118,9999,9999,9999,886090824
1105,23,Ticks_Phase_5,119,9999,9999,9999,886590588
1105,23,Ticks_Phase_5,120,9999,9999,9999,887090276
1105,23,Ticks_Phase_5,121,9999,9999,9999,887591012
1105,23,Ticks_Phase_5,122,9999,9999,9999,888090708
1105,23,Ticks_Phase_5,123,9999,9999,9999,888590392
1105,23,Ticks_Phase_5,124,9999,9999,9999,889090152
1105,23,Ticks_Phase_5,125,9999,9999,9999,889590892
1105,23,Ticks_Phase_5,126,9999,9999,9999,890090576
1105,23,Ticks_Phase_5,127,9999,9999,9999,890590268
1105,23,Ticks_Phase_5,128,9999,9999,9999,891091004
1105,23,Ticks_Phase_5,129,9999,9999,9999,891590764
1105,23,Ticks_Phase_5,130,9999,9999,9999,892090452
1105,23,Ticks_Phase_5,131,9999,9999,9999,892690548
1105,23,Ticks_Phase_5,132,9999,9999,9999,893190252
1105,23,Ticks_Phase_5,133,9999,9999,9999,893690996
1105,23,Ticks_Phase_5,134,9999,9999,9999,894190684
1105,23,Ticks_Phase_5,135,9999,9999,9999,894690368
1105,23,Ticks_Phase_5,136,9999,9999,9999,895190128
1105,23,Ticks_Phase_5,137,9999,9999,9999,895690864
1105,23,Ticks_Phase_5,138,9999,9999,9999,896190552
1105,23,Ticks_Phase_5,139,9999,9999,9999,896690240
1105,23,Ticks_Phase_5,140,9999,9999,9999,897190976
1105,23,Ticks_Phase_5,141,9999,9999,9999,897690740
1105,23,Ticks_Phase_5,142,9999,9999,9999,898190428
1105,23,Ticks_Phase_5,143,9999,9999,9999,898690120
1105,23,Ticks_Phase_5,144,9999,9999,9999,899190852
1105,23,Ticks_Phase_5,145,9999,9999,9999,899690616
1105,23,Ticks_Phase_5,146,9999,9999,9999,900190300
1105,23,Ticks_Phase_5,147,9999,9999,9999,900691036
1105,23,Ticks_Phase_5,148,9999,9999,9999,901190776
1105,23,Ticks_Phase_5,149,9999,9999,9999,901690464
1105,23,Ticks_Phase_5,150,9999,9999,9999,902090856
1105,23,Ticks_Phase_5,151,9999,9999,9999,902590544
1105,23,Ticks_Phase_5,152,9999,9999,9999,903090228
1105,23,Ticks_Phase_5,153,9999,9999,9999,903590964
1105,23,Ticks_Phase_5,154,9999,9999,9999,904090728
1105,23,Ticks_Phase_5,155,9999,9999,9999,904590416
1105,23,Ticks_Phase_5,156,9999,9999,9999,905090108
1105,23,Ticks_Phase_5,157,9999,9999,9999,905590840
1105,23,Ticks_Phase_5,158,9999,9999,9999,906090604
1105,23,Ticks_Phase_5,159,9999,9999,9999,906590292
1105,23,Ticks_Phase_5,160,9999,9999,9999,907091028
1105,23,Ticks_Phase_5,161,9999,9999,9999,907590764
1105,23,Ticks_Phase_5,162,9999,9999,9999,908090452
1105,23,Ticks_Phase_5,163,9999,9999,9999,908590140
1105,23,Ticks_Phase_5,164,9999,9999,9999,909090884
1105,23,Ticks_Phase_5,165,9999,9999,9999,909590636
1105,23,Ticks_Phase_5,166,9999,9999,9999,910090332
1105,23,Ticks_Phase_5,167,9999,9999,9999,910591068
1105,23,Ticks_Phase_5,168,9999,9999,9999,911090756
1105,23,Ticks_Phase_5,169,9999,9999,9999,911590512
1106,22,Ticks_Phase_8,0,5,42,127,922571076
1106,22,Ticks_Phase_8,1,5,42,127,923370884
1106,22,Ticks_Phase_8,2,1,48,48,923560652
1106,22,Ticks_Phase_8,3,1,48,51,924165392
1106,22,Ticks_Phase_8,4,5,42,127,924170888
1106,22,Ticks_Phase_8,5,5,42,127,924971356
1106,22,Ticks_Phase_8,6,1,48,57,925002704
1106,22,Ticks_Phase_8,7,5,42,127,925771064
1106,22,Ticks_Phase_8,8,1,48,54,925787316
1106,22,Ticks_Phase_8,9,5,42,127,926570880
1106,22,Ticks_Phase_8,10,1,48,55,926578876
1106,22,Ticks_Phase_8,11,5,42,127,927371036
1106,22,Ticks_Phase_8,12,1,48,57,927394900
1106,22,Ticks_Phase_8,13,1,48,52,928171124
1106,22,Ticks_Phase_8,14,5,42,127,928172612
1106,22,Ticks_Phase_8,15,5,42,127,928971208
1106,22,Ticks_Phase_8,16,1,48,48,928976864
1106,22,Ticks_Phase_8,17,5,42,127,929770920
1106,22,Ticks_Phase_8,18,1,48,55,929793732
1106,22,Ticks_Phase_8,19,5,42,127,930570856
1106,22,Ticks_Phase_8,20,1,48,54,930601536
1106,22,Ticks_Phase_8,21,5,42,127,931371316
1106,22,Ticks_Phase_8,22,1,48,54,931372280
1106,22,Ticks_Phase_8,23,5,42,127,932171176
1106,22,Ticks_Phase_8,24,1,48,56,932180316
1106,22,Ticks_Phase_8,25,1,48,55,932958676
1106,22,Ticks_Phase_8,26,5,42,127,932970904
1106,22,Ticks_Phase_8,27,5,42,127,933770696
1106,22,Ticks_Phase_8,28,1,48,52,933778544
1106,22,Ticks_Phase_8,29,5,42,127,934571456
1106,22,Ticks_Phase_8,30,1,48,57,934580276
1106,22,Ticks_Phase_8,31,5,42,127,935371092
1106,22,Ticks_Phase_8,32,1,48,48,935415996
1106,22,Ticks_Phase_8,33,1,48,51,936164100
1106,22,Ticks_Phase_8,34,5,42,127,936170800
1106,22,Ticks_Phase_8,35,5,42,127,936970516
1106,22,Ticks_Phase_8,36,1,48,51,936977676
1106,22,Ticks_Phase_8,37,5,42,127,937771648
1106,22,Ticks_Phase_8,38,1,48,59,937785172
1106,22,Ticks_Phase_8,39,1,48,55,938544808
1106,22,Ticks_Phase_8,40,5,42,127,938571128
1106,22,Ticks_Phase_8,41,1,48,52,939340556
1106,22,Ticks_Phase_8,42,5,42,127,939370788
1106,22,Ticks_Phase_8,43,1,48,56,940165824
1106,22,Ticks_Phase_8,44,5,42,127,940170576
1106,22,Ticks_Phase_8,45,5,42,127,940971640
1106,22,Ticks_Phase_8,46,1,48,56,941000300
1106,22,Ticks_Phase_8,47,5,42,127,941771056
1106,22,Ticks_Phase_8,48,1,48,57,941794988
1106,22,Ticks_Phase_8,49,5,42,127,942570840
1106,22,Ticks_Phase_8,50,1,48,55,942583620
1106,22,Ticks_Phase_8,51,5,42,127,943370628
1106,22,Ticks_Phase_8,52,1,48,57,943402728
1106,22,Ticks_Phase_8,53,1,48,62,944167676
1106,22,Ticks_Phase_8,54,5,42,127,944171604
1106,22,Ticks_Phase_8,55,5,42,127,944971100
1106,22,Ticks_Phase_8,56,1,48,57,944972888
1106,22,Ticks_Phase_8,57,1,48,51,945749288
1106,22,Ticks_Phase_8,58,5,42,127,945770880
1106,22,Ticks_Phase_8,59,5,42,127,946551424
1106,22,Ticks_Phase_8,60,1,48,52,946576256
1106,22,Ticks_Phase_8,61,1,48,54,947342112
1106,22,Ticks_Phase_8,62,5,42,127,947350832
1106,22,Ticks_Phase_8,63,5,42,127,948150700
1106,22,Ticks_Phase_8,64,1,48,53,948154864
1106,22,Ticks_Phase_8,65,5,42,127,948951532
1106,22,Ticks_Phase_8,66,1,48,57,948973676
1106,22,Ticks_Phase_8,67,5,42,127,949751244
1106,22,Ticks_Phase_8,68,1,48,51,949772340
1106,22,Ticks_Phase_8,69,1,48,54,950535112
1106,22,Ticks_Phase_8,70,5,42,127,950551020
1106,22,Ticks_Phase_8,71,1,48,47,951318960
1106,22,Ticks_Phase_8,72,5,42,127,951350736
1106,22,Ticks_Phase_8,73,5,42,127,952151376
1106,22,Ticks_Phase_8,74,1,48,48,952157036
1106,22,Ticks_Phase_8,75,1,48,44,952919604
1106,22,Ticks_Phase_8,76,5,42,127,952951228
1106,22,Ticks_Phase_8,77,1,48,46,953742528
1106,22,Ticks_Phase_8,78,5,42,127,953751016
1106,22,Ticks_Phase_8,79,5,42,127,954550732
1106,22,Ticks_Phase_8,80,1,48,50,954571228
1106,22,Ticks_Phase_8,81,1,48,53,955311468
1106,22,Ticks_Phase_8,82,5,42,127,955351336
1106,22,Ticks_Phase_8,83,5,42,127,956151276
1106,22,Ticks_Phase_8,84,1,48,52,956187344
1106,22,Ticks_Phase_8,85,1,48,42,956908036
1106,22,Ticks_Phase_8,86,5,42,127,956950832
1106,22,Ticks_Phase_8,87,5,42,127,957750628
1106,22,Ticks_Phase_8,88,1,48,49,957763708
1106,22,Ticks_Phase_8,89,5,42,127,958551408
1106,22,Ticks_Phase_8,90,1,48,56,958577288
1106,22,Ticks_Phase_8,91,1,48,56,959342772
1106,22,Ticks_Phase_8,92,5,42,127,959351112
1106,22,Ticks_Phase_8,93,1,48,53,960149244
1106,22,Ticks_Phase_8,94,5,42,127,960150752
1106,22,Ticks_Phase_8,95,1,48,55,960947508
1106,22,Ticks_Phase_8,96,5,42,127,960971132
1106,22,Ticks_Phase_8,97,1,48,49,961757032
1106,22,Ticks_Phase_8,98,5,42,127,961770996
1106,22,Ticks_Phase_8,99,1,48,51,962556444
1106,22,Ticks_Phase_8,100,5,42,127,962570708
1106,22,Ticks_Phase_8,101,1,48,49,963346192
1106,22,Ticks_Phase_8,102,5,42,127,963371392
1106,22,Ticks_Phase_8,103,5,42,127,964171188
1106,22,Ticks_Phase_8,104,1,48,44,964194920
1106,22,Ticks_Phase_8,105,5,42,127,964970848
1106,22,Ticks_Phase_8,106,1,48,45,964990816
1106,22,Ticks_Phase_8,107,5,42,127,965770708
1106,22,Ticks_Phase_8,108,1,48,45,965806700
1106,22,Ticks_Phase_8,109,5,42,127,966571320
1106,22,Ticks_Phase_8,110,1,48,48,966645576
1106,22,Ticks_Phase_8,111,5,42,127,967371032
1106,22,Ticks_Phase_8,112,1,48,46,967384632
1106,22,Ticks_Phase_8,113,5,42,127,968170892
1106,22,Ticks_Phase_8,114,1,48,51,968177004
1106,22,Ticks_Phase_8,115,1,48,49,968970076
1106,22,Ticks_Phase_8,116,5,42,127,968971420
1106,22,Ticks_Phase_8,117,5,42,127,969771288
1106,22,Ticks_Phase_8,118,1,48,48,969782424
1106,22,Ticks_Phase_8,119,5,42,127,970571300
1106,22,Ticks_Phase_8,120,1,48,46,970591572
1106,22,Ticks_Phase_8,121,5,42,127,971371084
1106,22,Ticks_Phase_8,122,1,48,49,971386852
1106,22,Ticks_Phase_8,123,5,42,127,972170572
1106,22,Ticks_Phase_8,124,1,48,46,972218856
1106,22,Ticks_Phase_8,125,5,42,127,972971408
1106,22,Ticks_Phase_8,126,1,48,41,973000072
1106,22,Ticks_Phase_8,127,1,48,44,973777368
1106,22,Ticks_Phase_8,128,5,42,127,973811180
1106,22,Ticks_Phase_8,129,5,42,127,974610972
1106,22,Ticks_Phase_8,130,1,48,49,974613572
1106,22,Ticks_Phase_8,131,5,42,127,975410460
1106,22,Ticks_Phase_8,132,1,48,45,975421072
1106,22,Ticks_Phase_8,133,1,48,43,976191940
1106,22,Ticks_Phase_8,134,5,42,127,976211312
1106,22,Ticks_Phase_8,135,5,42,127,977011104
1106,22,Ticks_Phase_8,136,1,48,48,977054064
1106,22,Ticks_Phase_8,137,5,42,127,977810892
1106,22,Ticks_Phase_8,138,1,48,47,977839328
1106,22,Ticks_Phase_8,139,5,42,127,978610676
1106,22,Ticks_Phase_8,140,1,48,48,978616416
1106,22,Ticks_Phase_8,141,1,48,47,979406300
1106,22,Ticks_Phase_8,142,5,42,127,979411280
1106,22,Ticks_Phase_8,143,5,42,127,980211000
1106,22,Ticks_Phase_8,144,1,48,45,980221904
1106,22,Ticks_Phase_8,145,1,48,49,980988868
1106,22,Ticks_Phase_8,146,5,42,127,981011000
1106,22,Ticks_Phase_8,147,1,48,49,981766348
1106,22,Ticks_Phase_8,148,5,42,127,981810712
1106,22,Ticks_Phase_8,149,1,48,50,982592196
1106,22,Ticks_Phase_8,150,5,42,127,982611348
1106,22,Ticks_Phase_8,151,1,48,55,983379804
1106,22,Ticks_Phase_8,152,5,42,127,983410984
1106,22,Ticks_Phase_8,153,1,48,52,984200932
1106,22,Ticks_Phase_8,154,5,42,127,984210848
1106,22,Ticks_Phase_8,155,1,48,50,984996368
1106,22,Ticks_Phase_8,156,5,42,127,985010484
1106,22,Ticks_Phase_8,157,5,42,127,985811176
1106,22,Ticks_Phase_8,158,1,48,58,985812140
1106,22,Ticks_Phase_8,159,1,48,57,986598728
1106,22,Ticks_Phase_8,160,5,42,127,986611108
1106,22,Ticks_Phase_8,161,5,42,127,987370984
1106,22,Ticks_Phase_8,162,1,48,47,987430200
1106,22,Ticks_Phase_8,163,1,48,53,988121760
1106,22,Ticks_Phase_8,164,5,42,127,988170840
1106,22,Ticks_Phase_8,165,1,48,56,988912784
1106,22,Ticks_Phase_8,166,5,42,127,988971372
1106,22,Ticks_Phase_8,167,1,48,51,989758244
1106,22,Ticks_Phase_8,168,5,42,127,989771112
1106,22,Ticks_Phase_8,169,1,48,53,990566448
1106,22,Ticks_Phase_8,170,5,42,127,990570896
1106,22,Ticks_Phase_8,171,1,48,53,991369560
1106,22,Ticks_Phase_8,172,5,42,127,991371128
1106,22,Ticks_Phase_8,173,5,42,127,992171524
1106,22,Ticks_Phase_8,174,1,48,57,992174640
1106,22,Ticks_Phase_8,175,5,42,127,992971012
1106,22,Ticks_Phase_8,176,1,48,58,992981920
1106,22,Ticks_Phase_8,177,1,48,57,993741408
1106,22,Ticks_Phase_8,178,5,42,127,993770796
1106,22,Ticks_Phase_8,179,5,42,127,994570588
1106,22,Ticks_Phase_8,180,1,48,55,994571556
1106,22,Ticks_Phase_8,181,5,42,127,995371272
1106,22,Ticks_Phase_8,182,1,48,58,995387116
1106,22,Ticks_Phase_8,183,5,42,127,996171084
1106,22,Ticks_Phase_8,184,1,48,51,996191804
1106,22,Ticks_Phase_8,185,5,42,127,996970792
1106,22,Ticks_Phase_8,186,1,48,54,996990468
1106,22,Ticks_Phase_8,187,5,42,127,997770656
1106,22,Ticks_Phase_8,188,1,48,54,997801932
1106,22,Ticks_Phase_8,189,1,48,60,998557072
1106,22,Ticks_Phase_8,190,5,42,127,998571484
1106,22,Ticks_Phase_8,191,1,48,54,999358204
1106,22,Ticks_Phase_8,192,5,42,127,999370972
1106,22,Ticks_Phase_8,193,5,42,127,1000090864
1106,22,Ticks_Phase_8,194,1,48,53,1000171340
1106,22,Ticks_Phase_8,195,1,48,51,1000852796
1106,22,Ticks_Phase_8,196,5,42,127,1000890792
1106,22,Ticks_Phase_8,197,1,48,54,1001668228
1106,22,Ticks_Phase_8,198,5,42,127,1001690652
1106,22,Ticks_Phase_8,199,1,48,54,1002469672
1106,22,Ticks_Phase_8,200,5,42,127,1002491412
1106,22,Ticks_Phase_8,201,1,48,52,1003286752
1106,22,Ticks_Phase_8,202,5,42,127,1003291124
1106,22,Ticks_Phase_8,203,1,48,56,1004083768
1106,22,Ticks_Phase_8,204,5,42,127,1004090764
1106,22,Ticks_Phase_8,205,5,42,127,1004890656
1106,22,Ticks_Phase_8,206,1,48,54,1004913468
1106,22,Ticks_Phase_8,207,1,48,50,1005673852
1106,22,Ticks_Phase_8,208,5,42,127,1005691184
1106,22,Ticks_Phase_8,209,5,42,127,1006491048
1106,22,Ticks_Phase_8,210,1,48,48,1006503900
1106,22,Ticks_Phase_8,211,1,48,51,1007282112
1106,22,Ticks_Phase_8,212,5,42,127,1007290756
1106,22,Ticks_Phase_8,213,1,48,50,1008089416
1106,22,Ticks_Phase_8,214,5,42,127,1008090840
1106,22,Ticks_Phase_8,215,5,42,127,1008891304
1106,22,Ticks_Phase_8,216,1,48,46,1008897864
1106,22,Ticks_Phase_8,217,1,48,48,1009685432
1106,22,Ticks_Phase_8,218,5,42,127,1009690864
1106,22,Ticks_Phase_8,219,1,48,50,1010487164
1106,22,Ticks_Phase_8,220,5,42,127,1010490872
1106,22,Ticks_Phase_8,221,5,42,127,1011290464
1106,22,Ticks_Phase_8,222,1,48,43,1011311556
1106,22,Ticks_Phase_8,223,5,42,127,1012091372
1106,22,Ticks_Phase_8,224,1,48,52,1012108264
1106,22,Ticks_Phase_8,225,5,42,127,1012891084
1106,22,Ticks_Phase_8,226,1,48,47,1012896220
1106,22,Ticks_Phase_8,227,1,48,52,1013670172
1106,22,Ticks_Phase_8,228,5,42,127,1013770532
1106,22,Ticks_Phase_8,229,1,48,52,1014547760
1106,22,Ticks_Phase_8,230,5,42,127,1014571456
1106,22,Ticks_Phase_8,231,5,42,127,1015371124
1106,22,Ticks_Phase_8,232,1,48,51,1015378208
1106,22,Ticks_Phase_8,233,5,42,127,1016170836
1106,22,Ticks_Phase_8,234,1,48,54,1016208024
1106,22,Ticks_Phase_8,235,5,42,127,1016970624
1106,22,Ticks_Phase_8,236,1,48,54,1016975464
1106,22,Ticks_Phase_8,237,1,48,55,1017761464
1106,22,Ticks_Phase_8,238,5,42,127,1017771300
1106,22,Ticks_Phase_8,239,1,48,54,1018547760
1106,22,Ticks_Phase_8,240,5,42,127,1018571236
1106,22,Ticks_Phase_8,241,5,42,127,1019370732
1106,22,Ticks_Phase_8,242,1,48,52,1019372744
1106,22,Ticks_Phase_8,243,1,48,50,1020138500
1106,22,Ticks_Phase_8,244,5,42,127,1020170660
1106,22,Ticks_Phase_8,245,1,48,52,1020956860
1106,22,Ticks_Phase_8,246,5,42,127,1020971268
1106,22,Ticks_Phase_8,247,5,42,127,1021771236
1106,22,Ticks_Phase_8,248,1,48,55,1021785436
1106,22,Ticks_Phase_8,249,5,42,127,1022570800
1106,22,Ticks_Phase_8,250,1,48,53,1022574140
1106,22,Ticks_Phase_8,251,1,48,51,1023367548
1106,22,Ticks_Phase_8,252,5,42,127,1023370728
1106,22,Ticks_Phase_8,253,1,48,45,1024166732
1106,22,Ticks_Phase_8,254,5,42,127,1024171484
1106,22,Ticks_Phase_8,255,5,42,127,1024971204
1106,22,Ticks_Phase_8,256,1,48,53,1024972244
1106,22,Ticks_Phase_8,257,5,42,127,1025770840
1106,22,Ticks_Phase_8,258,1,48,49,1025804136
1106,22,Ticks_Phase_8,259,1,48,46,1026543032
1106,22,Ticks_Phase_8,260,5,42,127,1026570472
1106,22,Ticks_Phase_8,261,1,48,49,1027360572
1106,22,Ticks_Phase_8,262,5,42,127,1027531204
1106,22,Ticks_Phase_8,263,1,48,48,1028316892
1106,22,Ticks_Phase_8,264,5,42,127,1028331152
1106,22,Ticks_Phase_8,265,5,42,127,1029130648
1106,22,Ticks_Phase_8,266,1,48,49,1029164544
1106,22,Ticks_Phase_8,267,5,42,127,1029931408
1106,22,Ticks_Phase_8,268,1,48,53,1030004944
1106,22,Ticks_Phase_8,269,1,48,50,1030716396
1106,22,Ticks_Phase_8,270,5,42,127,1030731064
1106,22,Ticks_Phase_8,271,1,48,48,1031502140
1106,22,Ticks_Phase_8,272,5,42,127,1031530996
1106,22,Ticks_Phase_8,273,1,48,49,1032294660
1106,22,Ticks_Phase_8,274,5,42,127,1032330560
1106,22,Ticks_Phase_8,275,1,48,47,1033098944
1106,22,Ticks_Phase_8,276,5,42,127,1033131320
1106,22,Ticks_Phase_8,277,1,48,39,1033921268
1106,22,Ticks_Phase_8,278,5,42,127,1033931032
1106,22,Ticks_Phase_8,279,1,48,48,1034703304
1106,22,Ticks_Phase_8,280,5,42,127,1034730968
1106,22,Ticks_Phase_8,281,1,48,45,1035528020
1106,22,Ticks_Phase_8,282,5,42,127,1035530752
1106,22,Ticks_Phase_8,283,1,48,39,1036318224
1106,22,Ticks_Phase_8,284,5,42,127,1036331364
1106,22,Ticks_Phase_8,285,1,48,47,1037116516
1106,22,Ticks_Phase_8,286,5,42,127,1037131100
1106,22,Ticks_Phase_8,287,5,42,127,1037930816
1106,22,Ticks_Phase_8,288,1,48,51,1037933936
1106,22,Ticks_Phase_8,289,5,42,127,1038730604
1106,22,Ticks_Phase_8,290,1,48,44,1038734844
1106,22,Ticks_Phase_8,291,5,42,127,1039531364
1106,22,Ticks_Phase_8,292,1,48,51,1039563612
1106,22,Ticks_Phase_8,293,5,42,127,1040331072
1106,22,Ticks_Phase_8,294,1,48,50,1040348432
1106,22,Ticks_Phase_8,295,5,42,127,1041131008
1106,22,Ticks_Phase_8,296,1,48,52,1041132348
1106,22,Ticks_Phase_8,297,1,48,54,1041929292
1106,22,Ticks_Phase_8,298,5,42,127,1041930788
1106,22,Ticks_Phase_8,299,5,42,127,1042570548
1106,22,Ticks_Phase_8,300,1,48,50,1042742392
1106,22,Ticks_Phase_8,301,5,42,127,1043371380
1106,22,Ticks_Phase_8,302,1,48,56,1043496712
1106,22,Ticks_Phase_8,303,5,42,127,1044171092
1106,22,Ticks_Phase_8,304,1,48,50,1044184396
1106,22,Ticks_Phase_8,305,1,48,57,1044963272
1106,22,Ticks_Phase_8,306,5,42,127,1044971020
1106,22,Ticks_Phase_8,307,5,42,127,1045770588
1106,22,Ticks_Phase_8,308,1,48,55,1045776776
1106,22,Ticks_Phase_8,309,5,42,127,1046571348
1106,22,Ticks_Phase_8,310,1,48,53,1046575288
1106,22,Ticks_Phase_8,311,5,42,127,1047371008
1106,22,Ticks_Phase_8,312,1,48,56,1047372420
1106,22,Ticks_Phase_8,313,5,42,127,1048171316
1106,22,Ticks_Phase_8,314,1,48,57,1048172956
1106,22,Ticks_Phase_8,315,5,42,127,1048970880
1106,22,Ticks_Phase_8,316,1,48,52,1048980220
1106,22,Ticks_Phase_8,317,5,42,127,1049771564
1106,22,Ticks_Phase_8,318,1,48,55,1049792664
1106,22,Ticks_Phase_8,319,5,42,127,1050571056
1106,22,Ticks_Phase_8,320,1,48,54,1050606368
1106,22,Ticks_Phase_8,321,5,42,127,1051370988
1106,22,Ticks_Phase_8,322,1,48,51,1051373076
1106,22,Ticks_Phase_8,323,5,42,127,1052170852
1106,22,Ticks_Phase_8,324,1,48,52,1052172116
1106,22,Ticks_Phase_8,325,5,42,127,1052971388
1106,22,Ticks_Phase_8,326,1,48,54,1052998612
1106,22,Ticks_Phase_8,327,1,48,55,1053746348
1106,22,Ticks_Phase_8,328,5,42,127,1053771264
1106,22,Ticks_Phase_8,329,5,42,127,1054570760
1106,22,Ticks_Phase_8,330,1,48,48,1054617308
1106,22,Ticks_Phase_8,331,1,48,48,1055356200
1106,22,Ticks_Phase_8,332,5,42,127,1055370836
1106,22,Ticks_Phase_8,333,1,48,51,1056163776
1106,22,Ticks_Phase_8,334,5,42,127,1056171448
1106,22,Ticks_Phase_8,335,1,48,42,1056963188
1106,22,Ticks_Phase_8,336,5,42,127,1056971232
1106,22,Ticks_Phase_8,337,1,48,53,1057753012
1106,22,Ticks_Phase_8,338,5,42,127,1057770796
1106,22,Ticks_Phase_8,0,9999,9999,9999,922568792
1106,22,Ticks_Phase_8,1,9999,9999,9999,923368524
1106,22,Ticks_Phase_8,2,9999,9999,9999,924168304
1106,22,Ticks_Phase_8,3,9999,9999,9999,924969068
1106,22,Ticks_Phase_8,4,9999,9999,9999,925768780
1106,22,Ticks_Phase_8,5,9999,9999,9999,926568516
1106,22,Ticks_Phase_8,6,9999,9999,9999,927368304
1106,22,Ticks_Phase_8,7,9999,9999,9999,928169060
1106,22,Ticks_Phase_8,8,9999,9999,9999,928968772
1106,22,Ticks_Phase_8,9,9999,9999,9999,929768560
1106,22,Ticks_Phase_8,10,9999,9999,9999,930568272
1106,22,Ticks_Phase_8,11,9999,9999,9999,931369028
1106,22,Ticks_Phase_8,12,9999,9999,9999,932168812
1106,22,Ticks_Phase_8,13,9999,9999,9999,932968544
1106,22,Ticks_Phase_8,14,9999,9999,9999,933768260
1106,22,Ticks_Phase_8,15,9999,9999,9999,934569020
1106,22,Ticks_Phase_8,16,9999,9999,9999,935368808
1106,22,Ticks_Phase_8,17,9999,9999,9999,936168512
1106,22,Ticks_Phase_8,18,9999,9999,9999,936968304
1106,22,Ticks_Phase_8,19,9999,9999,9999,937769064
1106,22,Ticks_Phase_8,20,9999,9999,9999,938568768
1106,22,Ticks_Phase_8,21,9999,9999,9999,939368504
1106,22,Ticks_Phase_8,22,9999,9999,9999,940168292
1106,22,Ticks_Phase_8,23,9999,9999,9999,940969056
1106,22,Ticks_Phase_8,24,9999,9999,9999,941768768
1106,22,Ticks_Phase_8,25,9999,9999,9999,942568556
1106,22,Ticks_Phase_8,26,9999,9999,9999,943368268
1106,22,Ticks_Phase_8,27,9999,9999,9999,944169020
1106,22,Ticks_Phase_8,28,9999,9999,9999,944968812
1106,22,Ticks_Phase_8,29,9999,9999,9999,945768516
1106,22,Ticks_Phase_8,30,9999,9999,9999,946548836
1106,22,Ticks_Phase_8,31,9999,9999,9999,947348544
1106,22,Ticks_Phase_8,32,9999,9999,9999,948148340
1106,22,Ticks_Phase_8,33,9999,9999,9999,948949096
1106,22,Ticks_Phase_8,34,9999,9999,9999,949748808
1106,22,Ticks_Phase_8,35,9999,9999,9999,950548588
1106,22,Ticks_Phase_8,36,9999,9999,9999,951348300
1106,22,Ticks_Phase_8,37,9999,9999,9999,952149088
1106,22,Ticks_Phase_8,38,9999,9999,9999,952948792
1106,22,Ticks_Phase_8,39,9999,9999,9999,953748580
1106,22,Ticks_Phase_8,40,9999,9999,9999,954548296
1106,22,Ticks_Phase_8,41,9999,9999,9999,955349048
1106,22,Ticks_Phase_8,42,9999,9999,9999,956148844
1106,22,Ticks_Phase_8,43,9999,9999,9999,956948548
1106,22,Ticks_Phase_8,44,9999,9999,9999,957748340
1106,22,Ticks_Phase_8,45,9999,9999,9999,958549048
1106,22,Ticks_Phase_8,46,9999,9999,9999,959348828
1106,22,Ticks_Phase_8,47,9999,9999,9999,960148548
1106,22,Ticks_Phase_8,48,9999,9999,9999,960968772
1106,22,Ticks_Phase_8,49,9999,9999,9999,961768560
1106,22,Ticks_Phase_8,50,9999,9999,9999,962568272
1106,22,Ticks_Phase_8,51,9999,9999,9999,963369032
1106,22,Ticks_Phase_8,52,9999,9999,9999,964168824
1106,22,Ticks_Phase_8,53,9999,9999,9999,964968560
1106,22,Ticks_Phase_8,54,9999,9999,9999,965768272
1106,22,Ticks_Phase_8,55,9999,9999,9999,966569032
1106,22,Ticks_Phase_8,56,9999,9999,9999,967368820
1106,22,Ticks_Phase_8,57,9999,9999,9999,968168532
1106,22,Ticks_Phase_8,58,9999,9999,9999,968968316
1106,22,Ticks_Phase_8,59,9999,9999,9999,969769076
1106,22,Ticks_Phase_8,60,9999,9999,9999,970568788
1106,22,Ticks_Phase_8,61,9999,9999,9999,971368576
1106,22,Ticks_Phase_8,62,9999,9999,9999,972168288
1106,22,Ticks_Phase_8,63,9999,9999,9999,972969044
1106,22,Ticks_Phase_8,64,9999,9999,9999,973808740
1106,22,Ticks_Phase_8,65,9999,9999,9999,974608464
1106,22,Ticks_Phase_8,66,9999,9999,9999,975408248
1106,22,Ticks_Phase_8,67,9999,9999,9999,976208952
1106,22,Ticks_Phase_8,68,9999,9999,9999,977008744
1106,22,Ticks_Phase_8,69,9999,9999,9999,977808456
1106,22,Ticks_Phase_8,70,9999,9999,9999,978608240
1106,22,Ticks_Phase_8,71,9999,9999,9999,979408992
1106,22,Ticks_Phase_8,72,9999,9999,9999,980208712
1106,22,Ticks_Phase_8,73,9999,9999,9999,981008492
1106,22,Ticks_Phase_8,74,9999,9999,9999,981808204
1106,22,Ticks_Phase_8,75,9999,9999,9999,982608988
1106,22,Ticks_Phase_8,76,9999,9999,9999,983408700
1106,22,Ticks_Phase_8,77,9999,9999,9999,984208484
1106,22,Ticks_Phase_8,78,9999,9999,9999,985008196
1106,22,Ticks_Phase_8,79,9999,9999,9999,985808964
1106,22,Ticks_Phase_8,80,9999,9999,9999,986608744
1106,22,Ticks_Phase_8,81,9999,9999,9999,987368548
1106,22,Ticks_Phase_8,82,9999,9999,9999,988168256
1106,22,Ticks_Phase_8,83,9999,9999,9999,988969088
1106,22,Ticks_Phase_8,84,9999,9999,9999,989768800
1106,22,Ticks_Phase_8,85,9999,9999,9999,990568536
1106,22,Ticks_Phase_8,86,9999,9999,9999,991368256
1106,22,Ticks_Phase_8,87,9999,9999,9999,992169088
1106,22,Ticks_Phase_8,88,9999,9999,9999,992968800
1106,22,Ticks_Phase_8,89,9999,9999,9999,993768508
1106,22,Ticks_Phase_8,90,9999,9999,9999,994568300
1106,22,Ticks_Phase_8,91,9999,9999,9999,995369060
1106,22,Ticks_Phase_8,92,9999,9999,9999,996168772
1106,22,Ticks_Phase_8,93,9999,9999,9999,996968508
1106,22,Ticks_Phase_8,94,9999,9999,9999,997768296
1106,22,Ticks_Phase_8,95,9999,9999,9999,998569048
1106,22,Ticks_Phase_8,96,9999,9999,9999,999368760
1106,22,Ticks_Phase_8,97,9999,9999,9999,1000088652
1106,22,Ticks_Phase_8,98,9999,9999,9999,1000888432
1106,22,Ticks_Phase_8,99,9999,9999,9999,1001688144
1106,22,Ticks_Phase_8,100,9999,9999,9999,1002488904
1106,22,Ticks_Phase_8,101,9999,9999,9999,1003288692
1106,22,Ticks_Phase_8,102,9999,9999,9999,1004088404
1106,22,Ticks_Phase_8,103,9999,9999,9999,1004888144
1106,22,Ticks_Phase_8,104,9999,9999,9999,1005688896
1106,22,Ticks_Phase_8,105,9999,9999,9999,1006488688
1106,22,Ticks_Phase_8,106,9999,9999,9999,1007288396
1106,22,Ticks_Phase_8,107,9999,9999,9999,1008088188
1106,22,Ticks_Phase_8,108,9999,9999,9999,1008888944
1106,22,Ticks_Phase_8,109,9999,9999,9999,1009688652
1106,22,Ticks_Phase_8,110,9999,9999,9999,1010488436
1106,22,Ticks_Phase_8,111,9999,9999,9999,1011288180
1106,22,Ticks_Phase_8,112,9999,9999,9999,1012088936
1106,22,Ticks_Phase_8,113,9999,9999,9999,1012888648
1106,22,Ticks_Phase_8,114,9999,9999,9999,1013768244
1106,22,Ticks_Phase_8,115,9999,9999,9999,1014569020
1106,22,Ticks_Phase_8,116,9999,9999,9999,1015368820
1106,22,Ticks_Phase_8,117,9999,9999,9999,1016168552
1106,22,Ticks_Phase_8,118,9999,9999,9999,1016968260
1106,22,Ticks_Phase_8,119,9999,9999,9999,1017769016
1106,22,Ticks_Phase_8,120,9999,9999,9999,1018568800
1106,22,Ticks_Phase_8,121,9999,9999,9999,1019368520
1106,22,Ticks_Phase_8,122,9999,9999,9999,1020168300
1106,22,Ticks_Phase_8,123,9999,9999,9999,1020969056
1106,22,Ticks_Phase_8,124,9999,9999,9999,1021768800
1106,22,Ticks_Phase_8,125,9999,9999,9999,1022568512
1106,22,Ticks_Phase_8,126,9999,9999,9999,1023368292
1106,22,Ticks_Phase_8,127,9999,9999,9999,1024169052
1106,22,Ticks_Phase_8,128,9999,9999,9999,1024968768
1106,22,Ticks_Phase_8,129,9999,9999,9999,1025768556
1106,22,Ticks_Phase_8,130,9999,9999,9999,1026568260
1106,22,Ticks_Phase_8,131,9999,9999,9999,1027528764
1106,22,Ticks_Phase_8,132,9999,9999,9999,1028328568
1106,22,Ticks_Phase_8,133,9999,9999,9999,1029128288
1106,22,Ticks_Phase_8,134,9999,9999,9999,1029929048
1106,22,Ticks_Phase_8,135,9999,9999,9999,1030728776
1106,22,Ticks_Phase_8,136,9999,9999,9999,1031528564
1106,22,Ticks_Phase_8,137,9999,9999,9999,1032328276
1106,22,Ticks_Phase_8,138,9999,9999,9999,1033129036
1106,22,Ticks_Phase_8,139,9999,9999,9999,1033928820
1106,22,Ticks_Phase_8,140,9999,9999,9999,1034728532
1106,22,Ticks_Phase_8,141,9999,9999,9999,1035528320
1106,22,Ticks_Phase_8,142,9999,9999,9999,1036329076
1106,22,Ticks_Phase_8,143,9999,9999,9999,1037128816
1106,22,Ticks_Phase_8,144,9999,9999,9999,1037928532
1106,22,Ticks_Phase_8,145,9999,9999,9999,1038728316
1106,22,Ticks_Phase_8,146,9999,9999,9999,1039529076
1106,22,Ticks_Phase_8,147,9999,9999,9999,1040328788
1106,22,Ticks_Phase_8,148,9999,9999,9999,1041128576
1106,22,Ticks_Phase_8,149,9999,9999,9999,1041928284
1106,22,Ticks_Phase_8,150,9999,9999,9999,1042568264
1106,22,Ticks_Phase_8,151,9999,9999,9999,1043369020
1106,22,Ticks_Phase_8,152,9999,9999,9999,1044168804
1106,22,Ticks_Phase_8,153,9999,9999,9999,1044968512
1106,22,Ticks_Phase_8,154,9999,9999,9999,1045768304
1106,22,Ticks_Phase_8,155,9999,9999,9999,1046569060
1106,22,Ticks_Phase_8,156,9999,9999,9999,1047368796
1106,22,Ticks_Phase_8,157,9999,9999,9999,1048168508
1106,22,Ticks_Phase_8,158,9999,9999,9999,1048968296
1106,22,Ticks_Phase_8,159,9999,9999,9999,1049769056
1106,22,Ticks_Phase_8,160,9999,9999,9999,1050568768
1106,22,Ticks_Phase_8,161,9999,9999,9999,1051368552
1106,22,Ticks_Phase_8,162,9999,9999,9999,1052168268
1106,22,Ticks_Phase_8,163,9999,9999,9999,1052969024
1106,22,Ticks_Phase_8,164,9999,9999,9999,1053768832
1106,22,Ticks_Phase_8,165,9999,9999,9999,1054568548
1106,22,Ticks_Phase_8,166,9999,9999,9999,1055368252
1106,22,Ticks_Phase_8,167,9999,9999,9999,1056169084
1106,22,Ticks_Phase_8,168,9999,9999,9999,1056968796
1106,22,Ticks_Phase_8,169,9999,9999,9999,1057768508
1107,21,Ticks_Linear_5,0,5,42,127,1067136500
1107,21,Ticks_Linear_5,1,5,42,127,1067615552
1107,21,Ticks_Linear_5,2,5,42,127,1068095776
1107,21,Ticks_Linear_5,3,1,48,34,1068138088
1107,21,Ticks_Linear_5,4,5,42,127,1068576080
1107,21,Ticks_Linear_5,5,1,48,44,1068593884
1107,21,Ticks_Linear_5,6,5,42,127,1069056460
1107,21,Ticks_Linear_5,7,1,48,45,1069075308
1107,21,Ticks_Linear_5,8,1,48,43,1069516644
1107,21,Ticks_Linear_5,9,5,42,127,1069545816
1107,21,Ticks_Linear_5,10,1,48,46,1070019488
1107,21,Ticks_Linear_5,11,5,42,127,1070036528
1107,21,Ticks_Linear_5,12,1,48,44,1070526196
1107,21,Ticks_Linear_5,13,5,42,127,1070527464
1107,21,Ticks_Linear_5,14,1,48,51,1070980692
1107,21,Ticks_Linear_5,15,5,42,127,1071016532
1107,21,Ticks_Linear_5,16,1,48,47,1071454344
1107,21,Ticks_Linear_5,17,5,42,127,1071505900
1107,21,Ticks_Linear_5,18,1,48,43,1071975904
1107,21,Ticks_Linear_5,19,5,42,127,1072005600
1107,21,Ticks_Linear_5,20,1,48,51,1072475752
1107,21,Ticks_Linear_5,21,5,42,127,1072506420
1107,21,Ticks_Linear_5,22,1,48,52,1072945476
1107,21,Ticks_Linear_5,23,5,42,127,1073006044
1107,21,Ticks_Linear_5,24,1,48,47,1073448316
1107,21,Ticks_Linear_5,25,5,42,127,1073505596
1107,21,Ticks_Linear_5,26,1,48,51,1073953476
1107,21,Ticks_Linear_5,27,5,42,127,1074006496
1107,21,Ticks_Linear_5,28,1,48,47,1074459848
1107,21,Ticks_Linear_5,29,5,42,127,1074516376
1107,21,Ticks_Linear_5,30,1,48,47,1074972568
1107,21,Ticks_Linear_5,31,5,42,127,1075026408
1107,21,Ticks_Linear_5,32,1,48,49,1075465160
1107,21,Ticks_Linear_5,33,5,42,127,1075536664
1107,21,Ticks_Linear_5,34,1,48,47,1076010984
1107,21,Ticks_Linear_5,35,5,42,127,1076046472
1107,21,Ticks_Linear_5,36,1,48,46,1076493304
1107,21,Ticks_Linear_5,37,5,42,127,1076556284
1107,21,Ticks_Linear_5,38,1,48,46,1077008216
1107,21,Ticks_Linear_5,39,5,42,127,1077076504
1107,21,Ticks_Linear_5,40,1,48,46,1077558912
1107,21,Ticks_Linear_5,41,5,42,127,1077595376
1107,21,Ticks_Linear_5,42,1,48,49,1078093008
1107,21,Ticks_Linear_5,43,5,42,127,1078115596
1107,21,Ticks_Linear_5,44,1,48,50,1078622960
1107,21,Ticks_Linear_5,45,5,42,127,1078635888
1107,21,Ticks_Linear_5,46,1,48,50,1079109608
1107,21,Ticks_Linear_5,47,5,42,127,1079156032
1107,21,Ticks_Linear_5,48,1,48,51,1079635920
1107,21,Ticks_Linear_5,49,5,42,127,1079685536
1107,21,Ticks_Linear_5,50,1,48,50,1080175764
1107,21,Ticks_Linear_5,51,5,42,127,1080215864
1107,21,Ticks_Linear_5,52,1,48,51,1080699196
1107,21,Ticks_Linear_5,53,5,42,127,1080746636
1107,21,Ticks_Linear_5,54,1,48,51,1081243912
1107,21,Ticks_Linear_5,55,5,42,127,1081275772
1107,21,Ticks_Linear_5,56,1,48,45,1081776184
1107,21,Ticks_Linear_5,57,5,42,127,1081806544
1107,21,Ticks_Linear_5,58,1,48,51,1082291600
1107,21,Ticks_Linear_5,59,5,42,127,1082345864
1107,21,Ticks_Linear_5,60,1,48,47,1082836612
1107,21,Ticks_Linear_5,61,5,42,127,1082885480
1107,21,Ticks_Linear_5,62,1,48,50,1083406408
1107,21,Ticks_Linear_5,63,5,42,127,1083426436
1107,21,Ticks_Linear_5,64,1,48,49,1083963788
1107,21,Ticks_Linear_5,65,5,42,127,1083965828
1107,21,Ticks_Linear_5,66,5,42,127,1084505476
1107,21,Ticks_Linear_5,67,1,48,40,1084511364
1107,21,Ticks_Linear_5,68,1,48,50,1085008868
1107,21,Ticks_Linear_5,69,5,42,127,1085056464
1107,21,Ticks_Linear_5,70,1,48,50,1085584136
1107,21,Ticks_Linear_5,71,5,42,127,1085606412
1107,21,Ticks_Linear_5,72,1,48,43,1086153468
1107,21,Ticks_Linear_5,73,5,42,127,1086156288
1107,21,Ticks_Linear_5,74,5,42,127,1086706320
1107,21,Ticks_Linear_5,75,1,48,44,1086716704
1107,21,Ticks_Linear_5,76,1,48,46,1087227616
1107,21,Ticks_Linear_5,77,5,42,127,1087255964
1107,21,Ticks_Linear_5,78,1,48,49,1087775096
1107,21,Ticks_Linear_5,79,5,42,127,1087816268
1107,21,Ticks_Linear_5,80,5,42,127,1088376408
1107,21,Ticks_Linear_5,81,1,48,46,1088379380
1107,21,Ticks_Linear_5,82,1,48,47,1088929008
1107,21,Ticks_Linear_5,83,5,42,127,1088936384
1107,21,Ticks_Linear_5,84,1,48,46,1089475436
1107,21,Ticks_Linear_5,85,5,42,127,1089496372
1107,21,Ticks_Linear_5,86,1,48,50,1090011900
1107,21,Ticks_Linear_5,87,5,42,127,1090065716
1107,21,Ticks_Linear_5,88,1,48,47,1090615924
1107,21,Ticks_Linear_5,89,5,42,127,1090636356
1107,21,Ticks_Linear_5,90,1,48,46,1091193372
1107,21,Ticks_Linear_5,91,5,42,127,1091205476
1107,21,Ticks_Linear_5,92,1,48,46,1091760100
1107,21,Ticks_Linear_5,93,5,42,127,1091775796
1107,21,Ticks_Linear_5,94,5,42,127,1092346120
1107,21,Ticks_Linear_5,95,1,48,44,1092362716
1107,21,Ticks_Linear_5,96,5,42,127,1092915540
1107,21,Ticks_Linear_5,97,1,48,45,1092934116
1107,21,Ticks_Linear_5,98,1,48,40,1093491444
1107,21,Ticks_Linear_5,99,5,42,127,1093496356
1107,21,Ticks_Linear_5,100,1,48,42,1094064248
1107,21,Ticks_Linear_5,101,5,42,127,1094075664
1107,21,Ticks_Linear_5,102,1,48,43,1094642412
1107,21,Ticks_Linear_5,103,5,42,127,1094656316
1107,21,Ticks_Linear_5,104,1,48,39,1095230788
1107,21,Ticks_Linear_5,105,5,42,127,1095236144
1107,21,Ticks_Linear_5,106,5,42,127,1095815408
1107,21,Ticks_Linear_5,107,1,48,47,1095828568
1107,21,Ticks_Linear_5,108,1,48,45,1096399908
1107,21,Ticks_Linear_5,109,5,42,127,1096406316
1107,21,Ticks_Linear_5,110,1,48,38,1096967904
1107,21,Ticks_Linear_5,111,5,42,127,1096996252
1107,21,Ticks_Linear_5,112,1,48,47,1097561008
1107,21,Ticks_Linear_5,113,5,42,127,1097586216
1107,21,Ticks_Linear_5,114,1,48,43,1098150280
1107,21,Ticks_Linear_5,115,5,42,127,1098175932
1107,21,Ticks_Linear_5,116,5,42,127,1098765656
1107,21,Ticks_Linear_5,117,1,48,43,1098773036
1107,21,Ticks_Linear_5,118,5,42,127,1099365652
1107,21,Ticks_Linear_5,119,1,48,44,1099401116
1107,21,Ticks_Linear_5,120,1,48,41,1099963880
1107,21,Ticks_Linear_5,121,5,42,127,1099965840
1107,21,Ticks_Linear_5,122,1,48,48,1100545556
1107,21,Ticks_Linear_5,123,5,42,127,1100565964
1107,21,Ticks_Linear_5,124,1,48,47,1101142924
1107,21,Ticks_Linear_5,125,5,42,127,1101166040
1107,21,Ticks_Linear_5,126,1,48,53,1101757208
1107,21,Ticks_Linear_5,127,5,42,127,1101766160
1107,21,Ticks_Linear_5,128,1,48,51,1102368268
1107,21,Ticks_Linear_5,129,5,42,127,1102376392
1107,21,Ticks_Linear_5,130,1,48,49,1102957184
1107,21,Ticks_Linear_5,131,5,42,127,1102985532
1107,21,Ticks_Linear_5,132,1,48,54,1103561344
1107,21,Ticks_Linear_5,133,5,42,127,1103596136
1107,21,Ticks_Linear_5,134,1,48,56,1104176752
1107,21,Ticks_Linear_5,135,5,42,127,1104206168
1107,21,Ticks_Linear_5,136,1,48,59,1104782508
1107,21,Ticks_Linear_5,137,5,42,127,1104815432
1107,21,Ticks_Linear_5,138,1,48,52,1105408028
1107,21,Ticks_Linear_5,139,5,42,127,1105436072
1107,21,Ticks_Linear_5,140,1,48,56,1106051228
1107,21,Ticks_Linear_5,141,5,42,127,1106055540
1107,21,Ticks_Linear_5,142,1,48,58,1106650380
1107,21,Ticks_Linear_5,143,5,42,127,1106675960
1107,21,Ticks_Linear_5,144,1,48,53,1107263528
1107,21,Ticks_Linear_5,145,5,42,127,1107295500
1107,21,Ticks_Linear_5,146,1,48,47,1107902988
1107,21,Ticks_Linear_5,147,5,42,127,1107916216
1107,21,Ticks_Linear_5,148,5,42,127,1108545856
1107,21,Ticks_Linear_5,149,1,48,56,1108553188
1107,21,Ticks_Linear_5,150,1,48,58,1109167748
1107,21,Ticks_Linear_5,151,5,42,127,1109175652
1107,21,Ticks_Linear_5,152,1,48,47,1109774988
1107,21,Ticks_Linear_5,153,5,42,127,1109805504
1107,21,Ticks_Linear_5,154,5,42,127,1110436212
1107,21,Ticks_Linear_5,155,1,48,48,1110459628
1107,21,Ticks_Linear_5,156,1,48,55,1111056060
1107,21,Ticks_Linear_5,157,5,42,127,1111065988
1107,21,Ticks_Linear_5,158,1,48,52,1111635996
1107,21,Ticks_Linear_5,159,5,42,127,1111706048
1107,21,Ticks_Linear_5,160,1,48,41,1112266736
1107,21,Ticks_Linear_5,161,5,42,127,1112346012
1107,21,Ticks_Linear_5,162,1,48,43,1112950608
1107,21,Ticks_Linear_5,163,5,42,127,1112985852
1107,21,Ticks_Linear_5,164,1,48,52,1113611392
1107,21,Ticks_Linear_5,165,5,42,127,1113626112
1107,21,Ticks_Linear_5,166,1,48,54,1114247196
1107,21,Ticks_Linear_5,167,5,42,127,1114265880
1107,21,Ticks_Linear_5,168,1,48,54,1114883940
1107,21,Ticks_Linear_5,169,5,42,127,1114916328
1107,21,Ticks_Linear_5,170,1,48,54,1115565312
1107,21,Ticks_Linear_5,171,5,42,127,1115566800
1107,21,Ticks_Linear_5,172,5,42,127,1116215756
1107,21,Ticks_Linear_5,173,1,48,50,1116227340
1107,21,Ticks_Linear_5,174,5,42,127,1116866004
1107,21,Ticks_Linear_5,175,1,48,51,1116868452
1107,21,Ticks_Linear_5,176,1,48,52,1117466308
1107,21,Ticks_Linear_5,177,5,42,127,1117516172
1107,21,Ticks_Linear_5,178,1,48,53,1118151224
1107,21,Ticks_Linear_5,179,5,42,127,1118176052
1107,21,Ticks_Linear_5,180,1,48,50,1118805520
1107,21,Ticks_Linear_5,181,5,42,127,1118835964
1107,21,Ticks_Linear_5,182,1,48,49,1119485104
1107,21,Ticks_Linear_5,183,5,42,127,1119495400
1107,21,Ticks_Linear_5,184,1,48,49,1120110032
1107,21,Ticks_Linear_5,185,5,42,127,1120155908
1107,21,Ticks_Linear_5,186,1,48,47,1120780924
1107,21,Ticks_Linear_5,187,5,42,127,1120815492
1107,21,Ticks_Linear_5,188,1,48,52,1121446824
1107,21,Ticks_Linear_5,189,5,42,127,1121486180
1107,21,Ticks_Linear_5,190,1,48,53,1122143960
1107,21,Ticks_Linear_5,191,5,42,127,1122155832
1107,21,Ticks_Linear_5,192,5,42,127,1122825680
1107,21,Ticks_Linear_5,193,1,48,49,1122844156
1107,21,Ticks_Linear_5,194,5,42,127,1123496220
1107,21,Ticks_Linear_5,195,1,48,50,1123508332
1107,21,Ticks_Linear_5,196,1,48,51,1124153816
1107,21,Ticks_Linear_5,197,5,42,127,1124166008
1107,21,Ticks_Linear_5,198,1,48,54,1124793340
1107,21,Ticks_Linear_5,199,5,42,127,1124845960
1107,21,Ticks_Linear_5,200,1,48,49,1125485836
1107,21,Ticks_Linear_5,201,5,42,127,1125525864
1107,21,Ticks_Linear_5,202,5,42,127,1126205748
1107,21,Ticks_Linear_5,203,1,48,57,1126224772
1107,21,Ticks_Linear_5,204,5,42,127,1126885800
1107,21,Ticks_Linear_5,205,1,48,54,1126904056
1107,21,Ticks_Linear_5,206,1,48,50,1127552768
1107,21,Ticks_Linear_5,207,5,42,127,1127565848
1107,21,Ticks_Linear_5,208,1,48,50,1128253020
1107,21,Ticks_Linear_5,209,5,42,127,1128255836
1107,21,Ticks_Linear_5,210,1,48,46,1128928956
1107,21,Ticks_Linear_5,211,5,42,127,1128946000
1107,21,Ticks_Linear_5,212,1,48,53,1129606172
1107,21,Ticks_Linear_5,213,5,42,127,1129636164
1107,21,Ticks_Linear_5,214,1,48,51,1130280724
1107,21,Ticks_Linear_5,215,5,42,127,1130326252
1107,21,Ticks_Linear_5,216,1,48,46,1130970440
1107,21,Ticks_Linear_5,217,5,42,127,1131015640
1107,21,Ticks_Linear_5,218,1,48,55,1131685768
1107,21,Ticks_Linear_5,219,5,42,127,1131715912
1107,21,Ticks_Linear_5,220,1,48,45,1132402884
1107,21,Ticks_Linear_5,221,5,42,127,1132416488
1107,21,Ticks_Linear_5,222,1,48,47,1133077008
1107,21,Ticks_Linear_5,223,5,42,127,1133115760
1107,21,Ticks_Linear_5,224,1,48,43,1133750392
1107,21,Ticks_Linear_5,225,5,42,127,1133816256
1107,21,Ticks_Linear_5,226,1,48,46,1134506084
1107,21,Ticks_Linear_5,227,5,42,127,1134515780
1107,21,Ticks_Linear_5,228,1,48,49,1135222672
1107,21,Ticks_Linear_5,229,5,42,127,1135226312
1107,21,Ticks_Linear_5,230,1,48,50,1135919780
1107,21,Ticks_Linear_5,231,5,42,127,1135935848
1107,21,Ticks_Linear_5,232,1,48,56,1136598564
1107,21,Ticks_Linear_5,233,5,42,127,1136645708
1107,21,Ticks_Linear_5,234,1,48,46,1137301228
1107,21,Ticks_Linear_5,235,5,42,127,1137356240
1107,21,Ticks_Linear_5,236,1,48,44,1138034680
1107,21,Ticks_Linear_5,237,5,42,127,1138065728
1107,21,Ticks_Linear_5,238,1,48,46,1138754704
1107,21,Ticks_Linear_5,239,5,42,127,1138785592
1107,21,Ticks_Linear_5,240,1,48,45,1139478612
1107,21,Ticks_Linear_5,241,5,42,127,1139505608
1107,21,Ticks_Linear_5,242,1,48,46,1140213100
1107,21,Ticks_Linear_5,243,5,42,127,1140226628
1107,21,Ticks_Linear_5,244,1,48,36,1140924692
1107,21,Ticks_Linear_5,245,5,42,127,1140955580
1107,21,Ticks_Linear_5,246,5,42,127,1141676608
1107,21,Ticks_Linear_5,247,1,48,24,1141692004
1107,21,Ticks_Linear_5,248,1,48,48,1142393596
1107,21,Ticks_Linear_5,249,5,42,127,1142405628
1107,21,Ticks_Linear_5,250,1,48,47,1143089060
1107,21,Ticks_Linear_5,251,5,42,127,1143135632
1107,21,Ticks_Linear_5,252,1,48,54,1143834648
1107,21,Ticks_Linear_5,253,5,42,127,1143865684
1107,21,Ticks_Linear_5,254,1,48,46,1144537084
1107,21,Ticks_Linear_5,255,5,42,127,1144595764
1107,21,Ticks_Linear_5,256,1,48,46,1145283872
1107,21,Ticks_Linear_5,257,5,42,127,1145325992
1107,21,Ticks_Linear_5,258,1,48,48,1146004884
1107,21,Ticks_Linear_5,259,5,42,127,1146066476
1107,21,Ticks_Linear_5,260,1,48,51,1146754880
1107,21,Ticks_Linear_5,261,5,42,127,1146805616
1107,21,Ticks_Linear_5,262,1,48,50,1147491840
1107,21,Ticks_Linear_5,263,5,42,127,1147546028
1107,21,Ticks_Linear_5,264,1,48,45,1148220392
1107,21,Ticks_Linear_5,265,5,42,127,1148286364
1107,21,Ticks_Linear_5,266,1,48,46,1149013176
1107,21,Ticks_Linear_5,267,5,42,127,1149025656
1107,21,Ticks_Linear_5,268,1,48,44,1149752668
1107,21,Ticks_Linear_5,269,5,42,127,1149776252
1107,21,Ticks_Linear_5,270,1,48,48,1150508364
1107,21,Ticks_Linear_5,271,5,42,127,1150525700
1107,21,Ticks_Linear_5,272,1,48,31,1151232148
1107,21,Ticks_Linear_5,273,5,42,127,1151276376
1107,21,Ticks_Linear_5,274,1,48,46,1151977804
1107,21,Ticks_Linear_5,275,5,42,127,1152026068
1107,21,Ticks_Linear_5,276,1,48,56,1152775776
1107,21,Ticks_Linear_5,277,5,42,127,1152776968
1107,21,Ticks_Linear_5,278,5,42,127,1153536412
1107,21,Ticks_Linear_5,279,1,48,58,1153554136
1107,21,Ticks_Linear_5,280,1,48,54,1154255656
1107,21,Ticks_Linear_5,281,5,42,127,1154296212
1107,21,Ticks_Linear_5,282,1,48,53,1155019960
1107,21,Ticks_Linear_5,283,5,42,127,1155055872
1107,21,Ticks_Linear_5,284,1,48,51,1155778648
1107,21,Ticks_Linear_5,285,5,42,127,1155815680
1107,21,Ticks_Linear_5,286,1,48,50,1156494500
1107,21,Ticks_Linear_5,287,5,42,127,1156575488
1107,21,Ticks_Linear_5,288,1,48,52,1157312560
1107,21,Ticks_Linear_5,289,5,42,127,1157345556
1107,21,Ticks_Linear_5,290,1,48,57,1158081352
1107,21,Ticks_Linear_5,291,5,42,127,1158115772
1107,21,Ticks_Linear_5,292,1,48,52,1158833224
1107,21,Ticks_Linear_5,293,5,42,127,1158885916
1107,21,Ticks_Linear_5,294,1,48,51,1159602992
1107,21,Ticks_Linear_5,295,5,42,127,1159655760
1107,21,Ticks_Linear_5,296,1,48,51,1160381224
1107,21,Ticks_Linear_5,297,5,42,127,1160425828
1107,21,Ticks_Linear_5,298,1,48,52,1161102840
1107,21,Ticks_Linear_5,299,5,42,127,1161206288
1107,21,Ticks_Linear_5,300,1,48,50,1161945852
1107,21,Ticks_Linear_5,301,5,42,127,1161986484
1107,21,Ticks_Linear_5,302,1,48,54,1162737040
1107,21,Ticks_Linear_5,303,5,42,127,1162776020
1107,21,Ticks_Linear_5,304,1,48,50,1163527100
1107,21,Ticks_Linear_5,305,5,42,127,1163556196
1107,21,Ticks_Linear_5,306,1,48,54,1164309972
1107,21,Ticks_Linear_5,307,5,42,127,1164335480
1107,21,Ticks_Linear_5,308,1,48,54,1165081164
1107,21,Ticks_Linear_5,309,5,42,127,1165125940
1107,21,Ticks_Linear_5,310,1,48,54,1165865612
1107,21,Ticks_Linear_5,311,5,42,127,1165915628
1107,21,Ticks_Linear_5,312,1,48,54,1166681608
1107,21,Ticks_Linear_5,313,5,42,127,1166706212
1107,21,Ticks_Linear_5,314,1,48,50,1167487700
1107,21,Ticks_Linear_5,315,5,42,127,1167495456
1107,21,Ticks_Linear_5,316,1,48,48,1168281876
1107,21,Ticks_Linear_5,317,5,42,127,1168286040
1107,21,Ticks_Linear_5,318,1,48,45,1169050076
1107,21,Ticks_Linear_5,319,5,42,127,1169085692
1107,21,Ticks_Linear_5,320,1,48,44,1169847704
1107,21,Ticks_Linear_5,321,5,42,127,1169885416
1107,21,Ticks_Linear_5,322,5,42,127,1170686192
1107,21,Ticks_Linear_5,323,1,48,46,1170716348
1107,21,Ticks_Linear_5,324,1,48,45,1171479496
1107,21,Ticks_Linear_5,325,5,42,127,1171486056
1107,21,Ticks_Linear_5,326,1,48,51,1172282444
1107,21,Ticks_Linear_5,327,5,42,127,1172286156
1107,21,Ticks_Linear_5,328,5,42,127,1173096096
1107,21,Ticks_Linear_5,329,1,48,47,1173105960
1107,21,Ticks_Linear_5,330,5,42,127,1173906004
1107,21,Ticks_Linear_5,331,1,48,53,1173928744
1107,21,Ticks_Linear_5,332,5,42,127,1174715988
1107,21,Ticks_Linear_5,333,1,48,53,1174717328
1107,21,Ticks_Linear_5,334,5,42,127,1175525968
1107,21,Ticks_Linear_5,335,1,48,48,1175542044
1107,21,Ticks_Linear_5,336,1,48,42,1176314120
1107,21,Ticks_Linear_5,337,5,42,127,1176336020
1107,21,Ticks_Linear_5,0,9999,9999,9999,1067134052
1107,21,Ticks_Linear_5,1,9999,9999,9999,1067613256
1107,21,Ticks_Linear_5,2,9999,9999,9999,1068093552
1107,21,Ticks_Linear_5,3,9999,9999,9999,1068573784
1107,21,Ticks_Linear_5,4,9999,9999,9999,1069054008
1107,21,Ticks_Linear_5,5,9999,9999,9999,1069543520
1107,21,Ticks_Linear_5,6,9999,9999,9999,1070034008
1107,21,Ticks_Linear_5,7,9999,9999,9999,1070523452
1107,21,Ticks_Linear_5,8,9999,9999,9999,1071014012
1107,21,Ticks_Linear_5,9,9999,9999,9999,1071503452
1107,21,Ticks_Linear_5,10,9999,9999,9999,1072003152
1107,21,Ticks_Linear_5,11,9999,9999,9999,1072503900
1107,21,Ticks_Linear_5,12,9999,9999,9999,1073003596
1107,21,Ticks_Linear_5,13,9999,9999,9999,1073503296
1107,21,Ticks_Linear_5,14,9999,9999,9999,1074004044
1107,21,Ticks_Linear_5,15,9999,9999,9999,1074514004
1107,21,Ticks_Linear_5,16,9999,9999,9999,1075023960
1107,21,Ticks_Linear_5,17,9999,9999,9999,1075533920
1107,21,Ticks_Linear_5,18,9999,9999,9999,1076043876
1107,21,Ticks_Linear_5,19,9999,9999,9999,1076553836
1107,21,Ticks_Linear_5,20,9999,9999,9999,1077073984
1107,21,Ticks_Linear_5,21,9999,9999,9999,1077593156
1107,21,Ticks_Linear_5,22,9999,9999,9999,1078113372
1107,21,Ticks_Linear_5,23,9999,9999,9999,1078633588
1107,21,Ticks_Linear_5,24,9999,9999,9999,1079153732
1107,21,Ticks_Linear_5,25,9999,9999,9999,1079683164
1107,21,Ticks_Linear_5,26,9999,9999,9999,1080213564
1107,21,Ticks_Linear_5,27,9999,9999,9999,1080744044
1107,21,Ticks_Linear_5,28,9999,9999,9999,1081273400
1107,21,Ticks_Linear_5,29,9999,9999,9999,1081803876
1107,21,Ticks_Linear_5,30,9999,9999,9999,1082343492
1107,21,Ticks_Linear_5,31,9999,9999,9999,1082883180
1107,21,Ticks_Linear_5,32,9999,9999,9999,1083423840
1107,21,Ticks_Linear_5,33,9999,9999,9999,1083963492
1107,21,Ticks_Linear_5,34,9999,9999,9999,1084503104
1107,21,Ticks_Linear_5,35,9999,9999,9999,1085054016
1107,21,Ticks_Linear_5,36,9999,9999,9999,1085603968
1107,21,Ticks_Linear_5,37,9999,9999,9999,1086153840
1107,21,Ticks_Linear_5,38,9999,9999,9999,1086703724
1107,21,Ticks_Linear_5,39,9999,9999,9999,1087253588
1107,21,Ticks_Linear_5,40,9999,9999,9999,1087813748
1107,21,Ticks_Linear_5,41,9999,9999,9999,1088373888
1107,21,Ticks_Linear_5,42,9999,9999,9999,1088934012
1107,21,Ticks_Linear_5,43,9999,9999,9999,1089494072
1107,21,Ticks_Linear_5,44,9999,9999,9999,1090063420
1107,21,Ticks_Linear_5,45,9999,9999,9999,1090633836
1107,21,Ticks_Linear_5,46,9999,9999,9999,1091203180
1107,21,Ticks_Linear_5,47,9999,9999,9999,1091773496
1107,21,Ticks_Linear_5,48,9999,9999,9999,1092343896
1107,21,Ticks_Linear_5,49,9999,9999,9999,1092913240
1107,21,Ticks_Linear_5,50,9999,9999,9999,1093493836
1107,21,Ticks_Linear_5,51,9999,9999,9999,1094073440
1107,21,Ticks_Linear_5,52,9999,9999,9999,1094654016
1107,21,Ticks_Linear_5,53,9999,9999,9999,1095233624
1107,21,Ticks_Linear_5,54,9999,9999,9999,1095813184
1107,21,Ticks_Linear_5,55,9999,9999,9999,1096404088
1107,21,Ticks_Linear_5,56,9999,9999,9999,1096993880
1107,21,Ticks_Linear_5,57,9999,9999,9999,1097583696
1107,21,Ticks_Linear_5,58,9999,9999,9999,1098173560
1107,21,Ticks_Linear_5,59,9999,9999,9999,1098763356
1107,21,Ticks_Linear_5,60,9999,9999,9999,1099363428
1107,21,Ticks_Linear_5,61,9999,9999,9999,1099963500
1107,21,Ticks_Linear_5,62,9999,9999,9999,1100563520
1107,21,Ticks_Linear_5,63,9999,9999,9999,1101163592
1107,21,Ticks_Linear_5,64,9999,9999,9999,1101763640
1107,21,Ticks_Linear_5,65,9999,9999,9999,1102373948
1107,21,Ticks_Linear_5,66,9999,9999,9999,1102983232
1107,21,Ticks_Linear_5,67,9999,9999,9999,1103593540
1107,21,Ticks_Linear_5,68,9999,9999,9999,1104203872
1107,21,Ticks_Linear_5,69,9999,9999,9999,1104813132
1107,21,Ticks_Linear_5,70,9999,9999,9999,1105433700
1107,21,Ticks_Linear_5,71,9999,9999,9999,1106053244
1107,21,Ticks_Linear_5,72,9999,9999,9999,1106673736
1107,21,Ticks_Linear_5,73,9999,9999,9999,1107293280
1107,21,Ticks_Linear_5,74,9999,9999,9999,1107913844
1107,21,Ticks_Linear_5,75,9999,9999,9999,1108543556
1107,21,Ticks_Linear_5,76,9999,9999,9999,1109173356
1107,21,Ticks_Linear_5,77,9999,9999,9999,1109803132
1107,21,Ticks_Linear_5,78,9999,9999,9999,1110433916
1107,21,Ticks_Linear_5,79,9999,9999,9999,1111063612
1107,21,Ticks_Linear_5,80,9999,9999,9999,1111703676
1107,21,Ticks_Linear_5,81,9999,9999,9999,1112343640
1107,21,Ticks_Linear_5,82,9999,9999,9999,1112983628
1107,21,Ticks_Linear_5,83,9999,9999,9999,1113623664
1107,21,Ticks_Linear_5,84,9999,9999,9999,1114263656
1107,21,Ticks_Linear_5,85,9999,9999,9999,1114913880
1107,21,Ticks_Linear_5,86,9999,9999,9999,1115563088
1107,21,Ticks_Linear_5,87,9999,9999,9999,1116213312
1107,21,Ticks_Linear_5,88,9999,9999,9999,1116863556
1107,21,Ticks_Linear_5,89,9999,9999,9999,1117513800
1107,21,Ticks_Linear_5,90,9999,9999,9999,1118173308
1107,21,Ticks_Linear_5,91,9999,9999,9999,1118833740
1107,21,Ticks_Linear_5,92,9999,9999,9999,1119493176
1107,21,Ticks_Linear_5,93,9999,9999,9999,1120153684
1107,21,Ticks_Linear_5,94,9999,9999,9999,1120813120
1107,21,Ticks_Linear_5,95,9999,9999,9999,1121483884
1107,21,Ticks_Linear_5,96,9999,9999,9999,1122153532
1107,21,Ticks_Linear_5,97,9999,9999,9999,1122823232
1107,21,Ticks_Linear_5,98,9999,9999,9999,1123493996
1107,21,Ticks_Linear_5,99,9999,9999,9999,1124163708
1107,21,Ticks_Linear_5,100,9999,9999,9999,1124843588
1107,21,Ticks_Linear_5,101,9999,9999,9999,1125523564
1107,21,Ticks_Linear_5,102,9999,9999,9999,1126203452
1107,21,Ticks_Linear_5,103,9999,9999,9999,1126883428
1107,21,Ticks_Linear_5,104,9999,9999,9999,1127563328
1107,21,Ticks_Linear_5,105,9999,9999,9999,1128253540
1107,21,Ticks_Linear_5,106,9999,9999,9999,1128943700
1107,21,Ticks_Linear_5,107,9999,9999,9999,1129633864
1107,21,Ticks_Linear_5,108,9999,9999,9999,1130324024
1107,21,Ticks_Linear_5,109,9999,9999,9999,1131013192
1107,21,Ticks_Linear_5,110,9999,9999,9999,1131713616
1107,21,Ticks_Linear_5,111,9999,9999,9999,1132414036
1107,21,Ticks_Linear_5,112,9999,9999,9999,1133113464
1107,21,Ticks_Linear_5,113,9999,9999,9999,1133813884
1107,21,Ticks_Linear_5,114,9999,9999,9999,1134513260
1107,21,Ticks_Linear_5,115,9999,9999,9999,1135223864
1107,21,Ticks_Linear_5,116,9999,9999,9999,1135933548
1107,21,Ticks_Linear_5,117,9999,9999,9999,1136643184
1107,21,Ticks_Linear_5,118,9999,9999,9999,1137353792
1107,21,Ticks_Linear_5,119,9999,9999,9999,1138063428
1107,21,Ticks_Linear_5,120,9999,9999,9999,1138783296
1107,21,Ticks_Linear_5,121,9999,9999,9999,1139503164
1107,21,Ticks_Linear_5,122,9999,9999,9999,1140224104
1107,21,Ticks_Linear_5,123,9999,9999,9999,1140953208
1107,21,Ticks_Linear_5,124,9999,9999,9999,1141674080
1107,21,Ticks_Linear_5,125,9999,9999,9999,1142403180
1107,21,Ticks_Linear_5,126,9999,9999,9999,1143133260
1107,21,Ticks_Linear_5,127,9999,9999,9999,1143863388
1107,21,Ticks_Linear_5,128,9999,9999,9999,1144593468
1107,21,Ticks_Linear_5,129,9999,9999,9999,1145323616
1107,21,Ticks_Linear_5,130,9999,9999,9999,1146063956
1107,21,Ticks_Linear_5,131,9999,9999,9999,1146803320
1107,21,Ticks_Linear_5,132,9999,9999,9999,1147543656
1107,21,Ticks_Linear_5,133,9999,9999,9999,1148283992
1107,21,Ticks_Linear_5,134,9999,9999,9999,1149023356
1107,21,Ticks_Linear_5,135,9999,9999,9999,1149773880
1107,21,Ticks_Linear_5,136,9999,9999,9999,1150523476
1107,21,Ticks_Linear_5,137,9999,9999,9999,1151274076
1107,21,Ticks_Linear_5,138,9999,9999,9999,1152023624
1107,21,Ticks_Linear_5,139,9999,9999,9999,1152773180
1107,21,Ticks_Linear_5,140,9999,9999,9999,1153534032
1107,21,Ticks_Linear_5,141,9999,9999,9999,1154293836
1107,21,Ticks_Linear_5,142,9999,9999,9999,1155053648
1107,21,Ticks_Linear_5,143,9999,9999,9999,1155813456
1107,21,Ticks_Linear_5,144,9999,9999,9999,1156573264
1107,21,Ticks_Linear_5,145,9999,9999,9999,1157343332
1107,21,Ticks_Linear_5,146,9999,9999,9999,1158113400
1107,21,Ticks_Linear_5,147,9999,9999,9999,1158883392
1107,21,Ticks_Linear_5,148,9999,9999,9999,1159653464
1107,21,Ticks_Linear_5,149,9999,9999,9999,1160423528
1107,21,Ticks_Linear_5,150,9999,9999,9999,1161203768
1107,21,Ticks_Linear_5,151,9999,9999,9999,1161984108
1107,21,Ticks_Linear_5,152,9999,9999,9999,1162773572
1107,21,Ticks_Linear_5,153,9999,9999,9999,1163553900
1107,21,Ticks_Linear_5,154,9999,9999,9999,1164333180
1107,21,Ticks_Linear_5,155,9999,9999,9999,1165123644
1107,21,Ticks_Linear_5,156,9999,9999,9999,1165913180
1107,21,Ticks_Linear_5,157,9999,9999,9999,1166703692
1107,21,Ticks_Linear_5,158,9999,9999,9999,1167493232
1107,21,Ticks_Linear_5,159,9999,9999,9999,1168283740
1107,21,Ticks_Linear_5,160,9999,9999,9999,1169083468
1107,21,Ticks_Linear_5,161,9999,9999,9999,1169883192
1107,21,Ticks_Linear_5,162,9999,9999,9999,1170683968
1107,21,Ticks_Linear_5,163,9999,9999,9999,1171483760
1107,21,Ticks_Linear_5,164,9999,9999,9999,1172283484
1107,21,Ticks_Linear_5,165,9999,9999,9999,1173093500
1107,21,Ticks_Linear_5,166,9999,9999,9999,1173903484
1107,21,Ticks_Linear_5,167,9999,9999,9999,1174713468
1107,21,Ticks_Linear_5,168,9999,9999,9999,1175523448
1107,21,Ticks_Linear_5,169,9999,9999,9999,1176333424
1108,20,Ticks_Linear_8,0,5,42,127,1185299832
1108,20,Ticks_Linear_8,1,5,42,127,1186120120
1108,20,Ticks_Linear_8,2,1,48,48,1186202172
1108,20,Ticks_Linear_8,3,1,48,51,1186926452
1108,20,Ticks_Linear_8,4,5,42,127,1186940208
1108,20,Ticks_Linear_8,5,1,48,48,1187721620
1108,20,Ticks_Linear_8,6,5,42,127,1187759628
1108,20,Ticks_Linear_8,7,1,48,41,1188571964
1108,20,Ticks_Linear_8,8,5,42,127,1188579944
1108,20,Ticks_Linear_8,9,5,42,127,1189389784
1108,20,Ticks_Linear_8,10,1,48,14,1189398004
1108,20,Ticks_Linear_8,11,1,48,42,1190167752
1108,20,Ticks_Linear_8,12,5,42,127,1190199760
1108,20,Ticks_Linear_8,13,1,48,48,1191006048
1108,20,Ticks_Linear_8,14,5,42,127,1191009768
1108,20,Ticks_Linear_8,15,5,42,127,1191819756
1108,20,Ticks_Linear_8,16,1,48,51,1191853052
1108,20,Ticks_Linear_8,17,5,42,127,1192629740
1108,20,Ticks_Linear_8,18,1,48,49,1192630708
1108,20,Ticks_Linear_8,19,1,48,44,1193410920
1108,20,Ticks_Linear_8,20,5,42,127,1193430356
1108,20,Ticks_Linear_8,21,1,48,48,1194195808
1108,20,Ticks_Linear_8,22,5,42,127,1194230228
1108,20,Ticks_Linear_8,23,1,48,48,1195029884
1108,20,Ticks_Linear_8,24,5,42,127,1195031220
1108,20,Ticks_Linear_8,25,5,42,127,1195829608
1108,20,Ticks_Linear_8,26,1,48,46,1195857608
1108,20,Ticks_Linear_8,27,5,42,127,1196630404
1108,20,Ticks_Linear_8,28,1,48,47,1196646396
1108,20,Ticks_Linear_8,29,5,42,127,1197419796
1108,20,Ticks_Linear_8,30,1,48,51,1197451376
1108,20,Ticks_Linear_8,31,5,42,127,1198210532
1108,20,Ticks_Linear_8,32,1,48,46,1198241136
1108,20,Ticks_Linear_8,33,5,42,127,1199010180
1108,20,Ticks_Linear_8,34,1,48,37,1199024156
1108,20,Ticks_Linear_8,35,5,42,127,1199799792
1108,20,Ticks_Linear_8,36,1,48,42,1199813540
1108,20,Ticks_Linear_8,37,5,42,127,1200590156
1108,20,Ticks_Linear_8,38,1,48,35,1200594396
1108,20,Ticks_Linear_8,39,1,48,40,1201363544
1108,20,Ticks_Linear_8,40,5,42,127,1201369876
1108,20,Ticks_Linear_8,41,1,48,39,1202146568
1108,20,Ticks_Linear_8,42,5,42,127,1202149832
1108,20,Ticks_Linear_8,43,5,42,127,1202930016
1108,20,Ticks_Linear_8,44,1,48,47,1202948196
1108,20,Ticks_Linear_8,45,5,42,127,1203710640
1108,20,Ticks_Linear_8,46,1,48,40,1203742592
1108,20,Ticks_Linear_8,47,1,48,41,1204473544
1108,20,Ticks_Linear_8,48,5,42,127,1204489692
1108,20,Ticks_Linear_8,49,5,42,127,1205259616
1108,20,Ticks_Linear_8,50,1,48,44,1205284672
1108,20,Ticks_Linear_8,51,5,42,127,1206029684
1108,20,Ticks_Linear_8,52,1,48,47,1206049504
1108,20,Ticks_Linear_8,53,5,42,127,1206799676
1108,20,Ticks_Linear_8,54,1,48,43,1206809464
1108,20,Ticks_Linear_8,55,5,42,127,1207569820
1108,20,Ticks_Linear_8,56,1,48,38,1207593604
1108,20,Ticks_Linear_8,57,5,42,127,1208339888
1108,20,Ticks_Linear_8,58,1,48,34,1208375432
1108,20,Ticks_Linear_8,59,1,48,43,1209098108
1108,20,Ticks_Linear_8,60,5,42,127,1209099616
1108,20,Ticks_Linear_8,61,1,48,46,1209848524
1108,20,Ticks_Linear_8,62,5,42,127,1209859644
1108,20,Ticks_Linear_8,63,5,42,127,1210620360
1108,20,Ticks_Linear_8,64,1,48,45,1210640560
1108,20,Ticks_Linear_8,65,5,42,127,1211379944
1108,20,Ticks_Linear_8,66,1,48,48,1211389360
1108,20,Ticks_Linear_8,67,1,48,46,1212131916
1108,20,Ticks_Linear_8,68,5,42,127,1212139896
1108,20,Ticks_Linear_8,69,5,42,127,1212889376
1108,20,Ticks_Linear_8,70,1,48,38,1212896460
1108,20,Ticks_Linear_8,71,5,42,127,1213640124
1108,20,Ticks_Linear_8,72,1,48,52,1213659500
1108,20,Ticks_Linear_8,73,5,42,127,1214389596
1108,20,Ticks_Linear_8,74,1,48,51,1214401180
1108,20,Ticks_Linear_8,75,5,42,127,1215140344
1108,20,Ticks_Linear_8,76,1,48,49,1215172440
1108,20,Ticks_Linear_8,77,1,48,51,1215886312
1108,20,Ticks_Linear_8,78,5,42,127,1215889812
1108,20,Ticks_Linear_8,79,5,42,127,1216630228
1108,20,Ticks_Linear_8,80,1,48,48,1216661432
1108,20,Ticks_Linear_8,81,1,48,43,1217331852
1108,20,Ticks_Linear_8,82,5,42,127,1217369440
1108,20,Ticks_Linear_8,83,1,48,47,1218092112
1108,20,Ticks_Linear_8,84,5,42,127,1218109824
1108,20,Ticks_Linear_8,85,1,48,46,1218848200
1108,20,Ticks_Linear_8,86,5,42,127,1218850308
1108,20,Ticks_Linear_8,87,5,42,127,1219589536
1108,20,Ticks_Linear_8,88,1,48,45,1219608532
1108,20,Ticks_Linear_8,89,5,42,127,1220319612
1108,20,Ticks_Linear_8,90,1,48,46,1220328052
1108,20,Ticks_Linear_8,91,5,42,127,1221049764
1108,20,Ticks_Linear_8,92,1,48,51,1221068760
1108,20,Ticks_Linear_8,93,1,48,53,1221768492
1108,20,Ticks_Linear_8,94,5,42,127,1221779688
1108,20,Ticks_Linear_8,95,1,48,50,1222498940
1108,20,Ticks_Linear_8,96,5,42,127,1222509840
1108,20,Ticks_Linear_8,97,5,42,127,1223240224
1108,20,Ticks_Linear_8,98,1,48,50,1223260720
1108,20,Ticks_Linear_8,99,5,42,127,1223960016
1108,20,Ticks_Linear_8,100,1,48,44,1223996904
1108,20,Ticks_Linear_8,101,5,42,127,1224679688
1108,20,Ticks_Linear_8,102,1,48,49,1224715304
1108,20,Ticks_Linear_8,103,1,48,48,1225365224
1108,20,Ticks_Linear_8,104,5,42,127,1225399648
1108,20,Ticks_Linear_8,105,1,48,43,1226072324
1108,20,Ticks_Linear_8,106,5,42,127,1226119616
1108,20,Ticks_Linear_8,107,1,48,53,1226815800
1108,20,Ticks_Linear_8,108,5,42,127,1226840412
1108,20,Ticks_Linear_8,109,1,48,48,1227529464
1108,20,Ticks_Linear_8,110,5,42,127,1227560280
1108,20,Ticks_Linear_8,111,1,48,51,1228250404
1108,20,Ticks_Linear_8,112,5,42,127,1228270064
1108,20,Ticks_Linear_8,113,1,48,46,1228977812
1108,20,Ticks_Linear_8,114,5,42,127,1228979472
1108,20,Ticks_Linear_8,115,1,48,49,1229690384
1108,20,Ticks_Linear_8,116,5,42,127,1229691720
1108,20,Ticks_Linear_8,117,5,42,127,1230400020
1108,20,Ticks_Linear_8,118,1,48,48,1230408384
1108,20,Ticks_Linear_8,119,5,42,127,1231100340
1108,20,Ticks_Linear_8,120,1,48,47,1231107812
1108,20,Ticks_Linear_8,121,1,48,52,1231797112
1108,20,Ticks_Linear_8,122,5,42,127,1231799784
1108,20,Ticks_Linear_8,123,5,42,127,1232500288
1108,20,Ticks_Linear_8,124,1,48,50,1232501256
1108,20,Ticks_Linear_8,125,5,42,127,1233199492
1108,20,Ticks_Linear_8,126,1,48,51,1233225320
1108,20,Ticks_Linear_8,127,1,48,49,1233886152
1108,20,Ticks_Linear_8,128,5,42,127,1233899908
1108,20,Ticks_Linear_8,129,1,48,43,1234532788
1108,20,Ticks_Linear_8,130,5,42,127,1234590048
1108,20,Ticks_Linear_8,131,1,48,49,1235269088
1108,20,Ticks_Linear_8,132,5,42,127,1235280208
1108,20,Ticks_Linear_8,133,5,42,127,1235970356
1108,20,Ticks_Linear_8,134,1,48,48,1235997356
1108,20,Ticks_Linear_8,135,1,48,48,1236658380
1108,20,Ticks_Linear_8,136,5,42,127,1236670020
1108,20,Ticks_Linear_8,137,1,48,48,1237358608
1108,20,Ticks_Linear_8,138,5,42,127,1237360184
1108,20,Ticks_Linear_8,139,5,42,127,1238039996
1108,20,Ticks_Linear_8,140,1,48,45,1238044532
1108,20,Ticks_Linear_8,141,5,42,127,1238719900
1108,20,Ticks_Linear_8,142,1,48,41,1238743612
1108,20,Ticks_Linear_8,143,5,42,127,1239399952
1108,20,Ticks_Linear_8,144,1,48,51,1239417072
1108,20,Ticks_Linear_8,145,1,48,50,1240062928
1108,20,Ticks_Linear_8,146,5,42,127,1240079604
1108,20,Ticks_Linear_8,147,5,42,127,1240760108
1108,20,Ticks_Linear_8,148,1,48,52,1240788104
1108,20,Ticks_Linear_8,149,5,42,127,1241430280
1108,20,Ticks_Linear_8,150,1,48,51,1241431244
1108,20,Ticks_Linear_8,151,1,48,52,1242082480
1108,20,Ticks_Linear_8,152,5,42,127,1242100044
1108,20,Ticks_Linear_8,153,5,42,127,1242769992
1108,20,Ticks_Linear_8,154,1,48,51,1242777000
1108,20,Ticks_Linear_8,155,5,42,127,1243439608
1108,20,Ticks_Linear_8,156,1,48,51,1243473160
1108,20,Ticks_Linear_8,157,1,48,51,1244075800
1108,20,Ticks_Linear_8,158,5,42,127,1244110072
1108,20,Ticks_Linear_8,159,1,48,51,1244760356
1108,20,Ticks_Linear_8,160,5,42,127,1244769832
1108,20,Ticks_Linear_8,161,5,42,127,1245430244
1108,20,Ticks_Linear_8,162,1,48,55,1245451344
1108,20,Ticks_Linear_8,163,5,42,127,1246089484
1108,20,Ticks_Linear_8,164,1,48,49,1246106372
1108,20,Ticks_Linear_8,165,5,42,127,1246750188
1108,20,Ticks_Linear_8,166,1,48,53,1246758480
1108,20,Ticks_Linear_8,167,5,42,127,1247409424
1108,20,Ticks_Linear_8,168,1,48,52,1247415756
1108,20,Ticks_Linear_8,169,5,42,127,1248059720
1108,20,Ticks_Linear_8,170,1,48,53,1248060684
1108,20,Ticks_Linear_8,171,5,42,127,1248709968
1108,20,Ticks_Linear_8,172,1,48,51,1248739604
1108,20,Ticks_Linear_8,173,5,42,127,1249360216
1108,20,Ticks_Linear_8,174,1,48,53,1249372920
1108,20,Ticks_Linear_8,175,1,48,56,1250007876
1108,20,Ticks_Linear_8,176,5,42,127,1250009312
1108,20,Ticks_Linear_8,177,1,48,55,1250648364
1108,20,Ticks_Linear_8,178,5,42,127,1250659708
1108,20,Ticks_Linear_8,179,5,42,127,1251299828
1108,20,Ticks_Linear_8,180,1,48,50,1251314104
1108,20,Ticks_Linear_8,181,5,42,127,1251939744
1108,20,Ticks_Linear_8,182,1,48,50,1251980908
1108,20,Ticks_Linear_8,183,1,48,47,1252577964
1108,20,Ticks_Linear_8,184,5,42,127,1252579852
1108,20,Ticks_Linear_8,185,1,48,49,1253175132
1108,20,Ticks_Linear_8,186,5,42,127,1253219912
1108,20,Ticks_Linear_8,187,5,42,127,1253859808
1108,20,Ticks_Linear_8,188,1,48,49,1253869900
1108,20,Ticks_Linear_8,189,5,42,127,1254489616
1108,20,Ticks_Linear_8,190,1,48,50,1254503888
1108,20,Ticks_Linear_8,191,1,48,52,1255120368
1108,20,Ticks_Linear_8,192,5,42,127,1255121780
1108,20,Ticks_Linear_8,193,1,48,52,1255747196
1108,20,Ticks_Linear_8,194,5,42,127,1255749940
1108,20,Ticks_Linear_8,195,1,48,51,1256353016
1108,20,Ticks_Linear_8,196,5,42,127,1256379644
1108,20,Ticks_Linear_8,197,5,42,127,1257009656
1108,20,Ticks_Linear_8,198,1,48,55,1257014868
1108,20,Ticks_Linear_8,199,5,42,127,1257630024
1108,20,Ticks_Linear_8,200,1,48,51,1257649252
1108,20,Ticks_Linear_8,201,5,42,127,1258249620
1108,20,Ticks_Linear_8,202,1,48,51,1258264344
1108,20,Ticks_Linear_8,203,5,42,127,1258870136
1108,20,Ticks_Linear_8,204,1,48,46,1258880152
1108,20,Ticks_Linear_8,205,5,42,127,1259489732
1108,20,Ticks_Linear_8,206,1,48,55,1259507752
1108,20,Ticks_Linear_8,207,5,42,127,1260110176
1108,20,Ticks_Linear_8,208,1,48,54,1260113888
1108,20,Ticks_Linear_8,209,5,42,127,1260719660
1108,20,Ticks_Linear_8,210,1,48,53,1260730344
1108,20,Ticks_Linear_8,211,5,42,127,1261329672
1108,20,Ticks_Linear_8,212,1,48,52,1261347088
1108,20,Ticks_Linear_8,213,5,42,127,1261940152
1108,20,Ticks_Linear_8,214,1,48,49,1261945364
1108,20,Ticks_Linear_8,215,1,48,56,1262514536
1108,20,Ticks_Linear_8,216,5,42,127,1262550600
1108,20,Ticks_Linear_8,217,1,48,51,1263134652
1108,20,Ticks_Linear_8,218,5,42,127,1263159788
1108,20,Ticks_Linear_8,219,5,42,127,1263759796
1108,20,Ticks_Linear_8,220,1,48,52,1263785820
1108,20,Ticks_Linear_8,221,1,48,46,1264351780
1108,20,Ticks_Linear_8,222,5,42,127,1264359764
1108,20,Ticks_Linear_8,223,5,42,127,1264959916
1108,20,Ticks_Linear_8,224,1,48,53,1264978916
1108,20,Ticks_Linear_8,225,5,42,127,1265559892
1108,20,Ticks_Linear_8,226,1,48,49,1265579492
1108,20,Ticks_Linear_8,227,1,48,53,1266157116
1108,20,Ticks_Linear_8,228,5,42,127,1266159860
1108,20,Ticks_Linear_8,229,5,42,127,1266749904
1108,20,Ticks_Linear_8,230,1,48,48,1266762536
1108,20,Ticks_Linear_8,231,5,42,127,1267339696
1108,20,Ticks_Linear_8,232,1,48,51,1267376288
1108,20,Ticks_Linear_8,233,1,48,46,1267927824
1108,20,Ticks_Linear_8,234,5,42,127,1267929556
1108,20,Ticks_Linear_8,235,5,42,127,1268520548
1108,20,Ticks_Linear_8,236,1,48,51,1268531832
1108,20,Ticks_Linear_8,237,1,48,51,1269093836
1108,20,Ticks_Linear_8,238,5,42,127,1269110132
1108,20,Ticks_Linear_8,239,1,48,56,1269640872
1108,20,Ticks_Linear_8,240,5,42,127,1269689588
1108,20,Ticks_Linear_8,241,1,48,51,1270244364
1108,20,Ticks_Linear_8,242,5,42,127,1270270540
1108,20,Ticks_Linear_8,243,5,42,127,1270849804
1108,20,Ticks_Linear_8,244,1,48,48,1270868208
1108,20,Ticks_Linear_8,245,5,42,127,1271429632
1108,20,Ticks_Linear_8,246,1,48,47,1271477472
1108,20,Ticks_Linear_8,247,1,48,48,1271993612
1108,20,Ticks_Linear_8,248,5,42,127,1272010056
1108,20,Ticks_Linear_8,249,1,48,53,1272576880
1108,20,Ticks_Linear_8,250,5,42,127,1272579480
1108,20,Ticks_Linear_8,251,5,42,127,1273149904
1108,20,Ticks_Linear_8,252,1,48,51,1273164696
1108,20,Ticks_Linear_8,253,5,42,127,1273720072
1108,20,Ticks_Linear_8,254,1,48,54,1273757628
1108,20,Ticks_Linear_8,255,5,42,127,1274289564
1108,20,Ticks_Linear_8,256,1,48,54,1274290532
1108,20,Ticks_Linear_8,257,5,42,127,1274860036
1108,20,Ticks_Linear_8,258,1,48,55,1274869520
1108,20,Ticks_Linear_8,259,5,42,127,1275420016
1108,20,Ticks_Linear_8,260,1,48,51,1275443284
1108,20,Ticks_Linear_8,261,5,42,127,1275980248
1108,20,Ticks_Linear_8,262,1,48,42,1275994524
1108,20,Ticks_Linear_8,263,5,42,127,1276540308
1108,20,Ticks_Linear_8,264,1,48,52,1276546496
1108,20,Ticks_Linear_8,265,5,42,127,1277100372
1108,20,Ticks_Linear_8,266,1,48,49,1277124756
1108,20,Ticks_Linear_8,267,5,42,127,1277659456
1108,20,Ticks_Linear_8,268,1,48,52,1277663324
1108,20,Ticks_Linear_8,269,1,48,52,1278203808
1108,20,Ticks_Linear_8,270,5,42,127,1278210520
1108,20,Ticks_Linear_8,271,1,48,53,1278754208
1108,20,Ticks_Linear_8,272,5,42,127,1278769460
1108,20,Ticks_Linear_8,273,1,48,55,1279304480
1108,20,Ticks_Linear_8,274,5,42,127,1279320404
1108,20,Ticks_Linear_8,275,1,48,49,1279877908
1108,20,Ticks_Linear_8,276,5,42,127,1279879488
1108,20,Ticks_Linear_8,277,5,42,127,1280429448
1108,20,Ticks_Linear_8,278,1,48,51,1280455400
1108,20,Ticks_Linear_8,279,5,42,127,1280970256
1108,20,Ticks_Linear_8,280,1,48,52,1281007296
1108,20,Ticks_Linear_8,281,5,42,127,1281509724
1108,20,Ticks_Linear_8,282,1,48,50,1281515232
1108,20,Ticks_Linear_8,283,5,42,127,1282050384
1108,20,Ticks_Linear_8,284,1,48,37,1282060772
1108,20,Ticks_Linear_8,285,1,48,55,1282584032
1108,20,Ticks_Linear_8,286,5,42,127,1282600476
1108,20,Ticks_Linear_8,287,1,48,59,1283119008
1108,20,Ticks_Linear_8,288,5,42,127,1283139820
1108,20,Ticks_Linear_8,289,5,42,127,1283670380
1108,20,Ticks_Linear_8,290,1,48,57,1283671492
1108,20,Ticks_Linear_8,291,5,42,127,1284199660
1108,20,Ticks_Linear_8,292,1,48,54,1284232880
1108,20,Ticks_Linear_8,293,5,42,127,1284730360
1108,20,Ticks_Linear_8,294,1,48,53,1284739776
1108,20,Ticks_Linear_8,295,1,48,56,1285247752
1108,20,Ticks_Linear_8,296,5,42,127,1285259712
1108,20,Ticks_Linear_8,297,1,48,53,1285755616
1108,20,Ticks_Linear_8,298,5,42,127,1285790336
1108,20,Ticks_Linear_8,299,5,42,127,1286310264
1108,20,Ticks_Linear_8,300,1,48,51,1286320428
1108,20,Ticks_Linear_8,301,1,48,50,1286807904
1108,20,Ticks_Linear_8,302,5,42,127,1286829432
1108,20,Ticks_Linear_8,303,1,48,56,1287328344
1108,20,Ticks_Linear_8,304,5,42,127,1287349572
1108,20,Ticks_Linear_8,305,5,42,127,1287869724
1108,20,Ticks_Linear_8,306,1,48,52,1287871212
1108,20,Ticks_Linear_8,307,5,42,127,1288390172
1108,20,Ticks_Linear_8,308,1,48,49,1288424964
1108,20,Ticks_Linear_8,309,1,48,43,1288898088
1108,20,Ticks_Linear_8,310,5,42,127,1288899900
1108,20,Ticks_Linear_8,311,1,48,49,1289377680
1108,20,Ticks_Linear_8,312,5,42,127,1289409860
1108,20,Ticks_Linear_8,313,1,48,48,1289896924
1108,20,Ticks_Linear_8,314,5,42,127,1289919744
1108,20,Ticks_Linear_8,315,1,48,46,1290424040
1108,20,Ticks_Linear_8,316,5,42,127,1290429776
1108,20,Ticks_Linear_8,317,1,48,43,1290935944
1108,20,Ticks_Linear_8,318,5,42,127,1290939736
1108,20,Ticks_Linear_8,319,1,48,42,1291438388
1108,20,Ticks_Linear_8,320,5,42,127,1291440032
1108,20,Ticks_Linear_8,321,1,48,49,1291903668
1108,20,Ticks_Linear_8,322,5,42,127,1291940184
1108,20,Ticks_Linear_8,323,1,48,42,1292403592
1108,20,Ticks_Linear_8,324,5,42,127,1292439884
1108,20,Ticks_Linear_8,325,1,48,45,1292929140
1108,20,Ticks_Linear_8,326,5,42,127,1292939660
1108,20,Ticks_Linear_8,327,5,42,127,1293440340
1108,20,Ticks_Linear_8,328,1,48,43,1293443084
1108,20,Ticks_Linear_8,329,1,48,46,1293928112
1108,20,Ticks_Linear_8,330,5,42,127,1293929848
1108,20,Ticks_Linear_8,331,1,48,49,1294399028
1108,20,Ticks_Linear_8,332,5,42,127,1294420260
1108,20,Ticks_Linear_8,333,1,48,52,1294865292
1108,20,Ticks_Linear_8,334,5,42,127,1294909776
1108,20,Ticks_Linear_8,335,5,42,127,1295400168
1108,20,Ticks_Linear_8,336,1,48,52,1295404112
1108,20,Ticks_Linear_8,337,5,42,127,1295889684
1108,20,Ticks_Linear_8,0,9999,9999,9999,1185297532
1108,20,Ticks_Linear_8,1,9999,9999,9999,1186117748
1108,20,Ticks_Linear_8,2,9999,9999,9999,1186937908
1108,20,Ticks_Linear_8,3,9999,9999,9999,1187757180
1108,20,Ticks_Linear_8,4,9999,9999,9999,1188577348
1108,20,Ticks_Linear_8,5,9999,9999,9999,1189387336
1108,20,Ticks_Linear_8,6,9999,9999,9999,1190197312
1108,20,Ticks_Linear_8,7,9999,9999,9999,1191007320
1108,20,Ticks_Linear_8,8,9999,9999,9999,1191817312
1108,20,Ticks_Linear_8,9,9999,9999,9999,1192627292
1108,20,Ticks_Linear_8,10,9999,9999,9999,1193428056
1108,20,Ticks_Linear_8,11,9999,9999,9999,1194227784
1108,20,Ticks_Linear_8,12,9999,9999,9999,1195027512
1108,20,Ticks_Linear_8,13,9999,9999,9999,1195827308
1108,20,Ticks_Linear_8,14,9999,9999,9999,1196628032
1108,20,Ticks_Linear_8,15,9999,9999,9999,1197417572
1108,20,Ticks_Linear_8,16,9999,9999,9999,1198208084
1108,20,Ticks_Linear_8,17,9999,9999,9999,1199007808
1108,20,Ticks_Linear_8,18,9999,9999,9999,1199797344
1108,20,Ticks_Linear_8,19,9999,9999,9999,1200587856
1108,20,Ticks_Linear_8,20,9999,9999,9999,1201367132
1108,20,Ticks_Linear_8,21,9999,9999,9999,1202147384
1108,20,Ticks_Linear_8,22,9999,9999,9999,1202927716
1108,20,Ticks_Linear_8,23,9999,9999,9999,1203707968
1108,20,Ticks_Linear_8,24,9999,9999,9999,1204487244
1108,20,Ticks_Linear_8,25,9999,9999,9999,1205257320
1108,20,Ticks_Linear_8,26,9999,9999,9999,1206027384
1108,20,Ticks_Linear_8,27,9999,9999,9999,1206797380
1108,20,Ticks_Linear_8,28,9999,9999,9999,1207567448
1108,20,Ticks_Linear_8,29,9999,9999,9999,1208337516
1108,20,Ticks_Linear_8,30,9999,9999,9999,1209097324
1108,20,Ticks_Linear_8,31,9999,9999,9999,1209857124
1108,20,Ticks_Linear_8,32,9999,9999,9999,1210617912
1108,20,Ticks_Linear_8,33,9999,9999,9999,1211377720
1108,20,Ticks_Linear_8,34,9999,9999,9999,1212137596
1108,20,Ticks_Linear_8,35,9999,9999,9999,1212887152
1108,20,Ticks_Linear_8,36,9999,9999,9999,1213637748
1108,20,Ticks_Linear_8,37,9999,9999,9999,1214387300
1108,20,Ticks_Linear_8,38,9999,9999,9999,1215137896
1108,20,Ticks_Linear_8,39,9999,9999,9999,1215887436
1108,20,Ticks_Linear_8,40,9999,9999,9999,1216627784
1108,20,Ticks_Linear_8,41,9999,9999,9999,1217367140
1108,20,Ticks_Linear_8,42,9999,9999,9999,1218107452
1108,20,Ticks_Linear_8,43,9999,9999,9999,1218847812
1108,20,Ticks_Linear_8,44,9999,9999,9999,1219587160
1108,20,Ticks_Linear_8,45,9999,9999,9999,1220317240
1108,20,Ticks_Linear_8,46,9999,9999,9999,1221047388
1108,20,Ticks_Linear_8,47,9999,9999,9999,1221777464
1108,20,Ticks_Linear_8,48,9999,9999,9999,1222507616
1108,20,Ticks_Linear_8,49,9999,9999,9999,1223237700
1108,20,Ticks_Linear_8,50,9999,9999,9999,1223957568
1108,20,Ticks_Linear_8,51,9999,9999,9999,1224677464
1108,20,Ticks_Linear_8,52,9999,9999,9999,1225397348
1108,20,Ticks_Linear_8,53,9999,9999,9999,1226117244
1108,20,Ticks_Linear_8,54,9999,9999,9999,1226838112
1108,20,Ticks_Linear_8,55,9999,9999,9999,1227557980
1108,20,Ticks_Linear_8,56,9999,9999,9999,1228267612
1108,20,Ticks_Linear_8,57,9999,9999,9999,1228977272
1108,20,Ticks_Linear_8,58,9999,9999,9999,1229687860
1108,20,Ticks_Linear_8,59,9999,9999,9999,1230397544
1108,20,Ticks_Linear_8,60,9999,9999,9999,1231097968
1108,20,Ticks_Linear_8,61,9999,9999,9999,1231797336
1108,20,Ticks_Linear_8,62,9999,9999,9999,1232497768
1108,20,Ticks_Linear_8,63,9999,9999,9999,1233197120
1108,20,Ticks_Linear_8,64,9999,9999,9999,1233897532
1108,20,Ticks_Linear_8,65,9999,9999,9999,1234587748
1108,20,Ticks_Linear_8,66,9999,9999,9999,1235277912
1108,20,Ticks_Linear_8,67,9999,9999,9999,1235968056
1108,20,Ticks_Linear_8,68,9999,9999,9999,1236667500
1108,20,Ticks_Linear_8,69,9999,9999,9999,1237357668
1108,20,Ticks_Linear_8,70,9999,9999,9999,1238037624
1108,20,Ticks_Linear_8,71,9999,9999,9999,1238717528
1108,20,Ticks_Linear_8,72,9999,9999,9999,1239397504
1108,20,Ticks_Linear_8,73,9999,9999,9999,1240077376
1108,20,Ticks_Linear_8,74,9999,9999,9999,1240757364
1108,20,Ticks_Linear_8,75,9999,9999,9999,1241428056
1108,20,Ticks_Linear_8,76,9999,9999,9999,1242097744
1108,20,Ticks_Linear_8,77,9999,9999,9999,1242767468
1108,20,Ticks_Linear_8,78,9999,9999,9999,1243437164
1108,20,Ticks_Linear_8,79,9999,9999,9999,1244107848
1108,20,Ticks_Linear_8,80,9999,9999,9999,1244767308
1108,20,Ticks_Linear_8,81,9999,9999,9999,1245427796
1108,20,Ticks_Linear_8,82,9999,9999,9999,1246087260
1108,20,Ticks_Linear_8,83,9999,9999,9999,1246747740
1108,20,Ticks_Linear_8,84,9999,9999,9999,1247407196
1108,20,Ticks_Linear_8,85,9999,9999,9999,1248057420
1108,20,Ticks_Linear_8,86,9999,9999,9999,1248707668
1108,20,Ticks_Linear_8,87,9999,9999,9999,1249357916
1108,20,Ticks_Linear_8,88,9999,9999,9999,1250007092
1108,20,Ticks_Linear_8,89,9999,9999,9999,1250657336
1108,20,Ticks_Linear_8,90,9999,9999,9999,1251297380
1108,20,Ticks_Linear_8,91,9999,9999,9999,1251937368
1108,20,Ticks_Linear_8,92,9999,9999,9999,1252577352
1108,20,Ticks_Linear_8,93,9999,9999,9999,1253217392
1108,20,Ticks_Linear_8,94,9999,9999,9999,1253857360
1108,20,Ticks_Linear_8,95,9999,9999,9999,1254487168
1108,20,Ticks_Linear_8,96,9999,9999,9999,1255117920
1108,20,Ticks_Linear_8,97,9999,9999,9999,1255747644
1108,20,Ticks_Linear_8,98,9999,9999,9999,1256377420
1108,20,Ticks_Linear_8,99,9999,9999,9999,1257007208
1108,20,Ticks_Linear_8,100,9999,9999,9999,1257627724
1108,20,Ticks_Linear_8,101,9999,9999,9999,1258247248
1108,20,Ticks_Linear_8,102,9999,9999,9999,1258867840
1108,20,Ticks_Linear_8,103,9999,9999,9999,1259487284
1108,20,Ticks_Linear_8,104,9999,9999,9999,1260107876
1108,20,Ticks_Linear_8,105,9999,9999,9999,1260717140
1108,20,Ticks_Linear_8,106,9999,9999,9999,1261327448
1108,20,Ticks_Linear_8,107,9999,9999,9999,1261937780
1108,20,Ticks_Linear_8,108,9999,9999,9999,1262548080
1108,20,Ticks_Linear_8,109,9999,9999,9999,1263157340
1108,20,Ticks_Linear_8,110,9999,9999,9999,1263757420
1108,20,Ticks_Linear_8,111,9999,9999,9999,1264357464
1108,20,Ticks_Linear_8,112,9999,9999,9999,1264957544
1108,20,Ticks_Linear_8,113,9999,9999,9999,1265557592
1108,20,Ticks_Linear_8,114,9999,9999,9999,1266157636
1108,20,Ticks_Linear_8,115,9999,9999,9999,1266747508
1108,20,Ticks_Linear_8,116,9999,9999,9999,1267337324
1108,20,Ticks_Linear_8,117,9999,9999,9999,1267927120
1108,20,Ticks_Linear_8,118,9999,9999,9999,1268517952
1108,20,Ticks_Linear_8,119,9999,9999,9999,1269107832
1108,20,Ticks_Linear_8,120,9999,9999,9999,1269687364
1108,20,Ticks_Linear_8,121,9999,9999,9999,1270268016
1108,20,Ticks_Linear_8,122,9999,9999,9999,1270847580
1108,20,Ticks_Linear_8,123,9999,9999,9999,1271427184
1108,20,Ticks_Linear_8,124,9999,9999,9999,1272007756
1108,20,Ticks_Linear_8,125,9999,9999,9999,1272577104
1108,20,Ticks_Linear_8,126,9999,9999,9999,1273147504
1108,20,Ticks_Linear_8,127,9999,9999,9999,1273717848
1108,20,Ticks_Linear_8,128,9999,9999,9999,1274287192
1108,20,Ticks_Linear_8,129,9999,9999,9999,1274857584
1108,20,Ticks_Linear_8,130,9999,9999,9999,1275417720
1108,20,Ticks_Linear_8,131,9999,9999,9999,1275977804
1108,20,Ticks_Linear_8,132,9999,9999,9999,1276537936
1108,20,Ticks_Linear_8,133,9999,9999,9999,1277098072
1108,20,Ticks_Linear_8,134,9999,9999,9999,1277657160
1108,20,Ticks_Linear_8,135,9999,9999,9999,1278208072
1108,20,Ticks_Linear_8,136,9999,9999,9999,1278767160
1108,20,Ticks_Linear_8,137,9999,9999,9999,1279318104
1108,20,Ticks_Linear_8,138,9999,9999,9999,1279877196
1108,20,Ticks_Linear_8,139,9999,9999,9999,1280427072
1108,20,Ticks_Linear_8,140,9999,9999,9999,1280967736
1108,20,Ticks_Linear_8,141,9999,9999,9999,1281507424
1108,20,Ticks_Linear_8,142,9999,9999,9999,1282048088
1108,20,Ticks_Linear_8,143,9999,9999,9999,1282597956
1108,20,Ticks_Linear_8,144,9999,9999,9999,1283137596
1108,20,Ticks_Linear_8,145,9999,9999,9999,1283668080
1108,20,Ticks_Linear_8,146,9999,9999,9999,1284197436
1108,20,Ticks_Linear_8,147,9999,9999,9999,1284727912
1108,20,Ticks_Linear_8,148,9999,9999,9999,1285257340
1108,20,Ticks_Linear_8,149,9999,9999,9999,1285787740
1108,20,Ticks_Linear_8,150,9999,9999,9999,1286307964
1108,20,Ticks_Linear_8,151,9999,9999,9999,1286827132
1108,20,Ticks_Linear_8,152,9999,9999,9999,1287347276
1108,20,Ticks_Linear_8,153,9999,9999,9999,1287867500
1108,20,Ticks_Linear_8,154,9999,9999,9999,1288387648
1108,20,Ticks_Linear_8,155,9999,9999,9999,1288897624
1108,20,Ticks_Linear_8,156,9999,9999,9999,1289407560
1108,20,Ticks_Linear_8,157,9999,9999,9999,1289917520
1108,20,Ticks_Linear_8,158,9999,9999,9999,1290427480
1108,20,Ticks_Linear_8,159,9999,9999,9999,1290937440
1108,20,Ticks_Linear_8,160,9999,9999,9999,1291437144
1108,20,Ticks_Linear_8,161,9999,9999,9999,1291937884
1108,20,Ticks_Linear_8,162,9999,9999,9999,1292437588
1108,20,Ticks_Linear_8,163,9999,9999,9999,1292937284
1108,20,Ticks_Linear_8,164,9999,9999,9999,1293438040
1108,20,Ticks_Linear_8,165,9999,9999,9999,1293927500
1108,20,Ticks_Linear_8,166,9999,9999,9999,1294418036
1108,20,Ticks_Linear_8,167,9999,9999,9999,1294907476
1108,20,Ticks_Linear_8,168,9999,9999,9999,1295397944
1108,20,Ticks_Linear_8,169,9999,9999,9999,1295887460
1109,10,Ticks_ISO_T2_5,0,5,42,127,1304193384
1109,10,Ticks_ISO_T2_5,1,5,42,127,1304693176
1109,10,Ticks_ISO_T2_5,2,1,48,45,1304815820
1109,10,Ticks_ISO_T2_5,3,5,42,127,1305193092
1109,10,Ticks_ISO_T2_5,4,1,48,50,1305197184
1109,10,Ticks_ISO_T2_5,5,5,42,127,1305692488
1109,10,Ticks_ISO_T2_5,6,1,48,54,1305701520
1109,10,Ticks_ISO_T2_5,7,5,42,127,1306193232
1109,10,Ticks_ISO_T2_5,8,1,48,55,1306227540
1109,10,Ticks_ISO_T2_5,9,5,42,127,1306692924
1109,10,Ticks_ISO_T2_5,10,1,48,54,1306724092
1109,10,Ticks_ISO_T2_5,11,1,48,58,1307169292
1109,10,Ticks_ISO_T2_5,12,5,42,127,1307192884
1109,10,Ticks_ISO_T2_5,13,1,48,56,1307643676
1109,10,Ticks_ISO_T2_5,14,5,42,127,1307693380
1109,10,Ticks_ISO_T2_5,15,5,42,127,1308193156
1109,10,Ticks_ISO_T2_5,16,1,48,55,1308196948
1109,10,Ticks_ISO_T2_5,17,5,42,127,1308692924
1109,10,Ticks_ISO_T2_5,18,1,48,52,1308698364
1109,10,Ticks_ISO_T2_5,19,1,48,49,1309180460
1109,10,Ticks_ISO_T2_5,20,5,42,127,1309192464
1109,10,Ticks_ISO_T2_5,21,5,42,127,1309693432
1109,10,Ticks_ISO_T2_5,22,1,48,51,1309694400
1109,10,Ticks_ISO_T2_5,23,5,42,127,1310192980
1109,10,Ticks_ISO_T2_5,24,1,48,54,1310212332
1109,10,Ticks_ISO_T2_5,25,1,48,46,1310685976
1109,10,Ticks_ISO_T2_5,26,5,42,127,1310692668
1109,10,Ticks_ISO_T2_5,27,1,48,51,1311177220
1109,10,Ticks_ISO_T2_5,28,5,42,127,1311192436
1109,10,Ticks_ISO_T2_5,29,1,48,51,1311676088
1109,10,Ticks_ISO_T2_5,30,5,42,127,1311693032
1109,10,Ticks_ISO_T2_5,31,5,42,127,1312192808
1109,10,Ticks_ISO_T2_5,32,1,48,46,1312209092
1109,10,Ticks_ISO_T2_5,33,1,48,42,1312473876
1109,10,Ticks_ISO_T2_5,34,5,42,127,1312692776
1109,10,Ticks_ISO_T2_5,35,1,48,44,1312761792
1109,10,Ticks_ISO_T2_5,36,5,42,127,1313193296
1109,10,Ticks_ISO_T2_5,37,1,48,40,1313674720
1109,10,Ticks_ISO_T2_5,38,5,42,127,1313693004
1109,10,Ticks_ISO_T2_5,39,1,48,54,1314177112
1109,10,Ticks_ISO_T2_5,40,5,42,127,1314192848
1109,10,Ticks_ISO_T2_5,41,1,48,52,1314690428
1109,10,Ticks_ISO_T2_5,42,5,42,127,1314692396
1109,10,Ticks_ISO_T2_5,43,5,42,127,1315193068
1109,10,Ticks_ISO_T2_5,44,1,48,52,1315218776
1109,10,Ticks_ISO_T2_5,45,5,42,127,1315692760
1109,10,Ticks_ISO_T2_5,46,1,48,50,1315711664
1109,10,Ticks_ISO_T2_5,47,5,42,127,1316192904
1109,10,Ticks_ISO_T2_5,48,1,48,50,1316196624
1109,10,Ticks_ISO_T2_5,49,5,42,127,1316693348
1109,10,Ticks_ISO_T2_5,50,1,48,48,1316729752
1109,10,Ticks_ISO_T2_5,51,5,42,127,1317193044
1109,10,Ticks_ISO_T2_5,52,1,48,48,1317229448
1109,10,Ticks_ISO_T2_5,53,5,42,127,1317692812
1109,10,Ticks_ISO_T2_5,54,1,48,42,1317719864
1109,10,Ticks_ISO_T2_5,55,5,42,127,1318192632
1109,10,Ticks_ISO_T2_5,56,1,48,49,1318207896
1109,10,Ticks_ISO_T2_5,57,5,42,127,1318693296
1109,10,Ticks_ISO_T2_5,58,1,48,51,1318698512
1109,10,Ticks_ISO_T2_5,59,5,42,127,1319192844
1109,10,Ticks_ISO_T2_5,60,1,48,52,1319203216
1109,10,Ticks_ISO_T2_5,61,1,48,48,1319692088
1109,10,Ticks_ISO_T2_5,62,5,42,127,1319693728
1109,10,Ticks_ISO_T2_5,63,5,42,127,1320193280
1109,10,Ticks_ISO_T2_5,64,1,48,51,1320194764
1109,10,Ticks_ISO_T2_5,65,1,48,49,1320690612
1109,10,Ticks_ISO_T2_5,66,5,42,127,1320693116
1109,10,Ticks_ISO_T2_5,67,5,42,127,1321192668
1109,10,Ticks_ISO_T2_5,68,1,48,46,1321198932
1109,10,Ticks_ISO_T2_5,69,1,48,52,1321686116
1109,10,Ticks_ISO_T2_5,70,5,42,127,1321692728
1109,10,Ticks_ISO_T2_5,71,1,48,51,1322175636
1109,10,Ticks_ISO_T2_5,72,5,42,127,1322193248
1109,10,Ticks_ISO_T2_5,73,5,42,127,1322693024
1109,10,Ticks_ISO_T2_5,74,1,48,53,1322693988
1109,10,Ticks_ISO_T2_5,75,1,48,49,1323189236
1109,10,Ticks_ISO_T2_5,76,5,42,127,1323192636
1109,10,Ticks_ISO_T2_5,77,1,48,51,1323673896
1109,10,Ticks_ISO_T2_5,78,5,42,127,1323693748
1109,10,Ticks_ISO_T2_5,79,5,42,127,1324193228
1109,10,Ticks_ISO_T2_5,80,1,48,50,1324198368
1109,10,Ticks_ISO_T2_5,81,1,48,52,1324677096
1109,10,Ticks_ISO_T2_5,82,5,42,127,1324692768
1109,10,Ticks_ISO_T2_5,83,1,48,51,1325189660
1109,10,Ticks_ISO_T2_5,84,5,42,127,1325192684
1109,10,Ticks_ISO_T2_5,85,1,48,48,1325686360
1109,10,Ticks_ISO_T2_5,86,5,42,127,1325693648
1109,10,Ticks_ISO_T2_5,87,1,48,45,1326184036
1109,10,Ticks_ISO_T2_5,88,5,42,127,1326193124
1109,10,Ticks_ISO_T2_5,89,1,48,51,1326687700
1109,10,Ticks_ISO_T2_5,90,5,42,127,1326692596
1109,10,Ticks_ISO_T2_5,91,1,48,47,1327191544
1109,10,Ticks_ISO_T2_5,92,5,42,127,1327192960
1109,10,Ticks_ISO_T2_5,93,5,42,127,1327693560
1109,10,Ticks_ISO_T2_5,94,1,48,52,1327709172
1109,10,Ticks_ISO_T2_5,95,5,42,127,1328192808
1109,10,Ticks_ISO_T2_5,96,1,48,49,1328219192
1109,10,Ticks_ISO_T2_5,97,5,42,127,1328692700
1109,10,Ticks_ISO_T2_5,98,1,48,46,1328701228
1109,10,Ticks_ISO_T2_5,99,5,42,127,1329193292
1109,10,Ticks_ISO_T2_5,100,1,48,52,1329221648
1109,10,Ticks_ISO_T2_5,101,1,48,51,1329671628
1109,10,Ticks_ISO_T2_5,102,5,42,127,1329692980
1109,10,Ticks_ISO_T2_5,103,1,48,47,1330182092
1109,10,Ticks_ISO_T2_5,104,5,42,127,1330192604
1109,10,Ticks_ISO_T2_5,105,5,42,127,1330692600
1109,10,Ticks_ISO_T2_5,106,1,48,51,1330695120
1109,10,Ticks_ISO_T2_5,107,1,48,54,1331180588
1109,10,Ticks_ISO_T2_5,108,5,42,127,1331193408
1109,10,Ticks_ISO_T2_5,109,1,48,54,1331685444
1109,10,Ticks_ISO_T2_5,110,5,42,127,1331693032
1109,10,Ticks_ISO_T2_5,111,1,48,53,1332180424
1109,10,Ticks_ISO_T2_5,112,5,42,127,1332192652
1109,10,Ticks_ISO_T2_5,113,1,48,48,1332671068
1109,10,Ticks_ISO_T2_5,114,5,42,127,1332693392
1109,10,Ticks_ISO_T2_5,115,1,48,50,1333177576
1109,10,Ticks_ISO_T2_5,116,5,42,127,1333193088
1109,10,Ticks_ISO_T2_5,117,1,48,48,1333660212
1109,10,Ticks_ISO_T2_5,118,5,42,127,1333692708
1109,10,Ticks_ISO_T2_5,119,1,48,51,1334183992
1109,10,Ticks_ISO_T2_5,120,5,42,127,1334192628
1109,10,Ticks_ISO_T2_5,121,1,48,52,1334686600
1109,10,Ticks_ISO_T2_5,122,5,42,127,1334693220
1109,10,Ticks_ISO_T2_5,123,5,42,127,1335192920
1109,10,Ticks_ISO_T2_5,124,1,48,50,1335195436
1109,10,Ticks_ISO_T2_5,125,5,42,127,1335692544
1109,10,Ticks_ISO_T2_5,126,1,48,51,1335696560
1109,10,Ticks_ISO_T2_5,127,1,48,50,1336188308
1109,10,Ticks_ISO_T2_5,128,5,42,127,1336193576
1109,10,Ticks_ISO_T2_5,129,1,48,48,1336668704
1109,10,Ticks_ISO_T2_5,130,5,42,127,1336693048
1109,10,Ticks_ISO_T2_5,131,1,48,52,1337189644
1109,10,Ticks_ISO_T2_5,132,5,42,127,1337192744
1109,10,Ticks_ISO_T2_5,133,5,42,127,1337692668
1109,10,Ticks_ISO_T2_5,134,1,48,52,1337713436
1109,10,Ticks_ISO_T2_5,135,1,48,44,1338188208
1109,10,Ticks_ISO_T2_5,136,5,42,127,1338193400
1109,10,Ticks_ISO_T2_5,137,1,48,46,1338685884
1109,10,Ticks_ISO_T2_5,138,5,42,127,1338692948
1109,10,Ticks_ISO_T2_5,139,1,48,48,1339178820
1109,10,Ticks_ISO_T2_5,140,5,42,127,1339192616
1109,10,Ticks_ISO_T2_5,141,1,48,48,1339668464
1109,10,Ticks_ISO_T2_5,142,5,42,127,1339693556
1109,10,Ticks_ISO_T2_5,143,1,48,47,1340167192
1109,10,Ticks_ISO_T2_5,144,5,42,127,1340193324
1109,10,Ticks_ISO_T2_5,145,1,48,44,1340676004
1109,10,Ticks_ISO_T2_5,146,5,42,127,1340693020
1109,10,Ticks_ISO_T2_5,147,1,48,46,1341153264
1109,10,Ticks_ISO_T2_5,148,5,42,127,1341192420
1109,10,Ticks_ISO_T2_5,149,1,48,45,1341685420
1109,10,Ticks_ISO_T2_5,150,5,42,127,1341693384
1109,10,Ticks_ISO_T2_5,151,5,42,127,1342193084
1109,10,Ticks_ISO_T2_5,152,1,48,44,1342209892
1109,10,Ticks_ISO_T2_5,153,5,42,127,1342692708
1109,10,Ticks_ISO_T2_5,154,1,48,52,1342695676
1109,10,Ticks_ISO_T2_5,155,5,42,127,1343192476
1109,10,Ticks_ISO_T2_5,156,1,48,45,1343203148
1109,10,Ticks_ISO_T2_5,157,1,48,52,1343691940
1109,10,Ticks_ISO_T2_5,158,5,42,127,1343693584
1109,10,Ticks_ISO_T2_5,159,1,48,52,1344188012
1109,10,Ticks_ISO_T2_5,160,5,42,127,1344192832
1109,10,Ticks_ISO_T2_5,161,5,42,127,1344692532
1109,10,Ticks_ISO_T2_5,162,1,48,55,1344709044
1109,10,Ticks_ISO_T2_5,163,1,48,54,1345175056
1109,10,Ticks_ISO_T2_5,164,5,42,127,1345193268
1109,10,Ticks_ISO_T2_5,165,1,48,54,1345652840
1109,10,Ticks_ISO_T2_5,166,5,42,127,1345693112
1109,10,Ticks_ISO_T2_5,167,1,48,51,1346180508
1109,10,Ticks_ISO_T2_5,168,5,42,127,1346192660
1109,10,Ticks_ISO_T2_5,169,5,42,127,1346692584
1109,10,Ticks_ISO_T2_5,170,1,48,55,1346713656
1109,10,Ticks_ISO_T2_5,171,5,42,127,1347193324
1109,10,Ticks_ISO_T2_5,172,1,48,53,1347202428
1109,10,Ticks_ISO_T2_5,173,1,48,56,1347693020
1109,10,Ticks_ISO_T2_5,174,5,42,127,1347694504
1109,10,Ticks_ISO_T2_5,175,1,48,53,1348178164
1109,10,Ticks_ISO_T2_5,176,5,42,127,1348192484
1109,10,Ticks_ISO_T2_5,177,1,48,53,1348675764
1109,10,Ticks_ISO_T2_5,178,5,42,127,1348693224
1109,10,Ticks_ISO_T2_5,179,1,48,52,1349177852
1109,10,Ticks_ISO_T2_5,180,5,42,127,1349193140
1109,10,Ticks_ISO_T2_5,181,5,42,127,1349692692
1109,10,Ticks_ISO_T2_5,182,1,48,54,1349695736
1109,10,Ticks_ISO_T2_5,183,1,48,52,1350192884
1109,10,Ticks_ISO_T2_5,184,5,42,127,1350194000
1109,10,Ticks_ISO_T2_5,185,1,48,49,1350659108
1109,10,Ticks_ISO_T2_5,186,5,42,127,1350693172
1109,10,Ticks_ISO_T2_5,187,1,48,51,1351191360
1109,10,Ticks_ISO_T2_5,188,5,42,127,1351192792
1109,10,Ticks_ISO_T2_5,189,1,48,51,1351691892
1109,10,Ticks_ISO_T2_5,190,5,42,127,1351693388
1109,10,Ticks_ISO_T2_5,191,1,48,52,1352185712
1109,10,Ticks_ISO_T2_5,192,5,42,127,1352193452
1109,10,Ticks_ISO_T2_5,193,1,48,46,1352671572
1109,10,Ticks_ISO_T2_5,194,5,42,127,1352693296
1109,10,Ticks_ISO_T2_5,195,5,42,127,1353192852
1109,10,Ticks_ISO_T2_5,196,1,48,50,1353199560
1109,10,Ticks_ISO_T2_5,197,1,48,47,1353680988
1109,10,Ticks_ISO_T2_5,198,5,42,127,1353692536
1109,10,Ticks_ISO_T2_5,199,1,48,45,1354185240
1109,10,Ticks_ISO_T2_5,200,5,42,127,1354193352
1109,10,Ticks_ISO_T2_5,201,1,48,49,1354667216
1109,10,Ticks_ISO_T2_5,202,5,42,127,1354693124
1109,10,Ticks_ISO_T2_5,203,1,48,49,1355192528
1109,10,Ticks_ISO_T2_5,204,5,42,127,1355193792
1109,10,Ticks_ISO_T2_5,205,1,48,48,1355685372
1109,10,Ticks_ISO_T2_5,206,5,42,127,1355693412
1109,10,Ticks_ISO_T2_5,207,1,48,49,1356173248
1109,10,Ticks_ISO_T2_5,208,5,42,127,1356193328
1109,10,Ticks_ISO_T2_5,209,5,42,127,1356693032
1109,10,Ticks_ISO_T2_5,210,1,48,41,1356711040
1109,10,Ticks_ISO_T2_5,211,5,42,127,1357192508
1109,10,Ticks_ISO_T2_5,212,1,48,48,1357198620
1109,10,Ticks_ISO_T2_5,213,1,48,53,1357667324
1109,10,Ticks_ISO_T2_5,214,5,42,127,1357693240
1109,10,Ticks_ISO_T2_5,215,1,48,45,1358123836
1109,10,Ticks_ISO_T2_5,216,5,42,127,1358193308
1109,10,Ticks_ISO_T2_5,217,1,48,53,1358683248
1109,10,Ticks_ISO_T2_5,218,5,42,127,1358692704
1109,10,Ticks_ISO_T2_5,219,5,42,127,1359192480
1109,10,Ticks_ISO_T2_5,220,1,48,49,1359216240
1109,10,Ticks_ISO_T2_5,221,1,48,49,1359672688
1109,10,Ticks_ISO_T2_5,222,5,42,127,1359693288
1109,10,Ticks_ISO_T2_5,223,1,48,48,1360166000
1109,10,Ticks_ISO_T2_5,224,5,42,127,1360193204
1109,10,Ticks_ISO_T2_5,225,1,48,50,1360678112
1109,10,Ticks_ISO_T2_5,226,5,42,127,1360692504
1109,10,Ticks_ISO_T2_5,227,1,48,50,1361183712
1109,10,Ticks_ISO_T2_5,228,5,42,127,1361193472
1109,10,Ticks_ISO_T2_5,229,1,48,47,1361670620
1109,10,Ticks_ISO_T2_5,230,5,42,127,1361693240
1109,10,Ticks_ISO_T2_5,231,1,48,48,1362157676
1109,10,Ticks_ISO_T2_5,232,5,42,127,1362193084
1109,10,Ticks_ISO_T2_5,233,1,48,51,1362683692
1109,10,Ticks_ISO_T2_5,234,5,42,127,1362692408
1109,10,Ticks_ISO_T2_5,235,1,48,50,1363187428
1109,10,Ticks_ISO_T2_5,236,5,42,127,1363193148
1109,10,Ticks_ISO_T2_5,237,5,42,127,1363693148
1109,10,Ticks_ISO_T2_5,238,1,48,38,1363701956
1109,10,Ticks_ISO_T2_5,239,1,48,44,1364154804
1109,10,Ticks_ISO_T2_5,240,5,42,127,1364193056
1109,10,Ticks_ISO_T2_5,241,1,48,49,1364692908
1109,10,Ticks_ISO_T2_5,242,5,42,127,1364694400
1109,10,Ticks_ISO_T2_5,243,1,48,48,1365193328
1109,10,Ticks_ISO_T2_5,244,5,42,127,1365194592
1109,10,Ticks_ISO_T2_5,245,1,48,46,1365688872
1109,10,Ticks_ISO_T2_5,246,5,42,127,1365693092
1109,10,Ticks_ISO_T2_5,247,5,42,127,1366192420
1109,10,Ticks_ISO_T2_5,248,1,48,51,1366198608
1109,10,Ticks_ISO_T2_5,249,5,42,127,1366693164
1109,10,Ticks_ISO_T2_5,250,1,48,51,1366698084
1109,10,Ticks_ISO_T2_5,251,5,42,127,1367193156
1109,10,Ticks_ISO_T2_5,252,1,48,49,1367195680
1109,10,Ticks_ISO_T2_5,253,5,42,127,1367692552
1109,10,Ticks_ISO_T2_5,254,1,48,49,1367696572
1109,10,Ticks_ISO_T2_5,255,5,42,127,1368193368
1109,10,Ticks_ISO_T2_5,256,1,48,47,1368196564
1109,10,Ticks_ISO_T2_5,257,5,42,127,1368693212
1109,10,Ticks_ISO_T2_5,258,1,48,55,1368712344
1109,10,Ticks_ISO_T2_5,0,9999,9999,9999,1304191024
1109,10,Ticks_ISO_T2_5,1,9999,9999,9999,1304690740
1109,10,Ticks_ISO_T2_5,2,9999,9999,9999,1305190508
1109,10,Ticks_ISO_T2_5,3,9999,9999,9999,1305690204
1109,10,Ticks_ISO_T2_5,4,9999,9999,9999,1306190944
1109,10,Ticks_ISO_T2_5,5,9999,9999,9999,1306690640
1109,10,Ticks_ISO_T2_5,6,9999,9999,9999,1307190376
1109,10,Ticks_ISO_T2_5,7,9999,9999,9999,1307691092
1109,10,Ticks_ISO_T2_5,8,9999,9999,9999,1308190792
1109,10,Ticks_ISO_T2_5,9,9999,9999,9999,1308690488
1109,10,Ticks_ISO_T2_5,10,9999,9999,9999,1309190252
1109,10,Ticks_ISO_T2_5,11,9999,9999,9999,1309691000
1109,10,Ticks_ISO_T2_5,12,9999,9999,9999,1310190692
1109,10,Ticks_ISO_T2_5,13,9999,9999,9999,1310690384
1109,10,Ticks_ISO_T2_5,14,9999,9999,9999,1311190076
1109,10,Ticks_ISO_T2_5,15,9999,9999,9999,1311690820
1109,10,Ticks_ISO_T2_5,16,9999,9999,9999,1312190520
1109,10,Ticks_ISO_T2_5,17,9999,9999,9999,1312690268
1109,10,Ticks_ISO_T2_5,18,9999,9999,9999,1313191008
1109,10,Ticks_ISO_T2_5,19,9999,9999,9999,1313690716
1109,10,Ticks_ISO_T2_5,20,9999,9999,9999,1314190412
1109,10,Ticks_ISO_T2_5,21,9999,9999,9999,1314690144
1109,10,Ticks_ISO_T2_5,22,9999,9999,9999,1315190856
1109,10,Ticks_ISO_T2_5,23,9999,9999,9999,1315690548
1109,10,Ticks_ISO_T2_5,24,9999,9999,9999,1316190320
1109,10,Ticks_ISO_T2_5,25,9999,9999,9999,1316691060
1109,10,Ticks_ISO_T2_5,26,9999,9999,9999,1317190756
1109,10,Ticks_ISO_T2_5,27,9999,9999,9999,1317690452
1109,10,Ticks_ISO_T2_5,28,9999,9999,9999,1318190196
1109,10,Ticks_ISO_T2_5,29,9999,9999,9999,1318690936
1109,10,Ticks_ISO_T2_5,30,9999,9999,9999,1319190632
1109,10,Ticks_ISO_T2_5,31,9999,9999,9999,1319690328
1109,10,Ticks_ISO_T2_5,32,9999,9999,9999,1320191068
1109,10,Ticks_ISO_T2_5,33,9999,9999,9999,1320690756
1109,10,Ticks_ISO_T2_5,34,9999,9999,9999,1321190456
1109,10,Ticks_ISO_T2_5,35,9999,9999,9999,1321690220
1109,10,Ticks_ISO_T2_5,36,9999,9999,9999,1322190960
1109,10,Ticks_ISO_T2_5,37,9999,9999,9999,1322690664
1109,10,Ticks_ISO_T2_5,38,9999,9999,9999,1323190352
1109,10,Ticks_ISO_T2_5,39,9999,9999,9999,1323691092
1109,10,Ticks_ISO_T2_5,40,9999,9999,9999,1324190792
1109,10,Ticks_ISO_T2_5,41,9999,9999,9999,1324690480
1109,10,Ticks_ISO_T2_5,42,9999,9999,9999,1325190252
1109,10,Ticks_ISO_T2_5,43,9999,9999,9999,1325690992
1109,10,Ticks_ISO_T2_5,44,9999,9999,9999,1326190688
1109,10,Ticks_ISO_T2_5,45,9999,9999,9999,1326690384
1109,10,Ticks_ISO_T2_5,46,9999,9999,9999,1327190084
1109,10,Ticks_ISO_T2_5,47,9999,9999,9999,1327690824
1109,10,Ticks_ISO_T2_5,48,9999,9999,9999,1328190520
1109,10,Ticks_ISO_T2_5,49,9999,9999,9999,1328690264
1109,10,Ticks_ISO_T2_5,50,9999,9999,9999,1329191008
1109,10,Ticks_ISO_T2_5,51,9999,9999,9999,1329690696
1109,10,Ticks_ISO_T2_5,52,9999,9999,9999,1330190392
1109,10,Ticks_ISO_T2_5,53,9999,9999,9999,1330690168
1109,10,Ticks_ISO_T2_5,54,9999,9999,9999,1331190900
1109,10,Ticks_ISO_T2_5,55,9999,9999,9999,1331690596
1109,10,Ticks_ISO_T2_5,56,9999,9999,9999,1332190292
1109,10,Ticks_ISO_T2_5,57,9999,9999,9999,1332691032
1109,10,Ticks_ISO_T2_5,58,9999,9999,9999,1333190728
1109,10,Ticks_ISO_T2_5,59,9999,9999,9999,1333690424
1109,10,Ticks_ISO_T2_5,60,9999,9999,9999,1334190192
1109,10,Ticks_ISO_T2_5,61,9999,9999,9999,1334690932
1109,10,Ticks_ISO_T2_5,62,9999,9999,9999,1335190632
1109,10,Ticks_ISO_T2_5,63,9999,9999,9999,1335690332
1109,10,Ticks_ISO_T2_5,64,9999,9999,9999,1336191064
1109,10,Ticks_ISO_T2_5,65,9999,9999,9999,1336690760
1109,10,Ticks_ISO_T2_5,66,9999,9999,9999,1337190456
1109,10,Ticks_ISO_T2_5,67,9999,9999,9999,1337690232
1109,10,Ticks_ISO_T2_5,68,9999,9999,9999,1338190968
1109,10,Ticks_ISO_T2_5,69,9999,9999,9999,1338690664
1109,10,Ticks_ISO_T2_5,70,9999,9999,9999,1339190332
1109,10,Ticks_ISO_T2_5,71,9999,9999,9999,1339691124
1109,10,Ticks_ISO_T2_5,72,9999,9999,9999,1340190816
1109,10,Ticks_ISO_T2_5,73,9999,9999,9999,1340690512
1109,10,Ticks_ISO_T2_5,74,9999,9999,9999,1341190208
1109,10,Ticks_ISO_T2_5,75,9999,9999,9999,1341690948
1109,10,Ticks_ISO_T2_5,76,9999,9999,9999,1342190652
1109,10,Ticks_ISO_T2_5,77,9999,9999,9999,1342690420
1109,10,Ticks_ISO_T2_5,78,9999,9999,9999,1343190116
1109,10,Ticks_ISO_T2_5,79,9999,9999,9999,1343690856
1109,10,Ticks_ISO_T2_5,80,9999,9999,9999,1344190544
1109,10,Ticks_ISO_T2_5,81,9999,9999,9999,1344690248
1109,10,Ticks_ISO_T2_5,82,9999,9999,9999,1345190980
1109,10,Ticks_ISO_T2_5,83,9999,9999,9999,1345690676
1109,10,Ticks_ISO_T2_5,84,9999,9999,9999,1346190448
1109,10,Ticks_ISO_T2_5,85,9999,9999,9999,1346690148
1109,10,Ticks_ISO_T2_5,86,9999,9999,9999,1347190888
1109,10,Ticks_ISO_T2_5,87,9999,9999,9999,1347690584
1109,10,Ticks_ISO_T2_5,88,9999,9999,9999,1348190272
1109,10,Ticks_ISO_T2_5,89,9999,9999,9999,1348691012
1109,10,Ticks_ISO_T2_5,90,9999,9999,9999,1349190708
1109,10,Ticks_ISO_T2_5,91,9999,9999,9999,1349690480
1109,10,Ticks_ISO_T2_5,92,9999,9999,9999,1350190152
1109,10,Ticks_ISO_T2_5,93,9999,9999,9999,1350690888
1109,10,Ticks_ISO_T2_5,94,9999,9999,9999,1351190588
1109,10,Ticks_ISO_T2_5,95,9999,9999,9999,1351690356
1109,10,Ticks_ISO_T2_5,96,9999,9999,9999,1352191092
1109,10,Ticks_ISO_T2_5,97,9999,9999,9999,1352690788
1109,10,Ticks_ISO_T2_5,98,9999,9999,9999,1353190488
1109,10,Ticks_ISO_T2_5,99,9999,9999,9999,1353690176
1109,10,Ticks_ISO_T2_5,100,9999,9999,9999,1354190916
1109,10,Ticks_ISO_T2_5,101,9999,9999,9999,1354690616
1109,10,Ticks_ISO_T2_5,102,9999,9999,9999,1355190388
1109,10,Ticks_ISO_T2_5,103,9999,9999,9999,1355691124
1109,10,Ticks_ISO_T2_5,104,9999,9999,9999,1356190820
1109,10,Ticks_ISO_T2_5,105,9999,9999,9999,1356690524
1109,10,Ticks_ISO_T2_5,106,9999,9999,9999,1357190220
1109,10,Ticks_ISO_T2_5,107,9999,9999,9999,1357690952
1109,10,Ticks_ISO_T2_5,108,9999,9999,9999,1358190648
1109,10,Ticks_ISO_T2_5,109,9999,9999,9999,1358690420
1109,10,Ticks_ISO_T2_5,110,9999,9999,9999,1359190120
1109,10,Ticks_ISO_T2_5,111,9999,9999,9999,1359690856
1109,10,Ticks_ISO_T2_5,112,9999,9999,9999,1360190548
1109,10,Ticks_ISO_T2_5,113,9999,9999,9999,1360690292
1109,10,Ticks_ISO_T2_5,114,9999,9999,9999,1361190960
1109,10,Ticks_ISO_T2_5,115,9999,9999,9999,1361690732
1109,10,Ticks_ISO_T2_5,116,9999,9999,9999,1362190424
1109,10,Ticks_ISO_T2_5,117,9999,9999,9999,1362690120
1109,10,Ticks_ISO_T2_5,118,9999,9999,9999,1363190860
1109,10,Ticks_ISO_T2_5,119,9999,9999,9999,1363690564
1109,10,Ticks_ISO_T2_5,120,9999,9999,9999,1364190324
1109,10,Ticks_ISO_T2_5,121,9999,9999,9999,1364691000
1109,10,Ticks_ISO_T2_5,122,9999,9999,9999,1365190744
1109,10,Ticks_ISO_T2_5,123,9999,9999,9999,1365690432
1109,10,Ticks_ISO_T2_5,124,9999,9999,9999,1366190136
1109,10,Ticks_ISO_T2_5,125,9999,9999,9999,1366690876
1109,10,Ticks_ISO_T2_5,126,9999,9999,9999,1367190648
1109,10,Ticks_ISO_T2_5,127,9999,9999,9999,1367690340
1109,10,Ticks_ISO_T2_5,128,9999,9999,9999,1368191084
1109,10,Ticks_ISO_T2_5,129,9999,9999,9999,1368690776
11010,9,Ticks_ISO_T2_8,0,5,42,127,1378362868
11010,9,Ticks_ISO_T2_8,1,5,42,127,1379162548
11010,9,Ticks_ISO_T2_8,2,1,48,48,1379962752
11010,9,Ticks_ISO_T2_8,3,5,42,127,1379964320
11010,9,Ticks_ISO_T2_8,4,1,48,51,1380761048
11010,9,Ticks_ISO_T2_8,5,5,42,127,1380762932
11010,9,Ticks_ISO_T2_8,6,5,42,127,1381562672
11010,9,Ticks_ISO_T2_8,7,1,48,51,1381576112
11010,9,Ticks_ISO_T2_8,8,5,42,127,1382362480
11010,9,Ticks_ISO_T2_8,9,1,48,51,1382392596
11010,9,Ticks_ISO_T2_8,10,1,48,51,1383153872
11010,9,Ticks_ISO_T2_8,11,5,42,127,1383163104
11010,9,Ticks_ISO_T2_8,12,1,48,46,1383943876
11010,9,Ticks_ISO_T2_8,13,5,42,127,1383962988
11010,9,Ticks_ISO_T2_8,14,1,48,48,1384761548
11010,9,Ticks_ISO_T2_8,15,5,42,127,1384763116
11010,9,Ticks_ISO_T2_8,16,5,42,127,1385562560
11010,9,Ticks_ISO_T2_8,17,1,48,48,1385572636
11010,9,Ticks_ISO_T2_8,18,5,42,127,1386363192
11010,9,Ticks_ISO_T2_8,19,1,48,48,1386398776
11010,9,Ticks_ISO_T2_8,20,1,48,48,1387156752
11010,9,Ticks_ISO_T2_8,21,5,42,127,1387162844
11010,9,Ticks_ISO_T2_8,22,1,48,49,1387962508
11010,9,Ticks_ISO_T2_8,23,5,42,127,1387963848
11010,9,Ticks_ISO_T2_8,24,5,42,127,1388762616
11010,9,Ticks_ISO_T2_8,25,1,48,53,1388782644
11010,9,Ticks_ISO_T2_8,26,5,42,127,1389563172
11010,9,Ticks_ISO_T2_8,27,1,48,49,1389584396
11010,9,Ticks_ISO_T2_8,28,5,42,127,1390362980
11010,9,Ticks_ISO_T2_8,29,1,48,47,1390369916
11010,9,Ticks_ISO_T2_8,30,5,42,127,1391162664
11010,9,Ticks_ISO_T2_8,31,1,48,48,1391186796
11010,9,Ticks_ISO_T2_8,32,1,48,50,1391933108
11010,9,Ticks_ISO_T2_8,33,5,42,127,1391962540
11010,9,Ticks_ISO_T2_8,34,1,48,47,1392762276
11010,9,Ticks_ISO_T2_8,35,5,42,127,1392763764
11010,9,Ticks_ISO_T2_8,36,1,48,49,1393549484
11010,9,Ticks_ISO_T2_8,37,5,42,127,1393562904
11010,9,Ticks_ISO_T2_8,38,1,48,48,1394336348
11010,9,Ticks_ISO_T2_8,39,5,42,127,1394362712
11010,9,Ticks_ISO_T2_8,40,1,48,48,1395156204
11010,9,Ticks_ISO_T2_8,41,5,42,127,1395162592
11010,9,Ticks_ISO_T2_8,42,1,48,51,1395953540
11010,9,Ticks_ISO_T2_8,43,5,42,127,1395963524
11010,9,Ticks_ISO_T2_8,44,1,48,47,1396731436
11010,9,Ticks_ISO_T2_8,45,5,42,127,1396762888
11010,9,Ticks_ISO_T2_8,46,1,48,49,1397559620
11010,9,Ticks_ISO_T2_8,47,5,42,127,1397562716
11010,9,Ticks_ISO_T2_8,48,1,48,46,1398342972
11010,9,Ticks_ISO_T2_8,49,5,42,127,1398362676
11010,9,Ticks_ISO_T2_8,50,1,48,46,1399152276
11010,9,Ticks_ISO_T2_8,51,5,42,127,1399163452
11010,9,Ticks_ISO_T2_8,52,1,48,51,1399922316
11010,9,Ticks_ISO_T2_8,53,5,42,127,1399962892
11010,9,Ticks_ISO_T2_8,54,1,48,50,1400734844
11010,9,Ticks_ISO_T2_8,55,5,42,127,1400762624
11010,9,Ticks_ISO_T2_8,56,1,48,49,1401535620
11010,9,Ticks_ISO_T2_8,57,5,42,127,1401562656
11010,9,Ticks_ISO_T2_8,58,1,48,49,1402361400
11010,9,Ticks_ISO_T2_8,59,5,42,127,1402363212
11010,9,Ticks_ISO_T2_8,60,5,42,127,1403162952
11010,9,Ticks_ISO_T2_8,61,1,48,52,1403186492
11010,9,Ticks_ISO_T2_8,62,5,42,127,1403962784
11010,9,Ticks_ISO_T2_8,63,1,48,51,1403970092
11010,9,Ticks_ISO_T2_8,64,5,42,127,1404762668
11010,9,Ticks_ISO_T2_8,65,1,48,53,1404774836
11010,9,Ticks_ISO_T2_8,66,1,48,49,1405547176
11010,9,Ticks_ISO_T2_8,67,5,42,127,1405563292
11010,9,Ticks_ISO_T2_8,68,1,48,47,1406359548
11010,9,Ticks_ISO_T2_8,69,5,42,127,1406362948
11010,9,Ticks_ISO_T2_8,70,1,48,50,1407157788
11010,9,Ticks_ISO_T2_8,71,5,42,127,1407162608
11010,9,Ticks_ISO_T2_8,72,5,42,127,1407962424
11010,9,Ticks_ISO_T2_8,73,1,48,51,1407977664
11010,9,Ticks_ISO_T2_8,74,5,42,127,1408763276
11010,9,Ticks_ISO_T2_8,75,1,48,48,1408767368
11010,9,Ticks_ISO_T2_8,76,5,42,127,1409562936
11010,9,Ticks_ISO_T2_8,77,1,48,48,1409600036
11010,9,Ticks_ISO_T2_8,78,5,42,127,1410362844
11010,9,Ticks_ISO_T2_8,79,1,48,51,1410403512
11010,9,Ticks_ISO_T2_8,80,5,42,127,1411162504
11010,9,Ticks_ISO_T2_8,81,1,48,53,1411172052
11010,9,Ticks_ISO_T2_8,82,1,48,44,1411956360
11010,9,Ticks_ISO_T2_8,83,5,42,127,1411963424
11010,9,Ticks_ISO_T2_8,84,5,42,127,1412762944
11010,9,Ticks_ISO_T2_8,85,1,48,50,1412780200
11010,9,Ticks_ISO_T2_8,86,5,42,127,1413562676
11010,9,Ticks_ISO_T2_8,87,1,48,51,1413605284
11010,9,Ticks_ISO_T2_8,88,5,42,127,1414362336
11010,9,Ticks_ISO_T2_8,89,1,48,52,1414366500
11010,9,Ticks_ISO_T2_8,90,1,48,48,1415158140
11010,9,Ticks_ISO_T2_8,91,5,42,127,1415163480
11010,9,Ticks_ISO_T2_8,92,5,42,127,1415963068
11010,9,Ticks_ISO_T2_8,93,1,48,49,1415985340
11010,9,Ticks_ISO_T2_8,94,5,42,127,1416762680
11010,9,Ticks_ISO_T2_8,95,1,48,50,1416773952
11010,9,Ticks_ISO_T2_8,96,1,48,52,1417553024
11010,9,Ticks_ISO_T2_8,97,5,42,127,1417562332
11010,9,Ticks_ISO_T2_8,98,1,48,46,1418354176
11010,9,Ticks_ISO_T2_8,99,5,42,127,1418363408
11010,9,Ticks_ISO_T2_8,100,5,42,127,1419163076
11010,9,Ticks_ISO_T2_8,101,1,48,46,1419183096
11010,9,Ticks_ISO_T2_8,102,5,42,127,1419962660
11010,9,Ticks_ISO_T2_8,103,1,48,45,1419991136
11010,9,Ticks_ISO_T2_8,104,1,48,36,1420734604
11010,9,Ticks_ISO_T2_8,105,5,42,127,1420762536
11010,9,Ticks_ISO_T2_8,106,5,42,127,1421563324
11010,9,Ticks_ISO_T2_8,107,1,48,51,1421576244
11010,9,Ticks_ISO_T2_8,108,5,42,127,1422363204
11010,9,Ticks_ISO_T2_8,109,1,48,52,1422375524
11010,9,Ticks_ISO_T2_8,110,5,42,127,1423162740
11010,9,Ticks_ISO_T2_8,111,1,48,49,1423172292
11010,9,Ticks_ISO_T2_8,112,5,42,127,1423962324
11010,9,Ticks_ISO_T2_8,113,1,48,49,1423965296
11010,9,Ticks_ISO_T2_8,114,5,42,127,1424763104
11010,9,Ticks_ISO_T2_8,115,1,48,51,1424765116
11010,9,Ticks_ISO_T2_8,116,5,42,127,1425563208
11010,9,Ticks_ISO_T2_8,117,1,48,53,1425608516
11010,9,Ticks_ISO_T2_8,118,5,42,127,1426362868
11010,9,Ticks_ISO_T2_8,119,1,48,48,1426365468
11010,9,Ticks_ISO_T2_8,120,1,48,49,1427154632
11010,9,Ticks_ISO_T2_8,121,5,42,127,1427162372
11010,9,Ticks_ISO_T2_8,122,1,48,45,1427939032
11010,9,Ticks_ISO_T2_8,123,5,42,127,1427963224
11010,9,Ticks_ISO_T2_8,124,1,48,48,1428759336
11010,9,Ticks_ISO_T2_8,125,5,42,127,1428763184
11010,9,Ticks_ISO_T2_8,126,1,48,47,1429556228
11010,9,Ticks_ISO_T2_8,127,5,42,127,1429562992
11010,9,Ticks_ISO_T2_8,128,5,42,127,1430362436
11010,9,Ticks_ISO_T2_8,129,1,48,47,1430367356
11010,9,Ticks_ISO_T2_8,130,5,42,127,1431163216
11010,9,Ticks_ISO_T2_8,131,1,48,46,1431166336
11010,9,Ticks_ISO_T2_8,132,5,42,127,1431963100
11010,9,Ticks_ISO_T2_8,133,1,48,32,1432039600
11010,9,Ticks_ISO_T2_8,134,5,42,127,1432762980
11010,9,Ticks_ISO_T2_8,135,1,48,52,1432769548
11010,9,Ticks_ISO_T2_8,136,1,48,52,1433521688
11010,9,Ticks_ISO_T2_8,137,5,42,127,1433562408
11010,9,Ticks_ISO_T2_8,138,1,48,50,1434314088
11010,9,Ticks_ISO_T2_8,139,5,42,127,1434363116
11010,9,Ticks_ISO_T2_8,140,1,48,45,1435137088
11010,9,Ticks_ISO_T2_8,141,5,42,127,1435162924
11010,9,Ticks_ISO_T2_8,142,5,42,127,1435962916
11010,9,Ticks_ISO_T2_8,143,1,48,50,1435969776
11010,9,Ticks_ISO_T2_8,144,1,48,46,1436758572
11010,9,Ticks_ISO_T2_8,145,5,42,127,1436762496
11010,9,Ticks_ISO_T2_8,146,5,42,127,1437563132
11010,9,Ticks_ISO_T2_8,147,1,48,34,1437577844
11010,9,Ticks_ISO_T2_8,148,5,42,127,1438363088
11010,9,Ticks_ISO_T2_8,149,1,48,41,1438373988
11010,9,Ticks_ISO_T2_8,150,1,48,44,1439143928
11010,9,Ticks_ISO_T2_8,151,5,42,127,1439162816
11010,9,Ticks_ISO_T2_8,152,1,48,46,1439948752
11010,9,Ticks_ISO_T2_8,153,5,42,127,1439962472
11010,9,Ticks_ISO_T2_8,154,1,48,45,1440737116
11010,9,Ticks_ISO_T2_8,155,5,42,127,1440763256
11010,9,Ticks_ISO_T2_8,156,5,42,127,1441562992
11010,9,Ticks_ISO_T2_8,157,1,48,50,1441573664
11010,9,Ticks_ISO_T2_8,158,5,42,127,1442362824
11010,9,Ticks_ISO_T2_8,159,1,48,43,1442371108
11010,9,Ticks_ISO_T2_8,160,1,48,49,1443141876
11010,9,Ticks_ISO_T2_8,161,5,42,127,1443162404
11010,9,Ticks_ISO_T2_8,162,5,42,127,1443963116
11010,9,Ticks_ISO_T2_8,163,1,48,42,1443977904
11010,9,Ticks_ISO_T2_8,164,5,42,127,1444762852
11010,9,Ticks_ISO_T2_8,165,1,48,47,1444769036
11010,9,Ticks_ISO_T2_8,166,5,42,127,1445562808
11010,9,Ticks_ISO_T2_8,167,1,48,47,1445571164
11010,9,Ticks_ISO_T2_8,168,5,42,127,1446362616
11010,9,Ticks_ISO_T2_8,169,1,48,33,1446392732
11010,9,Ticks_ISO_T2_8,170,1,48,46,1447132464
11010,9,Ticks_ISO_T2_8,171,5,42,127,1447163312
11010,9,Ticks_ISO_T2_8,172,5,42,127,1447962908
11010,9,Ticks_ISO_T2_8,173,1,48,52,1447963872
11010,9,Ticks_ISO_T2_8,174,5,42,127,1448762664
11010,9,Ticks_ISO_T2_8,175,1,48,47,1448790620
11010,9,Ticks_ISO_T2_8,176,5,42,127,1449562548
11010,9,Ticks_ISO_T2_8,177,1,48,54,1449566716
11010,9,Ticks_ISO_T2_8,178,1,48,50,1450329856
11010,9,Ticks_ISO_T2_8,179,5,42,127,1450363396
11010,9,Ticks_ISO_T2_8,180,1,48,50,1451134224
11010,9,Ticks_ISO_T2_8,181,5,42,127,1451162980
11010,9,Ticks_ISO_T2_8,182,5,42,127,1451962720
11010,9,Ticks_ISO_T2_8,183,1,48,53,1451976608
11010,9,Ticks_ISO_T2_8,184,5,42,127,1452762680
11010,9,Ticks_ISO_T2_8,185,1,48,52,1452776944
11010,9,Ticks_ISO_T2_8,186,1,48,48,1453520784
11010,9,Ticks_ISO_T2_8,187,5,42,127,1453563376
11010,9,Ticks_ISO_T2_8,188,1,48,48,1454361992
11010,9,Ticks_ISO_T2_8,189,5,42,127,1454363632
11010,9,Ticks_ISO_T2_8,190,1,48,46,1455161900
11010,9,Ticks_ISO_T2_8,191,5,42,127,1455163472
11010,9,Ticks_ISO_T2_8,192,1,48,45,1455953224
11010,9,Ticks_ISO_T2_8,193,5,42,127,1455962604
11010,9,Ticks_ISO_T2_8,194,1,48,50,1456726848
11010,9,Ticks_ISO_T2_8,195,5,42,127,1456763160
11010,9,Ticks_ISO_T2_8,196,1,48,50,1457557100
11010,9,Ticks_ISO_T2_8,197,5,42,127,1457562968
11010,9,Ticks_ISO_T2_8,198,1,48,53,1458360356
11010,9,Ticks_ISO_T2_8,199,5,42,127,1458362776
11010,9,Ticks_ISO_T2_8,200,5,42,127,1459162440
11010,9,Ticks_ISO_T2_8,201,1,48,52,1459176632
11010,9,Ticks_ISO_T2_8,202,1,48,49,1459909624
11010,9,Ticks_ISO_T2_8,203,5,42,127,1459963436
11010,9,Ticks_ISO_T2_8,204,1,48,45,1460715192
11010,9,Ticks_ISO_T2_8,205,5,42,127,1460763024
11010,9,Ticks_ISO_T2_8,206,5,42,127,1461562712
11010,9,Ticks_ISO_T2_8,207,1,48,45,1461581240
11010,9,Ticks_ISO_T2_8,208,5,42,127,1462362744
11010,9,Ticks_ISO_T2_8,209,1,48,52,1462390548
11010,9,Ticks_ISO_T2_8,210,1,48,47,1463149200
11010,9,Ticks_ISO_T2_8,211,5,42,127,1463163368
11010,9,Ticks_ISO_T2_8,212,1,48,45,1463941304
11010,9,Ticks_ISO_T2_8,213,5,42,127,1463962952
11010,9,Ticks_ISO_T2_8,214,1,48,43,1464747768
11010,9,Ticks_ISO_T2_8,215,5,42,127,1464762688
11010,9,Ticks_ISO_T2_8,216,5,42,127,1465562648
11010,9,Ticks_ISO_T2_8,217,1,48,48,1465570780
11010,9,Ticks_ISO_T2_8,218,1,48,51,1466356508
11010,9,Ticks_ISO_T2_8,219,5,42,127,1466363200
11010,9,Ticks_ISO_T2_8,220,1,48,54,1467158864
11010,9,Ticks_ISO_T2_8,221,5,42,127,1467163008
11010,9,Ticks_ISO_T2_8,222,5,42,127,1467962700
11010,9,Ticks_ISO_T2_8,223,1,48,54,1467969712
11010,9,Ticks_ISO_T2_8,224,1,48,50,1468723352
11010,9,Ticks_ISO_T2_8,225,5,42,127,1468762576
11010,9,Ticks_ISO_T2_8,226,1,48,50,1469536400
11010,9,Ticks_ISO_T2_8,227,5,42,127,1469563356
11010,9,Ticks_ISO_T2_8,228,1,48,54,1470359464
11010,9,Ticks_ISO_T2_8,229,5,42,127,1470363012
11010,9,Ticks_ISO_T2_8,230,5,42,127,1471162756
11010,9,Ticks_ISO_T2_8,231,1,48,52,1471169620
11010,9,Ticks_ISO_T2_8,232,1,48,46,1471924304
11010,9,Ticks_ISO_T2_8,233,5,42,127,1471962484
11010,9,Ticks_ISO_T2_8,234,1,48,43,1472719696
11010,9,Ticks_ISO_T2_8,235,5,42,127,1472763340
11010,9,Ticks_ISO_T2_8,236,1,48,53,1473560048
11010,9,Ticks_ISO_T2_8,237,5,42,127,1473563072
11010,9,Ticks_ISO_T2_8,0,9999,9999,9999,1378360432
11010,9,Ticks_ISO_T2_8,1,9999,9999,9999,1379160112
11010,9,Ticks_ISO_T2_8,2,9999,9999,9999,1379960916
11010,9,Ticks_ISO_T2_8,3,9999,9999,9999,1380760676
11010,9,Ticks_ISO_T2_8,4,9999,9999,9999,1381560384
11010,9,Ticks_ISO_T2_8,5,9999,9999,9999,1382360116
11010,9,Ticks_ISO_T2_8,6,9999,9999,9999,1383160888
11010,9,Ticks_ISO_T2_8,7,9999,9999,9999,1383960624
11010,9,Ticks_ISO_T2_8,8,9999,9999,9999,1384760392
11010,9,Ticks_ISO_T2_8,9,9999,9999,9999,1385560124
11010,9,Ticks_ISO_T2_8,10,9999,9999,9999,1386360904
11010,9,Ticks_ISO_T2_8,11,9999,9999,9999,1387160628
11010,9,Ticks_ISO_T2_8,12,9999,9999,9999,1387960368
11010,9,Ticks_ISO_T2_8,13,9999,9999,9999,1388760180
11010,9,Ticks_ISO_T2_8,14,9999,9999,9999,1389560884
11010,9,Ticks_ISO_T2_8,15,9999,9999,9999,1390360692
11010,9,Ticks_ISO_T2_8,16,9999,9999,9999,1391160376
11010,9,Ticks_ISO_T2_8,17,9999,9999,9999,1391960176
11010,9,Ticks_ISO_T2_8,18,9999,9999,9999,1392760888
11010,9,Ticks_ISO_T2_8,19,9999,9999,9999,1393560692
11010,9,Ticks_ISO_T2_8,20,9999,9999,9999,1394360424
11010,9,Ticks_ISO_T2_8,21,9999,9999,9999,1395160156
11010,9,Ticks_ISO_T2_8,22,9999,9999,9999,1395960936
11010,9,Ticks_ISO_T2_8,23,9999,9999,9999,1396760672
11010,9,Ticks_ISO_T2_8,24,9999,9999,9999,1397560432
11010,9,Ticks_ISO_T2_8,25,9999,9999,9999,1398360164
11010,9,Ticks_ISO_T2_8,26,9999,9999,9999,1399160944
11010,9,Ticks_ISO_T2_8,27,9999,9999,9999,1399960676
11010,9,Ticks_ISO_T2_8,28,9999,9999,9999,1400760412
11010,9,Ticks_ISO_T2_8,29,9999,9999,9999,1401560144
11010,9,Ticks_ISO_T2_8,30,9999,9999,9999,1402360948
11010,9,Ticks_ISO_T2_8,31,9999,9999,9999,1403160664
11010,9,Ticks_ISO_T2_8,32,9999,9999,9999,1403960424
11010,9,Ticks_ISO_T2_8,33,9999,9999,9999,1404760156
11010,9,Ticks_ISO_T2_8,34,9999,9999,9999,1405560928
11010,9,Ticks_ISO_T2_8,35,9999,9999,9999,1406360664
11010,9,Ticks_ISO_T2_8,36,9999,9999,9999,1407160396
11010,9,Ticks_ISO_T2_8,37,9999,9999,9999,1407960136
11010,9,Ticks_ISO_T2_8,38,9999,9999,9999,1408760916
11010,9,Ticks_ISO_T2_8,39,9999,9999,9999,1409560648
11010,9,Ticks_ISO_T2_8,40,9999,9999,9999,1410360408
11010,9,Ticks_ISO_T2_8,41,9999,9999,9999,1411160140
11010,9,Ticks_ISO_T2_8,42,9999,9999,9999,1411960912
11010,9,Ticks_ISO_T2_8,43,9999,9999,9999,1412760656
11010,9,Ticks_ISO_T2_8,44,9999,9999,9999,1413560388
11010,9,Ticks_ISO_T2_8,45,9999,9999,9999,1414360120
11010,9,Ticks_ISO_T2_8,46,9999,9999,9999,1415160892
11010,9,Ticks_ISO_T2_8,47,9999,9999,9999,1415960632
11010,9,Ticks_ISO_T2_8,48,9999,9999,9999,1416760392
11010,9,Ticks_ISO_T2_8,49,9999,9999,9999,1417560120
11010,9,Ticks_ISO_T2_8,50,9999,9999,9999,1418360900
11010,9,Ticks_ISO_T2_8,51,9999,9999,9999,1419160636
11010,9,Ticks_ISO_T2_8,52,9999,9999,9999,1419960372
11010,9,Ticks_ISO_T2_8,53,9999,9999,9999,1420760176
11010,9,Ticks_ISO_T2_8,54,9999,9999,9999,1421560888
11010,9,Ticks_ISO_T2_8,55,9999,9999,9999,1422360692
11010,9,Ticks_ISO_T2_8,56,9999,9999,9999,1423160376
11010,9,Ticks_ISO_T2_8,57,9999,9999,9999,1423960112
11010,9,Ticks_ISO_T2_8,58,9999,9999,9999,1424760892
11010,9,Ticks_ISO_T2_8,59,9999,9999,9999,1425560624
11010,9,Ticks_ISO_T2_8,60,9999,9999,9999,1426360432
11010,9,Ticks_ISO_T2_8,61,9999,9999,9999,1427160156
11010,9,Ticks_ISO_T2_8,62,9999,9999,9999,1427960936
11010,9,Ticks_ISO_T2_8,63,9999,9999,9999,1428760672
11010,9,Ticks_ISO_T2_8,64,9999,9999,9999,1429560408
11010,9,Ticks_ISO_T2_8,65,9999,9999,9999,1430360148
11010,9,Ticks_ISO_T2_8,66,9999,9999,9999,1431160928
11010,9,Ticks_ISO_T2_8,67,9999,9999,9999,1431960664
11010,9,Ticks_ISO_T2_8,68,9999,9999,9999,1432760396
11010,9,Ticks_ISO_T2_8,69,9999,9999,9999,1433560124
11010,9,Ticks_ISO_T2_8,70,9999,9999,9999,1434360900
11010,9,Ticks_ISO_T2_8,71,9999,9999,9999,1435160636
11010,9,Ticks_ISO_T2_8,72,9999,9999,9999,1435960404
11010,9,Ticks_ISO_T2_8,73,9999,9999,9999,1436760132
11010,9,Ticks_ISO_T2_8,74,9999,9999,9999,1437560916
11010,9,Ticks_ISO_T2_8,75,9999,9999,9999,1438360652
11010,9,Ticks_ISO_T2_8,76,9999,9999,9999,1439160376
11010,9,Ticks_ISO_T2_8,77,9999,9999,9999,1439960112
11010,9,Ticks_ISO_T2_8,78,9999,9999,9999,1440760892
11010,9,Ticks_ISO_T2_8,79,9999,9999,9999,1441560632
11010,9,Ticks_ISO_T2_8,80,9999,9999,9999,1442360388
11010,9,Ticks_ISO_T2_8,81,9999,9999,9999,1443160116
11010,9,Ticks_ISO_T2_8,82,9999,9999,9999,1443960904
11010,9,Ticks_ISO_T2_8,83,9999,9999,9999,1444760636
11010,9,Ticks_ISO_T2_8,84,9999,9999,9999,1445560368
11010,9,Ticks_ISO_T2_8,85,9999,9999,9999,1446360180
11010,9,Ticks_ISO_T2_8,86,9999,9999,9999,1447160952
11010,9,Ticks_ISO_T2_8,87,9999,9999,9999,1447960692
11010,9,Ticks_ISO_T2_8,88,9999,9999,9999,1448760376
11010,9,Ticks_ISO_T2_8,89,9999,9999,9999,1449560112
11010,9,Ticks_ISO_T2_8,90,9999,9999,9999,1450360888
11010,9,Ticks_ISO_T2_8,91,9999,9999,9999,1451160692
11010,9,Ticks_ISO_T2_8,92,9999,9999,9999,1451960432
11010,9,Ticks_ISO_T2_8,93,9999,9999,9999,1452760168
11010,9,Ticks_ISO_T2_8,94,9999,9999,9999,1453560940
11010,9,Ticks_ISO_T2_8,95,9999,9999,9999,1454360680
11010,9,Ticks_ISO_T2_8,96,9999,9999,9999,1455160440
11010,9,Ticks_ISO_T2_8,97,9999,9999,9999,1455960168
11010,9,Ticks_ISO_T2_8,98,9999,9999,9999,1456760948
11010,9,Ticks_ISO_T2_8,99,9999,9999,9999,1457560680
11010,9,Ticks_ISO_T2_8,100,9999,9999,9999,1458360416
11010,9,Ticks_ISO_T2_8,101,9999,9999,9999,1459160152
11010,9,Ticks_ISO_T2_8,102,9999,9999,9999,1459960928
11010,9,Ticks_ISO_T2_8,103,9999,9999,9999,1460760660
11010,9,Ticks_ISO_T2_8,104,9999,9999,9999,1461560424
11010,9,Ticks_ISO_T2_8,105,9999,9999,9999,1462360160
11010,9,Ticks_ISO_T2_8,106,9999,9999,9999,1463160932
11010,9,Ticks_ISO_T2_8,107,9999,9999,9999,1463960664
11010,9,Ticks_ISO_T2_8,108,9999,9999,9999,1464760400
11010,9,Ticks_ISO_T2_8,109,9999,9999,9999,1465560136
11010,9,Ticks_ISO_T2_8,110,9999,9999,9999,1466360912
11010,9,Ticks_ISO_T2_8,111,9999,9999,9999,1467160644
11010,9,Ticks_ISO_T2_8,112,9999,9999,9999,1467960412
11010,9,Ticks_ISO_T2_8,113,9999,9999,9999,1468760140
11010,9,Ticks_ISO_T2_8,114,9999,9999,9999,1469560916
11010,9,Ticks_ISO_T2_8,115,9999,9999,9999,1470360652
11010,9,Ticks_ISO_T2_8,116,9999,9999,9999,1471160392
11010,9,Ticks_ISO_T2_8,117,9999,9999,9999,1471960120
11010,9,Ticks_ISO_T2_8,118,9999,9999,9999,1472760900
11010,9,Ticks_ISO_T2_8,119,9999,9999,9999,1473560636
11011,25,Jits_Pract_5,0,5,56,103,1520000584
11011,25,Jits_Pract_5,1,5,63,98,1520003684
11011,25,Jits_Pract_5,2,5,80,127,1520006800
11011,25,Jits_Pract_5,0,5,56,103,1520500084
11011,25,Jits_Pract_5,1,5,63,98,1520503032
11011,25,Jits_Pract_5,2,5,80,127,1520506228
11011,25,Jits_Pract_5,0,5,56,103,1520999676
11011,25,Jits_Pract_5,1,5,80,127,1521010020
11011,25,Jits_Pract_5,2,5,63,98,1521029804
11011,25,Jits_Pract_5,0,5,63,98,1521450544
11011,25,Jits_Pract_5,1,5,80,127,1521480096
11011,25,Jits_Pract_5,2,5,56,103,1521490216
11011,25,Jits_Pract_5,0,5,80,127,1522009488
11011,25,Jits_Pract_5,1,5,56,103,1522019756
11011,25,Jits_Pract_5,2,5,63,98,1522050628
11011,25,Jits_Pract_5,0,5,63,98,1522499944
11011,25,Jits_Pract_5,1,5,56,103,1522529620
11011,25,Jits_Pract_5,2,5,80,127,1522539816
11011,25,Jits_Pract_5,0,5,56,103,1522949528
11011,25,Jits_Pract_5,1,5,63,98,1522999680
11011,25,Jits_Pract_5,2,5,80,127,1523020140
11011,25,Jits_Pract_5,0,5,80,127,1523450168
11011,25,Jits_Pract_5,1,5,63,98,1523500596
11011,25,Jits_Pract_5,2,5,56,103,1523540484
11011,25,Jits_Pract_5,0,5,56,103,1523949988
11011,25,Jits_Pract_5,1,5,63,98,1523979588
11011,25,Jits_Pract_5,2,5,80,127,1524050564
11011,25,Jits_Pract_5,0,5,56,103,1524449580
11011,25,Jits_Pract_5,1,5,80,127,1524510048
11011,25,Jits_Pract_5,2,5,63,98,1524539744
11011,25,Jits_Pract_5,0,5,56,103,1524959588
11011,25,Jits_Pract_5,1,5,63,98,1524969932
11011,25,Jits_Pract_5,2,5,80,127,1525009872
11011,25,Jits_Pract_5,0,5,63,98,1525460452
11011,25,Jits_Pract_5,1,5,80,127,1525540100
11011,25,Jits_Pract_5,2,5,56,103,1525549696
11011,25,Jits_Pract_5,0,5,63,98,1526010428
11011,25,Jits_Pract_5,1,5,56,103,1526050144
11011,25,Jits_Pract_5,2,5,80,127,1526053208
11011,25,Jits_Pract_5,0,5,56,103,1526469996
11011,25,Jits_Pract_5,1,5,63,98,1526480340
11011,25,Jits_Pract_5,2,5,80,127,1526520276
11011,25,Jits_Pract_5,0,5,56,103,1526959468
11011,25,Jits_Pract_5,1,5,63,98,1526962536
11011,25,Jits_Pract_5,2,5,80,127,1526979928
11011,25,Jits_Pract_5,0,9999,9999,9999,1520247872
11011,25,Jits_Pract_5,1,9999,9999,9999,1520747596
11011,25,Jits_Pract_5,2,9999,9999,9999,1521247340
11011,25,Jits_Pract_5,3,9999,9999,9999,1521748056
11011,25,Jits_Pract_5,4,9999,9999,9999,1522247788
11011,25,Jits_Pract_5,5,9999,9999,9999,1522747460
11011,25,Jits_Pract_5,6,9999,9999,9999,1523247192
11011,25,Jits_Pract_5,7,9999,9999,9999,1523747956
11011,25,Jits_Pract_5,8,9999,9999,9999,1524247624
11011,25,Jits_Pract_5,9,9999,9999,9999,1524747368
11011,25,Jits_Pract_5,10,9999,9999,9999,1525248080
11011,25,Jits_Pract_5,11,9999,9999,9999,1525758064
11011,25,Jits_Pract_5,12,9999,9999,9999,1526257788
11011,25,Jits_Pract_5,13,9999,9999,9999,1526757440
11011,25,Jits_Pract_5,14,9999,9999,9999,1527257172
11012,25,Jits_Pract_5,0,5,56,103,1585468624
11012,25,Jits_Pract_5,1,5,63,98,1585471952
11012,25,Jits_Pract_5,2,5,80,127,1585475072
11012,25,Jits_Pract_5,0,5,56,103,1585968508
11012,25,Jits_Pract_5,1,5,63,98,1585971452
11012,25,Jits_Pract_5,2,5,80,127,1585974652
11012,25,Jits_Pract_5,0,1,48,48,1586436112
11012,25,Jits_Pract_5,1,5,56,103,1586469484
11012,25,Jits_Pract_5,2,5,80,127,1586478436
11012,25,Jits_Pract_5,3,5,63,98,1586498896
11012,25,Jits_Pract_5,0,5,63,98,1586918764
11012,25,Jits_Pract_5,1,5,80,127,1586948588
11012,25,Jits_Pract_5,2,5,56,103,1586958636
11012,25,Jits_Pract_5,3,1,48,52,1586977716
11012,25,Jits_Pract_5,0,1,48,52,1587468248
11012,25,Jits_Pract_5,1,5,80,127,1587478836
11012,25,Jits_Pract_5,2,5,56,103,1587489256
11012,25,Jits_Pract_5,3,5,63,98,1587518804
11012,25,Jits_Pract_5,0,5,63,98,1587969544
11012,25,Jits_Pract_5,1,5,56,103,1587999144
11012,25,Jits_Pract_5,2,5,80,127,1588009268
11012,25,Jits_Pract_5,3,1,48,54,1588012560
11012,25,Jits_Pract_5,0,5,56,103,1588418892
11012,25,Jits_Pract_5,1,5,63,98,1588469316
11012,25,Jits_Pract_5,2,5,80,127,1588488504
11012,25,Jits_Pract_5,3,1,48,52,1588516856
11012,25,Jits_Pract_5,0,5,80,127,1588918744
11012,25,Jits_Pract_5,1,5,63,98,1588968724
11012,25,Jits_Pract_5,2,1,48,54,1588978068
11012,25,Jits_Pract_5,3,5,56,103,1589008728
11012,25,Jits_Pract_5,0,5,56,103,1589419572
11012,25,Jits_Pract_5,1,5,63,98,1589449100
11012,25,Jits_Pract_5,2,1,48,57,1589505624
11012,25,Jits_Pract_5,3,5,80,127,1589518772
11012,25,Jits_Pract_5,0,5,56,103,1589919424
11012,25,Jits_Pract_5,1,5,80,127,1589978400
11012,25,Jits_Pract_5,2,1,48,53,1589984584
11012,25,Jits_Pract_5,3,5,63,98,1590009412
11012,25,Jits_Pract_5,0,5,56,103,1590429100
11012,25,Jits_Pract_5,1,5,63,98,1590439296
11012,25,Jits_Pract_5,2,1,48,56,1590460920
11012,25,Jits_Pract_5,3,5,80,127,1590479376
11012,25,Jits_Pract_5,0,5,63,98,1590918468
11012,25,Jits_Pract_5,1,1,48,57,1590925548
11012,25,Jits_Pract_5,2,5,80,127,1590999380
11012,25,Jits_Pract_5,3,5,56,103,1591008600
11012,25,Jits_Pract_5,0,1,48,58,1591460528
11012,25,Jits_Pract_5,1,5,63,98,1591469472
11012,25,Jits_Pract_5,2,5,56,103,1591509408
11012,25,Jits_Pract_5,3,5,80,127,1591512624
11012,25,Jits_Pract_5,0,5,56,103,1591929308
11012,25,Jits_Pract_5,1,5,63,98,1591938384
11012,25,Jits_Pract_5,2,5,80,127,1591979592
11012,25,Jits_Pract_5,3,1,48,57,1591994616
11012,25,Jits_Pract_5,0,5,56,103,1592418596
11012,25,Jits_Pract_5,1,5,63,98,1592421664
11012,25,Jits_Pract_5,2,5,80,127,1592439280
11012,25,Jits_Pract_5,3,1,48,55,1592444492
11012,25,Jits_Pract_5,0,9999,9999,9999,1585716292
11012,25,Jits_Pract_5,1,9999,9999,9999,1586217040
11012,25,Jits_Pract_5,2,9999,9999,9999,1586716760
11012,25,Jits_Pract_5,3,9999,9999,9999,1587216452
11012,25,Jits_Pract_5,4,9999,9999,9999,1587716148
11012,25,Jits_Pract_5,5,9999,9999,9999,1588216888
11012,25,Jits_Pract_5,6,9999,9999,9999,1588716652
11012,25,Jits_Pract_5,7,9999,9999,9999,1589216360
11012,25,Jits_Pract_5,8,9999,9999,9999,1589717112
11012,25,Jits_Pract_5,9,9999,9999,9999,1590216820
11012,25,Jits_Pract_5,10,9999,9999,9999,1590716524
11012,25,Jits_Pract_5,11,9999,9999,9999,1591216232
11012,25,Jits_Pract_5,12,9999,9999,9999,1591716964
11012,25,Jits_Pract_5,13,9999,9999,9999,1592216656
11012,25,Jits_Pract_5,14,9999,9999,9999,1592716348
11013,24,Jits_Pract_8,0,5,56,103,1601332540
11013,24,Jits_Pract_8,1,5,63,98,1601335936
11013,24,Jits_Pract_8,2,5,80,127,1601339060
11013,24,Jits_Pract_8,0,1,48,40,1601963784
11013,24,Jits_Pract_8,1,1,48,23,1602079508
11013,24,Jits_Pract_8,2,5,56,103,1602133272
11013,24,Jits_Pract_8,3,5,63,98,1602136444
11013,24,Jits_Pract_8,4,5,80,127,1602139644
11013,24,Jits_Pract_8,0,1,48,47,1602856980
11013,24,Jits_Pract_8,1,5,80,127,1602872620
11013,24,Jits_Pract_8,2,5,63,98,1602962812
11013,24,Jits_Pract_8,3,5,56,103,1602973380
11013,24,Jits_Pract_8,0,5,56,103,1603693060
11013,24,Jits_Pract_8,1,1,48,46,1603695732
11013,24,Jits_Pract_8,2,5,63,98,1603703320
11013,24,Jits_Pract_8,3,5,80,127,1603793288
11013,24,Jits_Pract_8,0,5,63,98,1604463224
11013,24,Jits_Pract_8,1,5,80,127,1604492676
11013,24,Jits_Pract_8,2,1,48,46,1604509200
11013,24,Jits_Pract_8,3,5,56,103,1604523392
11013,24,Jits_Pract_8,0,1,48,51,1605258144
11013,24,Jits_Pract_8,1,5,56,103,1605262972
11013,24,Jits_Pract_8,2,5,80,127,1605363204
11013,24,Jits_Pract_8,3,5,63,98,1605413332
11013,24,Jits_Pract_8,0,1,48,52,1606057604
11013,24,Jits_Pract_8,1,5,56,103,1606062432
11013,24,Jits_Pract_8,2,5,80,127,1606112560
11013,24,Jits_Pract_8,3,5,63,98,1606152496
11013,24,Jits_Pract_8,0,1,48,51,1606864256
11013,24,Jits_Pract_8,1,5,80,127,1606893124
11013,24,Jits_Pract_8,2,5,63,98,1606922652
11013,24,Jits_Pract_8,3,5,56,103,1606993236
11013,24,Jits_Pract_8,0,1,48,52,1607702224
11013,24,Jits_Pract_8,1,5,63,98,1607723548
11013,24,Jits_Pract_8,2,5,56,103,1607753148
11013,24,Jits_Pract_8,3,5,80,127,1607812328
11013,24,Jits_Pract_8,0,5,56,103,1608462824
11013,24,Jits_Pract_8,1,5,80,127,1608465816
11013,24,Jits_Pract_8,2,1,48,55,1608533696
11013,24,Jits_Pract_8,3,5,63,98,1608582492
11013,24,Jits_Pract_8,0,1,48,53,1609267888
11013,24,Jits_Pract_8,1,5,56,103,1609343292
11013,24,Jits_Pract_8,2,5,80,127,1609383216
11013,24,Jits_Pract_8,3,5,63,98,1609392440
11013,24,Jits_Pract_8,0,5,56,103,1610103200
11013,24,Jits_Pract_8,1,1,48,50,1610112620
11013,24,Jits_Pract_8,2,5,80,127,1610122460
11013,24,Jits_Pract_8,3,5,63,98,1610202476
11013,24,Jits_Pract_8,0,5,80,127,1610892780
11013,24,Jits_Pract_8,1,1,48,50,1610899712
11013,24,Jits_Pract_8,2,5,56,103,1610992944
11013,24,Jits_Pract_8,3,5,63,98,1611003200
11013,24,Jits_Pract_8,0,5,63,98,1611662660
11013,24,Jits_Pract_8,1,5,80,127,1611723204
11013,24,Jits_Pract_8,2,5,56,103,1611733248
11013,24,Jits_Pract_8,3,1,48,54,1611734736
11013,24,Jits_Pract_8,0,5,56,103,1612462416
11013,24,Jits_Pract_8,1,1,48,50,1612482392
11013,24,Jits_Pract_8,2,5,63,98,1612533060
11013,24,Jits_Pract_8,3,5,80,127,1612536348
11013,24,Jits_Pract_8,0,9999,9999,9999,1601730624
11013,24,Jits_Pract_8,1,9999,9999,9999,1602530368
11013,24,Jits_Pract_8,2,9999,9999,9999,1603330104
11013,24,Jits_Pract_8,3,9999,9999,9999,1604130904
11013,24,Jits_Pract_8,4,9999,9999,9999,1604930616
11013,24,Jits_Pract_8,5,9999,9999,9999,1605730376
11013,24,Jits_Pract_8,6,9999,9999,9999,1606530128
11013,24,Jits_Pract_8,7,9999,9999,9999,1607330928
11013,24,Jits_Pract_8,8,9999,9999,9999,1608130612
11013,24,Jits_Pract_8,9,9999,9999,9999,1608930356
11013,24,Jits_Pract_8,10,9999,9999,9999,1609730132
11013,24,Jits_Pract_8,11,9999,9999,9999,1610530936
11013,24,Jits_Pract_8,12,9999,9999,9999,1611330656
11013,24,Jits_Pract_8,13,9999,9999,9999,1612130424
11013,24,Jits_Pract_8,14,9999,9999,9999,1612930168
11014,17,Jits_Phase_5,0,5,56,103,1642337648
11014,17,Jits_Phase_5,1,5,63,98,1642340668
11014,17,Jits_Phase_5,2,5,80,127,1642343868
11014,17,Jits_Phase_5,0,5,56,103,1642838328
11014,17,Jits_Phase_5,1,5,63,98,1642841500
11014,17,Jits_Phase_5,2,5,80,127,1642844472
11014,17,Jits_Phase_5,3,1,48,43,1643021012
11014,17,Jits_Phase_5,0,5,56,103,1643338012
11014,17,Jits_Phase_5,1,5,80,127,1643348508
11014,17,Jits_Phase_5,2,5,63,98,1643367696
11014,17,Jits_Phase_5,3,1,48,39,1643397784
11014,17,Jits_Phase_5,0,5,63,98,1643787632
11014,17,Jits_Phase_5,1,5,80,127,1643818452
11014,17,Jits_Phase_5,2,5,56,103,1643827524
11014,17,Jits_Phase_5,3,1,48,43,1643850196
11014,17,Jits_Phase_5,0,1,48,46,1644311688
11014,17,Jits_Phase_5,1,5,80,127,1644347704
11014,17,Jits_Phase_5,2,5,56,103,1644358196
11014,17,Jits_Phase_5,3,5,63,98,1644387572
11014,17,Jits_Phase_5,0,5,63,98,1644838368
11014,17,Jits_Phase_5,1,1,48,45,1644856728
11014,17,Jits_Phase_5,2,5,56,103,1644867840
11014,17,Jits_Phase_5,3,5,80,127,1644878480
11014,17,Jits_Phase_5,0,5,56,103,1645287852
11014,17,Jits_Phase_5,1,5,63,98,1645337904
11014,17,Jits_Phase_5,2,5,80,127,1645357636
11014,17,Jits_Phase_5,3,1,48,49,1645365016
11014,17,Jits_Phase_5,0,5,80,127,1645787536
11014,17,Jits_Phase_5,1,1,48,50,1645836604
11014,17,Jits_Phase_5,2,5,63,98,1645838176
11014,17,Jits_Phase_5,3,5,56,103,1645877468
11014,17,Jits_Phase_5,0,5,56,103,1646288344
11014,17,Jits_Phase_5,1,5,63,98,1646317796
11014,17,Jits_Phase_5,2,1,48,50,1646335588
11014,17,Jits_Phase_5,3,5,80,127,1646387492
11014,17,Jits_Phase_5,0,5,56,103,1646787956
11014,17,Jits_Phase_5,1,1,48,46,1646819168
11014,17,Jits_Phase_5,2,5,80,127,1646848564
11014,17,Jits_Phase_5,3,5,63,98,1646878012
11014,17,Jits_Phase_5,0,5,56,103,1647297908
11014,17,Jits_Phase_5,1,5,63,98,1647308400
11014,17,Jits_Phase_5,2,1,48,51,1647345752
11014,17,Jits_Phase_5,3,5,80,127,1647348256
11014,17,Jits_Phase_5,0,5,63,98,1647788452
11014,17,Jits_Phase_5,1,1,48,50,1647823704
11014,17,Jits_Phase_5,2,5,80,127,1647868460
11014,17,Jits_Phase_5,3,5,56,103,1647877536
11014,17,Jits_Phase_5,0,1,48,51,1648335360
11014,17,Jits_Phase_5,1,5,63,98,1648347536
11014,17,Jits_Phase_5,2,5,56,103,1648387396
11014,17,Jits_Phase_5,3,5,80,127,1648390464
11014,17,Jits_Phase_5,0,5,56,103,1648808472
11014,17,Jits_Phase_5,1,5,63,98,1648817548
11014,17,Jits_Phase_5,2,1,48,52,1648855288
11014,17,Jits_Phase_5,3,5,80,127,1648857400
11014,17,Jits_Phase_5,0,5,56,103,1649297660
11014,17,Jits_Phase_5,1,5,63,98,1649300808
11014,17,Jits_Phase_5,2,1,48,51,1649311196
11014,17,Jits_Phase_5,3,5,80,127,1649318488
11014,17,Jits_Phase_5,0,1,48,50,1649787568
11014,17,Jits_Phase_5,1,5,80,127,1649807672
11014,17,Jits_Phase_5,2,5,56,103,1649817944
11014,17,Jits_Phase_5,3,5,63,98,1649887528
11014,17,Jits_Phase_5,0,5,63,98,1650298356
11014,17,Jits_Phase_5,1,1,48,51,1650302524
11014,17,Jits_Phase_5,2,5,56,103,1650317540
11014,17,Jits_Phase_5,3,5,80,127,1650397612
11014,17,Jits_Phase_5,0,1,48,48,1650798372
11014,17,Jits_Phase_5,1,5,56,103,1650808436
11014,17,Jits_Phase_5,2,5,80,127,1650848300
11014,17,Jits_Phase_5,3,5,63,98,1650858344
11014,17,Jits_Phase_5,0,5,80,127,1651297632
11014,17,Jits_Phase_5,1,1,48,50,1651300148
11014,17,Jits_Phase_5,2,5,63,98,1651328572
11014,17,Jits_Phase_5,3,5,56,103,1651368504
11014,17,Jits_Phase_5,0,1,48,50,1651790316
11014,17,Jits_Phase_5,1,5,56,103,1651817836
11014,17,Jits_Phase_5,2,5,63,98,1651847512
11014,17,Jits_Phase_5,3,5,80,127,1651897772
11014,17,Jits_Phase_5,0,1,48,51,1652289016
11014,17,Jits_Phase_5,1,5,80,127,1652327776
11014,17,Jits_Phase_5,2,5,56,103,1652367716
11014,17,Jits_Phase_5,3,5,63,98,1652377912
11014,17,Jits_Phase_5,0,1,48,50,1652797760
11014,17,Jits_Phase_5,1,5,80,127,1652808344
11014,17,Jits_Phase_5,2,5,63,98,1652848208
11014,17,Jits_Phase_5,3,5,56,103,1652908432
11014,17,Jits_Phase_5,0,1,48,50,1653303264
11014,17,Jits_Phase_5,1,5,56,103,1653307720
11014,17,Jits_Phase_5,2,5,80,127,1653318212
11014,17,Jits_Phase_5,3,5,63,98,1653397856
11014,17,Jits_Phase_5,0,1,48,50,1653789504
11014,17,Jits_Phase_5,1,5,80,127,1653807464
11014,17,Jits_Phase_5,2,5,63,98,1653867928
11014,17,Jits_Phase_5,3,5,56,103,1653897588
11014,17,Jits_Phase_5,0,1,48,50,1654308168
11014,17,Jits_Phase_5,1,5,56,103,1654309432
11014,17,Jits_Phase_5,2,5,80,127,1654367604
11014,17,Jits_Phase_5,3,5,63,98,1654407528
11014,17,Jits_Phase_5,0,1,48,46,1654811252
11014,17,Jits_Phase_5,1,5,56,103,1654858132
11014,17,Jits_Phase_5,2,5,63,98,1654868476
11014,17,Jits_Phase_5,3,5,80,127,1654871616
11014,17,Jits_Phase_5,0,5,80,127,1655307508
11014,17,Jits_Phase_5,1,1,48,48,1655331228
11014,17,Jits_Phase_5,2,5,63,98,1655397660
11014,17,Jits_Phase_5,3,5,56,103,1655407856
11014,17,Jits_Phase_5,0,5,56,103,1655808304
11014,17,Jits_Phase_5,1,5,63,98,1655811328
11014,17,Jits_Phase_5,2,5,80,127,1655814376
11014,17,Jits_Phase_5,3,1,48,49,1655815580
11014,17,Jits_Phase_5,0,1,48,49,1656267872
11014,17,Jits_Phase_5,1,5,80,127,1656327680
11014,17,Jits_Phase_5,2,5,63,98,1656377816
11014,17,Jits_Phase_5,3,5,56,103,1656408388
11014,17,Jits_Phase_5,0,1,48,48,1656774428
11014,17,Jits_Phase_5,1,5,56,103,1656807804
11014,17,Jits_Phase_5,2,5,80,127,1656818444
11014,17,Jits_Phase_5,3,5,63,98,1656887684
11014,17,Jits_Phase_5,0,1,48,48,1657270364
11014,17,Jits_Phase_5,1,5,56,103,1657317664
11014,17,Jits_Phase_5,2,5,63,98,1657338420
11014,17,Jits_Phase_5,3,5,80,127,1657397472
11014,17,Jits_Phase_5,0,5,80,127,1657797944
11014,17,Jits_Phase_5,1,1,48,50,1657800608
11014,17,Jits_Phase_5,2,5,63,98,1657867616
11014,17,Jits_Phase_5,3,5,56,103,1657888372
11014,17,Jits_Phase_5,0,5,80,127,1658318384
11014,17,Jits_Phase_5,1,5,56,103,1658328652
11014,17,Jits_Phase_5,2,1,48,50,1658331252
11014,17,Jits_Phase_5,3,5,63,98,1658337648
11014,17,Jits_Phase_5,0,5,80,127,1658807660
11014,17,Jits_Phase_5,1,1,48,49,1658810176
11014,17,Jits_Phase_5,2,5,56,103,1658828408
11014,17,Jits_Phase_5,3,5,63,98,1658897712
11014,17,Jits_Phase_5,0,5,56,103,1659317612
11014,17,Jits_Phase_5,1,1,48,50,1659345740
11014,17,Jits_Phase_5,2,5,80,127,1659348328
11014,17,Jits_Phase_5,3,5,63,98,1659367740
11014,17,Jits_Phase_5,0,5,63,98,1659808084
11014,17,Jits_Phase_5,1,1,48,51,1659829636
11014,17,Jits_Phase_5,2,5,56,103,1659867568
11014,17,Jits_Phase_5,3,5,80,127,1659898364
11014,17,Jits_Phase_5,0,5,63,98,1660297568
11014,17,Jits_Phase_5,1,5,80,127,1660300784
11014,17,Jits_Phase_5,2,1,48,48,1660335140
11014,17,Jits_Phase_5,3,5,56,103,1660387836
11014,17,Jits_Phase_5,0,5,56,103,1660817836
11014,17,Jits_Phase_5,1,1,48,43,1660828000
11014,17,Jits_Phase_5,2,5,63,98,1660847428
11014,17,Jits_Phase_5,3,5,80,127,1660888560
11014,17,Jits_Phase_5,0,5,63,98,1661317524
11014,17,Jits_Phase_5,1,1,48,48,1661347020
11014,17,Jits_Phase_5,2,5,56,103,1661357456
11014,17,Jits_Phase_5,3,5,80,127,1661377912
11014,17,Jits_Phase_5,0,5,63,98,1661827316
11014,17,Jits_Phase_5,1,1,48,47,1661843012
11014,17,Jits_Phase_5,2,5,56,103,1661868364
11014,17,Jits_Phase_5,3,5,80,127,1661877588
11014,17,Jits_Phase_5,0,5,80,127,1662307732
11014,17,Jits_Phase_5,1,1,48,43,1662348984
11014,17,Jits_Phase_5,2,5,63,98,1662378304
11014,17,Jits_Phase_5,3,5,56,103,1662397940
11014,17,Jits_Phase_5,0,5,56,103,1662798284
11014,17,Jits_Phase_5,1,5,80,127,1662817844
11014,17,Jits_Phase_5,2,5,63,98,1662857484
11014,17,Jits_Phase_5,3,1,48,41,1662873256
11014,17,Jits_Phase_5,0,5,63,98,1663308232
11014,17,Jits_Phase_5,1,5,80,127,1663327572
11014,17,Jits_Phase_5,2,1,48,43,1663338036
11014,17,Jits_Phase_5,3,5,56,103,1663367424
11014,17,Jits_Phase_5,0,5,63,98,1663807980
11014,17,Jits_Phase_5,1,1,48,45,1663825928
11014,17,Jits_Phase_5,2,5,56,103,1663828360
11014,17,Jits_Phase_5,3,5,80,127,1663837508
11014,17,Jits_Phase_5,0,5,80,127,1664307432
11014,17,Jits_Phase_5,1,1,48,48,1664317296
11014,17,Jits_Phase_5,2,5,56,103,1664328332
11014,17,Jits_Phase_5,3,5,63,98,1664357632
11014,17,Jits_Phase_5,0,1,48,50,1664814564
11014,17,Jits_Phase_5,1,5,56,103,1664878128
11014,17,Jits_Phase_5,2,5,80,127,1664880972
11014,17,Jits_Phase_5,3,5,63,98,1664898364
11014,17,Jits_Phase_5,0,5,63,98,1665297696
11014,17,Jits_Phase_5,1,5,56,103,1665327468
11014,17,Jits_Phase_5,2,1,48,45,1665351260
11014,17,Jits_Phase_5,3,5,80,127,1665387996
11014,17,Jits_Phase_5,0,1,48,47,1665812308
11014,17,Jits_Phase_5,1,5,63,98,1665878296
11014,17,Jits_Phase_5,2,5,56,103,1665887520
11014,17,Jits_Phase_5,3,5,80,127,1665897940
11014,17,Jits_Phase_5,0,1,48,47,1666322328
11014,17,Jits_Phase_5,1,5,56,103,1666338392
11014,17,Jits_Phase_5,2,5,80,127,1666368020
11014,17,Jits_Phase_5,3,5,63,98,1666378292
11014,17,Jits_Phase_5,0,1,48,45,1666810176
11014,17,Jits_Phase_5,1,5,63,98,1666877956
11014,17,Jits_Phase_5,2,5,56,103,1666888152
11014,17,Jits_Phase_5,3,5,80,127,1666907412
11014,17,Jits_Phase_5,0,5,56,103,1667308008
11014,17,Jits_Phase_5,1,1,48,44,1667364760
11014,17,Jits_Phase_5,2,5,63,98,1667368488
11014,17,Jits_Phase_5,3,5,80,127,1667371556
11014,17,Jits_Phase_5,0,1,48,49,1667828212
11014,17,Jits_Phase_5,1,5,80,127,1667829472
11014,17,Jits_Phase_5,2,5,56,103,1667838252
11014,17,Jits_Phase_5,3,5,63,98,1667908100
11014,17,Jits_Phase_5,0,5,80,127,1668317624
11014,17,Jits_Phase_5,1,1,48,48,1668341944
11014,17,Jits_Phase_5,2,5,56,103,1668388196
11014,17,Jits_Phase_5,3,5,63,98,1668397368
11014,17,Jits_Phase_5,0,1,48,43,1668842900
11014,17,Jits_Phase_5,1,5,63,98,1668858216
11014,17,Jits_Phase_5,2,5,56,103,1668867368
11014,17,Jits_Phase_5,3,5,80,127,1668888048
11014,17,Jits_Phase_5,0,5,80,127,1669307776
11014,17,Jits_Phase_5,1,1,48,47,1669336820
11014,17,Jits_Phase_5,2,5,63,98,1669368160
11014,17,Jits_Phase_5,3,5,56,103,1669408244
11014,17,Jits_Phase_5,0,1,48,43,1669838528
11014,17,Jits_Phase_5,1,5,56,103,1669848444
11014,17,Jits_Phase_5,2,5,63,98,1669857664
11014,17,Jits_Phase_5,3,5,80,127,1669897600
11014,17,Jits_Phase_5,0,5,56,103,1670308116
11014,17,Jits_Phase_5,1,1,48,47,1670333484
11014,17,Jits_Phase_5,2,5,80,127,1670338084
11014,17,Jits_Phase_5,3,5,63,98,1670388060
11014,17,Jits_Phase_5,0,1,48,46,1670833464
11014,17,Jits_Phase_5,1,5,56,103,1670848176
11014,17,Jits_Phase_5,2,5,63,98,1670887964
11014,17,Jits_Phase_5,3,5,80,127,1670891180
11014,17,Jits_Phase_5,0,1,48,48,1671336144
11014,17,Jits_Phase_5,1,5,56,103,1671347772
11014,17,Jits_Phase_5,2,5,63,98,1671358044
11014,17,Jits_Phase_5,3,5,80,127,1671378204
11014,17,Jits_Phase_5,0,5,56,103,1671808492
11014,17,Jits_Phase_5,1,5,80,127,1671811484
11014,17,Jits_Phase_5,2,1,48,43,1671840228
11014,17,Jits_Phase_5,3,5,63,98,1671848272
11014,17,Jits_Phase_5,0,1,48,44,1672308732
11014,17,Jits_Phase_5,1,5,63,98,1672348168
11014,17,Jits_Phase_5,2,5,56,103,1672377768
11014,17,Jits_Phase_5,3,5,80,127,1672398152
11014,17,Jits_Phase_5,0,5,80,127,1672818036
11014,17,Jits_Phase_5,1,5,56,103,1672828232
11014,17,Jits_Phase_5,2,1,48,47,1672830752
11014,17,Jits_Phase_5,3,5,63,98,1672837524
11014,17,Jits_Phase_5,0,5,56,103,1673317868
11014,17,Jits_Phase_5,1,1,48,43,1673324580
11014,17,Jits_Phase_5,2,5,80,127,1673357724
11014,17,Jits_Phase_5,3,5,63,98,1673388372
11014,17,Jits_Phase_5,0,5,63,98,1673827600
11014,17,Jits_Phase_5,1,1,48,45,1673836048
11014,17,Jits_Phase_5,2,5,80,127,1673838008
11014,17,Jits_Phase_5,3,5,56,103,1673848352
11014,17,Jits_Phase_5,0,5,56,103,1674318052
11014,17,Jits_Phase_5,1,1,48,45,1674332780
11014,17,Jits_Phase_5,2,5,63,98,1674387952
11014,17,Jits_Phase_5,3,5,80,127,1674397996
11014,17,Jits_Phase_5,0,5,80,127,1674828152
11014,17,Jits_Phase_5,1,5,56,103,1674838276
11014,17,Jits_Phase_5,2,1,48,44,1674848140
11014,17,Jits_Phase_5,3,5,63,98,1674887496
11014,17,Jits_Phase_5,0,5,80,127,1675338104
11014,17,Jits_Phase_5,1,1,48,47,1675352388
11014,17,Jits_Phase_5,2,5,56,103,1675397440
11014,17,Jits_Phase_5,3,5,63,98,1675428236
11014,17,Jits_Phase_5,0,1,48,49,1675837564
11014,17,Jits_Phase_5,1,5,56,103,1675839080
11014,17,Jits_Phase_5,2,5,80,127,1675841752
11014,17,Jits_Phase_5,3,5,63,98,1675877872
11014,17,Jits_Phase_5,0,1,48,45,1676317704
11014,17,Jits_Phase_5,1,5,56,103,1676368168
11014,17,Jits_Phase_5,2,5,63,98,1676397992
11014,17,Jits_Phase_5,3,5,80,127,1676408112
11014,17,Jits_Phase_5,0,1,48,48,1676812872
11014,17,Jits_Phase_5,1,5,63,98,1676878112
11014,17,Jits_Phase_5,2,5,80,127,1676888380
11014,17,Jits_Phase_5,3,5,56,103,1676897528
11014,17,Jits_Phase_5,0,5,80,127,1677327944
11014,17,Jits_Phase_5,1,1,48,48,1677334424
11014,17,Jits_Phase_5,2,5,56,103,1677377864
11014,17,Jits_Phase_5,3,5,63,98,1677381076
11014,17,Jits_Phase_5,0,5,56,103,1677858112
11014,17,Jits_Phase_5,1,1,48,43,1677862872
11014,17,Jits_Phase_5,2,5,80,127,1677877616
11014,17,Jits_Phase_5,3,5,63,98,1677887960
11014,17,Jits_Phase_5,0,5,63,98,1678338396
11014,17,Jits_Phase_5,1,1,48,44,1678342932
11014,17,Jits_Phase_5,2,5,56,103,1678368064
11014,17,Jits_Phase_5,3,5,80,127,1678387500
11014,17,Jits_Phase_5,0,1,48,46,1678839744
11014,17,Jits_Phase_5,1,5,56,103,1678848464
11014,17,Jits_Phase_5,2,5,80,127,1678857688
11014,17,Jits_Phase_5,3,5,63,98,1678928364
11014,17,Jits_Phase_5,0,5,63,98,1679337808
11014,17,Jits_Phase_5,1,1,48,48,1679369400
11014,17,Jits_Phase_5,2,5,80,127,1679377816
11014,17,Jits_Phase_5,3,5,56,103,1679417924
11014,17,Jits_Phase_5,0,5,56,103,1679847968
11014,17,Jits_Phase_5,1,1,48,43,1679850488
11014,17,Jits_Phase_5,2,5,63,98,1679858160
11014,17,Jits_Phase_5,3,5,80,127,1679877420
11014,17,Jits_Phase_5,0,1,48,38,1680344016
11014,17,Jits_Phase_5,1,5,63,98,1680387432
11014,17,Jits_Phase_5,2,5,80,127,1680407964
11014,17,Jits_Phase_5,3,5,56,103,1680428372
11014,17,Jits_Phase_5,0,5,56,103,1680827852
11014,17,Jits_Phase_5,1,1,48,41,1680859444
11014,17,Jits_Phase_5,2,5,80,127,1680907640
11014,17,Jits_Phase_5,3,5,63,98,1680918132
11014,17,Jits_Phase_5,0,1,48,39,1681352372
11014,17,Jits_Phase_5,1,5,80,127,1681368364
11014,17,Jits_Phase_5,2,5,63,98,1681377512
11014,17,Jits_Phase_5,3,5,56,103,1681408308
11014,17,Jits_Phase_5,0,5,63,98,1681828184
11014,17,Jits_Phase_5,1,1,48,43,1681855496
11014,17,Jits_Phase_5,2,5,80,127,1681868116
11014,17,Jits_Phase_5,3,5,56,103,1681927532
11014,17,Jits_Phase_5,0,1,48,37,1682337216
11014,17,Jits_Phase_5,1,5,63,98,1682338632
11014,17,Jits_Phase_5,2,5,56,103,1682388388
11014,17,Jits_Phase_5,3,5,80,127,1682418064
11014,17,Jits_Phase_5,0,5,80,127,1682837796
11014,17,Jits_Phase_5,1,5,63,98,1682848068
11014,17,Jits_Phase_5,2,1,48,49,1682858976
11014,17,Jits_Phase_5,3,5,56,103,1682917960
11014,17,Jits_Phase_5,0,1,48,49,1683369668
11014,17,Jits_Phase_5,1,5,80,127,1683397868
11014,17,Jits_Phase_5,2,5,56,103,1683408208
11014,17,Jits_Phase_5,3,5,63,98,1683411348
11014,17,Jits_Phase_5,0,5,56,103,1683838280
11014,17,Jits_Phase_5,1,5,80,127,1683858064
11014,17,Jits_Phase_5,2,5,63,98,1683867960
11014,17,Jits_Phase_5,3,1,48,48,1683885768
11014,17,Jits_Phase_5,0,1,48,46,1684336892
11014,17,Jits_Phase_5,1,5,63,98,1684348224
11014,17,Jits_Phase_5,2,5,56,103,1684388164
11014,17,Jits_Phase_5,3,5,80,127,1684407948
11014,17,Jits_Phase_5,0,1,48,44,1684846924
11014,17,Jits_Phase_5,1,5,63,98,1684848424
11014,17,Jits_Phase_5,2,5,56,103,1684908364
11014,17,Jits_Phase_5,3,5,80,127,1684911432
11014,17,Jits_Phase_5,0,5,56,103,1685307944
11014,17,Jits_Phase_5,1,5,80,127,1685328180
11014,17,Jits_Phase_5,2,5,63,98,1685368192
11014,17,Jits_Phase_5,3,1,48,46,1685378876
11014,17,Jits_Phase_5,0,1,48,45,1685823700
11014,17,Jits_Phase_5,1,5,56,103,1685838044
11014,17,Jits_Phase_5,2,5,63,98,1685857828
11014,17,Jits_Phase_5,3,5,80,127,1685868024
11014,17,Jits_Phase_5,0,1,48,50,1686307044
11014,17,Jits_Phase_5,1,5,80,127,1686308616
11014,17,Jits_Phase_5,2,5,56,103,1686337796
11014,17,Jits_Phase_5,3,5,63,98,1686378028
11014,17,Jits_Phase_5,0,1,48,42,1686804736
11014,17,Jits_Phase_5,1,5,80,127,1686818180
11014,17,Jits_Phase_5,2,5,56,103,1686837616
11014,17,Jits_Phase_5,3,5,63,98,1686898076
11014,17,Jits_Phase_5,0,1,48,42,1687321492
11014,17,Jits_Phase_5,1,5,56,103,1687328044
11014,17,Jits_Phase_5,2,5,80,127,1687347552
11014,17,Jits_Phase_5,3,5,63,98,1687408016
11014,17,Jits_Phase_5,0,5,80,127,1687808392
11014,17,Jits_Phase_5,1,5,56,103,1687817764
11014,17,Jits_Phase_5,2,1,48,41,1687855140
11014,17,Jits_Phase_5,3,5,63,98,1687857572
11014,17,Jits_Phase_5,0,5,63,98,1688308076
11014,17,Jits_Phase_5,1,1,48,40,1688329404
11014,17,Jits_Phase_5,2,5,56,103,1688348004
11014,17,Jits_Phase_5,3,5,80,127,1688351148
11014,17,Jits_Phase_5,0,1,48,40,1688797960
11014,17,Jits_Phase_5,1,5,63,98,1688828252
11014,17,Jits_Phase_5,2,5,80,127,1688868188
11014,17,Jits_Phase_5,3,5,56,103,1688898992
11014,17,Jits_Phase_5,0,1,48,42,1689316300
11014,17,Jits_Phase_5,1,5,56,103,1689317884
11014,17,Jits_Phase_5,2,5,63,98,1689328084
11014,17,Jits_Phase_5,3,5,80,127,1689357756
11014,17,Jits_Phase_5,0,5,80,127,1689808124
11014,17,Jits_Phase_5,1,1,48,45,1689820684
11014,17,Jits_Phase_5,2,5,63,98,1689878024
11014,17,Jits_Phase_5,3,5,56,103,1689888144
11014,17,Jits_Phase_5,0,5,63,98,1690307884
11014,17,Jits_Phase_5,1,1,48,41,1690347944
11014,17,Jits_Phase_5,2,5,56,103,1690377780
11014,17,Jits_Phase_5,3,5,80,127,1690387904
11014,17,Jits_Phase_5,0,5,63,98,1690788152
11014,17,Jits_Phase_5,1,5,56,103,1690807940
11014,17,Jits_Phase_5,2,1,48,45,1690837804
11014,17,Jits_Phase_5,3,5,80,127,1690847720
11014,17,Jits_Phase_5,0,5,56,103,1691267380
11014,17,Jits_Phase_5,1,5,63,98,1691277872
11014,17,Jits_Phase_5,2,1,48,46,1691312004
11014,17,Jits_Phase_5,3,5,80,127,1691357656
11014,17,Jits_Phase_5,0,5,63,98,1691758072
11014,17,Jits_Phase_5,1,5,56,103,1691787744
11014,17,Jits_Phase_5,2,1,48,48,1691814232
11014,17,Jits_Phase_5,3,5,80,127,1691827748
11014,17,Jits_Phase_5,0,5,56,103,1692257816
11014,17,Jits_Phase_5,1,1,48,51,1692284084
11014,17,Jits_Phase_5,2,5,63,98,1692297676
11014,17,Jits_Phase_5,3,5,80,127,1692337464
11014,17,Jits_Phase_5,0,5,80,127,1692758328
11014,17,Jits_Phase_5,1,1,48,44,1692777260
11014,17,Jits_Phase_5,2,5,56,103,1692838340
11014,17,Jits_Phase_5,3,5,63,98,1692847340
11014,17,Jits_Phase_5,0,1,48,47,1693261204
11014,17,Jits_Phase_5,1,5,56,103,1693308128
11014,17,Jits_Phase_5,2,5,63,98,1693311200
11014,17,Jits_Phase_5,3,5,80,127,1693317800
11014,17,Jits_Phase_5,0,1,48,47,1693760648
11014,17,Jits_Phase_5,1,5,56,103,1693827876
11014,17,Jits_Phase_5,2,5,63,98,1693847888
11014,17,Jits_Phase_5,3,5,80,127,1693858084
11014,17,Jits_Phase_5,0,5,63,98,1694288152
11014,17,Jits_Phase_5,1,5,80,127,1694297452
11014,17,Jits_Phase_5,2,1,48,47,1694298416
11014,17,Jits_Phase_5,3,5,56,103,1694318052
11014,17,Jits_Phase_5,0,5,63,98,1694787900
11014,17,Jits_Phase_5,1,1,48,41,1694801800
11014,17,Jits_Phase_5,2,5,56,103,1694867832
11014,17,Jits_Phase_5,3,5,80,127,1694870752
11014,17,Jits_Phase_5,0,5,63,98,1695287716
11014,17,Jits_Phase_5,1,5,56,103,1695308024
11014,17,Jits_Phase_5,2,1,48,47,1695315776
11014,17,Jits_Phase_5,3,5,80,127,1695337840
11014,17,Jits_Phase_5,0,5,56,103,1695788288
11014,17,Jits_Phase_5,1,5,63,98,1695807848
11014,17,Jits_Phase_5,2,5,80,127,1695818044
11014,17,Jits_Phase_5,3,1,48,40,1695822060
11014,17,Jits_Phase_5,0,1,48,44,1696299104
11014,17,Jits_Phase_5,1,5,56,103,1696317932
11014,17,Jits_Phase_5,2,5,63,98,1696347456
11014,17,Jits_Phase_5,3,5,80,127,1696350672
11014,17,Jits_Phase_5,0,5,56,103,1696768356
11014,17,Jits_Phase_5,1,1,48,46,1696805480
11014,17,Jits_Phase_5,2,5,63,98,1696808312
11014,17,Jits_Phase_5,3,5,80,127,1696867580
11014,17,Jits_Phase_5,0,1,48,46,1697285324
11014,17,Jits_Phase_5,1,5,56,103,1697287516
11014,17,Jits_Phase_5,2,5,63,98,1697297640
11014,17,Jits_Phase_5,3,5,80,127,1697358052
11014,17,Jits_Phase_5,0,1,48,47,1697774408
11014,17,Jits_Phase_5,1,5,56,103,1697788232
11014,17,Jits_Phase_5,2,5,80,127,1697807716
11014,17,Jits_Phase_5,3,5,63,98,1697837416
11014,17,Jits_Phase_5,0,1,48,46,1698272588
11014,17,Jits_Phase_5,1,5,80,127,1698287976
11014,17,Jits_Phase_5,2,5,56,103,1698298248
11014,17,Jits_Phase_5,3,5,63,98,1698317880
11014,17,Jits_Phase_5,0,1,48,44,1698772928
11014,17,Jits_Phase_5,1,5,63,98,1698777532
11014,17,Jits_Phase_5,2,5,80,127,1698858324
11014,17,Jits_Phase_5,3,5,56,103,1698867772
11014,17,Jits_Phase_5,0,1,48,47,1699287228
11014,17,Jits_Phase_5,1,5,80,127,1699368336
11014,17,Jits_Phase_5,2,5,56,103,1699387732
11014,17,Jits_Phase_5,3,5,63,98,1699390876
11014,17,Jits_Phase_5,0,1,48,43,1699776172
11014,17,Jits_Phase_5,1,5,63,98,1699857708
11014,17,Jits_Phase_5,2,5,80,127,1699860924
11014,17,Jits_Phase_5,3,5,56,103,1699918252
11014,17,Jits_Phase_5,0,1,48,48,1700304744
11014,17,Jits_Phase_5,1,5,56,103,1700338192
11014,17,Jits_Phase_5,2,5,80,127,1700348240
11014,17,Jits_Phase_5,3,5,63,98,1700388324
11014,17,Jits_Phase_5,0,1,48,46,1700783864
11014,17,Jits_Phase_5,1,5,56,103,1700818512
11014,17,Jits_Phase_5,2,5,63,98,1700877616
11014,17,Jits_Phase_5,3,5,80,127,1700887884
11014,17,Jits_Phase_5,0,1,48,42,1701305732
11014,17,Jits_Phase_5,1,5,63,98,1701328152
11014,17,Jits_Phase_5,2,5,80,127,1701368088
11014,17,Jits_Phase_5,3,5,56,103,1701408084
11014,17,Jits_Phase_5,0,5,56,103,1701827908
11014,17,Jits_Phase_5,1,1,48,45,1701838972
11014,17,Jits_Phase_5,2,5,63,98,1701907840
11014,17,Jits_Phase_5,3,5,80,127,1701911132
11014,17,Jits_Phase_5,0,1,48,43,1702342604
11014,17,Jits_Phase_5,1,5,80,127,1702387968
11014,17,Jits_Phase_5,2,5,56,103,1702417936
11014,17,Jits_Phase_5,3,5,63,98,1702421004
11014,17,Jits_Phase_5,0,5,56,103,1702847836
11014,17,Jits_Phase_5,1,1,48,47,1702860540
11014,17,Jits_Phase_5,2,5,80,127,1702868216
11014,17,Jits_Phase_5,3,5,63,98,1702908448
11014,17,Jits_Phase_5,0,5,80,127,1703327976
11014,17,Jits_Phase_5,1,5,63,98,1703347688
11014,17,Jits_Phase_5,2,1,48,44,1703375516
11014,17,Jits_Phase_5,3,5,56,103,1703407844
11014,17,Jits_Phase_5,0,5,63,98,1703838076
11014,17,Jits_Phase_5,1,5,56,103,1703848496
11014,17,Jits_Phase_5,2,1,48,46,1703849908
11014,17,Jits_Phase_5,3,5,80,127,1703897640
11014,17,Jits_Phase_5,0,5,56,103,1704327864
11014,17,Jits_Phase_5,1,1,48,47,1704343484
11014,17,Jits_Phase_5,2,5,63,98,1704348092
11014,17,Jits_Phase_5,3,5,80,127,1704358288
11014,17,Jits_Phase_5,0,5,56,103,1704818028
11014,17,Jits_Phase_5,1,5,63,98,1704820948
11014,17,Jits_Phase_5,2,1,48,44,1704828640
11014,17,Jits_Phase_5,3,5,80,127,1704837804
11014,17,Jits_Phase_5,0,1,48,50,1705344408
11014,17,Jits_Phase_5,1,5,63,98,1705357776
11014,17,Jits_Phase_5,2,5,56,103,1705388500
11014,17,Jits_Phase_5,3,5,80,127,1705417948
11014,17,Jits_Phase_5,0,5,80,127,1705817528
11014,17,Jits_Phase_5,1,1,48,48,1705854128
11014,17,Jits_Phase_5,2,5,56,103,1705907724
11014,17,Jits_Phase_5,3,5,63,98,1705910792
11014,17,Jits_Phase_5,0,5,56,103,1706318252
11014,17,Jits_Phase_5,1,5,80,127,1706321244
11014,17,Jits_Phase_5,2,1,48,49,1706335148
11014,17,Jits_Phase_5,3,5,63,98,1706397964
11014,17,Jits_Phase_5,0,1,48,45,1706801784
11014,17,Jits_Phase_5,1,5,80,127,1706817776
11014,17,Jits_Phase_5,2,5,63,98,1706878460
11014,17,Jits_Phase_5,3,5,56,103,1706908048
11014,17,Jits_Phase_5,0,5,63,98,1707317608
11014,17,Jits_Phase_5,1,5,80,127,1707327804
11014,17,Jits_Phase_5,2,1,48,50,1707333460
11014,17,Jits_Phase_5,3,5,56,103,1707397696
11014,17,Jits_Phase_5,0,1,48,49,1707844208
11014,17,Jits_Phase_5,1,5,56,103,1707877808
11014,17,Jits_Phase_5,2,5,80,127,1707907632
11014,17,Jits_Phase_5,3,5,63,98,1707957668
11014,17,Jits_Phase_5,0,1,48,50,1708374072
11014,17,Jits_Phase_5,1,5,63,98,1708467680
11014,17,Jits_Phase_5,2,5,56,103,1708498532
11014,17,Jits_Phase_5,3,5,80,127,1708501524
11014,17,Jits_Phase_5,0,1,48,48,1708921836
11014,17,Jits_Phase_5,1,5,63,98,1708968396
11014,17,Jits_Phase_5,2,5,80,127,1708987656
11014,17,Jits_Phase_5,3,5,56,103,1708997928
11014,17,Jits_Phase_5,0,1,48,50,1709454248
11014,17,Jits_Phase_5,1,5,56,103,1709478104
11014,17,Jits_Phase_5,2,5,63,98,1709481324
11014,17,Jits_Phase_5,3,5,80,127,1709497816
11014,17,Jits_Phase_5,0,5,56,103,1709927664
11014,17,Jits_Phase_5,1,5,63,98,1709937936
11014,17,Jits_Phase_5,2,1,48,49,1709958060
11014,17,Jits_Phase_5,3,5,80,127,1709967748
11014,17,Jits_Phase_5,0,1,48,47,1710418028
11014,17,Jits_Phase_5,1,5,63,98,1710447872
11014,17,Jits_Phase_5,2,5,80,127,1710467652
11014,17,Jits_Phase_5,3,5,56,103,1710508560
11014,17,Jits_Phase_5,0,1,48,44,1710934620
11014,17,Jits_Phase_5,1,5,56,103,1710978408
11014,17,Jits_Phase_5,2,5,63,98,1711018416
11014,17,Jits_Phase_5,3,5,80,127,1711021560
11014,17,Jits_Phase_5,0,5,80,127,1711417852
11014,17,Jits_Phase_5,1,5,56,103,1711457788
11014,17,Jits_Phase_5,2,1,48,46,1711481884
11014,17,Jits_Phase_5,3,5,63,98,1711507908
11014,17,Jits_Phase_5,0,1,48,45,1711951892
11014,17,Jits_Phase_5,1,5,56,103,1711977768
11014,17,Jits_Phase_5,2,5,80,127,1711988040
11014,17,Jits_Phase_5,3,5,63,98,1712017712
11014,17,Jits_Phase_5,0,5,56,103,1712428604
11014,17,Jits_Phase_5,1,1,48,49,1712444976
11014,17,Jits_Phase_5,2,5,80,127,1712468460
11014,17,Jits_Phase_5,3,5,63,98,1712517464
11014,17,Jits_Phase_5,0,1,48,44,1712901192
11014,17,Jits_Phase_5,1,5,56,103,1712928040
11014,17,Jits_Phase_5,2,5,80,127,1712968076
11014,17,Jits_Phase_5,3,5,63,98,1713018112
11014,17,Jits_Phase_5,0,5,80,127,1713417532
11014,17,Jits_Phase_5,1,1,48,44,1713431664
11014,17,Jits_Phase_5,2,5,63,98,1713497564
11014,17,Jits_Phase_5,3,5,56,103,1713507612
11014,17,Jits_Phase_5,0,1,48,50,1713939436
11014,17,Jits_Phase_5,1,5,80,127,1713967584
11014,17,Jits_Phase_5,2,5,56,103,1713977704
11014,17,Jits_Phase_5,3,5,63,98,1713998164
11014,17,Jits_Phase_5,0,5,63,98,1714437352
11014,17,Jits_Phase_5,1,1,48,49,1714442860
11014,17,Jits_Phase_5,2,5,56,103,1714508392
11014,17,Jits_Phase_5,3,5,80,127,1714511088
11014,17,Jits_Phase_5,0,5,80,127,1714927944
11014,17,Jits_Phase_5,1,1,48,49,1714960280
11014,17,Jits_Phase_5,2,5,63,98,1714978288
11014,17,Jits_Phase_5,3,5,56,103,1715018024
11014,17,Jits_Phase_5,0,1,48,49,1715440788
11014,17,Jits_Phase_5,1,5,63,98,1715467564
11014,17,Jits_Phase_5,2,5,56,103,1715507672
11014,17,Jits_Phase_5,3,5,80,127,1715517796
11014,17,Jits_Phase_5,0,1,48,42,1715952972
11014,17,Jits_Phase_5,1,5,63,98,1715958320
11014,17,Jits_Phase_5,2,5,56,103,1715977660
11014,17,Jits_Phase_5,3,5,80,127,1715998340
11014,17,Jits_Phase_5,0,5,80,127,1716417996
11014,17,Jits_Phase_5,1,5,56,103,1716428340
11014,17,Jits_Phase_5,2,5,63,98,1716447604
11014,17,Jits_Phase_5,3,1,48,47,1716454464
11014,17,Jits_Phase_5,0,1,48,51,1716937576
11014,17,Jits_Phase_5,1,5,63,98,1716948612
11014,17,Jits_Phase_5,2,5,56,103,1716988252
11014,17,Jits_Phase_5,3,5,80,127,1717018000
11014,17,Jits_Phase_5,0,5,56,103,1717408216
11014,17,Jits_Phase_5,1,5,63,98,1717437816
11014,17,Jits_Phase_5,2,1,48,47,1717447980
11014,17,Jits_Phase_5,3,5,80,127,1717467480
11014,17,Jits_Phase_5,0,5,80,127,1717827876
11014,17,Jits_Phase_5,1,5,56,103,1717897472
11014,17,Jits_Phase_5,2,5,63,98,1717900472
11014,17,Jits_Phase_5,3,1,48,47,1717925236
11014,17,Jits_Phase_5,0,5,56,103,1718337892
11014,17,Jits_Phase_5,1,5,63,98,1718387944
11014,17,Jits_Phase_5,2,5,80,127,1718417692
11014,17,Jits_Phase_5,3,1,48,49,1718426432
11014,17,Jits_Phase_5,0,5,63,98,1718818376
11014,17,Jits_Phase_5,1,5,80,127,1718821832
11014,17,Jits_Phase_5,2,5,56,103,1718877508
11014,17,Jits_Phase_5,3,1,48,48,1718898604
11014,17,Jits_Phase_5,0,5,56,103,1719347504
11014,17,Jits_Phase_5,1,5,80,127,1719357924
11014,17,Jits_Phase_5,2,1,48,48,1719368912
11014,17,Jits_Phase_5,3,5,63,98,1719408040
11014,17,Jits_Phase_5,0,5,63,98,1719817576
11014,17,Jits_Phase_5,1,5,56,103,1719827768
11014,17,Jits_Phase_5,2,5,80,127,1719857468
11014,17,Jits_Phase_5,3,1,48,48,1719869952
11014,17,Jits_Phase_5,0,1,48,42,1720341632
11014,17,Jits_Phase_5,1,5,63,98,1720347952
11014,17,Jits_Phase_5,2,5,80,127,1720351392
11014,17,Jits_Phase_5,3,5,56,103,1720377652
11014,17,Jits_Phase_5,0,1,48,43,1720841444
11014,17,Jits_Phase_5,1,5,63,98,1720868140
11014,17,Jits_Phase_5,2,5,56,103,1720887800
11014,17,Jits_Phase_5,3,5,80,127,1720890864
11014,17,Jits_Phase_5,0,5,63,98,1721328096
11014,17,Jits_Phase_5,1,1,48,43,1721342300
11014,17,Jits_Phase_5,2,5,56,103,1721397720
11014,17,Jits_Phase_5,3,5,80,127,1721418028
11014,17,Jits_Phase_5,0,5,56,103,1721817508
11014,17,Jits_Phase_5,1,5,63,98,1721827704
11014,17,Jits_Phase_5,2,1,48,48,1721863704
11014,17,Jits_Phase_5,3,5,80,127,1721917700
11014,17,Jits_Phase_5,0,5,56,103,1722337644
11014,17,Jits_Phase_5,1,5,80,127,1722377436
11014,17,Jits_Phase_5,2,5,63,98,1722387780
11014,17,Jits_Phase_5,3,1,48,46,1722388744
11014,17,Jits_Phase_5,0,5,56,103,1722857784
11014,17,Jits_Phase_5,1,5,63,98,1722887608
11014,17,Jits_Phase_5,2,1,48,45,1722904956
11014,17,Jits_Phase_5,3,5,80,127,1722918200
11014,17,Jits_Phase_5,0,5,80,127,1723317544
11014,17,Jits_Phase_5,1,5,63,98,1723357484
11014,17,Jits_Phase_5,2,5,56,103,1723378312
11014,17,Jits_Phase_5,3,1,48,44,1723385396
11014,17,Jits_Phase_5,0,1,48,49,1723849040
11014,17,Jits_Phase_5,1,5,56,103,1723858276
11014,17,Jits_Phase_5,2,5,80,127,1723877688
11014,17,Jits_Phase_5,3,5,63,98,1723898444
11014,17,Jits_Phase_5,0,5,63,98,1724328440
11014,17,Jits_Phase_5,1,5,56,103,1724337516
11014,17,Jits_Phase_5,2,1,48,51,1724344448
11014,17,Jits_Phase_5,3,5,80,127,1724397892
11014,17,Jits_Phase_5,0,1,48,46,1724822156
11014,17,Jits_Phase_5,1,5,56,103,1724828256
11014,17,Jits_Phase_5,2,5,63,98,1724897640
11014,17,Jits_Phase_5,3,5,80,127,1724918600
11014,17,Jits_Phase_5,0,1,48,42,1725325272
11014,17,Jits_Phase_5,1,5,56,103,1725327784
11014,17,Jits_Phase_5,2,5,63,98,1725357460
11014,17,Jits_Phase_5,3,5,80,127,1725398516
11014,17,Jits_Phase_5,0,1,48,50,1725794980
11014,17,Jits_Phase_5,1,5,63,98,1725818316
11014,17,Jits_Phase_5,2,5,56,103,1725868368
11014,17,Jits_Phase_5,3,5,80,127,1725877588
11014,17,Jits_Phase_5,0,1,48,46,1726293752
11014,17,Jits_Phase_5,1,5,56,103,1726357920
11014,17,Jits_Phase_5,2,5,63,98,1726408184
11014,17,Jits_Phase_5,3,5,80,127,1726418156
11014,17,Jits_Phase_5,0,5,56,103,1726827864
11014,17,Jits_Phase_5,1,5,63,98,1726838284
11014,17,Jits_Phase_5,2,1,48,45,1726850692
11014,17,Jits_Phase_5,3,5,80,127,1726918140
11014,17,Jits_Phase_5,0,9999,9999,9999,1642585152
11014,17,Jits_Phase_5,1,9999,9999,9999,1643085900
11014,17,Jits_Phase_5,2,9999,9999,9999,1643585648
11014,17,Jits_Phase_5,3,9999,9999,9999,1644085332
11014,17,Jits_Phase_5,4,9999,9999,9999,1644586056
11014,17,Jits_Phase_5,5,9999,9999,9999,1645085784
11014,17,Jits_Phase_5,6,9999,9999,9999,1645585532
11014,17,Jits_Phase_5,7,9999,9999,9999,1646085216
11014,17,Jits_Phase_5,8,9999,9999,9999,1646585952
11014,17,Jits_Phase_5,9,9999,9999,9999,1647085636
11014,17,Jits_Phase_5,10,9999,9999,9999,1647585396
11014,17,Jits_Phase_5,11,9999,9999,9999,1648086136
11014,17,Jits_Phase_5,12,9999,9999,9999,1648596068
11014,17,Jits_Phase_5,13,9999,9999,9999,1649095736
11014,17,Jits_Phase_5,14,9999,9999,9999,1649595484
11014,17,Jits_Phase_5,15,9999,9999,9999,1650095168
11014,17,Jits_Phase_5,16,9999,9999,9999,1650595960
11014,17,Jits_Phase_5,17,9999,9999,9999,1651095636
11014,17,Jits_Phase_5,18,9999,9999,9999,1651595384
11014,17,Jits_Phase_5,19,9999,9999,9999,1652096120
11014,17,Jits_Phase_5,20,9999,9999,9999,1652606060
11014,17,Jits_Phase_5,21,9999,9999,9999,1653105732
11014,17,Jits_Phase_5,22,9999,9999,9999,1653605480
11014,17,Jits_Phase_5,23,9999,9999,9999,1654105152
11014,17,Jits_Phase_5,24,9999,9999,9999,1654605952
11014,17,Jits_Phase_5,25,9999,9999,9999,1655105616
11014,17,Jits_Phase_5,26,9999,9999,9999,1655605368
11014,17,Jits_Phase_5,27,9999,9999,9999,1656106076
11014,17,Jits_Phase_5,28,9999,9999,9999,1656605816
11014,17,Jits_Phase_5,29,9999,9999,9999,1657105488
11014,17,Jits_Phase_5,30,9999,9999,9999,1657596024
11014,17,Jits_Phase_5,31,9999,9999,9999,1658095700
11014,17,Jits_Phase_5,32,9999,9999,9999,1658595388
11014,17,Jits_Phase_5,33,9999,9999,9999,1659095148
11014,17,Jits_Phase_5,34,9999,9999,9999,1659595888
11014,17,Jits_Phase_5,35,9999,9999,9999,1660095576
11014,17,Jits_Phase_5,36,9999,9999,9999,1660595312
11014,17,Jits_Phase_5,37,9999,9999,9999,1661096036
11014,17,Jits_Phase_5,38,9999,9999,9999,1661595724
11014,17,Jits_Phase_5,39,9999,9999,9999,1662095476
11014,17,Jits_Phase_5,40,9999,9999,9999,1662595152
11014,17,Jits_Phase_5,41,9999,9999,9999,1663095884
11014,17,Jits_Phase_5,42,9999,9999,9999,1663595576
11014,17,Jits_Phase_5,43,9999,9999,9999,1664095324
11014,17,Jits_Phase_5,44,9999,9999,9999,1664596044
11014,17,Jits_Phase_5,45,9999,9999,9999,1665095800
11014,17,Jits_Phase_5,46,9999,9999,9999,1665595472
11014,17,Jits_Phase_5,47,9999,9999,9999,1666095228
11014,17,Jits_Phase_5,48,9999,9999,9999,1666605168
11014,17,Jits_Phase_5,49,9999,9999,9999,1667105872
11014,17,Jits_Phase_5,50,9999,9999,9999,1667605604
11014,17,Jits_Phase_5,51,9999,9999,9999,1668105292
11014,17,Jits_Phase_5,52,9999,9999,9999,1668606016
11014,17,Jits_Phase_5,53,9999,9999,9999,1669105784
11014,17,Jits_Phase_5,54,9999,9999,9999,1669605460
11014,17,Jits_Phase_5,55,9999,9999,9999,1670105152
11014,17,Jits_Phase_5,56,9999,9999,9999,1670605944
11014,17,Jits_Phase_5,57,9999,9999,9999,1671105628
11014,17,Jits_Phase_5,58,9999,9999,9999,1671605304
11014,17,Jits_Phase_5,59,9999,9999,9999,1672106088
11014,17,Jits_Phase_5,60,9999,9999,9999,1672605776
11014,17,Jits_Phase_5,61,9999,9999,9999,1673105524
11014,17,Jits_Phase_5,62,9999,9999,9999,1673605212
11014,17,Jits_Phase_5,63,9999,9999,9999,1674105944
11014,17,Jits_Phase_5,64,9999,9999,9999,1674625096
11014,17,Jits_Phase_5,65,9999,9999,9999,1675125832
11014,17,Jits_Phase_5,66,9999,9999,9999,1675625600
11014,17,Jits_Phase_5,67,9999,9999,9999,1676125276
11014,17,Jits_Phase_5,68,9999,9999,9999,1676626000
11014,17,Jits_Phase_5,69,9999,9999,9999,1677125752
11014,17,Jits_Phase_5,70,9999,9999,9999,1677625412
11014,17,Jits_Phase_5,71,9999,9999,9999,1678125176
11014,17,Jits_Phase_5,72,9999,9999,9999,1678625884
11014,17,Jits_Phase_5,73,9999,9999,9999,1679125624
11014,17,Jits_Phase_5,74,9999,9999,9999,1679625300
11014,17,Jits_Phase_5,75,9999,9999,9999,1680126020
11014,17,Jits_Phase_5,76,9999,9999,9999,1680625784
11014,17,Jits_Phase_5,77,9999,9999,9999,1681125460
11014,17,Jits_Phase_5,78,9999,9999,9999,1681625148
11014,17,Jits_Phase_5,79,9999,9999,9999,1682125940
11014,17,Jits_Phase_5,80,9999,9999,9999,1682625616
11014,17,Jits_Phase_5,81,9999,9999,9999,1683105884
11014,17,Jits_Phase_5,82,9999,9999,9999,1683605572
11014,17,Jits_Phase_5,83,9999,9999,9999,1684105320
11014,17,Jits_Phase_5,84,9999,9999,9999,1684606056
11014,17,Jits_Phase_5,85,9999,9999,9999,1685105728
11014,17,Jits_Phase_5,86,9999,9999,9999,1685605476
11014,17,Jits_Phase_5,87,9999,9999,9999,1686105164
11014,17,Jits_Phase_5,88,9999,9999,9999,1686605880
11014,17,Jits_Phase_5,89,9999,9999,9999,1687105628
11014,17,Jits_Phase_5,90,9999,9999,9999,1687605304
11014,17,Jits_Phase_5,91,9999,9999,9999,1688106096
11014,17,Jits_Phase_5,92,9999,9999,9999,1688605816
11014,17,Jits_Phase_5,93,9999,9999,9999,1689105484
11014,17,Jits_Phase_5,94,9999,9999,9999,1689605236
11014,17,Jits_Phase_5,95,9999,9999,9999,1690105956
11014,17,Jits_Phase_5,96,9999,9999,9999,1690605640
11014,17,Jits_Phase_5,97,9999,9999,9999,1691055196
11014,17,Jits_Phase_5,98,9999,9999,9999,1691555916
11014,17,Jits_Phase_5,99,9999,9999,9999,1692055676
11014,17,Jits_Phase_5,100,9999,9999,9999,1692555348
11014,17,Jits_Phase_5,101,9999,9999,9999,1693056084
11014,17,Jits_Phase_5,102,9999,9999,9999,1693566028
11014,17,Jits_Phase_5,103,9999,9999,9999,1694065784
11014,17,Jits_Phase_5,104,9999,9999,9999,1694565452
11014,17,Jits_Phase_5,105,9999,9999,9999,1695065196
11014,17,Jits_Phase_5,106,9999,9999,9999,1695565916
11014,17,Jits_Phase_5,107,9999,9999,9999,1696065664
11014,17,Jits_Phase_5,108,9999,9999,9999,1696565344
11014,17,Jits_Phase_5,109,9999,9999,9999,1697066060
11014,17,Jits_Phase_5,110,9999,9999,9999,1697565800
11014,17,Jits_Phase_5,111,9999,9999,9999,1698065464
11014,17,Jits_Phase_5,112,9999,9999,9999,1698565208
11014,17,Jits_Phase_5,113,9999,9999,9999,1699065932
11014,17,Jits_Phase_5,114,9999,9999,9999,1699615872
11014,17,Jits_Phase_5,115,9999,9999,9999,1700115532
11014,17,Jits_Phase_5,116,9999,9999,9999,1700615252
11014,17,Jits_Phase_5,117,9999,9999,9999,1701115976
11014,17,Jits_Phase_5,118,9999,9999,9999,1701615724
11014,17,Jits_Phase_5,119,9999,9999,9999,1702115392
11014,17,Jits_Phase_5,120,9999,9999,9999,1702615128
11014,17,Jits_Phase_5,121,9999,9999,9999,1703115848
11014,17,Jits_Phase_5,122,9999,9999,9999,1703615616
11014,17,Jits_Phase_5,123,9999,9999,9999,1704115304
11014,17,Jits_Phase_5,124,9999,9999,9999,1704616024
11014,17,Jits_Phase_5,125,9999,9999,9999,1705115772
11014,17,Jits_Phase_5,126,9999,9999,9999,1705615460
11014,17,Jits_Phase_5,127,9999,9999,9999,1706115124
11014,17,Jits_Phase_5,128,9999,9999,9999,1706615924
11014,17,Jits_Phase_5,129,9999,9999,9999,1707115612
11014,17,Jits_Phase_5,130,9999,9999,9999,1707615284
11014,17,Jits_Phase_5,131,9999,9999,9999,1708215424
11014,17,Jits_Phase_5,132,9999,9999,9999,1708715092
11014,17,Jits_Phase_5,133,9999,9999,9999,1709215816
11014,17,Jits_Phase_5,134,9999,9999,9999,1709715556
11014,17,Jits_Phase_5,135,9999,9999,9999,1710215228
11014,17,Jits_Phase_5,136,9999,9999,9999,1710715964
11014,17,Jits_Phase_5,137,9999,9999,9999,1711215708
11014,17,Jits_Phase_5,138,9999,9999,9999,1711715384
11014,17,Jits_Phase_5,139,9999,9999,9999,1712215152
11014,17,Jits_Phase_5,140,9999,9999,9999,1712715872
11014,17,Jits_Phase_5,141,9999,9999,9999,1713215564
11014,17,Jits_Phase_5,142,9999,9999,9999,1713715312
11014,17,Jits_Phase_5,143,9999,9999,9999,1714216052
11014,17,Jits_Phase_5,144,9999,9999,9999,1714715772
11014,17,Jits_Phase_5,145,9999,9999,9999,1715215440
11014,17,Jits_Phase_5,146,9999,9999,9999,1715715132
11014,17,Jits_Phase_5,147,9999,9999,9999,1716215928
11014,17,Jits_Phase_5,148,9999,9999,9999,1716715596
11014,17,Jits_Phase_5,149,9999,9999,9999,1717215288
11014,17,Jits_Phase_5,150,9999,9999,9999,1717615680
11014,17,Jits_Phase_5,151,9999,9999,9999,1718115432
11014,17,Jits_Phase_5,152,9999,9999,9999,1718615124
11014,17,Jits_Phase_5,153,9999,9999,9999,1719115836
11014,17,Jits_Phase_5,154,9999,9999,9999,1719615592
11014,17,Jits_Phase_5,155,9999,9999,9999,1720115276
11014,17,Jits_Phase_5,156,9999,9999,9999,1720616060
11014,17,Jits_Phase_5,157,9999,9999,9999,1721115772
11014,17,Jits_Phase_5,158,9999,9999,9999,1721615440
11014,17,Jits_Phase_5,159,9999,9999,9999,1722115184
11014,17,Jits_Phase_5,160,9999,9999,9999,1722615920
11014,17,Jits_Phase_5,161,9999,9999,9999,1723115612
11014,17,Jits_Phase_5,162,9999,9999,9999,1723615296
11014,17,Jits_Phase_5,163,9999,9999,9999,1724116036
11014,17,Jits_Phase_5,164,9999,9999,9999,1724615780
11014,17,Jits_Phase_5,165,9999,9999,9999,1725115456
11014,17,Jits_Phase_5,166,9999,9999,9999,1725615208
11014,17,Jits_Phase_5,167,9999,9999,9999,1726115924
11014,17,Jits_Phase_5,168,9999,9999,9999,1726615604
11014,17,Jits_Phase_5,169,9999,9999,9999,1727115352
11015,15,Jits_Phase_8,0,5,56,103,1736219116
11015,15,Jits_Phase_8,1,5,63,98,1736222136
11015,15,Jits_Phase_8,2,5,80,127,1736225336
11015,15,Jits_Phase_8,0,5,56,103,1737018784
11015,15,Jits_Phase_8,1,5,63,98,1737021804
11015,15,Jits_Phase_8,2,5,80,127,1737025224
11015,15,Jits_Phase_8,0,5,80,127,1737759228
11015,15,Jits_Phase_8,1,1,48,48,1737793532
11015,15,Jits_Phase_8,2,5,63,98,1737849156
11015,15,Jits_Phase_8,3,5,56,103,1737858380
11015,15,Jits_Phase_8,0,5,56,103,1738579252
11015,15,Jits_Phase_8,1,5,63,98,1738588476
11015,15,Jits_Phase_8,2,1,48,54,1738590492
11015,15,Jits_Phase_8,3,5,80,127,1738678600
11015,15,Jits_Phase_8,0,5,63,98,1739349576
11015,15,Jits_Phase_8,1,5,80,127,1739379252
11015,15,Jits_Phase_8,2,1,48,54,1739388672
11015,15,Jits_Phase_8,3,5,56,103,1739408696
11015,15,Jits_Phase_8,0,1,48,54,1740141500
11015,15,Jits_Phase_8,1,5,56,103,1740149172
11015,15,Jits_Phase_8,2,5,80,127,1740248364
11015,15,Jits_Phase_8,3,5,63,98,1740298488
11015,15,Jits_Phase_8,0,5,56,103,1740949092
11015,15,Jits_Phase_8,1,1,48,52,1740956100
11015,15,Jits_Phase_8,2,5,80,127,1740999212
11015,15,Jits_Phase_8,3,5,63,98,1741039076
11015,15,Jits_Phase_8,0,5,80,127,1741779428
11015,15,Jits_Phase_8,1,1,48,53,1741791092
11015,15,Jits_Phase_8,2,5,63,98,1741809172
11015,15,Jits_Phase_8,3,5,56,103,1741878504
11015,15,Jits_Phase_8,0,5,63,98,1742608868
11015,15,Jits_Phase_8,1,5,56,103,1742638496
11015,15,Jits_Phase_8,2,1,48,55,1742639460
11015,15,Jits_Phase_8,3,5,80,127,1742699100
11015,15,Jits_Phase_8,0,5,56,103,1743349064
11015,15,Jits_Phase_8,1,5,80,127,1743352204
11015,15,Jits_Phase_8,2,1,48,52,1743415580
11015,15,Jits_Phase_8,3,5,63,98,1743469028
11015,15,Jits_Phase_8,0,1,48,51,1744163844
11015,15,Jits_Phase_8,1,5,56,103,1744228832
11015,15,Jits_Phase_8,2,5,80,127,1744268904
11015,15,Jits_Phase_8,3,5,63,98,1744279028
11015,15,Jits_Phase_8,0,1,48,55,1744973496
11015,15,Jits_Phase_8,1,5,56,103,1744988436
11015,15,Jits_Phase_8,2,5,80,127,1745009196
11015,15,Jits_Phase_8,3,5,63,98,1745088972
11015,15,Jits_Phase_8,0,5,80,127,1745779060
11015,15,Jits_Phase_8,1,1,48,50,1745816876
11015,15,Jits_Phase_8,2,5,56,103,1745879452
11015,15,Jits_Phase_8,3,5,63,98,1745888600
11015,15,Jits_Phase_8,0,5,63,98,1746549168
11015,15,Jits_Phase_8,1,5,80,127,1746608436
11015,15,Jits_Phase_8,2,5,56,103,1746618856
11015,15,Jits_Phase_8,3,1,48,53,1746634328
11015,15,Jits_Phase_8,0,5,56,103,1747348920
11015,15,Jits_Phase_8,1,1,48,53,1747375856
11015,15,Jits_Phase_8,2,5,63,98,1747418444
11015,15,Jits_Phase_8,3,5,80,127,1747421884
11015,15,Jits_Phase_8,0,1,48,54,1748166692
11015,15,Jits_Phase_8,1,5,63,98,1748179316
11015,15,Jits_Phase_8,2,5,56,103,1748228468
11015,15,Jits_Phase_8,3,5,80,127,1748231608
11015,15,Jits_Phase_8,0,5,56,103,1748938980
11015,15,Jits_Phase_8,1,5,80,127,1748942128
11015,15,Jits_Phase_8,2,1,48,54,1748994760
11015,15,Jits_Phase_8,3,5,63,98,1749029132
11015,15,Jits_Phase_8,0,1,48,55,1749763876
11015,15,Jits_Phase_8,1,5,63,98,1749779040
11015,15,Jits_Phase_8,2,5,56,103,1749868964
11015,15,Jits_Phase_8,3,5,80,127,1749898860
11015,15,Jits_Phase_8,0,5,56,103,1750569472
11015,15,Jits_Phase_8,1,1,48,52,1750572072
11015,15,Jits_Phase_8,2,5,63,98,1750668800
11015,15,Jits_Phase_8,3,5,80,127,1750699524
11015,15,Jits_Phase_8,0,5,63,98,1751388656
11015,15,Jits_Phase_8,1,1,48,51,1751396728
11015,15,Jits_Phase_8,2,5,56,103,1751398920
11015,15,Jits_Phase_8,3,5,80,127,1751488824
11015,15,Jits_Phase_8,0,5,63,98,1752209016
11015,15,Jits_Phase_8,1,1,48,52,1752255280
11015,15,Jits_Phase_8,2,5,56,103,1752288804
11015,15,Jits_Phase_8,3,5,80,127,1752291944
11015,15,Jits_Phase_8,0,5,80,127,1752968540
11015,15,Jits_Phase_8,1,5,63,98,1752989000
11015,15,Jits_Phase_8,2,1,48,49,1753042756
11015,15,Jits_Phase_8,3,5,56,103,1753048484
11015,15,Jits_Phase_8,0,1,48,52,1753795168
11015,15,Jits_Phase_8,1,5,56,103,1753809284
11015,15,Jits_Phase_8,2,5,63,98,1753828920
11015,15,Jits_Phase_8,3,5,80,127,1753832356
11015,15,Jits_Phase_8,0,5,63,98,1754548724
11015,15,Jits_Phase_8,1,1,48,51,1754595368
11015,15,Jits_Phase_8,2,5,80,127,1754628364
11015,15,Jits_Phase_8,3,5,56,103,1754638932
11015,15,Jits_Phase_8,0,1,48,51,1755369008
11015,15,Jits_Phase_8,1,5,63,98,1755370348
11015,15,Jits_Phase_8,2,5,56,103,1755389240
11015,15,Jits_Phase_8,3,5,80,127,1755438492
11015,15,Jits_Phase_8,0,5,80,127,1756168688
11015,15,Jits_Phase_8,1,1,48,52,1756184164
11015,15,Jits_Phase_8,2,5,63,98,1756208500
11015,15,Jits_Phase_8,3,5,56,103,1756228956
11015,15,Jits_Phase_8,0,1,48,47,1756973764
11015,15,Jits_Phase_8,1,5,56,103,1757009308
11015,15,Jits_Phase_8,2,5,63,98,1757018904
11015,15,Jits_Phase_8,3,5,80,127,1757039064
11015,15,Jits_Phase_8,0,5,56,103,1757739320
11015,15,Jits_Phase_8,1,1,48,47,1757789116
11015,15,Jits_Phase_8,2,5,63,98,1757828328
11015,15,Jits_Phase_8,3,5,80,127,1757888848
11015,15,Jits_Phase_8,0,1,48,49,1758554268
11015,15,Jits_Phase_8,1,5,80,127,1758568760
11015,15,Jits_Phase_8,2,5,56,103,1758579176
11015,15,Jits_Phase_8,3,5,63,98,1758648856
11015,15,Jits_Phase_8,0,1,48,51,1759382048
11015,15,Jits_Phase_8,1,5,63,98,1759399232
11015,15,Jits_Phase_8,2,5,80,127,1759489424
11015,15,Jits_Phase_8,3,5,56,103,1759498724
11015,15,Jits_Phase_8,0,5,63,98,1760129772
11015,15,Jits_Phase_8,1,5,80,127,1760178632
11015,15,Jits_Phase_8,2,1,48,48,1760231944
11015,15,Jits_Phase_8,3,5,56,103,1760239088
11015,15,Jits_Phase_8,0,5,56,103,1760948640
11015,15,Jits_Phase_8,1,1,48,52,1760966060
11015,15,Jits_Phase_8,2,5,80,127,1760998836
11015,15,Jits_Phase_8,3,5,63,98,1761019220
11015,15,Jits_Phase_8,0,5,56,103,1761719036
11015,15,Jits_Phase_8,1,1,48,52,1761744032
11015,15,Jits_Phase_8,2,5,80,127,1761779124
11015,15,Jits_Phase_8,3,5,63,98,1761848816
11015,15,Jits_Phase_8,0,5,56,103,1762519556
11015,15,Jits_Phase_8,1,1,48,52,1762547492
11015,15,Jits_Phase_8,2,5,80,127,1762549076
11015,15,Jits_Phase_8,3,5,63,98,1762578828
11015,15,Jits_Phase_8,0,1,48,48,1763323780
11015,15,Jits_Phase_8,1,5,56,103,1763358952
11015,15,Jits_Phase_8,2,5,80,127,1763378688
11015,15,Jits_Phase_8,3,5,63,98,1763438912
11015,15,Jits_Phase_8,0,1,48,48,1764142072
11015,15,Jits_Phase_8,1,5,80,127,1764238664
11015,15,Jits_Phase_8,2,5,56,103,1764248936
11015,15,Jits_Phase_8,3,5,63,98,1764259056
11015,15,Jits_Phase_8,0,5,56,103,1764998668
11015,15,Jits_Phase_8,1,1,48,49,1765019848
11015,15,Jits_Phase_8,2,5,80,127,1765038824
11015,15,Jits_Phase_8,3,5,63,98,1765069100
11015,15,Jits_Phase_8,0,5,56,103,1765768552
11015,15,Jits_Phase_8,1,5,63,98,1765799200
11015,15,Jits_Phase_8,2,1,48,51,1765836692
11015,15,Jits_Phase_8,3,5,80,127,1765839204
11015,15,Jits_Phase_8,0,5,80,127,1766519100
11015,15,Jits_Phase_8,1,5,63,98,1766569672
11015,15,Jits_Phase_8,2,1,48,50,1766570564
11015,15,Jits_Phase_8,3,5,56,103,1766588784
11015,15,Jits_Phase_8,0,5,56,103,1767348836
11015,15,Jits_Phase_8,1,1,48,47,1767358108
11015,15,Jits_Phase_8,2,5,80,127,1767419188
11015,15,Jits_Phase_8,3,5,63,98,1767478764
11015,15,Jits_Phase_8,0,5,80,127,1768149440
11015,15,Jits_Phase_8,1,1,48,51,1768169496
11015,15,Jits_Phase_8,2,5,63,98,1768238844
11015,15,Jits_Phase_8,3,5,56,103,1768258856
11015,15,Jits_Phase_8,0,5,63,98,1768968620
11015,15,Jits_Phase_8,1,5,56,103,1768989008
11015,15,Jits_Phase_8,2,1,48,50,1768992424
11015,15,Jits_Phase_8,3,5,80,127,1769028888
11015,15,Jits_Phase_8,0,5,80,127,1769729492
11015,15,Jits_Phase_8,1,5,63,98,1769748828
11015,15,Jits_Phase_8,2,1,48,49,1769784708
11015,15,Jits_Phase_8,3,5,56,103,1769828640
11015,15,Jits_Phase_8,0,5,63,98,1770518768
11015,15,Jits_Phase_8,1,1,48,52,1770568896
11015,15,Jits_Phase_8,2,5,56,103,1770628548
11015,15,Jits_Phase_8,3,5,80,127,1770631692
11015,15,Jits_Phase_8,0,5,63,98,1771339148
11015,15,Jits_Phase_8,1,5,56,103,1771349488
11015,15,Jits_Phase_8,2,5,80,127,1771352480
11015,15,Jits_Phase_8,3,1,48,48,1771353448
11015,15,Jits_Phase_8,0,5,56,103,1772119480
11015,15,Jits_Phase_8,1,1,48,46,1772145748
11015,15,Jits_Phase_8,2,5,80,127,1772239352
11015,15,Jits_Phase_8,3,5,63,98,1772279128
11015,15,Jits_Phase_8,0,5,56,103,1772938736
11015,15,Jits_Phase_8,1,1,48,49,1772968984
11015,15,Jits_Phase_8,2,5,80,127,1773018452
11015,15,Jits_Phase_8,3,5,63,98,1773039060
11015,15,Jits_Phase_8,0,5,56,103,1773739556
11015,15,Jits_Phase_8,1,1,48,46,1773788684
11015,15,Jits_Phase_8,2,5,63,98,1773849012
11015,15,Jits_Phase_8,3,5,80,127,1773852524
11015,15,Jits_Phase_8,0,5,56,103,1774579032
11015,15,Jits_Phase_8,1,1,48,46,1774604096
11015,15,Jits_Phase_8,2,5,80,127,1774608776
11015,15,Jits_Phase_8,3,5,63,98,1774629108
11015,15,Jits_Phase_8,0,5,63,98,1775368616
11015,15,Jits_Phase_8,1,5,56,103,1775378664
11015,15,Jits_Phase_8,2,5,80,127,1775389156
11015,15,Jits_Phase_8,3,1,48,48,1775396188
11015,15,Jits_Phase_8,0,5,80,127,1776159224
11015,15,Jits_Phase_8,1,1,48,49,1776188296
11015,15,Jits_Phase_8,2,5,56,103,1776209520
11015,15,Jits_Phase_8,3,5,63,98,1776249308
11015,15,Jits_Phase_8,0,1,48,53,1776978796
11015,15,Jits_Phase_8,1,5,80,127,1776980440
11015,15,Jits_Phase_8,2,5,63,98,1776998880
11015,15,Jits_Phase_8,3,5,56,103,1777048856
11015,15,Jits_Phase_8,0,5,80,127,1777789492
11015,15,Jits_Phase_8,1,1,48,51,1777807756
11015,15,Jits_Phase_8,2,5,56,103,1777818940
11015,15,Jits_Phase_8,3,5,63,98,1777888620
11015,15,Jits_Phase_8,0,1,48,50,1778623548
11015,15,Jits_Phase_8,1,5,56,103,1778639384
11015,15,Jits_Phase_8,2,5,80,127,1778648460
11015,15,Jits_Phase_8,3,5,63,98,1778689516
11015,15,Jits_Phase_8,0,5,56,103,1779348804
11015,15,Jits_Phase_8,1,5,63,98,1779369412
11015,15,Jits_Phase_8,2,1,48,50,1779398980
11015,15,Jits_Phase_8,3,5,80,127,1779438860
11015,15,Jits_Phase_8,0,5,63,98,1780169024
11015,15,Jits_Phase_8,1,1,48,56,1780176104
11015,15,Jits_Phase_8,2,5,80,127,1780228436
11015,15,Jits_Phase_8,3,5,56,103,1780248896
11015,15,Jits_Phase_8,0,5,80,127,1780958516
11015,15,Jits_Phase_8,1,5,56,103,1780989388
11015,15,Jits_Phase_8,2,5,63,98,1781018988
11015,15,Jits_Phase_8,3,1,48,50,1781022108
11015,15,Jits_Phase_8,0,5,56,103,1781759404
11015,15,Jits_Phase_8,1,5,63,98,1781818700
11015,15,Jits_Phase_8,2,1,48,47,1781831408
11015,15,Jits_Phase_8,3,5,80,127,1781879232
11015,15,Jits_Phase_8,0,5,80,127,1782578540
11015,15,Jits_Phase_8,1,5,56,103,1782598924
11015,15,Jits_Phase_8,2,1,48,57,1782619504
11015,15,Jits_Phase_8,3,5,63,98,1782668672
11015,15,Jits_Phase_8,0,5,80,127,1783379288
11015,15,Jits_Phase_8,1,5,63,98,1783398700
11015,15,Jits_Phase_8,2,1,48,57,1783418752
11015,15,Jits_Phase_8,3,5,56,103,1783428516
11015,15,Jits_Phase_8,0,5,80,127,1784168940
11015,15,Jits_Phase_8,1,5,63,98,1784189400
11015,15,Jits_Phase_8,2,1,48,54,1784208184
11015,15,Jits_Phase_8,3,5,56,103,1784248884
11015,15,Jits_Phase_8,0,5,80,127,1784968488
11015,15,Jits_Phase_8,1,1,48,54,1785005164
11015,15,Jits_Phase_8,2,5,56,103,1785069028
11015,15,Jits_Phase_8,3,5,63,98,1785098628
11015,15,Jits_Phase_8,0,5,63,98,1785759192
11015,15,Jits_Phase_8,1,5,80,127,1785809324
11015,15,Jits_Phase_8,2,5,56,103,1785828660
11015,15,Jits_Phase_8,3,1,48,57,1785848712
11015,15,Jits_Phase_8,0,5,80,127,1786598736
11015,15,Jits_Phase_8,1,5,56,103,1786628412
11015,15,Jits_Phase_8,2,1,48,55,1786630520
11015,15,Jits_Phase_8,3,5,63,98,1786632668
11015,15,Jits_Phase_8,0,1,48,54,1787432060
11015,15,Jits_Phase_8,1,5,63,98,1787448572
11015,15,Jits_Phase_8,2,5,56,103,1787488512
11015,15,Jits_Phase_8,3,5,80,127,1787509264
11015,15,Jits_Phase_8,0,5,80,127,1788208408
11015,15,Jits_Phase_8,1,1,48,57,1788271984
11015,15,Jits_Phase_8,2,5,63,98,1788289468
11015,15,Jits_Phase_8,3,5,56,103,1788329404
11015,15,Jits_Phase_8,0,5,63,98,1789028784
11015,15,Jits_Phase_8,1,1,48,59,1789088472
11015,15,Jits_Phase_8,2,5,80,127,1789108572
11015,15,Jits_Phase_8,3,5,56,103,1789129104
11015,15,Jits_Phase_8,0,5,56,103,1789869380
11015,15,Jits_Phase_8,1,5,63,98,1789878604
11015,15,Jits_Phase_8,2,1,48,55,1789888244
11015,15,Jits_Phase_8,3,5,80,127,1789918460
11015,15,Jits_Phase_8,0,5,56,103,1790589364
11015,15,Jits_Phase_8,1,5,80,127,1790592280
11015,15,Jits_Phase_8,2,1,48,54,1790713320
11015,15,Jits_Phase_8,3,5,63,98,1790728632
11015,15,Jits_Phase_8,0,5,56,103,1791378716
11015,15,Jits_Phase_8,1,5,63,98,1791469220
11015,15,Jits_Phase_8,2,1,48,58,1791522704
11015,15,Jits_Phase_8,3,5,80,127,1791538620
11015,15,Jits_Phase_8,0,5,63,98,1792258356
11015,15,Jits_Phase_8,1,5,80,127,1792261572
11015,15,Jits_Phase_8,2,5,56,103,1792318768
11015,15,Jits_Phase_8,3,1,48,58,1792335660
11015,15,Jits_Phase_8,0,1,48,54,1793093452
11015,15,Jits_Phase_8,1,5,80,127,1793099404
11015,15,Jits_Phase_8,2,5,56,103,1793118444
11015,15,Jits_Phase_8,3,5,63,98,1793128788
11015,15,Jits_Phase_8,0,5,56,103,1793808724
11015,15,Jits_Phase_8,1,5,63,98,1793819068
11015,15,Jits_Phase_8,2,5,80,127,1793888696
11015,15,Jits_Phase_8,3,1,48,54,1793912416
11015,15,Jits_Phase_8,0,5,80,127,1794608368
11015,15,Jits_Phase_8,1,5,56,103,1794658720
11015,15,Jits_Phase_8,2,1,48,55,1794698404
11015,15,Jits_Phase_8,3,5,63,98,1794709064
11015,15,Jits_Phase_8,0,5,56,103,1795489352
11015,15,Jits_Phase_8,1,5,63,98,1795499472
11015,15,Jits_Phase_8,2,1,48,54,1795501488
11015,15,Jits_Phase_8,3,5,80,127,1795539552
11015,15,Jits_Phase_8,0,5,56,103,1796228448
11015,15,Jits_Phase_8,1,5,63,98,1796269360
11015,15,Jits_Phase_8,2,1,48,52,1796306108
11015,15,Jits_Phase_8,3,5,80,127,1796318508
11015,15,Jits_Phase_8,0,5,80,127,1796989260
11015,15,Jits_Phase_8,1,5,56,103,1797038416
11015,15,Jits_Phase_8,2,5,63,98,1797059096
11015,15,Jits_Phase_8,3,1,48,56,1797084312
11015,15,Jits_Phase_8,0,5,80,127,1797799368
11015,15,Jits_Phase_8,1,5,63,98,1797858712
11015,15,Jits_Phase_8,2,1,48,51,1797870148
11015,15,Jits_Phase_8,3,5,56,103,1797938520
11015,15,Jits_Phase_8,0,5,80,127,1798578536
11015,15,Jits_Phase_8,1,5,56,103,1798618552
11015,15,Jits_Phase_8,2,5,63,98,1798639084
11015,15,Jits_Phase_8,3,1,48,55,1798678240
11015,15,Jits_Phase_8,0,5,56,103,1799428424
11015,15,Jits_Phase_8,1,5,80,127,1799438920
11015,15,Jits_Phase_8,2,5,63,98,1799478732
11015,15,Jits_Phase_8,3,1,48,56,1799491364
11015,15,Jits_Phase_8,0,5,56,103,1800299244
11015,15,Jits_Phase_8,1,1,48,53,1800311060
11015,15,Jits_Phase_8,2,5,63,98,1800338880
11015,15,Jits_Phase_8,3,5,80,127,1800342168
11015,15,Jits_Phase_8,0,5,63,98,1800968632
11015,15,Jits_Phase_8,1,5,80,127,1801008448
11015,15,Jits_Phase_8,2,5,56,103,1801079172
11015,15,Jits_Phase_8,3,1,48,49,1801123488
11015,15,Jits_Phase_8,0,5,63,98,1801738576
11015,15,Jits_Phase_8,1,5,56,103,1801818468
11015,15,Jits_Phase_8,2,5,80,127,1801879304
11015,15,Jits_Phase_8,3,1,48,53,1801887228
11015,15,Jits_Phase_8,0,5,80,127,1802548544
11015,15,Jits_Phase_8,1,5,63,98,1802598896
11015,15,Jits_Phase_8,2,5,56,103,1802628496
11015,15,Jits_Phase_8,3,1,48,57,1802665468
11015,15,Jits_Phase_8,0,5,56,103,1803339172
11015,15,Jits_Phase_8,1,5,63,98,1803389224
11015,15,Jits_Phase_8,2,5,80,127,1803398524
11015,15,Jits_Phase_8,3,1,48,52,1803462844
11015,15,Jits_Phase_8,0,5,56,103,1804149200
11015,15,Jits_Phase_8,1,1,48,55,1804236296
11015,15,Jits_Phase_8,2,5,63,98,1804258660
11015,15,Jits_Phase_8,3,5,80,127,1804279192
11015,15,Jits_Phase_8,0,5,63,98,1804949272
11015,15,Jits_Phase_8,1,5,80,127,1804999328
11015,15,Jits_Phase_8,2,1,48,56,1805041928
11015,15,Jits_Phase_8,3,5,56,103,1805089080
11015,15,Jits_Phase_8,0,5,63,98,1805739416
11015,15,Jits_Phase_8,1,5,80,127,1805769168
11015,15,Jits_Phase_8,2,1,48,55,1805845100
11015,15,Jits_Phase_8,3,5,56,103,1805859316
11015,15,Jits_Phase_8,0,5,63,98,1806539096
11015,15,Jits_Phase_8,1,5,56,103,1806549292
11015,15,Jits_Phase_8,2,1,48,59,1806630720
11015,15,Jits_Phase_8,3,5,80,127,1806648804
11015,15,Jits_Phase_8,0,1,48,53,1807402148
11015,15,Jits_Phase_8,1,5,63,98,1807439188
11015,15,Jits_Phase_8,2,5,80,127,1807469084
11015,15,Jits_Phase_8,3,5,56,103,1807498536
11015,15,Jits_Phase_8,0,1,48,55,1808218328
11015,15,Jits_Phase_8,1,5,80,127,1808258284
11015,15,Jits_Phase_8,2,5,63,98,1808268776
11015,15,Jits_Phase_8,3,5,56,103,1808299276
11015,15,Jits_Phase_8,0,5,80,127,1808958928
11015,15,Jits_Phase_8,1,5,63,98,1808979168
11015,15,Jits_Phase_8,2,5,56,103,1809028392
11015,15,Jits_Phase_8,3,1,48,53,1809046800
11015,15,Jits_Phase_8,0,5,63,98,1809789192
11015,15,Jits_Phase_8,1,1,48,57,1809828724
11015,15,Jits_Phase_8,2,5,80,127,1809848900
11015,15,Jits_Phase_8,3,5,56,103,1809869136
11015,15,Jits_Phase_8,0,5,63,98,1810549020
11015,15,Jits_Phase_8,1,5,56,103,1810599220
11015,15,Jits_Phase_8,2,1,48,53,1810606700
11015,15,Jits_Phase_8,3,5,80,127,1810608436
11015,15,Jits_Phase_8,0,5,56,103,1811378664
11015,15,Jits_Phase_8,1,5,80,127,1811389160
11015,15,Jits_Phase_8,2,1,48,54,1811403364
11015,15,Jits_Phase_8,3,5,63,98,1811489200
11015,15,Jits_Phase_8,0,5,80,127,1812139252
11015,15,Jits_Phase_8,1,5,63,98,1812148776
11015,15,Jits_Phase_8,2,1,48,57,1812231384
11015,15,Jits_Phase_8,3,5,56,103,1812299156
11015,15,Jits_Phase_8,0,5,63,98,1812949212
11015,15,Jits_Phase_8,1,5,80,127,1812989376
11015,15,Jits_Phase_8,2,1,48,58,1813025328
11015,15,Jits_Phase_8,3,5,56,103,1813069260
11015,15,Jits_Phase_8,0,5,56,103,1813699144
11015,15,Jits_Phase_8,1,5,80,127,1813799344
11015,15,Jits_Phase_8,2,5,63,98,1813818980
11015,15,Jits_Phase_8,3,1,48,57,1813824792
11015,15,Jits_Phase_8,0,5,80,127,1814519008
11015,15,Jits_Phase_8,1,5,56,103,1814529352
11015,15,Jits_Phase_8,2,1,48,49,1814617632
11015,15,Jits_Phase_8,3,5,63,98,1814619204
11015,15,Jits_Phase_8,0,5,56,103,1815319008
11015,15,Jits_Phase_8,1,5,63,98,1815339344
11015,15,Jits_Phase_8,2,1,48,56,1815411088
11015,15,Jits_Phase_8,3,5,80,127,1815419204
11015,15,Jits_Phase_8,0,5,63,98,1816068512
11015,15,Jits_Phase_8,1,5,56,103,1816158596
11015,15,Jits_Phase_8,2,5,80,127,1816161960
11015,15,Jits_Phase_8,3,1,48,55,1816220444
11015,15,Jits_Phase_8,0,5,56,103,1816899148
11015,15,Jits_Phase_8,1,5,80,127,1816959244
11015,15,Jits_Phase_8,2,5,63,98,1816968468
11015,15,Jits_Phase_8,3,1,48,57,1817024916
11015,15,Jits_Phase_8,0,5,80,127,1817748824
11015,15,Jits_Phase_8,1,5,56,103,1817759016
11015,15,Jits_Phase_8,2,5,63,98,1817762084
11015,15,Jits_Phase_8,3,1,48,55,1817779068
11015,15,Jits_Phase_8,0,5,56,103,1818508648
11015,15,Jits_Phase_8,1,5,80,127,1818519068
11015,15,Jits_Phase_8,2,5,63,98,1818539304
11015,15,Jits_Phase_8,3,1,48,56,1818582648
11015,15,Jits_Phase_8,0,5,63,98,1819278972
11015,15,Jits_Phase_8,1,5,80,127,1819338992
11015,15,Jits_Phase_8,2,1,48,51,1819351624
11015,15,Jits_Phase_8,3,5,56,103,1819389332
11015,15,Jits_Phase_8,0,1,48,57,1820143572
11015,15,Jits_Phase_8,1,5,63,98,1820159416
11015,15,Jits_Phase_8,2,5,56,103,1820168712
11015,15,Jits_Phase_8,3,5,80,127,1820218940
11015,15,Jits_Phase_8,0,5,63,98,1820858720
11015,15,Jits_Phase_8,1,5,80,127,1820879176
11015,15,Jits_Phase_8,2,5,56,103,1820888400
11015,15,Jits_Phase_8,3,1,48,47,1820930552
11015,15,Jits_Phase_8,0,5,63,98,1821658916
11015,15,Jits_Phase_8,1,5,80,127,1821662128
11015,15,Jits_Phase_8,2,1,48,55,1821686296
11015,15,Jits_Phase_8,3,5,56,103,1821698620
11015,15,Jits_Phase_8,0,1,48,55,1822464608
11015,15,Jits_Phase_8,1,5,63,98,1822528876
11015,15,Jits_Phase_8,2,5,80,127,1822558700
11015,15,Jits_Phase_8,3,5,56,103,1822568880
11015,15,Jits_Phase_8,0,5,56,103,1823278668
11015,15,Jits_Phase_8,1,1,48,52,1823288012
11015,15,Jits_Phase_8,2,5,80,127,1823309160
11015,15,Jits_Phase_8,3,5,63,98,1823338908
11015,15,Jits_Phase_8,0,1,48,59,1824127020
11015,15,Jits_Phase_8,1,5,63,98,1824178604
11015,15,Jits_Phase_8,2,5,56,103,1824218748
11015,15,Jits_Phase_8,3,5,80,127,1824221668
11015,15,Jits_Phase_8,0,5,80,127,1824878940
11015,15,Jits_Phase_8,1,5,56,103,1824958960
11015,15,Jits_Phase_8,2,1,48,56,1824972640
11015,15,Jits_Phase_8,3,5,63,98,1825009080
11015,15,Jits_Phase_8,0,5,80,127,1825659308
11015,15,Jits_Phase_8,1,5,56,103,1825678644
11015,15,Jits_Phase_8,2,5,63,98,1825768700
11015,15,Jits_Phase_8,3,1,48,55,1825784620
11015,15,Jits_Phase_8,0,5,80,127,1826498856
11015,15,Jits_Phase_8,1,5,63,98,1826538872
11015,15,Jits_Phase_8,2,1,48,54,1826543336
11015,15,Jits_Phase_8,3,5,56,103,1826578800
11015,15,Jits_Phase_8,0,5,63,98,1827308972
11015,15,Jits_Phase_8,1,1,48,51,1827345572
11015,15,Jits_Phase_8,2,5,80,127,1827369452
11015,15,Jits_Phase_8,3,5,56,103,1827399052
11015,15,Jits_Phase_8,0,5,56,103,1828148528
11015,15,Jits_Phase_8,1,1,48,56,1828167984
11015,15,Jits_Phase_8,2,5,80,127,1828179316
11015,15,Jits_Phase_8,3,5,63,98,1828269508
11015,15,Jits_Phase_8,0,5,56,103,1828958708
11015,15,Jits_Phase_8,1,1,48,56,1829017728
11015,15,Jits_Phase_8,2,5,80,127,1829069212
11015,15,Jits_Phase_8,3,5,63,98,1829098816
11015,15,Jits_Phase_8,0,5,56,103,1829808612
11015,15,Jits_Phase_8,1,1,48,56,1829857364
11015,15,Jits_Phase_8,2,5,63,98,1829868920
11015,15,Jits_Phase_8,3,5,80,127,1829898672
11015,15,Jits_Phase_8,0,5,56,103,1830578720
11015,15,Jits_Phase_8,1,5,63,98,1830649152
11015,15,Jits_Phase_8,2,5,80,127,1830668784
11015,15,Jits_Phase_8,3,1,48,56,1830695148
11015,15,Jits_Phase_8,0,5,80,127,1831348824
11015,15,Jits_Phase_8,1,5,63,98,1831368988
11015,15,Jits_Phase_8,2,5,56,103,1831419188
11015,15,Jits_Phase_8,3,1,48,51,1831448832
11015,15,Jits_Phase_8,0,5,63,98,1832168748
11015,15,Jits_Phase_8,1,5,80,127,1832178944
11015,15,Jits_Phase_8,2,1,48,52,1832203636
11015,15,Jits_Phase_8,3,5,56,103,1832229164
11015,15,Jits_Phase_8,0,5,63,98,1832968652
11015,15,Jits_Phase_8,1,1,48,56,1832981432
11015,15,Jits_Phase_8,2,5,80,127,1833039176
11015,15,Jits_Phase_8,3,5,56,103,1833058808
11015,15,Jits_Phase_8,0,1,48,55,1833749648
11015,15,Jits_Phase_8,1,5,63,98,1833798992
11015,15,Jits_Phase_8,2,5,80,127,1833802356
11015,15,Jits_Phase_8,3,5,56,103,1833868804
11015,15,Jits_Phase_8,0,5,80,127,1834548700
11015,15,Jits_Phase_8,1,5,56,103,1834569160
11015,15,Jits_Phase_8,2,5,63,98,1834579728
11015,15,Jits_Phase_8,3,1,48,58,1834598288
11015,15,Jits_Phase_8,0,5,56,103,1835368772
11015,15,Jits_Phase_8,1,1,48,60,1835402008
11015,15,Jits_Phase_8,2,5,63,98,1835458900
11015,15,Jits_Phase_8,3,5,80,127,1835462188
11015,15,Jits_Phase_8,0,5,80,127,1836138792
11015,15,Jits_Phase_8,1,5,56,103,1836148988
11015,15,Jits_Phase_8,2,5,63,98,1836168700
11015,15,Jits_Phase_8,3,1,48,56,1836226572
11015,15,Jits_Phase_8,0,5,63,98,1836938704
11015,15,Jits_Phase_8,1,1,48,53,1836969400
11015,15,Jits_Phase_8,2,5,80,127,1836999016
11015,15,Jits_Phase_8,3,5,56,103,1837009580
11015,15,Jits_Phase_8,0,1,48,52,1837782552
11015,15,Jits_Phase_8,1,5,63,98,1837809028
11015,15,Jits_Phase_8,2,5,80,127,1837838776
11015,15,Jits_Phase_8,3,5,56,103,1837878724
11015,15,Jits_Phase_8,0,5,56,103,1838598456
11015,15,Jits_Phase_8,1,1,48,45,1838608952
11015,15,Jits_Phase_8,2,5,80,127,1838610444
11015,15,Jits_Phase_8,3,5,63,98,1838648760
11015,15,Jits_Phase_8,0,5,80,127,1839359492
11015,15,Jits_Phase_8,1,1,48,48,1839383064
11015,15,Jits_Phase_8,2,5,56,103,1839439380
11015,15,Jits_Phase_8,3,5,63,98,1839448380
11015,15,Jits_Phase_8,4,1,48,18,1839782020
11015,15,Jits_Phase_8,0,1,48,54,1840209668
11015,15,Jits_Phase_8,1,5,80,127,1840210928
11015,15,Jits_Phase_8,2,5,56,103,1840289160
11015,15,Jits_Phase_8,3,5,63,98,1840299504
11015,15,Jits_Phase_8,0,5,80,127,1841048920
11015,15,Jits_Phase_8,1,5,56,103,1841098972
11015,15,Jits_Phase_8,2,1,48,47,1841118952
11015,15,Jits_Phase_8,3,5,63,98,1841149464
11015,15,Jits_Phase_8,0,1,48,48,1841926800
11015,15,Jits_Phase_8,1,5,56,103,1841988956
11015,15,Jits_Phase_8,2,5,63,98,1841992024
11015,15,Jits_Phase_8,3,5,80,127,1842039140
11015,15,Jits_Phase_8,0,5,56,103,1842809392
11015,15,Jits_Phase_8,1,1,48,50,1842824044
11015,15,Jits_Phase_8,2,5,63,98,1842838764
11015,15,Jits_Phase_8,3,5,80,127,1842849256
11015,15,Jits_Phase_8,0,5,63,98,1843518972
11015,15,Jits_Phase_8,1,5,56,103,1843588504
11015,15,Jits_Phase_8,2,5,80,127,1843638704
11015,15,Jits_Phase_8,3,1,48,46,1843652384
11015,15,Jits_Phase_8,0,5,63,98,1844349372
11015,15,Jits_Phase_8,1,5,56,103,1844358448
11015,15,Jits_Phase_8,2,5,80,127,1844361512
11015,15,Jits_Phase_8,3,1,48,50,1844399020
11015,15,Jits_Phase_8,0,5,80,127,1845098920
11015,15,Jits_Phase_8,1,1,48,46,1845143840
11015,15,Jits_Phase_8,2,5,56,103,1845159452
11015,15,Jits_Phase_8,3,5,63,98,1845249420
11015,15,Jits_Phase_8,0,5,80,127,1845898540
11015,15,Jits_Phase_8,1,1,48,51,1845993352
11015,15,Jits_Phase_8,2,5,56,103,1845999004
11015,15,Jits_Phase_8,3,5,63,98,1846038868
11015,15,Jits_Phase_8,0,5,56,103,1846748660
11015,15,Jits_Phase_8,1,5,63,98,1846769120
11015,15,Jits_Phase_8,2,1,48,51,1846802276
11015,15,Jits_Phase_8,3,5,80,127,1846808900
11015,15,Jits_Phase_8,0,5,63,98,1847518684
11015,15,Jits_Phase_8,1,5,56,103,1847538996
11015,15,Jits_Phase_8,2,1,48,58,1847580776
11015,15,Jits_Phase_8,3,5,80,127,1847639332
11015,15,Jits_Phase_8,0,5,63,98,1848309004
11015,15,Jits_Phase_8,1,1,48,52,1848367448
11015,15,Jits_Phase_8,2,5,80,127,1848418712
11015,15,Jits_Phase_8,3,5,56,103,1848449360
11015,15,Jits_Phase_8,0,5,56,103,1849129320
11015,15,Jits_Phase_8,1,1,48,56,1849156104
11015,15,Jits_Phase_8,2,5,63,98,1849159136
11015,15,Jits_Phase_8,3,5,80,127,1849209412
11015,15,Jits_Phase_8,0,5,63,98,1849899572
11015,15,Jits_Phase_8,1,5,56,103,1849929248
11015,15,Jits_Phase_8,2,1,48,52,1849941432
11015,15,Jits_Phase_8,3,5,80,127,1849979588
11015,15,Jits_Phase_8,0,5,56,103,1850728768
11015,15,Jits_Phase_8,1,1,48,56,1850737512
11015,15,Jits_Phase_8,2,5,63,98,1850749224
11015,15,Jits_Phase_8,3,5,80,127,1850829236
11015,15,Jits_Phase_8,0,5,63,98,1851498796
11015,15,Jits_Phase_8,1,5,56,103,1851559188
11015,15,Jits_Phase_8,2,1,48,57,1851586648
11015,15,Jits_Phase_8,3,5,80,127,1851589152
11015,15,Jits_Phase_8,0,5,56,103,1852338408
11015,15,Jits_Phase_8,1,1,48,51,1852373216
11015,15,Jits_Phase_8,2,5,80,127,1852399016
11015,15,Jits_Phase_8,3,5,63,98,1852438880
11015,15,Jits_Phase_8,0,5,63,98,1853118704
11015,15,Jits_Phase_8,1,5,56,103,1853179244
11015,15,Jits_Phase_8,2,1,48,53,1853197356
11015,15,Jits_Phase_8,3,5,80,127,1853248940
11015,15,Jits_Phase_8,0,1,48,54,1853996456
11015,15,Jits_Phase_8,1,5,56,103,1853998424
11015,15,Jits_Phase_8,2,5,63,98,1854008692
11015,15,Jits_Phase_8,3,5,80,127,1854011984
11015,15,Jits_Phase_8,0,5,63,98,1854738748
11015,15,Jits_Phase_8,1,5,56,103,1854799384
11015,15,Jits_Phase_8,2,5,80,127,1854802376
11015,15,Jits_Phase_8,3,1,48,47,1854834788
11015,15,Jits_Phase_8,0,5,63,98,1855519260
11015,15,Jits_Phase_8,1,5,80,127,1855548640
11015,15,Jits_Phase_8,2,5,56,103,1855569396
11015,15,Jits_Phase_8,3,1,48,48,1855653268
11015,15,Jits_Phase_8,0,5,56,103,1856249240
11015,15,Jits_Phase_8,1,5,63,98,1856299320
11015,15,Jits_Phase_8,2,1,48,53,1856375696
11015,15,Jits_Phase_8,3,5,80,127,1856379180
11015,15,Jits_Phase_8,0,5,80,127,1856948556
11015,15,Jits_Phase_8,1,5,63,98,1856988420
11015,15,Jits_Phase_8,2,5,56,103,1857009104
11015,15,Jits_Phase_8,3,1,48,54,1857136292
11015,15,Jits_Phase_8,0,5,56,103,1857819124
11015,15,Jits_Phase_8,1,5,80,127,1857829344
11015,15,Jits_Phase_8,2,5,63,98,1857848684
11015,15,Jits_Phase_8,3,1,48,39,1857892176
11015,15,Jits_Phase_8,0,5,56,103,1858599368
11015,15,Jits_Phase_8,1,5,63,98,1858648448
11015,15,Jits_Phase_8,2,1,48,54,1858664000
11015,15,Jits_Phase_8,3,5,80,127,1858679312
11015,15,Jits_Phase_8,0,5,56,103,1859348924
11015,15,Jits_Phase_8,1,5,63,98,1859359368
11015,15,Jits_Phase_8,2,5,80,127,1859409196
11015,15,Jits_Phase_8,3,1,48,48,1859428276
11015,15,Jits_Phase_8,0,5,56,103,1860139424
11015,15,Jits_Phase_8,1,5,80,127,1860142340
11015,15,Jits_Phase_8,2,1,48,47,1860196024
11015,15,Jits_Phase_8,3,5,63,98,1860299352
11015,15,Jits_Phase_8,0,1,48,47,1860955256
11015,15,Jits_Phase_8,1,5,63,98,1860958512
11015,15,Jits_Phase_8,2,5,56,103,1861029168
11015,15,Jits_Phase_8,3,5,80,127,1861069164
11015,15,Jits_Phase_8,0,5,63,98,1861799332
11015,15,Jits_Phase_8,1,1,48,48,1861805668
11015,15,Jits_Phase_8,2,5,56,103,1861889304
11015,15,Jits_Phase_8,3,5,80,127,1861892452
11015,15,Jits_Phase_8,0,5,56,103,1862578412
11015,15,Jits_Phase_8,1,1,48,57,1862647536
11015,15,Jits_Phase_8,2,5,63,98,1862668688
11015,15,Jits_Phase_8,3,5,80,127,1862679108
11015,15,Jits_Phase_8,0,5,56,103,1863348592
11015,15,Jits_Phase_8,1,5,63,98,1863398720
11015,15,Jits_Phase_8,2,5,80,127,1863428320
11015,15,Jits_Phase_8,3,1,48,49,1863452336
11015,15,Jits_Phase_8,0,1,48,52,1864224092
11015,15,Jits_Phase_8,1,5,63,98,1864229368
11015,15,Jits_Phase_8,2,5,80,127,1864238444
11015,15,Jits_Phase_8,3,5,56,103,1864298832
11015,15,Jits_Phase_8,0,5,63,98,1864949096
11015,15,Jits_Phase_8,1,5,80,127,1865008464
11015,15,Jits_Phase_8,2,5,56,103,1865048328
11015,15,Jits_Phase_8,3,1,48,51,1865049812
11015,15,Jits_Phase_8,0,1,48,50,1865809832
11015,15,Jits_Phase_8,1,5,56,103,1865849192
11015,15,Jits_Phase_8,2,5,80,127,1865868604
11015,15,Jits_Phase_8,3,5,63,98,1865889212
11015,15,Jits_Phase_8,0,5,63,98,1866569248
11015,15,Jits_Phase_8,1,5,56,103,1866588512
11015,15,Jits_Phase_8,2,5,80,127,1866628452
11015,15,Jits_Phase_8,3,1,48,50,1866647608
11015,15,Jits_Phase_8,0,5,63,98,1867379196
11015,15,Jits_Phase_8,1,5,80,127,1867408648
11015,15,Jits_Phase_8,2,1,48,46,1867419112
11015,15,Jits_Phase_8,3,5,56,103,1867429172
11015,15,Jits_Phase_8,0,5,80,127,1868149132
11015,15,Jits_Phase_8,1,5,56,103,1868199412
11015,15,Jits_Phase_8,2,1,48,48,1868210552
11015,15,Jits_Phase_8,3,5,63,98,1868258600
11015,15,Jits_Phase_8,0,5,63,98,1868938568
11015,15,Jits_Phase_8,1,1,48,54,1869026724
11015,15,Jits_Phase_8,2,5,56,103,1869058364
11015,15,Jits_Phase_8,3,5,80,127,1869089260
11015,15,Jits_Phase_8,0,5,80,127,1869779232
11015,15,Jits_Phase_8,1,5,63,98,1869798720
11015,15,Jits_Phase_8,2,1,48,56,1869817208
11015,15,Jits_Phase_8,3,5,56,103,1869869468
11015,15,Jits_Phase_8,0,5,63,98,1870598636
11015,15,Jits_Phase_8,1,5,56,103,1870608756
11015,15,Jits_Phase_8,2,1,48,57,1870630932
11015,15,Jits_Phase_8,3,5,80,127,1870688568
11015,15,Jits_Phase_8,0,1,48,54,1871453304
11015,15,Jits_Phase_8,1,5,56,103,1871458576
11015,15,Jits_Phase_8,2,5,80,127,1871489448
11015,15,Jits_Phase_8,3,5,63,98,1871498596
11015,15,Jits_Phase_8,0,9999,9999,9999,1736617076
11015,15,Jits_Phase_8,1,9999,9999,9999,1737416792
11015,15,Jits_Phase_8,2,9999,9999,9999,1738216508
11015,15,Jits_Phase_8,3,9999,9999,9999,1739016276
11015,15,Jits_Phase_8,4,9999,9999,9999,1739817040
11015,15,Jits_Phase_8,5,9999,9999,9999,1740616800
11015,15,Jits_Phase_8,6,9999,9999,9999,1741416560
11015,15,Jits_Phase_8,7,9999,9999,9999,1742216256
11015,15,Jits_Phase_8,8,9999,9999,9999,1743017076
11015,15,Jits_Phase_8,9,9999,9999,9999,1743816816
11015,15,Jits_Phase_8,10,9999,9999,9999,1744616572
11015,15,Jits_Phase_8,11,9999,9999,9999,1745416252
11015,15,Jits_Phase_8,12,9999,9999,9999,1746217088
11015,15,Jits_Phase_8,13,9999,9999,9999,1747016780
11015,15,Jits_Phase_8,14,9999,9999,9999,1747816524
11015,15,Jits_Phase_8,15,9999,9999,9999,1748616284
11015,15,Jits_Phase_8,16,9999,9999,9999,1749417072
11015,15,Jits_Phase_8,17,9999,9999,9999,1750216780
11015,15,Jits_Phase_8,18,9999,9999,9999,1751016540
11015,15,Jits_Phase_8,19,9999,9999,9999,1751816316
11015,15,Jits_Phase_8,20,9999,9999,9999,1752617064
11015,15,Jits_Phase_8,21,9999,9999,9999,1753416824
11015,15,Jits_Phase_8,22,9999,9999,9999,1754216508
11015,15,Jits_Phase_8,23,9999,9999,9999,1755016264
11015,15,Jits_Phase_8,24,9999,9999,9999,1755817068
11015,15,Jits_Phase_8,25,9999,9999,9999,1756616824
11015,15,Jits_Phase_8,26,9999,9999,9999,1757416520
11015,15,Jits_Phase_8,27,9999,9999,9999,1758216280
11015,15,Jits_Phase_8,28,9999,9999,9999,1759017048
11015,15,Jits_Phase_8,29,9999,9999,9999,1759816812
11015,15,Jits_Phase_8,30,9999,9999,9999,1760597092
11015,15,Jits_Phase_8,31,9999,9999,9999,1761396848
11015,15,Jits_Phase_8,32,9999,9999,9999,1762196544
11015,15,Jits_Phase_8,33,9999,9999,9999,1762996312
11015,15,Jits_Phase_8,34,9999,9999,9999,1763797056
11015,15,Jits_Phase_8,35,9999,9999,9999,1764596824
11015,15,Jits_Phase_8,36,9999,9999,9999,1765396588
11015,15,Jits_Phase_8,37,9999,9999,9999,1766196312
11015,15,Jits_Phase_8,38,9999,9999,9999,1766997052
11015,15,Jits_Phase_8,39,9999,9999,9999,1767796832
11015,15,Jits_Phase_8,40,9999,9999,9999,1768596604
11015,15,Jits_Phase_8,41,9999,9999,9999,1769396304
11015,15,Jits_Phase_8,42,9999,9999,9999,1770197104
11015,15,Jits_Phase_8,43,9999,9999,9999,1770996792
11015,15,Jits_Phase_8,44,9999,9999,9999,1771796604
11015,15,Jits_Phase_8,45,9999,9999,9999,1772596316
11015,15,Jits_Phase_8,46,9999,9999,9999,1773397064
11015,15,Jits_Phase_8,47,9999,9999,9999,1774196828
11015,15,Jits_Phase_8,48,9999,9999,9999,1775017052
11015,15,Jits_Phase_8,49,9999,9999,9999,1775816820
11015,15,Jits_Phase_8,50,9999,9999,9999,1776616504
11015,15,Jits_Phase_8,51,9999,9999,9999,1777416272
11015,15,Jits_Phase_8,52,9999,9999,9999,1778217032
11015,15,Jits_Phase_8,53,9999,9999,9999,1779016808
11015,15,Jits_Phase_8,54,9999,9999,9999,1779816564
11015,15,Jits_Phase_8,55,9999,9999,9999,1780616260
11015,15,Jits_Phase_8,56,9999,9999,9999,1781417060
11015,15,Jits_Phase_8,57,9999,9999,9999,1782216760
11015,15,Jits_Phase_8,58,9999,9999,9999,1783016536
11015,15,Jits_Phase_8,59,9999,9999,9999,1783816308
11015,15,Jits_Phase_8,60,9999,9999,9999,1784617076
11015,15,Jits_Phase_8,61,9999,9999,9999,1785416776
11015,15,Jits_Phase_8,62,9999,9999,9999,1786216548
11015,15,Jits_Phase_8,63,9999,9999,9999,1787016296
11015,15,Jits_Phase_8,64,9999,9999,9999,1787856984
11015,15,Jits_Phase_8,65,9999,9999,9999,1788656744
11015,15,Jits_Phase_8,66,9999,9999,9999,1789456448
11015,15,Jits_Phase_8,67,9999,9999,9999,1790256236
11015,15,Jits_Phase_8,68,9999,9999,9999,1791056968
11015,15,Jits_Phase_8,69,9999,9999,9999,1791856744
11015,15,Jits_Phase_8,70,9999,9999,9999,1792656436
11015,15,Jits_Phase_8,71,9999,9999,9999,1793456204
11015,15,Jits_Phase_8,72,9999,9999,9999,1794257004
11015,15,Jits_Phase_8,73,9999,9999,9999,1795056704
11015,15,Jits_Phase_8,74,9999,9999,9999,1795856484
11015,15,Jits_Phase_8,75,9999,9999,9999,1796656208
11015,15,Jits_Phase_8,76,9999,9999,9999,1797457020
11015,15,Jits_Phase_8,77,9999,9999,9999,1798256720
11015,15,Jits_Phase_8,78,9999,9999,9999,1799056484
11015,15,Jits_Phase_8,79,9999,9999,9999,1799856184
11015,15,Jits_Phase_8,80,9999,9999,9999,1800657004
11015,15,Jits_Phase_8,81,9999,9999,9999,1801416768
11015,15,Jits_Phase_8,82,9999,9999,9999,1802216528
11015,15,Jits_Phase_8,83,9999,9999,9999,1803016280
11015,15,Jits_Phase_8,84,9999,9999,9999,1803817044
11015,15,Jits_Phase_8,85,9999,9999,9999,1804616820
11015,15,Jits_Phase_8,86,9999,9999,9999,1805416568
11015,15,Jits_Phase_8,87,9999,9999,9999,1806216248
11015,15,Jits_Phase_8,88,9999,9999,9999,1807017044
11015,15,Jits_Phase_8,89,9999,9999,9999,1807816812
11015,15,Jits_Phase_8,90,9999,9999,9999,1808616576
11015,15,Jits_Phase_8,91,9999,9999,9999,1809416256
11015,15,Jits_Phase_8,92,9999,9999,9999,1810217028
11015,15,Jits_Phase_8,93,9999,9999,9999,1811016780
11015,15,Jits_Phase_8,94,9999,9999,9999,1811816540
11015,15,Jits_Phase_8,95,9999,9999,9999,1812616308
11015,15,Jits_Phase_8,96,9999,9999,9999,1813417052
11015,15,Jits_Phase_8,97,9999,9999,9999,1814136948
11015,15,Jits_Phase_8,98,9999,9999,9999,1814936652
11015,15,Jits_Phase_8,99,9999,9999,9999,1815736432
11015,15,Jits_Phase_8,100,9999,9999,9999,1816536120
11015,15,Jits_Phase_8,101,9999,9999,9999,1817336924
11015,15,Jits_Phase_8,102,9999,9999,9999,1818136688
11015,15,Jits_Phase_8,103,9999,9999,9999,1818936404
11015,15,Jits_Phase_8,104,9999,9999,9999,1819736176
11015,15,Jits_Phase_8,105,9999,9999,9999,1820536916
11015,15,Jits_Phase_8,106,9999,9999,9999,1821336664
11015,15,Jits_Phase_8,107,9999,9999,9999,1822136404
11015,15,Jits_Phase_8,108,9999,9999,9999,1822936164
11015,15,Jits_Phase_8,109,9999,9999,9999,1823736892
11015,15,Jits_Phase_8,110,9999,9999,9999,1824536664
11015,15,Jits_Phase_8,111,9999,9999,9999,1825336444
11015,15,Jits_Phase_8,112,9999,9999,9999,1826136136
11015,15,Jits_Phase_8,113,9999,9999,9999,1826936956
11015,15,Jits_Phase_8,114,9999,9999,9999,1827816512
11015,15,Jits_Phase_8,115,9999,9999,9999,1828616264
11015,15,Jits_Phase_8,116,9999,9999,9999,1829417040
11015,15,Jits_Phase_8,117,9999,9999,9999,1830216820
11015,15,Jits_Phase_8,118,9999,9999,9999,1831016520
11015,15,Jits_Phase_8,119,9999,9999,9999,1831816288
11015,15,Jits_Phase_8,120,9999,9999,9999,1832617028
11015,15,Jits_Phase_8,121,9999,9999,9999,1833416788
11015,15,Jits_Phase_8,122,9999,9999,9999,1834216536
11015,15,Jits_Phase_8,123,9999,9999,9999,1835016288
11015,15,Jits_Phase_8,124,9999,9999,9999,1835817052
11015,15,Jits_Phase_8,125,9999,9999,9999,1836616812
11015,15,Jits_Phase_8,126,9999,9999,9999,1837416504
11015,15,Jits_Phase_8,127,9999,9999,9999,1838216268
11015,15,Jits_Phase_8,128,9999,9999,9999,1839017072
11015,15,Jits_Phase_8,129,9999,9999,9999,1839816764
11015,15,Jits_Phase_8,130,9999,9999,9999,1840616508
11015,15,Jits_Phase_8,131,9999,9999,9999,1841577064
11015,15,Jits_Phase_8,132,9999,9999,9999,1842376760
11015,15,Jits_Phase_8,133,9999,9999,9999,1843176524
11015,15,Jits_Phase_8,134,9999,9999,9999,1843976300
11015,15,Jits_Phase_8,135,9999,9999,9999,1844777044
11015,15,Jits_Phase_8,136,9999,9999,9999,1845576800
11015,15,Jits_Phase_8,137,9999,9999,9999,1846376572
11015,15,Jits_Phase_8,138,9999,9999,9999,1847176268
11015,15,Jits_Phase_8,139,9999,9999,9999,1847977084
11015,15,Jits_Phase_8,140,9999,9999,9999,1848776776
11015,15,Jits_Phase_8,141,9999,9999,9999,1849576532
11015,15,Jits_Phase_8,142,9999,9999,9999,1850376300
11015,15,Jits_Phase_8,143,9999,9999,9999,1851177052
11015,15,Jits_Phase_8,144,9999,9999,9999,1851976824
11015,15,Jits_Phase_8,145,9999,9999,9999,1852776508
11015,15,Jits_Phase_8,146,9999,9999,9999,1853576280
11015,15,Jits_Phase_8,147,9999,9999,9999,1854377084
11015,15,Jits_Phase_8,148,9999,9999,9999,1855176760
11015,15,Jits_Phase_8,149,9999,9999,9999,1855976512
11015,15,Jits_Phase_8,150,9999,9999,9999,1856616548
11015,15,Jits_Phase_8,151,9999,9999,9999,1857416320
11015,15,Jits_Phase_8,152,9999,9999,9999,1858217064
11015,15,Jits_Phase_8,153,9999,9999,9999,1859016768
11015,15,Jits_Phase_8,154,9999,9999,9999,1859816536
11015,15,Jits_Phase_8,155,9999,9999,9999,1860616296
11015,15,Jits_Phase_8,156,9999,9999,9999,1861417068
11015,15,Jits_Phase_8,157,9999,9999,9999,1862216824
11015,15,Jits_Phase_8,158,9999,9999,9999,1863016512
11015,15,Jits_Phase_8,159,9999,9999,9999,1863816280
11015,15,Jits_Phase_8,160,9999,9999,9999,1864617028
11015,15,Jits_Phase_8,161,9999,9999,9999,1865416784
11015,15,Jits_Phase_8,162,9999,9999,9999,1866216556
11015,15,Jits_Phase_8,163,9999,9999,9999,1867016312
11015,15,Jits_Phase_8,164,9999,9999,9999,1867817068
11015,15,Jits_Phase_8,165,9999,9999,9999,1868616824
11015,15,Jits_Phase_8,166,9999,9999,9999,1869416528
11015,15,Jits_Phase_8,167,9999,9999,9999,1870216284
11015,15,Jits_Phase_8,168,9999,9999,9999,1871017028
11015,15,Jits_Phase_8,169,9999,9999,9999,1871816796
11016,19,Jits_Linear_5,0,5,56,103,1880411420
11016,19,Jits_Linear_5,1,5,63,98,1880414820
11016,19,Jits_Linear_5,2,5,80,127,1880417864
11016,19,Jits_Linear_5,0,5,56,103,1880891808
11016,19,Jits_Linear_5,1,5,63,98,1880894904
11016,19,Jits_Linear_5,2,5,80,127,1880898028
11016,19,Jits_Linear_5,0,1,48,46,1881354172
11016,19,Jits_Linear_5,1,5,56,103,1881371960
11016,19,Jits_Linear_5,2,5,80,127,1881382256
11016,19,Jits_Linear_5,3,5,63,98,1881401892
11016,19,Jits_Linear_5,0,5,63,98,1881802204
11016,19,Jits_Linear_5,1,5,80,127,1881832104
11016,19,Jits_Linear_5,2,5,56,103,1881841928
11016,19,Jits_Linear_5,3,1,48,57,1881856356
11016,19,Jits_Linear_5,0,1,48,56,1882321712
11016,19,Jits_Linear_5,1,5,80,127,1882341968
11016,19,Jits_Linear_5,2,5,56,103,1882352016
11016,19,Jits_Linear_5,3,5,63,98,1882381768
11016,19,Jits_Linear_5,0,5,63,98,1882821964
11016,19,Jits_Linear_5,1,1,48,59,1882827100
11016,19,Jits_Linear_5,2,5,56,103,1882851860
11016,19,Jits_Linear_5,3,5,80,127,1882861904
11016,19,Jits_Linear_5,0,5,56,103,1883262392
11016,19,Jits_Linear_5,1,5,63,98,1883311328
11016,19,Jits_Linear_5,2,1,48,59,1883322236
11016,19,Jits_Linear_5,3,5,80,127,1883331928
11016,19,Jits_Linear_5,0,5,80,127,1883751832
11016,19,Jits_Linear_5,1,1,48,55,1883781028
11016,19,Jits_Linear_5,2,5,63,98,1883802032
11016,19,Jits_Linear_5,3,5,56,103,1883841896
11016,19,Jits_Linear_5,0,5,56,103,1884242396
11016,19,Jits_Linear_5,1,5,63,98,1884272072
11016,19,Jits_Linear_5,2,1,48,59,1884289288
11016,19,Jits_Linear_5,3,5,80,127,1884341972
11016,19,Jits_Linear_5,0,5,56,103,1884731984
11016,19,Jits_Linear_5,1,1,48,59,1884763052
11016,19,Jits_Linear_5,2,5,80,127,1884792148
11016,19,Jits_Linear_5,3,5,63,98,1884821900
11016,19,Jits_Linear_5,0,5,56,103,1885231764
11016,19,Jits_Linear_5,1,5,63,98,1885241812
11016,19,Jits_Linear_5,2,1,48,57,1885254972
11016,19,Jits_Linear_5,3,5,80,127,1885281820
11016,19,Jits_Linear_5,0,5,63,98,1885721852
11016,19,Jits_Linear_5,1,1,48,55,1885738104
11016,19,Jits_Linear_5,2,5,80,127,1885801820
11016,19,Jits_Linear_5,3,5,56,103,1885812016
11016,19,Jits_Linear_5,0,1,48,59,1886236260
11016,19,Jits_Linear_5,1,5,63,98,1886271836
11016,19,Jits_Linear_5,2,5,56,103,1886311848
11016,19,Jits_Linear_5,3,5,80,127,1886314916
11016,19,Jits_Linear_5,0,5,56,103,1886731864
11016,19,Jits_Linear_5,1,5,63,98,1886741840
11016,19,Jits_Linear_5,2,1,48,52,1886758684
11016,19,Jits_Linear_5,3,5,80,127,1886781944
11016,19,Jits_Linear_5,0,5,56,103,1887222044
11016,19,Jits_Linear_5,1,5,63,98,1887225116
11016,19,Jits_Linear_5,2,1,48,49,1887239792
11016,19,Jits_Linear_5,3,5,80,127,1887241604
11016,19,Jits_Linear_5,0,1,48,50,1887727696
11016,19,Jits_Linear_5,1,5,80,127,1887742264
11016,19,Jits_Linear_5,2,5,56,103,1887751712
11016,19,Jits_Linear_5,3,5,63,98,1887822224
11016,19,Jits_Linear_5,0,5,63,98,1888242032
11016,19,Jits_Linear_5,1,5,56,103,1888261372
11016,19,Jits_Linear_5,2,1,48,54,1888263308
11016,19,Jits_Linear_5,3,5,80,127,1888342456
11016,19,Jits_Linear_5,0,5,56,103,1888762096
11016,19,Jits_Linear_5,1,1,48,51,1888763064
11016,19,Jits_Linear_5,2,5,80,127,1888802204
11016,19,Jits_Linear_5,3,5,63,98,1888812400
11016,19,Jits_Linear_5,0,1,48,58,1889242876
11016,19,Jits_Linear_5,1,5,80,127,1889262008
11016,19,Jits_Linear_5,2,5,63,98,1889291912
11016,19,Jits_Linear_5,3,5,56,103,1889331652
11016,19,Jits_Linear_5,0,1,48,55,1889737908
11016,19,Jits_Linear_5,1,5,56,103,1889792336
11016,19,Jits_Linear_5,2,5,63,98,1889821964
11016,19,Jits_Linear_5,3,5,80,127,1889872448
11016,19,Jits_Linear_5,0,1,48,57,1890260676
11016,19,Jits_Linear_5,1,5,80,127,1890302280
11016,19,Jits_Linear_5,2,5,56,103,1890342248
11016,19,Jits_Linear_5,3,5,63,98,1890351692
11016,19,Jits_Linear_5,0,1,48,60,1890764400
11016,19,Jits_Linear_5,1,5,80,127,1890802116
11016,19,Jits_Linear_5,2,5,63,98,1890842060
11016,19,Jits_Linear_5,3,5,56,103,1890902312
11016,19,Jits_Linear_5,0,1,48,56,1891310396
11016,19,Jits_Linear_5,1,5,56,103,1891322108
11016,19,Jits_Linear_5,2,5,80,127,1891331408
11016,19,Jits_Linear_5,3,5,63,98,1891412260
11016,19,Jits_Linear_5,0,1,48,59,1891827080
11016,19,Jits_Linear_5,1,5,80,127,1891842548
11016,19,Jits_Linear_5,2,5,63,98,1891901768
11016,19,Jits_Linear_5,3,5,56,103,1891931728
11016,19,Jits_Linear_5,0,5,56,103,1892361800
11016,19,Jits_Linear_5,1,1,48,60,1892378544
11016,19,Jits_Linear_5,2,5,80,127,1892422064
11016,19,Jits_Linear_5,3,5,63,98,1892461852
11016,19,Jits_Linear_5,0,1,48,57,1892873828
11016,19,Jits_Linear_5,1,5,56,103,1892942140
11016,19,Jits_Linear_5,2,5,63,98,1892952860
11016,19,Jits_Linear_5,3,5,80,127,1892955992
11016,19,Jits_Linear_5,0,1,48,59,1893418180
11016,19,Jits_Linear_5,1,5,80,127,1893421436
11016,19,Jits_Linear_5,2,5,63,98,1893511632
11016,19,Jits_Linear_5,3,5,56,103,1893521756
11016,19,Jits_Linear_5,0,5,56,103,1893951908
11016,19,Jits_Linear_5,1,5,63,98,1893955004
11016,19,Jits_Linear_5,2,5,80,127,1893958204
11016,19,Jits_Linear_5,3,1,48,57,1893961940
11016,19,Jits_Linear_5,0,1,48,60,1894476440
11016,19,Jits_Linear_5,1,5,80,127,1894501796
11016,19,Jits_Linear_5,2,5,63,98,1894551928
11016,19,Jits_Linear_5,3,5,56,103,1894581664
11016,19,Jits_Linear_5,0,1,48,57,1895008192
11016,19,Jits_Linear_5,1,5,56,103,1895011752
11016,19,Jits_Linear_5,2,5,80,127,1895021948
11016,19,Jits_Linear_5,3,5,63,98,1895091628
11016,19,Jits_Linear_5,0,1,48,53,1895539124
11016,19,Jits_Linear_5,1,5,56,103,1895552272
11016,19,Jits_Linear_5,2,5,63,98,1895571836
11016,19,Jits_Linear_5,3,5,80,127,1895632228
11016,19,Jits_Linear_5,0,1,48,55,1896050584
11016,19,Jits_Linear_5,1,5,80,127,1896081632
11016,19,Jits_Linear_5,2,5,63,98,1896152572
11016,19,Jits_Linear_5,3,5,56,103,1896171760
11016,19,Jits_Linear_5,0,1,48,60,1896578580
11016,19,Jits_Linear_5,1,5,80,127,1896641852
11016,19,Jits_Linear_5,2,5,56,103,1896652124
11016,19,Jits_Linear_5,3,5,63,98,1896662320
11016,19,Jits_Linear_5,0,1,48,59,1897143904
11016,19,Jits_Linear_5,1,5,80,127,1897172476
11016,19,Jits_Linear_5,2,5,56,103,1897191668
11016,19,Jits_Linear_5,3,5,63,98,1897261512
11016,19,Jits_Linear_5,0,1,48,58,1897697008
11016,19,Jits_Linear_5,1,5,56,103,1897722368
11016,19,Jits_Linear_5,2,5,80,127,1897751896
11016,19,Jits_Linear_5,3,5,63,98,1897772828
11016,19,Jits_Linear_5,0,1,48,56,1898237232
11016,19,Jits_Linear_5,1,5,63,98,1898261840
11016,19,Jits_Linear_5,2,5,56,103,1898322480
11016,19,Jits_Linear_5,3,5,80,127,1898351920
11016,19,Jits_Linear_5,0,5,63,98,1898801716
11016,19,Jits_Linear_5,1,5,80,127,1898805080
11016,19,Jits_Linear_5,2,1,48,53,1898812484
11016,19,Jits_Linear_5,3,5,56,103,1898891696
11016,19,Jits_Linear_5,0,1,48,52,1899346164
11016,19,Jits_Linear_5,1,5,56,103,1899371820
11016,19,Jits_Linear_5,2,5,63,98,1899401496
11016,19,Jits_Linear_5,3,5,80,127,1899441732
11016,19,Jits_Linear_5,0,1,48,55,1899904072
11016,19,Jits_Linear_5,1,5,63,98,1899921704
11016,19,Jits_Linear_5,2,5,56,103,1899961648
11016,19,Jits_Linear_5,3,5,80,127,1899982180
11016,19,Jits_Linear_5,0,1,48,57,1900476432
11016,19,Jits_Linear_5,1,5,63,98,1900481784
11016,19,Jits_Linear_5,2,5,56,103,1900521872
11016,19,Jits_Linear_5,3,5,80,127,1900532068
11016,19,Jits_Linear_5,0,5,80,127,1901012496
11016,19,Jits_Linear_5,1,1,48,55,1901024156
11016,19,Jits_Linear_5,2,5,63,98,1901082024
11016,19,Jits_Linear_5,3,5,56,103,1901101436
11016,19,Jits_Linear_5,0,5,56,103,1901562216
11016,19,Jits_Linear_5,1,5,80,127,1901581628
11016,19,Jits_Linear_5,2,1,48,53,1901601260
11016,19,Jits_Linear_5,3,5,63,98,1901621736
11016,19,Jits_Linear_5,0,1,48,58,1902121696
11016,19,Jits_Linear_5,1,5,63,98,1902131684
11016,19,Jits_Linear_5,2,5,80,127,1902151996
11016,19,Jits_Linear_5,3,5,56,103,1902191864
11016,19,Jits_Linear_5,0,1,48,57,1902653216
11016,19,Jits_Linear_5,1,5,63,98,1902691832
11016,19,Jits_Linear_5,2,5,56,103,1902712220
11016,19,Jits_Linear_5,3,5,80,127,1902722788
11016,19,Jits_Linear_5,0,1,48,53,1903174028
11016,19,Jits_Linear_5,1,5,80,127,1903252052
11016,19,Jits_Linear_5,2,5,56,103,1903273096
11016,19,Jits_Linear_5,3,5,63,98,1903302024
11016,19,Jits_Linear_5,0,1,48,58,1903774936
11016,19,Jits_Linear_5,1,5,56,103,1903891756
11016,19,Jits_Linear_5,2,5,80,127,1903895044
11016,19,Jits_Linear_5,3,5,63,98,1903912540
11016,19,Jits_Linear_5,0,1,48,54,1904356956
11016,19,Jits_Linear_5,1,5,63,98,1904382536
11016,19,Jits_Linear_5,2,5,56,103,1904412064
11016,19,Jits_Linear_5,3,5,80,127,1904472592
11016,19,Jits_Linear_5,0,1,48,58,1904940868
11016,19,Jits_Linear_5,1,5,63,98,1905031552
11016,19,Jits_Linear_5,2,5,56,103,1905041880
11016,19,Jits_Linear_5,3,5,80,127,1905052228
11016,19,Jits_Linear_5,0,1,48,55,1905531736
11016,19,Jits_Linear_5,1,5,56,103,1905551768
11016,19,Jits_Linear_5,2,5,80,127,1905581520
11016,19,Jits_Linear_5,3,5,63,98,1905591792
11016,19,Jits_Linear_5,0,1,48,51,1906130924
11016,19,Jits_Linear_5,1,5,63,98,1906172456
11016,19,Jits_Linear_5,2,5,56,103,1906181680
11016,19,Jits_Linear_5,3,5,80,127,1906202064
11016,19,Jits_Linear_5,0,5,56,103,1906671904
11016,19,Jits_Linear_5,1,1,48,58,1906717004
11016,19,Jits_Linear_5,2,5,63,98,1906732540
11016,19,Jits_Linear_5,3,5,80,127,1906735828
11016,19,Jits_Linear_5,0,5,80,127,1907272020
11016,19,Jits_Linear_5,1,1,48,57,1907273136
11016,19,Jits_Linear_5,2,5,56,103,1907282656
11016,19,Jits_Linear_5,3,5,63,98,1907351892
11016,19,Jits_Linear_5,0,5,80,127,1907842592
11016,19,Jits_Linear_5,1,1,48,53,1907860404
11016,19,Jits_Linear_5,2,5,56,103,1907911900
11016,19,Jits_Linear_5,3,5,63,98,1907922468
11016,19,Jits_Linear_5,0,1,48,58,1908440572
11016,19,Jits_Linear_5,1,5,63,98,1908461872
11016,19,Jits_Linear_5,2,5,56,103,1908472216
11016,19,Jits_Linear_5,3,5,80,127,1908491556
11016,19,Jits_Linear_5,0,5,80,127,1908992580
11016,19,Jits_Linear_5,1,1,48,59,1909016224
11016,19,Jits_Linear_5,2,5,63,98,1909051796
11016,19,Jits_Linear_5,3,5,56,103,1909091736
11016,19,Jits_Linear_5,0,1,48,49,1909580240
11016,19,Jits_Linear_5,1,5,56,103,1909622216
11016,19,Jits_Linear_5,2,5,63,98,1909632560
11016,19,Jits_Linear_5,3,5,80,127,1909672500
11016,19,Jits_Linear_5,0,5,56,103,1910171884
11016,19,Jits_Linear_5,1,1,48,57,1910174624
11016,19,Jits_Linear_5,2,5,80,127,1910201704
11016,19,Jits_Linear_5,3,5,63,98,1910251832
11016,19,Jits_Linear_5,0,1,48,53,1910778084
11016,19,Jits_Linear_5,1,5,56,103,1910801720
11016,19,Jits_Linear_5,2,5,63,98,1910841756
11016,19,Jits_Linear_5,3,5,80,127,1910845196
11016,19,Jits_Linear_5,0,1,48,49,1911365676
11016,19,Jits_Linear_5,1,5,56,103,1911391556
11016,19,Jits_Linear_5,2,5,63,98,1911401976
11016,19,Jits_Linear_5,3,5,80,127,1911422512
11016,19,Jits_Linear_5,0,1,48,47,1911930476
11016,19,Jits_Linear_5,1,5,56,103,1911941588
11016,19,Jits_Linear_5,2,5,80,127,1911944504
11016,19,Jits_Linear_5,3,5,63,98,1911981452
11016,19,Jits_Linear_5,0,1,48,53,1912469316
11016,19,Jits_Linear_5,1,5,63,98,1912572436
11016,19,Jits_Linear_5,2,5,56,103,1912601892
11016,19,Jits_Linear_5,3,5,80,127,1912621476
11016,19,Jits_Linear_5,0,1,48,54,1913111152
11016,19,Jits_Linear_5,1,5,80,127,1913141696
11016,19,Jits_Linear_5,2,5,56,103,1913151744
11016,19,Jits_Linear_5,3,5,63,98,1913162236
11016,19,Jits_Linear_5,0,1,48,52,1913688016
11016,19,Jits_Linear_5,1,5,56,103,1913741700
11016,19,Jits_Linear_5,2,5,80,127,1913781492
11016,19,Jits_Linear_5,3,5,63,98,1913812424
11016,19,Jits_Linear_5,0,1,48,53,1914284804
11016,19,Jits_Linear_5,1,5,63,98,1914351968
11016,19,Jits_Linear_5,2,5,80,127,1914362468
11016,19,Jits_Linear_5,3,5,56,103,1914371392
11016,19,Jits_Linear_5,0,1,48,51,1914900632
11016,19,Jits_Linear_5,1,5,56,103,1914931468
11016,19,Jits_Linear_5,2,5,63,98,1915002260
11016,19,Jits_Linear_5,3,5,80,127,1915011412
11016,19,Jits_Linear_5,0,1,48,57,1915533096
11016,19,Jits_Linear_5,1,5,80,127,1915541816
11016,19,Jits_Linear_5,2,5,56,103,1915552384
11016,19,Jits_Linear_5,3,5,63,98,1915602512
11016,19,Jits_Linear_5,0,5,80,127,1916162504
11016,19,Jits_Linear_5,1,1,48,54,1916184280
11016,19,Jits_Linear_5,2,5,56,103,1916221720
11016,19,Jits_Linear_5,3,5,63,98,1916251620
11016,19,Jits_Linear_5,0,5,56,103,1916771540
11016,19,Jits_Linear_5,1,5,80,127,1916774760
11016,19,Jits_Linear_5,2,1,48,51,1916808520
11016,19,Jits_Linear_5,3,5,63,98,1916811776
11016,19,Jits_Linear_5,0,1,48,52,1917363284
11016,19,Jits_Linear_5,1,5,56,103,1917411560
11016,19,Jits_Linear_5,2,5,63,98,1917442360
11016,19,Jits_Linear_5,3,5,80,127,1917451508
11016,19,Jits_Linear_5,0,1,48,51,1917986304
11016,19,Jits_Linear_5,1,5,63,98,1918032192
11016,19,Jits_Linear_5,2,5,80,127,1918041416
11016,19,Jits_Linear_5,3,5,56,103,1918051760
11016,19,Jits_Linear_5,0,5,80,127,1918592272
11016,19,Jits_Linear_5,1,5,56,103,1918641652
11016,19,Jits_Linear_5,2,1,48,53,1918643760
11016,19,Jits_Linear_5,3,5,63,98,1918645904
11016,19,Jits_Linear_5,0,5,56,103,1919241656
11016,19,Jits_Linear_5,1,1,48,54,1919258476
11016,19,Jits_Linear_5,2,5,80,127,1919262208
11016,19,Jits_Linear_5,3,5,63,98,1919272408
11016,19,Jits_Linear_5,0,5,63,98,1919841552
11016,19,Jits_Linear_5,1,1,48,45,1919842516
11016,19,Jits_Linear_5,2,5,56,103,1919872492
11016,19,Jits_Linear_5,3,5,80,127,1919891680
11016,19,Jits_Linear_5,0,1,48,56,1920434924
11016,19,Jits_Linear_5,1,5,56,103,1920472416
11016,19,Jits_Linear_5,2,5,80,127,1920481640
11016,19,Jits_Linear_5,3,5,63,98,1920552528
11016,19,Jits_Linear_5,0,5,63,98,1921081596
11016,19,Jits_Linear_5,1,1,48,59,1921111172
11016,19,Jits_Linear_5,2,5,80,127,1921121680
11016,19,Jits_Linear_5,3,5,56,103,1921161692
11016,19,Jits_Linear_5,0,5,56,103,1921721616
11016,19,Jits_Linear_5,1,1,48,53,1921727724
11016,19,Jits_Linear_5,2,5,63,98,1921732028
11016,19,Jits_Linear_5,3,5,80,127,1921752560
11016,19,Jits_Linear_5,0,1,48,52,1922310132
11016,19,Jits_Linear_5,1,5,63,98,1922392452
11016,19,Jits_Linear_5,2,5,80,127,1922411776
11016,19,Jits_Linear_5,3,5,56,103,1922432384
11016,19,Jits_Linear_5,0,5,56,103,1922961748
11016,19,Jits_Linear_5,1,1,48,55,1922974980
11016,19,Jits_Linear_5,2,5,80,127,1923041540
11016,19,Jits_Linear_5,3,5,63,98,1923052036
11016,19,Jits_Linear_5,0,1,48,50,1923604288
11016,19,Jits_Linear_5,1,5,80,127,1923631544
11016,19,Jits_Linear_5,2,5,63,98,1923641664
11016,19,Jits_Linear_5,3,5,56,103,1923672460
11016,19,Jits_Linear_5,0,5,63,98,1924222416
11016,19,Jits_Linear_5,1,1,48,50,1924250116
11016,19,Jits_Linear_5,2,5,80,127,1924262348
11016,19,Jits_Linear_5,3,5,56,103,1924321692
11016,19,Jits_Linear_5,0,5,63,98,1924862280
11016,19,Jits_Linear_5,1,1,48,48,1924888992
11016,19,Jits_Linear_5,2,5,56,103,1924911456
11016,19,Jits_Linear_5,3,5,80,127,1924942328
11016,19,Jits_Linear_5,0,5,80,127,1925511684
11016,19,Jits_Linear_5,1,1,48,43,1925514284
11016,19,Jits_Linear_5,2,5,63,98,1925521652
11016,19,Jits_Linear_5,3,5,56,103,1925592308
11016,19,Jits_Linear_5,0,1,48,51,1926164864
11016,19,Jits_Linear_5,1,5,80,127,1926222160
11016,19,Jits_Linear_5,2,5,56,103,1926232580
11016,19,Jits_Linear_5,3,5,63,98,1926235644
11016,19,Jits_Linear_5,0,5,56,103,1926801640
11016,19,Jits_Linear_5,1,5,80,127,1926822400
11016,19,Jits_Linear_5,2,5,63,98,1926831400
11016,19,Jits_Linear_5,3,1,48,53,1926856988
11016,19,Jits_Linear_5,0,5,63,98,1927452252
11016,19,Jits_Linear_5,1,1,48,56,1927459560
11016,19,Jits_Linear_5,2,5,56,103,1927491892
11016,19,Jits_Linear_5,3,5,80,127,1927512496
11016,19,Jits_Linear_5,0,1,48,56,1928077020
11016,19,Jits_Linear_5,1,5,63,98,1928102304
11016,19,Jits_Linear_5,2,5,56,103,1928161576
11016,19,Jits_Linear_5,3,5,80,127,1928164568
11016,19,Jits_Linear_5,0,5,56,103,1928711528
11016,19,Jits_Linear_5,1,1,48,62,1928727224
11016,19,Jits_Linear_5,2,5,80,127,1928732080
11016,19,Jits_Linear_5,3,5,63,98,1928772020
11016,19,Jits_Linear_5,0,1,48,60,1929360312
11016,19,Jits_Linear_5,1,5,56,103,1929391432
11016,19,Jits_Linear_5,2,5,63,98,1929412116
11016,19,Jits_Linear_5,3,5,80,127,1929422088
11016,19,Jits_Linear_5,0,5,80,127,1930012148
11016,19,Jits_Linear_5,1,1,48,59,1930040544
11016,19,Jits_Linear_5,2,5,56,103,1930042188
11016,19,Jits_Linear_5,3,5,63,98,1930081608
11016,19,Jits_Linear_5,0,5,80,127,1930671432
11016,19,Jits_Linear_5,1,1,48,61,1930689372
11016,19,Jits_Linear_5,2,5,56,103,1930692108
11016,19,Jits_Linear_5,3,5,63,98,1930752500
11016,19,Jits_Linear_5,0,1,48,56,1931331784
11016,19,Jits_Linear_5,1,5,56,103,1931333196
11016,19,Jits_Linear_5,2,5,80,127,1931352536
11016,19,Jits_Linear_5,3,5,63,98,1931411956
11016,19,Jits_Linear_5,0,5,80,127,1931971948
11016,19,Jits_Linear_5,1,5,56,103,1931982144
11016,19,Jits_Linear_5,2,1,48,57,1931986756
11016,19,Jits_Linear_5,3,5,63,98,1932022152
11016,19,Jits_Linear_5,0,1,48,54,1932622304
11016,19,Jits_Linear_5,1,5,63,98,1932632368
11016,19,Jits_Linear_5,2,5,56,103,1932672304
11016,19,Jits_Linear_5,3,5,80,127,1932675296
11016,19,Jits_Linear_5,0,1,48,49,1933290180
11016,19,Jits_Linear_5,1,5,63,98,1933312452
11016,19,Jits_Linear_5,2,5,80,127,1933352420
11016,19,Jits_Linear_5,3,5,56,103,1933382244
11016,19,Jits_Linear_5,0,1,48,59,1933956880
11016,19,Jits_Linear_5,1,5,56,103,1933961636
11016,19,Jits_Linear_5,2,5,63,98,1933971760
11016,19,Jits_Linear_5,3,5,80,127,1934001512
11016,19,Jits_Linear_5,0,1,48,59,1934591064
11016,19,Jits_Linear_5,1,5,80,127,1934622052
11016,19,Jits_Linear_5,2,5,63,98,1934691648
11016,19,Jits_Linear_5,3,5,56,103,1934702216
11016,19,Jits_Linear_5,0,5,63,98,1935291896
11016,19,Jits_Linear_5,1,1,48,55,1935296660
11016,19,Jits_Linear_5,2,5,56,103,1935362396
11016,19,Jits_Linear_5,3,5,80,127,1935371548
11016,19,Jits_Linear_5,0,5,63,98,1935961532
11016,19,Jits_Linear_5,1,1,48,51,1935978128
11016,19,Jits_Linear_5,2,5,56,103,1935982060
11016,19,Jits_Linear_5,3,5,80,127,1936022148
11016,19,Jits_Linear_5,0,5,56,103,1936642376
11016,19,Jits_Linear_5,1,5,63,98,1936651748
11016,19,Jits_Linear_5,2,1,48,54,1936659748
11016,19,Jits_Linear_5,3,5,80,127,1936731492
11016,19,Jits_Linear_5,0,5,63,98,1937301984
11016,19,Jits_Linear_5,1,5,56,103,1937331512
11016,19,Jits_Linear_5,2,1,48,57,1937338292
11016,19,Jits_Linear_5,3,5,80,127,1937371444
11016,19,Jits_Linear_5,0,5,56,103,1937971684
11016,19,Jits_Linear_5,1,5,63,98,1938011404
11016,19,Jits_Linear_5,2,1,48,55,1938012368
11016,19,Jits_Linear_5,3,5,80,127,1938051556
11016,19,Jits_Linear_5,0,5,80,127,1938651568
11016,19,Jits_Linear_5,1,1,48,56,1938674916
11016,19,Jits_Linear_5,2,5,56,103,1938732360
11016,19,Jits_Linear_5,3,5,63,98,1938741584
11016,19,Jits_Linear_5,0,5,56,103,1939372308
11016,19,Jits_Linear_5,1,5,63,98,1939375456
11016,19,Jits_Linear_5,2,5,80,127,1939382208
11016,19,Jits_Linear_5,3,1,48,53,1939392300
11016,19,Jits_Linear_5,0,5,56,103,1940072072
11016,19,Jits_Linear_5,1,1,48,52,1940088372
11016,19,Jits_Linear_5,2,5,63,98,1940092228
11016,19,Jits_Linear_5,3,5,80,127,1940101452
11016,19,Jits_Linear_5,0,5,63,98,1940712028
11016,19,Jits_Linear_5,1,5,80,127,1940722148
11016,19,Jits_Linear_5,2,5,56,103,1940741416
11016,19,Jits_Linear_5,3,1,48,64,1940787852
11016,19,Jits_Linear_5,0,1,48,61,1941395036
11016,19,Jits_Linear_5,1,5,63,98,1941402180
11016,19,Jits_Linear_5,2,5,56,103,1941481980
11016,19,Jits_Linear_5,3,5,80,127,1941484896
11016,19,Jits_Linear_5,0,5,63,98,1942092272
11016,19,Jits_Linear_5,1,1,48,60,1942108648
11016,19,Jits_Linear_5,2,5,56,103,1942111528
11016,19,Jits_Linear_5,3,5,80,127,1942142176
11016,19,Jits_Linear_5,0,5,56,103,1942782260
11016,19,Jits_Linear_5,1,5,63,98,1942801896
11016,19,Jits_Linear_5,2,5,80,127,1942812044
11016,19,Jits_Linear_5,3,1,48,62,1942827668
11016,19,Jits_Linear_5,0,1,48,60,1943458908
11016,19,Jits_Linear_5,1,5,56,103,1943502172
11016,19,Jits_Linear_5,2,5,63,98,1943532148
11016,19,Jits_Linear_5,3,5,80,127,1943535284
11016,19,Jits_Linear_5,0,5,56,103,1944142060
11016,19,Jits_Linear_5,1,5,63,98,1944182076
11016,19,Jits_Linear_5,2,1,48,56,1944187064
11016,19,Jits_Linear_5,3,5,80,127,1944241712
11016,19,Jits_Linear_5,0,1,48,57,1944843496
11016,19,Jits_Linear_5,1,5,56,103,1944851912
11016,19,Jits_Linear_5,2,5,63,98,1944862132
11016,19,Jits_Linear_5,3,5,80,127,1944921480
11016,19,Jits_Linear_5,0,1,48,55,1945508468
11016,19,Jits_Linear_5,1,5,56,103,1945552336
11016,19,Jits_Linear_5,2,5,80,127,1945571824
11016,19,Jits_Linear_5,3,5,63,98,1945602472
11016,19,Jits_Linear_5,0,1,48,56,1946230712
11016,19,Jits_Linear_5,1,5,80,127,1946251568
11016,19,Jits_Linear_5,2,5,56,103,1946262060
11016,19,Jits_Linear_5,3,5,63,98,1946282224
11016,19,Jits_Linear_5,0,1,48,53,1946912780
11016,19,Jits_Linear_5,1,5,63,98,1946942020
11016,19,Jits_Linear_5,2,5,80,127,1947022180
11016,19,Jits_Linear_5,3,5,56,103,1947032076
11016,19,Jits_Linear_5,0,1,48,59,1947628300
11016,19,Jits_Linear_5,1,5,80,127,1947701788
11016,19,Jits_Linear_5,2,5,56,103,1947722004
11016,19,Jits_Linear_5,3,5,63,98,1947725148
11016,19,Jits_Linear_5,0,1,48,55,1948353612
11016,19,Jits_Linear_5,1,5,63,98,1948381732
11016,19,Jits_Linear_5,2,5,80,127,1948384944
11016,19,Jits_Linear_5,3,5,56,103,1948442296
11016,19,Jits_Linear_5,0,5,56,103,1949071816
11016,19,Jits_Linear_5,1,5,80,127,1949081940
11016,19,Jits_Linear_5,2,1,48,56,1949089692
11016,19,Jits_Linear_5,3,5,63,98,1949121872
11016,19,Jits_Linear_5,0,5,56,103,1949761844
11016,19,Jits_Linear_5,1,1,48,57,1949762808
11016,19,Jits_Linear_5,2,5,63,98,1949822304
11016,19,Jits_Linear_5,3,5,80,127,1949831676
11016,19,Jits_Linear_5,0,1,48,46,1950478624
11016,19,Jits_Linear_5,1,5,63,98,1950482028
11016,19,Jits_Linear_5,2,5,80,127,1950521844
11016,19,Jits_Linear_5,3,5,56,103,1950561784
11016,19,Jits_Linear_5,0,1,48,48,1951183328
11016,19,Jits_Linear_5,1,5,56,103,1951192348
11016,19,Jits_Linear_5,2,5,63,98,1951272320
11016,19,Jits_Linear_5,3,5,80,127,1951275684
11016,19,Jits_Linear_5,0,1,48,51,1951920988
11016,19,Jits_Linear_5,1,5,80,127,1951961400
11016,19,Jits_Linear_5,2,5,56,103,1951992120
11016,19,Jits_Linear_5,3,5,63,98,1951995264
11016,19,Jits_Linear_5,0,5,56,103,1952642568
11016,19,Jits_Linear_5,1,5,80,127,1952662056
11016,19,Jits_Linear_5,2,5,63,98,1952701920
11016,19,Jits_Linear_5,3,1,48,56,1952714404
11016,19,Jits_Linear_5,0,5,80,127,1953341960
11016,19,Jits_Linear_5,1,5,63,98,1953362272
11016,19,Jits_Linear_5,2,5,56,103,1953421916
11016,19,Jits_Linear_5,3,1,48,56,1953429296
11016,19,Jits_Linear_5,0,5,63,98,1954072044
11016,19,Jits_Linear_5,1,5,56,103,1954082192
11016,19,Jits_Linear_5,2,1,48,54,1954108004
11016,19,Jits_Linear_5,3,5,80,127,1954132312
11016,19,Jits_Linear_5,0,5,56,103,1954781756
11016,19,Jits_Linear_5,1,1,48,56,1954792748
11016,19,Jits_Linear_5,2,5,63,98,1954801988
11016,19,Jits_Linear_5,3,5,80,127,1954812260
11016,19,Jits_Linear_5,0,1,48,55,1955495420
11016,19,Jits_Linear_5,1,5,56,103,1955501516
11016,19,Jits_Linear_5,2,5,63,98,1955504584
11016,19,Jits_Linear_5,3,5,80,127,1955521976
11016,19,Jits_Linear_5,0,1,48,55,1956202728
11016,19,Jits_Linear_5,1,5,63,98,1956271608
11016,19,Jits_Linear_5,2,5,56,103,1956302168
11016,19,Jits_Linear_5,3,5,80,127,1956331844
11016,19,Jits_Linear_5,0,5,80,127,1956961776
11016,19,Jits_Linear_5,1,1,48,41,1956964148
11016,19,Jits_Linear_5,2,5,56,103,1957051980
11016,19,Jits_Linear_5,3,5,63,98,1957054900
11016,19,Jits_Linear_5,0,1,48,57,1957688544
11016,19,Jits_Linear_5,1,5,56,103,1957691800
11016,19,Jits_Linear_5,2,5,80,127,1957695164
11016,19,Jits_Linear_5,3,5,63,98,1957771744
11016,19,Jits_Linear_5,0,5,80,127,1958422012
11016,19,Jits_Linear_5,1,1,48,56,1958440524
11016,19,Jits_Linear_5,2,5,63,98,1958482276
11016,19,Jits_Linear_5,3,5,56,103,1958512100
11016,19,Jits_Linear_5,0,5,63,98,1959151972
11016,19,Jits_Linear_5,1,5,80,127,1959162168
11016,19,Jits_Linear_5,2,1,48,56,1959178840
11016,19,Jits_Linear_5,3,5,56,103,1959231796
11016,19,Jits_Linear_5,0,1,48,56,1959890872
11016,19,Jits_Linear_5,1,5,56,103,1959901536
11016,19,Jits_Linear_5,2,5,80,127,1959932260
11016,19,Jits_Linear_5,3,5,63,98,1959981816
11016,19,Jits_Linear_5,0,1,48,57,1960635724
11016,19,Jits_Linear_5,1,5,63,98,1960681832
11016,19,Jits_Linear_5,2,5,56,103,1960711732
11016,19,Jits_Linear_5,3,5,80,127,1960714648
11016,19,Jits_Linear_5,0,1,48,57,1961381004
11016,19,Jits_Linear_5,1,5,63,98,1961422160
11016,19,Jits_Linear_5,2,5,80,127,1961441648
11016,19,Jits_Linear_5,3,5,56,103,1961451992
11016,19,Jits_Linear_5,0,1,48,57,1962142120
11016,19,Jits_Linear_5,1,5,56,103,1962171740
11016,19,Jits_Linear_5,2,5,63,98,1962174876
11016,19,Jits_Linear_5,3,5,80,127,1962192348
11016,19,Jits_Linear_5,0,1,48,57,1962865008
11016,19,Jits_Linear_5,1,5,56,103,1962872080
11016,19,Jits_Linear_5,2,5,63,98,1962882652
11016,19,Jits_Linear_5,3,5,80,127,1962912176
11016,19,Jits_Linear_5,0,1,48,48,1963581540
11016,19,Jits_Linear_5,1,5,63,98,1963642100
11016,19,Jits_Linear_5,2,5,80,127,1963661664
11016,19,Jits_Linear_5,3,5,56,103,1963701588
11016,19,Jits_Linear_5,0,1,48,57,1964387672
11016,19,Jits_Linear_5,1,5,56,103,1964421720
11016,19,Jits_Linear_5,2,5,63,98,1964461436
11016,19,Jits_Linear_5,3,5,80,127,1964464652
11016,19,Jits_Linear_5,0,5,80,127,1965111808
11016,19,Jits_Linear_5,1,5,56,103,1965151524
11016,19,Jits_Linear_5,2,1,48,53,1965183636
11016,19,Jits_Linear_5,3,5,63,98,1965201796
11016,19,Jits_Linear_5,0,1,48,55,1965899792
11016,19,Jits_Linear_5,1,5,56,103,1965921780
11016,19,Jits_Linear_5,2,5,80,127,1965931832
11016,19,Jits_Linear_5,3,5,63,98,1965961580
11016,19,Jits_Linear_5,0,5,56,103,1966622216
11016,19,Jits_Linear_5,1,1,48,53,1966644592
11016,19,Jits_Linear_5,2,5,80,127,1966661928
11016,19,Jits_Linear_5,3,5,63,98,1966712132
11016,19,Jits_Linear_5,0,5,56,103,1967381820
11016,19,Jits_Linear_5,1,1,48,47,1967384336
11016,19,Jits_Linear_5,2,5,80,127,1967421780
11016,19,Jits_Linear_5,3,5,63,98,1967472132
11016,19,Jits_Linear_5,0,1,48,49,1968095332
11016,19,Jits_Linear_5,1,5,80,127,1968131624
11016,19,Jits_Linear_5,2,5,63,98,1968212632
11016,19,Jits_Linear_5,3,5,56,103,1968221632
11016,19,Jits_Linear_5,0,1,48,48,1968875776
11016,19,Jits_Linear_5,1,5,80,127,1968941688
11016,19,Jits_Linear_5,2,5,56,103,1968951736
11016,19,Jits_Linear_5,3,5,63,98,1968972032
11016,19,Jits_Linear_5,0,1,48,49,1969650228
11016,19,Jits_Linear_5,1,5,63,98,1969671604
11016,19,Jits_Linear_5,2,5,56,103,1969742360
11016,19,Jits_Linear_5,3,5,80,127,1969745204
11016,19,Jits_Linear_5,0,5,80,127,1970432492
11016,19,Jits_Linear_5,1,5,63,98,1970481452
11016,19,Jits_Linear_5,2,1,48,48,1970484940
11016,19,Jits_Linear_5,3,5,56,103,1970521384
11016,19,Jits_Linear_5,0,5,63,98,1971242568
11016,19,Jits_Linear_5,1,1,48,50,1971243536
11016,19,Jits_Linear_5,2,5,56,103,1971282800
11016,19,Jits_Linear_5,3,5,80,127,1971291504
11016,19,Jits_Linear_5,0,1,48,56,1971993236
11016,19,Jits_Linear_5,1,5,63,98,1972002032
11016,19,Jits_Linear_5,2,5,56,103,1972021516
11016,19,Jits_Linear_5,3,5,80,127,1972042128
11016,19,Jits_Linear_5,0,5,80,127,1972732480
11016,19,Jits_Linear_5,1,1,48,55,1972737764
11016,19,Jits_Linear_5,2,5,56,103,1972741472
11016,19,Jits_Linear_5,3,5,63,98,1972762032
11016,19,Jits_Linear_5,0,1,48,56,1973494840
11016,19,Jits_Linear_5,1,5,63,98,1973531980
11016,19,Jits_Linear_5,2,5,56,103,1973571844
11016,19,Jits_Linear_5,3,5,80,127,1973601580
11016,19,Jits_Linear_5,0,1,48,53,1974260524
11016,19,Jits_Linear_5,1,5,56,103,1974312492
11016,19,Jits_Linear_5,2,5,63,98,1974342024
11016,19,Jits_Linear_5,3,5,80,127,1974371684
11016,19,Jits_Linear_5,0,1,48,58,1975035416
11016,19,Jits_Linear_5,1,5,80,127,1975061820
11016,19,Jits_Linear_5,2,5,56,103,1975132276
11016,19,Jits_Linear_5,3,5,63,98,1975135100
11016,19,Jits_Linear_5,0,1,48,54,1975813236
11016,19,Jits_Linear_5,1,5,56,103,1975852616
11016,19,Jits_Linear_5,2,5,63,98,1975901552
11016,19,Jits_Linear_5,3,5,80,127,1975932408
11016,19,Jits_Linear_5,0,1,48,52,1976573740
11016,19,Jits_Linear_5,1,5,63,98,1976612304
11016,19,Jits_Linear_5,2,5,80,127,1976615740
11016,19,Jits_Linear_5,3,5,56,103,1976671632
11016,19,Jits_Linear_5,0,1,48,50,1977355136
11016,19,Jits_Linear_5,1,5,56,103,1977422476
11016,19,Jits_Linear_5,2,5,80,127,1977432300
11016,19,Jits_Linear_5,3,5,63,98,1977481516
11016,19,Jits_Linear_5,0,1,48,56,1978116472
11016,19,Jits_Linear_5,1,5,63,98,1978181864
11016,19,Jits_Linear_5,2,5,56,103,1978192436
11016,19,Jits_Linear_5,3,5,80,127,1978221872
11016,19,Jits_Linear_5,0,1,48,52,1978895860
11016,19,Jits_Linear_5,1,5,63,98,1979002364
11016,19,Jits_Linear_5,2,5,80,127,1979005580
11016,19,Jits_Linear_5,3,5,56,103,1979031820
11016,19,Jits_Linear_5,0,1,48,54,1979619872
11016,19,Jits_Linear_5,1,5,63,98,1979812164
11016,19,Jits_Linear_5,2,5,56,103,1979831648
11016,19,Jits_Linear_5,3,5,80,127,1979834716
11016,19,Jits_Linear_5,0,1,48,53,1980521256
11016,19,Jits_Linear_5,1,5,63,98,1980561668
11016,19,Jits_Linear_5,2,5,56,103,1980632456
11016,19,Jits_Linear_5,3,5,80,127,1980651872
11016,19,Jits_Linear_5,0,5,56,103,1981342264
11016,19,Jits_Linear_5,1,5,63,98,1981352684
11016,19,Jits_Linear_5,2,1,48,51,1981382404
11016,19,Jits_Linear_5,3,5,80,127,1981442364
11016,19,Jits_Linear_5,0,1,48,56,1982142472
11016,19,Jits_Linear_5,1,5,56,103,1982152156
11016,19,Jits_Linear_5,2,5,80,127,1982191876
11016,19,Jits_Linear_5,3,5,63,98,1982202444
11016,19,Jits_Linear_5,0,1,48,53,1982968152
11016,19,Jits_Linear_5,1,5,56,103,1982972532
11016,19,Jits_Linear_5,2,5,63,98,1983002084
11016,19,Jits_Linear_5,3,5,80,127,1983031688
11016,19,Jits_Linear_5,0,5,80,127,1983732304
11016,19,Jits_Linear_5,1,1,48,55,1983763748
11016,19,Jits_Linear_5,2,5,63,98,1983771964
11016,19,Jits_Linear_5,3,5,56,103,1983791376
11016,19,Jits_Linear_5,0,1,48,47,1984518032
11016,19,Jits_Linear_5,1,5,56,103,1984571892
11016,19,Jits_Linear_5,2,5,80,127,1984592352
11016,19,Jits_Linear_5,3,5,63,98,1984611836
11016,19,Jits_Linear_5,0,1,48,53,1985301784
11016,19,Jits_Linear_5,1,5,63,98,1985341692
11016,19,Jits_Linear_5,2,5,56,103,1985352260
11016,19,Jits_Linear_5,3,5,80,127,1985411516
11016,19,Jits_Linear_5,0,1,48,51,1986122624
11016,19,Jits_Linear_5,1,5,56,103,1986151724
11016,19,Jits_Linear_5,2,5,63,98,1986221396
11016,19,Jits_Linear_5,3,5,80,127,1986241856
11016,19,Jits_Linear_5,0,1,48,50,1986932968
11016,19,Jits_Linear_5,1,5,56,103,1986961764
11016,19,Jits_Linear_5,2,5,63,98,1986991516
11016,19,Jits_Linear_5,3,5,80,127,1987032412
11016,19,Jits_Linear_5,0,1,48,57,1987709124
11016,19,Jits_Linear_5,1,5,63,98,1987761536
11016,19,Jits_Linear_5,2,5,56,103,1987811648
11016,19,Jits_Linear_5,3,5,80,127,1987821844
11016,19,Jits_Linear_5,0,1,48,54,1988529884
11016,19,Jits_Linear_5,1,5,56,103,1988611424
11016,19,Jits_Linear_5,2,5,63,98,1988661564
11016,19,Jits_Linear_5,3,5,80,127,1988671836
11016,19,Jits_Linear_5,0,1,48,55,1989354448
11016,19,Jits_Linear_5,1,5,56,103,1989391720
11016,19,Jits_Linear_5,2,5,63,98,1989402164
11016,19,Jits_Linear_5,3,5,80,127,1989481796
11016,19,Jits_Linear_5,0,9999,9999,9999,1880649800
11016,19,Jits_Linear_5,1,9999,9999,9999,1881130044
11016,19,Jits_Linear_5,2,9999,9999,9999,1881609284
11016,19,Jits_Linear_5,3,9999,9999,9999,1882089564
11016,19,Jits_Linear_5,4,9999,9999,9999,1882569852
11016,19,Jits_Linear_5,5,9999,9999,9999,1883059284
11016,19,Jits_Linear_5,6,9999,9999,9999,1883549756
11016,19,Jits_Linear_5,7,9999,9999,9999,1884039272
11016,19,Jits_Linear_5,8,9999,9999,9999,1884529760
11016,19,Jits_Linear_5,9,9999,9999,9999,1885019200
11016,19,Jits_Linear_5,10,9999,9999,9999,1885519952
11016,19,Jits_Linear_5,11,9999,9999,9999,1886019656
11016,19,Jits_Linear_5,12,9999,9999,9999,1886519416
11016,19,Jits_Linear_5,13,9999,9999,9999,1887019104
11016,19,Jits_Linear_5,14,9999,9999,9999,1887519840
11016,19,Jits_Linear_5,15,9999,9999,9999,1888029808
11016,19,Jits_Linear_5,16,9999,9999,9999,1888539732
11016,19,Jits_Linear_5,17,9999,9999,9999,1889049684
11016,19,Jits_Linear_5,18,9999,9999,9999,1889559644
11016,19,Jits_Linear_5,19,9999,9999,9999,1890069592
11016,19,Jits_Linear_5,20,9999,9999,9999,1890589748
11016,19,Jits_Linear_5,21,9999,9999,9999,1891109964
11016,19,Jits_Linear_5,22,9999,9999,9999,1891629132
11016,19,Jits_Linear_5,23,9999,9999,9999,1892149348
11016,19,Jits_Linear_5,24,9999,9999,9999,1892669564
11016,19,Jits_Linear_5,25,9999,9999,9999,1893199976
11016,19,Jits_Linear_5,26,9999,9999,9999,1893729340
11016,19,Jits_Linear_5,27,9999,9999,9999,1894259792
11016,19,Jits_Linear_5,28,9999,9999,9999,1894789244
11016,19,Jits_Linear_5,29,9999,9999,9999,1895319648
11016,19,Jits_Linear_5,30,9999,9999,9999,1895859272
11016,19,Jits_Linear_5,31,9999,9999,9999,1896399940
11016,19,Jits_Linear_5,32,9999,9999,9999,1896939632
11016,19,Jits_Linear_5,33,9999,9999,9999,1897479256
11016,19,Jits_Linear_5,34,9999,9999,9999,1898019952
11016,19,Jits_Linear_5,35,9999,9999,9999,1898569836
11016,19,Jits_Linear_5,36,9999,9999,9999,1899119712
11016,19,Jits_Linear_5,37,9999,9999,9999,1899669600
11016,19,Jits_Linear_5,38,9999,9999,9999,1900219488
11016,19,Jits_Linear_5,39,9999,9999,9999,1900769376
11016,19,Jits_Linear_5,40,9999,9999,9999,1901329504
11016,19,Jits_Linear_5,41,9999,9999,9999,1901889608
11016,19,Jits_Linear_5,42,9999,9999,9999,1902449768
11016,19,Jits_Linear_5,43,9999,9999,9999,1903009912
11016,19,Jits_Linear_5,44,9999,9999,9999,1903569988
11016,19,Jits_Linear_5,45,9999,9999,9999,1904139352
11016,19,Jits_Linear_5,46,9999,9999,9999,1904709688
11016,19,Jits_Linear_5,47,9999,9999,9999,1905280112
11016,19,Jits_Linear_5,48,9999,9999,9999,1905859664
11016,19,Jits_Linear_5,49,9999,9999,9999,1906430056
11016,19,Jits_Linear_5,50,9999,9999,9999,1907009628
11016,19,Jits_Linear_5,51,9999,9999,9999,1907589200
11016,19,Jits_Linear_5,52,9999,9999,9999,1908169816
11016,19,Jits_Linear_5,53,9999,9999,9999,1908749388
11016,19,Jits_Linear_5,54,9999,9999,9999,1909330012
11016,19,Jits_Linear_5,55,9999,9999,9999,1909919848
11016,19,Jits_Linear_5,56,9999,9999,9999,1910509664
11016,19,Jits_Linear_5,57,9999,9999,9999,1911099516
11016,19,Jits_Linear_5,58,9999,9999,9999,1911689336
11016,19,Jits_Linear_5,59,9999,9999,9999,1912279140
11016,19,Jits_Linear_5,60,9999,9999,9999,1912879180
11016,19,Jits_Linear_5,61,9999,9999,9999,1913479252
11016,19,Jits_Linear_5,62,9999,9999,9999,1914079340
11016,19,Jits_Linear_5,63,9999,9999,9999,1914679368
11016,19,Jits_Linear_5,64,9999,9999,9999,1915279448
11016,19,Jits_Linear_5,65,9999,9999,9999,1915889788
11016,19,Jits_Linear_5,66,9999,9999,9999,1916500088
11016,19,Jits_Linear_5,67,9999,9999,9999,1917109316
11016,19,Jits_Linear_5,68,9999,9999,9999,1917719604
11016,19,Jits_Linear_5,69,9999,9999,9999,1918329972
11016,19,Jits_Linear_5,70,9999,9999,9999,1918949448
11016,19,Jits_Linear_5,71,9999,9999,9999,1919570020
11016,19,Jits_Linear_5,72,9999,9999,9999,1920189520
11016,19,Jits_Linear_5,73,9999,9999,9999,1920810080
11016,19,Jits_Linear_5,74,9999,9999,9999,1921429564
11016,19,Jits_Linear_5,75,9999,9999,9999,1922059388
11016,19,Jits_Linear_5,76,9999,9999,9999,1922689108
11016,19,Jits_Linear_5,77,9999,9999,9999,1923319908
11016,19,Jits_Linear_5,78,9999,9999,9999,1923949624
11016,19,Jits_Linear_5,79,9999,9999,9999,1924579448
11016,19,Jits_Linear_5,80,9999,9999,9999,1925219416
11016,19,Jits_Linear_5,81,9999,9999,9999,1925859432
11016,19,Jits_Linear_5,82,9999,9999,9999,1926499408
11016,19,Jits_Linear_5,83,9999,9999,9999,1927139416
11016,19,Jits_Linear_5,84,9999,9999,9999,1927779400
11016,19,Jits_Linear_5,85,9999,9999,9999,1928429672
11016,19,Jits_Linear_5,86,9999,9999,9999,1929079896
11016,19,Jits_Linear_5,87,9999,9999,9999,1929729144
11016,19,Jits_Linear_5,88,9999,9999,9999,1930379372
11016,19,Jits_Linear_5,89,9999,9999,9999,1931029588
11016,19,Jits_Linear_5,90,9999,9999,9999,1931690088
11016,19,Jits_Linear_5,91,9999,9999,9999,1932349528
11016,19,Jits_Linear_5,92,9999,9999,9999,1933010000
11016,19,Jits_Linear_5,93,9999,9999,9999,1933669444
11016,19,Jits_Linear_5,94,9999,9999,9999,1934329912
11016,19,Jits_Linear_5,95,9999,9999,9999,1934999620
11016,19,Jits_Linear_5,96,9999,9999,9999,1935669332
11016,19,Jits_Linear_5,97,9999,9999,9999,1936340064
11016,19,Jits_Linear_5,98,9999,9999,9999,1937009776
11016,19,Jits_Linear_5,99,9999,9999,9999,1937679468
11016,19,Jits_Linear_5,100,9999,9999,9999,1938359360
11016,19,Jits_Linear_5,101,9999,9999,9999,1939039344
11016,19,Jits_Linear_5,102,9999,9999,9999,1939719224
11016,19,Jits_Linear_5,103,9999,9999,9999,1940399216
11016,19,Jits_Linear_5,104,9999,9999,9999,1941079124
11016,19,Jits_Linear_5,105,9999,9999,9999,1941769332
11016,19,Jits_Linear_5,106,9999,9999,9999,1942459496
11016,19,Jits_Linear_5,107,9999,9999,9999,1943149652
11016,19,Jits_Linear_5,108,9999,9999,9999,1943839824
11016,19,Jits_Linear_5,109,9999,9999,9999,1944530036
11016,19,Jits_Linear_5,110,9999,9999,9999,1945229428
11016,19,Jits_Linear_5,111,9999,9999,9999,1945929852
11016,19,Jits_Linear_5,112,9999,9999,9999,1946629204
11016,19,Jits_Linear_5,113,9999,9999,9999,1947329632
11016,19,Jits_Linear_5,114,9999,9999,9999,1948030052
11016,19,Jits_Linear_5,115,9999,9999,9999,1948739688
11016,19,Jits_Linear_5,116,9999,9999,9999,1949449304
11016,19,Jits_Linear_5,117,9999,9999,9999,1950159932
11016,19,Jits_Linear_5,118,9999,9999,9999,1950869588
11016,19,Jits_Linear_5,119,9999,9999,9999,1951579224
11016,19,Jits_Linear_5,120,9999,9999,9999,1952299128
11016,19,Jits_Linear_5,121,9999,9999,9999,1953019980
11016,19,Jits_Linear_5,122,9999,9999,9999,1953739900
11016,19,Jits_Linear_5,123,9999,9999,9999,1954459744
11016,19,Jits_Linear_5,124,9999,9999,9999,1955179644
11016,19,Jits_Linear_5,125,9999,9999,9999,1955909736
11016,19,Jits_Linear_5,126,9999,9999,9999,1956639836
11016,19,Jits_Linear_5,127,9999,9999,9999,1957369976
11016,19,Jits_Linear_5,128,9999,9999,9999,1958100068
11016,19,Jits_Linear_5,129,9999,9999,9999,1958829120
11016,19,Jits_Linear_5,130,9999,9999,9999,1959569484
11016,19,Jits_Linear_5,131,9999,9999,9999,1960309844
11016,19,Jits_Linear_5,132,9999,9999,9999,1961049200
11016,19,Jits_Linear_5,133,9999,9999,9999,1961789564
11016,19,Jits_Linear_5,134,9999,9999,9999,1962529916
11016,19,Jits_Linear_5,135,9999,9999,9999,1963279464
11016,19,Jits_Linear_5,136,9999,9999,9999,1964030080
11016,19,Jits_Linear_5,137,9999,9999,9999,1964779576
11016,19,Jits_Linear_5,138,9999,9999,9999,1965529152
11016,19,Jits_Linear_5,139,9999,9999,9999,1966279792
11016,19,Jits_Linear_5,140,9999,9999,9999,1967039560
11016,19,Jits_Linear_5,141,9999,9999,9999,1967799412
11016,19,Jits_Linear_5,142,9999,9999,9999,1968559188
11016,19,Jits_Linear_5,143,9999,9999,9999,1969320000
11016,19,Jits_Linear_5,144,9999,9999,9999,1970079828
11016,19,Jits_Linear_5,145,9999,9999,9999,1970849860
11016,19,Jits_Linear_5,146,9999,9999,9999,1971619904
11016,19,Jits_Linear_5,147,9999,9999,9999,1972390008
11016,19,Jits_Linear_5,148,9999,9999,9999,1973160028
11016,19,Jits_Linear_5,149,9999,9999,9999,1973930072
11016,19,Jits_Linear_5,150,9999,9999,9999,1974709316
11016,19,Jits_Linear_5,151,9999,9999,9999,1975489600
11016,19,Jits_Linear_5,152,9999,9999,9999,1976269892
11016,19,Jits_Linear_5,153,9999,9999,9999,1977049196
11016,19,Jits_Linear_5,154,9999,9999,9999,1977829484
11016,19,Jits_Linear_5,155,9999,9999,9999,1978619960
11016,19,Jits_Linear_5,156,9999,9999,9999,1979409532
11016,19,Jits_Linear_5,157,9999,9999,9999,1980200020
11016,19,Jits_Linear_5,158,9999,9999,9999,1980989528
11016,19,Jits_Linear_5,159,9999,9999,9999,1981780084
11016,19,Jits_Linear_5,160,9999,9999,9999,1982579792
11016,19,Jits_Linear_5,161,9999,9999,9999,1983379568
11016,19,Jits_Linear_5,162,9999,9999,9999,1984179264
11016,19,Jits_Linear_5,163,9999,9999,9999,1984980020
11016,19,Jits_Linear_5,164,9999,9999,9999,1985779788
11016,19,Jits_Linear_5,165,9999,9999,9999,1986589776
11016,19,Jits_Linear_5,166,9999,9999,9999,1987399740
11016,19,Jits_Linear_5,167,9999,9999,9999,1988209772
11016,19,Jits_Linear_5,168,9999,9999,9999,1989019732
11016,19,Jits_Linear_5,169,9999,9999,9999,1989829692
11017,18,Jits_Linear_8,0,5,56,103,2000227544
11017,18,Jits_Linear_8,1,5,63,98,2000230572
11017,18,Jits_Linear_8,2,5,80,127,2000233916
11017,18,Jits_Linear_8,0,5,56,103,2001048156
11017,18,Jits_Linear_8,1,5,63,98,2001051256
11017,18,Jits_Linear_8,2,5,80,127,2001054376
11017,18,Jits_Linear_8,3,1,48,50,2001215520
11017,18,Jits_Linear_8,0,5,80,127,2001807836
11017,18,Jits_Linear_8,1,1,48,56,2001834028
11017,18,Jits_Linear_8,2,5,63,98,2001897968
11017,18,Jits_Linear_8,3,5,56,103,2001908164
11017,18,Jits_Linear_8,0,5,56,103,2002648436
11017,18,Jits_Linear_8,1,5,63,98,2002657736
11017,18,Jits_Linear_8,2,1,48,55,2002667828
11017,18,Jits_Linear_8,3,5,80,127,2002747888
11017,18,Jits_Linear_8,0,1,48,60,2003433632
11017,18,Jits_Linear_8,1,5,63,98,2003437936
11017,18,Jits_Linear_8,2,5,80,127,2003467536
11017,18,Jits_Linear_8,3,5,56,103,2003498356
11017,18,Jits_Linear_8,0,1,48,55,2004208212
11017,18,Jits_Linear_8,1,5,56,103,2004258160
11017,18,Jits_Linear_8,2,5,80,127,2004357496
11017,18,Jits_Linear_8,3,5,63,98,2004407624
11017,18,Jits_Linear_8,0,5,56,103,2005068112
11017,18,Jits_Linear_8,1,1,48,57,2005085996
11017,18,Jits_Linear_8,2,5,80,127,2005118380
11017,18,Jits_Linear_8,3,5,63,98,2005158320
11017,18,Jits_Linear_8,0,1,48,59,2005884244
11017,18,Jits_Linear_8,1,5,80,127,2005908104
11017,18,Jits_Linear_8,2,5,63,98,2005937408
11017,18,Jits_Linear_8,3,5,56,103,2006008268
11017,18,Jits_Linear_8,0,1,48,60,2006709484
11017,18,Jits_Linear_8,1,5,63,98,2006747420
11017,18,Jits_Linear_8,2,5,56,103,2006778220
11017,18,Jits_Linear_8,3,5,80,127,2006837572
11017,18,Jits_Linear_8,0,5,56,103,2007498108
11017,18,Jits_Linear_8,1,5,80,127,2007501324
11017,18,Jits_Linear_8,2,1,48,56,2007569028
11017,18,Jits_Linear_8,3,5,63,98,2007618072
11017,18,Jits_Linear_8,0,1,48,60,2008363484
11017,18,Jits_Linear_8,1,5,56,103,2008377828
11017,18,Jits_Linear_8,2,5,80,127,2008417620
11017,18,Jits_Linear_8,3,5,63,98,2008428036
11017,18,Jits_Linear_8,0,5,56,103,2009137436
11017,18,Jits_Linear_8,1,5,80,127,2009158044
11017,18,Jits_Linear_8,2,1,48,56,2009213080
11017,18,Jits_Linear_8,3,5,63,98,2009238056
11017,18,Jits_Linear_8,0,5,80,127,2009928140
11017,18,Jits_Linear_8,1,1,48,51,2010006564
11017,18,Jits_Linear_8,2,5,56,103,2010028456
11017,18,Jits_Linear_8,3,5,63,98,2010037756
11017,18,Jits_Linear_8,0,5,63,98,2010698168
11017,18,Jits_Linear_8,1,5,80,127,2010757440
11017,18,Jits_Linear_8,2,5,56,103,2010767860
11017,18,Jits_Linear_8,3,1,48,53,2010850688
11017,18,Jits_Linear_8,0,5,56,103,2011497992
11017,18,Jits_Linear_8,1,1,48,54,2011538576
11017,18,Jits_Linear_8,2,5,63,98,2011567444
11017,18,Jits_Linear_8,3,5,80,127,2011571032
11017,18,Jits_Linear_8,0,1,48,55,2012316080
11017,18,Jits_Linear_8,1,5,63,98,2012328312
11017,18,Jits_Linear_8,2,5,56,103,2012377392
11017,18,Jits_Linear_8,3,5,80,127,2012380460
11017,18,Jits_Linear_8,0,5,56,103,2013077864
11017,18,Jits_Linear_8,1,5,80,127,2013080932
11017,18,Jits_Linear_8,2,1,48,52,2013152748
11017,18,Jits_Linear_8,3,5,63,98,2013167988
11017,18,Jits_Linear_8,0,1,48,51,2013897592
11017,18,Jits_Linear_8,1,5,63,98,2013908332
11017,18,Jits_Linear_8,2,5,56,103,2013998108
11017,18,Jits_Linear_8,3,5,80,127,2014028152
11017,18,Jits_Linear_8,0,5,56,103,2014687868
11017,18,Jits_Linear_8,1,1,48,51,2014759948
11017,18,Jits_Linear_8,2,5,63,98,2014787844
11017,18,Jits_Linear_8,3,5,80,127,2014817816
11017,18,Jits_Linear_8,0,5,63,98,2015507948
11017,18,Jits_Linear_8,1,5,56,103,2015517948
11017,18,Jits_Linear_8,2,1,48,49,2015586024
11017,18,Jits_Linear_8,3,5,80,127,2015608072
11017,18,Jits_Linear_8,0,5,63,98,2016307732
11017,18,Jits_Linear_8,1,1,48,54,2016338276
11017,18,Jits_Linear_8,2,5,56,103,2016387448
11017,18,Jits_Linear_8,3,5,80,127,2016390440
11017,18,Jits_Linear_8,0,5,80,127,2017048068
11017,18,Jits_Linear_8,1,5,63,98,2017068380
11017,18,Jits_Linear_8,2,5,56,103,2017127944
11017,18,Jits_Linear_8,3,1,48,49,2017177964
11017,18,Jits_Linear_8,0,5,56,103,2017868140
11017,18,Jits_Linear_8,1,5,63,98,2017887700
11017,18,Jits_Linear_8,2,1,48,48,2017890840
11017,18,Jits_Linear_8,3,5,80,127,2017892252
11017,18,Jits_Linear_8,0,5,63,98,2018588032
11017,18,Jits_Linear_8,1,1,48,52,2018658880
11017,18,Jits_Linear_8,2,5,80,127,2018667748
11017,18,Jits_Linear_8,3,5,56,103,2018678240
11017,18,Jits_Linear_8,0,5,63,98,2019388008
11017,18,Jits_Linear_8,1,1,48,54,2019392024
11017,18,Jits_Linear_8,2,5,56,103,2019408236
11017,18,Jits_Linear_8,3,5,80,127,2019458440
11017,18,Jits_Linear_8,0,5,80,127,2020167980
11017,18,Jits_Linear_8,1,1,48,55,2020179416
11017,18,Jits_Linear_8,2,5,63,98,2020207916
11017,18,Jits_Linear_8,3,5,56,103,2020227404
11017,18,Jits_Linear_8,0,5,56,103,2020978164
11017,18,Jits_Linear_8,1,1,48,48,2020983300
11017,18,Jits_Linear_8,2,5,63,98,2020988204
11017,18,Jits_Linear_8,3,5,80,127,2021007988
11017,18,Jits_Linear_8,0,5,56,103,2021677464
11017,18,Jits_Linear_8,1,1,48,43,2021752724
11017,18,Jits_Linear_8,2,5,63,98,2021767592
11017,18,Jits_Linear_8,3,5,80,127,2021828056
11017,18,Jits_Linear_8,0,5,80,127,2022478060
11017,18,Jits_Linear_8,1,5,56,103,2022488404
11017,18,Jits_Linear_8,2,1,48,51,2022525228
11017,18,Jits_Linear_8,3,5,63,98,2022558004
11017,18,Jits_Linear_8,0,1,48,51,2023277828
11017,18,Jits_Linear_8,1,5,63,98,2023279240
11017,18,Jits_Linear_8,2,5,80,127,2023368768
11017,18,Jits_Linear_8,3,5,56,103,2023378436
11017,18,Jits_Linear_8,0,5,63,98,2023978240
11017,18,Jits_Linear_8,1,5,80,127,2024027620
11017,18,Jits_Linear_8,2,5,56,103,2024087936
11017,18,Jits_Linear_8,3,1,48,54,2024092176
11017,18,Jits_Linear_8,0,5,56,103,2024767880
11017,18,Jits_Linear_8,1,1,48,48,2024787856
11017,18,Jits_Linear_8,2,5,80,127,2024817928
11017,18,Jits_Linear_8,3,5,63,98,2024837712
11017,18,Jits_Linear_8,0,5,56,103,2025497892
11017,18,Jits_Linear_8,1,5,80,127,2025558584
11017,18,Jits_Linear_8,2,1,48,46,2025560448
11017,18,Jits_Linear_8,3,5,63,98,2025628108
11017,18,Jits_Linear_8,0,5,56,103,2026257924
11017,18,Jits_Linear_8,1,5,80,127,2026287404
11017,18,Jits_Linear_8,2,5,63,98,2026318052
11017,18,Jits_Linear_8,3,1,48,48,2026324460
11017,18,Jits_Linear_8,0,5,56,103,2027057716
11017,18,Jits_Linear_8,1,1,48,46,2027059128
11017,18,Jits_Linear_8,2,5,80,127,2027077944
11017,18,Jits_Linear_8,3,5,63,98,2027138408
11017,18,Jits_Linear_8,0,1,48,52,2027858284
11017,18,Jits_Linear_8,1,5,80,127,2027898240
11017,18,Jits_Linear_8,2,5,56,103,2027907612
11017,18,Jits_Linear_8,3,5,63,98,2027917884
11017,18,Jits_Linear_8,0,5,56,103,2028607804
11017,18,Jits_Linear_8,1,5,80,127,2028647744
11017,18,Jits_Linear_8,2,1,48,53,2028673704
11017,18,Jits_Linear_8,3,5,63,98,2028677636
11017,18,Jits_Linear_8,0,5,56,103,2029327764
11017,18,Jits_Linear_8,1,5,63,98,2029357616
11017,18,Jits_Linear_8,2,1,48,52,2029386360
11017,18,Jits_Linear_8,3,5,80,127,2029398520
11017,18,Jits_Linear_8,0,5,80,127,2030028112
11017,18,Jits_Linear_8,1,5,63,98,2030078540
11017,18,Jits_Linear_8,2,5,56,103,2030097652
11017,18,Jits_Linear_8,3,1,48,54,2030101368
11017,18,Jits_Linear_8,0,1,48,55,2030806704
11017,18,Jits_Linear_8,1,5,56,103,2030808368
11017,18,Jits_Linear_8,2,5,80,127,2030878004
11017,18,Jits_Linear_8,3,5,63,98,2030937628
11017,18,Jits_Linear_8,0,5,80,127,2031547752
11017,18,Jits_Linear_8,1,1,48,57,2031573564
11017,18,Jits_Linear_8,2,5,63,98,2031638052
11017,18,Jits_Linear_8,3,5,56,103,2031658436
11017,18,Jits_Linear_8,0,5,63,98,2032307520
11017,18,Jits_Linear_8,1,5,56,103,2032328132
11017,18,Jits_Linear_8,2,1,48,57,2032335888
11017,18,Jits_Linear_8,3,5,80,127,2032368060
11017,18,Jits_Linear_8,0,5,80,127,2033007928
11017,18,Jits_Linear_8,1,5,63,98,2033027712
11017,18,Jits_Linear_8,2,1,48,54,2033067920
11017,18,Jits_Linear_8,3,5,56,103,2033108548
11017,18,Jits_Linear_8,0,5,63,98,2033738240
11017,18,Jits_Linear_8,1,1,48,51,2033787292
11017,18,Jits_Linear_8,2,5,56,103,2033847772
11017,18,Jits_Linear_8,3,5,80,127,2033850916
11017,18,Jits_Linear_8,0,5,63,98,2034497904
11017,18,Jits_Linear_8,1,5,56,103,2034508100
11017,18,Jits_Linear_8,2,5,80,127,2034511092
11017,18,Jits_Linear_8,3,1,48,55,2034515404
11017,18,Jits_Linear_8,0,1,48,51,2035215632
11017,18,Jits_Linear_8,1,5,56,103,2035217672
11017,18,Jits_Linear_8,2,5,80,127,2035337636
11017,18,Jits_Linear_8,3,5,63,98,2035377500
11017,18,Jits_Linear_8,0,5,56,103,2035968512
11017,18,Jits_Linear_8,1,1,48,53,2036011440
11017,18,Jits_Linear_8,2,5,80,127,2036048180
11017,18,Jits_Linear_8,3,5,63,98,2036067816
11017,18,Jits_Linear_8,0,5,56,103,2036697560
11017,18,Jits_Linear_8,1,1,48,49,2036743380
11017,18,Jits_Linear_8,2,5,63,98,2036808164
11017,18,Jits_Linear_8,3,5,80,127,2036811528
11017,18,Jits_Linear_8,0,5,56,103,2037458436
11017,18,Jits_Linear_8,1,5,80,127,2037487968
11017,18,Jits_Linear_8,2,1,48,55,2037494448
11017,18,Jits_Linear_8,3,5,63,98,2037507596
11017,18,Jits_Linear_8,0,5,63,98,2038167856
11017,18,Jits_Linear_8,1,5,56,103,2038178128
11017,18,Jits_Linear_8,2,5,80,127,2038188768
11017,18,Jits_Linear_8,3,1,48,52,2038210996
11017,18,Jits_Linear_8,0,1,48,53,2038872644
11017,18,Jits_Linear_8,1,5,80,127,2038887736
11017,18,Jits_Linear_8,2,5,56,103,2038938012
11017,18,Jits_Linear_8,3,5,63,98,2038977936
11017,18,Jits_Linear_8,0,1,48,45,2039628232
11017,18,Jits_Linear_8,1,5,80,127,2039629568
11017,18,Jits_Linear_8,2,5,63,98,2039647568
11017,18,Jits_Linear_8,3,5,56,103,2039697916
11017,18,Jits_Linear_8,0,5,80,127,2040358388
11017,18,Jits_Linear_8,1,1,48,46,2040364948
11017,18,Jits_Linear_8,2,5,56,103,2040387836
11017,18,Jits_Linear_8,3,5,63,98,2040457500
11017,18,Jits_Linear_8,0,1,48,54,2041092916
11017,18,Jits_Linear_8,1,5,56,103,2041128564
11017,18,Jits_Linear_8,2,5,80,127,2041137488
11017,18,Jits_Linear_8,3,5,63,98,2041177504
11017,18,Jits_Linear_8,0,5,56,103,2041758012
11017,18,Jits_Linear_8,1,5,63,98,2041777648
11017,18,Jits_Linear_8,2,1,48,57,2041848152
11017,18,Jits_Linear_8,3,5,80,127,2041849488
11017,18,Jits_Linear_8,0,1,48,55,2042494952
11017,18,Jits_Linear_8,1,5,63,98,2042498584
11017,18,Jits_Linear_8,2,5,80,127,2042557856
11017,18,Jits_Linear_8,3,5,56,103,2042578316
11017,18,Jits_Linear_8,0,5,80,127,2043197728
11017,18,Jits_Linear_8,1,5,56,103,2043227700
11017,18,Jits_Linear_8,2,1,48,56,2043256920
11017,18,Jits_Linear_8,3,5,63,98,2043258416
11017,18,Jits_Linear_8,0,5,56,103,2043907636
11017,18,Jits_Linear_8,1,1,48,54,2043968280
11017,18,Jits_Linear_8,2,5,63,98,2043969548
11017,18,Jits_Linear_8,3,5,80,127,2044028368
11017,18,Jits_Linear_8,0,5,80,127,2044647848
11017,18,Jits_Linear_8,1,1,48,49,2044665872
11017,18,Jits_Linear_8,2,5,56,103,2044668376
11017,18,Jits_Linear_8,3,5,63,98,2044737932
11017,18,Jits_Linear_8,0,1,48,45,2045355600
11017,18,Jits_Linear_8,1,5,80,127,2045357488
11017,18,Jits_Linear_8,2,5,63,98,2045377876
11017,18,Jits_Linear_8,3,5,56,103,2045407700
11017,18,Jits_Linear_8,0,5,80,127,2046047568
11017,18,Jits_Linear_8,1,1,48,44,2046048532
11017,18,Jits_Linear_8,2,5,63,98,2046068168
11017,18,Jits_Linear_8,3,5,56,103,2046127440
11017,18,Jits_Linear_8,0,5,80,127,2046747920
11017,18,Jits_Linear_8,1,1,48,43,2046783772
11017,18,Jits_Linear_8,2,5,56,103,2046848460
11017,18,Jits_Linear_8,3,5,63,98,2046878060
11017,18,Jits_Linear_8,0,5,63,98,2047438432
11017,18,Jits_Linear_8,1,5,80,127,2047488488
11017,18,Jits_Linear_8,2,5,56,103,2047507676
11017,18,Jits_Linear_8,3,1,48,47,2047523400
11017,18,Jits_Linear_8,0,5,80,127,2048177656
11017,18,Jits_Linear_8,1,1,48,41,2048183916
11017,18,Jits_Linear_8,2,5,56,103,2048208296
11017,18,Jits_Linear_8,3,5,63,98,2048211512
11017,18,Jits_Linear_8,0,1,48,39,2048870692
11017,18,Jits_Linear_8,1,5,63,98,2048907584
11017,18,Jits_Linear_8,2,5,56,103,2048947524
11017,18,Jits_Linear_8,3,5,80,127,2048968192
11017,18,Jits_Linear_8,0,5,80,127,2049547516
11017,18,Jits_Linear_8,1,1,48,57,2049602056
11017,18,Jits_Linear_8,2,5,63,98,2049627484
11017,18,Jits_Linear_8,3,5,56,103,2049667424
11017,18,Jits_Linear_8,0,5,63,98,2050258436
11017,18,Jits_Linear_8,1,1,48,57,2050312428
11017,18,Jits_Linear_8,2,5,80,127,2050338176
11017,18,Jits_Linear_8,3,5,56,103,2050357736
11017,18,Jits_Linear_8,0,5,56,103,2050988448
11017,18,Jits_Linear_8,1,5,63,98,2050997748
11017,18,Jits_Linear_8,2,1,48,57,2051021920
11017,18,Jits_Linear_8,3,5,80,127,2051037456
11017,18,Jits_Linear_8,0,5,56,103,2051597672
11017,18,Jits_Linear_8,1,5,80,127,2051600812
11017,18,Jits_Linear_8,2,1,48,56,2051734012
11017,18,Jits_Linear_8,3,5,63,98,2051737868
11017,18,Jits_Linear_8,0,5,56,103,2052277560
11017,18,Jits_Linear_8,1,5,63,98,2052367624
11017,18,Jits_Linear_8,2,1,48,54,2052377664
11017,18,Jits_Linear_8,3,5,80,127,2052438516
11017,18,Jits_Linear_8,0,1,48,52,2053034660
11017,18,Jits_Linear_8,1,5,63,98,2053037316
11017,18,Jits_Linear_8,2,5,80,127,2053040612
11017,18,Jits_Linear_8,3,5,56,103,2053097712
11017,18,Jits_Linear_8,0,5,80,127,2053767404
11017,18,Jits_Linear_8,1,5,56,103,2053788164
11017,18,Jits_Linear_8,2,5,63,98,2053798208
11017,18,Jits_Linear_8,3,1,48,57,2053809796
11017,18,Jits_Linear_8,0,5,56,103,2054358348
11017,18,Jits_Linear_8,1,5,63,98,2054367572
11017,18,Jits_Linear_8,2,5,80,127,2054438248
11017,18,Jits_Linear_8,3,1,48,58,2054544288
11017,18,Jits_Linear_8,0,5,80,127,2055038316
11017,18,Jits_Linear_8,1,5,56,103,2055087400
11017,18,Jits_Linear_8,2,5,63,98,2055137600
11017,18,Jits_Linear_8,3,1,48,53,2055169412
11017,18,Jits_Linear_8,0,5,56,103,2055798312
11017,18,Jits_Linear_8,1,1,48,52,2055806164
11017,18,Jits_Linear_8,2,5,63,98,2055808280
11017,18,Jits_Linear_8,3,5,80,127,2055848292
11017,18,Jits_Linear_8,0,5,56,103,2056417508
11017,18,Jits_Linear_8,1,5,63,98,2056457448
11017,18,Jits_Linear_8,2,1,48,53,2056489956
11017,18,Jits_Linear_8,3,5,80,127,2056507816
11017,18,Jits_Linear_8,0,5,80,127,2057048404
11017,18,Jits_Linear_8,1,5,56,103,2057097488
11017,18,Jits_Linear_8,2,5,63,98,2057118172
11017,18,Jits_Linear_8,3,1,48,55,2057141216
11017,18,Jits_Linear_8,0,5,80,127,2057728352
11017,18,Jits_Linear_8,1,1,48,51,2057756676
11017,18,Jits_Linear_8,2,5,63,98,2057787788
11017,18,Jits_Linear_8,3,5,56,103,2057867568
11017,18,Jits_Linear_8,0,5,80,127,2058377456
11017,18,Jits_Linear_8,1,5,56,103,2058417396
11017,18,Jits_Linear_8,2,5,63,98,2058438080
11017,18,Jits_Linear_8,3,1,48,52,2058471236
11017,18,Jits_Linear_8,0,1,48,51,2059094912
11017,18,Jits_Linear_8,1,5,56,103,2059097496
11017,18,Jits_Linear_8,2,5,80,127,2059107692
11017,18,Jits_Linear_8,3,5,63,98,2059147704
11017,18,Jits_Linear_8,0,1,48,56,2059785264
11017,18,Jits_Linear_8,1,5,56,103,2059827580
11017,18,Jits_Linear_8,2,5,63,98,2059867592
11017,18,Jits_Linear_8,3,5,80,127,2059870956
11017,18,Jits_Linear_8,0,5,63,98,2060377380
11017,18,Jits_Linear_8,1,5,80,127,2060418292
11017,18,Jits_Linear_8,2,5,56,103,2060488124
11017,18,Jits_Linear_8,3,1,48,56,2060490712
11017,18,Jits_Linear_8,0,5,63,98,2061027792
11017,18,Jits_Linear_8,1,5,56,103,2061107688
11017,18,Jits_Linear_8,2,1,48,59,2061156064
11017,18,Jits_Linear_8,3,5,80,127,2061168072
11017,18,Jits_Linear_8,0,5,80,127,2061698384
11017,18,Jits_Linear_8,1,5,63,98,2061747692
11017,18,Jits_Linear_8,2,5,56,103,2061778264
11017,18,Jits_Linear_8,3,1,48,57,2061836076
11017,18,Jits_Linear_8,0,5,56,103,2062347752
11017,18,Jits_Linear_8,1,5,63,98,2062398132
11017,18,Jits_Linear_8,2,5,80,127,2062408328
11017,18,Jits_Linear_8,3,1,48,55,2062462832
11017,18,Jits_Linear_8,0,5,56,103,2063018356
11017,18,Jits_Linear_8,1,1,48,53,2063087636
11017,18,Jits_Linear_8,2,5,63,98,2063127916
11017,18,Jits_Linear_8,3,5,80,127,2063148376
11017,18,Jits_Linear_8,0,5,63,98,2063667540
11017,18,Jits_Linear_8,1,5,80,127,2063717600
11017,18,Jits_Linear_8,2,1,48,55,2063731204
11017,18,Jits_Linear_8,3,5,56,103,2063807948
11017,18,Jits_Linear_8,0,5,63,98,2064307544
11017,18,Jits_Linear_8,1,5,80,127,2064338416
11017,18,Jits_Linear_8,2,1,48,53,2064413328
11017,18,Jits_Linear_8,3,5,56,103,2064428344
11017,18,Jits_Linear_8,0,5,63,98,2064957904
11017,18,Jits_Linear_8,1,5,56,103,2064968248
11017,18,Jits_Linear_8,2,5,80,127,2065068348
11017,18,Jits_Linear_8,3,1,48,56,2065072588
11017,18,Jits_Linear_8,0,5,63,98,2065708364
11017,18,Jits_Linear_8,1,1,48,57,2065721600
11017,18,Jits_Linear_8,2,5,80,127,2065738036
11017,18,Jits_Linear_8,3,5,56,103,2065768008
11017,18,Jits_Linear_8,0,5,80,127,2066378120
11017,18,Jits_Linear_8,1,5,63,98,2066388240
11017,18,Jits_Linear_8,2,1,48,57,2066405440
11017,18,Jits_Linear_8,3,5,56,103,2066418208
11017,18,Jits_Linear_8,0,5,80,127,2066917820
11017,18,Jits_Linear_8,1,5,63,98,2066938280
11017,18,Jits_Linear_8,2,5,56,103,2066988360
11017,18,Jits_Linear_8,3,1,48,57,2067083240
11017,18,Jits_Linear_8,0,5,63,98,2067587308
11017,18,Jits_Linear_8,1,5,80,127,2067648072
11017,18,Jits_Linear_8,2,5,56,103,2067668384
11017,18,Jits_Linear_8,3,1,48,57,2067736712
11017,18,Jits_Linear_8,0,5,63,98,2068187376
11017,18,Jits_Linear_8,1,5,56,103,2068237656
11017,18,Jits_Linear_8,2,5,80,127,2068247952
11017,18,Jits_Linear_8,3,1,48,52,2068375044
11017,18,Jits_Linear_8,0,5,56,103,2068858344
11017,18,Jits_Linear_8,1,5,80,127,2068867420
11017,18,Jits_Linear_8,2,5,63,98,2068967664
11017,18,Jits_Linear_8,3,1,48,56,2069015296
11017,18,Jits_Linear_8,0,5,80,127,2069447940
11017,18,Jits_Linear_8,1,5,63,98,2069458432
11017,18,Jits_Linear_8,2,1,48,54,2069593876
11017,18,Jits_Linear_8,3,5,56,103,2069607772
11017,18,Jits_Linear_8,0,5,63,98,2070098316
11017,18,Jits_Linear_8,1,5,80,127,2070138256
11017,18,Jits_Linear_8,2,5,56,103,2070218200
11017,18,Jits_Linear_8,3,1,48,54,2070228960
11017,18,Jits_Linear_8,0,5,56,103,2070728128
11017,18,Jits_Linear_8,1,5,80,127,2070828256
11017,18,Jits_Linear_8,2,1,48,52,2070838192
11017,18,Jits_Linear_8,3,5,63,98,2070848032
11017,18,Jits_Linear_8,0,5,80,127,2071427436
11017,18,Jits_Linear_8,1,5,56,103,2071437560
11017,18,Jits_Linear_8,2,1,48,53,2071459556
11017,18,Jits_Linear_8,3,5,63,98,2071527832
11017,18,Jits_Linear_8,0,5,56,103,2072067380
11017,18,Jits_Linear_8,1,5,63,98,2072087940
11017,18,Jits_Linear_8,2,1,48,51,2072126580
11017,18,Jits_Linear_8,3,5,80,127,2072167952
11017,18,Jits_Linear_8,0,5,63,98,2072658196
11017,18,Jits_Linear_8,1,5,56,103,2072748408
11017,18,Jits_Linear_8,2,5,80,127,2072751400
11017,18,Jits_Linear_8,3,1,48,58,2072770032
11017,18,Jits_Linear_8,0,5,56,103,2073307404
11017,18,Jits_Linear_8,1,5,80,127,2073368268
11017,18,Jits_Linear_8,2,5,63,98,2073378092
11017,18,Jits_Linear_8,3,1,48,53,2073408036
11017,18,Jits_Linear_8,0,5,80,127,2073978164
11017,18,Jits_Linear_8,1,5,56,103,2073987464
11017,18,Jits_Linear_8,2,5,63,98,2073990604
11017,18,Jits_Linear_8,3,1,48,59,2074054028
11017,18,Jits_Linear_8,0,5,56,103,2074558012
11017,18,Jits_Linear_8,1,5,80,127,2074568060
11017,18,Jits_Linear_8,2,5,63,98,2074587472
11017,18,Jits_Linear_8,3,1,48,55,2074660728
11017,18,Jits_Linear_8,0,5,63,98,2075147524
11017,18,Jits_Linear_8,1,1,48,47,2075188656
11017,18,Jits_Linear_8,2,5,80,127,2075207936
11017,18,Jits_Linear_8,3,5,56,103,2075258288
11017,18,Jits_Linear_8,0,1,48,51,2075791860
11017,18,Jits_Linear_8,1,5,63,98,2075848008
11017,18,Jits_Linear_8,2,5,56,103,2075858280
11017,18,Jits_Linear_8,3,5,80,127,2075907420
11017,18,Jits_Linear_8,0,5,63,98,2076358108
11017,18,Jits_Linear_8,1,5,80,127,2076377372
11017,18,Jits_Linear_8,2,5,56,103,2076387864
11017,18,Jits_Linear_8,3,1,48,56,2076437308
11017,18,Jits_Linear_8,0,5,63,98,2076968152
11017,18,Jits_Linear_8,1,5,80,127,2076971372
11017,18,Jits_Linear_8,2,5,56,103,2077008168
11017,18,Jits_Linear_8,3,1,48,57,2077013008
11017,18,Jits_Linear_8,0,1,48,58,2077590272
11017,18,Jits_Linear_8,1,5,63,98,2077648220
11017,18,Jits_Linear_8,2,5,80,127,2077678340
11017,18,Jits_Linear_8,3,5,56,103,2077689048
11017,18,Jits_Linear_8,0,5,56,103,2078208288
11017,18,Jits_Linear_8,1,1,48,57,2078225652
11017,18,Jits_Linear_8,2,5,80,127,2078238056
11017,18,Jits_Linear_8,3,5,63,98,2078267880
11017,18,Jits_Linear_8,0,1,48,56,2078829940
11017,18,Jits_Linear_8,1,5,63,98,2078907884
11017,18,Jits_Linear_8,2,5,56,103,2078947808
11017,18,Jits_Linear_8,3,5,80,127,2078950948
11017,18,Jits_Linear_8,0,5,80,127,2079407488
11017,18,Jits_Linear_8,1,5,56,103,2079488408
11017,18,Jits_Linear_8,2,1,48,54,2079499624
11017,18,Jits_Linear_8,3,5,63,98,2079537432
11017,18,Jits_Linear_8,0,5,80,127,2079988020
11017,18,Jits_Linear_8,1,5,56,103,2080007432
11017,18,Jits_Linear_8,2,1,48,52,2080089616
11017,18,Jits_Linear_8,3,5,63,98,2080097660
11017,18,Jits_Linear_8,0,5,80,127,2080628060
11017,18,Jits_Linear_8,1,5,63,98,2080668076
11017,18,Jits_Linear_8,2,1,48,55,2080700716
11017,18,Jits_Linear_8,3,5,56,103,2080707860
11017,18,Jits_Linear_8,0,5,63,98,2081197280
11017,18,Jits_Linear_8,1,5,80,127,2081258044
11017,18,Jits_Linear_8,2,5,56,103,2081287496
11017,18,Jits_Linear_8,3,1,48,57,2081348324
11017,18,Jits_Linear_8,0,5,56,103,2081797572
11017,18,Jits_Linear_8,1,5,80,127,2081828168
11017,18,Jits_Linear_8,2,1,48,52,2081908832
11017,18,Jits_Linear_8,3,5,63,98,2081918296
11017,18,Jits_Linear_8,0,5,56,103,2082397676
11017,18,Jits_Linear_8,1,5,80,127,2082508116
11017,18,Jits_Linear_8,2,1,48,54,2082514448
11017,18,Jits_Linear_8,3,5,63,98,2082537860
11017,18,Jits_Linear_8,0,5,56,103,2083037552
11017,18,Jits_Linear_8,1,5,63,98,2083098044
11017,18,Jits_Linear_8,2,5,80,127,2083127944
11017,18,Jits_Linear_8,3,1,48,51,2083138636
11017,18,Jits_Linear_8,0,5,56,103,2083597784
11017,18,Jits_Linear_8,1,5,63,98,2083668316
11017,18,Jits_Linear_8,2,5,80,127,2083687952
11017,18,Jits_Linear_8,3,1,48,52,2083722084
11017,18,Jits_Linear_8,0,5,80,127,2084157740
11017,18,Jits_Linear_8,1,5,63,98,2084178272
11017,18,Jits_Linear_8,2,5,56,103,2084227356
11017,18,Jits_Linear_8,3,1,48,53,2084301040
11017,18,Jits_Linear_8,0,5,63,98,2084768080
11017,18,Jits_Linear_8,1,5,80,127,2084778276
11017,18,Jits_Linear_8,2,5,56,103,2084827580
11017,18,Jits_Linear_8,3,1,48,47,2084879168
11017,18,Jits_Linear_8,0,5,63,98,2085347916
11017,18,Jits_Linear_8,1,5,80,127,2085418224
11017,18,Jits_Linear_8,2,5,56,103,2085437936
11017,18,Jits_Linear_8,3,1,48,49,2085479408
11017,18,Jits_Linear_8,0,5,63,98,2085958128
11017,18,Jits_Linear_8,1,5,80,127,2085961492
11017,18,Jits_Linear_8,2,1,48,52,2086028032
11017,18,Jits_Linear_8,3,5,56,103,2086029292
11017,18,Jits_Linear_8,0,5,80,127,2086488288
11017,18,Jits_Linear_8,1,5,56,103,2086507848
11017,18,Jits_Linear_8,2,5,63,98,2086518268
11017,18,Jits_Linear_8,3,1,48,51,2086590456
11017,18,Jits_Linear_8,0,5,56,103,2087087540
11017,18,Jits_Linear_8,1,1,48,50,2087165644
11017,18,Jits_Linear_8,2,5,63,98,2087177668
11017,18,Jits_Linear_8,3,5,80,127,2087180884
11017,18,Jits_Linear_8,0,5,80,127,2087638540
11017,18,Jits_Linear_8,1,5,56,103,2087647692
11017,18,Jits_Linear_8,2,5,63,98,2087668076
11017,18,Jits_Linear_8,3,1,48,60,2087773996
11017,18,Jits_Linear_8,0,5,63,98,2088207680
11017,18,Jits_Linear_8,1,5,80,127,2088268100
11017,18,Jits_Linear_8,2,5,56,103,2088278520
11017,18,Jits_Linear_8,3,1,48,57,2088310032
11017,18,Jits_Linear_8,0,5,63,98,2088847708
11017,18,Jits_Linear_8,1,1,48,55,2088863480
11017,18,Jits_Linear_8,2,5,80,127,2088877600
11017,18,Jits_Linear_8,3,5,56,103,2088918736
11017,18,Jits_Linear_8,0,5,56,103,2089407848
11017,18,Jits_Linear_8,1,5,80,127,2089418044
11017,18,Jits_Linear_8,2,5,63,98,2089458056
11017,18,Jits_Linear_8,3,1,48,60,2089470392
11017,18,Jits_Linear_8,0,5,80,127,2089938332
11017,18,Jits_Linear_8,1,5,56,103,2090018304
11017,18,Jits_Linear_8,2,5,63,98,2090028352
11017,18,Jits_Linear_8,3,1,48,52,2090040464
11017,18,Jits_Linear_8,0,5,80,127,2090547660
11017,18,Jits_Linear_8,1,1,48,53,2090610116
11017,18,Jits_Linear_8,2,5,56,103,2090627376
11017,18,Jits_Linear_8,3,5,63,98,2090637944
11017,18,Jits_Linear_8,0,5,80,127,2091067956
11017,18,Jits_Linear_8,1,5,56,103,2091118012
11017,18,Jits_Linear_8,2,5,63,98,2091168140
11017,18,Jits_Linear_8,3,1,48,56,2091190740
11017,18,Jits_Linear_8,0,5,56,103,2091688424
11017,18,Jits_Linear_8,1,5,63,98,2091691416
11017,18,Jits_Linear_8,2,1,48,58,2091707056
11017,18,Jits_Linear_8,3,5,80,127,2091737424
11017,18,Jits_Linear_8,0,1,48,55,2092257688
11017,18,Jits_Linear_8,1,5,56,103,2092267748
11017,18,Jits_Linear_8,2,5,63,98,2092297648
11017,18,Jits_Linear_8,3,5,80,127,2092307796
11017,18,Jits_Linear_8,0,5,63,98,2092737840
11017,18,Jits_Linear_8,1,5,56,103,2092807676
11017,18,Jits_Linear_8,2,1,48,59,2092813932
11017,18,Jits_Linear_8,3,5,80,127,2092857744
11017,18,Jits_Linear_8,0,5,63,98,2093327800
11017,18,Jits_Linear_8,1,5,56,103,2093338020
11017,18,Jits_Linear_8,2,5,80,127,2093340940
11017,18,Jits_Linear_8,3,1,48,58,2093352744
11017,18,Jits_Linear_8,0,5,80,127,2093827764
11017,18,Jits_Linear_8,1,5,56,103,2093887884
11017,18,Jits_Linear_8,2,1,48,59,2093892200
11017,18,Jits_Linear_8,3,5,63,98,2093977936
11017,18,Jits_Linear_8,0,5,80,127,2094378276
11017,18,Jits_Linear_8,1,1,48,59,2094444248
11017,18,Jits_Linear_8,2,5,56,103,2094477624
11017,18,Jits_Linear_8,3,5,63,98,2094517784
11017,18,Jits_Linear_8,0,5,56,103,2094978736
11017,18,Jits_Linear_8,1,5,63,98,2094997852
11017,18,Jits_Linear_8,2,1,48,59,2095021128
11017,18,Jits_Linear_8,3,5,80,127,2095037860
11017,18,Jits_Linear_8,0,5,63,98,2095497688
11017,18,Jits_Linear_8,1,5,56,103,2095518076
11017,18,Jits_Linear_8,2,1,48,60,2095548544
11017,18,Jits_Linear_8,3,5,80,127,2095618536
11017,18,Jits_Linear_8,0,5,63,98,2096027936
11017,18,Jits_Linear_8,1,1,48,51,2096095716
11017,18,Jits_Linear_8,2,5,80,127,2096137768
11017,18,Jits_Linear_8,3,5,56,103,2096168736
11017,18,Jits_Linear_8,0,5,56,103,2096588224
11017,18,Jits_Linear_8,1,5,63,98,2096617828
11017,18,Jits_Linear_8,2,1,48,60,2096628364
11017,18,Jits_Linear_8,3,5,80,127,2096667972
11017,18,Jits_Linear_8,0,5,63,98,2097098024
11017,18,Jits_Linear_8,1,1,48,53,2097122792
11017,18,Jits_Linear_8,2,5,56,103,2097127768
11017,18,Jits_Linear_8,3,5,80,127,2097177848
11017,18,Jits_Linear_8,0,1,48,51,2097618272
11017,18,Jits_Linear_8,1,5,56,103,2097667372
11017,18,Jits_Linear_8,2,5,63,98,2097687860
11017,18,Jits_Linear_8,3,5,80,127,2097767788
11017,18,Jits_Linear_8,0,1,48,54,2098177680
11017,18,Jits_Linear_8,1,5,63,98,2098179328
11017,18,Jits_Linear_8,2,5,56,103,2098237948
11017,18,Jits_Linear_8,3,5,80,127,2098267700
11017,18,Jits_Linear_8,0,1,48,54,2098722668
11017,18,Jits_Linear_8,1,5,56,103,2098757920
11017,18,Jits_Linear_8,2,5,80,127,2098818520
11017,18,Jits_Linear_8,3,5,63,98,2098858604
11017,18,Jits_Linear_8,0,5,63,98,2099268092
11017,18,Jits_Linear_8,1,1,48,54,2099270104
11017,18,Jits_Linear_8,2,5,56,103,2099328476
11017,18,Jits_Linear_8,3,5,80,127,2099397920
11017,18,Jits_Linear_8,0,1,48,51,2099832384
11017,18,Jits_Linear_8,1,5,56,103,2099878120
11017,18,Jits_Linear_8,2,5,63,98,2099887716
11017,18,Jits_Linear_8,3,5,80,127,2099890932
11017,18,Jits_Linear_8,0,5,63,98,2100348204
11017,18,Jits_Linear_8,1,1,48,56,2100378520
11017,18,Jits_Linear_8,2,5,56,103,2100407764
11017,18,Jits_Linear_8,3,5,80,127,2100410828
11017,18,Jits_Linear_8,0,5,63,98,2100858432
11017,18,Jits_Linear_8,1,5,80,127,2100887884
11017,18,Jits_Linear_8,2,5,56,103,2100908640
11017,18,Jits_Linear_8,3,1,48,51,2100916936
11017,18,Jits_Linear_8,0,1,48,57,2101381964
11017,18,Jits_Linear_8,1,5,56,103,2101387544
11017,18,Jits_Linear_8,2,5,63,98,2101437824
11017,18,Jits_Linear_8,3,5,80,127,2101517752
11017,18,Jits_Linear_8,0,5,80,127,2101888500
11017,18,Jits_Linear_8,1,1,48,59,2101919712
11017,18,Jits_Linear_8,2,5,63,98,2101928580
11017,18,Jits_Linear_8,3,5,56,103,2101947696
11017,18,Jits_Linear_8,0,1,48,59,2102410024
11017,18,Jits_Linear_8,1,5,56,103,2102478160
11017,18,Jits_Linear_8,2,5,80,127,2102488656
11017,18,Jits_Linear_8,3,5,63,98,2102507832
11017,18,Jits_Linear_8,0,1,48,52,2102963420
11017,18,Jits_Linear_8,1,5,56,103,2102977764
11017,18,Jits_Linear_8,2,5,63,98,2103028116
11017,18,Jits_Linear_8,3,5,80,127,2103057628
11017,18,Jits_Linear_8,0,5,56,103,2103447828
11017,18,Jits_Linear_8,1,5,63,98,2103458028
11017,18,Jits_Linear_8,2,1,48,57,2103492760
11017,18,Jits_Linear_8,3,5,80,127,2103508296
11017,18,Jits_Linear_8,0,5,56,103,2103957852
11017,18,Jits_Linear_8,1,5,80,127,2103960844
11017,18,Jits_Linear_8,2,1,48,53,2103986896
11017,18,Jits_Linear_8,3,5,63,98,2104117588
11017,18,Jits_Linear_8,0,1,48,52,2104469408
11017,18,Jits_Linear_8,1,5,63,98,2104488244
11017,18,Jits_Linear_8,2,5,56,103,2104558004
11017,18,Jits_Linear_8,3,5,80,127,2104597800
11017,18,Jits_Linear_8,0,1,48,58,2105026188
11017,18,Jits_Linear_8,1,5,63,98,2105038120
11017,18,Jits_Linear_8,2,5,56,103,2105128716
11017,18,Jits_Linear_8,3,5,80,127,2105131628
11017,18,Jits_Linear_8,0,5,56,103,2105527612
11017,18,Jits_Linear_8,1,1,48,57,2105578612
11017,18,Jits_Linear_8,2,5,63,98,2105617668
11017,18,Jits_Linear_8,3,5,80,127,2105627936
11017,18,Jits_Linear_8,0,5,56,103,2106007876
11017,18,Jits_Linear_8,1,5,63,98,2106058004
11017,18,Jits_Linear_8,2,5,80,127,2106087756
11017,18,Jits_Linear_8,3,1,48,59,2106124200
11017,18,Jits_Linear_8,0,5,63,98,2106597772
11017,18,Jits_Linear_8,1,1,48,63,2106603432
11017,18,Jits_Linear_8,2,5,80,127,2106608112
11017,18,Jits_Linear_8,3,5,56,103,2106668524
11017,18,Jits_Linear_8,0,5,63,98,2107017512
11017,18,Jits_Linear_8,1,5,80,127,2107077976
11017,18,Jits_Linear_8,2,1,48,62,2107116096
11017,18,Jits_Linear_8,3,5,56,103,2107117908
11017,18,Jits_Linear_8,0,1,48,57,2107607736
11017,18,Jits_Linear_8,1,5,56,103,2107617576
11017,18,Jits_Linear_8,2,5,80,127,2107638036
11017,18,Jits_Linear_8,3,5,63,98,2107657672
11017,18,Jits_Linear_8,0,5,63,98,2108037624
11017,18,Jits_Linear_8,1,5,56,103,2108058084
11017,18,Jits_Linear_8,2,5,80,127,2108098024
11017,18,Jits_Linear_8,3,1,48,55,2108113868
11017,18,Jits_Linear_8,0,5,63,98,2108547636
11017,18,Jits_Linear_8,1,5,80,127,2108578136
11017,18,Jits_Linear_8,2,5,56,103,2108597548
11017,18,Jits_Linear_8,3,1,48,56,2108604404
11017,18,Jits_Linear_8,0,5,80,127,2109017420
11017,18,Jits_Linear_8,1,5,56,103,2109067624
11017,18,Jits_Linear_8,2,1,48,54,2109100560
11017,18,Jits_Linear_8,3,5,63,98,2109128008
11017,18,Jits_Linear_8,0,5,63,98,2109497856
11017,18,Jits_Linear_8,1,1,48,59,2109608416
11017,18,Jits_Linear_8,2,5,56,103,2109617656
11017,18,Jits_Linear_8,3,5,80,127,2109648304
11017,18,Jits_Linear_8,0,5,80,127,2110028028
11017,18,Jits_Linear_8,1,5,63,98,2110047664
11017,18,Jits_Linear_8,2,1,48,54,2110079256
11017,18,Jits_Linear_8,3,5,56,103,2110118460
11017,18,Jits_Linear_8,0,5,63,98,2110538136
11017,18,Jits_Linear_8,1,5,56,103,2110548332
11017,18,Jits_Linear_8,2,1,48,52,2110572052
11017,18,Jits_Linear_8,3,5,80,127,2110628492
11017,18,Jits_Linear_8,0,1,48,49,2111064968
11017,18,Jits_Linear_8,1,5,56,103,2111087860
11017,18,Jits_Linear_8,2,5,80,127,2111117612
11017,18,Jits_Linear_8,3,5,63,98,2111127808
11017,18,Jits_Linear_8,0,9999,9999,9999,2000635976
11017,18,Jits_Linear_8,1,9999,9999,9999,2001455168
11017,18,Jits_Linear_8,2,9999,9999,9999,2002275392
11017,18,Jits_Linear_8,3,9999,9999,9999,2003095612
11017,18,Jits_Linear_8,4,9999,9999,9999,2003915900
11017,18,Jits_Linear_8,5,9999,9999,9999,2004725848
11017,18,Jits_Linear_8,6,9999,9999,9999,2005535812
11017,18,Jits_Linear_8,7,9999,9999,9999,2006345844
11017,18,Jits_Linear_8,8,9999,9999,9999,2007155792
11017,18,Jits_Linear_8,9,9999,9999,9999,2007965800
11017,18,Jits_Linear_8,10,9999,9999,9999,2008765500
11017,18,Jits_Linear_8,11,9999,9999,9999,2009565256
11017,18,Jits_Linear_8,12,9999,9999,9999,2010366080
11017,18,Jits_Linear_8,13,9999,9999,9999,2011165792
11017,18,Jits_Linear_8,14,9999,9999,9999,2011965536
11017,18,Jits_Linear_8,15,9999,9999,9999,2012756080
11017,18,Jits_Linear_8,16,9999,9999,9999,2013545552
11017,18,Jits_Linear_8,17,9999,9999,9999,2014336112
11017,18,Jits_Linear_8,18,9999,9999,9999,2015135796
11017,18,Jits_Linear_8,19,9999,9999,9999,2015925308
11017,18,Jits_Linear_8,20,9999,9999,9999,2016705656
11017,18,Jits_Linear_8,21,9999,9999,9999,2017485924
11017,18,Jits_Linear_8,22,9999,9999,9999,2018265156
11017,18,Jits_Linear_8,23,9999,9999,9999,2019045444
11017,18,Jits_Linear_8,24,9999,9999,9999,2019825788
11017,18,Jits_Linear_8,25,9999,9999,9999,2020595800
11017,18,Jits_Linear_8,26,9999,9999,9999,2021365828
11017,18,Jits_Linear_8,27,9999,9999,9999,2022135928
11017,18,Jits_Linear_8,28,9999,9999,9999,2022905952
11017,18,Jits_Linear_8,29,9999,9999,9999,2023675984
11017,18,Jits_Linear_8,30,9999,9999,9999,2024435804
11017,18,Jits_Linear_8,31,9999,9999,9999,2025195624
11017,18,Jits_Linear_8,32,9999,9999,9999,2025955384
11017,18,Jits_Linear_8,33,9999,9999,9999,2026715216
11017,18,Jits_Linear_8,34,9999,9999,9999,2027476020
11017,18,Jits_Linear_8,35,9999,9999,9999,2028225608
11017,18,Jits_Linear_8,36,9999,9999,9999,2028975172
11017,18,Jits_Linear_8,37,9999,9999,9999,2029725792
11017,18,Jits_Linear_8,38,9999,9999,9999,2030475336
11017,18,Jits_Linear_8,39,9999,9999,9999,2031225964
11017,18,Jits_Linear_8,40,9999,9999,9999,2031965264
11017,18,Jits_Linear_8,41,9999,9999,9999,2032705624
11017,18,Jits_Linear_8,42,9999,9999,9999,2033445960
11017,18,Jits_Linear_8,43,9999,9999,9999,2034185308
11017,18,Jits_Linear_8,44,9999,9999,9999,2034925636
11017,18,Jits_Linear_8,45,9999,9999,9999,2035655792
11017,18,Jits_Linear_8,46,9999,9999,9999,2036385872
11017,18,Jits_Linear_8,47,9999,9999,9999,2037115960
11017,18,Jits_Linear_8,48,9999,9999,9999,2037846132
11017,18,Jits_Linear_8,49,9999,9999,9999,2038585436
11017,18,Jits_Linear_8,50,9999,9999,9999,2039305300
11017,18,Jits_Linear_8,51,9999,9999,9999,2040025192
11017,18,Jits_Linear_8,52,9999,9999,9999,2040746056
11017,18,Jits_Linear_8,53,9999,9999,9999,2041465968
11017,18,Jits_Linear_8,54,9999,9999,9999,2042185856
11017,18,Jits_Linear_8,55,9999,9999,9999,2042895476
11017,18,Jits_Linear_8,56,9999,9999,9999,2043606140
11017,18,Jits_Linear_8,57,9999,9999,9999,2044325976
11017,18,Jits_Linear_8,58,9999,9999,9999,2045035616
11017,18,Jits_Linear_8,59,9999,9999,9999,2045745260
11017,18,Jits_Linear_8,60,9999,9999,9999,2046445648
11017,18,Jits_Linear_8,61,9999,9999,9999,2047146076
11017,18,Jits_Linear_8,62,9999,9999,9999,2047845456
11017,18,Jits_Linear_8,63,9999,9999,9999,2048545856
11017,18,Jits_Linear_8,64,9999,9999,9999,2049245292
11017,18,Jits_Linear_8,65,9999,9999,9999,2049935440
11017,18,Jits_Linear_8,66,9999,9999,9999,2050625608
11017,18,Jits_Linear_8,67,9999,9999,9999,2051315808
11017,18,Jits_Linear_8,68,9999,9999,9999,2052005960
11017,18,Jits_Linear_8,69,9999,9999,9999,2052695152
11017,18,Jits_Linear_8,70,9999,9999,9999,2053376064
11017,18,Jits_Linear_8,71,9999,9999,9999,2054065244
11017,18,Jits_Linear_8,72,9999,9999,9999,2054745216
11017,18,Jits_Linear_8,73,9999,9999,9999,2055425088
11017,18,Jits_Linear_8,74,9999,9999,9999,2056106044
11017,18,Jits_Linear_8,75,9999,9999,9999,2056775760
11017,18,Jits_Linear_8,76,9999,9999,9999,2057445440
11017,18,Jits_Linear_8,77,9999,9999,9999,2058115148
11017,18,Jits_Linear_8,78,9999,9999,9999,2058785896
11017,18,Jits_Linear_8,79,9999,9999,9999,2059455576
11017,18,Jits_Linear_8,80,9999,9999,9999,2060116060
11017,18,Jits_Linear_8,81,9999,9999,9999,2060775536
11017,18,Jits_Linear_8,82,9999,9999,9999,2061436012
11017,18,Jits_Linear_8,83,9999,9999,9999,2062095416
11017,18,Jits_Linear_8,84,9999,9999,9999,2062755896
11017,18,Jits_Linear_8,85,9999,9999,9999,2063405156
11017,18,Jits_Linear_8,86,9999,9999,9999,2064055364
11017,18,Jits_Linear_8,87,9999,9999,9999,2064705648
11017,18,Jits_Linear_8,88,9999,9999,9999,2065355836
11017,18,Jits_Linear_8,89,9999,9999,9999,2066006132
11017,18,Jits_Linear_8,90,9999,9999,9999,2066646072
11017,18,Jits_Linear_8,91,9999,9999,9999,2067286108
11017,18,Jits_Linear_8,92,9999,9999,9999,2067926128
11017,18,Jits_Linear_8,93,9999,9999,9999,2068566076
11017,18,Jits_Linear_8,94,9999,9999,9999,2069206084
11017,18,Jits_Linear_8,95,9999,9999,9999,2069846120
11017,18,Jits_Linear_8,96,9999,9999,9999,2070486136
11017,18,Jits_Linear_8,97,9999,9999,9999,2071126088
11017,18,Jits_Linear_8,98,9999,9999,9999,2071766108
11017,18,Jits_Linear_8,99,9999,9999,9999,2072406076
11017,18,Jits_Linear_8,100,9999,9999,9999,2073035892
11017,18,Jits_Linear_8,101,9999,9999,9999,2073655392
11017,18,Jits_Linear_8,102,9999,9999,9999,2074275924
11017,18,Jits_Linear_8,103,9999,9999,9999,2074895484
11017,18,Jits_Linear_8,104,9999,9999,9999,2075515964
11017,18,Jits_Linear_8,105,9999,9999,9999,2076125260
11017,18,Jits_Linear_8,106,9999,9999,9999,2076735608
11017,18,Jits_Linear_8,107,9999,9999,9999,2077345848
11017,18,Jits_Linear_8,108,9999,9999,9999,2077955136
11017,18,Jits_Linear_8,109,9999,9999,9999,2078565488
11017,18,Jits_Linear_8,110,9999,9999,9999,2079165500
11017,18,Jits_Linear_8,111,9999,9999,9999,2079765596
11017,18,Jits_Linear_8,112,9999,9999,9999,2080365676
11017,18,Jits_Linear_8,113,9999,9999,9999,2080965688
11017,18,Jits_Linear_8,114,9999,9999,9999,2081565792
11017,18,Jits_Linear_8,115,9999,9999,9999,2082155596
11017,18,Jits_Linear_8,116,9999,9999,9999,2082745424
11017,18,Jits_Linear_8,117,9999,9999,9999,2083335252
11017,18,Jits_Linear_8,118,9999,9999,9999,2083926072
11017,18,Jits_Linear_8,119,9999,9999,9999,2084525176
11017,18,Jits_Linear_8,120,9999,9999,9999,2085105776
11017,18,Jits_Linear_8,121,9999,9999,9999,2085685344
11017,18,Jits_Linear_8,122,9999,9999,9999,2086265928
11017,18,Jits_Linear_8,123,9999,9999,9999,2086845536
11017,18,Jits_Linear_8,124,9999,9999,9999,2087425088
11017,18,Jits_Linear_8,125,9999,9999,9999,2087995520
11017,18,Jits_Linear_8,126,9999,9999,9999,2088565856
11017,18,Jits_Linear_8,127,9999,9999,9999,2089135216
11017,18,Jits_Linear_8,128,9999,9999,9999,2089705544
11017,18,Jits_Linear_8,129,9999,9999,9999,2090275908
11017,18,Jits_Linear_8,130,9999,9999,9999,2090836068
11017,18,Jits_Linear_8,131,9999,9999,9999,2091395176
11017,18,Jits_Linear_8,132,9999,9999,9999,2091955320
11017,18,Jits_Linear_8,133,9999,9999,9999,2092515408
11017,18,Jits_Linear_8,134,9999,9999,9999,2093075568
11017,18,Jits_Linear_8,135,9999,9999,9999,2093625432
11017,18,Jits_Linear_8,136,9999,9999,9999,2094175308
11017,18,Jits_Linear_8,137,9999,9999,9999,2094725200
11017,18,Jits_Linear_8,138,9999,9999,9999,2095275092
11017,18,Jits_Linear_8,139,9999,9999,9999,2095826024
11017,18,Jits_Linear_8,140,9999,9999,9999,2096365640
11017,18,Jits_Linear_8,141,9999,9999,9999,2096905324
11017,18,Jits_Linear_8,142,9999,9999,9999,2097446012
11017,18,Jits_Linear_8,143,9999,9999,9999,2097985628
11017,18,Jits_Linear_8,144,9999,9999,9999,2098525304
11017,18,Jits_Linear_8,145,9999,9999,9999,2099055696
11017,18,Jits_Linear_8,146,9999,9999,9999,2099585120
11017,18,Jits_Linear_8,147,9999,9999,9999,2100115580
11017,18,Jits_Linear_8,148,9999,9999,9999,2100645964
11017,18,Jits_Linear_8,149,9999,9999,9999,2101175380
11017,18,Jits_Linear_8,150,9999,9999,9999,2101695592
11017,18,Jits_Linear_8,151,9999,9999,9999,2102215788
11017,18,Jits_Linear_8,152,9999,9999,9999,2102735932
11017,18,Jits_Linear_8,153,9999,9999,9999,2103255144
11017,18,Jits_Linear_8,154,9999,9999,9999,2103775340
11017,18,Jits_Linear_8,155,9999,9999,9999,2104285284
11017,18,Jits_Linear_8,156,9999,9999,9999,2104795240
11017,18,Jits_Linear_8,157,9999,9999,9999,2105305180
11017,18,Jits_Linear_8,158,9999,9999,9999,2105815100
11017,18,Jits_Linear_8,159,9999,9999,9999,2106326096
11017,18,Jits_Linear_8,160,9999,9999,9999,2106836060
11017,18,Jits_Linear_8,161,9999,9999,9999,2107335736
11017,18,Jits_Linear_8,162,9999,9999,9999,2107835492
11017,18,Jits_Linear_8,163,9999,9999,9999,2108335172
11017,18,Jits_Linear_8,164,9999,9999,9999,2108835896
11017,18,Jits_Linear_8,165,9999,9999,9999,2109325384
11017,18,Jits_Linear_8,166,9999,9999,9999,2109815860
11017,18,Jits_Linear_8,167,9999,9999,9999,2110305348
11017,18,Jits_Linear_8,168,9999,9999,9999,2110795904
11017,18,Jits_Linear_8,169,9999,9999,9999,2111285328
11018,16,Jits_ISO_5,0,5,56,103,2119331344
11018,16,Jits_ISO_5,1,5,63,98,2119334592
11018,16,Jits_ISO_5,2,5,80,127,2119337564
11018,16,Jits_ISO_5,0,5,56,103,2119831220
11018,16,Jits_ISO_5,1,5,63,98,2119834312
11018,16,Jits_ISO_5,2,5,80,127,2119837360
11018,16,Jits_ISO_5,0,1,48,47,2120270916
11018,16,Jits_ISO_5,1,5,56,103,2120330572
11018,16,Jits_ISO_5,2,5,80,127,2120340844
11018,16,Jits_ISO_5,3,5,63,98,2120361372
11018,16,Jits_ISO_5,0,5,63,98,2120781460
11018,16,Jits_ISO_5,1,5,80,127,2120810840
11018,16,Jits_ISO_5,2,1,48,53,2120814328
11018,16,Jits_ISO_5,3,5,56,103,2120821324
11018,16,Jits_ISO_5,0,1,48,55,2121310456
11018,16,Jits_ISO_5,1,5,80,127,2121341420
11018,16,Jits_ISO_5,2,5,56,103,2121350420
11018,16,Jits_ISO_5,3,5,63,98,2121381212
11018,16,Jits_ISO_5,0,5,63,98,2121830824
11018,16,Jits_ISO_5,1,1,48,56,2121839944
11018,16,Jits_ISO_5,2,5,56,103,2121860492
11018,16,Jits_ISO_5,3,5,80,127,2121870688
11018,16,Jits_ISO_5,0,5,56,103,2122281408
11018,16,Jits_ISO_5,1,5,63,98,2122330488
11018,16,Jits_ISO_5,2,1,48,57,2122344692
11018,16,Jits_ISO_5,3,5,80,127,2122350940
11018,16,Jits_ISO_5,0,5,80,127,2122781228
11018,16,Jits_ISO_5,1,1,48,54,2122813264
11018,16,Jits_ISO_5,2,5,63,98,2122831276
11018,16,Jits_ISO_5,3,5,56,103,2122871212
11018,16,Jits_ISO_5,0,5,56,103,2123280656
11018,16,Jits_ISO_5,1,5,63,98,2123310332
11018,16,Jits_ISO_5,2,1,48,56,2123322360
11018,16,Jits_ISO_5,3,5,80,127,2123381196
11018,16,Jits_ISO_5,0,5,56,103,2123780376
11018,16,Jits_ISO_5,1,1,48,54,2123822180
11018,16,Jits_ISO_5,2,5,80,127,2123841080
11018,16,Jits_ISO_5,3,5,63,98,2123870456
11018,16,Jits_ISO_5,0,5,56,103,2124290388
11018,16,Jits_ISO_5,1,5,63,98,2124300584
11018,16,Jits_ISO_5,2,1,48,60,2124322604
11018,16,Jits_ISO_5,3,5,80,127,2124340684
11018,16,Jits_ISO_5,0,5,63,98,2124780840
11018,16,Jits_ISO_5,1,1,48,58,2124784180
11018,16,Jits_ISO_5,2,5,80,127,2124860652
11018,16,Jits_ISO_5,3,5,56,103,2124871216
11018,16,Jits_ISO_5,0,1,48,58,2125295668
11018,16,Jits_ISO_5,1,5,63,98,2125330788
11018,16,Jits_ISO_5,2,5,56,103,2125370720
11018,16,Jits_ISO_5,3,5,80,127,2125373788
11018,16,Jits_ISO_5,0,5,56,103,2125790556
11018,16,Jits_ISO_5,1,5,63,98,2125800752
11018,16,Jits_ISO_5,2,1,48,55,2125801720
11018,16,Jits_ISO_5,3,5,80,127,2125840608
11018,16,Jits_ISO_5,0,5,56,103,2126281284
11018,16,Jits_ISO_5,1,5,63,98,2126284348
11018,16,Jits_ISO_5,2,1,48,56,2126295340
11018,16,Jits_ISO_5,3,5,80,127,2126300616
11018,16,Jits_ISO_5,0,5,80,127,2126791208
11018,16,Jits_ISO_5,1,1,48,58,2126792172
11018,16,Jits_ISO_5,2,5,56,103,2126801320
11018,16,Jits_ISO_5,3,5,63,98,2126870876
11018,16,Jits_ISO_5,0,5,63,98,2127280616
11018,16,Jits_ISO_5,1,5,56,103,2127301148
11018,16,Jits_ISO_5,2,1,48,61,2127347708
11018,16,Jits_ISO_5,3,5,80,127,2127380736
11018,16,Jits_ISO_5,0,5,56,103,2127790536
11018,16,Jits_ISO_5,1,1,48,60,2127826096
11018,16,Jits_ISO_5,2,5,80,127,2127831292
11018,16,Jits_ISO_5,3,5,63,98,2127840664
11018,16,Jits_ISO_5,0,5,80,127,2128281220
11018,16,Jits_ISO_5,1,5,63,98,2128310596
11018,16,Jits_ISO_5,2,1,48,55,2128319412
11018,16,Jits_ISO_5,3,5,56,103,2128350524
11018,16,Jits_ISO_5,0,5,56,103,2128801268
11018,16,Jits_ISO_5,1,5,63,98,2128830944
11018,16,Jits_ISO_5,2,1,48,59,2128847316
11018,16,Jits_ISO_5,3,5,80,127,2128881208
11018,16,Jits_ISO_5,0,5,80,127,2129300792
11018,16,Jits_ISO_5,1,5,56,103,2129340656
11018,16,Jits_ISO_5,2,1,48,63,2129345340
11018,16,Jits_ISO_5,3,5,63,98,2129351440
11018,16,Jits_ISO_5,0,5,80,127,2129791472
11018,16,Jits_ISO_5,1,1,48,59,2129821416
11018,16,Jits_ISO_5,2,5,63,98,2129831180
11018,16,Jits_ISO_5,3,5,56,103,2129890668
11018,16,Jits_ISO_5,0,5,56,103,2130291220
11018,16,Jits_ISO_5,1,5,80,127,2130301492
11018,16,Jits_ISO_5,2,1,48,60,2130350172
11018,16,Jits_ISO_5,3,5,63,98,2130381132
11018,16,Jits_ISO_5,0,5,80,127,2130790820
11018,16,Jits_ISO_5,1,1,48,60,2130832968
11018,16,Jits_ISO_5,2,5,63,98,2130851276
11018,16,Jits_ISO_5,3,5,56,103,2130881024
11018,16,Jits_ISO_5,0,5,56,103,2131290496
11018,16,Jits_ISO_5,1,1,48,59,2131345680
11018,16,Jits_ISO_5,2,5,80,127,2131351100
11018,16,Jits_ISO_5,3,5,63,98,2131390888
11018,16,Jits_ISO_5,0,1,48,57,2131805032
11018,16,Jits_ISO_5,1,5,56,103,2131841252
11018,16,Jits_ISO_5,2,5,63,98,2131850624
11018,16,Jits_ISO_5,3,5,80,127,2131854136
11018,16,Jits_ISO_5,0,5,80,127,2132291088
11018,16,Jits_ISO_5,1,1,48,52,2132300284
11018,16,Jits_ISO_5,2,5,63,98,2132381064
11018,16,Jits_ISO_5,3,5,56,103,2132391260
11018,16,Jits_ISO_5,0,5,56,103,2132790600
11018,16,Jits_ISO_5,1,5,63,98,2132793996
11018,16,Jits_ISO_5,2,5,80,127,2132796968
11018,16,Jits_ISO_5,3,1,48,54,2132863320
11018,16,Jits_ISO_5,0,5,80,127,2133311084
11018,16,Jits_ISO_5,1,1,48,62,2133324616
11018,16,Jits_ISO_5,2,5,63,98,2133361280
11018,16,Jits_ISO_5,3,5,56,103,2133390804
11018,16,Jits_ISO_5,0,5,56,103,2133791280
11018,16,Jits_ISO_5,1,5,80,127,2133801252
11018,16,Jits_ISO_5,2,1,48,58,2133846172
11018,16,Jits_ISO_5,3,5,63,98,2133871220
11018,16,Jits_ISO_5,0,5,56,103,2134301212
11018,16,Jits_ISO_5,1,5,63,98,2134320628
11018,16,Jits_ISO_5,2,1,48,52,2134352216
11018,16,Jits_ISO_5,3,5,80,127,2134380860
11018,16,Jits_ISO_5,0,5,80,127,2134790524
11018,16,Jits_ISO_5,1,1,48,49,2134828052
11018,16,Jits_ISO_5,2,5,63,98,2134861268
11018,16,Jits_ISO_5,3,5,56,103,2134880604
11018,16,Jits_ISO_5,0,5,80,127,2135310652
11018,16,Jits_ISO_5,1,5,56,103,2135320924
11018,16,Jits_ISO_5,2,5,63,98,2135331120
11018,16,Jits_ISO_5,3,1,48,51,2135353188
11018,16,Jits_ISO_5,0,5,80,127,2135801156
11018,16,Jits_ISO_5,1,5,56,103,2135820640
11018,16,Jits_ISO_5,2,1,48,47,2135845956
11018,16,Jits_ISO_5,3,5,63,98,2135891308
11018,16,Jits_ISO_5,0,5,56,103,2136311240
11018,16,Jits_ISO_5,1,1,48,45,2136325524
11018,16,Jits_ISO_5,2,5,80,127,2136340936
11018,16,Jits_ISO_5,3,5,63,98,2136361244
11018,16,Jits_ISO_5,0,5,63,98,2136800500
11018,16,Jits_ISO_5,1,1,48,40,2136831636
11018,16,Jits_ISO_5,2,5,56,103,2136861128
11018,16,Jits_ISO_5,3,5,80,127,2136890876
11018,16,Jits_ISO_5,0,5,63,98,2137291164
11018,16,Jits_ISO_5,1,5,80,127,2137294304
11018,16,Jits_ISO_5,2,1,48,46,2137349276
11018,16,Jits_ISO_5,3,5,56,103,2137381156
11018,16,Jits_ISO_5,0,5,56,103,2137811264
11018,16,Jits_ISO_5,1,5,63,98,2137841088
11018,16,Jits_ISO_5,2,1,48,42,2137858452
11018,16,Jits_ISO_5,3,5,80,127,2137881192
11018,16,Jits_ISO_5,0,5,63,98,2138311232
11018,16,Jits_ISO_5,1,1,48,37,2138341324
11018,16,Jits_ISO_5,2,5,56,103,2138351016
11018,16,Jits_ISO_5,3,5,80,127,2138370280
11018,16,Jits_ISO_5,0,1,48,45,2138818416
11018,16,Jits_ISO_5,1,5,63,98,2138821004
11018,16,Jits_ISO_5,2,5,56,103,2138861088
11018,16,Jits_ISO_5,3,5,80,127,2138871060
11018,16,Jits_ISO_5,0,5,80,127,2139301188
11018,16,Jits_ISO_5,1,1,48,51,2139331956
11018,16,Jits_ISO_5,2,5,63,98,2139371012
11018,16,Jits_ISO_5,3,5,56,103,2139391244
11018,16,Jits_ISO_5,0,5,56,103,2139790824
11018,16,Jits_ISO_5,1,5,80,127,2139811132
11018,16,Jits_ISO_5,2,5,63,98,2139850996
11018,16,Jits_ISO_5,3,1,48,50,2139854036
11018,16,Jits_ISO_5,0,5,63,98,2140300608
11018,16,Jits_ISO_5,1,1,48,46,2140320844
11018,16,Jits_ISO_5,2,5,80,127,2140322328
11018,16,Jits_ISO_5,3,5,56,103,2140361068
11018,16,Jits_ISO_5,0,5,63,98,2140801460
11018,16,Jits_ISO_5,1,1,48,50,2140802500
11018,16,Jits_ISO_5,2,5,56,103,2140821012
11018,16,Jits_ISO_5,3,5,80,127,2140831132
11018,16,Jits_ISO_5,0,5,80,127,2141301036
11018,16,Jits_ISO_5,1,1,48,47,2141314640
11018,16,Jits_ISO_5,2,5,56,103,2141320664
11018,16,Jits_ISO_5,3,5,63,98,2141351308
11018,16,Jits_ISO_5,0,1,48,54,2141794824
11018,16,Jits_ISO_5,1,5,56,103,2141870376
11018,16,Jits_ISO_5,2,5,80,127,2141873588
11018,16,Jits_ISO_5,3,5,63,98,2141891040
11018,16,Jits_ISO_5,0,5,63,98,2142291372
11018,16,Jits_ISO_5,1,5,56,103,2142321044
11018,16,Jits_ISO_5,2,1,48,56,2142323488
11018,16,Jits_ISO_5,3,5,80,127,2142381276
11018,16,Jits_ISO_5,0,1,48,51,2142787988
11018,16,Jits_ISO_5,1,5,63,98,2142871032
11018,16,Jits_ISO_5,2,5,56,103,2142881080
11018,16,Jits_ISO_5,3,5,80,127,2142891264
11018,16,Jits_ISO_5,0,1,48,52,2143306764
11018,16,Jits_ISO_5,1,5,56,103,2143320432
11018,16,Jits_ISO_5,2,5,80,127,2143351152
11018,16,Jits_ISO_5,3,5,63,98,2143361348
11018,16,Jits_ISO_5,0,1,48,45,2143787912
11018,16,Jits_ISO_5,1,5,63,98,2143860996
11018,16,Jits_ISO_5,2,5,56,103,2143871412
11018,16,Jits_ISO_5,3,5,80,127,2143890960
11018,16,Jits_ISO_5,0,5,56,103,2144291140
11018,16,Jits_ISO_5,1,1,48,48,2144338824
11018,16,Jits_ISO_5,2,5,63,98,2144350468
11018,16,Jits_ISO_5,3,5,80,127,2144353912
11018,16,Jits_ISO_5,0,5,80,127,2144811332
11018,16,Jits_ISO_5,1,5,56,103,2144820776
11018,16,Jits_ISO_5,2,1,48,51,2144826516
11018,16,Jits_ISO_5,3,5,63,98,2144891344
11018,16,Jits_ISO_5,0,5,80,127,2145300816
11018,16,Jits_ISO_5,1,1,48,50,2145350236
11018,16,Jits_ISO_5,2,5,56,103,2145370412
11018,16,Jits_ISO_5,3,5,63,98,2145381056
11018,16,Jits_ISO_5,0,1,48,57,2145830276
11018,16,Jits_ISO_5,1,5,63,98,2145840488
11018,16,Jits_ISO_5,2,5,56,103,2145850832
11018,16,Jits_ISO_5,3,5,80,127,2145871068
11018,16,Jits_ISO_5,0,5,80,127,2146290908
11018,16,Jits_ISO_5,1,1,48,57,2146321476
11018,16,Jits_ISO_5,2,5,63,98,2146350492
11018,16,Jits_ISO_5,3,5,56,103,2146391624
11018,16,Jits_ISO_5,0,5,56,103,2146830964
11018,16,Jits_ISO_5,1,1,48,55,2146841184
11018,16,Jits_ISO_5,2,5,63,98,2146842520
11018,16,Jits_ISO_5,3,5,80,127,2146881112
11018,16,Jits_ISO_5,0,5,56,103,2147290484
11018,16,Jits_ISO_5,1,5,80,127,2147321056
11018,16,Jits_ISO_5,2,1,48,56,2147361812
11018,16,Jits_ISO_5,3,5,63,98,2147371496
11018,16,Jits_ISO_5,0,1,48,54,2147819344
11018,16,Jits_ISO_5,1,5,56,103,2147831572
11018,16,Jits_ISO_5,2,5,63,98,2147871012
11018,16,Jits_ISO_5,3,5,80,127,2147874452
11018,16,Jits_ISO_5,0,1,48,58,2148328972
11018,16,Jits_ISO_5,1,5,56,103,2148330932
11018,16,Jits_ISO_5,2,5,63,98,2148341200
11018,16,Jits_ISO_5,3,5,80,127,2148360684
11018,16,Jits_ISO_5,0,5,56,103,2148790660
11018,16,Jits_ISO_5,1,5,80,127,2148793656
11018,16,Jits_ISO_5,2,1,48,58,2148809896
11018,16,Jits_ISO_5,3,5,63,98,2148830740
11018,16,Jits_ISO_5,0,1,48,53,2149263544
11018,16,Jits_ISO_5,1,5,63,98,2149331444
11018,16,Jits_ISO_5,2,5,56,103,2149360956
11018,16,Jits_ISO_5,3,5,80,127,2149380444
11018,16,Jits_ISO_5,0,5,80,127,2149801300
11018,16,Jits_ISO_5,1,5,56,103,2149810448
11018,16,Jits_ISO_5,2,1,48,53,2149813492
11018,16,Jits_ISO_5,3,5,63,98,2149821008
11018,16,Jits_ISO_5,0,5,56,103,2150300968
11018,16,Jits_ISO_5,1,1,48,56,2150304012
11018,16,Jits_ISO_5,2,5,80,127,2150341120
11018,16,Jits_ISO_5,3,5,63,98,2150370648
11018,16,Jits_ISO_5,0,5,63,98,2150810904
11018,16,Jits_ISO_5,1,1,48,51,2150820272
11018,16,Jits_ISO_5,2,5,80,127,2150821992
11018,16,Jits_ISO_5,3,5,56,103,2150830392
11018,16,Jits_ISO_5,0,1,48,49,2151287968
11018,16,Jits_ISO_5,1,5,56,103,2151291220
11018,16,Jits_ISO_5,2,5,63,98,2151360976
11018,16,Jits_ISO_5,3,5,80,127,2151371172
11018,16,Jits_ISO_5,0,1,48,52,2151781264
11018,16,Jits_ISO_5,1,5,80,127,2151790880
11018,16,Jits_ISO_5,2,5,56,103,2151801148
11018,16,Jits_ISO_5,3,5,63,98,2151851348
11018,16,Jits_ISO_5,0,1,48,51,2152281220
11018,16,Jits_ISO_5,1,5,80,127,2152300872
11018,16,Jits_ISO_5,2,5,56,103,2152361336
11018,16,Jits_ISO_5,3,5,63,98,2152391144
11018,16,Jits_ISO_5,0,5,56,103,2152800836
11018,16,Jits_ISO_5,1,5,80,127,2152803900
11018,16,Jits_ISO_5,2,5,63,98,2152840848
11018,16,Jits_ISO_5,3,1,48,51,2152847328
11018,16,Jits_ISO_5,0,1,48,59,2153316116
11018,16,Jits_ISO_5,1,5,56,103,2153331132
11018,16,Jits_ISO_5,2,5,63,98,2153360732
11018,16,Jits_ISO_5,3,5,80,127,2153370928
11018,16,Jits_ISO_5,0,1,48,52,2153829652
11018,16,Jits_ISO_5,1,5,63,98,2153841132
11018,16,Jits_ISO_5,2,5,80,127,2153851328
11018,16,Jits_ISO_5,3,5,56,103,2153860404
11018,16,Jits_ISO_5,0,5,80,127,2154290604
11018,16,Jits_ISO_5,1,5,56,103,2154340952
11018,16,Jits_ISO_5,2,5,63,98,2154343944
11018,16,Jits_ISO_5,3,1,48,56,2154351940
11018,16,Jits_ISO_5,0,5,56,103,2154820908
11018,16,Jits_ISO_5,1,5,80,127,2154840396
11018,16,Jits_ISO_5,2,1,48,51,2154845828
11018,16,Jits_ISO_5,3,5,63,98,2154850656
11018,16,Jits_ISO_5,0,5,63,98,2155301324
11018,16,Jits_ISO_5,1,5,56,103,2155330924
11018,16,Jits_ISO_5,2,1,48,53,2155334488
11018,16,Jits_ISO_5,3,5,80,127,2155351672
11018,16,Jits_ISO_5,0,5,56,103,2155811244
11018,16,Jits_ISO_5,1,5,80,127,2155821368
11018,16,Jits_ISO_5,2,1,48,52,2155826804
11018,16,Jits_ISO_5,3,5,63,98,2155891040
11018,16,Jits_ISO_5,0,5,63,98,2156300856
11018,16,Jits_ISO_5,1,1,48,57,2156331404
11018,16,Jits_ISO_5,2,5,80,127,2156340788
11018,16,Jits_ISO_5,3,5,56,103,2156380652
11018,16,Jits_ISO_5,0,5,56,103,2156810756
11018,16,Jits_ISO_5,1,1,48,54,2156813948
11018,16,Jits_ISO_5,2,5,63,98,2156820744
11018,16,Jits_ISO_5,3,5,80,127,2156841204
11018,16,Jits_ISO_5,0,1,48,58,2157303124
11018,16,Jits_ISO_5,1,5,63,98,2157351420
11018,16,Jits_ISO_5,2,5,80,127,2157370684
11018,16,Jits_ISO_5,3,5,56,103,2157391292
11018,16,Jits_ISO_5,0,5,56,103,2157790608
11018,16,Jits_ISO_5,1,1,48,54,2157828648
11018,16,Jits_ISO_5,2,5,80,127,2157870568
11018,16,Jits_ISO_5,3,5,63,98,2157880764
11018,16,Jits_ISO_5,0,1,48,54,2158329976
11018,16,Jits_ISO_5,1,5,80,127,2158331620
11018,16,Jits_ISO_5,2,5,63,98,2158340696
11018,16,Jits_ISO_5,3,5,56,103,2158371144
11018,16,Jits_ISO_5,0,5,63,98,2158790984
11018,16,Jits_ISO_5,1,5,80,127,2158830920
11018,16,Jits_ISO_5,2,1,48,54,2158834788
11018,16,Jits_ISO_5,3,5,56,103,2158891400
11018,16,Jits_ISO_5,0,5,63,98,2159300832
11018,16,Jits_ISO_5,1,1,48,54,2159314584
11018,16,Jits_ISO_5,2,5,56,103,2159351100
11018,16,Jits_ISO_5,3,5,80,127,2159380948
11018,16,Jits_ISO_5,0,5,80,127,2159810904
11018,16,Jits_ISO_5,1,5,63,98,2159821100
11018,16,Jits_ISO_5,2,1,48,46,2159828260
11018,16,Jits_ISO_5,3,5,56,103,2159890868
11018,16,Jits_ISO_5,0,1,48,48,2160325444
11018,16,Jits_ISO_5,1,5,80,127,2160381220
11018,16,Jits_ISO_5,2,5,56,103,2160390664
11018,16,Jits_ISO_5,3,5,63,98,2160393732
11018,16,Jits_ISO_5,0,5,56,103,2160820720
11018,16,Jits_ISO_5,1,1,48,44,2160834852
11018,16,Jits_ISO_5,2,5,80,127,2160841176
11018,16,Jits_ISO_5,3,5,63,98,2160851296
11018,16,Jits_ISO_5,0,5,63,98,2161330732
11018,16,Jits_ISO_5,1,1,48,44,2161337668
11018,16,Jits_ISO_5,2,5,56,103,2161370664
11018,16,Jits_ISO_5,3,5,80,127,2161390896
11018,16,Jits_ISO_5,0,5,63,98,2161831220
11018,16,Jits_ISO_5,1,1,48,46,2161870452
11018,16,Jits_ISO_5,2,5,56,103,2161890700
11018,16,Jits_ISO_5,3,5,80,127,2161893768
11018,16,Jits_ISO_5,0,5,56,103,2162291016
11018,16,Jits_ISO_5,1,5,80,127,2162310724
11018,16,Jits_ISO_5,2,5,63,98,2162350808
11018,16,Jits_ISO_5,3,1,48,45,2162361652
11018,16,Jits_ISO_5,0,5,56,103,2162820428
11018,16,Jits_ISO_5,1,5,63,98,2162840964
11018,16,Jits_ISO_5,2,1,48,48,2162842900
11018,16,Jits_ISO_5,3,5,80,127,2162851224
11018,16,Jits_ISO_5,0,5,80,127,2163290728
11018,16,Jits_ISO_5,1,5,56,103,2163321304
11018,16,Jits_ISO_5,2,1,48,54,2163344500
11018,16,Jits_ISO_5,3,5,63,98,2163361084
11018,16,Jits_ISO_5,0,5,80,127,2163800516
11018,16,Jits_ISO_5,1,1,48,51,2163819840
11018,16,Jits_ISO_5,2,5,56,103,2163821336
11018,16,Jits_ISO_5,3,5,63,98,2163881576
11018,16,Jits_ISO_5,0,5,56,103,2164311644
11018,16,Jits_ISO_5,1,1,48,52,2164330152
11018,16,Jits_ISO_5,2,5,80,127,2164331728
11018,16,Jits_ISO_5,3,5,63,98,2164391216
11018,16,Jits_ISO_5,0,5,80,127,2164790868
11018,16,Jits_ISO_5,1,5,56,103,2164800992
11018,16,Jits_ISO_5,2,1,48,53,2164808444
11018,16,Jits_ISO_5,3,5,63,98,2164840920
11018,16,Jits_ISO_5,0,5,63,98,2165291584
11018,16,Jits_ISO_5,1,1,48,53,2165296500
11018,16,Jits_ISO_5,2,5,56,103,2165331364
11018,16,Jits_ISO_5,3,5,80,127,2165334652
11018,16,Jits_ISO_5,0,1,48,53,2165792696
11018,16,Jits_ISO_5,1,5,63,98,2165810632
11018,16,Jits_ISO_5,2,5,80,127,2165850720
11018,16,Jits_ISO_5,3,5,56,103,2165881144
11018,16,Jits_ISO_5,0,5,56,103,2166301156
11018,16,Jits_ISO_5,1,1,48,45,2166307868
11018,16,Jits_ISO_5,2,5,63,98,2166311272
11018,16,Jits_ISO_5,3,5,80,127,2166341020
11018,16,Jits_ISO_5,0,5,80,127,2166790764
11018,16,Jits_ISO_5,1,1,48,46,2166803796
11018,16,Jits_ISO_5,2,5,63,98,2166861060
11018,16,Jits_ISO_5,3,5,56,103,2166871628
11018,16,Jits_ISO_5,0,5,63,98,2167291184
11018,16,Jits_ISO_5,1,1,48,52,2167325792
11018,16,Jits_ISO_5,2,5,56,103,2167360884
11018,16,Jits_ISO_5,3,5,80,127,2167371076
11018,16,Jits_ISO_5,0,5,63,98,2167790916
11018,16,Jits_ISO_5,1,1,48,52,2167801308
11018,16,Jits_ISO_5,2,5,56,103,2167810620
11018,16,Jits_ISO_5,3,5,80,127,2167851404
11018,16,Jits_ISO_5,0,5,56,103,2168300836
11018,16,Jits_ISO_5,1,5,63,98,2168311180
11018,16,Jits_ISO_5,2,1,48,52,2168314076
11018,16,Jits_ISO_5,3,5,80,127,2168390916
11018,16,Jits_ISO_5,0,5,63,98,2168791436
11018,16,Jits_ISO_5,1,5,56,103,2168821036
11018,16,Jits_ISO_5,2,1,48,57,2168834268
11018,16,Jits_ISO_5,3,5,80,127,2168861064
11018,16,Jits_ISO_5,0,5,56,103,2169291092
11018,16,Jits_ISO_5,1,1,48,54,2169300584
11018,16,Jits_ISO_5,2,5,63,98,2169331096
11018,16,Jits_ISO_5,3,5,80,127,2169370984
11018,16,Jits_ISO_5,0,5,80,127,2169790912
11018,16,Jits_ISO_5,1,1,48,56,2169795604
11018,16,Jits_ISO_5,2,5,56,103,2169871092
11018,16,Jits_ISO_5,3,5,63,98,2169880912
11018,16,Jits_ISO_5,0,5,56,103,2170330512
11018,16,Jits_ISO_5,1,5,63,98,2170333576
11018,16,Jits_ISO_5,2,5,80,127,2170340704
11018,16,Jits_ISO_5,3,1,48,27,2170379112
11018,16,Jits_ISO_5,0,5,56,103,2170850780
11018,16,Jits_ISO_5,1,1,48,46,2170853368
11018,16,Jits_ISO_5,2,5,63,98,2170871008
11018,16,Jits_ISO_5,3,5,80,127,2170881572
11018,16,Jits_ISO_5,0,5,63,98,2171310524
11018,16,Jits_ISO_5,1,5,80,127,2171320644
11018,16,Jits_ISO_5,2,5,56,103,2171341028
11018,16,Jits_ISO_5,3,1,48,49,2171366388
11018,16,Jits_ISO_5,0,5,63,98,2171811076
11018,16,Jits_ISO_5,1,1,48,42,2171859080
11018,16,Jits_ISO_5,2,5,56,103,2171891160
11018,16,Jits_ISO_5,3,5,80,127,2171894076
11018,16,Jits_ISO_5,0,5,63,98,2172310880
11018,16,Jits_ISO_5,1,5,56,103,2172331560
11018,16,Jits_ISO_5,2,1,48,49,2172352960
11018,16,Jits_ISO_5,3,5,80,127,2172361004
11018,16,Jits_ISO_5,0,5,56,103,2172810688
11018,16,Jits_ISO_5,1,5,63,98,2172831072
11018,16,Jits_ISO_5,2,1,48,51,2172838452
11018,16,Jits_ISO_5,3,5,80,127,2172841408
11018,16,Jits_ISO_5,0,1,48,58,2173318796
11018,16,Jits_ISO_5,1,5,56,103,2173341144
11018,16,Jits_ISO_5,2,5,63,98,2173370740
11018,16,Jits_ISO_5,3,5,80,127,2173373880
11018,16,Jits_ISO_5,0,5,56,103,2173790680
11018,16,Jits_ISO_5,1,5,63,98,2173830544
11018,16,Jits_ISO_5,2,1,48,55,2173838380
11018,16,Jits_ISO_5,3,5,80,127,2173890848
11018,16,Jits_ISO_5,0,5,56,103,2174310660
11018,16,Jits_ISO_5,1,5,63,98,2174321152
11018,16,Jits_ISO_5,2,1,48,59,2174349528
11018,16,Jits_ISO_5,3,5,80,127,2174381756
11018,16,Jits_ISO_5,0,1,48,57,2174806840
11018,16,Jits_ISO_5,1,5,56,103,2174810772
11018,16,Jits_ISO_5,2,5,80,127,2174831008
11018,16,Jits_ISO_5,3,5,63,98,2174860608
11018,16,Jits_ISO_5,0,1,48,56,2175284480
11018,16,Jits_ISO_5,1,5,80,127,2175311404
11018,16,Jits_ISO_5,2,5,56,103,2175320480
11018,16,Jits_ISO_5,3,5,63,98,2175340864
11018,16,Jits_ISO_5,0,1,48,57,2175775968
11018,16,Jits_ISO_5,1,5,63,98,2175800720
11018,16,Jits_ISO_5,2,5,80,127,2175880500
11018,16,Jits_ISO_5,3,5,56,103,2175890920
11018,16,Jits_ISO_5,0,1,48,60,2176329212
11018,16,Jits_ISO_5,1,5,80,127,2176360920
11018,16,Jits_ISO_5,2,5,56,103,2176381528
11018,16,Jits_ISO_5,3,5,63,98,2176384444
11018,16,Jits_ISO_5,0,5,63,98,2176830680
11018,16,Jits_ISO_5,1,5,80,127,2176834196
11018,16,Jits_ISO_5,2,1,48,56,2176853652
11018,16,Jits_ISO_5,3,5,56,103,2176891512
11018,16,Jits_ISO_5,0,5,56,103,2177311304
11018,16,Jits_ISO_5,1,5,80,127,2177321648
11018,16,Jits_ISO_5,2,1,48,59,2177336004
11018,16,Jits_ISO_5,3,5,63,98,2177361428
11018,16,Jits_ISO_5,0,5,56,103,2177791472
11018,16,Jits_ISO_5,1,1,48,54,2177818432
11018,16,Jits_ISO_5,2,5,63,98,2177850760
11018,16,Jits_ISO_5,3,5,80,127,2177860952
11018,16,Jits_ISO_5,0,5,63,98,2178301408
11018,16,Jits_ISO_5,1,1,48,60,2178306544
11018,16,Jits_ISO_5,2,5,80,127,2178341512
11018,16,Jits_ISO_5,3,5,56,103,2178381300
11018,16,Jits_ISO_5,0,5,56,103,2178801140
11018,16,Jits_ISO_5,1,1,48,54,2178814820
11018,16,Jits_ISO_5,2,5,63,98,2178880724
11018,16,Jits_ISO_5,3,5,80,127,2178884240
11018,16,Jits_ISO_5,0,9999,9999,9999,2119578700
11018,16,Jits_ISO_5,1,9999,9999,9999,2120078420
11018,16,Jits_ISO_5,2,9999,9999,9999,2120578136
11018,16,Jits_ISO_5,3,9999,9999,9999,2121078836
11018,16,Jits_ISO_5,4,9999,9999,9999,2121578576
11018,16,Jits_ISO_5,5,9999,9999,9999,2122078308
11018,16,Jits_ISO_5,6,9999,9999,9999,2122579012
11018,16,Jits_ISO_5,7,9999,9999,9999,2123078756
11018,16,Jits_ISO_5,8,9999,9999,9999,2123578480
11018,16,Jits_ISO_5,9,9999,9999,9999,2124078156
11018,16,Jits_ISO_5,10,9999,9999,9999,2124578868
11018,16,Jits_ISO_5,11,9999,9999,9999,2125078616
11018,16,Jits_ISO_5,12,9999,9999,9999,2125578320
11018,16,Jits_ISO_5,13,9999,9999,9999,2126079064
11018,16,Jits_ISO_5,14,9999,9999,9999,2126578800
11018,16,Jits_ISO_5,15,9999,9999,9999,2127078472
11018,16,Jits_ISO_5,16,9999,9999,9999,2127578220
11018,16,Jits_ISO_5,17,9999,9999,9999,2128078924
11018,16,Jits_ISO_5,18,9999,9999,9999,2128578672
11018,16,Jits_ISO_5,19,9999,9999,9999,2129078348
11018,16,Jits_ISO_5,20,9999,9999,9999,2129579068
11018,16,Jits_ISO_5,21,9999,9999,9999,2130089076
11018,16,Jits_ISO_5,22,9999,9999,9999,2130588752
11018,16,Jits_ISO_5,23,9999,9999,9999,2131088500
11018,16,Jits_ISO_5,24,9999,9999,9999,2131588172
11018,16,Jits_ISO_5,25,9999,9999,9999,2132088884
11018,16,Jits_ISO_5,26,9999,9999,9999,2132588620
11018,16,Jits_ISO_5,27,9999,9999,9999,2133088340
11018,16,Jits_ISO_5,28,9999,9999,9999,2133589064
11018,16,Jits_ISO_5,29,9999,9999,9999,2134088808
11018,16,Jits_ISO_5,30,9999,9999,9999,2134588480
11018,16,Jits_ISO_5,31,9999,9999,9999,2135088228
11018,16,Jits_ISO_5,32,9999,9999,9999,2135588924
11018,16,Jits_ISO_5,33,9999,9999,9999,2136088668
11018,16,Jits_ISO_5,34,9999,9999,9999,2136588392
11018,16,Jits_ISO_5,35,9999,9999,9999,2137088064
11018,16,Jits_ISO_5,36,9999,9999,9999,2137588832
11018,16,Jits_ISO_5,37,9999,9999,9999,2138088564
11018,16,Jits_ISO_5,38,9999,9999,9999,2138588240
11018,16,Jits_ISO_5,39,9999,9999,9999,2139089020
11018,16,Jits_ISO_5,40,9999,9999,9999,2139588680
11018,16,Jits_ISO_5,41,9999,9999,9999,2140088424
11018,16,Jits_ISO_5,42,9999,9999,9999,2140588096
11018,16,Jits_ISO_5,43,9999,9999,9999,2141088868
11018,16,Jits_ISO_5,44,9999,9999,9999,2141588596
11018,16,Jits_ISO_5,45,9999,9999,9999,2142088268
11018,16,Jits_ISO_5,46,9999,9999,9999,2142589048
11018,16,Jits_ISO_5,47,9999,9999,9999,2143088712
11018,16,Jits_ISO_5,48,9999,9999,9999,2143588448
11018,16,Jits_ISO_5,49,9999,9999,9999,2144088188
11018,16,Jits_ISO_5,50,9999,9999,9999,2144588884
11018,16,Jits_ISO_5,51,9999,9999,9999,2145088632
11018,16,Jits_ISO_5,52,9999,9999,9999,2145588308
11018,16,Jits_ISO_5,53,9999,9999,9999,2146089024
11018,16,Jits_ISO_5,54,9999,9999,9999,2146588760
11018,16,Jits_ISO_5,55,9999,9999,9999,2147088436
11018,16,Jits_ISO_5,56,9999,9999,9999,2147588160
11018,16,Jits_ISO_5,57,9999,9999,9999,2148088948
11018,16,Jits_ISO_5,58,9999,9999,9999,2148588608
11018,16,Jits_ISO_5,59,9999,9999,9999,2149088328
11018,16,Jits_ISO_5,60,9999,9999,9999,2149589052
11018,16,Jits_ISO_5,61,9999,9999,9999,2150088784
11018,16,Jits_ISO_5,62,9999,9999,9999,2150588532
11018,16,Jits_ISO_5,63,9999,9999,9999,2151088204
11018,16,Jits_ISO_5,64,9999,9999,9999,2151588980
11018,16,Jits_ISO_5,65,9999,9999,9999,2152088636
11018,16,Jits_ISO_5,66,9999,9999,9999,2152588372
11018,16,Jits_ISO_5,67,9999,9999,9999,2153088092
11018,16,Jits_ISO_5,68,9999,9999,9999,2153588816
11018,16,Jits_ISO_5,69,9999,9999,9999,2154088548
11018,16,Jits_ISO_5,70,9999,9999,9999,2154588272
11018,16,Jits_ISO_5,71,9999,9999,9999,2155088988
11018,16,Jits_ISO_5,72,9999,9999,9999,2155588664
11018,16,Jits_ISO_5,73,9999,9999,9999,2156088400
11018,16,Jits_ISO_5,74,9999,9999,9999,2156588124
11018,16,Jits_ISO_5,75,9999,9999,9999,2157088828
11018,16,Jits_ISO_5,76,9999,9999,9999,2157588576
11018,16,Jits_ISO_5,77,9999,9999,9999,2158088288
11018,16,Jits_ISO_5,78,9999,9999,9999,2158589004
11018,16,Jits_ISO_5,79,9999,9999,9999,2159088736
11018,16,Jits_ISO_5,80,9999,9999,9999,2159588472
11018,16,Jits_ISO_5,81,9999,9999,9999,2160088132
11018,16,Jits_ISO_5,82,9999,9999,9999,2160588924
11018,16,Jits_ISO_5,83,9999,9999,9999,2161088584
11018,16,Jits_ISO_5,84,9999,9999,9999,2161588332
11018,16,Jits_ISO_5,85,9999,9999,9999,2162089032
11018,16,Jits_ISO_5,86,9999,9999,9999,2162588764
11018,16,Jits_ISO_5,87,9999,9999,9999,2163088436
11018,16,Jits_ISO_5,88,9999,9999,9999,2163588184
11018,16,Jits_ISO_5,89,9999,9999,9999,2164088900
11018,16,Jits_ISO_5,90,9999,9999,9999,2164588648
11018,16,Jits_ISO_5,91,9999,9999,9999,2165088320
11018,16,Jits_ISO_5,92,9999,9999,9999,2165589104
11018,16,Jits_ISO_5,93,9999,9999,9999,2166088768
11018,16,Jits_ISO_5,94,9999,9999,9999,2166588496
11018,16,Jits_ISO_5,95,9999,9999,9999,2167088244
11018,16,Jits_ISO_5,96,9999,9999,9999,2167588960
11018,16,Jits_ISO_5,97,9999,9999,9999,2168088692
11018,16,Jits_ISO_5,98,9999,9999,9999,2168588400
11018,16,Jits_ISO_5,99,9999,9999,9999,2169088064
11018,16,Jits_ISO_5,100,9999,9999,9999,2169588844
11018,16,Jits_ISO_5,101,9999,9999,9999,2170088512
11018,16,Jits_ISO_5,102,9999,9999,9999,2170588248
11018,16,Jits_ISO_5,103,9999,9999,9999,2171088972
11018,16,Jits_ISO_5,104,9999,9999,9999,2171588720
11018,16,Jits_ISO_5,105,9999,9999,9999,2172088372
11018,16,Jits_ISO_5,106,9999,9999,9999,2172588104
11018,16,Jits_ISO_5,107,9999,9999,9999,2173088884
11018,16,Jits_ISO_5,108,9999,9999,9999,2173588552
11018,16,Jits_ISO_5,109,9999,9999,9999,2174088284
11018,16,Jits_ISO_5,110,9999,9999,9999,2174589008
11018,16,Jits_ISO_5,111,9999,9999,9999,2175088752
11018,16,Jits_ISO_5,112,9999,9999,9999,2175588412
11018,16,Jits_ISO_5,113,9999,9999,9999,2176088148
11018,16,Jits_ISO_5,114,9999,9999,9999,2176588852
11018,16,Jits_ISO_5,115,9999,9999,9999,2177088576
11018,16,Jits_ISO_5,116,9999,9999,9999,2177588308
11018,16,Jits_ISO_5,117,9999,9999,9999,2178089024
11018,16,Jits_ISO_5,118,9999,9999,9999,2178588772
11018,16,Jits_ISO_5,119,9999,9999,9999,2179088500
11019,7,Jits_ISO_8,0,5,56,103,2188605836
11019,7,Jits_ISO_8,1,5,63,98,2188608780
11019,7,Jits_ISO_8,2,5,80,127,2188612200
11019,7,Jits_ISO_8,0,5,56,103,2189405536
11019,7,Jits_ISO_8,1,5,63,98,2189408704
11019,7,Jits_ISO_8,2,5,80,127,2189411828
11019,7,Jits_ISO_8,0,5,80,127,2190145836
11019,7,Jits_ISO_8,1,1,48,56,2190207768
11019,7,Jits_ISO_8,2,5,63,98,2190236188
11019,7,Jits_ISO_8,3,5,56,103,2190246164
11019,7,Jits_ISO_8,0,5,56,103,2190966304
11019,7,Jits_ISO_8,1,5,63,98,2190976504
11019,7,Jits_ISO_8,2,1,48,60,2191001796
11019,7,Jits_ISO_8,3,5,80,127,2191065508
11019,7,Jits_ISO_8,0,5,63,98,2191736360
11019,7,Jits_ISO_8,1,1,48,61,2191763296
11019,7,Jits_ISO_8,2,5,80,127,2191765808
11019,7,Jits_ISO_8,3,5,56,103,2191795632
11019,7,Jits_ISO_8,0,5,56,103,2192536140
11019,7,Jits_ISO_8,1,1,48,57,2192545480
11019,7,Jits_ISO_8,2,5,80,127,2192636236
11019,7,Jits_ISO_8,3,5,63,98,2192685400
11019,7,Jits_ISO_8,0,5,56,103,2193335568
11019,7,Jits_ISO_8,1,1,48,57,2193368652
11019,7,Jits_ISO_8,2,5,80,127,2193385764
11019,7,Jits_ISO_8,3,5,63,98,2193425652
11019,7,Jits_ISO_8,0,1,48,59,2194142884
11019,7,Jits_ISO_8,1,5,80,127,2194166372
11019,7,Jits_ISO_8,2,5,63,98,2194196000
11019,7,Jits_ISO_8,3,5,56,103,2194265444
11019,7,Jits_ISO_8,0,1,48,57,2194940428
11019,7,Jits_ISO_8,1,5,63,98,2194995628
11019,7,Jits_ISO_8,2,5,56,103,2195026428
11019,7,Jits_ISO_8,3,5,80,127,2195085532
11019,7,Jits_ISO_8,0,5,56,103,2195736156
11019,7,Jits_ISO_8,1,5,80,127,2195739300
11019,7,Jits_ISO_8,2,1,48,57,2195802876
11019,7,Jits_ISO_8,3,5,63,98,2195855652
11019,7,Jits_ISO_8,0,1,48,60,2196564168
11019,7,Jits_ISO_8,1,5,56,103,2196615436
11019,7,Jits_ISO_8,2,5,80,127,2196655452
11019,7,Jits_ISO_8,3,5,63,98,2196665704
11019,7,Jits_ISO_8,0,5,56,103,2197376412
11019,7,Jits_ISO_8,1,1,48,60,2197382152
11019,7,Jits_ISO_8,2,5,80,127,2197396040
11019,7,Jits_ISO_8,3,5,63,98,2197476044
11019,7,Jits_ISO_8,0,5,80,127,2198165800
11019,7,Jits_ISO_8,1,1,48,57,2198221884
11019,7,Jits_ISO_8,2,5,56,103,2198266192
11019,7,Jits_ISO_8,3,5,63,98,2198275492
11019,7,Jits_ISO_8,0,5,63,98,2198936156
11019,7,Jits_ISO_8,1,5,80,127,2198996472
11019,7,Jits_ISO_8,2,5,56,103,2199005548
11019,7,Jits_ISO_8,3,1,48,55,2199037732
11019,7,Jits_ISO_8,0,5,56,103,2199735640
11019,7,Jits_ISO_8,1,1,48,54,2199769104
11019,7,Jits_ISO_8,2,5,63,98,2199806360
11019,7,Jits_ISO_8,3,5,80,127,2199809800
11019,7,Jits_ISO_8,0,1,48,55,2200547228
11019,7,Jits_ISO_8,1,5,63,98,2200566060
11019,7,Jits_ISO_8,2,5,56,103,2200616288
11019,7,Jits_ISO_8,3,5,80,127,2200619352
11019,7,Jits_ISO_8,0,5,56,103,2201326052
11019,7,Jits_ISO_8,1,5,80,127,2201329044
11019,7,Jits_ISO_8,2,1,48,61,2201353456
11019,7,Jits_ISO_8,3,5,63,98,2201416128
11019,7,Jits_ISO_8,0,1,48,50,2202136320
11019,7,Jits_ISO_8,1,5,63,98,2202165568
11019,7,Jits_ISO_8,2,5,56,103,2202255616
11019,7,Jits_ISO_8,3,5,80,127,2202285440
11019,7,Jits_ISO_8,0,5,56,103,2202956068
11019,7,Jits_ISO_8,1,1,48,49,2202993044
11019,7,Jits_ISO_8,2,5,63,98,2203055416
11019,7,Jits_ISO_8,3,5,80,127,2203086268
11019,7,Jits_ISO_8,0,5,63,98,2203776548
11019,7,Jits_ISO_8,1,5,56,103,2203785472
11019,7,Jits_ISO_8,2,1,48,54,2203794964
11019,7,Jits_ISO_8,3,5,80,127,2203876120
11019,7,Jits_ISO_8,0,5,63,98,2204595588
11019,7,Jits_ISO_8,1,1,48,52,2204611964
11019,7,Jits_ISO_8,2,5,56,103,2204675452
11019,7,Jits_ISO_8,3,5,80,127,2204678444
11019,7,Jits_ISO_8,0,5,80,127,2205356408
11019,7,Jits_ISO_8,1,5,63,98,2205376048
11019,7,Jits_ISO_8,2,5,56,103,2205436212
11019,7,Jits_ISO_8,3,1,48,59,2205453360
11019,7,Jits_ISO_8,0,5,56,103,2206196068
11019,7,Jits_ISO_8,1,1,48,57,2206208700
11019,7,Jits_ISO_8,2,5,63,98,2206215548
11019,7,Jits_ISO_8,3,5,80,127,2206218836
11019,7,Jits_ISO_8,0,5,63,98,2206936564
11019,7,Jits_ISO_8,1,1,48,53,2206993424
11019,7,Jits_ISO_8,2,5,80,127,2207016160
11019,7,Jits_ISO_8,3,5,56,103,2207025384
11019,7,Jits_ISO_8,0,5,63,98,2207756052
11019,7,Jits_ISO_8,1,1,48,51,2207765048
11019,7,Jits_ISO_8,2,5,56,103,2207776084
11019,7,Jits_ISO_8,3,5,80,127,2207826284
11019,7,Jits_ISO_8,0,1,48,50,2208540460
11019,7,Jits_ISO_8,1,5,80,127,2208556376
11019,7,Jits_ISO_8,2,5,63,98,2208596316
11019,7,Jits_ISO_8,3,5,56,103,2208615952
11019,7,Jits_ISO_8,0,1,48,54,2209371784
11019,7,Jits_ISO_8,1,5,56,103,2209396096
11019,7,Jits_ISO_8,2,5,63,98,2209406440
11019,7,Jits_ISO_8,3,5,80,127,2209425852
11019,7,Jits_ISO_8,0,5,56,103,2210126132
11019,7,Jits_ISO_8,1,1,48,55,2210162956
11019,7,Jits_ISO_8,2,5,63,98,2210216264
11019,7,Jits_ISO_8,3,5,80,127,2210275816
11019,7,Jits_ISO_8,0,5,80,127,2210955676
11019,7,Jits_ISO_8,1,5,56,103,2210965948
11019,7,Jits_ISO_8,2,1,48,46,2210991908
11019,7,Jits_ISO_8,3,5,63,98,2211035472
11019,7,Jits_ISO_8,0,1,48,54,2211775676
11019,7,Jits_ISO_8,1,5,63,98,2211786184
11019,7,Jits_ISO_8,2,5,80,127,2211876184
11019,7,Jits_ISO_8,3,5,56,103,2211885332
11019,7,Jits_ISO_8,0,5,63,98,2212525448
11019,7,Jits_ISO_8,1,5,80,127,2212575580
11019,7,Jits_ISO_8,2,1,48,53,2212627720
11019,7,Jits_ISO_8,3,5,56,103,2212635984
11019,7,Jits_ISO_8,0,5,56,103,2213355872
11019,7,Jits_ISO_8,1,1,48,54,2213381684
11019,7,Jits_ISO_8,2,5,80,127,2213406168
11019,7,Jits_ISO_8,3,5,63,98,2213425432
11019,7,Jits_ISO_8,0,5,56,103,2214125996
11019,7,Jits_ISO_8,1,1,48,55,2214170196
11019,7,Jits_ISO_8,2,5,80,127,2214186260
11019,7,Jits_ISO_8,3,5,63,98,2214256016
11019,7,Jits_ISO_8,0,5,56,103,2214925820
11019,7,Jits_ISO_8,1,5,80,127,2214956396
11019,7,Jits_ISO_8,2,1,48,55,2214957736
11019,7,Jits_ISO_8,3,5,63,98,2214985988
11019,7,Jits_ISO_8,0,1,48,53,2215711336
11019,7,Jits_ISO_8,1,5,56,103,2215766364
11019,7,Jits_ISO_8,2,5,80,127,2215785928
11019,7,Jits_ISO_8,3,5,63,98,2215846224
11019,7,Jits_ISO_8,0,1,48,53,2216523624
11019,7,Jits_ISO_8,1,5,80,127,2216646076
11019,7,Jits_ISO_8,2,5,56,103,2216656348
11019,7,Jits_ISO_8,3,5,63,98,2216665348
11019,7,Jits_ISO_8,0,5,56,103,2217405808
11019,7,Jits_ISO_8,1,1,48,58,2217415520
11019,7,Jits_ISO_8,2,5,80,127,2217446040
11019,7,Jits_ISO_8,3,5,63,98,2217475564
11019,7,Jits_ISO_8,0,5,56,103,2218175940
11019,7,Jits_ISO_8,1,5,63,98,2218205840
11019,7,Jits_ISO_8,2,5,80,127,2218245480
11019,7,Jits_ISO_8,3,1,48,57,2218249648
11019,7,Jits_ISO_8,0,5,80,127,2218925392
11019,7,Jits_ISO_8,1,5,63,98,2218975744
11019,7,Jits_ISO_8,2,1,48,53,2218995832
11019,7,Jits_ISO_8,3,5,56,103,2218997096
11019,7,Jits_ISO_8,0,5,56,103,2219755904
11019,7,Jits_ISO_8,1,1,48,55,2219769288
11019,7,Jits_ISO_8,2,5,80,127,2219825756
11019,7,Jits_ISO_8,3,5,63,98,2219885832
11019,7,Jits_ISO_8,0,5,80,127,2220555780
11019,7,Jits_ISO_8,1,1,48,55,2220613508
11019,7,Jits_ISO_8,2,5,63,98,2220645984
11019,7,Jits_ISO_8,3,5,56,103,2220666220
11019,7,Jits_ISO_8,0,5,63,98,2221375964
11019,7,Jits_ISO_8,1,5,56,103,2221396200
11019,7,Jits_ISO_8,2,5,80,127,2221436288
11019,7,Jits_ISO_8,3,1,48,53,2221444880
11019,7,Jits_ISO_8,0,5,80,127,2222135740
11019,7,Jits_ISO_8,1,5,63,98,2222156052
11019,7,Jits_ISO_8,2,1,48,50,2222212952
11019,7,Jits_ISO_8,3,5,56,103,2222235988
11019,7,Jits_ISO_8,0,5,63,98,2222926096
11019,7,Jits_ISO_8,1,1,48,47,2222990648
11019,7,Jits_ISO_8,2,5,56,103,2223035852
11019,7,Jits_ISO_8,3,5,80,127,2223038920
11019,7,Jits_ISO_8,0,5,63,98,2223746696
11019,7,Jits_ISO_8,1,5,56,103,2223755624
11019,7,Jits_ISO_8,2,5,80,127,2223758688
11019,7,Jits_ISO_8,3,1,48,54,2223769452
11019,7,Jits_ISO_8,0,5,56,103,2224525936
11019,7,Jits_ISO_8,1,1,48,53,2224570784
11019,7,Jits_ISO_8,2,5,80,127,2224645660
11019,7,Jits_ISO_8,3,5,63,98,2224685536
11019,7,Jits_ISO_8,0,5,56,103,2225345896
11019,7,Jits_ISO_8,1,1,48,51,2225352228
11019,7,Jits_ISO_8,2,5,80,127,2225425636
11019,7,Jits_ISO_8,3,5,63,98,2225446304
11019,7,Jits_ISO_8,0,5,56,103,2226145844
11019,7,Jits_ISO_8,1,1,48,51,2226158476
11019,7,Jits_ISO_8,2,5,63,98,2226257504
11019,7,Jits_ISO_8,3,5,80,127,2226260696
11019,7,Jits_ISO_8,0,5,56,103,2226976080
11019,7,Jits_ISO_8,1,5,80,127,2227005908
11019,7,Jits_ISO_8,2,5,63,98,2227026144
11019,7,Jits_ISO_8,3,1,48,57,2227037128
11019,7,Jits_ISO_8,0,5,63,98,2227756400
11019,7,Jits_ISO_8,1,5,56,103,2227765624
11019,7,Jits_ISO_8,2,5,80,127,2227775892
11019,7,Jits_ISO_8,3,1,48,54,2227834980
11019,7,Jits_ISO_8,0,5,80,127,2228545912
11019,7,Jits_ISO_8,1,1,48,53,2228591060
11019,7,Jits_ISO_8,2,5,56,103,2228596036
11019,7,Jits_ISO_8,3,5,63,98,2228636120
11019,7,Jits_ISO_8,0,5,80,127,2229366236
11019,7,Jits_ISO_8,1,5,63,98,2229385652
11019,7,Jits_ISO_8,2,1,48,56,2229405256
11019,7,Jits_ISO_8,3,5,56,103,2229435624
11019,7,Jits_ISO_8,0,5,80,127,2230176152
11019,7,Jits_ISO_8,1,1,48,53,2230199648
11019,7,Jits_ISO_8,2,5,56,103,2230205672
11019,7,Jits_ISO_8,3,5,63,98,2230275948
11019,7,Jits_ISO_8,0,5,56,103,2231026004
11019,7,Jits_ISO_8,1,5,80,127,2231036200
11019,7,Jits_ISO_8,2,1,48,46,2231046136
11019,7,Jits_ISO_8,3,5,63,98,2231076156
11019,7,Jits_ISO_8,0,5,56,103,2231735752
11019,7,Jits_ISO_8,1,5,63,98,2231756064
11019,7,Jits_ISO_8,2,5,80,127,2231825840
11019,7,Jits_ISO_8,3,1,48,46,2231888812
11019,7,Jits_ISO_8,0,5,63,98,2232555776
11019,7,Jits_ISO_8,1,5,80,127,2232616268
11019,7,Jits_ISO_8,2,5,56,103,2232635828
11019,7,Jits_ISO_8,3,1,48,42,2232654460
11019,7,Jits_ISO_8,0,5,80,127,2233346416
11019,7,Jits_ISO_8,1,5,56,103,2233376268
11019,7,Jits_ISO_8,2,5,63,98,2233405944
11019,7,Jits_ISO_8,3,1,48,53,2233410112
11019,7,Jits_ISO_8,0,5,56,103,2234146012
11019,7,Jits_ISO_8,1,1,48,51,2234192876
11019,7,Jits_ISO_8,2,5,63,98,2234205652
11019,7,Jits_ISO_8,3,5,80,127,2234266040
11019,7,Jits_ISO_8,0,5,80,127,2234966416
11019,7,Jits_ISO_8,1,5,56,103,2234985900
11019,7,Jits_ISO_8,2,1,48,53,2234997412
11019,7,Jits_ISO_8,3,5,63,98,2235055428
11019,7,Jits_ISO_8,0,5,80,127,2235765988
11019,7,Jits_ISO_8,1,5,63,98,2235785700
11019,7,Jits_ISO_8,2,1,48,51,2235803568
11019,7,Jits_ISO_8,3,5,56,103,2235816340
11019,7,Jits_ISO_8,0,5,80,127,2236555744
11019,7,Jits_ISO_8,1,5,63,98,2236575980
11019,7,Jits_ISO_8,2,1,48,53,2236600748
11019,7,Jits_ISO_8,3,5,56,103,2236635468
11019,7,Jits_ISO_8,0,5,80,127,2237356588
11019,7,Jits_ISO_8,1,1,48,51,2237408860
11019,7,Jits_ISO_8,2,5,56,103,2237455588
11019,7,Jits_ISO_8,3,5,63,98,2237485708
11019,7,Jits_ISO_8,0,5,63,98,2238145908
11019,7,Jits_ISO_8,1,5,80,127,2238195964
11019,7,Jits_ISO_8,2,5,56,103,2238215524
11019,7,Jits_ISO_8,3,1,48,51,2238247732
11019,7,Jits_ISO_8,0,5,80,127,2238985700
11019,7,Jits_ISO_8,1,5,56,103,2239016576
11019,7,Jits_ISO_8,2,1,48,53,2239018084
11019,7,Jits_ISO_8,3,5,63,98,2239020676
11019,7,Jits_ISO_8,0,5,63,98,2239816132
11019,7,Jits_ISO_8,1,1,48,50,2239819028
11019,7,Jits_ISO_8,2,5,56,103,2239855916
11019,7,Jits_ISO_8,3,5,80,127,2239875552
11019,7,Jits_ISO_8,0,5,80,127,2240556508
11019,7,Jits_ISO_8,1,1,48,55,2240627060
11019,7,Jits_ISO_8,2,5,63,98,2240636448
11019,7,Jits_ISO_8,3,5,56,103,2240676388
11019,7,Jits_ISO_8,0,5,63,98,2241375568
11019,7,Jits_ISO_8,1,1,48,55,2241453320
11019,7,Jits_ISO_8,2,5,80,127,2241455360
11019,7,Jits_ISO_8,3,5,56,103,2241475968
11019,7,Jits_ISO_8,0,5,56,103,2242216488
11019,7,Jits_ISO_8,1,5,63,98,2242225488
11019,7,Jits_ISO_8,2,1,48,52,2242258424
11019,7,Jits_ISO_8,3,5,80,127,2242265496
11019,7,Jits_ISO_8,0,5,56,103,2242936196
11019,7,Jits_ISO_8,1,5,80,127,2242939116
11019,7,Jits_ISO_8,2,1,48,53,2243047504
11019,7,Jits_ISO_8,3,5,63,98,2243075472
11019,7,Jits_ISO_8,0,5,56,103,2243725648
11019,7,Jits_ISO_8,1,5,63,98,2243815784
11019,7,Jits_ISO_8,2,1,48,52,2243834268
11019,7,Jits_ISO_8,3,5,80,127,2243885408
11019,7,Jits_ISO_8,0,5,63,98,2244606508
11019,7,Jits_ISO_8,1,5,80,127,2244609724
11019,7,Jits_ISO_8,2,1,48,47,2244623748
11019,7,Jits_ISO_8,3,5,56,103,2244665648
11019,7,Jits_ISO_8,0,5,80,127,2245445880
11019,7,Jits_ISO_8,1,1,48,52,2245447820
11019,7,Jits_ISO_8,2,5,56,103,2245465360
11019,7,Jits_ISO_8,3,5,63,98,2245475556
11019,7,Jits_ISO_8,0,5,56,103,2246155624
11019,7,Jits_ISO_8,1,5,63,98,2246165824
11019,7,Jits_ISO_8,2,5,80,127,2246235580
11019,7,Jits_ISO_8,3,1,48,51,2246238700
11019,7,Jits_ISO_8,0,5,80,127,2246956616
11019,7,Jits_ISO_8,1,1,48,50,2246994284
11019,7,Jits_ISO_8,2,5,56,103,2247005620
11019,7,Jits_ISO_8,3,5,63,98,2247055672
11019,7,Jits_ISO_8,0,1,48,50,2247775272
11019,7,Jits_ISO_8,1,5,56,103,2247836056
11019,7,Jits_ISO_8,2,5,63,98,2247846624
11019,7,Jits_ISO_8,3,5,80,127,2247886324
11019,7,Jits_ISO_8,0,5,56,103,2248576516
11019,7,Jits_ISO_8,1,1,48,55,2248603376
11019,7,Jits_ISO_8,2,5,63,98,2248616300
11019,7,Jits_ISO_8,3,5,80,127,2248665380
11019,7,Jits_ISO_8,0,5,80,127,2249336456
11019,7,Jits_ISO_8,1,5,56,103,2249386288
11019,7,Jits_ISO_8,2,5,63,98,2249405848
11019,7,Jits_ISO_8,3,1,48,57,2249409488
11019,7,Jits_ISO_8,0,5,80,127,2250146440
11019,7,Jits_ISO_8,1,1,48,54,2250167324
11019,7,Jits_ISO_8,2,5,63,98,2250205560
11019,7,Jits_ISO_8,3,5,56,103,2250285436
11019,7,Jits_ISO_8,0,5,80,127,2250925492
11019,7,Jits_ISO_8,1,5,56,103,2250966480
11019,7,Jits_ISO_8,2,1,48,50,2250970124
11019,7,Jits_ISO_8,3,5,63,98,2250985960
11019,7,Jits_ISO_8,0,1,48,53,2251740080
11019,7,Jits_ISO_8,1,5,56,103,2251776524
11019,7,Jits_ISO_8,2,5,80,127,2251785600
11019,7,Jits_ISO_8,3,5,63,98,2251825488
11019,7,Jits_ISO_8,0,1,48,55,2252552600
11019,7,Jits_ISO_8,1,5,56,103,2252645996
11019,7,Jits_ISO_8,2,5,63,98,2252685636
11019,7,Jits_ISO_8,3,5,80,127,2252689076
11019,7,Jits_ISO_8,0,5,63,98,2253335820
11019,7,Jits_ISO_8,1,5,80,127,2253375760
11019,7,Jits_ISO_8,2,1,48,55,2253398804
11019,7,Jits_ISO_8,3,5,56,103,2253445432
11019,7,Jits_ISO_8,0,5,63,98,2254125484
11019,7,Jits_ISO_8,1,5,56,103,2254206256
11019,7,Jits_ISO_8,2,1,48,52,2254210868
11019,7,Jits_ISO_8,3,5,80,127,2254265668
11019,7,Jits_ISO_8,0,5,80,127,2254936432
11019,7,Jits_ISO_8,1,5,63,98,2254985440
11019,7,Jits_ISO_8,2,1,48,52,2255000768
11019,7,Jits_ISO_8,3,5,56,103,2255016304
11019,7,Jits_ISO_8,0,5,56,103,2255725888
11019,7,Jits_ISO_8,1,5,63,98,2255776388
11019,7,Jits_ISO_8,2,5,80,127,2255786360
11019,7,Jits_ISO_8,3,1,48,49,2255833984
11019,7,Jits_ISO_8,0,5,56,103,2256535868
11019,7,Jits_ISO_8,1,1,48,47,2256580264
11019,7,Jits_ISO_8,2,5,63,98,2256645476
11019,7,Jits_ISO_8,3,5,80,127,2256665960
11019,7,Jits_ISO_8,0,5,63,98,2257335520
11019,7,Jits_ISO_8,1,1,48,48,2257385116
11019,7,Jits_ISO_8,2,5,80,127,2257386764
11019,7,Jits_ISO_8,3,5,56,103,2257476756
11019,7,Jits_ISO_8,0,5,63,98,2258126160
11019,7,Jits_ISO_8,1,5,80,127,2258155760
11019,7,Jits_ISO_8,2,1,48,52,2258191188
11019,7,Jits_ISO_8,3,5,56,103,2258246208
11019,7,Jits_ISO_8,0,5,63,98,2258925864
11019,7,Jits_ISO_8,1,5,56,103,2258936132
11019,7,Jits_ISO_8,2,1,48,53,2259002272
11019,7,Jits_ISO_8,3,5,80,127,2259035648
11019,7,Jits_ISO_8,0,1,48,52,2259824932
11019,7,Jits_ISO_8,1,5,63,98,2259826504
11019,7,Jits_ISO_8,2,5,80,127,2259855736
11019,7,Jits_ISO_8,3,5,56,103,2259885484
11019,7,Jits_ISO_8,0,1,48,50,2260605224
11019,7,Jits_ISO_8,1,5,80,127,2260646228
11019,7,Jits_ISO_8,2,5,63,98,2260655452
11019,7,Jits_ISO_8,3,5,56,103,2260686100
11019,7,Jits_ISO_8,0,5,80,127,2261345704
11019,7,Jits_ISO_8,1,5,63,98,2261366388
11019,7,Jits_ISO_8,2,5,56,103,2261416368
11019,7,Jits_ISO_8,3,1,48,53,2261419040
11019,7,Jits_ISO_8,0,5,63,98,2262176364
11019,7,Jits_ISO_8,1,1,48,48,2262207208
11019,7,Jits_ISO_8,2,5,80,127,2262235480
11019,7,Jits_ISO_8,3,5,56,103,2262256164
11019,7,Jits_ISO_8,0,5,63,98,2262936068
11019,7,Jits_ISO_8,1,5,56,103,2262986272
11019,7,Jits_ISO_8,2,5,80,127,2262996320
11019,7,Jits_ISO_8,3,1,48,51,2263006336
11019,7,Jits_ISO_8,0,1,48,48,2263760092
11019,7,Jits_ISO_8,1,5,56,103,2263766336
11019,7,Jits_ISO_8,2,5,80,127,2263775560
11019,7,Jits_ISO_8,3,5,63,98,2263875892
11019,7,Jits_ISO_8,0,5,80,127,2264526116
11019,7,Jits_ISO_8,1,5,63,98,2264536312
11019,7,Jits_ISO_8,2,1,48,38,2264552012
11019,7,Jits_ISO_8,3,5,56,103,2264686228
11019,7,Jits_ISO_8,0,5,63,98,2265336104
11019,7,Jits_ISO_8,1,5,80,127,2265376140
11019,7,Jits_ISO_8,2,1,48,51,2265400908
11019,7,Jits_ISO_8,3,5,56,103,2265456080
11019,7,Jits_ISO_8,0,5,56,103,2266125792
11019,7,Jits_ISO_8,1,5,80,127,2266225972
11019,7,Jits_ISO_8,2,5,63,98,2266245384
11019,7,Jits_ISO_8,3,1,48,48,2266248504
11019,7,Jits_ISO_8,0,5,80,127,2266986128
11019,7,Jits_ISO_8,1,5,56,103,2266996252
11019,7,Jits_ISO_8,2,1,48,48,2267056164
11019,7,Jits_ISO_8,3,5,63,98,2267086152
11019,7,Jits_ISO_8,0,5,56,103,2267785560
11019,7,Jits_ISO_8,1,5,63,98,2267806316
11019,7,Jits_ISO_8,2,1,48,48,2267817676
11019,7,Jits_ISO_8,3,5,80,127,2267886104
11019,7,Jits_ISO_8,0,5,63,98,2268536208
11019,7,Jits_ISO_8,1,1,48,42,2268612968
11019,7,Jits_ISO_8,2,5,56,103,2268626260
11019,7,Jits_ISO_8,3,5,80,127,2268629328
11019,7,Jits_ISO_8,0,5,56,103,2269365580
11019,7,Jits_ISO_8,1,5,80,127,2269426268
11019,7,Jits_ISO_8,2,1,48,43,2269429684
11019,7,Jits_ISO_8,3,5,63,98,2269436384
11019,7,Jits_ISO_8,0,5,80,127,2270215504
11019,7,Jits_ISO_8,1,5,56,103,2270225700
11019,7,Jits_ISO_8,2,5,63,98,2270228768
11019,7,Jits_ISO_8,3,1,48,48,2270235040
11019,7,Jits_ISO_8,0,5,56,103,2270976312
11019,7,Jits_ISO_8,1,5,80,127,2270986004
11019,7,Jits_ISO_8,2,5,63,98,2271006168
11019,7,Jits_ISO_8,3,1,48,57,2271028620
11019,7,Jits_ISO_8,0,5,63,98,2271746364
11019,7,Jits_ISO_8,1,5,80,127,2271805956
11019,7,Jits_ISO_8,2,1,48,49,2271823452
11019,7,Jits_ISO_8,3,5,56,103,2271855928
11019,7,Jits_ISO_8,0,1,48,46,2272585856
11019,7,Jits_ISO_8,1,5,63,98,2272626184
11019,7,Jits_ISO_8,2,5,56,103,2272636232
11019,7,Jits_ISO_8,3,5,80,127,2272685372
11019,7,Jits_ISO_8,0,5,63,98,2273325436
11019,7,Jits_ISO_8,1,5,80,127,2273346044
11019,7,Jits_ISO_8,2,5,56,103,2273356168
11019,7,Jits_ISO_8,3,1,48,40,2273405732
11019,7,Jits_ISO_8,0,5,63,98,2274126328
11019,7,Jits_ISO_8,1,5,80,127,2274129468
11019,7,Jits_ISO_8,2,1,48,52,2274137396
11019,7,Jits_ISO_8,3,5,56,103,2274166040
11019,7,Jits_ISO_8,0,1,48,55,2274937080
11019,7,Jits_ISO_8,1,5,63,98,2274995472
11019,7,Jits_ISO_8,2,5,80,127,2275026344
11019,7,Jits_ISO_8,3,5,56,103,2275035552
11019,7,Jits_ISO_8,0,5,56,103,2275746188
11019,7,Jits_ISO_8,1,1,48,51,2275757180
11019,7,Jits_ISO_8,2,5,80,127,2275775932
11019,7,Jits_ISO_8,3,5,63,98,2275805532
11019,7,Jits_ISO_8,0,1,48,51,2276550740
11019,7,Jits_ISO_8,1,5,63,98,2276646172
11019,7,Jits_ISO_8,2,5,56,103,2276686172
11019,7,Jits_ISO_8,3,5,80,127,2276689236
11019,7,Jits_ISO_8,0,5,80,127,2277345692
11019,7,Jits_ISO_8,1,5,56,103,2277425592
11019,7,Jits_ISO_8,2,1,48,50,2277428036
11019,7,Jits_ISO_8,3,5,63,98,2277475636
11019,7,Jits_ISO_8,0,5,80,127,2278126088
11019,7,Jits_ISO_8,1,5,56,103,2278146324
11019,7,Jits_ISO_8,2,1,48,49,2278213288
11019,7,Jits_ISO_8,3,5,63,98,2278235428
11019,7,Jits_ISO_8,0,1,48,42,2278954948
11019,7,Jits_ISO_8,1,5,80,127,2278965760
11019,7,Jits_ISO_8,2,5,63,98,2279005628
11019,7,Jits_ISO_8,3,5,56,103,2279045416
11019,7,Jits_ISO_8,0,5,63,98,2279735808
11019,7,Jits_ISO_8,1,1,48,50,2279787028
11019,7,Jits_ISO_8,2,5,80,127,2279796048
11019,7,Jits_ISO_8,3,5,56,103,2279825944
11019,7,Jits_ISO_8,0,5,56,103,2280536564
11019,7,Jits_ISO_8,1,5,80,127,2280566168
11019,7,Jits_ISO_8,2,1,48,50,2280597304
11019,7,Jits_ISO_8,3,5,63,98,2280656216
11019,7,Jits_ISO_8,0,5,56,103,2281346404
11019,7,Jits_ISO_8,1,1,48,45,2281420544
11019,7,Jits_ISO_8,2,5,80,127,2281456088
11019,7,Jits_ISO_8,3,5,63,98,2281485860
11019,7,Jits_ISO_8,0,1,48,48,2282160404
11019,7,Jits_ISO_8,1,5,56,103,2282196248
11019,7,Jits_ISO_8,2,5,63,98,2282256068
11019,7,Jits_ISO_8,3,5,80,127,2282285504
11019,7,Jits_ISO_8,0,5,56,103,2282966376
11019,7,Jits_ISO_8,1,1,48,48,2283016776
11019,7,Jits_ISO_8,2,5,63,98,2283035980
11019,7,Jits_ISO_8,3,5,80,127,2283055468
11019,7,Jits_ISO_8,0,5,80,127,2283736784
11019,7,Jits_ISO_8,1,5,63,98,2283756048
11019,7,Jits_ISO_8,2,5,56,103,2283806200
11019,7,Jits_ISO_8,3,1,48,46,2283812912
11019,7,Jits_ISO_8,0,9999,9999,9999,2189003848
11019,7,Jits_ISO_8,1,9999,9999,9999,2189803624
11019,7,Jits_ISO_8,2,9999,9999,9999,2190603324
11019,7,Jits_ISO_8,3,9999,9999,9999,2191403068
11019,7,Jits_ISO_8,4,9999,9999,9999,2192203836
11019,7,Jits_ISO_8,5,9999,9999,9999,2193003620
11019,7,Jits_ISO_8,6,9999,9999,9999,2193803340
11019,7,Jits_ISO_8,7,9999,9999,9999,2194603064
11019,7,Jits_ISO_8,8,9999,9999,9999,2195403828
11019,7,Jits_ISO_8,9,9999,9999,9999,2196203600
11019,7,Jits_ISO_8,10,9999,9999,9999,2197003328
11019,7,Jits_ISO_8,11,9999,9999,9999,2197803060
11019,7,Jits_ISO_8,12,9999,9999,9999,2198603836
11019,7,Jits_ISO_8,13,9999,9999,9999,2199403628
11019,7,Jits_ISO_8,14,9999,9999,9999,2200203328
11019,7,Jits_ISO_8,15,9999,9999,9999,2201003116
11019,7,Jits_ISO_8,16,9999,9999,9999,2201803852
11019,7,Jits_ISO_8,17,9999,9999,9999,2202603584
11019,7,Jits_ISO_8,18,9999,9999,9999,2203403368
11019,7,Jits_ISO_8,19,9999,9999,9999,2204203120
11019,7,Jits_ISO_8,20,9999,9999,9999,2205003872
11019,7,Jits_ISO_8,21,9999,9999,9999,2205803580
11019,7,Jits_ISO_8,22,9999,9999,9999,2206603348
11019,7,Jits_ISO_8,23,9999,9999,9999,2207403068
11019,7,Jits_ISO_8,24,9999,9999,9999,2208203900
11019,7,Jits_ISO_8,25,9999,9999,9999,2209003604
11019,7,Jits_ISO_8,26,9999,9999,9999,2209803316
11019,7,Jits_ISO_8,27,9999,9999,9999,2210603124
11019,7,Jits_ISO_8,28,9999,9999,9999,2211403892
11019,7,Jits_ISO_8,29,9999,9999,9999,2212203628
11019,7,Jits_ISO_8,30,9999,9999,9999,2213003336
11019,7,Jits_ISO_8,31,9999,9999,9999,2213803116
11019,7,Jits_ISO_8,32,9999,9999,9999,2214603888
11019,7,Jits_ISO_8,33,9999,9999,9999,2215403604
11019,7,Jits_ISO_8,34,9999,9999,9999,2216203328
11019,7,Jits_ISO_8,35,9999,9999,9999,2217003072
11019,7,Jits_ISO_8,36,9999,9999,9999,2217803832
11019,7,Jits_ISO_8,37,9999,9999,9999,2218603632
11019,7,Jits_ISO_8,38,9999,9999,9999,2219403352
11019,7,Jits_ISO_8,39,9999,9999,9999,2220203080
11019,7,Jits_ISO_8,40,9999,9999,9999,2221003832
11019,7,Jits_ISO_8,41,9999,9999,9999,2221803632
11019,7,Jits_ISO_8,42,9999,9999,9999,2222603336
11019,7,Jits_ISO_8,43,9999,9999,9999,2223403080
11019,7,Jits_ISO_8,44,9999,9999,9999,2224203896
11019,7,Jits_ISO_8,45,9999,9999,9999,2225003608
11019,7,Jits_ISO_8,46,9999,9999,9999,2225803332
11019,7,Jits_ISO_8,47,9999,9999,9999,2226603124
11019,7,Jits_ISO_8,48,9999,9999,9999,2227403896
11019,7,Jits_ISO_8,49,9999,9999,9999,2228203616
11019,7,Jits_ISO_8,50,9999,9999,9999,2229003348
11019,7,Jits_ISO_8,51,9999,9999,9999,2229803072
11019,7,Jits_ISO_8,52,9999,9999,9999,2230603844
11019,7,Jits_ISO_8,53,9999,9999,9999,2231403576
11019,7,Jits_ISO_8,54,9999,9999,9999,2232203372
11019,7,Jits_ISO_8,55,9999,9999,9999,2233003096
11019,7,Jits_ISO_8,56,9999,9999,9999,2233803852
11019,7,Jits_ISO_8,57,9999,9999,9999,2234603576
11019,7,Jits_ISO_8,58,9999,9999,9999,2235403324
11019,7,Jits_ISO_8,59,9999,9999,9999,2236203120
11019,7,Jits_ISO_8,60,9999,9999,9999,2237003888
11019,7,Jits_ISO_8,61,9999,9999,9999,2237803616
11019,7,Jits_ISO_8,62,9999,9999,9999,2238603344
11019,7,Jits_ISO_8,63,9999,9999,9999,2239403092
11019,7,Jits_ISO_8,64,9999,9999,9999,2240203872
11019,7,Jits_ISO_8,65,9999,9999,9999,2241003584
11019,7,Jits_ISO_8,66,9999,9999,9999,2241803340
11019,7,Jits_ISO_8,67,9999,9999,9999,2242603128
11019,7,Jits_ISO_8,68,9999,9999,9999,2243403888
11019,7,Jits_ISO_8,69,9999,9999,9999,2244203616
11019,7,Jits_ISO_8,70,9999,9999,9999,2245003332
11019,7,Jits_ISO_8,71,9999,9999,9999,2245803128
11019,7,Jits_ISO_8,72,9999,9999,9999,2246603892
11019,7,Jits_ISO_8,73,9999,9999,9999,2247403616
11019,7,Jits_ISO_8,74,9999,9999,9999,2248203376
11019,7,Jits_ISO_8,75,9999,9999,9999,2249003088
11019,7,Jits_ISO_8,76,9999,9999,9999,2249803856
11019,7,Jits_ISO_8,77,9999,9999,9999,2250603580
11019,7,Jits_ISO_8,78,9999,9999,9999,2251403376
11019,7,Jits_ISO_8,79,9999,9999,9999,2252203100
11019,7,Jits_ISO_8,80,9999,9999,9999,2253003856
11019,7,Jits_ISO_8,81,9999,9999,9999,2253803640
11019,7,Jits_ISO_8,82,9999,9999,9999,2254603376
11019,7,Jits_ISO_8,83,9999,9999,9999,2255403080
11019,7,Jits_ISO_8,84,9999,9999,9999,2256203844
11019,7,Jits_ISO_8,85,9999,9999,9999,2257003568
11019,7,Jits_ISO_8,86,9999,9999,9999,2257803368
11019,7,Jits_ISO_8,87,9999,9999,9999,2258603072
11019,7,Jits_ISO_8,88,9999,9999,9999,2259403896
11019,7,Jits_ISO_8,89,9999,9999,9999,2260203616
11019,7,Jits_ISO_8,90,9999,9999,9999,2261003356
11019,7,Jits_ISO_8,91,9999,9999,9999,2261803064
11019,7,Jits_ISO_8,92,9999,9999,9999,2262603836
11019,7,Jits_ISO_8,93,9999,9999,9999,2263403616
11019,7,Jits_ISO_8,94,9999,9999,9999,2264203328
11019,7,Jits_ISO_8,95,9999,9999,9999,2265003108
11019,7,Jits_ISO_8,96,9999,9999,9999,2265803876
11019,7,Jits_ISO_8,97,9999,9999,9999,2266603584
11019,7,Jits_ISO_8,98,9999,9999,9999,2267403336
11019,7,Jits_ISO_8,99,9999,9999,9999,2268203064
11019,7,Jits_ISO_8,100,9999,9999,9999,2269003900
11019,7,Jits_ISO_8,101,9999,9999,9999,2269803612
11019,7,Jits_ISO_8,102,9999,9999,9999,2270603380
11019,7,Jits_ISO_8,103,9999,9999,9999,2271403104
11019,7,Jits_ISO_8,104,9999,9999,9999,2272203872
11019,7,Jits_ISO_8,105,9999,9999,9999,2273003592
11019,7,Jits_ISO_8,106,9999,9999,9999,2273803316
11019,7,Jits_ISO_8,107,9999,9999,9999,2274603084
11019,7,Jits_ISO_8,108,9999,9999,9999,2275403840
11019,7,Jits_ISO_8,109,9999,9999,9999,2276203620
11019,7,Jits_ISO_8,110,9999,9999,9999,2277003344
11019,7,Jits_ISO_8,111,9999,9999,9999,2277803132
11019,7,Jits_ISO_8,112,9999,9999,9999,2278603900
11019,7,Jits_ISO_8,113,9999,9999,9999,2279403624
11019,7,Jits_ISO_8,114,9999,9999,9999,2280203360
11019,7,Jits_ISO_8,115,9999,9999,9999,2281003068
11019,7,Jits_ISO_8,116,9999,9999,9999,2281803844
11019,7,Jits_ISO_8,117,9999,9999,9999,2282603576
11019,7,Jits_ISO_8,118,9999,9999,9999,2283403340
11019,7,Jits_ISO_8,119,9999,9999,9999,2284203060
11020,5,ISIP_5,0,5,42,127,2353818868
11020,5,ISIP_5,1,5,42,127,2354318732
11020,5,ISIP_5,2,1,48,42,2354817620
11020,5,ISIP_5,3,5,42,127,2354819120
11020,5,ISIP_5,4,5,42,127,2355319120
11020,5,ISIP_5,5,1,48,50,2355331436
11020,5,ISIP_5,6,5,42,127,2355818812
11020,5,ISIP_5,7,1,48,51,2355856112
11020,5,ISIP_5,8,5,42,127,2356318656
11020,5,ISIP_5,9,1,48,41,2356331272
11020,5,ISIP_5,10,5,42,127,2356819400
11020,5,ISIP_5,11,1,48,41,2356859172
11020,5,ISIP_5,12,5,42,127,2357319020
11020,5,ISIP_5,13,1,48,42,2357334852
11020,5,ISIP_5,14,5,42,127,2357818712
11020,5,ISIP_5,15,1,48,49,2357861624
11020,5,ISIP_5,16,5,42,127,2358318556
11020,5,ISIP_5,17,1,48,49,2358331772
11020,5,ISIP_5,18,5,42,127,2358819224
11020,5,ISIP_5,19,1,48,50,2358831468
11020,5,ISIP_5,20,5,42,127,2359318920
11020,5,ISIP_5,21,1,48,46,2359338420
11020,5,ISIP_5,22,5,42,127,2359818468
11020,5,ISIP_5,23,1,48,47,2359826368
11020,5,ISIP_5,24,5,42,127,2360319628
11020,5,ISIP_5,25,1,48,50,2360328908
11020,5,ISIP_5,26,5,42,127,2360819176
11020,5,ISIP_5,27,1,48,48,2360828504
11020,5,ISIP_5,28,1,48,48,2361305060
11020,5,ISIP_5,29,5,42,127,2361318788
11020,5,ISIP_5,30,1,48,49,2361818568
11020,5,ISIP_5,31,5,42,127,2361819904
11020,5,ISIP_5,32,5,42,127,2362319084
11020,5,ISIP_5,33,1,48,49,2362327440
11020,5,ISIP_5,34,5,42,127,2362818780
11020,5,ISIP_5,35,1,48,51,2362838948
11020,5,ISIP_5,36,5,42,127,2363318548
11020,5,ISIP_5,37,1,48,48,2363334304
11020,5,ISIP_5,38,5,42,127,2363819584
11020,5,ISIP_5,39,1,48,48,2363835344
11020,5,ISIP_5,40,1,48,44,2364302784
11020,5,ISIP_5,41,5,42,127,2364319052
11020,5,ISIP_5,42,1,48,48,2364812880
11020,5,ISIP_5,43,5,42,127,2364818748
11020,5,ISIP_5,44,5,42,127,2365318452
11020,5,ISIP_5,45,1,48,51,2365326508
11020,5,ISIP_5,46,5,42,127,2365819416
11020,5,ISIP_5,47,1,48,52,2365826724
11020,5,ISIP_5,48,1,48,48,2366307704
11020,5,ISIP_5,49,5,42,127,2366318880
11020,5,ISIP_5,50,5,42,127,2366818732
11020,5,ISIP_5,51,1,48,53,2366824020
11020,5,ISIP_5,52,5,42,127,2367319548
11020,5,ISIP_5,53,1,48,54,2367332692
11020,5,ISIP_5,54,5,42,127,2367819244
11020,5,ISIP_5,55,1,48,55,2367837252
11020,5,ISIP_5,56,5,42,127,2368318864
11020,5,ISIP_5,57,1,48,53,2368359308
11020,5,ISIP_5,58,5,42,127,2368818636
11020,5,ISIP_5,59,1,48,54,2368829832
11020,5,ISIP_5,60,1,48,57,2369315000
11020,5,ISIP_5,61,5,42,127,2369319296
11020,5,ISIP_5,62,1,48,51,2369818472
11020,5,ISIP_5,63,5,42,127,2369819964
11020,5,ISIP_5,64,5,42,127,2370318620
11020,5,ISIP_5,65,1,48,51,2370330640
11020,5,ISIP_5,66,1,48,47,2370816616
11020,5,ISIP_5,67,5,42,127,2370818356
11020,5,ISIP_5,68,1,48,48,2371291140
11020,5,ISIP_5,69,5,42,127,2371319296
11020,5,ISIP_5,70,1,48,51,2371766748
11020,5,ISIP_5,71,5,42,127,2371818768
11020,5,ISIP_5,72,1,48,51,2372272204
11020,5,ISIP_5,73,5,42,127,2372318536
11020,5,ISIP_5,74,1,48,47,2372792916
11020,5,ISIP_5,75,5,42,127,2372819280
11020,5,ISIP_5,76,1,48,49,2373303532
11020,5,ISIP_5,77,5,42,127,2373318900
11020,5,ISIP_5,78,1,48,53,2373810928
11020,5,ISIP_5,79,1,48,52,2374297528
11020,5,ISIP_5,80,1,48,52,2374792508
11020,5,ISIP_5,81,1,48,51,2375308804
11020,5,ISIP_5,82,1,48,52,2375794208
11020,5,ISIP_5,83,1,48,51,2376298912
11020,5,ISIP_5,84,1,48,51,2376802492
11020,5,ISIP_5,85,1,48,51,2377289916
11020,5,ISIP_5,86,1,48,55,2377793572
11020,5,ISIP_5,87,1,48,53,2378284360
11020,5,ISIP_5,88,1,48,49,2378786824
11020,5,ISIP_5,89,1,48,51,2379283440
11020,5,ISIP_5,90,1,48,55,2379780292
11020,5,ISIP_5,91,1,48,53,2380292400
11020,5,ISIP_5,92,1,48,51,2380809068
11020,5,ISIP_5,93,1,48,52,2381304396
11020,5,ISIP_5,94,1,48,50,2381789356
11020,5,ISIP_5,95,1,48,52,2382286952
11020,5,ISIP_5,96,1,48,51,2382791572
11020,5,ISIP_5,97,1,48,50,2383271444
11020,5,ISIP_5,98,1,48,53,2383756328
11020,5,ISIP_5,99,1,48,52,2384275088
11020,5,ISIP_5,100,1,48,49,2384744784
11020,5,ISIP_5,101,1,48,52,2385247692
11020,5,ISIP_5,102,1,48,54,2385726964
11020,5,ISIP_5,103,1,48,53,2386232036
11020,5,ISIP_5,104,1,48,52,2386728588
11020,5,ISIP_5,105,1,48,52,2387213620
11020,5,ISIP_5,106,1,48,52,2387696600
11020,5,ISIP_5,107,1,48,54,2388192252
11020,5,ISIP_5,108,1,48,54,2388699352
11020,5,ISIP_5,109,1,48,53,2389213772
11020,5,ISIP_5,110,1,48,54,2389705608
11020,5,ISIP_5,111,1,48,56,2390197524
11020,5,ISIP_5,112,1,48,54,2390705064
11020,5,ISIP_5,113,1,48,53,2391202288
11020,5,ISIP_5,114,1,48,52,2391699884
11020,5,ISIP_5,115,1,48,57,2392213112
11020,5,ISIP_5,116,1,48,56,2392720880
11020,5,ISIP_5,117,1,48,51,2393216236
11020,5,ISIP_5,118,1,48,54,2393702084
11020,5,ISIP_5,119,1,48,53,2394203044
11020,5,ISIP_5,120,1,48,54,2394694812
11020,5,ISIP_5,121,1,48,54,2395186796
11020,5,ISIP_5,122,1,48,56,2395672272
11020,5,ISIP_5,123,1,48,50,2396164784
11020,5,ISIP_5,124,1,48,47,2396670808
11020,5,ISIP_5,125,1,48,52,2397139608
11020,5,ISIP_5,126,1,48,52,2397622916
11020,5,ISIP_5,127,1,48,50,2398146696
11020,5,ISIP_5,128,1,48,48,2398652520
11020,5,ISIP_5,129,1,48,50,2399136720
11020,5,ISIP_5,130,1,48,55,2399619140
11020,5,ISIP_5,131,1,48,55,2400125188
11020,5,ISIP_5,132,1,48,52,2400618068
11020,5,ISIP_5,133,1,48,59,2401098988
11020,5,ISIP_5,134,1,48,54,2401586708
11020,5,ISIP_5,135,1,48,53,2402087744
11020,5,ISIP_5,136,1,48,54,2402573452
11020,5,ISIP_5,137,1,48,47,2403070344
11020,5,ISIP_5,138,1,48,52,2403579460
11020,5,ISIP_5,139,1,48,50,2404092016
11020,5,ISIP_5,140,1,48,48,2404557900
11020,5,ISIP_5,141,1,48,56,2405069704
11020,5,ISIP_5,142,1,48,53,2405577928
11020,5,ISIP_5,143,1,48,53,2406051432
11020,5,ISIP_5,144,1,48,50,2406567652
11020,5,ISIP_5,145,1,48,51,2407064276
11020,5,ISIP_5,146,1,48,53,2407572268
11020,5,ISIP_5,147,1,48,51,2408069040
11020,5,ISIP_5,148,1,48,52,2408564772
11020,5,ISIP_5,149,1,48,51,2409061840
11020,5,ISIP_5,150,1,48,50,2409547544
11020,5,ISIP_5,151,1,48,49,2410056656
11020,5,ISIP_5,152,1,48,51,2410549324
11020,5,ISIP_5,153,1,48,50,2411050432
11020,5,ISIP_5,154,1,48,52,2411546084
11020,5,ISIP_5,155,1,48,53,2412031164
11020,5,ISIP_5,156,1,48,52,2412524572
11020,5,ISIP_5,157,1,48,49,2413013340
11020,5,ISIP_5,158,1,48,52,2413490140
11020,5,ISIP_5,159,1,48,50,2413993276
11020,5,ISIP_5,160,1,48,51,2414471348
11020,5,ISIP_5,161,1,48,46,2414960044
11020,5,ISIP_5,162,1,48,51,2415456216
11020,5,ISIP_5,163,1,48,51,2415962120
11020,5,ISIP_5,164,1,48,48,2416468392
11020,5,ISIP_5,165,1,48,49,2416962172
11020,5,ISIP_5,166,1,48,53,2417480040
11020,5,ISIP_5,167,1,48,47,2417977108
11020,5,ISIP_5,168,1,48,50,2418476204
11020,5,ISIP_5,169,1,48,51,2418955848
11020,5,ISIP_5,170,1,48,51,2419469752
11020,5,ISIP_5,171,1,48,53,2419967100
11020,5,ISIP_5,172,1,48,52,2420448836
11020,5,ISIP_5,173,1,48,50,2420950176
11020,5,ISIP_5,174,1,48,51,2421429064
11020,5,ISIP_5,175,1,48,49,2421911928
11020,5,ISIP_5,176,1,48,48,2422404144
11020,5,ISIP_5,177,1,48,49,2422889992
11020,5,ISIP_5,178,1,48,48,2423382432
11020,5,ISIP_5,179,1,48,51,2423870448
11020,5,ISIP_5,180,1,48,47,2424375380
11020,5,ISIP_5,181,1,48,46,2424877392
11020,5,ISIP_5,182,1,48,53,2425365712
11020,5,ISIP_5,183,1,48,52,2425848324
11020,5,ISIP_5,184,1,48,49,2426355792
11020,5,ISIP_5,185,1,48,49,2426838652
11020,5,ISIP_5,186,1,48,50,2427336472
11020,5,ISIP_5,187,1,48,46,2427840052
11020,5,ISIP_5,188,1,48,51,2428319100
11020,5,ISIP_5,189,1,48,48,2428832176
11020,5,ISIP_5,190,1,48,52,2429321092
11020,5,ISIP_5,191,1,48,49,2429803492
11020,5,ISIP_5,192,1,48,49,2430332296
11020,5,ISIP_5,193,1,48,47,2430827196
11020,5,ISIP_5,194,1,48,52,2431316476
11020,5,ISIP_5,195,1,48,51,2431831292
11020,5,ISIP_5,196,1,48,51,2432333748
11020,5,ISIP_5,197,1,48,50,2432813756
11020,5,ISIP_5,198,1,48,48,2433323188
11020,5,ISIP_5,0,9999,9999,9999,2353816656
11020,5,ISIP_5,1,9999,9999,9999,2354316372
11020,5,ISIP_5,2,9999,9999,9999,2354816088
11020,5,ISIP_5,3,9999,9999,9999,2355316832
11020,5,ISIP_5,4,9999,9999,9999,2355816524
11020,5,ISIP_5,5,9999,9999,9999,2356316220
11020,5,ISIP_5,6,9999,9999,9999,2356816964
11020,5,ISIP_5,7,9999,9999,9999,2357316656
11020,5,ISIP_5,8,9999,9999,9999,2357816428
11020,5,ISIP_5,9,9999,9999,9999,2358316120
11020,5,ISIP_5,10,9999,9999,9999,2358816860
11020,5,ISIP_5,11,9999,9999,9999,2359316556
11020,5,ISIP_5,12,9999,9999,9999,2359816252
11020,5,ISIP_5,13,9999,9999,9999,2360317044
11020,5,ISIP_5,14,9999,9999,9999,2360816740
11020,5,ISIP_5,15,9999,9999,9999,2361316424
11020,5,ISIP_5,16,9999,9999,9999,2361816128
11020,5,ISIP_5,17,9999,9999,9999,2362316868
11020,5,ISIP_5,18,9999,9999,9999,2362816564
11020,5,ISIP_5,19,9999,9999,9999,2363316336
11020,5,ISIP_5,20,9999,9999,9999,2363817076
11020,5,ISIP_5,21,9999,9999,9999,2364316764
11020,5,ISIP_5,22,9999,9999,9999,2364816460
11020,5,ISIP_5,23,9999,9999,9999,2365316164
11020,5,ISIP_5,24,9999,9999,9999,2365816904
11020,5,ISIP_5,25,9999,9999,9999,2366316592
11020,5,ISIP_5,26,9999,9999,9999,2366816368
11020,5,ISIP_5,27,9999,9999,9999,2367317112
11020,5,ISIP_5,28,9999,9999,9999,2367816808
11020,5,ISIP_5,29,9999,9999,9999,2368316504
11020,5,ISIP_5,30,9999,9999,9999,2368816200
11020,5,ISIP_5,31,9999,9999,9999,2369316932
11020,5,ISIP_5,32,9999,9999,9999,2369816636
11020,5,ISIP_5,33,9999,9999,9999,2370316404
11020,5,ISIP_5,34,9999,9999,9999,2370816092
11020,5,ISIP_5,35,9999,9999,9999,2371316784
11020,5,ISIP_5,36,9999,9999,9999,2371816552
11020,5,ISIP_5,37,9999,9999,9999,2372316248
11020,5,ISIP_5,38,9999,9999,9999,2372816992
11020,5,ISIP_5,39,9999,9999,9999,2373316688
11020,5,ISIP_5,40,9999,9999,9999,2373816384
11020,5,ISIP_5,41,9999,9999,9999,2374316148
11020,5,ISIP_5,42,9999,9999,9999,2374816884
11020,5,ISIP_5,43,9999,9999,9999,2375316576
11020,5,ISIP_5,44,9999,9999,9999,2375816264
11020,5,ISIP_5,45,9999,9999,9999,2376317004
11020,5,ISIP_5,46,9999,9999,9999,2376816696
11020,5,ISIP_5,47,9999,9999,9999,2377316460
11020,5,ISIP_5,48,9999,9999,9999,2377816152
11020,5,ISIP_5,49,9999,9999,9999,2378316888
11020,5,ISIP_5,50,9999,9999,9999,2378816580
11020,5,ISIP_5,51,9999,9999,9999,2379316272
11020,5,ISIP_5,52,9999,9999,9999,2379817008
11020,5,ISIP_5,53,9999,9999,9999,2380316772
11020,5,ISIP_5,54,9999,9999,9999,2380816464
11020,5,ISIP_5,55,9999,9999,9999,2381316156
11020,5,ISIP_5,56,9999,9999,9999,2381816944
11020,5,ISIP_5,57,9999,9999,9999,2382316636
11020,5,ISIP_5,58,9999,9999,9999,2382816324
11020,5,ISIP_5,59,9999,9999,9999,2383317064
11020,5,ISIP_5,60,9999,9999,9999,2383816752
11020,5,ISIP_5,61,9999,9999,9999,2384316516
11020,5,ISIP_5,62,9999,9999,9999,2384816208
11020,5,ISIP_5,63,9999,9999,9999,2385316944
11020,5,ISIP_5,64,9999,9999,9999,2385816636
11020,5,ISIP_5,65,9999,9999,9999,2386316400
11020,5,ISIP_5,66,9999,9999,9999,2386816092
11020,5,ISIP_5,67,9999,9999,9999,2387316816
11020,5,ISIP_5,68,9999,9999,9999,2387816504
11020,5,ISIP_5,69,9999,9999,9999,2388316268
11020,5,ISIP_5,70,9999,9999,9999,2388817008
11020,5,ISIP_5,71,9999,9999,9999,2389316696
11020,5,ISIP_5,72,9999,9999,9999,2389816388
11020,5,ISIP_5,73,9999,9999,9999,2390316152
11020,5,ISIP_5,74,9999,9999,9999,2390816888
11020,5,ISIP_5,75,9999,9999,9999,2391316580
11020,5,ISIP_5,76,9999,9999,9999,2391816268
11020,5,ISIP_5,77,9999,9999,9999,2392316984
11020,5,ISIP_5,78,9999,9999,9999,2392816748
11020,5,ISIP_5,79,9999,9999,9999,2393316436
11020,5,ISIP_5,80,9999,9999,9999,2393816128
11020,5,ISIP_5,81,9999,9999,9999,2394316864
11020,5,ISIP_5,82,9999,9999,9999,2394816632
11020,5,ISIP_5,83,9999,9999,9999,2395316324
11020,5,ISIP_5,84,9999,9999,9999,2395817060
11020,5,ISIP_5,85,9999,9999,9999,2396316752
11020,5,ISIP_5,86,9999,9999,9999,2396816440
11020,5,ISIP_5,87,9999,9999,9999,2397316208
11020,5,ISIP_5,88,9999,9999,9999,2397816944
11020,5,ISIP_5,89,9999,9999,9999,2398316632
11020,5,ISIP_5,90,9999,9999,9999,2398816324
11020,5,ISIP_5,91,9999,9999,9999,2399317064
11020,5,ISIP_5,92,9999,9999,9999,2399816752
11020,5,ISIP_5,93,9999,9999,9999,2400316520
11020,5,ISIP_5,94,9999,9999,9999,2400816208
11020,5,ISIP_5,95,9999,9999,9999,2401316948
11020,5,ISIP_5,96,9999,9999,9999,2401816636
11020,5,ISIP_5,97,9999,9999,9999,2402316400
11020,5,ISIP_5,98,9999,9999,9999,2402816068
11020,5,ISIP_5,99,9999,9999,9999,2403316804
11020,5,ISIP_5,100,9999,9999,9999,2403816568
11020,5,ISIP_5,101,9999,9999,9999,2404316260
11020,5,ISIP_5,102,9999,9999,9999,2404816996
11020,5,ISIP_5,103,9999,9999,9999,2405316688
11020,5,ISIP_5,104,9999,9999,9999,2405816380
11020,5,ISIP_5,105,9999,9999,9999,2406316144
11020,5,ISIP_5,106,9999,9999,9999,2406816880
11020,5,ISIP_5,107,9999,9999,9999,2407316572
11020,5,ISIP_5,108,9999,9999,9999,2407816260
11020,5,ISIP_5,109,9999,9999,9999,2408317000
11020,5,ISIP_5,110,9999,9999,9999,2408816688
11020,5,ISIP_5,111,9999,9999,9999,2409316452
11020,5,ISIP_5,112,9999,9999,9999,2409816144
11020,5,ISIP_5,113,9999,9999,9999,2410316880
11020,5,ISIP_5,114,9999,9999,9999,2410816572
11020,5,ISIP_5,115,9999,9999,9999,2411316340
11020,5,ISIP_5,116,9999,9999,9999,2411817076
11020,5,ISIP_5,117,9999,9999,9999,2412316764
11020,5,ISIP_5,118,9999,9999,9999,2412816456
11020,5,ISIP_5,119,9999,9999,9999,2413316144
11020,5,ISIP_5,120,9999,9999,9999,2413816932
11020,5,ISIP_5,121,9999,9999,9999,2414316624
11020,5,ISIP_5,122,9999,9999,9999,2414816316
11020,5,ISIP_5,123,9999,9999,9999,2415317052
11020,5,ISIP_5,124,9999,9999,9999,2415816820
11020,5,ISIP_5,125,9999,9999,9999,2416316508
11020,5,ISIP_5,126,9999,9999,9999,2416816200
11020,5,ISIP_5,127,9999,9999,9999,2417316936
11020,5,ISIP_5,128,9999,9999,9999,2417816628
11020,5,ISIP_5,129,9999,9999,9999,2418316392
11020,5,ISIP_5,130,9999,9999,9999,2418816084
11020,5,ISIP_5,131,9999,9999,9999,2419316824
11020,5,ISIP_5,132,9999,9999,9999,2419816512
11020,5,ISIP_5,133,9999,9999,9999,2420316280
11020,5,ISIP_5,134,9999,9999,9999,2420817016
11020,5,ISIP_5,135,9999,9999,9999,2421316704
11020,5,ISIP_5,136,9999,9999,9999,2421816396
11020,5,ISIP_5,137,9999,9999,9999,2422316088
11020,5,ISIP_5,138,9999,9999,9999,2422816824
11020,5,ISIP_5,139,9999,9999,9999,2423316592
11020,5,ISIP_5,140,9999,9999,9999,2423816280
11020,5,ISIP_5,141,9999,9999,9999,2424316996
11020,5,ISIP_5,142,9999,9999,9999,2424816760
11020,5,ISIP_5,143,9999,9999,9999,2425316452
11020,5,ISIP_5,144,9999,9999,9999,2425816144
11020,5,ISIP_5,145,9999,9999,9999,2426316880
11020,5,ISIP_5,146,9999,9999,9999,2426816568
11020,5,ISIP_5,147,9999,9999,9999,2427316336
11020,5,ISIP_5,148,9999,9999,9999,2427817072
11020,5,ISIP_5,149,9999,9999,9999,2428316764
11020,5,ISIP_5,150,9999,9999,9999,2428816452
11020,5,ISIP_5,151,9999,9999,9999,2429316144
11020,5,ISIP_5,152,9999,9999,9999,2429816948
11020,5,ISIP_5,153,9999,9999,9999,2430316644
11020,5,ISIP_5,154,9999,9999,9999,2430816336
11020,5,ISIP_5,155,9999,9999,9999,2431317068
11020,5,ISIP_5,156,9999,9999,9999,2431816764
11020,5,ISIP_5,157,9999,9999,9999,2432316532
11020,5,ISIP_5,158,9999,9999,9999,2432816216
11020,5,ISIP_5,159,9999,9999,9999,2433316960
11021,3,ISIP_8,0,5,42,127,2461426136
11021,3,ISIP_8,1,5,42,127,2462225916
11021,3,ISIP_8,2,1,48,43,2462370032
11021,3,ISIP_8,3,1,48,47,2462979984
11021,3,ISIP_8,4,5,42,127,2463025496
11021,3,ISIP_8,5,1,48,46,2463799764
11021,3,ISIP_8,6,5,42,127,2463826276
11021,3,ISIP_8,7,1,48,47,2464597256
11021,3,ISIP_8,8,5,42,127,2464626160
11021,3,ISIP_8,9,1,48,47,2465413296
11021,3,ISIP_8,10,5,42,127,2465425968
11021,3,ISIP_8,11,5,42,127,2466225484
11021,3,ISIP_8,12,1,48,44,2466248644
11021,3,ISIP_8,13,1,48,44,2467003332
11021,3,ISIP_8,14,5,42,127,2467026332
11021,3,ISIP_8,15,1,48,47,2467803064
11021,3,ISIP_8,16,5,42,127,2467826068
11021,3,ISIP_8,17,5,42,127,2468626052
11021,3,ISIP_8,18,1,48,39,2468658496
11021,3,ISIP_8,19,1,48,47,2469424052
11021,3,ISIP_8,20,5,42,127,2469425412
11021,3,ISIP_8,21,5,42,127,2470226348
11021,3,ISIP_8,22,1,48,50,2470232604
11021,3,ISIP_8,23,5,42,127,2471026008
11021,3,ISIP_8,24,1,48,47,2471052388
11021,3,ISIP_8,25,5,42,127,2471825888
11021,3,ISIP_8,26,1,48,44,2471826856
11021,3,ISIP_8,27,1,48,47,2472605836
11021,3,ISIP_8,28,5,42,127,2472625464
11021,3,ISIP_8,29,1,48,48,2473380508
11021,3,ISIP_8,30,5,42,127,2473426396
11021,3,ISIP_8,31,1,48,43,2474171264
11021,3,ISIP_8,32,5,42,127,2474226052
11021,3,ISIP_8,33,1,48,48,2474996136
11021,3,ISIP_8,34,5,42,127,2475025736
11021,3,ISIP_8,35,1,48,42,2475817952
11021,3,ISIP_8,36,5,42,127,2475825620
11021,3,ISIP_8,37,5,42,127,2476626404
11021,3,ISIP_8,38,1,48,40,2476643284
11021,3,ISIP_8,39,1,48,39,2477416676
11021,3,ISIP_8,40,5,42,127,2477426132
11021,3,ISIP_8,41,1,48,43,2478210276
11021,3,ISIP_8,42,5,42,127,2478225716
11021,3,ISIP_8,43,1,48,45,2478998412
11021,3,ISIP_8,44,5,42,127,2479025672
11021,3,ISIP_8,45,1,48,45,2479795304
11021,3,ISIP_8,46,5,42,127,2479826156
11021,3,ISIP_8,47,1,48,41,2480618824
11021,3,ISIP_8,48,5,42,127,2480625888
11021,3,ISIP_8,49,1,48,37,2481416184
11021,3,ISIP_8,50,5,42,127,2481425796
11021,3,ISIP_8,51,1,48,41,2482208068
11021,3,ISIP_8,52,5,42,127,2482225680
11021,3,ISIP_8,53,1,48,47,2483007876
11021,3,ISIP_8,54,5,42,127,2483026236
11021,3,ISIP_8,55,1,48,28,2483792644
11021,3,ISIP_8,56,5,42,127,2483826116
11021,3,ISIP_8,57,5,42,127,2484625708
11021,3,ISIP_8,58,1,48,43,2484644608
11021,3,ISIP_8,59,1,48,52,2485416500
11021,3,ISIP_8,60,1,48,56,2486225068
11021,3,ISIP_8,61,1,48,48,2487006236
11021,3,ISIP_8,62,1,48,47,2487826124
11021,3,ISIP_8,63,1,48,49,2488646344
11021,3,ISIP_8,64,1,48,53,2489466124
11021,3,ISIP_8,65,1,48,49,2490252460
11021,3,ISIP_8,66,1,48,45,2491098492
11021,3,ISIP_8,67,1,48,47,2491928460
11021,3,ISIP_8,68,1,48,46,2492701040
11021,3,ISIP_8,69,1,48,46,2493542508
11021,3,ISIP_8,70,1,48,45,2494309476
11021,3,ISIP_8,71,1,48,43,2495099552
11021,3,ISIP_8,72,1,48,51,2495902948
11021,3,ISIP_8,73,1,48,46,2496720776
11021,3,ISIP_8,74,1,48,49,2497539384
11021,3,ISIP_8,75,1,48,49,2498333276
11021,3,ISIP_8,76,1,48,50,2499096356
11021,3,ISIP_8,77,1,48,50,2499928844
11021,3,ISIP_8,78,1,48,47,2500682276
11021,3,ISIP_8,79,1,48,49,2501466892
11021,3,ISIP_8,80,1,48,51,2502319804
11021,3,ISIP_8,81,1,48,52,2503098816
11021,3,ISIP_8,82,1,48,54,2503874908
11021,3,ISIP_8,83,1,48,51,2504641728
11021,3,ISIP_8,84,1,48,55,2505472668
11021,3,ISIP_8,85,1,48,42,2506280400
11021,3,ISIP_8,86,1,48,50,2507103396
11021,3,ISIP_8,87,1,48,52,2507912772
11021,3,ISIP_8,88,1,48,49,2508709136
11021,3,ISIP_8,89,1,48,54,2509552100
11021,3,ISIP_8,90,1,48,49,2510351780
11021,3,ISIP_8,91,1,48,47,2511139764
11021,3,ISIP_8,92,1,48,51,2511940916
11021,3,ISIP_8,93,1,48,48,2512754404
11021,3,ISIP_8,94,1,48,45,2513575232
11021,3,ISIP_8,95,1,48,48,2514360296
11021,3,ISIP_8,96,1,48,49,2515173188
11021,3,ISIP_8,97,1,48,52,2515969432
11021,3,ISIP_8,98,1,48,50,2516760856
11021,3,ISIP_8,99,1,48,51,2517574872
11021,3,ISIP_8,100,1,48,52,2518380284
11021,3,ISIP_8,101,1,48,48,2519219360
11021,3,ISIP_8,102,1,48,49,2520020060
11021,3,ISIP_8,103,1,48,49,2520820840
11021,3,ISIP_8,104,1,48,49,2521663600
11021,3,ISIP_8,105,1,48,47,2522454428
11021,3,ISIP_8,106,1,48,52,2523281828
11021,3,ISIP_8,107,1,48,52,2524072060
11021,3,ISIP_8,108,1,48,53,2524894000
11021,3,ISIP_8,109,1,48,53,2525702956
11021,3,ISIP_8,110,1,48,48,2526514052
11021,3,ISIP_8,111,1,48,47,2527331884
11021,3,ISIP_8,112,1,48,50,2528127276
11021,3,ISIP_8,113,1,48,48,2528942640
11021,3,ISIP_8,114,1,48,51,2529707812
11021,3,ISIP_8,115,1,48,53,2530527516
11021,3,ISIP_8,116,1,48,49,2531266732
11021,3,ISIP_8,117,1,48,50,2532098424
11021,3,ISIP_8,118,1,48,50,2532924780
11021,3,ISIP_8,119,1,48,50,2533701768
11021,3,ISIP_8,120,1,48,43,2534517352
11021,3,ISIP_8,121,1,48,54,2535340348
11021,3,ISIP_8,122,1,48,50,2536117636
11021,3,ISIP_8,123,1,48,52,2536930076
11021,3,ISIP_8,124,1,48,56,2537759828
11021,3,ISIP_8,125,1,48,58,2538579452
11021,3,ISIP_8,126,1,48,53,2539368788
11021,3,ISIP_8,127,1,48,55,2540186164
11021,3,ISIP_8,128,1,48,54,2541012076
11021,3,ISIP_8,129,1,48,54,2541802528
11021,3,ISIP_8,130,1,48,55,2542646416
11021,3,ISIP_8,131,1,48,54,2543427668
11021,3,ISIP_8,132,1,48,56,2544262476
11021,3,ISIP_8,133,1,48,57,2545087112
11021,3,ISIP_8,134,1,48,58,2545912272
11021,3,ISIP_8,135,1,48,54,2546729008
11021,3,ISIP_8,136,1,48,52,2547550200
11021,3,ISIP_8,137,1,48,57,2548315300
11021,3,ISIP_8,138,1,48,54,2549135748
11021,3,ISIP_8,139,1,48,56,2549962180
11021,3,ISIP_8,140,1,48,58,2550792452
11021,3,ISIP_8,141,1,48,54,2551641620
11021,3,ISIP_8,142,1,48,52,2552484136
11021,3,ISIP_8,143,1,48,57,2553277508
11021,3,ISIP_8,144,1,48,53,2554083816
11021,3,ISIP_8,145,1,48,56,2554890752
11021,3,ISIP_8,146,1,48,53,2555704616
11021,3,ISIP_8,147,1,48,54,2556508236
11021,3,ISIP_8,148,1,48,51,2557315520
11021,3,ISIP_8,149,1,48,52,2558153020
11021,3,ISIP_8,150,1,48,51,2558925900
11021,3,ISIP_8,151,1,48,53,2559727268
11021,3,ISIP_8,152,1,48,55,2560542652
11021,3,ISIP_8,153,1,48,55,2561340144
11021,3,ISIP_8,154,1,48,54,2562175548
11021,3,ISIP_8,155,1,48,52,2562959424
11021,3,ISIP_8,156,1,48,56,2563764388
11021,3,ISIP_8,157,1,48,49,2564554244
11021,3,ISIP_8,158,1,48,56,2565360404
11021,3,ISIP_8,159,1,48,56,2566202192
11021,3,ISIP_8,160,1,48,57,2566990480
11021,3,ISIP_8,161,1,48,57,2567800824
11021,3,ISIP_8,162,1,48,58,2568607288
11021,3,ISIP_8,163,1,48,60,2569418916
11021,3,ISIP_8,164,1,48,51,2570237900
11021,3,ISIP_8,165,1,48,57,2571041520
11021,3,ISIP_8,166,1,48,56,2571821564
11021,3,ISIP_8,167,1,48,57,2572612168
11021,3,ISIP_8,168,1,48,52,2573421248
11021,3,ISIP_8,169,1,48,55,2574218884
11021,3,ISIP_8,170,1,48,56,2575060808
11021,3,ISIP_8,171,1,48,52,2575822156
11021,3,ISIP_8,172,1,48,56,2576648924
11021,3,ISIP_8,173,1,48,57,2577473564
11021,3,ISIP_8,174,1,48,52,2578301340
11021,3,ISIP_8,175,1,48,51,2579086632
11021,3,ISIP_8,176,1,48,55,2579917624
11021,3,ISIP_8,177,1,48,58,2580717352
11021,3,ISIP_8,0,9999,9999,9999,2461423700
11021,3,ISIP_8,1,9999,9999,9999,2462223480
11021,3,ISIP_8,2,9999,9999,9999,2463023208
11021,3,ISIP_8,3,9999,9999,9999,2463823988
11021,3,ISIP_8,4,9999,9999,9999,2464623720
11021,3,ISIP_8,5,9999,9999,9999,2465423456
11021,3,ISIP_8,6,9999,9999,9999,2466223196
11021,3,ISIP_8,7,9999,9999,9999,2467023968
11021,3,ISIP_8,8,9999,9999,9999,2467823704
11021,3,ISIP_8,9,9999,9999,9999,2468623468
11021,3,ISIP_8,10,9999,9999,9999,2469423204
11021,3,ISIP_8,11,9999,9999,9999,2470223984
11021,3,ISIP_8,12,9999,9999,9999,2471023716
11021,3,ISIP_8,13,9999,9999,9999,2471823452
11021,3,ISIP_8,14,9999,9999,9999,2472623176
11021,3,ISIP_8,15,9999,9999,9999,2473423956
11021,3,ISIP_8,16,9999,9999,9999,2474223692
11021,3,ISIP_8,17,9999,9999,9999,2475023448
11021,3,ISIP_8,18,9999,9999,9999,2475823184
11021,3,ISIP_8,19,9999,9999,9999,2476623968
11021,3,ISIP_8,20,9999,9999,9999,2477423696
11021,3,ISIP_8,21,9999,9999,9999,2478223428
11021,3,ISIP_8,22,9999,9999,9999,2479023160
11021,3,ISIP_8,23,9999,9999,9999,2479823940
11021,3,ISIP_8,24,9999,9999,9999,2480623672
11021,3,ISIP_8,25,9999,9999,9999,2481423432
11021,3,ISIP_8,26,9999,9999,9999,2482223164
11021,3,ISIP_8,27,9999,9999,9999,2483023948
11021,3,ISIP_8,28,9999,9999,9999,2483823680
11021,3,ISIP_8,29,9999,9999,9999,2484623420
11021,3,ISIP_8,30,9999,9999,9999,2485423220
11021,3,ISIP_8,31,9999,9999,9999,2486223928
11021,3,ISIP_8,32,9999,9999,9999,2487023724
11021,3,ISIP_8,33,9999,9999,9999,2487823412
11021,3,ISIP_8,34,9999,9999,9999,2488623216
11021,3,ISIP_8,35,9999,9999,9999,2489423992
11021,3,ISIP_8,36,9999,9999,9999,2490223720
11021,3,ISIP_8,37,9999,9999,9999,2491023448
11021,3,ISIP_8,38,9999,9999,9999,2491823180
11021,3,ISIP_8,39,9999,9999,9999,2492623952
11021,3,ISIP_8,40,9999,9999,9999,2493423684
11021,3,ISIP_8,41,9999,9999,9999,2494223440
11021,3,ISIP_8,42,9999,9999,9999,2495023168
11021,3,ISIP_8,43,9999,9999,9999,2495823944
11021,3,ISIP_8,44,9999,9999,9999,2496623672
11021,3,ISIP_8,45,9999,9999,9999,2497423476
11021,3,ISIP_8,46,9999,9999,9999,2498223204
11021,3,ISIP_8,47,9999,9999,9999,2499023984
11021,3,ISIP_8,48,9999,9999,9999,2499823712
11021,3,ISIP_8,49,9999,9999,9999,2500623468
11021,3,ISIP_8,50,9999,9999,9999,2501423196
11021,3,ISIP_8,51,9999,9999,9999,2502223972
11021,3,ISIP_8,52,9999,9999,9999,2503023700
11021,3,ISIP_8,53,9999,9999,9999,2503823428
11021,3,ISIP_8,54,9999,9999,9999,2504623156
11021,3,ISIP_8,55,9999,9999,9999,2505423932
11021,3,ISIP_8,56,9999,9999,9999,2506223736
11021,3,ISIP_8,57,9999,9999,9999,2507023416
11021,3,ISIP_8,58,9999,9999,9999,2507823220
11021,3,ISIP_8,59,9999,9999,9999,2508623924
11021,3,ISIP_8,60,9999,9999,9999,2509423728
11021,3,ISIP_8,61,9999,9999,9999,2510223456
11021,3,ISIP_8,62,9999,9999,9999,2511023188
11021,3,ISIP_8,63,9999,9999,9999,2511823964
11021,3,ISIP_8,64,9999,9999,9999,2512623692
11021,3,ISIP_8,65,9999,9999,9999,2513423448
11021,3,ISIP_8,66,9999,9999,9999,2514223176
11021,3,ISIP_8,67,9999,9999,9999,2515023952
11021,3,ISIP_8,68,9999,9999,9999,2515823680
11021,3,ISIP_8,69,9999,9999,9999,2516623412
11021,3,ISIP_8,70,9999,9999,9999,2517423216
11021,3,ISIP_8,71,9999,9999,9999,2518223988
11021,3,ISIP_8,72,9999,9999,9999,2519023720
11021,3,ISIP_8,73,9999,9999,9999,2519823472
11021,3,ISIP_8,74,9999,9999,9999,2520623200
11021,3,ISIP_8,75,9999,9999,9999,2521423976
11021,3,ISIP_8,76,9999,9999,9999,2522223704
11021,3,ISIP_8,77,9999,9999,9999,2523023436
11021,3,ISIP_8,78,9999,9999,9999,2523823168
11021,3,ISIP_8,79,9999,9999,9999,2524623940
11021,3,ISIP_8,80,9999,9999,9999,2525423668
11021,3,ISIP_8,81,9999,9999,9999,2526223424
11021,3,ISIP_8,82,9999,9999,9999,2527023152
11021,3,ISIP_8,83,9999,9999,9999,2527823928
11021,3,ISIP_8,84,9999,9999,9999,2528623732
11021,3,ISIP_8,85,9999,9999,9999,2529423464
11021,3,ISIP_8,86,9999,9999,9999,2530223192
11021,3,ISIP_8,87,9999,9999,9999,2531023968
11021,3,ISIP_8,88,9999,9999,9999,2531823696
11021,3,ISIP_8,89,9999,9999,9999,2532623452
11021,3,ISIP_8,90,9999,9999,9999,2533423180
11021,3,ISIP_8,91,9999,9999,9999,2534223956
11021,3,ISIP_8,92,9999,9999,9999,2535023684
11021,3,ISIP_8,93,9999,9999,9999,2535823412
11021,3,ISIP_8,94,9999,9999,9999,2536623216
11021,3,ISIP_8,95,9999,9999,9999,2537423992
11021,3,ISIP_8,96,9999,9999,9999,2538223720
11021,3,ISIP_8,97,9999,9999,9999,2539023476
11021,3,ISIP_8,98,9999,9999,9999,2539823204
11021,3,ISIP_8,99,9999,9999,9999,2540623980
11021,3,ISIP_8,100,9999,9999,9999,2541423708
11021,3,ISIP_8,101,9999,9999,9999,2542223440
11021,3,ISIP_8,102,9999,9999,9999,2543023168
11021,3,ISIP_8,103,9999,9999,9999,2543823944
11021,3,ISIP_8,104,9999,9999,9999,2544623672
11021,3,ISIP_8,105,9999,9999,9999,2545423428
11021,3,ISIP_8,106,9999,9999,9999,2546223156
11021,3,ISIP_8,107,9999,9999,9999,2547023932
11021,3,ISIP_8,108,9999,9999,9999,2547823736
11021,3,ISIP_8,109,9999,9999,9999,2548623464
11021,3,ISIP_8,110,9999,9999,9999,2549423196
11021,3,ISIP_8,111,9999,9999,9999,2550223968
11021,3,ISIP_8,112,9999,9999,9999,2551023700
11021,3,ISIP_8,113,9999,9999,9999,2551823452
11021,3,ISIP_8,114,9999,9999,9999,2552623180
11021,3,ISIP_8,115,9999,9999,9999,2553423956
11021,3,ISIP_8,116,9999,9999,9999,2554223684
11021,3,ISIP_8,117,9999,9999,9999,2555023416
11021,3,ISIP_8,118,9999,9999,9999,2555823220
11021,3,ISIP_8,119,9999,9999,9999,2556623920
11021,3,ISIP_8,120,9999,9999,9999,2557423724
11021,3,ISIP_8,121,9999,9999,9999,2558223420
11021,3,ISIP_8,122,9999,9999,9999,2559023208
11021,3,ISIP_8,123,9999,9999,9999,2559823956
11021,3,ISIP_8,124,9999,9999,9999,2560623728
11021,3,ISIP_8,125,9999,9999,9999,2561423456
11021,3,ISIP_8,126,9999,9999,9999,2562223184
11021,3,ISIP_8,127,9999,9999,9999,2563023960
11021,3,ISIP_8,128,9999,9999,9999,2563823692
11021,3,ISIP_8,129,9999,9999,9999,2564623444
11021,3,ISIP_8,130,9999,9999,9999,2565423172
11021,3,ISIP_8,131,9999,9999,9999,2566223948
11021,3,ISIP_8,132,9999,9999,9999,2567023680
11021,3,ISIP_8,133,9999,9999,9999,2567823408
11021,3,ISIP_8,134,9999,9999,9999,2568623212
11021,3,ISIP_8,135,9999,9999,9999,2569423988
11021,3,ISIP_8,136,9999,9999,9999,2570223720
11021,3,ISIP_8,137,9999,9999,9999,2571023476
11021,3,ISIP_8,138,9999,9999,9999,2571823200
11021,3,ISIP_8,139,9999,9999,9999,2572623976
11021,3,ISIP_8,140,9999,9999,9999,2573423704
11021,3,ISIP_8,141,9999,9999,9999,2574223436
11021,3,ISIP_8,142,9999,9999,9999,2575023172
11021,3,ISIP_8,143,9999,9999,9999,2575823940
11021,3,ISIP_8,144,9999,9999,9999,2576623676
11021,3,ISIP_8,145,9999,9999,9999,2577423428
11021,3,ISIP_8,146,9999,9999,9999,2578223156
11021,3,ISIP_8,147,9999,9999,9999,2579023932
11021,3,ISIP_8,148,9999,9999,9999,2579823664
11021,3,ISIP_8,149,9999,9999,9999,2580623468
11022,11,Pattern_Practice,0,5,42,127,2679215548
11022,11,Pattern_Practice,1,5,42,127,2679716384
11022,11,Pattern_Practice,2,5,42,127,2680215804
11022,11,Pattern_Practice,3,5,42,127,2680715596
11022,11,Pattern_Practice,4,5,42,127,2681216508
11022,11,Pattern_Practice,5,1,48,48,2681274604
11022,11,Pattern_Practice,6,1,48,49,2681699560
11022,11,Pattern_Practice,7,5,42,127,2681716120
11022,11,Pattern_Practice,8,1,38,62,2682187960
11022,11,Pattern_Practice,9,1,48,50,2682191152
11022,11,Pattern_Practice,10,5,42,127,2682215868
11022,11,Pattern_Practice,11,1,48,43,2682648484
11022,11,Pattern_Practice,12,5,42,127,2682715612
11022,11,Pattern_Practice,13,1,38,69,2682892192
11022,11,Pattern_Practice,14,1,48,48,2683130208
11022,11,Pattern_Practice,15,5,42,127,2683216184
11022,11,Pattern_Practice,16,1,38,66,2683356244
11022,11,Pattern_Practice,17,1,48,60,2683609056
11022,11,Pattern_Practice,18,5,42,127,2683715916
11022,11,Pattern_Practice,19,1,48,58,2684091176
11022,11,Pattern_Practice,20,1,38,72,2684098940
11022,11,Pattern_Practice,21,5,42,127,2684215640
11022,11,Pattern_Practice,22,1,48,57,2684604212
11022,11,Pattern_Practice,23,5,42,127,2684716380
11022,11,Pattern_Practice,24,1,38,80,2684821148
11022,11,Pattern_Practice,25,1,38,62,2685077108
11022,11,Pattern_Practice,26,5,42,127,2685215980
11022,11,Pattern_Practice,27,1,38,69,2685603652
11022,11,Pattern_Practice,28,5,42,127,2685715896
11022,11,Pattern_Practice,29,1,38,64,2686137756
11022,11,Pattern_Practice,30,5,42,127,2686215528
11022,11,Pattern_Practice,31,1,38,71,2686368232
11022,11,Pattern_Practice,32,1,48,76,2686620524
11022,11,Pattern_Practice,33,5,42,127,2686716160
11022,11,Pattern_Practice,34,1,48,84,2686881216
11022,11,Pattern_Practice,35,5,42,127,2687216128
11022,11,Pattern_Practice,36,1,48,56,2687355848
11022,11,Pattern_Practice,37,1,48,61,2687590944
11022,11,Pattern_Practice,38,5,42,127,2687715724
11022,11,Pattern_Practice,39,1,48,75,2688047928
11022,11,Pattern_Practice,40,5,42,127,2688216316
11022,11,Pattern_Practice,41,5,42,127,2688716256
11022,11,Pattern_Practice,42,1,48,64,2689194760
11022,11,Pattern_Practice,43,5,42,127,2689215744
11022,11,Pattern_Practice,44,1,48,72,2689685860
11022,11,Pattern_Practice,45,5,42,127,2689715512
11022,11,Pattern_Practice,46,1,38,65,2690183456
11022,11,Pattern_Practice,47,1,48,70,2690187848
11022,11,Pattern_Practice,48,5,42,127,2690216308
11022,11,Pattern_Practice,49,1,48,55,2690653264
11022,11,Pattern_Practice,50,5,42,127,2690716200
11022,11,Pattern_Practice,51,1,38,66,2690890020
11022,11,Pattern_Practice,52,1,48,55,2691110976
11022,11,Pattern_Practice,53,5,42,127,2691215856
11022,11,Pattern_Practice,54,1,38,67,2691348176
11022,11,Pattern_Practice,55,1,48,57,2691573320
11022,11,Pattern_Practice,56,5,42,127,2691715604
11022,11,Pattern_Practice,57,1,48,63,2692023700
11022,11,Pattern_Practice,58,1,38,73,2692029816
11022,11,Pattern_Practice,59,5,42,127,2692216076
11022,11,Pattern_Practice,60,1,48,57,2692499184
11022,11,Pattern_Practice,61,5,42,127,2692715772
11022,11,Pattern_Practice,62,1,48,70,2692984148
11022,11,Pattern_Practice,63,5,42,127,2693215464
11022,11,Pattern_Practice,64,1,48,55,2693676020
11022,11,Pattern_Practice,65,5,42,127,2693716224
11022,11,Pattern_Practice,66,1,48,63,2694193296
11022,11,Pattern_Practice,67,1,38,56,2694196640
11022,11,Pattern_Practice,68,5,42,127,2694216120
11022,11,Pattern_Practice,69,1,48,50,2694666464
11022,11,Pattern_Practice,70,5,42,127,2694715788
11022,11,Pattern_Practice,71,1,38,61,2694900152
11022,11,Pattern_Practice,72,1,48,52,2695123848
11022,11,Pattern_Practice,73,5,42,127,2695215464
11022,11,Pattern_Practice,74,1,38,60,2695338688
11022,11,Pattern_Practice,75,1,48,56,2695607212
11022,11,Pattern_Practice,76,5,42,127,2695716164
11022,11,Pattern_Practice,77,1,48,60,2696069512
11022,11,Pattern_Practice,78,1,38,67,2696072780
11022,11,Pattern_Practice,79,5,42,127,2696216112
11022,11,Pattern_Practice,80,1,48,52,2696503932
11022,11,Pattern_Practice,81,5,42,127,2696715732
11022,11,Pattern_Practice,82,1,48,53,2697011708
11022,11,Pattern_Practice,83,5,42,127,2697216324
11022,11,Pattern_Practice,84,1,48,58,2697692488
11022,11,Pattern_Practice,85,5,42,127,2697716184
11022,11,Pattern_Practice,86,1,48,61,2698207668
11022,11,Pattern_Practice,87,5,42,127,2698215928
11022,11,Pattern_Practice,88,1,38,61,2698227200
11022,11,Pattern_Practice,89,1,48,48,2698709248
11022,11,Pattern_Practice,90,5,42,127,2698715416
11022,11,Pattern_Practice,91,1,38,63,2698930368
11022,11,Pattern_Practice,92,1,48,50,2699163440
11022,11,Pattern_Practice,93,5,42,127,2699216284
11022,11,Pattern_Practice,94,1,38,59,2699398628
11022,11,Pattern_Practice,95,1,48,52,2699672616
11022,11,Pattern_Practice,96,5,42,127,2699715880
11022,11,Pattern_Practice,97,1,48,60,2700154424
11022,11,Pattern_Practice,98,1,38,50,2700163828
11022,11,Pattern_Practice,99,5,42,127,2700215624
11022,11,Pattern_Practice,100,1,48,56,2700646520
11022,11,Pattern_Practice,101,5,42,127,2700716488
11022,11,Pattern_Practice,102,1,48,57,2701194156
11022,11,Pattern_Practice,103,5,42,127,2701216032
11022,11,Pattern_Practice,104,1,48,53,2701693328
11022,11,Pattern_Practice,105,5,42,127,2701715804
11022,11,Pattern_Practice,106,1,38,63,2702177392
11022,11,Pattern_Practice,107,1,48,56,2702180588
11022,11,Pattern_Practice,108,5,42,127,2702215404
11022,11,Pattern_Practice,109,1,48,48,2702669480
11022,11,Pattern_Practice,110,5,42,127,2702716264
11022,11,Pattern_Practice,111,1,38,54,2702898760
11022,11,Pattern_Practice,112,1,48,52,2703165412
11022,11,Pattern_Practice,113,5,42,127,2703216236
11022,11,Pattern_Practice,114,1,38,58,2703381676
11022,11,Pattern_Practice,115,1,48,50,2703613180
11022,11,Pattern_Practice,116,5,42,127,2703715748
11022,11,Pattern_Practice,117,1,38,61,2704112548
11022,11,Pattern_Practice,118,1,48,53,2704116012
11022,11,Pattern_Practice,119,5,42,127,2704216380
11022,11,Pattern_Practice,120,1,48,45,2704365128
11022,11,Pattern_Practice,121,1,38,65,2704627620
11022,11,Pattern_Practice,122,1,48,50,2704636428
11022,11,Pattern_Practice,123,5,42,127,2704716200
11022,11,Pattern_Practice,124,1,48,46,2704870064
11022,11,Pattern_Practice,125,1,38,68,2705108524
11022,11,Pattern_Practice,126,1,48,55,2705123836
11022,11,Pattern_Practice,127,5,42,127,2705216680
11022,11,Pattern_Practice,128,1,48,53,2705667060
11022,11,Pattern_Practice,129,5,42,127,2705715416
11022,11,Pattern_Practice,130,1,38,53,2706207296
11022,11,Pattern_Practice,131,1,48,53,2706211016
11022,11,Pattern_Practice,132,5,42,127,2706216212
11022,11,Pattern_Practice,133,1,48,41,2706691756
11022,11,Pattern_Practice,134,5,42,127,2706716176
11022,11,Pattern_Practice,135,1,38,58,2706933376
11022,11,Pattern_Practice,136,1,48,44,2707169116
11022,11,Pattern_Practice,137,5,42,127,2707215628
11022,11,Pattern_Practice,138,1,38,57,2707373188
11022,11,Pattern_Practice,139,1,48,40,2707645372
11022,11,Pattern_Practice,140,5,42,127,2707715444
11022,11,Pattern_Practice,141,1,48,49,2708138712
11022,11,Pattern_Practice,142,1,38,63,2708147596
11022,11,Pattern_Practice,143,5,42,127,2708216240
11022,11,Pattern_Practice,144,1,48,48,2708682864
11022,11,Pattern_Practice,145,5,42,127,2708716108
11022,11,Pattern_Practice,146,1,48,48,2709193780
11022,11,Pattern_Practice,147,5,42,127,2709215504
11022,11,Pattern_Practice,148,1,48,53,2709697284
11022,11,Pattern_Practice,149,5,42,127,2709716320
11022,11,Pattern_Practice,150,1,38,71,2710202140
11022,11,Pattern_Practice,151,5,42,127,2710216016
11022,11,Pattern_Practice,152,1,48,51,2710222124
11022,11,Pattern_Practice,153,1,48,49,2710700004
11022,11,Pattern_Practice,154,5,42,127,2710715972
11022,11,Pattern_Practice,155,1,38,59,2710936988
11022,11,Pattern_Practice,156,1,48,53,2711198260
11022,11,Pattern_Practice,157,5,42,127,2711215424
11022,11,Pattern_Practice,158,1,38,52,2711398888
11022,11,Pattern_Practice,159,1,48,55,2711664420
11022,11,Pattern_Practice,160,5,42,127,2711716292
11022,11,Pattern_Practice,161,1,38,50,2712136144
11022,11,Pattern_Practice,162,1,48,55,2712153024
11022,11,Pattern_Practice,163,5,42,127,2712216040
11022,11,Pattern_Practice,164,1,48,56,2712645436
11022,11,Pattern_Practice,165,5,42,127,2712715708
11022,11,Pattern_Practice,166,1,48,58,2713181708
11022,11,Pattern_Practice,167,5,42,127,2713216300
11022,11,Pattern_Practice,168,1,48,55,2713707132
11022,11,Pattern_Practice,169,5,42,127,2713716068
11022,11,Pattern_Practice,170,1,38,65,2714214408
11022,11,Pattern_Practice,171,5,42,127,2714217180
11022,11,Pattern_Practice,172,1,48,59,2714224044
11022,11,Pattern_Practice,173,1,48,50,2714693848
11022,11,Pattern_Practice,174,5,42,127,2714715648
11022,11,Pattern_Practice,175,1,38,57,2714938532
11022,11,Pattern_Practice,176,1,48,53,2715196588
11022,11,Pattern_Practice,177,5,42,127,2715216144
11022,11,Pattern_Practice,178,1,38,55,2715358892
11022,11,Pattern_Practice,179,1,48,52,2715640384
11022,11,Pattern_Practice,180,5,42,127,2715715964
11022,11,Pattern_Practice,181,1,38,68,2716113868
11022,11,Pattern_Practice,182,1,48,22,2716124328
11022,11,Pattern_Practice,183,5,42,127,2716215848
11022,11,Pattern_Practice,184,1,38,58,2716636872
11022,11,Pattern_Practice,185,1,48,59,2716642760
11022,11,Pattern_Practice,186,5,42,127,2716716344
11022,11,Pattern_Practice,187,1,48,54,2716897516
11022,11,Pattern_Practice,188,1,38,64,2717176088
11022,11,Pattern_Practice,189,5,42,127,2717216140
11022,11,Pattern_Practice,190,1,48,48,2717422844
11022,11,Pattern_Practice,191,1,38,57,2717666088
11022,11,Pattern_Practice,192,5,42,127,2717715960
11022,11,Pattern_Practice,193,1,48,42,2717927532
11022,11,Pattern_Practice,194,1,38,59,2718193888
11022,11,Pattern_Practice,195,5,42,127,2718215412
11022,11,Pattern_Practice,196,5,42,127,2718716308
11022,11,Pattern_Practice,197,1,38,58,2718731844
11022,11,Pattern_Practice,0,9999,9999,9999,2679213112
11022,11,Pattern_Practice,1,9999,9999,9999,2679713876
11022,11,Pattern_Practice,2,9999,9999,9999,2680213592
11022,11,Pattern_Practice,3,9999,9999,9999,2680713308
11022,11,Pattern_Practice,4,9999,9999,9999,2681214072
11022,11,Pattern_Practice,5,9999,9999,9999,2681713760
11022,11,Pattern_Practice,6,9999,9999,9999,2682213432
11022,11,Pattern_Practice,7,9999,9999,9999,2682713176
11022,11,Pattern_Practice,8,9999,9999,9999,2683213896
11022,11,Pattern_Practice,9,9999,9999,9999,2683713628
11022,11,Pattern_Practice,10,9999,9999,9999,2684213352
11022,11,Pattern_Practice,11,9999,9999,9999,2684714092
11022,11,Pattern_Practice,12,9999,9999,9999,2685213764
11022,11,Pattern_Practice,13,9999,9999,9999,2685713460
11022,11,Pattern_Practice,14,9999,9999,9999,2686213244
11022,11,Pattern_Practice,15,9999,9999,9999,2686713980
11022,11,Pattern_Practice,16,9999,9999,9999,2687213692
11022,11,Pattern_Practice,17,9999,9999,9999,2687713364
11022,11,Pattern_Practice,18,9999,9999,9999,2688214104
11022,11,Pattern_Practice,19,9999,9999,9999,2688713820
11022,11,Pattern_Practice,20,9999,9999,9999,2689213528
11022,11,Pattern_Practice,21,9999,9999,9999,2689713224
11022,11,Pattern_Practice,22,9999,9999,9999,2690213944
11022,11,Pattern_Practice,23,9999,9999,9999,2690713688
11022,11,Pattern_Practice,24,9999,9999,9999,2691213420
11022,11,Pattern_Practice,25,9999,9999,9999,2691713096
11022,11,Pattern_Practice,26,9999,9999,9999,2692213864
11022,11,Pattern_Practice,27,9999,9999,9999,2692713556
11022,11,Pattern_Practice,28,9999,9999,9999,2693213252
11022,11,Pattern_Practice,29,9999,9999,9999,2693714008
11022,11,Pattern_Practice,30,9999,9999,9999,2694213684
11022,11,Pattern_Practice,31,9999,9999,9999,2694713428
11022,11,Pattern_Practice,32,9999,9999,9999,2695213176
11022,11,Pattern_Practice,33,9999,9999,9999,2695713876
11022,11,Pattern_Practice,34,9999,9999,9999,2696213600
11022,11,Pattern_Practice,35,9999,9999,9999,2696713296
11022,11,Pattern_Practice,36,9999,9999,9999,2697214036
11022,11,Pattern_Practice,37,9999,9999,9999,2697713724
11022,11,Pattern_Practice,38,9999,9999,9999,2698213492
11022,11,Pattern_Practice,39,9999,9999,9999,2698713200
11022,11,Pattern_Practice,40,9999,9999,9999,2699213920
11022,11,Pattern_Practice,41,9999,9999,9999,2699713592
11022,11,Pattern_Practice,42,9999,9999,9999,2700213336
11022,11,Pattern_Practice,43,9999,9999,9999,2700714052
11022,11,Pattern_Practice,44,9999,9999,9999,2701213748
11022,11,Pattern_Practice,45,9999,9999,9999,2701713516
11022,11,Pattern_Practice,46,9999,9999,9999,2702213188
11022,11,Pattern_Practice,47,9999,9999,9999,2702713976
11022,11,Pattern_Practice,48,9999,9999,9999,2703213652
11022,11,Pattern_Practice,49,9999,9999,9999,2703713384
11022,11,Pattern_Practice,50,9999,9999,9999,2704214092
11022,11,Pattern_Practice,51,9999,9999,9999,2704713836
11022,11,Pattern_Practice,52,9999,9999,9999,2705213520
11022,11,Pattern_Practice,53,9999,9999,9999,2705713204
11022,11,Pattern_Practice,54,9999,9999,9999,2706214000
11022,11,Pattern_Practice,55,9999,9999,9999,2706713668
11022,11,Pattern_Practice,56,9999,9999,9999,2707213412
11022,11,Pattern_Practice,57,9999,9999,9999,2707713084
11022,11,Pattern_Practice,58,9999,9999,9999,2708213880
11022,11,Pattern_Practice,59,9999,9999,9999,2708713520
11022,11,Pattern_Practice,60,9999,9999,9999,2709213292
11022,11,Pattern_Practice,61,9999,9999,9999,2709714032
11022,11,Pattern_Practice,62,9999,9999,9999,2710213728
11022,11,Pattern_Practice,63,9999,9999,9999,2710713460
11022,11,Pattern_Practice,64,9999,9999,9999,2711213136
11022,11,Pattern_Practice,65,9999,9999,9999,2711713852
11022,11,Pattern_Practice,66,9999,9999,9999,2712213604
11022,11,Pattern_Practice,67,9999,9999,9999,2712713272
11022,11,Pattern_Practice,68,9999,9999,9999,2713214012
11022,11,Pattern_Practice,69,9999,9999,9999,2713713784
11022,11,Pattern_Practice,70,9999,9999,9999,2714213484
11022,11,Pattern_Practice,71,9999,9999,9999,2714713212
11022,11,Pattern_Practice,72,9999,9999,9999,2715213932
11022,11,Pattern_Practice,73,9999,9999,9999,2715713600
11022,11,Pattern_Practice,74,9999,9999,9999,2716213336
11022,11,Pattern_Practice,75,9999,9999,9999,2716714060
11022,11,Pattern_Practice,76,9999,9999,9999,2717213776
11022,11,Pattern_Practice,77,9999,9999,9999,2717713524
11022,11,Pattern_Practice,78,9999,9999,9999,2718213200
11022,11,Pattern_Practice,79,9999,9999,9999,2718713948
11023,13,Improv_Metronome,0,5,42,127,2748224812
11023,13,Improv_Metronome,1,5,42,127,2748724676
11023,13,Improv_Metronome,2,5,42,127,2749225440
11023,13,Improv_Metronome,3,5,42,127,2749725008
11023,13,Improv_Metronome,4,5,42,127,2750224800
11023,13,Improv_Metronome,5,1,38,47,2750244300
11023,13,Improv_Metronome,6,1,38,32,2750492476
11023,13,Improv_Metronome,7,5,42,127,2750724396
11023,13,Improv_Metronome,8,1,38,29,2750738060
11023,13,Improv_Metronome,9,5,42,127,2751225436
11023,13,Improv_Metronome,10,1,48,52,2751251816
11023,13,Improv_Metronome,11,1,38,61,2751271916
11023,13,Improv_Metronome,12,1,38,30,2751498384
11023,13,Improv_Metronome,13,5,42,127,2751725036
11023,13,Improv_Metronome,14,1,38,42,2751754880
11023,13,Improv_Metronome,15,1,38,40,2751999920
11023,13,Improv_Metronome,16,5,42,127,2752224560
11023,13,Improv_Metronome,17,1,38,56,2752243708
11023,13,Improv_Metronome,18,1,38,39,2752469356
11023,13,Improv_Metronome,19,5,42,127,2752725356
11023,13,Improv_Metronome,20,1,38,44,2752741564
11023,13,Improv_Metronome,21,1,38,46,2752988476
11023,13,Improv_Metronome,22,5,42,127,2753225324
11023,13,Improv_Metronome,23,1,48,64,2753250808
11023,13,Improv_Metronome,24,1,38,58,2753256324
11023,13,Improv_Metronome,25,1,38,33,2753486304
11023,13,Improv_Metronome,26,5,42,127,2753724728
11023,13,Improv_Metronome,27,1,38,41,2753742060
11023,13,Improv_Metronome,28,1,38,43,2753994204
11023,13,Improv_Metronome,29,5,42,127,2754224476
11023,13,Improv_Metronome,30,1,38,45,2754242400
11023,13,Improv_Metronome,31,1,38,37,2754482284
11023,13,Improv_Metronome,32,5,42,127,2754725340
11023,13,Improv_Metronome,33,1,38,48,2754726756
11023,13,Improv_Metronome,34,1,38,47,2754973200
11023,13,Improv_Metronome,35,1,48,62,2755216224
11023,13,Improv_Metronome,36,1,38,63,2755224396
11023,13,Improv_Metronome,37,5,42,127,2755227380
11023,13,Improv_Metronome,38,1,38,31,2755463416
11023,13,Improv_Metronome,39,1,38,38,2755708236
11023,13,Improv_Metronome,40,5,42,127,2755724648
11023,13,Improv_Metronome,41,1,38,52,2755967280
11023,13,Improv_Metronome,42,1,38,50,2756212920
11023,13,Improv_Metronome,43,5,42,127,2756225368
11023,13,Improv_Metronome,44,1,38,44,2756455056
11023,13,Improv_Metronome,45,1,38,52,2756703316
11023,13,Improv_Metronome,46,5,42,127,2756725336
11023,13,Improv_Metronome,47,1,38,54,2756954656
11023,13,Improv_Metronome,48,1,48,50,2757196108
11023,13,Improv_Metronome,49,1,38,58,2757204836
11023,13,Improv_Metronome,50,5,42,127,2757224692
11023,13,Improv_Metronome,51,1,38,40,2757443884
11023,13,Improv_Metronome,52,1,38,47,2757682640
11023,13,Improv_Metronome,53,5,42,127,2757724488
11023,13,Improv_Metronome,54,1,38,54,2757939220
11023,13,Improv_Metronome,55,1,38,49,2758209544
11023,13,Improv_Metronome,56,1,48,55,2758219920
11023,13,Improv_Metronome,57,5,42,127,2758225336
11023,13,Improv_Metronome,58,1,38,48,2758695424
11023,13,Improv_Metronome,59,1,48,54,2758708496
11023,13,Improv_Metronome,60,5,42,127,2758725132
11023,13,Improv_Metronome,61,1,38,39,2758990472
11023,13,Improv_Metronome,62,1,48,52,2759218240
11023,13,Improv_Metronome,63,5,42,127,2759224628
11023,13,Improv_Metronome,64,1,38,50,2759247120
11023,13,Improv_Metronome,65,5,42,127,2759725340
11023,13,Improv_Metronome,66,1,48,57,2759745212
11023,13,Improv_Metronome,67,5,42,127,2760225256
11023,13,Improv_Metronome,68,1,48,54,2760236604
11023,13,Improv_Metronome,69,5,42,127,2760724804
11023,13,Improv_Metronome,70,1,48,48,2760758888
11023,13,Improv_Metronome,71,1,48,49,2761220196
11023,13,Improv_Metronome,72,5,42,127,2761224492
11023,13,Improv_Metronome,73,1,48,48,2761718692
11023,13,Improv_Metronome,74,5,42,127,2761725308
11023,13,Improv_Metronome,75,1,48,71,2762208340
11023,13,Improv_Metronome,76,5,42,127,2762225224
11023,13,Improv_Metronome,77,5,42,127,2762724828
11023,13,Improv_Metronome,78,1,48,64,2762741064
11023,13,Improv_Metronome,79,1,48,69,2763195232
11023,13,Improv_Metronome,80,1,38,72,2763198512
11023,13,Improv_Metronome,81,5,42,127,2763224420
11023,13,Improv_Metronome,82,1,48,53,2763657412
11023,13,Improv_Metronome,83,5,42,127,2763725360
11023,13,Improv_Metronome,84,1,38,62,2763891924
11023,13,Improv_Metronome,85,1,48,60,2764134496
11023,13,Improv_Metronome,86,5,42,127,2764225032
11023,13,Improv_Metronome,87,1,38,51,2764372592
11023,13,Improv_Metronome,88,1,48,72,2764632372
11023,13,Improv_Metronome,89,5,42,127,2764724480
11023,13,Improv_Metronome,90,1,38,65,2765124060
11023,13,Improv_Metronome,91,1,48,72,2765136308
11023,13,Improv_Metronome,92,5,42,127,2765225188
11023,13,Improv_Metronome,93,1,48,47,2765402372
11023,13,Improv_Metronome,94,1,48,57,2765640980
11023,13,Improv_Metronome,95,5,42,127,2765725156
11023,13,Improv_Metronome,96,1,48,51,2765858360
11023,13,Improv_Metronome,97,1,48,63,2766105044
11023,13,Improv_Metronome,98,5,42,127,2766224892
11023,13,Improv_Metronome,99,1,48,47,2766387580
11023,13,Improv_Metronome,100,1,48,62,2766707044
11023,13,Improv_Metronome,101,5,42,127,2766724504
11023,13,Improv_Metronome,102,1,48,51,2766990400
11023,13,Improv_Metronome,103,5,42,127,2767225084
11023,13,Improv_Metronome,104,1,48,61,2767294848
11023,13,Improv_Metronome,105,1,48,48,2767577212
11023,13,Improv_Metronome,106,5,42,127,2767724976
11023,13,Improv_Metronome,107,1,48,57,2767884000
11023,13,Improv_Metronome,108,5,42,127,2768224748
11023,13,Improv_Metronome,109,1,48,59,2768617812
11023,13,Improv_Metronome,110,5,42,127,2768725340
11023,13,Improv_Metronome,111,1,48,71,2769178264
11023,13,Improv_Metronome,112,5,42,127,2769225048
11023,13,Improv_Metronome,113,5,42,127,2769724900
11023,13,Improv_Metronome,114,1,48,66,2769732204
11023,13,Improv_Metronome,115,1,48,63,2770208320
11023,13,Improv_Metronome,116,5,42,127,2770224512
11023,13,Improv_Metronome,117,1,48,68,2770699640
11023,13,Improv_Metronome,118,5,42,127,2770725104
11023,13,Improv_Metronome,119,1,48,68,2771210404
11023,13,Improv_Metronome,120,5,42,127,2771224872
11023,13,Improv_Metronome,121,1,38,57,2771708524
11023,13,Improv_Metronome,122,1,48,65,2771715984
11023,13,Improv_Metronome,123,5,42,127,2771724772
11023,13,Improv_Metronome,124,1,48,60,2772159904
11023,13,Improv_Metronome,125,5,42,127,2772225336
11023,13,Improv_Metronome,126,1,38,59,2772401448
11023,13,Improv_Metronome,127,1,48,59,2772657412
11023,13,Improv_Metronome,128,5,42,127,2772725084
11023,13,Improv_Metronome,129,1,38,62,2772872920
11023,13,Improv_Metronome,130,1,48,57,2773116464
11023,13,Improv_Metronome,131,5,42,127,2773224792
11023,13,Improv_Metronome,132,1,48,68,2773575172
11023,13,Improv_Metronome,133,1,38,65,2773585620
11023,13,Improv_Metronome,134,5,42,127,2773724440
11023,13,Improv_Metronome,135,1,48,57,2774078256
11023,13,Improv_Metronome,136,5,42,127,2774225328
11023,13,Improv_Metronome,137,1,38,65,2774321972
11023,13,Improv_Metronome,138,1,48,58,2774561028
11023,13,Improv_Metronome,139,5,42,127,2774724856
11023,13,Improv_Metronome,140,1,48,56,2775010360
11023,13,Improv_Metronome,141,5,42,127,2775224548
11023,13,Improv_Metronome,142,1,38,62,2775496512
11023,13,Improv_Metronome,143,1,48,62,2775499708
11023,13,Improv_Metronome,144,5,42,127,2775725464
11023,13,Improv_Metronome,145,1,48,50,2776138376
11023,13,Improv_Metronome,146,5,42,127,2776225100
11023,13,Improv_Metronome,147,1,38,61,2776379696
11023,13,Improv_Metronome,148,1,48,61,2776653008
11023,13,Improv_Metronome,149,5,42,127,2776724772
11023,13,Improv_Metronome,150,1,38,57,2776887748
11023,13,Improv_Metronome,151,1,48,58,2777165924
11023,13,Improv_Metronome,152,5,42,127,2777224668
11023,13,Improv_Metronome,153,1,38,65,2777662096
11023,13,Improv_Metronome,154,1,48,67,2777668512
11023,13,Improv_Metronome,155,5,42,127,2777725244
11023,13,Improv_Metronome,156,1,48,58,2778144392
11023,13,Improv_Metronome,157,5,42,127,2778224984
11023,13,Improv_Metronome,158,1,48,63,2778678192
11023,13,Improv_Metronome,159,5,42,127,2778724900
11023,13,Improv_Metronome,160,1,48,62,2779197112
11023,13,Improv_Metronome,161,5,42,127,2779224300
11023,13,Improv_Metronome,162,1,38,63,2779715428
11023,13,Improv_Metronome,163,1,48,57,2779718628
11023,13,Improv_Metronome,164,5,42,127,2779725172
11023,13,Improv_Metronome,165,1,48,51,2780213288
11023,13,Improv_Metronome,166,5,42,127,2780224836
11023,13,Improv_Metronome,167,1,38,51,2780454228
11023,13,Improv_Metronome,168,1,48,57,2780698976
11023,13,Improv_Metronome,169,5,42,127,2780724660
11023,13,Improv_Metronome,170,1,38,58,2780909824
11023,13,Improv_Metronome,171,1,48,56,2781204252
11023,13,Improv_Metronome,172,5,42,127,2781225232
11023,13,Improv_Metronome,173,1,48,63,2781668400
11023,13,Improv_Metronome,174,1,38,62,2781676604
11023,13,Improv_Metronome,175,5,42,127,2781724980
11023,13,Improv_Metronome,176,1,48,57,2782156824
11023,13,Improv_Metronome,177,5,42,127,2782224796
11023,13,Improv_Metronome,178,1,48,64,2782684788
11023,13,Improv_Metronome,179,5,42,127,2782724416
11023,13,Improv_Metronome,180,1,48,59,2783222500
11023,13,Improv_Metronome,181,5,42,127,2783225156
11023,13,Improv_Metronome,182,1,38,64,2783721652
11023,13,Improv_Metronome,183,5,42,127,2783724824
11023,13,Improv_Metronome,184,1,48,69,2783741136
11023,13,Improv_Metronome,185,1,48,57,2784202760
11023,13,Improv_Metronome,186,5,42,127,2784224632
11023,13,Improv_Metronome,187,1,38,65,2784449388
11023,13,Improv_Metronome,188,1,48,60,2784697348
11023,13,Improv_Metronome,189,5,42,127,2784725280
11023,13,Improv_Metronome,190,1,38,60,2784916752
11023,13,Improv_Metronome,191,1,48,61,2785186848
11023,13,Improv_Metronome,192,5,42,127,2785224952
11023,13,Improv_Metronome,193,1,38,70,2785412004
11023,13,Improv_Metronome,194,1,38,60,2785668196
11023,13,Improv_Metronome,195,5,42,127,2785724776
11023,13,Improv_Metronome,196,1,38,60,2785887820
11023,13,Improv_Metronome,197,1,38,58,2786165396
11023,13,Improv_Metronome,198,5,42,127,2786224596
11023,13,Improv_Metronome,199,1,38,62,2786407544
11023,13,Improv_Metronome,200,1,48,59,2786710320
11023,13,Improv_Metronome,201,5,42,127,2786725168
11023,13,Improv_Metronome,202,5,42,127,2787224944
11023,13,Improv_Metronome,203,1,48,62,2787235540
11023,13,Improv_Metronome,204,1,38,61,2787719736
11023,13,Improv_Metronome,205,5,42,127,2787724704
11023,13,Improv_Metronome,206,1,48,61,2787732836
11023,13,Improv_Metronome,207,5,42,127,2788225360
11023,13,Improv_Metronome,208,1,48,48,2788230720
11023,13,Improv_Metronome,209,1,38,57,2788457208
11023,13,Improv_Metronome,210,1,48,53,2788704944
11023,13,Improv_Metronome,211,5,42,127,2788725024
11023,13,Improv_Metronome,212,1,38,54,2788922852
11023,13,Improv_Metronome,213,1,48,45,2789173048
11023,13,Improv_Metronome,214,5,42,127,2789224772
11023,13,Improv_Metronome,215,1,48,66,2789650980
11023,13,Improv_Metronome,216,1,38,62,2789669212
11023,13,Improv_Metronome,217,5,42,127,2789724596
11023,13,Improv_Metronome,218,1,48,57,2790140232
11023,13,Improv_Metronome,219,5,42,127,2790225236
11023,13,Improv_Metronome,220,1,48,67,2790674256
11023,13,Improv_Metronome,221,5,42,127,2790724928
11023,13,Improv_Metronome,222,1,48,60,2791187792
11023,13,Improv_Metronome,223,5,42,127,2791224848
11023,13,Improv_Metronome,224,1,48,67,2791711420
11023,13,Improv_Metronome,225,1,38,58,2791714616
11023,13,Improv_Metronome,226,5,42,127,2791725496
11023,13,Improv_Metronome,227,5,42,127,2792225096
11023,13,Improv_Metronome,228,1,48,57,2792233744
11023,13,Improv_Metronome,229,1,38,56,2792479608
11023,13,Improv_Metronome,230,5,42,127,2792724768
11023,13,Improv_Metronome,231,1,48,62,2792731624
11023,13,Improv_Metronome,232,1,38,65,2792961112
11023,13,Improv_Metronome,233,5,42,127,2793224736
11023,13,Improv_Metronome,234,1,48,56,2793226076
11023,13,Improv_Metronome,235,1,48,64,2793664080
11023,13,Improv_Metronome,236,1,38,63,2793676404
11023,13,Improv_Metronome,237,5,42,127,2793725228
11023,13,Improv_Metronome,238,1,48,53,2794163728
11023,13,Improv_Metronome,239,5,42,127,2794224896
11023,13,Improv_Metronome,240,1,48,60,2794695360
11023,13,Improv_Metronome,241,5,42,127,2794724788
11023,13,Improv_Metronome,242,1,48,54,2795218392
11023,13,Improv_Metronome,243,5,42,127,2795224928
11023,13,Improv_Metronome,244,1,48,66,2795701032
11023,13,Improv_Metronome,245,1,38,40,2795706996
11023,13,Improv_Metronome,246,5,42,127,2795725280
11023,13,Improv_Metronome,247,1,48,55,2796202400
11023,13,Improv_Metronome,248,5,42,127,2796224872
11023,13,Improv_Metronome,249,1,38,54,2796459800
11023,13,Improv_Metronome,250,5,42,127,2796724700
11023,13,Improv_Metronome,251,1,48,58,2796726040
11023,13,Improv_Metronome,252,1,38,61,2796934712
11023,13,Improv_Metronome,253,1,48,62,2797211020
11023,13,Improv_Metronome,254,5,42,127,2797225488
11023,13,Improv_Metronome,255,1,38,62,2797650724
11023,13,Improv_Metronome,256,1,48,73,2797676740
11023,13,Improv_Metronome,257,5,42,127,2797725016
11023,13,Improv_Metronome,258,1,48,59,2798177304
11023,13,Improv_Metronome,259,5,42,127,2798224684
11023,13,Improv_Metronome,260,1,48,60,2798707584
11023,13,Improv_Metronome,261,5,42,127,2798724676
11023,13,Improv_Metronome,262,5,42,127,2799225124
11023,13,Improv_Metronome,263,1,48,69,2799227720
11023,13,Improv_Metronome,264,1,38,69,2799709968
11023,13,Improv_Metronome,265,1,48,67,2799714364
11023,13,Improv_Metronome,266,5,42,127,2799724792
11023,13,Improv_Metronome,267,1,48,61,2800204156
11023,13,Improv_Metronome,268,5,42,127,2800224684
11023,13,Improv_Metronome,269,1,38,66,2800464324
11023,13,Improv_Metronome,270,1,48,67,2800718120
11023,13,Improv_Metronome,271,5,42,127,2800725556
11023,13,Improv_Metronome,272,1,38,66,2800935796
11023,13,Improv_Metronome,273,1,48,59,2801221832
11023,13,Improv_Metronome,274,5,42,127,2801225004
11023,13,Improv_Metronome,275,1,38,79,2801454844
11023,13,Improv_Metronome,276,1,38,49,2801691884
11023,13,Improv_Metronome,277,5,42,127,2801724680
11023,13,Improv_Metronome,278,1,38,64,2801939184
11023,13,Improv_Metronome,279,1,38,41,2802220504
11023,13,Improv_Metronome,280,5,42,127,2802224724
11023,13,Improv_Metronome,281,1,38,75,2802454792
11023,13,Improv_Metronome,282,1,48,73,2802704692
11023,13,Improv_Metronome,283,5,42,127,2802725296
11023,13,Improv_Metronome,284,1,48,68,2803177736
11023,13,Improv_Metronome,285,5,42,127,2803224916
11023,13,Improv_Metronome,286,1,38,73,2803697728
11023,13,Improv_Metronome,287,1,48,69,2803714164
11023,13,Improv_Metronome,288,5,42,127,2803724592
11023,13,Improv_Metronome,289,1,48,55,2804181416
11023,13,Improv_Metronome,290,5,42,127,2804225528
11023,13,Improv_Metronome,291,1,38,61,2804439564
11023,13,Improv_Metronome,292,1,48,51,2804671436
11023,13,Improv_Metronome,293,5,42,127,2804725204
11023,13,Improv_Metronome,294,1,48,42,2804991692
11023,13,Improv_Metronome,295,5,42,127,2805224708
11023,13,Improv_Metronome,296,5,42,127,2805724572
11023,13,Improv_Metronome,297,1,38,62,2805763696
11023,13,Improv_Metronome,298,1,48,54,2805782448
11023,13,Improv_Metronome,299,5,42,127,2806225268
11023,13,Improv_Metronome,300,1,48,56,2806240580
11023,13,Improv_Metronome,301,1,48,70,2806705548
11023,13,Improv_Metronome,302,5,42,127,2806724956
11023,13,Improv_Metronome,303,5,42,127,2807224732
11023,13,Improv_Metronome,304,1,48,70,2807226820
11023,13,Improv_Metronome,305,5,42,127,2807725472
11023,13,Improv_Metronome,306,1,48,64,2807731956
11023,13,Improv_Metronome,307,1,38,65,2807739868
11023,13,Improv_Metronome,308,1,48,48,2808218200
11023,13,Improv_Metronome,309,5,42,127,2808225260
11023,13,Improv_Metronome,310,1,38,57,2808458396
11023,13,Improv_Metronome,311,1,48,56,2808713684
11023,13,Improv_Metronome,312,5,42,127,2808724788
11023,13,Improv_Metronome,313,1,38,60,2808949688
11023,13,Improv_Metronome,314,1,48,62,2809219192
11023,13,Improv_Metronome,315,5,42,127,2809224460
11023,13,Improv_Metronome,316,1,48,63,2809443604
11023,13,Improv_Metronome,317,1,48,77,2809692980
11023,13,Improv_Metronome,318,5,42,127,2809725400
11023,13,Improv_Metronome,319,1,48,66,2809910812
11023,13,Improv_Metronome,320,1,48,78,2810181732
11023,13,Improv_Metronome,321,5,42,127,2810225072
11023,13,Improv_Metronome,322,1,48,58,2810433600
11023,13,Improv_Metronome,323,1,48,76,2810718432
11023,13,Improv_Metronome,324,5,42,127,2810724600
11023,13,Improv_Metronome,325,5,42,127,2811224376
11023,13,Improv_Metronome,326,1,48,66,2811240060
11023,13,Improv_Metronome,327,1,48,69,2811718492
11023,13,Improv_Metronome,328,1,38,50,2811722288
11023,13,Improv_Metronome,329,5,42,127,2811725312
11023,13,Improv_Metronome,330,1,48,59,2812216048
11023,13,Improv_Metronome,331,5,42,127,2812224832
11023,13,Improv_Metronome,332,1,38,55,2812459312
11023,13,Improv_Metronome,333,1,48,64,2812696348
11023,13,Improv_Metronome,334,5,42,127,2812724656
11023,13,Improv_Metronome,335,1,38,60,2812985616
11023,13,Improv_Metronome,336,5,42,127,2813225308
11023,13,Improv_Metronome,337,1,48,60,2813234708
11023,13,Improv_Metronome,338,1,38,60,2813686444
11023,13,Improv_Metronome,339,1,48,58,2813709236
11023,13,Improv_Metronome,340,5,42,127,2813725128
11023,13,Improv_Metronome,341,5,42,127,2814224728
11023,13,Improv_Metronome,342,1,48,52,2814227548
11023,13,Improv_Metronome,343,5,42,127,2814724420
11023,13,Improv_Metronome,344,1,48,60,2814738084
11023,13,Improv_Metronome,345,5,42,127,2815225312
11023,13,Improv_Metronome,346,1,48,59,2815230524
11023,13,Improv_Metronome,347,5,42,127,2815724904
11023,13,Improv_Metronome,348,1,38,53,2815735980
11023,13,Improv_Metronome,349,1,48,57,2815739696
11023,13,Improv_Metronome,350,1,48,59,2816213440
11023,13,Improv_Metronome,351,5,42,127,2816224544
11023,13,Improv_Metronome,352,1,38,61,2816471812
11023,13,Improv_Metronome,353,1,48,59,2816720072
11023,13,Improv_Metronome,354,5,42,127,2816725340
11023,13,Improv_Metronome,355,1,38,62,2816950164
11023,13,Improv_Metronome,356,1,48,61,2817199772
11023,13,Improv_Metronome,357,5,42,127,2817225308
11023,13,Improv_Metronome,358,1,38,66,2817427176
11023,13,Improv_Metronome,359,1,38,71,2817678576
11023,13,Improv_Metronome,360,5,42,127,2817724760
11023,13,Improv_Metronome,361,1,38,65,2817910244
11023,13,Improv_Metronome,362,1,38,69,2818176080
11023,13,Improv_Metronome,0,9999,9999,9999,2748222524
11023,13,Improv_Metronome,1,9999,9999,9999,2748722240
11023,13,Improv_Metronome,2,9999,9999,9999,2749223004
11023,13,Improv_Metronome,3,9999,9999,9999,2749722720
11023,13,Improv_Metronome,4,9999,9999,9999,2750222436
11023,13,Improv_Metronome,5,9999,9999,9999,2750722108
11023,13,Improv_Metronome,6,9999,9999,9999,2751222848
11023,13,Improv_Metronome,7,9999,9999,9999,2751722596
11023,13,Improv_Metronome,8,9999,9999,9999,2752222272
11023,13,Improv_Metronome,9,9999,9999,9999,2752722992
11023,13,Improv_Metronome,10,9999,9999,9999,2753222740
11023,13,Improv_Metronome,11,9999,9999,9999,2753722440
11023,13,Improv_Metronome,12,9999,9999,9999,2754222184
11023,13,Improv_Metronome,13,9999,9999,9999,2754722904
11023,13,Improv_Metronome,14,9999,9999,9999,2755222648
11023,13,Improv_Metronome,15,9999,9999,9999,2755722360
11023,13,Improv_Metronome,16,9999,9999,9999,2756223080
11023,13,Improv_Metronome,17,9999,9999,9999,2756722752
11023,13,Improv_Metronome,18,9999,9999,9999,2757222480
11023,13,Improv_Metronome,19,9999,9999,9999,2757722200
11023,13,Improv_Metronome,20,9999,9999,9999,2758222900
11023,13,Improv_Metronome,21,9999,9999,9999,2758722620
11023,13,Improv_Metronome,22,9999,9999,9999,2759222340
11023,13,Improv_Metronome,23,9999,9999,9999,2759723128
11023,13,Improv_Metronome,24,9999,9999,9999,2760222820
11023,13,Improv_Metronome,25,9999,9999,9999,2760722516
11023,13,Improv_Metronome,26,9999,9999,9999,2761222204
11023,13,Improv_Metronome,27,9999,9999,9999,2761722948
11023,13,Improv_Metronome,28,9999,9999,9999,2762222688
11023,13,Improv_Metronome,29,9999,9999,9999,2762722392
11023,13,Improv_Metronome,30,9999,9999,9999,2763222136
11023,13,Improv_Metronome,31,9999,9999,9999,2763722848
11023,13,Improv_Metronome,32,9999,9999,9999,2764222520
11023,13,Improv_Metronome,33,9999,9999,9999,2764722268
11023,13,Improv_Metronome,34,9999,9999,9999,2765222972
11023,13,Improv_Metronome,35,9999,9999,9999,2765722720
11023,13,Improv_Metronome,36,9999,9999,9999,2766222452
11023,13,Improv_Metronome,37,9999,9999,9999,2766722140
11023,13,Improv_Metronome,38,9999,9999,9999,2767222868
11023,13,Improv_Metronome,39,9999,9999,9999,2767722616
11023,13,Improv_Metronome,40,9999,9999,9999,2768222312
11023,13,Improv_Metronome,41,9999,9999,9999,2768723052
11023,13,Improv_Metronome,42,9999,9999,9999,2769222760
11023,13,Improv_Metronome,43,9999,9999,9999,2769722460
11023,13,Improv_Metronome,44,9999,9999,9999,2770222148
11023,13,Improv_Metronome,45,9999,9999,9999,2770722892
11023,13,Improv_Metronome,46,9999,9999,9999,2771222584
11023,13,Improv_Metronome,47,9999,9999,9999,2771722336
11023,13,Improv_Metronome,48,9999,9999,9999,2772223048
11023,13,Improv_Metronome,49,9999,9999,9999,2772722796
11023,13,Improv_Metronome,50,9999,9999,9999,2773222504
11023,13,Improv_Metronome,51,9999,9999,9999,2773722224
11023,13,Improv_Metronome,52,9999,9999,9999,2774222964
11023,13,Improv_Metronome,53,9999,9999,9999,2774722640
11023,13,Improv_Metronome,54,9999,9999,9999,2775222336
11023,13,Improv_Metronome,55,9999,9999,9999,2775723104
11023,13,Improv_Metronome,56,9999,9999,9999,2776222812
11023,13,Improv_Metronome,57,9999,9999,9999,2776722488
11023,13,Improv_Metronome,58,9999,9999,9999,2777222232
11023,13,Improv_Metronome,59,9999,9999,9999,2777722956
11023,13,Improv_Metronome,60,9999,9999,9999,2778222696
11023,13,Improv_Metronome,61,9999,9999,9999,2778722392
11023,13,Improv_Metronome,62,9999,9999,9999,2779222088
11023,13,Improv_Metronome,63,9999,9999,9999,2779722808
11023,13,Improv_Metronome,64,9999,9999,9999,2780222552
11023,13,Improv_Metronome,65,9999,9999,9999,2780722224
11023,13,Improv_Metronome,66,9999,9999,9999,2781223016
11023,13,Improv_Metronome,67,9999,9999,9999,2781722692
11023,13,Improv_Metronome,68,9999,9999,9999,2782222432
11023,13,Improv_Metronome,69,9999,9999,9999,2782722128
11023,13,Improv_Metronome,70,9999,9999,9999,2783222868
11023,13,Improv_Metronome,71,9999,9999,9999,2783722612
11023,13,Improv_Metronome,72,9999,9999,9999,2784222272
11023,13,Improv_Metronome,73,9999,9999,9999,2784722992
11023,13,Improv_Metronome,74,9999,9999,9999,2785222740
11023,13,Improv_Metronome,75,9999,9999,9999,2785722488
11023,13,Improv_Metronome,76,9999,9999,9999,2786222160
11023,13,Improv_Metronome,77,9999,9999,9999,2786722880
11023,13,Improv_Metronome,78,9999,9999,9999,2787222580
11023,13,Improv_Metronome,79,9999,9999,9999,2787722344
11023,13,Improv_Metronome,80,9999,9999,9999,2788223072
11023,13,Improv_Metronome,81,9999,9999,9999,2788722736
11023,13,Improv_Metronome,82,9999,9999,9999,2789222484
11023,13,Improv_Metronome,83,9999,9999,9999,2789722160
11023,13,Improv_Metronome,84,9999,9999,9999,2790222948
11023,13,Improv_Metronome,85,9999,9999,9999,2790722644
11023,13,Improv_Metronome,86,9999,9999,9999,2791222336
11023,13,Improv_Metronome,87,9999,9999,9999,2791723060
11023,13,Improv_Metronome,88,9999,9999,9999,2792222808
11023,13,Improv_Metronome,89,9999,9999,9999,2792722480
11023,13,Improv_Metronome,90,9999,9999,9999,2793222228
11023,13,Improv_Metronome,91,9999,9999,9999,2793722940
11023,13,Improv_Metronome,92,9999,9999,9999,2794222680
11023,13,Improv_Metronome,93,9999,9999,9999,2794722352
11023,13,Improv_Metronome,94,9999,9999,9999,2795222124
11023,13,Improv_Metronome,95,9999,9999,9999,2795722844
11023,13,Improv_Metronome,96,9999,9999,9999,2796222584
11023,13,Improv_Metronome,97,9999,9999,9999,2796722264
11023,13,Improv_Metronome,98,9999,9999,9999,2797222976
11023,13,Improv_Metronome,99,9999,9999,9999,2797722728
11023,13,Improv_Metronome,100,9999,9999,9999,2798222396
11023,13,Improv_Metronome,101,9999,9999,9999,2798722164
11023,13,Improv_Metronome,102,9999,9999,9999,2799222836
11023,13,Improv_Metronome,103,9999,9999,9999,2799722580
11023,13,Improv_Metronome,104,9999,9999,9999,2800222320
11023,13,Improv_Metronome,105,9999,9999,9999,2800723044
11023,13,Improv_Metronome,106,9999,9999,9999,2801222720
11023,13,Improv_Metronome,107,9999,9999,9999,2801722468
11023,13,Improv_Metronome,108,9999,9999,9999,2802222140
11023,13,Improv_Metronome,109,9999,9999,9999,2802722932
11023,13,Improv_Metronome,110,9999,9999,9999,2803222628
11023,13,Improv_Metronome,111,9999,9999,9999,2803722304
11023,13,Improv_Metronome,112,9999,9999,9999,2804223092
11023,13,Improv_Metronome,113,9999,9999,9999,2804722768
11023,13,Improv_Metronome,114,9999,9999,9999,2805222496
11023,13,Improv_Metronome,115,9999,9999,9999,2805722212
11023,13,Improv_Metronome,116,9999,9999,9999,2806222904
11023,13,Improv_Metronome,117,9999,9999,9999,2806722668
11023,13,Improv_Metronome,118,9999,9999,9999,2807222368
11023,13,Improv_Metronome,119,9999,9999,9999,2807723112
11023,13,Improv_Metronome,120,9999,9999,9999,2808222824
11023,13,Improv_Metronome,121,9999,9999,9999,2808722500
11023,13,Improv_Metronome,122,9999,9999,9999,2809222244
11023,13,Improv_Metronome,123,9999,9999,9999,2809722964
11023,13,Improv_Metronome,124,9999,9999,9999,2810222712
11023,13,Improv_Metronome,125,9999,9999,9999,2810722384
11023,13,Improv_Metronome,126,9999,9999,9999,2811222088
11023,13,Improv_Metronome,127,9999,9999,9999,2811722804
11023,13,Improv_Metronome,128,9999,9999,9999,2812222548
11023,13,Improv_Metronome,129,9999,9999,9999,2812722296
11023,13,Improv_Metronome,130,9999,9999,9999,2813223020
11023,13,Improv_Metronome,131,9999,9999,9999,2813722692
11023,13,Improv_Metronome,132,9999,9999,9999,2814222436
11023,13,Improv_Metronome,133,9999,9999,9999,2814722132
11023,13,Improv_Metronome,134,9999,9999,9999,2815222876
11023,13,Improv_Metronome,135,9999,9999,9999,2815722616
11023,13,Improv_Metronome,136,9999,9999,9999,2816222260
11023,13,Improv_Metronome,137,9999,9999,9999,2816723052
11023,13,Improv_Metronome,138,9999,9999,9999,2817222724
11023,13,Improv_Metronome,139,9999,9999,9999,2817722472
11024,14,Improv_Melody,0,2,48,80,2870884808
11024,14,Improv_Melody,1,2,72,80,2870887556
11024,14,Improv_Melody,2,5,42,127,2870889116
11024,14,Improv_Melody,3,5,42,110,2871382556
11024,14,Improv_Melody,4,5,42,110,2871882352
11024,14,Improv_Melody,5,5,42,110,2872381852
11024,14,Improv_Melody,6,5,42,127,2872881424
11024,14,Improv_Melody,7,5,42,110,2873382488
11024,14,Improv_Melody,8,5,42,110,2873881988
11024,14,Improv_Melody,9,5,42,110,2874381636
11024,14,Improv_Melody,10,2,43,80,2874884684
11024,14,Improv_Melody,11,2,67,80,2874886912
11024,14,Improv_Melody,12,5,42,127,2874889376
11024,14,Improv_Melody,13,5,42,110,2875382364
11024,14,Improv_Melody,14,5,42,110,2875881912
11024,14,Improv_Melody,15,5,42,110,2876381460
11024,14,Improv_Melody,16,5,42,127,2876882452
11024,14,Improv_Melody,17,5,42,110,2877382248
11024,14,Improv_Melody,18,5,42,110,2877881596
11024,14,Improv_Melody,19,5,42,110,2878381468
11024,14,Improv_Melody,20,2,45,80,2878884740
11024,14,Improv_Melody,21,2,69,80,2878887044
11024,14,Improv_Melody,22,5,42,127,2878889428
11024,14,Improv_Melody,23,5,42,110,2879381968
11024,14,Improv_Melody,24,5,42,110,2879881616
11024,14,Improv_Melody,25,5,42,110,2880382308
11024,14,Improv_Melody,26,5,42,127,2880882180
11024,14,Improv_Melody,27,5,42,110,2881381680
11024,14,Improv_Melody,28,5,42,110,2881881476
11024,14,Improv_Melody,29,5,42,110,2882382244
11024,14,Improv_Melody,30,2,41,80,2882884624
11024,14,Improv_Melody,31,2,65,80,2882886700
11024,14,Improv_Melody,32,5,42,127,2882889384
11024,14,Improv_Melody,33,5,42,110,2883381700
11024,14,Improv_Melody,34,5,42,110,2883882320
11024,14,Improv_Melody,35,5,42,110,2884382264
11024,14,Improv_Melody,36,5,42,127,2884881764
11024,14,Improv_Melody,37,5,42,110,2885381560
11024,14,Improv_Melody,38,5,42,110,2885882180
11024,14,Improv_Melody,39,5,42,110,2886382052
11024,14,Improv_Melody,40,1,48,40,2886628564
11024,14,Improv_Melody,41,2,48,80,2886884304
11024,14,Improv_Melody,42,2,72,80,2886886156
11024,14,Improv_Melody,43,5,42,127,2886888696
11024,14,Improv_Melody,44,1,48,55,2886895424
11024,14,Improv_Melody,45,5,42,110,2887382260
11024,14,Improv_Melody,46,1,48,53,2887678932
11024,14,Improv_Melody,47,5,42,110,2887881960
11024,14,Improv_Melody,48,1,38,82,2887920860
11024,14,Improv_Melody,49,5,42,110,2888381736
11024,14,Improv_Melody,50,1,48,58,2888646596
11024,14,Improv_Melody,51,5,42,127,2888881512
11024,14,Improv_Melody,52,1,48,67,2888895172
11024,14,Improv_Melody,53,1,48,65,2889374808
11024,14,Improv_Melody,54,5,42,110,2889382176
11024,14,Improv_Melody,55,1,38,94,2889842564
11024,14,Improv_Melody,56,5,42,110,2889881948
11024,14,Improv_Melody,57,5,42,110,2890381580
11024,14,Improv_Melody,58,1,48,48,2890652876
11024,14,Improv_Melody,59,2,43,80,2890884984
11024,14,Improv_Melody,60,2,67,80,2890887056
11024,14,Improv_Melody,61,1,48,70,2890889744
11024,14,Improv_Melody,62,5,42,127,2890891084
11024,14,Improv_Melody,63,5,42,110,2891382116
11024,14,Improv_Melody,64,1,48,55,2891635012
11024,14,Improv_Melody,65,1,38,61,2891873992
11024,14,Improv_Melody,66,5,42,110,2891881960
11024,14,Improv_Melody,67,1,48,55,2892378408
11024,14,Improv_Melody,68,5,42,110,2892381660
11024,14,Improv_Melody,69,1,48,58,2892610300
11024,14,Improv_Melody,70,5,42,127,2892882316
11024,14,Improv_Melody,71,1,48,52,2893116356
11024,14,Improv_Melody,72,1,48,74,2893372548
11024,14,Improv_Melody,73,5,42,110,2893381936
11024,14,Improv_Melody,74,1,38,83,2893839336
11024,14,Improv_Melody,75,5,42,110,2893881784
11024,14,Improv_Melody,76,5,42,110,2894381344
11024,14,Improv_Melody,77,1,48,44,2894783832
11024,14,Improv_Melody,78,2,45,80,2894884896
11024,14,Improv_Melody,79,2,69,80,2894886892
11024,14,Improv_Melody,80,5,42,127,2894889356
11024,14,Improv_Melody,81,5,42,110,2895381900
11024,14,Improv_Melody,82,1,48,58,2895628584
11024,14,Improv_Melody,83,1,38,76,2895879156
11024,14,Improv_Melody,84,5,42,110,2895881592
11024,14,Improv_Melody,85,1,48,51,2896331560
11024,14,Improv_Melody,86,5,42,110,2896382264
11024,14,Improv_Melody,87,1,48,61,2896593452
11024,14,Improv_Melody,88,5,42,127,2896882172
11024,14,Improv_Melody,89,1,48,52,2897048948
11024,14,Improv_Melody,90,1,48,58,2897290172
11024,14,Improv_Melody,91,5,42,110,2897381824
11024,14,Improv_Melody,92,1,38,96,2897804684
11024,14,Improv_Melody,93,5,42,110,2897881540
11024,14,Improv_Melody,94,5,42,110,2898382068
11024,14,Improv_Melody,95,1,48,67,2898874112
11024,14,Improv_Melody,96,2,41,80,2898884284
11024,14,Improv_Melody,97,2,65,80,2898886668
11024,14,Improv_Melody,98,5,42,127,2898889128
11024,14,Improv_Melody,99,5,42,110,2899381580
11024,14,Improv_Melody,100,1,48,52,2899608596
11024,14,Improv_Melody,101,1,38,81,2899859692
11024,14,Improv_Melody,102,5,42,110,2899882392
11024,14,Improv_Melody,103,1,48,58,2900058232
11024,14,Improv_Melody,104,5,42,110,2900382004
11024,14,Improv_Melody,105,1,48,51,2900591584
11024,14,Improv_Melody,106,5,42,127,2900881924
11024,14,Improv_Melody,107,1,48,61,2901060696
11024,14,Improv_Melody,108,5,42,110,2901381400
11024,14,Improv_Melody,109,1,48,59,2901517912
11024,14,Improv_Melody,110,1,38,82,2901772000
11024,14,Improv_Melody,111,5,42,110,2901882128
11024,14,Improv_Melody,112,5,42,110,2902382000
11024,14,Improv_Melody,113,1,48,63,2902879624
11024,14,Improv_Melody,114,2,48,80,2902884148
11024,14,Improv_Melody,115,2,72,80,2902886296
11024,14,Improv_Melody,116,5,42,127,2902888836
11024,14,Improv_Melody,117,5,42,110,2903382332
11024,14,Improv_Melody,118,1,48,53,2903674492
11024,14,Improv_Melody,119,5,42,110,2903882032
11024,14,Improv_Melody,120,1,38,73,2903931004
11024,14,Improv_Melody,121,5,42,110,2904381880
11024,14,Improv_Melody,122,1,48,64,2904575756
11024,14,Improv_Melody,123,5,42,127,2904881580
11024,14,Improv_Melody,124,1,48,52,2905069776
11024,14,Improv_Melody,125,5,42,110,2905382400
11024,14,Improv_Melody,126,1,48,59,2905673664
11024,14,Improv_Melody,127,5,42,110,2905881952
11024,14,Improv_Melody,128,1,38,73,2905893300
11024,14,Improv_Melody,129,5,42,110,2906381652
11024,14,Improv_Melody,130,1,48,63,2906869888
11024,14,Improv_Melody,131,2,43,80,2906885068
11024,14,Improv_Melody,132,2,67,80,2906887072
11024,14,Improv_Melody,133,5,42,127,2906889684
11024,14,Improv_Melody,134,5,42,110,2907382136
11024,14,Improv_Melody,135,1,48,58,2907669360
11024,14,Improv_Melody,136,5,42,110,2907881760
11024,14,Improv_Melody,137,1,38,70,2907899392
11024,14,Improv_Melody,138,5,42,110,2908381584
11024,14,Improv_Melody,139,1,48,55,2908597604
11024,14,Improv_Melody,140,5,42,127,2908882404
11024,14,Improv_Melody,141,1,48,54,2909089900
11024,14,Improv_Melody,142,5,42,110,2909382028
11024,14,Improv_Melody,143,1,48,58,2909570300
11024,14,Improv_Melody,144,1,38,76,2909799256
11024,14,Improv_Melody,145,5,42,110,2909881796
11024,14,Improv_Melody,146,5,42,110,2910381504
11024,14,Improv_Melody,147,2,45,80,2910884624
11024,14,Improv_Melody,148,2,69,80,2910886556
11024,14,Improv_Melody,149,5,42,127,2910889020
11024,14,Improv_Melody,150,1,48,67,2910910612
11024,14,Improv_Melody,151,5,42,110,2911381836
11024,14,Improv_Melody,152,1,48,65,2911668616
11024,14,Improv_Melody,153,1,38,82,2911881684
11024,14,Improv_Melody,154,5,42,110,2911883996
11024,14,Improv_Melody,155,1,48,56,2912136052
11024,14,Improv_Melody,156,5,42,110,2912382260
11024,14,Improv_Melody,157,1,48,57,2912636652
11024,14,Improv_Melody,158,5,42,127,2912882112
11024,14,Improv_Melody,159,1,48,57,2913108008
11024,14,Improv_Melody,160,5,42,110,2913381736
11024,14,Improv_Melody,161,1,48,59,2913606284
11024,14,Improv_Melody,162,1,38,77,2913847736
11024,14,Improv_Melody,163,5,42,110,2913881728
11024,14,Improv_Melody,164,5,42,110,2914382184
11024,14,Improv_Melody,165,2,41,80,2914884640
11024,14,Improv_Melody,166,1,48,59,2914885600
11024,14,Improv_Melody,167,2,65,80,2914887920
11024,14,Improv_Melody,168,5,42,127,2914890452
11024,14,Improv_Melody,169,1,48,55,2915165620
11024,14,Improv_Melody,170,5,42,110,2915381684
11024,14,Improv_Melody,171,1,48,58,2915674148
11024,14,Improv_Melody,172,5,42,110,2915882432
11024,14,Improv_Melody,173,1,38,85,2915912624
11024,14,Improv_Melody,174,1,48,59,2916169560
11024,14,Improv_Melody,175,5,42,110,2916382036
11024,14,Improv_Melody,176,1,48,64,2916665524
11024,14,Improv_Melody,177,5,42,127,2916881736
11024,14,Improv_Melody,178,1,48,62,2917164916
11024,14,Improv_Melody,179,5,42,110,2917381732
11024,14,Improv_Melody,180,1,48,62,2917710248
11024,14,Improv_Melody,181,5,42,110,2917882104
11024,14,Improv_Melody,182,1,38,84,2917939976
11024,14,Improv_Melody,183,5,42,110,2918381956
11024,14,Improv_Melody,184,1,48,64,2918864400
11024,14,Improv_Melody,185,2,48,80,2918883996
11024,14,Improv_Melody,186,2,72,80,2918886300
11024,14,Improv_Melody,187,5,42,127,2918888788
11024,14,Improv_Melody,188,5,42,110,2919382560
11024,14,Improv_Melody,189,1,48,50,2919651912
11024,14,Improv_Melody,190,1,38,77,2919867932
11024,14,Improv_Melody,191,5,42,110,2919882032
11024,14,Improv_Melody,192,1,48,52,2920122568
11024,14,Improv_Melody,193,5,42,110,2920381864
11024,14,Improv_Melody,194,1,48,59,2920597432
11024,14,Improv_Melody,195,5,42,127,2920881640
11024,14,Improv_Melody,196,1,48,59,2921078212
11024,14,Improv_Melody,197,5,42,110,2921382460
11024,14,Improv_Melody,198,1,48,57,2921553824
11024,14,Improv_Melody,199,1,38,67,2921777252
11024,14,Improv_Melody,200,5,42,110,2921881988
11024,14,Improv_Melody,201,1,48,62,2922010196
11024,14,Improv_Melody,202,1,38,74,2922259800
11024,14,Improv_Melody,203,5,42,110,2922381816
11024,14,Improv_Melody,204,1,48,51,2922514060
11024,14,Improv_Melody,205,1,48,81,2922768004
11024,14,Improv_Melody,206,2,43,80,2922884972
11024,14,Improv_Melody,207,2,67,80,2922887204
11024,14,Improv_Melody,208,5,42,127,2922889736
11024,14,Improv_Melody,209,5,42,110,2923382128
11024,14,Improv_Melody,210,1,48,62,2923692392
11024,14,Improv_Melody,211,5,42,110,2923881904
11024,14,Improv_Melody,212,1,38,76,2923901848
11024,14,Improv_Melody,213,1,48,47,2924159680
11024,14,Improv_Melody,214,5,42,110,2924381508
11024,14,Improv_Melody,215,1,48,58,2924607396
11024,14,Improv_Melody,216,5,42,127,2924882256
11024,14,Improv_Melody,217,1,48,65,2925072916
11024,14,Improv_Melody,218,5,42,110,2925381952
11024,14,Improv_Melody,219,1,48,64,2925541848
11024,14,Improv_Melody,220,1,38,73,2925754124
11024,14,Improv_Melody,221,5,42,110,2925881704
11024,14,Improv_Melody,222,5,42,110,2926381280
11024,14,Improv_Melody,223,2,45,80,2926884776
11024,14,Improv_Melody,224,2,69,80,2926886928
11024,14,Improv_Melody,225,5,42,127,2926889536
11024,14,Improv_Melody,226,1,48,61,2926891180
11024,14,Improv_Melody,227,5,42,110,2927381836
11024,14,Improv_Melody,228,1,48,61,2927630392
11024,14,Improv_Melody,229,1,38,69,2927843692
11024,14,Improv_Melody,230,5,42,110,2927881676
11024,14,Improv_Melody,231,1,48,57,2928101620
11024,14,Improv_Melody,232,5,42,110,2928382332
11024,14,Improv_Melody,233,1,48,62,2928578352
11024,14,Improv_Melody,234,5,42,127,2928882032
11024,14,Improv_Melody,235,1,48,55,2929143376
11024,14,Improv_Melody,236,5,42,110,2929381780
11024,14,Improv_Melody,237,1,48,58,2929603012
11024,14,Improv_Melody,238,1,38,82,2929828456
11024,14,Improv_Melody,239,5,42,110,2929881376
11024,14,Improv_Melody,240,5,42,110,2930382280
11024,14,Improv_Melody,241,1,48,71,2930848668
11024,14,Improv_Melody,242,2,41,80,2930884652
11024,14,Improv_Melody,243,2,65,80,2930886804
11024,14,Improv_Melody,244,5,42,127,2930889336
11024,14,Improv_Melody,245,5,42,110,2931381712
11024,14,Improv_Melody,246,1,48,69,2931565564
11024,14,Improv_Melody,247,1,38,79,2931799984
11024,14,Improv_Melody,248,5,42,110,2931882452
11024,14,Improv_Melody,249,1,48,61,2932072876
11024,14,Improv_Melody,250,5,42,110,2932381988
11024,14,Improv_Melody,251,1,48,65,2932588136
11024,14,Improv_Melody,252,5,42,127,2932881916
11024,14,Improv_Melody,253,1,48,56,2933238056
11024,14,Improv_Melody,254,5,42,110,2933381464
11024,14,Improv_Melody,255,1,48,66,2933796024
11024,14,Improv_Melody,256,5,42,110,2933882304
11024,14,Improv_Melody,257,1,38,72,2934014756
11024,14,Improv_Melody,258,5,42,110,2934382060
11024,14,Improv_Melody,259,2,48,80,2934884368
11024,14,Improv_Melody,260,2,72,80,2934886364
11024,14,Improv_Melody,261,5,42,127,2934889052
11024,14,Improv_Melody,262,1,48,65,2934997412
11024,14,Improv_Melody,263,5,42,110,2935382468
11024,14,Improv_Melody,264,1,48,62,2935402720
11024,14,Improv_Melody,265,1,38,81,2935823032
11024,14,Improv_Melody,266,5,42,110,2935882460
11024,14,Improv_Melody,267,1,48,62,2936069068
11024,14,Improv_Melody,268,5,42,110,2936382144
11024,14,Improv_Melody,269,1,48,52,2936495448
11024,14,Improv_Melody,270,1,48,64,2936713560
11024,14,Improv_Melody,271,5,42,127,2936881528
11024,14,Improv_Melody,272,1,48,58,2937101436
11024,14,Improv_Melody,273,1,48,61,2937331216
11024,14,Improv_Melody,274,5,42,110,2937382340
11024,14,Improv_Melody,275,1,38,87,2937752952
11024,14,Improv_Melody,276,5,42,110,2937882248
11024,14,Improv_Melody,277,5,42,110,2938381600
11024,14,Improv_Melody,278,1,48,68,2938825900
11024,14,Improv_Melody,279,2,43,80,2938884784
11024,14,Improv_Melody,280,2,67,80,2938886940
11024,14,Improv_Melody,281,5,42,127,2938889404
11024,14,Improv_Melody,282,1,48,64,2939327632
11024,14,Improv_Melody,283,5,42,110,2939382296
11024,14,Improv_Melody,284,1,38,83,2939808108
11024,14,Improv_Melody,285,5,42,110,2939882068
11024,14,Improv_Melody,286,1,48,60,2940079796
11024,14,Improv_Melody,287,5,42,110,2940381504
11024,14,Improv_Melody,288,1,48,61,2940498044
11024,14,Improv_Melody,289,1,48,62,2940731640
11024,14,Improv_Melody,290,5,42,127,2940882228
11024,14,Improv_Melody,291,1,48,64,2941115076
11024,14,Improv_Melody,292,1,48,71,2941352264
11024,14,Improv_Melody,293,5,42,110,2941382292
11024,14,Improv_Melody,294,1,38,78,2941794816
11024,14,Improv_Melody,295,5,42,110,2941881696
11024,14,Improv_Melody,296,5,42,110,2942381404
11024,14,Improv_Melody,297,1,48,71,2942824232
11024,14,Improv_Melody,298,2,45,80,2942884520
11024,14,Improv_Melody,299,2,69,80,2942886820
11024,14,Improv_Melody,300,5,42,127,2942889288
11024,14,Improv_Melody,301,1,48,60,2943344516
11024,14,Improv_Melody,302,5,42,110,2943382176
11024,14,Improv_Melody,303,1,38,72,2943838908
11024,14,Improv_Melody,304,5,42,110,2943881508
11024,14,Improv_Melody,305,1,48,55,2944080084
11024,14,Improv_Melody,306,5,42,110,2944382312
11024,14,Improv_Melody,307,1,48,56,2944494812
11024,14,Improv_Melody,308,1,48,57,2944718288
11024,14,Improv_Melody,309,5,42,127,2944882212
11024,14,Improv_Melody,310,1,48,62,2945064872
11024,14,Improv_Melody,311,1,48,59,2945293156
11024,14,Improv_Melody,312,5,42,110,2945381608
11024,14,Improv_Melody,313,1,38,78,2945675328
11024,14,Improv_Melody,314,5,42,110,2945881368
11024,14,Improv_Melody,315,5,42,110,2946382136
11024,14,Improv_Melody,316,1,48,64,2946869400
11024,14,Improv_Melody,317,2,41,80,2946884580
11024,14,Improv_Melody,318,2,65,80,2946886736
11024,14,Improv_Melody,319,5,42,127,2946889044
11024,14,Improv_Melody,320,1,48,59,2947336872
11024,14,Improv_Melody,321,5,42,110,2947381712
11024,14,Improv_Melody,322,1,38,80,2947804756
11024,14,Improv_Melody,323,5,42,110,2947882312
11024,14,Improv_Melody,324,1,48,61,2948057304
11024,14,Improv_Melody,325,5,42,110,2948382144
11024,14,Improv_Melody,326,1,48,58,2948482872
11024,14,Improv_Melody,327,1,48,58,2948727020
11024,14,Improv_Melody,328,5,42,127,2948882048
11024,14,Improv_Melody,329,1,48,62,2949106144
11024,14,Improv_Melody,330,1,48,59,2949343080
11024,14,Improv_Melody,331,5,42,110,2949381368
11024,14,Improv_Melody,332,1,38,95,2949779204
11024,14,Improv_Melody,333,5,42,110,2949882324
11024,14,Improv_Melody,334,5,42,110,2950382044
11024,14,Improv_Melody,335,1,48,64,2950875264
11024,14,Improv_Melody,336,2,48,80,2950884396
11024,14,Improv_Melody,337,2,72,80,2950886804
11024,14,Improv_Melody,338,5,42,127,2950889116
11024,14,Improv_Melody,339,1,48,63,2951370424
11024,14,Improv_Melody,340,5,42,110,2951382284
11024,14,Improv_Melody,341,1,38,77,2951825996
11024,14,Improv_Melody,0,9999,9999,9999,2870879308
11024,14,Improv_Melody,1,9999,9999,9999,2871380040
11024,14,Improv_Melody,2,9999,9999,9999,2871879764
11024,14,Improv_Melody,3,9999,9999,9999,2872379484
11024,14,Improv_Melody,4,9999,9999,9999,2872879208
11024,14,Improv_Melody,5,9999,9999,9999,2873379900
11024,14,Improv_Melody,6,9999,9999,9999,2873879624
11024,14,Improv_Melody,7,9999,9999,9999,2874379348
11024,14,Improv_Melody,8,9999,9999,9999,2874880112
11024,14,Improv_Melody,9,9999,9999,9999,2875379776
11024,14,Improv_Melody,10,9999,9999,9999,2875879544
11024,14,Improv_Melody,11,9999,9999,9999,2876379244
11024,14,Improv_Melody,12,9999,9999,9999,2876879936
11024,14,Improv_Melody,13,9999,9999,9999,2877379656
11024,14,Improv_Melody,14,9999,9999,9999,2877879380
11024,14,Improv_Melody,15,9999,9999,9999,2878379100
11024,14,Improv_Melody,16,9999,9999,9999,2878879796
11024,14,Improv_Melody,17,9999,9999,9999,2879379528
11024,14,Improv_Melody,18,9999,9999,9999,2879879252
11024,14,Improv_Melody,19,9999,9999,9999,2880380020
11024,14,Improv_Melody,20,9999,9999,9999,2880879664
11024,14,Improv_Melody,21,9999,9999,9999,2881379388
11024,14,Improv_Melody,22,9999,9999,9999,2881879108
11024,14,Improv_Melody,23,9999,9999,9999,2882379876
11024,14,Improv_Melody,24,9999,9999,9999,2882879600
11024,14,Improv_Melody,25,9999,9999,9999,2883379260
11024,14,Improv_Melody,26,9999,9999,9999,2883880028
11024,14,Improv_Melody,27,9999,9999,9999,2884379752
11024,14,Improv_Melody,28,9999,9999,9999,2884879472
11024,14,Improv_Melody,29,9999,9999,9999,2885379192
11024,14,Improv_Melody,30,9999,9999,9999,2885879888
11024,14,Improv_Melody,31,9999,9999,9999,2886379612
11024,14,Improv_Melody,32,9999,9999,9999,2886879284
11024,14,Improv_Melody,33,9999,9999,9999,2887380044
11024,14,Improv_Melody,34,9999,9999,9999,2887879744
11024,14,Improv_Melody,35,9999,9999,9999,2888379444
11024,14,Improv_Melody,36,9999,9999,9999,2888879220
11024,14,Improv_Melody,37,9999,9999,9999,2889379956
11024,14,Improv_Melody,38,9999,9999,9999,2889879656
11024,14,Improv_Melody,39,9999,9999,9999,2890379364
11024,14,Improv_Melody,40,9999,9999,9999,2890880112
11024,14,Improv_Melody,41,9999,9999,9999,2891379824
11024,14,Improv_Melody,42,9999,9999,9999,2891879520
11024,14,Improv_Melody,43,9999,9999,9999,2892379220
11024,14,Improv_Melody,44,9999,9999,9999,2892879948
11024,14,Improv_Melody,45,9999,9999,9999,2893379644
11024,14,Improv_Melody,46,9999,9999,9999,2893879344
11024,14,Improv_Melody,47,9999,9999,9999,2894379128
11024,14,Improv_Melody,48,9999,9999,9999,2894879796
11024,14,Improv_Melody,49,9999,9999,9999,2895379532
11024,14,Improv_Melody,50,9999,9999,9999,2895879228
11024,14,Improv_Melody,51,9999,9999,9999,2896379972
11024,14,Improv_Melody,52,9999,9999,9999,2896879732
11024,14,Improv_Melody,53,9999,9999,9999,2897379400
11024,14,Improv_Melody,54,9999,9999,9999,2897879100
11024,14,Improv_Melody,55,9999,9999,9999,2898379852
11024,14,Improv_Melody,56,9999,9999,9999,2898879564
11024,14,Improv_Melody,57,9999,9999,9999,2899379288
11024,14,Improv_Melody,58,9999,9999,9999,2899880028
11024,14,Improv_Melody,59,9999,9999,9999,2900379712
11024,14,Improv_Melody,60,9999,9999,9999,2900879412
11024,14,Improv_Melody,61,9999,9999,9999,2901379184
11024,14,Improv_Melody,62,9999,9999,9999,2901879908
11024,14,Improv_Melody,63,9999,9999,9999,2902379632
11024,14,Improv_Melody,64,9999,9999,9999,2902879312
11024,14,Improv_Melody,65,9999,9999,9999,2903380040
11024,14,Improv_Melody,66,9999,9999,9999,2903879740
11024,14,Improv_Melody,67,9999,9999,9999,2904379440
11024,14,Improv_Melody,68,9999,9999,9999,2904879216
11024,14,Improv_Melody,69,9999,9999,9999,2905379960
11024,14,Improv_Melody,70,9999,9999,9999,2905879660
11024,14,Improv_Melody,71,9999,9999,9999,2906379360
11024,14,Improv_Melody,72,9999,9999,9999,2906880048
11024,14,Improv_Melody,73,9999,9999,9999,2907379768
11024,14,Improv_Melody,74,9999,9999,9999,2907879520
11024,14,Improv_Melody,75,9999,9999,9999,2908379216
11024,14,Improv_Melody,76,9999,9999,9999,2908879964
11024,14,Improv_Melody,77,9999,9999,9999,2909379664
11024,14,Improv_Melody,78,9999,9999,9999,2909879356
11024,14,Improv_Melody,79,9999,9999,9999,2910379064
11024,14,Improv_Melody,80,9999,9999,9999,2910879832
11024,14,Improv_Melody,81,9999,9999,9999,2911379544
11024,14,Improv_Melody,82,9999,9999,9999,2911879244
11024,14,Improv_Melody,83,9999,9999,9999,2912379968
11024,14,Improv_Melody,84,9999,9999,9999,2912879668
11024,14,Improv_Melody,85,9999,9999,9999,2913379444
11024,14,Improv_Melody,86,9999,9999,9999,2913879140
11024,14,Improv_Melody,87,9999,9999,9999,2914379892
11024,14,Improv_Melody,88,9999,9999,9999,2914879540
11024,14,Improv_Melody,89,9999,9999,9999,2915379320
11024,14,Improv_Melody,90,9999,9999,9999,2915879992
11024,14,Improv_Melody,91,9999,9999,9999,2916379744
11024,14,Improv_Melody,92,9999,9999,9999,2916879444
11024,14,Improv_Melody,93,9999,9999,9999,2917379140
11024,14,Improv_Melody,94,9999,9999,9999,2917879888
11024,14,Improv_Melody,95,9999,9999,9999,2918379588
11024,14,Improv_Melody,96,9999,9999,9999,2918879352
11024,14,Improv_Melody,97,9999,9999,9999,2919380048
11024,14,Improv_Melody,98,9999,9999,9999,2919879740
11024,14,Improv_Melody,99,9999,9999,9999,2920379500
11024,14,Improv_Melody,100,9999,9999,9999,2920879200
11024,14,Improv_Melody,101,9999,9999,9999,2921379944
11024,14,Improv_Melody,102,9999,9999,9999,2921879624
11024,14,Improv_Melody,103,9999,9999,9999,2922379376
11024,14,Improv_Melody,104,9999,9999,9999,2922880100
11024,14,Improv_Melody,105,9999,9999,9999,2923379760
11024,14,Improv_Melody,106,9999,9999,9999,2923879536
11024,14,Improv_Melody,107,9999,9999,9999,2924379216
11024,14,Improv_Melody,108,9999,9999,9999,2924879964
11024,14,Improv_Melody,109,9999,9999,9999,2925379660
11024,14,Improv_Melody,110,9999,9999,9999,2925879412
11024,14,Improv_Melody,111,9999,9999,9999,2926379060
11024,14,Improv_Melody,112,9999,9999,9999,2926879828
11024,14,Improv_Melody,113,9999,9999,9999,2927379544
11024,14,Improv_Melody,114,9999,9999,9999,2927879236
11024,14,Improv_Melody,115,9999,9999,9999,2928379964
11024,14,Improv_Melody,116,9999,9999,9999,2928879664
11024,14,Improv_Melody,117,9999,9999,9999,2929379416
11024,14,Improv_Melody,118,9999,9999,9999,2929879160
11024,14,Improv_Melody,119,9999,9999,9999,2930379840
11024,14,Improv_Melody,120,9999,9999,9999,2930879552
11024,14,Improv_Melody,121,9999,9999,9999,2931379272
11024,14,Improv_Melody,122,9999,9999,9999,2931880012
11024,14,Improv_Melody,123,9999,9999,9999,2932379696
11024,14,Improv_Melody,124,9999,9999,9999,2932879472
11024,14,Improv_Melody,125,9999,9999,9999,2933379176
11024,14,Improv_Melody,126,9999,9999,9999,2933879860
11024,14,Improv_Melody,127,9999,9999,9999,2934379620
11024,14,Improv_Melody,128,9999,9999,9999,2934879340
11024,14,Improv_Melody,129,9999,9999,9999,2935380028
11024,14,Improv_Melody,130,9999,9999,9999,2935879796
11024,14,Improv_Melody,131,9999,9999,9999,2936379480
11024,14,Improv_Melody,132,9999,9999,9999,2936879160
11024,14,Improv_Melody,133,9999,9999,9999,2937379900
11024,14,Improv_Melody,134,9999,9999,9999,2937879656
11024,14,Improv_Melody,135,9999,9999,9999,2938379380
11024,14,Improv_Melody,136,9999,9999,9999,2938880068
11024,14,Improv_Melody,137,9999,9999,9999,2939379780
11024,14,Improv_Melody,138,9999,9999,9999,2939879480
11024,14,Improv_Melody,139,9999,9999,9999,2940379212
11024,14,Improv_Melody,140,9999,9999,9999,2940879936
11024,14,Improv_Melody,141,9999,9999,9999,2941379704
11024,14,Improv_Melody,142,9999,9999,9999,2941879404
11024,14,Improv_Melody,143,9999,9999,9999,2942379112
11024,14,Improv_Melody,144,9999,9999,9999,2942879800
11024,14,Improv_Melody,145,9999,9999,9999,2943379512
11024,14,Improv_Melody,146,9999,9999,9999,2943879216
11024,14,Improv_Melody,147,9999,9999,9999,2944380020
11024,14,Improv_Melody,148,9999,9999,9999,2944879700
11024,14,Improv_Melody,149,9999,9999,9999,2945379392
11024,14,Improv_Melody,150,9999,9999,9999,2945879152
11024,14,Improv_Melody,151,9999,9999,9999,2946379844
11024,14,Improv_Melody,152,9999,9999,9999,2946879560
11024,14,Improv_Melody,153,9999,9999,9999,2947379272
11024,14,Improv_Melody,154,9999,9999,9999,2947880020
11024,14,Improv_Melody,155,9999,9999,9999,2948379704
11024,14,Improv_Melody,156,9999,9999,9999,2948879460
11024,14,Improv_Melody,157,9999,9999,9999,2949379152
11024,14,Improv_Melody,158,9999,9999,9999,2949879884
11024,14,Improv_Melody,159,9999,9999,9999,2950379604
11024,14,Improv_Melody,160,9999,9999,9999,2950879292
11024,14,Improv_Melody,161,9999,9999,9999,2951380064
110