pid,taskRunCount,taskID,taskName,i,channel,pitch,velocity,microseconds
1,0,Ticks_Pract_8,0,5,42,127,622706072
1111,0,Ticks_Pract_8,1,5,42,127,623505904
1111,0,Ticks_Pract_8,2,5,42,127,624305584
1111,0,Ticks_Pract_8,3,5,42,127,625106236
1111,0,Ticks_Pract_8,4,5,42,127,625906064
1111,0,Ticks_Pract_8,5,1,48,49,625911356
1111,0,Ticks_Pract_8,6,1,48,57,626690132
1111,0,Ticks_Pract_8,7,5,42,127,626705720
1111,0,Ticks_Pract_8,8,5,42,127,627505832
1111,0,Ticks_Pract_8,9,1,48,56,627520700
1111,0,Ticks_Pract_8,10,5,42,127,628306236
1111,0,Ticks_Pract_8,11,1,48,53,628310928
1111,0,Ticks_Pract_8,12,1,48,57,629099004
1111,0,Ticks_Pract_8,13,5,42,127,629106064
1111,0,Ticks_Pract_8,14,1,48,63,629871208
1111,0,Ticks_Pract_8,15,5,42,127,629905872
1111,0,Ticks_Pract_8,16,1,48,57,630700192
1111,0,Ticks_Pract_8,17,5,42,127,630705680
1111,0,Ticks_Pract_8,18,1,48,64,631503512
1111,0,Ticks_Pract_8,19,5,42,127,631506236
1111,0,Ticks_Pract_8,20,1,48,65,632290080
1111,0,Ticks_Pract_8,21,5,42,127,632305972
1111,0,Ticks_Pract_8,22,5,42,127,633105860
1111,0,Ticks_Pract_8,23,1,48,55,633123712
1111,0,Ticks_Pract_8,24,5,42,127,633905592
1111,0,Ticks_Pract_8,25,1,48,59,633919260
1111,0,Ticks_Pract_8,26,5,42,127,634706224
1111,0,Ticks_Pract_8,27,1,48,73,634745272
1111,0,Ticks_Pract_8,28,1,48,55,635503864
1111,0,Ticks_Pract_8,29,5,42,127,635506052
1111,0,Ticks_Pract_8,30,1,48,60,636270824
1111,0,Ticks_Pract_8,31,5,42,127,636305712
1111,0,Ticks_Pract_8,32,5,42,127,637105604
1111,0,Ticks_Pract_8,33,1,48,52,637113512
1111,0,Ticks_Pract_8,34,5,42,127,637906232
1111,0,Ticks_Pract_8,35,1,48,64,637928056
1111,0,Ticks_Pract_8,36,1,48,51,638687976
1111,0,Ticks_Pract_8,37,5,42,127,638705960
1111,0,Ticks_Pract_8,38,1,48,61,639489804
1111,0,Ticks_Pract_8,39,5,42,127,639505696
1111,0,Ticks_Pract_8,40,1,48,51,640286616
1111,0,Ticks_Pract_8,41,5,42,127,640305652
1111,0,Ticks_Pract_8,42,1,48,54,641058308
1111,0,Ticks_Pract_8,43,5,42,127,641106132
1111,0,Ticks_Pract_8,44,1,48,60,641895612
1111,0,Ticks_Pract_8,45,5,42,127,641906112
1111,0,Ticks_Pract_8,46,5,42,127,642705852
1111,0,Ticks_Pract_8,47,1,48,55,642713312
1111,0,Ticks_Pract_8,48,5,42,127,643505588
1111,0,Ticks_Pract_8,49,1,48,57,643547828
1111,0,Ticks_Pract_8,50,5,42,127,644306368
1111,0,Ticks_Pract_8,51,1,48,54,644309044
1111,0,Ticks_Pract_8,52,1,48,49,645094696
1111,0,Ticks_Pract_8,53,5,42,127,645106020
1111,0,Ticks_Pract_8,54,1,48,62,645893076
1111,0,Ticks_Pract_8,55,5,42,127,645905900
1111,0,Ticks_Pract_8,56,1,48,54,646695580
1111,0,Ticks_Pract_8,0,9999,9999,9999,622703708
1111,0,Ticks_Pract_8,1,9999,9999,9999,623503464
1111,0,Ticks_Pract_8,2,9999,9999,9999,624303220
1111,0,Ticks_Pract_8,3,9999,9999,9999,625103948
1111,0,Ticks_Pract_8,4,9999,9999,9999,625903704
1111,0,Ticks_Pract_8,5,9999,9999,9999,626703432
1111,0,Ticks_Pract_8,6,9999,9999,9999,627503172
1111,0,Ticks_Pract_8,7,9999,9999,9999,628303948
1111,0,Ticks_Pract_8,8,9999,9999,9999,629103700
1111,0,Ticks_Pract_8,9,9999,9999,9999,629903436
1111,0,Ticks_Pract_8,10,9999,9999,9999,630703168
1111,0,Ticks_Pract_8,11,9999,9999,9999,631503948
1111,0,Ticks_Pract_8,12,9999,9999,9999,632303684
1111,0,Ticks_Pract_8,13,9999,9999,9999,633103424
1111,0,Ticks_Pract_8,14,9999,9999,9999,633903156
1111,0,Ticks_Pract_8,15,9999,9999,9999,634703936
1111,0,Ticks_Pract_8,16,9999,9999,9999,635503728
1111,0,Ticks_Pract_8,17,9999,9999,9999,636303424
1111,0,Ticks_Pract_8,18,9999,9999,9999,637103164
1111,0,Ticks_Pract_8,19,9999,9999,9999,637903944
1111,0,Ticks_Pract_8,20,9999,9999,9999,638703672
1111,0,Ticks_Pract_8,21,9999,9999,9999,639503408
1111,0,Ticks_Pract_8,22,9999,9999,9999,640303216
1111,0,Ticks_Pract_8,23,9999,9999,9999,641103920
1111,0,Ticks_Pract_8,24,9999,9999,9999,641903676
1111,0,Ticks_Pract_8,25,9999,9999,9999,642703416
1111,0,Ticks_Pract_8,26,9999,9999,9999,643503152
1111,0,Ticks_Pract_8,27,9999,9999,9999,644303932
1111,0,Ticks_Pract_8,28,9999,9999,9999,645103732
1111,0,Ticks_Pract_8,29,9999,9999,9999,645903464
1112,1,Ticks_Pract_5,0,5,42,127,670406272
1112,1,Ticks_Pract_5,1,5,42,127,670905840
1112,1,Ticks_Pract_5,2,5,42,127,671405408
1112,1,Ticks_Pract_5,3,5,42,127,671906320
1112,1,Ticks_Pract_5,4,5,42,127,672405812
1112,1,Ticks_Pract_5,5,1,48,47,672416864
1112,1,Ticks_Pract_5,6,1,48,47,672857352
1112,1,Ticks_Pract_5,7,5,42,127,672905648
1112,1,Ticks_Pract_5,8,1,48,55,673366248
1112,1,Ticks_Pract_5,9,5,42,127,673406240
1112,1,Ticks_Pract_5,10,1,48,59,673873116
1112,1,Ticks_Pract_5,11,5,42,127,673906308
1112,1,Ticks_Pract_5,12,1,48,55,674363984
1112,1,Ticks_Pract_5,13,5,42,127,674405852
1112,1,Ticks_Pract_5,14,1,48,55,674855524
1112,1,Ticks_Pract_5,15,5,42,127,674905372
1112,1,Ticks_Pract_5,16,1,48,57,675354544
1112,1,Ticks_Pract_5,17,5,42,127,675406188
1112,1,Ticks_Pract_5,18,1,48,51,675849152
1112,1,Ticks_Pract_5,19,5,42,127,675906108
1112,1,Ticks_Pract_5,20,1,48,50,676360596
1112,1,Ticks_Pract_5,21,5,42,127,676405728
1112,1,Ticks_Pract_5,22,1,48,51,676869860
1112,1,Ticks_Pract_5,23,5,42,127,676906396
1112,1,Ticks_Pract_5,24,1,48,48,677369480
1112,1,Ticks_Pract_5,25,5,42,127,677406164
1112,1,Ticks_Pract_5,26,1,48,51,677886896
1112,1,Ticks_Pract_5,27,5,42,127,677905856
1112,1,Ticks_Pract_5,28,1,48,49,678356872
1112,1,Ticks_Pract_5,29,5,42,127,678405452
1112,1,Ticks_Pract_5,30,1,48,53,678849020
1112,1,Ticks_Pract_5,31,5,42,127,678906268
1112,1,Ticks_Pract_5,32,1,48,51,679358136
1112,1,Ticks_Pract_5,33,5,42,127,679406112
1112,1,Ticks_Pract_5,34,1,48,58,679848036
1112,1,Ticks_Pract_5,35,5,42,127,679905508
1112,1,Ticks_Pract_5,36,1,48,62,680367844
1112,1,Ticks_Pract_5,37,5,42,127,680406328
1112,1,Ticks_Pract_5,38,1,48,53,680903980
1112,1,Ticks_Pract_5,39,5,42,127,680906020
1112,1,Ticks_Pract_5,40,1,48,51,681401044
1112,1,Ticks_Pract_5,41,5,42,127,681405936
1112,1,Ticks_Pract_5,42,1,48,52,681881584
1112,1,Ticks_Pract_5,43,5,42,127,681905484
1112,1,Ticks_Pract_5,44,1,48,51,682376116
1112,1,Ticks_Pract_5,45,5,42,127,682406224
1112,1,Ticks_Pract_5,46,5,42,127,682905848
1112,1,Ticks_Pract_5,47,1,48,58,682911512
1112,1,Ticks_Pract_5,48,1,48,55,683403336
1112,1,Ticks_Pract_5,49,5,42,127,683405908
1112,1,Ticks_Pract_5,50,1,48,57,683905980
1112,1,Ticks_Pract_5,51,5,42,127,683907404
1112,1,Ticks_Pract_5,52,5,42,127,684406052
1112,1,Ticks_Pract_5,53,1,48,54,684411716
1112,1,Ticks_Pract_5,54,5,42,127,684905896
1112,1,Ticks_Pract_5,55,1,48,58,684946112
1112,1,Ticks_Pract_5,56,1,48,57,685384652
1112,1,Ticks_Pract_5,57,5,42,127,685405408
1112,1,Ticks_Pract_5,58,1,48,54,685871784
1112,1,Ticks_Pract_5,59,5,42,127,685906228
1112,1,Ticks_Pract_5,60,1,48,54,686362132
1112,1,Ticks_Pract_5,61,5,42,127,686405996
1112,1,Ticks_Pract_5,62,1,48,51,686860556
1112,1,Ticks_Pract_5,63,5,42,127,686905692
1112,1,Ticks_Pract_5,64,1,48,56,687361596
1112,1,Ticks_Pract_5,65,5,42,127,687405536
1112,1,Ticks_Pract_5,66,1,48,55,687844984
1112,1,Ticks_Pract_5,67,5,42,127,687906128
1112,1,Ticks_Pract_5,68,1,48,59,688334960
1112,1,Ticks_Pract_5,69,5,42,127,688406048
1112,1,Ticks_Pract_5,70,1,48,54,688834876
1112,1,Ticks_Pract_5,71,5,42,127,688905520
1112,1,Ticks_Pract_5,72,1,48,50,689371448
1112,1,Ticks_Pract_5,73,5,42,127,689406408
1112,1,Ticks_Pract_5,74,1,48,50,689844364
1112,1,Ticks_Pract_5,75,5,42,127,689905956
1112,1,Ticks_Pract_5,76,1,48,52,690356772
1112,1,Ticks_Pract_5,0,9999,9999,9999,670403688
1112,1,Ticks_Pract_5,1,9999,9999,9999,670903404
1112,1,Ticks_Pract_5,2,9999,9999,9999,671403120
1112,1,Ticks_Pract_5,3,9999,9999,9999,671903808
1112,1,Ticks_Pract_5,4,9999,9999,9999,672403528
1112,1,Ticks_Pract_5,5,9999,9999,9999,672903288
1112,1,Ticks_Pract_5,6,9999,9999,9999,673403956
1112,1,Ticks_Pract_5,7,9999,9999,9999,673903724
1112,1,Ticks_Pract_5,8,9999,9999,9999,674403416
1112,1,Ticks_Pract_5,9,9999,9999,9999,674903088
1112,1,Ticks_Pract_5,10,9999,9999,9999,675403828
1112,1,Ticks_Pract_5,11,9999,9999,9999,675903600
1112,1,Ticks_Pract_5,12,9999,9999,9999,676403292
1112,1,Ticks_Pract_5,13,9999,9999,9999,676904032
1112,1,Ticks_Pract_5,14,9999,9999,9999,677403728
1112,1,Ticks_Pract_5,15,9999,9999,9999,677903424
1112,1,Ticks_Pract_5,16,9999,9999,9999,678403168
1112,1,Ticks_Pract_5,17,9999,9999,9999,678903908
1112,1,Ticks_Pract_5,18,9999,9999,9999,679403604
1112,1,Ticks_Pract_5,19,9999,9999,9999,679903296
1112,1,Ticks_Pract_5,20,9999,9999,9999,680404036
1112,1,Ticks_Pract_5,21,9999,9999,9999,680903772
1112,1,Ticks_Pract_5,22,9999,9999,9999,681403500
1112,1,Ticks_Pract_5,23,9999,9999,9999,681903196
1112,1,Ticks_Pract_5,24,9999,9999,9999,682403936
1112,1,Ticks_Pract_5,25,9999,9999,9999,682903636
1112,1,Ticks_Pract_5,26,9999,9999,9999,683403400
1112,1,Ticks_Pract_5,27,9999,9999,9999,683904072
1112,1,Ticks_Pract_5,28,9999,9999,9999,684403768
1112,1,Ticks_Pract_5,29,9999,9999,9999,684903536
1112,1,Ticks_Pract_5,30,9999,9999,9999,685403200
1112,1,Ticks_Pract_5,31,9999,9999,9999,685903940
1112,1,Ticks_Pract_5,32,9999,9999,9999,686403636
1112,1,Ticks_Pract_5,33,9999,9999,9999,686903404
1112,1,Ticks_Pract_5,34,9999,9999,9999,687403100
1112,1,Ticks_Pract_5,35,9999,9999,9999,687903844
1112,1,Ticks_Pract_5,36,9999,9999,9999,688403536
1112,1,Ticks_Pract_5,37,9999,9999,9999,688903232
1112,1,Ticks_Pract_5,38,9999,9999,9999,689403972
1112,1,Ticks_Pract_5,39,9999,9999,9999,689903668
1113,2,T1_SMS_8,0,5,42,127,793588204
1113,2,T1_SMS_8,1,5,42,127,794387812
1113,2,T1_SMS_8,2,5,42,127,795187492
1113,2,T1_SMS_8,3,5,42,127,795988444
1113,2,T1_SMS_8,4,1,48,60,796768208
1113,2,T1_SMS_8,5,5,42,127,796788216
1113,2,T1_SMS_8,6,1,48,59,797567496
1113,2,T1_SMS_8,7,5,42,127,797587800
1113,2,T1_SMS_8,8,1,48,57,798353540
1113,2,T1_SMS_8,9,5,42,127,798387532
1113,2,T1_SMS_8,10,1,48,57,799183788
1113,2,T1_SMS_8,11,5,42,127,799188388
1113,2,T1_SMS_8,12,5,42,127,799988052
1113,2,T1_SMS_8,13,1,48,51,799996480
1113,2,T1_SMS_8,14,5,42,127,800787932
1113,2,T1_SMS_8,15,1,48,52,800795608
1113,2,T1_SMS_8,16,5,42,127,801587592
1113,2,T1_SMS_8,17,1,48,50,801601932
1113,2,T1_SMS_8,18,5,42,127,802388372
1113,2,T1_SMS_8,19,1,48,52,802427568
1113,2,T1_SMS_8,20,5,42,127,803188056
1113,2,T1_SMS_8,21,1,48,52,803190500
1113,2,T1_SMS_8,22,5,42,127,803988012
1113,2,T1_SMS_8,23,1,48,53,804028156
1113,2,T1_SMS_8,24,5,42,127,804787524
1113,2,T1_SMS_8,25,1,48,54,804790864
1113,2,T1_SMS_8,26,5,42,127,805588376
1113,2,T1_SMS_8,27,1,48,63,805593812
1113,2,T1_SMS_8,28,1,48,61,806382684
1113,2,T1_SMS_8,29,5,42,127,806388104
1113,2,T1_SMS_8,30,5,42,127,807187920
1113,2,T1_SMS_8,31,1,48,55,807193732
1113,2,T1_SMS_8,32,5,42,127,807987504
1113,2,T1_SMS_8,33,1,48,58,807997732
1113,2,T1_SMS_8,34,1,48,55,808778596
1113,2,T1_SMS_8,35,5,42,127,808788280
1113,2,T1_SMS_8,36,1,48,58,809566464
1113,2,T1_SMS_8,37,5,42,127,809588188
1113,2,T1_SMS_8,38,1,48,54,810358344
1113,2,T1_SMS_8,39,5,42,127,810387920
1113,2,T1_SMS_8,40,1,48,38,810391544
1113,2,T1_SMS_8,41,5,42,127,811187492
1113,2,T1_SMS_8,42,1,48,52,811206388
1113,2,T1_SMS_8,43,1,48,51,811988496
1113,2,T1_SMS_8,44,5,42,127,811989832
1113,2,T1_SMS_8,45,1,48,41,812758644
1113,2,T1_SMS_8,46,5,42,127,812788072
1113,2,T1_SMS_8,47,1,48,49,813580296
1113,2,T1_SMS_8,48,5,42,127,813587956
1113,2,T1_SMS_8,49,1,48,57,814382640
1113,2,T1_SMS_8,50,5,42,127,814387540
1113,2,T1_SMS_8,51,5,42,127,815188328
1113,2,T1_SMS_8,52,1,48,52,815201420
1113,2,T1_SMS_8,53,5,42,127,815988084
1113,2,T1_SMS_8,54,1,48,54,816026204
1113,2,T1_SMS_8,55,1,48,51,816738336
1113,2,T1_SMS_8,56,5,42,127,816788032
1113,2,T1_SMS_8,57,1,48,47,817489128
1113,2,T1_SMS_8,58,5,42,127,817587528
1113,2,T1_SMS_8,59,1,48,45,818335780
1113,2,T1_SMS_8,60,5,42,127,818388248
1113,2,T1_SMS_8,61,5,42,127,819188064
1113,2,T1_SMS_8,62,1,48,48,819196788
1113,2,T1_SMS_8,63,5,42,127,819988020
1113,2,T1_SMS_8,64,1,48,47,820017248
1113,2,T1_SMS_8,65,5,42,127,820787676
1113,2,T1_SMS_8,66,1,48,45,820829940
1113,2,T1_SMS_8,67,1,48,50,821559844
1113,2,T1_SMS_8,68,5,42,127,821588524
1113,2,T1_SMS_8,69,1,48,46,822366856
1113,2,T1_SMS_8,70,5,42,127,822388060
1113,2,T1_SMS_8,71,5,42,127,823187948
1113,2,T1_SMS_8,72,1,48,41,823193456
1113,2,T1_SMS_8,73,1,48,44,823960792
1113,2,T1_SMS_8,74,5,42,127,823987748
1113,2,T1_SMS_8,75,1,48,41,824763060
1113,2,T1_SMS_8,76,5,42,127,824788528
1113,2,T1_SMS_8,77,1,48,45,825532436
1113,2,T1_SMS_8,78,5,42,127,825588040
1113,2,T1_SMS_8,79,1,48,53,826297908
1113,2,T1_SMS_8,80,5,42,127,826387848
1113,2,T1_SMS_8,81,1,48,42,827157104
1113,2,T1_SMS_8,82,5,42,127,827187732
1113,2,T1_SMS_8,83,1,48,44,827978984
1113,2,T1_SMS_8,84,5,42,127,827988288
1113,2,T1_SMS_8,85,1,48,51,828774548
1113,2,T1_SMS_8,86,5,42,127,828788048
1113,2,T1_SMS_8,87,1,48,51,829509784
1113,2,T1_SMS_8,88,5,42,127,829587928
1113,2,T1_SMS_8,89,5,42,127,830387816
1113,2,T1_SMS_8,90,1,48,43,830396244
1113,2,T1_SMS_8,91,5,42,127,831188300
1113,2,T1_SMS_8,92,1,48,46,831190892
1113,2,T1_SMS_8,93,1,48,46,831965100
1113,2,T1_SMS_8,94,5,42,127,831988028
1113,2,T1_SMS_8,95,1,48,43,832774260
1113,2,T1_SMS_8,96,5,42,127,832787684
1113,2,T1_SMS_8,97,1,48,48,833556720
1113,2,T1_SMS_8,98,5,42,127,833587492
1113,2,T1_SMS_8,99,1,48,49,834330568
1113,2,T1_SMS_8,100,5,42,127,834388272
1113,2,T1_SMS_8,101,1,48,41,835177828
1113,2,T1_SMS_8,102,5,42,127,835187956
1113,2,T1_SMS_8,103,1,48,45,835905200
1113,2,T1_SMS_8,104,5,42,127,835987764
1113,2,T1_SMS_8,105,1,48,41,836753128
1113,2,T1_SMS_8,106,5,42,127,836787648
1113,2,T1_SMS_8,107,1,48,43,837547776
1113,2,T1_SMS_8,108,5,42,127,837588500
1113,2,T1_SMS_8,109,5,42,127,838387944
1113,2,T1_SMS_8,110,1,48,44,838395840
1113,2,T1_SMS_8,111,1,48,46,839123604
1113,2,T1_SMS_8,112,5,42,127,839187744
1113,2,T1_SMS_8,113,1,48,45,839987108
1113,2,T1_SMS_8,114,5,42,127,839988748
1113,2,T1_SMS_8,115,5,42,127,840788560
1113,2,T1_SMS_8,116,1,48,45,840818408
1113,2,T1_SMS_8,117,1,48,43,841554148
1113,2,T1_SMS_8,118,5,42,127,841587940
1113,2,T1_SMS_8,119,5,42,127,842387752
1113,2,T1_SMS_8,120,1,48,44,842389616
1113,2,T1_SMS_8,121,5,42,127,843187488
1113,2,T1_SMS_8,122,1,48,47,843227032
1113,2,T1_SMS_8,123,5,42,127,843988492
1113,2,T1_SMS_8,124,1,48,41,844037836
1113,2,T1_SMS_8,125,5,42,127,844788076
1113,2,T1_SMS_8,126,1,48,33,845080532
1113,2,T1_SMS_8,127,5,42,127,845587736
1113,2,T1_SMS_8,128,1,48,23,845691480
1113,2,T1_SMS_8,129,1,48,45,846313972
1113,2,T1_SMS_8,130,5,42,127,846387684
1113,2,T1_SMS_8,131,1,48,35,847178556
1113,2,T1_SMS_8,132,5,42,127,847188536
1113,2,T1_SMS_8,133,5,42,127,847988004
1113,2,T1_SMS_8,134,1,48,32,847998676
1113,2,T1_SMS_8,135,5,42,127,848787740
1113,2,T1_SMS_8,136,1,48,42,848813520
1113,2,T1_SMS_8,137,5,42,127,849587624
1113,2,T1_SMS_8,138,1,48,39,849591860
1113,2,T1_SMS_8,139,5,42,127,850388476
1113,2,T1_SMS_8,140,1,48,37,850407904
1113,2,T1_SMS_8,141,1,48,41,851175828
1113,2,T1_SMS_8,142,5,42,127,851187980
1113,2,T1_SMS_8,143,5,42,127,851987796
1113,2,T1_SMS_8,144,1,48,38,852015300
1113,2,T1_SMS_8,145,5,42,127,852787456
1113,2,T1_SMS_8,146,1,48,45,852801572
1113,2,T1_SMS_8,147,5,42,127,853588460
1113,2,T1_SMS_8,148,1,48,42,853600052
1113,2,T1_SMS_8,149,5,42,127,854388068
1113,2,T1_SMS_8,150,1,48,33,854433296
1113,2,T1_SMS_8,151,5,42,127,855187880
1113,2,T1_SMS_8,152,1,48,40,855217404
1113,2,T1_SMS_8,153,5,42,127,855987616
1113,2,T1_SMS_8,154,1,48,43,856037708
1113,2,T1_SMS_8,155,1,48,48,856785584
1113,2,T1_SMS_8,156,5,42,127,856788240
1113,2,T1_SMS_8,157,5,42,127,857588128
1113,2,T1_SMS_8,158,1,48,38,857613684
1113,2,T1_SMS_8,159,1,48,38,858386808
1113,2,T1_SMS_8,160,5,42,127,858388372
1113,2,T1_SMS_8,161,5,42,127,859187520
1113,2,T1_SMS_8,162,1,48,45,859205072
1113,2,T1_SMS_8,163,1,48,44,859966720
1113,2,T1_SMS_8,164,5,42,127,859988220
1113,2,T1_SMS_8,165,1,48,42,860778364
1113,2,T1_SMS_8,166,5,42,127,860788272
1113,2,T1_SMS_8,167,5,42,127,861587792
1113,2,T1_SMS_8,168,1,48,46,861594652
1113,2,T1_SMS_8,169,5,42,127,862387448
1113,2,T1_SMS_8,170,1,48,43,862388416
1113,2,T1_SMS_8,171,5,42,127,863188304
1113,2,T1_SMS_8,172,1,48,41,863217300
1113,2,T1_SMS_8,173,1,48,48,863957108
1113,2,T1_SMS_8,174,5,42,127,863988180
1113,2,T1_SMS_8,175,5,42,127,864787772
1113,2,T1_SMS_8,176,1,48,41,864791188
1113,2,T1_SMS_8,177,5,42,127,865587432
1113,2,T1_SMS_8,178,1,48,47,865608728
1113,2,T1_SMS_8,179,5,42,127,866388284
1113,2,T1_SMS_8,180,1,48,43,866392476
1113,2,T1_SMS_8,181,5,42,127,867188044
1113,2,T1_SMS_8,182,1,48,46,867221304
1113,2,T1_SMS_8,183,5,42,127,867988000
1113,2,T1_SMS_8,184,1,48,44,868004728
1113,2,T1_SMS_8,185,5,42,127,868787512
1113,2,T1_SMS_8,186,1,48,48,868796692
1113,2,T1_SMS_8,187,1,48,46,869571648
1113,2,T1_SMS_8,188,5,42,127,869588288
1113,2,T1_SMS_8,189,5,42,127,870388176
1113,2,T1_SMS_8,190,1,48,41,870393236
1113,2,T1_SMS_8,191,5,42,127,871187832
1113,2,T1_SMS_8,192,1,48,44,871209872
1113,2,T1_SMS_8,193,5,42,127,871987416
1113,2,T1_SMS_8,194,1,48,43,872002052
1113,2,T1_SMS_8,195,5,42,127,872788268
1113,2,T1_SMS_8,196,1,48,43,872812404
1113,2,T1_SMS_8,197,5,42,127,873588228
1113,2,T1_SMS_8,198,1,48,41,873601668
1113,2,T1_SMS_8,199,1,48,43,874388112
1113,2,T1_SMS_8,200,5,42,127,874389376
1113,2,T1_SMS_8,201,5,42,127,875187476
1113,2,T1_SMS_8,202,1,48,45,875228960
1113,2,T1_SMS_8,203,5,42,127,875988328
1113,2,T1_SMS_8,204,1,48,40,876005280
1113,2,T1_SMS_8,205,5,42,127,876788212
1113,2,T1_SMS_8,206,1,48,41,876849672
1113,2,T1_SMS_8,207,5,42,127,877588020
1113,2,T1_SMS_8,208,1,48,41,877592408
1113,2,T1_SMS_8,209,5,42,127,878387676
1113,2,T1_SMS_8,210,1,48,40,878390120
1113,2,T1_SMS_8,211,1,48,47,879173156
1113,2,T1_SMS_8,212,5,42,127,879188228
1113,2,T1_SMS_8,213,1,48,43,879963116
1113,2,T1_SMS_8,214,5,42,127,879988136
1113,2,T1_SMS_8,215,1,48,40,880781848
1113,2,T1_SMS_8,216,5,42,127,880788092
1113,2,T1_SMS_8,217,1,48,44,881539548
1113,2,T1_SMS_8,218,5,42,127,881587600
1113,2,T1_SMS_8,219,1,48,40,882388312
1113,2,T1_SMS_8,220,5,42,127,882389724
1113,2,T1_SMS_8,221,1,48,40,883162048
1113,2,T1_SMS_8,222,5,42,127,883187964
1113,2,T1_SMS_8,223,5,42,127,883988004
1113,2,T1_SMS_8,224,1,48,40,883989044
1113,2,T1_SMS_8,225,5,42,127,884787516
1113,2,T1_SMS_8,226,1,48,44,884803344
1113,2,T1_SMS_8,227,5,42,127,885588292
1113,2,T1_SMS_8,228,1,48,42,885648356
1113,2,T1_SMS_8,229,5,42,127,886388052
1113,2,T1_SMS_8,230,1,48,39,886396776
1113,2,T1_SMS_8,231,5,42,127,887188084
1113,2,T1_SMS_8,232,1,48,42,887231440
1113,2,T1_SMS_8,233,5,42,127,887987448
1113,2,T1_SMS_8,234,1,48,42,888019660
1113,2,T1_SMS_8,235,5,42,127,888788376
1113,2,T1_SMS_8,236,1,48,42,888796804
1113,2,T1_SMS_8,0,9999,9999,9999,793585764
1113,2,T1_SMS_8,1,9999,9999,9999,794385520
1113,2,T1_SMS_8,2,9999,9999,9999,795185200
1113,2,T1_SMS_8,3,9999,9999,9999,795986004
1113,2,T1_SMS_8,4,9999,9999,9999,796785776
1113,2,T1_SMS_8,5,9999,9999,9999,797585508
1113,2,T1_SMS_8,6,9999,9999,9999,798385240
1113,2,T1_SMS_8,7,9999,9999,9999,799186020
1113,2,T1_SMS_8,8,9999,9999,9999,799985760
1113,2,T1_SMS_8,9,9999,9999,9999,800785492
1113,2,T1_SMS_8,10,9999,9999,9999,801585228
1113,2,T1_SMS_8,11,9999,9999,9999,802386004
1113,2,T1_SMS_8,12,9999,9999,9999,803185764
1113,2,T1_SMS_8,13,9999,9999,9999,803985496
1113,2,T1_SMS_8,14,9999,9999,9999,804785232
1113,2,T1_SMS_8,15,9999,9999,9999,805586012
1113,2,T1_SMS_8,16,9999,9999,9999,806385736
1113,2,T1_SMS_8,17,9999,9999,9999,807185480
1113,2,T1_SMS_8,18,9999,9999,9999,807985212
1113,2,T1_SMS_8,19,9999,9999,9999,808785988
1113,2,T1_SMS_8,20,9999,9999,9999,809585748
1113,2,T1_SMS_8,21,9999,9999,9999,810385480
1113,2,T1_SMS_8,22,9999,9999,9999,811185200
1113,2,T1_SMS_8,23,9999,9999,9999,811985980
1113,2,T1_SMS_8,24,9999,9999,9999,812785780
1113,2,T1_SMS_8,25,9999,9999,9999,813585516
1113,2,T1_SMS_8,26,9999,9999,9999,814385248
1113,2,T1_SMS_8,27,9999,9999,9999,815186036
1113,2,T1_SMS_8,28,9999,9999,9999,815985720
1113,2,T1_SMS_8,29,9999,9999,9999,816785520
1113,2,T1_SMS_8,30,9999,9999,9999,817585236
1113,2,T1_SMS_8,31,9999,9999,9999,818386032
1113,2,T1_SMS_8,32,9999,9999,9999,819185772
1113,2,T1_SMS_8,33,9999,9999,9999,819985504
1113,2,T1_SMS_8,34,9999,9999,9999,820785236
1113,2,T1_SMS_8,35,9999,9999,9999,821586012
1113,2,T1_SMS_8,36,9999,9999,9999,822385768
1113,2,T1_SMS_8,37,9999,9999,9999,823185508
1113,2,T1_SMS_8,38,9999,9999,9999,823985236
1113,2,T1_SMS_8,39,9999,9999,9999,824786012
1113,2,T1_SMS_8,40,9999,9999,9999,825585748
1113,2,T1_SMS_8,41,9999,9999,9999,826385484
1113,2,T1_SMS_8,42,9999,9999,9999,827185216
1113,2,T1_SMS_8,43,9999,9999,9999,827985996
1113,2,T1_SMS_8,44,9999,9999,9999,828785756
1113,2,T1_SMS_8,45,9999,9999,9999,829585488
1113,2,T1_SMS_8,46,9999,9999,9999,830385228
1113,2,T1_SMS_8,47,9999,9999,9999,831186008
1113,2,T1_SMS_8,48,9999,9999,9999,831985736
1113,2,T1_SMS_8,49,9999,9999,9999,832785468
1113,2,T1_SMS_8,50,9999,9999,9999,833585200
1113,2,T1_SMS_8,51,9999,9999,9999,834385980
1113,2,T1_SMS_8,52,9999,9999,9999,835185740
1113,2,T1_SMS_8,53,9999,9999,9999,835985472
1113,2,T1_SMS_8,54,9999,9999,9999,836785208
1113,2,T1_SMS_8,55,9999,9999,9999,837585988
1113,2,T1_SMS_8,56,9999,9999,9999,838385724
1113,2,T1_SMS_8,57,9999,9999,9999,839185528
1113,2,T1_SMS_8,58,9999,9999,9999,839985268
1113,2,T1_SMS_8,59,9999,9999,9999,840785972
1113,2,T1_SMS_8,60,9999,9999,9999,841585724
1113,2,T1_SMS_8,61,9999,9999,9999,842385464
1113,2,T1_SMS_8,62,9999,9999,9999,843185268
1113,2,T1_SMS_8,63,9999,9999,9999,843985976
1113,2,T1_SMS_8,64,9999,9999,9999,844785784
1113,2,T1_SMS_8,65,9999,9999,9999,845585516
1113,2,T1_SMS_8,66,9999,9999,9999,846385244
1113,2,T1_SMS_8,67,9999,9999,9999,847186024
1113,2,T1_SMS_8,68,9999,9999,9999,847985712
1113,2,T1_SMS_8,69,9999,9999,9999,848785520
1113,2,T1_SMS_8,70,9999,9999,9999,849585256
1113,2,T1_SMS_8,71,9999,9999,9999,850386036
1113,2,T1_SMS_8,72,9999,9999,9999,851185764
1113,2,T1_SMS_8,73,9999,9999,9999,851985504
1113,2,T1_SMS_8,74,9999,9999,9999,852785240
1113,2,T1_SMS_8,75,9999,9999,9999,853586020
1113,2,T1_SMS_8,76,9999,9999,9999,854385776
1113,2,T1_SMS_8,77,9999,9999,9999,855185512
1113,2,T1_SMS_8,78,9999,9999,9999,855985248
1113,2,T1_SMS_8,79,9999,9999,9999,856786020
1113,2,T1_SMS_8,80,9999,9999,9999,857585760
1113,2,T1_SMS_8,81,9999,9999,9999,858385492
1113,2,T1_SMS_8,82,9999,9999,9999,859185228
1113,2,T1_SMS_8,83,9999,9999,9999,859986000
1113,2,T1_SMS_8,84,9999,9999,9999,860785760
1113,2,T1_SMS_8,85,9999,9999,9999,861585500
1113,2,T1_SMS_8,86,9999,9999,9999,862385232
1113,2,T1_SMS_8,87,9999,9999,9999,863186012
1113,2,T1_SMS_8,88,9999,9999,9999,863985740
1113,2,T1_SMS_8,89,9999,9999,9999,864785480
1113,2,T1_SMS_8,90,9999,9999,9999,865585212
1113,2,T1_SMS_8,91,9999,9999,9999,866385992
1113,2,T1_SMS_8,92,9999,9999,9999,867185752
1113,2,T1_SMS_8,93,9999,9999,9999,867985484
1113,2,T1_SMS_8,94,9999,9999,9999,868785220
1113,2,T1_SMS_8,95,9999,9999,9999,869585996
1113,2,T1_SMS_8,96,9999,9999,9999,870385732
1113,2,T1_SMS_8,97,9999,9999,9999,871185468
1113,2,T1_SMS_8,98,9999,9999,9999,871985200
1113,2,T1_SMS_8,99,9999,9999,9999,872785980
1113,2,T1_SMS_8,100,9999,9999,9999,873585716
1113,2,T1_SMS_8,101,9999,9999,9999,874385524
1113,2,T1_SMS_8,102,9999,9999,9999,875185256
1113,2,T1_SMS_8,103,9999,9999,9999,875986036
1113,2,T1_SMS_8,104,9999,9999,9999,876785772
1113,2,T1_SMS_8,105,9999,9999,9999,877585504
1113,2,T1_SMS_8,106,9999,9999,9999,878385236
1113,2,T1_SMS_8,107,9999,9999,9999,879186008
1113,2,T1_SMS_8,108,9999,9999,9999,879985768
1113,2,T1_SMS_8,109,9999,9999,9999,880785500
1113,2,T1_SMS_8,110,9999,9999,9999,881585236
1113,2,T1_SMS_8,111,9999,9999,9999,882386020
1113,2,T1_SMS_8,112,9999,9999,9999,883185748
1113,2,T1_SMS_8,113,9999,9999,9999,883985488
1113,2,T1_SMS_8,114,9999,9999,9999,884785224
1113,2,T1_SMS_8,115,9999,9999,9999,885586004
1113,2,T1_SMS_8,116,9999,9999,9999,886385760
1113,2,T1_SMS_8,117,9999,9999,9999,887185496
1113,2,T1_SMS_8,118,9999,9999,9999,887985228
1113,2,T1_SMS_8,119,9999,9999,9999,888786008
1114,4,T1_SMS_5,0,5,42,127,962942244
1114,4,T1_SMS_5,1,5,42,127,963441960
1114,4,T1_SMS_5,2,5,42,127,963941824
1114,4,T1_SMS_5,3,5,42,127,964441544
1114,4,T1_SMS_5,4,1,48,46,964932744
1114,4,T1_SMS_5,5,5,42,127,964942052
1114,4,T1_SMS_5,6,1,48,49,965402144
1114,4,T1_SMS_5,7,5,42,127,965442044
1114,4,T1_SMS_5,8,1,48,42,965912308
1114,4,T1_SMS_5,9,5,42,127,965941740
1114,4,T1_SMS_5,10,1,48,42,966424800
1114,4,T1_SMS_5,11,5,42,127,966442336
1114,4,T1_SMS_5,12,1,48,35,966904520
1114,4,T1_SMS_5,13,5,42,127,966942108
1114,4,T1_SMS_5,14,5,42,127,967441808
1114,4,T1_SMS_5,15,1,48,33,967442848
1114,4,T1_SMS_5,16,1,48,47,967913408
1114,4,T1_SMS_5,17,5,42,127,967941568
1114,4,T1_SMS_5,18,1,48,47,968417448
1114,4,T1_SMS_5,19,5,42,127,968442312
1114,4,T1_SMS_5,20,1,48,46,968922676
1114,4,T1_SMS_5,21,5,42,127,968941784
1114,4,T1_SMS_5,22,1,48,51,969409808
1114,4,T1_SMS_5,23,5,42,127,969441700
1114,4,T1_SMS_5,24,1,48,46,969913392
1114,4,T1_SMS_5,25,5,42,127,969942668
1114,4,T1_SMS_5,26,1,48,43,970407772
1114,4,T1_SMS_5,27,5,42,127,970442140
1114,4,T1_SMS_5,28,1,48,45,970894600
1114,4,T1_SMS_5,29,5,42,127,970941908
1114,4,T1_SMS_5,30,1,48,47,971373804
1114,4,T1_SMS_5,31,5,42,127,971441528
1114,4,T1_SMS_5,32,1,48,40,971908576
1114,4,T1_SMS_5,33,5,42,127,971942120
1114,4,T1_SMS_5,34,1,48,43,972390472
1114,4,T1_SMS_5,35,5,42,127,972441964
1114,4,T1_SMS_5,36,1,48,46,972913648
1114,4,T1_SMS_5,37,5,42,127,972941660
1114,4,T1_SMS_5,38,1,48,51,973401976
1114,4,T1_SMS_5,39,5,42,127,973442552
1114,4,T1_SMS_5,40,1,48,46,973912888
1114,4,T1_SMS_5,41,5,42,127,973942024
1114,4,T1_SMS_5,42,1,48,44,974439980
1114,4,T1_SMS_5,43,5,42,127,974441792
1114,4,T1_SMS_5,44,1,48,46,974927588
1114,4,T1_SMS_5,45,5,42,127,974941708
1114,4,T1_SMS_5,46,1,48,53,975408288
1114,4,T1_SMS_5,47,5,42,127,975442304
1114,4,T1_SMS_5,48,1,48,46,975930340
1114,4,T1_SMS_5,49,5,42,127,975941972
1114,4,T1_SMS_5,50,1,48,51,976433100
1114,4,T1_SMS_5,51,5,42,127,976441816
1114,4,T1_SMS_5,52,1,48,43,976921280
1114,4,T1_SMS_5,53,5,42,127,976941588
1114,4,T1_SMS_5,54,1,48,50,977422848
1114,4,T1_SMS_5,55,5,42,127,977442032
1114,4,T1_SMS_5,56,1,48,51,977923888
1114,4,T1_SMS_5,57,5,42,127,977941800
1114,4,T1_SMS_5,58,1,48,51,978436072
1114,4,T1_SMS_5,59,5,42,127,978441796
1114,4,T1_SMS_5,60,1,48,45,978932628
1114,4,T1_SMS_5,61,5,42,127,978942460
1114,4,T1_SMS_5,62,1,48,54,979438612
1114,4,T1_SMS_5,63,5,42,127,979442008
1114,4,T1_SMS_5,64,1,48,49,979918480
1114,4,T1_SMS_5,65,5,42,127,979941776
1114,4,T1_SMS_5,66,5,42,127,980441552
1114,4,T1_SMS_5,67,1,48,45,980447740
1114,4,T1_SMS_5,68,1,48,52,980941468
1114,4,T1_SMS_5,69,5,42,127,980943036
1114,4,T1_SMS_5,70,1,48,50,981429904
1114,4,T1_SMS_5,71,5,42,127,981441832
1114,4,T1_SMS_5,72,1,48,56,981912396
1114,4,T1_SMS_5,73,5,42,127,981941528
1114,4,T1_SMS_5,74,1,48,57,982417556
1114,4,T1_SMS_5,75,5,42,127,982442420
1114,4,T1_SMS_5,76,1,48,53,982931536
1114,4,T1_SMS_5,77,5,42,127,982942260
1114,4,T1_SMS_5,78,1,48,57,983418512
1114,4,T1_SMS_5,79,5,42,127,983441808
1114,4,T1_SMS_5,80,1,48,33,983467576
1114,4,T1_SMS_5,81,5,42,127,983941564
1114,4,T1_SMS_5,82,1,48,54,983952832
1114,4,T1_SMS_5,83,1,48,55,984421844
1114,4,T1_SMS_5,84,5,42,127,984442224
1114,4,T1_SMS_5,85,5,42,127,984941852
1114,4,T1_SMS_5,86,1,48,53,984973092
1114,4,T1_SMS_5,87,5,42,127,985441620
1114,4,T1_SMS_5,88,1,48,52,985453336
1114,4,T1_SMS_5,89,5,42,127,985942436
1114,4,T1_SMS_5,90,1,48,46,985961860
1114,4,T1_SMS_5,91,5,42,127,986442032
1114,4,T1_SMS_5,92,1,48,47,986443968
1114,4,T1_SMS_5,93,1,48,48,986915652
1114,4,T1_SMS_5,94,5,42,127,986941792
1114,4,T1_SMS_5,95,1,48,49,987431656
1114,4,T1_SMS_5,96,5,42,127,987441488
1114,4,T1_SMS_5,97,1,48,55,987906220
1114,4,T1_SMS_5,98,5,42,127,987942380
1114,4,T1_SMS_5,99,1,48,52,988423640
1114,4,T1_SMS_5,100,5,42,127,988442000
1114,4,T1_SMS_5,101,1,48,54,988919372
1114,4,T1_SMS_5,102,5,42,127,988941696
1114,4,T1_SMS_5,103,5,42,127,989442296
1114,4,T1_SMS_5,104,1,48,48,989445340
1114,4,T1_SMS_5,105,5,42,127,989942216
1114,4,T1_SMS_5,106,1,48,51,989953412
1114,4,T1_SMS_5,107,1,48,56,990432672
1114,4,T1_SMS_5,108,5,42,127,990441904
1114,4,T1_SMS_5,109,1,48,56,990922264
1114,4,T1_SMS_5,110,5,42,127,990941524
1114,4,T1_SMS_5,111,1,48,54,991427724
1114,4,T1_SMS_5,112,5,42,127,991442264
1114,4,T1_SMS_5,113,5,42,127,991942116
1114,4,T1_SMS_5,114,1,48,56,991952488
1114,4,T1_SMS_5,115,1,48,54,992413120
1114,4,T1_SMS_5,116,5,42,127,992441656
1114,4,T1_SMS_5,117,1,48,53,992917008
1114,4,T1_SMS_5,118,5,42,127,992941424
1114,4,T1_SMS_5,119,1,48,55,993420812
1114,4,T1_SMS_5,120,5,42,127,993442240
1114,4,T1_SMS_5,121,1,48,55,993936964
1114,4,T1_SMS_5,122,5,42,127,993941784
1114,4,T1_SMS_5,123,1,48,54,994412800
1114,4,T1_SMS_5,124,5,42,127,994441480
1114,4,T1_SMS_5,125,1,48,55,994923484
1114,4,T1_SMS_5,126,5,42,127,994942220
1114,4,T1_SMS_5,127,1,48,52,995435372
1114,4,T1_SMS_5,128,5,42,127,995442064
1114,4,T1_SMS_5,129,1,48,54,995926468
1114,4,T1_SMS_5,130,5,42,127,995941760
1114,4,T1_SMS_5,131,1,48,46,996426808
1114,4,T1_SMS_5,132,5,42,127,996441304
1114,4,T1_SMS_5,133,5,42,127,996942400
1114,4,T1_SMS_5,134,1,48,48,996946344
1114,4,T1_SMS_5,135,5,42,127,997441920
1114,4,T1_SMS_5,136,1,48,52,997458752
1114,4,T1_SMS_5,137,1,48,52,997936192
1114,4,T1_SMS_5,138,5,42,127,997941536
1114,4,T1_SMS_5,139,5,42,127,998442360
1114,4,T1_SMS_5,140,1,48,49,998464552
1114,4,T1_SMS_5,141,5,42,127,998942276
1114,4,T1_SMS_5,142,1,48,53,998950556
1114,4,T1_SMS_5,143,5,42,127,999441972
1114,4,T1_SMS_5,144,1,48,47,999459980
1114,4,T1_SMS_5,145,1,48,51,999934072
1114,4,T1_SMS_5,146,5,42,127,999941584
1114,4,T1_SMS_5,147,1,48,51,1000402872
1114,4,T1_SMS_5,148,5,42,127,1000442400
1114,4,T1_SMS_5,149,1,48,53,1000912592
1114,4,T1_SMS_5,150,5,42,127,1000941872
1114,4,T1_SMS_5,151,1,48,51,1001408172
1114,4,T1_SMS_5,152,5,42,127,1001441568
1114,4,T1_SMS_5,153,1,48,51,1001929560
1114,4,T1_SMS_5,154,5,42,127,1001942312
1114,4,T1_SMS_5,155,1,48,49,1002427984
1114,4,T1_SMS_5,156,5,42,127,1002442304
1114,4,T1_SMS_5,157,1,48,50,1002912124
1114,4,T1_SMS_5,158,5,42,127,1002941776
1114,4,T1_SMS_5,159,1,48,50,1003418848
1114,4,T1_SMS_5,160,5,42,127,1003441544
1114,4,T1_SMS_5,161,1,48,49,1003906576
1114,4,T1_SMS_5,162,5,42,127,1003942288
1114,4,T1_SMS_5,163,1,48,53,1004388844
1114,4,T1_SMS_5,164,5,42,127,1004442204
1114,4,T1_SMS_5,165,1,48,49,1004887268
1114,4,T1_SMS_5,166,5,42,127,1004941604
1114,4,T1_SMS_5,167,1,48,44,1005414784
1114,4,T1_SMS_5,168,5,42,127,1005442420
1114,4,T1_SMS_5,169,1,48,51,1005935796
1114,4,T1_SMS_5,170,5,42,127,1005942336
1114,4,T1_SMS_5,171,1,48,50,1006414224
1114,4,T1_SMS_5,172,5,42,127,1006442032
1114,4,T1_SMS_5,173,1,48,52,1006934288
1114,4,T1_SMS_5,174,5,42,127,1006941504
1114,4,T1_SMS_5,175,1,48,47,1007432460
1114,4,T1_SMS_5,176,5,42,127,1007442244
1114,4,T1_SMS_5,177,5,42,127,1007942220
1114,4,T1_SMS_5,178,1,48,49,1007959132
1114,4,T1_SMS_5,179,1,48,50,1008411056
1114,4,T1_SMS_5,180,5,42,127,1008441760
1114,4,T1_SMS_5,181,1,48,51,1008886516
1114,4,T1_SMS_5,182,5,42,127,1008941304
1114,4,T1_SMS_5,183,1,48,52,1009430416
1114,4,T1_SMS_5,184,5,42,127,1009442120
1114,4,T1_SMS_5,185,1,48,52,1009928320
1114,4,T1_SMS_5,186,5,42,127,1009942040
1114,4,T1_SMS_5,187,1,48,53,1010418216
1114,4,T1_SMS_5,188,5,42,127,1010441512
1114,4,T1_SMS_5,189,1,48,52,1010925088
1114,4,T1_SMS_5,190,5,42,127,1010942328
1114,4,T1_SMS_5,191,1,48,49,1011414240
1114,4,T1_SMS_5,192,5,42,127,1011442172
1114,4,T1_SMS_5,193,1,48,48,1011937352
1114,4,T1_SMS_5,194,5,42,127,1011941720
1114,4,T1_SMS_5,195,5,42,127,1012441496
1114,4,T1_SMS_5,196,1,48,44,1012457856
1114,4,T1_SMS_5,197,5,42,127,1012942164
1114,4,T1_SMS_5,198,1,48,48,1012944680
1114,4,T1_SMS_5,199,5,42,127,1013442004
1114,4,T1_SMS_5,200,1,48,51,1013454176
1114,4,T1_SMS_5,201,5,42,127,1013941552
1114,4,T1_SMS_5,202,1,48,51,1013946768
1114,4,T1_SMS_5,203,5,42,127,1014442296
1114,4,T1_SMS_5,204,1,48,46,1014469800
1114,4,T1_SMS_5,205,1,48,50,1014938356
1114,4,T1_SMS_5,206,5,42,127,1014942204
1114,4,T1_SMS_5,207,5,42,127,1015441908
1114,4,T1_SMS_5,208,1,48,52,1015455048
1114,4,T1_SMS_5,209,5,42,127,1015941600
1114,4,T1_SMS_5,210,1,48,50,1015946520
1114,4,T1_SMS_5,211,5,42,127,1016442196
1114,4,T1_SMS_5,212,1,48,47,1016462288
1114,4,T1_SMS_5,213,5,42,127,1016941964
1114,4,T1_SMS_5,214,1,48,48,1016942856
1114,4,T1_SMS_5,215,1,48,49,1017439072
1114,4,T1_SMS_5,216,5,42,127,1017441728
1114,4,T1_SMS_5,217,5,42,127,1017942400
1114,4,T1_SMS_5,218,1,48,48,1017957112
1114,4,T1_SMS_5,219,1,48,50,1018413084
1114,4,T1_SMS_5,220,5,42,127,1018442140
1114,4,T1_SMS_5,221,1,48,52,1018933048
1114,4,T1_SMS_5,222,5,42,127,1018941836
1114,4,T1_SMS_5,223,5,42,127,1019441464
1114,4,T1_SMS_5,224,1,48,48,1019455052
1114,4,T1_SMS_5,225,5,42,127,1019942204
1114,4,T1_SMS_5,226,1,48,55,1019951752
1114,4,T1_SMS_5,227,5,42,127,1020441900
1114,4,T1_SMS_5,228,1,48,52,1020452948
1114,4,T1_SMS_5,229,5,42,127,1020941816
1114,4,T1_SMS_5,230,1,48,47,1020950996
1114,4,T1_SMS_5,231,1,48,46,1021416488
1114,4,T1_SMS_5,232,5,42,127,1021442400
1114,4,T1_SMS_5,233,1,48,47,1021928148
1114,4,T1_SMS_5,234,5,42,127,1021942020
1114,4,T1_SMS_5,235,5,42,127,1022441948
1114,4,T1_SMS_5,236,1,48,51,1022456656
1114,4,T1_SMS_5,237,1,48,51,1022938832
1114,4,T1_SMS_5,238,5,42,127,1022941484
1114,4,T1_SMS_5,239,5,42,127,1023442380
1114,4,T1_SMS_5,240,1,48,48,1023452904
1114,4,T1_SMS_5,241,5,42,127,1023941928
1114,4,T1_SMS_5,242,1,48,46,1023980424
1114,4,T1_SMS_5,243,1,48,50,1024441244
1114,4,T1_SMS_5,244,5,42,127,1024442884
1114,4,T1_SMS_5,245,5,42,127,1024941392
1114,4,T1_SMS_5,246,1,48,42,1024958272
1114,4,T1_SMS_5,247,5,42,127,1025442352
1114,4,T1_SMS_5,248,1,48,50,1025443764
1114,4,T1_SMS_5,249,1,48,49,1025930040
1114,4,T1_SMS_5,250,5,42,127,1025941892
1114,4,T1_SMS_5,251,1,48,50,1026440388
1114,4,T1_SMS_5,252,5,42,127,1026442036
1114,4,T1_SMS_5,253,1,48,46,1026938780
1114,4,T1_SMS_5,254,5,42,127,1026942332
1114,4,T1_SMS_5,255,5,42,127,1027441960
1114,4,T1_SMS_5,256,1,48,45,1027475368
1114,4,T1_SMS_5,0,9999,9999,9999,962939956
1114,4,T1_SMS_5,1,9999,9999,9999,963439676
1114,4,T1_SMS_5,2,9999,9999,9999,963939392
1114,4,T1_SMS_5,3,9999,9999,9999,964439108
1114,4,T1_SMS_5,4,9999,9999,9999,964939840
1114,4,T1_SMS_5,5,9999,9999,9999,965439608
1114,4,T1_SMS_5,6,9999,9999,9999,965939304
1114,4,T1_SMS_5,7,9999,9999,9999,966440048
1114,4,T1_SMS_5,8,9999,9999,9999,966939744
1114,4,T1_SMS_5,9,9999,9999,9999,967439448
1114,4,T1_SMS_5,10,9999,9999,9999,967939136
1114,4,T1_SMS_5,11,9999,9999,9999,968439876
1114,4,T1_SMS_5,12,9999,9999,9999,968939572
1114,4,T1_SMS_5,13,9999,9999,9999,969439340
1114,4,T1_SMS_5,14,9999,9999,9999,969940084
1114,4,T1_SMS_5,15,9999,9999,9999,970439780
1114,4,T1_SMS_5,16,9999,9999,9999,970939472
1114,4,T1_SMS_5,17,9999,9999,9999,971439168
1114,4,T1_SMS_5,18,9999,9999,9999,971939908
1114,4,T1_SMS_5,19,9999,9999,9999,972439604
1114,4,T1_SMS_5,20,9999,9999,9999,972939376
1114,4,T1_SMS_5,21,9999,9999,9999,973440116
1114,4,T1_SMS_5,22,9999,9999,9999,973939812
1114,4,T1_SMS_5,23,9999,9999,9999,974439532
1114,4,T1_SMS_5,24,9999,9999,9999,974939200
1114,4,T1_SMS_5,25,9999,9999,9999,975439992
1114,4,T1_SMS_5,26,9999,9999,9999,975939684
1114,4,T1_SMS_5,27,9999,9999,9999,976439380
1114,4,T1_SMS_5,28,9999,9999,9999,976939076
1114,4,T1_SMS_5,29,9999,9999,9999,977439820
1114,4,T1_SMS_5,30,9999,9999,9999,977939516
1114,4,T1_SMS_5,31,9999,9999,9999,978439284
1114,4,T1_SMS_5,32,9999,9999,9999,978939952
1114,4,T1_SMS_5,33,9999,9999,9999,979439724
1114,4,T1_SMS_5,34,9999,9999,9999,979939416
1114,4,T1_SMS_5,35,9999,9999,9999,980439116
1114,4,T1_SMS_5,36,9999,9999,9999,980939860
1114,4,T1_SMS_5,37,9999,9999,9999,981439548
1114,4,T1_SMS_5,38,9999,9999,9999,981939316
1114,4,T1_SMS_5,39,9999,9999,9999,982439984
1114,4,T1_SMS_5,40,9999,9999,9999,982939752
1114,4,T1_SMS_5,41,9999,9999,9999,983439448
1114,4,T1_SMS_5,42,9999,9999,9999,983939128
1114,4,T1_SMS_5,43,9999,9999,9999,984439860
1114,4,T1_SMS_5,44,9999,9999,9999,984939640
1114,4,T1_SMS_5,45,9999,9999,9999,985439332
1114,4,T1_SMS_5,46,9999,9999,9999,985940076
1114,4,T1_SMS_5,47,9999,9999,9999,986439744
1114,4,T1_SMS_5,48,9999,9999,9999,986939508
1114,4,T1_SMS_5,49,9999,9999,9999,987439204
1114,4,T1_SMS_5,50,9999,9999,9999,987939944
1114,4,T1_SMS_5,51,9999,9999,9999,988439640
1114,4,T1_SMS_5,52,9999,9999,9999,988939336
1114,4,T1_SMS_5,53,9999,9999,9999,989440084
1114,4,T1_SMS_5,54,9999,9999,9999,989939780
1114,4,T1_SMS_5,55,9999,9999,9999,990439544
1114,4,T1_SMS_5,56,9999,9999,9999,990939236
1114,4,T1_SMS_5,57,9999,9999,9999,991439980
1114,4,T1_SMS_5,58,9999,9999,9999,991939680
1114,4,T1_SMS_5,59,9999,9999,9999,992439368
1114,4,T1_SMS_5,60,9999,9999,9999,992939064
1114,4,T1_SMS_5,61,9999,9999,9999,993439804
1114,4,T1_SMS_5,62,9999,9999,9999,993939572
1114,4,T1_SMS_5,63,9999,9999,9999,994439268
1114,4,T1_SMS_5,64,9999,9999,9999,994940008
1114,4,T1_SMS_5,65,9999,9999,9999,995439704
1114,4,T1_SMS_5,66,9999,9999,9999,995939400
1114,4,T1_SMS_5,67,9999,9999,9999,996439092
1114,4,T1_SMS_5,68,9999,9999,9999,996939892
1114,4,T1_SMS_5,69,9999,9999,9999,997439560
1114,4,T1_SMS_5,70,9999,9999,9999,997939248
1114,4,T1_SMS_5,71,9999,9999,9999,998439996
1114,4,T1_SMS_5,72,9999,9999,9999,998939764
1114,4,T1_SMS_5,73,9999,9999,9999,999439460
1114,4,T1_SMS_5,74,9999,9999,9999,999939152
1114,4,T1_SMS_5,75,9999,9999,9999,1000439892
1114,4,T1_SMS_5,76,9999,9999,9999,1000939588
1114,4,T1_SMS_5,77,9999,9999,9999,1001439280
1114,4,T1_SMS_5,78,9999,9999,9999,1001940024
1114,4,T1_SMS_5,79,9999,9999,9999,1002439792
1114,4,T1_SMS_5,80,9999,9999,9999,1002939488
1114,4,T1_SMS_5,81,9999,9999,9999,1003439184
1114,4,T1_SMS_5,82,9999,9999,9999,1003939928
1114,4,T1_SMS_5,83,9999,9999,9999,1004439620
1114,4,T1_SMS_5,84,9999,9999,9999,1004939316
1114,4,T1_SMS_5,85,9999,9999,9999,1005440060
1114,4,T1_SMS_5,86,9999,9999,9999,1005939828
1114,4,T1_SMS_5,87,9999,9999,9999,1006439524
1114,4,T1_SMS_5,88,9999,9999,9999,1006939216
1114,4,T1_SMS_5,89,9999,9999,9999,1007439960
1114,4,T1_SMS_5,90,9999,9999,9999,1007939632
1114,4,T1_SMS_5,91,9999,9999,9999,1008439396
1114,4,T1_SMS_5,92,9999,9999,9999,1008939096
1114,4,T1_SMS_5,93,9999,9999,9999,1009439836
1114,4,T1_SMS_5,94,9999,9999,9999,1009939528
1114,4,T1_SMS_5,95,9999,9999,9999,1010439228
1114,4,T1_SMS_5,96,9999,9999,9999,1010939968
1114,4,T1_SMS_5,97,9999,9999,9999,1011439664
1114,4,T1_SMS_5,98,9999,9999,9999,1011939432
1114,4,T1_SMS_5,99,9999,9999,9999,1012439136
1114,4,T1_SMS_5,100,9999,9999,9999,1012939876
1114,4,T1_SMS_5,101,9999,9999,9999,1013439572
1114,4,T1_SMS_5,102,9999,9999,9999,1013939264
1114,4,T1_SMS_5,103,9999,9999,9999,1014440008
1114,4,T1_SMS_5,104,9999,9999,9999,1014939768
1114,4,T1_SMS_5,105,9999,9999,9999,1015439472
1114,4,T1_SMS_5,106,9999,9999,9999,1015939164
1114,4,T1_SMS_5,107,9999,9999,9999,1016439908
1114,4,T1_SMS_5,108,9999,9999,9999,1016939604
1114,4,T1_SMS_5,109,9999,9999,9999,1017439292
1114,4,T1_SMS_5,110,9999,9999,9999,1017940040
1114,4,T1_SMS_5,111,9999,9999,9999,1018439776
1114,4,T1_SMS_5,112,9999,9999,9999,1018939472
1114,4,T1_SMS_5,113,9999,9999,9999,1019439176
1114,4,T1_SMS_5,114,9999,9999,9999,1019939916
1114,4,T1_SMS_5,115,9999,9999,9999,1020439612
1114,4,T1_SMS_5,116,9999,9999,9999,1020939380
1114,4,T1_SMS_5,117,9999,9999,9999,1021440116
1114,4,T1_SMS_5,118,9999,9999,9999,1021939808
1114,4,T1_SMS_5,119,9999,9999,9999,1022439512
1114,4,T1_SMS_5,120,9999,9999,9999,1022939200
1114,4,T1_SMS_5,121,9999,9999,9999,1023439948
1114,4,T1_SMS_5,122,9999,9999,9999,1023939640
1114,4,T1_SMS_5,123,9999,9999,9999,1024439408
1114,4,T1_SMS_5,124,9999,9999,9999,1024939104
1114,4,T1_SMS_5,125,9999,9999,9999,1025439844
1114,4,T1_SMS_5,126,9999,9999,9999,1025939532
1114,4,T1_SMS_5,127,9999,9999,9999,1026439236
1114,4,T1_SMS_5,128,9999,9999,9999,1026939968
1114,4,T1_SMS_5,129,9999,9999,9999,1027439672
1115,20,Ticks_Linear_8,0,5,42,127,1038778740
1115,20,Ticks_Linear_8,1,5,42,127,1039598932
1115,20,Ticks_Linear_8,2,5,42,127,1040419120
1115,20,Ticks_Linear_8,3,5,42,127,1041239556
1115,20,Ticks_Linear_8,4,1,48,48,1042059072
1115,20,Ticks_Linear_8,5,5,42,127,1042060260
1115,20,Ticks_Linear_8,6,5,42,127,1042868904
1115,20,Ticks_Linear_8,7,1,48,53,1042877948
1115,20,Ticks_Linear_8,8,5,42,127,1043678740
1115,20,Ticks_Linear_8,9,1,48,48,1043682228
1115,20,Ticks_Linear_8,10,5,42,127,1044488724
1115,20,Ticks_Linear_8,11,1,48,49,1044516100
1115,20,Ticks_Linear_8,12,5,42,127,1045298704
1115,20,Ticks_Linear_8,13,1,48,42,1045318304
1115,20,Ticks_Linear_8,14,1,48,46,1046102668
1115,20,Ticks_Linear_8,15,5,42,127,1046108632
1115,20,Ticks_Linear_8,16,5,42,127,1046909408
1115,20,Ticks_Linear_8,17,1,48,45,1046920092
1115,20,Ticks_Linear_8,18,5,42,127,1047708984
1115,20,Ticks_Linear_8,19,1,48,48,1047769840
1115,20,Ticks_Linear_8,20,1,48,43,1048492780
1115,20,Ticks_Linear_8,21,5,42,127,1048508848
1115,20,Ticks_Linear_8,22,1,48,46,1049304928
1115,20,Ticks_Linear_8,23,5,42,127,1049308648
1115,20,Ticks_Linear_8,24,1,48,37,1050088040
1115,20,Ticks_Linear_8,25,5,42,127,1050109420
1115,20,Ticks_Linear_8,26,5,42,127,1050898892
1115,20,Ticks_Linear_8,27,1,48,46,1050915036
1115,20,Ticks_Linear_8,28,1,48,40,1051658876
1115,20,Ticks_Linear_8,29,5,42,127,1051689468
1115,20,Ticks_Linear_8,30,1,48,38,1052475520
1115,20,Ticks_Linear_8,31,5,42,127,1052478788
1115,20,Ticks_Linear_8,32,1,48,44,1053243116
1115,20,Ticks_Linear_8,33,5,42,127,1053269620
1115,20,Ticks_Linear_8,34,1,48,43,1054056496
1115,20,Ticks_Linear_8,35,5,42,127,1054058864
1115,20,Ticks_Linear_8,36,5,42,127,1054839496
1115,20,Ticks_Linear_8,37,1,48,53,1054861340
1115,20,Ticks_Linear_8,38,1,48,50,1055573644
1115,20,Ticks_Linear_8,39,5,42,127,1055618324
1115,20,Ticks_Linear_8,40,1,48,41,1056393364
1115,20,Ticks_Linear_8,41,5,42,127,1056398648
1115,20,Ticks_Linear_8,42,5,42,127,1057178908
1115,20,Ticks_Linear_8,43,1,48,39,1057182924
1115,20,Ticks_Linear_8,44,5,42,127,1057959384
1115,20,Ticks_Linear_8,45,1,48,41,1057973736
1115,20,Ticks_Linear_8,46,5,42,127,1058729528
1115,20,Ticks_Linear_8,47,1,48,47,1058746044
1115,20,Ticks_Linear_8,48,5,42,127,1059499448
1115,20,Ticks_Linear_8,49,1,48,44,1059557164
1115,20,Ticks_Linear_8,50,5,42,127,1060269292
1115,20,Ticks_Linear_8,51,1,48,41,1060280500
1115,20,Ticks_Linear_8,52,5,42,127,1061048572
1115,20,Ticks_Linear_8,53,1,48,33,1061055200
1115,20,Ticks_Linear_8,54,5,42,127,1061818860
1115,20,Ticks_Linear_8,55,1,48,46,1061845712
1115,20,Ticks_Linear_8,56,5,42,127,1062578448
1115,20,Ticks_Linear_8,57,1,48,44,1062582012
1115,20,Ticks_Linear_8,58,5,42,127,1063339304
1115,20,Ticks_Linear_8,59,1,48,51,1063355672
1115,20,Ticks_Linear_8,60,1,48,46,1064091124
1115,20,Ticks_Linear_8,61,5,42,127,1064099404
1115,20,Ticks_Linear_8,62,5,42,127,1064858920
1115,20,Ticks_Linear_8,63,1,48,37,1064887804
1115,20,Ticks_Linear_8,64,5,42,127,1065618732
1115,20,Ticks_Linear_8,65,1,48,42,1065623416
1115,20,Ticks_Linear_8,66,5,42,127,1066369400
1115,20,Ticks_Linear_8,67,1,48,51,1066422988
1115,20,Ticks_Linear_8,68,1,48,43,1067090296
1115,20,Ticks_Linear_8,69,5,42,127,1067118940
1115,20,Ticks_Linear_8,70,1,48,46,1067866376
1115,20,Ticks_Linear_8,71,5,42,127,1067868492
1115,20,Ticks_Linear_8,72,5,42,127,1068619292
1115,20,Ticks_Linear_8,73,1,48,40,1068648352
1115,20,Ticks_Linear_8,74,1,48,47,1069324828
1115,20,Ticks_Linear_8,75,5,42,127,1069368688
1115,20,Ticks_Linear_8,76,5,42,127,1070109328
1115,20,Ticks_Linear_8,77,1,48,38,1070116040
1115,20,Ticks_Linear_8,78,5,42,127,1070849444
1115,20,Ticks_Linear_8,79,1,48,36,1070876984
1115,20,Ticks_Linear_8,80,5,42,127,1071588660
1115,20,Ticks_Linear_8,81,1,48,37,1071630268
1115,20,Ticks_Linear_8,82,1,48,41,1072308656
1115,20,Ticks_Linear_8,83,5,42,127,1072329064
1115,20,Ticks_Linear_8,84,1,48,46,1073026384
1115,20,Ticks_Linear_8,85,5,42,127,1073069404
1115,20,Ticks_Linear_8,86,1,48,39,1073748072
1115,20,Ticks_Linear_8,87,5,42,127,1073808840
1115,20,Ticks_Linear_8,88,5,42,127,1074539076
1115,20,Ticks_Linear_8,89,1,48,27,1074573424
1115,20,Ticks_Linear_8,90,5,42,127,1075269204
1115,20,Ticks_Linear_8,91,1,48,38,1075300956
1115,20,Ticks_Linear_8,92,5,42,127,1075999280
1115,20,Ticks_Linear_8,93,1,48,41,1076000320
1115,20,Ticks_Linear_8,94,1,48,43,1076729432
1115,20,Ticks_Linear_8,95,5,42,127,1076730696
1115,20,Ticks_Linear_8,96,5,42,127,1077449256
1115,20,Ticks_Linear_8,97,1,48,36,1077500084
1115,20,Ticks_Linear_8,98,5,42,127,1078169148
1115,20,Ticks_Linear_8,99,1,48,34,1078196544
1115,20,Ticks_Linear_8,100,5,42,127,1078889044
1115,20,Ticks_Linear_8,101,1,48,39,1078904892
1115,20,Ticks_Linear_8,102,5,42,127,1079608616
1115,20,Ticks_Linear_8,103,1,48,46,1079632796
1115,20,Ticks_Linear_8,104,1,48,44,1080276624
1115,20,Ticks_Linear_8,105,5,42,127,1080328428
1115,20,Ticks_Linear_8,106,1,48,40,1081026472
1115,20,Ticks_Linear_8,107,5,42,127,1081039184
1115,20,Ticks_Linear_8,108,5,42,127,1081749120
1115,20,Ticks_Linear_8,109,1,48,31,1081776736
1115,20,Ticks_Linear_8,110,5,42,127,1082458608
1115,20,Ticks_Linear_8,111,1,48,41,1082461280
1115,20,Ticks_Linear_8,112,5,42,127,1083169116
1115,20,Ticks_Linear_8,113,1,48,43,1083188416
1115,20,Ticks_Linear_8,114,5,42,127,1083878972
1115,20,Ticks_Linear_8,115,1,48,42,1083886352
1115,20,Ticks_Linear_8,116,1,48,45,1084577052
1115,20,Ticks_Linear_8,117,5,42,127,1084579164
1115,20,Ticks_Linear_8,118,5,42,127,1085278472
1115,20,Ticks_Linear_8,119,1,48,46,1085315432
1115,20,Ticks_Linear_8,120,5,42,127,1085978944
1115,20,Ticks_Linear_8,121,1,48,43,1085991644
1115,20,Ticks_Linear_8,122,5,42,127,1086679512
1115,20,Ticks_Linear_8,123,1,48,36,1086685772
1115,20,Ticks_Linear_8,124,1,48,41,1087370456
1115,20,Ticks_Linear_8,125,5,42,127,1087378956
1115,20,Ticks_Linear_8,126,1,48,46,1088040152
1115,20,Ticks_Linear_8,127,5,42,127,1088068948
1115,20,Ticks_Linear_8,128,5,42,127,1088759264
1115,20,Ticks_Linear_8,129,1,48,40,1088789796
1115,20,Ticks_Linear_8,130,5,42,127,1089449204
1115,20,Ticks_Linear_8,131,1,48,35,1089574680
1115,20,Ticks_Linear_8,132,1,48,34,1090109716
1115,20,Ticks_Linear_8,133,5,42,127,1090138536
1115,20,Ticks_Linear_8,134,1,48,44,1090826936
1115,20,Ticks_Linear_8,135,5,42,127,1090828600
1115,20,Ticks_Linear_8,136,5,42,127,1091508884
1115,20,Ticks_Linear_8,137,1,48,40,1091534316
1115,20,Ticks_Linear_8,138,5,42,127,1092188564
1115,20,Ticks_Linear_8,139,1,48,43,1092217156
1115,20,Ticks_Linear_8,140,5,42,127,1092868596
1115,20,Ticks_Linear_8,141,1,48,35,1092903016
1115,20,Ticks_Linear_8,142,5,42,127,1093549396
1115,20,Ticks_Linear_8,143,1,48,47,1093570716
1115,20,Ticks_Linear_8,144,1,48,42,1094235236
1115,20,Ticks_Linear_8,145,5,42,127,1094238880
1115,20,Ticks_Linear_8,146,5,42,127,1094909180
1115,20,Ticks_Linear_8,147,1,48,40,1094924272
1115,20,Ticks_Linear_8,148,5,42,127,1095578976
1115,20,Ticks_Linear_8,149,1,48,44,1095609656
1115,20,Ticks_Linear_8,150,1,48,40,1096223756
1115,20,Ticks_Linear_8,151,5,42,127,1096248884
1115,20,Ticks_Linear_8,152,1,48,42,1096905752
1115,20,Ticks_Linear_8,153,5,42,127,1096919352
1115,20,Ticks_Linear_8,154,5,42,127,1097589080
1115,20,Ticks_Linear_8,155,1,48,40,1097593840
1115,20,Ticks_Linear_8,156,1,48,41,1098240156
1115,20,Ticks_Linear_8,157,5,42,127,1098248656
1115,20,Ticks_Linear_8,158,1,48,36,1098899692
1115,20,Ticks_Linear_8,159,5,42,127,1098909164
1115,20,Ticks_Linear_8,160,1,48,38,1099538532
1115,20,Ticks_Linear_8,161,5,42,127,1099568600
1115,20,Ticks_Linear_8,162,1,48,38,1100201876
1115,20,Ticks_Linear_8,163,5,42,127,1100229108
1115,20,Ticks_Linear_8,164,1,48,41,1100850904
1115,20,Ticks_Linear_8,165,5,42,127,1100888344
1115,20,Ticks_Linear_8,166,1,48,41,1101497340
1115,20,Ticks_Linear_8,167,5,42,127,1101538864
1115,20,Ticks_Linear_8,168,5,42,127,1102188820
1115,20,Ticks_Linear_8,169,1,48,32,1102248112
1115,20,Ticks_Linear_8,170,1,48,34,1102818780
1115,20,Ticks_Linear_8,171,5,42,127,1102839184
1115,20,Ticks_Linear_8,172,1,48,41,1103459064
1115,20,Ticks_Linear_8,173,5,42,127,1103489436
1115,20,Ticks_Linear_8,174,1,48,42,1104113624
1115,20,Ticks_Linear_8,175,5,42,127,1104138760
1115,20,Ticks_Linear_8,176,1,48,41,1104772636
1115,20,Ticks_Linear_8,177,5,42,127,1104778820
1115,20,Ticks_Linear_8,178,1,48,41,1105368572
1115,20,Ticks_Linear_8,179,5,42,127,1105418860
1115,20,Ticks_Linear_8,180,1,48,37,1106031924
1115,20,Ticks_Linear_8,181,5,42,127,1106058700
1115,20,Ticks_Linear_8,182,5,42,127,1106698820
1115,20,Ticks_Linear_8,183,1,48,39,1106716088
1115,20,Ticks_Linear_8,184,5,42,127,1107338736
1115,20,Ticks_Linear_8,185,1,48,43,1107396436
1115,20,Ticks_Linear_8,186,5,42,127,1107969484
1115,20,Ticks_Linear_8,187,1,48,37,1107983688
1115,20,Ticks_Linear_8,188,1,48,39,1108598992
1115,20,Ticks_Linear_8,189,5,42,127,1108600256
1115,20,Ticks_Linear_8,190,5,42,127,1109228920
1115,20,Ticks_Linear_8,191,1,48,41,1109238040
1115,20,Ticks_Linear_8,192,5,42,127,1109858800
1115,20,Ticks_Linear_8,193,1,48,38,1109887836
1115,20,Ticks_Linear_8,194,5,42,127,1110488732
1115,20,Ticks_Linear_8,195,1,48,38,1110503156
1115,20,Ticks_Linear_8,196,5,42,127,1111108852
1115,20,Ticks_Linear_8,197,1,48,40,1111143592
1115,20,Ticks_Linear_8,198,1,48,38,1111719732
1115,20,Ticks_Linear_8,199,5,42,127,1111728612
1115,20,Ticks_Linear_8,200,1,48,43,1112307356
1115,20,Ticks_Linear_8,201,5,42,127,1112349028
1115,20,Ticks_Linear_8,202,1,48,38,1112960520
1115,20,Ticks_Linear_8,203,5,42,127,1112968500
1115,20,Ticks_Linear_8,204,5,42,127,1113589148
1115,20,Ticks_Linear_8,205,1,48,36,1113603048
1115,20,Ticks_Linear_8,206,5,42,127,1114199628
1115,20,Ticks_Linear_8,207,1,48,25,1114222072
1115,20,Ticks_Linear_8,208,1,48,40,1114790348
1115,20,Ticks_Linear_8,209,5,42,127,1114808660
1115,20,Ticks_Linear_8,210,1,48,40,1115403796
1115,20,Ticks_Linear_8,211,5,42,127,1115418968
1115,20,Ticks_Linear_8,212,1,48,40,1115993536
1115,20,Ticks_Linear_8,213,5,42,127,1116029600
1115,20,Ticks_Linear_8,214,1,48,41,1116634772
1115,20,Ticks_Linear_8,215,5,42,127,1116638564
1115,20,Ticks_Linear_8,216,1,48,41,1117212508
1115,20,Ticks_Linear_8,217,5,42,127,1117238540
1115,20,Ticks_Linear_8,218,1,48,41,1117824488
1115,20,Ticks_Linear_8,219,5,42,127,1117838612
1115,20,Ticks_Linear_8,220,1,48,38,1118415324
1115,20,Ticks_Linear_8,221,5,42,127,1118438812
1115,20,Ticks_Linear_8,222,1,48,42,1118989472
1115,20,Ticks_Linear_8,223,5,42,127,1119038788
1115,20,Ticks_Linear_8,224,1,48,38,1119615744
1115,20,Ticks_Linear_8,225,5,42,127,1119638788
1115,20,Ticks_Linear_8,226,5,42,127,1120228656
1115,20,Ticks_Linear_8,227,1,48,40,1120232820
1115,20,Ticks_Linear_8,228,5,42,127,1120818672
1115,20,Ticks_Linear_8,229,1,48,35,1120830928
1115,20,Ticks_Linear_8,230,5,42,127,1121409604
1115,20,Ticks_Linear_8,231,1,48,34,1121422460
1115,20,Ticks_Linear_8,232,1,48,40,1121971188
1115,20,Ticks_Linear_8,233,5,42,127,1121999164
1115,20,Ticks_Linear_8,234,1,48,38,1122584188
1115,20,Ticks_Linear_8,235,5,42,127,1122588956
1115,20,Ticks_Linear_8,236,5,42,127,1123168740
1115,20,Ticks_Linear_8,237,1,48,41,1123172904
1115,20,Ticks_Linear_8,238,1,48,36,1123745444
1115,20,Ticks_Linear_8,239,5,42,127,1123749240
1115,20,Ticks_Linear_8,240,1,48,29,1124327948
1115,20,Ticks_Linear_8,241,5,42,127,1124329520
1115,20,Ticks_Linear_8,242,1,48,41,1124874176
1115,20,Ticks_Linear_8,243,5,42,127,1124909568
1115,20,Ticks_Linear_8,244,1,48,42,1125448472
1115,20,Ticks_Linear_8,245,5,42,127,1125499384
1115,20,Ticks_Linear_8,246,5,42,127,1126068588
1115,20,Ticks_Linear_8,247,1,48,41,1126073800
1115,20,Ticks_Linear_8,248,5,42,127,1126638908
1115,20,Ticks_Linear_8,249,1,48,48,1126682312
1115,20,Ticks_Linear_8,250,5,42,127,1127209372
1115,20,Ticks_Linear_8,251,1,48,40,1127243220
1115,20,Ticks_Linear_8,252,5,42,127,1127778668
1115,20,Ticks_Linear_8,253,1,48,45,1127821552
1115,20,Ticks_Linear_8,254,1,48,46,1128349436
1115,20,Ticks_Linear_8,255,5,42,127,1128350696
1115,20,Ticks_Linear_8,256,5,42,127,1128909344
1115,20,Ticks_Linear_8,257,1,48,38,1128937784
1115,20,Ticks_Linear_8,258,1,48,40,1129458804
1115,20,Ticks_Linear_8,259,5,42,127,1129469252
1115,20,Ticks_Linear_8,260,1,48,43,1129995564
1115,20,Ticks_Linear_8,261,5,42,127,1130029308
1115,20,Ticks_Linear_8,262,5,42,127,1130598764
1115,20,Ticks_Linear_8,263,1,48,42,1130713760
1115,20,Ticks_Linear_8,264,5,42,127,1131158896
1115,20,Ticks_Linear_8,265,1,48,28,1131166892
1115,20,Ticks_Linear_8,266,1,48,36,1131675240
1115,20,Ticks_Linear_8,267,5,42,127,1131708916
1115,20,Ticks_Linear_8,268,1,48,45,1132221532
1115,20,Ticks_Linear_8,269,5,42,127,1132258568
1115,20,Ticks_Linear_8,270,1,48,46,1132779720
1115,20,Ticks_Linear_8,271,5,42,127,1132808516
1115,20,Ticks_Linear_8,272,1,48,47,1133350708
1115,20,Ticks_Linear_8,273,5,42,127,1133358392
1115,20,Ticks_Linear_8,274,5,42,127,1133909344
1115,20,Ticks_Linear_8,275,1,48,40,1133925336
1115,20,Ticks_Linear_8,276,5,42,127,1134448888
1115,20,Ticks_Linear_8,277,1,48,40,1134465256
1115,20,Ticks_Linear_8,278,5,42,127,1134988724
1115,20,Ticks_Linear_8,279,1,48,47,1134993416
1115,20,Ticks_Linear_8,280,5,42,127,1135529312
1115,20,Ticks_Linear_8,281,1,48,46,1135557828
1115,20,Ticks_Linear_8,282,5,42,127,1136068928
1115,20,Ticks_Linear_8,283,1,48,41,1136072048
1115,20,Ticks_Linear_8,284,1,48,42,1136594408
1115,20,Ticks_Linear_8,285,5,42,127,1136608536
1115,20,Ticks_Linear_8,286,1,48,38,1137133952
1115,20,Ticks_Linear_8,287,5,42,127,1137139164
1115,20,Ticks_Linear_8,288,1,48,38,1137648336
1115,20,Ticks_Linear_8,289,5,42,127,1137668596
1115,20,Ticks_Linear_8,290,1,48,44,1138193636
1115,20,Ticks_Linear_8,291,5,42,127,1138198996
1115,20,Ticks_Linear_8,292,1,48,42,1138722992
1115,20,Ticks_Linear_8,293,5,42,127,1138729324
1115,20,Ticks_Linear_8,294,5,42,127,1139258764
1115,20,Ticks_Linear_8,295,1,48,39,1139275232
1115,20,Ticks_Linear_8,296,1,48,41,1139750624
1115,20,Ticks_Linear_8,297,5,42,127,1139779124
1115,20,Ticks_Linear_8,298,1,48,46,1140262384
1115,20,Ticks_Linear_8,299,5,42,127,1140299296
1115,20,Ticks_Linear_8,300,1,48,40,1140803720
1115,20,Ticks_Linear_8,301,5,42,127,1140819288
1115,20,Ticks_Linear_8,302,5,42,127,1141338468
1115,20,Ticks_Linear_8,303,1,48,37,1141347956
1115,20,Ticks_Linear_8,304,5,42,127,1141858616
1115,20,Ticks_Linear_8,305,1,48,40,1141867352
1115,20,Ticks_Linear_8,306,5,42,127,1142368572
1115,20,Ticks_Linear_8,307,1,48,42,1142380228
1115,20,Ticks_Linear_8,308,1,48,40,1142859388
1115,20,Ticks_Linear_8,309,5,42,127,1142878600
1115,20,Ticks_Linear_8,310,1,48,44,1143355012
1115,20,Ticks_Linear_8,311,5,42,127,1143388484
1115,20,Ticks_Linear_8,312,1,48,42,1143890092
1115,20,Ticks_Linear_8,313,5,42,127,1143898592
1115,20,Ticks_Linear_8,314,5,42,127,1144408488
1115,20,Ticks_Linear_8,315,1,48,35,1144425376
1115,20,Ticks_Linear_8,316,5,42,127,1144909160
1115,20,Ticks_Linear_8,317,1,48,40,1144944624
1115,20,Ticks_Linear_8,318,5,42,127,1145408832
1115,20,Ticks_Linear_8,319,1,48,44,1145419168
1115,20,Ticks_Linear_8,320,1,48,33,1145903908
1115,20,Ticks_Linear_8,321,5,42,127,1145908600
1115,20,Ticks_Linear_8,322,1,48,40,1146402636
1115,20,Ticks_Linear_8,323,5,42,127,1146409272
1115,20,Ticks_Linear_8,324,1,48,40,1146897632
1115,20,Ticks_Linear_8,325,5,42,127,1146909048
1115,20,Ticks_Linear_8,326,5,42,127,1147398496
1115,20,Ticks_Linear_8,327,1,48,32,1147422956
1115,20,Ticks_Linear_8,328,1,48,35,1147888384
1115,20,Ticks_Linear_8,329,5,42,127,1147889948
1115,20,Ticks_Linear_8,330,1,48,40,1148336136
1115,20,Ticks_Linear_8,331,5,42,127,1148378496
1115,20,Ticks_Linear_8,332,1,48,39,1148853736
1115,20,Ticks_Linear_8,333,5,42,127,1148868984
1115,20,Ticks_Linear_8,334,1,48,40,1149343696
1115,20,Ticks_Linear_8,335,5,42,127,1149358348
1115,20,Ticks_Linear_8,0,9999,9999,9999,1038776444
1115,20,Ticks_Linear_8,1,9999,9999,9999,1039596632
1115,20,Ticks_Linear_8,2,9999,9999,9999,1040416896
1115,20,Ticks_Linear_8,3,9999,9999,9999,1041237108
1115,20,Ticks_Linear_8,4,9999,9999,9999,1042056252
1115,20,Ticks_Linear_8,5,9999,9999,9999,1042866236
1115,20,Ticks_Linear_8,6,9999,9999,9999,1043676220
1115,20,Ticks_Linear_8,7,9999,9999,9999,1044486200
1115,20,Ticks_Linear_8,8,9999,9999,9999,1045296256
1115,20,Ticks_Linear_8,9,9999,9999,9999,1046106184
1115,20,Ticks_Linear_8,10,9999,9999,9999,1046906960
1115,20,Ticks_Linear_8,11,9999,9999,9999,1047706684
1115,20,Ticks_Linear_8,12,9999,9999,9999,1048506476
1115,20,Ticks_Linear_8,13,9999,9999,9999,1049306200
1115,20,Ticks_Linear_8,14,9999,9999,9999,1050106972
1115,20,Ticks_Linear_8,15,9999,9999,9999,1050896444
1115,20,Ticks_Linear_8,16,9999,9999,9999,1051687024
1115,20,Ticks_Linear_8,17,9999,9999,9999,1052476488
1115,20,Ticks_Linear_8,18,9999,9999,9999,1053267024
1115,20,Ticks_Linear_8,19,9999,9999,9999,1054056564
1115,20,Ticks_Linear_8,20,9999,9999,9999,1054836824
1115,20,Ticks_Linear_8,21,9999,9999,9999,1055616100
1115,20,Ticks_Linear_8,22,9999,9999,9999,1056396352
1115,20,Ticks_Linear_8,23,9999,9999,9999,1057176684
1115,20,Ticks_Linear_8,24,9999,9999,9999,1057956936
1115,20,Ticks_Linear_8,25,9999,9999,9999,1058727004
1115,20,Ticks_Linear_8,26,9999,9999,9999,1059497072
1115,20,Ticks_Linear_8,27,9999,9999,9999,1060267064
1115,20,Ticks_Linear_8,28,9999,9999,9999,1061046344
1115,20,Ticks_Linear_8,29,9999,9999,9999,1061816412
1115,20,Ticks_Linear_8,30,9999,9999,9999,1062576224
1115,20,Ticks_Linear_8,31,9999,9999,9999,1063337080
1115,20,Ticks_Linear_8,32,9999,9999,9999,1064096880
1115,20,Ticks_Linear_8,33,9999,9999,9999,1064856696
1115,20,Ticks_Linear_8,34,9999,9999,9999,1065616504
1115,20,Ticks_Linear_8,35,9999,9999,9999,1066367100
1115,20,Ticks_Linear_8,36,9999,9999,9999,1067116644
1115,20,Ticks_Linear_8,37,9999,9999,9999,1067866236
1115,20,Ticks_Linear_8,38,9999,9999,9999,1068616772
1115,20,Ticks_Linear_8,39,9999,9999,9999,1069366388
1115,20,Ticks_Linear_8,40,9999,9999,9999,1070106732
1115,20,Ticks_Linear_8,41,9999,9999,9999,1070847068
1115,20,Ticks_Linear_8,42,9999,9999,9999,1071586360
1115,20,Ticks_Linear_8,43,9999,9999,9999,1072326764
1115,20,Ticks_Linear_8,44,9999,9999,9999,1073067104
1115,20,Ticks_Linear_8,45,9999,9999,9999,1073806392
1115,20,Ticks_Linear_8,46,9999,9999,9999,1074536552
1115,20,Ticks_Linear_8,47,9999,9999,9999,1075266680
1115,20,Ticks_Linear_8,48,9999,9999,9999,1075996760
1115,20,Ticks_Linear_8,49,9999,9999,9999,1076726912
1115,20,Ticks_Linear_8,50,9999,9999,9999,1077446732
1115,20,Ticks_Linear_8,51,9999,9999,9999,1078166628
1115,20,Ticks_Linear_8,52,9999,9999,9999,1078886520
1115,20,Ticks_Linear_8,53,9999,9999,9999,1079606388
1115,20,Ticks_Linear_8,54,9999,9999,9999,1080326200
1115,20,Ticks_Linear_8,55,9999,9999,9999,1081036884
1115,20,Ticks_Linear_8,56,9999,9999,9999,1081746524
1115,20,Ticks_Linear_8,57,9999,9999,9999,1082456160
1115,20,Ticks_Linear_8,58,9999,9999,9999,1083166816
1115,20,Ticks_Linear_8,59,9999,9999,9999,1083876448
1115,20,Ticks_Linear_8,60,9999,9999,9999,1084576828
1115,20,Ticks_Linear_8,61,9999,9999,9999,1085276248
1115,20,Ticks_Linear_8,62,9999,9999,9999,1085976644
1115,20,Ticks_Linear_8,63,9999,9999,9999,1086677064
1115,20,Ticks_Linear_8,64,9999,9999,9999,1087376508
1115,20,Ticks_Linear_8,65,9999,9999,9999,1088066648
1115,20,Ticks_Linear_8,66,9999,9999,9999,1088756816
1115,20,Ticks_Linear_8,67,9999,9999,9999,1089446980
1115,20,Ticks_Linear_8,68,9999,9999,9999,1090136164
1115,20,Ticks_Linear_8,69,9999,9999,9999,1090826312
1115,20,Ticks_Linear_8,70,9999,9999,9999,1091506288
1115,20,Ticks_Linear_8,71,9999,9999,9999,1092186192
1115,20,Ticks_Linear_8,72,9999,9999,9999,1092866148
1115,20,Ticks_Linear_8,73,9999,9999,9999,1093547096
1115,20,Ticks_Linear_8,74,9999,9999,9999,1094236280
1115,20,Ticks_Linear_8,75,9999,9999,9999,1094906956
1115,20,Ticks_Linear_8,76,9999,9999,9999,1095576676
1115,20,Ticks_Linear_8,77,9999,9999,9999,1096246364
1115,20,Ticks_Linear_8,78,9999,9999,9999,1096917056
1115,20,Ticks_Linear_8,79,9999,9999,9999,1097586780
1115,20,Ticks_Linear_8,80,9999,9999,9999,1098246208
1115,20,Ticks_Linear_8,81,9999,9999,9999,1098906716
1115,20,Ticks_Linear_8,82,9999,9999,9999,1099566152
1115,20,Ticks_Linear_8,83,9999,9999,9999,1100226660
1115,20,Ticks_Linear_8,84,9999,9999,9999,1100886120
1115,20,Ticks_Linear_8,85,9999,9999,9999,1101536344
1115,20,Ticks_Linear_8,86,9999,9999,9999,1102186596
1115,20,Ticks_Linear_8,87,9999,9999,9999,1102836812
1115,20,Ticks_Linear_8,88,9999,9999,9999,1103487060
1115,20,Ticks_Linear_8,89,9999,9999,9999,1104136312
1115,20,Ticks_Linear_8,90,9999,9999,9999,1104776300
1115,20,Ticks_Linear_8,91,9999,9999,9999,1105416264
1115,20,Ticks_Linear_8,92,9999,9999,9999,1106056256
1115,20,Ticks_Linear_8,93,9999,9999,9999,1106696300
1115,20,Ticks_Linear_8,94,9999,9999,9999,1107336288
1115,20,Ticks_Linear_8,95,9999,9999,9999,1107967040
1115,20,Ticks_Linear_8,96,9999,9999,9999,1108596844
1115,20,Ticks_Linear_8,97,9999,9999,9999,1109226620
1115,20,Ticks_Linear_8,98,9999,9999,9999,1109856352
1115,20,Ticks_Linear_8,99,9999,9999,9999,1110486132
1115,20,Ticks_Linear_8,100,9999,9999,9999,1111106624
1115,20,Ticks_Linear_8,101,9999,9999,9999,1111726164
1115,20,Ticks_Linear_8,102,9999,9999,9999,1112346732
1115,20,Ticks_Linear_8,103,9999,9999,9999,1112966204
1115,20,Ticks_Linear_8,104,9999,9999,9999,1113586776
1115,20,Ticks_Linear_8,105,9999,9999,9999,1114197108
1115,20,Ticks_Linear_8,106,9999,9999,9999,1114806364
1115,20,Ticks_Linear_8,107,9999,9999,9999,1115416672
1115,20,Ticks_Linear_8,108,9999,9999,9999,1116027004
1115,20,Ticks_Linear_8,109,9999,9999,9999,1116636264
1115,20,Ticks_Linear_8,110,9999,9999,9999,1117236316
1115,20,Ticks_Linear_8,111,9999,9999,9999,1117836388
1115,20,Ticks_Linear_8,112,9999,9999,9999,1118436440
1115,20,Ticks_Linear_8,113,9999,9999,9999,1119036488
1115,20,Ticks_Linear_8,114,9999,9999,9999,1119636560
1115,20,Ticks_Linear_8,115,9999,9999,9999,1120226432
1115,20,Ticks_Linear_8,116,9999,9999,9999,1120816220
1115,20,Ticks_Linear_8,117,9999,9999,9999,1121407080
1115,20,Ticks_Linear_8,118,9999,9999,9999,1121996868
1115,20,Ticks_Linear_8,119,9999,9999,9999,1122586732
1115,20,Ticks_Linear_8,120,9999,9999,9999,1123166292
1115,20,Ticks_Linear_8,121,9999,9999,9999,1123746940
1115,20,Ticks_Linear_8,122,9999,9999,9999,1124326476
1115,20,Ticks_Linear_8,123,9999,9999,9999,1124907124
1115,20,Ticks_Linear_8,124,9999,9999,9999,1125496936
1115,20,Ticks_Linear_8,125,9999,9999,9999,1126066288
1115,20,Ticks_Linear_8,126,9999,9999,9999,1126636608
1115,20,Ticks_Linear_8,127,9999,9999,9999,1127207000
1115,20,Ticks_Linear_8,128,9999,9999,9999,1127776368
1115,20,Ticks_Linear_8,129,9999,9999,9999,1128346688
1115,20,Ticks_Linear_8,130,9999,9999,9999,1128906824
1115,20,Ticks_Linear_8,131,9999,9999,9999,1129466952
1115,20,Ticks_Linear_8,132,9999,9999,9999,1130027084
1115,20,Ticks_Linear_8,133,9999,9999,9999,1130596464
1115,20,Ticks_Linear_8,134,9999,9999,9999,1131156596
1115,20,Ticks_Linear_8,135,9999,9999,9999,1131706468
1115,20,Ticks_Linear_8,136,9999,9999,9999,1132256344
1115,20,Ticks_Linear_8,137,9999,9999,9999,1132806220
1115,20,Ticks_Linear_8,138,9999,9999,9999,1133356092
1115,20,Ticks_Linear_8,139,9999,9999,9999,1133907044
1115,20,Ticks_Linear_8,140,9999,9999,9999,1134446664
1115,20,Ticks_Linear_8,141,9999,9999,9999,1134986352
1115,20,Ticks_Linear_8,142,9999,9999,9999,1135527016
1115,20,Ticks_Linear_8,143,9999,9999,9999,1136066628
1115,20,Ticks_Linear_8,144,9999,9999,9999,1136606312
1115,20,Ticks_Linear_8,145,9999,9999,9999,1137136716
1115,20,Ticks_Linear_8,146,9999,9999,9999,1137666148
1115,20,Ticks_Linear_8,147,9999,9999,9999,1138196548
1115,20,Ticks_Linear_8,148,9999,9999,9999,1138727028
1115,20,Ticks_Linear_8,149,9999,9999,9999,1139256392
1115,20,Ticks_Linear_8,150,9999,9999,9999,1139776600
1115,20,Ticks_Linear_8,151,9999,9999,9999,1140296772
1115,20,Ticks_Linear_8,152,9999,9999,9999,1140816992
1115,20,Ticks_Linear_8,153,9999,9999,9999,1141336168
1115,20,Ticks_Linear_8,154,9999,9999,9999,1141856312
1115,20,Ticks_Linear_8,155,9999,9999,9999,1142366276
1115,20,Ticks_Linear_8,156,9999,9999,9999,1142876228
1115,20,Ticks_Linear_8,157,9999,9999,9999,1143386188
1115,20,Ticks_Linear_8,158,9999,9999,9999,1143896144
1115,20,Ticks_Linear_8,159,9999,9999,9999,1144406112
1115,20,Ticks_Linear_8,160,9999,9999,9999,1144906860
1115,20,Ticks_Linear_8,161,9999,9999,9999,1145406536
1115,20,Ticks_Linear_8,162,9999,9999,9999,1145906304
1115,20,Ticks_Linear_8,163,9999,9999,9999,1146406976
1115,20,Ticks_Linear_8,164,9999,9999,9999,1146906748
1115,20,Ticks_Linear_8,165,9999,9999,9999,1147396196
1115,20,Ticks_Linear_8,166,9999,9999,9999,1147886684
1115,20,Ticks_Linear_8,167,9999,9999,9999,1148376120
1115,20,Ticks_Linear_8,168,9999,9999,9999,1148866684
1115,20,Ticks_Linear_8,169,9999,9999,9999,1149356124
1116,21,Ticks_Linear_5,0,5,42,127,1158715776
1116,21,Ticks_Linear_5,1,5,42,127,1159196024
1116,21,Ticks_Linear_5,2,5,42,127,1159676200
1116,21,Ticks_Linear_5,3,5,42,127,1160155480
1116,21,Ticks_Linear_5,4,5,42,127,1160635952
1116,21,Ticks_Linear_5,5,1,48,31,1160666860
1116,21,Ticks_Linear_5,6,1,48,36,1161113820
1116,21,Ticks_Linear_5,7,5,42,127,1161126212
1116,21,Ticks_Linear_5,8,1,48,38,1161571724
1116,21,Ticks_Linear_5,9,5,42,127,1161615876
1116,21,Ticks_Linear_5,10,1,48,41,1162074876
1116,21,Ticks_Linear_5,11,5,42,127,1162106140
1116,21,Ticks_Linear_5,12,5,42,127,1162595960
1116,21,Ticks_Linear_5,13,1,48,35,1162598932
1116,21,Ticks_Linear_5,14,1,48,38,1163077464
1116,21,Ticks_Linear_5,15,5,42,127,1163086144
1116,21,Ticks_Linear_5,16,1,48,38,1163547360
1116,21,Ticks_Linear_5,17,5,42,127,1163585968
1116,21,Ticks_Linear_5,18,1,48,38,1164076864
1116,21,Ticks_Linear_5,19,5,42,127,1164085888
1116,21,Ticks_Linear_5,20,1,48,35,1164578064
1116,21,Ticks_Linear_5,21,5,42,127,1164586412
1116,21,Ticks_Linear_5,22,1,48,42,1165064956
1116,21,Ticks_Linear_5,23,5,42,127,1165086036
1116,21,Ticks_Linear_5,24,1,48,38,1165557612
1116,21,Ticks_Linear_5,25,5,42,127,1165585960
1116,21,Ticks_Linear_5,26,1,48,29,1166074540
1116,21,Ticks_Linear_5,27,5,42,127,1166095992
1116,21,Ticks_Linear_5,28,1,48,44,1166566900
1116,21,Ticks_Linear_5,29,5,42,127,1166605880
1116,21,Ticks_Linear_5,30,1,48,40,1167101936
1116,21,Ticks_Linear_5,31,5,42,127,1167115616
1116,21,Ticks_Linear_5,32,1,48,39,1167611524
1116,21,Ticks_Linear_5,33,5,42,127,1167625724
1116,21,Ticks_Linear_5,34,1,48,40,1168120064
1116,21,Ticks_Linear_5,35,5,42,127,1168135684
1116,21,Ticks_Linear_5,36,1,48,34,1168627476
1116,21,Ticks_Linear_5,37,5,42,127,1168655976
1116,21,Ticks_Linear_5,38,1,48,34,1169147028
1116,21,Ticks_Linear_5,39,5,42,127,1169175896
1116,21,Ticks_Linear_5,40,1,48,38,1169657960
1116,21,Ticks_Linear_5,41,5,42,127,1169696040
1116,21,Ticks_Linear_5,42,1,48,39,1170183420
1116,21,Ticks_Linear_5,43,5,42,127,1170216256
1116,21,Ticks_Linear_5,44,1,48,35,1170689848
1116,21,Ticks_Linear_5,45,5,42,127,1170735428
1116,21,Ticks_Linear_5,46,1,48,35,1171240400
1116,21,Ticks_Linear_5,47,5,42,127,1171265980
1116,21,Ticks_Linear_5,48,1,48,35,1171764816
1116,21,Ticks_Linear_5,49,5,42,127,1171796404
1116,21,Ticks_Linear_5,50,1,48,32,1172310072
1116,21,Ticks_Linear_5,51,5,42,127,1172325764
1116,21,Ticks_Linear_5,52,1,48,27,1172809468
1116,21,Ticks_Linear_5,53,5,42,127,1172856164
1116,21,Ticks_Linear_5,54,1,48,26,1173385528
1116,21,Ticks_Linear_5,55,5,42,127,1173386792
1116,21,Ticks_Linear_5,56,5,42,127,1173926412
1116,21,Ticks_Linear_5,57,1,48,28,1173927308
1116,21,Ticks_Linear_5,58,5,42,127,1174466028
1116,21,Ticks_Linear_5,59,1,48,29,1174477760
1116,21,Ticks_Linear_5,60,5,42,127,1175005716
1116,21,Ticks_Linear_5,61,1,48,33,1175018424
1116,21,Ticks_Linear_5,62,1,48,45,1175529636
1116,21,Ticks_Linear_5,63,5,42,127,1175546224
1116,21,Ticks_Linear_5,64,5,42,127,1176085996
1116,21,Ticks_Linear_5,65,1,48,36,1176111876
1116,21,Ticks_Linear_5,66,1,48,38,1176634204
1116,21,Ticks_Linear_5,67,5,42,127,1176635712
1116,21,Ticks_Linear_5,68,5,42,127,1177185620
1116,21,Ticks_Linear_5,69,1,48,31,1177225208
1116,21,Ticks_Linear_5,70,1,48,34,1177719868
1116,21,Ticks_Linear_5,71,5,42,127,1177735708
1116,21,Ticks_Linear_5,72,1,48,35,1178262100
1116,21,Ticks_Linear_5,73,5,42,127,1178285360
1116,21,Ticks_Linear_5,74,1,48,40,1178793324
1116,21,Ticks_Linear_5,75,5,42,127,1178836356
1116,21,Ticks_Linear_5,76,1,48,29,1179376380
1116,21,Ticks_Linear_5,77,5,42,127,1179395592
1116,21,Ticks_Linear_5,78,1,48,44,1179876156
1116,21,Ticks_Linear_5,79,5,42,127,1179955576
1116,21,Ticks_Linear_5,80,5,42,127,1180515792
1116,21,Ticks_Linear_5,81,1,48,36,1180517132
1116,21,Ticks_Linear_5,82,5,42,127,1181075704
1116,21,Ticks_Linear_5,83,1,48,34,1181084664
1116,21,Ticks_Linear_5,84,1,48,39,1181628972
1116,21,Ticks_Linear_5,85,5,42,127,1181635828
1116,21,Ticks_Linear_5,86,1,48,35,1182173388
1116,21,Ticks_Linear_5,87,5,42,127,1182206520
1116,21,Ticks_Linear_5,88,1,48,32,1182752380
1116,21,Ticks_Linear_5,89,5,42,127,1182775568
1116,21,Ticks_Linear_5,90,1,48,36,1183325800
1116,21,Ticks_Linear_5,91,5,42,127,1183346060
1116,21,Ticks_Linear_5,92,1,48,33,1183911688
1116,21,Ticks_Linear_5,93,5,42,127,1183916452
1116,21,Ticks_Linear_5,94,5,42,127,1184485732
1116,21,Ticks_Linear_5,95,1,48,37,1184496564
1116,21,Ticks_Linear_5,96,5,42,127,1185066456
1116,21,Ticks_Linear_5,97,1,48,30,1185076772
1116,21,Ticks_Linear_5,98,1,48,32,1185628372
1116,21,Ticks_Linear_5,99,5,42,127,1185646004
1116,21,Ticks_Linear_5,100,1,48,36,1186169400
1116,21,Ticks_Linear_5,101,5,42,127,1186225460
1116,21,Ticks_Linear_5,102,1,48,32,1186786076
1116,21,Ticks_Linear_5,103,5,42,127,1186806036
1116,21,Ticks_Linear_5,104,5,42,127,1187385576
1116,21,Ticks_Linear_5,105,1,48,35,1187407812
1116,21,Ticks_Linear_5,106,1,48,41,1187962380
1116,21,Ticks_Linear_5,107,5,42,127,1187975532
1116,21,Ticks_Linear_5,108,5,42,127,1188566524
1116,21,Ticks_Linear_5,109,1,48,40,1188591808
1116,21,Ticks_Linear_5,110,5,42,127,1189156164
1116,21,Ticks_Linear_5,111,1,48,33,1189174568
1116,21,Ticks_Linear_5,112,1,48,41,1189735076
1116,21,Ticks_Linear_5,113,5,42,127,1189746048
1116,21,Ticks_Linear_5,114,1,48,33,1190317672
1116,21,Ticks_Linear_5,115,5,42,127,1190335836
1116,21,Ticks_Linear_5,116,1,48,35,1190917200
1116,21,Ticks_Linear_5,117,5,42,127,1190935884
1116,21,Ticks_Linear_5,118,1,48,34,1191486020
1116,21,Ticks_Linear_5,119,5,42,127,1191536108
1116,21,Ticks_Linear_5,120,5,42,127,1192136012
1116,21,Ticks_Linear_5,121,1,48,33,1192137056
1116,21,Ticks_Linear_5,122,5,42,127,1192736208
1116,21,Ticks_Linear_5,123,1,48,37,1192747420
1116,21,Ticks_Linear_5,124,1,48,39,1193320508
1116,21,Ticks_Linear_5,125,5,42,127,1193336128
1116,21,Ticks_Linear_5,126,1,48,33,1193941004
1116,21,Ticks_Linear_5,127,5,42,127,1193945684
1116,21,Ticks_Linear_5,128,5,42,127,1194555852
1116,21,Ticks_Linear_5,129,1,48,31,1194566864
1116,21,Ticks_Linear_5,130,1,48,27,1195160596
1116,21,Ticks_Linear_5,131,5,42,127,1195165952
1116,21,Ticks_Linear_5,132,1,48,37,1195749256
1116,21,Ticks_Linear_5,133,5,42,127,1195776560
1116,21,Ticks_Linear_5,134,1,48,35,1196373960
1116,21,Ticks_Linear_5,135,5,42,127,1196385620
1116,21,Ticks_Linear_5,136,1,48,34,1196995512
1116,21,Ticks_Linear_5,137,5,42,127,1197006336
1116,21,Ticks_Linear_5,138,1,48,41,1197620796
1116,21,Ticks_Linear_5,139,5,42,127,1197625708
1116,21,Ticks_Linear_5,140,1,48,42,1198236976
1116,21,Ticks_Linear_5,141,5,42,127,1198246372
1116,21,Ticks_Linear_5,142,1,48,42,1198837172
1116,21,Ticks_Linear_5,143,5,42,127,1198865668
1116,21,Ticks_Linear_5,144,1,48,34,1199480004
1116,21,Ticks_Linear_5,145,5,42,127,1199486484
1116,21,Ticks_Linear_5,146,1,48,32,1200106568
1116,21,Ticks_Linear_5,147,5,42,127,1200116116
1116,21,Ticks_Linear_5,148,1,48,36,1200731572
1116,21,Ticks_Linear_5,149,5,42,127,1200745844
1116,21,Ticks_Linear_5,150,5,42,127,1201375480
1116,21,Ticks_Linear_5,151,1,48,34,1201477380
1116,21,Ticks_Linear_5,152,1,48,35,1201952164
1116,21,Ticks_Linear_5,153,5,42,127,1202006452
1116,21,Ticks_Linear_5,154,1,48,33,1202603620
1116,21,Ticks_Linear_5,155,5,42,127,1202636156
1116,21,Ticks_Linear_5,156,1,48,37,1203235492
1116,21,Ticks_Linear_5,157,5,42,127,1203276144
1116,21,Ticks_Linear_5,158,1,48,30,1203900188
1116,21,Ticks_Linear_5,159,5,42,127,1203916404
1116,21,Ticks_Linear_5,160,1,48,40,1204550212
1116,21,Ticks_Linear_5,161,5,42,127,1204556392
1116,21,Ticks_Linear_5,162,1,48,44,1205179620
1116,21,Ticks_Linear_5,163,5,42,127,1205196284
1116,21,Ticks_Linear_5,164,1,48,37,1205822268
1116,21,Ticks_Linear_5,165,5,42,127,1205836272
1116,21,Ticks_Linear_5,166,1,48,44,1206474252
1116,21,Ticks_Linear_5,167,5,42,127,1206486348
1116,21,Ticks_Linear_5,168,5,42,127,1207135552
1116,21,Ticks_Linear_5,169,1,48,45,1207142932
1116,21,Ticks_Linear_5,170,1,48,35,1207744692
1116,21,Ticks_Linear_5,171,5,42,127,1207785916
1116,21,Ticks_Linear_5,172,1,48,42,1208382696
1116,21,Ticks_Linear_5,173,5,42,127,1208436308
1116,21,Ticks_Linear_5,174,5,42,127,1209086244
1116,21,Ticks_Linear_5,175,1,48,42,1209118272
1116,21,Ticks_Linear_5,176,1,48,41,1209733680
1116,21,Ticks_Linear_5,177,5,42,127,1209745696
1116,21,Ticks_Linear_5,178,1,48,37,1210383972
1116,21,Ticks_Linear_5,179,5,42,127,1210406176
1116,21,Ticks_Linear_5,180,5,42,127,1211065644
1116,21,Ticks_Linear_5,181,1,48,34,1211073716
1116,21,Ticks_Linear_5,182,1,48,43,1211726372
1116,21,Ticks_Linear_5,183,5,42,127,1211727564
1116,21,Ticks_Linear_5,184,1,48,41,1212349064
1116,21,Ticks_Linear_5,185,5,42,127,1212385580
1116,21,Ticks_Linear_5,186,1,48,35,1213040652
1116,21,Ticks_Linear_5,187,5,42,127,1213056272
1116,21,Ticks_Linear_5,188,1,48,38,1213686384
1116,21,Ticks_Linear_5,189,5,42,127,1213726112
1116,21,Ticks_Linear_5,190,1,48,39,1214379240
1116,21,Ticks_Linear_5,191,5,42,127,1214395832
1116,21,Ticks_Linear_5,192,1,48,36,1215065336
1116,21,Ticks_Linear_5,193,5,42,127,1215066676
1116,21,Ticks_Linear_5,194,1,48,32,1215704052
1116,21,Ticks_Linear_5,195,5,42,127,1215736220
1116,21,Ticks_Linear_5,196,5,42,127,1216416204
1116,21,Ticks_Linear_5,197,1,48,29,1216432424
1116,21,Ticks_Linear_5,198,1,48,36,1217050952
1116,21,Ticks_Linear_5,199,5,42,127,1217096100
1116,21,Ticks_Linear_5,200,1,48,40,1217776504
1116,21,Ticks_Linear_5,201,5,42,127,1217777704
1116,21,Ticks_Linear_5,202,1,48,36,1218456188
1116,21,Ticks_Linear_5,203,5,42,127,1218457528
1116,21,Ticks_Linear_5,204,5,42,127,1219135992
1116,21,Ticks_Linear_5,205,1,48,40,1219136960
1116,21,Ticks_Linear_5,206,5,42,127,1219826156
1116,21,Ticks_Linear_5,207,1,48,40,1219827124
1116,21,Ticks_Linear_5,208,1,48,38,1220498676
1116,21,Ticks_Linear_5,209,5,42,127,1220516164
1116,21,Ticks_Linear_5,210,1,48,38,1221153680
1116,21,Ticks_Linear_5,211,5,42,127,1221206476
1116,21,Ticks_Linear_5,212,5,42,127,1221895500
1116,21,Ticks_Linear_5,213,1,48,38,1221898248
1116,21,Ticks_Linear_5,214,5,42,127,1222585664
1116,21,Ticks_Linear_5,215,1,48,37,1222590128
1116,21,Ticks_Linear_5,216,1,48,40,1223276076
1116,21,Ticks_Linear_5,217,5,42,127,1223286152
1116,21,Ticks_Linear_5,218,1,48,40,1223965464
1116,21,Ticks_Linear_5,219,5,42,127,1223985504
1116,21,Ticks_Linear_5,220,1,48,27,1224683328
1116,21,Ticks_Linear_5,221,5,42,127,1224686072
1116,21,Ticks_Linear_5,222,5,42,127,1225386276
1116,21,Ticks_Linear_5,223,1,48,37,1225392388
1116,21,Ticks_Linear_5,224,1,48,40,1226044392
1116,21,Ticks_Linear_5,225,5,42,127,1226086016
1116,21,Ticks_Linear_5,226,1,48,42,1226767056
1116,21,Ticks_Linear_5,227,5,42,127,1226796452
1116,21,Ticks_Linear_5,228,1,48,42,1227491364
1116,21,Ticks_Linear_5,229,5,42,127,1227506084
1116,21,Ticks_Linear_5,230,1,48,48,1228193428
1116,21,Ticks_Linear_5,231,5,42,127,1228215940
1116,21,Ticks_Linear_5,232,1,48,43,1228885696
1116,21,Ticks_Linear_5,233,5,42,127,1228926324
1116,21,Ticks_Linear_5,234,1,48,46,1229591332
1116,21,Ticks_Linear_5,235,5,42,127,1229636084
1116,21,Ticks_Linear_5,236,5,42,127,1230355956
1116,21,Ticks_Linear_5,237,1,48,39,1230367096
1116,21,Ticks_Linear_5,238,1,48,46,1231057828
1116,21,Ticks_Linear_5,239,5,42,127,1231075916
1116,21,Ticks_Linear_5,240,1,48,43,1231770908
1116,21,Ticks_Linear_5,241,5,42,127,1231795512
1116,21,Ticks_Linear_5,242,1,48,40,1232497096
1116,21,Ticks_Linear_5,243,5,42,127,1232515480
1116,21,Ticks_Linear_5,244,5,42,127,1233236280
1116,21,Ticks_Linear_5,245,1,48,43,1233248160
1116,21,Ticks_Linear_5,246,5,42,127,1233965360
1116,21,Ticks_Linear_5,247,1,48,42,1233971696
1116,21,Ticks_Linear_5,248,1,48,44,1234658916
1116,21,Ticks_Linear_5,249,5,42,127,1234695652
1116,21,Ticks_Linear_5,250,1,48,34,1235382224
1116,21,Ticks_Linear_5,251,5,42,127,1235425856
1116,21,Ticks_Linear_5,252,5,42,127,1236156016
1116,21,Ticks_Linear_5,253,1,48,38,1236170820
1116,21,Ticks_Linear_5,254,1,48,39,1236870544
1116,21,Ticks_Linear_5,255,5,42,127,1236885864
1116,21,Ticks_Linear_5,256,1,48,33,1237605572
1116,21,Ticks_Linear_5,257,5,42,127,1237626200
1116,21,Ticks_Linear_5,258,1,48,43,1238299896
1116,21,Ticks_Linear_5,259,5,42,127,1238365636
1116,21,Ticks_Linear_5,260,1,48,41,1239063068
1116,21,Ticks_Linear_5,261,5,42,127,1239105876
1116,21,Ticks_Linear_5,262,5,42,127,1239846268
1116,21,Ticks_Linear_5,263,1,48,29,1239930516
1116,21,Ticks_Linear_5,264,1,48,37,1240508532
1116,21,Ticks_Linear_5,265,5,42,127,1240585704
1116,21,Ticks_Linear_5,266,1,48,41,1241294328
1116,21,Ticks_Linear_5,267,5,42,127,1241336076
1116,21,Ticks_Linear_5,268,1,48,43,1242078620
1116,21,Ticks_Linear_5,269,5,42,127,1242085700
1116,21,Ticks_Linear_5,270,1,48,47,1242827948
1116,21,Ticks_Linear_5,271,5,42,127,1242836224
1116,21,Ticks_Linear_5,272,1,48,45,1243574200
1116,21,Ticks_Linear_5,273,5,42,127,1243585848
1116,21,Ticks_Linear_5,274,1,48,39,1244304276
1116,21,Ticks_Linear_5,275,5,42,127,1244335396
1116,21,Ticks_Linear_5,276,1,48,43,1245039820
1116,21,Ticks_Linear_5,277,5,42,127,1245096400
1116,21,Ticks_Linear_5,278,5,42,127,1245856064
1116,21,Ticks_Linear_5,279,1,48,41,1245893252
1116,21,Ticks_Linear_5,280,1,48,40,1246592976
1116,21,Ticks_Linear_5,281,5,42,127,1246615944
1116,21,Ticks_Linear_5,282,1,48,41,1247327856
1116,21,Ticks_Linear_5,283,5,42,127,1247375676
1116,21,Ticks_Linear_5,284,1,48,40,1248090508
1116,21,Ticks_Linear_5,285,5,42,127,1248135560
1116,21,Ticks_Linear_5,286,5,42,127,1248905708
1116,21,Ticks_Linear_5,287,1,48,40,1248929568
1116,21,Ticks_Linear_5,288,1,48,43,1249675328
1116,21,Ticks_Linear_5,289,5,42,127,1249676820
1116,21,Ticks_Linear_5,290,1,48,39,1250439284
1116,21,Ticks_Linear_5,291,5,42,127,1250445688
1116,21,Ticks_Linear_5,292,1,48,46,1251153924
1116,21,Ticks_Linear_5,293,5,42,127,1251215604
1116,21,Ticks_Linear_5,294,5,42,127,1251985756
1116,21,Ticks_Linear_5,295,1,48,40,1252000932
1116,21,Ticks_Linear_5,296,5,42,127,1252766080
1116,21,Ticks_Linear_5,297,1,48,29,1252817880
1116,21,Ticks_Linear_5,298,1,48,45,1253542760
1116,21,Ticks_Linear_5,299,5,42,127,1253546476
1116,21,Ticks_Linear_5,300,1,48,44,1254298756
1116,21,Ticks_Linear_5,301,5,42,127,1254325680
1116,21,Ticks_Linear_5,302,1,48,46,1255068676
1116,21,Ticks_Linear_5,303,5,42,127,1255105860
1116,21,Ticks_Linear_5,304,1,48,45,1255886116
1116,21,Ticks_Linear_5,305,5,42,127,1255887456
1116,21,Ticks_Linear_5,306,1,48,45,1256667896
1116,21,Ticks_Linear_5,307,5,42,127,1256675652
1116,21,Ticks_Linear_5,308,5,42,127,1257466168
1116,21,Ticks_Linear_5,309,1,48,40,1257475804
1116,21,Ticks_Linear_5,310,5,42,127,1258255708
1116,21,Ticks_Linear_5,311,1,48,42,1258262868
1116,21,Ticks_Linear_5,312,1,48,46,1259031640
1116,21,Ticks_Linear_5,313,5,42,127,1259046212
1116,21,Ticks_Linear_5,314,1,48,43,1259811216
1116,21,Ticks_Linear_5,315,5,42,127,1259835900
1116,21,Ticks_Linear_5,316,1,48,43,1260622124
1116,21,Ticks_Linear_5,317,5,42,127,1260635648
1116,21,Ticks_Linear_5,318,1,48,41,1261393536
1116,21,Ticks_Linear_5,319,5,42,127,1261436416
1116,21,Ticks_Linear_5,320,1,48,40,1262204056
1116,21,Ticks_Linear_5,321,5,42,127,1262235992
1116,21,Ticks_Linear_5,322,1,48,42,1262979436
1116,21,Ticks_Linear_5,323,5,42,127,1263035792
1116,21,Ticks_Linear_5,324,1,48,46,1263832248
1116,21,Ticks_Linear_5,325,5,42,127,1263835664
1116,21,Ticks_Linear_5,326,5,42,127,1264645580
1116,21,Ticks_Linear_5,327,1,48,23,1264651916
1116,21,Ticks_Linear_5,328,5,42,127,1265455636
1116,21,Ticks_Linear_5,329,1,48,39,1265463096
1116,21,Ticks_Linear_5,330,5,42,127,1266265644
1116,21,Ticks_Linear_5,331,1,48,41,1266299764
1116,21,Ticks_Linear_5,332,5,42,127,1267075552
1116,21,Ticks_Linear_5,333,1,48,46,1267087284
1116,21,Ticks_Linear_5,334,1,48,49,1267860320
1116,21,Ticks_Linear_5,335,5,42,127,1267885604
1116,21,Ticks_Linear_5,0,9999,9999,9999,1158713404
1116,21,Ticks_Linear_5,1,9999,9999,9999,1159193728
1116,21,Ticks_Linear_5,2,9999,9999,9999,1159673976
1116,21,Ticks_Linear_5,3,9999,9999,9999,1160153180
1116,21,Ticks_Linear_5,4,9999,9999,9999,1160633428
1116,21,Ticks_Linear_5,5,9999,9999,9999,1161123912
1116,21,Ticks_Linear_5,6,9999,9999,9999,1161613428
1116,21,Ticks_Linear_5,7,9999,9999,9999,1162103916
1116,21,Ticks_Linear_5,8,9999,9999,9999,1162593364
1116,21,Ticks_Linear_5,9,9999,9999,9999,1163083844
1116,21,Ticks_Linear_5,10,9999,9999,9999,1163583596
1116,21,Ticks_Linear_5,11,9999,9999,9999,1164083292
1116,21,Ticks_Linear_5,12,9999,9999,9999,1164584040
1116,21,Ticks_Linear_5,13,9999,9999,9999,1165083740
1116,21,Ticks_Linear_5,14,9999,9999,9999,1165583440
1116,21,Ticks_Linear_5,15,9999,9999,9999,1166093400
1116,21,Ticks_Linear_5,16,9999,9999,9999,1166603356
1116,21,Ticks_Linear_5,17,9999,9999,9999,1167113316
1116,21,Ticks_Linear_5,18,9999,9999,9999,1167623276
1116,21,Ticks_Linear_5,19,9999,9999,9999,1168133236
1116,21,Ticks_Linear_5,20,9999,9999,9999,1168653380
1116,21,Ticks_Linear_5,21,9999,9999,9999,1169173596
1116,21,Ticks_Linear_5,22,9999,9999,9999,1169693816
1116,21,Ticks_Linear_5,23,9999,9999,9999,1170213956
1116,21,Ticks_Linear_5,24,9999,9999,9999,1170733128
1116,21,Ticks_Linear_5,25,9999,9999,9999,1171263608
1116,21,Ticks_Linear_5,26,9999,9999,9999,1171794032
1116,21,Ticks_Linear_5,27,9999,9999,9999,1172323388
1116,21,Ticks_Linear_5,28,9999,9999,9999,1172853868
1116,21,Ticks_Linear_5,29,9999,9999,9999,1173383228
1116,21,Ticks_Linear_5,30,9999,9999,9999,1173923964
1116,21,Ticks_Linear_5,31,9999,9999,9999,1174463584
1116,21,Ticks_Linear_5,32,9999,9999,9999,1175003196
1116,21,Ticks_Linear_5,33,9999,9999,9999,1175543928
1116,21,Ticks_Linear_5,34,9999,9999,9999,1176083548
1116,21,Ticks_Linear_5,35,9999,9999,9999,1176633420
1116,21,Ticks_Linear_5,36,9999,9999,9999,1177183320
1116,21,Ticks_Linear_5,37,9999,9999,9999,1177733188
1116,21,Ticks_Linear_5,38,9999,9999,9999,1178283064
1116,21,Ticks_Linear_5,39,9999,9999,9999,1178833984
1116,21,Ticks_Linear_5,40,9999,9999,9999,1179393144
1116,21,Ticks_Linear_5,41,9999,9999,9999,1179953280
1116,21,Ticks_Linear_5,42,9999,9999,9999,1180513344
1116,21,Ticks_Linear_5,43,9999,9999,9999,1181073480
1116,21,Ticks_Linear_5,44,9999,9999,9999,1181633604
1116,21,Ticks_Linear_5,45,9999,9999,9999,1182203996
1116,21,Ticks_Linear_5,46,9999,9999,9999,1182773344
1116,21,Ticks_Linear_5,47,9999,9999,9999,1183343688
1116,21,Ticks_Linear_5,48,9999,9999,9999,1183914076
1116,21,Ticks_Linear_5,49,9999,9999,9999,1184483432
1116,21,Ticks_Linear_5,50,9999,9999,9999,1185064008
1116,21,Ticks_Linear_5,51,9999,9999,9999,1185643632
1116,21,Ticks_Linear_5,52,9999,9999,9999,1186223164
1116,21,Ticks_Linear_5,53,9999,9999,9999,1186803812
1116,21,Ticks_Linear_5,54,9999,9999,9999,1187383348
1116,21,Ticks_Linear_5,55,9999,9999,9999,1187973232
1116,21,Ticks_Linear_5,56,9999,9999,9999,1188564076
1116,21,Ticks_Linear_5,57,9999,9999,9999,1189153864
1116,21,Ticks_Linear_5,58,9999,9999,9999,1189743676
1116,21,Ticks_Linear_5,59,9999,9999,9999,1190333536
1116,21,Ticks_Linear_5,60,9999,9999,9999,1190933584
1116,21,Ticks_Linear_5,61,9999,9999,9999,1191533660
1116,21,Ticks_Linear_5,62,9999,9999,9999,1192133716
1116,21,Ticks_Linear_5,63,9999,9999,9999,1192733760
1116,21,Ticks_Linear_5,64,9999,9999,9999,1193333828
1116,21,Ticks_Linear_5,65,9999,9999,9999,1193943164
1116,21,Ticks_Linear_5,66,9999,9999,9999,1194553404
1116,21,Ticks_Linear_5,67,9999,9999,9999,1195163728
1116,21,Ticks_Linear_5,68,9999,9999,9999,1195774036
1116,21,Ticks_Linear_5,69,9999,9999,9999,1196383320
1116,21,Ticks_Linear_5,70,9999,9999,9999,1197003888
1116,21,Ticks_Linear_5,71,9999,9999,9999,1197623408
1116,21,Ticks_Linear_5,72,9999,9999,9999,1198243924
1116,21,Ticks_Linear_5,73,9999,9999,9999,1198863444
1116,21,Ticks_Linear_5,74,9999,9999,9999,1199483964
1116,21,Ticks_Linear_5,75,9999,9999,9999,1200113744
1116,21,Ticks_Linear_5,76,9999,9999,9999,1200743548
1116,21,Ticks_Linear_5,77,9999,9999,9999,1201373256
1116,21,Ticks_Linear_5,78,9999,9999,9999,1202004076
1116,21,Ticks_Linear_5,79,9999,9999,9999,1202633784
1116,21,Ticks_Linear_5,80,9999,9999,9999,1203273848
1116,21,Ticks_Linear_5,81,9999,9999,9999,1203913808
1116,21,Ticks_Linear_5,82,9999,9999,9999,1204553800
1116,21,Ticks_Linear_5,83,9999,9999,9999,1205193836
1116,21,Ticks_Linear_5,84,9999,9999,9999,1205833824
1116,21,Ticks_Linear_5,85,9999,9999,9999,1206484048
1116,21,Ticks_Linear_5,86,9999,9999,9999,1207133252
1116,21,Ticks_Linear_5,87,9999,9999,9999,1207783544
1116,21,Ticks_Linear_5,88,9999,9999,9999,1208433788
1116,21,Ticks_Linear_5,89,9999,9999,9999,1209084020
1116,21,Ticks_Linear_5,90,9999,9999,9999,1209743472
1116,21,Ticks_Linear_5,91,9999,9999,9999,1210403952
1116,21,Ticks_Linear_5,92,9999,9999,9999,1211063420
1116,21,Ticks_Linear_5,93,9999,9999,9999,1211723852
1116,21,Ticks_Linear_5,94,9999,9999,9999,1212383356
1116,21,Ticks_Linear_5,95,9999,9999,9999,1213054048
1116,21,Ticks_Linear_5,96,9999,9999,9999,1213723740
1116,21,Ticks_Linear_5,97,9999,9999,9999,1214393460
1116,21,Ticks_Linear_5,98,9999,9999,9999,1215063112
1116,21,Ticks_Linear_5,99,9999,9999,9999,1215733844
1116,21,Ticks_Linear_5,100,9999,9999,9999,1216413756
1116,21,Ticks_Linear_5,101,9999,9999,9999,1217093728
1116,21,Ticks_Linear_5,102,9999,9999,9999,1217773688
1116,21,Ticks_Linear_5,103,9999,9999,9999,1218453592
1116,21,Ticks_Linear_5,104,9999,9999,9999,1219133544
1116,21,Ticks_Linear_5,105,9999,9999,9999,1219823708
1116,21,Ticks_Linear_5,106,9999,9999,9999,1220513864
1116,21,Ticks_Linear_5,107,9999,9999,9999,1221204028
1116,21,Ticks_Linear_5,108,9999,9999,9999,1221893200
1116,21,Ticks_Linear_5,109,9999,9999,9999,1222583364
1116,21,Ticks_Linear_5,110,9999,9999,9999,1223283780
1116,21,Ticks_Linear_5,111,9999,9999,9999,1223983204
1116,21,Ticks_Linear_5,112,9999,9999,9999,1224683624
1116,21,Ticks_Linear_5,113,9999,9999,9999,1225384052
1116,21,Ticks_Linear_5,114,9999,9999,9999,1226083420
1116,21,Ticks_Linear_5,115,9999,9999,9999,1226794076
1116,21,Ticks_Linear_5,116,9999,9999,9999,1227503712
1116,21,Ticks_Linear_5,117,9999,9999,9999,1228213344
1116,21,Ticks_Linear_5,118,9999,9999,9999,1228924028
1116,21,Ticks_Linear_5,119,9999,9999,9999,1229633636
1116,21,Ticks_Linear_5,120,9999,9999,9999,1230353512
1116,21,Ticks_Linear_5,121,9999,9999,9999,1231073396
1116,21,Ticks_Linear_5,122,9999,9999,9999,1231793216
1116,21,Ticks_Linear_5,123,9999,9999,9999,1232513108
1116,21,Ticks_Linear_5,124,9999,9999,9999,1233233980
1116,21,Ticks_Linear_5,125,9999,9999,9999,1233963064
1116,21,Ticks_Linear_5,126,9999,9999,9999,1234693208
1116,21,Ticks_Linear_5,127,9999,9999,9999,1235423336
1116,21,Ticks_Linear_5,128,9999,9999,9999,1236153420
1116,21,Ticks_Linear_5,129,9999,9999,9999,1236883564
1116,21,Ticks_Linear_5,130,9999,9999,9999,1237623904
1116,21,Ticks_Linear_5,131,9999,9999,9999,1238363192
1116,21,Ticks_Linear_5,132,9999,9999,9999,1239103580
1116,21,Ticks_Linear_5,133,9999,9999,9999,1239843896
1116,21,Ticks_Linear_5,134,9999,9999,9999,1240583256
1116,21,Ticks_Linear_5,135,9999,9999,9999,1241333852
1116,21,Ticks_Linear_5,136,9999,9999,9999,1242083404
1116,21,Ticks_Linear_5,137,9999,9999,9999,1242834000
1116,21,Ticks_Linear_5,138,9999,9999,9999,1243583548
1116,21,Ticks_Linear_5,139,9999,9999,9999,1244333172
1116,21,Ticks_Linear_5,140,9999,9999,9999,1245093952
1116,21,Ticks_Linear_5,141,9999,9999,9999,1245853768
1116,21,Ticks_Linear_5,142,9999,9999,9999,1246613572
1116,21,Ticks_Linear_5,143,9999,9999,9999,1247373376
1116,21,Ticks_Linear_5,144,9999,9999,9999,1248133188
1116,21,Ticks_Linear_5,145,9999,9999,9999,1248903260
1116,21,Ticks_Linear_5,146,9999,9999,9999,1249673328
1116,21,Ticks_Linear_5,147,9999,9999,9999,1250443388
1116,21,Ticks_Linear_5,148,9999,9999,9999,1251213380
1116,21,Ticks_Linear_5,149,9999,9999,9999,1251983456
1116,21,Ticks_Linear_5,150,9999,9999,9999,1252763708
1116,21,Ticks_Linear_5,151,9999,9999,9999,1253544028
1116,21,Ticks_Linear_5,152,9999,9999,9999,1254323308
1116,21,Ticks_Linear_5,153,9999,9999,9999,1255103560
1116,21,Ticks_Linear_5,154,9999,9999,9999,1255883892
1116,21,Ticks_Linear_5,155,9999,9999,9999,1256673352
1116,21,Ticks_Linear_5,156,9999,9999,9999,1257463868
1116,21,Ticks_Linear_5,157,9999,9999,9999,1258253408
1116,21,Ticks_Linear_5,158,9999,9999,9999,1259043912
1116,21,Ticks_Linear_5,159,9999,9999,9999,1259833452
1116,21,Ticks_Linear_5,160,9999,9999,9999,1260633200
1116,21,Ticks_Linear_5,161,9999,9999,9999,1261433972
1116,21,Ticks_Linear_5,162,9999,9999,9999,1262233692
1116,21,Ticks_Linear_5,163,9999,9999,9999,1263033420
1116,21,Ticks_Linear_5,164,9999,9999,9999,1263833140
1116,21,Ticks_Linear_5,165,9999,9999,9999,1264643132
1116,21,Ticks_Linear_5,166,9999,9999,9999,1265453116
1116,21,Ticks_Linear_5,167,9999,9999,9999,1266263124
1116,21,Ticks_Linear_5,168,9999,9999,9999,1267073104
1116,21,Ticks_Linear_5,169,9999,9999,9999,1267883080
1117,9,Ticks_ISO_T2_8,0,5,42,127,1277668660
1117,9,Ticks_ISO_T2_8,1,5,42,127,1278468492
1117,9,Ticks_ISO_T2_8,2,5,42,127,1279269440
1117,9,Ticks_ISO_T2_8,3,5,42,127,1280068924
1117,9,Ticks_ISO_T2_8,4,1,48,42,1280777956
1117,9,Ticks_ISO_T2_8,5,5,42,127,1280868668
1117,9,Ticks_ISO_T2_8,6,1,48,40,1281654908
1117,9,Ticks_ISO_T2_8,7,5,42,127,1281668404
1117,9,Ticks_ISO_T2_8,8,1,48,47,1282439608
1117,9,Ticks_ISO_T2_8,9,5,42,127,1282469336
1117,9,Ticks_ISO_T2_8,10,5,42,127,1283269224
1117,9,Ticks_ISO_T2_8,11,1,48,35,1283302256
1117,9,Ticks_ISO_T2_8,12,1,48,46,1284035008
1117,9,Ticks_ISO_T2_8,13,5,42,127,1284068704
1117,9,Ticks_ISO_T2_8,14,1,48,41,1284820532
1117,9,Ticks_ISO_T2_8,15,5,42,127,1284868436
1117,9,Ticks_ISO_T2_8,16,5,42,127,1285669372
1117,9,Ticks_ISO_T2_8,17,1,48,38,1285699516
1117,9,Ticks_ISO_T2_8,18,5,42,127,1286469204
1117,9,Ticks_ISO_T2_8,19,1,48,45,1286484740
1117,9,Ticks_ISO_T2_8,20,1,48,42,1287255880
1117,9,Ticks_ISO_T2_8,21,5,42,127,1287268632
1117,9,Ticks_ISO_T2_8,22,1,48,45,1288015976
1117,9,Ticks_ISO_T2_8,23,5,42,127,1288068516
1117,9,Ticks_ISO_T2_8,24,1,48,35,1288817128
1117,9,Ticks_ISO_T2_8,25,5,42,127,1288869296
1117,9,Ticks_ISO_T2_8,26,1,48,32,1289629500
1117,9,Ticks_ISO_T2_8,27,5,42,127,1289669180
1117,9,Ticks_ISO_T2_8,28,5,42,127,1290468696
1117,9,Ticks_ISO_T2_8,29,1,48,41,1290506448
1117,9,Ticks_ISO_T2_8,30,5,42,127,1291268428
1117,9,Ticks_ISO_T2_8,31,1,48,36,1291269616
1117,9,Ticks_ISO_T2_8,32,1,48,38,1292063036
1117,9,Ticks_ISO_T2_8,33,5,42,127,1292069204
1117,9,Ticks_ISO_T2_8,34,1,48,47,1292841524
1117,9,Ticks_ISO_T2_8,35,5,42,127,1292869108
1117,9,Ticks_ISO_T2_8,36,1,48,52,1293654224
1117,9,Ticks_ISO_T2_8,37,5,42,127,1293668616
1117,9,Ticks_ISO_T2_8,38,1,48,39,1294465400
1117,9,Ticks_ISO_T2_8,39,5,42,127,1294468500
1117,9,Ticks_ISO_T2_8,40,5,42,127,1295269212
1117,9,Ticks_ISO_T2_8,41,1,48,41,1295309956
1117,9,Ticks_ISO_T2_8,42,5,42,127,1296069024
1117,9,Ticks_ISO_T2_8,43,1,48,36,1296126368
1117,9,Ticks_ISO_T2_8,44,1,48,45,1296842984
1117,9,Ticks_ISO_T2_8,45,5,42,127,1296868676
1117,9,Ticks_ISO_T2_8,46,1,48,45,1297663288
1117,9,Ticks_ISO_T2_8,47,5,42,127,1297668556
1117,9,Ticks_ISO_T2_8,48,1,48,43,1298409240
1117,9,Ticks_ISO_T2_8,49,5,42,127,1298469188
1117,9,Ticks_ISO_T2_8,50,1,48,46,1299235600
1117,9,Ticks_ISO_T2_8,51,5,42,127,1299269020
1117,9,Ticks_ISO_T2_8,52,1,48,42,1300044560
1117,9,Ticks_ISO_T2_8,53,5,42,127,1300068828
1117,9,Ticks_ISO_T2_8,54,1,48,46,1300834348
1117,9,Ticks_ISO_T2_8,55,5,42,127,1300868416
1117,9,Ticks_ISO_T2_8,56,1,48,46,1301663548
1117,9,Ticks_ISO_T2_8,57,5,42,127,1301669196
1117,9,Ticks_ISO_T2_8,58,5,42,127,1302468940
1117,9,Ticks_ISO_T2_8,59,1,48,43,1302519552
1117,9,Ticks_ISO_T2_8,60,5,42,127,1303268820
1117,9,Ticks_ISO_T2_8,61,1,48,38,1303278148
1117,9,Ticks_ISO_T2_8,62,1,48,38,1304037024
1117,9,Ticks_ISO_T2_8,63,5,42,127,1304068548
1117,9,Ticks_ISO_T2_8,64,1,48,41,1304855976
1117,9,Ticks_ISO_T2_8,65,5,42,127,1304869176
1117,9,Ticks_ISO_T2_8,66,1,48,38,1305614724
1117,9,Ticks_ISO_T2_8,67,5,42,127,1305668936
1117,9,Ticks_ISO_T2_8,68,1,48,46,1306452256
1117,9,Ticks_ISO_T2_8,69,5,42,127,1306468816
1117,9,Ticks_ISO_T2_8,70,1,48,44,1307255648
1117,9,Ticks_ISO_T2_8,71,5,42,127,1307268400
1117,9,Ticks_ISO_T2_8,72,1,48,51,1308022924
1117,9,Ticks_ISO_T2_8,73,5,42,127,1308069108
1117,9,Ticks_ISO_T2_8,74,1,48,50,1308839112
1117,9,Ticks_ISO_T2_8,75,5,42,127,1308868912
1117,9,Ticks_ISO_T2_8,76,5,42,127,1309668804
1117,9,Ticks_ISO_T2_8,77,1,48,42,1309690396
1117,9,Ticks_ISO_T2_8,78,1,48,43,1310458400
1117,9,Ticks_ISO_T2_8,79,5,42,127,1310468528
1117,9,Ticks_ISO_T2_8,80,1,48,40,1311266208
1117,9,Ticks_ISO_T2_8,81,5,42,127,1311269232
1117,9,Ticks_ISO_T2_8,82,1,48,49,1312016124
1117,9,Ticks_ISO_T2_8,83,5,42,127,1312069068
1117,9,Ticks_ISO_T2_8,84,1,48,45,1312810620
1117,9,Ticks_ISO_T2_8,85,5,42,127,1312868948
1117,9,Ticks_ISO_T2_8,86,5,42,127,1313668392
1117,9,Ticks_ISO_T2_8,87,1,48,45,1313688188
1117,9,Ticks_ISO_T2_8,88,1,48,44,1314461348
1117,9,Ticks_ISO_T2_8,89,5,42,127,1314469088
1117,9,Ticks_ISO_T2_8,90,5,42,127,1315268828
1117,9,Ticks_ISO_T2_8,91,1,48,39,1315307552
1117,9,Ticks_ISO_T2_8,92,1,48,43,1315979064
1117,9,Ticks_ISO_T2_8,93,5,42,127,1316068928
1117,9,Ticks_ISO_T2_8,94,1,48,40,1316867004
1117,9,Ticks_ISO_T2_8,95,5,42,127,1316868660
1117,9,Ticks_ISO_T2_8,96,1,48,43,1317666788
1117,9,Ticks_ISO_T2_8,97,5,42,127,1317669444
1117,9,Ticks_ISO_T2_8,98,5,42,127,1318468836
1117,9,Ticks_ISO_T2_8,99,1,48,39,1318488932
1117,9,Ticks_ISO_T2_8,100,1,48,44,1319242572
1117,9,Ticks_ISO_T2_8,101,5,42,127,1319268788
1117,9,Ticks_ISO_T2_8,102,5,42,127,1320068676
1117,9,Ticks_ISO_T2_8,103,1,48,43,1320071120
1117,9,Ticks_ISO_T2_8,104,5,42,127,1320869156
1117,9,Ticks_ISO_T2_8,105,1,48,42,1320893520
1117,9,Ticks_ISO_T2_8,106,5,42,127,1321669112
1117,9,Ticks_ISO_T2_8,107,1,48,38,1321672232
1117,9,Ticks_ISO_T2_8,108,1,48,45,1322453992
1117,9,Ticks_ISO_T2_8,109,5,42,127,1322468692
1117,9,Ticks_ISO_T2_8,110,1,48,44,1323205184
1117,9,Ticks_ISO_T2_8,111,5,42,127,1323268648
1117,9,Ticks_ISO_T2_8,112,5,42,127,1324069212
1117,9,Ticks_ISO_T2_8,113,1,48,45,1324107140
1117,9,Ticks_ISO_T2_8,114,5,42,127,1324868968
1117,9,Ticks_ISO_T2_8,115,1,48,47,1324886972
1117,9,Ticks_ISO_T2_8,116,1,48,47,1325652208
1117,9,Ticks_ISO_T2_8,117,5,42,127,1325668624
1117,9,Ticks_ISO_T2_8,118,5,42,127,1326468812
1117,9,Ticks_ISO_T2_8,119,1,48,43,1326473048
1117,9,Ticks_ISO_T2_8,120,5,42,127,1327269144
1117,9,Ticks_ISO_T2_8,121,1,48,45,1327284456
1117,9,Ticks_ISO_T2_8,122,5,42,127,1328068952
1117,9,Ticks_ISO_T2_8,123,1,48,40,1328080520
1117,9,Ticks_ISO_T2_8,124,1,48,50,1328862060
1117,9,Ticks_ISO_T2_8,125,5,42,127,1328868604
1117,9,Ticks_ISO_T2_8,126,5,42,127,1329668496
1117,9,Ticks_ISO_T2_8,127,1,48,46,1329701604
1117,9,Ticks_ISO_T2_8,128,1,48,39,1330400348
1117,9,Ticks_ISO_T2_8,129,5,42,127,1330469344
1117,9,Ticks_ISO_T2_8,130,5,42,127,1331268956
1117,9,Ticks_ISO_T2_8,131,1,48,44,1331301476
1117,9,Ticks_ISO_T2_8,132,1,48,53,1332053616
1117,9,Ticks_ISO_T2_8,133,5,42,127,1332068612
1117,9,Ticks_ISO_T2_8,134,1,48,54,1332810564
1117,9,Ticks_ISO_T2_8,135,5,42,127,1332868496
1117,9,Ticks_ISO_T2_8,136,1,48,45,1333622340
1117,9,Ticks_ISO_T2_8,137,5,42,127,1333669124
1117,9,Ticks_ISO_T2_8,138,1,48,43,1334401728
1117,9,Ticks_ISO_T2_8,139,5,42,127,1334469008
1117,9,Ticks_ISO_T2_8,140,1,48,43,1335211116
1117,9,Ticks_ISO_T2_8,141,5,42,127,1335268740
1117,9,Ticks_ISO_T2_8,142,5,42,127,1336068632
1117,9,Ticks_ISO_T2_8,143,1,48,35,1336087084
1117,9,Ticks_ISO_T2_8,144,5,42,127,1336869484
1117,9,Ticks_ISO_T2_8,145,1,48,48,1336892652
1117,9,Ticks_ISO_T2_8,146,5,42,127,1337669020
1117,9,Ticks_ISO_T2_8,147,1,48,40,1337675280
1117,9,Ticks_ISO_T2_8,148,5,42,127,1338468680
1117,9,Ticks_ISO_T2_8,149,1,48,44,1338469644
1117,9,Ticks_ISO_T2_8,150,5,42,127,1339268488
1117,9,Ticks_ISO_T2_8,151,1,48,38,1339307880
1117,9,Ticks_ISO_T2_8,152,1,48,39,1340061748
1117,9,Ticks_ISO_T2_8,153,5,42,127,1340069484
1117,9,Ticks_ISO_T2_8,154,5,42,127,1340868852
1117,9,Ticks_ISO_T2_8,155,1,48,45,1340883040
1117,9,Ticks_ISO_T2_8,156,1,48,46,1341645804
1117,9,Ticks_ISO_T2_8,157,5,42,127,1341668804
1117,9,Ticks_ISO_T2_8,158,5,42,127,1342468396
1117,9,Ticks_ISO_T2_8,159,1,48,33,1342475700
1117,9,Ticks_ISO_T2_8,160,1,48,43,1343242432
1117,9,Ticks_ISO_T2_8,161,5,42,127,1343269388
1117,9,Ticks_ISO_T2_8,162,5,42,127,1344069080
1117,9,Ticks_ISO_T2_8,163,1,48,36,1344110196
1117,9,Ticks_ISO_T2_8,164,1,48,43,1344863912
1117,9,Ticks_ISO_T2_8,165,5,42,127,1344868660
1117,9,Ticks_ISO_T2_8,166,1,48,44,1345645920
1117,9,Ticks_ISO_T2_8,167,5,42,127,1345668392
1117,9,Ticks_ISO_T2_8,168,5,42,127,1346469252
1117,9,Ticks_ISO_T2_8,169,1,48,40,1346471044
1117,9,Ticks_ISO_T2_8,170,5,42,127,1347268912
1117,9,Ticks_ISO_T2_8,171,1,48,40,1347330300
1117,9,Ticks_ISO_T2_8,172,1,48,45,1347985580
1117,9,Ticks_ISO_T2_8,173,5,42,127,1348068716
1117,9,Ticks_ISO_T2_8,174,5,42,127,1348868604
1117,9,Ticks_ISO_T2_8,175,1,48,37,1348901416
1117,9,Ticks_ISO_T2_8,176,5,42,127,1349669308
1117,9,Ticks_ISO_T2_8,177,1,48,32,1349709700
1117,9,Ticks_ISO_T2_8,178,5,42,127,1350469068
1117,9,Ticks_ISO_T2_8,179,1,48,43,1350494256
1117,9,Ticks_ISO_T2_8,180,5,42,127,1351268652
1117,9,Ticks_ISO_T2_8,181,1,48,43,1351270212
1117,9,Ticks_ISO_T2_8,182,5,42,127,1352068460
1117,9,Ticks_ISO_T2_8,183,1,48,43,1352084216
1117,9,Ticks_ISO_T2_8,184,5,42,127,1352869240
1117,9,Ticks_ISO_T2_8,185,1,48,45,1352876992
1117,9,Ticks_ISO_T2_8,186,5,42,127,1353668972
1117,9,Ticks_ISO_T2_8,187,1,48,43,1353726392
1117,9,Ticks_ISO_T2_8,188,5,42,127,1354468784
1117,9,Ticks_ISO_T2_8,189,1,48,35,1354491572
1117,9,Ticks_ISO_T2_8,190,5,42,127,1355268516
1117,9,Ticks_ISO_T2_8,191,1,48,46,1355283824
1117,9,Ticks_ISO_T2_8,192,1,48,44,1356045620
1117,9,Ticks_ISO_T2_8,193,5,42,127,1356069140
1117,9,Ticks_ISO_T2_8,194,1,48,47,1356762256
1117,9,Ticks_ISO_T2_8,195,5,42,127,1356869184
1117,9,Ticks_ISO_T2_8,196,5,42,127,1357668716
1117,9,Ticks_ISO_T2_8,197,1,48,43,1357686120
1117,9,Ticks_ISO_T2_8,198,5,42,127,1358468448
1117,9,Ticks_ISO_T2_8,199,1,48,43,1358473736
1117,9,Ticks_ISO_T2_8,200,5,42,127,1359269152
1117,9,Ticks_ISO_T2_8,201,1,48,41,1359300172
1117,9,Ticks_ISO_T2_8,202,1,48,51,1360058896
1117,9,Ticks_ISO_T2_8,203,5,42,127,1360068956
1117,9,Ticks_ISO_T2_8,204,1,48,53,1360823924
1117,9,Ticks_ISO_T2_8,205,5,42,127,1360868612
1117,9,Ticks_ISO_T2_8,206,5,42,127,1361668428
1117,9,Ticks_ISO_T2_8,207,1,48,50,1361673268
1117,9,Ticks_ISO_T2_8,208,5,42,127,1362469432
1117,9,Ticks_ISO_T2_8,209,1,48,46,1362553504
1117,9,Ticks_ISO_T2_8,210,1,48,36,1363211756
1117,9,Ticks_ISO_T2_8,211,5,42,127,1363269032
1117,9,Ticks_ISO_T2_8,212,1,48,34,1364009248
1117,9,Ticks_ISO_T2_8,213,5,42,127,1364068620
1117,9,Ticks_ISO_T2_8,214,5,42,127,1364868432
1117,9,Ticks_ISO_T2_8,215,1,48,43,1364907456
1117,9,Ticks_ISO_T2_8,216,5,42,127,1365669212
1117,9,Ticks_ISO_T2_8,217,1,48,43,1365742264
1117,9,Ticks_ISO_T2_8,218,1,48,41,1366467056
1117,9,Ticks_ISO_T2_8,219,5,42,127,1366469088
1117,9,Ticks_ISO_T2_8,220,1,48,39,1367254500
1117,9,Ticks_ISO_T2_8,221,5,42,127,1367268600
1117,9,Ticks_ISO_T2_8,222,1,48,39,1368046608
1117,9,Ticks_ISO_T2_8,223,5,42,127,1368068408
1117,9,Ticks_ISO_T2_8,224,1,48,35,1368814776
1117,9,Ticks_ISO_T2_8,225,5,42,127,1368869184
1117,9,Ticks_ISO_T2_8,226,1,48,47,1369599920
1117,9,Ticks_ISO_T2_8,227,5,42,127,1369669316
1117,9,Ticks_ISO_T2_8,228,1,48,41,1370453832
1117,9,Ticks_ISO_T2_8,229,5,42,127,1370468828
1117,9,Ticks_ISO_T2_8,230,5,42,127,1371268492
1117,9,Ticks_ISO_T2_8,231,1,48,36,1371326592
1117,9,Ticks_ISO_T2_8,232,1,48,43,1372060184
1117,9,Ticks_ISO_T2_8,233,5,42,127,1372069192
1117,9,Ticks_ISO_T2_8,234,1,48,47,1372832312
1117,9,Ticks_ISO_T2_8,235,5,42,127,1372869224
1117,9,Ticks_ISO_T2_8,236,1,48,48,1373583352
1117,9,Ticks_ISO_T2_8,0,9999,9999,9999,1277666372
1117,9,Ticks_ISO_T2_8,1,9999,9999,9999,1278466128
1117,9,Ticks_ISO_T2_8,2,9999,9999,9999,1279266928
1117,9,Ticks_ISO_T2_8,3,9999,9999,9999,1280066636
1117,9,Ticks_ISO_T2_8,4,9999,9999,9999,1280866384
1117,9,Ticks_ISO_T2_8,5,9999,9999,9999,1281666116
1117,9,Ticks_ISO_T2_8,6,9999,9999,9999,1282466896
1117,9,Ticks_ISO_T2_8,7,9999,9999,9999,1283266636
1117,9,Ticks_ISO_T2_8,8,9999,9999,9999,1284066416
1117,9,Ticks_ISO_T2_8,9,9999,9999,9999,1284866148
1117,9,Ticks_ISO_T2_8,10,9999,9999,9999,1285666936
1117,9,Ticks_ISO_T2_8,11,9999,9999,9999,1286466620
1117,9,Ticks_ISO_T2_8,12,9999,9999,9999,1287266420
1117,9,Ticks_ISO_T2_8,13,9999,9999,9999,1288066156
1117,9,Ticks_ISO_T2_8,14,9999,9999,9999,1288866932
1117,9,Ticks_ISO_T2_8,15,9999,9999,9999,1289666668
1117,9,Ticks_ISO_T2_8,16,9999,9999,9999,1290466408
1117,9,Ticks_ISO_T2_8,17,9999,9999,9999,1291266140
1117,9,Ticks_ISO_T2_8,18,9999,9999,9999,1292066916
1117,9,Ticks_ISO_T2_8,19,9999,9999,9999,1292866672
1117,9,Ticks_ISO_T2_8,20,9999,9999,9999,1293666404
1117,9,Ticks_ISO_T2_8,21,9999,9999,9999,1294466140
1117,9,Ticks_ISO_T2_8,22,9999,9999,9999,1295266924
1117,9,Ticks_ISO_T2_8,23,9999,9999,9999,1296066660
1117,9,Ticks_ISO_T2_8,24,9999,9999,9999,1296866388
1117,9,Ticks_ISO_T2_8,25,9999,9999,9999,1297666120
1117,9,Ticks_ISO_T2_8,26,9999,9999,9999,1298466900
1117,9,Ticks_ISO_T2_8,27,9999,9999,9999,1299266660
1117,9,Ticks_ISO_T2_8,28,9999,9999,9999,1300066392
1117,9,Ticks_ISO_T2_8,29,9999,9999,9999,1300866128
1117,9,Ticks_ISO_T2_8,30,9999,9999,9999,1301666908
1117,9,Ticks_ISO_T2_8,31,9999,9999,9999,1302466648
1117,9,Ticks_ISO_T2_8,32,9999,9999,9999,1303266384
1117,9,Ticks_ISO_T2_8,33,9999,9999,9999,1304066108
1117,9,Ticks_ISO_T2_8,34,9999,9999,9999,1304866888
1117,9,Ticks_ISO_T2_8,35,9999,9999,9999,1305666648
1117,9,Ticks_ISO_T2_8,36,9999,9999,9999,1306466380
1117,9,Ticks_ISO_T2_8,37,9999,9999,9999,1307266112
1117,9,Ticks_ISO_T2_8,38,9999,9999,9999,1308066892
1117,9,Ticks_ISO_T2_8,39,9999,9999,9999,1308866624
1117,9,Ticks_ISO_T2_8,40,9999,9999,9999,1309666364
1117,9,Ticks_ISO_T2_8,41,9999,9999,9999,1310466168
1117,9,Ticks_ISO_T2_8,42,9999,9999,9999,1311266872
1117,9,Ticks_ISO_T2_8,43,9999,9999,9999,1312066628
1117,9,Ticks_ISO_T2_8,44,9999,9999,9999,1312866364
1117,9,Ticks_ISO_T2_8,45,9999,9999,9999,1313666104
1117,9,Ticks_ISO_T2_8,46,9999,9999,9999,1314466876
1117,9,Ticks_ISO_T2_8,47,9999,9999,9999,1315266616
1117,9,Ticks_ISO_T2_8,48,9999,9999,9999,1316066416
1117,9,Ticks_ISO_T2_8,49,9999,9999,9999,1316866156
1117,9,Ticks_ISO_T2_8,50,9999,9999,9999,1317666932
1117,9,Ticks_ISO_T2_8,51,9999,9999,9999,1318466624
1117,9,Ticks_ISO_T2_8,52,9999,9999,9999,1319266424
1117,9,Ticks_ISO_T2_8,53,9999,9999,9999,1320066164
1117,9,Ticks_ISO_T2_8,54,9999,9999,9999,1320866868
1117,9,Ticks_ISO_T2_8,55,9999,9999,9999,1321666676
1117,9,Ticks_ISO_T2_8,56,9999,9999,9999,1322466404
1117,9,Ticks_ISO_T2_8,57,9999,9999,9999,1323266136
1117,9,Ticks_ISO_T2_8,58,9999,9999,9999,1324066924
1117,9,Ticks_ISO_T2_8,59,9999,9999,9999,1324866680
1117,9,Ticks_ISO_T2_8,60,9999,9999,9999,1325666412
1117,9,Ticks_ISO_T2_8,61,9999,9999,9999,1326466152
1117,9,Ticks_ISO_T2_8,62,9999,9999,9999,1327266932
1117,9,Ticks_ISO_T2_8,63,9999,9999,9999,1328066664
1117,9,Ticks_ISO_T2_8,64,9999,9999,9999,1328866392
1117,9,Ticks_ISO_T2_8,65,9999,9999,9999,1329666132
1117,9,Ticks_ISO_T2_8,66,9999,9999,9999,1330466904
1117,9,Ticks_ISO_T2_8,67,9999,9999,9999,1331266668
1117,9,Ticks_ISO_T2_8,68,9999,9999,9999,1332066396
1117,9,Ticks_ISO_T2_8,69,9999,9999,9999,1332866132
1117,9,Ticks_ISO_T2_8,70,9999,9999,9999,1333666912
1117,9,Ticks_ISO_T2_8,71,9999,9999,9999,1334466648
1117,9,Ticks_ISO_T2_8,72,9999,9999,9999,1335266380
1117,9,Ticks_ISO_T2_8,73,9999,9999,9999,1336066120
1117,9,Ticks_ISO_T2_8,74,9999,9999,9999,1336866900
1117,9,Ticks_ISO_T2_8,75,9999,9999,9999,1337666660
1117,9,Ticks_ISO_T2_8,76,9999,9999,9999,1338466392
1117,9,Ticks_ISO_T2_8,77,9999,9999,9999,1339266124
1117,9,Ticks_ISO_T2_8,78,9999,9999,9999,1340066900
1117,9,Ticks_ISO_T2_8,79,9999,9999,9999,1340866636
1117,9,Ticks_ISO_T2_8,80,9999,9999,9999,1341666368
1117,9,Ticks_ISO_T2_8,81,9999,9999,9999,1342466108
1117,9,Ticks_ISO_T2_8,82,9999,9999,9999,1343266880
1117,9,Ticks_ISO_T2_8,83,9999,9999,9999,1344066644
1117,9,Ticks_ISO_T2_8,84,9999,9999,9999,1344866372
1117,9,Ticks_ISO_T2_8,85,9999,9999,9999,1345666104
1117,9,Ticks_ISO_T2_8,86,9999,9999,9999,1346466892
1117,9,Ticks_ISO_T2_8,87,9999,9999,9999,1347266624
1117,9,Ticks_ISO_T2_8,88,9999,9999,9999,1348066424
1117,9,Ticks_ISO_T2_8,89,9999,9999,9999,1348866164
1117,9,Ticks_ISO_T2_8,90,9999,9999,9999,1349666872
1117,9,Ticks_ISO_T2_8,91,9999,9999,9999,1350466632
1117,9,Ticks_ISO_T2_8,92,9999,9999,9999,1351266364
1117,9,Ticks_ISO_T2_8,93,9999,9999,9999,1352066096
1117,9,Ticks_ISO_T2_8,94,9999,9999,9999,1352866876
1117,9,Ticks_ISO_T2_8,95,9999,9999,9999,1353666612
1117,9,Ticks_ISO_T2_8,96,9999,9999,9999,1354466420
1117,9,Ticks_ISO_T2_8,97,9999,9999,9999,1355266152
1117,9,Ticks_ISO_T2_8,98,9999,9999,9999,1356066924
1117,9,Ticks_ISO_T2_8,99,9999,9999,9999,1356866672
1117,9,Ticks_ISO_T2_8,100,9999,9999,9999,1357666352
1117,9,Ticks_ISO_T2_8,101,9999,9999,9999,1358466160
1117,9,Ticks_ISO_T2_8,102,9999,9999,9999,1359266864
1117,9,Ticks_ISO_T2_8,103,9999,9999,9999,1360066668
1117,9,Ticks_ISO_T2_8,104,9999,9999,9999,1360866400
1117,9,Ticks_ISO_T2_8,105,9999,9999,9999,1361666140
1117,9,Ticks_ISO_T2_8,106,9999,9999,9999,1362466920
1117,9,Ticks_ISO_T2_8,107,9999,9999,9999,1363266672
1117,9,Ticks_ISO_T2_8,108,9999,9999,9999,1364066404
1117,9,Ticks_ISO_T2_8,109,9999,9999,9999,1364866144
1117,9,Ticks_ISO_T2_8,110,9999,9999,9999,1365666924
1117,9,Ticks_ISO_T2_8,111,9999,9999,9999,1366466684
1117,9,Ticks_ISO_T2_8,112,9999,9999,9999,1367266384
1117,9,Ticks_ISO_T2_8,113,9999,9999,9999,1368066120
1117,9,Ticks_ISO_T2_8,114,9999,9999,9999,1368866896
1117,9,Ticks_ISO_T2_8,115,9999,9999,9999,1369666656
1117,9,Ticks_ISO_T2_8,116,9999,9999,9999,1370466392
1117,9,Ticks_ISO_T2_8,117,9999,9999,9999,1371266132
1117,9,Ticks_ISO_T2_8,118,9999,9999,9999,1372066904
1117,9,Ticks_ISO_T2_8,119,9999,9999,9999,1372866636
1118,10,Ticks_ISO_T2_5,0,5,42,127,1383332072
1118,10,Ticks_ISO_T2_5,1,5,42,127,1383832012
1118,10,Ticks_ISO_T2_5,2,5,42,127,1384332024
1118,10,Ticks_ISO_T2_5,3,5,42,127,1384832416
1118,10,Ticks_ISO_T2_5,4,5,42,127,1385332060
1118,10,Ticks_ISO_T2_5,5,1,48,54,1385352080
1118,10,Ticks_ISO_T2_5,6,5,42,127,1385832124
1118,10,Ticks_ISO_T2_5,7,1,48,59,1385873388
1118,10,Ticks_ISO_T2_5,8,5,42,127,1386331448
1118,10,Ticks_ISO_T2_5,9,1,48,54,1386336208
1118,10,Ticks_ISO_T2_5,10,5,42,127,1386832412
1118,10,Ticks_ISO_T2_5,11,1,48,55,1386835012
1118,10,Ticks_ISO_T2_5,12,1,48,56,1387313272
1118,10,Ticks_ISO_T2_5,13,5,42,127,1387331876
1118,10,Ticks_ISO_T2_5,14,1,48,58,1387772868
1118,10,Ticks_ISO_T2_5,15,5,42,127,1387831920
1118,10,Ticks_ISO_T2_5,16,5,42,127,1388332372
1118,10,Ticks_ISO_T2_5,17,1,48,47,1388353544
1118,10,Ticks_ISO_T2_5,18,5,42,127,1388831992
1118,10,Ticks_ISO_T2_5,19,1,48,48,1388873808
1118,10,Ticks_ISO_T2_5,20,5,42,127,1389332060
1118,10,Ticks_ISO_T2_5,21,1,48,46,1389342736
1118,10,Ticks_ISO_T2_5,22,1,48,55,1389823188
1118,10,Ticks_ISO_T2_5,23,5,42,127,1389831824
1118,10,Ticks_ISO_T2_5,24,1,48,50,1390279052
1118,10,Ticks_ISO_T2_5,25,5,42,127,1390332192
1118,10,Ticks_ISO_T2_5,26,1,48,30,1390336120
1118,10,Ticks_ISO_T2_5,27,5,42,127,1390831944
1118,10,Ticks_ISO_T2_5,28,1,48,45,1390843364
1118,10,Ticks_ISO_T2_5,29,5,42,127,1391331860
1118,10,Ticks_ISO_T2_5,30,1,48,44,1391360264
1118,10,Ticks_ISO_T2_5,31,5,42,127,1391832600
1118,10,Ticks_ISO_T2_5,32,1,48,44,1391848888
1118,10,Ticks_ISO_T2_5,33,1,48,51,1392330868
1118,10,Ticks_ISO_T2_5,34,5,42,127,1392332364
1118,10,Ticks_ISO_T2_5,35,1,48,44,1392800684
1118,10,Ticks_ISO_T2_5,36,5,42,127,1392831908
1118,10,Ticks_ISO_T2_5,37,5,42,127,1393331612
1118,10,Ticks_ISO_T2_5,38,1,48,39,1393351408
1118,10,Ticks_ISO_T2_5,39,5,42,127,1393832204
1118,10,Ticks_ISO_T2_5,40,1,48,40,1393833172
1118,10,Ticks_ISO_T2_5,41,1,48,40,1394314284
1118,10,Ticks_ISO_T2_5,42,5,42,127,1394331964
1118,10,Ticks_ISO_T2_5,43,1,48,45,1394808512
1118,10,Ticks_ISO_T2_5,44,5,42,127,1394831808
1118,10,Ticks_ISO_T2_5,45,1,48,46,1395303416
1118,10,Ticks_ISO_T2_5,46,5,42,127,1395331580
1118,10,Ticks_ISO_T2_5,47,1,48,50,1395786584
1118,10,Ticks_ISO_T2_5,48,5,42,127,1395832172
1118,10,Ticks_ISO_T2_5,49,1,48,48,1396278924
1118,10,Ticks_ISO_T2_5,50,5,42,127,1396331864
1118,10,Ticks_ISO_T2_5,51,1,48,46,1396789764
1118,10,Ticks_ISO_T2_5,52,5,42,127,1396831708
1118,10,Ticks_ISO_T2_5,53,1,48,42,1397325460
1118,10,Ticks_ISO_T2_5,54,5,42,127,1397332452
1118,10,Ticks_ISO_T2_5,55,1,48,46,1397831628
1118,10,Ticks_ISO_T2_5,56,5,42,127,1397833044
1118,10,Ticks_ISO_T2_5,57,1,48,47,1398314428
1118,10,Ticks_ISO_T2_5,58,5,42,127,1398331816
1118,10,Ticks_ISO_T2_5,59,1,48,46,1398819184
1118,10,Ticks_ISO_T2_5,60,5,42,127,1398831484
1118,10,Ticks_ISO_T2_5,61,5,42,127,1399332236
1118,10,Ticks_ISO_T2_5,62,1,48,37,1399334900
1118,10,Ticks_ISO_T2_5,63,5,42,127,1399831852
1118,10,Ticks_ISO_T2_5,64,1,48,44,1399859128
1118,10,Ticks_ISO_T2_5,65,1,48,40,1400305624
1118,10,Ticks_ISO_T2_5,66,5,42,127,1400331692
1118,10,Ticks_ISO_T2_5,67,1,48,37,1400804048
1118,10,Ticks_ISO_T2_5,68,5,42,127,1400832432
1118,10,Ticks_ISO_T2_5,69,1,48,43,1401300676
1118,10,Ticks_ISO_T2_5,70,5,42,127,1401332052
1118,10,Ticks_ISO_T2_5,71,1,48,46,1401829168
1118,10,Ticks_ISO_T2_5,72,5,42,127,1401831748
1118,10,Ticks_ISO_T2_5,73,1,48,45,1402329556
1118,10,Ticks_ISO_T2_5,74,5,42,127,1402331516
1118,10,Ticks_ISO_T2_5,75,1,48,37,1402780692
1118,10,Ticks_ISO_T2_5,76,5,42,127,1402832184
1118,10,Ticks_ISO_T2_5,77,1,48,44,1403324440
1118,10,Ticks_ISO_T2_5,78,5,42,127,1403331876
1118,10,Ticks_ISO_T2_5,79,1,48,40,1403831272
1118,10,Ticks_ISO_T2_5,80,5,42,127,1403832764
1118,10,Ticks_ISO_T2_5,81,5,42,127,1404332544
1118,10,Ticks_ISO_T2_5,82,1,48,44,1404345084
1118,10,Ticks_ISO_T2_5,83,5,42,127,1404832236
1118,10,Ticks_ISO_T2_5,84,1,48,37,1404852708
1118,10,Ticks_ISO_T2_5,85,1,48,47,1405304588
1118,10,Ticks_ISO_T2_5,86,5,42,127,1405331776
1118,10,Ticks_ISO_T2_5,87,1,48,46,1405802644
1118,10,Ticks_ISO_T2_5,88,5,42,127,1405831620
1118,10,Ticks_ISO_T2_5,89,1,48,47,1406309516
1118,10,Ticks_ISO_T2_5,90,5,42,127,1406332288
1118,10,Ticks_ISO_T2_5,91,5,42,127,1406831988
1118,10,Ticks_ISO_T2_5,92,1,48,49,1406836080
1118,10,Ticks_ISO_T2_5,93,1,48,41,1407330552
1118,10,Ticks_ISO_T2_5,94,5,42,127,1407331900
1118,10,Ticks_ISO_T2_5,95,5,42,127,1407832572
1118,10,Ticks_ISO_T2_5,96,1,48,46,1407840704
1118,10,Ticks_ISO_T2_5,97,1,48,47,1408301092
1118,10,Ticks_ISO_T2_5,98,5,42,127,1408332040
1118,10,Ticks_ISO_T2_5,99,1,48,42,1408816112
1118,10,Ticks_ISO_T2_5,100,5,42,127,1408831880
1118,10,Ticks_ISO_T2_5,101,5,42,127,1409331632
1118,10,Ticks_ISO_T2_5,102,1,48,45,1409340468
1118,10,Ticks_ISO_T2_5,103,1,48,50,1409826796
1118,10,Ticks_ISO_T2_5,104,5,42,127,1409832592
1118,10,Ticks_ISO_T2_5,105,5,42,127,1410331996
1118,10,Ticks_ISO_T2_5,106,1,48,48,1410341472
1118,10,Ticks_ISO_T2_5,107,1,48,49,1410809808
1118,10,Ticks_ISO_T2_5,108,5,42,127,1410831684
1118,10,Ticks_ISO_T2_5,109,5,42,127,1411331536
1118,10,Ticks_ISO_T2_5,110,1,48,40,1411334052
1118,10,Ticks_ISO_T2_5,111,1,48,46,1411802316
1118,10,Ticks_ISO_T2_5,112,5,42,127,1411832044
1118,10,Ticks_ISO_T2_5,113,1,48,49,1412322056
1118,10,Ticks_ISO_T2_5,114,5,42,127,1412331816
1118,10,Ticks_ISO_T2_5,115,5,42,127,1412831664
1118,10,Ticks_ISO_T2_5,116,1,48,46,1412849744
1118,10,Ticks_ISO_T2_5,117,5,42,127,1413332552
1118,10,Ticks_ISO_T2_5,118,1,48,50,1413343828
1118,10,Ticks_ISO_T2_5,119,1,48,47,1413809696
1118,10,Ticks_ISO_T2_5,120,5,42,127,1413832020
1118,10,Ticks_ISO_T2_5,121,1,48,49,1414294504
1118,10,Ticks_ISO_T2_5,122,5,42,127,1414331712
1118,10,Ticks_ISO_T2_5,123,1,48,51,1414807512
1118,10,Ticks_ISO_T2_5,124,5,42,127,1414831560
1118,10,Ticks_ISO_T2_5,125,1,48,49,1415295320
1118,10,Ticks_ISO_T2_5,126,5,42,127,1415332524
1118,10,Ticks_ISO_T2_5,127,1,48,53,1415813112
1118,10,Ticks_ISO_T2_5,128,5,42,127,1415831848
1118,10,Ticks_ISO_T2_5,129,1,48,42,1416312284
1118,10,Ticks_ISO_T2_5,130,5,42,127,1416331764
1118,10,Ticks_ISO_T2_5,131,1,48,53,1416794924
1118,10,Ticks_ISO_T2_5,132,5,42,127,1416832360
1118,10,Ticks_ISO_T2_5,133,1,48,48,1417298216
1118,10,Ticks_ISO_T2_5,134,5,42,127,1417332204
1118,10,Ticks_ISO_T2_5,135,1,48,53,1417803144
1118,10,Ticks_ISO_T2_5,136,5,42,127,1417831752
1118,10,Ticks_ISO_T2_5,137,1,48,50,1418288528
1118,10,Ticks_ISO_T2_5,138,5,42,127,1418331520
1118,10,Ticks_ISO_T2_5,139,1,48,54,1418794432
1118,10,Ticks_ISO_T2_5,140,5,42,127,1418832336
1118,10,Ticks_ISO_T2_5,141,1,48,46,1419286416
1118,10,Ticks_ISO_T2_5,142,5,42,127,1419331808
1118,10,Ticks_ISO_T2_5,143,1,48,43,1419784620
1118,10,Ticks_ISO_T2_5,144,5,42,127,1419831552
1118,10,Ticks_ISO_T2_5,145,1,48,45,1420281172
1118,10,Ticks_ISO_T2_5,146,5,42,127,1420332368
1118,10,Ticks_ISO_T2_5,147,1,48,47,1420782060
1118,10,Ticks_ISO_T2_5,148,5,42,127,1420832208
1118,10,Ticks_ISO_T2_5,149,1,48,44,1421315864
1118,10,Ticks_ISO_T2_5,150,5,42,127,1421331756
1118,10,Ticks_ISO_T2_5,151,5,42,127,1421831604
1118,10,Ticks_ISO_T2_5,152,1,48,52,1421833976
1118,10,Ticks_ISO_T2_5,153,5,42,127,1422332348
1118,10,Ticks_ISO_T2_5,154,1,48,53,1422348632
1118,10,Ticks_ISO_T2_5,155,5,42,127,1422832188
1118,10,Ticks_ISO_T2_5,156,1,48,46,1422833156
1118,10,Ticks_ISO_T2_5,157,1,48,49,1423323692
1118,10,Ticks_ISO_T2_5,158,5,42,127,1423331656
1118,10,Ticks_ISO_T2_5,159,1,48,47,1423810296
1118,10,Ticks_ISO_T2_5,160,5,42,127,1423832472
1118,10,Ticks_ISO_T2_5,161,1,48,48,1424275736
1118,10,Ticks_ISO_T2_5,162,5,42,127,1424332240
1118,10,Ticks_ISO_T2_5,163,5,42,127,1424831720
1118,10,Ticks_ISO_T2_5,164,1,48,46,1424845984
1118,10,Ticks_ISO_T2_5,165,5,42,127,1425331640
1118,10,Ticks_ISO_T2_5,166,1,48,40,1425376192
1118,10,Ticks_ISO_T2_5,167,5,42,127,1425832380
1118,10,Ticks_ISO_T2_5,168,1,48,40,1425834900
1118,10,Ticks_ISO_T2_5,169,1,48,51,1426313856
1118,10,Ticks_ISO_T2_5,170,5,42,127,1426331992
1118,10,Ticks_ISO_T2_5,171,1,48,47,1426816768
1118,10,Ticks_ISO_T2_5,172,5,42,127,1426831612
1118,10,Ticks_ISO_T2_5,173,5,42,127,1427331388
1118,10,Ticks_ISO_T2_5,174,1,48,37,1427334952
1118,10,Ticks_ISO_T2_5,175,5,42,127,1427832352
1118,10,Ticks_ISO_T2_5,176,1,48,53,1427840780
1118,10,Ticks_ISO_T2_5,177,1,48,44,1428324532
1118,10,Ticks_ISO_T2_5,178,5,42,127,1428331968
1118,10,Ticks_ISO_T2_5,179,1,48,46,1428817564
1118,10,Ticks_ISO_T2_5,180,5,42,127,1428831588
1118,10,Ticks_ISO_T2_5,181,1,48,47,1429321752
1118,10,Ticks_ISO_T2_5,182,5,42,127,1429332328
1118,10,Ticks_ISO_T2_5,183,1,48,51,1429778712
1118,10,Ticks_ISO_T2_5,184,5,42,127,1429832172
1118,10,Ticks_ISO_T2_5,185,5,42,127,1430331724
1118,10,Ticks_ISO_T2_5,186,1,48,38,1430334392
1118,10,Ticks_ISO_T2_5,187,1,48,43,1430819608
1118,10,Ticks_ISO_T2_5,188,5,42,127,1430831460
1118,10,Ticks_ISO_T2_5,189,1,48,47,1431271588
1118,10,Ticks_ISO_T2_5,190,5,42,127,1431332280
1118,10,Ticks_ISO_T2_5,191,1,48,24,1431828952
1118,10,Ticks_ISO_T2_5,192,5,42,127,1431832128
1118,10,Ticks_ISO_T2_5,193,1,48,48,1432306280
1118,10,Ticks_ISO_T2_5,194,5,42,127,1432331596
1118,10,Ticks_ISO_T2_5,195,1,48,45,1432798196
1118,10,Ticks_ISO_T2_5,196,5,42,127,1432832264
1118,10,Ticks_ISO_T2_5,197,1,48,49,1433324600
1118,10,Ticks_ISO_T2_5,198,5,42,127,1433332184
1118,10,Ticks_ISO_T2_5,199,1,48,45,1433812104
1118,10,Ticks_ISO_T2_5,200,5,42,127,1433831732
1118,10,Ticks_ISO_T2_5,201,1,48,55,1434315532
1118,10,Ticks_ISO_T2_5,202,5,42,127,1434331500
1118,10,Ticks_ISO_T2_5,203,1,48,42,1434821288
1118,10,Ticks_ISO_T2_5,204,5,42,127,1434832244
1118,10,Ticks_ISO_T2_5,205,1,48,48,1435299068
1118,10,Ticks_ISO_T2_5,206,5,42,127,1435332084
1118,10,Ticks_ISO_T2_5,207,1,48,49,1435819256
1118,10,Ticks_ISO_T2_5,208,5,42,127,1435831556
1118,10,Ticks_ISO_T2_5,209,1,48,51,1436322240
1118,10,Ticks_ISO_T2_5,210,5,42,127,1436332300
1118,10,Ticks_ISO_T2_5,211,1,48,40,1436804136
1118,10,Ticks_ISO_T2_5,212,5,42,127,1436832216
1118,10,Ticks_ISO_T2_5,213,1,48,52,1437287372
1118,10,Ticks_ISO_T2_5,214,5,42,127,1437331760
1118,10,Ticks_ISO_T2_5,215,1,48,32,1437811004
1118,10,Ticks_ISO_T2_5,216,5,42,127,1437831384
1118,10,Ticks_ISO_T2_5,217,1,48,47,1438278836
1118,10,Ticks_ISO_T2_5,218,5,42,127,1438332124
1118,10,Ticks_ISO_T2_5,219,1,48,49,1438771696
1118,10,Ticks_ISO_T2_5,220,5,42,127,1438831968
1118,10,Ticks_ISO_T2_5,221,1,48,54,1439248728
1118,10,Ticks_ISO_T2_5,222,5,42,127,1439331664
1118,10,Ticks_ISO_T2_5,223,1,48,39,1439830820
1118,10,Ticks_ISO_T2_5,224,5,42,127,1439832328
1118,10,Ticks_ISO_T2_5,225,1,48,50,1440329444
1118,10,Ticks_ISO_T2_5,226,5,42,127,1440332172
1118,10,Ticks_ISO_T2_5,227,1,48,45,1440798596
1118,10,Ticks_ISO_T2_5,228,5,42,127,1440831940
1118,10,Ticks_ISO_T2_5,229,5,42,127,1441331544
1118,10,Ticks_ISO_T2_5,230,1,48,46,1441339100
1118,10,Ticks_ISO_T2_5,231,1,48,48,1441818556
1118,10,Ticks_ISO_T2_5,232,5,42,127,1441832276
1118,10,Ticks_ISO_T2_5,233,1,48,52,1442306880
1118,10,Ticks_ISO_T2_5,234,5,42,127,1442332268
1118,10,Ticks_ISO_T2_5,235,1,48,44,1442813308
1118,10,Ticks_ISO_T2_5,236,5,42,127,1442831744
1118,10,Ticks_ISO_T2_5,237,1,48,47,1443310616
1118,10,Ticks_ISO_T2_5,238,5,42,127,1443331364
1118,10,Ticks_ISO_T2_5,239,1,48,48,1443764532
1118,10,Ticks_ISO_T2_5,240,5,42,127,1443832180
1118,10,Ticks_ISO_T2_5,241,5,42,127,1444332032
1118,10,Ticks_ISO_T2_5,242,1,48,46,1444354596
1118,10,Ticks_ISO_T2_5,243,5,42,127,1444831652
1118,10,Ticks_ISO_T2_5,244,1,48,37,1444852800
1118,10,Ticks_ISO_T2_5,245,1,48,43,1445308496
1118,10,Ticks_ISO_T2_5,246,5,42,127,1445332388
1118,10,Ticks_ISO_T2_5,247,1,48,46,1445816344
1118,10,Ticks_ISO_T2_5,248,5,42,127,1445832228
1118,10,Ticks_ISO_T2_5,249,1,48,48,1446288736
1118,10,Ticks_ISO_T2_5,250,5,42,127,1446332000
1118,10,Ticks_ISO_T2_5,251,1,48,50,1446768456
1118,10,Ticks_ISO_T2_5,252,5,42,127,1446831544
1118,10,Ticks_ISO_T2_5,253,1,48,48,1447309740
1118,10,Ticks_ISO_T2_5,254,5,42,127,1447332288
1118,10,Ticks_ISO_T2_5,255,1,48,50,1447784904
1118,10,Ticks_ISO_T2_5,256,5,42,127,1447832132
1118,10,Ticks_ISO_T2_5,257,1,48,39,1448263500
1118,10,Ticks_ISO_T2_5,0,9999,9999,9999,1383329860
1118,10,Ticks_ISO_T2_5,1,9999,9999,9999,1383829576
1118,10,Ticks_ISO_T2_5,2,9999,9999,9999,1384329292
1118,10,Ticks_ISO_T2_5,3,9999,9999,9999,1384830056
1118,10,Ticks_ISO_T2_5,4,9999,9999,9999,1385329772
1118,10,Ticks_ISO_T2_5,5,9999,9999,9999,1385829468
1118,10,Ticks_ISO_T2_5,6,9999,9999,9999,1386329160
1118,10,Ticks_ISO_T2_5,7,9999,9999,9999,1386829904
1118,10,Ticks_ISO_T2_5,8,9999,9999,9999,1387329592
1118,10,Ticks_ISO_T2_5,9,9999,9999,9999,1387829336
1118,10,Ticks_ISO_T2_5,10,9999,9999,9999,1388330084
1118,10,Ticks_ISO_T2_5,11,9999,9999,9999,1388829780
1118,10,Ticks_ISO_T2_5,12,9999,9999,9999,1389329476
1118,10,Ticks_ISO_T2_5,13,9999,9999,9999,1389829240
1118,10,Ticks_ISO_T2_5,14,9999,9999,9999,1390329904
1118,10,Ticks_ISO_T2_5,15,9999,9999,9999,1390829660
1118,10,Ticks_ISO_T2_5,16,9999,9999,9999,1391329352
1118,10,Ticks_ISO_T2_5,17,9999,9999,9999,1391830092
1118,10,Ticks_ISO_T2_5,18,9999,9999,9999,1392329788
1118,10,Ticks_ISO_T2_5,19,9999,9999,9999,1392829548
1118,10,Ticks_ISO_T2_5,20,9999,9999,9999,1393329252
1118,10,Ticks_ISO_T2_5,21,9999,9999,9999,1393829992
1118,10,Ticks_ISO_T2_5,22,9999,9999,9999,1394329680
1118,10,Ticks_ISO_T2_5,23,9999,9999,9999,1394829376
1118,10,Ticks_ISO_T2_5,24,9999,9999,9999,1395329144
1118,10,Ticks_ISO_T2_5,25,9999,9999,9999,1395829812
1118,10,Ticks_ISO_T2_5,26,9999,9999,9999,1396329580
1118,10,Ticks_ISO_T2_5,27,9999,9999,9999,1396829272
1118,10,Ticks_ISO_T2_5,28,9999,9999,9999,1397330016
1118,10,Ticks_ISO_T2_5,29,9999,9999,9999,1397829716
1118,10,Ticks_ISO_T2_5,30,9999,9999,9999,1398329456
1118,10,Ticks_ISO_T2_5,31,9999,9999,9999,1398829124
1118,10,Ticks_ISO_T2_5,32,9999,9999,9999,1399329872
1118,10,Ticks_ISO_T2_5,33,9999,9999,9999,1399829568
1118,10,Ticks_ISO_T2_5,34,9999,9999,9999,1400329332
1118,10,Ticks_ISO_T2_5,35,9999,9999,9999,1400830072
1118,10,Ticks_ISO_T2_5,36,9999,9999,9999,1401329764
1118,10,Ticks_ISO_T2_5,37,9999,9999,9999,1401829460
1118,10,Ticks_ISO_T2_5,38,9999,9999,9999,1402329184
1118,10,Ticks_ISO_T2_5,39,9999,9999,9999,1402829896
1118,10,Ticks_ISO_T2_5,40,9999,9999,9999,1403329592
1118,10,Ticks_ISO_T2_5,41,9999,9999,9999,1403829364
1118,10,Ticks_ISO_T2_5,42,9999,9999,9999,1404330032
1118,10,Ticks_ISO_T2_5,43,9999,9999,9999,1404829800
1118,10,Ticks_ISO_T2_5,44,9999,9999,9999,1405329488
1118,10,Ticks_ISO_T2_5,45,9999,9999,9999,1405829188
1118,10,Ticks_ISO_T2_5,46,9999,9999,9999,1406329928
1118,10,Ticks_ISO_T2_5,47,9999,9999,9999,1406829628
1118,10,Ticks_ISO_T2_5,48,9999,9999,9999,1407329396
1118,10,Ticks_ISO_T2_5,49,9999,9999,9999,1407830064
1118,10,Ticks_ISO_T2_5,50,9999,9999,9999,1408329828
1118,10,Ticks_ISO_T2_5,51,9999,9999,9999,1408829520
1118,10,Ticks_ISO_T2_5,52,9999,9999,9999,1409329272
1118,10,Ticks_ISO_T2_5,53,9999,9999,9999,1409830008
1118,10,Ticks_ISO_T2_5,54,9999,9999,9999,1410329708
1118,10,Ticks_ISO_T2_5,55,9999,9999,9999,1410829396
1118,10,Ticks_ISO_T2_5,56,9999,9999,9999,1411329100
1118,10,Ticks_ISO_T2_5,57,9999,9999,9999,1411829832
1118,10,Ticks_ISO_T2_5,58,9999,9999,9999,1412329528
1118,10,Ticks_ISO_T2_5,59,9999,9999,9999,1412829304
1118,10,Ticks_ISO_T2_5,60,9999,9999,9999,1413329968
1118,10,Ticks_ISO_T2_5,61,9999,9999,9999,1413829732
1118,10,Ticks_ISO_T2_5,62,9999,9999,9999,1414329428
1118,10,Ticks_ISO_T2_5,63,9999,9999,9999,1414829124
1118,10,Ticks_ISO_T2_5,64,9999,9999,9999,1415329868
1118,10,Ticks_ISO_T2_5,65,9999,9999,9999,1415829560
1118,10,Ticks_ISO_T2_5,66,9999,9999,9999,1416329332
1118,10,Ticks_ISO_T2_5,67,9999,9999,9999,1416830072
1118,10,Ticks_ISO_T2_5,68,9999,9999,9999,1417329768
1118,10,Ticks_ISO_T2_5,69,9999,9999,9999,1417829464
1118,10,Ticks_ISO_T2_5,70,9999,9999,9999,1418329156
1118,10,Ticks_ISO_T2_5,71,9999,9999,9999,1418829900
1118,10,Ticks_ISO_T2_5,72,9999,9999,9999,1419329596
1118,10,Ticks_ISO_T2_5,73,9999,9999,9999,1419829340
1118,10,Ticks_ISO_T2_5,74,9999,9999,9999,1420330080
1118,10,Ticks_ISO_T2_5,75,9999,9999,9999,1420829776
1118,10,Ticks_ISO_T2_5,76,9999,9999,9999,1421329468
1118,10,Ticks_ISO_T2_5,77,9999,9999,9999,1421829172
1118,10,Ticks_ISO_T2_5,78,9999,9999,9999,1422329912
1118,10,Ticks_ISO_T2_5,79,9999,9999,9999,1422829680
1118,10,Ticks_ISO_T2_5,80,9999,9999,9999,1423329368
1118,10,Ticks_ISO_T2_5,81,9999,9999,9999,1423830112
1118,10,Ticks_ISO_T2_5,82,9999,9999,9999,1424329804
1118,10,Ticks_ISO_T2_5,83,9999,9999,9999,1424829508
1118,10,Ticks_ISO_T2_5,84,9999,9999,9999,1425329204
1118,10,Ticks_ISO_T2_5,85,9999,9999,9999,1425829944
1118,10,Ticks_ISO_T2_5,86,9999,9999,9999,1426329704
1118,10,Ticks_ISO_T2_5,87,9999,9999,9999,1426829400
1118,10,Ticks_ISO_T2_5,88,9999,9999,9999,1427329104
1118,10,Ticks_ISO_T2_5,89,9999,9999,9999,1427829844
1118,10,Ticks_ISO_T2_5,90,9999,9999,9999,1428329532
1118,10,Ticks_ISO_T2_5,91,9999,9999,9999,1428829300
1118,10,Ticks_ISO_T2_5,92,9999,9999,9999,1429330040
1118,10,Ticks_ISO_T2_5,93,9999,9999,9999,1429829736
1118,10,Ticks_ISO_T2_5,94,9999,9999,9999,1430329412
1118,10,Ticks_ISO_T2_5,95,9999,9999,9999,1430829176
1118,10,Ticks_ISO_T2_5,96,9999,9999,9999,1431329844
1118,10,Ticks_ISO_T2_5,97,9999,9999,9999,1431829616
1118,10,Ticks_ISO_T2_5,98,9999,9999,9999,1432329312
1118,10,Ticks_ISO_T2_5,99,9999,9999,9999,1432830052
1118,10,Ticks_ISO_T2_5,100,9999,9999,9999,1433329752
1118,10,Ticks_ISO_T2_5,101,9999,9999,9999,1433829444
1118,10,Ticks_ISO_T2_5,102,9999,9999,9999,1434329140
1118,10,Ticks_ISO_T2_5,103,9999,9999,9999,1434829884
1118,10,Ticks_ISO_T2_5,104,9999,9999,9999,1435329652
1118,10,Ticks_ISO_T2_5,105,9999,9999,9999,1435829344
1118,10,Ticks_ISO_T2_5,106,9999,9999,9999,1436330088
1118,10,Ticks_ISO_T2_5,107,9999,9999,9999,1436829780
1118,10,Ticks_ISO_T2_5,108,9999,9999,9999,1437329476
1118,10,Ticks_ISO_T2_5,109,9999,9999,9999,1437829172
1118,10,Ticks_ISO_T2_5,110,9999,9999,9999,1438329912
1118,10,Ticks_ISO_T2_5,111,9999,9999,9999,1438829680
1118,10,Ticks_ISO_T2_5,112,9999,9999,9999,1439329376
1118,10,Ticks_ISO_T2_5,113,9999,9999,9999,1439830128
1118,10,Ticks_ISO_T2_5,114,9999,9999,9999,1440329812
1118,10,Ticks_ISO_T2_5,115,9999,9999,9999,1440829504
1118,10,Ticks_ISO_T2_5,116,9999,9999,9999,1441329256
1118,10,Ticks_ISO_T2_5,117,9999,9999,9999,1441829992
1118,10,Ticks_ISO_T2_5,118,9999,9999,9999,1442329688
1118,10,Ticks_ISO_T2_5,119,9999,9999,9999,1442829384
1118,10,Ticks_ISO_T2_5,120,9999,9999,9999,1443329080
1118,10,Ticks_ISO_T2_5,121,9999,9999,9999,1443829820
1118,10,Ticks_ISO_T2_5,122,9999,9999,9999,1444329520
1118,10,Ticks_ISO_T2_5,123,9999,9999,9999,1444829288
1118,10,Ticks_ISO_T2_5,124,9999,9999,9999,1445330024
1118,10,Ticks_ISO_T2_5,125,9999,9999,9999,1445829720
1118,10,Ticks_ISO_T2_5,126,9999,9999,9999,1446329416
1118,10,Ticks_ISO_T2_5,127,9999,9999,9999,1446829108
1118,10,Ticks_ISO_T2_5,128,9999,9999,9999,1447329852
1118,10,Ticks_ISO_T2_5,129,9999,9999,9999,1447829624
1119,22,Ticks_Phase_8,0,5,42,127,1458859272
1119,22,Ticks_Phase_8,1,5,42,127,1459659228
1119,22,Ticks_Phase_8,2,5,42,127,1460458964
1119,22,Ticks_Phase_8,3,1,48,28,1460514348
1119,22,Ticks_Phase_8,4,5,42,127,1461258820
1119,22,Ticks_Phase_8,5,1,48,46,1461267412
1119,22,Ticks_Phase_8,6,5,42,127,1462059432
1119,22,Ticks_Phase_8,7,1,48,43,1462085408
1119,22,Ticks_Phase_8,8,5,42,127,1462859092
1119,22,Ticks_Phase_8,9,1,48,50,1462861912
1119,22,Ticks_Phase_8,10,1,48,43,1463648960
1119,22,Ticks_Phase_8,11,5,42,127,1463658948
1119,22,Ticks_Phase_8,12,1,48,44,1464438116
1119,22,Ticks_Phase_8,13,5,42,127,1464458884
1119,22,Ticks_Phase_8,14,1,48,45,1465222320
1119,22,Ticks_Phase_8,15,5,42,127,1465259344
1119,22,Ticks_Phase_8,16,1,48,41,1466035208
1119,22,Ticks_Phase_8,17,5,42,127,1466059056
1119,22,Ticks_Phase_8,18,1,48,43,1466849528
1119,22,Ticks_Phase_8,19,5,42,127,1466858840
1119,22,Ticks_Phase_8,20,5,42,127,1467658856
1119,22,Ticks_Phase_8,21,1,48,44,1467669768
1119,22,Ticks_Phase_8,22,5,42,127,1468459468
1119,22,Ticks_Phase_8,23,1,48,44,1468466788
1119,22,Ticks_Phase_8,24,5,42,127,1469258980
1119,22,Ticks_Phase_8,25,1,48,48,1469278652
1119,22,Ticks_Phase_8,26,1,48,43,1470058388
1119,22,Ticks_Phase_8,27,5,42,127,1470059880
1119,22,Ticks_Phase_8,28,5,42,127,1470858776
1119,22,Ticks_Phase_8,29,1,48,47,1470861820
1119,22,Ticks_Phase_8,30,1,48,48,1471620188
1119,22,Ticks_Phase_8,31,5,42,127,1471659456
1119,22,Ticks_Phase_8,32,1,48,50,1472435396
1119,22,Ticks_Phase_8,33,5,42,127,1472459092
1119,22,Ticks_Phase_8,34,5,42,127,1473258812
1119,22,Ticks_Phase_8,35,1,48,49,1473274652
1119,22,Ticks_Phase_8,36,5,42,127,1474058672
1119,22,Ticks_Phase_8,37,1,48,44,1474066052
1119,22,Ticks_Phase_8,38,5,42,127,1474859356
1119,22,Ticks_Phase_8,39,1,48,46,1474885112
1119,22,Ticks_Phase_8,40,1,48,46,1475634912
1119,22,Ticks_Phase_8,41,5,42,127,1475659088
1119,22,Ticks_Phase_8,42,5,42,127,1476458808
1119,22,Ticks_Phase_8,43,1,48,42,1476465812
1119,22,Ticks_Phase_8,44,5,42,127,1477258740
1119,22,Ticks_Phase_8,45,1,48,51,1477285740
1119,22,Ticks_Phase_8,46,5,42,127,1478059500
1119,22,Ticks_Phase_8,47,1,48,43,1478079624
1119,22,Ticks_Phase_8,48,1,48,40,1478840684
1119,22,Ticks_Phase_8,49,5,42,127,1478859060
1119,22,Ticks_Phase_8,50,1,48,51,1479645552
1119,22,Ticks_Phase_8,51,5,42,127,1479658772
1119,22,Ticks_Phase_8,52,1,48,55,1480443468
1119,22,Ticks_Phase_8,53,5,42,127,1480458632
1119,22,Ticks_Phase_8,54,1,48,52,1481254484
1119,22,Ticks_Phase_8,55,5,42,127,1481259536
1119,22,Ticks_Phase_8,56,1,48,56,1482012560
1119,22,Ticks_Phase_8,57,5,42,127,1482059124
1119,22,Ticks_Phase_8,58,5,42,127,1482839748
1119,22,Ticks_Phase_8,59,1,48,52,1482861068
1119,22,Ticks_Phase_8,60,5,42,127,1483639160
1119,22,Ticks_Phase_8,61,1,48,45,1483680624
1119,22,Ticks_Phase_8,62,1,48,49,1484438044
1119,22,Ticks_Phase_8,63,5,42,127,1484439616
1119,22,Ticks_Phase_8,64,1,48,53,1485237068
1119,22,Ticks_Phase_8,65,5,42,127,1485238652
1119,22,Ticks_Phase_8,66,5,42,127,1486039492
1119,22,Ticks_Phase_8,67,1,48,53,1486074436
1119,22,Ticks_Phase_8,68,1,48,49,1486775280
1119,22,Ticks_Phase_8,69,5,42,127,1486839048
1119,22,Ticks_Phase_8,70,1,48,48,1487630264
1119,22,Ticks_Phase_8,71,5,42,127,1487638908
1119,22,Ticks_Phase_8,72,5,42,127,1488438628
1119,22,Ticks_Phase_8,73,1,48,50,1488476900
1119,22,Ticks_Phase_8,74,1,48,49,1489228820
1119,22,Ticks_Phase_8,75,5,42,127,1489239552
1119,22,Ticks_Phase_8,76,1,48,47,1490024556
1119,22,Ticks_Phase_8,77,5,42,127,1490039116
1119,22,Ticks_Phase_8,78,1,48,48,1490805536
1119,22,Ticks_Phase_8,79,5,42,127,1490838828
1119,22,Ticks_Phase_8,80,1,48,46,1491595444
1119,22,Ticks_Phase_8,81,5,42,127,1491638688
1119,22,Ticks_Phase_8,82,1,48,44,1492422940
1119,22,Ticks_Phase_8,83,5,42,127,1492439520
1119,22,Ticks_Phase_8,84,5,42,127,1493239016
1119,22,Ticks_Phase_8,85,1,48,40,1493243628
1119,22,Ticks_Phase_8,86,1,48,47,1494002440
1119,22,Ticks_Phase_8,87,5,42,127,1494038872
1119,22,Ticks_Phase_8,88,1,48,43,1494814132
1119,22,Ticks_Phase_8,89,5,42,127,1494838508
1119,22,Ticks_Phase_8,90,1,48,49,1495629380
1119,22,Ticks_Phase_8,91,5,42,127,1495639364
1119,22,Ticks_Phase_8,92,1,48,43,1496421600
1119,22,Ticks_Phase_8,93,5,42,127,1496439152
1119,22,Ticks_Phase_8,94,1,48,47,1497255748
1119,22,Ticks_Phase_8,95,5,42,127,1497259456
1119,22,Ticks_Phase_8,96,5,42,127,1498059252
1119,22,Ticks_Phase_8,97,1,48,43,1498118468
1119,22,Ticks_Phase_8,98,5,42,127,1498858964
1119,22,Ticks_Phase_8,99,1,48,46,1498882304
1119,22,Ticks_Phase_8,100,5,42,127,1499658528
1119,22,Ticks_Phase_8,101,1,48,43,1499679024
1119,22,Ticks_Phase_8,102,1,48,43,1500455272
1119,22,Ticks_Phase_8,103,5,42,127,1500459428
1119,22,Ticks_Phase_8,104,5,42,127,1501259244
1119,22,Ticks_Phase_8,105,1,48,51,1501267608
1119,22,Ticks_Phase_8,106,5,42,127,1502058804
1119,22,Ticks_Phase_8,107,1,48,51,1502069044
1119,22,Ticks_Phase_8,108,1,48,47,1502848820
1119,22,Ticks_Phase_8,109,5,42,127,1502858660
1119,22,Ticks_Phase_8,110,5,42,127,1503659348
1119,22,Ticks_Phase_8,111,1,48,42,1503675716
1119,22,Ticks_Phase_8,112,1,48,47,1504445912
1119,22,Ticks_Phase_8,113,5,42,127,1504459204
1119,22,Ticks_Phase_8,114,1,48,44,1505181152
1119,22,Ticks_Phase_8,115,5,42,127,1505258840
1119,22,Ticks_Phase_8,116,1,48,40,1506053724
1119,22,Ticks_Phase_8,117,5,42,127,1506058552
1119,22,Ticks_Phase_8,118,1,48,49,1506830752
1119,22,Ticks_Phase_8,119,5,42,127,1506859388
1119,22,Ticks_Phase_8,120,1,48,48,1507640000
1119,22,Ticks_Phase_8,121,5,42,127,1507659200
1119,22,Ticks_Phase_8,122,5,42,127,1508458848
1119,22,Ticks_Phase_8,123,1,48,53,1508471104
1119,22,Ticks_Phase_8,124,1,48,47,1509257192
1119,22,Ticks_Phase_8,125,5,42,127,1509258552
1119,22,Ticks_Phase_8,126,1,48,37,1510095148
1119,22,Ticks_Phase_8,127,5,42,127,1510099452
1119,22,Ticks_Phase_8,128,1,48,40,1510886244
1119,22,Ticks_Phase_8,129,5,42,127,1510899160
1119,22,Ticks_Phase_8,130,5,42,127,1511698880
1119,22,Ticks_Phase_8,131,1,48,46,1511751224
1119,22,Ticks_Phase_8,132,1,48,46,1512477368
1119,22,Ticks_Phase_8,133,5,42,127,1512498512
1119,22,Ticks_Phase_8,134,1,48,45,1513258580
1119,22,Ticks_Phase_8,135,5,42,127,1513299368
1119,22,Ticks_Phase_8,136,5,42,127,1514099236
1119,22,Ticks_Phase_8,137,1,48,46,1514101836
1119,22,Ticks_Phase_8,138,1,48,44,1514882436
1119,22,Ticks_Phase_8,139,5,42,127,1514898720
1119,22,Ticks_Phase_8,140,5,42,127,1515698588
1119,22,Ticks_Phase_8,141,1,48,39,1515737732
1119,22,Ticks_Phase_8,142,1,48,46,1516476556
1119,22,Ticks_Phase_8,143,5,42,127,1516499340
1119,22,Ticks_Phase_8,144,5,42,127,1517299132
1119,22,Ticks_Phase_8,145,1,48,48,1517324640
1119,22,Ticks_Phase_8,146,1,48,35,1518092740
1119,22,Ticks_Phase_8,147,5,42,127,1518098764
1119,22,Ticks_Phase_8,148,5,42,127,1518898408
1119,22,Ticks_Phase_8,149,1,48,47,1518954412
1119,22,Ticks_Phase_8,150,5,42,127,1519699340
1119,22,Ticks_Phase_8,151,1,48,35,1519716624
1119,22,Ticks_Phase_8,152,1,48,29,1520476556
1119,22,Ticks_Phase_8,153,5,42,127,1520499044
1119,22,Ticks_Phase_8,154,1,48,37,1521259640
1119,22,Ticks_Phase_8,155,5,42,127,1521298904
1119,22,Ticks_Phase_8,156,1,48,48,1522066544
1119,22,Ticks_Phase_8,157,5,42,127,1522098468
1119,22,Ticks_Phase_8,158,1,48,46,1522894548
1119,22,Ticks_Phase_8,159,5,42,127,1522899376
1119,22,Ticks_Phase_8,160,5,42,127,1523659180
1119,22,Ticks_Phase_8,161,1,48,43,1523747600
1119,22,Ticks_Phase_8,162,1,48,36,1524448072
1119,22,Ticks_Phase_8,163,5,42,127,1524459108
1119,22,Ticks_Phase_8,164,1,48,46,1525206228
1119,22,Ticks_Phase_8,165,5,42,127,1525258744
1119,22,Ticks_Phase_8,166,1,48,55,1525964064
1119,22,Ticks_Phase_8,167,5,42,127,1526059356
1119,22,Ticks_Phase_8,168,1,48,39,1526858644
1119,22,Ticks_Phase_8,169,5,42,127,1526860136
1119,22,Ticks_Phase_8,170,1,48,41,1527640724
1119,22,Ticks_Phase_8,171,5,42,127,1527659172
1119,22,Ticks_Phase_8,172,1,48,51,1528419844
1119,22,Ticks_Phase_8,173,5,42,127,1528458664
1119,22,Ticks_Phase_8,174,1,48,44,1529245832
1119,22,Ticks_Phase_8,175,5,42,127,1529259496
1119,22,Ticks_Phase_8,176,1,48,41,1530054760
1119,22,Ticks_Phase_8,177,5,42,127,1530059208
1119,22,Ticks_Phase_8,178,5,42,127,1530859004
1119,22,Ticks_Phase_8,179,1,48,41,1530886324
1119,22,Ticks_Phase_8,180,5,42,127,1531658492
1119,22,Ticks_Phase_8,181,1,48,43,1531692092
1119,22,Ticks_Phase_8,182,5,42,127,1532459324
1119,22,Ticks_Phase_8,183,1,48,42,1532475792
1119,22,Ticks_Phase_8,184,1,48,46,1533252284
1119,22,Ticks_Phase_8,185,5,42,127,1533259056
1119,22,Ticks_Phase_8,186,1,48,48,1534046392
1119,22,Ticks_Phase_8,187,5,42,127,1534058916
1119,22,Ticks_Phase_8,188,1,48,46,1534856272
1119,22,Ticks_Phase_8,189,5,42,127,1534858928
1119,22,Ticks_Phase_8,190,1,48,44,1535624604
1119,22,Ticks_Phase_8,191,5,42,127,1535659240
1119,22,Ticks_Phase_8,192,5,42,127,1536379276
1119,22,Ticks_Phase_8,193,1,48,41,1536440208
1119,22,Ticks_Phase_8,194,1,48,51,1537042856
1119,22,Ticks_Phase_8,195,5,42,127,1537178968
1119,22,Ticks_Phase_8,196,1,48,47,1537942116
1119,22,Ticks_Phase_8,197,5,42,127,1537978916
1119,22,Ticks_Phase_8,198,1,48,50,1538726172
1119,22,Ticks_Phase_8,199,5,42,127,1538778404
1119,22,Ticks_Phase_8,200,5,42,127,1539579244
1119,22,Ticks_Phase_8,201,1,48,44,1539590824
1119,22,Ticks_Phase_8,202,1,48,47,1540361916
1119,22,Ticks_Phase_8,203,5,42,127,1540378948
1119,22,Ticks_Phase_8,204,5,42,127,1541179064
1119,22,Ticks_Phase_8,205,1,48,16,1541189976
1119,22,Ticks_Phase_8,206,1,48,51,1541908252
1119,22,Ticks_Phase_8,207,5,42,127,1541978472
1119,22,Ticks_Phase_8,208,1,48,43,1542728580
1119,22,Ticks_Phase_8,209,5,42,127,1542779228
1119,22,Ticks_Phase_8,210,1,48,45,1543532708
1119,22,Ticks_Phase_8,211,5,42,127,1543578868
1119,22,Ticks_Phase_8,212,1,48,53,1544332416
1119,22,Ticks_Phase_8,213,5,42,127,1544378652
1119,22,Ticks_Phase_8,214,5,42,127,1545178444
1119,22,Ticks_Phase_8,215,1,48,45,1545189276
1119,22,Ticks_Phase_8,216,1,48,51,1545920304
1119,22,Ticks_Phase_8,217,5,42,127,1545979272
1119,22,Ticks_Phase_8,218,1,48,51,1546759264
1119,22,Ticks_Phase_8,219,5,42,127,1546778984
1119,22,Ticks_Phase_8,220,1,48,53,1547568560
1119,22,Ticks_Phase_8,221,5,42,127,1547578644
1119,22,Ticks_Phase_8,222,1,48,58,1548337116
1119,22,Ticks_Phase_8,223,5,42,127,1548378656
1119,22,Ticks_Phase_8,224,1,48,53,1549160064
1119,22,Ticks_Phase_8,225,5,42,127,1549179188
1119,22,Ticks_Phase_8,226,1,48,51,1549954232
1119,22,Ticks_Phase_8,227,5,42,127,1550058792
1119,22,Ticks_Phase_8,228,1,48,54,1550838496
1119,22,Ticks_Phase_8,229,5,42,127,1550858668
1119,22,Ticks_Phase_8,230,5,42,127,1551659360
1119,22,Ticks_Phase_8,231,1,48,48,1551688120
1119,22,Ticks_Phase_8,232,5,42,127,1552459244
1119,22,Ticks_Phase_8,233,1,48,46,1552461760
1119,22,Ticks_Phase_8,234,5,42,127,1553258956
1119,22,Ticks_Phase_8,235,1,48,49,1553270092
1119,22,Ticks_Phase_8,236,1,48,50,1554045740
1119,22,Ticks_Phase_8,237,5,42,127,1554058736
1119,22,Ticks_Phase_8,238,1,48,52,1554806064
1119,22,Ticks_Phase_8,239,5,42,127,1554859344
1119,22,Ticks_Phase_8,240,1,48,54,1555636940
1119,22,Ticks_Phase_8,241,5,42,127,1555659132
1119,22,Ticks_Phase_8,242,1,48,58,1556371192
1119,22,Ticks_Phase_8,243,5,42,127,1556458844
1119,22,Ticks_Phase_8,244,1,48,50,1557225116
1119,22,Ticks_Phase_8,245,5,42,127,1557258776
1119,22,Ticks_Phase_8,246,5,42,127,1558059468
1119,22,Ticks_Phase_8,247,1,48,42,1558063708
1119,22,Ticks_Phase_8,248,5,42,127,1558859056
1119,22,Ticks_Phase_8,249,1,48,46,1558874304
1119,22,Ticks_Phase_8,250,5,42,127,1559658916
1119,22,Ticks_Phase_8,251,1,48,48,1559677916
1119,22,Ticks_Phase_8,252,5,42,127,1560458704
1119,22,Ticks_Phase_8,253,1,48,49,1560501812
1119,22,Ticks_Phase_8,254,5,42,127,1561259464
1119,22,Ticks_Phase_8,255,1,48,45,1561287004
1119,22,Ticks_Phase_8,256,5,42,127,1562059324
1119,22,Ticks_Phase_8,257,1,48,43,1562065584
1119,22,Ticks_Phase_8,258,5,42,127,1562858816
1119,22,Ticks_Phase_8,259,1,48,47,1562878936
1119,22,Ticks_Phase_8,260,1,48,45,1563706676
1119,22,Ticks_Phase_8,261,5,42,127,1563819460
1119,22,Ticks_Phase_8,262,5,42,127,1564618972
1119,22,Ticks_Phase_8,263,1,48,45,1564648008
1119,22,Ticks_Phase_8,264,5,42,127,1565418908
1119,22,Ticks_Phase_8,265,1,48,37,1565491228
1119,22,Ticks_Phase_8,266,5,42,127,1566218620
1119,22,Ticks_Phase_8,267,1,48,54,1566241812
1119,22,Ticks_Phase_8,268,1,48,52,1567013720
1119,22,Ticks_Phase_8,269,5,42,127,1567019520
1119,22,Ticks_Phase_8,270,1,48,48,1567813084
1119,22,Ticks_Phase_8,271,5,42,127,1567819036
1119,22,Ticks_Phase_8,272,5,42,127,1568618976
1119,22,Ticks_Phase_8,273,1,48,50,1568634820
1119,22,Ticks_Phase_8,274,5,42,127,1569418468
1119,22,Ticks_Phase_8,275,1,48,48,1569469360
1119,22,Ticks_Phase_8,276,5,42,127,1570219520
1119,22,Ticks_Phase_8,277,1,48,46,1570229008
1119,22,Ticks_Phase_8,278,5,42,127,1571019232
1119,22,Ticks_Phase_8,279,1,48,44,1571044288
1119,22,Ticks_Phase_8,280,5,42,127,1571818720
1119,22,Ticks_Phase_8,281,1,48,50,1571840264
1119,22,Ticks_Phase_8,282,5,42,127,1572618584
1119,22,Ticks_Phase_8,283,1,48,43,1572651284
1119,22,Ticks_Phase_8,284,5,42,127,1573419340
1119,22,Ticks_Phase_8,285,1,48,51,1573443372
1119,22,Ticks_Phase_8,286,5,42,127,1574219076
1119,22,Ticks_Phase_8,287,1,48,43,1574247516
1119,22,Ticks_Phase_8,288,1,48,53,1575006404
1119,22,Ticks_Phase_8,289,5,42,127,1575019080
1119,22,Ticks_Phase_8,290,1,48,48,1575814412
1119,22,Ticks_Phase_8,291,5,42,127,1575818640
1119,22,Ticks_Phase_8,292,1,48,49,1576602592
1119,22,Ticks_Phase_8,293,5,42,127,1576619476
1119,22,Ticks_Phase_8,294,1,48,49,1577392720
1119,22,Ticks_Phase_8,295,5,42,127,1577419260
1119,22,Ticks_Phase_8,296,1,48,48,1578167272
1119,22,Ticks_Phase_8,297,5,42,127,1578218824
1119,22,Ticks_Phase_8,298,5,42,127,1578858956
1119,22,Ticks_Phase_8,299,1,48,47,1579098156
1119,22,Ticks_Phase_8,300,5,42,127,1579658668
1119,22,Ticks_Phase_8,301,1,48,36,1580030856
1119,22,Ticks_Phase_8,302,5,42,127,1580459280
1119,22,Ticks_Phase_8,303,1,48,37,1580720336
1119,22,Ticks_Phase_8,304,5,42,127,1581259364
1119,22,Ticks_Phase_8,305,1,48,37,1581260624
1119,22,Ticks_Phase_8,306,5,42,127,1582059224
1119,22,Ticks_Phase_8,307,1,48,40,1582123152
1119,22,Ticks_Phase_8,308,1,48,38,1582852080
1119,22,Ticks_Phase_8,309,5,42,127,1582858484
1119,22,Ticks_Phase_8,310,1,48,45,1583659100
1119,22,Ticks_Phase_8,311,5,42,127,1583660584
1119,22,Ticks_Phase_8,312,1,48,45,1584454676
1119,22,Ticks_Phase_8,313,5,42,127,1584459348
1119,22,Ticks_Phase_8,314,1,48,43,1585226224
1119,22,Ticks_Phase_8,315,5,42,127,1585258764
1119,22,Ticks_Phase_8,316,1,48,40,1586051332
1119,22,Ticks_Phase_8,317,5,42,127,1586058624
1119,22,Ticks_Phase_8,318,1,48,44,1586840636
1119,22,Ticks_Phase_8,319,5,42,127,1586859236
1119,22,Ticks_Phase_8,320,1,48,45,1587650976
1119,22,Ticks_Phase_8,321,5,42,127,1587659244
1119,22,Ticks_Phase_8,322,5,42,127,1588458812
1119,22,Ticks_Phase_8,323,1,48,47,1588460300
1119,22,Ticks_Phase_8,324,1,48,40,1589216240
1119,22,Ticks_Phase_8,325,5,42,127,1589258520
1119,22,Ticks_Phase_8,326,1,48,47,1590013712
1119,22,Ticks_Phase_8,327,5,42,127,1590059352
1119,22,Ticks_Phase_8,328,5,42,127,1590859096
1119,22,Ticks_Phase_8,329,1,48,44,1590863408
1119,22,Ticks_Phase_8,330,5,42,127,1591659104
1119,22,Ticks_Phase_8,331,1,48,46,1591701692
1119,22,Ticks_Phase_8,332,1,48,52,1592456148
1119,22,Ticks_Phase_8,333,5,42,127,1592458660
1119,22,Ticks_Phase_8,334,1,48,40,1593259276
1119,22,Ticks_Phase_8,335,5,42,127,1593260612
1119,22,Ticks_Phase_8,336,1,48,47,1594011468
1119,22,Ticks_Phase_8,337,5,42,127,1594059128
1119,22,Ticks_Phase_8,0,9999,9999,9999,1458857060
1119,22,Ticks_Phase_8,1,9999,9999,9999,1459656792
1119,22,Ticks_Phase_8,2,9999,9999,9999,1460456528
1119,22,Ticks_Phase_8,3,9999,9999,9999,1461256312
1119,22,Ticks_Phase_8,4,9999,9999,9999,1462057068
1119,22,Ticks_Phase_8,5,9999,9999,9999,1462856808
1119,22,Ticks_Phase_8,6,9999,9999,9999,1463656512
1119,22,Ticks_Phase_8,7,9999,9999,9999,1464456300
1119,22,Ticks_Phase_8,8,9999,9999,9999,1465257056
1119,22,Ticks_Phase_8,9,9999,9999,9999,1466056768
1119,22,Ticks_Phase_8,10,9999,9999,9999,1466856556
1119,22,Ticks_Phase_8,11,9999,9999,9999,1467656272
1119,22,Ticks_Phase_8,12,9999,9999,9999,1468457032
1119,22,Ticks_Phase_8,13,9999,9999,9999,1469256768
1119,22,Ticks_Phase_8,14,9999,9999,9999,1470056552
1119,22,Ticks_Phase_8,15,9999,9999,9999,1470856268
1119,22,Ticks_Phase_8,16,9999,9999,9999,1471657020
1119,22,Ticks_Phase_8,17,9999,9999,9999,1472456808
1119,22,Ticks_Phase_8,18,9999,9999,9999,1473256524
1119,22,Ticks_Phase_8,19,9999,9999,9999,1474056312
1119,22,Ticks_Phase_8,20,9999,9999,9999,1474857072
1119,22,Ticks_Phase_8,21,9999,9999,9999,1475656800
1119,22,Ticks_Phase_8,22,9999,9999,9999,1476456520
1119,22,Ticks_Phase_8,23,9999,9999,9999,1477256304
1119,22,Ticks_Phase_8,24,9999,9999,9999,1478057064
1119,22,Ticks_Phase_8,25,9999,9999,9999,1478856772
1119,22,Ticks_Phase_8,26,9999,9999,9999,1479656560
1119,22,Ticks_Phase_8,27,9999,9999,9999,1480456272
1119,22,Ticks_Phase_8,28,9999,9999,9999,1481257028
1119,22,Ticks_Phase_8,29,9999,9999,9999,1482056764
1119,22,Ticks_Phase_8,30,9999,9999,9999,1482837088
1119,22,Ticks_Phase_8,31,9999,9999,9999,1483636800
1119,22,Ticks_Phase_8,32,9999,9999,9999,1484436588
1119,22,Ticks_Phase_8,33,9999,9999,9999,1485236296
1119,22,Ticks_Phase_8,34,9999,9999,9999,1486037056
1119,22,Ticks_Phase_8,35,9999,9999,9999,1486836836
1119,22,Ticks_Phase_8,36,9999,9999,9999,1487636548
1119,22,Ticks_Phase_8,37,9999,9999,9999,1488436340
1119,22,Ticks_Phase_8,38,9999,9999,9999,1489237116
1119,22,Ticks_Phase_8,39,9999,9999,9999,1490036828
1119,22,Ticks_Phase_8,40,9999,9999,9999,1490836540
1119,22,Ticks_Phase_8,41,9999,9999,9999,1491636328
1119,22,Ticks_Phase_8,42,9999,9999,9999,1492437084
1119,22,Ticks_Phase_8,43,9999,9999,9999,1493236804
1119,22,Ticks_Phase_8,44,9999,9999,9999,1494036584
1119,22,Ticks_Phase_8,45,9999,9999,9999,1494836296
1119,22,Ticks_Phase_8,46,9999,9999,9999,1495637080
1119,22,Ticks_Phase_8,47,9999,9999,9999,1496436792
1119,22,Ticks_Phase_8,48,9999,9999,9999,1497257020
1119,22,Ticks_Phase_8,49,9999,9999,9999,1498056816
1119,22,Ticks_Phase_8,50,9999,9999,9999,1498856528
1119,22,Ticks_Phase_8,51,9999,9999,9999,1499656312
1119,22,Ticks_Phase_8,52,9999,9999,9999,1500457064
1119,22,Ticks_Phase_8,53,9999,9999,9999,1501256808
1119,22,Ticks_Phase_8,54,9999,9999,9999,1502056520
1119,22,Ticks_Phase_8,55,9999,9999,9999,1502856300
1119,22,Ticks_Phase_8,56,9999,9999,9999,1503657064
1119,22,Ticks_Phase_8,57,9999,9999,9999,1504456768
1119,22,Ticks_Phase_8,58,9999,9999,9999,1505256556
1119,22,Ticks_Phase_8,59,9999,9999,9999,1506056268
1119,22,Ticks_Phase_8,60,9999,9999,9999,1506857028
1119,22,Ticks_Phase_8,61,9999,9999,9999,1507656764
1119,22,Ticks_Phase_8,62,9999,9999,9999,1508456560
1119,22,Ticks_Phase_8,63,9999,9999,9999,1509256272
1119,22,Ticks_Phase_8,64,9999,9999,9999,1510097016
1119,22,Ticks_Phase_8,65,9999,9999,9999,1510896728
1119,22,Ticks_Phase_8,66,9999,9999,9999,1511696444
1119,22,Ticks_Phase_8,67,9999,9999,9999,1512496224
1119,22,Ticks_Phase_8,68,9999,9999,9999,1513297008
1119,22,Ticks_Phase_8,69,9999,9999,9999,1514096728
1119,22,Ticks_Phase_8,70,9999,9999,9999,1514896508
1119,22,Ticks_Phase_8,71,9999,9999,9999,1515696224
1119,22,Ticks_Phase_8,72,9999,9999,9999,1516496980
1119,22,Ticks_Phase_8,73,9999,9999,9999,1517296696
1119,22,Ticks_Phase_8,74,9999,9999,9999,1518096480
1119,22,Ticks_Phase_8,75,9999,9999,9999,1518896196
1119,22,Ticks_Phase_8,76,9999,9999,9999,1519696980
1119,22,Ticks_Phase_8,77,9999,9999,9999,1520496760
1119,22,Ticks_Phase_8,78,9999,9999,9999,1521296468
1119,22,Ticks_Phase_8,79,9999,9999,9999,1522096256
1119,22,Ticks_Phase_8,80,9999,9999,9999,1522897016
1119,22,Ticks_Phase_8,81,9999,9999,9999,1523656816
1119,22,Ticks_Phase_8,82,9999,9999,9999,1524456524
1119,22,Ticks_Phase_8,83,9999,9999,9999,1525256308
1119,22,Ticks_Phase_8,84,9999,9999,9999,1526057068
1119,22,Ticks_Phase_8,85,9999,9999,9999,1526856812
1119,22,Ticks_Phase_8,86,9999,9999,9999,1527656516
1119,22,Ticks_Phase_8,87,9999,9999,9999,1528456304
1119,22,Ticks_Phase_8,88,9999,9999,9999,1529257060
1119,22,Ticks_Phase_8,89,9999,9999,9999,1530056776
1119,22,Ticks_Phase_8,90,9999,9999,9999,1530856568
1119,22,Ticks_Phase_8,91,9999,9999,9999,1531656280
1119,22,Ticks_Phase_8,92,9999,9999,9999,1532457036
1119,22,Ticks_Phase_8,93,9999,9999,9999,1533256768
1119,22,Ticks_Phase_8,94,9999,9999,9999,1534056556
1119,22,Ticks_Phase_8,95,9999,9999,9999,1534856344
1119,22,Ticks_Phase_8,96,9999,9999,9999,1535657024
1119,22,Ticks_Phase_8,97,9999,9999,9999,1536376916
1119,22,Ticks_Phase_8,98,9999,9999,9999,1537176680
1119,22,Ticks_Phase_8,99,9999,9999,9999,1537976408
1119,22,Ticks_Phase_8,100,9999,9999,9999,1538776192
1119,22,Ticks_Phase_8,101,9999,9999,9999,1539576956
1119,22,Ticks_Phase_8,102,9999,9999,9999,1540376664
1119,22,Ticks_Phase_8,103,9999,9999,9999,1541176404
1119,22,Ticks_Phase_8,104,9999,9999,9999,1541976184
1119,22,Ticks_Phase_8,105,9999,9999,9999,1542776944
1119,22,Ticks_Phase_8,106,9999,9999,9999,1543576656
1119,22,Ticks_Phase_8,107,9999,9999,9999,1544376444
1119,22,Ticks_Phase_8,108,9999,9999,9999,1545176160
1119,22,Ticks_Phase_8,109,9999,9999,9999,1545976912
1119,22,Ticks_Phase_8,110,9999,9999,9999,1546776696
1119,22,Ticks_Phase_8,111,9999,9999,9999,1547576432
1119,22,Ticks_Phase_8,112,9999,9999,9999,1548376144
1119,22,Ticks_Phase_8,113,9999,9999,9999,1549176904
1119,22,Ticks_Phase_8,114,9999,9999,9999,1550056504
1119,22,Ticks_Phase_8,115,9999,9999,9999,1550856308
1119,22,Ticks_Phase_8,116,9999,9999,9999,1551657072
1119,22,Ticks_Phase_8,117,9999,9999,9999,1552456808
1119,22,Ticks_Phase_8,118,9999,9999,9999,1553256520
1119,22,Ticks_Phase_8,119,9999,9999,9999,1554056300
1119,22,Ticks_Phase_8,120,9999,9999,9999,1554857060
1119,22,Ticks_Phase_8,121,9999,9999,9999,1555656772
1119,22,Ticks_Phase_8,122,9999,9999,9999,1556456556
1119,22,Ticks_Phase_8,123,9999,9999,9999,1557256268
1119,22,Ticks_Phase_8,124,9999,9999,9999,1558057032
1119,22,Ticks_Phase_8,125,9999,9999,9999,1558856768
1119,22,Ticks_Phase_8,126,9999,9999,9999,1559656556
1119,22,Ticks_Phase_8,127,9999,9999,9999,1560456268
1119,22,Ticks_Phase_8,128,9999,9999,9999,1561257028
1119,22,Ticks_Phase_8,129,9999,9999,9999,1562056816
1119,22,Ticks_Phase_8,130,9999,9999,9999,1562856528
1119,22,Ticks_Phase_8,131,9999,9999,9999,1563817024
1119,22,Ticks_Phase_8,132,9999,9999,9999,1564616760
1119,22,Ticks_Phase_8,133,9999,9999,9999,1565416548
1119,22,Ticks_Phase_8,134,9999,9999,9999,1566216260
1119,22,Ticks_Phase_8,135,9999,9999,9999,1567017084
1119,22,Ticks_Phase_8,136,9999,9999,9999,1567816824
1119,22,Ticks_Phase_8,137,9999,9999,9999,1568616544
1119,22,Ticks_Phase_8,138,9999,9999,9999,1569416252
1119,22,Ticks_Phase_8,139,9999,9999,9999,1570217084
1119,22,Ticks_Phase_8,140,9999,9999,9999,1571016796
1119,22,Ticks_Phase_8,141,9999,9999,9999,1571816508
1119,22,Ticks_Phase_8,142,9999,9999,9999,1572616296
1119,22,Ticks_Phase_8,143,9999,9999,9999,1573417052
1119,22,Ticks_Phase_8,144,9999,9999,9999,1574216788
1119,22,Ticks_Phase_8,145,9999,9999,9999,1575016568
1119,22,Ticks_Phase_8,146,9999,9999,9999,1575816280
1119,22,Ticks_Phase_8,147,9999,9999,9999,1576617040
1119,22,Ticks_Phase_8,148,9999,9999,9999,1577416824
1119,22,Ticks_Phase_8,149,9999,9999,9999,1578216536
1119,22,Ticks_Phase_8,150,9999,9999,9999,1578856520
1119,22,Ticks_Phase_8,151,9999,9999,9999,1579656308
1119,22,Ticks_Phase_8,152,9999,9999,9999,1580457068
1119,22,Ticks_Phase_8,153,9999,9999,9999,1581256780
1119,22,Ticks_Phase_8,154,9999,9999,9999,1582056564
1119,22,Ticks_Phase_8,155,9999,9999,9999,1582856272
1119,22,Ticks_Phase_8,156,9999,9999,9999,1583657036
1119,22,Ticks_Phase_8,157,9999,9999,9999,1584456764
1119,22,Ticks_Phase_8,158,9999,9999,9999,1585256552
1119,22,Ticks_Phase_8,159,9999,9999,9999,1586056264
1119,22,Ticks_Phase_8,160,9999,9999,9999,1586857024
1119,22,Ticks_Phase_8,161,9999,9999,9999,1587656808
1119,22,Ticks_Phase_8,162,9999,9999,9999,1588456528
1119,22,Ticks_Phase_8,163,9999,9999,9999,1589256308
1119,22,Ticks_Phase_8,164,9999,9999,9999,1590057064
1119,22,Ticks_Phase_8,165,9999,9999,9999,1590856808
1119,22,Ticks_Phase_8,166,9999,9999,9999,1591656520
1119,22,Ticks_Phase_8,167,9999,9999,9999,1592456300
1119,22,Ticks_Phase_8,168,9999,9999,9999,1593257064
1119,22,Ticks_Phase_8,169,9999,9999,9999,1594056768
11110,23,Ticks_Phase_5,0,5,42,127,1603715360
11110,23,Ticks_Phase_5,1,5,42,127,1604216120
11110,23,Ticks_Phase_5,2,5,42,127,1604716200
11110,23,Ticks_Phase_5,3,5,42,127,1605215464
11110,23,Ticks_Phase_5,4,1,48,39,1605706376
11110,23,Ticks_Phase_5,5,5,42,127,1605716212
11110,23,Ticks_Phase_5,6,1,48,42,1606211296
11110,23,Ticks_Phase_5,7,5,42,127,1606216124
11110,23,Ticks_Phase_5,8,1,48,50,1606696068
11110,23,Ticks_Phase_5,9,5,42,127,1606716036
11110,23,Ticks_Phase_5,10,1,48,52,1607179428
11110,23,Ticks_Phase_5,11,5,42,127,1607215404
11110,23,Ticks_Phase_5,12,1,48,46,1607695968
11110,23,Ticks_Phase_5,13,5,42,127,1607716140
11110,23,Ticks_Phase_5,14,5,42,127,1608216056
11110,23,Ticks_Phase_5,15,1,48,43,1608219328
11110,23,Ticks_Phase_5,16,5,42,127,1608715820
11110,23,Ticks_Phase_5,17,1,48,44,1608727476
11110,23,Ticks_Phase_5,18,5,42,127,1609216480
11110,23,Ticks_Phase_5,19,1,48,42,1609217520
11110,23,Ticks_Phase_5,20,5,42,127,1609716168
11110,23,Ticks_Phase_5,21,1,48,46,1609717656
11110,23,Ticks_Phase_5,22,5,42,127,1610216004
11110,23,Ticks_Phase_5,23,1,48,43,1610223536
11110,23,Ticks_Phase_5,24,1,48,44,1610709740
11110,23,Ticks_Phase_5,25,5,42,127,1610715616
11110,23,Ticks_Phase_5,26,1,48,43,1611207632
11110,23,Ticks_Phase_5,27,5,42,127,1611216200
11110,23,Ticks_Phase_5,28,5,42,127,1611715820
11110,23,Ticks_Phase_5,29,1,48,45,1611717160
11110,23,Ticks_Phase_5,30,1,48,45,1612201760
11110,23,Ticks_Phase_5,31,5,42,127,1612215800
11110,23,Ticks_Phase_5,32,1,48,47,1612705576
11110,23,Ticks_Phase_5,33,5,42,127,1612716388
11110,23,Ticks_Phase_5,34,1,48,45,1613214876
11110,23,Ticks_Phase_5,35,5,42,127,1613216372
11110,23,Ticks_Phase_5,36,1,48,47,1613715772
11110,23,Ticks_Phase_5,37,5,42,127,1613717036
11110,23,Ticks_Phase_5,38,1,48,48,1614191304
11110,23,Ticks_Phase_5,39,5,42,127,1614215528
11110,23,Ticks_Phase_5,40,5,42,127,1614716268
11110,23,Ticks_Phase_5,41,1,48,36,1614745152
11110,23,Ticks_Phase_5,42,1,48,44,1615205960
11110,23,Ticks_Phase_5,43,5,42,127,1615215948
11110,23,Ticks_Phase_5,44,1,48,42,1615677496
11110,23,Ticks_Phase_5,45,5,42,127,1615715712
11110,23,Ticks_Phase_5,46,1,48,48,1616189460
11110,23,Ticks_Phase_5,47,5,42,127,1616216596
11110,23,Ticks_Phase_5,48,1,48,50,1616682152
11110,23,Ticks_Phase_5,49,5,42,127,1616726320
11110,23,Ticks_Phase_5,50,1,48,43,1617185664
11110,23,Ticks_Phase_5,51,5,42,127,1617226080
11110,23,Ticks_Phase_5,52,1,48,45,1617722360
11110,23,Ticks_Phase_5,53,5,42,127,1617725992
11110,23,Ticks_Phase_5,54,5,42,127,1618225836
11110,23,Ticks_Phase_5,55,1,48,43,1618229932
11110,23,Ticks_Phase_5,56,5,42,127,1618715920
11110,23,Ticks_Phase_5,57,1,48,41,1618742268
11110,23,Ticks_Phase_5,58,1,48,46,1619198868
11110,23,Ticks_Phase_5,59,5,42,127,1619215820
11110,23,Ticks_Phase_5,60,1,48,48,1619673328
11110,23,Ticks_Phase_5,61,5,42,127,1619715436
11110,23,Ticks_Phase_5,62,1,48,47,1620180864
11110,23,Ticks_Phase_5,63,5,42,127,1620216172
11110,23,Ticks_Phase_5,64,5,42,127,1620715940
11110,23,Ticks_Phase_5,65,1,48,44,1620718616
11110,23,Ticks_Phase_5,66,1,48,43,1621212444
11110,23,Ticks_Phase_5,67,5,42,127,1621215696
11110,23,Ticks_Phase_5,68,1,48,39,1621700448
11110,23,Ticks_Phase_5,69,5,42,127,1621716284
11110,23,Ticks_Phase_5,70,1,48,42,1622197968
11110,23,Ticks_Phase_5,71,5,42,127,1622216044
11110,23,Ticks_Phase_5,72,1,48,46,1622711580
11110,23,Ticks_Phase_5,73,5,42,127,1622715880
11110,23,Ticks_Phase_5,74,1,48,44,1623212092
11110,23,Ticks_Phase_5,75,5,42,127,1623215792
11110,23,Ticks_Phase_5,76,1,48,45,1623706696
11110,23,Ticks_Phase_5,77,5,42,127,1623716308
11110,23,Ticks_Phase_5,78,5,42,127,1624215928
11110,23,Ticks_Phase_5,79,1,48,43,1624223012
11110,23,Ticks_Phase_5,80,5,42,127,1624715688
11110,23,Ticks_Phase_5,81,1,48,41,1624726828
11110,23,Ticks_Phase_5,82,1,48,40,1625204188
11110,23,Ticks_Phase_5,83,5,42,127,1625216568
11110,23,Ticks_Phase_5,84,1,48,42,1625688520
11110,23,Ticks_Phase_5,85,5,42,127,1625716104
11110,23,Ticks_Phase_5,86,5,42,127,1626215724
11110,23,Ticks_Phase_5,87,1,48,48,1626231124
11110,23,Ticks_Phase_5,88,1,48,45,1626715036
11110,23,Ticks_Phase_5,89,5,42,127,1626716608
11110,23,Ticks_Phase_5,90,1,48,46,1627190280
11110,23,Ticks_Phase_5,91,5,42,127,1627216368
11110,23,Ticks_Phase_5,92,1,48,44,1627716932
11110,23,Ticks_Phase_5,93,5,42,127,1627726244
11110,23,Ticks_Phase_5,94,5,42,127,1628225864
11110,23,Ticks_Phase_5,95,1,48,42,1628232124
11110,23,Ticks_Phase_5,96,1,48,43,1628717108
11110,23,Ticks_Phase_5,97,5,42,127,1628725620
11110,23,Ticks_Phase_5,98,1,48,43,1629202256
11110,23,Ticks_Phase_5,99,5,42,127,1629226332
11110,23,Ticks_Phase_5,100,1,48,40,1629697608
11110,23,Ticks_Phase_5,101,5,42,127,1629726020
11110,23,Ticks_Phase_5,102,1,48,34,1630218340
11110,23,Ticks_Phase_5,103,5,42,127,1630225704
11110,23,Ticks_Phase_5,104,1,48,46,1630697132
11110,23,Ticks_Phase_5,105,5,42,127,1630725468
11110,23,Ticks_Phase_5,106,1,48,44,1631204612
11110,23,Ticks_Phase_5,107,5,42,127,1631226500
11110,23,Ticks_Phase_5,108,5,42,127,1631725976
11110,23,Ticks_Phase_5,109,1,48,50,1631730664
11110,23,Ticks_Phase_5,110,5,42,127,1632225664
11110,23,Ticks_Phase_5,111,1,48,48,1632226632
11110,23,Ticks_Phase_5,112,1,48,46,1632724580
11110,23,Ticks_Phase_5,113,5,42,127,1632726540
11110,23,Ticks_Phase_5,114,1,48,45,1633224340
11110,23,Ticks_Phase_5,115,5,42,127,1633226004
11110,23,Ticks_Phase_5,116,5,42,127,1633725776
11110,23,Ticks_Phase_5,117,1,48,47,1633735412
11110,23,Ticks_Phase_5,118,5,42,127,1634225536
11110,23,Ticks_Phase_5,119,1,48,50,1634227480
11110,23,Ticks_Phase_5,120,5,42,127,1634726348
11110,23,Ticks_Phase_5,121,1,48,51,1634733224
11110,23,Ticks_Phase_5,122,1,48,48,1635212664
11110,23,Ticks_Phase_5,123,5,42,127,1635225956
11110,23,Ticks_Phase_5,124,5,42,127,1635746096
11110,23,Ticks_Phase_5,125,1,48,44,1635747360
11110,23,Ticks_Phase_5,126,1,48,48,1636236688
11110,23,Ticks_Phase_5,127,5,42,127,1636245852
11110,23,Ticks_Phase_5,128,5,42,127,1636745768
11110,23,Ticks_Phase_5,129,1,48,47,1636753148
11110,23,Ticks_Phase_5,130,5,42,127,1637246504
11110,23,Ticks_Phase_5,131,1,48,46,1637262800
11110,23,Ticks_Phase_5,132,1,48,42,1637738596
11110,23,Ticks_Phase_5,133,5,42,127,1637746036
11110,23,Ticks_Phase_5,134,1,48,47,1638240304
11110,23,Ticks_Phase_5,135,5,42,127,1638245652
11110,23,Ticks_Phase_5,136,5,42,127,1638745496
11110,23,Ticks_Phase_5,137,1,48,45,1638750264
11110,23,Ticks_Phase_5,138,5,42,127,1639246376
11110,23,Ticks_Phase_5,139,1,48,46,1639265680
11110,23,Ticks_Phase_5,140,1,48,49,1639731048
11110,23,Ticks_Phase_5,141,5,42,127,1639745836
11110,23,Ticks_Phase_5,142,1,48,44,1640223912
11110,23,Ticks_Phase_5,143,5,42,127,1640245748
11110,23,Ticks_Phase_5,144,1,48,50,1640709364
11110,23,Ticks_Phase_5,145,5,42,127,1640746608
11110,23,Ticks_Phase_5,146,1,48,47,1641238636
11110,23,Ticks_Phase_5,147,5,42,127,1641246000
11110,23,Ticks_Phase_5,148,5,42,127,1641745772
11110,23,Ticks_Phase_5,149,1,48,46,1641748592
11110,23,Ticks_Phase_5,150,1,48,53,1642222800
11110,23,Ticks_Phase_5,151,5,42,127,1642245528
11110,23,Ticks_Phase_5,152,1,48,53,1642720916
11110,23,Ticks_Phase_5,153,5,42,127,1642746484
11110,23,Ticks_Phase_5,154,1,48,50,1643222476
11110,23,Ticks_Phase_5,155,5,42,127,1643245876
11110,23,Ticks_Phase_5,156,1,48,47,1643745796
11110,23,Ticks_Phase_5,157,5,42,127,1643747208
11110,23,Ticks_Phase_5,158,5,42,127,1644225936
11110,23,Ticks_Phase_5,159,1,48,46,1644247260
11110,23,Ticks_Phase_5,160,1,48,42,1644722364
11110,23,Ticks_Phase_5,161,5,42,127,1644725544
11110,23,Ticks_Phase_5,162,5,42,127,1645226284
11110,23,Ticks_Phase_5,163,1,48,46,1645235172
11110,23,Ticks_Phase_5,164,1,48,43,1645721668
11110,23,Ticks_Phase_5,165,5,42,127,1645725968
11110,23,Ticks_Phase_5,166,1,48,40,1646224532
11110,23,Ticks_Phase_5,167,5,42,127,1646226100
11110,23,Ticks_Phase_5,168,1,48,51,1646716848
11110,23,Ticks_Phase_5,169,5,42,127,1646725492
11110,23,Ticks_Phase_5,170,1,48,46,1647220576
11110,23,Ticks_Phase_5,171,5,42,127,1647226376
11110,23,Ticks_Phase_5,172,1,48,48,1647703204
11110,23,Ticks_Phase_5,173,5,42,127,1647725916
11110,23,Ticks_Phase_5,174,5,42,127,1648225612
11110,23,Ticks_Phase_5,175,1,48,47,1648240560
11110,23,Ticks_Phase_5,176,5,42,127,1648726352
11110,23,Ticks_Phase_5,177,1,48,40,1648758376
11110,23,Ticks_Phase_5,178,1,48,50,1649201808
11110,23,Ticks_Phase_5,179,5,42,127,1649226180
11110,23,Ticks_Phase_5,180,1,48,44,1649683416
11110,23,Ticks_Phase_5,181,5,42,127,1649725868
11110,23,Ticks_Phase_5,182,1,48,47,1650193288
11110,23,Ticks_Phase_5,183,5,42,127,1650225704
11110,23,Ticks_Phase_5,184,1,48,52,1650687076
11110,23,Ticks_Phase_5,185,5,42,127,1650726340
11110,23,Ticks_Phase_5,186,1,48,49,1651223440
11110,23,Ticks_Phase_5,187,5,42,127,1651226028
11110,23,Ticks_Phase_5,188,5,42,127,1651725648
11110,23,Ticks_Phase_5,189,1,48,51,1651726616
11110,23,Ticks_Phase_5,190,5,42,127,1652176212
11110,23,Ticks_Phase_5,191,1,48,49,1652239092
11110,23,Ticks_Phase_5,192,1,48,48,1652647408
11110,23,Ticks_Phase_5,193,5,42,127,1652675964
11110,23,Ticks_Phase_5,194,1,48,47,1653115492
11110,23,Ticks_Phase_5,195,5,42,127,1653175804
11110,23,Ticks_Phase_5,196,1,48,47,1653621464
11110,23,Ticks_Phase_5,197,5,42,127,1653676320
11110,23,Ticks_Phase_5,198,1,48,50,1654150056
11110,23,Ticks_Phase_5,199,5,42,127,1654176224
11110,23,Ticks_Phase_5,200,1,48,46,1654663388
11110,23,Ticks_Phase_5,201,5,42,127,1654675692
11110,23,Ticks_Phase_5,202,1,48,48,1655150932
11110,23,Ticks_Phase_5,203,5,42,127,1655175528
11110,23,Ticks_Phase_5,204,5,42,127,1655676196
11110,23,Ticks_Phase_5,205,1,48,24,1655692044
11110,23,Ticks_Phase_5,206,1,48,56,1656139008
11110,23,Ticks_Phase_5,207,5,42,127,1656176176
11110,23,Ticks_Phase_5,208,1,48,53,1656604372
11110,23,Ticks_Phase_5,209,5,42,127,1656675640
11110,23,Ticks_Phase_5,210,5,42,127,1657176384
11110,23,Ticks_Phase_5,211,1,48,47,1657178092
11110,23,Ticks_Phase_5,212,1,48,46,1657684208
11110,23,Ticks_Phase_5,213,5,42,127,1657686324
11110,23,Ticks_Phase_5,214,5,42,127,1658186312
11110,23,Ticks_Phase_5,215,1,48,45,1658218044
11110,23,Ticks_Phase_5,216,1,48,42,1658678180
11110,23,Ticks_Phase_5,217,5,42,127,1658685776
11110,23,Ticks_Phase_5,218,1,48,51,1659131856
11110,23,Ticks_Phase_5,219,5,42,127,1659185464
11110,23,Ticks_Phase_5,220,5,42,127,1659686404
11110,23,Ticks_Phase_5,221,1,48,47,1659701228
11110,23,Ticks_Phase_5,222,1,48,43,1660176552
11110,23,Ticks_Phase_5,223,5,42,127,1660185936
11110,23,Ticks_Phase_5,224,1,48,43,1660673468
11110,23,Ticks_Phase_5,225,5,42,127,1660735824
11110,23,Ticks_Phase_5,226,1,48,42,1661230884
11110,23,Ticks_Phase_5,227,5,42,127,1661235636
11110,23,Ticks_Phase_5,228,5,42,127,1661736280
11110,23,Ticks_Phase_5,229,1,48,48,1661758524
11110,23,Ticks_Phase_5,230,5,42,127,1662236040
11110,23,Ticks_Phase_5,231,1,48,49,1662249272
11110,23,Ticks_Phase_5,232,1,48,43,1662717796
11110,23,Ticks_Phase_5,233,5,42,127,1662735948
11110,23,Ticks_Phase_5,234,1,48,50,1663188948
11110,23,Ticks_Phase_5,235,5,42,127,1663235560
11110,23,Ticks_Phase_5,236,1,48,50,1663714104
11110,23,Ticks_Phase_5,237,5,42,127,1663736296
11110,23,Ticks_Phase_5,238,1,48,45,1664216036
11110,23,Ticks_Phase_5,239,5,42,127,1664235836
11110,23,Ticks_Phase_5,240,1,48,39,1664710628
11110,23,Ticks_Phase_5,241,5,42,127,1664735600
11110,23,Ticks_Phase_5,242,1,48,48,1665192640
11110,23,Ticks_Phase_5,243,5,42,127,1665236188
11110,23,Ticks_Phase_5,244,1,48,47,1665711580
11110,23,Ticks_Phase_5,245,5,42,127,1665736024
11110,23,Ticks_Phase_5,246,1,48,55,1666219060
11110,23,Ticks_Phase_5,247,5,42,127,1666235712
11110,23,Ticks_Phase_5,248,1,48,51,1666720992
11110,23,Ticks_Phase_5,249,5,42,127,1666735328
11110,23,Ticks_Phase_5,250,1,48,53,1667209672
11110,23,Ticks_Phase_5,251,5,42,127,1667236136
11110,23,Ticks_Phase_5,252,1,48,48,1667733464
11110,23,Ticks_Phase_5,253,5,42,127,1667736120
11110,23,Ticks_Phase_5,254,1,48,52,1668230984
11110,23,Ticks_Phase_5,255,5,42,127,1668235588
11110,23,Ticks_Phase_5,256,1,48,47,1668725584
11110,23,Ticks_Phase_5,257,5,42,127,1668736324
11110,23,Ticks_Phase_5,258,1,48,50,1669222872
11110,23,Ticks_Phase_5,259,5,42,127,1669336348
11110,23,Ticks_Phase_5,260,5,42,127,1669846316
11110,23,Ticks_Phase_5,261,1,48,50,1669857380
11110,23,Ticks_Phase_5,262,5,42,127,1670346224
11110,23,Ticks_Phase_5,263,1,48,48,1670385672
11110,23,Ticks_Phase_5,264,1,48,46,1670840336
11110,23,Ticks_Phase_5,265,5,42,127,1670845756
11110,23,Ticks_Phase_5,266,1,48,49,1671323464
11110,23,Ticks_Phase_5,267,5,42,127,1671345448
11110,23,Ticks_Phase_5,268,1,48,46,1671824884
11110,23,Ticks_Phase_5,269,5,42,127,1671846180
11110,23,Ticks_Phase_5,270,1,48,44,1672324648
11110,23,Ticks_Phase_5,271,5,42,127,1672346164
11110,23,Ticks_Phase_5,272,1,48,46,1672808904
11110,23,Ticks_Phase_5,273,5,42,127,1672845632
11110,23,Ticks_Phase_5,274,5,42,127,1673346596
11110,23,Ticks_Phase_5,275,1,48,40,1673359752
11110,23,Ticks_Phase_5,276,1,48,40,1673839136
11110,23,Ticks_Phase_5,277,5,42,127,1673856240
11110,23,Ticks_Phase_5,278,1,48,46,1674354728
11110,23,Ticks_Phase_5,279,5,42,127,1674356152
11110,23,Ticks_Phase_5,280,5,42,127,1674856144
11110,23,Ticks_Phase_5,281,1,48,37,1674891164
11110,23,Ticks_Phase_5,282,1,48,45,1675345096
11110,23,Ticks_Phase_5,283,5,42,127,1675355604
11110,23,Ticks_Phase_5,284,5,42,127,1675856196
11110,23,Ticks_Phase_5,285,1,48,31,1675868232
11110,23,Ticks_Phase_5,286,1,48,42,1676340720
11110,23,Ticks_Phase_5,287,5,42,127,1676356176
11110,23,Ticks_Phase_5,288,1,48,49,1676811400
11110,23,Ticks_Phase_5,289,5,42,127,1676855864
11110,23,Ticks_Phase_5,290,1,48,43,1677330036
11110,23,Ticks_Phase_5,291,5,42,127,1677356428
11110,23,Ticks_Phase_5,292,1,48,40,1677843476
11110,23,Ticks_Phase_5,293,5,42,127,1677856164
11110,23,Ticks_Phase_5,294,1,48,50,1678348256
11110,23,Ticks_Phase_5,295,5,42,127,1678356000
11110,23,Ticks_Phase_5,296,5,42,127,1678756320
11110,23,Ticks_Phase_5,297,1,48,49,1678858372
11110,23,Ticks_Phase_5,298,1,48,44,1679249156
11110,23,Ticks_Phase_5,299,5,42,127,1679255852
11110,23,Ticks_Phase_5,300,1,48,39,1679685720
11110,23,Ticks_Phase_5,301,5,42,127,1679755688
11110,23,Ticks_Phase_5,302,1,48,44,1680233552
11110,23,Ticks_Phase_5,303,5,42,127,1680256428
11110,23,Ticks_Phase_5,304,5,42,127,1680756120
11110,23,Ticks_Phase_5,305,1,48,43,1680759840
11110,23,Ticks_Phase_5,306,1,48,40,1681229860
11110,23,Ticks_Phase_5,307,5,42,127,1681255876
11110,23,Ticks_Phase_5,308,1,48,44,1681737268
11110,23,Ticks_Phase_5,309,5,42,127,1681755492
11110,23,Ticks_Phase_5,310,1,48,48,1682254112
11110,23,Ticks_Phase_5,311,5,42,127,1682256224
11110,23,Ticks_Phase_5,312,5,42,127,1682755848
11110,23,Ticks_Phase_5,313,1,48,44,1682775372
11110,23,Ticks_Phase_5,314,1,48,45,1683238696
11110,23,Ticks_Phase_5,315,5,42,127,1683255676
11110,23,Ticks_Phase_5,316,1,48,47,1683718320
11110,23,Ticks_Phase_5,317,5,42,127,1683756464
11110,23,Ticks_Phase_5,318,1,48,46,1684237004
11110,23,Ticks_Phase_5,319,5,42,127,1684256052
11110,23,Ticks_Phase_5,320,5,42,127,1684755820
11110,23,Ticks_Phase_5,321,1,48,49,1684757232
11110,23,Ticks_Phase_5,322,1,48,45,1685251720
11110,23,Ticks_Phase_5,323,5,42,127,1685255724
11110,23,Ticks_Phase_5,324,5,42,127,1685756168
11110,23,Ticks_Phase_5,325,1,48,42,1685764980
11110,23,Ticks_Phase_5,326,1,48,44,1686235976
11110,23,Ticks_Phase_5,327,5,42,127,1686256072
11110,23,Ticks_Phase_5,328,1,48,43,1686720384
11110,23,Ticks_Phase_5,329,5,42,127,1686755836
11110,23,Ticks_Phase_5,330,5,42,127,1687256656
11110,23,Ticks_Phase_5,331,1,48,47,1687263900
11110,23,Ticks_Phase_5,332,5,42,127,1687766380
11110,23,Ticks_Phase_5,333,1,48,50,1687782000
11110,23,Ticks_Phase_5,334,1,48,49,1688258692
11110,23,Ticks_Phase_5,335,5,42,127,1688266060
11110,23,Ticks_Phase_5,0,9999,9999,9999,1603713148
11110,23,Ticks_Phase_5,1,9999,9999,9999,1604213832
11110,23,Ticks_Phase_5,2,9999,9999,9999,1604713540
11110,23,Ticks_Phase_5,3,9999,9999,9999,1605213252
11110,23,Ticks_Phase_5,4,9999,9999,9999,1605714000
11110,23,Ticks_Phase_5,5,9999,9999,9999,1606213688
11110,23,Ticks_Phase_5,6,9999,9999,9999,1606713452
11110,23,Ticks_Phase_5,7,9999,9999,9999,1607213116
11110,23,Ticks_Phase_5,8,9999,9999,9999,1607713852
11110,23,Ticks_Phase_5,9,9999,9999,9999,1608213624
11110,23,Ticks_Phase_5,10,9999,9999,9999,1608713308
11110,23,Ticks_Phase_5,11,9999,9999,9999,1609214044
11110,23,Ticks_Phase_5,12,9999,9999,9999,1609713732
11110,23,Ticks_Phase_5,13,9999,9999,9999,1610213496
11110,23,Ticks_Phase_5,14,9999,9999,9999,1610713180
11110,23,Ticks_Phase_5,15,9999,9999,9999,1611213912
11110,23,Ticks_Phase_5,16,9999,9999,9999,1611713608
11110,23,Ticks_Phase_5,17,9999,9999,9999,1612213364
11110,23,Ticks_Phase_5,18,9999,9999,9999,1612714100
11110,23,Ticks_Phase_5,19,9999,9999,9999,1613213796
11110,23,Ticks_Phase_5,20,9999,9999,9999,1613713484
11110,23,Ticks_Phase_5,21,9999,9999,9999,1614213240
11110,23,Ticks_Phase_5,22,9999,9999,9999,1614713980
11110,23,Ticks_Phase_5,23,9999,9999,9999,1615213664
11110,23,Ticks_Phase_5,24,9999,9999,9999,1615713352
11110,23,Ticks_Phase_5,25,9999,9999,9999,1616214084
11110,23,Ticks_Phase_5,26,9999,9999,9999,1616724032
11110,23,Ticks_Phase_5,27,9999,9999,9999,1617223796
11110,23,Ticks_Phase_5,28,9999,9999,9999,1617723484
11110,23,Ticks_Phase_5,29,9999,9999,9999,1618223228
11110,23,Ticks_Phase_5,30,9999,9999,9999,1618713704
11110,23,Ticks_Phase_5,31,9999,9999,9999,1619213388
11110,23,Ticks_Phase_5,32,9999,9999,9999,1619713148
11110,23,Ticks_Phase_5,33,9999,9999,9999,1620213884
11110,23,Ticks_Phase_5,34,9999,9999,9999,1620713580
11110,23,Ticks_Phase_5,35,9999,9999,9999,1621213260
11110,23,Ticks_Phase_5,36,9999,9999,9999,1621713996
11110,23,Ticks_Phase_5,37,9999,9999,9999,1622213756
11110,23,Ticks_Phase_5,38,9999,9999,9999,1622713444
11110,23,Ticks_Phase_5,39,9999,9999,9999,1623213132
11110,23,Ticks_Phase_5,40,9999,9999,9999,1623713872
11110,23,Ticks_Phase_5,41,9999,9999,9999,1624213564
11110,23,Ticks_Phase_5,42,9999,9999,9999,1624713328
11110,23,Ticks_Phase_5,43,9999,9999,9999,1625214056
11110,23,Ticks_Phase_5,44,9999,9999,9999,1625713744
11110,23,Ticks_Phase_5,45,9999,9999,9999,1626213440
11110,23,Ticks_Phase_5,46,9999,9999,9999,1626713204
11110,23,Ticks_Phase_5,47,9999,9999,9999,1627213932
11110,23,Ticks_Phase_5,48,9999,9999,9999,1627723880
11110,23,Ticks_Phase_5,49,9999,9999,9999,1628223576
11110,23,Ticks_Phase_5,50,9999,9999,9999,1628723256
11110,23,Ticks_Phase_5,51,9999,9999,9999,1629224044
11110,23,Ticks_Phase_5,52,9999,9999,9999,1629723732
11110,23,Ticks_Phase_5,53,9999,9999,9999,1630223420
11110,23,Ticks_Phase_5,54,9999,9999,9999,1630723180
11110,23,Ticks_Phase_5,55,9999,9999,9999,1631223916
11110,23,Ticks_Phase_5,56,9999,9999,9999,1631723612
11110,23,Ticks_Phase_5,57,9999,9999,9999,1632223304
11110,23,Ticks_Phase_5,58,9999,9999,9999,1632724052
11110,23,Ticks_Phase_5,59,9999,9999,9999,1633223740
11110,23,Ticks_Phase_5,60,9999,9999,9999,1633723488
11110,23,Ticks_Phase_5,61,9999,9999,9999,1634223176
11110,23,Ticks_Phase_5,62,9999,9999,9999,1634723912
11110,23,Ticks_Phase_5,63,9999,9999,9999,1635223668
11110,23,Ticks_Phase_5,64,9999,9999,9999,1635743808
11110,23,Ticks_Phase_5,65,9999,9999,9999,1636243564
11110,23,Ticks_Phase_5,66,9999,9999,9999,1636743256
11110,23,Ticks_Phase_5,67,9999,9999,9999,1637243992
11110,23,Ticks_Phase_5,68,9999,9999,9999,1637743676
11110,23,Ticks_Phase_5,69,9999,9999,9999,1638243440
11110,23,Ticks_Phase_5,70,9999,9999,9999,1638743136
11110,23,Ticks_Phase_5,71,9999,9999,9999,1639243868
11110,23,Ticks_Phase_5,72,9999,9999,9999,1639743552
11110,23,Ticks_Phase_5,73,9999,9999,9999,1640243316
11110,23,Ticks_Phase_5,74,9999,9999,9999,1640744024
11110,23,Ticks_Phase_5,75,9999,9999,9999,1641243716
11110,23,Ticks_Phase_5,76,9999,9999,9999,1641743484
11110,23,Ticks_Phase_5,77,9999,9999,9999,1642243164
11110,23,Ticks_Phase_5,78,9999,9999,9999,1642743900
11110,23,Ticks_Phase_5,79,9999,9999,9999,1643243588
11110,23,Ticks_Phase_5,80,9999,9999,9999,1643743356
11110,23,Ticks_Phase_5,81,9999,9999,9999,1644223576
11110,23,Ticks_Phase_5,82,9999,9999,9999,1644723256
11110,23,Ticks_Phase_5,83,9999,9999,9999,1645223996
11110,23,Ticks_Phase_5,84,9999,9999,9999,1645723756
11110,23,Ticks_Phase_5,85,9999,9999,9999,1646223452
11110,23,Ticks_Phase_5,86,9999,9999,9999,1646723132
11110,23,Ticks_Phase_5,87,9999,9999,9999,1647223868
11110,23,Ticks_Phase_5,88,9999,9999,9999,1647723628
11110,23,Ticks_Phase_5,89,9999,9999,9999,1648223324
11110,23,Ticks_Phase_5,90,9999,9999,9999,1648724060
11110,23,Ticks_Phase_5,91,9999,9999,9999,1649223744
11110,23,Ticks_Phase_5,92,9999,9999,9999,1649723504
11110,23,Ticks_Phase_5,93,9999,9999,9999,1650223168
11110,23,Ticks_Phase_5,94,9999,9999,9999,1650723904
11110,23,Ticks_Phase_5,95,9999,9999,9999,1651223664
11110,23,Ticks_Phase_5,96,9999,9999,9999,1651723360
11110,23,Ticks_Phase_5,97,9999,9999,9999,1652173924
11110,23,Ticks_Phase_5,98,9999,9999,9999,1652673604
11110,23,Ticks_Phase_5,99,9999,9999,9999,1653173368
11110,23,Ticks_Phase_5,100,9999,9999,9999,1653674104
11110,23,Ticks_Phase_5,101,9999,9999,9999,1654173792
11110,23,Ticks_Phase_5,102,9999,9999,9999,1654673480
11110,23,Ticks_Phase_5,103,9999,9999,9999,1655173240
11110,23,Ticks_Phase_5,104,9999,9999,9999,1655673912
11110,23,Ticks_Phase_5,105,9999,9999,9999,1656173668
11110,23,Ticks_Phase_5,106,9999,9999,9999,1656673356
11110,23,Ticks_Phase_5,107,9999,9999,9999,1657174096
11110,23,Ticks_Phase_5,108,9999,9999,9999,1657684076
11110,23,Ticks_Phase_5,109,9999,9999,9999,1658183804
11110,23,Ticks_Phase_5,110,9999,9999,9999,1658683488
11110,23,Ticks_Phase_5,111,9999,9999,9999,1659183176
11110,23,Ticks_Phase_5,112,9999,9999,9999,1659683968
11110,23,Ticks_Phase_5,113,9999,9999,9999,1660183652
11110,23,Ticks_Phase_5,114,9999,9999,9999,1660733536
11110,23,Ticks_Phase_5,115,9999,9999,9999,1661233276
11110,23,Ticks_Phase_5,116,9999,9999,9999,1661733992
11110,23,Ticks_Phase_5,117,9999,9999,9999,1662233680
11110,23,Ticks_Phase_5,118,9999,9999,9999,1662733436
11110,23,Ticks_Phase_5,119,9999,9999,9999,1663233128
11110,23,Ticks_Phase_5,120,9999,9999,9999,1663733860
11110,23,Ticks_Phase_5,121,9999,9999,9999,1664233552
11110,23,Ticks_Phase_5,122,9999,9999,9999,1664733240
11110,23,Ticks_Phase_5,123,9999,9999,9999,1665233976
11110,23,Ticks_Phase_5,124,9999,9999,9999,1665733740
11110,23,Ticks_Phase_5,125,9999,9999,9999,1666233424
11110,23,Ticks_Phase_5,126,9999,9999,9999,1666733116
11110,23,Ticks_Phase_5,127,9999,9999,9999,1667233848
11110,23,Ticks_Phase_5,128,9999,9999,9999,1667733612
11110,23,Ticks_Phase_5,129,9999,9999,9999,1668233300
11110,23,Ticks_Phase_5,130,9999,9999,9999,1668734036
11110,23,Ticks_Phase_5,131,9999,9999,9999,1669334132
11110,23,Ticks_Phase_5,132,9999,9999,9999,1669844028
11110,23,Ticks_Phase_5,133,9999,9999,9999,1670343788
11110,23,Ticks_Phase_5,134,9999,9999,9999,1670843472
11110,23,Ticks_Phase_5,135,9999,9999,9999,1671343160
11110,23,Ticks_Phase_5,136,9999,9999,9999,1671843892
11110,23,Ticks_Phase_5,137,9999,9999,9999,1672343656
11110,23,Ticks_Phase_5,138,9999,9999,9999,1672843344
11110,23,Ticks_Phase_5,139,9999,9999,9999,1673344084
11110,23,Ticks_Phase_5,140,9999,9999,9999,1673854028
11110,23,Ticks_Phase_5,141,9999,9999,9999,1674353720
11110,23,Ticks_Phase_5,142,9999,9999,9999,1674853484
11110,23,Ticks_Phase_5,143,9999,9999,9999,1675353168
11110,23,Ticks_Phase_5,144,9999,9999,9999,1675853908
11110,23,Ticks_Phase_5,145,9999,9999,9999,1676353592
11110,23,Ticks_Phase_5,146,9999,9999,9999,1676853356
11110,23,Ticks_Phase_5,147,9999,9999,9999,1677354064
11110,23,Ticks_Phase_5,148,9999,9999,9999,1677853804
11110,23,Ticks_Phase_5,149,9999,9999,9999,1678353492
11110,23,Ticks_Phase_5,150,9999,9999,9999,1678753884
11110,23,Ticks_Phase_5,151,9999,9999,9999,1679253564
11110,23,Ticks_Phase_5,152,9999,9999,9999,1679753328
11110,23,Ticks_Phase_5,153,9999,9999,9999,1680254064
11110,23,Ticks_Phase_5,154,9999,9999,9999,1680753756
11110,23,Ticks_Phase_5,155,9999,9999,9999,1681253440
11110,23,Ticks_Phase_5,156,9999,9999,9999,1681753204
11110,23,Ticks_Phase_5,157,9999,9999,9999,1682253904
11110,23,Ticks_Phase_5,158,9999,9999,9999,1682753636
11110,23,Ticks_Phase_5,159,9999,9999,9999,1683253316
11110,23,Ticks_Phase_5,160,9999,9999,9999,1683754100
11110,23,Ticks_Phase_5,161,9999,9999,9999,1684253764
11110,23,Ticks_Phase_5,162,9999,9999,9999,1684753532
11110,23,Ticks_Phase_5,163,9999,9999,9999,1685253216
11110,23,Ticks_Phase_5,164,9999,9999,9999,1685753956
11110,23,Ticks_Phase_5,165,9999,9999,9999,1686253636
11110,23,Ticks_Phase_5,166,9999,9999,9999,1686753400
11110,23,Ticks_Phase_5,167,9999,9999,9999,1687254140
11110,23,Ticks_Phase_5,168,9999,9999,9999,1687764088
11110,23,Ticks_Phase_5,169,9999,9999,9999,1688263772
11111,25,Jits_Pract_5,0,5,56,103,1734381004
11111,25,Jits_Pract_5,1,5,63,98,1734384028
11111,25,Jits_Pract_5,2,5,80,127,1734387152
11111,25,Jits_Pract_5,0,5,56,103,1734880576
11111,25,Jits_Pract_5,1,5,63,98,1734883752
11111,25,Jits_Pract_5,2,5,80,127,1734886952
11111,25,Jits_Pract_5,0,5,56,103,1735381296
11111,25,Jits_Pract_5,1,5,80,127,1735390520
11111,25,Jits_Pract_5,2,5,63,98,1735411200
11111,25,Jits_Pract_5,0,5,63,98,1735831140
11111,25,Jits_Pract_5,1,5,80,127,1735860668
11111,25,Jits_Pract_5,2,5,56,103,1735870788
11111,25,Jits_Pract_5,0,5,80,127,1736391108
11111,25,Jits_Pract_5,1,5,56,103,1736401376
11111,25,Jits_Pract_5,2,5,63,98,1736430904
11111,25,Jits_Pract_5,0,5,63,98,1736880444
11111,25,Jits_Pract_5,1,5,56,103,1736911312
11111,25,Jits_Pract_5,2,5,80,127,1736920388
11111,25,Jits_Pract_5,0,5,56,103,1737331172
11111,25,Jits_Pract_5,1,5,63,98,1737381224
11111,25,Jits_Pract_5,2,5,80,127,1737400712
11111,25,Jits_Pract_5,0,5,80,127,1737830764
11111,25,Jits_Pract_5,1,5,63,98,1737881040
11111,25,Jits_Pract_5,2,5,56,103,1737920980
11111,25,Jits_Pract_5,0,5,56,103,1738330432
11111,25,Jits_Pract_5,1,5,63,98,1738361228
11111,25,Jits_Pract_5,2,5,80,127,1738430832
11111,25,Jits_Pract_5,0,5,56,103,1738831148
11111,25,Jits_Pract_5,1,5,80,127,1738890716
11111,25,Jits_Pract_5,2,5,63,98,1738921288
11111,25,Jits_Pract_5,0,5,56,103,1739341156
11111,25,Jits_Pract_5,1,5,63,98,1739351352
11111,25,Jits_Pract_5,2,5,80,127,1739391288
11111,25,Jits_Pract_5,0,5,63,98,1739830780
11111,25,Jits_Pract_5,1,5,80,127,1739910504
11111,25,Jits_Pract_5,2,5,56,103,1739920700
11111,25,Jits_Pract_5,0,5,63,98,1740380560
11111,25,Jits_Pract_5,1,5,56,103,1740420424
11111,25,Jits_Pract_5,2,5,80,127,1740423416
11111,25,Jits_Pract_5,0,5,56,103,1740841224
11111,25,Jits_Pract_5,1,5,63,98,1740850596
11111,25,Jits_Pract_5,2,5,80,127,1740890536
11111,25,Jits_Pract_5,0,5,56,103,1741330896
11111,25,Jits_Pract_5,1,5,63,98,1741333888
11111,25,Jits_Pract_5,2,5,80,127,1741351276
11111,25,Jits_Pract_5,0,9999,9999,9999,1734628444
11111,25,Jits_Pract_5,1,9999,9999,9999,1735128168
11111,25,Jits_Pract_5,2,9999,9999,9999,1735628884
11111,25,Jits_Pract_5,3,9999,9999,9999,1736128624
11111,25,Jits_Pract_5,4,9999,9999,9999,1736628284
11111,25,Jits_Pract_5,5,9999,9999,9999,1737129080
11111,25,Jits_Pract_5,6,9999,9999,9999,1737628732
11111,25,Jits_Pract_5,7,9999,9999,9999,1738128476
11111,25,Jits_Pract_5,8,9999,9999,9999,1738628216
11111,25,Jits_Pract_5,9,9999,9999,9999,1739128932
11111,25,Jits_Pract_5,10,9999,9999,9999,1739628600
11111,25,Jits_Pract_5,11,9999,9999,9999,1740128344
11111,25,Jits_Pract_5,12,9999,9999,9999,1740629116
11111,25,Jits_Pract_5,13,9999,9999,9999,1741128816
11111,25,Jits_Pract_5,14,9999,9999,9999,1741628468
11112,24,Jits_Pract_8,0,5,56,103,1793889636
11112,24,Jits_Pract_8,1,5,63,98,1793892660
11112,24,Jits_Pract_8,2,5,80,127,1793895856
11112,24,Jits_Pract_8,0,5,56,103,1794690548
11112,24,Jits_Pract_8,1,5,63,98,1794693492
11112,24,Jits_Pract_8,2,5,80,127,1794696620
11112,24,Jits_Pract_8,0,5,80,127,1795429744
11112,24,Jits_Pract_8,1,5,63,98,1795519952
11112,24,Jits_Pract_8,2,5,56,103,1795530072
11112,24,Jits_Pract_8,3,1,48,41,1795555284
11112,24,Jits_Pract_8,0,5,56,103,1796250116
11112,24,Jits_Pract_8,1,5,63,98,1796260312
11112,24,Jits_Pract_8,2,1,48,41,1796298876
11112,24,Jits_Pract_8,3,5,80,127,1796350436
11112,24,Jits_Pract_8,0,5,63,98,1797020292
11112,24,Jits_Pract_8,1,1,48,35,1797044316
11112,24,Jits_Pract_8,2,5,80,127,1797049664
11112,24,Jits_Pract_8,3,5,56,103,1797080384
11112,24,Jits_Pract_8,0,1,48,30,1797790268
11112,24,Jits_Pract_8,1,5,56,103,1797819740
11112,24,Jits_Pract_8,2,5,80,127,1797920048
11112,24,Jits_Pract_8,3,5,63,98,1797970272
11112,24,Jits_Pract_8,0,5,56,103,1798619504
11112,24,Jits_Pract_8,1,5,80,127,1798669556
11112,24,Jits_Pract_8,2,1,48,39,1798700424
11112,24,Jits_Pract_8,3,5,63,98,1798709660
11112,24,Jits_Pract_8,0,1,48,36,1799445152
11112,24,Jits_Pract_8,1,5,80,127,1799450280
11112,24,Jits_Pract_8,2,5,63,98,1799479832
11112,24,Jits_Pract_8,3,5,56,103,1799550396
11112,24,Jits_Pract_8,0,1,48,39,1800221772
11112,24,Jits_Pract_8,1,5,63,98,1800280336
11112,24,Jits_Pract_8,2,5,56,103,1800310232
11112,24,Jits_Pract_8,3,5,80,127,1800369488
11112,24,Jits_Pract_8,0,5,56,103,1801019636
11112,24,Jits_Pract_8,1,5,80,127,1801023004
11112,24,Jits_Pract_8,2,1,48,46,1801056540
11112,24,Jits_Pract_8,3,5,63,98,1801139428
11112,24,Jits_Pract_8,0,1,48,41,1801846400
11112,24,Jits_Pract_8,1,5,56,103,1801900308
11112,24,Jits_Pract_8,2,5,80,127,1801940244
11112,24,Jits_Pract_8,3,5,63,98,1801949452
11112,24,Jits_Pract_8,0,1,48,44,1802646164
11112,24,Jits_Pract_8,1,5,56,103,1802660060
11112,24,Jits_Pract_8,2,5,80,127,1802679696
11112,24,Jits_Pract_8,3,5,63,98,1802759472
11112,24,Jits_Pract_8,0,5,80,127,1803450156
11112,24,Jits_Pract_8,1,1,48,48,1803452456
11112,24,Jits_Pract_8,2,5,56,103,1803550008
11112,24,Jits_Pract_8,3,5,63,98,1803560528
11112,24,Jits_Pract_8,0,5,63,98,1804219960
11112,24,Jits_Pract_8,1,5,80,127,1804280204
11112,24,Jits_Pract_8,2,5,56,103,1804290548
11112,24,Jits_Pract_8,3,1,48,42,1804307292
11112,24,Jits_Pract_8,0,5,56,103,1805019640
11112,24,Jits_Pract_8,1,1,48,47,1805053324
11112,24,Jits_Pract_8,2,5,63,98,1805090056
11112,24,Jits_Pract_8,3,5,80,127,1805093796
11112,24,Jits_Pract_8,0,9999,9999,9999,1794287716
11112,24,Jits_Pract_8,1,9999,9999,9999,1795087432
11112,24,Jits_Pract_8,2,9999,9999,9999,1795887168
11112,24,Jits_Pract_8,3,9999,9999,9999,1796687988
11112,24,Jits_Pract_8,4,9999,9999,9999,1797487676
11112,24,Jits_Pract_8,5,9999,9999,9999,1798287436
11112,24,Jits_Pract_8,6,9999,9999,9999,1799087188
11112,24,Jits_Pract_8,7,9999,9999,9999,1799887940
11112,24,Jits_Pract_8,8,9999,9999,9999,1800687700
11112,24,Jits_Pract_8,9,9999,9999,9999,1801487440
11112,24,Jits_Pract_8,10,9999,9999,9999,1802287168
11112,24,Jits_Pract_8,11,9999,9999,9999,1803087972
11112,24,Jits_Pract_8,12,9999,9999,9999,1803887732
11112,24,Jits_Pract_8,13,9999,9999,9999,1804687424
11112,24,Jits_Pract_8,14,9999,9999,9999,1805487164
11113,25,Jits_Pract_5,0,5,56,103,1813047832
11113,25,Jits_Pract_5,1,5,63,98,1813051004
11113,25,Jits_Pract_5,2,5,80,127,1813054124
11113,25,Jits_Pract_5,0,5,56,103,1813548380
11113,25,Jits_Pract_5,1,5,63,98,1813551400
11113,25,Jits_Pract_5,2,5,80,127,1813554672
11113,25,Jits_Pract_5,0,5,56,103,1814048092
11113,25,Jits_Pract_5,1,5,80,127,1814058460
11113,25,Jits_Pract_5,2,5,63,98,1814077948
11113,25,Jits_Pract_5,0,5,63,98,1814497712
11113,25,Jits_Pract_5,1,5,80,127,1814528360
11113,25,Jits_Pract_5,2,5,56,103,1814537808
11113,25,Jits_Pract_5,0,1,48,37,1814998160
11113,25,Jits_Pract_5,1,5,80,127,1815057744
11113,25,Jits_Pract_5,2,5,56,103,1815067940
11113,25,Jits_Pract_5,3,5,63,98,1815097924
11113,25,Jits_Pract_5,0,5,63,98,1815557372
11113,25,Jits_Pract_5,1,5,56,103,1815588172
11113,25,Jits_Pract_5,2,5,80,127,1815597344
11113,25,Jits_Pract_5,3,1,48,40,1815609380
11113,25,Jits_Pract_5,0,5,56,103,1816008064
11113,25,Jits_Pract_5,1,5,63,98,1816058268
11113,25,Jits_Pract_5,2,5,80,127,1816077680
11113,25,Jits_Pract_5,3,1,48,43,1816111760
11113,25,Jits_Pract_5,0,5,80,127,1816507844
11113,25,Jits_Pract_5,1,5,63,98,1816557824
11113,25,Jits_Pract_5,2,1,48,42,1816569484
11113,25,Jits_Pract_5,3,5,56,103,1816598052
11113,25,Jits_Pract_5,0,5,56,103,1817007476
11113,25,Jits_Pract_5,1,5,63,98,1817038124
11113,25,Jits_Pract_5,2,1,48,40,1817077584
11113,25,Jits_Pract_5,3,5,80,127,1817107872
11113,25,Jits_Pract_5,0,5,56,103,1817508156
11113,25,Jits_Pract_5,1,5,80,127,1817567724
11113,25,Jits_Pract_5,2,1,48,37,1817575028
11113,25,Jits_Pract_5,3,5,63,98,1817598216
11113,25,Jits_Pract_5,0,5,56,103,1818018052
11113,25,Jits_Pract_5,1,5,63,98,1818028324
11113,25,Jits_Pract_5,2,1,48,47,1818048680
11113,25,Jits_Pract_5,3,5,80,127,1818068332
11113,25,Jits_Pract_5,0,5,63,98,1818507796
11113,25,Jits_Pract_5,1,1,48,47,1818523944
11113,25,Jits_Pract_5,2,5,80,127,1818587512
11113,25,Jits_Pract_5,3,5,56,103,1818598152
11113,25,Jits_Pract_5,0,1,48,42,1819039224
11113,25,Jits_Pract_5,1,5,63,98,1819057456
11113,25,Jits_Pract_5,2,5,56,103,1819097772
11113,25,Jits_Pract_5,3,5,80,127,1819100832
11113,25,Jits_Pract_5,0,5,56,103,1819518336
11113,25,Jits_Pract_5,1,5,63,98,1819527636
11113,25,Jits_Pract_5,2,5,80,127,1819567424
11113,25,Jits_Pract_5,3,1,48,36,1819584316
11113,25,Jits_Pract_5,0,5,56,103,1820007924
11113,25,Jits_Pract_5,1,5,63,98,1820010916
11113,25,Jits_Pract_5,2,5,80,127,1820028236
11113,25,Jits_Pract_5,3,1,48,33,1820082520
11113,25,Jits_Pract_5,0,9999,9999,9999,1813295192
11113,25,Jits_Pract_5,1,9999,9999,9999,1813795940
11113,25,Jits_Pract_5,2,9999,9999,9999,1814295604
11113,25,Jits_Pract_5,3,9999,9999,9999,1814795344
11113,25,Jits_Pract_5,4,9999,9999,9999,1815296104
11113,25,Jits_Pract_5,5,9999,9999,9999,1815806064
11113,25,Jits_Pract_5,6,9999,9999,9999,1816305752
11113,25,Jits_Pract_5,7,9999,9999,9999,1816805456
11113,25,Jits_Pract_5,8,9999,9999,9999,1817305164
11113,25,Jits_Pract_5,9,9999,9999,9999,1817805920
11113,25,Jits_Pract_5,10,9999,9999,9999,1818305624
11113,25,Jits_Pract_5,11,9999,9999,9999,1818805336
11113,25,Jits_Pract_5,12,9999,9999,9999,1819306072
11113,25,Jits_Pract_5,13,9999,9999,9999,1819805760
11113,25,Jits_Pract_5,14,9999,9999,9999,1820305528
11114,18,Jits_Linear_8,0,5,56,103,1851095536
11114,18,Jits_Linear_8,1,5,63,98,1851098484
11114,18,Jits_Linear_8,2,5,80,127,1851101604
11114,18,Jits_Linear_8,0,5,56,103,1851914576
11114,18,Jits_Linear_8,1,5,63,98,1851917900
11114,18,Jits_Linear_8,2,5,80,127,1851920868
11114,18,Jits_Linear_8,0,5,80,127,1852674512
11114,18,Jits_Linear_8,1,1,48,60,1852752268
11114,18,Jits_Linear_8,2,5,63,98,1852764444
11114,18,Jits_Linear_8,3,5,56,103,1852774712
11114,18,Jits_Linear_8,0,5,56,103,1853515212
11114,18,Jits_Linear_8,1,5,63,98,1853525332
11114,18,Jits_Linear_8,2,1,48,51,1853567336
11114,18,Jits_Linear_8,3,5,80,127,1853614488
11114,18,Jits_Linear_8,0,5,63,98,1854304492
11114,18,Jits_Linear_8,1,5,80,127,1854335216
11114,18,Jits_Linear_8,2,1,48,48,1854352036
11114,18,Jits_Linear_8,3,5,56,103,1854365256
11114,18,Jits_Linear_8,0,1,48,44,1855111984
11114,18,Jits_Linear_8,1,5,56,103,1855124912
11114,18,Jits_Linear_8,2,5,80,127,1855225368
11114,18,Jits_Linear_8,3,5,63,98,1855275452
11114,18,Jits_Linear_8,0,5,56,103,1855934792
11114,18,Jits_Linear_8,1,5,80,127,1855985216
11114,18,Jits_Linear_8,2,1,48,50,1856023340
11114,18,Jits_Linear_8,3,5,63,98,1856024924
11114,18,Jits_Linear_8,0,1,48,45,1856767488
11114,18,Jits_Linear_8,1,5,80,127,1856774560
11114,18,Jits_Linear_8,2,5,63,98,1856805356
11114,18,Jits_Linear_8,3,5,56,103,1856874804
11114,18,Jits_Linear_8,0,1,48,45,1857598036
11114,18,Jits_Linear_8,1,5,63,98,1857615296
11114,18,Jits_Linear_8,2,5,56,103,1857645124
11114,18,Jits_Linear_8,3,5,80,127,1857705348
11114,18,Jits_Linear_8,0,5,56,103,1858364712
11114,18,Jits_Linear_8,1,5,80,127,1858368076
11114,18,Jits_Linear_8,2,1,48,44,1858437656
11114,18,Jits_Linear_8,3,5,63,98,1858484584
11114,18,Jits_Linear_8,0,1,48,50,1859206396
11114,18,Jits_Linear_8,1,5,56,103,1859245380
11114,18,Jits_Linear_8,2,5,80,127,1859285396
11114,18,Jits_Linear_8,3,5,63,98,1859294692
11114,18,Jits_Linear_8,0,5,56,103,1860005360
11114,18,Jits_Linear_8,1,5,80,127,1860024624
11114,18,Jits_Linear_8,2,1,48,52,1860047148
11114,18,Jits_Linear_8,3,5,63,98,1860104564
11114,18,Jits_Linear_8,0,5,80,127,1860794640
11114,18,Jits_Linear_8,1,1,48,54,1860866244
11114,18,Jits_Linear_8,2,5,56,103,1860895036
11114,18,Jits_Linear_8,3,5,63,98,1860905184
11114,18,Jits_Linear_8,0,5,63,98,1861564820
11114,18,Jits_Linear_8,1,5,80,127,1861625284
11114,18,Jits_Linear_8,2,5,56,103,1861634288
11114,18,Jits_Linear_8,3,1,48,45,1861654336
11114,18,Jits_Linear_8,0,5,56,103,1862364644
11114,18,Jits_Linear_8,1,1,48,45,1862423212
11114,18,Jits_Linear_8,2,5,63,98,1862435292
11114,18,Jits_Linear_8,3,5,80,127,1862438532
11114,18,Jits_Linear_8,0,1,48,45,1863187596
11114,18,Jits_Linear_8,1,5,63,98,1863195184
11114,18,Jits_Linear_8,2,5,56,103,1863245336
11114,18,Jits_Linear_8,3,5,80,127,1863248480
11114,18,Jits_Linear_8,0,5,56,103,1863944516
11114,18,Jits_Linear_8,1,5,80,127,1863947508
11114,18,Jits_Linear_8,2,1,48,48,1863972420
11114,18,Jits_Linear_8,3,5,63,98,1864034592
11114,18,Jits_Linear_8,0,5,63,98,1864775088
11114,18,Jits_Linear_8,1,1,48,50,1864783084
11114,18,Jits_Linear_8,2,5,56,103,1864865216
11114,18,Jits_Linear_8,3,5,80,127,1864895100
11114,18,Jits_Linear_8,0,5,56,103,1865555292
11114,18,Jits_Linear_8,1,1,48,54,1865570092
11114,18,Jits_Linear_8,2,5,63,98,1865654564
11114,18,Jits_Linear_8,3,5,80,127,1865685496
11114,18,Jits_Linear_8,0,5,63,98,1866365256
11114,18,Jits_Linear_8,1,1,48,62,1866371664
11114,18,Jits_Linear_8,2,5,56,103,1866374472
11114,18,Jits_Linear_8,3,5,80,127,1866464888
11114,18,Jits_Linear_8,0,1,48,57,1867148340
11114,18,Jits_Linear_8,1,5,63,98,1867165000
11114,18,Jits_Linear_8,2,5,56,103,1867245168
11114,18,Jits_Linear_8,3,5,80,127,1867249044
11114,18,Jits_Linear_8,0,5,80,127,1867914564
11114,18,Jits_Linear_8,1,5,63,98,1867935248
11114,18,Jits_Linear_8,2,5,56,103,1867994588
11114,18,Jits_Linear_8,3,1,48,50,1867998156
11114,18,Jits_Linear_8,0,5,56,103,1868734784
11114,18,Jits_Linear_8,1,5,63,98,1868755388
11114,18,Jits_Linear_8,2,5,80,127,1868758604
11114,18,Jits_Linear_8,3,1,48,43,1868790568
11114,18,Jits_Linear_8,0,5,63,98,1869454752
11114,18,Jits_Linear_8,1,5,80,127,1869534552
11114,18,Jits_Linear_8,2,5,56,103,1869544896
11114,18,Jits_Linear_8,3,1,48,40,1869552352
11114,18,Jits_Linear_8,0,5,63,98,1870254504
11114,18,Jits_Linear_8,1,5,56,103,1870275112
11114,18,Jits_Linear_8,2,1,48,45,1870288864
11114,18,Jits_Linear_8,3,5,80,127,1870325084
11114,18,Jits_Linear_8,0,1,48,53,1871030764
11114,18,Jits_Linear_8,1,5,80,127,1871034696
11114,18,Jits_Linear_8,2,5,63,98,1871074856
11114,18,Jits_Linear_8,3,5,56,103,1871095020
11114,18,Jits_Linear_8,0,1,48,45,1871800476
11114,18,Jits_Linear_8,1,5,56,103,1871844792
11114,18,Jits_Linear_8,2,5,63,98,1871855060
11114,18,Jits_Linear_8,3,5,80,127,1871874400
11114,18,Jits_Linear_8,0,5,56,103,1872545128
11114,18,Jits_Linear_8,1,1,48,40,1872581428
11114,18,Jits_Linear_8,2,5,63,98,1872635184
11114,18,Jits_Linear_8,3,5,80,127,1872694612
11114,18,Jits_Linear_8,0,5,80,127,1873344976
11114,18,Jits_Linear_8,1,5,56,103,1873355248
11114,18,Jits_Linear_8,2,1,48,43,1873372388
11114,18,Jits_Linear_8,3,5,63,98,1873424844
11114,18,Jits_Linear_8,0,5,63,98,1874144744
11114,18,Jits_Linear_8,1,1,48,41,1874180304
11114,18,Jits_Linear_8,2,5,80,127,1874234752
11114,18,Jits_Linear_8,3,5,56,103,1874245096
11114,18,Jits_Linear_8,0,5,63,98,1874845012
11114,18,Jits_Linear_8,1,5,80,127,1874895212
11114,18,Jits_Linear_8,2,5,56,103,1874954556
11114,18,Jits_Linear_8,3,1,48,54,1875032004
11114,18,Jits_Linear_8,0,5,56,103,1875634500
11114,18,Jits_Linear_8,1,5,80,127,1875684704
11114,18,Jits_Linear_8,2,1,48,46,1875703572
11114,18,Jits_Linear_8,3,5,63,98,1875705156
11114,18,Jits_Linear_8,0,5,56,103,1876364664
11114,18,Jits_Linear_8,1,5,80,127,1876425132
11114,18,Jits_Linear_8,2,1,48,45,1876440536
11114,18,Jits_Linear_8,3,5,63,98,1876494808
11114,18,Jits_Linear_8,0,5,56,103,1877124428
11114,18,Jits_Linear_8,1,5,80,127,1877155148
11114,18,Jits_Linear_8,2,5,63,98,1877184824
11114,18,Jits_Linear_8,3,1,48,50,1877238136
11114,18,Jits_Linear_8,0,5,56,103,1877925088
11114,18,Jits_Linear_8,1,1,48,48,1877938248
11114,18,Jits_Linear_8,2,5,80,127,1877944792
11114,18,Jits_Linear_8,3,5,63,98,1878004960
11114,18,Jits_Linear_8,0,1,48,48,1878709088
11114,18,Jits_Linear_8,1,5,80,127,1878765012
11114,18,Jits_Linear_8,2,5,56,103,1878775208
11114,18,Jits_Linear_8,3,5,63,98,1878785332
11114,18,Jits_Linear_8,0,5,56,103,1879474432
11114,18,Jits_Linear_8,1,5,80,127,1879514444
11114,18,Jits_Linear_8,2,1,48,49,1879532708
11114,18,Jits_Linear_8,3,5,63,98,1879545308
11114,18,Jits_Linear_8,0,5,56,103,1880194340
11114,18,Jits_Linear_8,1,5,63,98,1880225064
11114,18,Jits_Linear_8,2,5,80,127,1880265000
11114,18,Jits_Linear_8,3,1,48,42,1880292848
11114,18,Jits_Linear_8,0,5,80,127,1880894988
11114,18,Jits_Linear_8,1,5,63,98,1880944892
11114,18,Jits_Linear_8,2,5,56,103,1880964456
11114,18,Jits_Linear_8,3,1,48,43,1881033576
11114,18,Jits_Linear_8,0,5,56,103,1881674976
11114,18,Jits_Linear_8,1,5,80,127,1881744884
11114,18,Jits_Linear_8,2,1,48,45,1881747484
11114,18,Jits_Linear_8,3,5,63,98,1881805044
11114,18,Jits_Linear_8,0,5,80,127,1882414364
11114,18,Jits_Linear_8,1,1,48,35,1882493608
11114,18,Jits_Linear_8,2,5,63,98,1882504420
11114,18,Jits_Linear_8,3,5,56,103,1882525028
11114,18,Jits_Linear_8,0,5,63,98,1883175252
11114,18,Jits_Linear_8,1,5,56,103,1883194812
11114,18,Jits_Linear_8,2,5,80,127,1883234676
11114,18,Jits_Linear_8,3,1,48,47,1883257276
11114,18,Jits_Linear_8,0,5,80,127,1883874812
11114,18,Jits_Linear_8,1,5,63,98,1883895124
11114,18,Jits_Linear_8,2,5,56,103,1883974944
11114,18,Jits_Linear_8,3,1,48,51,1883987576
11114,18,Jits_Linear_8,0,5,63,98,1884604976
11114,18,Jits_Linear_8,1,1,48,49,1884640312
11114,18,Jits_Linear_8,2,5,56,103,1884715360
11114,18,Jits_Linear_8,3,5,80,127,1884718500
11114,18,Jits_Linear_8,0,5,63,98,1885364640
11114,18,Jits_Linear_8,1,1,48,49,1885367984
11114,18,Jits_Linear_8,2,5,56,103,1885374828
11114,18,Jits_Linear_8,3,5,80,127,1885377896
11114,18,Jits_Linear_8,0,5,56,103,1886084736
11114,18,Jits_Linear_8,1,1,48,48,1886106212
11114,18,Jits_Linear_8,2,5,80,127,1886205268
11114,18,Jits_Linear_8,3,5,63,98,1886245232
11114,18,Jits_Linear_8,0,5,56,103,1886834916
11114,18,Jits_Linear_8,1,5,80,127,1886914864
11114,18,Jits_Linear_8,2,5,63,98,1886935696
11114,18,Jits_Linear_8,3,1,48,46,1886946536
11114,18,Jits_Linear_8,0,5,56,103,1887565084
11114,18,Jits_Linear_8,1,5,63,98,1887674848
11114,18,Jits_Linear_8,2,5,80,127,1887678140
11114,18,Jits_Linear_8,3,1,48,46,1887682156
11114,18,Jits_Linear_8,0,5,56,103,1888324916
11114,18,Jits_Linear_8,1,5,80,127,1888354816
11114,18,Jits_Linear_8,2,5,63,98,1888375132
11114,18,Jits_Linear_8,3,1,48,45,1888462144
11114,18,Jits_Linear_8,0,5,63,98,1889034832
11114,18,Jits_Linear_8,1,5,56,103,1889044952
11114,18,Jits_Linear_8,2,5,80,127,1889055224
11114,18,Jits_Linear_8,3,1,48,43,1889114260
11114,18,Jits_Linear_8,0,5,80,127,1889745272
11114,18,Jits_Linear_8,1,5,56,103,1889794432
11114,18,Jits_Linear_8,2,1,48,45,1889821744
11114,18,Jits_Linear_8,3,5,63,98,1889835584
11114,18,Jits_Linear_8,0,5,80,127,1890484884
11114,18,Jits_Linear_8,1,5,63,98,1890505192
11114,18,Jits_Linear_8,2,5,56,103,1890555244
11114,18,Jits_Linear_8,3,1,48,42,1890558960
11114,18,Jits_Linear_8,0,5,80,127,1891214676
11114,18,Jits_Linear_8,1,5,56,103,1891245696
11114,18,Jits_Linear_8,2,5,63,98,1891315008
11114,18,Jits_Linear_8,3,1,48,42,1891316568
11114,18,Jits_Linear_8,0,5,56,103,1891984932
11114,18,Jits_Linear_8,1,5,80,127,1891995052
11114,18,Jits_Linear_8,2,1,48,45,1892021392
11114,18,Jits_Linear_8,3,5,63,98,1892034984
11114,18,Jits_Linear_8,0,5,56,103,1892614756
11114,18,Jits_Linear_8,1,5,63,98,1892634920
11114,18,Jits_Linear_8,2,5,80,127,1892704700
11114,18,Jits_Linear_8,3,1,48,47,1892735392
11114,18,Jits_Linear_8,0,5,63,98,1893354892
11114,18,Jits_Linear_8,1,1,48,48,1893362420
11114,18,Jits_Linear_8,2,5,80,127,1893415448
11114,18,Jits_Linear_8,3,5,56,103,1893434640
11114,18,Jits_Linear_8,0,5,80,127,1894055448
11114,18,Jits_Linear_8,1,5,56,103,1894085124
11114,18,Jits_Linear_8,2,1,48,51,1894102564
11114,18,Jits_Linear_8,3,5,63,98,1894114940
11114,18,Jits_Linear_8,0,5,56,103,1894764788
11114,18,Jits_Linear_8,1,1,48,47,1894819600
11114,18,Jits_Linear_8,2,5,63,98,1894825696
11114,18,Jits_Linear_8,3,5,80,127,1894884596
11114,18,Jits_Linear_8,0,5,80,127,1895494960
11114,18,Jits_Linear_8,1,1,48,48,1895508568
11114,18,Jits_Linear_8,2,5,56,103,1895514668
11114,18,Jits_Linear_8,3,5,63,98,1895585172
11114,18,Jits_Linear_8,0,5,80,127,1896204804
11114,18,Jits_Linear_8,1,5,63,98,1896225040
11114,18,Jits_Linear_8,2,1,48,48,1896250628
11114,18,Jits_Linear_8,3,5,56,103,1896255004
11114,18,Jits_Linear_8,0,5,80,127,1896894792
11114,18,Jits_Linear_8,1,5,63,98,1896915324
11114,18,Jits_Linear_8,2,1,48,43,1896945564
11114,18,Jits_Linear_8,3,5,56,103,1896974808
11114,18,Jits_Linear_8,0,5,80,127,1897595360
11114,18,Jits_Linear_8,1,1,48,50,1897619080
11114,18,Jits_Linear_8,2,5,56,103,1897694556
11114,18,Jits_Linear_8,3,5,63,98,1897725340
11114,18,Jits_Linear_8,0,5,63,98,1898285524
11114,18,Jits_Linear_8,1,5,80,127,1898334680
11114,18,Jits_Linear_8,2,5,56,103,1898355140
11114,18,Jits_Linear_8,3,1,48,35,1898415204
11114,18,Jits_Linear_8,0,5,80,127,1899024720
11114,18,Jits_Linear_8,1,1,48,37,1899025764
11114,18,Jits_Linear_8,2,5,56,103,1899054712
11114,18,Jits_Linear_8,3,5,63,98,1899057776
11114,18,Jits_Linear_8,0,1,48,38,1899728024
11114,18,Jits_Linear_8,1,5,63,98,1899754800
11114,18,Jits_Linear_8,2,5,56,103,1899794740
11114,18,Jits_Linear_8,3,5,80,127,1899815152
11114,18,Jits_Linear_8,0,5,80,127,1900394908
11114,18,Jits_Linear_8,1,1,48,47,1900451068
11114,18,Jits_Linear_8,2,5,63,98,1900474776
11114,18,Jits_Linear_8,3,5,56,103,1900514640
11114,18,Jits_Linear_8,0,5,63,98,1901104632
11114,18,Jits_Linear_8,1,1,48,44,1901161688
11114,18,Jits_Linear_8,2,5,80,127,1901185548
11114,18,Jits_Linear_8,3,5,56,103,1901204808
11114,18,Jits_Linear_8,0,5,56,103,1901834548
11114,18,Jits_Linear_8,1,5,63,98,1901844744
11114,18,Jits_Linear_8,2,1,48,45,1901863176
11114,18,Jits_Linear_8,3,5,80,127,1901884848
11114,18,Jits_Linear_8,0,5,56,103,1902444988
11114,18,Jits_Linear_8,1,5,80,127,1902447908
11114,18,Jits_Linear_8,2,1,48,46,1902539060
11114,18,Jits_Linear_8,3,5,63,98,1902585160
11114,18,Jits_Linear_8,0,5,56,103,1903124780
11114,18,Jits_Linear_8,1,1,48,45,1903185836
11114,18,Jits_Linear_8,2,5,63,98,1903215084
11114,18,Jits_Linear_8,3,5,80,127,1903284544
11114,18,Jits_Linear_8,0,1,48,52,1903871172
11114,18,Jits_Linear_8,1,5,63,98,1903884692
11114,18,Jits_Linear_8,2,5,80,127,1903887980
11114,18,Jits_Linear_8,3,5,56,103,1903945180
11114,18,Jits_Linear_8,0,1,48,48,1904539964
11114,18,Jits_Linear_8,1,5,80,127,1904604508
11114,18,Jits_Linear_8,2,5,56,103,1904625040
11114,18,Jits_Linear_8,3,5,63,98,1904635388
11114,18,Jits_Linear_8,0,5,56,103,1905195472
11114,18,Jits_Linear_8,1,5,63,98,1905204544
11114,18,Jits_Linear_8,2,1,48,50,1905254116
11114,18,Jits_Linear_8,3,5,80,127,1905275488
11114,18,Jits_Linear_8,0,5,80,127,1905875268
11114,18,Jits_Linear_8,1,1,48,46,1905916976
11114,18,Jits_Linear_8,2,5,56,103,1905924568
11114,18,Jits_Linear_8,3,5,63,98,1905974572
11114,18,Jits_Linear_8,0,1,48,40,1906596344
11114,18,Jits_Linear_8,1,5,56,103,1906635108
11114,18,Jits_Linear_8,2,5,63,98,1906645676
11114,18,Jits_Linear_8,3,5,80,127,1906685316
11114,18,Jits_Linear_8,0,5,56,103,1907254764
11114,18,Jits_Linear_8,1,5,63,98,1907294632
11114,18,Jits_Linear_8,2,1,48,39,1907319768
11114,18,Jits_Linear_8,3,5,80,127,1907344752
11114,18,Jits_Linear_8,0,5,80,127,1907885568
11114,18,Jits_Linear_8,1,5,56,103,1907934796
11114,18,Jits_Linear_8,2,5,63,98,1907954960
11114,18,Jits_Linear_8,3,1,48,39,1908019380
11114,18,Jits_Linear_8,0,5,80,127,1908565388
11114,18,Jits_Linear_8,1,1,48,36,1908603204
11114,18,Jits_Linear_8,2,5,63,98,1908624728
11114,18,Jits_Linear_8,3,5,56,103,1908704656
11114,18,Jits_Linear_8,0,5,80,127,1909214696
11114,18,Jits_Linear_8,1,5,56,103,1909254712
11114,18,Jits_Linear_8,2,5,63,98,1909274872
11114,18,Jits_Linear_8,3,1,48,41,1909311572
11114,18,Jits_Linear_8,0,5,56,103,1909934676
11114,18,Jits_Linear_8,1,1,48,47,1909939220
11114,18,Jits_Linear_8,2,5,80,127,1909944792
11114,18,Jits_Linear_8,3,5,63,98,1909984504
11114,18,Jits_Linear_8,0,1,48,49,1910623464
11114,18,Jits_Linear_8,1,5,56,103,1910664544
11114,18,Jits_Linear_8,2,5,63,98,1910704704
11114,18,Jits_Linear_8,3,5,80,127,1910707848
11114,18,Jits_Linear_8,0,5,63,98,1911214492
11114,18,Jits_Linear_8,1,5,80,127,1911255480
11114,18,Jits_Linear_8,2,5,56,103,1911325236
11114,18,Jits_Linear_8,3,1,48,44,1911336180
11114,18,Jits_Linear_8,0,5,63,98,1911864780
11114,18,Jits_Linear_8,1,1,48,41,1911924320
11114,18,Jits_Linear_8,2,5,56,103,1911944796
11114,18,Jits_Linear_8,3,5,80,127,1912005036
11114,18,Jits_Linear_8,0,5,80,127,1912535648
11114,18,Jits_Linear_8,1,1,48,46,1912573240
11114,18,Jits_Linear_8,2,5,63,98,1912584720
11114,18,Jits_Linear_8,3,5,56,103,1912615320
11114,18,Jits_Linear_8,0,5,56,103,1913184676
11114,18,Jits_Linear_8,1,1,48,46,1913232760
11114,18,Jits_Linear_8,2,5,63,98,1913234724
11114,18,Jits_Linear_8,3,5,80,127,1913244920
11114,18,Jits_Linear_8,0,1,48,49,1913847356
11114,18,Jits_Linear_8,1,5,56,103,1913855548
11114,18,Jits_Linear_8,2,5,63,98,1913965024
11114,18,Jits_Linear_8,3,5,80,127,1913985484
11114,18,Jits_Linear_8,0,5,63,98,1914504652
11114,18,Jits_Linear_8,1,5,80,127,1914554708
11114,18,Jits_Linear_8,2,1,48,46,1914574536
11114,18,Jits_Linear_8,3,5,56,103,1914644832
11114,18,Jits_Linear_8,0,5,63,98,1915144500
11114,18,Jits_Linear_8,1,5,80,127,1915175548
11114,18,Jits_Linear_8,2,1,48,45,1915204968
11114,18,Jits_Linear_8,3,5,56,103,1915265452
11114,18,Jits_Linear_8,0,5,63,98,1915794860
11114,18,Jits_Linear_8,1,5,56,103,1915804984
11114,18,Jits_Linear_8,2,1,48,50,1915826388
11114,18,Jits_Linear_8,3,5,80,127,1915905524
11114,18,Jits_Linear_8,0,1,48,45,1916470880
11114,18,Jits_Linear_8,1,5,63,98,1916545540
11114,18,Jits_Linear_8,2,5,80,127,1916574980
11114,18,Jits_Linear_8,3,5,56,103,1916604876
11114,18,Jits_Linear_8,0,1,48,45,1917178852
11114,18,Jits_Linear_8,1,5,80,127,1917215224
11114,18,Jits_Linear_8,2,5,63,98,1917225520
11114,18,Jits_Linear_8,3,5,56,103,1917255120
11114,18,Jits_Linear_8,0,5,80,127,1917754724
11114,18,Jits_Linear_8,1,5,63,98,1917775332
11114,18,Jits_Linear_8,2,5,56,103,1917825312
11114,18,Jits_Linear_8,3,1,48,48,1917842600
11114,18,Jits_Linear_8,0,5,63,98,1918424484
11114,18,Jits_Linear_8,1,1,48,43,1918434652
11114,18,Jits_Linear_8,2,5,80,127,1918484720
11114,18,Jits_Linear_8,3,5,56,103,1918505428
11114,18,Jits_Linear_8,0,5,63,98,1919024508
11114,18,Jits_Linear_8,1,5,56,103,1919074784
11114,18,Jits_Linear_8,2,5,80,127,1919084908
11114,18,Jits_Linear_8,3,1,48,49,1919085872
11114,18,Jits_Linear_8,0,1,48,54,1919693708
11114,18,Jits_Linear_8,1,5,56,103,1919695144
11114,18,Jits_Linear_8,2,5,80,127,1919704592
11114,18,Jits_Linear_8,3,5,63,98,1919804920
11114,18,Jits_Linear_8,0,5,80,127,1920285032
11114,18,Jits_Linear_8,1,5,63,98,1920295552
11114,18,Jits_Linear_8,2,1,48,51,1920407828
11114,18,Jits_Linear_8,3,5,56,103,1920444716
11114,18,Jits_Linear_8,0,5,63,98,1920935556
11114,18,Jits_Linear_8,1,5,80,127,1920975496
11114,18,Jits_Linear_8,2,5,56,103,1921055368
11114,18,Jits_Linear_8,3,1,48,41,1921090576
11114,18,Jits_Linear_8,0,5,56,103,1921565144
11114,18,Jits_Linear_8,1,1,48,37,1921659688
11114,18,Jits_Linear_8,2,5,80,127,1921665492
11114,18,Jits_Linear_8,3,5,63,98,1921684828
11114,18,Jits_Linear_8,0,5,80,127,1922264304
11114,18,Jits_Linear_8,1,5,56,103,1922274648
11114,18,Jits_Linear_8,2,1,48,48,1922286532
11114,18,Jits_Linear_8,3,5,63,98,1922364724
11114,18,Jits_Linear_8,0,5,56,103,1922904420
11114,18,Jits_Linear_8,1,5,63,98,1922924880
11114,18,Jits_Linear_8,2,1,48,45,1922968680
11114,18,Jits_Linear_8,3,5,80,127,1923004816
11114,18,Jits_Linear_8,0,5,63,98,1923495364
11114,18,Jits_Linear_8,1,5,56,103,1923585424
11114,18,Jits_Linear_8,2,5,80,127,1923588416
11114,18,Jits_Linear_8,3,1,48,45,1923615892
11114,18,Jits_Linear_8,0,5,56,103,1924144596
11114,18,Jits_Linear_8,1,5,80,127,1924204916
11114,18,Jits_Linear_8,2,5,63,98,1924215260
11114,18,Jits_Linear_8,3,1,48,48,1924242264
11114,18,Jits_Linear_8,0,5,80,127,1924815404
11114,18,Jits_Linear_8,1,5,56,103,1924824324
11114,18,Jits_Linear_8,2,5,63,98,1924827396
11114,18,Jits_Linear_8,3,1,48,51,1924864608
11114,18,Jits_Linear_8,0,5,56,103,1925394728
11114,18,Jits_Linear_8,1,5,80,127,1925405220
11114,18,Jits_Linear_8,2,5,63,98,1925424436
11114,18,Jits_Linear_8,3,1,48,43,1925545468
11114,18,Jits_Linear_8,0,5,63,98,1925984644
11114,18,Jits_Linear_8,1,5,80,127,1926045480
11114,18,Jits_Linear_8,2,1,48,38,1926075128
11114,18,Jits_Linear_8,3,5,56,103,1926095156
11114,18,Jits_Linear_8,0,1,48,38,1926682144
11114,18,Jits_Linear_8,1,5,63,98,1926685324
11114,18,Jits_Linear_8,2,5,56,103,1926695248
11114,18,Jits_Linear_8,3,5,80,127,1926744400
11114,18,Jits_Linear_8,0,5,63,98,1927195196
11114,18,Jits_Linear_8,1,5,80,127,1927214412
11114,18,Jits_Linear_8,2,5,56,103,1927224608
11114,18,Jits_Linear_8,3,1,48,42,1927320240
11114,18,Jits_Linear_8,0,5,63,98,1927805396
11114,18,Jits_Linear_8,1,5,80,127,1927808612
11114,18,Jits_Linear_8,2,1,48,38,1927843444
11114,18,Jits_Linear_8,3,5,56,103,1927845184
11114,18,Jits_Linear_8,0,1,48,40,1928468204
11114,18,Jits_Linear_8,1,5,63,98,1928485192
11114,18,Jits_Linear_8,2,5,80,127,1928514944
11114,18,Jits_Linear_8,3,5,56,103,1928525140
11114,18,Jits_Linear_8,0,5,56,103,1929045412
11114,18,Jits_Linear_8,1,5,80,127,1929075164
11114,18,Jits_Linear_8,2,5,63,98,1929104688
11114,18,Jits_Linear_8,3,1,48,44,1929105656
11114,18,Jits_Linear_8,0,1,48,44,1929716412
11114,18,Jits_Linear_8,1,5,63,98,1929744616
11114,18,Jits_Linear_8,2,5,56,103,1929784652
11114,18,Jits_Linear_8,3,5,80,127,1929787792
11114,18,Jits_Linear_8,0,5,80,127,1930244516
11114,18,Jits_Linear_8,1,5,56,103,1930325532
11114,18,Jits_Linear_8,2,5,63,98,1930374468
11114,18,Jits_Linear_8,3,1,48,44,1930384328
11114,18,Jits_Linear_8,0,5,80,127,1930825292
11114,18,Jits_Linear_8,1,5,56,103,1930844556
11114,18,Jits_Linear_8,2,5,63,98,1930934616
11114,18,Jits_Linear_8,3,1,48,43,1930951508
11114,18,Jits_Linear_8,0,5,80,127,1931465160
11114,18,Jits_Linear_8,1,5,63,98,1931505172
11114,18,Jits_Linear_8,2,5,56,103,1931544888
11114,18,Jits_Linear_8,3,1,48,40,1931572388
11114,18,Jits_Linear_8,0,5,63,98,1932034372
11114,18,Jits_Linear_8,1,5,80,127,1932095012
11114,18,Jits_Linear_8,2,5,56,103,1932124612
11114,18,Jits_Linear_8,3,1,48,38,1932183324
11114,18,Jits_Linear_8,0,5,56,103,1932634612
11114,18,Jits_Linear_8,1,5,80,127,1932665184
11114,18,Jits_Linear_8,2,1,48,36,1932750260
11114,18,Jits_Linear_8,3,5,63,98,1932755460
11114,18,Jits_Linear_8,0,5,56,103,1933234620
11114,18,Jits_Linear_8,1,5,80,127,1933345136
11114,18,Jits_Linear_8,2,5,63,98,1933375112
11114,18,Jits_Linear_8,3,1,48,39,1933391112
11114,18,Jits_Linear_8,0,5,56,103,1933874576
11114,18,Jits_Linear_8,1,5,63,98,1933934820
11114,18,Jits_Linear_8,2,5,80,127,1933964572
11114,18,Jits_Linear_8,3,1,48,44,1933992400
11114,18,Jits_Linear_8,0,5,56,103,1934434732
11114,18,Jits_Linear_8,1,5,63,98,1934505316
11114,18,Jits_Linear_8,2,5,80,127,1934524728
11114,18,Jits_Linear_8,3,1,48,49,1934555420
11114,18,Jits_Linear_8,0,5,80,127,1934994736
11114,18,Jits_Linear_8,1,5,63,98,1935015272
11114,18,Jits_Linear_8,2,5,56,103,1935064424
11114,18,Jits_Linear_8,3,1,48,47,1935093244
11114,18,Jits_Linear_8,0,5,63,98,1935605080
11114,18,Jits_Linear_8,1,5,80,127,1935615276
11114,18,Jits_Linear_8,2,5,56,103,1935664380
11114,18,Jits_Linear_8,3,1,48,36,1935703984
11114,18,Jits_Linear_8,0,5,63,98,1936184720
11114,18,Jits_Linear_8,1,5,80,127,1936255448
11114,18,Jits_Linear_8,2,5,56,103,1936274788
11114,18,Jits_Linear_8,3,1,48,35,1936278952
11114,18,Jits_Linear_8,0,5,63,98,1936795052
11114,18,Jits_Linear_8,1,5,80,127,1936798192
11114,18,Jits_Linear_8,2,1,48,35,1936850984
11114,18,Jits_Linear_8,3,5,56,103,1936864576
11114,18,Jits_Linear_8,0,5,80,127,1937325512
11114,18,Jits_Linear_8,1,5,56,103,1937344848
11114,18,Jits_Linear_8,2,5,63,98,1937355268
11114,18,Jits_Linear_8,3,1,48,43,1937456404
11114,18,Jits_Linear_8,0,5,56,103,1937924320
11114,18,Jits_Linear_8,1,1,48,40,1937966128
11114,18,Jits_Linear_8,2,5,63,98,1938014548
11114,18,Jits_Linear_8,3,5,80,127,1938017764
11114,18,Jits_Linear_8,0,5,80,127,1938475420
11114,18,Jits_Linear_8,1,5,56,103,1938484568
11114,18,Jits_Linear_8,2,5,63,98,1938505324
11114,18,Jits_Linear_8,3,1,48,36,1938585236
11114,18,Jits_Linear_8,0,5,63,98,1939044632
11114,18,Jits_Linear_8,1,5,80,127,1939105096
11114,18,Jits_Linear_8,2,5,56,103,1939115444
11114,18,Jits_Linear_8,3,1,48,33,1939187556
11114,18,Jits_Linear_8,0,5,63,98,1939684636
11114,18,Jits_Linear_8,1,1,48,37,1939701456
11114,18,Jits_Linear_8,2,5,80,127,1939714380
11114,18,Jits_Linear_8,3,5,56,103,1939755468
11114,18,Jits_Linear_8,0,5,56,103,1940245004
11114,18,Jits_Linear_8,1,5,80,127,1940255348
11114,18,Jits_Linear_8,2,1,48,43,1940294560
11114,18,Jits_Linear_8,3,5,63,98,1940296204
11114,18,Jits_Linear_8,0,5,80,127,1940775284
11114,18,Jits_Linear_8,1,5,56,103,1940855084
11114,18,Jits_Linear_8,2,5,63,98,1940865432
11114,18,Jits_Linear_8,3,1,48,48,1940879564
11114,18,Jits_Linear_8,0,5,80,127,1941384444
11114,18,Jits_Linear_8,1,1,48,44,1941440972
11114,18,Jits_Linear_8,2,5,56,103,1941464308
11114,18,Jits_Linear_8,3,5,63,98,1941474656
11114,18,Jits_Linear_8,0,5,80,127,1941905040
11114,18,Jits_Linear_8,1,5,56,103,1941955168
11114,18,Jits_Linear_8,2,5,63,98,1942005224
11114,18,Jits_Linear_8,3,1,48,43,1942009760
11114,18,Jits_Linear_8,0,5,56,103,1942525280
11114,18,Jits_Linear_8,1,5,63,98,1942528348
11114,18,Jits_Linear_8,2,1,48,44,1942533132
11114,18,Jits_Linear_8,3,5,80,127,1942574380
11114,18,Jits_Linear_8,0,5,56,103,1943105008
11114,18,Jits_Linear_8,1,1,48,43,1943120784
11114,18,Jits_Linear_8,2,5,63,98,1943134532
11114,18,Jits_Linear_8,3,5,80,127,1943145024
11114,18,Jits_Linear_8,0,5,63,98,1943575084
11114,18,Jits_Linear_8,1,5,56,103,1943644644
11114,18,Jits_Linear_8,2,1,48,46,1943677208
11114,18,Jits_Linear_8,3,5,80,127,1943694840
11114,18,Jits_Linear_8,0,5,63,98,1944164700
11114,18,Jits_Linear_8,1,5,56,103,1944174968
11114,18,Jits_Linear_8,2,5,80,127,1944178108
11114,18,Jits_Linear_8,3,1,48,41,1944209024
11114,18,Jits_Linear_8,0,5,80,127,1944664364
11114,18,Jits_Linear_8,1,5,56,103,1944724980
11114,18,Jits_Linear_8,2,1,48,42,1944737844
11114,18,Jits_Linear_8,3,5,63,98,1944814956
11114,18,Jits_Linear_8,0,5,80,127,1945215376
11114,18,Jits_Linear_8,1,1,48,39,1945305560
11114,18,Jits_Linear_8,2,5,56,103,1945314796
11114,18,Jits_Linear_8,3,5,63,98,1945354588
11114,18,Jits_Linear_8,0,5,56,103,1945815540
11114,18,Jits_Linear_8,1,5,63,98,1945835028
11114,18,Jits_Linear_8,2,1,48,41,1945838296
11114,18,Jits_Linear_8,3,5,80,127,1945874888
11114,18,Jits_Linear_8,0,5,63,98,1946334488
11114,18,Jits_Linear_8,1,5,56,103,1946355096
11114,18,Jits_Linear_8,2,1,48,41,1946402136
11114,18,Jits_Linear_8,3,5,80,127,1946455288
11114,18,Jits_Linear_8,0,5,63,98,1946865108
11114,18,Jits_Linear_8,1,1,48,33,1946940992
11114,18,Jits_Linear_8,2,5,80,127,1946974444
11114,18,Jits_Linear_8,3,5,56,103,1947005388
11114,18,Jits_Linear_8,0,5,56,103,1947425348
11114,18,Jits_Linear_8,1,5,63,98,1947455024
11114,18,Jits_Linear_8,2,5,80,127,1947505000
11114,18,Jits_Linear_8,3,1,48,37,1947508568
11114,18,Jits_Linear_8,0,5,63,98,1947935052
11114,18,Jits_Linear_8,1,5,56,103,1947964976
11114,18,Jits_Linear_8,2,1,48,42,1948006904
11114,18,Jits_Linear_8,3,5,80,127,1948015020
11114,18,Jits_Linear_8,0,1,48,44,1948501164
11114,18,Jits_Linear_8,1,5,56,103,1948504420
11114,18,Jits_Linear_8,2,5,63,98,1948525180
11114,18,Jits_Linear_8,3,5,80,127,1948604812
11114,18,Jits_Linear_8,0,5,63,98,1949015268
11114,18,Jits_Linear_8,1,1,48,47,1949041756
11114,18,Jits_Linear_8,2,5,56,103,1949074752
11114,18,Jits_Linear_8,3,5,80,127,1949104356
11114,18,Jits_Linear_8,0,1,48,45,1949572140
11114,18,Jits_Linear_8,1,5,56,103,1949595100
11114,18,Jits_Linear_8,2,5,80,127,1949655416
11114,18,Jits_Linear_8,3,5,63,98,1949695416
11114,18,Jits_Linear_8,0,5,63,98,1950105052
11114,18,Jits_Linear_8,1,1,48,42,1950144964
11114,18,Jits_Linear_8,2,5,56,103,1950165288
11114,18,Jits_Linear_8,3,5,80,127,1950235044
11114,18,Jits_Linear_8,0,1,48,38,1950712500
11114,18,Jits_Linear_8,1,5,56,103,1950715164
11114,18,Jits_Linear_8,2,5,63,98,1950724460
11114,18,Jits_Linear_8,3,5,80,127,1950728048
11114,18,Jits_Linear_8,0,5,63,98,1951185248
11114,18,Jits_Linear_8,1,5,56,103,1951244740
11114,18,Jits_Linear_8,2,5,80,127,1951247732
11114,18,Jits_Linear_8,3,1,48,41,1951266760
11114,18,Jits_Linear_8,0,5,63,98,1951695104
11114,18,Jits_Linear_8,1,5,80,127,1951725080
11114,18,Jits_Linear_8,2,5,56,103,1951745392
11114,18,Jits_Linear_8,3,1,48,40,1951758476
11114,18,Jits_Linear_8,0,5,56,103,1952224896
11114,18,Jits_Linear_8,1,1,48,37,1952261352
11114,18,Jits_Linear_8,2,5,63,98,1952275020
11114,18,Jits_Linear_8,3,5,80,127,1952355196
11114,18,Jits_Linear_8,0,5,80,127,1952725264
11114,18,Jits_Linear_8,1,1,48,44,1952763840
11114,18,Jits_Linear_8,2,5,63,98,1952765420
11114,18,Jits_Linear_8,3,5,56,103,1952784984
11114,18,Jits_Linear_8,0,5,56,103,1953315180
11114,18,Jits_Linear_8,1,5,80,127,1953325376
11114,18,Jits_Linear_8,2,1,48,39,1953339660
11114,18,Jits_Linear_8,3,5,63,98,1953345080
11114,18,Jits_Linear_8,0,5,56,103,1953814924
11114,18,Jits_Linear_8,1,5,63,98,1953865156
11114,18,Jits_Linear_8,2,1,48,33,1953882964
11114,18,Jits_Linear_8,3,5,80,127,1953894900
11114,18,Jits_Linear_8,0,5,56,103,1954285096
11114,18,Jits_Linear_8,1,5,63,98,1954295292
11114,18,Jits_Linear_8,2,5,80,127,1954345224
11114,18,Jits_Linear_8,3,1,48,40,1954368720
11114,18,Jits_Linear_8,0,5,56,103,1954794972
11114,18,Jits_Linear_8,1,5,80,127,1954797964
11114,18,Jits_Linear_8,2,1,48,41,1954857676
11114,18,Jits_Linear_8,3,5,63,98,1954954484
11114,18,Jits_Linear_8,0,5,63,98,1955325228
11114,18,Jits_Linear_8,1,1,48,41,1955392740
11114,18,Jits_Linear_8,2,5,56,103,1955394856
11114,18,Jits_Linear_8,3,5,80,127,1955434792
11114,18,Jits_Linear_8,0,5,63,98,1955875208
11114,18,Jits_Linear_8,1,1,48,41,1955920280
11114,18,Jits_Linear_8,2,5,56,103,1955965260
11114,18,Jits_Linear_8,3,5,80,127,1955968180
11114,18,Jits_Linear_8,0,5,56,103,1956364816
11114,18,Jits_Linear_8,1,5,63,98,1956454904
11114,18,Jits_Linear_8,2,5,80,127,1956464952
11114,18,Jits_Linear_8,3,1,48,34,1956471432
11114,18,Jits_Linear_8,0,5,56,103,1956844956
11114,18,Jits_Linear_8,1,5,63,98,1956895088
11114,18,Jits_Linear_8,2,5,80,127,1956925008
11114,18,Jits_Linear_8,3,1,48,46,1956973984
11114,18,Jits_Linear_8,0,5,63,98,1957434880
11114,18,Jits_Linear_8,1,5,80,127,1957444856
11114,18,Jits_Linear_8,2,5,56,103,1957505468
11114,18,Jits_Linear_8,3,1,48,43,1957506952
11114,18,Jits_Linear_8,0,5,63,98,1957854524
11114,18,Jits_Linear_8,1,5,80,127,1957914992
11114,18,Jits_Linear_8,2,5,56,103,1957954808
11114,18,Jits_Linear_8,3,1,48,48,1958010432
11114,18,Jits_Linear_8,0,5,56,103,1958454768
11114,18,Jits_Linear_8,1,1,48,46,1958463888
11114,18,Jits_Linear_8,2,5,80,127,1958475072
11114,18,Jits_Linear_8,3,5,63,98,1958494708
11114,18,Jits_Linear_8,0,5,63,98,1958874428
11114,18,Jits_Linear_8,1,5,56,103,1958894812
11114,18,Jits_Linear_8,2,5,80,127,1958934752
11114,18,Jits_Linear_8,3,1,48,46,1958989800
11114,18,Jits_Linear_8,0,5,63,98,1959384444
11114,18,Jits_Linear_8,1,5,80,127,1959415168
11114,18,Jits_Linear_8,2,5,56,103,1959434728
11114,18,Jits_Linear_8,3,1,48,43,1959468364
11114,18,Jits_Linear_8,0,5,80,127,1959854376
11114,18,Jits_Linear_8,1,5,56,103,1959904728
11114,18,Jits_Linear_8,2,1,48,38,1959932560
11114,18,Jits_Linear_8,3,5,63,98,1959964964
11114,18,Jits_Linear_8,0,5,63,98,1960334812
11114,18,Jits_Linear_8,1,1,48,43,1960393084
11114,18,Jits_Linear_8,2,5,56,103,1960454612
11114,18,Jits_Linear_8,3,5,80,127,1960485212
11114,18,Jits_Linear_8,0,5,80,127,1960865140
11114,18,Jits_Linear_8,1,5,63,98,1960884704
11114,18,Jits_Linear_8,2,1,48,34,1960930968
11114,18,Jits_Linear_8,3,5,56,103,1960955124
11114,18,Jits_Linear_8,0,5,63,98,1961374952
11114,18,Jits_Linear_8,1,5,56,103,1961385296
11114,18,Jits_Linear_8,2,1,48,39,1961459432
11114,18,Jits_Linear_8,3,5,80,127,1961465156
11114,18,Jits_Linear_8,0,1,48,42,1961919248
11114,18,Jits_Linear_8,1,5,56,103,1961925048
11114,18,Jits_Linear_8,2,5,80,127,1961954724
11114,18,Jits_Linear_8,3,5,63,98,1961964848
11114,18,Jits_Linear_8,0,9999,9999,9999,1851502648
11114,18,Jits_Linear_8,1,9999,9999,9999,1852322880
11114,18,Jits_Linear_8,2,9999,9999,9999,1853142140
11114,18,Jits_Linear_8,3,9999,9999,9999,1853962360
11114,18,Jits_Linear_8,4,9999,9999,9999,1854782528
11114,18,Jits_Linear_8,5,9999,9999,9999,1855592552
11114,18,Jits_Linear_8,6,9999,9999,9999,1856402492
11114,18,Jits_Linear_8,7,9999,9999,9999,1857212504
11114,18,Jits_Linear_8,8,9999,9999,9999,1858022524
11114,18,Jits_Linear_8,9,9999,9999,9999,1858832456
11114,18,Jits_Linear_8,10,9999,9999,9999,1859632184
11114,18,Jits_Linear_8,11,9999,9999,9999,1860432984
11114,18,Jits_Linear_8,12,9999,9999,9999,1861232752
11114,18,Jits_Linear_8,13,9999,9999,9999,1862032444
11114,18,Jits_Linear_8,14,9999,9999,9999,1862832188
11114,18,Jits_Linear_8,15,9999,9999,9999,1863622732
11114,18,Jits_Linear_8,16,9999,9999,9999,1864412280
11114,18,Jits_Linear_8,17,9999,9999,9999,1865202764
11114,18,Jits_Linear_8,18,9999,9999,9999,1865992260
11114,18,Jits_Linear_8,19,9999,9999,9999,1866782812
11114,18,Jits_Linear_8,20,9999,9999,9999,1867563108
11114,18,Jits_Linear_8,21,9999,9999,9999,1868352596
11114,18,Jits_Linear_8,22,9999,9999,9999,1869132876
11114,18,Jits_Linear_8,23,9999,9999,9999,1869912120
11114,18,Jits_Linear_8,24,9999,9999,9999,1870692460
11114,18,Jits_Linear_8,25,9999,9999,9999,1871462472
11114,18,Jits_Linear_8,26,9999,9999,9999,1872232560
11114,18,Jits_Linear_8,27,9999,9999,9999,1873002572
11114,18,Jits_Linear_8,28,9999,9999,9999,1873772672
11114,18,Jits_Linear_8,29,9999,9999,9999,1874542704
11114,18,Jits_Linear_8,30,9999,9999,9999,1875302524
11114,18,Jits_Linear_8,31,9999,9999,9999,1876062268
11114,18,Jits_Linear_8,32,9999,9999,9999,1876822104
11114,18,Jits_Linear_8,33,9999,9999,9999,1877582908
11114,18,Jits_Linear_8,34,9999,9999,9999,1878342744
11114,18,Jits_Linear_8,35,9999,9999,9999,1879092328
11114,18,Jits_Linear_8,36,9999,9999,9999,1879842916
11114,18,Jits_Linear_8,37,9999,9999,9999,1880592492
11114,18,Jits_Linear_8,38,9999,9999,9999,1881343036
11114,18,Jits_Linear_8,39,9999,9999,9999,1882092612
11114,18,Jits_Linear_8,40,9999,9999,9999,1882832976
11114,18,Jits_Linear_8,41,9999,9999,9999,1883572284
11114,18,Jits_Linear_8,42,9999,9999,9999,1884312696
11114,18,Jits_Linear_8,43,9999,9999,9999,1885053044
11114,18,Jits_Linear_8,44,9999,9999,9999,1885792320
11114,18,Jits_Linear_8,45,9999,9999,9999,1886522480
11114,18,Jits_Linear_8,46,9999,9999,9999,1887252548
11114,18,Jits_Linear_8,47,9999,9999,9999,1887982712
11114,18,Jits_Linear_8,48,9999,9999,9999,1888712808
11114,18,Jits_Linear_8,49,9999,9999,9999,1889442892
11114,18,Jits_Linear_8,50,9999,9999,9999,1890162784
11114,18,Jits_Linear_8,51,9999,9999,9999,1890882612
11114,18,Jits_Linear_8,52,9999,9999,9999,1891602492
11114,18,Jits_Linear_8,53,9999,9999,9999,1892322404
11114,18,Jits_Linear_8,54,9999,9999,9999,1893042232
11114,18,Jits_Linear_8,55,9999,9999,9999,1893752920
11114,18,Jits_Linear_8,56,9999,9999,9999,1894462544
11114,18,Jits_Linear_8,57,9999,9999,9999,1895172164
11114,18,Jits_Linear_8,58,9999,9999,9999,1895882852
11114,18,Jits_Linear_8,59,9999,9999,9999,1896592468
11114,18,Jits_Linear_8,60,9999,9999,9999,1897292892
11114,18,Jits_Linear_8,61,9999,9999,9999,1897992248
11114,18,Jits_Linear_8,62,9999,9999,9999,1898692672
11114,18,Jits_Linear_8,63,9999,9999,9999,1899392100
11114,18,Jits_Linear_8,64,9999,9999,9999,1900092532
11114,18,Jits_Linear_8,65,9999,9999,9999,1900782656
11114,18,Jits_Linear_8,66,9999,9999,9999,1901472824
11114,18,Jits_Linear_8,67,9999,9999,9999,1902163052
11114,18,Jits_Linear_8,68,9999,9999,9999,1902852208
11114,18,Jits_Linear_8,69,9999,9999,9999,1903542372
11114,18,Jits_Linear_8,70,9999,9999,9999,1904222264
11114,18,Jits_Linear_8,71,9999,9999,9999,1904902208
11114,18,Jits_Linear_8,72,9999,9999,9999,1905582164
11114,18,Jits_Linear_8,73,9999,9999,9999,1906262140
11114,18,Jits_Linear_8,74,9999,9999,9999,1906943068
11114,18,Jits_Linear_8,75,9999,9999,9999,1907612768
11114,18,Jits_Linear_8,76,9999,9999,9999,1908282476
11114,18,Jits_Linear_8,77,9999,9999,9999,1908952164
11114,18,Jits_Linear_8,78,9999,9999,9999,1909622840
11114,18,Jits_Linear_8,79,9999,9999,9999,1910292600
11114,18,Jits_Linear_8,80,9999,9999,9999,1910953020
11114,18,Jits_Linear_8,81,9999,9999,9999,1911612524
11114,18,Jits_Linear_8,82,9999,9999,9999,1912272976
11114,18,Jits_Linear_8,83,9999,9999,9999,1912932408
11114,18,Jits_Linear_8,84,9999,9999,9999,1913592944
11114,18,Jits_Linear_8,85,9999,9999,9999,1914242132
11114,18,Jits_Linear_8,86,9999,9999,9999,1914892396
11114,18,Jits_Linear_8,87,9999,9999,9999,1915542608
11114,18,Jits_Linear_8,88,9999,9999,9999,1916192868
11114,18,Jits_Linear_8,89,9999,9999,9999,1916843096
11114,18,Jits_Linear_8,90,9999,9999,9999,1917483136
11114,18,Jits_Linear_8,91,9999,9999,9999,1918123136
11114,18,Jits_Linear_8,92,9999,9999,9999,1918763108
11114,18,Jits_Linear_8,93,9999,9999,9999,1919403112
11114,18,Jits_Linear_8,94,9999,9999,9999,1920043064
11114,18,Jits_Linear_8,95,9999,9999,9999,1920683064
11114,18,Jits_Linear_8,96,9999,9999,9999,1921323104
11114,18,Jits_Linear_8,97,9999,9999,9999,1921963108
11114,18,Jits_Linear_8,98,9999,9999,9999,1922603076
11114,18,Jits_Linear_8,99,9999,9999,9999,1923243092
11114,18,Jits_Linear_8,100,9999,9999,9999,1923872836
11114,18,Jits_Linear_8,101,9999,9999,9999,1924492408
11114,18,Jits_Linear_8,102,9999,9999,9999,1925112936
11114,18,Jits_Linear_8,103,9999,9999,9999,1925732448
11114,18,Jits_Linear_8,104,9999,9999,9999,1926352984
11114,18,Jits_Linear_8,105,9999,9999,9999,1926962300
11114,18,Jits_Linear_8,106,9999,9999,9999,1927572552
11114,18,Jits_Linear_8,107,9999,9999,9999,1928182868
11114,18,Jits_Linear_8,108,9999,9999,9999,1928792184
11114,18,Jits_Linear_8,109,9999,9999,9999,1929402440
11114,18,Jits_Linear_8,110,9999,9999,9999,1930002528
11114,18,Jits_Linear_8,111,9999,9999,9999,1930602620
11114,18,Jits_Linear_8,112,9999,9999,9999,1931202624
11114,18,Jits_Linear_8,113,9999,9999,9999,1931802708
11114,18,Jits_Linear_8,114,9999,9999,9999,1932402812
11114,18,Jits_Linear_8,115,9999,9999,9999,1932992616
11114,18,Jits_Linear_8,116,9999,9999,9999,1933582416
11114,18,Jits_Linear_8,117,9999,9999,9999,1934172272
11114,18,Jits_Linear_8,118,9999,9999,9999,1934763072
11114,18,Jits_Linear_8,119,9999,9999,9999,1935362100
11114,18,Jits_Linear_8,120,9999,9999,9999,1935942728
11114,18,Jits_Linear_8,121,9999,9999,9999,1936522348
11114,18,Jits_Linear_8,122,9999,9999,9999,1937102928
11114,18,Jits_Linear_8,123,9999,9999,9999,1937682536
11114,18,Jits_Linear_8,124,9999,9999,9999,1938262112
11114,18,Jits_Linear_8,125,9999,9999,9999,1938832444
11114,18,Jits_Linear_8,126,9999,9999,9999,1939402856
11114,18,Jits_Linear_8,127,9999,9999,9999,1939972220
11114,18,Jits_Linear_8,128,9999,9999,9999,1940542572
11114,18,Jits_Linear_8,129,9999,9999,9999,1941112916
11114,18,Jits_Linear_8,130,9999,9999,9999,1941673076
11114,18,Jits_Linear_8,131,9999,9999,9999,1942232180
11114,18,Jits_Linear_8,132,9999,9999,9999,1942792252
11114,18,Jits_Linear_8,133,9999,9999,9999,1943352440
11114,18,Jits_Linear_8,134,9999,9999,9999,1943912516
11114,18,Jits_Linear_8,135,9999,9999,9999,1944462456
11114,18,Jits_Linear_8,136,9999,9999,9999,1945012332
11114,18,Jits_Linear_8,137,9999,9999,9999,1945562224
11114,18,Jits_Linear_8,138,9999,9999,9999,1946112116
11114,18,Jits_Linear_8,139,9999,9999,9999,1946663000
11114,18,Jits_Linear_8,140,9999,9999,9999,1947202612
11114,18,Jits_Linear_8,141,9999,9999,9999,1947742296
11114,18,Jits_Linear_8,142,9999,9999,9999,1948282964
11114,18,Jits_Linear_8,143,9999,9999,9999,1948822648
11114,18,Jits_Linear_8,144,9999,9999,9999,1949362256
11114,18,Jits_Linear_8,145,9999,9999,9999,1949892732
11114,18,Jits_Linear_8,146,9999,9999,9999,1950422080
11114,18,Jits_Linear_8,147,9999,9999,9999,1950952548
11114,18,Jits_Linear_8,148,9999,9999,9999,1951482936
11114,18,Jits_Linear_8,149,9999,9999,9999,1952012352
11114,18,Jits_Linear_8,150,9999,9999,9999,1952532560
11114,18,Jits_Linear_8,151,9999,9999,9999,1953052776
11114,18,Jits_Linear_8,152,9999,9999,9999,1953572944
11114,18,Jits_Linear_8,153,9999,9999,9999,1954092124
11114,18,Jits_Linear_8,154,9999,9999,9999,1954612336
11114,18,Jits_Linear_8,155,9999,9999,9999,1955122280
11114,18,Jits_Linear_8,156,9999,9999,9999,1955632240
11114,18,Jits_Linear_8,157,9999,9999,9999,1956142184
11114,18,Jits_Linear_8,158,9999,9999,9999,1956652128
11114,18,Jits_Linear_8,159,9999,9999,9999,1957163132
11114,18,Jits_Linear_8,160,9999,9999,9999,1957673020
11114,18,Jits_Linear_8,161,9999,9999,9999,1958172748
11114,18,Jits_Linear_8,162,9999,9999,9999,1958672504
11114,18,Jits_Linear_8,163,9999,9999,9999,1959172196
11114,18,Jits_Linear_8,164,9999,9999,9999,1959672920
11114,18,Jits_Linear_8,165,9999,9999,9999,1960162412
11114,18,Jits_Linear_8,166,9999,9999,9999,1960652892
11114,18,Jits_Linear_8,167,9999,9999,9999,1961142384
11114,18,Jits_Linear_8,168,9999,9999,9999,1961632864
11114,18,Jits_Linear_8,169,9999,9999,9999,1962122364
11115,19,Jits_Linear_5,0,5,56,103,1970613724
11115,19,Jits_Linear_5,1,5,63,98,1970616972
11115,19,Jits_Linear_5,2,5,80,127,1970620016
11115,19,Jits_Linear_5,0,5,56,103,1971093812
11115,19,Jits_Linear_5,1,5,63,98,1971096908
11115,19,Jits_Linear_5,2,5,80,127,1971100104
11115,19,Jits_Linear_5,0,5,56,103,1971573992
11115,19,Jits_Linear_5,1,5,80,127,1971584336
11115,19,Jits_Linear_5,2,5,63,98,1971603824
11115,19,Jits_Linear_5,0,5,63,98,1972004124
11115,19,Jits_Linear_5,1,5,80,127,1972033876
11115,19,Jits_Linear_5,2,5,56,103,1972044000
11115,19,Jits_Linear_5,0,1,48,53,1972509848
11115,19,Jits_Linear_5,1,5,80,127,1972543848
11115,19,Jits_Linear_5,2,5,56,103,1972554044
11115,19,Jits_Linear_5,3,5,63,98,1972583720
11115,19,Jits_Linear_5,0,5,63,98,1973024140
11115,19,Jits_Linear_5,1,1,48,51,1973028380
11115,19,Jits_Linear_5,2,5,56,103,1973053888
11115,19,Jits_Linear_5,3,5,80,127,1973064008
11115,19,Jits_Linear_5,0,5,56,103,1973464392
11115,19,Jits_Linear_5,1,5,63,98,1973513696
11115,19,Jits_Linear_5,2,1,48,52,1973523264
11115,19,Jits_Linear_5,3,5,80,127,1973533928
11115,19,Jits_Linear_5,0,5,80,127,1973953896
11115,19,Jits_Linear_5,1,1,48,56,1973976572
11115,19,Jits_Linear_5,2,5,63,98,1974004020
11115,19,Jits_Linear_5,3,5,56,103,1974043888
11115,19,Jits_Linear_5,0,5,56,103,1974444608
11115,19,Jits_Linear_5,1,1,48,48,1974461896
11115,19,Jits_Linear_5,2,5,63,98,1974474056
11115,19,Jits_Linear_5,3,5,80,127,1974543812
11115,19,Jits_Linear_5,0,5,56,103,1974933972
11115,19,Jits_Linear_5,1,1,48,41,1974992700
11115,19,Jits_Linear_5,2,5,80,127,1974994208
11115,19,Jits_Linear_5,3,5,63,98,1975024184
11115,19,Jits_Linear_5,0,5,56,103,1975433676
11115,19,Jits_Linear_5,1,5,63,98,1975443800
11115,19,Jits_Linear_5,2,5,80,127,1975483740
11115,19,Jits_Linear_5,3,1,48,39,1975490372
11115,19,Jits_Linear_5,0,5,63,98,1975923940
11115,19,Jits_Linear_5,1,1,48,50,1975942572
11115,19,Jits_Linear_5,2,5,80,127,1976003808
11115,19,Jits_Linear_5,3,5,56,103,1976014152
11115,19,Jits_Linear_5,0,1,48,43,1976453420
11115,19,Jits_Linear_5,1,5,63,98,1976473972
11115,19,Jits_Linear_5,2,5,56,103,1976513908
11115,19,Jits_Linear_5,3,5,80,127,1976516828
11115,19,Jits_Linear_5,0,5,56,103,1976933724
11115,19,Jits_Linear_5,1,5,63,98,1976943844
11115,19,Jits_Linear_5,2,1,48,46,1976962332
11115,19,Jits_Linear_5,3,5,80,127,1976983852
11115,19,Jits_Linear_5,0,5,56,103,1977424280
11115,19,Jits_Linear_5,1,5,63,98,1977427344
11115,19,Jits_Linear_5,2,1,48,46,1977443392
11115,19,Jits_Linear_5,3,5,80,127,1977444880
11115,19,Jits_Linear_5,0,1,48,52,1977911804
11115,19,Jits_Linear_5,1,5,80,127,1977944788
11115,19,Jits_Linear_5,2,5,56,103,1977953716
11115,19,Jits_Linear_5,3,5,63,98,1978024280
11115,19,Jits_Linear_5,0,1,48,44,1978439948
11115,19,Jits_Linear_5,1,5,63,98,1978444104
11115,19,Jits_Linear_5,2,5,56,103,1978463592
11115,19,Jits_Linear_5,3,5,80,127,1978543744
11115,19,Jits_Linear_5,0,1,48,47,1978957324
11115,19,Jits_Linear_5,1,5,56,103,1978964468
11115,19,Jits_Linear_5,2,5,80,127,1979004260
11115,19,Jits_Linear_5,3,5,63,98,1979013408
11115,19,Jits_Linear_5,0,5,80,127,1979464012
11115,19,Jits_Linear_5,1,1,48,40,1979473580
11115,19,Jits_Linear_5,2,5,63,98,1979493684
11115,19,Jits_Linear_5,3,5,56,103,1979533548
11115,19,Jits_Linear_5,0,1,48,43,1979983684
11115,19,Jits_Linear_5,1,5,56,103,1979993672
11115,19,Jits_Linear_5,2,5,63,98,1980024100
11115,19,Jits_Linear_5,3,5,80,127,1980074528
11115,19,Jits_Linear_5,0,1,48,48,1980502568
11115,19,Jits_Linear_5,1,5,80,127,1980504604
11115,19,Jits_Linear_5,2,5,56,103,1980544472
11115,19,Jits_Linear_5,3,5,63,98,1980553768
11115,19,Jits_Linear_5,0,5,80,127,1981004000
11115,19,Jits_Linear_5,1,5,63,98,1981044164
11115,19,Jits_Linear_5,2,1,48,37,1981049376
11115,19,Jits_Linear_5,3,5,56,103,1981103428
11115,19,Jits_Linear_5,0,5,56,103,1981533596
11115,19,Jits_Linear_5,1,5,80,127,1981543868
11115,19,Jits_Linear_5,2,1,48,41,1981551864
11115,19,Jits_Linear_5,3,5,63,98,1981623880
11115,19,Jits_Linear_5,0,1,48,39,1982050564
11115,19,Jits_Linear_5,1,5,80,127,1982053672
11115,19,Jits_Linear_5,2,5,63,98,1982114140
11115,19,Jits_Linear_5,3,5,56,103,1982143740
11115,19,Jits_Linear_5,0,1,48,47,1982574040
11115,19,Jits_Linear_5,1,5,56,103,1982575452
11115,19,Jits_Linear_5,2,5,80,127,1982634504
11115,19,Jits_Linear_5,3,5,63,98,1982674280
11115,19,Jits_Linear_5,0,5,56,103,1983153376
11115,19,Jits_Linear_5,1,1,48,42,1983155968
11115,19,Jits_Linear_5,2,5,63,98,1983163712
11115,19,Jits_Linear_5,3,5,80,127,1983167004
11115,19,Jits_Linear_5,0,5,80,127,1983633740
11115,19,Jits_Linear_5,1,1,48,48,1983696496
11115,19,Jits_Linear_5,2,5,63,98,1983723872
11115,19,Jits_Linear_5,3,5,56,103,1983734292
11115,19,Jits_Linear_5,0,5,56,103,1984164368
11115,19,Jits_Linear_5,1,5,63,98,1984167620
11115,19,Jits_Linear_5,2,5,80,127,1984170664
11115,19,Jits_Linear_5,3,1,48,46,1984239564
11115,19,Jits_Linear_5,0,5,80,127,1984714184
11115,19,Jits_Linear_5,1,1,48,45,1984741664
11115,19,Jits_Linear_5,2,5,63,98,1984764532
11115,19,Jits_Linear_5,3,5,56,103,1984794060
11115,19,Jits_Linear_5,0,5,56,103,1985223932
11115,19,Jits_Linear_5,1,5,80,127,1985234352
11115,19,Jits_Linear_5,2,1,48,40,1985280468
11115,19,Jits_Linear_5,3,5,63,98,1985303804
11115,19,Jits_Linear_5,0,5,56,103,1985763568
11115,19,Jits_Linear_5,1,1,48,42,1985775684
11115,19,Jits_Linear_5,2,5,63,98,1985784396
11115,19,Jits_Linear_5,3,5,80,127,1985843468
11115,19,Jits_Linear_5,0,1,48,47,1986286452
11115,19,Jits_Linear_5,1,5,80,127,1986294344
11115,19,Jits_Linear_5,2,5,63,98,1986363832
11115,19,Jits_Linear_5,3,5,56,103,1986384352
11115,19,Jits_Linear_5,0,1,48,44,1986840004
11115,19,Jits_Linear_5,1,5,80,127,1986854448
11115,19,Jits_Linear_5,2,5,56,103,1986863600
11115,19,Jits_Linear_5,3,5,63,98,1986873648
11115,19,Jits_Linear_5,0,1,48,40,1987346588
11115,19,Jits_Linear_5,1,5,80,127,1987383652
11115,19,Jits_Linear_5,2,5,56,103,1987404040
11115,19,Jits_Linear_5,3,5,63,98,1987473708
11115,19,Jits_Linear_5,0,1,48,36,1987911248
11115,19,Jits_Linear_5,1,5,56,103,1987933540
11115,19,Jits_Linear_5,2,5,80,127,1987964484
11115,19,Jits_Linear_5,3,5,63,98,1987983676
11115,19,Jits_Linear_5,0,1,48,43,1988469008
11115,19,Jits_Linear_5,1,5,63,98,1988474508
11115,19,Jits_Linear_5,2,5,56,103,1988533484
11115,19,Jits_Linear_5,3,5,80,127,1988565164
11115,19,Jits_Linear_5,0,1,48,44,1989014064
11115,19,Jits_Linear_5,1,5,63,98,1989015420
11115,19,Jits_Linear_5,2,5,80,127,1989018316
11115,19,Jits_Linear_5,3,5,56,103,1989103892
11115,19,Jits_Linear_5,0,5,56,103,1989584392
11115,19,Jits_Linear_5,1,1,48,54,1989606548
11115,19,Jits_Linear_5,2,5,63,98,1989613916
11115,19,Jits_Linear_5,3,5,80,127,1989653856
11115,19,Jits_Linear_5,0,5,63,98,1990134000
11115,19,Jits_Linear_5,1,1,48,52,1990167160
11115,19,Jits_Linear_5,2,5,56,103,1990174008
11115,19,Jits_Linear_5,3,5,80,127,1990193592
11115,19,Jits_Linear_5,0,5,63,98,1990694400
11115,19,Jits_Linear_5,1,1,48,50,1990734412
11115,19,Jits_Linear_5,2,5,56,103,1990735752
11115,19,Jits_Linear_5,3,5,80,127,1990744308
11115,19,Jits_Linear_5,0,5,80,127,1991223756
11115,19,Jits_Linear_5,1,1,48,49,1991261948
11115,19,Jits_Linear_5,2,5,63,98,1991294260
11115,19,Jits_Linear_5,3,5,56,103,1991313820
11115,19,Jits_Linear_5,0,5,56,103,1991773584
11115,19,Jits_Linear_5,1,5,80,127,1991793896
11115,19,Jits_Linear_5,2,1,48,48,1991813504
11115,19,Jits_Linear_5,3,5,63,98,1991834056
11115,19,Jits_Linear_5,0,5,63,98,1992343864
11115,19,Jits_Linear_5,1,5,80,127,1992364476
11115,19,Jits_Linear_5,2,1,48,39,1992379276
11115,19,Jits_Linear_5,3,5,56,103,1992404556
11115,19,Jits_Linear_5,0,1,48,48,1992908992
11115,19,Jits_Linear_5,1,5,63,98,1992914564
11115,19,Jits_Linear_5,2,5,56,103,1992933904
11115,19,Jits_Linear_5,3,5,80,127,1992944176
11115,19,Jits_Linear_5,0,1,48,51,1993432360
11115,19,Jits_Linear_5,1,5,80,127,1993474412
11115,19,Jits_Linear_5,2,5,56,103,1993493900
11115,19,Jits_Linear_5,3,5,63,98,1993523528
11115,19,Jits_Linear_5,0,1,48,43,1994054044
11115,19,Jits_Linear_5,1,5,56,103,1994114380
11115,19,Jits_Linear_5,2,5,80,127,1994117596
11115,19,Jits_Linear_5,3,5,63,98,1994133940
11115,19,Jits_Linear_5,0,5,63,98,1994603880
11115,19,Jits_Linear_5,1,5,56,103,1994633556
11115,19,Jits_Linear_5,2,1,48,44,1994677432
11115,19,Jits_Linear_5,3,5,80,127,1994693940
11115,19,Jits_Linear_5,0,1,48,49,1995181976
11115,19,Jits_Linear_5,1,5,63,98,1995254228
11115,19,Jits_Linear_5,2,5,56,103,1995264500
11115,19,Jits_Linear_5,3,5,80,127,1995273576
11115,19,Jits_Linear_5,0,5,56,103,1995774380
11115,19,Jits_Linear_5,1,5,80,127,1995803984
11115,19,Jits_Linear_5,2,5,63,98,1995814352
11115,19,Jits_Linear_5,3,1,48,50,1995856956
11115,19,Jits_Linear_5,0,1,48,51,1996361576
11115,19,Jits_Linear_5,1,5,63,98,1996383572
11115,19,Jits_Linear_5,2,5,56,103,1996393840
11115,19,Jits_Linear_5,3,5,80,127,1996414524
11115,19,Jits_Linear_5,0,5,56,103,1996884464
11115,19,Jits_Linear_5,1,5,63,98,1996943736
11115,19,Jits_Linear_5,2,5,80,127,1996946952
11115,19,Jits_Linear_5,3,1,48,46,1997016376
11115,19,Jits_Linear_5,0,5,80,127,1997484400
11115,19,Jits_Linear_5,1,5,56,103,1997493552
11115,19,Jits_Linear_5,2,1,48,46,1997511492
11115,19,Jits_Linear_5,3,5,63,98,1997564196
11115,19,Jits_Linear_5,0,5,80,127,1998053856
11115,19,Jits_Linear_5,1,5,56,103,1998124388
11115,19,Jits_Linear_5,2,5,63,98,1998133612
11115,19,Jits_Linear_5,3,1,48,51,1998143472
11115,19,Jits_Linear_5,0,5,63,98,1998674432
11115,19,Jits_Linear_5,1,5,56,103,1998683508
11115,19,Jits_Linear_5,2,5,80,127,1998704116
11115,19,Jits_Linear_5,3,1,48,53,1998718844
11115,19,Jits_Linear_5,0,5,80,127,1999203788
11115,19,Jits_Linear_5,1,5,63,98,1999264184
11115,19,Jits_Linear_5,2,1,48,46,1999285364
11115,19,Jits_Linear_5,3,5,56,103,1999304264
11115,19,Jits_Linear_5,0,5,56,103,1999833412
11115,19,Jits_Linear_5,1,5,63,98,1999843608
11115,19,Jits_Linear_5,2,5,80,127,1999883620
11115,19,Jits_Linear_5,3,1,48,47,1999898496
11115,19,Jits_Linear_5,0,5,56,103,2000384432
11115,19,Jits_Linear_5,1,5,80,127,2000414260
11115,19,Jits_Linear_5,2,1,48,48,2000451236
11115,19,Jits_Linear_5,3,5,63,98,2000464308
11115,19,Jits_Linear_5,0,1,48,47,2001009288
11115,19,Jits_Linear_5,1,5,56,103,2001014116
11115,19,Jits_Linear_5,2,5,63,98,2001054280
11115,19,Jits_Linear_5,3,5,80,127,2001057572
11115,19,Jits_Linear_5,0,5,56,103,2001603936
11115,19,Jits_Linear_5,1,1,48,50,2001613452
11115,19,Jits_Linear_5,2,5,63,98,2001615100
11115,19,Jits_Linear_5,3,5,80,127,2001633616
11115,19,Jits_Linear_5,0,5,56,103,2002153984
11115,19,Jits_Linear_5,1,5,80,127,2002156976
11115,19,Jits_Linear_5,2,5,63,98,2002193772
11115,19,Jits_Linear_5,3,1,48,50,2002197864
11115,19,Jits_Linear_5,0,1,48,47,2002759824
11115,19,Jits_Linear_5,1,5,63,98,2002783608
11115,19,Jits_Linear_5,2,5,56,103,2002814256
11115,19,Jits_Linear_5,3,5,80,127,2002833748
11115,19,Jits_Linear_5,0,5,80,127,2003354256
11115,19,Jits_Linear_5,1,5,56,103,2003364376
11115,19,Jits_Linear_5,2,1,48,51,2003371256
11115,19,Jits_Linear_5,3,5,63,98,2003373372
11115,19,Jits_Linear_5,0,5,56,103,2003954120
11115,19,Jits_Linear_5,1,1,48,45,2003957240
11115,19,Jits_Linear_5,2,5,80,127,2003994356
11115,19,Jits_Linear_5,3,5,63,98,2004023760
11115,19,Jits_Linear_5,0,1,48,43,2004558256
11115,19,Jits_Linear_5,1,5,63,98,2004564204
11115,19,Jits_Linear_5,2,5,80,127,2004573652
11115,19,Jits_Linear_5,3,5,56,103,2004583772
11115,19,Jits_Linear_5,0,5,56,103,2005144060
11115,19,Jits_Linear_5,1,1,48,45,2005150392
11115,19,Jits_Linear_5,2,5,63,98,2005213516
11115,19,Jits_Linear_5,3,5,80,127,2005223784
11115,19,Jits_Linear_5,0,5,80,127,2005754344
11115,19,Jits_Linear_5,1,1,48,51,2005755312
11115,19,Jits_Linear_5,2,5,56,103,2005763488
11115,19,Jits_Linear_5,3,5,63,98,2005813568
11115,19,Jits_Linear_5,0,1,48,53,2006351952
11115,19,Jits_Linear_5,1,5,80,127,2006373716
11115,19,Jits_Linear_5,2,5,56,103,2006434332
11115,19,Jits_Linear_5,3,5,63,98,2006463772
11115,19,Jits_Linear_5,0,1,48,43,2006982696
11115,19,Jits_Linear_5,1,5,56,103,2006994252
11115,19,Jits_Linear_5,2,5,80,127,2006997468
11115,19,Jits_Linear_5,3,5,63,98,2007034188
11115,19,Jits_Linear_5,0,1,48,48,2007627656
11115,19,Jits_Linear_5,1,5,56,103,2007634284
11115,19,Jits_Linear_5,2,5,63,98,2007664108
11115,19,Jits_Linear_5,3,5,80,127,2007674304
11115,19,Jits_Linear_5,0,1,48,45,2008213360
11115,19,Jits_Linear_5,1,5,63,98,2008253772
11115,19,Jits_Linear_5,2,5,80,127,2008264120
11115,19,Jits_Linear_5,3,5,56,103,2008274240
11115,19,Jits_Linear_5,0,5,80,127,2008814224
11115,19,Jits_Linear_5,1,1,48,50,2008830600
11115,19,Jits_Linear_5,2,5,56,103,2008864300
11115,19,Jits_Linear_5,3,5,63,98,2008867292
11115,19,Jits_Linear_5,0,1,48,46,2009418796
11115,19,Jits_Linear_5,1,5,56,103,2009464152
11115,19,Jits_Linear_5,2,5,80,127,2009483568
11115,19,Jits_Linear_5,3,5,63,98,2009494136
11115,19,Jits_Linear_5,0,1,48,39,2010047120
11115,19,Jits_Linear_5,1,5,63,98,2010064236
11115,19,Jits_Linear_5,2,5,56,103,2010093912
11115,19,Jits_Linear_5,3,5,80,127,2010114372
11115,19,Jits_Linear_5,0,1,48,46,2010621840
11115,19,Jits_Linear_5,1,5,56,103,2010694284
11115,19,Jits_Linear_5,2,5,80,127,2010704180
11115,19,Jits_Linear_5,3,5,63,98,2010773848
11115,19,Jits_Linear_5,0,5,63,98,2011304412
11115,19,Jits_Linear_5,1,1,48,47,2011334060
11115,19,Jits_Linear_5,2,5,80,127,2011344124
11115,19,Jits_Linear_5,3,5,56,103,2011384288
11115,19,Jits_Linear_5,0,5,56,103,2011944304
11115,19,Jits_Linear_5,1,5,63,98,2011953528
11115,19,Jits_Linear_5,2,5,80,127,2011974136
11115,19,Jits_Linear_5,3,1,48,47,2012020176
11115,19,Jits_Linear_5,0,1,48,44,2012608492
11115,19,Jits_Linear_5,1,5,63,98,2012614220
11115,19,Jits_Linear_5,2,5,80,127,2012633484
11115,19,Jits_Linear_5,3,5,56,103,2012654020
11115,19,Jits_Linear_5,0,5,56,103,2013184268
11115,19,Jits_Linear_5,1,5,80,127,2013264240
11115,19,Jits_Linear_5,2,5,63,98,2013273468
11115,19,Jits_Linear_5,3,1,48,44,2013283252
11115,19,Jits_Linear_5,0,5,80,127,2013854072
11115,19,Jits_Linear_5,1,1,48,42,2013864712
11115,19,Jits_Linear_5,2,5,63,98,2013866056
11115,19,Jits_Linear_5,3,5,56,103,2013894084
11115,19,Jits_Linear_5,0,5,63,98,2014444196
11115,19,Jits_Linear_5,1,5,80,127,2014483916
11115,19,Jits_Linear_5,2,5,56,103,2014544260
11115,19,Jits_Linear_5,3,1,48,41,2014548052
11115,19,Jits_Linear_5,0,5,63,98,2015084016
11115,19,Jits_Linear_5,1,5,56,103,2015134440
11115,19,Jits_Linear_5,2,1,48,45,2015144384
11115,19,Jits_Linear_5,3,5,80,127,2015163816
11115,19,Jits_Linear_5,0,1,48,50,2015719868
11115,19,Jits_Linear_5,1,5,80,127,2015734212
11115,19,Jits_Linear_5,2,5,63,98,2015744484
11115,19,Jits_Linear_5,3,5,56,103,2015815368
11115,19,Jits_Linear_5,0,1,48,42,2016383744
11115,19,Jits_Linear_5,1,5,80,127,2016443784
11115,19,Jits_Linear_5,2,5,56,103,2016454276
11115,19,Jits_Linear_5,3,5,63,98,2016457420
11115,19,Jits_Linear_5,0,5,56,103,2017024384
11115,19,Jits_Linear_5,1,5,80,127,2017043948
11115,19,Jits_Linear_5,2,5,63,98,2017054020
11115,19,Jits_Linear_5,3,1,48,52,2017058936
11115,19,Jits_Linear_5,0,5,63,98,2017673580
11115,19,Jits_Linear_5,1,1,48,46,2017708012
11115,19,Jits_Linear_5,2,5,56,103,2017713440
11115,19,Jits_Linear_5,3,5,80,127,2017734048
11115,19,Jits_Linear_5,0,1,48,48,2018318432
11115,19,Jits_Linear_5,1,5,63,98,2018324004
11115,19,Jits_Linear_5,2,5,56,103,2018384196
11115,19,Jits_Linear_5,3,5,80,127,2018387340
11115,19,Jits_Linear_5,0,5,56,103,2018934080
11115,19,Jits_Linear_5,1,5,80,127,2018953568
11115,19,Jits_Linear_5,2,1,48,49,2018971432
11115,19,Jits_Linear_5,3,5,63,98,2018993500
11115,19,Jits_Linear_5,0,1,48,49,2019609500
11115,19,Jits_Linear_5,1,5,56,103,2019614056
11115,19,Jits_Linear_5,2,5,63,98,2019633468
11115,19,Jits_Linear_5,3,5,80,127,2019643740
11115,19,Jits_Linear_5,0,5,80,127,2020233696
11115,19,Jits_Linear_5,1,5,56,103,2020264272
11115,19,Jits_Linear_5,2,1,48,50,2020286120
11115,19,Jits_Linear_5,3,5,63,98,2020304204
11115,19,Jits_Linear_5,0,5,80,127,2020894276
11115,19,Jits_Linear_5,1,5,56,103,2020913468
11115,19,Jits_Linear_5,2,1,48,53,2020943780
11115,19,Jits_Linear_5,3,5,63,98,2020974000
11115,19,Jits_Linear_5,0,5,56,103,2021553564
11115,19,Jits_Linear_5,1,5,80,127,2021574172
11115,19,Jits_Linear_5,2,1,48,48,2021608080
11115,19,Jits_Linear_5,3,5,63,98,2021634408
11115,19,Jits_Linear_5,0,5,80,127,2022193388
11115,19,Jits_Linear_5,1,5,56,103,2022204028
11115,19,Jits_Linear_5,2,5,63,98,2022243672
11115,19,Jits_Linear_5,3,1,48,49,2022244636
11115,19,Jits_Linear_5,0,1,48,51,2022851496
11115,19,Jits_Linear_5,1,5,63,98,2022854012
11115,19,Jits_Linear_5,2,5,56,103,2022894100
11115,19,Jits_Linear_5,3,5,80,127,2022897092
11115,19,Jits_Linear_5,0,1,48,48,2023517684
11115,19,Jits_Linear_5,1,5,63,98,2023533896
11115,19,Jits_Linear_5,2,5,80,127,2023574060
11115,19,Jits_Linear_5,3,5,56,103,2023603588
11115,19,Jits_Linear_5,0,5,56,103,2024184108
11115,19,Jits_Linear_5,1,5,63,98,2024194380
11115,19,Jits_Linear_5,2,1,48,51,2024202452
11115,19,Jits_Linear_5,3,5,80,127,2024224072
11115,19,Jits_Linear_5,0,5,80,127,2024843636
11115,19,Jits_Linear_5,1,1,48,49,2024879568
11115,19,Jits_Linear_5,2,5,63,98,2024914216
11115,19,Jits_Linear_5,3,5,56,103,2024923364
11115,19,Jits_Linear_5,0,5,63,98,2025514260
11115,19,Jits_Linear_5,1,1,48,46,2025541120
11115,19,Jits_Linear_5,2,5,56,103,2025584084
11115,19,Jits_Linear_5,3,5,80,127,2025594208
11115,19,Jits_Linear_5,0,5,63,98,2026183944
11115,19,Jits_Linear_5,1,5,56,103,2026203652
11115,19,Jits_Linear_5,2,1,48,45,2026219876
11115,19,Jits_Linear_5,3,5,80,127,2026243584
11115,19,Jits_Linear_5,0,1,48,51,2026845600
11115,19,Jits_Linear_5,1,5,56,103,2026864132
11115,19,Jits_Linear_5,2,5,63,98,2026874252
11115,19,Jits_Linear_5,3,5,80,127,2026954032
11115,19,Jits_Linear_5,0,1,48,49,2027513188
11115,19,Jits_Linear_5,1,5,63,98,2027523324
11115,19,Jits_Linear_5,2,5,56,103,2027554072
11115,19,Jits_Linear_5,3,5,80,127,2027594160
11115,19,Jits_Linear_5,0,1,48,48,2028164084
11115,19,Jits_Linear_5,1,5,56,103,2028194156
11115,19,Jits_Linear_5,2,5,63,98,2028233952
11115,19,Jits_Linear_5,3,5,80,127,2028274024
11115,19,Jits_Linear_5,0,1,48,52,2028851632
11115,19,Jits_Linear_5,1,5,80,127,2028873980
11115,19,Jits_Linear_5,2,5,56,103,2028954064
11115,19,Jits_Linear_5,3,5,63,98,2028964188
11115,19,Jits_Linear_5,0,5,56,103,2029594016
11115,19,Jits_Linear_5,1,5,63,98,2029597324
11115,19,Jits_Linear_5,2,1,48,50,2029603776
11115,19,Jits_Linear_5,3,5,80,127,2029605344
11115,19,Jits_Linear_5,0,1,48,54,2030256116
11115,19,Jits_Linear_5,1,5,56,103,2030294432
11115,19,Jits_Linear_5,2,5,63,98,2030313920
11115,19,Jits_Linear_5,3,5,80,127,2030324116
11115,19,Jits_Linear_5,0,5,63,98,2030934412
11115,19,Jits_Linear_5,1,1,48,47,2030935452
11115,19,Jits_Linear_5,2,5,80,127,2030943704
11115,19,Jits_Linear_5,3,5,56,103,2030964012
11115,19,Jits_Linear_5,0,1,48,52,2031599856
11115,19,Jits_Linear_5,1,5,63,98,2031623492
11115,19,Jits_Linear_5,2,5,56,103,2031704568
11115,19,Jits_Linear_5,3,5,80,127,2031707564
11115,19,Jits_Linear_5,0,5,63,98,2032313732
11115,19,Jits_Linear_5,1,5,56,103,2032334268
11115,19,Jits_Linear_5,2,5,80,127,2032363868
11115,19,Jits_Linear_5,3,1,48,50,2032364984
11115,19,Jits_Linear_5,0,5,56,103,2033003820
11115,19,Jits_Linear_5,1,5,63,98,2033024504
11115,19,Jits_Linear_5,2,5,80,127,2033033800
11115,19,Jits_Linear_5,3,1,48,54,2033061556
11115,19,Jits_Linear_5,0,5,56,103,2033724036
11115,19,Jits_Linear_5,1,1,48,36,2033738168
11115,19,Jits_Linear_5,2,5,63,98,2033753328
11115,19,Jits_Linear_5,3,5,80,127,2033756844
11115,19,Jits_Linear_5,0,1,48,48,2034363004
11115,19,Jits_Linear_5,1,5,56,103,2034364424
11115,19,Jits_Linear_5,2,5,63,98,2034403988
11115,19,Jits_Linear_5,3,5,80,127,2034464168
11115,19,Jits_Linear_5,0,1,48,43,2035071704
11115,19,Jits_Linear_5,1,5,56,103,2035074368
11115,19,Jits_Linear_5,2,5,63,98,2035083740
11115,19,Jits_Linear_5,3,5,80,127,2035144056
11115,19,Jits_Linear_5,0,1,48,53,2035717496
11115,19,Jits_Linear_5,1,5,56,103,2035773744
11115,19,Jits_Linear_5,2,5,80,127,2035794280
11115,19,Jits_Linear_5,3,5,63,98,2035823940
11115,19,Jits_Linear_5,0,1,48,59,2036433508
11115,19,Jits_Linear_5,1,5,80,127,2036474292
11115,19,Jits_Linear_5,2,5,56,103,2036483516
11115,19,Jits_Linear_5,3,5,63,98,2036503900
11115,19,Jits_Linear_5,0,1,48,56,2037068436
11115,19,Jits_Linear_5,1,5,63,98,2037164284
11115,19,Jits_Linear_5,2,5,80,127,2037244308
11115,19,Jits_Linear_5,3,5,56,103,2037253604
11115,19,Jits_Linear_5,0,1,48,38,2037886952
11115,19,Jits_Linear_5,1,5,80,127,2037924072
11115,19,Jits_Linear_5,2,5,56,103,2037943780
11115,19,Jits_Linear_5,3,5,63,98,2037946848
11115,19,Jits_Linear_5,0,5,63,98,2038604192
11115,19,Jits_Linear_5,1,5,80,127,2038607484
11115,19,Jits_Linear_5,2,1,48,48,2038617352
11115,19,Jits_Linear_5,3,5,56,103,2038663752
11115,19,Jits_Linear_5,0,5,56,103,2039294248
11115,19,Jits_Linear_5,1,5,80,127,2039303472
11115,19,Jits_Linear_5,2,5,63,98,2039343436
11115,19,Jits_Linear_5,3,1,48,50,2039344400
11115,19,Jits_Linear_5,0,5,56,103,2039983448
11115,19,Jits_Linear_5,1,1,48,44,2039989484
11115,19,Jits_Linear_5,2,5,63,98,2040043908
11115,19,Jits_Linear_5,3,5,80,127,2040054104
11115,19,Jits_Linear_5,0,5,63,98,2040704268
11115,19,Jits_Linear_5,1,1,48,47,2040721704
11115,19,Jits_Linear_5,2,5,80,127,2040744276
11115,19,Jits_Linear_5,3,5,56,103,2040784212
11115,19,Jits_Linear_5,0,5,56,103,2041414056
11115,19,Jits_Linear_5,1,1,48,46,2041441536
11115,19,Jits_Linear_5,2,5,63,98,2041493996
11115,19,Jits_Linear_5,3,5,80,127,2041497212
11115,19,Jits_Linear_5,0,1,48,46,2042150636
11115,19,Jits_Linear_5,1,5,80,127,2042184016
11115,19,Jits_Linear_5,2,5,56,103,2042213764
11115,19,Jits_Linear_5,3,5,63,98,2042216684
11115,19,Jits_Linear_5,0,5,56,103,2042864116
11115,19,Jits_Linear_5,1,1,48,50,2042880116
11115,19,Jits_Linear_5,2,5,80,127,2042883520
11115,19,Jits_Linear_5,3,5,63,98,2042924604
11115,19,Jits_Linear_5,0,1,48,46,2043559644
11115,19,Jits_Linear_5,1,5,80,127,2043564696
11115,19,Jits_Linear_5,2,5,63,98,2043583960
11115,19,Jits_Linear_5,3,5,56,103,2043644204
11115,19,Jits_Linear_5,0,1,48,48,2044281720
11115,19,Jits_Linear_5,1,5,63,98,2044293748
11115,19,Jits_Linear_5,2,5,56,103,2044303944
11115,19,Jits_Linear_5,3,5,80,127,2044353852
11115,19,Jits_Linear_5,0,1,48,49,2044984256
11115,19,Jits_Linear_5,1,5,56,103,2045004360
11115,19,Jits_Linear_5,2,5,63,98,2045023628
11115,19,Jits_Linear_5,3,5,80,127,2045033900
11115,19,Jits_Linear_5,0,1,48,43,2045659396
11115,19,Jits_Linear_5,1,5,56,103,2045724016
11115,19,Jits_Linear_5,2,5,63,98,2045726932
11115,19,Jits_Linear_5,3,5,80,127,2045743724
11115,19,Jits_Linear_5,0,1,48,48,2046391712
11115,19,Jits_Linear_5,1,5,63,98,2046493944
11115,19,Jits_Linear_5,2,5,56,103,2046523620
11115,19,Jits_Linear_5,3,5,80,127,2046553744
11115,19,Jits_Linear_5,0,5,80,127,2047184176
11115,19,Jits_Linear_5,1,1,48,41,2047243868
11115,19,Jits_Linear_5,2,5,56,103,2047274708
11115,19,Jits_Linear_5,3,5,63,98,2047277620
11115,19,Jits_Linear_5,0,5,56,103,2047914500
11115,19,Jits_Linear_5,1,5,80,127,2047917416
11115,19,Jits_Linear_5,2,5,63,98,2047994220
11115,19,Jits_Linear_5,3,1,48,47,2047995188
11115,19,Jits_Linear_5,0,1,48,43,2048634984
11115,19,Jits_Linear_5,1,5,80,127,2048643472
11115,19,Jits_Linear_5,2,5,63,98,2048703720
11115,19,Jits_Linear_5,3,5,56,103,2048733752
11115,19,Jits_Linear_5,0,5,63,98,2049373796
11115,19,Jits_Linear_5,1,5,80,127,2049383696
11115,19,Jits_Linear_5,2,1,48,50,2049391768
11115,19,Jits_Linear_5,3,5,56,103,2049453596
11115,19,Jits_Linear_5,0,1,48,45,2050112100
11115,19,Jits_Linear_5,1,5,56,103,2050134668
11115,19,Jits_Linear_5,2,5,80,127,2050164124
11115,19,Jits_Linear_5,3,5,63,98,2050214680
11115,19,Jits_Linear_5,0,1,48,54,2050864660
11115,19,Jits_Linear_5,1,5,63,98,2050913540
11115,19,Jits_Linear_5,2,5,56,103,2050944408
11115,19,Jits_Linear_5,3,5,80,127,2050947404
11115,19,Jits_Linear_5,0,1,48,51,2051606256
11115,19,Jits_Linear_5,1,5,63,98,2051653960
11115,19,Jits_Linear_5,2,5,80,127,2051673524
11115,19,Jits_Linear_5,3,5,56,103,2051683868
11115,19,Jits_Linear_5,0,1,48,47,2052340764
11115,19,Jits_Linear_5,1,5,56,103,2052403608
11115,19,Jits_Linear_5,2,5,63,98,2052406676
11115,19,Jits_Linear_5,3,5,80,127,2052423920
11115,19,Jits_Linear_5,0,1,48,51,2053076476
11115,19,Jits_Linear_5,1,5,56,103,2053104000
11115,19,Jits_Linear_5,2,5,63,98,2053114344
11115,19,Jits_Linear_5,3,5,80,127,2053144020
11115,19,Jits_Linear_5,0,1,48,49,2053834440
11115,19,Jits_Linear_5,1,5,63,98,2053874248
11115,19,Jits_Linear_5,2,5,80,127,2053893440
11115,19,Jits_Linear_5,3,5,56,103,2053933688
11115,19,Jits_Linear_5,0,1,48,44,2054642160
11115,19,Jits_Linear_5,1,5,56,103,2054654764
11115,19,Jits_Linear_5,2,5,63,98,2054694212
11115,19,Jits_Linear_5,3,5,80,127,2054697500
11115,19,Jits_Linear_5,0,5,80,127,2055343508
11115,19,Jits_Linear_5,1,5,56,103,2055384420
11115,19,Jits_Linear_5,2,1,48,49,2055406420
11115,19,Jits_Linear_5,3,5,63,98,2055433720
11115,19,Jits_Linear_5,0,1,48,46,2056134272
11115,19,Jits_Linear_5,1,5,56,103,2056153552
11115,19,Jits_Linear_5,2,5,80,127,2056163676
11115,19,Jits_Linear_5,3,5,63,98,2056194472
11115,19,Jits_Linear_5,0,5,56,103,2056853836
11115,19,Jits_Linear_5,1,1,48,48,2056879428
11115,19,Jits_Linear_5,2,5,80,127,2056893772
11115,19,Jits_Linear_5,3,5,63,98,2056943900
11115,19,Jits_Linear_5,0,5,56,103,2057613688
11115,19,Jits_Linear_5,1,1,48,48,2057640028
11115,19,Jits_Linear_5,2,5,80,127,2057653548
11115,19,Jits_Linear_5,3,5,63,98,2057703748
11115,19,Jits_Linear_5,0,5,80,127,2058364396
11115,19,Jits_Linear_5,1,1,48,51,2058385272
11115,19,Jits_Linear_5,2,5,63,98,2058444116
11115,19,Jits_Linear_5,3,5,56,103,2058454312
11115,19,Jits_Linear_5,0,1,48,57,2059140016
11115,19,Jits_Linear_5,1,5,80,127,2059174368
11115,19,Jits_Linear_5,2,5,56,103,2059183516
11115,19,Jits_Linear_5,3,5,63,98,2059203828
11115,19,Jits_Linear_5,0,5,63,98,2059904540
11115,19,Jits_Linear_5,1,1,48,52,2059920620
11115,19,Jits_Linear_5,2,5,56,103,2059974068
11115,19,Jits_Linear_5,3,5,80,127,2059977060
11115,19,Jits_Linear_5,0,5,80,127,2060664512
11115,19,Jits_Linear_5,1,1,48,54,2060680440
11115,19,Jits_Linear_5,2,5,63,98,2060714636
11115,19,Jits_Linear_5,3,5,56,103,2060754352
11115,19,Jits_Linear_5,0,1,48,52,2061405228
11115,19,Jits_Linear_5,1,5,63,98,2061474332
11115,19,Jits_Linear_5,2,5,56,103,2061514036
11115,19,Jits_Linear_5,3,5,80,127,2061524452
11115,19,Jits_Linear_5,0,1,48,53,2062098576
11115,19,Jits_Linear_5,1,5,63,98,2062233932
11115,19,Jits_Linear_5,2,5,56,103,2062253568
11115,19,Jits_Linear_5,3,5,80,127,2062273880
11115,19,Jits_Linear_5,0,1,48,59,2062947972
11115,19,Jits_Linear_5,1,5,80,127,2062963964
11115,19,Jits_Linear_5,2,5,56,103,2062974608
11115,19,Jits_Linear_5,3,5,63,98,2062993872
11115,19,Jits_Linear_5,0,1,48,54,2063706908
11115,19,Jits_Linear_5,1,5,63,98,2063763808
11115,19,Jits_Linear_5,2,5,56,103,2063803656
11115,19,Jits_Linear_5,3,5,80,127,2063833560
11115,19,Jits_Linear_5,0,1,48,49,2064499632
11115,19,Jits_Linear_5,1,5,56,103,2064544324
11115,19,Jits_Linear_5,2,5,63,98,2064573852
11115,19,Jits_Linear_5,3,5,80,127,2064603364
11115,19,Jits_Linear_5,0,1,48,56,2065288324
11115,19,Jits_Linear_5,1,5,80,127,2065293672
11115,19,Jits_Linear_5,2,5,56,103,2065364624
11115,19,Jits_Linear_5,3,5,63,98,2065367692
11115,19,Jits_Linear_5,0,1,48,54,2066060580
11115,19,Jits_Linear_5,1,5,56,103,2066084216
11115,19,Jits_Linear_5,2,5,63,98,2066134496
11115,19,Jits_Linear_5,3,5,80,127,2066164080
11115,19,Jits_Linear_5,0,1,48,64,2066813832
11115,19,Jits_Linear_5,1,5,63,98,2066843976
11115,19,Jits_Linear_5,2,5,80,127,2066847488
11115,19,Jits_Linear_5,3,5,56,103,2066904368
11115,19,Jits_Linear_5,0,1,48,54,2067606320
11115,19,Jits_Linear_5,1,5,56,103,2067654148
11115,19,Jits_Linear_5,2,5,80,127,2067664496
11115,19,Jits_Linear_5,3,5,63,98,2067714460
11115,19,Jits_Linear_5,0,5,63,98,2068413920
11115,19,Jits_Linear_5,1,1,48,48,2068417484
11115,19,Jits_Linear_5,2,5,56,103,2068424332
11115,19,Jits_Linear_5,3,5,80,127,2068453712
11115,19,Jits_Linear_5,0,1,48,50,2069193204
11115,19,Jits_Linear_5,1,5,63,98,2069234132
11115,19,Jits_Linear_5,2,5,80,127,2069237424
11115,19,Jits_Linear_5,3,5,56,103,2069263660
11115,19,Jits_Linear_5,0,1,48,51,2069969204
11115,19,Jits_Linear_5,1,5,63,98,2070044332
11115,19,Jits_Linear_5,2,5,56,103,2070063524
11115,19,Jits_Linear_5,3,5,80,127,2070067400
11115,19,Jits_Linear_5,0,1,48,48,2070785680
11115,19,Jits_Linear_5,1,5,63,98,2070793576
11115,19,Jits_Linear_5,2,5,56,103,2070864484
11115,19,Jits_Linear_5,3,5,80,127,2070883732
11115,19,Jits_Linear_5,0,5,56,103,2071573876
11115,19,Jits_Linear_5,1,5,63,98,2071584244
11115,19,Jits_Linear_5,2,1,48,43,2071655092
11115,19,Jits_Linear_5,3,5,80,127,2071674520
11115,19,Jits_Linear_5,0,5,56,103,2072383728
11115,19,Jits_Linear_5,1,1,48,47,2072386392
11115,19,Jits_Linear_5,2,5,80,127,2072423736
11115,19,Jits_Linear_5,3,5,63,98,2072434300
11115,19,Jits_Linear_5,0,1,48,46,2073161656
11115,19,Jits_Linear_5,1,5,56,103,2073204180
11115,19,Jits_Linear_5,2,5,63,98,2073233708
11115,19,Jits_Linear_5,3,5,80,127,2073263368
11115,19,Jits_Linear_5,0,5,80,127,2073964024
11115,19,Jits_Linear_5,1,1,48,48,2073994272
11115,19,Jits_Linear_5,2,5,63,98,2074003884
11115,19,Jits_Linear_5,3,5,56,103,2074024192
11115,19,Jits_Linear_5,0,1,48,53,2074765044
11115,19,Jits_Linear_5,1,5,56,103,2074803508
11115,19,Jits_Linear_5,2,5,80,127,2074824192
11115,19,Jits_Linear_5,3,5,63,98,2074843384
11115,19,Jits_Linear_5,0,5,63,98,2075573616
11115,19,Jits_Linear_5,1,5,56,103,2075583740
11115,19,Jits_Linear_5,2,1,48,51,2075587304
11115,19,Jits_Linear_5,3,5,80,127,2075644348
11115,19,Jits_Linear_5,0,1,48,60,2076337536
11115,19,Jits_Linear_5,1,5,56,103,2076383568
11115,19,Jits_Linear_5,2,5,63,98,2076454384
11115,19,Jits_Linear_5,3,5,80,127,2076473796
11115,19,Jits_Linear_5,0,5,56,103,2077193612
11115,19,Jits_Linear_5,1,1,48,54,2077221096
11115,19,Jits_Linear_5,2,5,63,98,2077224352
11115,19,Jits_Linear_5,3,5,80,127,2077264216
11115,19,Jits_Linear_5,0,1,48,63,2077993332
11115,19,Jits_Linear_5,1,5,63,98,2077994904
11115,19,Jits_Linear_5,2,5,56,103,2078043616
11115,19,Jits_Linear_5,3,5,80,127,2078053960
11115,19,Jits_Linear_5,0,5,56,103,2078844208
11115,19,Jits_Linear_5,1,1,48,57,2078845176
11115,19,Jits_Linear_5,2,5,63,98,2078893360
11115,19,Jits_Linear_5,3,5,80,127,2078903628
11115,19,Jits_Linear_5,0,1,48,49,2079611424
11115,19,Jits_Linear_5,1,5,56,103,2079623604
11115,19,Jits_Linear_5,2,5,63,98,2079633724
11115,19,Jits_Linear_5,3,5,80,127,2079713508
11115,19,Jits_Linear_5,0,9999,9999,9999,1970851956
11115,19,Jits_Linear_5,1,9999,9999,9999,1971331148
11115,19,Jits_Linear_5,2,9999,9999,9999,1971811404
11115,19,Jits_Linear_5,3,9999,9999,9999,1972291660
11115,19,Jits_Linear_5,4,9999,9999,9999,1972771952
11115,19,Jits_Linear_5,5,9999,9999,9999,1973261436
11115,19,Jits_Linear_5,6,9999,9999,9999,1973751896
11115,19,Jits_Linear_5,7,9999,9999,9999,1974241336
11115,19,Jits_Linear_5,8,9999,9999,9999,1974731900
11115,19,Jits_Linear_5,9,9999,9999,9999,1975221336
11115,19,Jits_Linear_5,10,9999,9999,9999,1975722088
11115,19,Jits_Linear_5,11,9999,9999,9999,1976221792
11115,19,Jits_Linear_5,12,9999,9999,9999,1976721472
11115,19,Jits_Linear_5,13,9999,9999,9999,1977221232
11115,19,Jits_Linear_5,14,9999,9999,9999,1977721968
11115,19,Jits_Linear_5,15,9999,9999,9999,1978231936
11115,19,Jits_Linear_5,16,9999,9999,9999,1978741888
11115,19,Jits_Linear_5,17,9999,9999,9999,1979251836
11115,19,Jits_Linear_5,18,9999,9999,9999,1979761788
11115,19,Jits_Linear_5,19,9999,9999,9999,1980271680
11115,19,Jits_Linear_5,20,9999,9999,9999,1980791900
11115,19,Jits_Linear_5,21,9999,9999,9999,1981312112
11115,19,Jits_Linear_5,22,9999,9999,9999,1981841488
11115,19,Jits_Linear_5,23,9999,9999,9999,1982361716
11115,19,Jits_Linear_5,24,9999,9999,9999,1982881860
11115,19,Jits_Linear_5,25,9999,9999,9999,1983411284
11115,19,Jits_Linear_5,26,9999,9999,9999,1983941708
11115,19,Jits_Linear_5,27,9999,9999,9999,1984471132
11115,19,Jits_Linear_5,28,9999,9999,9999,1985001552
11115,19,Jits_Linear_5,29,9999,9999,9999,1985531972
11115,19,Jits_Linear_5,30,9999,9999,9999,1986071608
11115,19,Jits_Linear_5,31,9999,9999,9999,1986611264
11115,19,Jits_Linear_5,32,9999,9999,9999,1987151928
11115,19,Jits_Linear_5,33,9999,9999,9999,1987691624
11115,19,Jits_Linear_5,34,9999,9999,9999,1988231248
11115,19,Jits_Linear_5,35,9999,9999,9999,1988781136
11115,19,Jits_Linear_5,36,9999,9999,9999,1989332056
11115,19,Jits_Linear_5,37,9999,9999,9999,1989881948
11115,19,Jits_Linear_5,38,9999,9999,9999,1990431800
11115,19,Jits_Linear_5,39,9999,9999,9999,1990981688
11115,19,Jits_Linear_5,40,9999,9999,9999,1991541840
11115,19,Jits_Linear_5,41,9999,9999,9999,1992102000
11115,19,Jits_Linear_5,42,9999,9999,9999,1992662088
11115,19,Jits_Linear_5,43,9999,9999,9999,1993231452
11115,19,Jits_Linear_5,44,9999,9999,9999,1993791548
11115,19,Jits_Linear_5,45,9999,9999,9999,1994361956
11115,19,Jits_Linear_5,46,9999,9999,9999,1994931324
11115,19,Jits_Linear_5,47,9999,9999,9999,1995501668
11115,19,Jits_Linear_5,48,9999,9999,9999,1996072032
11115,19,Jits_Linear_5,49,9999,9999,9999,1996641344
11115,19,Jits_Linear_5,50,9999,9999,9999,1997222012
11115,19,Jits_Linear_5,51,9999,9999,9999,1997801580
11115,19,Jits_Linear_5,52,9999,9999,9999,1998381176
11115,19,Jits_Linear_5,53,9999,9999,9999,1998961720
11115,19,Jits_Linear_5,54,9999,9999,9999,1999541348
11115,19,Jits_Linear_5,55,9999,9999,9999,2000131184
11115,19,Jits_Linear_5,56,9999,9999,9999,2000721992
11115,19,Jits_Linear_5,57,9999,9999,9999,2001311816
11115,19,Jits_Linear_5,58,9999,9999,9999,2001901636
11115,19,Jits_Linear_5,59,9999,9999,9999,2002491480
11115,19,Jits_Linear_5,60,9999,9999,9999,2003091580
11115,19,Jits_Linear_5,61,9999,9999,9999,2003691584
11115,19,Jits_Linear_5,62,9999,9999,9999,2004291704
11115,19,Jits_Linear_5,63,9999,9999,9999,2004891724
11115,19,Jits_Linear_5,64,9999,9999,9999,2005491808
11115,19,Jits_Linear_5,65,9999,9999,9999,2006102116
11115,19,Jits_Linear_5,66,9999,9999,9999,2006721620
11115,19,Jits_Linear_5,67,9999,9999,9999,2007331904
11115,19,Jits_Linear_5,68,9999,9999,9999,2007941204
11115,19,Jits_Linear_5,69,9999,9999,9999,2008551480
11115,19,Jits_Linear_5,70,9999,9999,9999,2009172024
11115,19,Jits_Linear_5,71,9999,9999,9999,2009791600
11115,19,Jits_Linear_5,72,9999,9999,9999,2010411084
11115,19,Jits_Linear_5,73,9999,9999,9999,2011031620
11115,19,Jits_Linear_5,74,9999,9999,9999,2011651184
11115,19,Jits_Linear_5,75,9999,9999,9999,2012281932
11115,19,Jits_Linear_5,76,9999,9999,9999,2012911704
11115,19,Jits_Linear_5,77,9999,9999,9999,2013541480
11115,19,Jits_Linear_5,78,9999,9999,9999,2014171244
11115,19,Jits_Linear_5,79,9999,9999,9999,2014802008
11115,19,Jits_Linear_5,80,9999,9999,9999,2015442024
11115,19,Jits_Linear_5,81,9999,9999,9999,2016081988
11115,19,Jits_Linear_5,82,9999,9999,9999,2016722000
11115,19,Jits_Linear_5,83,9999,9999,9999,2017362040
11115,19,Jits_Linear_5,84,9999,9999,9999,2018001996
11115,19,Jits_Linear_5,85,9999,9999,9999,2018651248
11115,19,Jits_Linear_5,86,9999,9999,9999,2019301448
11115,19,Jits_Linear_5,87,9999,9999,9999,2019951692
11115,19,Jits_Linear_5,88,9999,9999,9999,2020601968
11115,19,Jits_Linear_5,89,9999,9999,9999,2021251160
11115,19,Jits_Linear_5,90,9999,9999,9999,2021911644
11115,19,Jits_Linear_5,91,9999,9999,9999,2022571096
11115,19,Jits_Linear_5,92,9999,9999,9999,2023231592
11115,19,Jits_Linear_5,93,9999,9999,9999,2023892060
11115,19,Jits_Linear_5,94,9999,9999,9999,2024551504
11115,19,Jits_Linear_5,95,9999,9999,9999,2025221200
11115,19,Jits_Linear_5,96,9999,9999,9999,2025891896
11115,19,Jits_Linear_5,97,9999,9999,9999,2026561604
11115,19,Jits_Linear_5,98,9999,9999,9999,2027231360
11115,19,Jits_Linear_5,99,9999,9999,9999,2027902040
11115,19,Jits_Linear_5,100,9999,9999,9999,2028582016
11115,19,Jits_Linear_5,101,9999,9999,9999,2029261888
11115,19,Jits_Linear_5,102,9999,9999,9999,2029941844
11115,19,Jits_Linear_5,103,9999,9999,9999,2030621756
11115,19,Jits_Linear_5,104,9999,9999,9999,2031301704
11115,19,Jits_Linear_5,105,9999,9999,9999,2031991860
11115,19,Jits_Linear_5,106,9999,9999,9999,2032682100
11115,19,Jits_Linear_5,107,9999,9999,9999,2033371264
11115,19,Jits_Linear_5,108,9999,9999,9999,2034061432
11115,19,Jits_Linear_5,109,9999,9999,9999,2034751608
11115,19,Jits_Linear_5,110,9999,9999,9999,2035452008
11115,19,Jits_Linear_5,111,9999,9999,9999,2036151384
11115,19,Jits_Linear_5,112,9999,9999,9999,2036851804
11115,19,Jits_Linear_5,113,9999,9999,9999,2037551184
11115,19,Jits_Linear_5,114,9999,9999,9999,2038251580
11115,19,Jits_Linear_5,115,9999,9999,9999,2038961220
11115,19,Jits_Linear_5,116,9999,9999,9999,2039671904
11115,19,Jits_Linear_5,117,9999,9999,9999,2040381560
11115,19,Jits_Linear_5,118,9999,9999,9999,2041091192
11115,19,Jits_Linear_5,119,9999,9999,9999,2041801800
11115,19,Jits_Linear_5,120,9999,9999,9999,2042521720
11115,19,Jits_Linear_5,121,9999,9999,9999,2043241548
11115,19,Jits_Linear_5,122,9999,9999,9999,2043961472
11115,19,Jits_Linear_5,123,9999,9999,9999,2044681280
11115,19,Jits_Linear_5,124,9999,9999,9999,2045401184
11115,19,Jits_Linear_5,125,9999,9999,9999,2046131312
11115,19,Jits_Linear_5,126,9999,9999,9999,2046861412
11115,19,Jits_Linear_5,127,9999,9999,9999,2047591500
11115,19,Jits_Linear_5,128,9999,9999,9999,2048321596
11115,19,Jits_Linear_5,129,9999,9999,9999,2049051708
11115,19,Jits_Linear_5,130,9999,9999,9999,2049792108
11115,19,Jits_Linear_5,131,9999,9999,9999,2050541680
11115,19,Jits_Linear_5,132,9999,9999,9999,2051282028
11115,19,Jits_Linear_5,133,9999,9999,9999,2052021336
11115,19,Jits_Linear_5,134,9999,9999,9999,2052761684
11115,19,Jits_Linear_5,135,9999,9999,9999,2053511256
11115,19,Jits_Linear_5,136,9999,9999,9999,2054261880
11115,19,Jits_Linear_5,137,9999,9999,9999,2055011452
11115,19,Jits_Linear_5,138,9999,9999,9999,2055761996
11115,19,Jits_Linear_5,139,9999,9999,9999,2056511592
11115,19,Jits_Linear_5,140,9999,9999,9999,2057271352
11115,19,Jits_Linear_5,141,9999,9999,9999,2058031204
11115,19,Jits_Linear_5,142,9999,9999,9999,2058792032
11115,19,Jits_Linear_5,143,9999,9999,9999,2059551808
11115,19,Jits_Linear_5,144,9999,9999,9999,2060311612
11115,19,Jits_Linear_5,145,9999,9999,9999,2061081708
11115,19,Jits_Linear_5,146,9999,9999,9999,2061851700
11115,19,Jits_Linear_5,147,9999,9999,9999,2062621800
11115,19,Jits_Linear_5,148,9999,9999,9999,2063391820
11115,19,Jits_Linear_5,149,9999,9999,9999,2064161852
11115,19,Jits_Linear_5,150,9999,9999,9999,2064941172
11115,19,Jits_Linear_5,151,9999,9999,9999,2065721448
11115,19,Jits_Linear_5,152,9999,9999,9999,2066501740
11115,19,Jits_Linear_5,153,9999,9999,9999,2067282016
11115,19,Jits_Linear_5,154,9999,9999,9999,2068061260
11115,19,Jits_Linear_5,155,9999,9999,9999,2068851812
11115,19,Jits_Linear_5,156,9999,9999,9999,2069641308
11115,19,Jits_Linear_5,157,9999,9999,9999,2070431856
11115,19,Jits_Linear_5,158,9999,9999,9999,2071221364
11115,19,Jits_Linear_5,159,9999,9999,9999,2072011840
11115,19,Jits_Linear_5,160,9999,9999,9999,2072811624
11115,19,Jits_Linear_5,161,9999,9999,9999,2073611340
11115,19,Jits_Linear_5,162,9999,9999,9999,2074411132
11115,19,Jits_Linear_5,163,9999,9999,9999,2075211888
11115,19,Jits_Linear_5,164,9999,9999,9999,2076011584
11115,19,Jits_Linear_5,165,9999,9999,9999,2076821616
11115,19,Jits_Linear_5,166,9999,9999,9999,2077631576
11115,19,Jits_Linear_5,167,9999,9999,9999,2078441548
11115,19,Jits_Linear_5,168,9999,9999,9999,2079251584
11115,19,Jits_Linear_5,169,9999,9999,9999,2080061500
11116,7,Jits_ISO_8,0,5,56,103,2089372044
11116,7,Jits_ISO_8,1,5,63,98,2089375144
11116,7,Jits_ISO_8,2,5,80,127,2089378340
11116,7,Jits_ISO_8,0,5,56,103,2090171892
11116,7,Jits_ISO_8,1,5,63,98,2090175068
11116,7,Jits_ISO_8,2,5,80,127,2090178112
11116,7,Jits_ISO_8,0,5,80,127,2090912196
11116,7,Jits_ISO_8,1,5,63,98,2091002108
11116,7,Jits_ISO_8,2,1,48,47,2091008888
11116,7,Jits_ISO_8,3,5,56,103,2091011400
11116,7,Jits_ISO_8,0,5,56,103,2091732224
11116,7,Jits_ISO_8,1,5,63,98,2091741596
11116,7,Jits_ISO_8,2,1,48,54,2091802576
11116,7,Jits_ISO_8,3,5,80,127,2091831824
11116,7,Jits_ISO_8,0,5,63,98,2092502500
11116,7,Jits_ISO_8,1,5,80,127,2092532252
11116,7,Jits_ISO_8,2,1,48,56,2092533736
11116,7,Jits_ISO_8,3,5,56,103,2092561920
11116,7,Jits_ISO_8,0,1,48,51,2093284040
11116,7,Jits_ISO_8,1,5,56,103,2093302124
11116,7,Jits_ISO_8,2,5,80,127,2093401488
11116,7,Jits_ISO_8,3,5,63,98,2093451616
11116,7,Jits_ISO_8,0,5,56,103,2094102064
11116,7,Jits_ISO_8,1,1,48,43,2094135556
11116,7,Jits_ISO_8,2,5,80,127,2094152140
11116,7,Jits_ISO_8,3,5,63,98,2094191928
11116,7,Jits_ISO_8,0,1,48,52,2094879512
11116,7,Jits_ISO_8,1,5,80,127,2094932448
11116,7,Jits_ISO_8,2,5,63,98,2094961976
11116,7,Jits_ISO_8,3,5,56,103,2095031716
11116,7,Jits_ISO_8,0,1,48,40,2095748164
11116,7,Jits_ISO_8,1,5,63,98,2095761904
11116,7,Jits_ISO_8,2,5,56,103,2095791580
11116,7,Jits_ISO_8,3,5,80,127,2095852104
11116,7,Jits_ISO_8,0,5,56,103,2096501980
11116,7,Jits_ISO_8,1,5,80,127,2096505052
11116,7,Jits_ISO_8,2,1,48,42,2096542488
11116,7,Jits_ISO_8,3,5,63,98,2096622000
11116,7,Jits_ISO_8,0,1,48,43,2097307652
11116,7,Jits_ISO_8,1,5,56,103,2097381860
11116,7,Jits_ISO_8,2,5,80,127,2097422008
11116,7,Jits_ISO_8,3,5,63,98,2097431980
11116,7,Jits_ISO_8,0,5,56,103,2098141568
11116,7,Jits_ISO_8,1,5,80,127,2098162028
11116,7,Jits_ISO_8,2,1,48,53,2098204056
11116,7,Jits_ISO_8,3,5,63,98,2098242064
11116,7,Jits_ISO_8,0,5,80,127,2098932076
11116,7,Jits_ISO_8,1,1,48,54,2099018224
11116,7,Jits_ISO_8,2,5,56,103,2099032568
11116,7,Jits_ISO_8,3,5,63,98,2099041940
11116,7,Jits_ISO_8,0,5,63,98,2099702132
11116,7,Jits_ISO_8,1,5,80,127,2099761576
11116,7,Jits_ISO_8,2,5,56,103,2099771848
11116,7,Jits_ISO_8,3,1,48,60,2099793996
11116,7,Jits_ISO_8,0,5,56,103,2100502056
11116,7,Jits_ISO_8,1,1,48,51,2100550532
11116,7,Jits_ISO_8,2,5,63,98,2100571460
11116,7,Jits_ISO_8,3,5,80,127,2100574972
11116,7,Jits_ISO_8,0,1,48,57,2101323560
11116,7,Jits_ISO_8,1,5,63,98,2101332280
11116,7,Jits_ISO_8,2,5,56,103,2101381432
11116,7,Jits_ISO_8,3,5,80,127,2101384576
11116,7,Jits_ISO_8,0,1,48,52,2102083100
11116,7,Jits_ISO_8,1,5,56,103,2102092260
11116,7,Jits_ISO_8,2,5,80,127,2102095328
11116,7,Jits_ISO_8,3,5,63,98,2102182232
11116,7,Jits_ISO_8,0,1,48,51,2102883688
11116,7,Jits_ISO_8,1,5,63,98,2102932112
11116,7,Jits_ISO_8,2,5,56,103,2103021864
11116,7,Jits_ISO_8,3,5,80,127,2103051688
11116,7,Jits_ISO_8,0,5,56,103,2103722468
11116,7,Jits_ISO_8,1,1,48,49,2103723360
11116,7,Jits_ISO_8,2,5,63,98,2103821724
11116,7,Jits_ISO_8,3,5,80,127,2103852396
11116,7,Jits_ISO_8,0,5,63,98,2104541452
11116,7,Jits_ISO_8,1,5,56,103,2104552020
11116,7,Jits_ISO_8,2,1,48,51,2104556260
11116,7,Jits_ISO_8,3,5,80,127,2104641948
11116,7,Jits_ISO_8,0,1,48,57,2105309960
11116,7,Jits_ISO_8,1,5,63,98,2105361980
11116,7,Jits_ISO_8,2,5,56,103,2105441936
11116,7,Jits_ISO_8,3,5,80,127,2105444928
11116,7,Jits_ISO_8,0,5,80,127,2106121460
11116,7,Jits_ISO_8,1,5,63,98,2106142020
11116,7,Jits_ISO_8,2,1,48,49,2106163796
11116,7,Jits_ISO_8,3,5,56,103,2106201508
11116,7,Jits_ISO_8,0,1,48,40,2106931220
11116,7,Jits_ISO_8,1,5,56,103,2106962332
11116,7,Jits_ISO_8,2,5,63,98,2106981816
11116,7,Jits_ISO_8,3,5,80,127,2106985032
11116,7,Jits_ISO_8,0,5,63,98,2107701576
11116,7,Jits_ISO_8,1,1,48,49,2107748816
11116,7,Jits_ISO_8,2,5,80,127,2107781368
11116,7,Jits_ISO_8,3,5,56,103,2107791860
11116,7,Jits_ISO_8,0,1,48,55,2108515632
11116,7,Jits_ISO_8,1,5,63,98,2108521804
11116,7,Jits_ISO_8,2,5,56,103,2108542264
11116,7,Jits_ISO_8,3,5,80,127,2108591344
11116,7,Jits_ISO_8,0,1,48,59,2109285816
11116,7,Jits_ISO_8,1,5,80,127,2109321808
11116,7,Jits_ISO_8,2,5,63,98,2109361600
11116,7,Jits_ISO_8,3,5,56,103,2109382796
11116,7,Jits_ISO_8,0,1,48,60,2110110332
11116,7,Jits_ISO_8,1,5,56,103,2110162348
11116,7,Jits_ISO_8,2,5,63,98,2110171724
11116,7,Jits_ISO_8,3,5,80,127,2110191960
11116,7,Jits_ISO_8,0,5,56,103,2110892316
11116,7,Jits_ISO_8,1,1,48,40,2110959632
11116,7,Jits_ISO_8,2,5,63,98,2110981396
11116,7,Jits_ISO_8,3,5,80,127,2111041960
11116,7,Jits_ISO_8,0,5,80,127,2111721784
11116,7,Jits_ISO_8,1,5,56,103,2111732056
11116,7,Jits_ISO_8,2,1,48,36,2111763648
11116,7,Jits_ISO_8,3,5,63,98,2111801680
11116,7,Jits_ISO_8,0,1,48,53,2112517196
11116,7,Jits_ISO_8,1,5,63,98,2112552388
11116,7,Jits_ISO_8,2,5,80,127,2112642584
11116,7,Jits_ISO_8,3,5,56,103,2112651736
11116,7,Jits_ISO_8,0,5,63,98,2113291772
11116,7,Jits_ISO_8,1,5,80,127,2113341776
11116,7,Jits_ISO_8,2,1,48,48,2113358820
11116,7,Jits_ISO_8,3,5,56,103,2113402236
11116,7,Jits_ISO_8,0,5,56,103,2114122144
11116,7,Jits_ISO_8,1,1,48,53,2114128776
11116,7,Jits_ISO_8,2,5,80,127,2114172416
11116,7,Jits_ISO_8,3,5,63,98,2114191904
11116,7,Jits_ISO_8,0,5,56,103,2114892120
11116,7,Jits_ISO_8,1,1,48,61,2114917416
11116,7,Jits_ISO_8,2,5,80,127,2114951756
11116,7,Jits_ISO_8,3,5,63,98,2115022096
11116,7,Jits_ISO_8,0,5,56,103,2115691840
11116,7,Jits_ISO_8,1,1,48,51,2115715932
11116,7,Jits_ISO_8,2,5,80,127,2115721736
11116,7,Jits_ISO_8,3,5,63,98,2115752308
11116,7,Jits_ISO_8,0,1,48,54,2116477060
11116,7,Jits_ISO_8,1,5,56,103,2116531708
11116,7,Jits_ISO_8,2,5,80,127,2116552020
11116,7,Jits_ISO_8,3,5,63,98,2116611572
11116,7,Jits_ISO_8,0,1,48,44,2117372452
11116,7,Jits_ISO_8,1,5,80,127,2117412064
11116,7,Jits_ISO_8,2,5,56,103,2117421360
11116,7,Jits_ISO_8,3,5,63,98,2117431780
11116,7,Jits_ISO_8,0,5,56,103,2118172148
11116,7,Jits_ISO_8,1,1,48,50,2118174748
11116,7,Jits_ISO_8,2,5,80,127,2118211932
11116,7,Jits_ISO_8,3,5,63,98,2118241756
11116,7,Jits_ISO_8,0,5,56,103,2118942056
11116,7,Jits_ISO_8,1,5,63,98,2118971660
11116,7,Jits_ISO_8,2,1,48,49,2118975752
11116,7,Jits_ISO_8,3,5,80,127,2119011964
11116,7,Jits_ISO_8,0,5,80,127,2119691780
11116,7,Jits_ISO_8,1,5,63,98,2119741788
11116,7,Jits_ISO_8,2,5,56,103,2119762244
11116,7,Jits_ISO_8,3,1,48,50,2119787012
11116,7,Jits_ISO_8,0,1,48,49,2120467256
11116,7,Jits_ISO_8,1,5,56,103,2120522088
11116,7,Jits_ISO_8,2,5,80,127,2120591608
11116,7,Jits_ISO_8,3,5,63,98,2120652144
11116,7,Jits_ISO_8,0,5,80,127,2121321876
11116,7,Jits_ISO_8,1,1,48,54,2121351452
11116,7,Jits_ISO_8,2,5,63,98,2121411860
11116,7,Jits_ISO_8,3,5,56,103,2121432540
11116,7,Jits_ISO_8,0,5,63,98,2122142056
11116,7,Jits_ISO_8,1,5,56,103,2122161620
11116,7,Jits_ISO_8,2,1,48,59,2122191636
11116,7,Jits_ISO_8,3,5,80,127,2122201624
11116,7,Jits_ISO_8,0,5,80,127,2122901980
11116,7,Jits_ISO_8,1,5,63,98,2122922292
11116,7,Jits_ISO_8,2,1,48,49,2122970816
11116,7,Jits_ISO_8,3,5,56,103,2123002080
11116,7,Jits_ISO_8,0,5,63,98,2123692484
11116,7,Jits_ISO_8,1,1,48,45,2123754488
11116,7,Jits_ISO_8,2,5,56,103,2123801888
11116,7,Jits_ISO_8,3,5,80,127,2123805108
11116,7,Jits_ISO_8,0,5,63,98,2124511812
11116,7,Jits_ISO_8,1,5,56,103,2124521860
11116,7,Jits_ISO_8,2,5,80,127,2124524852
11116,7,Jits_ISO_8,3,1,48,52,2124534048
11116,7,Jits_ISO_8,0,1,48,56,2125289356
11116,7,Jits_ISO_8,1,5,56,103,2125291944
11116,7,Jits_ISO_8,2,5,80,127,2125411688
11116,7,Jits_ISO_8,3,5,63,98,2125451776
11116,7,Jits_ISO_8,0,1,48,58,2126107380
11116,7,Jits_ISO_8,1,5,56,103,2126112060
11116,7,Jits_ISO_8,2,5,80,127,2126191860
11116,7,Jits_ISO_8,3,5,63,98,2126211704
11116,7,Jits_ISO_8,0,5,56,103,2126911852
11116,7,Jits_ISO_8,1,1,48,42,2126934080
11116,7,Jits_ISO_8,2,5,63,98,2127021608
11116,7,Jits_ISO_8,3,5,80,127,2127024900
11116,7,Jits_ISO_8,0,5,56,103,2127742288
11116,7,Jits_ISO_8,1,5,80,127,2127771888
11116,7,Jits_ISO_8,2,5,63,98,2127791600
11116,7,Jits_ISO_8,3,1,48,56,2127827748
11116,7,Jits_ISO_8,0,5,63,98,2128521708
11116,7,Jits_ISO_8,1,5,56,103,2128531904
11116,7,Jits_ISO_8,2,5,80,127,2128541952
11116,7,Jits_ISO_8,3,1,48,47,2128601032
11116,7,Jits_ISO_8,0,5,80,127,2129311968
11116,7,Jits_ISO_8,1,5,56,103,2129362472
11116,7,Jits_ISO_8,2,1,48,47,2129365440
11116,7,Jits_ISO_8,3,5,63,98,2129402104
11116,7,Jits_ISO_8,0,5,80,127,2130132296
11116,7,Jits_ISO_8,1,1,48,55,2130144852
11116,7,Jits_ISO_8,2,5,63,98,2130151776
11116,7,Jits_ISO_8,3,5,56,103,2130202076
11116,7,Jits_ISO_8,0,5,80,127,2130942504
11116,7,Jits_ISO_8,1,5,56,103,2130971908
11116,7,Jits_ISO_8,2,1,48,50,2130972872
11116,7,Jits_ISO_8,3,5,63,98,2131041728
11116,7,Jits_ISO_8,0,1,48,43,2131762308
11116,7,Jits_ISO_8,1,5,56,103,2131792372
11116,7,Jits_ISO_8,2,5,80,127,2131801448
11116,7,Jits_ISO_8,3,5,63,98,2131842508
11116,7,Jits_ISO_8,0,5,56,103,2132501936
11116,7,Jits_ISO_8,1,5,63,98,2132522472
11116,7,Jits_ISO_8,2,5,80,127,2132591928
11116,7,Jits_ISO_8,3,1,48,47,2132640524
11116,7,Jits_ISO_8,0,5,63,98,2133322032
11116,7,Jits_ISO_8,1,5,80,127,2133381528
11116,7,Jits_ISO_8,2,1,48,41,2133397900
11116,7,Jits_ISO_8,3,5,56,103,2133402052
11116,7,Jits_ISO_8,0,5,80,127,2134111548
11116,7,Jits_ISO_8,1,5,56,103,2134142496
11116,7,Jits_ISO_8,2,1,48,41,2134168760
11116,7,Jits_ISO_8,3,5,63,98,2134172016
11116,7,Jits_ISO_8,0,5,56,103,2134912468
11116,7,Jits_ISO_8,1,1,48,40,2134939252
11116,7,Jits_ISO_8,2,5,63,98,2134971656
11116,7,Jits_ISO_8,3,5,80,127,2135032196
11116,7,Jits_ISO_8,0,1,48,43,2135722796
11116,7,Jits_ISO_8,1,5,80,127,2135731588
11116,7,Jits_ISO_8,2,5,56,103,2135751976
11116,7,Jits_ISO_8,3,5,63,98,2135821716
11116,7,Jits_ISO_8,0,1,48,51,2136512692
11116,7,Jits_ISO_8,1,5,80,127,2136532420
11116,7,Jits_ISO_8,2,5,63,98,2136551684
11116,7,Jits_ISO_8,3,5,56,103,2136581436
11116,7,Jits_ISO_8,0,5,80,127,2137321720
11116,7,Jits_ISO_8,1,1,48,45,2137342848
11116,7,Jits_ISO_8,2,5,63,98,2137344044
11116,7,Jits_ISO_8,3,5,56,103,2137401692
11116,7,Jits_ISO_8,0,1,48,44,2138097420
11116,7,Jits_ISO_8,1,5,80,127,2138121732
11116,7,Jits_ISO_8,2,5,56,103,2138221920
11116,7,Jits_ISO_8,3,5,63,98,2138251592
11116,7,Jits_ISO_8,0,5,63,98,2138912112
11116,7,Jits_ISO_8,1,1,48,45,2138916724
11116,7,Jits_ISO_8,2,5,80,127,2138962384
11116,7,Jits_ISO_8,3,5,56,103,2138981644
11116,7,Jits_ISO_8,0,1,48,30,2139750236
11116,7,Jits_ISO_8,1,5,80,127,2139751748
11116,7,Jits_ISO_8,2,5,56,103,2139781496
11116,7,Jits_ISO_8,3,5,63,98,2139784488
11116,7,Jits_ISO_8,0,1,48,43,2140498440
11116,7,Jits_ISO_8,1,5,63,98,2140582540
11116,7,Jits_ISO_8,2,5,56,103,2140622392
11116,7,Jits_ISO_8,3,5,80,127,2140641580
11116,7,Jits_ISO_8,0,5,80,127,2141321572
11116,7,Jits_ISO_8,1,1,48,42,2141366720
11116,7,Jits_ISO_8,2,5,63,98,2141401664
11116,7,Jits_ISO_8,3,5,56,103,2141442576
11116,7,Jits_ISO_8,0,5,63,98,2142141680
11116,7,Jits_ISO_8,1,1,48,51,2142190356
11116,7,Jits_ISO_8,2,5,80,127,2142221620
11116,7,Jits_ISO_8,3,5,56,103,2142242104
11116,7,Jits_ISO_8,0,5,56,103,2142981628
11116,7,Jits_ISO_8,1,5,63,98,2142991676
11116,7,Jits_ISO_8,2,1,48,46,2143014896
11116,7,Jits_ISO_8,3,5,80,127,2143031780
11116,7,Jits_ISO_8,0,5,56,103,2143702532
11116,7,Jits_ISO_8,1,5,80,127,2143705524
11116,7,Jits_ISO_8,2,1,48,46,2143790864
11116,7,Jits_ISO_8,3,5,63,98,2143841608
11116,7,Jits_ISO_8,0,5,56,103,2144491760
11116,7,Jits_ISO_8,1,1,48,46,2144545248
11116,7,Jits_ISO_8,2,5,63,98,2144581988
11116,7,Jits_ISO_8,3,5,80,127,2144651580
11116,7,Jits_ISO_8,0,1,48,44,2145364000
11116,7,Jits_ISO_8,1,5,63,98,2145371664
11116,7,Jits_ISO_8,2,5,80,127,2145374732
11116,7,Jits_ISO_8,3,5,56,103,2145431904
11116,7,Jits_ISO_8,0,1,48,39,2146149452
11116,7,Jits_ISO_8,1,5,80,127,2146212496
11116,7,Jits_ISO_8,2,5,56,103,2146231688
11116,7,Jits_ISO_8,3,5,63,98,2146242108
11116,7,Jits_ISO_8,0,5,56,103,2146921868
11116,7,Jits_ISO_8,1,5,63,98,2146932064
11116,7,Jits_ISO_8,2,5,80,127,2147001596
11116,7,Jits_ISO_8,3,1,48,38,2147036848
11116,7,Jits_ISO_8,0,5,80,127,2147721440
11116,7,Jits_ISO_8,1,5,56,103,2147771644
11116,7,Jits_ISO_8,2,1,48,38,2147783600
11116,7,Jits_ISO_8,3,5,63,98,2147821836
11116,7,Jits_ISO_8,0,1,48,40,2148490492
11116,7,Jits_ISO_8,1,5,56,103,2148602284
11116,7,Jits_ISO_8,2,5,63,98,2148611436
11116,7,Jits_ISO_8,3,5,80,127,2148652516
11116,7,Jits_ISO_8,0,5,56,103,2149341484
11116,7,Jits_ISO_8,1,1,48,42,2149361164
11116,7,Jits_ISO_8,2,5,63,98,2149381568
11116,7,Jits_ISO_8,3,5,80,127,2149431644
11116,7,Jits_ISO_8,0,5,80,127,2150102472
11116,7,Jits_ISO_8,1,5,56,103,2150151480
11116,7,Jits_ISO_8,2,5,63,98,2150171888
11116,7,Jits_ISO_8,3,1,48,40,2150185864
11116,7,Jits_ISO_8,0,5,80,127,2150912308
11116,7,Jits_ISO_8,1,5,63,98,2150971752
11116,7,Jits_ISO_8,2,1,48,43,2150976068
11116,7,Jits_ISO_8,3,5,56,103,2151051764
11116,7,Jits_ISO_8,0,5,80,127,2151691500
11116,7,Jits_ISO_8,1,5,56,103,2151731468
11116,7,Jits_ISO_8,2,5,63,98,2151752224
11116,7,Jits_ISO_8,3,1,48,45,2151812580
11116,7,Jits_ISO_8,0,1,48,45,2152506788
11116,7,Jits_ISO_8,1,5,56,103,2152541512
11116,7,Jits_ISO_8,2,5,80,127,2152551932
11116,7,Jits_ISO_8,3,5,63,98,2152591868
11116,7,Jits_ISO_8,0,1,48,47,2153332276
11116,7,Jits_ISO_8,1,5,56,103,2153412168
11116,7,Jits_ISO_8,2,5,63,98,2153451792
11116,7,Jits_ISO_8,3,5,80,127,2153455160
11116,7,Jits_ISO_8,0,5,63,98,2154102420
11116,7,Jits_ISO_8,1,5,80,127,2154142288
11116,7,Jits_ISO_8,2,5,56,103,2154211668
11116,7,Jits_ISO_8,3,1,48,44,2154278704
11116,7,Jits_ISO_8,0,5,63,98,2154891492
11116,7,Jits_ISO_8,1,5,56,103,2154971588
11116,7,Jits_ISO_8,2,1,48,39,2155016956
11116,7,Jits_ISO_8,3,5,80,127,2155032144
11116,7,Jits_ISO_8,0,5,80,127,2155701616
11116,7,Jits_ISO_8,1,1,48,40,2155751520
11116,7,Jits_ISO_8,2,5,63,98,2155753156
11116,7,Jits_ISO_8,3,5,56,103,2155781412
11116,7,Jits_ISO_8,0,5,56,103,2156492268
11116,7,Jits_ISO_8,1,5,63,98,2156542396
11116,7,Jits_ISO_8,2,5,80,127,2156551472
11116,7,Jits_ISO_8,3,1,48,40,2156565224
11116,7,Jits_ISO_8,0,1,48,43,2157273224
11116,7,Jits_ISO_8,1,5,56,103,2157302240
11116,7,Jits_ISO_8,2,5,63,98,2157411720
11116,7,Jits_ISO_8,3,5,80,127,2157432252
11116,7,Jits_ISO_8,0,5,63,98,2158101812
11116,7,Jits_ISO_8,1,1,48,44,2158120244
11116,7,Jits_ISO_8,2,5,80,127,2158152404
11116,7,Jits_ISO_8,3,5,56,103,2158242148
11116,7,Jits_ISO_8,0,5,63,98,2158892472
11116,7,Jits_ISO_8,1,5,80,127,2158922372
11116,7,Jits_ISO_8,2,1,48,48,2158933440
11116,7,Jits_ISO_8,3,5,56,103,2159012200
11116,7,Jits_ISO_8,0,5,63,98,2159692180
11116,7,Jits_ISO_8,1,5,56,103,2159702376
11116,7,Jits_ISO_8,2,1,48,53,2159729688
11116,7,Jits_ISO_8,3,5,80,127,2159801644
11116,7,Jits_ISO_8,0,1,48,44,2160532388
11116,7,Jits_ISO_8,1,5,63,98,2160592352
11116,7,Jits_ISO_8,2,5,80,127,2160621956
11116,7,Jits_ISO_8,3,5,56,103,2160651540
11116,7,Jits_ISO_8,0,1,48,51,2161328944
11116,7,Jits_ISO_8,1,5,80,127,2161411404
11116,7,Jits_ISO_8,2,5,63,98,2161421672
11116,7,Jits_ISO_8,3,5,56,103,2161452404
11116,7,Jits_ISO_8,0,5,80,127,2162111776
11116,7,Jits_ISO_8,1,1,48,47,2162127400
11116,7,Jits_ISO_8,2,5,63,98,2162132376
11116,7,Jits_ISO_8,3,5,56,103,2162181532
11116,7,Jits_ISO_8,0,5,63,98,2162942440
11116,7,Jits_ISO_8,1,1,48,43,2162959504
11116,7,Jits_ISO_8,2,5,80,127,2163001580
11116,7,Jits_ISO_8,3,5,56,103,2163022336
11116,7,Jits_ISO_8,0,5,63,98,2163702216
11116,7,Jits_ISO_8,1,5,56,103,2163752368
11116,7,Jits_ISO_8,2,5,80,127,2163761520
11116,7,Jits_ISO_8,3,1,48,39,2163770564
11116,7,Jits_ISO_8,0,5,56,103,2164531544
11116,7,Jits_ISO_8,1,5,80,127,2164541664
11116,7,Jits_ISO_8,2,1,48,40,2164558484
11116,7,Jits_ISO_8,3,5,63,98,2164642200
11116,7,Jits_ISO_8,0,5,80,127,2165292300
11116,7,Jits_ISO_8,1,5,63,98,2165301528
11116,7,Jits_ISO_8,2,1,48,54,2165335212
11116,7,Jits_ISO_8,3,5,56,103,2165452168
11116,7,Jits_ISO_8,0,5,63,98,2166102436
11116,7,Jits_ISO_8,1,1,48,48,2166119872
11116,7,Jits_ISO_8,2,5,80,127,2166142220
11116,7,Jits_ISO_8,3,5,56,103,2166222220
11116,7,Jits_ISO_8,0,5,56,103,2166892028
11116,7,Jits_ISO_8,1,1,48,45,2166928408
11116,7,Jits_ISO_8,2,5,80,127,2166992348
11116,7,Jits_ISO_8,3,5,63,98,2167011832
11116,7,Jits_ISO_8,0,1,48,41,2167745660
11116,7,Jits_ISO_8,1,5,80,127,2167752128
11116,7,Jits_ISO_8,2,5,56,103,2167762252
11116,7,Jits_ISO_8,3,5,63,98,2167852320
11116,7,Jits_ISO_8,0,5,56,103,2168552072
11116,7,Jits_ISO_8,1,1,48,48,2168570112
11116,7,Jits_ISO_8,2,5,63,98,2168572228
11116,7,Jits_ISO_8,3,5,80,127,2168652120
11116,7,Jits_ISO_8,0,5,63,98,2169302348
11116,7,Jits_ISO_8,1,1,48,40,2169368420
11116,7,Jits_ISO_8,2,5,56,103,2169391604
11116,7,Jits_ISO_8,3,5,80,127,2169394672
11116,7,Jits_ISO_8,0,1,48,47,2170125988
11116,7,Jits_ISO_8,1,5,56,103,2170131940
11116,7,Jits_ISO_8,2,5,80,127,2170192280
11116,7,Jits_ISO_8,3,5,63,98,2170201504
11116,7,Jits_ISO_8,0,1,48,51,2170923704
11116,7,Jits_ISO_8,1,5,80,127,2170982020
11116,7,Jits_ISO_8,2,5,56,103,2170992216
11116,7,Jits_ISO_8,3,5,63,98,2170995208
11116,7,Jits_ISO_8,0,5,56,103,2171741424
11116,7,Jits_ISO_8,1,5,80,127,2171752064
11116,7,Jits_ISO_8,2,1,48,45,2171770948
11116,7,Jits_ISO_8,3,5,63,98,2171772520
11116,7,Jits_ISO_8,0,5,63,98,2172511552
11116,7,Jits_ISO_8,1,1,48,46,2172564340
11116,7,Jits_ISO_8,2,5,80,127,2172571936
11116,7,Jits_ISO_8,3,5,56,103,2172622212
11116,7,Jits_ISO_8,0,1,48,38,2173328900
11116,7,Jits_ISO_8,1,5,63,98,2173392172
11116,7,Jits_ISO_8,2,5,56,103,2173401320
11116,7,Jits_ISO_8,3,5,80,127,2173451804
11116,7,Jits_ISO_8,0,5,63,98,2174091572
11116,7,Jits_ISO_8,1,5,80,127,2174112180
11116,7,Jits_ISO_8,2,5,56,103,2174122376
11116,7,Jits_ISO_8,3,1,48,51,2174124896
11116,7,Jits_ISO_8,0,5,63,98,2174892392
11116,7,Jits_ISO_8,1,5,80,127,2174895832
11116,7,Jits_ISO_8,2,1,48,40,2174904952
11116,7,Jits_ISO_8,3,5,56,103,2174932248
11116,7,Jits_ISO_8,0,1,48,45,2175708676
11116,7,Jits_ISO_8,1,5,63,98,2175761908
11116,7,Jits_ISO_8,2,5,80,127,2175791612
11116,7,Jits_ISO_8,3,5,56,103,2175802104
11116,7,Jits_ISO_8,0,5,56,103,2176512328
11116,7,Jits_ISO_8,1,1,48,40,2176526612
11116,7,Jits_ISO_8,2,5,80,127,2176542024
11116,7,Jits_ISO_8,3,5,63,98,2176571996
11116,7,Jits_ISO_8,0,1,48,38,2177279780
11116,7,Jits_ISO_8,1,5,63,98,2177411400
11116,7,Jits_ISO_8,2,5,56,103,2177452460
11116,7,Jits_ISO_8,3,5,80,127,2177455376
11116,7,Jits_ISO_8,0,5,80,127,2178112080
11116,7,Jits_ISO_8,1,5,56,103,2178191952
11116,7,Jits_ISO_8,2,1,48,42,2178199876
11116,7,Jits_ISO_8,3,5,63,98,2178242072
11116,7,Jits_ISO_8,0,5,80,127,2178892176
11116,7,Jits_ISO_8,1,5,56,103,2178911740
11116,7,Jits_ISO_8,2,1,48,43,2178969708
11116,7,Jits_ISO_8,3,5,63,98,2179001936
11116,7,Jits_ISO_8,0,1,48,44,2179680704
11116,7,Jits_ISO_8,1,5,80,127,2179731896
11116,7,Jits_ISO_8,2,5,63,98,2179771836
11116,7,Jits_ISO_8,3,5,56,103,2179811984
11116,7,Jits_ISO_8,0,5,63,98,2180502016
11116,7,Jits_ISO_8,1,1,48,28,2180528360
11116,7,Jits_ISO_8,2,5,80,127,2180562256
11116,7,Jits_ISO_8,3,5,56,103,2180591856
11116,7,Jits_ISO_8,0,1,48,42,2181266176
11116,7,Jits_ISO_8,1,5,56,103,2181301720
11116,7,Jits_ISO_8,2,5,80,127,2181332296
11116,7,Jits_ISO_8,3,5,63,98,2181421540
11116,7,Jits_ISO_8,0,1,48,46,2182101700
11116,7,Jits_ISO_8,1,5,56,103,2182111544
11116,7,Jits_ISO_8,2,5,80,127,2182222144
11116,7,Jits_ISO_8,3,5,63,98,2182252040
11116,7,Jits_ISO_8,0,1,48,48,2182950372
11116,7,Jits_ISO_8,1,5,56,103,2182961484
11116,7,Jits_ISO_8,2,5,63,98,2183022024
11116,7,Jits_ISO_8,3,5,80,127,2183051756
11116,7,Jits_ISO_8,0,5,56,103,2183731532
11116,7,Jits_ISO_8,1,1,48,44,2183749328
11116,7,Jits_ISO_8,2,5,63,98,2183802184
11116,7,Jits_ISO_8,3,5,80,127,2183821968
11116,7,Jits_ISO_8,0,5,80,127,2184502036
11116,7,Jits_ISO_8,1,5,63,98,2184522048
11116,7,Jits_ISO_8,2,1,48,46,2184542924
11116,7,Jits_ISO_8,3,5,56,103,2184572168
11116,7,Jits_ISO_8,0,9999,9999,9999,2089770084
11116,7,Jits_ISO_8,1,9999,9999,9999,2090569784
11116,7,Jits_ISO_8,2,9999,9999,9999,2091369560
11116,7,Jits_ISO_8,3,9999,9999,9999,2092169280
11116,7,Jits_ISO_8,4,9999,9999,9999,2092970048
11116,7,Jits_ISO_8,5,9999,9999,9999,2093769836
11116,7,Jits_ISO_8,6,9999,9999,9999,2094569540
11116,7,Jits_ISO_8,7,9999,9999,9999,2095369340
11116,7,Jits_ISO_8,8,9999,9999,9999,2096170052
11116,7,Jits_ISO_8,9,9999,9999,9999,2096969824
11116,7,Jits_ISO_8,10,9999,9999,9999,2097769552
11116,7,Jits_ISO_8,11,9999,9999,9999,2098569336
11116,7,Jits_ISO_8,12,9999,9999,9999,2099370036
11116,7,Jits_ISO_8,13,9999,9999,9999,2100169828
11116,7,Jits_ISO_8,14,9999,9999,9999,2100969524
11116,7,Jits_ISO_8,15,9999,9999,9999,2101769308
11116,7,Jits_ISO_8,16,9999,9999,9999,2102570072
11116,7,Jits_ISO_8,17,9999,9999,9999,2103369784
11116,7,Jits_ISO_8,18,9999,9999,9999,2104169572
11116,7,Jits_ISO_8,19,9999,9999,9999,2104969296
11116,7,Jits_ISO_8,20,9999,9999,9999,2105770044
11116,7,Jits_ISO_8,21,9999,9999,9999,2106569828
11116,7,Jits_ISO_8,22,9999,9999,9999,2107369544
11116,7,Jits_ISO_8,23,9999,9999,9999,2108169324
11116,7,Jits_ISO_8,24,9999,9999,9999,2108970100
11116,7,Jits_ISO_8,25,9999,9999,9999,2109769808
11116,7,Jits_ISO_8,26,9999,9999,9999,2110569524
11116,7,Jits_ISO_8,27,9999,9999,9999,2111369308
11116,7,Jits_ISO_8,28,9999,9999,9999,2112170076
11116,7,Jits_ISO_8,29,9999,9999,9999,2112969804
11116,7,Jits_ISO_8,30,9999,9999,9999,2113769584
11116,7,Jits_ISO_8,31,9999,9999,9999,2114569292
11116,7,Jits_ISO_8,32,9999,9999,9999,2115370084
11116,7,Jits_ISO_8,33,9999,9999,9999,2116169800
11116,7,Jits_ISO_8,34,9999,9999,9999,2116969524
11116,7,Jits_ISO_8,35,9999,9999,9999,2117769312
11116,7,Jits_ISO_8,36,9999,9999,9999,2118570076
11116,7,Jits_ISO_8,37,9999,9999,9999,2119369800
11116,7,Jits_ISO_8,38,9999,9999,9999,2120169592
11116,7,Jits_ISO_8,39,9999,9999,9999,2120969320
11116,7,Jits_ISO_8,40,9999,9999,9999,2121770100
11116,7,Jits_ISO_8,41,9999,9999,9999,2122569824
11116,7,Jits_ISO_8,42,9999,9999,9999,2123369528
11116,7,Jits_ISO_8,43,9999,9999,9999,2124169316
11116,7,Jits_ISO_8,44,9999,9999,9999,2124970056
11116,7,Jits_ISO_8,45,9999,9999,9999,2125769844
11116,7,Jits_ISO_8,46,9999,9999,9999,2126569556
11116,7,Jits_ISO_8,47,9999,9999,9999,2127369332
11116,7,Jits_ISO_8,48,9999,9999,9999,2128170052
11116,7,Jits_ISO_8,49,9999,9999,9999,2128969848
11116,7,Jits_ISO_8,50,9999,9999,9999,2129769552
11116,7,Jits_ISO_8,51,9999,9999,9999,2130569276
11116,7,Jits_ISO_8,52,9999,9999,9999,2131370048
11116,7,Jits_ISO_8,53,9999,9999,9999,2132169780
11116,7,Jits_ISO_8,54,9999,9999,9999,2132969532
11116,7,Jits_ISO_8,55,9999,9999,9999,2133769328
11116,7,Jits_ISO_8,56,9999,9999,9999,2134570104
11116,7,Jits_ISO_8,57,9999,9999,9999,2135369828
11116,7,Jits_ISO_8,58,9999,9999,9999,2136169552
11116,7,Jits_ISO_8,59,9999,9999,9999,2136969336
11116,7,Jits_ISO_8,60,9999,9999,9999,2137770084
11116,7,Jits_ISO_8,61,9999,9999,9999,2138569812
11116,7,Jits_ISO_8,62,9999,9999,9999,2139369596
11116,7,Jits_ISO_8,63,9999,9999,9999,2140169296
11116,7,Jits_ISO_8,64,9999,9999,9999,2140970088
11116,7,Jits_ISO_8,65,9999,9999,9999,2141769796
11116,7,Jits_ISO_8,66,9999,9999,9999,2142569528
11116,7,Jits_ISO_8,67,9999,9999,9999,2143369316
11116,7,Jits_ISO_8,68,9999,9999,9999,2144170072
11116,7,Jits_ISO_8,69,9999,9999,9999,2144969800
11116,7,Jits_ISO_8,70,9999,9999,9999,2145769588
11116,7,Jits_ISO_8,71,9999,9999,9999,2146569308
11116,7,Jits_ISO_8,72,9999,9999,9999,2147370084
11116,7,Jits_ISO_8,73,9999,9999,9999,2148169808
11116,7,Jits_ISO_8,74,9999,9999,9999,2148969544
11116,7,Jits_ISO_8,75,9999,9999,9999,2149769324
11116,7,Jits_ISO_8,76,9999,9999,9999,2150570092
11116,7,Jits_ISO_8,77,9999,9999,9999,2151369820
11116,7,Jits_ISO_8,78,9999,9999,9999,2152169536
11116,7,Jits_ISO_8,79,9999,9999,9999,2152969332
11116,7,Jits_ISO_8,80,9999,9999,9999,2153770040
11116,7,Jits_ISO_8,81,9999,9999,9999,2154569820
11116,7,Jits_ISO_8,82,9999,9999,9999,2155369532
11116,7,Jits_ISO_8,83,9999,9999,9999,2156169312
11116,7,Jits_ISO_8,84,9999,9999,9999,2156970076
11116,7,Jits_ISO_8,85,9999,9999,9999,2157769800
11116,7,Jits_ISO_8,86,9999,9999,9999,2158569584
11116,7,Jits_ISO_8,87,9999,9999,9999,2159369292
11116,7,Jits_ISO_8,88,9999,9999,9999,2160170068
11116,7,Jits_ISO_8,89,9999,9999,9999,2160969784
11116,7,Jits_ISO_8,90,9999,9999,9999,2161769576
11116,7,Jits_ISO_8,91,9999,9999,9999,2162569284
11116,7,Jits_ISO_8,92,9999,9999,9999,2163370056
11116,7,Jits_ISO_8,93,9999,9999,9999,2164169836
11116,7,Jits_ISO_8,94,9999,9999,9999,2164969548
11116,7,Jits_ISO_8,95,9999,9999,9999,2165769268
11116,7,Jits_ISO_8,96,9999,9999,9999,2166570060
11116,7,Jits_ISO_8,97,9999,9999,9999,2167369844
11116,7,Jits_ISO_8,98,9999,9999,9999,2168169568
11116,7,Jits_ISO_8,99,9999,9999,9999,2168969280
11116,7,Jits_ISO_8,100,9999,9999,9999,2169770040
11116,7,Jits_ISO_8,101,9999,9999,9999,2170569828
11116,7,Jits_ISO_8,102,9999,9999,9999,2171369532
11116,7,Jits_ISO_8,103,9999,9999,9999,2172169312
11116,7,Jits_ISO_8,104,9999,9999,9999,2172970108
11116,7,Jits_ISO_8,105,9999,9999,9999,2173769828
11116,7,Jits_ISO_8,106,9999,9999,9999,2174569528
11116,7,Jits_ISO_8,107,9999,9999,9999,2175369292
11116,7,Jits_ISO_8,108,9999,9999,9999,2176170056
11116,7,Jits_ISO_8,109,9999,9999,9999,2176969836
11116,7,Jits_ISO_8,110,9999,9999,9999,2177769556
11116,7,Jits_ISO_8,111,9999,9999,9999,2178569272
11116,7,Jits_ISO_8,112,9999,9999,9999,2179370064
11116,7,Jits_ISO_8,113,9999,9999,9999,2180169788
11116,7,Jits_ISO_8,114,9999,9999,9999,2180969572
11116,7,Jits_ISO_8,115,9999,9999,9999,2181769276
11116,7,Jits_ISO_8,116,9999,9999,9999,2182570036
11116,7,Jits_ISO_8,117,9999,9999,9999,2183369828
11116,7,Jits_ISO_8,118,9999,9999,9999,2184169540
11116,7,Jits_ISO_8,119,9999,9999,9999,2184969332
11117,16,Jits_ISO_5,0,5,56,103,2195052004
11117,16,Jits_ISO_5,1,5,63,98,2195055028
11117,16,Jits_ISO_5,2,5,80,127,2195058148
11117,16,Jits_ISO_5,0,5,56,103,2195551652
11117,16,Jits_ISO_5,1,5,63,98,2195554748
11117,16,Jits_ISO_5,2,5,80,127,2195557944
11117,16,Jits_ISO_5,0,5,56,103,2196052436
11117,16,Jits_ISO_5,1,5,80,127,2196061584
11117,16,Jits_ISO_5,2,5,63,98,2196081972
11117,16,Jits_ISO_5,0,5,63,98,2196501908
11117,16,Jits_ISO_5,1,5,80,127,2196531732
11117,16,Jits_ISO_5,2,5,56,103,2196541852
11117,16,Jits_ISO_5,0,1,48,44,2197033732
11117,16,Jits_ISO_5,1,5,80,127,2197061932
11117,16,Jits_ISO_5,2,5,56,103,2197072128
11117,16,Jits_ISO_5,3,5,63,98,2197101876
11117,16,Jits_ISO_5,0,5,63,98,2197551412
11117,16,Jits_ISO_5,1,1,48,44,2197559708
11117,16,Jits_ISO_5,2,5,56,103,2197582128
11117,16,Jits_ISO_5,3,5,80,127,2197592620
11117,16,Jits_ISO_5,0,5,56,103,2198001900
11117,16,Jits_ISO_5,1,5,63,98,2198052276
11117,16,Jits_ISO_5,2,5,80,127,2198071540
11117,16,Jits_ISO_5,3,1,48,48,2198077724
11117,16,Jits_ISO_5,0,5,80,127,2198501724
11117,16,Jits_ISO_5,1,1,48,49,2198549432
11117,16,Jits_ISO_5,2,5,63,98,2198551944
11117,16,Jits_ISO_5,3,5,56,103,2198591880
11117,16,Jits_ISO_5,0,5,56,103,2199001468
11117,16,Jits_ISO_5,1,5,63,98,2199032112
11117,16,Jits_ISO_5,2,1,48,41,2199036356
11117,16,Jits_ISO_5,3,5,80,127,2199101732
11117,16,Jits_ISO_5,0,5,56,103,2199502188
11117,16,Jits_ISO_5,1,1,48,47,2199503904
11117,16,Jits_ISO_5,2,5,80,127,2199561596
11117,16,Jits_ISO_5,3,5,63,98,2199592492
11117,16,Jits_ISO_5,0,1,48,43,2199991264
11117,16,Jits_ISO_5,1,5,56,103,2200012120
11117,16,Jits_ISO_5,2,5,63,98,2200022316
11117,16,Jits_ISO_5,3,5,80,127,2200062400
11117,16,Jits_ISO_5,0,1,48,38,2200499552
11117,16,Jits_ISO_5,1,5,63,98,2200501520
11117,16,Jits_ISO_5,2,5,80,127,2200581684
11117,16,Jits_ISO_5,3,5,56,103,2200591656
11117,16,Jits_ISO_5,0,1,48,40,2201010448
11117,16,Jits_ISO_5,1,5,63,98,2201051596
11117,16,Jits_ISO_5,2,5,56,103,2201091608
11117,16,Jits_ISO_5,3,5,80,127,2201094672
11117,16,Jits_ISO_5,0,5,56,103,2201512744
11117,16,Jits_ISO_5,1,5,63,98,2201521596
11117,16,Jits_ISO_5,2,1,48,38,2201536172
11117,16,Jits_ISO_5,3,5,80,127,2201561600
11117,16,Jits_ISO_5,0,5,56,103,2202001708
11117,16,Jits_ISO_5,1,5,63,98,2202004700
11117,16,Jits_ISO_5,2,5,80,127,2202022316
11117,16,Jits_ISO_5,3,1,48,41,2202045060
11117,16,Jits_ISO_5,0,5,80,127,2202511708
11117,16,Jits_ISO_5,1,1,48,43,2202512672
11117,16,Jits_ISO_5,2,5,56,103,2202521896
11117,16,Jits_ISO_5,3,5,63,98,2202591796
11117,16,Jits_ISO_5,0,5,63,98,2203002088
11117,16,Jits_ISO_5,1,1,48,36,2203007152
11117,16,Jits_ISO_5,2,5,56,103,2203021640
11117,16,Jits_ISO_5,3,5,80,127,2203101712
11117,16,Jits_ISO_5,0,5,56,103,2203512304
11117,16,Jits_ISO_5,1,1,48,43,2203523816
11117,16,Jits_ISO_5,2,5,80,127,2203552088
11117,16,Jits_ISO_5,3,5,63,98,2203562580
11117,16,Jits_ISO_5,0,1,48,38,2203997924
11117,16,Jits_ISO_5,1,5,80,127,2204001632
11117,16,Jits_ISO_5,2,5,63,98,2204032504
11117,16,Jits_ISO_5,3,5,56,103,2204072588
11117,16,Jits_ISO_5,0,1,48,37,2204496832
11117,16,Jits_ISO_5,1,5,56,103,2204521744
11117,16,Jits_ISO_5,2,5,63,98,2204551640
11117,16,Jits_ISO_5,3,5,80,127,2204601824
11117,16,Jits_ISO_5,0,1,48,40,2204990664
11117,16,Jits_ISO_5,1,5,80,127,2205031664
11117,16,Jits_ISO_5,2,5,56,103,2205071604
11117,16,Jits_ISO_5,3,5,63,98,2205081948
11117,16,Jits_ISO_5,0,5,80,127,2205512144
11117,16,Jits_ISO_5,1,1,48,37,2205520516
11117,16,Jits_ISO_5,2,5,63,98,2205552076
11117,16,Jits_ISO_5,3,5,56,103,2205612388
11117,16,Jits_ISO_5,0,5,56,103,2206011668
11117,16,Jits_ISO_5,1,5,80,127,2206022088
11117,16,Jits_ISO_5,2,1,48,35,2206050760
11117,16,Jits_ISO_5,3,5,63,98,2206101796
11117,16,Jits_ISO_5,0,5,80,127,2206511488
11117,16,Jits_ISO_5,1,5,63,98,2206571880
11117,16,Jits_ISO_5,2,1,48,35,2206585112
11117,16,Jits_ISO_5,3,5,56,103,2206601768
11117,16,Jits_ISO_5,0,5,56,103,2207012284
11117,16,Jits_ISO_5,1,1,48,39,2207055708
11117,16,Jits_ISO_5,2,5,80,127,2207071624
11117,16,Jits_ISO_5,3,5,63,98,2207111708
11117,16,Jits_ISO_5,0,5,56,103,2207562084
11117,16,Jits_ISO_5,1,5,63,98,2207572580
11117,16,Jits_ISO_5,2,5,80,127,2207575864
11117,16,Jits_ISO_5,3,1,48,40,2207586704
11117,16,Jits_ISO_5,0,5,80,127,2208011604
11117,16,Jits_ISO_5,1,1,48,41,2208071016
11117,16,Jits_ISO_5,2,5,63,98,2208101828
11117,16,Jits_ISO_5,3,5,56,103,2208112172
11117,16,Jits_ISO_5,0,5,56,103,2208512604
11117,16,Jits_ISO_5,1,5,63,98,2208515632
11117,16,Jits_ISO_5,2,5,80,127,2208518600
11117,16,Jits_ISO_5,3,1,48,31,2208601616
11117,16,Jits_ISO_5,0,5,80,127,2209031528
11117,16,Jits_ISO_5,1,1,48,38,2209080696
11117,16,Jits_ISO_5,2,5,63,98,2209082496
11117,16,Jits_ISO_5,3,5,56,103,2209112540
11117,16,Jits_ISO_5,0,5,56,103,2209511800
11117,16,Jits_ISO_5,1,5,80,127,2209521920
11117,16,Jits_ISO_5,2,1,48,42,2209567460
11117,16,Jits_ISO_5,3,5,63,98,2209591692
11117,16,Jits_ISO_5,0,5,56,103,2210021728
11117,16,Jits_ISO_5,1,5,63,98,2210042336
11117,16,Jits_ISO_5,2,1,48,34,2210060372
11117,16,Jits_ISO_5,3,5,80,127,2210101544
11117,16,Jits_ISO_5,0,5,80,127,2210512112
11117,16,Jits_ISO_5,1,1,48,32,2210561384
11117,16,Jits_ISO_5,2,5,63,98,2210581956
11117,16,Jits_ISO_5,3,5,56,103,2210602340
11117,16,Jits_ISO_5,0,5,80,127,2211032532
11117,16,Jits_ISO_5,1,5,56,103,2211041608
11117,16,Jits_ISO_5,2,5,63,98,2211051876
11117,16,Jits_ISO_5,3,1,48,35,2211077984
11117,16,Jits_ISO_5,0,5,80,127,2211521864
11117,16,Jits_ISO_5,1,5,56,103,2211542324
11117,16,Jits_ISO_5,2,1,48,42,2211543292
11117,16,Jits_ISO_5,3,5,63,98,2211611944
11117,16,Jits_ISO_5,0,1,48,40,2212022928
11117,16,Jits_ISO_5,1,5,56,103,2212031868
11117,16,Jits_ISO_5,2,5,80,127,2212061692
11117,16,Jits_ISO_5,3,5,63,98,2212081928
11117,16,Jits_ISO_5,0,5,63,98,2212531532
11117,16,Jits_ISO_5,1,1,48,40,2212536672
11117,16,Jits_ISO_5,2,5,56,103,2212591840
11117,16,Jits_ISO_5,3,5,80,127,2212621736
11117,16,Jits_ISO_5,0,5,63,98,2213021968
11117,16,Jits_ISO_5,1,5,80,127,2213025488
11117,16,Jits_ISO_5,2,1,48,44,2213051768
11117,16,Jits_ISO_5,3,5,56,103,2213112316
11117,16,Jits_ISO_5,0,5,56,103,2213542448
11117,16,Jits_ISO_5,1,5,63,98,2213571828
11117,16,Jits_ISO_5,2,1,48,32,2213578604
11117,16,Jits_ISO_5,3,5,80,127,2213611976
11117,16,Jits_ISO_5,0,5,63,98,2214041900
11117,16,Jits_ISO_5,1,1,48,44,2214048156
11117,16,Jits_ISO_5,2,5,56,103,2214081828
11117,16,Jits_ISO_5,3,5,80,127,2214102436
11117,16,Jits_ISO_5,0,1,48,25,2214528776
11117,16,Jits_ISO_5,1,5,63,98,2214551888
11117,16,Jits_ISO_5,2,5,56,103,2214591828
11117,16,Jits_ISO_5,3,5,80,127,2214602172
11117,16,Jits_ISO_5,0,5,80,127,2215032372
11117,16,Jits_ISO_5,1,1,48,40,2215036464
11117,16,Jits_ISO_5,2,5,63,98,2215101748
11117,16,Jits_ISO_5,3,5,56,103,2215122428
11117,16,Jits_ISO_5,0,1,48,40,2215510444
11117,16,Jits_ISO_5,1,5,56,103,2215521632
11117,16,Jits_ISO_5,2,5,80,127,2215542016
11117,16,Jits_ISO_5,3,5,63,98,2215582172
11117,16,Jits_ISO_5,0,1,48,43,2216010472
11117,16,Jits_ISO_5,1,5,63,98,2216031696
11117,16,Jits_ISO_5,2,5,80,127,2216051932
11117,16,Jits_ISO_5,3,5,56,103,2216091944
11117,16,Jits_ISO_5,0,1,48,39,2216510056
11117,16,Jits_ISO_5,1,5,63,98,2216541544
11117,16,Jits_ISO_5,2,5,56,103,2216562004
11117,16,Jits_ISO_5,3,5,80,127,2216572496
11117,16,Jits_ISO_5,0,1,48,39,2217028876
11117,16,Jits_ISO_5,1,5,80,127,2217042320
11117,16,Jits_ISO_5,2,5,56,103,2217061736
11117,16,Jits_ISO_5,3,5,63,98,2217091484
11117,16,Jits_ISO_5,0,1,48,48,2217502544
11117,16,Jits_ISO_5,1,5,56,103,2217611636
11117,16,Jits_ISO_5,2,5,80,127,2217614556
11117,16,Jits_ISO_5,3,5,63,98,2217632096
11117,16,Jits_ISO_5,0,5,63,98,2218031452
11117,16,Jits_ISO_5,1,1,48,38,2218044464
11117,16,Jits_ISO_5,2,5,56,103,2218062316
11117,16,Jits_ISO_5,3,5,80,127,2218121656
11117,16,Jits_ISO_5,0,1,48,45,2218496808
11117,16,Jits_ISO_5,1,5,63,98,2218612300
11117,16,Jits_ISO_5,2,5,56,103,2218622420
11117,16,Jits_ISO_5,3,5,80,127,2218631496
11117,16,Jits_ISO_5,0,5,56,103,2219061640
11117,16,Jits_ISO_5,1,1,48,30,2219091908
11117,16,Jits_ISO_5,2,5,80,127,2219093476
11117,16,Jits_ISO_5,3,5,63,98,2219101504
11117,16,Jits_ISO_5,0,1,48,40,2219600852
11117,16,Jits_ISO_5,1,5,63,98,2219602508
11117,16,Jits_ISO_5,2,5,56,103,2219611360
11117,16,Jits_ISO_5,3,5,80,127,2219631968
11117,16,Jits_ISO_5,0,5,56,103,2220032480
11117,16,Jits_ISO_5,1,5,63,98,2220091772
11117,16,Jits_ISO_5,2,5,80,127,2220095060
11117,16,Jits_ISO_5,3,1,48,35,2220110852
11117,16,Jits_ISO_5,0,5,80,127,2220551472
11117,16,Jits_ISO_5,1,1,48,38,2220559924
11117,16,Jits_ISO_5,2,5,56,103,2220561736
11117,16,Jits_ISO_5,3,5,63,98,2220632456
11117,16,Jits_ISO_5,0,5,80,127,2221042052
11117,16,Jits_ISO_5,1,1,48,38,2221066968
11117,16,Jits_ISO_5,2,5,56,103,2221111528
11117,16,Jits_ISO_5,3,5,63,98,2221122020
11117,16,Jits_ISO_5,0,1,48,35,2221578092
11117,16,Jits_ISO_5,1,5,63,98,2221581800
11117,16,Jits_ISO_5,2,5,56,103,2221591872
11117,16,Jits_ISO_5,3,5,80,127,2221612328
11117,16,Jits_ISO_5,0,5,80,127,2222032392
11117,16,Jits_ISO_5,1,5,63,98,2222091512
11117,16,Jits_ISO_5,2,1,48,46,2222104172
11117,16,Jits_ISO_5,3,5,56,103,2222131692
11117,16,Jits_ISO_5,0,1,48,49,2222571780
11117,16,Jits_ISO_5,1,5,56,103,2222573192
11117,16,Jits_ISO_5,2,5,63,98,2222582340
11117,16,Jits_ISO_5,3,5,80,127,2222622004
11117,16,Jits_ISO_5,0,5,56,103,2223031656
11117,16,Jits_ISO_5,1,5,80,127,2223062452
11117,16,Jits_ISO_5,2,1,48,38,2223084676
11117,16,Jits_ISO_5,3,5,63,98,2223111448
11117,16,Jits_ISO_5,0,1,48,43,2223562612
11117,16,Jits_ISO_5,1,5,56,103,2223572376
11117,16,Jits_ISO_5,2,5,63,98,2223612236
11117,16,Jits_ISO_5,3,5,80,127,2223615824
11117,16,Jits_ISO_5,0,1,48,38,2224051852
11117,16,Jits_ISO_5,1,5,56,103,2224082220
11117,16,Jits_ISO_5,2,5,63,98,2224091444
11117,16,Jits_ISO_5,3,5,80,127,2224111976
11117,16,Jits_ISO_5,0,5,56,103,2224542320
11117,16,Jits_ISO_5,1,5,80,127,2224545088
11117,16,Jits_ISO_5,2,1,48,41,2224554136
11117,16,Jits_ISO_5,3,5,63,98,2224581876
11117,16,Jits_ISO_5,0,1,48,29,2225050272
11117,16,Jits_ISO_5,1,5,63,98,2225081760
11117,16,Jits_ISO_5,2,5,56,103,2225112332
11117,16,Jits_ISO_5,3,5,80,127,2225131964
11117,16,Jits_ISO_5,0,5,80,127,2225551832
11117,16,Jits_ISO_5,1,5,56,103,2225562028
11117,16,Jits_ISO_5,2,5,63,98,2225572148
11117,16,Jits_ISO_5,3,1,48,32,2225573484
11117,16,Jits_ISO_5,0,5,56,103,2226051428
11117,16,Jits_ISO_5,1,1,48,45,2226074472
11117,16,Jits_ISO_5,2,5,80,127,2226092408
11117,16,Jits_ISO_5,3,5,63,98,2226122228
11117,16,Jits_ISO_5,0,1,48,35,2226544924
11117,16,Jits_ISO_5,1,5,63,98,2226562408
11117,16,Jits_ISO_5,2,5,80,127,2226571780
11117,16,Jits_ISO_5,3,5,56,103,2226581824
11117,16,Jits_ISO_5,0,5,56,103,2227041544
11117,16,Jits_ISO_5,1,1,48,38,2227071484
11117,16,Jits_ISO_5,2,5,63,98,2227112488
11117,16,Jits_ISO_5,3,5,80,127,2227121560
11117,16,Jits_ISO_5,0,5,80,127,2227542416
11117,16,Jits_ISO_5,1,1,48,38,2227546656
11117,16,Jits_ISO_5,2,5,56,103,2227551484
11117,16,Jits_ISO_5,3,5,63,98,2227601904
11117,16,Jits_ISO_5,0,1,48,38,2228047660
11117,16,Jits_ISO_5,1,5,80,127,2228061560
11117,16,Jits_ISO_5,2,5,56,103,2228122096
11117,16,Jits_ISO_5,3,5,63,98,2228151608
11117,16,Jits_ISO_5,0,5,56,103,2228562272
11117,16,Jits_ISO_5,1,5,80,127,2228565340
11117,16,Jits_ISO_5,2,1,48,40,2228579484
11117,16,Jits_ISO_5,3,5,63,98,2228602348
11117,16,Jits_ISO_5,0,1,48,42,2229037324
11117,16,Jits_ISO_5,1,5,56,103,2229091744
11117,16,Jits_ISO_5,2,5,63,98,2229122396
11117,16,Jits_ISO_5,3,5,80,127,2229131692
11117,16,Jits_ISO_5,0,1,48,43,2229567172
11117,16,Jits_ISO_5,1,5,63,98,2229601596
11117,16,Jits_ISO_5,2,5,80,127,2229611792
11117,16,Jits_ISO_5,3,5,56,103,2229622212
11117,16,Jits_ISO_5,0,5,80,127,2230052412
11117,16,Jits_ISO_5,1,5,56,103,2230102316
11117,16,Jits_ISO_5,2,5,63,98,2230105380
11117,16,Jits_ISO_5,3,1,48,27,2230106348
11117,16,Jits_ISO_5,0,5,56,103,2230581596
11117,16,Jits_ISO_5,1,5,80,127,2230602352
11117,16,Jits_ISO_5,2,1,48,18,2230608540
11117,16,Jits_ISO_5,3,5,63,98,2230612320
11117,16,Jits_ISO_5,0,5,63,98,2231062012
11117,16,Jits_ISO_5,1,1,48,29,2231064100
11117,16,Jits_ISO_5,2,5,56,103,2231091456
11117,16,Jits_ISO_5,3,5,80,127,2231112212
11117,16,Jits_ISO_5,0,5,56,103,2231571712
11117,16,Jits_ISO_5,1,5,80,127,2231582276
11117,16,Jits_ISO_5,2,1,48,40,2231585324
11117,16,Jits_ISO_5,3,5,63,98,2231651648
11117,16,Jits_ISO_5,0,1,48,38,2232033340
11117,16,Jits_ISO_5,1,5,63,98,2232062360
11117,16,Jits_ISO_5,2,5,80,127,2232102320
11117,16,Jits_ISO_5,3,5,56,103,2232142244
11117,16,Jits_ISO_5,0,1,48,40,2232549788
11117,16,Jits_ISO_5,1,5,56,103,2232572280
11117,16,Jits_ISO_5,2,5,63,98,2232581432
11117,16,Jits_ISO_5,3,5,80,127,2232602136
11117,16,Jits_ISO_5,0,1,48,43,2233088832
11117,16,Jits_ISO_5,1,5,63,98,2233112192
11117,16,Jits_ISO_5,2,5,80,127,2233132352
11117,16,Jits_ISO_5,3,5,56,103,2233152060
11117,16,Jits_ISO_5,0,5,56,103,2233552348
11117,16,Jits_ISO_5,1,1,48,46,2233594952
11117,16,Jits_ISO_5,2,5,80,127,2233632236
11117,16,Jits_ISO_5,3,5,63,98,2233642432
11117,16,Jits_ISO_5,0,1,48,41,2234069584
11117,16,Jits_ISO_5,1,5,80,127,2234091876
11117,16,Jits_ISO_5,2,5,63,98,2234102368
11117,16,Jits_ISO_5,3,5,56,103,2234131992
11117,16,Jits_ISO_5,0,5,63,98,2234551536
11117,16,Jits_ISO_5,1,5,80,127,2234591548
11117,16,Jits_ISO_5,2,1,48,41,2234607396
11117,16,Jits_ISO_5,3,5,56,103,2234652100
11117,16,Jits_ISO_5,0,1,48,44,2235047108
11117,16,Jits_ISO_5,1,5,63,98,2235061600
11117,16,Jits_ISO_5,2,5,56,103,2235111876
11117,16,Jits_ISO_5,3,5,80,127,2235141460
11117,16,Jits_ISO_5,0,1,48,45,2235563408
11117,16,Jits_ISO_5,1,5,80,127,2235582012
11117,16,Jits_ISO_5,2,5,63,98,2235592060
11117,16,Jits_ISO_5,3,5,56,103,2235662396
11117,16,Jits_ISO_5,0,1,48,42,2236078268
11117,16,Jits_ISO_5,1,5,80,127,2236152172
11117,16,Jits_ISO_5,2,5,56,103,2236162284
11117,16,Jits_ISO_5,3,5,63,98,2236165508
11117,16,Jits_ISO_5,0,5,56,103,2236591452
11117,16,Jits_ISO_5,1,5,80,127,2236612132
11117,16,Jits_ISO_5,2,1,48,35,2236618916
11117,16,Jits_ISO_5,3,5,63,98,2236622320
11117,16,Jits_ISO_5,0,1,48,39,2237091540
11117,16,Jits_ISO_5,1,5,63,98,2237101380
11117,16,Jits_ISO_5,2,5,56,103,2237142516
11117,16,Jits_ISO_5,3,5,80,127,2237161776
11117,16,Jits_ISO_5,0,1,48,42,2237572180
11117,16,Jits_ISO_5,1,5,63,98,2237602168
11117,16,Jits_ISO_5,2,5,56,103,2237661580
11117,16,Jits_ISO_5,3,5,80,127,2237664572
11117,16,Jits_ISO_5,0,5,56,103,2238062192
11117,16,Jits_ISO_5,1,5,80,127,2238082352
11117,16,Jits_ISO_5,2,1,48,33,2238098424
11117,16,Jits_ISO_5,3,5,63,98,2238122280
11117,16,Jits_ISO_5,0,1,48,39,2238563928
11117,16,Jits_ISO_5,1,5,56,103,2238592348
11117,16,Jits_ISO_5,2,5,63,98,2238611760
11117,16,Jits_ISO_5,3,5,80,127,2238622328
11117,16,Jits_ISO_5,0,5,80,127,2239062496
11117,16,Jits_ISO_5,1,1,48,41,2239070940
11117,16,Jits_ISO_5,2,5,56,103,2239092164
11117,16,Jits_ISO_5,3,5,63,98,2239132324
11117,16,Jits_ISO_5,0,5,80,127,2239581576
11117,16,Jits_ISO_5,1,5,56,103,2239602108
11117,16,Jits_ISO_5,2,1,48,47,2239623588
11117,16,Jits_ISO_5,3,5,63,98,2239661368
11117,16,Jits_ISO_5,0,5,56,103,2240091440
11117,16,Jits_ISO_5,1,5,80,127,2240112272
11117,16,Jits_ISO_5,2,1,48,39,2240146180
11117,16,Jits_ISO_5,3,5,63,98,2240172280
11117,16,Jits_ISO_5,0,5,80,127,2240571636
11117,16,Jits_ISO_5,1,5,56,103,2240582200
11117,16,Jits_ISO_5,2,5,63,98,2240622212
11117,16,Jits_ISO_5,3,1,48,31,2240642120
11117,16,Jits_ISO_5,0,5,63,98,2241071380
11117,16,Jits_ISO_5,1,5,56,103,2241112436
11117,16,Jits_ISO_5,2,1,48,40,2241114548
11117,16,Jits_ISO_5,3,5,80,127,2241116692
11117,16,Jits_ISO_5,0,1,48,42,2241557052
11117,16,Jits_ISO_5,1,5,63,98,2241591548
11117,16,Jits_ISO_5,2,5,80,127,2241631560
11117,16,Jits_ISO_5,3,5,56,103,2241662340
11117,16,Jits_ISO_5,0,1,48,45,2242058632
11117,16,Jits_ISO_5,1,5,56,103,2242082140
11117,16,Jits_ISO_5,2,5,63,98,2242092260
11117,16,Jits_ISO_5,3,5,80,127,2242122232
11117,16,Jits_ISO_5,0,1,48,46,2242543456
11117,16,Jits_ISO_5,1,5,80,127,2242571656
11117,16,Jits_ISO_5,2,5,63,98,2242642244
11117,16,Jits_ISO_5,3,5,56,103,2242651612
11117,16,Jits_ISO_5,0,5,63,98,2243072368
11117,16,Jits_ISO_5,1,1,48,39,2243081340
11117,16,Jits_ISO_5,2,5,56,103,2243141992
11117,16,Jits_ISO_5,3,5,80,127,2243152184
11117,16,Jits_ISO_5,0,5,63,98,2243572172
11117,16,Jits_ISO_5,1,1,48,39,2243578208
11117,16,Jits_ISO_5,2,5,56,103,2243591504
11117,16,Jits_ISO_5,3,5,80,127,2243631388
11117,16,Jits_ISO_5,0,1,48,36,2244048780
11117,16,Jits_ISO_5,1,5,56,103,2244082160
11117,16,Jits_ISO_5,2,5,63,98,2244092132
11117,16,Jits_ISO_5,3,5,80,127,2244172156
11117,16,Jits_ISO_5,0,1,48,42,2244553020
11117,16,Jits_ISO_5,1,5,63,98,2244571552
11117,16,Jits_ISO_5,2,5,56,103,2244602124
11117,16,Jits_ISO_5,3,5,80,127,2244642084
11117,16,Jits_ISO_5,0,1,48,41,2245054700
11117,16,Jits_ISO_5,1,5,56,103,2245072256
11117,16,Jits_ISO_5,2,5,63,98,2245112120
11117,16,Jits_ISO_5,3,5,80,127,2245153260
11117,16,Jits_ISO_5,0,5,80,127,2245572144
11117,16,Jits_ISO_5,1,1,48,17,2245604332
11117,16,Jits_ISO_5,2,5,56,103,2245651956
11117,16,Jits_ISO_5,3,5,63,98,2245662228
11117,16,Jits_ISO_5,0,5,56,103,2246111528
11117,16,Jits_ISO_5,1,5,63,98,2246114520
11117,16,Jits_ISO_5,2,1,48,46,2246117260
11117,16,Jits_ISO_5,3,5,80,127,2246122088
11117,16,Jits_ISO_5,0,1,48,40,2246628608
11117,16,Jits_ISO_5,1,5,56,103,2246632088
11117,16,Jits_ISO_5,2,5,63,98,2246652396
11117,16,Jits_ISO_5,3,5,80,127,2246661472
11117,16,Jits_ISO_5,0,5,63,98,2247101936
11117,16,Jits_ISO_5,1,5,80,127,2247112132
11117,16,Jits_ISO_5,2,5,56,103,2247131396
11117,16,Jits_ISO_5,3,1,48,57,2247157132
11117,16,Jits_ISO_5,0,5,63,98,2247601596
11117,16,Jits_ISO_5,1,1,48,26,2247629128
11117,16,Jits_ISO_5,2,5,56,103,2247682352
11117,16,Jits_ISO_5,3,5,80,127,2247685420
11117,16,Jits_ISO_5,0,5,63,98,2248102148
11117,16,Jits_ISO_5,1,1,48,34,2248103116
11117,16,Jits_ISO_5,2,5,56,103,2248121628
11117,16,Jits_ISO_5,3,5,80,127,2248152348
11117,16,Jits_ISO_5,0,1,48,43,2248567980
11117,16,Jits_ISO_5,1,5,56,103,2248601948
11117,16,Jits_ISO_5,2,5,63,98,2248621360
11117,16,Jits_ISO_5,3,5,80,127,2248631708
11117,16,Jits_ISO_5,0,1,48,42,2249085844
11117,16,Jits_ISO_5,1,5,56,103,2249132400
11117,16,Jits_ISO_5,2,5,63,98,2249162072
11117,16,Jits_ISO_5,3,5,80,127,2249165360
11117,16,Jits_ISO_5,0,5,56,103,2249582384
11117,16,Jits_ISO_5,1,5,63,98,2249622096
11117,16,Jits_ISO_5,2,1,48,32,2249640136
11117,16,Jits_ISO_5,3,5,80,127,2249682256
11117,16,Jits_ISO_5,0,5,56,103,2250101992
11117,16,Jits_ISO_5,1,5,63,98,2250112260
11117,16,Jits_ISO_5,2,1,48,39,2250115752
11117,16,Jits_ISO_5,3,5,80,127,2250171892
11117,16,Jits_ISO_5,0,1,48,37,2250601060
11117,16,Jits_ISO_5,1,5,56,103,2250602400
11117,16,Jits_ISO_5,2,5,80,127,2250622192
11117,16,Jits_ISO_5,3,5,63,98,2250652012
11117,16,Jits_ISO_5,0,1,48,45,2251073568
11117,16,Jits_ISO_5,1,5,80,127,2251111876
11117,16,Jits_ISO_5,2,5,56,103,2251122000
11117,16,Jits_ISO_5,3,5,63,98,2251141560
11117,16,Jits_ISO_5,0,1,48,45,2251584016
11117,16,Jits_ISO_5,1,5,63,98,2251602244
11117,16,Jits_ISO_5,2,5,80,127,2251682100
11117,16,Jits_ISO_5,3,5,56,103,2251692444
11117,16,Jits_ISO_5,0,1,48,29,2252109512
11117,16,Jits_ISO_5,1,5,80,127,2252162368
11117,16,Jits_ISO_5,2,5,56,103,2252182000
11117,16,Jits_ISO_5,3,5,63,98,2252184992
11117,16,Jits_ISO_5,0,5,63,98,2252632360
11117,16,Jits_ISO_5,1,1,48,47,2252633564
11117,16,Jits_ISO_5,2,5,80,127,2252636836
11117,16,Jits_ISO_5,3,5,56,103,2252691988
11117,16,Jits_ISO_5,0,5,56,103,2253111708
11117,16,Jits_ISO_5,1,5,80,127,2253121980
11117,16,Jits_ISO_5,2,1,48,48,2253140388
11117,16,Jits_ISO_5,3,5,63,98,2253161984
11117,16,Jits_ISO_5,0,5,56,103,2253592052
11117,16,Jits_ISO_5,1,1,48,47,2253624088
11117,16,Jits_ISO_5,2,5,63,98,2253652284
11117,16,Jits_ISO_5,3,5,80,127,2253661656
11117,16,Jits_ISO_5,0,5,63,98,2254101988
11117,16,Jits_ISO_5,1,1,48,43,2254116488
11117,16,Jits_ISO_5,2,5,80,127,2254142068
11117,16,Jits_ISO_5,3,5,56,103,2254181852
11117,16,Jits_ISO_5,0,5,56,103,2254601620
11117,16,Jits_ISO_5,1,1,48,51,2254622148
11117,16,Jits_ISO_5,2,5,63,98,2254681432
11117,16,Jits_ISO_5,3,5,80,127,2254684796
11117,16,Jits_ISO_5,0,9999,9999,9999,2195299432
11117,16,Jits_ISO_5,1,9999,9999,9999,2195799152
11117,16,Jits_ISO_5,2,9999,9999,9999,2196299868
11117,16,Jits_ISO_5,3,9999,9999,9999,2196799600
11117,16,Jits_ISO_5,4,9999,9999,9999,2197299312
11117,16,Jits_ISO_5,5,9999,9999,9999,2197800020
11117,16,Jits_ISO_5,6,9999,9999,9999,2198299752
11117,16,Jits_ISO_5,7,9999,9999,9999,2198799476
11117,16,Jits_ISO_5,8,9999,9999,9999,2199299144
11117,16,Jits_ISO_5,9,9999,9999,9999,2199799864
11117,16,Jits_ISO_5,10,9999,9999,9999,2200299616
11117,16,Jits_ISO_5,11,9999,9999,9999,2200799352
11117,16,Jits_ISO_5,12,9999,9999,9999,2201300052
11117,16,Jits_ISO_5,13,9999,9999,9999,2201799784
11117,16,Jits_ISO_5,14,9999,9999,9999,2202299444
11117,16,Jits_ISO_5,15,9999,9999,9999,2202799192
11117,16,Jits_ISO_5,16,9999,9999,9999,2203299912
11117,16,Jits_ISO_5,17,9999,9999,9999,2203799640
11117,16,Jits_ISO_5,18,9999,9999,9999,2204299316
11117,16,Jits_ISO_5,19,9999,9999,9999,2204800096
11117,16,Jits_ISO_5,20,9999,9999,9999,2205310016
11117,16,Jits_ISO_5,21,9999,9999,9999,2205809748
11117,16,Jits_ISO_5,22,9999,9999,9999,2206309492
11117,16,Jits_ISO_5,23,9999,9999,9999,2206809168
11117,16,Jits_ISO_5,24,9999,9999,9999,2207309892
11117,16,Jits_ISO_5,25,9999,9999,9999,2207809628
11117,16,Jits_ISO_5,26,9999,9999,9999,2208309308
11117,16,Jits_ISO_5,27,9999,9999,9999,2208810076
11117,16,Jits_ISO_5,28,9999,9999,9999,2209309752
11117,16,Jits_ISO_5,29,9999,9999,9999,2209809476
11117,16,Jits_ISO_5,30,9999,9999,9999,2210309216
11117,16,Jits_ISO_5,31,9999,9999,9999,2210809936
11117,16,Jits_ISO_5,32,9999,9999,9999,2211309680
11117,16,Jits_ISO_5,33,9999,9999,9999,2211809352
11117,16,Jits_ISO_5,34,9999,9999,9999,2212310072
11117,16,Jits_ISO_5,35,9999,9999,9999,2212820068
11117,16,Jits_ISO_5,36,9999,9999,9999,2213319792
11117,16,Jits_ISO_5,37,9999,9999,9999,2213819452
11117,16,Jits_ISO_5,38,9999,9999,9999,2214319200
11117,16,Jits_ISO_5,39,9999,9999,9999,2214819908
11117,16,Jits_ISO_5,40,9999,9999,9999,2215319640
11117,16,Jits_ISO_5,41,9999,9999,9999,2215819384
11117,16,Jits_ISO_5,42,9999,9999,9999,2216320088
11117,16,Jits_ISO_5,43,9999,9999,9999,2216830008
11117,16,Jits_ISO_5,44,9999,9999,9999,2217329744
11117,16,Jits_ISO_5,45,9999,9999,9999,2217829472
11117,16,Jits_ISO_5,46,9999,9999,9999,2218329204
11117,16,Jits_ISO_5,47,9999,9999,9999,2218829916
11117,16,Jits_ISO_5,48,9999,9999,9999,2219329648
11117,16,Jits_ISO_5,49,9999,9999,9999,2219829328
11117,16,Jits_ISO_5,50,9999,9999,9999,2220330096
11117,16,Jits_ISO_5,51,9999,9999,9999,2220829816
11117,16,Jits_ISO_5,52,9999,9999,9999,2221329472
11117,16,Jits_ISO_5,53,9999,9999,9999,2221829216
11117,16,Jits_ISO_5,54,9999,9999,9999,2222329924
11117,16,Jits_ISO_5,55,9999,9999,9999,2222829676
11117,16,Jits_ISO_5,56,9999,9999,9999,2223329332
11117,16,Jits_ISO_5,57,9999,9999,9999,2223830120
11117,16,Jits_ISO_5,58,9999,9999,9999,2224340044
11117,16,Jits_ISO_5,59,9999,9999,9999,2224839764
11117,16,Jits_ISO_5,60,9999,9999,9999,2225339516
11117,16,Jits_ISO_5,61,9999,9999,9999,2225839168
11117,16,Jits_ISO_5,62,9999,9999,9999,2226339964
11117,16,Jits_ISO_5,63,9999,9999,9999,2226839636
11117,16,Jits_ISO_5,64,9999,9999,9999,2227339372
11117,16,Jits_ISO_5,65,9999,9999,9999,2227840088
11117,16,Jits_ISO_5,66,9999,9999,9999,2228350028
11117,16,Jits_ISO_5,67,9999,9999,9999,2228849752
11117,16,Jits_ISO_5,68,9999,9999,9999,2229349428
11117,16,Jits_ISO_5,69,9999,9999,9999,2229849164
11117,16,Jits_ISO_5,70,9999,9999,9999,2230349932
11117,16,Jits_ISO_5,71,9999,9999,9999,2230849604
11117,16,Jits_ISO_5,72,9999,9999,9999,2231349352
11117,16,Jits_ISO_5,73,9999,9999,9999,2231850056
11117,16,Jits_ISO_5,74,9999,9999,9999,2232349804
11117,16,Jits_ISO_5,75,9999,9999,9999,2232849512
11117,16,Jits_ISO_5,76,9999,9999,9999,2233349172
11117,16,Jits_ISO_5,77,9999,9999,9999,2233849956
11117,16,Jits_ISO_5,78,9999,9999,9999,2234349628
11117,16,Jits_ISO_5,79,9999,9999,9999,2234849364
11117,16,Jits_ISO_5,80,9999,9999,9999,2235350072
11117,16,Jits_ISO_5,81,9999,9999,9999,2235860068
11117,16,Jits_ISO_5,82,9999,9999,9999,2236359800
11117,16,Jits_ISO_5,83,9999,9999,9999,2236859460
11117,16,Jits_ISO_5,84,9999,9999,9999,2237359212
11117,16,Jits_ISO_5,85,9999,9999,9999,2237859916
11117,16,Jits_ISO_5,86,9999,9999,9999,2238359644
11117,16,Jits_ISO_5,87,9999,9999,9999,2238859320
11117,16,Jits_ISO_5,88,9999,9999,9999,2239360100
11117,16,Jits_ISO_5,89,9999,9999,9999,2239870036
11117,16,Jits_ISO_5,90,9999,9999,9999,2240369716
11117,16,Jits_ISO_5,91,9999,9999,9999,2240869460
11117,16,Jits_ISO_5,92,9999,9999,9999,2241369196
11117,16,Jits_ISO_5,93,9999,9999,9999,2241869904
11117,16,Jits_ISO_5,94,9999,9999,9999,2242369632
11117,16,Jits_ISO_5,95,9999,9999,9999,2242869364
11117,16,Jits_ISO_5,96,9999,9999,9999,2243370072
11117,16,Jits_ISO_5,97,9999,9999,9999,2243869796
11117,16,Jits_ISO_5,98,9999,9999,9999,2244369504
11117,16,Jits_ISO_5,99,9999,9999,9999,2244869236
11117,16,Jits_ISO_5,100,9999,9999,9999,2245369940
11117,16,Jits_ISO_5,101,9999,9999,9999,2245869676
11117,16,Jits_ISO_5,102,9999,9999,9999,2246369340
11117,16,Jits_ISO_5,103,9999,9999,9999,2246870140
11117,16,Jits_ISO_5,104,9999,9999,9999,2247380060
11117,16,Jits_ISO_5,105,9999,9999,9999,2247879788
11117,16,Jits_ISO_5,106,9999,9999,9999,2248379448
11117,16,Jits_ISO_5,107,9999,9999,9999,2248879184
11117,16,Jits_ISO_5,108,9999,9999,9999,2249379956
11117,16,Jits_ISO_5,109,9999,9999,9999,2249879616
11117,16,Jits_ISO_5,110,9999,9999,9999,2250379364
11117,16,Jits_ISO_5,111,9999,9999,9999,2250880084
11117,16,Jits_ISO_5,112,9999,9999,9999,2251390008
11117,16,Jits_ISO_5,113,9999,9999,9999,2251889744
11117,16,Jits_ISO_5,114,9999,9999,9999,2252389472
11117,16,Jits_ISO_5,115,9999,9999,9999,2252889200
11117,16,Jits_ISO_5,116,9999,9999,9999,2253389908
11117,16,Jits_ISO_5,117,9999,9999,9999,2253889652
11117,16,Jits_ISO_5,118,9999,9999,9999,2254389328
11117,16,Jits_ISO_5,119,9999,9999,9999,2254890100
11118,15,Jits_Phase_8,0,5,56,103,2263885120
11118,15,Jits_Phase_8,1,5,63,98,2263888368
11118,15,Jits_Phase_8,2,5,80,127,2263891560
11118,15,Jits_Phase_8,0,5,56,103,2264684836
11118,15,Jits_Phase_8,1,5,63,98,2264688084
11118,15,Jits_Phase_8,2,5,80,127,2264691128
11118,15,Jits_Phase_8,0,5,80,127,2265425304
11118,15,Jits_Phase_8,1,1,48,42,2265471644
11118,15,Jits_Phase_8,2,5,63,98,2265515284
11118,15,Jits_Phase_8,3,5,56,103,2265524728
11118,15,Jits_Phase_8,0,1,48,43,2266232748
11118,15,Jits_Phase_8,1,5,56,103,2266244776
11118,15,Jits_Phase_8,2,5,63,98,2266254820
11118,15,Jits_Phase_8,3,5,80,127,2266344788
11118,15,Jits_Phase_8,0,5,63,98,2267014720
11118,15,Jits_Phase_8,1,1,48,44,2267020460
11118,15,Jits_Phase_8,2,5,80,127,2267045216
11118,15,Jits_Phase_8,3,5,56,103,2267074964
11118,15,Jits_Phase_8,0,1,48,38,2267783504
11118,15,Jits_Phase_8,1,5,56,103,2267815288
11118,15,Jits_Phase_8,2,5,80,127,2267914700
11118,15,Jits_Phase_8,3,5,63,98,2267964704
11118,15,Jits_Phase_8,0,5,56,103,2268615132
11118,15,Jits_Phase_8,1,1,48,45,2268650012
11118,15,Jits_Phase_8,2,5,80,127,2268665328
11118,15,Jits_Phase_8,3,5,63,98,2268705140
11118,15,Jits_Phase_8,0,1,48,46,2269418836
11118,15,Jits_Phase_8,1,5,80,127,2269444492
11118,15,Jits_Phase_8,2,5,63,98,2269475236
11118,15,Jits_Phase_8,3,5,56,103,2269544752
11118,15,Jits_Phase_8,0,1,48,47,2270217472
11118,15,Jits_Phase_8,1,5,63,98,2270274916
11118,15,Jits_Phase_8,2,5,56,103,2270304888
11118,15,Jits_Phase_8,3,5,80,127,2270364892
11118,15,Jits_Phase_8,0,1,48,50,2271008868
11118,15,Jits_Phase_8,1,5,56,103,2271015412
11118,15,Jits_Phase_8,2,5,80,127,2271018624
11118,15,Jits_Phase_8,3,5,63,98,2271134968
11118,15,Jits_Phase_8,0,1,48,57,2271847648
11118,15,Jits_Phase_8,1,5,56,103,2271894876
11118,15,Jits_Phase_8,2,5,80,127,2271934816
11118,15,Jits_Phase_8,3,5,63,98,2271944996
11118,15,Jits_Phase_8,0,1,48,48,2272644572
11118,15,Jits_Phase_8,1,5,56,103,2272654560
11118,15,Jits_Phase_8,2,5,80,127,2272675316
11118,15,Jits_Phase_8,3,5,63,98,2272755024
11118,15,Jits_Phase_8,0,5,80,127,2273445188
11118,15,Jits_Phase_8,1,1,48,53,2273475956
11118,15,Jits_Phase_8,2,5,56,103,2273544604
11118,15,Jits_Phase_8,3,5,63,98,2273554752
11118,15,Jits_Phase_8,0,5,63,98,2274215588
11118,15,Jits_Phase_8,1,5,80,127,2274274640
11118,15,Jits_Phase_8,2,5,56,103,2274284908
11118,15,Jits_Phase_8,3,1,48,54,2274326560
11118,15,Jits_Phase_8,0,5,56,103,2275014900
11118,15,Jits_Phase_8,1,1,48,48,2275066788
11118,15,Jits_Phase_8,2,5,63,98,2275084724
11118,15,Jits_Phase_8,3,5,80,127,2275088232
11118,15,Jits_Phase_8,0,5,63,98,2275844556
11118,15,Jits_Phase_8,1,1,48,49,2275867476
11118,15,Jits_Phase_8,2,5,56,103,2275894628
11118,15,Jits_Phase_8,3,5,80,127,2275897840
11118,15,Jits_Phase_8,0,5,56,103,2276605268
11118,15,Jits_Phase_8,1,5,80,127,2276608332
11118,15,Jits_Phase_8,2,1,48,50,2276648116
11118,15,Jits_Phase_8,3,5,63,98,2276695488
11118,15,Jits_Phase_8,0,1,48,45,2277412952
11118,15,Jits_Phase_8,1,5,63,98,2277444904
11118,15,Jits_Phase_8,2,5,56,103,2277535100
11118,15,Jits_Phase_8,3,5,80,127,2277564772
11118,15,Jits_Phase_8,0,5,56,103,2278234560
11118,15,Jits_Phase_8,1,1,48,47,2278241940
11118,15,Jits_Phase_8,2,5,63,98,2278334804
11118,15,Jits_Phase_8,3,5,80,127,2278364688
11118,15,Jits_Phase_8,0,5,63,98,2279054568
11118,15,Jits_Phase_8,1,5,56,103,2279064988
11118,15,Jits_Phase_8,2,1,48,46,2279067736
11118,15,Jits_Phase_8,3,5,80,127,2279155036
11118,15,Jits_Phase_8,0,5,63,98,2279874780
11118,15,Jits_Phase_8,1,1,48,43,2279905772
11118,15,Jits_Phase_8,2,5,56,103,2279954744
11118,15,Jits_Phase_8,3,5,80,127,2279957880
11118,15,Jits_Phase_8,0,5,80,127,2280634676
11118,15,Jits_Phase_8,1,5,63,98,2280655580
11118,15,Jits_Phase_8,2,5,56,103,2280714700
11118,15,Jits_Phase_8,3,1,48,53,2280720360
11118,15,Jits_Phase_8,0,1,48,51,2281447800
11118,15,Jits_Phase_8,1,5,56,103,2281474576
11118,15,Jits_Phase_8,2,5,63,98,2281494836
11118,15,Jits_Phase_8,3,5,80,127,2281498200
11118,15,Jits_Phase_8,0,1,48,51,2282204100
11118,15,Jits_Phase_8,1,5,63,98,2282214764
11118,15,Jits_Phase_8,2,5,80,127,2282295468
11118,15,Jits_Phase_8,3,5,56,103,2282304764
11118,15,Jits_Phase_8,0,5,63,98,2283034932
11118,15,Jits_Phase_8,1,5,56,103,2283054492
11118,15,Jits_Phase_8,2,1,48,40,2283063464
11118,15,Jits_Phase_8,3,5,80,127,2283104612
11118,15,Jits_Phase_8,0,1,48,40,2283828804
11118,15,Jits_Phase_8,1,5,80,127,2283834680
11118,15,Jits_Phase_8,2,5,63,98,2283874620
11118,15,Jits_Phase_8,3,5,56,103,2283895004
11118,15,Jits_Phase_8,0,1,48,47,2284606012
11118,15,Jits_Phase_8,1,5,56,103,2284674520
11118,15,Jits_Phase_8,2,5,63,98,2284684640
11118,15,Jits_Phase_8,3,5,80,127,2284705160
11118,15,Jits_Phase_8,0,1,48,47,2285327528
11118,15,Jits_Phase_8,1,5,56,103,2285404452
11118,15,Jits_Phase_8,2,5,63,98,2285494496
11118,15,Jits_Phase_8,3,5,80,127,2285555036
11118,15,Jits_Phase_8,0,1,48,43,2286214304
11118,15,Jits_Phase_8,1,5,80,127,2286234928
11118,15,Jits_Phase_8,2,5,56,103,2286245348
11118,15,Jits_Phase_8,3,5,63,98,2286314788
11118,15,Jits_Phase_8,0,1,48,57,2287036756
11118,15,Jits_Phase_8,1,5,63,98,2287064504
11118,15,Jits_Phase_8,2,5,80,127,2287154648
11118,15,Jits_Phase_8,3,5,56,103,2287164768
11118,15,Jits_Phase_8,0,5,63,98,2287794524
11118,15,Jits_Phase_8,1,5,80,127,2287844728
11118,15,Jits_Phase_8,2,5,56,103,2287905068
11118,15,Jits_Phase_8,3,1,48,50,2287913732
11118,15,Jits_Phase_8,0,5,56,103,2288614664
11118,15,Jits_Phase_8,1,1,48,49,2288643188
11118,15,Jits_Phase_8,2,5,80,127,2288664884
11118,15,Jits_Phase_8,3,5,63,98,2288685640
11118,15,Jits_Phase_8,0,1,48,57,2289338500
11118,15,Jits_Phase_8,1,5,56,103,2289384756
11118,15,Jits_Phase_8,2,5,80,127,2289445384
11118,15,Jits_Phase_8,3,5,63,98,2289514912
11118,15,Jits_Phase_8,0,1,48,43,2290141252
11118,15,Jits_Phase_8,1,5,56,103,2290184516
11118,15,Jits_Phase_8,2,5,80,127,2290215408
11118,15,Jits_Phase_8,3,5,63,98,2290244920
11118,15,Jits_Phase_8,0,1,48,48,2291010404
11118,15,Jits_Phase_8,1,5,56,103,2291025348
11118,15,Jits_Phase_8,2,5,80,127,2291044760
11118,15,Jits_Phase_8,3,5,63,98,2291105208
11118,15,Jits_Phase_8,0,1,48,53,2291814212
11118,15,Jits_Phase_8,1,5,80,127,2291904892
11118,15,Jits_Phase_8,2,5,56,103,2291915224
11118,15,Jits_Phase_8,3,5,63,98,2291925868
11118,15,Jits_Phase_8,0,1,48,57,2292645372
11118,15,Jits_Phase_8,1,5,56,103,2292664652
11118,15,Jits_Phase_8,2,5,80,127,2292704592
11118,15,Jits_Phase_8,3,5,63,98,2292735536
11118,15,Jits_Phase_8,0,5,56,103,2293434680
11118,15,Jits_Phase_8,1,5,63,98,2293464580
11118,15,Jits_Phase_8,2,1,48,56,2293481704
11118,15,Jits_Phase_8,3,5,80,127,2293505484
11118,15,Jits_Phase_8,0,5,80,127,2294185528
11118,15,Jits_Phase_8,1,5,63,98,2294234612
11118,15,Jits_Phase_8,2,5,56,103,2294254996
11118,15,Jits_Phase_8,3,1,48,45,2294296796
11118,15,Jits_Phase_8,0,5,56,103,2295014892
11118,15,Jits_Phase_8,1,1,48,50,2295024160
11118,15,Jits_Phase_8,2,5,80,127,2295085340
11118,15,Jits_Phase_8,3,5,63,98,2295144668
11118,15,Jits_Phase_8,0,5,80,127,2295814444
11118,15,Jits_Phase_8,1,1,48,48,2295817108
11118,15,Jits_Phase_8,2,5,63,98,2295904596
11118,15,Jits_Phase_8,3,5,56,103,2295925040
11118,15,Jits_Phase_8,0,5,63,98,2296634844
11118,15,Jits_Phase_8,1,5,56,103,2296655156
11118,15,Jits_Phase_8,2,1,48,45,2296687940
11118,15,Jits_Phase_8,3,5,80,127,2296695384
11118,15,Jits_Phase_8,0,5,80,127,2297394520
11118,15,Jits_Phase_8,1,5,63,98,2297415132
11118,15,Jits_Phase_8,2,1,48,43,2297483880
11118,15,Jits_Phase_8,3,5,56,103,2297494916
11118,15,Jits_Phase_8,0,5,63,98,2298185068
11118,15,Jits_Phase_8,1,1,48,51,2298216060
11118,15,Jits_Phase_8,2,5,56,103,2298294748
11118,15,Jits_Phase_8,3,5,80,127,2298297664
11118,15,Jits_Phase_8,0,5,63,98,2299005492
11118,15,Jits_Phase_8,1,5,56,103,2299014412
11118,15,Jits_Phase_8,2,5,80,127,2299017556
11118,15,Jits_Phase_8,3,1,48,46,2299032972
11118,15,Jits_Phase_8,0,5,56,103,2299784632
11118,15,Jits_Phase_8,1,1,48,53,2299814428
11118,15,Jits_Phase_8,2,5,80,127,2299905404
11118,15,Jits_Phase_8,3,5,63,98,2299945496
11118,15,Jits_Phase_8,0,5,56,103,2300604788
11118,15,Jits_Phase_8,1,1,48,46,2300621460
11118,15,Jits_Phase_8,2,5,80,127,2300684652
11118,15,Jits_Phase_8,3,5,63,98,2300705284
11118,15,Jits_Phase_8,0,5,56,103,2301404564
11118,15,Jits_Phase_8,1,1,48,38,2301438396
11118,15,Jits_Phase_8,2,5,63,98,2301515312
11118,15,Jits_Phase_8,3,5,80,127,2301518748
11118,15,Jits_Phase_8,0,1,48,43,2302210284
11118,15,Jits_Phase_8,1,5,56,103,2302245476
11118,15,Jits_Phase_8,2,5,80,127,2302274852
11118,15,Jits_Phase_8,3,5,63,98,2302295312
11118,15,Jits_Phase_8,0,1,48,37,2302984124
11118,15,Jits_Phase_8,1,5,63,98,2303034672
11118,15,Jits_Phase_8,2,5,56,103,2303045092
11118,15,Jits_Phase_8,3,5,80,127,2303055508
11118,15,Jits_Phase_8,0,1,48,41,2303761488
11118,15,Jits_Phase_8,1,5,80,127,2303825428
11118,15,Jits_Phase_8,2,5,56,103,2303874272
11118,15,Jits_Phase_8,3,5,63,98,2303915404
11118,15,Jits_Phase_8,0,1,48,40,2304553464
11118,15,Jits_Phase_8,1,5,80,127,2304644948
11118,15,Jits_Phase_8,2,5,63,98,2304665112
11118,15,Jits_Phase_8,3,5,56,103,2304715236
11118,15,Jits_Phase_8,0,1,48,45,2305400412
11118,15,Jits_Phase_8,1,5,80,127,2305454464
11118,15,Jits_Phase_8,2,5,56,103,2305485336
11118,15,Jits_Phase_8,3,5,63,98,2305554728
11118,15,Jits_Phase_8,0,1,48,46,2306267308
11118,15,Jits_Phase_8,1,5,56,103,2306305320
11118,15,Jits_Phase_8,2,5,80,127,2306314692
11118,15,Jits_Phase_8,3,5,63,98,2306354508
11118,15,Jits_Phase_8,0,5,56,103,2307015260
11118,15,Jits_Phase_8,1,1,48,44,2307025724
11118,15,Jits_Phase_8,2,5,63,98,2307034444
11118,15,Jits_Phase_8,3,5,80,127,2307105268
11118,15,Jits_Phase_8,0,5,63,98,2307835480
11118,15,Jits_Phase_8,1,1,48,50,2307844076
11118,15,Jits_Phase_8,2,5,80,127,2307894544
11118,15,Jits_Phase_8,3,5,56,103,2307915300
11118,15,Jits_Phase_8,0,5,80,127,2308624924
11118,15,Jits_Phase_8,1,5,56,103,2308654380
11118,15,Jits_Phase_8,2,1,48,46,2308663572
11118,15,Jits_Phase_8,3,5,63,98,2308685240
11118,15,Jits_Phase_8,0,5,56,103,2309424472
11118,15,Jits_Phase_8,1,1,48,42,2309433964
11118,15,Jits_Phase_8,2,5,63,98,2309484856
11118,15,Jits_Phase_8,3,5,80,127,2309545304
11118,15,Jits_Phase_8,0,5,80,127,2310244696
11118,15,Jits_Phase_8,1,5,56,103,2310265456
11118,15,Jits_Phase_8,2,1,48,45,2310274944
11118,15,Jits_Phase_8,3,5,63,98,2310334904
11118,15,Jits_Phase_8,0,5,80,127,2311044396
11118,15,Jits_Phase_8,1,5,63,98,2311065080
11118,15,Jits_Phase_8,2,5,56,103,2311094528
11118,15,Jits_Phase_8,3,1,48,42,2311095496
11118,15,Jits_Phase_8,0,5,80,127,2311835248
11118,15,Jits_Phase_8,1,5,63,98,2311854436
11118,15,Jits_Phase_8,2,1,48,42,2311870960
11118,15,Jits_Phase_8,3,5,56,103,2311915040
11118,15,Jits_Phase_8,0,5,80,127,2312634868
11118,15,Jits_Phase_8,1,1,48,48,2312691544
11118,15,Jits_Phase_8,2,5,56,103,2312735056
11118,15,Jits_Phase_8,3,5,63,98,2312764732
11118,15,Jits_Phase_8,0,5,63,98,2313425204
11118,15,Jits_Phase_8,1,5,80,127,2313474360
11118,15,Jits_Phase_8,2,1,48,50,2313488736
11118,15,Jits_Phase_8,3,5,56,103,2313494760
11118,15,Jits_Phase_8,0,5,80,127,2314265212
11118,15,Jits_Phase_8,1,1,48,43,2314267580
11118,15,Jits_Phase_8,2,5,56,103,2314294656
11118,15,Jits_Phase_8,3,5,63,98,2314297724
11118,15,Jits_Phase_8,0,1,48,44,2315113132
11118,15,Jits_Phase_8,1,5,63,98,2315114796
11118,15,Jits_Phase_8,2,5,56,103,2315154960
11118,15,Jits_Phase_8,3,5,80,127,2315175268
11118,15,Jits_Phase_8,0,5,80,127,2315874632
11118,15,Jits_Phase_8,1,5,63,98,2315954504
11118,15,Jits_Phase_8,2,5,56,103,2315994444
11118,15,Jits_Phase_8,3,1,48,45,2315998980
11118,15,Jits_Phase_8,0,5,63,98,2316695012
11118,15,Jits_Phase_8,1,1,48,45,2316727124
11118,15,Jits_Phase_8,2,5,80,127,2316774876
11118,15,Jits_Phase_8,3,5,56,103,2316795112
11118,15,Jits_Phase_8,0,5,56,103,2317534564
11118,15,Jits_Phase_8,1,5,63,98,2317544908
11118,15,Jits_Phase_8,2,1,48,47,2317558140
11118,15,Jits_Phase_8,3,5,80,127,2317584640
11118,15,Jits_Phase_8,0,5,56,103,2318254468
11118,15,Jits_Phase_8,1,5,80,127,2318257536
11118,15,Jits_Phase_8,2,1,48,35,2318386248
11118,15,Jits_Phase_8,3,5,63,98,2318394888
11118,15,Jits_Phase_8,0,5,56,103,2319045092
11118,15,Jits_Phase_8,1,1,48,47,2319081392
11118,15,Jits_Phase_8,2,5,63,98,2319135096
11118,15,Jits_Phase_8,3,5,80,127,2319204832
11118,15,Jits_Phase_8,0,1,48,52,2319804076
11118,15,Jits_Phase_8,1,5,63,98,2319924732
11118,15,Jits_Phase_8,2,5,80,127,2319928244
11118,15,Jits_Phase_8,3,5,56,103,2319985048
11118,15,Jits_Phase_8,0,1,48,43,2320656452
11118,15,Jits_Phase_8,1,5,80,127,2320765244
11118,15,Jits_Phase_8,2,5,56,103,2320784880
11118,15,Jits_Phase_8,3,5,63,98,2320795224
11118,15,Jits_Phase_8,0,5,56,103,2321475124
11118,15,Jits_Phase_8,1,5,63,98,2321485172
11118,15,Jits_Phase_8,2,1,48,48,2321489336
11118,15,Jits_Phase_8,3,5,80,127,2321554768
11118,15,Jits_Phase_8,0,1,48,42,2322237024
11118,15,Jits_Phase_8,1,5,80,127,2322274964
11118,15,Jits_Phase_8,2,5,56,103,2322324940
11118,15,Jits_Phase_8,3,5,63,98,2322375052
11118,15,Jits_Phase_8,0,1,48,25,2323038360
11118,15,Jits_Phase_8,1,5,56,103,2323155324
11118,15,Jits_Phase_8,2,5,63,98,2323164476
11118,15,Jits_Phase_8,3,5,80,127,2323204412
11118,15,Jits_Phase_8,0,1,48,36,2323836332
11118,15,Jits_Phase_8,1,5,56,103,2323894576
11118,15,Jits_Phase_8,2,5,63,98,2323934572
11118,15,Jits_Phase_8,3,5,80,127,2323985020
11118,15,Jits_Phase_8,0,5,80,127,2324654560
11118,15,Jits_Phase_8,1,1,48,28,2324666596
11118,15,Jits_Phase_8,2,5,56,103,2324704828
11118,15,Jits_Phase_8,3,5,63,98,2324725212
11118,15,Jits_Phase_8,0,1,48,36,2325412772
11118,15,Jits_Phase_8,1,5,80,127,2325464360
11118,15,Jits_Phase_8,2,5,63,98,2325525060
11118,15,Jits_Phase_8,3,5,56,103,2325605148
11118,15,Jits_Phase_8,0,5,80,127,2326244796
11118,15,Jits_Phase_8,1,1,48,44,2326245984
11118,15,Jits_Phase_8,2,5,56,103,2326284948
11118,15,Jits_Phase_8,3,5,63,98,2326305036
11118,15,Jits_Phase_8,0,1,48,38,2327021268
11118,15,Jits_Phase_8,1,5,56,103,2327094532
11118,15,Jits_Phase_8,2,5,80,127,2327105172
11118,15,Jits_Phase_8,3,5,63,98,2327144944
11118,15,Jits_Phase_8,0,1,48,34,2327800876
11118,15,Jits_Phase_8,1,5,56,103,2327964924
11118,15,Jits_Phase_8,2,5,63,98,2328005008
11118,15,Jits_Phase_8,3,5,80,127,2328008296
11118,15,Jits_Phase_8,0,5,63,98,2328634716
11118,15,Jits_Phase_8,1,5,80,127,2328674656
11118,15,Jits_Phase_8,2,1,48,43,2328736884
11118,15,Jits_Phase_8,3,5,56,103,2328745372
11118,15,Jits_Phase_8,0,5,63,98,2329404880
11118,15,Jits_Phase_8,1,1,48,38,2329457896
11118,15,Jits_Phase_8,2,5,56,103,2329484524
11118,15,Jits_Phase_8,3,5,80,127,2329545132
11118,15,Jits_Phase_8,0,1,48,43,2330129680
11118,15,Jits_Phase_8,1,5,80,127,2330214896
11118,15,Jits_Phase_8,2,5,63,98,2330265012
11118,15,Jits_Phase_8,3,5,56,103,2330294612
11118,15,Jits_Phase_8,0,1,48,43,2331000308
11118,15,Jits_Phase_8,1,5,56,103,2331005288
11118,15,Jits_Phase_8,2,5,63,98,2331054516
11118,15,Jits_Phase_8,3,5,80,127,2331064712
11118,15,Jits_Phase_8,0,1,48,50,2331771440
11118,15,Jits_Phase_8,1,5,56,103,2331815232
11118,15,Jits_Phase_8,2,5,63,98,2331925080
11118,15,Jits_Phase_8,3,5,80,127,2331945316
11118,15,Jits_Phase_8,0,1,48,39,2332580420
11118,15,Jits_Phase_8,1,5,63,98,2332614992
11118,15,Jits_Phase_8,2,5,80,127,2332665192
11118,15,Jits_Phase_8,3,5,56,103,2332755260
11118,15,Jits_Phase_8,0,5,63,98,2333404568
11118,15,Jits_Phase_8,1,5,80,127,2333435216
11118,15,Jits_Phase_8,2,1,48,39,2333490796
11118,15,Jits_Phase_8,3,5,56,103,2333525288
11118,15,Jits_Phase_8,0,5,63,98,2334205220
11118,15,Jits_Phase_8,1,5,56,103,2334214372
11118,15,Jits_Phase_8,2,1,48,48,2334269272
11118,15,Jits_Phase_8,3,5,80,127,2334315004
11118,15,Jits_Phase_8,0,1,48,38,2334988904
11118,15,Jits_Phase_8,1,5,63,98,2335105524
11118,15,Jits_Phase_8,2,5,80,127,2335134976
11118,15,Jits_Phase_8,3,5,56,103,2335164872
11118,15,Jits_Phase_8,0,1,48,47,2335915544
11118,15,Jits_Phase_8,1,5,80,127,2335924856
11118,15,Jits_Phase_8,2,5,63,98,2335935056
11118,15,Jits_Phase_8,3,5,56,103,2335964504
11118,15,Jits_Phase_8,0,5,80,127,2336625136
11118,15,Jits_Phase_8,1,5,63,98,2336644324
11118,15,Jits_Phase_8,2,5,56,103,2336694968
11118,15,Jits_Phase_8,3,1,48,51,2336700856
11118,15,Jits_Phase_8,0,1,48,49,2337419020
11118,15,Jits_Phase_8,1,5,63,98,2337454640
11118,15,Jits_Phase_8,2,5,80,127,2337514808
11118,15,Jits_Phase_8,3,5,56,103,2337535400
11118,15,Jits_Phase_8,0,5,63,98,2338215148
11118,15,Jits_Phase_8,1,5,56,103,2338264380
11118,15,Jits_Phase_8,2,1,48,40,2338274500
11118,15,Jits_Phase_8,3,5,80,127,2338275912
11118,15,Jits_Phase_8,0,5,56,103,2339044800
11118,15,Jits_Phase_8,1,5,80,127,2339055068
11118,15,Jits_Phase_8,2,1,48,42,2339101504
11118,15,Jits_Phase_8,3,5,63,98,2339155256
11118,15,Jits_Phase_8,0,5,80,127,2339804784
11118,15,Jits_Phase_8,1,5,63,98,2339815056
11118,15,Jits_Phase_8,2,1,48,44,2339881796
11118,15,Jits_Phase_8,3,5,56,103,2339965288
11118,15,Jits_Phase_8,0,5,63,98,2340614748
11118,15,Jits_Phase_8,1,5,80,127,2340654488
11118,15,Jits_Phase_8,2,1,48,41,2340660744
11118,15,Jits_Phase_8,3,5,56,103,2340735244
11118,15,Jits_Phase_8,0,5,56,103,2341365056
11118,15,Jits_Phase_8,1,5,80,127,2341464360
11118,15,Jits_Phase_8,2,1,48,45,2341476768
11118,15,Jits_Phase_8,3,5,63,98,2341484884
11118,15,Jits_Phase_8,0,5,80,127,2342194828
11118,15,Jits_Phase_8,1,1,48,40,2342200864
11118,15,Jits_Phase_8,2,5,56,103,2342204648
11118,15,Jits_Phase_8,3,5,63,98,2342294776
11118,15,Jits_Phase_8,0,5,56,103,2342995284
11118,15,Jits_Phase_8,1,5,63,98,2343014920
11118,15,Jits_Phase_8,2,1,48,45,2343020732
11118,15,Jits_Phase_8,3,5,80,127,2343094628
11118,15,Jits_Phase_8,0,5,63,98,2343744860
11118,15,Jits_Phase_8,1,1,48,40,2343783576
11118,15,Jits_Phase_8,2,5,56,103,2343835060
11118,15,Jits_Phase_8,3,5,80,127,2343838276
11118,15,Jits_Phase_8,0,1,48,47,2344512664
11118,15,Jits_Phase_8,1,5,56,103,2344575316
11118,15,Jits_Phase_8,2,5,80,127,2344634868
11118,15,Jits_Phase_8,3,5,63,98,2344645064
11118,15,Jits_Phase_8,0,1,48,40,2345313692
11118,15,Jits_Phase_8,1,5,80,127,2345425408
11118,15,Jits_Phase_8,2,5,56,103,2345434632
11118,15,Jits_Phase_8,3,5,63,98,2345437696
11118,15,Jits_Phase_8,0,1,48,40,2346178768
11118,15,Jits_Phase_8,1,5,56,103,2346185168
11118,15,Jits_Phase_8,2,5,80,127,2346195288
11118,15,Jits_Phase_8,3,5,63,98,2346214700
11118,15,Jits_Phase_8,0,1,48,40,2346952076
11118,15,Jits_Phase_8,1,5,63,98,2346955108
11118,15,Jits_Phase_8,2,5,80,127,2347014676
11118,15,Jits_Phase_8,3,5,56,103,2347064884
11118,15,Jits_Phase_8,0,1,48,48,2347772436
11118,15,Jits_Phase_8,1,5,63,98,2347834908
11118,15,Jits_Phase_8,2,5,56,103,2347845032
11118,15,Jits_Phase_8,3,5,80,127,2347895140
11118,15,Jits_Phase_8,0,5,63,98,2348535160
11118,15,Jits_Phase_8,1,5,80,127,2348554720
11118,15,Jits_Phase_8,2,5,56,103,2348564944
11118,15,Jits_Phase_8,3,1,48,39,2348590680
11118,15,Jits_Phase_8,0,5,63,98,2349334940
11118,15,Jits_Phase_8,1,5,80,127,2349338228
11118,15,Jits_Phase_8,2,1,48,29,2349341876
11118,15,Jits_Phase_8,3,5,56,103,2349374868
11118,15,Jits_Phase_8,0,1,48,48,2350103788
11118,15,Jits_Phase_8,1,5,63,98,2350205236
11118,15,Jits_Phase_8,2,5,80,127,2350234912
11118,15,Jits_Phase_8,3,5,56,103,2350245180
11118,15,Jits_Phase_8,0,5,56,103,2350954820
11118,15,Jits_Phase_8,1,5,80,127,2350984644
11118,15,Jits_Phase_8,2,5,63,98,2351015368
11118,15,Jits_Phase_8,3,1,48,33,2351059608
11118,15,Jits_Phase_8,0,1,48,41,2351734256
11118,15,Jits_Phase_8,1,5,63,98,2351854816
11118,15,Jits_Phase_8,2,5,56,103,2351894772
11118,15,Jits_Phase_8,3,5,80,127,2351897920
11118,15,Jits_Phase_8,0,5,80,127,2352555624
11118,15,Jits_Phase_8,1,1,48,39,2352585716
11118,15,Jits_Phase_8,2,5,56,103,2352635116
11118,15,Jits_Phase_8,3,5,63,98,2352685548
11118,15,Jits_Phase_8,0,5,80,127,2353334724
11118,15,Jits_Phase_8,1,5,56,103,2353355108
11118,15,Jits_Phase_8,2,1,48,38,2353400328
11118,15,Jits_Phase_8,3,5,63,98,2353445332
11118,15,Jits_Phase_8,0,5,80,127,2354175548
11118,15,Jits_Phase_8,1,1,48,40,2354189076
11118,15,Jits_Phase_8,2,5,63,98,2354215180
11118,15,Jits_Phase_8,3,5,56,103,2354255192
11118,15,Jits_Phase_8,0,1,48,38,2354967124
11118,15,Jits_Phase_8,1,5,63,98,2354985580
11118,15,Jits_Phase_8,2,5,80,127,2355044704
11118,15,Jits_Phase_8,3,5,56,103,2355074660
11118,15,Jits_Phase_8,0,1,48,24,2355789876
11118,15,Jits_Phase_8,1,5,56,103,2355825044
11118,15,Jits_Phase_8,2,5,80,127,2355854572
11118,15,Jits_Phase_8,3,5,63,98,2355944764
11118,15,Jits_Phase_8,0,5,56,103,2356634924
11118,15,Jits_Phase_8,1,1,48,49,2356674084
11118,15,Jits_Phase_8,2,5,80,127,2356744604
11118,15,Jits_Phase_8,3,5,63,98,2356775264
11118,15,Jits_Phase_8,0,1,48,23,2357436840
11118,15,Jits_Phase_8,1,5,56,103,2357484964
11118,15,Jits_Phase_8,2,5,63,98,2357545440
11118,15,Jits_Phase_8,3,5,80,127,2357574968
11118,15,Jits_Phase_8,0,1,48,42,2358249860
11118,15,Jits_Phase_8,1,5,56,103,2358254988
11118,15,Jits_Phase_8,2,5,63,98,2358324620
11118,15,Jits_Phase_8,3,5,80,127,2358344992
11118,15,Jits_Phase_8,0,5,80,127,2359024864
11118,15,Jits_Phase_8,1,5,63,98,2359044576
11118,15,Jits_Phase_8,2,1,48,51,2359048592
11118,15,Jits_Phase_8,3,5,56,103,2359094720
11118,15,Jits_Phase_8,0,5,63,98,2359845336
11118,15,Jits_Phase_8,1,1,48,54,2359853884
11118,15,Jits_Phase_8,2,5,80,127,2359855452
11118,15,Jits_Phase_8,3,5,56,103,2359904752
11118,15,Jits_Phase_8,0,1,48,44,2360600696
11118,15,Jits_Phase_8,1,5,63,98,2360645008
11118,15,Jits_Phase_8,2,5,80,127,2360714600
11118,15,Jits_Phase_8,3,5,56,103,2360735136
11118,15,Jits_Phase_8,0,5,63,98,2361474588
11118,15,Jits_Phase_8,1,5,80,127,2361477876
11118,15,Jits_Phase_8,2,1,48,46,2361530444
11118,15,Jits_Phase_8,3,5,56,103,2361544936
11118,15,Jits_Phase_8,0,5,80,127,2362224964
11118,15,Jits_Phase_8,1,5,56,103,2362244452
11118,15,Jits_Phase_8,2,5,63,98,2362254576
11118,15,Jits_Phase_8,3,1,48,47,2362290424
11118,15,Jits_Phase_8,0,1,48,42,2363034588
11118,15,Jits_Phase_8,1,5,56,103,2363045324
11118,15,Jits_Phase_8,2,5,63,98,2363135440
11118,15,Jits_Phase_8,3,5,80,127,2363138804
11118,15,Jits_Phase_8,0,5,80,127,2363815556
11118,15,Jits_Phase_8,1,5,56,103,2363824412
11118,15,Jits_Phase_8,2,5,63,98,2363845020
11118,15,Jits_Phase_8,3,1,48,49,2363865520
11118,15,Jits_Phase_8,0,1,48,44,2364603908
11118,15,Jits_Phase_8,1,5,63,98,2364615092
11118,15,Jits_Phase_8,2,5,80,127,2364674660
11118,15,Jits_Phase_8,3,5,56,103,2364685024
11118,15,Jits_Phase_8,0,1,48,40,2365381536
11118,15,Jits_Phase_8,1,5,63,98,2365485500
11118,15,Jits_Phase_8,2,5,80,127,2365515104
11118,15,Jits_Phase_8,3,5,56,103,2365555040
11118,15,Jits_Phase_8,0,1,48,46,2366225092
11118,15,Jits_Phase_8,1,5,56,103,2366274940
11118,15,Jits_Phase_8,2,5,80,127,2366285284
11118,15,Jits_Phase_8,3,5,63,98,2366325208
11118,15,Jits_Phase_8,0,5,80,127,2367034772
11118,15,Jits_Phase_8,1,1,48,47,2367079916
11118,15,Jits_Phase_8,2,5,56,103,2367114564
11118,15,Jits_Phase_8,3,5,63,98,2367124832
11118,15,Jits_Phase_8,0,1,48,41,2367879384
11118,15,Jits_Phase_8,1,5,80,127,2367884656
11118,15,Jits_Phase_8,2,5,56,103,2367964456
11118,15,Jits_Phase_8,3,5,63,98,2367975376
11118,15,Jits_Phase_8,0,1,48,45,2368687912
11118,15,Jits_Phase_8,1,5,80,127,2368725328
11118,15,Jits_Phase_8,2,5,56,103,2368774484
11118,15,Jits_Phase_8,3,5,63,98,2368824620
11118,15,Jits_Phase_8,0,1,48,45,2369583448
11118,15,Jits_Phase_8,1,5,56,103,2369665276
11118,15,Jits_Phase_8,2,5,63,98,2369668424
11118,15,Jits_Phase_8,3,5,80,127,2369714644
11118,15,Jits_Phase_8,0,1,48,43,2370422812
11118,15,Jits_Phase_8,1,5,56,103,2370484588
11118,15,Jits_Phase_8,2,5,63,98,2370515532
11118,15,Jits_Phase_8,3,5,80,127,2370524444
11118,15,Jits_Phase_8,0,5,63,98,2371195496
11118,15,Jits_Phase_8,1,5,56,103,2371264808
11118,15,Jits_Phase_8,2,1,48,27,2371272636
11118,15,Jits_Phase_8,3,5,80,127,2371314928
11118,15,Jits_Phase_8,0,1,48,46,2371991024
11118,15,Jits_Phase_8,1,5,63,98,2372024552
11118,15,Jits_Phase_8,2,5,56,103,2372034892
11118,15,Jits_Phase_8,3,5,80,127,2372037884
11118,15,Jits_Phase_8,0,1,48,46,2372756912
11118,15,Jits_Phase_8,1,5,80,127,2372775368
11118,15,Jits_Phase_8,2,5,56,103,2372834788
11118,15,Jits_Phase_8,3,5,63,98,2372925004
11118,15,Jits_Phase_8,0,5,80,127,2373574912
11118,15,Jits_Phase_8,1,1,48,43,2373598628
11118,15,Jits_Phase_8,2,5,56,103,2373675476
11118,15,Jits_Phase_8,3,5,63,98,2373715396
11118,15,Jits_Phase_8,0,5,56,103,2374424832
11118,15,Jits_Phase_8,1,5,63,98,2374445440
11118,15,Jits_Phase_8,2,5,80,127,2374485304
11118,15,Jits_Phase_8,3,1,48,33,2374505732
11118,15,Jits_Phase_8,0,5,63,98,2375195232
11118,15,Jits_Phase_8,1,1,48,45,2375208244
11118,15,Jits_Phase_8,2,5,56,103,2375214344
11118,15,Jits_Phase_8,3,5,80,127,2375314944
11118,15,Jits_Phase_8,0,5,63,98,2375984432
11118,15,Jits_Phase_8,1,1,48,49,2375988668
11118,15,Jits_Phase_8,2,5,80,127,2376095220
11118,15,Jits_Phase_8,3,5,56,103,2376124672
11118,15,Jits_Phase_8,0,5,56,103,2376804636
11118,15,Jits_Phase_8,1,5,63,98,2376834388
11118,15,Jits_Phase_8,2,1,48,39,2376852948
11118,15,Jits_Phase_8,3,5,80,127,2376884656
11118,15,Jits_Phase_8,0,1,48,32,2377464924
11118,15,Jits_Phase_8,1,5,63,98,2377574792
11118,15,Jits_Phase_8,2,5,56,103,2377604468
11118,15,Jits_Phase_8,3,5,80,127,2377654740
11118,15,Jits_Phase_8,0,1,48,26,2378350700
11118,15,Jits_Phase_8,1,5,56,103,2378405424
11118,15,Jits_Phase_8,2,5,63,98,2378424540
11118,15,Jits_Phase_8,3,5,80,127,2378504616
11118,15,Jits_Phase_8,0,5,63,98,2379175296
11118,15,Jits_Phase_8,1,1,48,51,2379189724
11118,15,Jits_Phase_8,2,5,56,103,2379234632
11118,15,Jits_Phase_8,3,5,80,127,2379265428
11118,15,Jits_Phase_8,0,1,48,54,2379981524
11118,15,Jits_Phase_8,1,5,56,103,2380015128
11118,15,Jits_Phase_8,2,5,80,127,2380075320
11118,15,Jits_Phase_8,3,5,63,98,2380115168
11118,15,Jits_Phase_8,0,5,63,98,2380795264
11118,15,Jits_Phase_8,1,1,48,47,2380843372
11118,15,Jits_Phase_8,2,5,56,103,2380854556
11118,15,Jits_Phase_8,3,5,80,127,2380925356
11118,15,Jits_Phase_8,0,1,48,50,2381598088
11118,15,Jits_Phase_8,1,5,56,103,2381674836
11118,15,Jits_Phase_8,2,5,63,98,2381685328
11118,15,Jits_Phase_8,3,5,80,127,2381688396
11118,15,Jits_Phase_8,0,5,63,98,2382415184
11118,15,Jits_Phase_8,1,5,56,103,2382474604
11118,15,Jits_Phase_8,2,5,80,127,2382477592
11118,15,Jits_Phase_8,3,1,48,45,2382494132
11118,15,Jits_Phase_8,0,5,63,98,2383194548
11118,15,Jits_Phase_8,1,1,48,39,2383221036
11118,15,Jits_Phase_8,2,5,80,127,2383225340
11118,15,Jits_Phase_8,3,5,56,103,2383244748
11118,15,Jits_Phase_8,0,5,56,103,2383924552
11118,15,Jits_Phase_8,1,5,63,98,2383974828
11118,15,Jits_Phase_8,2,1,48,46,2384039524
11118,15,Jits_Phase_8,3,5,80,127,2384054688
11118,15,Jits_Phase_8,0,5,80,127,2384625112
11118,15,Jits_Phase_8,1,5,63,98,2384665300
11118,15,Jits_Phase_8,2,5,56,103,2384685388
11118,15,Jits_Phase_8,3,1,48,48,2384712320
11118,15,Jits_Phase_8,0,1,48,49,2385444212
11118,15,Jits_Phase_8,1,5,56,103,2385495332
11118,15,Jits_Phase_8,2,5,80,127,2385504556
11118,15,Jits_Phase_8,3,5,63,98,2385525312
11118,15,Jits_Phase_8,0,1,48,49,2386220288
11118,15,Jits_Phase_8,1,5,56,103,2386274640
11118,15,Jits_Phase_8,2,5,63,98,2386324900
11118,15,Jits_Phase_8,3,5,80,127,2386354500
11118,15,Jits_Phase_8,0,5,56,103,2387025248
11118,15,Jits_Phase_8,1,5,63,98,2387034476
11118,15,Jits_Phase_8,2,1,48,47,2387075876
11118,15,Jits_Phase_8,3,5,80,127,2387084592
11118,15,Jits_Phase_8,0,5,56,103,2387814672
11118,15,Jits_Phase_8,1,5,80,127,2387817968
11118,15,Jits_Phase_8,2,1,48,43,2387846864
11118,15,Jits_Phase_8,3,5,63,98,2387974460
11118,15,Jits_Phase_8,0,5,63,98,2388635116
11118,15,Jits_Phase_8,1,1,48,43,2388667608
11118,15,Jits_Phase_8,2,5,56,103,2388704716
11118,15,Jits_Phase_8,3,5,80,127,2388744432
11118,15,Jits_Phase_8,0,5,63,98,2389474736
11118,15,Jits_Phase_8,1,1,48,42,2389477852
11118,15,Jits_Phase_8,2,5,56,103,2389564884
11118,15,Jits_Phase_8,3,5,80,127,2389567952
11118,15,Jits_Phase_8,0,5,56,103,2390255160
11118,15,Jits_Phase_8,1,1,48,42,2390310296
11118,15,Jits_Phase_8,2,5,63,98,2390345312
11118,15,Jits_Phase_8,3,5,80,127,2390355288
11118,15,Jits_Phase_8,0,5,56,103,2391025124
11118,15,Jits_Phase_8,1,5,63,98,2391075276
11118,15,Jits_Phase_8,2,1,48,52,2391100568
11118,15,Jits_Phase_8,3,5,80,127,2391105168
11118,15,Jits_Phase_8,0,1,48,44,2391873144
11118,15,Jits_Phase_8,1,5,63,98,2391904632
11118,15,Jits_Phase_8,2,5,80,127,2391914828
11118,15,Jits_Phase_8,3,5,56,103,2391975276
11118,15,Jits_Phase_8,0,5,63,98,2392624612
11118,15,Jits_Phase_8,1,5,80,127,2392685000
11118,15,Jits_Phase_8,2,5,56,103,2392724792
11118,15,Jits_Phase_8,3,1,48,16,2392767088
11118,15,Jits_Phase_8,0,1,48,40,2393443668
11118,15,Jits_Phase_8,1,5,56,103,2393524604
11118,15,Jits_Phase_8,2,5,80,127,2393545196
11118,15,Jits_Phase_8,3,5,63,98,2393564460
11118,15,Jits_Phase_8,0,5,63,98,2394244432
11118,15,Jits_Phase_8,1,5,56,103,2394265040
11118,15,Jits_Phase_8,2,5,80,127,2394305128
11118,15,Jits_Phase_8,3,1,48,43,2394321276
11118,15,Jits_Phase_8,0,5,63,98,2395054528
11118,15,Jits_Phase_8,1,1,48,39,2395068132
11118,15,Jits_Phase_8,2,5,80,127,2395085092
11118,15,Jits_Phase_8,3,5,56,103,2395104728
11118,15,Jits_Phase_8,0,5,80,127,2395824464
11118,15,Jits_Phase_8,1,1,48,41,2395842332
11118,15,Jits_Phase_8,2,5,56,103,2395874884
11118,15,Jits_Phase_8,3,5,63,98,2395935076
11118,15,Jits_Phase_8,0,5,63,98,2396615244
11118,15,Jits_Phase_8,1,1,48,45,2396640160
11118,15,Jits_Phase_8,2,5,56,103,2396735212
11118,15,Jits_Phase_8,3,5,80,127,2396764576
11118,15,Jits_Phase_8,0,5,80,127,2397454664
11118,15,Jits_Phase_8,1,1,48,46,2397455632
11118,15,Jits_Phase_8,2,5,63,98,2397475120
11118,15,Jits_Phase_8,3,5,56,103,2397545020
11118,15,Jits_Phase_8,0,1,48,45,2398266168
11118,15,Jits_Phase_8,1,5,63,98,2398274960
11118,15,Jits_Phase_8,2,5,56,103,2398285304
11118,15,Jits_Phase_8,3,5,80,127,2398365160
11118,15,Jits_Phase_8,0,1,48,52,2399078812
11118,15,Jits_Phase_8,1,5,56,103,2399135036
11118,15,Jits_Phase_8,2,5,80,127,2399164860
11118,15,Jits_Phase_8,3,5,63,98,2399175192
11118,15,Jits_Phase_8,0,9999,9999,9999,2264282228
11118,15,Jits_Phase_8,1,9999,9999,9999,2265082992
11118,15,Jits_Phase_8,2,9999,9999,9999,2265882732
11118,15,Jits_Phase_8,3,9999,9999,9999,2266682432
11118,15,Jits_Phase_8,4,9999,9999,9999,2267482184
11118,15,Jits_Phase_8,5,9999,9999,9999,2268282992
11118,15,Jits_Phase_8,6,9999,9999,9999,2269082748
11118,15,Jits_Phase_8,7,9999,9999,9999,2269882444
11118,15,Jits_Phase_8,8,9999,9999,9999,2270682208
11118,15,Jits_Phase_8,9,9999,9999,9999,2271483000
11118,15,Jits_Phase_8,10,9999,9999,9999,2272282716
11118,15,Jits_Phase_8,11,9999,9999,9999,2273082480
11118,15,Jits_Phase_8,12,9999,9999,9999,2273882168
11118,15,Jits_Phase_8,13,9999,9999,9999,2274682980
11118,15,Jits_Phase_8,14,9999,9999,9999,2275482728
11118,15,Jits_Phase_8,15,9999,9999,9999,2276282496
11118,15,Jits_Phase_8,16,9999,9999,9999,2277082236
11118,15,Jits_Phase_8,17,9999,9999,9999,2277882988
11118,15,Jits_Phase_8,18,9999,9999,9999,2278682704
11118,15,Jits_Phase_8,19,9999,9999,9999,2279482476
11118,15,Jits_Phase_8,20,9999,9999,9999,2280282232
11118,15,Jits_Phase_8,21,9999,9999,9999,2281082936
11118,15,Jits_Phase_8,22,9999,9999,9999,2281882704
11118,15,Jits_Phase_8,23,9999,9999,9999,2282682460
11118,15,Jits_Phase_8,24,9999,9999,9999,2283482216
11118,15,Jits_Phase_8,25,9999,9999,9999,2284282944
11118,15,Jits_Phase_8,26,9999,9999,9999,2285082732
11118,15,Jits_Phase_8,27,9999,9999,9999,2285882492
11118,15,Jits_Phase_8,28,9999,9999,9999,2286682172
11118,15,Jits_Phase_8,29,9999,9999,9999,2287482984
11118,15,Jits_Phase_8,30,9999,9999,9999,2288262216
11118,15,Jits_Phase_8,31,9999,9999,9999,2289063020
11118,15,Jits_Phase_8,32,9999,9999,9999,2289862720
11118,15,Jits_Phase_8,33,9999,9999,9999,2290662472
11118,15,Jits_Phase_8,34,9999,9999,9999,2291462228
11118,15,Jits_Phase_8,35,9999,9999,9999,2292262988
11118,15,Jits_Phase_8,36,9999,9999,9999,2293062756
11118,15,Jits_Phase_8,37,9999,9999,9999,2293862516
11118,15,Jits_Phase_8,38,9999,9999,9999,2294662212
11118,15,Jits_Phase_8,39,9999,9999,9999,2295463032
11118,15,Jits_Phase_8,40,9999,9999,9999,2296262732
11118,15,Jits_Phase_8,41,9999,9999,9999,2297062504
11118,15,Jits_Phase_8,42,9999,9999,9999,2297862260
11118,15,Jits_Phase_8,43,9999,9999,9999,2298663012
11118,15,Jits_Phase_8,44,9999,9999,9999,2299462756
11118,15,Jits_Phase_8,45,9999,9999,9999,2300262516
11118,15,Jits_Phase_8,46,9999,9999,9999,2301062216
11118,15,Jits_Phase_8,47,9999,9999,9999,2301863028
11118,15,Jits_Phase_8,48,9999,9999,9999,2302682208
11118,15,Jits_Phase_8,49,9999,9999,9999,2303482932
11118,15,Jits_Phase_8,50,9999,9999,9999,2304282712
11118,15,Jits_Phase_8,51,9999,9999,9999,2305082472
11118,15,Jits_Phase_8,52,9999,9999,9999,2305882232
11118,15,Jits_Phase_8,53,9999,9999,9999,2306682972
11118,15,Jits_Phase_8,54,9999,9999,9999,2307482724
11118,15,Jits_Phase_8,55,9999,9999,9999,2308282420
11118,15,Jits_Phase_8,56,9999,9999,9999,2309082176
11118,15,Jits_Phase_8,57,9999,9999,9999,2309882996
11118,15,Jits_Phase_8,58,9999,9999,9999,2310682720
11118,15,Jits_Phase_8,59,9999,9999,9999,2311482492
11118,15,Jits_Phase_8,60,9999,9999,9999,2312282184
11118,15,Jits_Phase_8,61,9999,9999,9999,2313083008
11118,15,Jits_Phase_8,62,9999,9999,9999,2313882704
11118,15,Jits_Phase_8,63,9999,9999,9999,2314682452
11118,15,Jits_Phase_8,64,9999,9999,9999,2315522164
11118,15,Jits_Phase_8,65,9999,9999,9999,2316322920
11118,15,Jits_Phase_8,66,9999,9999,9999,2317122624
11118,15,Jits_Phase_8,67,9999,9999,9999,2317922392
11118,15,Jits_Phase_8,68,9999,9999,9999,2318722152
11118,15,Jits_Phase_8,69,9999,9999,9999,2319522900
11118,15,Jits_Phase_8,70,9999,9999,9999,2320322664
11118,15,Jits_Phase_8,71,9999,9999,9999,2321122360
11118,15,Jits_Phase_8,72,9999,9999,9999,2321922116
11118,15,Jits_Phase_8,73,9999,9999,9999,2322722884
11118,15,Jits_Phase_8,74,9999,9999,9999,2323522652
11118,15,Jits_Phase_8,75,9999,9999,9999,2324322416
11118,15,Jits_Phase_8,76,9999,9999,9999,2325122172
11118,15,Jits_Phase_8,77,9999,9999,9999,2325922916
11118,15,Jits_Phase_8,78,9999,9999,9999,2326722644
11118,15,Jits_Phase_8,79,9999,9999,9999,2327522420
11118,15,Jits_Phase_8,80,9999,9999,9999,2328322104
11118,15,Jits_Phase_8,81,9999,9999,9999,2329082980
11118,15,Jits_Phase_8,82,9999,9999,9999,2329882688
11118,15,Jits_Phase_8,83,9999,9999,9999,2330682444
11118,15,Jits_Phase_8,84,9999,9999,9999,2331482200
11118,15,Jits_Phase_8,85,9999,9999,9999,2332283008
11118,15,Jits_Phase_8,86,9999,9999,9999,2333082688
11118,15,Jits_Phase_8,87,9999,9999,9999,2333882448
11118,15,Jits_Phase_8,88,9999,9999,9999,2334682200
11118,15,Jits_Phase_8,89,9999,9999,9999,2335482940
11118,15,Jits_Phase_8,90,9999,9999,9999,2336282728
11118,15,Jits_Phase_8,91,9999,9999,9999,2337082484
11118,15,Jits_Phase_8,92,9999,9999,9999,2337882184
11118,15,Jits_Phase_8,93,9999,9999,9999,2338682988
11118,15,Jits_Phase_8,94,9999,9999,9999,2339482748
11118,15,Jits_Phase_8,95,9999,9999,9999,2340282440
11118,15,Jits_Phase_8,96,9999,9999,9999,2341082212
11118,15,Jits_Phase_8,97,9999,9999,9999,2341803088
11118,15,Jits_Phase_8,98,9999,9999,9999,2342613052
11118,15,Jits_Phase_8,99,9999,9999,9999,2343412828
11118,15,Jits_Phase_8,100,9999,9999,9999,2344212540
11118,15,Jits_Phase_8,101,9999,9999,9999,2345012300
11118,15,Jits_Phase_8,102,9999,9999,9999,2345813100
11118,15,Jits_Phase_8,103,9999,9999,9999,2346612856
11118,15,Jits_Phase_8,104,9999,9999,9999,2347412544
11118,15,Jits_Phase_8,105,9999,9999,9999,2348212308
11118,15,Jits_Phase_8,106,9999,9999,9999,2349013112
11118,15,Jits_Phase_8,107,9999,9999,9999,2349812852
11118,15,Jits_Phase_8,108,9999,9999,9999,2350612564
11118,15,Jits_Phase_8,109,9999,9999,9999,2351412320
11118,15,Jits_Phase_8,110,9999,9999,9999,2352213068
11118,15,Jits_Phase_8,111,9999,9999,9999,2353012832
11118,15,Jits_Phase_8,112,9999,9999,9999,2353812600
11118,15,Jits_Phase_8,113,9999,9999,9999,2354612348
11118,15,Jits_Phase_8,114,9999,9999,9999,2355492984
11118,15,Jits_Phase_8,115,9999,9999,9999,2356292668
11118,15,Jits_Phase_8,116,9999,9999,9999,2357092432
11118,15,Jits_Phase_8,117,9999,9999,9999,2357892208
11118,15,Jits_Phase_8,118,9999,9999,9999,2358692948
11118,15,Jits_Phase_8,119,9999,9999,9999,2359492700
11118,15,Jits_Phase_8,120,9999,9999,9999,2360292472
11118,15,Jits_Phase_8,121,9999,9999,9999,2361092160
11118,15,Jits_Phase_8,122,9999,9999,9999,2361892976
11118,15,Jits_Phase_8,123,9999,9999,9999,2362692724
11118,15,Jits_Phase_8,124,9999,9999,9999,2363492412
11118,15,Jits_Phase_8,125,9999,9999,9999,2364292160
11118,15,Jits_Phase_8,126,9999,9999,9999,2365092972
11118,15,Jits_Phase_8,127,9999,9999,9999,2365892732
11118,15,Jits_Phase_8,128,9999,9999,9999,2366692420
11118,15,Jits_Phase_8,129,9999,9999,9999,2367492176
11118,15,Jits_Phase_8,130,9999,9999,9999,2368292948
11118,15,Jits_Phase_8,131,9999,9999,9999,2369252432
11118,15,Jits_Phase_8,132,9999,9999,9999,2370052188
11118,15,Jits_Phase_8,133,9999,9999,9999,2370852944
11118,15,Jits_Phase_8,134,9999,9999,9999,2371652704
11118,15,Jits_Phase_8,135,9999,9999,9999,2372452452
11118,15,Jits_Phase_8,136,9999,9999,9999,2373252212
11118,15,Jits_Phase_8,137,9999,9999,9999,2374052940
11118,15,Jits_Phase_8,138,9999,9999,9999,2374852716
11118,15,Jits_Phase_8,139,9999,9999,9999,2375652412
11118,15,Jits_Phase_8,140,9999,9999,9999,2376452176
11118,15,Jits_Phase_8,141,9999,9999,9999,2377252924
11118,15,Jits_Phase_8,142,9999,9999,9999,2378052688
11118,15,Jits_Phase_8,143,9999,9999,9999,2378852448
11118,15,Jits_Phase_8,144,9999,9999,9999,2379652200
11118,15,Jits_Phase_8,145,9999,9999,9999,2380452936
11118,15,Jits_Phase_8,146,9999,9999,9999,2381252696
11118,15,Jits_Phase_8,147,9999,9999,9999,2382052452
11118,15,Jits_Phase_8,148,9999,9999,9999,2382852200
11118,15,Jits_Phase_8,149,9999,9999,9999,2383652944
11118,15,Jits_Phase_8,150,9999,9999,9999,2384292960
11118,15,Jits_Phase_8,151,9999,9999,9999,2385092728
11118,15,Jits_Phase_8,152,9999,9999,9999,2385892432
11118,15,Jits_Phase_8,153,9999,9999,9999,2386692192
11118,15,Jits_Phase_8,154,9999,9999,9999,2387492936
11118,15,Jits_Phase_8,155,9999,9999,9999,2388292696
11118,15,Jits_Phase_8,156,9999,9999,9999,2389092472
11118,15,Jits_Phase_8,157,9999,9999,9999,2389892152
11118,15,Jits_Phase_8,158,9999,9999,9999,2390692964
11118,15,Jits_Phase_8,159,9999,9999,9999,2391492664
11118,15,Jits_Phase_8,160,9999,9999,9999,2392292444
11118,15,Jits_Phase_8,161,9999,9999,9999,2393092204
11118,15,Jits_Phase_8,162,9999,9999,9999,2393892960
11118,15,Jits_Phase_8,163,9999,9999,9999,2394692716
11118,15,Jits_Phase_8,164,9999,9999,9999,2395492472
11118,15,Jits_Phase_8,165,9999,9999,9999,2396292156
11118,15,Jits_Phase_8,166,9999,9999,9999,2397092980
11118,15,Jits_Phase_8,167,9999,9999,9999,2397892664
11118,15,Jits_Phase_8,168,9999,9999,9999,2398692440
11118,15,Jits_Phase_8,169,9999,9999,9999,2399492212
11119,17,Jits_Phase_5,0,5,56,103,2408505840
11119,17,Jits_Phase_5,1,5,63,98,2408508940
11119,17,Jits_Phase_5,2,5,80,127,2408511912
11119,17,Jits_Phase_5,0,5,56,103,2409005548
11119,17,Jits_Phase_5,1,5,63,98,2409008724
11119,17,Jits_Phase_5,2,5,80,127,2409011696
11119,17,Jits_Phase_5,0,5,56,103,2409506024
11119,17,Jits_Phase_5,1,5,80,127,2409516292
11119,17,Jits_Phase_5,2,5,63,98,2409536152
11119,17,Jits_Phase_5,0,5,63,98,2409955828
11119,17,Jits_Phase_5,1,5,80,127,2409986328
11119,17,Jits_Phase_5,2,5,56,103,2409995724
11119,17,Jits_Phase_5,0,1,48,53,2410501280
11119,17,Jits_Phase_5,1,5,80,127,2410515796
11119,17,Jits_Phase_5,2,5,56,103,2410525992
11119,17,Jits_Phase_5,3,5,63,98,2410555740
11119,17,Jits_Phase_5,0,5,63,98,2411006456
11119,17,Jits_Phase_5,1,5,56,103,2411036156
11119,17,Jits_Phase_5,2,1,48,48,2411042416
11119,17,Jits_Phase_5,3,5,80,127,2411046120
11119,17,Jits_Phase_5,0,5,56,103,2411455868
11119,17,Jits_Phase_5,1,5,63,98,2411506140
11119,17,Jits_Phase_5,2,5,80,127,2411525404
11119,17,Jits_Phase_5,3,1,48,48,2411549516
11119,17,Jits_Phase_5,0,5,80,127,2411955704
11119,17,Jits_Phase_5,1,5,63,98,2412005832
11119,17,Jits_Phase_5,2,1,48,37,2412015324
11119,17,Jits_Phase_5,3,5,56,103,2412045936
11119,17,Jits_Phase_5,0,5,56,103,2412456368
11119,17,Jits_Phase_5,1,5,63,98,2412485968
11119,17,Jits_Phase_5,2,1,48,34,2412501444
11119,17,Jits_Phase_5,3,5,80,127,2412555812
11119,17,Jits_Phase_5,0,5,56,103,2412955984
11119,17,Jits_Phase_5,1,1,48,45,2412972284
11119,17,Jits_Phase_5,2,5,80,127,2413016440
11119,17,Jits_Phase_5,3,5,63,98,2413046040
11119,17,Jits_Phase_5,0,5,56,103,2413465936
11119,17,Jits_Phase_5,1,5,63,98,2413476132
11119,17,Jits_Phase_5,2,5,80,127,2413516216
11119,17,Jits_Phase_5,3,1,48,43,2413528328
11119,17,Jits_Phase_5,0,5,63,98,2413955432
11119,17,Jits_Phase_5,1,1,48,43,2414002520
11119,17,Jits_Phase_5,2,5,80,127,2414036340
11119,17,Jits_Phase_5,3,5,56,103,2414045788
11119,17,Jits_Phase_5,0,5,63,98,2414506204
11119,17,Jits_Phase_5,1,1,48,47,2414530972
11119,17,Jits_Phase_5,2,5,56,103,2414546284
11119,17,Jits_Phase_5,3,5,80,127,2414549420
11119,17,Jits_Phase_5,0,5,56,103,2414966016
11119,17,Jits_Phase_5,1,5,63,98,2414976660
11119,17,Jits_Phase_5,2,5,80,127,2415016444
11119,17,Jits_Phase_5,3,1,48,51,2415061880
11119,17,Jits_Phase_5,0,5,56,103,2415455588
11119,17,Jits_Phase_5,1,5,63,98,2415458652
11119,17,Jits_Phase_5,2,5,80,127,2415476044
11119,17,Jits_Phase_5,3,1,48,42,2415480960
11119,17,Jits_Phase_5,0,5,80,127,2415965748
11119,17,Jits_Phase_5,1,5,56,103,2415976020
11119,17,Jits_Phase_5,2,1,48,44,2415989476
11119,17,Jits_Phase_5,3,5,63,98,2416045540
11119,17,Jits_Phase_5,0,5,63,98,2416455928
11119,17,Jits_Phase_5,1,5,56,103,2416475708
11119,17,Jits_Phase_5,2,1,48,39,2416510664
11119,17,Jits_Phase_5,3,5,80,127,2416556616
11119,17,Jits_Phase_5,0,5,56,103,2416965940
11119,17,Jits_Phase_5,1,1,48,41,2416994688
11119,17,Jits_Phase_5,2,5,80,127,2417005872
11119,17,Jits_Phase_5,3,5,63,98,2417016068
11119,17,Jits_Phase_5,0,5,80,127,2417455588
11119,17,Jits_Phase_5,1,1,48,43,2417463812
11119,17,Jits_Phase_5,2,5,63,98,2417486156
11119,17,Jits_Phase_5,3,5,56,103,2417526092
11119,17,Jits_Phase_5,0,1,48,49,2417973460
11119,17,Jits_Phase_5,1,5,56,103,2417975800
11119,17,Jits_Phase_5,2,5,63,98,2418006296
11119,17,Jits_Phase_5,3,5,80,127,2418055820
11119,17,Jits_Phase_5,0,5,80,127,2418476380
11119,17,Jits_Phase_5,1,1,48,55,2418507220
11119,17,Jits_Phase_5,2,5,56,103,2418516460
11119,17,Jits_Phase_5,3,5,63,98,2418525760
11119,17,Jits_Phase_5,0,5,80,127,2418955772
11119,17,Jits_Phase_5,1,5,63,98,2418995708
11119,17,Jits_Phase_5,2,1,48,54,2419019952
11119,17,Jits_Phase_5,3,5,56,103,2419055940
11119,17,Jits_Phase_5,0,5,56,103,2419456260
11119,17,Jits_Phase_5,1,5,80,127,2419465708
11119,17,Jits_Phase_5,2,1,48,49,2419488976
11119,17,Jits_Phase_5,3,5,63,98,2419545416
11119,17,Jits_Phase_5,0,5,80,127,2419956068
11119,17,Jits_Phase_5,1,1,48,40,2419997348
11119,17,Jits_Phase_5,2,5,63,98,2420015432
11119,17,Jits_Phase_5,3,5,56,103,2420046076
11119,17,Jits_Phase_5,0,5,56,103,2420455760
11119,17,Jits_Phase_5,1,1,48,46,2420499808
11119,17,Jits_Phase_5,2,5,80,127,2420516168
11119,17,Jits_Phase_5,3,5,63,98,2420556104
11119,17,Jits_Phase_5,0,1,48,52,2420993932
11119,17,Jits_Phase_5,1,5,56,103,2421005668
11119,17,Jits_Phase_5,2,5,63,98,2421015860
11119,17,Jits_Phase_5,3,5,80,127,2421019000
11119,17,Jits_Phase_5,0,1,48,51,2421452668
11119,17,Jits_Phase_5,1,5,80,127,2421456376
11119,17,Jits_Phase_5,2,5,63,98,2421546232
11119,17,Jits_Phase_5,3,5,56,103,2421555740
11119,17,Jits_Phase_5,0,5,56,103,2421955896
11119,17,Jits_Phase_5,1,5,63,98,2421958992
11119,17,Jits_Phase_5,2,5,80,127,2421962188
11119,17,Jits_Phase_5,3,1,48,50,2422008020
11119,17,Jits_Phase_5,0,5,80,127,2422476104
11119,17,Jits_Phase_5,1,1,48,48,2422487316
11119,17,Jits_Phase_5,2,5,63,98,2422526224
11119,17,Jits_Phase_5,3,5,56,103,2422555920
11119,17,Jits_Phase_5,0,5,56,103,2422956688
11119,17,Jits_Phase_5,1,5,80,127,2422965764
11119,17,Jits_Phase_5,2,1,48,43,2423018556
11119,17,Jits_Phase_5,3,5,63,98,2423036332
11119,17,Jits_Phase_5,0,5,56,103,2423466348
11119,17,Jits_Phase_5,1,1,48,43,2423483092
11119,17,Jits_Phase_5,2,5,63,98,2423485752
11119,17,Jits_Phase_5,3,5,80,127,2423546212
11119,17,Jits_Phase_5,0,5,80,127,2423955996
11119,17,Jits_Phase_5,1,1,48,37,2423963452
11119,17,Jits_Phase_5,2,5,63,98,2424025596
11119,17,Jits_Phase_5,3,5,56,103,2424045832
11119,17,Jits_Phase_5,0,5,80,127,2424475920
11119,17,Jits_Phase_5,1,5,56,103,2424486116
11119,17,Jits_Phase_5,2,1,48,38,2424492896
11119,17,Jits_Phase_5,3,5,63,98,2424495632
11119,17,Jits_Phase_5,0,5,80,127,2424965568
11119,17,Jits_Phase_5,1,5,56,103,2424985952
11119,17,Jits_Phase_5,2,1,48,42,2424991240
11119,17,Jits_Phase_5,3,5,63,98,2425055772
11119,17,Jits_Phase_5,0,5,56,103,2425475444
11119,17,Jits_Phase_5,1,5,80,127,2425506240
11119,17,Jits_Phase_5,2,1,48,38,2425510932
11119,17,Jits_Phase_5,3,5,63,98,2425525644
11119,17,Jits_Phase_5,0,5,63,98,2425965844
11119,17,Jits_Phase_5,1,1,48,38,2426006348
11119,17,Jits_Phase_5,2,5,56,103,2426026524
11119,17,Jits_Phase_5,3,5,80,127,2426055976
11119,17,Jits_Phase_5,0,5,63,98,2426456676
11119,17,Jits_Phase_5,1,5,80,127,2426459816
11119,17,Jits_Phase_5,2,1,48,41,2426464672
11119,17,Jits_Phase_5,3,5,56,103,2426545752
11119,17,Jits_Phase_5,0,5,56,103,2426975600
11119,17,Jits_Phase_5,1,1,48,48,2426994984
11119,17,Jits_Phase_5,2,5,63,98,2427006464
11119,17,Jits_Phase_5,3,5,80,127,2427046324
11119,17,Jits_Phase_5,0,5,63,98,2427476412
11119,17,Jits_Phase_5,1,1,48,48,2427487852
11119,17,Jits_Phase_5,2,5,56,103,2427516196
11119,17,Jits_Phase_5,3,5,80,127,2427535828
11119,17,Jits_Phase_5,0,5,63,98,2427986280
11119,17,Jits_Phase_5,1,1,48,46,2428006708
11119,17,Jits_Phase_5,2,5,56,103,2428026284
11119,17,Jits_Phase_5,3,5,80,127,2428035580
11119,17,Jits_Phase_5,0,5,80,127,2428465652
11119,17,Jits_Phase_5,1,1,48,49,2428499116
11119,17,Jits_Phase_5,2,5,63,98,2428536152
11119,17,Jits_Phase_5,3,5,56,103,2428555712
11119,17,Jits_Phase_5,0,5,56,103,2428956132
11119,17,Jits_Phase_5,1,5,80,127,2428975616
11119,17,Jits_Phase_5,2,1,48,40,2429003596
11119,17,Jits_Phase_5,3,5,63,98,2429016668
11119,17,Jits_Phase_5,0,1,48,36,2429465028
11119,17,Jits_Phase_5,1,5,63,98,2429466592
11119,17,Jits_Phase_5,2,5,80,127,2429485560
11119,17,Jits_Phase_5,3,5,56,103,2429526544
11119,17,Jits_Phase_5,0,1,48,49,2429956032
11119,17,Jits_Phase_5,1,5,63,98,2429965896
11119,17,Jits_Phase_5,2,5,56,103,2429986060
11119,17,Jits_Phase_5,3,5,80,127,2429996552
11119,17,Jits_Phase_5,0,5,80,127,2430466672
11119,17,Jits_Phase_5,1,1,48,45,2430479632
11119,17,Jits_Phase_5,2,5,56,103,2430485728
11119,17,Jits_Phase_5,3,5,63,98,2430515628
11119,17,Jits_Phase_5,0,1,48,47,2430991668
11119,17,Jits_Phase_5,1,5,56,103,2431035976
11119,17,Jits_Phase_5,2,5,80,127,2431038892
11119,17,Jits_Phase_5,3,5,63,98,2431056212
11119,17,Jits_Phase_5,0,5,63,98,2431455544
11119,17,Jits_Phase_5,1,5,56,103,2431486416
11119,17,Jits_Phase_5,2,1,48,46,2431501092
11119,17,Jits_Phase_5,3,5,80,127,2431545700
11119,17,Jits_Phase_5,0,1,48,32,2431961020
11119,17,Jits_Phase_5,1,5,63,98,2432036520
11119,17,Jits_Phase_5,2,5,56,103,2432045524
11119,17,Jits_Phase_5,3,5,80,127,2432055644
11119,17,Jits_Phase_5,0,1,48,45,2432489632
11119,17,Jits_Phase_5,1,5,56,103,2432495952
11119,17,Jits_Phase_5,2,5,80,127,2432525652
11119,17,Jits_Phase_5,3,5,63,98,2432535996
11119,17,Jits_Phase_5,0,1,48,43,2433007816
11119,17,Jits_Phase_5,1,5,63,98,2433035516
11119,17,Jits_Phase_5,2,5,56,103,2433045860
11119,17,Jits_Phase_5,3,5,80,127,2433066392
11119,17,Jits_Phase_5,0,5,56,103,2433465796
11119,17,Jits_Phase_5,1,5,63,98,2433526112
11119,17,Jits_Phase_5,2,5,80,127,2433529696
11119,17,Jits_Phase_5,3,1,48,54,2433552844
11119,17,Jits_Phase_5,0,5,80,127,2433985852
11119,17,Jits_Phase_5,1,5,56,103,2433996272
11119,17,Jits_Phase_5,2,1,48,37,2434046148
11119,17,Jits_Phase_5,3,5,63,98,2434065896
11119,17,Jits_Phase_5,0,5,80,127,2434476552
11119,17,Jits_Phase_5,1,1,48,43,2434527472
11119,17,Jits_Phase_5,2,5,56,103,2434545928
11119,17,Jits_Phase_5,3,5,63,98,2434556196
11119,17,Jits_Phase_5,0,5,63,98,2435015952
11119,17,Jits_Phase_5,1,5,56,103,2435026224
11119,17,Jits_Phase_5,2,1,48,47,2435030764
11119,17,Jits_Phase_5,3,5,80,127,2435045704
11119,17,Jits_Phase_5,0,5,80,127,2435465512
11119,17,Jits_Phase_5,1,1,48,46,2435514636
11119,17,Jits_Phase_5,2,5,63,98,2435525892
11119,17,Jits_Phase_5,3,5,56,103,2435565828
11119,17,Jits_Phase_5,0,5,56,103,2436006404
11119,17,Jits_Phase_5,1,5,63,98,2436015628
11119,17,Jits_Phase_5,2,1,48,48,2436033572
11119,17,Jits_Phase_5,3,5,80,127,2436056532
11119,17,Jits_Phase_5,0,5,56,103,2436465940
11119,17,Jits_Phase_5,1,5,80,127,2436495688
11119,17,Jits_Phase_5,2,1,48,46,2436529744
11119,17,Jits_Phase_5,3,5,63,98,2436545880
11119,17,Jits_Phase_5,0,1,48,39,2436994296
11119,17,Jits_Phase_5,1,5,56,103,2437005704
11119,17,Jits_Phase_5,2,5,63,98,2437045568
11119,17,Jits_Phase_5,3,5,80,127,2437048928
11119,17,Jits_Phase_5,0,5,56,103,2437506428
11119,17,Jits_Phase_5,1,1,48,53,2437513760
11119,17,Jits_Phase_5,2,5,63,98,2437515496
11119,17,Jits_Phase_5,3,5,80,127,2437536028
11119,17,Jits_Phase_5,0,5,56,103,2437966408
11119,17,Jits_Phase_5,1,5,80,127,2437969548
11119,17,Jits_Phase_5,2,1,48,52,2437992820
11119,17,Jits_Phase_5,3,5,63,98,2438006116
11119,17,Jits_Phase_5,0,1,48,53,2438434812
11119,17,Jits_Phase_5,1,5,63,98,2438505860
11119,17,Jits_Phase_5,2,5,56,103,2438535520
11119,17,Jits_Phase_5,3,5,80,127,2438556052
11119,17,Jits_Phase_5,0,5,80,127,2438975800
11119,17,Jits_Phase_5,1,1,48,50,2438985616
11119,17,Jits_Phase_5,2,5,56,103,2438987260
11119,17,Jits_Phase_5,3,5,63,98,2438996480
11119,17,Jits_Phase_5,0,1,48,45,2439462628
11119,17,Jits_Phase_5,1,5,56,103,2439475556
11119,17,Jits_Phase_5,2,5,80,127,2439515492
11119,17,Jits_Phase_5,3,5,63,98,2439546512
11119,17,Jits_Phase_5,0,1,48,49,2439929024
11119,17,Jits_Phase_5,1,5,63,98,2439985420
11119,17,Jits_Phase_5,2,5,80,127,2439995612
11119,17,Jits_Phase_5,3,5,56,103,2440005884
11119,17,Jits_Phase_5,0,5,56,103,2440475956
11119,17,Jits_Phase_5,1,1,48,53,2440478696
11119,17,Jits_Phase_5,2,5,63,98,2440545632
11119,17,Jits_Phase_5,3,5,80,127,2440555752
11119,17,Jits_Phase_5,0,5,80,127,2440985912
11119,17,Jits_Phase_5,1,1,48,55,2440990228
11119,17,Jits_Phase_5,2,5,56,103,2440996176
11119,17,Jits_Phase_5,3,5,63,98,2441046596
11119,17,Jits_Phase_5,0,1,48,52,2441492444
11119,17,Jits_Phase_5,1,5,80,127,2441495780
11119,17,Jits_Phase_5,2,5,56,103,2441556316
11119,17,Jits_Phase_5,3,5,63,98,2441585992
11119,17,Jits_Phase_5,0,5,56,103,2441995612
11119,17,Jits_Phase_5,1,5,80,127,2441998824
11119,17,Jits_Phase_5,2,5,63,98,2442035472
11119,17,Jits_Phase_5,3,1,48,45,2442040084
11119,17,Jits_Phase_5,0,5,56,103,2442526008
11119,17,Jits_Phase_5,1,1,48,36,2442545912
11119,17,Jits_Phase_5,2,5,63,98,2442555748
11119,17,Jits_Phase_5,3,5,80,127,2442565944
11119,17,Jits_Phase_5,0,5,63,98,2443036112
11119,17,Jits_Phase_5,1,1,48,39,2443041696
11119,17,Jits_Phase_5,2,5,80,127,2443046600
11119,17,Jits_Phase_5,3,5,56,103,2443055448
11119,17,Jits_Phase_5,0,5,80,127,2443485496
11119,17,Jits_Phase_5,1,1,48,39,2443522544
11119,17,Jits_Phase_5,2,5,56,103,2443535788
11119,17,Jits_Phase_5,3,5,63,98,2443538852
11119,17,Jits_Phase_5,0,5,56,103,2444015892
11119,17,Jits_Phase_5,1,1,48,41,2444030096
11119,17,Jits_Phase_5,2,5,80,127,2444035372
11119,17,Jits_Phase_5,3,5,63,98,2444045664
11119,17,Jits_Phase_5,0,5,63,98,2444496252
11119,17,Jits_Phase_5,1,1,48,44,2444507836
11119,17,Jits_Phase_5,2,5,56,103,2444525920
11119,17,Jits_Phase_5,3,5,80,127,2444546524
11119,17,Jits_Phase_5,0,1,48,51,2444990188
11119,17,Jits_Phase_5,1,5,56,103,2445006404
11119,17,Jits_Phase_5,2,5,80,127,2445016376
11119,17,Jits_Phase_5,3,5,63,98,2445085988
11119,17,Jits_Phase_5,0,5,63,98,2445495748
11119,17,Jits_Phase_5,1,1,48,49,2445518272
11119,17,Jits_Phase_5,2,5,80,127,2445535680
11119,17,Jits_Phase_5,3,5,56,103,2445575468
11119,17,Jits_Phase_5,0,1,48,48,2445992832
11119,17,Jits_Phase_5,1,5,56,103,2446005608
11119,17,Jits_Phase_5,2,5,63,98,2446015952
11119,17,Jits_Phase_5,3,5,80,127,2446036332
11119,17,Jits_Phase_5,0,1,48,51,2446489140
11119,17,Jits_Phase_5,1,5,63,98,2446546556
11119,17,Jits_Phase_5,2,5,80,127,2446565748
11119,17,Jits_Phase_5,3,5,56,103,2446586428
11119,17,Jits_Phase_5,0,5,56,103,2446985564
11119,17,Jits_Phase_5,1,1,48,48,2447025696
11119,17,Jits_Phase_5,2,5,80,127,2447065576
11119,17,Jits_Phase_5,3,5,63,98,2447075624
11119,17,Jits_Phase_5,0,1,48,39,2447507996
11119,17,Jits_Phase_5,1,5,80,127,2447526380
11119,17,Jits_Phase_5,2,5,63,98,2447535528
11119,17,Jits_Phase_5,3,5,56,103,2447566396
11119,17,Jits_Phase_5,0,5,63,98,2447985980
11119,17,Jits_Phase_5,1,5,80,127,2448026068
11119,17,Jits_Phase_5,2,1,48,40,2448044704
11119,17,Jits_Phase_5,3,5,56,103,2448086376
11119,17,Jits_Phase_5,0,5,63,98,2448495924
11119,17,Jits_Phase_5,1,1,48,41,2448516432
11119,17,Jits_Phase_5,2,5,56,103,2448546416
11119,17,Jits_Phase_5,3,5,80,127,2448575796
11119,17,Jits_Phase_5,0,5,80,127,2448995680
11119,17,Jits_Phase_5,1,5,63,98,2449005952
11119,17,Jits_Phase_5,2,1,48,57,2449044660
11119,17,Jits_Phase_5,3,5,56,103,2449075472
11119,17,Jits_Phase_5,0,1,48,43,2449502376
11119,17,Jits_Phase_5,1,5,80,127,2449555676
11119,17,Jits_Phase_5,2,5,56,103,2449566020
11119,17,Jits_Phase_5,3,5,63,98,2449569384
11119,17,Jits_Phase_5,0,5,56,103,2449996316
11119,17,Jits_Phase_5,1,1,48,56,2450007532
11119,17,Jits_Phase_5,2,5,80,127,2450015724
11119,17,Jits_Phase_5,3,5,63,98,2450025768
11119,17,Jits_Phase_5,0,5,63,98,2450506200
11119,17,Jits_Phase_5,1,1,48,40,2450522428
11119,17,Jits_Phase_5,2,5,56,103,2450545984
11119,17,Jits_Phase_5,3,5,80,127,2450565544
11119,17,Jits_Phase_5,0,5,63,98,2451005732
11119,17,Jits_Phase_5,1,1,48,45,2451013484
11119,17,Jits_Phase_5,2,5,56,103,2451066408
11119,17,Jits_Phase_5,3,5,80,127,2451069476
11119,17,Jits_Phase_5,0,5,56,103,2451465548
11119,17,Jits_Phase_5,1,5,80,127,2451486304
11119,17,Jits_Phase_5,2,1,48,48,2451498340
11119,17,Jits_Phase_5,3,5,63,98,2451525864
11119,17,Jits_Phase_5,0,1,48,44,2451929512
11119,17,Jits_Phase_5,1,5,56,103,2451996240
11119,17,Jits_Phase_5,2,5,63,98,2452015432
11119,17,Jits_Phase_5,3,5,80,127,2452025688
11119,17,Jits_Phase_5,0,1,48,44,2452456540
11119,17,Jits_Phase_5,1,5,80,127,2452466152
11119,17,Jits_Phase_5,2,5,56,103,2452495628
11119,17,Jits_Phase_5,3,5,63,98,2452535564
11119,17,Jits_Phase_5,0,1,48,39,2452943312
11119,17,Jits_Phase_5,1,5,80,127,2452975868
11119,17,Jits_Phase_5,2,5,56,103,2452995576
11119,17,Jits_Phase_5,3,5,63,98,2453055824
11119,17,Jits_Phase_5,0,1,48,37,2453468396
11119,17,Jits_Phase_5,1,5,56,103,2453486028
11119,17,Jits_Phase_5,2,5,80,127,2453506488
11119,17,Jits_Phase_5,3,5,63,98,2453565688
11119,17,Jits_Phase_5,0,5,80,127,2453966304
11119,17,Jits_Phase_5,1,5,56,103,2453976348
11119,17,Jits_Phase_5,2,1,48,46,2453987416
11119,17,Jits_Phase_5,3,5,63,98,2454016356
11119,17,Jits_Phase_5,0,5,63,98,2454465916
11119,17,Jits_Phase_5,1,5,56,103,2454505852
11119,17,Jits_Phase_5,2,5,80,127,2454508992
11119,17,Jits_Phase_5,3,1,48,38,2454512260
11119,17,Jits_Phase_5,0,1,48,47,2454960748
11119,17,Jits_Phase_5,1,5,63,98,2454986176
11119,17,Jits_Phase_5,2,5,80,127,2455025964
11119,17,Jits_Phase_5,3,5,56,103,2455055664
11119,17,Jits_Phase_5,0,1,48,43,2455474844
11119,17,Jits_Phase_5,1,5,56,103,2455476416
11119,17,Jits_Phase_5,2,5,63,98,2455485788
11119,17,Jits_Phase_5,3,5,80,127,2455515384
11119,17,Jits_Phase_5,0,1,48,49,2455966576
11119,17,Jits_Phase_5,1,5,80,127,2455967768
11119,17,Jits_Phase_5,2,5,63,98,2456035652
11119,17,Jits_Phase_5,3,5,56,103,2456046144
11119,17,Jits_Phase_5,0,5,63,98,2456465732
11119,17,Jits_Phase_5,1,1,48,32,2456496352
11119,17,Jits_Phase_5,2,5,56,103,2456536380
11119,17,Jits_Phase_5,3,5,80,127,2456545600
11119,17,Jits_Phase_5,0,5,63,98,2456946452
11119,17,Jits_Phase_5,1,1,48,46,2456951220
11119,17,Jits_Phase_5,2,5,56,103,2456965560
11119,17,Jits_Phase_5,3,5,80,127,2457005348
11119,17,Jits_Phase_5,0,5,56,103,2457426280
11119,17,Jits_Phase_5,1,5,63,98,2457435428
11119,17,Jits_Phase_5,2,1,48,48,2457438472
11119,17,Jits_Phase_5,3,5,80,127,2457516332
11119,17,Jits_Phase_5,0,5,63,98,2457915708
11119,17,Jits_Phase_5,1,1,48,46,2457945608
11119,17,Jits_Phase_5,2,5,56,103,2457946868
11119,17,Jits_Phase_5,3,5,80,127,2457986360
11119,17,Jits_Phase_5,0,5,56,103,2458415456
11119,17,Jits_Phase_5,1,1,48,37,2458423452
11119,17,Jits_Phase_5,2,5,63,98,2458456432
11119,17,Jits_Phase_5,3,5,80,127,2458496444
11119,17,Jits_Phase_5,0,5,80,127,2458916188
11119,17,Jits_Phase_5,1,1,48,44,2458923216
11119,17,Jits_Phase_5,2,5,56,103,2458996424
11119,17,Jits_Phase_5,3,5,63,98,2459006248
11119,17,Jits_Phase_5,0,1,48,28,2459455348
11119,17,Jits_Phase_5,1,5,56,103,2459456940
11119,17,Jits_Phase_5,2,5,63,98,2459459692
11119,17,Jits_Phase_5,3,5,80,127,2459466220
11119,17,Jits_Phase_5,0,1,48,47,2459948176
11119,17,Jits_Phase_5,1,5,56,103,2459976144
11119,17,Jits_Phase_5,2,5,63,98,2459995484
11119,17,Jits_Phase_5,3,5,80,127,2460005676
11119,17,Jits_Phase_5,0,5,63,98,2460435748
11119,17,Jits_Phase_5,1,5,80,127,2460446316
11119,17,Jits_Phase_5,2,5,56,103,2460465504
11119,17,Jits_Phase_5,3,1,48,24,2460474244
11119,17,Jits_Phase_5,0,1,48,43,2460923736
11119,17,Jits_Phase_5,1,5,63,98,2460935392
11119,17,Jits_Phase_5,2,5,56,103,2461016324
11119,17,Jits_Phase_5,3,5,80,127,2461019544
11119,17,Jits_Phase_5,0,5,63,98,2461436260
11119,17,Jits_Phase_5,1,5,56,103,2461455700
11119,17,Jits_Phase_5,2,1,48,36,2461466764
11119,17,Jits_Phase_5,3,5,80,127,2461485364
11119,17,Jits_Phase_5,0,5,56,103,2461936160
11119,17,Jits_Phase_5,1,1,48,35,2461954900
11119,17,Jits_Phase_5,2,5,63,98,2461956464
11119,17,Jits_Phase_5,3,5,80,127,2461965640
11119,17,Jits_Phase_5,0,1,48,31,2462419400
11119,17,Jits_Phase_5,1,5,56,103,2462466328
11119,17,Jits_Phase_5,2,5,63,98,2462496252
11119,17,Jits_Phase_5,3,5,80,127,2462499540
11119,17,Jits_Phase_5,0,5,56,103,2462916032
11119,17,Jits_Phase_5,1,1,48,40,2462941248
11119,17,Jits_Phase_5,2,5,63,98,2462955812
11119,17,Jits_Phase_5,3,5,80,127,2463016372
11119,17,Jits_Phase_5,0,5,56,103,2463436100
11119,17,Jits_Phase_5,1,5,63,98,2463446296
11119,17,Jits_Phase_5,2,1,48,41,2463452404
11119,17,Jits_Phase_5,3,5,80,127,2463505800
11119,17,Jits_Phase_5,0,5,56,103,2463935864
11119,17,Jits_Phase_5,1,1,48,35,2463948496
11119,17,Jits_Phase_5,2,5,80,127,2463956316
11119,17,Jits_Phase_5,3,5,63,98,2463985988
11119,17,Jits_Phase_5,0,1,48,39,2464405108
11119,17,Jits_Phase_5,1,5,80,127,2464445664
11119,17,Jits_Phase_5,2,5,56,103,2464456380
11119,17,Jits_Phase_5,3,5,63,98,2464475492
11119,17,Jits_Phase_5,0,1,48,45,2464903956
11119,17,Jits_Phase_5,1,5,63,98,2464936268
11119,17,Jits_Phase_5,2,5,80,127,2465016272
11119,17,Jits_Phase_5,3,5,56,103,2465026316
11119,17,Jits_Phase_5,0,1,48,35,2465455552
11119,17,Jits_Phase_5,1,5,80,127,2465526224
11119,17,Jits_Phase_5,2,5,56,103,2465545584
11119,17,Jits_Phase_5,3,5,63,98,2465548500
11119,17,Jits_Phase_5,0,5,63,98,2466015560
11119,17,Jits_Phase_5,1,5,80,127,2466018924
11119,17,Jits_Phase_5,2,1,48,43,2466034268
11119,17,Jits_Phase_5,3,5,56,103,2466076188
11119,17,Jits_Phase_5,0,5,56,103,2466495896
11119,17,Jits_Phase_5,1,5,80,127,2466506316
11119,17,Jits_Phase_5,2,1,48,38,2466526968
11119,17,Jits_Phase_5,3,5,63,98,2466546172
11119,17,Jits_Phase_5,0,5,56,103,2466986296
11119,17,Jits_Phase_5,1,5,63,98,2467045640
11119,17,Jits_Phase_5,2,1,48,28,2467047576
11119,17,Jits_Phase_5,3,5,80,127,2467056052
11119,17,Jits_Phase_5,0,5,63,98,2467496248
11119,17,Jits_Phase_5,1,5,80,127,2467536188
11119,17,Jits_Phase_5,2,1,48,28,2467552108
11119,17,Jits_Phase_5,3,5,56,103,2467576192
11119,17,Jits_Phase_5,0,5,56,103,2467995924
11119,17,Jits_Phase_5,1,1,48,38,2468032900
11119,17,Jits_Phase_5,2,5,63,98,2468076160
11119,17,Jits_Phase_5,3,5,80,127,2468079372
11119,17,Jits_Phase_5,0,1,48,37,2468556368
11119,17,Jits_Phase_5,1,5,80,127,2468557860
11119,17,Jits_Phase_5,2,5,56,103,2468586108
11119,17,Jits_Phase_5,3,5,63,98,2468589100
11119,17,Jits_Phase_5,0,5,56,103,2469016256
11119,17,Jits_Phase_5,1,5,80,127,2469036272
11119,17,Jits_Phase_5,2,5,63,98,2469076280
11119,17,Jits_Phase_5,3,1,48,35,2469086300
11119,17,Jits_Phase_5,0,5,80,127,2469496244
11119,17,Jits_Phase_5,1,5,63,98,2469515512
11119,17,Jits_Phase_5,2,1,48,42,2469541248
11119,17,Jits_Phase_5,3,5,56,103,2469576188
11119,17,Jits_Phase_5,0,5,63,98,2470006024
11119,17,Jits_Phase_5,1,5,56,103,2470016296
11119,17,Jits_Phase_5,2,1,48,45,2470024220
11119,17,Jits_Phase_5,3,5,80,127,2470065664
11119,17,Jits_Phase_5,0,5,56,103,2470495660
11119,17,Jits_Phase_5,1,5,63,98,2470516192
11119,17,Jits_Phase_5,2,5,80,127,2470526312
11119,17,Jits_Phase_5,3,1,48,38,2470550256
11119,17,Jits_Phase_5,0,1,48,39,2470991336
11119,17,Jits_Phase_5,1,5,56,103,2470996228
11119,17,Jits_Phase_5,2,5,63,98,2470999300
11119,17,Jits_Phase_5,3,5,80,127,2471016016
11119,17,Jits_Phase_5,0,1,48,40,2471458108
11119,17,Jits_Phase_5,1,5,63,98,2471536200
11119,17,Jits_Phase_5,2,5,56,103,2471565712
11119,17,Jits_Phase_5,3,5,80,127,2471596360
11119,17,Jits_Phase_5,0,5,80,127,2471995880
11119,17,Jits_Phase_5,1,1,48,37,2472043336
11119,17,Jits_Phase_5,2,5,56,103,2472086076
11119,17,Jits_Phase_5,3,5,63,98,2472089068
11119,17,Jits_Phase_5,0,5,56,103,2472495636
11119,17,Jits_Phase_5,1,5,80,127,2472498628
11119,17,Jits_Phase_5,2,1,48,37,2472530292
11119,17,Jits_Phase_5,3,5,63,98,2472576320
11119,17,Jits_Phase_5,0,5,80,127,2472996140
11119,17,Jits_Phase_5,1,1,48,39,2473009820
11119,17,Jits_Phase_5,2,5,63,98,2473055476
11119,17,Jits_Phase_5,3,5,56,103,2473086196
11119,17,Jits_Phase_5,0,5,63,98,2473495904
11119,17,Jits_Phase_5,1,5,80,127,2473506028
11119,17,Jits_Phase_5,2,1,48,42,2473543444
11119,17,Jits_Phase_5,3,5,56,103,2473575920
11119,17,Jits_Phase_5,0,1,48,43,2474048288
11119,17,Jits_Phase_5,1,5,56,103,2474056032
11119,17,Jits_Phase_5,2,5,80,127,2474085932
11119,17,Jits_Phase_5,3,5,63,98,2474136128
11119,17,Jits_Phase_5,0,1,48,30,2474578300
11119,17,Jits_Phase_5,1,5,63,98,2474646128
11119,17,Jits_Phase_5,2,5,56,103,2474675560
11119,17,Jits_Phase_5,3,5,80,127,2474678552
11119,17,Jits_Phase_5,0,5,63,98,2475145580
11119,17,Jits_Phase_5,1,5,80,127,2475166112
11119,17,Jits_Phase_5,2,1,48,39,2475167076
11119,17,Jits_Phase_5,3,5,56,103,2475176300
11119,17,Jits_Phase_5,0,5,56,103,2475655520
11119,17,Jits_Phase_5,1,5,63,98,2475658660
11119,17,Jits_Phase_5,2,1,48,39,2475669424
11119,17,Jits_Phase_5,3,5,80,127,2475675972
11119,17,Jits_Phase_5,0,5,56,103,2476106056
11119,17,Jits_Phase_5,1,5,63,98,2476116476
11119,17,Jits_Phase_5,2,5,80,127,2476146076
11119,17,Jits_Phase_5,3,1,48,33,2476198188
11119,17,Jits_Phase_5,0,5,63,98,2476626344
11119,17,Jits_Phase_5,1,1,48,37,2476637180
11119,17,Jits_Phase_5,2,5,80,127,2476645676
11119,17,Jits_Phase_5,3,5,56,103,2476685612
11119,17,Jits_Phase_5,0,1,48,42,2477111148
11119,17,Jits_Phase_5,1,5,56,103,2477155984
11119,17,Jits_Phase_5,2,5,63,98,2477195768
11119,17,Jits_Phase_5,3,5,80,127,2477198984
11119,17,Jits_Phase_5,0,5,80,127,2477596024
11119,17,Jits_Phase_5,1,1,48,38,2477629184
11119,17,Jits_Phase_5,2,5,56,103,2477635956
11119,17,Jits_Phase_5,3,5,63,98,2477686008
11119,17,Jits_Phase_5,0,1,48,43,2478149320
11119,17,Jits_Phase_5,1,5,56,103,2478156092
11119,17,Jits_Phase_5,2,5,80,127,2478166512
11119,17,Jits_Phase_5,3,5,63,98,2478195964
11119,17,Jits_Phase_5,0,5,56,103,2478605880
11119,17,Jits_Phase_5,1,5,80,127,2478645596
11119,17,Jits_Phase_5,2,1,48,35,2478664980
11119,17,Jits_Phase_5,3,5,63,98,2478695936
11119,17,Jits_Phase_5,0,5,56,103,2479106368
11119,17,Jits_Phase_5,1,1,48,39,2479132580
11119,17,Jits_Phase_5,2,5,80,127,2479146400
11119,17,Jits_Phase_5,3,5,63,98,2479195552
11119,17,Jits_Phase_5,0,5,80,127,2479596092
11119,17,Jits_Phase_5,1,1,48,35,2479609772
11119,17,Jits_Phase_5,2,5,63,98,2479675980
11119,17,Jits_Phase_5,3,5,56,103,2479686028
11119,17,Jits_Phase_5,0,1,48,38,2480123988
11119,17,Jits_Phase_5,1,5,80,127,2480145852
11119,17,Jits_Phase_5,2,5,56,103,2480156196
11119,17,Jits_Phase_5,3,5,63,98,2480175460
11119,17,Jits_Phase_5,0,5,63,98,2480615844
11119,17,Jits_Phase_5,1,1,48,38,2480640612
11119,17,Jits_Phase_5,2,5,56,103,2480685392
11119,17,Jits_Phase_5,3,5,80,127,2480688384
11119,17,Jits_Phase_5,0,5,80,127,2481106292
11119,17,Jits_Phase_5,1,1,48,39,2481116384
11119,17,Jits_Phase_5,2,5,63,98,2481155368
11119,17,Jits_Phase_5,3,5,56,103,2481196300
11119,17,Jits_Phase_5,0,1,48,35,2481640184
11119,17,Jits_Phase_5,1,5,63,98,2481645908
11119,17,Jits_Phase_5,2,5,56,103,2481685876
11119,17,Jits_Phase_5,3,5,80,127,2481696216
11119,17,Jits_Phase_5,0,1,48,35,2482126088
11119,17,Jits_Phase_5,1,5,63,98,2482136300
11119,17,Jits_Phase_5,2,5,56,103,2482156008
11119,17,Jits_Phase_5,3,5,80,127,2482176320
11119,17,Jits_Phase_5,0,5,80,127,2482596200
11119,17,Jits_Phase_5,1,5,56,103,2482605424
11119,17,Jits_Phase_5,2,5,63,98,2482625808
11119,17,Jits_Phase_5,3,1,48,33,2482643600
11119,17,Jits_Phase_5,0,5,63,98,2483125704
11119,17,Jits_Phase_5,1,1,48,38,2483127788
11119,17,Jits_Phase_5,2,5,56,103,2483165412
11119,17,Jits_Phase_5,3,5,80,127,2483196204
11119,17,Jits_Phase_5,0,5,56,103,2483586572
11119,17,Jits_Phase_5,1,1,48,36,2483597112
11119,17,Jits_Phase_5,2,5,63,98,2483616092
11119,17,Jits_Phase_5,3,5,80,127,2483645916
11119,17,Jits_Phase_5,0,5,80,127,2484006112
11119,17,Jits_Phase_5,1,5,56,103,2484075864
11119,17,Jits_Phase_5,2,1,48,34,2484079152
11119,17,Jits_Phase_5,3,5,63,98,2484080416
11119,17,Jits_Phase_5,0,5,56,103,2484516280
11119,17,Jits_Phase_5,1,1,48,40,2484531004
11119,17,Jits_Phase_5,2,5,63,98,2484566252
11119,17,Jits_Phase_5,3,5,80,127,2484596148
11119,17,Jits_Phase_5,0,5,63,98,2484995420
11119,17,Jits_Phase_5,1,5,80,127,2484999188
11119,17,Jits_Phase_5,2,1,48,35,2485039088
11119,17,Jits_Phase_5,3,5,56,103,2485055972
11119,17,Jits_Phase_5,0,1,48,43,2485500064
11119,17,Jits_Phase_5,1,5,56,103,2485525816
11119,17,Jits_Phase_5,2,5,80,127,2485536308
11119,17,Jits_Phase_5,3,5,63,98,2485586360
11119,17,Jits_Phase_5,0,5,63,98,2485995956
11119,17,Jits_Phase_5,1,5,56,103,2486006228
11119,17,Jits_Phase_5,2,1,48,38,2486035852
11119,17,Jits_Phase_5,3,5,80,127,2486037188
11119,17,Jits_Phase_5,0,1,48,44,2486491768
11119,17,Jits_Phase_5,1,5,63,98,2486526184
11119,17,Jits_Phase_5,2,5,80,127,2486529776
11119,17,Jits_Phase_5,3,5,56,103,2486555888
11119,17,Jits_Phase_5,0,1,48,37,2486998852
11119,17,Jits_Phase_5,1,5,63,98,2487045784
11119,17,Jits_Phase_5,2,5,56,103,2487065964
11119,17,Jits_Phase_5,3,5,80,127,2487069180
11119,17,Jits_Phase_5,0,5,63,98,2487506416
11119,17,Jits_Phase_5,1,1,48,39,2487516512
11119,17,Jits_Phase_5,2,5,56,103,2487575896
11119,17,Jits_Phase_5,3,5,80,127,2487596352
11119,17,Jits_Phase_5,0,5,56,103,2487995908
11119,17,Jits_Phase_5,1,5,63,98,2488005956
11119,17,Jits_Phase_5,2,1,48,36,2488059940
11119,17,Jits_Phase_5,3,5,80,127,2488096100
11119,17,Jits_Phase_5,0,1,48,36,2488495348
11119,17,Jits_Phase_5,1,5,56,103,2488515900
11119,17,Jits_Phase_5,2,5,80,127,2488555912
11119,17,Jits_Phase_5,3,5,63,98,2488566032
11119,17,Jits_Phase_5,0,1,48,35,2488992460
11119,17,Jits_Phase_5,1,5,56,103,2489036028
11119,17,Jits_Phase_5,2,5,63,98,2489065704
11119,17,Jits_Phase_5,3,5,80,127,2489095684
11119,17,Jits_Phase_5,0,5,80,127,2489495852
11119,17,Jits_Phase_5,1,1,48,36,2489525576
11119,17,Jits_Phase_5,2,5,63,98,2489535784
11119,17,Jits_Phase_5,3,5,56,103,2489556244
11119,17,Jits_Phase_5,0,1,48,39,2490003908
11119,17,Jits_Phase_5,1,5,56,103,2490035692
11119,17,Jits_Phase_5,2,5,80,127,2490056004
11119,17,Jits_Phase_5,3,5,63,98,2490075488
11119,17,Jits_Phase_5,0,5,63,98,2490505784
11119,17,Jits_Phase_5,1,5,56,103,2490515760
11119,17,Jits_Phase_5,2,1,48,37,2490519924
11119,17,Jits_Phase_5,3,5,80,127,2490576360
11119,17,Jits_Phase_5,0,5,56,103,2491006428
11119,17,Jits_Phase_5,1,1,48,34,2491045516
11119,17,Jits_Phase_5,2,5,63,98,2491075880
11119,17,Jits_Phase_5,3,5,80,127,2491096636
11119,17,Jits_Phase_5,0,5,56,103,2491506124
11119,17,Jits_Phase_5,1,1,48,31,2491512828
11119,17,Jits_Phase_5,2,5,63,98,2491535716
11119,17,Jits_Phase_5,3,5,80,127,2491575652
11119,17,Jits_Phase_5,0,1,48,45,2491988176
11119,17,Jits_Phase_5,1,5,63,98,2491995692
11119,17,Jits_Phase_5,2,5,56,103,2492045892
11119,17,Jits_Phase_5,3,5,80,127,2492055940
11119,17,Jits_Phase_5,0,1,48,40,2492493752
11119,17,Jits_Phase_5,1,5,56,103,2492536196
11119,17,Jits_Phase_5,2,5,63,98,2492586324
11119,17,Jits_Phase_5,3,5,80,127,2492595756
11119,17,Jits_Phase_5,0,5,56,103,2493006288
11119,17,Jits_Phase_5,1,5,63,98,2493016412
11119,17,Jits_Phase_5,2,1,48,28,2493043964
11119,17,Jits_Phase_5,3,5,80,127,2493096272
11119,17,Jits_Phase_5,0,9999,9999,9999,2408753272
11119,17,Jits_Phase_5,1,9999,9999,9999,2409253952
11119,17,Jits_Phase_5,2,9999,9999,9999,2409753684
11119,17,Jits_Phase_5,3,9999,9999,9999,2410253408
11119,17,Jits_Phase_5,4,9999,9999,9999,2410753152
11119,17,Jits_Phase_5,5,9999,9999,9999,2411253872
11119,17,Jits_Phase_5,6,9999,9999,9999,2411753548
11119,17,Jits_Phase_5,7,9999,9999,9999,2412253240
11119,17,Jits_Phase_5,8,9999,9999,9999,2412753976
11119,17,Jits_Phase_5,9,9999,9999,9999,2413253740
11119,17,Jits_Phase_5,10,9999,9999,9999,2413753428
11119,17,Jits_Phase_5,11,9999,9999,9999,2414253116
11119,17,Jits_Phase_5,12,9999,9999,9999,2414753908
11119,17,Jits_Phase_5,13,9999,9999,9999,2415253580
11119,17,Jits_Phase_5,14,9999,9999,9999,2415753328
11119,17,Jits_Phase_5,15,9999,9999,9999,2416254064
11119,17,Jits_Phase_5,16,9999,9999,9999,2416753756
11119,17,Jits_Phase_5,17,9999,9999,9999,2417253432
11119,17,Jits_Phase_5,18,9999,9999,9999,2417753196
11119,17,Jits_Phase_5,19,9999,9999,9999,2418253932
11119,17,Jits_Phase_5,20,9999,9999,9999,2418753612
11119,17,Jits_Phase_5,21,9999,9999,9999,2419253304
11119,17,Jits_Phase_5,22,9999,9999,9999,2419754088
11119,17,Jits_Phase_5,23,9999,9999,9999,2420253780
11119,17,Jits_Phase_5,24,9999,9999,9999,2420753468
11119,17,Jits_Phase_5,25,9999,9999,9999,2421253200
11119,17,Jits_Phase_5,26,9999,9999,9999,2421753916
11119,17,Jits_Phase_5,27,9999,9999,9999,2422253640
11119,17,Jits_Phase_5,28,9999,9999,9999,2422753336
11119,17,Jits_Phase_5,29,9999,9999,9999,2423254072
11119,17,Jits_Phase_5,30,9999,9999,9999,2423753840
11119,17,Jits_Phase_5,31,9999,9999,9999,2424253532
11119,17,Jits_Phase_5,32,9999,9999,9999,2424753220
11119,17,Jits_Phase_5,33,9999,9999,9999,2425253960
11119,17,Jits_Phase_5,34,9999,9999,9999,2425753724
11119,17,Jits_Phase_5,35,9999,9999,9999,2426253412
11119,17,Jits_Phase_5,36,9999,9999,9999,2426753080
11119,17,Jits_Phase_5,37,9999,9999,9999,2427253876
11119,17,Jits_Phase_5,38,9999,9999,9999,2427753568
11119,17,Jits_Phase_5,39,9999,9999,9999,2428253248
11119,17,Jits_Phase_5,40,9999,9999,9999,2428754048
11119,17,Jits_Phase_5,41,9999,9999,9999,2429253732
11119,17,Jits_Phase_5,42,9999,9999,9999,2429753424
11119,17,Jits_Phase_5,43,9999,9999,9999,2430253168
11119,17,Jits_Phase_5,44,9999,9999,9999,2430753888
11119,17,Jits_Phase_5,45,9999,9999,9999,2431253576
11119,17,Jits_Phase_5,46,9999,9999,9999,2431753324
11119,17,Jits_Phase_5,47,9999,9999,9999,2432254028
11119,17,Jits_Phase_5,48,9999,9999,9999,2432763972
11119,17,Jits_Phase_5,49,9999,9999,9999,2433263728
11119,17,Jits_Phase_5,50,9999,9999,9999,2433763396
11119,17,Jits_Phase_5,51,9999,9999,9999,2434263160
11119,17,Jits_Phase_5,52,9999,9999,9999,2434763896
11119,17,Jits_Phase_5,53,9999,9999,9999,2435263588
11119,17,Jits_Phase_5,54,9999,9999,9999,2435763268
11119,17,Jits_Phase_5,55,9999,9999,9999,2436264008
11119,17,Jits_Phase_5,56,9999,9999,9999,2436763768
11119,17,Jits_Phase_5,57,9999,9999,9999,2437263452
11119,17,Jits_Phase_5,58,9999,9999,9999,2437763132
11119,17,Jits_Phase_5,59,9999,9999,9999,2438263928
11119,17,Jits_Phase_5,60,9999,9999,9999,2438763620
11119,17,Jits_Phase_5,61,9999,9999,9999,2439263288
11119,17,Jits_Phase_5,62,9999,9999,9999,2439764028
11119,17,Jits_Phase_5,63,9999,9999,9999,2440263776
11119,17,Jits_Phase_5,64,9999,9999,9999,2440783976
11119,17,Jits_Phase_5,65,9999,9999,9999,2441283664
11119,17,Jits_Phase_5,66,9999,9999,9999,2441783356
11119,17,Jits_Phase_5,67,9999,9999,9999,2442283092
11119,17,Jits_Phase_5,68,9999,9999,9999,2442783832
11119,17,Jits_Phase_5,69,9999,9999,9999,2443283528
11119,17,Jits_Phase_5,70,9999,9999,9999,2443783240
11119,17,Jits_Phase_5,71,9999,9999,9999,2444283980
11119,17,Jits_Phase_5,72,9999,9999,9999,2444783740
11119,17,Jits_Phase_5,73,9999,9999,9999,2445283416
11119,17,Jits_Phase_5,74,9999,9999,9999,2445783168
11119,17,Jits_Phase_5,75,9999,9999,9999,2446283888
11119,17,Jits_Phase_5,76,9999,9999,9999,2446783568
11119,17,Jits_Phase_5,77,9999,9999,9999,2447283324
11119,17,Jits_Phase_5,78,9999,9999,9999,2447784060
11119,17,Jits_Phase_5,79,9999,9999,9999,2448283740
11119,17,Jits_Phase_5,80,9999,9999,9999,2448783420
11119,17,Jits_Phase_5,81,9999,9999,9999,2449263696
11119,17,Jits_Phase_5,82,9999,9999,9999,2449763384
11119,17,Jits_Phase_5,83,9999,9999,9999,2450263136
11119,17,Jits_Phase_5,84,9999,9999,9999,2450763880
11119,17,Jits_Phase_5,85,9999,9999,9999,2451263552
11119,17,Jits_Phase_5,86,9999,9999,9999,2451763304
11119,17,Jits_Phase_5,87,9999,9999,9999,2452264040
11119,17,Jits_Phase_5,88,9999,9999,9999,2452763712
11119,17,Jits_Phase_5,89,9999,9999,9999,2453263464
11119,17,Jits_Phase_5,90,9999,9999,9999,2453763192
11119,17,Jits_Phase_5,91,9999,9999,9999,2454263908
11119,17,Jits_Phase_5,92,9999,9999,9999,2454763584
11119,17,Jits_Phase_5,93,9999,9999,9999,2455263340
11119,17,Jits_Phase_5,94,9999,9999,9999,2455764060
11119,17,Jits_Phase_5,95,9999,9999,9999,2456263736
11119,17,Jits_Phase_5,96,9999,9999,9999,2456763488
11119,17,Jits_Phase_5,97,9999,9999,9999,2457214020
11119,17,Jits_Phase_5,98,9999,9999,9999,2457713772
11119,17,Jits_Phase_5,99,9999,9999,9999,2458213464
11119,17,Jits_Phase_5,100,9999,9999,9999,2458713212
11119,17,Jits_Phase_5,101,9999,9999,9999,2459213948
11119,17,Jits_Phase_5,102,9999,9999,9999,2459713624
11119,17,Jits_Phase_5,103,9999,9999,9999,2460213304
11119,17,Jits_Phase_5,104,9999,9999,9999,2460714096
11119,17,Jits_Phase_5,105,9999,9999,9999,2461213768
11119,17,Jits_Phase_5,106,9999,9999,9999,2461713516
11119,17,Jits_Phase_5,107,9999,9999,9999,2462213240
11119,17,Jits_Phase_5,108,9999,9999,9999,2462713964
11119,17,Jits_Phase_5,109,9999,9999,9999,2463213636
11119,17,Jits_Phase_5,110,9999,9999,9999,2463713400
11119,17,Jits_Phase_5,111,9999,9999,9999,2464214140
11119,17,Jits_Phase_5,112,9999,9999,9999,2464724092
11119,17,Jits_Phase_5,113,9999,9999,9999,2465223772
11119,17,Jits_Phase_5,114,9999,9999,9999,2465773636
11119,17,Jits_Phase_5,115,9999,9999,9999,2466273376
11119,17,Jits_Phase_5,116,9999,9999,9999,2466774100
11119,17,Jits_Phase_5,117,9999,9999,9999,2467284052
11119,17,Jits_Phase_5,118,9999,9999,9999,2467783744
11119,17,Jits_Phase_5,119,9999,9999,9999,2468283488
11119,17,Jits_Phase_5,120,9999,9999,9999,2468783176
11119,17,Jits_Phase_5,121,9999,9999,9999,2469283900
11119,17,Jits_Phase_5,122,9999,9999,9999,2469783640
11119,17,Jits_Phase_5,123,9999,9999,9999,2470283328
11119,17,Jits_Phase_5,124,9999,9999,9999,2470784120
11119,17,Jits_Phase_5,125,9999,9999,9999,2471294060
11119,17,Jits_Phase_5,126,9999,9999,9999,2471793736
11119,17,Jits_Phase_5,127,9999,9999,9999,2472293480
11119,17,Jits_Phase_5,128,9999,9999,9999,2472793160
11119,17,Jits_Phase_5,129,9999,9999,9999,2473293896
11119,17,Jits_Phase_5,130,9999,9999,9999,2473793660
11119,17,Jits_Phase_5,131,9999,9999,9999,2474393720
11119,17,Jits_Phase_5,132,9999,9999,9999,2474893392
11119,17,Jits_Phase_5,133,9999,9999,9999,2475393144
11119,17,Jits_Phase_5,134,9999,9999,9999,2475893860
11119,17,Jits_Phase_5,135,9999,9999,9999,2476393548
11119,17,Jits_Phase_5,136,9999,9999,9999,2476893240
11119,17,Jits_Phase_5,137,9999,9999,9999,2477394032
11119,17,Jits_Phase_5,138,9999,9999,9999,2477893708
11119,17,Jits_Phase_5,139,9999,9999,9999,2478393400
11119,17,Jits_Phase_5,140,9999,9999,9999,2478893152
11119,17,Jits_Phase_5,141,9999,9999,9999,2479393888
11119,17,Jits_Phase_5,142,9999,9999,9999,2479893580
11119,17,Jits_Phase_5,143,9999,9999,9999,2480393276
11119,17,Jits_Phase_5,144,9999,9999,9999,2480894040
11119,17,Jits_Phase_5,145,9999,9999,9999,2481393788
11119,17,Jits_Phase_5,146,9999,9999,9999,2481893484
11119,17,Jits_Phase_5,147,9999,9999,9999,2482393160
11119,17,Jits_Phase_5,148,9999,9999,9999,2482893880
11119,17,Jits_Phase_5,149,9999,9999,9999,2483393644
11119,17,Jits_Phase_5,150,9999,9999,9999,2483793988
11119,17,Jits_Phase_5,151,9999,9999,9999,2484293744
11119,17,Jits_Phase_5,152,9999,9999,9999,2484793440
11119,17,Jits_Phase_5,153,9999,9999,9999,2485293116
11119,17,Jits_Phase_5,154,9999,9999,9999,2485793912
11119,17,Jits_Phase_5,155,9999,9999,9999,2486293584
11119,17,Jits_Phase_5,156,9999,9999,9999,2486793328
11119,17,Jits_Phase_5,157,9999,9999,9999,2487294016
11119,17,Jits_Phase_5,158,9999,9999,9999,2487793764
11119,17,Jits_Phase_5,159,9999,9999,9999,2488293440
11119,17,Jits_Phase_5,160,9999,9999,9999,2488793208
11119,17,Jits_Phase_5,161,9999,9999,9999,2489293936
11119,17,Jits_Phase_5,162,9999,9999,9999,2489793608
11119,17,Jits_Phase_5,163,9999,9999,9999,2490293304
11119,17,Jits_Phase_5,164,9999,9999,9999,2490794100
11119,17,Jits_Phase_5,165,9999,9999,9999,2491293776
11119,17,Jits_Phase_5,166,9999,9999,9999,2491793468
11119,17,Jits_Phase_5,167,9999,9999,9999,2492293232
11119,17,Jits_Phase_5,168,9999,9999,9999,2492793960
11119,17,Jits_Phase_5,169,9999,9999,9999,2493293636
11120,3,ISIP_8,0,5,42,127,2560705764
11120,3,ISIP_8,1,5,42,127,2561505740
11120,3,ISIP_8,2,1,48,41,2562283544
11120,3,ISIP_8,3,5,42,127,2562306388
11120,3,ISIP_8,4,1,48,42,2563031564
11120,3,ISIP_8,5,5,42,127,2563106120
11120,3,ISIP_8,6,1,48,39,2563831520
11120,3,ISIP_8,7,5,42,127,2563905928
11120,3,ISIP_8,8,1,48,43,2564666136
11120,3,ISIP_8,9,5,42,127,2564705736
11120,3,ISIP_8,10,1,48,40,2565471260
11120,3,ISIP_8,11,5,42,127,2565506520
11120,3,ISIP_8,12,1,48,45,2566245108
11120,3,ISIP_8,13,5,42,127,2566306104
11120,3,ISIP_8,14,1,48,42,2567080076
11120,3,ISIP_8,15,5,42,127,2567105836
11120,3,ISIP_8,16,5,42,127,2567905724
11120,3,ISIP_8,17,1,48,34,2567948588
11120,3,ISIP_8,18,1,48,21,2568406056
11120,3,ISIP_8,19,5,42,127,2568706872
11120,3,ISIP_8,20,1,48,34,2568862432
11120,3,ISIP_8,21,5,42,127,2569506012
11120,3,ISIP_8,22,1,48,35,2569517432
11120,3,ISIP_8,23,1,48,45,2570291188
11120,3,ISIP_8,24,5,42,127,2570305960
11120,3,ISIP_8,25,1,48,51,2571074996
11120,3,ISIP_8,26,5,42,127,2571105696
11120,3,ISIP_8,27,1,48,38,2571893800
11120,3,ISIP_8,28,5,42,127,2571906696
11120,3,ISIP_8,29,1,48,44,2572677524
11120,3,ISIP_8,30,5,42,127,2572706208
11120,3,ISIP_8,31,5,42,127,2573505872
11120,3,ISIP_8,32,1,48,34,2573512504
11120,3,ISIP_8,33,5,42,127,2574305680
11120,3,ISIP_8,34,1,48,35,2574348916
11120,3,ISIP_8,35,5,42,127,2575106636
11120,3,ISIP_8,36,1,48,33,2575139744
11120,3,ISIP_8,37,1,48,31,2575880748
11120,3,ISIP_8,38,5,42,127,2575906140
11120,3,ISIP_8,39,1,48,41,2576683696
11120,3,ISIP_8,40,5,42,127,2576705944
11120,3,ISIP_8,41,1,48,41,2577477296
11120,3,ISIP_8,42,5,42,127,2577505680
11120,3,ISIP_8,43,1,48,33,2578283384
11120,3,ISIP_8,44,5,42,127,2578306608
11120,3,ISIP_8,45,1,48,39,2579063900
11120,3,ISIP_8,46,5,42,127,2579106492
11120,3,ISIP_8,47,1,48,31,2579871116
11120,3,ISIP_8,48,5,42,127,2579906004
11120,3,ISIP_8,49,1,48,36,2580671296
11120,3,ISIP_8,50,5,42,127,2580705588
11120,3,ISIP_8,51,1,48,29,2581475220
11120,3,ISIP_8,52,5,42,127,2581506396
11120,3,ISIP_8,53,1,48,44,2582239948
11120,3,ISIP_8,54,5,42,127,2582306428
11120,3,ISIP_8,55,1,48,38,2583064992
11120,3,ISIP_8,56,5,42,127,2583105936
11120,3,ISIP_8,57,1,48,39,2583896884
11120,3,ISIP_8,58,5,42,127,2583905524
11120,3,ISIP_8,59,1,48,42,2584674780
11120,3,ISIP_8,60,1,48,44,2585512664
11120,3,ISIP_8,61,1,48,20,2586346352
11120,3,ISIP_8,62,1,48,27,2587167200
11120,3,ISIP_8,63,1,48,33,2588019288
11120,3,ISIP_8,64,1,48,33,2588862776
11120,3,ISIP_8,65,1,48,27,2589726704
11120,3,ISIP_8,66,1,48,40,2590550372
11120,3,ISIP_8,67,1,48,28,2591430432
11120,3,ISIP_8,68,1,48,37,2592279548
11120,3,ISIP_8,69,1,48,31,2593185644
11120,3,ISIP_8,70,1,48,33,2594017236
11120,3,ISIP_8,71,1,48,29,2594857756
11120,3,ISIP_8,72,1,48,27,2595723904
11120,3,ISIP_8,73,1,48,24,2596581152
11120,3,ISIP_8,74,1,48,27,2597404024
11120,3,ISIP_8,75,1,48,32,2598214368
11120,3,ISIP_8,76,1,48,29,2599026964
11120,3,ISIP_8,77,1,48,37,2599888032
11120,3,ISIP_8,78,1,48,38,2600749652
11120,3,ISIP_8,79,1,48,35,2601616248
11120,3,ISIP_8,80,1,48,30,2602499632
11120,3,ISIP_8,81,1,48,35,2603368248
11120,3,ISIP_8,82,1,48,35,2604252352
11120,3,ISIP_8,83,1,48,30,2605129744
11120,3,ISIP_8,84,1,48,32,2606029400
11120,3,ISIP_8,85,1,48,35,2606919888
11120,3,ISIP_8,86,1,48,35,2607803236
11120,3,ISIP_8,87,1,48,34,2608709820
11120,3,ISIP_8,88,1,48,40,2609580976
11120,3,ISIP_8,89,1,48,40,2610476992
11120,3,ISIP_8,90,1,48,39,2611384060
11120,3,ISIP_8,91,1,48,32,2612288536
11120,3,ISIP_8,92,1,48,35,2613220656
11120,3,ISIP_8,93,1,48,39,2614110468
11120,3,ISIP_8,94,1,48,39,2614987236
11120,3,ISIP_8,95,1,48,37,2615864180
11120,3,ISIP_8,96,1,48,39,2616771180
11120,3,ISIP_8,97,1,48,27,2617640796
11120,3,ISIP_8,98,1,48,36,2618520936
11120,3,ISIP_8,99,1,48,40,2619400872
11120,3,ISIP_8,100,1,48,41,2620326560
11120,3,ISIP_8,101,1,48,38,2621193104
11120,3,ISIP_8,102,1,48,37,2622037416
11120,3,ISIP_8,103,1,48,28,2622955472
11120,3,ISIP_8,104,1,48,35,2623816264
11120,3,ISIP_8,105,1,48,34,2624690568
11120,3,ISIP_8,106,1,48,41,2625567672
11120,3,ISIP_8,107,1,48,31,2626473168
11120,3,ISIP_8,108,1,48,35,2627375692
11120,3,ISIP_8,109,1,48,30,2628262856
11120,3,ISIP_8,110,1,48,37,2629151924
11120,3,ISIP_8,111,1,48,38,2630043424
11120,3,ISIP_8,112,1,48,37,2630911224
11120,3,ISIP_8,113,1,48,39,2631811852
11120,3,ISIP_8,114,1,48,36,2632728608
11120,3,ISIP_8,115,1,48,30,2633629460
11120,3,ISIP_8,116,1,48,35,2634509328
11120,3,ISIP_8,117,1,48,34,2635436508
11120,3,ISIP_8,118,1,48,39,2636279924
11120,3,ISIP_8,119,1,48,38,2637176164
11120,3,ISIP_8,120,1,48,28,2638120128
11120,3,ISIP_8,121,1,48,42,2639002736
11120,3,ISIP_8,122,1,48,45,2639875864
11120,3,ISIP_8,123,1,48,25,2640822584
11120,3,ISIP_8,124,1,48,40,2641725036
11120,3,ISIP_8,125,1,48,37,2642645116
11120,3,ISIP_8,126,1,48,40,2643541804
11120,3,ISIP_8,127,1,48,41,2644463304
11120,3,ISIP_8,128,1,48,39,2645390964
11120,3,ISIP_8,129,1,48,38,2646267964
11120,3,ISIP_8,130,1,48,43,2647133924
11120,3,ISIP_8,131,1,48,40,2648065696
11120,3,ISIP_8,132,1,48,33,2649039552
11120,3,ISIP_8,133,1,48,34,2649893384
11120,3,ISIP_8,134,1,48,43,2650763428
11120,3,ISIP_8,135,1,48,41,2651670436
11120,3,ISIP_8,136,1,48,37,2652583560
11120,3,ISIP_8,137,1,48,44,2653575708
11120,3,ISIP_8,138,1,48,40,2654479352
11120,3,ISIP_8,139,1,48,32,2655385372
11120,3,ISIP_8,140,1,48,40,2656321480
11120,3,ISIP_8,141,1,48,22,2657317584
11120,3,ISIP_8,142,1,48,41,2658239908
11120,3,ISIP_8,143,1,48,37,2659150376
11120,3,ISIP_8,144,1,48,38,2660149912
11120,3,ISIP_8,145,1,48,39,2661054284
11120,3,ISIP_8,146,1,48,44,2661967136
11120,3,ISIP_8,147,1,48,38,2662913716
11120,3,ISIP_8,148,1,48,40,2663821004
11120,3,ISIP_8,149,1,48,43,2664770216
11120,3,ISIP_8,150,1,48,44,2665668456
11120,3,ISIP_8,151,1,48,38,2666545404
11120,3,ISIP_8,152,1,48,46,2667449404
11120,3,ISIP_8,153,1,48,38,2668366584
11120,3,ISIP_8,154,1,48,41,2669285092
11120,3,ISIP_8,155,1,48,30,2670198164
11120,3,ISIP_8,156,1,48,41,2671116112
11120,3,ISIP_8,157,1,48,32,2672045768
11120,3,ISIP_8,158,1,48,35,2672982696
11120,3,ISIP_8,159,1,48,35,2673866204
11120,3,ISIP_8,160,1,48,31,2674760052
11120,3,ISIP_8,161,1,48,28,2675709920
11120,3,ISIP_8,162,1,48,38,2676653492
11120,3,ISIP_8,163,1,48,28,2677587368
11120,3,ISIP_8,164,1,48,36,2678519940
11120,3,ISIP_8,165,1,48,40,2679476544
11120,3,ISIP_8,166,1,48,38,2680387444
11120,3,ISIP_8,0,9999,9999,9999,2560703548
11120,3,ISIP_8,1,9999,9999,9999,2561503304
11120,3,ISIP_8,2,9999,9999,9999,2562304100
11120,3,ISIP_8,3,9999,9999,9999,2563103832
11120,3,ISIP_8,4,9999,9999,9999,2563903568
11120,3,ISIP_8,5,9999,9999,9999,2564703300
11120,3,ISIP_8,6,9999,9999,9999,2565504084
11120,3,ISIP_8,7,9999,9999,9999,2566303816
11120,3,ISIP_8,8,9999,9999,9999,2567103548
11120,3,ISIP_8,9,9999,9999,9999,2567903288
11120,3,ISIP_8,10,9999,9999,9999,2568704120
11120,3,ISIP_8,11,9999,9999,9999,2569503796
11120,3,ISIP_8,12,9999,9999,9999,2570303596
11120,3,ISIP_8,13,9999,9999,9999,2571103332
11120,3,ISIP_8,14,9999,9999,9999,2571904112
11120,3,ISIP_8,15,9999,9999,9999,2572703844
11120,3,ISIP_8,16,9999,9999,9999,2573503584
11120,3,ISIP_8,17,9999,9999,9999,2574303316
11120,3,ISIP_8,18,9999,9999,9999,2575104100
11120,3,ISIP_8,19,9999,9999,9999,2575903852
11120,3,ISIP_8,20,9999,9999,9999,2576703584
11120,3,ISIP_8,21,9999,9999,9999,2577503316
11120,3,ISIP_8,22,9999,9999,9999,2578304096
11120,3,ISIP_8,23,9999,9999,9999,2579103832
11120,3,ISIP_8,24,9999,9999,9999,2579903568
11120,3,ISIP_8,25,9999,9999,9999,2580703300
11120,3,ISIP_8,26,9999,9999,9999,2581504084
11120,3,ISIP_8,27,9999,9999,9999,2582303840
11120,3,ISIP_8,28,9999,9999,9999,2583103576
11120,3,ISIP_8,29,9999,9999,9999,2583903308
11120,3,ISIP_8,30,9999,9999,9999,2584704088
11120,3,ISIP_8,31,9999,9999,9999,2585503824
11120,3,ISIP_8,32,9999,9999,9999,2586303552
11120,3,ISIP_8,33,9999,9999,9999,2587103284
11120,3,ISIP_8,34,9999,9999,9999,2587904060
11120,3,ISIP_8,35,9999,9999,9999,2588703812
11120,3,ISIP_8,36,9999,9999,9999,2589503544
11120,3,ISIP_8,37,9999,9999,9999,2590303348
11120,3,ISIP_8,38,9999,9999,9999,2591104048
11120,3,ISIP_8,39,9999,9999,9999,2591903852
11120,3,ISIP_8,40,9999,9999,9999,2592703580
11120,3,ISIP_8,41,9999,9999,9999,2593503312
11120,3,ISIP_8,42,9999,9999,9999,2594304084
11120,3,ISIP_8,43,9999,9999,9999,2595103840
11120,3,ISIP_8,44,9999,9999,9999,2595903568
11120,3,ISIP_8,45,9999,9999,9999,2596703296
11120,3,ISIP_8,46,9999,9999,9999,2597504076
11120,3,ISIP_8,47,9999,9999,9999,2598303816
11120,3,ISIP_8,48,9999,9999,9999,2599103548
11120,3,ISIP_8,49,9999,9999,9999,2599903352
11120,3,ISIP_8,50,9999,9999,9999,2600704060
11120,3,ISIP_8,51,9999,9999,9999,2601503812
11120,3,ISIP_8,52,9999,9999,9999,2602303544
11120,3,ISIP_8,53,9999,9999,9999,2603103348
11120,3,ISIP_8,54,9999,9999,9999,2603904052
11120,3,ISIP_8,55,9999,9999,9999,2604703852
11120,3,ISIP_8,56,9999,9999,9999,2605503584
11120,3,ISIP_8,57,9999,9999,9999,2606303312
11120,3,ISIP_8,58,9999,9999,9999,2607104112
11120,3,ISIP_8,59,9999,9999,9999,2607903840
11120,3,ISIP_8,60,9999,9999,9999,2608703592
11120,3,ISIP_8,61,9999,9999,9999,2609503320
11120,3,ISIP_8,62,9999,9999,9999,2610304096
11120,3,ISIP_8,63,9999,9999,9999,2611103824
11120,3,ISIP_8,64,9999,9999,9999,2611903556
11120,3,ISIP_8,65,9999,9999,9999,2612703284
11120,3,ISIP_8,66,9999,9999,9999,2613504088
11120,3,ISIP_8,67,9999,9999,9999,2614303816
11120,3,ISIP_8,68,9999,9999,9999,2615103544
11120,3,ISIP_8,69,9999,9999,9999,2615903292
11120,3,ISIP_8,70,9999,9999,9999,2616704072
11120,3,ISIP_8,71,9999,9999,9999,2617503800
11120,3,ISIP_8,72,9999,9999,9999,2618303604
11120,3,ISIP_8,73,9999,9999,9999,2619103336
11120,3,ISIP_8,74,9999,9999,9999,2619904064
11120,3,ISIP_8,75,9999,9999,9999,2620703864
11120,3,ISIP_8,76,9999,9999,9999,2621503592
11120,3,ISIP_8,77,9999,9999,9999,2622303324
11120,3,ISIP_8,78,9999,9999,9999,2623104096
11120,3,ISIP_8,79,9999,9999,9999,2623903844
11120,3,ISIP_8,80,9999,9999,9999,2624703572
11120,3,ISIP_8,81,9999,9999,9999,2625503308
11120,3,ISIP_8,82,9999,9999,9999,2626304108
11120,3,ISIP_8,83,9999,9999,9999,2627103836
11120,3,ISIP_8,84,9999,9999,9999,2627903564
11120,3,ISIP_8,85,9999,9999,9999,2628703296
11120,3,ISIP_8,86,9999,9999,9999,2629504072
11120,3,ISIP_8,87,9999,9999,9999,2630303800
11120,3,ISIP_8,88,9999,9999,9999,2631103576
11120,3,ISIP_8,89,9999,9999,9999,2631903324
11120,3,ISIP_8,90,9999,9999,9999,2632704056
11120,3,ISIP_8,91,9999,9999,9999,2633503860
11120,3,ISIP_8,92,9999,9999,9999,2634303588
11120,3,ISIP_8,93,9999,9999,9999,2635103316
11120,3,ISIP_8,94,9999,9999,9999,2635904096
11120,3,ISIP_8,95,9999,9999,9999,2636703824
11120,3,ISIP_8,96,9999,9999,9999,2637503552
11120,3,ISIP_8,97,9999,9999,9999,2638303284
11120,3,ISIP_8,98,9999,9999,9999,2639104084
11120,3,ISIP_8,99,9999,9999,9999,2639903828
11120,3,ISIP_8,100,9999,9999,9999,2640703564
11120,3,ISIP_8,101,9999,9999,9999,2641503296
11120,3,ISIP_8,102,9999,9999,9999,2642304068
11120,3,ISIP_8,103,9999,9999,9999,2643103800
11120,3,ISIP_8,104,9999,9999,9999,2643903604
11120,3,ISIP_8,105,9999,9999,9999,2644703332
11120,3,ISIP_8,106,9999,9999,9999,2645504060
11120,3,ISIP_8,107,9999,9999,9999,2646303804
11120,3,ISIP_8,108,9999,9999,9999,2647103540
11120,3,ISIP_8,109,9999,9999,9999,2647903344
11120,3,ISIP_8,110,9999,9999,9999,2648704120
11120,3,ISIP_8,111,9999,9999,9999,2649503848
11120,3,ISIP_8,112,9999,9999,9999,2650303576
11120,3,ISIP_8,113,9999,9999,9999,2651103308
11120,3,ISIP_8,114,9999,9999,9999,2651904108
11120,3,ISIP_8,115,9999,9999,9999,2652703836
11120,3,ISIP_8,116,9999,9999,9999,2653503588
11120,3,ISIP_8,117,9999,9999,9999,2654303316
11120,3,ISIP_8,118,9999,9999,9999,2655104092
11120,3,ISIP_8,119,9999,9999,9999,2655903824
11120,3,ISIP_8,120,9999,9999,9999,2656703552
11120,3,ISIP_8,121,9999,9999,9999,2657503284
11120,3,ISIP_8,122,9999,9999,9999,2658304100
11120,3,ISIP_8,123,9999,9999,9999,2659103836
11120,3,ISIP_8,124,9999,9999,9999,2659903564
11120,3,ISIP_8,125,9999,9999,9999,2660703292
11120,3,ISIP_8,126,9999,9999,9999,2661504068
11120,3,ISIP_8,127,9999,9999,9999,2662303796
11120,3,ISIP_8,128,9999,9999,9999,2663103604
11120,3,ISIP_8,129,9999,9999,9999,2663903348
11120,3,ISIP_8,130,9999,9999,9999,2664704080
11120,3,ISIP_8,131,9999,9999,9999,2665503812
11120,3,ISIP_8,132,9999,9999,9999,2666303540
11120,3,ISIP_8,133,9999,9999,9999,2667103344
11120,3,ISIP_8,134,9999,9999,9999,2667904120
11120,3,ISIP_8,135,9999,9999,9999,2668703848
11120,3,ISIP_8,136,9999,9999,9999,2669503576
11120,3,ISIP_8,137,9999,9999,9999,2670303304
11120,3,ISIP_8,138,9999,9999,9999,2671104056
11120,3,ISIP_8,139,9999,9999,9999,2671903860
11120,3,ISIP_8,140,9999,9999,9999,2672703588
11120,3,ISIP_8,141,9999,9999,9999,2673503316
11120,3,ISIP_8,142,9999,9999,9999,2674304092
11120,3,ISIP_8,143,9999,9999,9999,2675103820
11120,3,ISIP_8,144,9999,9999,9999,2675903552
11120,3,ISIP_8,145,9999,9999,9999,2676703296
11120,3,ISIP_8,146,9999,9999,9999,2677504104
11120,3,ISIP_8,147,9999,9999,9999,2678303832
11120,3,ISIP_8,148,9999,9999,9999,2679103560
11120,3,ISIP_8,149,9999,9999,9999,2679903288
11121,5,ISIP_5,0,5,42,127,2706648380
11121,5,ISIP_5,1,5,42,127,2707149068
11121,5,ISIP_5,2,5,42,127,2707648856
11121,5,ISIP_5,3,5,42,127,2708148872
11121,5,ISIP_5,4,5,42,127,2708649340
11121,5,ISIP_5,5,1,48,51,2708657692
11121,5,ISIP_5,6,5,42,127,2709149108
11121,5,ISIP_5,7,1,48,52,2709157612
11121,5,ISIP_5,8,5,42,127,2709648876
11121,5,ISIP_5,9,1,48,45,2709649844
11121,5,ISIP_5,10,1,48,50,2710131552
11121,5,ISIP_5,11,5,42,127,2710148640
11121,5,ISIP_5,12,1,48,46,2710632596
11121,5,ISIP_5,13,5,42,127,2710649084
11121,5,ISIP_5,14,1,48,40,2711128920
11121,5,ISIP_5,15,5,42,127,2711148852
11121,5,ISIP_5,16,1,48,46,2711642080
11121,5,ISIP_5,17,5,42,127,2711648624
11121,5,ISIP_5,18,1,48,45,2712148468
11121,5,ISIP_5,19,5,42,127,2712149884
11121,5,ISIP_5,20,1,48,49,2712645960
11121,5,ISIP_5,21,5,42,127,2712649132
11121,5,ISIP_5,22,1,48,44,2713121568
11121,5,ISIP_5,23,5,42,127,2713148680
11121,5,ISIP_5,24,5,42,127,2713648456
11121,5,ISIP_5,25,1,48,42,2713653600
11121,5,ISIP_5,26,1,48,45,2714149124
11121,5,ISIP_5,27,5,42,127,2714150612
11121,5,ISIP_5,28,5,42,127,2714648896
11121,5,ISIP_5,29,1,48,39,2714655980
11121,5,ISIP_5,30,5,42,127,2715148516
11121,5,ISIP_5,31,1,48,41,2715159408
11121,5,ISIP_5,32,5,42,127,2715649480
11121,5,ISIP_5,33,1,48,38,2715668008
11121,5,ISIP_5,34,1,48,42,2716147028
11121,5,ISIP_5,35,5,42,127,2716148996
11121,5,ISIP_5,36,5,42,127,2716648696
11121,5,ISIP_5,37,1,48,41,2716665132
11121,5,ISIP_5,38,1,48,45,2717141844
11121,5,ISIP_5,39,5,42,127,2717148460
11121,5,ISIP_5,40,1,48,46,2717622912
11121,5,ISIP_5,41,5,42,127,2717649352
11121,5,ISIP_5,42,1,48,45,2718114908
11121,5,ISIP_5,43,5,42,127,2718149044
11121,5,ISIP_5,44,1,48,41,2718625824
11121,5,ISIP_5,45,5,42,127,2718648668
11121,5,ISIP_5,46,1,48,38,2719141444
11121,5,ISIP_5,47,5,42,127,2719149780
11121,5,ISIP_5,48,1,48,42,2719644956
11121,5,ISIP_5,49,5,42,127,2719649104
11121,5,ISIP_5,50,1,48,42,2720138892
11121,5,ISIP_5,51,5,42,127,2720148800
11121,5,ISIP_5,52,1,48,33,2720610464
11121,5,ISIP_5,53,5,42,127,2720648420
11121,5,ISIP_5,54,1,48,39,2721108732
11121,5,ISIP_5,55,5,42,127,2721149532
11121,5,ISIP_5,56,5,42,127,2721648864
11121,5,ISIP_5,57,1,48,32,2721665224
11121,5,ISIP_5,58,5,42,127,2722148852
11121,5,ISIP_5,59,1,48,37,2722151372
11121,5,ISIP_5,60,1,48,44,2722628164
11121,5,ISIP_5,61,5,42,127,2722648468
11121,5,ISIP_5,62,1,48,45,2723140572
11121,5,ISIP_5,63,5,42,127,2723149136
11121,5,ISIP_5,64,1,48,44,2723630248
11121,5,ISIP_5,65,5,42,127,2723648828
11121,5,ISIP_5,66,5,42,127,2724148532
11121,5,ISIP_5,67,1,48,35,2724153968
11121,5,ISIP_5,68,5,42,127,2724649720
11121,5,ISIP_5,69,1,48,38,2724670416
11121,5,ISIP_5,70,1,48,28,2725147076
11121,5,ISIP_5,71,5,42,127,2725149036
11121,5,ISIP_5,72,1,48,38,2725638824
11121,5,ISIP_5,73,5,42,127,2725648732
11121,5,ISIP_5,74,1,48,35,2726148284
11121,5,ISIP_5,75,5,42,127,2726149696
11121,5,ISIP_5,76,1,48,41,2726643728
11121,5,ISIP_5,77,1,48,37,2727148140
11121,5,ISIP_5,78,1,48,36,2727650824
11121,5,ISIP_5,79,1,48,36,2728162408
11121,5,ISIP_5,80,1,48,32,2728699368
11121,5,ISIP_5,81,1,48,36,2729209884
11121,5,ISIP_5,82,1,48,33,2729692816
11121,5,ISIP_5,83,1,48,35,2730236588
11121,5,ISIP_5,84,1,48,38,2730716360
11121,5,ISIP_5,85,1,48,38,2731201616
11121,5,ISIP_5,86,1,48,27,2731722396
11121,5,ISIP_5,87,1,48,26,2732228368
11121,5,ISIP_5,88,1,48,40,2732714152
11121,5,ISIP_5,89,1,48,45,2733209052
11121,5,ISIP_5,90,1,48,38,2733722280
11121,5,ISIP_5,91,1,48,35,2734261984
11121,5,ISIP_5,92,1,48,31,2734777232
11121,5,ISIP_5,93,1,48,35,2735268324
11121,5,ISIP_5,94,1,48,32,2735780504
11121,5,ISIP_5,95,1,48,28,2736270024
11121,5,ISIP_5,96,1,48,35,2736797992
11121,5,ISIP_5,97,1,48,38,2737281968
11121,5,ISIP_5,98,1,48,42,2737758172
11121,5,ISIP_5,99,1,48,36,2738250536
11121,5,ISIP_5,100,1,48,37,2738766384
11121,5,ISIP_5,101,1,48,41,2739293228
11121,5,ISIP_5,102,1,48,32,2739774520
11121,5,ISIP_5,103,1,48,35,2740301284
11121,5,ISIP_5,104,1,48,37,2740803596
11121,5,ISIP_5,105,1,48,39,2741301636
11121,5,ISIP_5,106,1,48,41,2741816284
11121,5,ISIP_5,107,1,48,40,2742320692
11121,5,ISIP_5,108,1,48,40,2742855608
11121,5,ISIP_5,109,1,48,38,2743370336
11121,5,ISIP_5,110,1,48,43,2743857240
11121,5,ISIP_5,111,1,48,38,2744374204
11121,5,ISIP_5,112,1,48,35,2744905088
11121,5,ISIP_5,113,1,48,32,2745444196
11121,5,ISIP_5,114,1,48,31,2745964980
11121,5,ISIP_5,115,1,48,45,2746440656
11121,5,ISIP_5,116,1,48,41,2746960692
11121,5,ISIP_5,117,1,48,42,2747485372
11121,5,ISIP_5,118,1,48,45,2748017520
11121,5,ISIP_5,119,1,48,39,2748529704
11121,5,ISIP_5,120,1,48,47,2749017128
11121,5,ISIP_5,121,1,48,46,2749532148
11121,5,ISIP_5,122,1,48,45,2750032964
11121,5,ISIP_5,123,1,48,39,2750545744
11121,5,ISIP_5,124,1,48,45,2751089416
11121,5,ISIP_5,125,1,48,40,2751591876
11121,5,ISIP_5,126,1,48,37,2752110792
11121,5,ISIP_5,127,1,48,41,2752620876
11121,5,ISIP_5,128,1,48,41,2753115556
11121,5,ISIP_5,129,1,48,38,2753634992
11121,5,ISIP_5,130,1,48,42,2754135208
11121,5,ISIP_5,131,1,48,43,2754616724
11121,5,ISIP_5,132,1,48,45,2755116936
11121,5,ISIP_5,133,1,48,38,2755646320
11121,5,ISIP_5,134,1,48,43,2756148272
11121,5,ISIP_5,135,1,48,46,2756659628
11121,5,ISIP_5,136,1,48,44,2757158348
11121,5,ISIP_5,137,1,48,46,2757643208
11121,5,ISIP_5,138,1,48,40,2758156156
11121,5,ISIP_5,139,1,48,43,2758647368
11121,5,ISIP_5,140,1,48,37,2759154992
11121,5,ISIP_5,141,1,48,51,2759631928
11121,5,ISIP_5,142,1,48,43,2760111424
11121,5,ISIP_5,143,1,48,36,2760646720
11121,5,ISIP_5,144,1,48,41,2761170356
11121,5,ISIP_5,145,1,48,33,2761680292
11121,5,ISIP_5,146,1,48,43,2762183644
11121,5,ISIP_5,147,1,48,52,2762676460
11121,5,ISIP_5,148,1,48,47,2763181160
11121,5,ISIP_5,149,1,48,45,2763707480
11121,5,ISIP_5,150,1,48,49,2764202380
11121,5,ISIP_5,151,1,48,43,2764745452
11121,5,ISIP_5,152,1,48,45,2765243648
11121,5,ISIP_5,153,1,48,53,2765737204
11121,5,ISIP_5,154,1,48,50,2766242128
11121,5,ISIP_5,155,1,48,46,2766758720
11121,5,ISIP_5,156,1,48,45,2767256624
11121,5,ISIP_5,157,1,48,47,2767756760
11121,5,ISIP_5,158,1,48,45,2768272680
11121,5,ISIP_5,159,1,48,46,2768785012
11121,5,ISIP_5,160,1,48,44,2769270792
11121,5,ISIP_5,161,1,48,42,2769799208
11121,5,ISIP_5,162,1,48,34,2770312804
11121,5,ISIP_5,163,1,48,39,2770791252
11121,5,ISIP_5,164,1,48,39,2771257512
11121,5,ISIP_5,165,1,48,38,2771801628
11121,5,ISIP_5,166,1,48,43,2772302292
11121,5,ISIP_5,167,1,48,39,2772805952
11121,5,ISIP_5,168,1,48,43,2773284548
11121,5,ISIP_5,169,1,48,40,2773814608
11121,5,ISIP_5,170,1,48,42,2774332920
11121,5,ISIP_5,171,1,48,38,2774841660
11121,5,ISIP_5,172,1,48,40,2775346812
11121,5,ISIP_5,173,1,48,45,2775862880
11121,5,ISIP_5,174,1,48,45,2776345148
11121,5,ISIP_5,175,1,48,39,2776893004
11121,5,ISIP_5,176,1,48,46,2777404140
11121,5,ISIP_5,177,1,48,32,2777962548
11121,5,ISIP_5,178,1,48,43,2778454164
11121,5,ISIP_5,179,1,48,45,2778933284
11121,5,ISIP_5,180,1,48,44,2779423100
11121,5,ISIP_5,181,1,48,44,2779909924
11121,5,ISIP_5,182,1,48,44,2780404208
11121,5,ISIP_5,183,1,48,45,2780916764
11121,5,ISIP_5,184,1,48,46,2781425276
11121,5,ISIP_5,185,1,48,42,2781931848
11121,5,ISIP_5,186,1,48,37,2782475620
11121,5,ISIP_5,187,1,48,42,2782994008
11121,5,ISIP_5,188,1,48,43,2783479988
11121,5,ISIP_5,189,1,48,41,2784017600
11121,5,ISIP_5,190,1,48,31,2784532172
11121,5,ISIP_5,191,1,48,44,2785031864
11121,5,ISIP_5,192,1,48,41,2785516344
11121,5,ISIP_5,193,1,48,48,2786012144
11121,5,ISIP_5,194,1,48,34,2786549680
11121,5,ISIP_5,0,9999,9999,9999,2706646092
11121,5,ISIP_5,1,9999,9999,9999,2707146856
11121,5,ISIP_5,2,9999,9999,9999,2707646572
11121,5,ISIP_5,3,9999,9999,9999,2708146288
11121,5,ISIP_5,4,9999,9999,9999,2708646976
11121,5,ISIP_5,5,9999,9999,9999,2709146672
11121,5,ISIP_5,6,9999,9999,9999,2709646444
11121,5,ISIP_5,7,9999,9999,9999,2710146132
11121,5,ISIP_5,8,9999,9999,9999,2710646872
11121,5,ISIP_5,9,9999,9999,9999,2711146568
11121,5,ISIP_5,10,9999,9999,9999,2711646260
11121,5,ISIP_5,11,9999,9999,9999,2712147008
11121,5,ISIP_5,12,9999,9999,9999,2712646772
11121,5,ISIP_5,13,9999,9999,9999,2713146468
11121,5,ISIP_5,14,9999,9999,9999,2713646172
11121,5,ISIP_5,15,9999,9999,9999,2714146912
11121,5,ISIP_5,16,9999,9999,9999,2714646608
11121,5,ISIP_5,17,9999,9999,9999,2715146304
11121,5,ISIP_5,18,9999,9999,9999,2715647044
11121,5,ISIP_5,19,9999,9999,9999,2716146740
11121,5,ISIP_5,20,9999,9999,9999,2716646484
11121,5,ISIP_5,21,9999,9999,9999,2717146176
11121,5,ISIP_5,22,9999,9999,9999,2717646916
11121,5,ISIP_5,23,9999,9999,9999,2718146612
11121,5,ISIP_5,24,9999,9999,9999,2718646380
11121,5,ISIP_5,25,9999,9999,9999,2719147124
11121,5,ISIP_5,26,9999,9999,9999,2719646816
11121,5,ISIP_5,27,9999,9999,9999,2720146512
11121,5,ISIP_5,28,9999,9999,9999,2720646208
11121,5,ISIP_5,29,9999,9999,9999,2721146948
11121,5,ISIP_5,30,9999,9999,9999,2721646652
11121,5,ISIP_5,31,9999,9999,9999,2722146420
11121,5,ISIP_5,32,9999,9999,9999,2722646108
11121,5,ISIP_5,33,9999,9999,9999,2723146848
11121,5,ISIP_5,34,9999,9999,9999,2723646544
11121,5,ISIP_5,35,9999,9999,9999,2724146244
11121,5,ISIP_5,36,9999,9999,9999,2724646984
11121,5,ISIP_5,37,9999,9999,9999,2725146700
11121,5,ISIP_5,38,9999,9999,9999,2725646448
11121,5,ISIP_5,39,9999,9999,9999,2726146148
11121,5,ISIP_5,40,9999,9999,9999,2726646860
11121,5,ISIP_5,41,9999,9999,9999,2727146556
11121,5,ISIP_5,42,9999,9999,9999,2727646320
11121,5,ISIP_5,43,9999,9999,9999,2728147056
11121,5,ISIP_5,44,9999,9999,9999,2728646748
11121,5,ISIP_5,45,9999,9999,9999,2729146436
11121,5,ISIP_5,46,9999,9999,9999,2729646128
11121,5,ISIP_5,47,9999,9999,9999,2730146864
11121,5,ISIP_5,48,9999,9999,9999,2730646632
11121,5,ISIP_5,49,9999,9999,9999,2731146324
11121,5,ISIP_5,50,9999,9999,9999,2731647060
11121,5,ISIP_5,51,9999,9999,9999,2732146748
11121,5,ISIP_5,52,9999,9999,9999,2732646516
11121,5,ISIP_5,53,9999,9999,9999,2733146204
11121,5,ISIP_5,54,9999,9999,9999,2733646944
11121,5,ISIP_5,55,9999,9999,9999,2734146632
11121,5,ISIP_5,56,9999,9999,9999,2734646324
11121,5,ISIP_5,57,9999,9999,9999,2735147064
11121,5,ISIP_5,58,9999,9999,9999,2735646824
11121,5,ISIP_5,59,9999,9999,9999,2736146516
11121,5,ISIP_5,60,9999,9999,9999,2736646208
11121,5,ISIP_5,61,9999,9999,9999,2737146944
11121,5,ISIP_5,62,9999,9999,9999,2737646688
11121,5,ISIP_5,63,9999,9999,9999,2738146376
11121,5,ISIP_5,64,9999,9999,9999,2738646068
11121,5,ISIP_5,65,9999,9999,9999,2739146804
11121,5,ISIP_5,66,9999,9999,9999,2739646572
11121,5,ISIP_5,67,9999,9999,9999,2740146260
11121,5,ISIP_5,68,9999,9999,9999,2740647000
11121,5,ISIP_5,69,9999,9999,9999,2741146692
11121,5,ISIP_5,70,9999,9999,9999,2741646456
11121,5,ISIP_5,71,9999,9999,9999,2742146144
11121,5,ISIP_5,72,9999,9999,9999,2742646884
11121,5,ISIP_5,73,9999,9999,9999,2743146576
11121,5,ISIP_5,74,9999,9999,9999,2743646264
11121,5,ISIP_5,75,9999,9999,9999,2744147004
11121,5,ISIP_5,76,9999,9999,9999,2744646768
11121,5,ISIP_5,77,9999,9999,9999,2745146460
11121,5,ISIP_5,78,9999,9999,9999,2745646152
11121,5,ISIP_5,79,9999,9999,9999,2746146888
11121,5,ISIP_5,80,9999,9999,9999,2746646580
11121,5,ISIP_5,81,9999,9999,9999,2747146344
11121,5,ISIP_5,82,9999,9999,9999,2747647080
11121,5,ISIP_5,83,9999,9999,9999,2748146748
11121,5,ISIP_5,84,9999,9999,9999,2748646512
11121,5,ISIP_5,85,9999,9999,9999,2749146204
11121,5,ISIP_5,86,9999,9999,9999,2749646940
11121,5,ISIP_5,87,9999,9999,9999,2750146632
11121,5,ISIP_5,88,9999,9999,9999,2750646324
11121,5,ISIP_5,89,9999,9999,9999,2751147080
11121,5,ISIP_5,90,9999,9999,9999,2751646768
11121,5,ISIP_5,91,9999,9999,9999,2752146532
11121,5,ISIP_5,92,9999,9999,9999,2752646224
11121,5,ISIP_5,93,9999,9999,9999,2753146960
11121,5,ISIP_5,94,9999,9999,9999,2753646652
11121,5,ISIP_5,95,9999,9999,9999,2754146416
11121,5,ISIP_5,96,9999,9999,9999,2754646108
11121,5,ISIP_5,97,9999,9999,9999,2755146848
11121,5,ISIP_5,98,9999,9999,9999,2755646536
11121,5,ISIP_5,99,9999,9999,9999,2756146236
11121,5,ISIP_5,100,9999,9999,9999,2756646972
11121,5,ISIP_5,101,9999,9999,9999,2757146736
11121,5,ISIP_5,102,9999,9999,9999,2757646420
11121,5,ISIP_5,103,9999,9999,9999,2758146116
11121,5,ISIP_5,104,9999,9999,9999,2758646848
11121,5,ISIP_5,105,9999,9999,9999,2759146596
11121,5,ISIP_5,106,9999,9999,9999,2759646280
11121,5,ISIP_5,107,9999,9999,9999,2760147016
11121,5,ISIP_5,108,9999,9999,9999,2760646780
11121,5,ISIP_5,109,9999,9999,9999,2761146480
11121,5,ISIP_5,110,9999,9999,9999,2761646168
11121,5,ISIP_5,111,9999,9999,9999,2762146904
11121,5,ISIP_5,112,9999,9999,9999,2762646596
11121,5,ISIP_5,113,9999,9999,9999,2763146288
11121,5,ISIP_5,114,9999,9999,9999,2763647024
11121,5,ISIP_5,115,9999,9999,9999,2764146788
11121,5,ISIP_5,116,9999,9999,9999,2764646480
11121,5,ISIP_5,117,9999,9999,9999,2765146172
11121,5,ISIP_5,118,9999,9999,9999,2765646908
11121,5,ISIP_5,119,9999,9999,9999,2766146672
11121,5,ISIP_5,120,9999,9999,9999,2766646364
11121,5,ISIP_5,121,9999,9999,9999,2767147100
11121,5,ISIP_5,122,9999,9999,9999,2767646792
11121,5,ISIP_5,123,9999,9999,9999,2768146480
11121,5,ISIP_5,124,9999,9999,9999,2768646244
11121,5,ISIP_5,125,9999,9999,9999,2769146984
11121,5,ISIP_5,126,9999,9999,9999,2769646652
11121,5,ISIP_5,127,9999,9999,9999,2770146416
11121,5,ISIP_5,128,9999,9999,9999,2770646108
11121,5,ISIP_5,129,9999,9999,9999,2771146844
11121,5,ISIP_5,130,9999,9999,9999,2771646532
11121,5,ISIP_5,131,9999,9999,9999,2772146224
11121,5,ISIP_5,132,9999,9999,9999,2772646964
11121,5,ISIP_5,133,9999,9999,9999,2773146728
11121,5,ISIP_5,134,9999,9999,9999,2773646420
11121,5,ISIP_5,135,9999,9999,9999,2774146108
11121,5,ISIP_5,136,9999,9999,9999,2774646848
11121,5,ISIP_5,137,9999,9999,9999,2775146612
11121,5,ISIP_5,138,9999,9999,9999,2775646300
11121,5,ISIP_5,139,9999,9999,9999,2776147040
11121,5,ISIP_5,140,9999,9999,9999,2776646732
11121,5,ISIP_5,141,9999,9999,9999,2777146424
11121,5,ISIP_5,142,9999,9999,9999,2777646188
11121,5,ISIP_5,143,9999,9999,9999,2778146924
11121,5,ISIP_5,144,9999,9999,9999,2778646616
11121,5,ISIP_5,145,9999,9999,9999,2779146308
11121,5,ISIP_5,146,9999,9999,9999,2779647044
11121,5,ISIP_5,147,9999,9999,9999,2780146784
11121,5,ISIP_5,148,9999,9999,9999,2780646476
11121,5,ISIP_5,149,9999,9999,9999,2781146164
11121,5,ISIP_5,150,9999,9999,9999,2781646904
11121,5,ISIP_5,151,9999,9999,9999,2782146668
11121,5,ISIP_5,152,9999,9999,9999,2782646356
11121,5,ISIP_5,153,9999,9999,9999,2783147096
11121,5,ISIP_5,154,9999,9999,9999,2783646832
11121,5,ISIP_5,155,9999,9999,9999,2784146524
11121,5,ISIP_5,156,9999,9999,9999,2784646216
11121,5,ISIP_5,157,9999,9999,9999,2785146956
11121,5,ISIP_5,158,9999,9999,9999,2785646644
11121,5,ISIP_5,159,9999,9999,9999,2786146408
11122,11,Pattern_Practice,0,5,42,127,2887695680
11122,11,Pattern_Practice,1,1,38,28,2888078196
11122,11,Pattern_Practice,2,5,42,127,2888195304
11122,11,Pattern_Practice,3,1,38,19,2888677452
11122,11,Pattern_Practice,4,5,42,127,2888696428
11122,11,Pattern_Practice,5,5,42,127,2889196108
11122,11,Pattern_Practice,6,1,38,37,2889197000
11122,11,Pattern_Practice,7,5,42,127,2889695732
11122,11,Pattern_Practice,8,1,48,45,2889752804
11122,11,Pattern_Practice,9,1,38,14,2890062992
11122,11,Pattern_Practice,10,5,42,127,2890196224
11122,11,Pattern_Practice,11,1,48,26,2890376788
11122,11,Pattern_Practice,12,5,42,127,2890696144
11122,11,Pattern_Practice,13,1,48,39,2891022588
11122,11,Pattern_Practice,14,5,42,127,2891195616
11122,11,Pattern_Practice,15,1,48,38,2891359572
11122,11,Pattern_Practice,16,5,42,127,2891695456
11122,11,Pattern_Practice,17,1,38,43,2891706728
11122,11,Pattern_Practice,18,1,38,42,2892039756
11122,11,Pattern_Practice,19,5,42,127,2892196252
11122,11,Pattern_Practice,20,1,38,29,2892229740
11122,11,Pattern_Practice,21,1,48,49,2892600012
11122,11,Pattern_Practice,22,5,42,127,2892696444
11122,11,Pattern_Practice,23,1,48,45,2892778852
11122,11,Pattern_Practice,24,1,48,51,2893073056
11122,11,Pattern_Practice,25,5,42,127,2893195596
11122,11,Pattern_Practice,26,1,38,38,2893448112
11122,11,Pattern_Practice,27,5,42,127,2893696488
11122,11,Pattern_Practice,28,1,38,41,2893790784
11122,11,Pattern_Practice,29,5,42,127,2894196180
11122,11,Pattern_Practice,30,1,48,20,2894206108
11122,11,Pattern_Practice,31,5,42,127,2894696024
11122,11,Pattern_Practice,32,1,48,26,2894853024
11122,11,Pattern_Practice,33,5,42,127,2895195720
11122,11,Pattern_Practice,34,5,42,127,2895696188
11122,11,Pattern_Practice,35,5,42,127,2896196128
11122,11,Pattern_Practice,36,1,48,50,2896234776
11122,11,Pattern_Practice,37,1,48,38,2896547208
11122,11,Pattern_Practice,38,5,42,127,2896695576
11122,11,Pattern_Practice,39,1,38,52,2896890648
11122,11,Pattern_Practice,40,1,48,50,2896893844
11122,11,Pattern_Practice,41,5,42,127,2897196492
11122,11,Pattern_Practice,42,1,48,29,2897230428
11122,11,Pattern_Practice,43,1,48,36,2897428720
11122,11,Pattern_Practice,44,5,42,127,2897696316
11122,11,Pattern_Practice,45,1,48,30,2897744388
11122,11,Pattern_Practice,46,1,48,38,2897902640
11122,11,Pattern_Practice,47,5,42,127,2898195988
11122,11,Pattern_Practice,48,1,48,49,2898212048
11122,11,Pattern_Practice,49,1,38,46,2898236036
11122,11,Pattern_Practice,50,1,48,35,2898542160
11122,11,Pattern_Practice,51,5,42,127,2898695540
11122,11,Pattern_Practice,52,1,48,32,2898876900
11122,11,Pattern_Practice,53,5,42,127,2899196208
11122,11,Pattern_Practice,54,1,48,32,2899204036
11122,11,Pattern_Practice,55,1,48,55,2899539508
11122,11,Pattern_Practice,56,1,38,59,2899560732
11122,11,Pattern_Practice,57,5,42,127,2899696108
11122,11,Pattern_Practice,58,1,48,34,2899867444
11122,11,Pattern_Practice,59,1,48,37,2900071420
11122,11,Pattern_Practice,60,5,42,127,2900195980
11122,11,Pattern_Practice,61,1,48,34,2900368468
11122,11,Pattern_Practice,62,1,48,37,2900540432
11122,11,Pattern_Practice,63,5,42,127,2900696400
11122,11,Pattern_Practice,64,1,48,48,2900847120
11122,11,Pattern_Practice,65,1,38,57,2900876572
11122,11,Pattern_Practice,66,1,48,27,2901192412
11122,11,Pattern_Practice,67,5,42,127,2901196264
11122,11,Pattern_Practice,68,1,48,34,2901637284
11122,11,Pattern_Practice,69,5,42,127,2901696108
11122,11,Pattern_Practice,70,5,42,127,2902195436
11122,11,Pattern_Practice,71,1,38,40,2902566532
11122,11,Pattern_Practice,72,5,42,127,2902696328
11122,11,Pattern_Practice,73,1,38,24,2902953260
11122,11,Pattern_Practice,74,1,38,29,2903133304
11122,11,Pattern_Practice,75,5,42,127,2903196092
11122,11,Pattern_Practice,76,1,38,13,2903438272
11122,11,Pattern_Practice,77,5,42,127,2903695848
11122,11,Pattern_Practice,78,1,38,25,2903874920
11122,11,Pattern_Practice,79,1,38,22,2904084508
11122,11,Pattern_Practice,80,5,42,127,2904195376
11122,11,Pattern_Practice,81,1,38,22,2904289672
11122,11,Pattern_Practice,82,1,38,18,2904477040
11122,11,Pattern_Practice,83,1,38,20,2904665832
11122,11,Pattern_Practice,84,5,42,127,2904696308
11122,11,Pattern_Practice,85,1,38,20,2904857040
11122,11,Pattern_Practice,86,1,38,15,2905063836
11122,11,Pattern_Practice,87,5,42,127,2905195896
11122,11,Pattern_Practice,88,1,38,18,2905244340
11122,11,Pattern_Practice,89,5,42,127,2905695740
11122,11,Pattern_Practice,90,1,38,23,2905888120
11122,11,Pattern_Practice,91,5,42,127,2906196480
11122,11,Pattern_Practice,92,5,42,127,2906696048
11122,11,Pattern_Practice,93,1,38,29,2907190788
11122,11,Pattern_Practice,94,5,42,127,2907195832
11122,11,Pattern_Practice,95,1,38,40,2907654356
11122,11,Pattern_Practice,96,5,42,127,2907695600
11122,11,Pattern_Practice,97,1,38,39,2908131956
11122,11,Pattern_Practice,98,5,42,127,2908196120
11122,11,Pattern_Practice,99,1,38,35,2908646836
11122,11,Pattern_Practice,100,5,42,127,2908695888
11122,11,Pattern_Practice,101,1,38,38,2909143912
11122,11,Pattern_Practice,102,5,42,127,2909195732
11122,11,Pattern_Practice,103,1,38,16,2909393604
11122,11,Pattern_Practice,104,1,38,43,2909691932
11122,11,Pattern_Practice,105,5,42,127,2909696304
11122,11,Pattern_Practice,106,1,38,21,2910119492
11122,11,Pattern_Practice,107,5,42,127,2910196072
11122,11,Pattern_Practice,108,1,38,21,2910425060
11122,11,Pattern_Practice,109,1,38,23,2910558056
11122,11,Pattern_Practice,110,5,42,127,2910695928
11122,11,Pattern_Practice,111,1,38,37,2910814488
11122,11,Pattern_Practice,112,5,42,127,2911195700
11122,11,Pattern_Practice,113,1,38,15,2911357116
11122,11,Pattern_Practice,114,1,38,21,2911675832
11122,11,Pattern_Practice,115,5,42,127,2911696212
11122,11,Pattern_Practice,116,1,38,50,2911951932
11122,11,Pattern_Practice,117,5,42,127,2912195816
11122,11,Pattern_Practice,118,1,38,29,2912242416
11122,11,Pattern_Practice,119,1,38,35,2912373816
11122,11,Pattern_Practice,120,1,38,34,2912680636
11122,11,Pattern_Practice,121,5,42,127,2912695632
11122,11,Pattern_Practice,122,1,38,35,2912815892
11122,11,Pattern_Practice,123,1,38,47,2913098032
11122,11,Pattern_Practice,124,5,42,127,2913196336
11122,11,Pattern_Practice,125,1,38,26,2913389312
11122,11,Pattern_Practice,126,1,38,19,2913652232
11122,11,Pattern_Practice,127,5,42,127,2913696024
11122,11,Pattern_Practice,128,1,38,15,2913930428
11122,11,Pattern_Practice,129,5,42,127,2914195852
11122,11,Pattern_Practice,130,1,38,49,2914217148
11122,11,Pattern_Practice,131,1,38,26,2914495848
11122,11,Pattern_Practice,132,1,38,27,2914642004
11122,11,Pattern_Practice,133,5,42,127,2914695668
11122,11,Pattern_Practice,134,1,38,25,2914902916
11122,11,Pattern_Practice,135,1,38,34,2915063140
11122,11,Pattern_Practice,136,5,42,127,2915196300
11122,11,Pattern_Practice,137,1,38,43,2915364076
11122,11,Pattern_Practice,138,1,48,47,2915664540
11122,11,Pattern_Practice,139,5,42,127,2915695988
11122,11,Pattern_Practice,140,5,42,127,2916195836
11122,11,Pattern_Practice,141,1,48,34,2916323944
11122,11,Pattern_Practice,142,5,42,127,2916696576
11122,11,Pattern_Practice,143,1,48,30,2916812640
11122,11,Pattern_Practice,144,5,42,127,2917196048
11122,11,Pattern_Practice,145,1,48,38,2917273816
11122,11,Pattern_Practice,146,5,42,127,2917695892
11122,11,Pattern_Practice,147,1,48,26,2917700208
11122,11,Pattern_Practice,148,1,48,35,2918194536
11122,11,Pattern_Practice,149,5,42,127,2918196024
11122,11,Pattern_Practice,150,1,48,38,2918689628
11122,11,Pattern_Practice,151,5,42,127,2918696248
11122,11,Pattern_Practice,152,1,48,39,2919163968
11122,11,Pattern_Practice,153,5,42,127,2919195868
11122,11,Pattern_Practice,154,1,48,46,2919672864
11122,11,Pattern_Practice,155,5,42,127,2919695708
11122,11,Pattern_Practice,156,1,48,24,2919950080
11122,11,Pattern_Practice,157,5,42,127,2920195388
11122,11,Pattern_Practice,158,1,48,27,2920203744
11122,11,Pattern_Practice,159,1,48,24,2920456264
11122,11,Pattern_Practice,160,5,42,127,2920696108
11122,11,Pattern_Practice,161,1,48,44,2920729672
11122,11,Pattern_Practice,162,1,48,27,2920960720
11122,11,Pattern_Practice,163,5,42,127,2921195832
11122,11,Pattern_Practice,164,1,48,27,2921213780
11122,11,Pattern_Practice,165,1,48,31,2921464060
11122,11,Pattern_Practice,166,5,42,127,2921695652
11122,11,Pattern_Practice,167,1,48,45,2921731032
11122,11,Pattern_Practice,168,1,48,45,2921752780
11122,11,Pattern_Practice,169,1,48,26,2921980168
11122,11,Pattern_Practice,170,5,42,127,2922196200
11122,11,Pattern_Practice,171,1,48,28,2922211588
11122,11,Pattern_Practice,172,1,48,35,2922457820
11122,11,Pattern_Practice,173,5,42,127,2922696096
11122,11,Pattern_Practice,174,1,48,46,2922719932
11122,11,Pattern_Practice,175,1,48,23,2922982776
11122,11,Pattern_Practice,176,5,42,127,2923195696
11122,11,Pattern_Practice,177,1,48,23,2923214668
11122,11,Pattern_Practice,178,1,48,29,2923469504
11122,11,Pattern_Practice,179,5,42,127,2923695440
11122,11,Pattern_Practice,180,1,48,42,2923719352
11122,11,Pattern_Practice,181,1,48,30,2923945692
11122,11,Pattern_Practice,182,5,42,127,2924196160
11122,11,Pattern_Practice,183,1,48,46,2924238696
11122,11,Pattern_Practice,184,1,38,45,2924279856
11122,11,Pattern_Practice,185,1,48,27,2924488792
11122,11,Pattern_Practice,186,5,42,127,2924696020
11122,11,Pattern_Practice,187,1,48,26,2924711336
11122,11,Pattern_Practice,188,1,48,28,2924949568
11122,11,Pattern_Practice,189,5,42,127,2925195768
11122,11,Pattern_Practice,190,1,48,46,2925211680
11122,11,Pattern_Practice,191,1,38,44,2925219660
11122,11,Pattern_Practice,192,1,48,32,2925466020
11122,11,Pattern_Practice,193,5,42,127,2925696516
11122,11,Pattern_Practice,194,1,48,29,2925719156
11122,11,Pattern_Practice,195,1,48,34,2925944004
11122,11,Pattern_Practice,196,5,42,127,2926195964
11122,11,Pattern_Practice,197,1,48,47,2926210752
11122,11,Pattern_Practice,198,1,38,57,2926234592
11122,11,Pattern_Practice,199,1,48,34,2926445888
11122,11,Pattern_Practice,200,5,42,127,2926695680
11122,11,Pattern_Practice,201,1,48,34,2926704932
11122,11,Pattern_Practice,202,1,48,38,2926951016
11122,11,Pattern_Practice,203,5,42,127,2927195428
11122,11,Pattern_Practice,204,1,48,47,2927216652
11122,11,Pattern_Practice,205,1,38,50,2927239816
11122,11,Pattern_Practice,206,1,48,33,2927477420
11122,11,Pattern_Practice,207,1,48,27,2927691568
11122,11,Pattern_Practice,0,9999,9999,9999,2887693396
11122,11,Pattern_Practice,1,9999,9999,9999,2888193088
11122,11,Pattern_Practice,2,9999,9999,9999,2888693848
11122,11,Pattern_Practice,3,9999,9999,9999,2889193524
11122,11,Pattern_Practice,4,9999,9999,9999,2889693296
11122,11,Pattern_Practice,5,9999,9999,9999,2890194012
11122,11,Pattern_Practice,6,9999,9999,9999,2890693708
11122,11,Pattern_Practice,7,9999,9999,9999,2891193404
11122,11,Pattern_Practice,8,9999,9999,9999,2891693172
11122,11,Pattern_Practice,9,9999,9999,9999,2892193888
11122,11,Pattern_Practice,10,9999,9999,9999,2892693576
11122,11,Pattern_Practice,11,9999,9999,9999,2893193308
11122,11,Pattern_Practice,12,9999,9999,9999,2893694052
11122,11,Pattern_Practice,13,9999,9999,9999,2894193744
11122,11,Pattern_Practice,14,9999,9999,9999,2894693440
11122,11,Pattern_Practice,15,9999,9999,9999,2895193212
11122,11,Pattern_Practice,16,9999,9999,9999,2895693900
11122,11,Pattern_Practice,17,9999,9999,9999,2896193616
11122,11,Pattern_Practice,18,9999,9999,9999,2896693364
11122,11,Pattern_Practice,19,9999,9999,9999,2897194056
11122,11,Pattern_Practice,20,9999,9999,9999,2897693804
11122,11,Pattern_Practice,21,9999,9999,9999,2898193480
11122,11,Pattern_Practice,22,9999,9999,9999,2898693180
11122,11,Pattern_Practice,23,9999,9999,9999,2899193920
11122,11,Pattern_Practice,24,9999,9999,9999,2899693672
11122,11,Pattern_Practice,25,9999,9999,9999,2900193396
11122,11,Pattern_Practice,26,9999,9999,9999,2900694112
11122,11,Pattern_Practice,27,9999,9999,9999,2901193828
11122,11,Pattern_Practice,28,9999,9999,9999,2901693524
11122,11,Pattern_Practice,29,9999,9999,9999,2902193224
11122,11,Pattern_Practice,30,9999,9999,9999,2902693964
11122,11,Pattern_Practice,31,9999,9999,9999,2903193656
11122,11,Pattern_Practice,32,9999,9999,9999,2903693412
11122,11,Pattern_Practice,33,9999,9999,9999,2904193088
11122,11,Pattern_Practice,34,9999,9999,9999,2904693876
11122,11,Pattern_Practice,35,9999,9999,9999,2905193536
11122,11,Pattern_Practice,36,9999,9999,9999,2905693304
11122,11,Pattern_Practice,37,9999,9999,9999,2906194044
11122,11,Pattern_Practice,38,9999,9999,9999,2906693688
11122,11,Pattern_Practice,39,9999,9999,9999,2907193396
11122,11,Pattern_Practice,40,9999,9999,9999,2907693168
11122,11,Pattern_Practice,41,9999,9999,9999,2908193908
11122,11,Pattern_Practice,42,9999,9999,9999,2908693600
11122,11,Pattern_Practice,43,9999,9999,9999,2909193296
11122,11,Pattern_Practice,44,9999,9999,9999,2909694016
11122,11,Pattern_Practice,45,9999,9999,9999,2910193784
11122,11,Pattern_Practice,46,9999,9999,9999,2910693492
11122,11,Pattern_Practice,47,9999,9999,9999,2911193188
11122,11,Pattern_Practice,48,9999,9999,9999,2911693924
11122,11,Pattern_Practice,49,9999,9999,9999,2912193604
11122,11,Pattern_Practice,50,9999,9999,9999,2912693344
11122,11,Pattern_Practice,51,9999,9999,9999,2913194052
11122,11,Pattern_Practice,52,9999,9999,9999,2913693812
11122,11,Pattern_Practice,53,9999,9999,9999,2914193492
11122,11,Pattern_Practice,54,9999,9999,9999,2914693232
11122,11,Pattern_Practice,55,9999,9999,9999,2915193940
11122,11,Pattern_Practice,56,9999,9999,9999,2915693628
11122,11,Pattern_Practice,57,9999,9999,9999,2916193404
11122,11,Pattern_Practice,58,9999,9999,9999,2916694068
11122,11,Pattern_Practice,59,9999,9999,9999,2917193836
11122,11,Pattern_Practice,60,9999,9999,9999,2917693532
11122,11,Pattern_Practice,61,9999,9999,9999,2918193224
11122,11,Pattern_Practice,62,9999,9999,9999,2918693960
11122,11,Pattern_Practice,63,9999,9999,9999,2919193656
11122,11,Pattern_Practice,64,9999,9999,9999,2919693424
11122,11,Pattern_Practice,65,9999,9999,9999,2920193104
11122,11,Pattern_Practice,66,9999,9999,9999,2920693820
11122,11,Pattern_Practice,67,9999,9999,9999,2921193544
11122,11,Pattern_Practice,68,9999,9999,9999,2921693292
11122,11,Pattern_Practice,69,9999,9999,9999,2922193988
11122,11,Pattern_Practice,70,9999,9999,9999,2922693736
11122,11,Pattern_Practice,71,9999,9999,9999,2923193408
11122,11,Pattern_Practice,72,9999,9999,9999,2923693152
11122,11,Pattern_Practice,73,9999,9999,9999,2924193872
11122,11,Pattern_Practice,74,9999,9999,9999,2924693588
11122,11,Pattern_Practice,75,9999,9999,9999,2925193332
11122,11,Pattern_Practice,76,9999,9999,9999,2925694004
11122,11,Pattern_Practice,77,9999,9999,9999,2926193752
11122,11,Pattern_Practice,78,9999,9999,9999,2926693468
11122,11,Pattern_Practice,79,9999,9999,9999,2927193140
11123,13,Improv_Metronome,0,5,42,127,2959229320
11123,13,Improv_Metronome,1,5,42,127,2959729112
11123,13,Improv_Metronome,2,5,42,127,2960228752
11123,13,Improv_Metronome,3,5,42,127,2960728544
11123,13,Improv_Metronome,4,5,42,127,2961229232
11123,13,Improv_Metronome,5,1,48,47,2961264364
11123,13,Improv_Metronome,6,1,48,34,2961532592
11123,13,Improv_Metronome,7,5,42,127,2961728904
11123,13,Improv_Metronome,8,1,38,58,2961798144
11123,13,Improv_Metronome,9,1,48,62,2961810844
11123,13,Improv_Metronome,10,1,48,33,2962056088
11123,13,Improv_Metronome,11,1,48,40,2962207260
11123,13,Improv_Metronome,12,5,42,127,2962228612
11123,13,Improv_Metronome,13,1,48,47,2962474980
11123,13,Improv_Metronome,14,1,48,49,2962612960
11123,13,Improv_Metronome,15,5,42,127,2962729316
11123,13,Improv_Metronome,16,1,48,72,2962888012
11123,13,Improv_Metronome,17,1,38,65,2962904600
11123,13,Improv_Metronome,18,1,48,45,2963178932
11123,13,Improv_Metronome,19,5,42,127,2963229028
11123,13,Improv_Metronome,20,1,48,45,2963461712
11123,13,Improv_Metronome,21,5,42,127,2963728856
11123,13,Improv_Metronome,22,1,48,43,2963750452
11123,13,Improv_Metronome,23,1,48,79,2964029076
11123,13,Improv_Metronome,24,1,38,73,2964036312
11123,13,Improv_Metronome,25,5,42,127,2964228332
11123,13,Improv_Metronome,26,1,48,48,2964316572
11123,13,Improv_Metronome,27,1,48,56,2964478436
11123,13,Improv_Metronome,28,5,42,127,2964729128
11123,13,Improv_Metronome,29,1,48,58,2964758348
11123,13,Improv_Metronome,30,1,48,57,2964893868
11123,13,Improv_Metronome,31,1,48,66,2965169496
11123,13,Improv_Metronome,32,1,38,71,2965185184
11123,13,Improv_Metronome,33,5,42,127,2965229048
11123,13,Improv_Metronome,34,1,48,43,2965450684
11123,13,Improv_Metronome,35,5,42,127,2965728828
11123,13,Improv_Metronome,36,1,48,49,2965742564
11123,13,Improv_Metronome,37,1,48,46,2966009900
11123,13,Improv_Metronome,38,5,42,127,2966229296
11123,13,Improv_Metronome,39,1,48,62,2966305072
11123,13,Improv_Metronome,40,1,38,61,2966308268
11123,13,Improv_Metronome,41,1,48,49,2966595844
11123,13,Improv_Metronome,42,5,42,127,2966729072
11123,13,Improv_Metronome,43,1,48,50,2966741616
11123,13,Improv_Metronome,44,1,48,48,2967016504
11123,13,Improv_Metronome,45,1,48,50,2967155928
11123,13,Improv_Metronome,46,5,42,127,2967228960
11123,13,Improv_Metronome,47,1,48,58,2967416392
11123,13,Improv_Metronome,48,1,38,65,2967423700
11123,13,Improv_Metronome,49,1,48,50,2967699156
11123,13,Improv_Metronome,50,5,42,127,2967728436
11123,13,Improv_Metronome,51,1,48,65,2967973016
11123,13,Improv_Metronome,52,5,42,127,2968229164
11123,13,Improv_Metronome,53,1,48,57,2968250388
11123,13,Improv_Metronome,54,1,38,82,2968532520
11123,13,Improv_Metronome,55,5,42,127,2968729060
11123,13,Improv_Metronome,56,1,48,52,2968841032
11123,13,Improv_Metronome,57,1,48,51,2969137084
11123,13,Improv_Metronome,58,5,42,127,2969228524
11123,13,Improv_Metronome,59,1,48,48,2969419764
11123,13,Improv_Metronome,60,1,38,67,2969691216
11123,13,Improv_Metronome,61,1,48,59,2969703912
11123,13,Improv_Metronome,62,5,42,127,2969729448
11123,13,Improv_Metronome,63,1,48,36,2969968532
11123,13,Improv_Metronome,64,5,42,127,2970229024
11123,13,Improv_Metronome,65,1,48,49,2970286968
11123,13,Improv_Metronome,66,1,48,44,2970534480
11123,13,Improv_Metronome,67,5,42,127,2970729068
11123,13,Improv_Metronome,68,1,48,65,2970826584
11123,13,Improv_Metronome,69,1,38,57,2970829108
11123,13,Improv_Metronome,70,1,48,51,2971106732
11123,13,Improv_Metronome,71,5,42,127,2971228396
11123,13,Improv_Metronome,72,1,48,54,2971256128
11123,13,Improv_Metronome,73,1,48,53,2971525328
11123,13,Improv_Metronome,74,1,48,51,2971676944
11123,13,Improv_Metronome,75,5,42,127,2971729184
11123,13,Improv_Metronome,76,1,48,62,2971958800
11123,13,Improv_Metronome,77,1,38,70,2971978080
11123,13,Improv_Metronome,78,5,42,127,2972228968
11123,13,Improv_Metronome,79,1,48,45,2972254972
11123,13,Improv_Metronome,80,1,48,42,2972533744
11123,13,Improv_Metronome,81,5,42,127,2972728640
11123,13,Improv_Metronome,82,1,48,39,2972822712
11123,13,Improv_Metronome,83,1,48,56,2973108592
11123,13,Improv_Metronome,84,1,38,64,2973119792
11123,13,Improv_Metronome,85,5,42,127,2973229312
11123,13,Improv_Metronome,86,1,48,41,2973415980
11123,13,Improv_Metronome,87,1,48,44,2973598488
11123,13,Improv_Metronome,88,5,42,127,2973729204
11123,13,Improv_Metronome,89,1,48,45,2973872720
11123,13,Improv_Metronome,90,1,48,46,2974028748
11123,13,Improv_Metronome,91,5,42,127,2974229024
11123,13,Improv_Metronome,92,1,48,62,2974311956
11123,13,Improv_Metronome,93,1,38,74,2974312612
11123,13,Improv_Metronome,94,1,48,51,2974578792
11123,13,Improv_Metronome,95,5,42,127,2974728652
11123,13,Improv_Metronome,96,1,48,49,2974880100
11123,13,Improv_Metronome,97,1,48,46,2975146084
11123,13,Improv_Metronome,98,5,42,127,2975229312
11123,13,Improv_Metronome,99,1,38,68,2975446788
11123,13,Improv_Metronome,100,1,48,55,2975450508
11123,13,Improv_Metronome,101,5,42,127,2975729168
11123,13,Improv_Metronome,102,1,48,46,2975760416
11123,13,Improv_Metronome,103,1,48,43,2975916124
11123,13,Improv_Metronome,104,1,48,44,2976191828
11123,13,Improv_Metronome,105,5,42,127,2976228884
11123,13,Improv_Metronome,106,1,48,45,2976336960
11123,13,Improv_Metronome,107,1,48,59,2976613036
11123,13,Improv_Metronome,108,1,38,66,2976617356
11123,13,Improv_Metronome,109,5,42,127,2976728424
11123,13,Improv_Metronome,110,1,48,48,2976881608
11123,13,Improv_Metronome,111,1,48,68,2977170636
11123,13,Improv_Metronome,112,5,42,127,2977229160
11123,13,Improv_Metronome,113,1,48,55,2977490264
11123,13,Improv_Metronome,114,5,42,127,2977728988
11123,13,Improv_Metronome,115,1,48,56,2977799672
11123,13,Improv_Metronome,116,5,42,127,2978228828
11123,13,Improv_Metronome,117,1,48,55,2978255660
11123,13,Improv_Metronome,118,1,48,52,2978554580
11123,13,Improv_Metronome,119,5,42,127,2978729324
11123,13,Improv_Metronome,120,1,48,50,2978835092
11123,13,Improv_Metronome,121,1,48,57,2978916148
11123,13,Improv_Metronome,122,5,42,127,2979229000
11123,13,Improv_Metronome,123,1,48,45,2979229892
11123,13,Improv_Metronome,124,1,48,60,2979541112
11123,13,Improv_Metronome,125,5,42,127,2979728968
11123,13,Improv_Metronome,126,1,48,34,2979826580
11123,13,Improv_Metronome,127,1,38,77,2980111864
11123,13,Improv_Metronome,128,1,48,66,2980132044
11123,13,Improv_Metronome,129,5,42,127,2980228400
11123,13,Improv_Metronome,130,1,48,41,2980405660
11123,13,Improv_Metronome,131,1,48,46,2980563828
11123,13,Improv_Metronome,132,5,42,127,2980729180
11123,13,Improv_Metronome,133,1,48,46,2980859628
11123,13,Improv_Metronome,134,1,48,48,2981152612
11123,13,Improv_Metronome,135,5,42,127,2981228940
11123,13,Improv_Metronome,136,1,38,58,2981247616
11123,13,Improv_Metronome,137,1,48,58,2981333540
11123,13,Improv_Metronome,138,1,48,43,2981649124
11123,13,Improv_Metronome,139,5,42,127,2981728816
11123,13,Improv_Metronome,140,1,48,41,2981911760
11123,13,Improv_Metronome,141,1,48,39,2982223296
11123,13,Improv_Metronome,142,5,42,127,2982229236
11123,13,Improv_Metronome,143,1,48,51,2982518244
11123,13,Improv_Metronome,144,1,38,58,2982521664
11123,13,Improv_Metronome,145,5,42,127,2982729020
11123,13,Improv_Metronome,146,1,48,41,2982829000
11123,13,Improv_Metronome,147,1,48,38,2983001340
11123,13,Improv_Metronome,148,5,42,127,2983228768
11123,13,Improv_Metronome,149,1,48,47,2983285736
11123,13,Improv_Metronome,150,1,48,48,2983430776
11123,13,Improv_Metronome,151,5,42,127,2983728588
11123,13,Improv_Metronome,152,1,48,59,2983736424
11123,13,Improv_Metronome,153,1,38,65,2983750840
11123,13,Improv_Metronome,154,1,48,42,2984043572
11123,13,Improv_Metronome,155,5,42,127,2984229112
11123,13,Improv_Metronome,156,1,48,44,2984334560
11123,13,Improv_Metronome,157,1,48,41,2984631128
11123,13,Improv_Metronome,158,5,42,127,2984730056
11123,13,Improv_Metronome,159,1,48,54,2984933712
11123,13,Improv_Metronome,160,1,38,71,2984939148
11123,13,Improv_Metronome,161,5,42,127,2985228732
11123,13,Improv_Metronome,162,1,48,44,2985252568
11123,13,Improv_Metronome,163,1,48,43,2985411720
11123,13,Improv_Metronome,164,1,48,43,2985714976
11123,13,Improv_Metronome,165,5,42,127,2985729372
11123,13,Improv_Metronome,166,1,48,48,2985870404
11123,13,Improv_Metronome,167,1,48,48,2986171764
11123,13,Improv_Metronome,168,1,38,76,2986177656
11123,13,Improv_Metronome,169,5,42,127,2986229020
11123,13,Improv_Metronome,170,1,48,43,2986461428
11123,13,Improv_Metronome,171,5,42,127,2986728724
11123,13,Improv_Metronome,172,1,48,60,2986781908
11123,13,Improv_Metronome,173,1,48,53,2987046840
11123,13,Improv_Metronome,174,5,42,127,2987228548
11123,13,Improv_Metronome,175,1,48,65,2987332892
11123,13,Improv_Metronome,176,1,48,52,2987644056
11123,13,Improv_Metronome,177,5,42,127,2987729280
11123,13,Improv_Metronome,178,1,48,55,2987799052
11123,13,Improv_Metronome,179,1,48,56,2988117768
11123,13,Improv_Metronome,180,5,42,127,2988228940
11123,13,Improv_Metronome,181,1,48,51,2988426856
11123,13,Improv_Metronome,182,1,48,59,2988559028
11123,13,Improv_Metronome,183,5,42,127,2988728764
11123,13,Improv_Metronome,184,1,48,65,2988855772
11123,13,Improv_Metronome,185,1,48,60,2989183168
11123,13,Improv_Metronome,186,5,42,127,2989229352
11123,13,Improv_Metronome,187,1,48,40,2989469064
11123,13,Improv_Metronome,188,5,42,127,2989729104
11123,13,Improv_Metronome,189,1,48,61,2989775752
11123,13,Improv_Metronome,190,1,38,80,2989778952
11123,13,Improv_Metronome,191,1,48,41,2990057396
11123,13,Improv_Metronome,192,1,48,43,2990226680
11123,13,Improv_Metronome,193,5,42,127,2990228796
11123,13,Improv_Metronome,194,1,48,43,2990504860
11123,13,Improv_Metronome,195,1,48,48,2990656856
11123,13,Improv_Metronome,196,5,42,127,2990728692
11123,13,Improv_Metronome,197,1,48,50,2990960704
11123,13,Improv_Metronome,198,1,38,79,2990976168
11123,13,Improv_Metronome,199,5,42,127,2991229224
11123,13,Improv_Metronome,200,1,48,44,2991263012
11123,13,Improv_Metronome,201,1,48,48,2991568260
11123,13,Improv_Metronome,202,5,42,127,2991728896
11123,13,Improv_Metronome,203,1,48,46,2991836956
11123,13,Improv_Metronome,204,1,48,52,2992138792
11123,13,Improv_Metronome,205,1,38,68,2992145508
11123,13,Improv_Metronome,206,5,42,127,2992228564
11123,13,Improv_Metronome,207,1,48,47,2992481712
11123,13,Improv_Metronome,208,1,48,43,2992661980
11123,13,Improv_Metronome,209,5,42,127,2992728360
11123,13,Improv_Metronome,210,1,48,43,2992923720
11123,13,Improv_Metronome,211,1,48,46,2993073136
11123,13,Improv_Metronome,212,5,42,127,2993229284
11123,13,Improv_Metronome,213,1,48,62,2993373848
11123,13,Improv_Metronome,214,1,38,67,2993377116
11123,13,Improv_Metronome,215,1,48,47,2993675860
11123,13,Improv_Metronome,216,5,42,127,2993729000
11123,13,Improv_Metronome,217,1,48,49,2993998632
11123,13,Improv_Metronome,218,5,42,127,2994228680
11123,13,Improv_Metronome,219,1,48,45,2994287676
11123,13,Improv_Metronome,220,1,48,57,2994593748
11123,13,Improv_Metronome,221,1,38,66,2994597620
11123,13,Improv_Metronome,222,5,42,127,2994729280
11123,13,Improv_Metronome,223,1,48,44,2994908400
11123,13,Improv_Metronome,224,1,48,47,2995098608
11123,13,Improv_Metronome,225,5,42,127,2995229028
11123,13,Improv_Metronome,226,1,48,36,2995391544
11123,13,Improv_Metronome,227,1,48,44,2995530592
11123,13,Improv_Metronome,228,5,42,127,2995728628
11123,13,Improv_Metronome,229,1,48,42,2995831376
11123,13,Improv_Metronome,230,1,38,67,2995845716
11123,13,Improv_Metronome,231,1,48,38,2996121920
11123,13,Improv_Metronome,232,5,42,127,2996228548
11123,13,Improv_Metronome,233,1,48,53,2996445592
11123,13,Improv_Metronome,234,5,42,127,2996729292
11123,13,Improv_Metronome,235,1,48,36,2996755372
11123,13,Improv_Metronome,236,1,48,60,2997029960
11123,13,Improv_Metronome,237,5,42,127,2997228864
11123,13,Improv_Metronome,238,1,48,52,2997365644
11123,13,Improv_Metronome,239,1,48,62,2997499536
11123,13,Improv_Metronome,240,5,42,127,2997728588
11123,13,Improv_Metronome,241,1,48,59,2997822836
11123,13,Improv_Metronome,242,1,48,54,2998139828
11123,13,Improv_Metronome,243,5,42,127,2998229692
11123,13,Improv_Metronome,244,1,48,59,2998272544
11123,13,Improv_Metronome,245,1,48,69,2998595448
11123,13,Improv_Metronome,246,5,42,127,2998729128
11123,13,Improv_Metronome,247,1,48,54,2998953076
11123,13,Improv_Metronome,248,5,42,127,2999228752
11123,13,Improv_Metronome,249,1,48,38,2999266948
11123,13,Improv_Metronome,250,1,48,60,2999570280
11123,13,Improv_Metronome,251,1,38,77,2999585740
11123,13,Improv_Metronome,252,5,42,127,2999728524
11123,13,Improv_Metronome,253,1,48,34,2999903780
11123,13,Improv_Metronome,254,1,48,36,3000068484
11123,13,Improv_Metronome,255,5,42,127,3000229316
11123,13,Improv_Metronome,256,1,48,45,3000360368
11123,13,Improv_Metronome,257,1,48,43,3000513904
11123,13,Improv_Metronome,258,5,42,127,3000728916
11123,13,Improv_Metronome,259,1,48,59,3000789552
11123,13,Improv_Metronome,260,1,38,77,3000794992
11123,13,Improv_Metronome,261,1,48,43,3001095080
11123,13,Improv_Metronome,262,5,42,127,3001228688
11123,13,Improv_Metronome,263,1,48,50,3001400504
11123,13,Improv_Metronome,264,1,48,51,3001678908
11123,13,Improv_Metronome,265,5,42,127,3001729576
11123,13,Improv_Metronome,266,1,48,53,3001998984
11123,13,Improv_Metronome,267,1,38,64,3002044448
11123,13,Improv_Metronome,268,5,42,127,3002228984
11123,13,Improv_Metronome,269,1,48,51,3002352028
11123,13,Improv_Metronome,270,1,48,47,3002516492
11123,13,Improv_Metronome,271,5,42,127,3002729324
11123,13,Improv_Metronome,272,1,48,43,3002808292
11123,13,Improv_Metronome,273,1,48,48,3002961260
11123,13,Improv_Metronome,274,5,42,127,3003228480
11123,13,Improv_Metronome,275,1,48,58,3003258376
11123,13,Improv_Metronome,276,1,38,72,3003266140
11123,13,Improv_Metronome,277,1,48,49,3003538600
11123,13,Improv_Metronome,278,5,42,127,3003729448
11123,13,Improv_Metronome,279,1,48,49,3003841776
11123,13,Improv_Metronome,280,1,48,50,3004108884
11123,13,Improv_Metronome,281,5,42,127,3004228900
11123,13,Improv_Metronome,282,1,48,60,3004425324
11123,13,Improv_Metronome,283,1,38,61,3004456640
11123,13,Improv_Metronome,284,5,42,127,3004728548
11123,13,Improv_Metronome,285,1,48,52,3004786120
11123,13,Improv_Metronome,286,1,48,51,3004944472
11123,13,Improv_Metronome,287,5,42,127,3005229640
11123,13,Improv_Metronome,288,1,48,54,3005233132
11123,13,Improv_Metronome,289,1,48,51,3005391532
11123,13,Improv_Metronome,290,1,38,74,3005664248
11123,13,Improv_Metronome,291,1,48,67,3005672608
11123,13,Improv_Metronome,292,5,42,127,3005729212
11123,13,Improv_Metronome,293,1,48,55,3005971144
11123,13,Improv_Metronome,294,5,42,127,3006228792
11123,13,Improv_Metronome,295,1,48,64,3006261752
11123,13,Improv_Metronome,296,1,48,62,3006551300
11123,13,Improv_Metronome,297,5,42,127,3006728536
11123,13,Improv_Metronome,298,1,48,72,3006836900
11123,13,Improv_Metronome,299,1,48,51,3007145812
11123,13,Improv_Metronome,300,5,42,127,3007229496
11123,13,Improv_Metronome,301,1,48,61,3007319368
11123,13,Improv_Metronome,302,1,48,59,3007630380
11123,13,Improv_Metronome,303,5,42,127,3007729016
11123,13,Improv_Metronome,304,1,48,60,3007935348
11123,13,Improv_Metronome,305,1,48,66,3008084200
11123,13,Improv_Metronome,306,5,42,127,3008228652
11123,13,Improv_Metronome,307,1,48,67,3008376380
11123,13,Improv_Metronome,308,1,48,61,3008701976
11123,13,Improv_Metronome,309,5,42,127,3008728712
11123,13,Improv_Metronome,310,1,48,49,3009005252
11123,13,Improv_Metronome,311,5,42,127,3009229140
11123,13,Improv_Metronome,312,1,48,72,3009308732
11123,13,Improv_Metronome,313,1,38,88,3009316636
11123,13,Improv_Metronome,314,1,48,57,3009638768
11123,13,Improv_Metronome,315,5,42,127,3009728856
11123,13,Improv_Metronome,316,1,48,60,3009810148
11123,13,Improv_Metronome,317,1,48,48,3010076652
11123,13,Improv_Metronome,318,5,42,127,3010228588
11123,13,Improv_Metronome,319,1,48,49,3010229480
11123,13,Improv_Metronome,320,1,38,84,3010496492
11123,13,Improv_Metronome,321,1,48,57,3010509944
11123,13,Improv_Metronome,322,5,42,127,3010729260
11123,13,Improv_Metronome,323,1,48,48,3010826280
11123,13,Improv_Metronome,324,1,48,54,3011108640
11123,13,Improv_Metronome,325,5,42,127,3011228936
11123,13,Improv_Metronome,326,1,48,54,3011393648
11123,13,Improv_Metronome,327,1,38,82,3011687076
11123,13,Improv_Metronome,328,1,48,59,3011702016
11123,13,Improv_Metronome,329,5,42,127,3011728828
11123,13,Improv_Metronome,330,1,48,50,3012019676
11123,13,Improv_Metronome,331,1,48,47,3012181692
11123,13,Improv_Metronome,332,5,42,127,3012228548
11123,13,Improv_Metronome,333,1,48,52,3012463780
11123,13,Improv_Metronome,334,1,48,50,3012628932
11123,13,Improv_Metronome,335,5,42,127,3012729180
11123,13,Improv_Metronome,336,1,48,69,3012934880
11123,13,Improv_Metronome,337,1,38,67,3012948172
11123,13,Improv_Metronome,338,5,42,127,3013228900
11123,13,Improv_Metronome,339,1,48,51,3013246160
11123,13,Improv_Metronome,340,1,48,57,3013543852
11123,13,Improv_Metronome,341,5,42,127,3013728724
11123,13,Improv_Metronome,342,1,48,54,3013823844
11123,13,Improv_Metronome,343,1,38,69,3014134208
11123,13,Improv_Metronome,344,1,48,70,3014137480
11123,13,Improv_Metronome,345,5,42,127,3014229352
11123,13,Improv_Metronome,346,1,48,56,3014434064
11123,13,Improv_Metronome,347,1,48,50,3014591640
11123,13,Improv_Metronome,348,5,42,127,3014728936
11123,13,Improv_Metronome,349,1,48,52,3014879780
11123,13,Improv_Metronome,350,1,48,50,3015053308
11123,13,Improv_Metronome,351,5,42,127,3015228760
11123,13,Improv_Metronome,352,1,38,72,3015338464
11123,13,Improv_Metronome,353,1,48,64,3015353780
11123,13,Improv_Metronome,354,1,48,56,3015618012
11123,13,Improv_Metronome,355,5,42,127,3015728604
11123,13,Improv_Metronome,356,1,48,61,3015910572
11123,13,Improv_Metronome,357,1,48,68,3016225120
11123,13,Improv_Metronome,358,5,42,127,3016229340
11123,13,Improv_Metronome,359,1,48,68,3016509972
11123,13,Improv_Metronome,360,5,42,127,3016728872
11123,13,Improv_Metronome,361,1,48,67,3016825488
11123,13,Improv_Metronome,362,1,48,64,3017000520
11123,13,Improv_Metronome,363,5,42,127,3017228768
11123,13,Improv_Metronome,364,1,48,67,3017288436
11123,13,Improv_Metronome,365,1,48,58,3017620316
11123,13,Improv_Metronome,366,5,42,127,3017729416
11123,13,Improv_Metronome,367,1,48,70,3017781976
11123,13,Improv_Metronome,368,1,48,73,3018102336
11123,13,Improv_Metronome,369,5,42,127,3018229160
11123,13,Improv_Metronome,370,1,48,62,3018432064
11123,13,Improv_Metronome,371,5,42,127,3018728684
11123,13,Improv_Metronome,372,1,48,47,3018766756
11123,13,Improv_Metronome,373,1,48,65,3019075976
11123,13,Improv_Metronome,374,1,38,88,3019091436
11123,13,Improv_Metronome,375,5,42,127,3019228532
11123,13,Improv_Metronome,376,1,48,50,3019459432
11123,13,Improv_Metronome,377,1,48,47,3019643368
11123,13,Improv_Metronome,378,5,42,127,3019729492
11123,13,Improv_Metronome,379,1,48,46,3019888800
11123,13,Improv_Metronome,380,1,48,50,3020075352
11123,13,Improv_Metronome,381,5,42,127,3020229152
11123,13,Improv_Metronome,382,1,48,63,3020414356
11123,13,Improv_Metronome,383,1,38,60,3020416804
11123,13,Improv_Metronome,384,5,42,127,3020728800
11123,13,Improv_Metronome,385,1,48,57,3020735360
11123,13,Improv_Metronome,386,1,48,59,3021051184
11123,13,Improv_Metronome,387,5,42,127,3021229372
11123,13,Improv_Metronome,388,1,48,56,3021347180
11123,13,Improv_Metronome,389,1,48,62,3021662676
11123,13,Improv_Metronome,390,1,38,26,3021668044
11123,13,Improv_Metronome,391,5,42,127,3021729260
11123,13,Improv_Metronome,392,1,48,55,3021985476
11123,13,Improv_Metronome,393,1,48,53,3022159680
11123,13,Improv_Metronome,394,5,42,127,3022228832
11123,13,Improv_Metronome,395,1,48,52,3022465704
11123,13,Improv_Metronome,396,1,48,54,3022641852
11123,13,Improv_Metronome,397,5,42,127,3022728504
11123,13,Improv_Metronome,398,1,38,78,3022915112
11123,13,Improv_Metronome,399,1,48,67,3022942392
11123,13,Improv_Metronome,400,5,42,127,3023229332
11123,13,Improv_Metronome,401,1,48,56,3023235740
11123,13,Improv_Metronome,402,1,48,54,3023522072
11123,13,Improv_Metronome,403,5,42,127,3023729076
11123,13,Improv_Metronome,404,1,48,50,3023810360
11123,13,Improv_Metronome,405,1,38,78,3024096840
11123,13,Improv_Metronome,406,1,48,67,3024115256
11123,13,Improv_Metronome,407,5,42,127,3024228640
11123,13,Improv_Metronome,408,1,48,49,3024421544
11123,13,Improv_Metronome,409,1,48,52,3024587276
11123,13,Improv_Metronome,410,5,42,127,3024728464
11123,13,Improv_Metronome,411,1,48,49,3024859412
11123,13,Improv_Metronome,412,1,48,46,3025008556
11123,13,Improv_Metronome,413,5,42,127,3025229256
11123,13,Improv_Metronome,414,1,48,61,3025309192
11123,13,Improv_Metronome,415,1,38,76,3025326156
11123,13,Improv_Metronome,416,1,48,54,3025600936
11123,13,Improv_Metronome,417,5,42,127,3025728808
11123,13,Improv_Metronome,418,1,48,67,3025903532
11123,13,Improv_Metronome,419,5,42,127,3026228504
11123,13,Improv_Metronome,420,1,48,70,3026230368
11123,13,Improv_Metronome,421,1,48,64,3026518992
11123,13,Improv_Metronome,422,5,42,127,3026729220
11123,13,Improv_Metronome,423,1,48,63,3026836612
11123,13,Improv_Metronome,424,1,48,63,3026980668
11123,13,Improv_Metronome,425,5,42,127,3027229116
11123,13,Improv_Metronome,426,1,48,66,3027292896
11123,13,Improv_Metronome,427,1,48,61,3027602188
11123,13,Improv_Metronome,428,5,42,127,3027728640
11123,13,Improv_Metronome,429,1,48,69,3027733928
11123,13,Improv_Metronome,430,1,48,71,3028054812
11123,13,Improv_Metronome,431,5,42,127,3028228316
11123,13,Improv_Metronome,432,5,42,127,3028729228
11123,13,Improv_Metronome,433,1,38,37,3028855316
11123,13,Improv_Metronome,434,1,38,31,3029151816
11123,13,Improv_Metronome,0,9999,9999,9999,2959226960
11123,13,Improv_Metronome,1,9999,9999,9999,2959726676
11123,13,Improv_Metronome,2,9999,9999,9999,2960226392
11123,13,Improv_Metronome,3,9999,9999,9999,2960726108
11123,13,Improv_Metronome,4,9999,9999,9999,2961226872
11123,13,Improv_Metronome,5,9999,9999,9999,2961726544
11123,13,Improv_Metronome,6,9999,9999,9999,2962226248
11123,13,Improv_Metronome,7,9999,9999,9999,2962727028
11123,13,Improv_Metronome,8,9999,9999,9999,2963226744
11123,13,Improv_Metronome,9,9999,9999,9999,2963726420
11123,13,Improv_Metronome,10,9999,9999,9999,2964226120
11123,13,Improv_Metronome,11,9999,9999,9999,2964726840
11123,13,Improv_Metronome,12,9999,9999,9999,2965226612
11123,13,Improv_Metronome,13,9999,9999,9999,2965726316
11123,13,Improv_Metronome,14,9999,9999,9999,2966227008
11123,13,Improv_Metronome,15,9999,9999,9999,2966726712
11123,13,Improv_Metronome,16,9999,9999,9999,2967226452
11123,13,Improv_Metronome,17,9999,9999,9999,2967726152
11123,13,Improv_Metronome,18,9999,9999,9999,2968226876
11123,13,Improv_Metronome,19,9999,9999,9999,2968726624
11123,13,Improv_Metronome,20,9999,9999,9999,2969226312
11123,13,Improv_Metronome,21,9999,9999,9999,2969727088
11123,13,Improv_Metronome,22,9999,9999,9999,2970226736
11123,13,Improv_Metronome,23,9999,9999,9999,2970726484
11123,13,Improv_Metronome,24,9999,9999,9999,2971226184
11123,13,Improv_Metronome,25,9999,9999,9999,2971726900
11123,13,Improv_Metronome,26,9999,9999,9999,2972226680
11123,13,Improv_Metronome,27,9999,9999,9999,2972726352
11123,13,Improv_Metronome,28,9999,9999,9999,2973227096
11123,13,Improv_Metronome,29,9999,9999,9999,2973726768
11123,13,Improv_Metronome,30,9999,9999,9999,2974226516
11123,13,Improv_Metronome,31,9999,9999,9999,2974726216
11123,13,Improv_Metronome,32,9999,9999,9999,2975226952
11123,13,Improv_Metronome,33,9999,9999,9999,2975726656
11123,13,Improv_Metronome,34,9999,9999,9999,2976226376
11123,13,Improv_Metronome,35,9999,9999,9999,2976726136
11123,13,Improv_Metronome,36,9999,9999,9999,2977226872
11123,13,Improv_Metronome,37,9999,9999,9999,2977726552
11123,13,Improv_Metronome,38,9999,9999,9999,2978226244
11123,13,Improv_Metronome,39,9999,9999,9999,2978726964
11123,13,Improv_Metronome,40,9999,9999,9999,2979226712
11123,13,Improv_Metronome,41,9999,9999,9999,2979726384
11123,13,Improv_Metronome,42,9999,9999,9999,2980226112
11123,13,Improv_Metronome,43,9999,9999,9999,2980726892
11123,13,Improv_Metronome,44,9999,9999,9999,2981226580
11123,13,Improv_Metronome,45,9999,9999,9999,2981726308
11123,13,Improv_Metronome,46,9999,9999,9999,2982227024
11123,13,Improv_Metronome,47,9999,9999,9999,2982726732
11123,13,Improv_Metronome,48,9999,9999,9999,2983226480
11123,13,Improv_Metronome,49,9999,9999,9999,2983726152
11123,13,Improv_Metronome,50,9999,9999,9999,2984226900
11123,13,Improv_Metronome,51,9999,9999,9999,2984726592
11123,13,Improv_Metronome,52,9999,9999,9999,2985226296
11123,13,Improv_Metronome,53,9999,9999,9999,2985727084
11123,13,Improv_Metronome,54,9999,9999,9999,2986226736
11123,13,Improv_Metronome,55,9999,9999,9999,2986726512
11123,13,Improv_Metronome,56,9999,9999,9999,2987226184
11123,13,Improv_Metronome,57,9999,9999,9999,2987726920
11123,13,Improv_Metronome,58,9999,9999,9999,2988226652
11123,13,Improv_Metronome,59,9999,9999,9999,2988726328
11123,13,Improv_Metronome,60,9999,9999,9999,2989227064
11123,13,Improv_Metronome,61,9999,9999,9999,2989726816
11123,13,Improv_Metronome,62,9999,9999,9999,2990226548
11123,13,Improv_Metronome,63,9999,9999,9999,2990726256
11123,13,Improv_Metronome,64,9999,9999,9999,2991226936
11123,13,Improv_Metronome,65,9999,9999,9999,2991726684
11123,13,Improv_Metronome,66,9999,9999,9999,2992226352
11123,13,Improv_Metronome,67,9999,9999,9999,2992726072
11123,13,Improv_Metronome,68,9999,9999,9999,2993226848
11123,13,Improv_Metronome,69,9999,9999,9999,2993726564
11123,13,Improv_Metronome,70,9999,9999,9999,2994226244
11123,13,Improv_Metronome,71,9999,9999,9999,2994726992
11123,13,Improv_Metronome,72,9999,9999,9999,2995226740
11123,13,Improv_Metronome,73,9999,9999,9999,2995726416
11123,13,Improv_Metronome,74,9999,9999,9999,2996226116
11123,13,Improv_Metronome,75,9999,9999,9999,2996726856
11123,13,Improv_Metronome,76,9999,9999,9999,2997226576
11123,13,Improv_Metronome,77,9999,9999,9999,2997726300
11123,13,Improv_Metronome,78,9999,9999,9999,2998227036
11123,13,Improv_Metronome,79,9999,9999,9999,2998726768
11123,13,Improv_Metronome,80,9999,9999,9999,2999226464
11123,13,Improv_Metronome,81,9999,9999,9999,2999726160
11123,13,Improv_Metronome,82,9999,9999,9999,3000226880
11123,13,Improv_Metronome,83,9999,9999,9999,3000726628
11123,13,Improv_Metronome,84,9999,9999,9999,3001226328
11123,13,Improv_Metronome,85,9999,9999,9999,3001727064
11123,13,Improv_Metronome,86,9999,9999,9999,3002226772
11123,13,Improv_Metronome,87,9999,9999,9999,3002726520
11123,13,Improv_Metronome,88,9999,9999,9999,3003226192
11123,13,Improv_Metronome,89,9999,9999,9999,3003726940
11123,13,Improv_Metronome,90,9999,9999,9999,3004226612
11123,13,Improv_Metronome,91,9999,9999,9999,3004726336
11123,13,Improv_Metronome,92,9999,9999,9999,3005227056
11123,13,Improv_Metronome,93,9999,9999,9999,3005726776
11123,13,Improv_Metronome,94,9999,9999,9999,3006226504
11123,13,Improv_Metronome,95,9999,9999,9999,3006726252
11123,13,Improv_Metronome,96,9999,9999,9999,3007226984
11123,13,Improv_Metronome,97,9999,9999,9999,3007726656
11123,13,Improv_Metronome,98,9999,9999,9999,3008226364
11123,13,Improv_Metronome,99,9999,9999,9999,3008726128
11123,13,Improv_Metronome,100,9999,9999,9999,3009226852
11123,13,Improv_Metronome,101,9999,9999,9999,3009726568
11123,13,Improv_Metronome,102,9999,9999,9999,3010226228
11123,13,Improv_Metronome,103,9999,9999,9999,3010726976
11123,13,Improv_Metronome,104,9999,9999,9999,3011226724
11123,13,Improv_Metronome,105,9999,9999,9999,3011726392
11123,13,Improv_Metronome,106,9999,9999,9999,3012226116
11123,13,Improv_Metronome,107,9999,9999,9999,3012726892
11123,13,Improv_Metronome,108,9999,9999,9999,3013226612
11123,13,Improv_Metronome,109,9999,9999,9999,3013726288
11123,13,Improv_Metronome,110,9999,9999,9999,3014227064
11123,13,Improv_Metronome,111,9999,9999,9999,3014726724
11123,13,Improv_Metronome,112,9999,9999,9999,3015226472
11123,13,Improv_Metronome,113,9999,9999,9999,3015726168
11123,13,Improv_Metronome,114,9999,9999,9999,3016226908
11123,13,Improv_Metronome,115,9999,9999,9999,3016726588
11123,13,Improv_Metronome,116,9999,9999,9999,3017226336
11123,13,Improv_Metronome,117,9999,9999,9999,3017727056
11123,13,Improv_Metronome,118,9999,9999,9999,3018226800
11123,13,Improv_Metronome,119,9999,9999,9999,3018726472
11123,13,Improv_Metronome,120,9999,9999,9999,3019226172
11123,13,Improv_Metronome,121,9999,9999,9999,3019726908
11123,13,Improv_Metronome,122,9999,9999,9999,3020226640
11123,13,Improv_Metronome,123,9999,9999,9999,3020726364
11123,13,Improv_Metronome,124,9999,9999,9999,3021227084
11123,13,Improv_Metronome,125,9999,9999,9999,3021726828
11123,13,Improv_Metronome,126,9999,9999,9999,3022226544
11123,13,Improv_Metronome,127,9999,9999,9999,3022726216
11123,13,Improv_Metronome,128,9999,9999,9999,3023226972
11123,13,Improv_Metronome,129,9999,9999,9999,3023726640
11123,13,Improv_Metronome,130,9999,9999,9999,3024226356
11123,13,Improv_Metronome,131,9999,9999,9999,3024726100
11123,13,Improv_Metronome,132,9999,9999,9999,3025226820
11123,13,Improv_Metronome,133,9999,9999,9999,3025726520
11123,13,Improv_Metronome,134,9999,9999,9999,3026226292
11123,13,Improv_Metronome,135,9999,9999,9999,3026727008
11123,13,Improv_Metronome,136,9999,9999,9999,3027226684
11123,13,Improv_Metronome,137,9999,9999,9999,3027726428
11123,13,Improv_Metronome,138,9999,9999,9999,3028226104
11123,13,Improv_Metronome,139,9999,9999,9999,3028726864
11124,14,Improv_Melody,0,2,48,80,3081364788
11124,14,Improv_Melody,1,2,72,80,3081367528
11124,14,Improv_Melody,2,5,42,127,3081368944
11124,14,Improv_Melody,3,5,42,110,3081861488
11124,14,Improv_Melody,4,5,42,110,3082362328
11124,14,Improv_Melody,5,5,42,110,3082861828
11124,14,Improv_Melody,6,5,42,127,3083361624
11124,14,Improv_Melody,7,5,42,110,3083862464
11124,14,Improv_Melody,8,5,42,110,3084362112
11124,14,Improv_Melody,9,5,42,110,3084861760
11124,14,Improv_Melody,10,2,43,80,3085364064
11124,14,Improv_Melody,11,2,67,80,3085366212
11124,14,Improv_Melody,12,5,42,127,3085368676
11124,14,Improv_Melody,13,5,42,110,3085862192
11124,14,Improv_Melody,14,5,42,110,3086362064
11124,14,Improv_Melody,15,5,42,110,3086861784
11124,14,Improv_Melody,16,5,42,127,3087362480
11124,14,Improv_Melody,17,5,42,110,3087862200
11124,14,Improv_Melody,18,5,42,110,3088361848
11124,14,Improv_Melody,19,5,42,110,3088861692
11124,14,Improv_Melody,20,2,45,80,3089364664
11124,14,Improv_Melody,21,2,69,80,3089366816
11124,14,Improv_Melody,22,5,42,127,3089369432
11124,14,Improv_Melody,23,5,42,110,3089862196
11124,14,Improv_Melody,24,5,42,110,3090361620
11124,14,Improv_Melody,25,5,42,110,3090861340
11124,14,Improv_Melody,26,5,42,127,3091362260
11124,14,Improv_Melody,27,5,42,110,3091861756
11124,14,Improv_Melody,28,5,42,110,3092361628
11124,14,Improv_Melody,29,5,42,110,3092862248
11124,14,Improv_Melody,30,2,41,80,3093364624
11124,14,Improv_Melody,31,2,65,80,3093366700
11124,14,Improv_Melody,32,5,42,127,3093369312
11124,14,Improv_Melody,33,5,42,110,3093861704
11124,14,Improv_Melody,34,5,42,110,3094361500
11124,14,Improv_Melody,35,5,42,110,3094862268
11124,14,Improv_Melody,36,5,42,127,3095361916
11124,14,Improv_Melody,37,5,42,110,3095861568
11124,14,Improv_Melody,38,5,42,110,3096362336
11124,14,Improv_Melody,39,5,42,110,3096862280
11124,14,Improv_Melody,40,1,48,72,3097356944
11124,14,Improv_Melody,41,2,48,80,3097364428
11124,14,Improv_Melody,42,2,72,80,3097366580
11124,14,Improv_Melody,43,5,42,127,3097369260
11124,14,Improv_Melody,44,1,48,37,3097789544
11124,14,Improv_Melody,45,5,42,110,3097861632
11124,14,Improv_Melody,46,1,48,42,3098162828
11124,14,Improv_Melody,47,1,48,69,3098301932
11124,14,Improv_Melody,48,5,42,110,3098362212
11124,14,Improv_Melody,49,1,48,52,3098598460
11124,14,Improv_Melody,50,5,42,110,3098862192
11124,14,Improv_Melody,51,1,48,55,3098897400
11124,14,Improv_Melody,52,1,48,53,3099181860
11124,14,Improv_Melody,53,5,42,127,3099361772
11124,14,Improv_Melody,54,1,48,80,3099474052
11124,14,Improv_Melody,55,5,42,110,3099862444
11124,14,Improv_Melody,56,1,48,62,3099961708
11124,14,Improv_Melody,57,1,48,57,3100354996
11124,14,Improv_Melody,58,5,42,110,3100362212
11124,14,Improv_Melody,59,1,48,55,3100500132
11124,14,Improv_Melody,60,1,48,61,3100802616
11124,14,Improv_Melody,61,5,42,110,3100861820
11124,14,Improv_Melody,62,1,48,46,3101113728
11124,14,Improv_Melody,63,2,43,80,3101364084
11124,14,Improv_Melody,64,2,67,80,3101366160
11124,14,Improv_Melody,65,5,42,127,3101368696
11124,14,Improv_Melody,66,1,48,52,3101411980
11124,14,Improv_Melody,67,1,38,30,3101773284
11124,14,Improv_Melody,68,5,42,110,3101862256
11124,14,Improv_Melody,69,5,42,110,3102362260
11124,14,Improv_Melody,70,1,38,54,3102380492
11124,14,Improv_Melody,71,1,38,48,3102739476
11124,14,Improv_Melody,72,5,42,110,3102861644
11124,14,Improv_Melody,73,1,48,52,3102878520
11124,14,Improv_Melody,74,1,38,38,3103181236
11124,14,Improv_Melody,75,1,48,47,3103324328
11124,14,Improv_Melody,76,5,42,127,3103362288
11124,14,Improv_Melody,77,1,48,49,3103639024
11124,14,Improv_Melody,78,5,42,110,3103862196
11124,14,Improv_Melody,79,1,48,53,3103958292
11124,14,Improv_Melody,80,1,48,55,3104292512
11124,14,Improv_Melody,81,5,42,110,3104362036
11124,14,Improv_Melody,82,1,48,58,3104835824
11124,14,Improv_Melody,83,5,42,110,3104861516
11124,14,Improv_Melody,84,1,48,51,3105244020
11124,14,Improv_Melody,85,2,45,80,3105364600
11124,14,Improv_Melody,86,2,69,80,3105366976
11124,14,Improv_Melody,87,5,42,127,3105369368
11124,14,Improv_Melody,88,1,48,50,3105381540
11124,14,Improv_Melody,89,1,48,51,3105666300
11124,14,Improv_Melody,90,1,48,51,3105790908
11124,14,Improv_Melody,91,5,42,110,3105862156
11124,14,Improv_Melody,92,1,48,51,3106104344
11124,14,Improv_Melody,93,5,42,110,3106361916
11124,14,Improv_Melody,94,1,48,34,3106446940
11124,14,Improv_Melody,95,1,48,41,3106684428
11124,14,Improv_Melody,96,5,42,110,3106861296
11124,14,Improv_Melody,97,1,48,38,3107286076
11124,14,Improv_Melody,98,5,42,127,3107362132
11124,14,Improv_Melody,99,1,48,44,3107755928
11124,14,Improv_Melody,100,5,42,110,3107862040
11124,14,Improv_Melody,101,1,48,40,3107952596
11124,14,Improv_Melody,102,1,48,43,3108253964
11124,14,Improv_Melody,103,5,42,110,3108361716
11124,14,Improv_Melody,104,1,48,44,3108405076
11124,14,Improv_Melody,105,1,48,43,3108672256
11124,14,Improv_Melody,106,5,42,110,3108862292
11124,14,Improv_Melody,107,1,48,48,3108982920
11124,14,Improv_Melody,108,1,48,54,3109291016
11124,14,Improv_Melody,109,2,41,80,3109364796
11124,14,Improv_Melody,110,2,65,80,3109366944
11124,14,Improv_Melody,111,5,42,127,3109369476
11124,14,Improv_Melody,112,1,48,43,3109576784
11124,14,Improv_Melody,113,5,42,110,3109861956
11124,14,Improv_Melody,114,1,48,53,3109944212
11124,14,Improv_Melody,115,1,48,47,3110285140
11124,14,Improv_Melody,116,5,42,110,3110361476
11124,14,Improv_Melody,117,1,48,45,3110436856
11124,14,Improv_Melody,118,1,48,50,3110730216
11124,14,Improv_Melody,119,5,42,110,3110862260
11124,14,Improv_Melody,120,1,48,48,3110880188
11124,14,Improv_Melody,121,1,48,54,3111166024
11124,14,Improv_Melody,122,5,42,127,3111362012
11124,14,Improv_Melody,123,1,48,50,3111466360
11124,14,Improv_Melody,124,1,48,51,3111738176
11124,14,Improv_Melody,125,5,42,110,3111861468
11124,14,Improv_Melody,126,1,48,45,3112081004
11124,14,Improv_Melody,127,5,42,110,3112362288
11124,14,Improv_Melody,128,1,48,56,3112401164
11124,14,Improv_Melody,129,1,48,54,3112762088
11124,14,Improv_Melody,130,5,42,110,3112862120
11124,14,Improv_Melody,131,1,48,54,3112914980
11124,14,Improv_Melody,132,1,48,44,3113249052
11124,14,Improv_Melody,133,2,48,80,3113364304
11124,14,Improv_Melody,134,2,72,80,3113366300
11124,14,Improv_Melody,135,5,42,127,3113369064
11124,14,Improv_Melody,136,1,48,47,3113524352
11124,14,Improv_Melody,137,1,48,45,3113672496
11124,14,Improv_Melody,138,5,42,110,3113861560
11124,14,Improv_Melody,139,1,48,41,3113974284
11124,14,Improv_Melody,140,1,48,50,3114271456
11124,14,Improv_Melody,141,5,42,110,3114362080
11124,14,Improv_Melody,142,1,48,38,3114606132
11124,14,Improv_Melody,143,5,42,110,3114861912
11124,14,Improv_Melody,144,1,48,46,3114914852
11124,14,Improv_Melody,145,1,38,51,3114929416
11124,14,Improv_Melody,146,1,48,31,3115236364
11124,14,Improv_Melody,147,5,42,127,3115361768
11124,14,Improv_Melody,148,1,48,36,3115471768
11124,14,Improv_Melody,149,1,48,36,3115792684
11124,14,Improv_Melody,150,5,42,110,3115862360
11124,14,Improv_Melody,151,1,48,40,3115948860
11124,14,Improv_Melody,152,1,48,62,3116239676
11124,14,Improv_Melody,153,1,38,71,3116248412
11124,14,Improv_Melody,154,5,42,110,3116362124
11124,14,Improv_Melody,155,1,48,31,3116534988
11124,14,Improv_Melody,156,1,48,41,3116857888
11124,14,Improv_Melody,157,5,42,110,3116861744
11124,14,Improv_Melody,158,1,48,40,3117171688
11124,14,Improv_Melody,159,2,43,80,3117364084
11124,14,Improv_Melody,160,2,67,80,3117366388
11124,14,Improv_Melody,161,5,42,127,3117368920
11124,14,Improv_Melody,162,1,38,63,3117497404
11124,14,Improv_Melody,163,1,48,59,3117500600
11124,14,Improv_Melody,164,1,48,36,3117828880
11124,14,Improv_Melody,165,5,42,110,3117862208
11124,14,Improv_Melody,166,1,48,38,3118011164
11124,14,Improv_Melody,167,1,48,45,3118298392
11124,14,Improv_Melody,168,5,42,110,3118362036
11124,14,Improv_Melody,169,1,48,42,3118453324
11124,14,Improv_Melody,170,1,48,57,3118751024
11124,14,Improv_Melody,171,1,38,60,3118765888
11124,14,Improv_Melody,172,5,42,110,3118861752
11124,14,Improv_Melody,173,1,48,40,3119070256
11124,14,Improv_Melody,174,5,42,127,3119362412
11124,14,Improv_Melody,175,1,48,41,3119387148
11124,14,Improv_Melody,176,1,48,40,3119688508
11124,14,Improv_Melody,177,5,42,110,3119862088
11124,14,Improv_Melody,178,1,38,71,3120013536
11124,14,Improv_Melody,179,1,48,62,3120021892
11124,14,Improv_Melody,180,5,42,110,3120361888
11124,14,Improv_Melody,181,1,48,39,3120368152
11124,14,Improv_Melody,182,1,48,39,3120532908
11124,14,Improv_Melody,183,1,48,49,3120804132
11124,14,Improv_Melody,184,5,42,110,3120861612
11124,14,Improv_Melody,185,1,48,46,3120973872
11124,14,Improv_Melody,186,1,48,64,3121314724
11124,14,Improv_Melody,187,1,38,60,3121318000
11124,14,Improv_Melody,188,2,45,80,3121365052
11124,14,Improv_Melody,189,2,69,80,3121367052
11124,14,Improv_Melody,190,5,42,127,3121369736
11124,14,Improv_Melody,191,1,48,42,3121637320
11124,14,Improv_Melody,192,5,42,110,3121861916
11124,14,Improv_Melody,193,1,48,46,3121992584
11124,14,Improv_Melody,194,1,48,38,3122312948
11124,14,Improv_Melody,195,5,42,110,3122361832
11124,14,Improv_Melody,196,1,38,68,3122657644
11124,14,Improv_Melody,197,1,48,54,3122661960
11124,14,Improv_Melody,198,5,42,110,3122861396
11124,14,Improv_Melody,199,1,48,40,3123027892
11124,14,Improv_Melody,200,1,48,38,3123196420
11124,14,Improv_Melody,201,5,42,127,3123362120
11124,14,Improv_Melody,202,1,48,47,3123493020
11124,14,Improv_Melody,203,1,48,46,3123663164
11124,14,Improv_Melody,204,5,42,110,3123861800
11124,14,Improv_Melody,205,1,48,59,3123979836
11124,14,Improv_Melody,206,1,38,53,3123983104
11124,14,Improv_Melody,207,1,48,48,3124298128
11124,14,Improv_Melody,208,5,42,110,3124361744
11124,14,Improv_Melody,209,1,48,61,3124658308
11124,14,Improv_Melody,210,5,42,110,3124862180
11124,14,Improv_Melody,211,1,48,29,3124975572
11124,14,Improv_Melody,212,1,38,62,3125325776
11124,14,Improv_Melody,213,1,48,51,3125329128
11124,14,Improv_Melody,214,2,41,80,3125364656
11124,14,Improv_Melody,215,2,65,80,3125366884
11124,14,Improv_Melody,216,5,42,127,3125369492
11124,14,Improv_Melody,217,1,48,37,3125667820
11124,14,Improv_Melody,218,1,48,39,3125829164
11124,14,Improv_Melody,219,5,42,110,3125861740
11124,14,Improv_Melody,220,1,48,31,3126144168
11124,14,Improv_Melody,221,1,48,30,3126317920
11124,14,Improv_Melody,222,5,42,110,3126361640
11124,14,Improv_Melody,223,1,38,65,3126657308
11124,14,Improv_Melody,224,1,48,49,3126660576
11124,14,Improv_Melody,225,5,42,110,3126862104
11124,14,Improv_Melody,226,1,48,35,3127010404
11124,14,Improv_Melody,227,5,42,127,3127362024
11124,14,Improv_Melody,228,1,48,42,3127367764
11124,14,Improv_Melody,229,1,48,22,3127801840
11124,14,Improv_Melody,230,5,42,110,3127861716
11124,14,Improv_Melody,231,1,48,33,3128118564
11124,14,Improv_Melody,232,5,42,110,3128362376
11124,14,Improv_Melody,233,5,42,110,3128862172
11124,14,Improv_Melody,234,2,48,80,3129364248
11124,14,Improv_Melody,235,2,72,80,3129366552
11124,14,Improv_Melody,236,5,42,127,3129369088
11124,14,Improv_Melody,237,5,42,110,3129861552
11124,14,Improv_Melody,238,1,48,35,3130179820
11124,14,Improv_Melody,239,5,42,110,3130362080
11124,14,Improv_Melody,240,1,38,35,3130599112
11124,14,Improv_Melody,241,1,48,21,3130640536
11124,14,Improv_Melody,242,5,42,110,3130861880
11124,14,Improv_Melody,243,1,48,18,3130914440
11124,14,Improv_Melody,244,1,48,28,3131053916
11124,14,Improv_Melody,245,1,48,21,3131307708
11124,14,Improv_Melody,246,5,42,127,3131361676
11124,14,Improv_Melody,247,1,38,57,3131772028
11124,14,Improv_Melody,248,1,48,53,3131791228
11124,14,Improv_Melody,249,5,42,110,3131862548
11124,14,Improv_Melody,250,1,48,36,3132095072
11124,14,Improv_Melody,251,5,42,110,3132362072
11124,14,Improv_Melody,252,1,48,61,3132467160
11124,14,Improv_Melody,253,1,48,20,3132795528
11124,14,Improv_Melody,254,5,42,110,3132861840
11124,14,Improv_Melody,255,1,38,65,3133180788
11124,14,Improv_Melody,256,1,48,55,3133189148
11124,14,Improv_Melody,257,2,43,80,3133364060
11124,14,Improv_Melody,258,2,67,80,3133366364
11124,14,Improv_Melody,259,5,42,127,3133368968
11124,14,Improv_Melody,260,1,48,31,3133549456
11124,14,Improv_Melody,261,5,42,110,3133862236
11124,14,Improv_Melody,262,1,48,17,3133923552
11124,14,Improv_Melody,263,1,48,20,3134110692
11124,14,Improv_Melody,264,5,42,110,3134362064
11124,14,Improv_Melody,265,1,48,16,3134443676
11124,14,Improv_Melody,266,1,48,27,3134581056
11124,14,Improv_Melody,267,5,42,110,3134861668
11124,14,Improv_Melody,268,1,38,89,3134901588
11124,14,Improv_Melody,269,1,48,57,3134907104
11124,14,Improv_Melody,270,1,48,38,3135265608
11124,14,Improv_Melody,271,5,42,127,3135363468
11124,14,Improv_Melody,272,1,48,47,3135665432
11124,14,Improv_Melody,273,5,42,110,3135862120
11124,14,Improv_Melody,274,1,48,44,3136008656
11124,14,Improv_Melody,275,5,42,110,3136362044
11124,14,Improv_Melody,276,1,38,64,3136363012
11124,14,Improv_Melody,277,1,48,52,3136365088
11124,14,Improv_Melody,278,1,48,40,3136690640
11124,14,Improv_Melody,279,5,42,110,3136861676
11124,14,Improv_Melody,280,1,48,36,3136877884
11124,14,Improv_Melody,281,1,48,43,3137145216
11124,14,Improv_Melody,282,1,48,39,3137304764
11124,14,Improv_Melody,283,2,45,80,3137364824
11124,14,Improv_Melody,284,2,69,80,3137366752
11124,14,Improv_Melody,285,5,42,127,3137369516
11124,14,Improv_Melody,286,1,38,51,3137596360
11124,14,Improv_Melody,287,1,48,52,3137612276
11124,14,Improv_Melody,288,5,42,110,3137861896
11124,14,Improv_Melody,289,1,48,35,3137960384
11124,14,Improv_Melody,290,1,48,43,3138272064
11124,14,Improv_Melody,291,5,42,110,3138361664
11124,14,Improv_Melody,292,1,48,42,3138589632
11124,14,Improv_Melody,293,5,42,110,3138861648
11124,14,Improv_Melody,294,1,48,53,3138926472
11124,14,Improv_Melody,295,1,38,67,3138936776
11124,14,Improv_Melody,296,1,48,37,3139262500
11124,14,Improv_Melody,297,5,42,127,3139362396
11124,14,Improv_Melody,298,1,48,38,3139433432
11124,14,Improv_Melody,299,1,48,44,3139713632
11124,14,Improv_Melody,300,5,42,110,3139861928
11124,14,Improv_Melody,301,1,48,37,3139877832
11124,14,Improv_Melody,302,1,48,54,3140189748
11124,14,Improv_Melody,303,1,38,59,3140199148
11124,14,Improv_Melody,304,5,42,110,3140361632
11124,14,Improv_Melody,305,1,48,42,3140540900
11124,14,Improv_Melody,306,5,42,110,3140862452
11124,14,Improv_Melody,307,1,48,55,3140891756
11124,14,Improv_Melody,308,1,48,29,3141194460
11124,14,Improv_Melody,309,2,41,80,3141364564
11124,14,Improv_Melody,310,2,65,80,3141366636
11124,14,Improv_Melody,311,5,42,127,3141369028
11124,14,Improv_Melody,312,1,48,57,3141536032
11124,14,Improv_Melody,313,1,38,61,3141559868
11124,14,Improv_Melody,314,5,42,110,3141861696
11124,14,Improv_Melody,315,1,48,37,3141886656
11124,14,Improv_Melody,316,1,48,32,3142041240
11124,14,Improv_Melody,317,5,42,110,3142361796
11124,14,Improv_Melody,318,1,48,41,3142362840
11124,14,Improv_Melody,319,1,48,40,3142526188
11124,14,Improv_Melody,320,5,42,110,3142862224
11124,14,Improv_Melody,321,1,38,68,3142863784
11124,14,Improv_Melody,322,1,48,51,3142867504
11124,14,Improv_Melody,323,1,48,36,3143184800
11124,14,Improv_Melody,324,5,42,127,3143361868
11124,14,Improv_Melody,325,1,48,59,3143517304
11124,14,Improv_Melody,326,5,42,110,3143861568
11124,14,Improv_Melody,327,1,48,40,3143875980
11124,14,Improv_Melody,328,1,48,61,3144233616
11124,14,Improv_Melody,329,5,42,110,3144362368
11124,14,Improv_Melody,330,5,42,110,3144862016
11124,14,Improv_Melody,331,1,48,54,3145004360
11124,14,Improv_Melody,332,2,48,80,3145363992
11124,14,Improv_Melody,333,2,72,80,3145366444
11124,14,Improv_Melody,334,5,42,127,3145368980
11124,14,Improv_Melody,335,1,48,52,3145651796
11124,14,Improv_Melody,336,5,42,110,3145861576
11124,14,Improv_Melody,337,1,48,41,3146037504
11124,14,Improv_Melody,338,5,42,110,3146362324
11124,14,Improv_Melody,339,1,48,49,3146397008
11124,14,Improv_Melody,340,1,38,48,3146399600
11124,14,Improv_Melody,341,1,48,47,3146758928
11124,14,Improv_Melody,342,5,42,110,3146861804
11124,14,Improv_Melody,343,1,48,50,3147105048
11124,14,Improv_Melody,344,5,42,127,3147361728
11124,14,Improv_Melody,345,1,48,40,3147456172
11124,14,Improv_Melody,346,1,38,60,3147810144
11124,14,Improv_Melody,347,1,48,60,3147821040
11124,14,Improv_Melody,348,5,42,110,3147862372
11124,14,Improv_Melody,349,1,48,28,3148206552
11124,14,Improv_Melody,350,5,42,110,3148362252
11124,14,Improv_Melody,351,1,48,48,3148577224
11124,14,Improv_Melody,352,5,42,110,3148861732
11124,14,Improv_Melody,353,1,48,34,3148956776
11124,14,Improv_Melody,354,1,48,54,3149354800
11124,14,Improv_Melody,355,2,43,80,3149364232
11124,14,Improv_Melody,356,2,67,80,3149366308
11124,14,Improv_Melody,357,5,42,127,3149368768
11124,14,Improv_Melody,358,1,38,53,3149389464
11124,14,Improv_Melody,359,1,48,32,3149780556
11124,14,Improv_Melody,360,5,42,110,3149862372
11124,14,Improv_Melody,361,1,48,44,3150155796
11124,14,Improv_Melody,362,5,42,110,3150362060
11124,14,Improv_Melody,363,1,48,42,3150542976
11124,14,Improv_Melody,364,5,42,110,3150861612
11124,14,Improv_Melody,365,1,38,63,3150917836
11124,14,Improv_Melody,366,1,48,59,3150921108
11124,14,Improv_Melody,367,1,48,49,3151313692
11124,14,Improv_Melody,368,5,42,127,3151362380
11124,14,Improv_Melody,369,1,48,48,3151691772
11124,14,Improv_Melody,370,5,42,110,3151862140
11124,14,Improv_Melody,371,1,48,47,3152114512
11124,14,Improv_Melody,372,5,42,110,3152361768
11124,14,Improv_Melody,373,1,38,52,3152525404
11124,14,Improv_Melody,374,1,48,58,3152551412
11124,14,Improv_Melody,375,5,42,110,3152861544
11124,14,Improv_Melody,376,1,48,45,3152955420
11124,14,Improv_Melody,377,1,48,48,3153333676
11124,14,Improv_Melody,378,2,45,80,3153364784
11124,14,Improv_Melody,379,2,69,80,3153366940
11124,14,Improv_Melody,380,5,42,127,3153369480
11124,14,Improv_Melody,381,1,48,45,3153746100
11124,14,Improv_Melody,382,5,42,110,3153862128
11124,14,Improv_Melody,383,1,38,52,3154130284
11124,14,Improv_Melody,384,1,48,55,3154146720
11124,14,Improv_Melody,385,5,42,110,3154361708
11124,14,Improv_Melody,386,1,48,45,3154586476
11124,14,Improv_Melody,387,5,42,110,3154861484
11124,14,Improv_Melody,388,1,48,47,3154969416
11124,14,Improv_Melody,389,1,48,43,3155350596
11124,14,Improv_Melody,390,5,42,127,3155362224
11124,14,Improv_Melody,391,1,38,64,3155769812
11124,14,Improv_Melody,392,1,48,46,3155772256
11124,14,Improv_Melody,393,5,42,110,3155861908
11124,14,Improv_Melody,394,1,48,41,3156203340
11124,14,Improv_Melody,395,5,42,110,3156361788
11124,14,Improv_Melody,396,1,48,37,3156594788
11124,14,Improv_Melody,397,5,42,110,3156862236
11124,14,Improv_Melody,398,1,48,40,3157042428
11124,14,Improv_Melody,399,2,41,80,3157364668
11124,14,Improv_Melody,400,2,65,80,3157366740
11124,14,Improv_Melody,401,5,42,127,3157369280
11124,14,Improv_Melody,402,1,48,54,3157482300
11124,14,Improv_Melody,403,1,38,56,3157490736
11124,14,Improv_Melody,404,5,42,110,3157861680
11124,14,Improv_Melody,405,1,48,44,3157929348
11124,14,Improv_Melody,406,5,42,110,3158361456
11124,14,Improv_Melody,407,1,48,51,3158390828
11124,14,Improv_Melody,408,1,48,45,3158822360
11124,14,Improv_Melody,409,5,42,110,3158862268
11124,14,Improv_Melody,410,1,38,68,3159301344
11124,14,Improv_Melody,411,1,48,60,3159305064
11124,14,Improv_Melody,412,5,42,127,3159361948
11124,14,Improv_Melody,413,1,48,39,3159781696
11124,14,Improv_Melody,414,5,42,110,3159861768
11124,14,Improv_Melody,415,1,48,41,3160292140
11124,14,Improv_Melody,416,5,42,110,3160362368
11124,14,Improv_Melody,417,1,48,43,3160747120
11124,14,Improv_Melody,418,5,42,110,3160862128
11124,14,Improv_Melody,419,1,48,52,3161266932
11124,14,Improv_Melody,420,2,48,80,3161364260
11124,14,Improv_Melody,421,2,72,80,3161366332
11124,14,Improv_Melody,422,5,42,127,3161368872
11124,14,Improv_Melody,423,1,48,46,3161845660
11124,14,Improv_Melody,424,5,42,110,3161861556
11124,14,Improv_Melody,425,1,38,59,3162353064
11124,14,Improv_Melody,0,9999,9999,9999,3081359432
11124,14,Improv_Melody,1,9999,9999,9999,3081859196
11124,14,Improv_Melody,2,9999,9999,9999,3082359888
11124,14,Improv_Melody,3,9999,9999,9999,3082859608
11124,14,Improv_Melody,4,9999,9999,9999,3083359332
11124,14,Improv_Melody,5,9999,9999,9999,3083860024
11124,14,Improv_Melody,6,9999,9999,9999,3084359748
11124,14,Improv_Melody,7,9999,9999,9999,3084859468
11124,14,Improv_Melody,8,9999,9999,9999,3085359192
11124,14,Improv_Melody,9,9999,9999,9999,3085859900
11124,14,Improv_Melody,10,9999,9999,9999,3086359620
11124,14,Improv_Melody,11,9999,9999,9999,3086859344
11124,14,Improv_Melody,12,9999,9999,9999,3087360112
11124,14,Improv_Melody,13,9999,9999,9999,3087859832
11124,14,Improv_Melody,14,9999,9999,9999,3088359528
11124,14,Improv_Melody,15,9999,9999,9999,3088859252
11124,14,Improv_Melody,16,9999,9999,9999,3089359944
11124,14,Improv_Melody,17,9999,9999,9999,3089859680
11124,14,Improv_Melody,18,9999,9999,9999,3090359404
11124,14,Improv_Melody,19,9999,9999,9999,3090859124
11124,14,Improv_Melody,20,9999,9999,9999,3091359820
11124,14,Improv_Melody,21,9999,9999,9999,3091859540
11124,14,Improv_Melody,22,9999,9999,9999,3092359264
11124,14,Improv_Melody,23,9999,9999,9999,3092859956
11124,14,Improv_Melody,24,9999,9999,9999,3093359676
11124,14,Improv_Melody,25,9999,9999,9999,3093859416
11124,14,Improv_Melody,26,9999,9999,9999,3094359136
11124,14,Improv_Melody,27,9999,9999,9999,3094859828
11124,14,Improv_Melody,28,9999,9999,9999,3095359552
11124,14,Improv_Melody,29,9999,9999,9999,3095859276
11124,14,Improv_Melody,30,9999,9999,9999,3096360044
11124,14,Improv_Melody,31,9999,9999,9999,3096859764
11124,14,Improv_Melody,32,9999,9999,9999,3097359480
11124,14,Improv_Melody,33,9999,9999,9999,3097859192
11124,14,Improv_Melody,34,9999,9999,9999,3098359920
11124,14,Improv_Melody,35,9999,9999,9999,3098859604
11124,14,Improv_Melody,36,9999,9999,9999,3099359332
11124,14,Improv_Melody,37,9999,9999,9999,3099860080
11124,14,Improv_Melody,38,9999,9999,9999,3100359772
11124,14,Improv_Melody,39,9999,9999,9999,3100859452
11124,14,Improv_Melody,40,9999,9999,9999,3101359212
11124,14,Improv_Melody,41,9999,9999,9999,3101859892
11124,14,Improv_Melody,42,9999,9999,9999,3102359672
11124,14,Improv_Melody,43,9999,9999,9999,3102859352
11124,14,Improv_Melody,44,9999,9999,9999,3103360072
11124,14,Improv_Melody,45,9999,9999,9999,3103859828
11124,14,Improv_Melody,46,9999,9999,9999,3104359524
11124,14,Improv_Melody,47,9999,9999,9999,3104859224
11124,14,Improv_Melody,48,9999,9999,9999,3105359956
11124,14,Improv_Melody,49,9999,9999,9999,3105859644
11124,14,Improv_Melody,50,9999,9999,9999,3106359404
11124,14,Improv_Melody,51,9999,9999,9999,3106859080
11124,14,Improv_Melody,52,9999,9999,9999,3107359840
11124,14,Improv_Melody,53,9999,9999,9999,3107859524
11124,14,Improv_Melody,54,9999,9999,9999,3108359276
11124,14,Improv_Melody,55,9999,9999,9999,3108860004
11124,14,Improv_Melody,56,9999,9999,9999,3109359696
11124,14,Improv_Melody,57,9999,9999,9999,3109859440
11124,14,Improv_Melody,58,9999,9999,9999,3110359112
11124,14,Improv_Melody,59,9999,9999,9999,3110859892
11124,14,Improv_Melody,60,9999,9999,9999,3111359572
11124,14,Improv_Melody,61,9999,9999,9999,3111859252
11124,14,Improv_Melody,62,9999,9999,9999,3112359996
11124,14,Improv_Melody,63,9999,9999,9999,3112859752
11124,14,Improv_Melody,64,9999,9999,9999,3113359428
11124,14,Improv_Melody,65,9999,9999,9999,3113859196
11124,14,Improv_Melody,66,9999,9999,9999,3114359860
11124,14,Improv_Melody,67,9999,9999,9999,3114859620
11124,14,Improv_Melody,68,9999,9999,9999,3115359328
11124,14,Improv_Melody,69,9999,9999,9999,3115860068
11124,14,Improv_Melody,70,9999,9999,9999,3116359756
11124,14,Improv_Melody,71,9999,9999,9999,3116859452
11124,14,Improv_Melody,72,9999,9999,9999,3117359208
11124,14,Improv_Melody,73,9999,9999,9999,3117859916
11124,14,Improv_Melody,74,9999,9999,9999,3118359668
11124,14,Improv_Melody,75,9999,9999,9999,3118859312
11124,14,Improv_Melody,76,9999,9999,9999,3119360120
11124,14,Improv_Melody,77,9999,9999,9999,3119859796
11124,14,Improv_Melody,78,9999,9999,9999,3120359524
11124,14,Improv_Melody,79,9999,9999,9999,3120859248
11124,14,Improv_Melody,80,9999,9999,9999,3121359952
11124,14,Improv_Melody,81,9999,9999,9999,3121859696
11124,14,Improv_Melody,82,9999,9999,9999,3122359392
11124,14,Improv_Melody,83,9999,9999,9999,3122859100
11124,14,Improv_Melody,84,9999,9999,9999,3123359828
11124,14,Improv_Melody,85,9999,9999,9999,3123859508
11124,14,Improv_Melody,86,9999,9999,9999,3124359232
11124,14,Improv_Melody,87,9999,9999,9999,3124859960
11124,14,Improv_Melody,88,9999,9999,9999,3125359708
11124,14,Improv_Melody,89,9999,9999,9999,3125859448
11124,14,Improv_Melody,90,9999,9999,9999,3126359128
11124,14,Improv_Melody,91,9999,9999,9999,3126859884
11124,14,Improv_Melody,92,9999,9999,9999,3127359584
11124,14,Improv_Melody,93,9999,9999,9999,3127859276
11124,14,Improv_Melody,94,9999,9999,9999,3128360008
11124,14,Improv_Melody,95,9999,9999,9999,3128859732
11124,14,Improv_Melody,96,9999,9999,9999,3129359452
11124,14,Improv_Melody,97,9999,9999,9999,3129859188
11124,14,Improv_Melody,98,9999,9999,9999,3130359860
11124,14,Improv_Melody,99,9999,9999,9999,3130859588
11124,14,Improv_Melody,100,9999,9999,9999,3131359308
11124,14,Improv_Melody,101,9999,9999,9999,3131860036
11124,14,Improv_Melody,102,9999,9999,9999,3132359780
11124,14,Improv_Melody,103,9999,9999,9999,3132859472
11124,14,Improv_Melody,104,9999,9999,9999,3133359188
11124,14,Improv_Melody,105,9999,9999,9999,3133859944
11124,14,Improv_Melody,106,9999,9999,9999,3134359624
11124,14,Improv_Melody,107,9999,9999,9999,3134859376
11124,14,Improv_Melody,108,9999,9999,9999,3135360068
11124,14,Improv_Melody,109,9999,9999,9999,3135859828
11124,14,Improv_Melody,110,9999,9999,9999,3136359532
11124,14,Improv_Melody,111,9999,9999,9999,3136859236
11124,14,Improv_Melody,112,9999,9999,9999,3137359952
11124,14,Improv_Melody,113,9999,9999,9999,3137859680
11124,14,Improv_Melody,114,9999,9999,9999,3138359376
11124,14,Improv_Melody,115,9999,9999,9999,3138859056
11124,14,Improv_Melody,116,9999,9999,9999,3139359824
11124,14,Improv_Melody,117,9999,9999,9999,3139859560
11124,14,Improv_Melody,118,9999,9999,9999,3140359264
11124,14,Improv_Melody,119,9999,9999,9999,3140860012
11124,14,Improv_Melody,120,9999,9999,9999,3141359692
11124,14,Improv_Melody,121,9999,9999,9999,3141859408
11124,14,Improv_Melody,122,9999,9999,9999,3142359136
11124,14,Improv_Melody,123,9999,9999,9999,3142859860
11124,14,Improv_Melody,124,9999,9999,9999,3143359576
11124,14,Improv_Melody,125,9999,9999,9999,3143859276
11124,14,Improv_Melody,126,9999,9999,9999,3144360000
11124,14,Improv_Melody,127,9999,9999,9999,3144859724
11124,14,Improv_Melody,128,9999,9999,9999,3145359420
11124,14,Improv_Melody,129,9999,9999,9999,3145859136
11124,14,Improv_Melody,130,9999,9999,9999,3146359880
11124,14,Improv_Melody,131,9999,9999,9999,3146859584
11124,14,Improv_Melody,132,9999,9999,9999,3147359284
11124,14,Improv_Melody,133,9999,9999,9999,3147860080
11124,14,Improv_Melody,134,9999,9999,9999,3148359740
11124,14,Improv_Melody,135,9999,9999,9999,3148859512
11124,14,Improv_Melody,136,9999,9999,9999,3149359208
11124,14,Improv_Melody,137,9999,9999,9999,3149859932
11124,14,Improv_Melody,138,9999,9999,9999,3150359620
11124,14,Improv_Melody,139,9999,9999,9999,3150859320
11124,14,Improv_Melody,140,9999,9999,9999,3151360088
11124,14,Improv_Melody,141,9999,9999,9999,3151859772
11124,14,Improv_Melody,142,9999,9999,9999,3152359476
11124,14,Improv_Melody,143,9999,9999,9999,3152859252
11124,14,Improv_Melody,144,9999,9999,9999,3153359992
11124,14,Improv_Melody,145,9999,9999,9999,3153859688
11124,14,Improv_Melody,146,9999,9999,9999,3154359416
11124,14,Improv_Melody,147,9999,9999,9999,3154859116
11124,14,Improv_Melody,148,9999,9999,9999,3155359860
11124,14,Improv_Melody,149,9999,9999,9999,3155859540
11124,14,Improv_Melody,150,9999,9999,9999,3156359272
11124,14,Improv_Melody,151,9999,9999,9999,3156860020
11124,14,Improv_Melody,152,9999,9999,9999,3157359720
11124,14,Improv_Melody,153,9999,9999,9999,3157859388
11124,14,Improv_Melody,154,9999,9999,9999,3158359164
11124,14,Improv_Melody,155,9999,9999,9999,3158859828
11124,14,Improv_Melody,156,9999,9999,9999,3159359584
11124,14,Improv_Melody,157,9999,9999,9999,3159859252
11124,14,Improv_Melody,158,9999,9999,9999,3160360000
11124,14,Improv_Melody,159,9999,9999,9999,3160859760
11124,14,Improv_Melody,160,9999,9999,9999,3161359424
11124,14,Improv_Melody,161,9999,9999,9999,3161859192
111