pid,taskRunCount,taskID,taskName,i,channel,pitch,velocity,microseconds
116,1,1,Ticks_Pract_5,0,5,42,127,96360924
116,1,1,Ticks_Pract_5,1,5,42,127,96860492
116,1,1,Ticks_Pract_5,2,5,42,127,97361256
116,1,1,Ticks_Pract_5,3,5,42,127,97860972
116,1,1,Ticks_Pract_5,4,5,42,127,98360912
116,1,1,Ticks_Pract_5,5,1,48,45,98368672
116,1,1,Ticks_Pract_5,6,1,48,41,98858772
116,1,1,Ticks_Pract_5,7,5,42,127,98861348
116,1,1,Ticks_Pract_5,8,1,48,43,99358540
116,1,1,Ticks_Pract_5,9,5,42,127,99361192
116,1,1,Ticks_Pract_5,10,5,42,127,99860816
116,1,1,Ticks_Pract_5,11,1,48,47,99866476
116,1,1,Ticks_Pract_5,12,5,42,127,100360588
116,1,1,Ticks_Pract_5,13,1,48,46,100379116
116,1,1,Ticks_Pract_5,14,5,42,127,100861180
116,1,1,Ticks_Pract_5,15,1,48,47,100870212
116,1,1,Ticks_Pract_5,16,5,42,127,101361024
116,1,1,Ticks_Pract_5,17,1,48,44,101373268
116,1,1,Ticks_Pract_5,18,1,48,40,101855292
116,1,1,Ticks_Pract_5,19,5,42,127,101860712
116,1,1,Ticks_Pract_5,20,1,48,45,102352712
116,1,1,Ticks_Pract_5,21,5,42,127,102360404
116,1,1,Ticks_Pract_5,22,5,42,127,102861052
116,1,1,Ticks_Pract_5,23,1,48,45,102872048
116,1,1,Ticks_Pract_5,24,1,48,41,103350608
116,1,1,Ticks_Pract_5,25,5,42,127,103360740
116,1,1,Ticks_Pract_5,26,1,48,43,103849780
116,1,1,Ticks_Pract_5,27,5,42,127,103860660
116,1,1,Ticks_Pract_5,28,1,48,40,104333320
116,1,1,Ticks_Pract_5,29,5,42,127,104361252
116,1,1,Ticks_Pract_5,30,1,48,37,104844228
116,1,1,Ticks_Pract_5,31,5,42,127,104860944
116,1,1,Ticks_Pract_5,32,1,48,37,105344820
116,1,1,Ticks_Pract_5,33,5,42,127,105360864
116,1,1,Ticks_Pract_5,34,1,48,33,105834724
116,1,1,Ticks_Pract_5,35,5,42,127,105860560
116,1,1,Ticks_Pract_5,36,1,48,39,106353264
116,1,1,Ticks_Pract_5,37,5,42,127,106361152
116,1,1,Ticks_Pract_5,38,5,42,127,106860852
116,1,1,Ticks_Pract_5,39,1,48,37,106878780
116,1,1,Ticks_Pract_5,40,1,48,35,107349216
116,1,1,Ticks_Pract_5,41,5,42,127,107360692
116,1,1,Ticks_Pract_5,42,1,48,37,107825496
116,1,1,Ticks_Pract_5,43,5,42,127,107861360
116,1,1,Ticks_Pract_5,44,1,48,36,108360460
116,1,1,Ticks_Pract_5,45,5,42,127,108362028
116,1,1,Ticks_Pract_5,46,1,48,34,108837380
116,1,1,Ticks_Pract_5,47,5,42,127,108860748
116,1,1,Ticks_Pract_5,48,1,48,32,109350684
116,1,1,Ticks_Pract_5,49,5,42,127,109360592
116,1,1,Ticks_Pract_5,50,1,48,31,109848508
116,1,1,Ticks_Pract_5,51,5,42,127,109861556
116,1,1,Ticks_Pract_5,52,5,42,127,110360960
116,1,1,Ticks_Pract_5,53,1,48,35,110369020
116,1,1,Ticks_Pract_5,54,1,48,34,110853508
116,1,1,Ticks_Pract_5,55,5,42,127,110860500
116,1,1,Ticks_Pract_5,56,5,42,127,111361620
116,1,1,Ticks_Pract_5,57,1,48,35,111368780
116,1,1,Ticks_Pract_5,58,1,48,35,111837040
116,1,1,Ticks_Pract_5,59,5,42,127,111861160
116,1,1,Ticks_Pract_5,60,1,48,37,112333640
116,1,1,Ticks_Pract_5,61,5,42,127,112360780
116,1,1,Ticks_Pract_5,62,1,48,27,112838048
116,1,1,Ticks_Pract_5,63,5,42,127,112860620
116,1,1,Ticks_Pract_5,64,1,48,32,113333628
116,1,1,Ticks_Pract_5,65,5,42,127,113361188
116,1,1,Ticks_Pract_5,66,1,48,35,113834964
116,1,1,Ticks_Pract_5,67,5,42,127,113860884
116,1,1,Ticks_Pract_5,68,1,48,36,114343560
116,1,1,Ticks_Pract_5,69,5,42,127,114360652
116,1,1,Ticks_Pract_5,70,1,48,36,114854696
116,1,1,Ticks_Pract_5,71,5,42,127,114861616
116,1,1,Ticks_Pract_5,72,5,42,127,115361244
116,1,1,Ticks_Pract_5,73,1,48,32,115365332
116,1,1,Ticks_Pract_5,74,1,48,33,115857304
116,1,1,Ticks_Pract_5,75,5,42,127,115860928
116,1,1,Ticks_Pract_5,0,9999,9999,9999,96358492
116,1,1,Ticks_Pract_5,1,9999,9999,9999,96858208
116,1,1,Ticks_Pract_5,2,9999,9999,9999,97358968
116,1,1,Ticks_Pract_5,3,9999,9999,9999,97858612
116,1,1,Ticks_Pract_5,4,9999,9999,9999,98358328
116,1,1,Ticks_Pract_5,5,9999,9999,9999,98859064
116,1,1,Ticks_Pract_5,6,9999,9999,9999,99358832
116,1,1,Ticks_Pract_5,7,9999,9999,9999,99858532
116,1,1,Ticks_Pract_5,8,9999,9999,9999,100358228
116,1,1,Ticks_Pract_5,9,9999,9999,9999,100858968
116,1,1,Ticks_Pract_5,10,9999,9999,9999,101358664
116,1,1,Ticks_Pract_5,11,9999,9999,9999,101858424
116,1,1,Ticks_Pract_5,12,9999,9999,9999,102358120
116,1,1,Ticks_Pract_5,13,9999,9999,9999,102858840
116,1,1,Ticks_Pract_5,14,9999,9999,9999,103358528
116,1,1,Ticks_Pract_5,15,9999,9999,9999,103858224
116,1,1,Ticks_Pract_5,16,9999,9999,9999,104358968
116,1,1,Ticks_Pract_5,17,9999,9999,9999,104858736
116,1,1,Ticks_Pract_5,18,9999,9999,9999,105358428
116,1,1,Ticks_Pract_5,19,9999,9999,9999,105858128
116,1,1,Ticks_Pract_5,20,9999,9999,9999,106358868
116,1,1,Ticks_Pract_5,21,9999,9999,9999,106858568
116,1,1,Ticks_Pract_5,22,9999,9999,9999,107358256
116,1,1,Ticks_Pract_5,23,9999,9999,9999,107859000
116,1,1,Ticks_Pract_5,24,9999,9999,9999,108358776
116,1,1,Ticks_Pract_5,25,9999,9999,9999,108858464
116,1,1,Ticks_Pract_5,26,9999,9999,9999,109358156
116,1,1,Ticks_Pract_5,27,9999,9999,9999,109858900
116,1,1,Ticks_Pract_5,28,9999,9999,9999,110358600
116,1,1,Ticks_Pract_5,29,9999,9999,9999,110858288
116,1,1,Ticks_Pract_5,30,9999,9999,9999,111359036
116,1,1,Ticks_Pract_5,31,9999,9999,9999,111858800
116,1,1,Ticks_Pract_5,32,9999,9999,9999,112358492
116,1,1,Ticks_Pract_5,33,9999,9999,9999,112858184
116,1,1,Ticks_Pract_5,34,9999,9999,9999,113358904
116,1,1,Ticks_Pract_5,35,9999,9999,9999,113858672
116,1,1,Ticks_Pract_5,36,9999,9999,9999,114358364
116,1,1,Ticks_Pract_5,37,9999,9999,9999,114859104
116,1,1,Ticks_Pract_5,38,9999,9999,9999,115358808
116,1,1,Ticks_Pract_5,39,9999,9999,9999,115858496
116,2,0,Ticks_Pract_8,0,5,42,127,136761556
116,2,0,Ticks_Pract_8,1,5,42,127,137561312
116,2,0,Ticks_Pract_8,2,1,48,40,138295356
116,2,0,Ticks_Pract_8,3,5,42,127,138362480
116,2,0,Ticks_Pract_8,4,1,48,44,139099280
116,2,0,Ticks_Pract_8,5,5,42,127,139161844
116,2,0,Ticks_Pract_8,6,1,48,38,139939628
116,2,0,Ticks_Pract_8,7,5,42,127,139961728
116,2,0,Ticks_Pract_8,8,1,48,38,140760740
116,2,0,Ticks_Pract_8,9,5,42,127,140762236
116,2,0,Ticks_Pract_8,10,1,48,35,141560308
116,2,0,Ticks_Pract_8,11,5,42,127,141562268
116,2,0,Ticks_Pract_8,12,1,48,34,142340204
116,2,0,Ticks_Pract_8,13,5,42,127,142362148
116,2,0,Ticks_Pract_8,14,1,48,36,143083384
116,2,0,Ticks_Pract_8,15,5,42,127,143161808
116,2,0,Ticks_Pract_8,16,1,48,44,143949168
116,2,0,Ticks_Pract_8,17,5,42,127,143961392
116,2,0,Ticks_Pract_8,18,5,42,127,144762104
116,2,0,Ticks_Pract_8,19,1,48,43,144778392
116,2,0,Ticks_Pract_8,20,1,48,41,145546468
116,2,0,Ticks_Pract_8,21,5,42,127,145562128
116,2,0,Ticks_Pract_8,22,1,48,35,146348664
116,2,0,Ticks_Pract_8,23,5,42,127,146361640
116,2,0,Ticks_Pract_8,24,1,48,40,147153112
116,2,0,Ticks_Pract_8,25,5,42,127,147161548
116,2,0,Ticks_Pract_8,26,5,42,127,147962184
116,2,0,Ticks_Pract_8,27,1,48,34,147979816
116,2,0,Ticks_Pract_8,28,5,42,127,148761992
116,2,0,Ticks_Pract_8,29,1,48,33,148773560
116,2,0,Ticks_Pract_8,30,1,48,36,149538052
116,2,0,Ticks_Pract_8,31,5,42,127,149561644
116,2,0,Ticks_Pract_8,32,1,48,37,150323572
116,2,0,Ticks_Pract_8,33,5,42,127,150361456
116,2,0,Ticks_Pract_8,34,5,42,127,151162092
116,2,0,Ticks_Pract_8,35,1,48,38,151164756
116,2,0,Ticks_Pract_8,36,5,42,127,151962048
116,2,0,Ticks_Pract_8,37,1,48,37,151998300
116,2,0,Ticks_Pract_8,38,5,42,127,152761704
116,2,0,Ticks_Pract_8,39,1,48,27,152769016
116,2,0,Ticks_Pract_8,40,1,48,34,153552052
116,2,0,Ticks_Pract_8,41,5,42,127,153561384
116,2,0,Ticks_Pract_8,42,1,48,32,154342980
116,2,0,Ticks_Pract_8,43,5,42,127,154362164
116,2,0,Ticks_Pract_8,44,1,48,37,155137628
116,2,0,Ticks_Pract_8,45,5,42,127,155162044
116,2,0,Ticks_Pract_8,46,1,48,34,155944168
116,2,0,Ticks_Pract_8,47,5,42,127,155961556
116,2,0,Ticks_Pract_8,48,1,48,40,156751380
116,2,0,Ticks_Pract_8,49,5,42,127,156761512
116,2,0,Ticks_Pract_8,50,1,48,37,157538332
116,2,0,Ticks_Pract_8,51,5,42,127,157562148
116,2,0,Ticks_Pract_8,52,1,48,41,158340752
116,2,0,Ticks_Pract_8,53,5,42,127,158362104
116,2,0,Ticks_Pract_8,54,1,48,38,159146320
116,2,0,Ticks_Pract_8,55,5,42,127,159161688
116,2,0,Ticks_Pract_8,56,1,48,29,159945528
116,2,0,Ticks_Pract_8,57,5,42,127,159961300
116,2,0,Ticks_Pract_8,58,1,48,40,160736084
116,2,0,Ticks_Pract_8,0,9999,9999,9999,136759344
116,2,0,Ticks_Pract_8,1,9999,9999,9999,137559100
116,2,0,Ticks_Pract_8,2,9999,9999,9999,138359896
116,2,0,Ticks_Pract_8,3,9999,9999,9999,139159628
116,2,0,Ticks_Pract_8,4,9999,9999,9999,139959368
116,2,0,Ticks_Pract_8,5,9999,9999,9999,140759132
116,2,0,Ticks_Pract_8,6,9999,9999,9999,141559856
116,2,0,Ticks_Pract_8,7,9999,9999,9999,142359640
116,2,0,Ticks_Pract_8,8,9999,9999,9999,143159372
116,2,0,Ticks_Pract_8,9,9999,9999,9999,143959104
116,2,0,Ticks_Pract_8,10,9999,9999,9999,144759892
116,2,0,Ticks_Pract_8,11,9999,9999,9999,145559620
116,2,0,Ticks_Pract_8,12,9999,9999,9999,146359352
116,2,0,Ticks_Pract_8,13,9999,9999,9999,147159112
116,2,0,Ticks_Pract_8,14,9999,9999,9999,147959896
116,2,0,Ticks_Pract_8,15,9999,9999,9999,148759632
116,2,0,Ticks_Pract_8,16,9999,9999,9999,149559356
116,2,0,Ticks_Pract_8,17,9999,9999,9999,150359092
116,2,0,Ticks_Pract_8,18,9999,9999,9999,151159876
116,2,0,Ticks_Pract_8,19,9999,9999,9999,151959612
116,2,0,Ticks_Pract_8,20,9999,9999,9999,152759344
116,2,0,Ticks_Pract_8,21,9999,9999,9999,153559096
116,2,0,Ticks_Pract_8,22,9999,9999,9999,154359876
116,2,0,Ticks_Pract_8,23,9999,9999,9999,155159608
116,2,0,Ticks_Pract_8,24,9999,9999,9999,155959344
116,2,0,Ticks_Pract_8,25,9999,9999,9999,156759152
116,2,0,Ticks_Pract_8,26,9999,9999,9999,157559860
116,2,0,Ticks_Pract_8,27,9999,9999,9999,158359668
116,2,0,Ticks_Pract_8,28,9999,9999,9999,159159400
116,2,0,Ticks_Pract_8,29,9999,9999,9999,159959084
116,3,4,T1_SMS_5,0,5,42,127,265264516
116,3,4,T1_SMS_5,1,5,42,127,265765356
116,3,4,T1_SMS_5,2,5,42,127,266264924
116,3,4,T1_SMS_5,3,5,42,127,266764640
116,3,4,T1_SMS_5,4,1,48,49,267257140
116,3,4,T1_SMS_5,5,5,42,127,267265324
116,3,4,T1_SMS_5,6,1,48,38,267740752
116,3,4,T1_SMS_5,7,5,42,127,267765092
116,3,4,T1_SMS_5,8,1,48,33,268233464
116,3,4,T1_SMS_5,9,5,42,127,268264788
116,3,4,T1_SMS_5,10,1,48,36,268745572
116,3,4,T1_SMS_5,11,5,42,127,268764484
116,3,4,T1_SMS_5,12,1,48,33,269255816
116,3,4,T1_SMS_5,13,5,42,127,269265448
116,3,4,T1_SMS_5,14,1,48,31,269761796
116,3,4,T1_SMS_5,15,5,42,127,269764896
116,3,4,T1_SMS_5,16,5,42,127,270264668
116,3,4,T1_SMS_5,17,1,48,32,270265708
116,3,4,T1_SMS_5,18,1,48,29,270760732
116,3,4,T1_SMS_5,19,5,42,127,270765628
116,3,4,T1_SMS_5,20,5,42,127,271265036
116,3,4,T1_SMS_5,21,1,48,31,271270176
116,3,4,T1_SMS_5,22,1,48,32,271761172
116,3,4,T1_SMS_5,23,5,42,127,271764796
116,3,4,T1_SMS_5,24,1,48,32,272264944
116,3,4,T1_SMS_5,25,5,42,127,272266056
116,3,4,T1_SMS_5,26,5,42,127,272765240
116,3,4,T1_SMS_5,27,1,48,30,272768736
116,3,4,T1_SMS_5,28,1,48,26,273263192
116,3,4,T1_SMS_5,29,5,42,127,273264928
116,3,4,T1_SMS_5,30,1,48,23,273753816
116,3,4,T1_SMS_5,31,5,42,127,273764700
116,3,4,T1_SMS_5,32,1,48,29,274250444
116,3,4,T1_SMS_5,33,5,42,127,274264540
116,3,4,T1_SMS_5,34,1,48,30,274763552
116,3,4,T1_SMS_5,35,5,42,127,274765060
116,3,4,T1_SMS_5,36,1,48,27,275252604
116,3,4,T1_SMS_5,37,5,42,127,275264756
116,3,4,T1_SMS_5,38,1,48,28,275759852
116,3,4,T1_SMS_5,39,5,42,127,275764600
116,3,4,T1_SMS_5,40,1,48,28,276257752
116,3,4,T1_SMS_5,41,5,42,127,276265268
116,3,4,T1_SMS_5,42,1,48,30,276732688
116,3,4,T1_SMS_5,43,5,42,127,276765036
116,3,4,T1_SMS_5,44,5,42,127,277264736
116,3,4,T1_SMS_5,45,1,48,27,277267564
116,3,4,T1_SMS_5,46,1,48,28,277755120
116,3,4,T1_SMS_5,47,5,42,127,277764428
116,3,4,T1_SMS_5,48,1,48,31,278259300
116,3,4,T1_SMS_5,49,5,42,127,278265240
116,3,4,T1_SMS_5,50,1,48,30,278756380
116,3,4,T1_SMS_5,51,5,42,127,278764864
116,3,4,T1_SMS_5,52,1,48,28,279248668
116,3,4,T1_SMS_5,53,5,42,127,279264484
116,3,4,T1_SMS_5,54,1,48,33,279753348
116,3,4,T1_SMS_5,55,5,42,127,279765744
116,3,4,T1_SMS_5,56,1,48,30,280261420
116,3,4,T1_SMS_5,57,5,42,127,280265044
116,3,4,T1_SMS_5,58,1,48,28,280760668
116,3,4,T1_SMS_5,59,5,42,127,280764816
116,3,4,T1_SMS_5,60,5,42,127,281264368
116,3,4,T1_SMS_5,61,1,48,25,281265332
116,3,4,T1_SMS_5,62,1,48,26,281762900
116,3,4,T1_SMS_5,63,5,42,127,281765472
116,3,4,T1_SMS_5,64,1,48,27,282254516
116,3,4,T1_SMS_5,65,5,42,127,282264796
116,3,4,T1_SMS_5,66,1,48,25,282749648
116,3,4,T1_SMS_5,67,5,42,127,282764712
116,3,4,T1_SMS_5,68,5,42,127,283265540
116,3,4,T1_SMS_5,69,1,48,28,283272328
116,3,4,T1_SMS_5,70,1,48,29,283751952
116,3,4,T1_SMS_5,71,5,42,127,283765004
116,3,4,T1_SMS_5,72,1,48,26,284252772
116,3,4,T1_SMS_5,73,5,42,127,284264700
116,3,4,T1_SMS_5,74,1,48,24,284741020
116,3,4,T1_SMS_5,75,5,42,127,284764468
116,3,4,T1_SMS_5,76,1,48,23,285263396
116,3,4,T1_SMS_5,77,5,42,127,285265432
116,3,4,T1_SMS_5,78,1,48,27,285761956
116,3,4,T1_SMS_5,79,5,42,127,285764980
116,3,4,T1_SMS_5,80,1,48,27,286245860
116,3,4,T1_SMS_5,81,5,42,127,286264672
116,3,4,T1_SMS_5,82,1,48,30,286755356
116,3,4,T1_SMS_5,83,5,42,127,286765564
116,3,4,T1_SMS_5,84,1,48,25,287241888
116,3,4,T1_SMS_5,85,5,42,127,287265108
116,3,4,T1_SMS_5,86,1,48,26,287759836
116,3,4,T1_SMS_5,87,5,42,127,287764728
116,3,4,T1_SMS_5,88,1,48,26,288263676
116,3,4,T1_SMS_5,89,5,42,127,288265320
116,3,4,T1_SMS_5,90,1,48,25,288754064
116,3,4,T1_SMS_5,91,5,42,127,288765464
116,3,4,T1_SMS_5,92,5,42,127,289264868
116,3,4,T1_SMS_5,93,1,48,29,289275392
116,3,4,T1_SMS_5,94,5,42,127,289764712
116,3,4,T1_SMS_5,95,1,48,32,289767540
116,3,4,T1_SMS_5,96,5,42,127,290264556
116,3,4,T1_SMS_5,97,1,48,29,290274632
116,3,4,T1_SMS_5,98,1,48,32,290765520
116,3,4,T1_SMS_5,99,5,42,127,290766560
116,3,4,T1_SMS_5,100,5,42,127,291264744
116,3,4,T1_SMS_5,101,1,48,25,291272728
116,3,4,T1_SMS_5,102,1,48,28,291757668
116,3,4,T1_SMS_5,103,5,42,127,291764580
116,3,4,T1_SMS_5,104,1,48,22,292250108
116,3,4,T1_SMS_5,105,5,42,127,292265248
116,3,4,T1_SMS_5,106,1,48,27,292751376
116,3,4,T1_SMS_5,107,5,42,127,292765168
116,3,4,T1_SMS_5,108,1,48,31,293258400
116,3,4,T1_SMS_5,109,5,42,127,293264716
116,3,4,T1_SMS_5,110,5,42,127,293764564
116,3,4,T1_SMS_5,111,5,42,127,294265328
116,3,4,T1_SMS_5,112,1,48,33,294266740
116,3,4,T1_SMS_5,113,1,48,32,294747036
116,3,4,T1_SMS_5,114,5,42,127,294764944
116,3,4,T1_SMS_5,115,5,42,127,295264572
116,3,4,T1_SMS_5,116,1,48,37,295268140
116,3,4,T1_SMS_5,117,1,48,31,295764108
116,3,4,T1_SMS_5,118,5,42,127,295765604
116,3,4,T1_SMS_5,119,1,48,32,296257644
116,3,4,T1_SMS_5,120,5,42,127,296265224
116,3,4,T1_SMS_5,121,1,48,31,296748136
116,3,4,T1_SMS_5,122,5,42,127,296764772
116,3,4,T1_SMS_5,123,5,42,127,297264620
116,3,4,T1_SMS_5,124,1,48,31,297276796
116,3,4,T1_SMS_5,125,5,42,127,297765364
116,3,4,T1_SMS_5,126,1,48,31,297768784
116,3,4,T1_SMS_5,127,1,48,32,298255816
116,3,4,T1_SMS_5,128,5,42,127,298264828
116,3,4,T1_SMS_5,129,5,42,127,298764604
116,3,4,T1_SMS_5,130,1,48,30,298771312
116,3,4,T1_SMS_5,131,5,42,127,299265348
116,3,4,T1_SMS_5,132,1,48,37,299268016
116,3,4,T1_SMS_5,133,5,42,127,299765192
116,3,4,T1_SMS_5,134,1,48,32,299784544
116,3,4,T1_SMS_5,135,1,48,30,300260588
116,3,4,T1_SMS_5,136,5,42,127,300264804
116,3,4,T1_SMS_5,137,1,48,27,300752572
116,3,4,T1_SMS_5,138,5,42,127,300764500
116,3,4,T1_SMS_5,139,5,42,127,301265248
116,3,4,T1_SMS_5,140,1,48,33,301290064
116,3,4,T1_SMS_5,141,1,48,29,301758752
116,3,4,T1_SMS_5,142,5,42,127,301765064
116,3,4,T1_SMS_5,143,1,48,29,302258296
116,3,4,T1_SMS_5,144,5,42,127,302264608
116,3,4,T1_SMS_5,145,1,48,30,302757688
116,3,4,T1_SMS_5,146,5,42,127,302765276
116,3,4,T1_SMS_5,147,5,42,127,303265128
116,3,4,T1_SMS_5,148,1,48,32,303269148
116,3,4,T1_SMS_5,149,5,42,127,303764968
116,3,4,T1_SMS_5,150,1,48,31,303769136
116,3,4,T1_SMS_5,151,5,42,127,304264516
116,3,4,T1_SMS_5,152,1,48,34,304267640
116,3,4,T1_SMS_5,153,5,42,127,304765408
116,3,4,T1_SMS_5,154,1,48,34,304786252
116,3,4,T1_SMS_5,155,1,48,32,305243964
116,3,4,T1_SMS_5,156,5,42,127,305264944
116,3,4,T1_SMS_5,157,5,42,127,305764648
116,3,4,T1_SMS_5,158,1,48,29,305775616
116,3,4,T1_SMS_5,159,5,42,127,306264416
116,3,4,T1_SMS_5,160,1,48,32,306273668
116,3,4,T1_SMS_5,161,5,42,127,306765156
116,3,4,T1_SMS_5,162,1,48,32,306768428
116,3,4,T1_SMS_5,163,1,48,29,307253368
116,3,4,T1_SMS_5,164,5,42,127,307264772
116,3,4,T1_SMS_5,165,5,42,127,307764472
116,3,4,T1_SMS_5,166,1,48,30,307773948
116,3,4,T1_SMS_5,167,5,42,127,308265364
116,3,4,T1_SMS_5,168,1,48,29,308284568
116,3,4,T1_SMS_5,169,5,42,127,308765132
116,3,4,T1_SMS_5,170,1,48,29,308769976
116,3,4,T1_SMS_5,171,5,42,127,309264752
116,3,4,T1_SMS_5,172,1,48,37,309271236
116,3,4,T1_SMS_5,173,5,42,127,309764372
116,3,4,T1_SMS_5,174,1,48,31,309765340
116,3,4,T1_SMS_5,175,1,48,33,310261632
116,3,4,T1_SMS_5,176,5,42,127,310265256
116,3,4,T1_SMS_5,177,1,48,29,310749584
116,3,4,T1_SMS_5,178,5,42,127,310764952
116,3,4,T1_SMS_5,179,5,42,127,311264504
116,3,4,T1_SMS_5,180,1,48,33,311292528
116,3,4,T1_SMS_5,181,5,42,127,311765244
116,3,4,T1_SMS_5,182,1,48,32,311767988
116,3,4,T1_SMS_5,183,1,48,32,312245652
116,3,4,T1_SMS_5,184,5,42,127,312265056
116,3,4,T1_SMS_5,185,1,48,29,312738612
116,3,4,T1_SMS_5,186,5,42,127,312764900
116,3,4,T1_SMS_5,187,1,48,30,313257384
116,3,4,T1_SMS_5,188,5,42,127,313264448
116,3,4,T1_SMS_5,189,1,48,32,313763988
116,3,4,T1_SMS_5,190,5,42,127,313765264
116,3,4,T1_SMS_5,191,1,48,31,314262608
116,3,4,T1_SMS_5,192,5,42,127,314265104
116,3,4,T1_SMS_5,193,1,48,33,314741356
116,3,4,T1_SMS_5,194,5,42,127,314764580
116,3,4,T1_SMS_5,195,1,48,34,315260648
116,3,4,T1_SMS_5,196,5,42,127,315265320
116,3,4,T1_SMS_5,197,5,42,127,315765320
116,3,4,T1_SMS_5,198,1,48,30,315768592
116,3,4,T1_SMS_5,199,5,42,127,316264792
116,3,4,T1_SMS_5,200,1,48,30,316266056
116,3,4,T1_SMS_5,201,1,48,33,316738644
116,3,4,T1_SMS_5,202,5,42,127,316764556
116,3,4,T1_SMS_5,203,5,42,127,317265228
116,3,4,T1_SMS_5,204,1,48,33,317278524
116,3,4,T1_SMS_5,205,1,48,29,317751496
116,3,4,T1_SMS_5,206,5,42,127,317765140
116,3,4,T1_SMS_5,207,5,42,127,318264544
116,3,4,T1_SMS_5,208,1,48,32,318267212
116,3,4,T1_SMS_5,209,1,48,32,318760012
116,3,4,T1_SMS_5,210,5,42,127,318765280
116,3,4,T1_SMS_5,211,1,48,34,319263852
116,3,4,T1_SMS_5,212,5,42,127,319265348
116,3,4,T1_SMS_5,213,1,48,29,319742716
116,3,4,T1_SMS_5,214,5,42,127,319765116
116,3,4,T1_SMS_5,215,1,48,26,320257896
116,3,4,T1_SMS_5,216,5,42,127,320264512
116,3,4,T1_SMS_5,217,1,48,29,320746520
116,3,4,T1_SMS_5,218,5,42,127,320765256
116,3,4,T1_SMS_5,219,5,42,127,321265180
116,3,4,T1_SMS_5,220,1,48,30,321290368
116,3,4,T1_SMS_5,221,5,42,127,321764652
116,3,4,T1_SMS_5,222,1,48,34,321780484
116,3,4,T1_SMS_5,223,1,48,35,322259888
116,3,4,T1_SMS_5,224,5,42,127,322264488
116,3,4,T1_SMS_5,225,1,48,30,322744600
116,3,4,T1_SMS_5,226,5,42,127,322765152
116,3,4,T1_SMS_5,227,1,48,31,323241976
116,3,4,T1_SMS_5,228,5,42,127,323265120
116,3,4,T1_SMS_5,229,1,48,32,323750572
116,3,4,T1_SMS_5,230,5,42,127,323764592
116,3,4,T1_SMS_5,231,1,48,30,324250044
116,3,4,T1_SMS_5,232,5,42,127,324265260
116,3,4,T1_SMS_5,233,1,48,31,324728492
116,3,4,T1_SMS_5,234,5,42,127,324765104
116,3,4,T1_SMS_5,235,1,48,33,325252424
116,3,4,T1_SMS_5,236,5,42,127,325264948
116,3,4,T1_SMS_5,237,5,42,127,325764428
116,3,4,T1_SMS_5,238,1,48,34,325777268
116,3,4,T1_SMS_5,239,1,48,30,326241792
116,3,4,T1_SMS_5,240,5,42,127,326265160
116,3,4,T1_SMS_5,241,1,48,30,326751288
116,3,4,T1_SMS_5,242,5,42,127,326765156
116,3,4,T1_SMS_5,243,1,48,33,327261308
116,3,4,T1_SMS_5,244,5,42,127,327264552
116,3,4,T1_SMS_5,245,1,48,31,327765596
116,3,4,T1_SMS_5,246,5,42,127,327766940
116,3,4,T1_SMS_5,247,5,42,127,328265068
116,3,4,T1_SMS_5,248,1,48,32,328277316
116,3,4,T1_SMS_5,249,5,42,127,328765064
116,3,4,T1_SMS_5,250,1,48,29,328779404
116,3,4,T1_SMS_5,251,5,42,127,329264460
116,3,4,T1_SMS_5,252,1,48,33,329265872
116,3,4,T1_SMS_5,253,5,42,127,329765204
116,3,4,T1_SMS_5,254,1,48,27,329772732
116,3,4,T1_SMS_5,255,1,48,29,330241892
116,3,4,T1_SMS_5,0,9999,9999,9999,265262156
116,3,4,T1_SMS_5,1,9999,9999,9999,265762920
116,3,4,T1_SMS_5,2,9999,9999,9999,266262636
116,3,4,T1_SMS_5,3,9999,9999,9999,266762356
116,3,4,T1_SMS_5,4,9999,9999,9999,267263036
116,3,4,T1_SMS_5,5,9999,9999,9999,267762808
116,3,4,T1_SMS_5,6,9999,9999,9999,268262504
116,3,4,T1_SMS_5,7,9999,9999,9999,268762196
116,3,4,T1_SMS_5,8,9999,9999,9999,269262936
116,3,4,T1_SMS_5,9,9999,9999,9999,269762608
116,3,4,T1_SMS_5,10,9999,9999,9999,270262384
116,3,4,T1_SMS_5,11,9999,9999,9999,270763120
116,3,4,T1_SMS_5,12,9999,9999,9999,271262824
116,3,4,T1_SMS_5,13,9999,9999,9999,271762508
116,3,4,T1_SMS_5,14,9999,9999,9999,272262212
116,3,4,T1_SMS_5,15,9999,9999,9999,272762956
116,3,4,T1_SMS_5,16,9999,9999,9999,273262668
116,3,4,T1_SMS_5,17,9999,9999,9999,273762412
116,3,4,T1_SMS_5,18,9999,9999,9999,274262104
116,3,4,T1_SMS_5,19,9999,9999,9999,274762856
116,3,4,T1_SMS_5,20,9999,9999,9999,275262544
116,3,4,T1_SMS_5,21,9999,9999,9999,275762240
116,3,4,T1_SMS_5,22,9999,9999,9999,276262980
116,3,4,T1_SMS_5,23,9999,9999,9999,276762676
116,3,4,T1_SMS_5,24,9999,9999,9999,277262452
116,3,4,T1_SMS_5,25,9999,9999,9999,277762140
116,3,4,T1_SMS_5,26,9999,9999,9999,278262880
116,3,4,T1_SMS_5,27,9999,9999,9999,278762576
116,3,4,T1_SMS_5,28,9999,9999,9999,279262272
116,3,4,T1_SMS_5,29,9999,9999,9999,279763012
116,3,4,T1_SMS_5,30,9999,9999,9999,280262760
116,3,4,T1_SMS_5,31,9999,9999,9999,280762452
116,3,4,T1_SMS_5,32,9999,9999,9999,281262156
116,3,4,T1_SMS_5,33,9999,9999,9999,281762964
116,3,4,T1_SMS_5,34,9999,9999,9999,282262584
116,3,4,T1_SMS_5,35,9999,9999,9999,282762352
116,3,4,T1_SMS_5,36,9999,9999,9999,283263028
116,3,4,T1_SMS_5,37,9999,9999,9999,283762792
116,3,4,T1_SMS_5,38,9999,9999,9999,284262488
116,3,4,T1_SMS_5,39,9999,9999,9999,284762180
116,3,4,T1_SMS_5,40,9999,9999,9999,285262944
116,3,4,T1_SMS_5,41,9999,9999,9999,285762616
116,3,4,T1_SMS_5,42,9999,9999,9999,286262388
116,3,4,T1_SMS_5,43,9999,9999,9999,286763128
116,3,4,T1_SMS_5,44,9999,9999,9999,287262824
116,3,4,T1_SMS_5,45,9999,9999,9999,287762516
116,3,4,T1_SMS_5,46,9999,9999,9999,288262220
116,3,4,T1_SMS_5,47,9999,9999,9999,288762956
116,3,4,T1_SMS_5,48,9999,9999,9999,289262656
116,3,4,T1_SMS_5,49,9999,9999,9999,289762424
116,3,4,T1_SMS_5,50,9999,9999,9999,290262120
116,3,4,T1_SMS_5,51,9999,9999,9999,290762836
116,3,4,T1_SMS_5,52,9999,9999,9999,291262532
116,3,4,T1_SMS_5,53,9999,9999,9999,291762296
116,3,4,T1_SMS_5,54,9999,9999,9999,292262964
116,3,4,T1_SMS_5,55,9999,9999,9999,292762732
116,3,4,T1_SMS_5,56,9999,9999,9999,293262428
116,3,4,T1_SMS_5,57,9999,9999,9999,293762128
116,3,4,T1_SMS_5,58,9999,9999,9999,294262892
116,3,4,T1_SMS_5,59,9999,9999,9999,294762584
116,3,4,T1_SMS_5,60,9999,9999,9999,295262288
116,3,4,T1_SMS_5,61,9999,9999,9999,295763028
116,3,4,T1_SMS_5,62,9999,9999,9999,296262716
116,3,4,T1_SMS_5,63,9999,9999,9999,296762484
116,3,4,T1_SMS_5,64,9999,9999,9999,297262188
116,3,4,T1_SMS_5,65,9999,9999,9999,297762928
116,3,4,T1_SMS_5,66,9999,9999,9999,298262616
116,3,4,T1_SMS_5,67,9999,9999,9999,298762316
116,3,4,T1_SMS_5,68,9999,9999,9999,299263060
116,3,4,T1_SMS_5,69,9999,9999,9999,299762756
116,3,4,T1_SMS_5,70,9999,9999,9999,300262520
116,3,4,T1_SMS_5,71,9999,9999,9999,300762216
116,3,4,T1_SMS_5,72,9999,9999,9999,301262964
116,3,4,T1_SMS_5,73,9999,9999,9999,301762628
116,3,4,T1_SMS_5,74,9999,9999,9999,302262324
116,3,4,T1_SMS_5,75,9999,9999,9999,302763064
116,3,4,T1_SMS_5,76,9999,9999,9999,303262840
116,3,4,T1_SMS_5,77,9999,9999,9999,303762532
116,3,4,T1_SMS_5,78,9999,9999,9999,304262232
116,3,4,T1_SMS_5,79,9999,9999,9999,304762972
116,3,4,T1_SMS_5,80,9999,9999,9999,305262660
116,3,4,T1_SMS_5,81,9999,9999,9999,305762360
116,3,4,T1_SMS_5,82,9999,9999,9999,306262128
116,3,4,T1_SMS_5,83,9999,9999,9999,306762868
116,3,4,T1_SMS_5,84,9999,9999,9999,307262560
116,3,4,T1_SMS_5,85,9999,9999,9999,307762260
116,3,4,T1_SMS_5,86,9999,9999,9999,308263004
116,3,4,T1_SMS_5,87,9999,9999,9999,308762696
116,3,4,T1_SMS_5,88,9999,9999,9999,309262392
116,3,4,T1_SMS_5,89,9999,9999,9999,309762160
116,3,4,T1_SMS_5,90,9999,9999,9999,310262896
116,3,4,T1_SMS_5,91,9999,9999,9999,310762588
116,3,4,T1_SMS_5,92,9999,9999,9999,311262292
116,3,4,T1_SMS_5,93,9999,9999,9999,311763032
116,3,4,T1_SMS_5,94,9999,9999,9999,312262772
116,3,4,T1_SMS_5,95,9999,9999,9999,312762464
116,3,4,T1_SMS_5,96,9999,9999,9999,313262160
116,3,4,T1_SMS_5,97,9999,9999,9999,313762908
116,3,4,T1_SMS_5,98,9999,9999,9999,314262672
116,3,4,T1_SMS_5,99,9999,9999,9999,314762292
116,3,4,T1_SMS_5,100,9999,9999,9999,315263036
116,3,4,T1_SMS_5,101,9999,9999,9999,315762736
116,3,4,T1_SMS_5,102,9999,9999,9999,316262504
116,3,4,T1_SMS_5,103,9999,9999,9999,316762196
116,3,4,T1_SMS_5,104,9999,9999,9999,317262940
116,3,4,T1_SMS_5,105,9999,9999,9999,317762628
116,3,4,T1_SMS_5,106,9999,9999,9999,318262332
116,3,4,T1_SMS_5,107,9999,9999,9999,318763068
116,3,4,T1_SMS_5,108,9999,9999,9999,319262768
116,3,4,T1_SMS_5,109,9999,9999,9999,319762532
116,3,4,T1_SMS_5,110,9999,9999,9999,320262228
116,3,4,T1_SMS_5,111,9999,9999,9999,320762968
116,3,4,T1_SMS_5,112,9999,9999,9999,321262668
116,3,4,T1_SMS_5,113,9999,9999,9999,321762364
116,3,4,T1_SMS_5,114,9999,9999,9999,322262124
116,3,4,T1_SMS_5,115,9999,9999,9999,322762844
116,3,4,T1_SMS_5,116,9999,9999,9999,323262536
116,3,4,T1_SMS_5,117,9999,9999,9999,323762232
116,3,4,T1_SMS_5,118,9999,9999,9999,324262972
116,3,4,T1_SMS_5,119,9999,9999,9999,324762744
116,3,4,T1_SMS_5,120,9999,9999,9999,325262436
116,3,4,T1_SMS_5,121,9999,9999,9999,325762140
116,3,4,T1_SMS_5,122,9999,9999,9999,326262876
116,3,4,T1_SMS_5,123,9999,9999,9999,326762572
116,3,4,T1_SMS_5,124,9999,9999,9999,327262268
116,3,4,T1_SMS_5,125,9999,9999,9999,327763012
116,3,4,T1_SMS_5,126,9999,9999,9999,328262708
116,3,4,T1_SMS_5,127,9999,9999,9999,328762480
116,3,4,T1_SMS_5,128,9999,9999,9999,329262172
116,3,4,T1_SMS_5,129,9999,9999,9999,329762916
116,4,2,T1_SMS_8,0,5,42,127,413249856
116,4,2,T1_SMS_8,1,5,42,127,414049912
116,4,2,T1_SMS_8,2,5,42,127,414850268
116,4,2,T1_SMS_8,3,1,48,39,414861836
116,4,2,T1_SMS_8,4,1,48,34,415633200
116,4,2,T1_SMS_8,5,5,42,127,415650068
116,4,2,T1_SMS_8,6,1,48,33,416387460
116,4,2,T1_SMS_8,7,5,42,127,416449876
116,4,2,T1_SMS_8,8,1,48,32,417223640
116,4,2,T1_SMS_8,9,5,42,127,417249928
116,4,2,T1_SMS_8,10,5,42,127,418050344
116,4,2,T1_SMS_8,11,1,48,37,418059820
116,4,2,T1_SMS_8,12,5,42,127,418850152
116,4,2,T1_SMS_8,13,1,48,34,418853792
116,4,2,T1_SMS_8,14,1,48,37,419640572
116,4,2,T1_SMS_8,15,5,42,127,419649880
116,4,2,T1_SMS_8,16,1,48,34,420430056
116,4,2,T1_SMS_8,17,5,42,127,420449760
116,4,2,T1_SMS_8,18,1,48,38,421218572
116,4,2,T1_SMS_8,19,5,42,127,421250540
116,4,2,T1_SMS_8,20,1,48,32,422008652
116,4,2,T1_SMS_8,21,5,42,127,422050200
116,4,2,T1_SMS_8,22,1,48,29,422792680
116,4,2,T1_SMS_8,23,5,42,127,422849936
116,4,2,T1_SMS_8,24,1,48,28,423632824
116,4,2,T1_SMS_8,25,5,42,127,423649768
116,4,2,T1_SMS_8,26,1,48,28,424427852
116,4,2,T1_SMS_8,27,5,42,127,424450472
116,4,2,T1_SMS_8,28,1,48,27,425241196
116,4,2,T1_SMS_8,29,5,42,127,425250132
116,4,2,T1_SMS_8,30,1,48,27,426016764
116,4,2,T1_SMS_8,31,5,42,127,426049864
116,4,2,T1_SMS_8,32,1,48,27,426818520
116,4,2,T1_SMS_8,33,5,42,127,426849596
116,4,2,T1_SMS_8,34,1,48,27,427638152
116,4,2,T1_SMS_8,35,5,42,127,427650600
116,4,2,T1_SMS_8,36,1,48,29,428438636
116,4,2,T1_SMS_8,37,5,42,127,428450112
116,4,2,T1_SMS_8,38,1,48,32,429220040
116,4,2,T1_SMS_8,39,5,42,127,429249916
116,4,2,T1_SMS_8,40,1,48,24,430018500
116,4,2,T1_SMS_8,41,5,42,127,430049676
116,4,2,T1_SMS_8,42,5,42,127,430850612
116,4,2,T1_SMS_8,43,1,48,23,430853656
116,4,2,T1_SMS_8,44,5,42,127,431650268
116,4,2,T1_SMS_8,45,1,48,30,431660420
116,4,2,T1_SMS_8,46,1,48,26,432433508
116,4,2,T1_SMS_8,47,5,42,127,432449848
116,4,2,T1_SMS_8,48,1,48,21,433200776
116,4,2,T1_SMS_8,49,5,42,127,433249504
116,4,2,T1_SMS_8,50,1,48,27,434022128
116,4,2,T1_SMS_8,51,5,42,127,434050584
116,4,2,T1_SMS_8,52,1,48,26,434824552
116,4,2,T1_SMS_8,53,5,42,127,434850168
116,4,2,T1_SMS_8,54,1,48,36,435648016
116,4,2,T1_SMS_8,55,5,42,127,435649828
116,4,2,T1_SMS_8,56,1,48,21,436405840
116,4,2,T1_SMS_8,57,5,42,127,436449732
116,4,2,T1_SMS_8,58,1,48,26,437230432
116,4,2,T1_SMS_8,59,5,42,127,437250588
116,4,2,T1_SMS_8,60,1,48,27,438025152
116,4,2,T1_SMS_8,61,5,42,127,438050172
116,4,2,T1_SMS_8,62,1,48,26,438818456
116,4,2,T1_SMS_8,63,5,42,127,438849980
116,4,2,T1_SMS_8,64,1,48,26,439628436
116,4,2,T1_SMS_8,65,5,42,127,439649788
116,4,2,T1_SMS_8,66,1,48,25,440405728
116,4,2,T1_SMS_8,67,5,42,127,440450492
116,4,2,T1_SMS_8,68,1,48,24,441231344
116,4,2,T1_SMS_8,69,5,42,127,441250080
116,4,2,T1_SMS_8,70,1,48,27,442033472
116,4,2,T1_SMS_8,71,5,42,127,442049812
116,4,2,T1_SMS_8,72,1,48,24,442822384
116,4,2,T1_SMS_8,73,5,42,127,442849720
116,4,2,T1_SMS_8,74,1,48,27,443636328
116,4,2,T1_SMS_8,75,5,42,127,443650352
116,4,2,T1_SMS_8,76,1,48,27,444423200
116,4,2,T1_SMS_8,77,5,42,127,444450084
116,4,2,T1_SMS_8,78,5,42,127,445249824
116,4,2,T1_SMS_8,79,1,48,27,445251384
116,4,2,T1_SMS_8,80,1,48,27,446039348
116,4,2,T1_SMS_8,81,5,42,127,446049552
116,4,2,T1_SMS_8,82,1,48,28,446802956
116,4,2,T1_SMS_8,83,5,42,127,446850408
116,4,2,T1_SMS_8,84,1,48,29,447638664
116,4,2,T1_SMS_8,85,5,42,127,447650216
116,4,2,T1_SMS_8,86,1,48,28,448443560
116,4,2,T1_SMS_8,87,5,42,127,448449876
116,4,2,T1_SMS_8,88,1,48,32,449233812
116,4,2,T1_SMS_8,89,5,42,127,449249632
116,4,2,T1_SMS_8,90,1,48,26,450031232
116,4,2,T1_SMS_8,91,5,42,127,450050416
116,4,2,T1_SMS_8,92,1,48,24,450843084
116,4,2,T1_SMS_8,93,5,42,127,450850148
116,4,2,T1_SMS_8,94,1,48,26,451617536
116,4,2,T1_SMS_8,95,5,42,127,451649808
116,4,2,T1_SMS_8,96,1,48,27,452445088
116,4,2,T1_SMS_8,97,5,42,127,452449540
116,4,2,T1_SMS_8,98,1,48,30,453241088
116,4,2,T1_SMS_8,99,5,42,127,453250544
116,4,2,T1_SMS_8,100,1,48,34,454020772
116,4,2,T1_SMS_8,101,5,42,127,454050276
116,4,2,T1_SMS_8,102,1,48,31,454819608
116,4,2,T1_SMS_8,103,5,42,127,454849788
116,4,2,T1_SMS_8,104,1,48,27,455648112
116,4,2,T1_SMS_8,105,5,42,127,455649544
116,4,2,T1_SMS_8,106,1,48,31,456449652
116,4,2,T1_SMS_8,107,5,42,127,456451224
116,4,2,T1_SMS_8,108,1,48,29,457214196
116,4,2,T1_SMS_8,109,5,42,127,457250132
116,4,2,T1_SMS_8,110,1,48,30,458042276
116,4,2,T1_SMS_8,111,5,42,127,458049868
116,4,2,T1_SMS_8,112,1,48,25,458836476
116,4,2,T1_SMS_8,113,5,42,127,458849528
116,4,2,T1_SMS_8,114,1,48,27,459645184
116,4,2,T1_SMS_8,115,5,42,127,459650532
116,4,2,T1_SMS_8,116,1,48,29,460450272
116,4,2,T1_SMS_8,117,5,42,127,460451532
116,4,2,T1_SMS_8,118,5,42,127,461249780
116,4,2,T1_SMS_8,119,1,48,28,461271992
116,4,2,T1_SMS_8,120,1,48,25,462046656
116,4,2,T1_SMS_8,121,5,42,127,462049680
116,4,2,T1_SMS_8,122,1,48,31,462826040
116,4,2,T1_SMS_8,123,5,42,127,462850388
116,4,2,T1_SMS_8,124,5,42,127,463650200
116,4,2,T1_SMS_8,125,1,48,30,463659084
116,4,2,T1_SMS_8,126,5,42,127,464450008
116,4,2,T1_SMS_8,127,1,48,33,464477136
116,4,2,T1_SMS_8,128,1,48,30,465241696
116,4,2,T1_SMS_8,129,5,42,127,465249588
116,4,2,T1_SMS_8,130,1,48,31,466024824
116,4,2,T1_SMS_8,131,5,42,127,466050368
116,4,2,T1_SMS_8,132,1,48,25,466828272
116,4,2,T1_SMS_8,133,5,42,127,466850224
116,4,2,T1_SMS_8,134,1,48,37,467610356
116,4,2,T1_SMS_8,135,5,42,127,467650180
116,4,2,T1_SMS_8,136,1,48,29,468414504
116,4,2,T1_SMS_8,137,5,42,127,468449492
116,4,2,T1_SMS_8,138,1,48,28,469226000
116,4,2,T1_SMS_8,139,5,42,127,469250348
116,4,2,T1_SMS_8,140,1,48,26,470019160
116,4,2,T1_SMS_8,141,5,42,127,470050232
116,4,2,T1_SMS_8,142,1,48,29,470817248
116,4,2,T1_SMS_8,143,5,42,127,470850112
116,4,2,T1_SMS_8,144,1,48,28,471617876
116,4,2,T1_SMS_8,145,5,42,127,471649548
116,4,2,T1_SMS_8,146,5,42,127,472450484
116,4,2,T1_SMS_8,147,1,48,29,472479112
116,4,2,T1_SMS_8,148,1,48,33,473243000
116,4,2,T1_SMS_8,149,5,42,127,473250212
116,4,2,T1_SMS_8,150,1,48,29,474030468
116,4,2,T1_SMS_8,151,5,42,127,474050172
116,4,2,T1_SMS_8,152,1,48,26,474812676
116,4,2,T1_SMS_8,153,5,42,127,474850052
116,4,2,T1_SMS_8,154,1,48,31,475632324
116,4,2,T1_SMS_8,155,5,42,127,475650388
116,4,2,T1_SMS_8,156,5,42,127,476450128
116,4,2,T1_SMS_8,157,1,48,29,476457512
116,4,2,T1_SMS_8,158,1,48,26,477227384
116,4,2,T1_SMS_8,159,5,42,127,477250004
116,4,2,T1_SMS_8,160,1,48,29,478043792
116,4,2,T1_SMS_8,161,5,42,127,478050036
116,4,2,T1_SMS_8,162,5,42,127,478850376
116,4,2,T1_SMS_8,163,1,48,34,478877284
116,4,2,T1_SMS_8,164,1,48,28,479626128
116,4,2,T1_SMS_8,165,5,42,127,479650176
116,4,2,T1_SMS_8,166,5,42,127,480449992
116,4,2,T1_SMS_8,167,1,48,28,480460144
116,4,2,T1_SMS_8,168,1,48,30,481248208
116,4,2,T1_SMS_8,169,5,42,127,481249868
116,4,2,T1_SMS_8,170,1,48,25,482011792
116,4,2,T1_SMS_8,171,5,42,127,482050348
116,4,2,T1_SMS_8,172,1,48,27,482824616
116,4,2,T1_SMS_8,173,5,42,127,482850084
116,4,2,T1_SMS_8,174,1,48,23,483644316
116,4,2,T1_SMS_8,175,5,42,127,483649964
116,4,2,T1_SMS_8,176,5,42,127,484449708
116,4,2,T1_SMS_8,177,1,48,32,484468984
116,4,2,T1_SMS_8,178,5,42,127,485250260
116,4,2,T1_SMS_8,179,1,48,30,485263852
116,4,2,T1_SMS_8,180,5,42,127,486050144
116,4,2,T1_SMS_8,181,1,48,28,486071588
116,4,2,T1_SMS_8,182,1,48,25,486840712
116,4,2,T1_SMS_8,183,5,42,127,486849872
116,4,2,T1_SMS_8,184,1,48,33,487645604
116,4,2,T1_SMS_8,185,5,42,127,487649752
116,4,2,T1_SMS_8,186,5,42,127,488450316
116,4,2,T1_SMS_8,187,1,48,35,488471908
116,4,2,T1_SMS_8,188,5,42,127,489250124
116,4,2,T1_SMS_8,189,1,48,28,489265880
116,4,2,T1_SMS_8,190,5,42,127,490049780
116,4,2,T1_SMS_8,191,1,48,33,490066660
116,4,2,T1_SMS_8,192,1,48,29,490831900
116,4,2,T1_SMS_8,193,5,42,127,490849732
116,4,2,T1_SMS_8,194,1,48,30,491649240
116,4,2,T1_SMS_8,195,5,42,127,491650884
116,4,2,T1_SMS_8,196,1,48,28,492434728
116,4,2,T1_SMS_8,197,5,42,127,492450096
116,4,2,T1_SMS_8,198,1,48,37,493246656
116,4,2,T1_SMS_8,199,5,42,127,493249980
116,4,2,T1_SMS_8,200,1,48,26,494041476
116,4,2,T1_SMS_8,201,5,42,127,494049812
116,4,2,T1_SMS_8,202,1,48,29,494805232
116,4,2,T1_SMS_8,203,5,42,127,494850296
116,4,2,T1_SMS_8,204,1,48,27,495641464
116,4,2,T1_SMS_8,205,5,42,127,495650028
116,4,2,T1_SMS_8,206,5,42,127,496449840
116,4,2,T1_SMS_8,207,1,48,28,496462084
116,4,2,T1_SMS_8,208,1,48,25,497239140
116,4,2,T1_SMS_8,209,5,42,127,497249716
116,4,2,T1_SMS_8,210,1,48,31,498049376
116,4,2,T1_SMS_8,211,5,42,127,498050944
116,4,2,T1_SMS_8,212,5,42,127,498850016
116,4,2,T1_SMS_8,213,1,48,27,498858368
116,4,2,T1_SMS_8,214,5,42,127,499649896
116,4,2,T1_SMS_8,215,1,48,27,499657672
116,4,2,T1_SMS_8,216,5,42,127,500449876
116,4,2,T1_SMS_8,217,1,48,23,500473636
116,4,2,T1_SMS_8,218,1,48,28,501242092
116,4,2,T1_SMS_8,219,5,42,127,501250576
116,4,2,T1_SMS_8,220,1,48,26,502044440
116,4,2,T1_SMS_8,221,5,42,127,502050160
116,4,2,T1_SMS_8,222,5,42,127,502849752
116,4,2,T1_SMS_8,223,1,48,27,502867384
116,4,2,T1_SMS_8,224,1,48,32,503647668
116,4,2,T1_SMS_8,225,5,42,127,503649700
116,4,2,T1_SMS_8,226,5,42,127,504450492
116,4,2,T1_SMS_8,227,1,48,28,504462808
116,4,2,T1_SMS_8,228,5,42,127,505250224
116,4,2,T1_SMS_8,229,1,48,32,505251336
116,4,2,T1_SMS_8,230,5,42,127,506049808
116,4,2,T1_SMS_8,231,1,48,28,506051772
116,4,2,T1_SMS_8,232,5,42,127,506849716
116,4,2,T1_SMS_8,233,1,48,24,506866972
116,4,2,T1_SMS_8,234,5,42,127,507650496
116,4,2,T1_SMS_8,235,1,48,29,507659376
116,4,2,T1_SMS_8,236,1,48,30,508427900
116,4,2,T1_SMS_8,237,5,42,127,508450372
116,4,2,T1_SMS_8,238,1,48,25,509238480
116,4,2,T1_SMS_8,0,9999,9999,9999,413247568
116,4,2,T1_SMS_8,1,9999,9999,9999,414047324
116,4,2,T1_SMS_8,2,9999,9999,9999,414848052
116,4,2,T1_SMS_8,3,9999,9999,9999,415647852
116,4,2,T1_SMS_8,4,9999,9999,9999,416447588
116,4,2,T1_SMS_8,5,9999,9999,9999,417247344
116,4,2,T1_SMS_8,6,9999,9999,9999,418048056
116,4,2,T1_SMS_8,7,9999,9999,9999,418847788
116,4,2,T1_SMS_8,8,9999,9999,9999,419647592
116,4,2,T1_SMS_8,9,9999,9999,9999,420447324
116,4,2,T1_SMS_8,10,9999,9999,9999,421248104
116,4,2,T1_SMS_8,11,9999,9999,9999,422047836
116,4,2,T1_SMS_8,12,9999,9999,9999,422847572
116,4,2,T1_SMS_8,13,9999,9999,9999,423647328
116,4,2,T1_SMS_8,14,9999,9999,9999,424448108
116,4,2,T1_SMS_8,15,9999,9999,9999,425247844
116,4,2,T1_SMS_8,16,9999,9999,9999,426047576
116,4,2,T1_SMS_8,17,9999,9999,9999,426847308
116,4,2,T1_SMS_8,18,9999,9999,9999,427648088
116,4,2,T1_SMS_8,19,9999,9999,9999,428447824
116,4,2,T1_SMS_8,20,9999,9999,9999,429247556
116,4,2,T1_SMS_8,21,9999,9999,9999,430047312
116,4,2,T1_SMS_8,22,9999,9999,9999,430848100
116,4,2,T1_SMS_8,23,9999,9999,9999,431647832
116,4,2,T1_SMS_8,24,9999,9999,9999,432447560
116,4,2,T1_SMS_8,25,9999,9999,9999,433247292
116,4,2,T1_SMS_8,26,9999,9999,9999,434048072
116,4,2,T1_SMS_8,27,9999,9999,9999,434847808
116,4,2,T1_SMS_8,28,9999,9999,9999,435647564
116,4,2,T1_SMS_8,29,9999,9999,9999,436447296
116,4,2,T1_SMS_8,30,9999,9999,9999,437248076
116,4,2,T1_SMS_8,31,9999,9999,9999,438047808
116,4,2,T1_SMS_8,32,9999,9999,9999,438847544
116,4,2,T1_SMS_8,33,9999,9999,9999,439647352
116,4,2,T1_SMS_8,34,9999,9999,9999,440448056
116,4,2,T1_SMS_8,35,9999,9999,9999,441247792
116,4,2,T1_SMS_8,36,9999,9999,9999,442047600
116,4,2,T1_SMS_8,37,9999,9999,9999,442847284
116,4,2,T1_SMS_8,38,9999,9999,9999,443648064
116,4,2,T1_SMS_8,39,9999,9999,9999,444447796
116,4,2,T1_SMS_8,40,9999,9999,9999,445247536
116,4,2,T1_SMS_8,41,9999,9999,9999,446047340
116,4,2,T1_SMS_8,42,9999,9999,9999,446848120
116,4,2,T1_SMS_8,43,9999,9999,9999,447647852
116,4,2,T1_SMS_8,44,9999,9999,9999,448447588
116,4,2,T1_SMS_8,45,9999,9999,9999,449247344
116,4,2,T1_SMS_8,46,9999,9999,9999,450048052
116,4,2,T1_SMS_8,47,9999,9999,9999,450847860
116,4,2,T1_SMS_8,48,9999,9999,9999,451647592
116,4,2,T1_SMS_8,49,9999,9999,9999,452447328
116,4,2,T1_SMS_8,50,9999,9999,9999,453248108
116,4,2,T1_SMS_8,51,9999,9999,9999,454047840
116,4,2,T1_SMS_8,52,9999,9999,9999,454847576
116,4,2,T1_SMS_8,53,9999,9999,9999,455647340
116,4,2,T1_SMS_8,54,9999,9999,9999,456448120
116,4,2,T1_SMS_8,55,9999,9999,9999,457247844
116,4,2,T1_SMS_8,56,9999,9999,9999,458047580
116,4,2,T1_SMS_8,57,9999,9999,9999,458847316
116,4,2,T1_SMS_8,58,9999,9999,9999,459648092
116,4,2,T1_SMS_8,59,9999,9999,9999,460447832
116,4,2,T1_SMS_8,60,9999,9999,9999,461247564
116,4,2,T1_SMS_8,61,9999,9999,9999,462047316
116,4,2,T1_SMS_8,62,9999,9999,9999,462848100
116,4,2,T1_SMS_8,63,9999,9999,9999,463647840
116,4,2,T1_SMS_8,64,9999,9999,9999,464447572
116,4,2,T1_SMS_8,65,9999,9999,9999,465247300
116,4,2,T1_SMS_8,66,9999,9999,9999,466048080
116,4,2,T1_SMS_8,67,9999,9999,9999,466847864
116,4,2,T1_SMS_8,68,9999,9999,9999,467647596
116,4,2,T1_SMS_8,69,9999,9999,9999,468447280
116,4,2,T1_SMS_8,70,9999,9999,9999,469248060
116,4,2,T1_SMS_8,71,9999,9999,9999,470047796
116,4,2,T1_SMS_8,72,9999,9999,9999,470847604
116,4,2,T1_SMS_8,73,9999,9999,9999,471647336
116,4,2,T1_SMS_8,74,9999,9999,9999,472448048
116,4,2,T1_SMS_8,75,9999,9999,9999,473247852
116,4,2,T1_SMS_8,76,9999,9999,9999,474047584
116,4,2,T1_SMS_8,77,9999,9999,9999,474847320
116,4,2,T1_SMS_8,78,9999,9999,9999,475648100
116,4,2,T1_SMS_8,79,9999,9999,9999,476447840
116,4,2,T1_SMS_8,80,9999,9999,9999,477247568
116,4,2,T1_SMS_8,81,9999,9999,9999,478047300
116,4,2,T1_SMS_8,82,9999,9999,9999,478848088
116,4,2,T1_SMS_8,83,9999,9999,9999,479647816
116,4,2,T1_SMS_8,84,9999,9999,9999,480447556
116,4,2,T1_SMS_8,85,9999,9999,9999,481247288
116,4,2,T1_SMS_8,86,9999,9999,9999,482048060
116,4,2,T1_SMS_8,87,9999,9999,9999,482847796
116,4,2,T1_SMS_8,88,9999,9999,9999,483647604
116,4,2,T1_SMS_8,89,9999,9999,9999,484447344
116,4,2,T1_SMS_8,90,9999,9999,9999,485248048
116,4,2,T1_SMS_8,91,9999,9999,9999,486047856
116,4,2,T1_SMS_8,92,9999,9999,9999,486847584
116,4,2,T1_SMS_8,93,9999,9999,9999,487647316
116,4,2,T1_SMS_8,94,9999,9999,9999,488448100
116,4,2,T1_SMS_8,95,9999,9999,9999,489247836
116,4,2,T1_SMS_8,96,9999,9999,9999,490047568
116,4,2,T1_SMS_8,97,9999,9999,9999,490847296
116,4,2,T1_SMS_8,98,9999,9999,9999,491648080
116,4,2,T1_SMS_8,99,9999,9999,9999,492447808
116,4,2,T1_SMS_8,100,9999,9999,9999,493247540
116,4,2,T1_SMS_8,101,9999,9999,9999,494047300
116,4,2,T1_SMS_8,102,9999,9999,9999,494848080
116,4,2,T1_SMS_8,103,9999,9999,9999,495647812
116,4,2,T1_SMS_8,104,9999,9999,9999,496447552
116,4,2,T1_SMS_8,105,9999,9999,9999,497247280
116,4,2,T1_SMS_8,106,9999,9999,9999,498048068
116,4,2,T1_SMS_8,107,9999,9999,9999,498847800
116,4,2,T1_SMS_8,108,9999,9999,9999,499647608
116,4,2,T1_SMS_8,109,9999,9999,9999,500447292
116,4,2,T1_SMS_8,110,9999,9999,9999,501248064
116,4,2,T1_SMS_8,111,9999,9999,9999,502047800
116,4,2,T1_SMS_8,112,9999,9999,9999,502847540
116,4,2,T1_SMS_8,113,9999,9999,9999,503647296
116,4,2,T1_SMS_8,114,9999,9999,9999,504448052
116,4,2,T1_SMS_8,115,9999,9999,9999,505247860
116,4,2,T1_SMS_8,116,9999,9999,9999,506047596
116,4,2,T1_SMS_8,117,9999,9999,9999,506847276
116,4,2,T1_SMS_8,118,9999,9999,9999,507648056
116,4,2,T1_SMS_8,119,9999,9999,9999,508447860
116,5,21,Ticks_Linear_5,0,5,42,127,519327120
116,5,21,Ticks_Linear_5,1,5,42,127,519807592
116,5,21,Ticks_Linear_5,2,5,42,127,520286720
116,5,21,Ticks_Linear_5,3,5,42,127,520766824
116,5,21,Ticks_Linear_5,4,1,48,37,521222456
116,5,21,Ticks_Linear_5,5,5,42,127,521247288
116,5,21,Ticks_Linear_5,6,1,48,33,521703508
116,5,21,Ticks_Linear_5,7,5,42,127,521736432
116,5,21,Ticks_Linear_5,8,1,48,35,522212268
116,5,21,Ticks_Linear_5,9,5,42,127,522226920
116,5,21,Ticks_Linear_5,10,1,48,32,522697148
116,5,21,Ticks_Linear_5,11,5,42,127,522716508
116,5,21,Ticks_Linear_5,12,1,48,33,523195320
116,5,21,Ticks_Linear_5,13,5,42,127,523207216
116,5,21,Ticks_Linear_5,14,1,48,34,523682360
116,5,21,Ticks_Linear_5,15,5,42,127,523696484
116,5,21,Ticks_Linear_5,16,1,48,32,524172696
116,5,21,Ticks_Linear_5,17,5,42,127,524197528
116,5,21,Ticks_Linear_5,18,1,48,28,524670080
116,5,21,Ticks_Linear_5,19,5,42,127,524696860
116,5,21,Ticks_Linear_5,20,1,48,30,525181088
116,5,21,Ticks_Linear_5,21,5,42,127,525196704
116,5,21,Ticks_Linear_5,22,1,48,31,525680632
116,5,21,Ticks_Linear_5,23,5,42,127,525697452
116,5,21,Ticks_Linear_5,24,1,48,25,526158544
116,5,21,Ticks_Linear_5,25,5,42,127,526197452
116,5,21,Ticks_Linear_5,26,1,48,32,526707340
116,5,21,Ticks_Linear_5,27,5,42,127,526708680
116,5,21,Ticks_Linear_5,28,1,48,29,527190892
116,5,21,Ticks_Linear_5,29,5,42,127,527217148
116,5,21,Ticks_Linear_5,30,1,48,33,527692912
116,5,21,Ticks_Linear_5,31,5,42,127,527727032
116,5,21,Ticks_Linear_5,32,1,48,34,528218676
116,5,21,Ticks_Linear_5,33,5,42,127,528236992
116,5,21,Ticks_Linear_5,34,1,48,31,528695088
116,5,21,Ticks_Linear_5,35,5,42,127,528747100
116,5,21,Ticks_Linear_5,36,1,48,31,529225792
116,5,21,Ticks_Linear_5,37,5,42,127,529267468
116,5,21,Ticks_Linear_5,38,1,48,24,529729084
116,5,21,Ticks_Linear_5,39,5,42,127,529787388
116,5,21,Ticks_Linear_5,40,1,48,30,530289444
116,5,21,Ticks_Linear_5,41,5,42,127,530306412
116,5,21,Ticks_Linear_5,42,1,48,33,530804560
116,5,21,Ticks_Linear_5,43,5,42,127,530826556
116,5,21,Ticks_Linear_5,44,1,48,32,531308312
116,5,21,Ticks_Linear_5,45,5,42,127,531346772
116,5,21,Ticks_Linear_5,46,1,48,34,531854136
116,5,21,Ticks_Linear_5,47,5,42,127,531877252
116,5,21,Ticks_Linear_5,48,1,48,29,532389564
116,5,21,Ticks_Linear_5,49,5,42,127,532406608
116,5,21,Ticks_Linear_5,50,1,48,28,532907912
116,5,21,Ticks_Linear_5,51,5,42,127,532937184
116,5,21,Ticks_Linear_5,52,1,48,29,533463052
116,5,21,Ticks_Linear_5,53,5,42,127,533466616
116,5,21,Ticks_Linear_5,54,1,48,30,533986192
116,5,21,Ticks_Linear_5,55,5,42,127,533996792
116,5,21,Ticks_Linear_5,56,1,48,33,534507688
116,5,21,Ticks_Linear_5,57,5,42,127,534536556
116,5,21,Ticks_Linear_5,58,1,48,28,535049248
116,5,21,Ticks_Linear_5,59,5,42,127,535077440
116,5,21,Ticks_Linear_5,60,1,48,25,535597696
116,5,21,Ticks_Linear_5,61,5,42,127,535616760
116,5,21,Ticks_Linear_5,62,1,48,26,536150264
116,5,21,Ticks_Linear_5,63,5,42,127,536156672
116,5,21,Ticks_Linear_5,64,5,42,127,536697192
116,5,21,Ticks_Linear_5,65,1,48,30,536703376
116,5,21,Ticks_Linear_5,66,1,48,32,537240572
116,5,21,Ticks_Linear_5,67,5,42,127,537247060
116,5,21,Ticks_Linear_5,68,1,48,27,537767688
116,5,21,Ticks_Linear_5,69,5,42,127,537797108
116,5,21,Ticks_Linear_5,70,1,48,28,538309048
116,5,21,Ticks_Linear_5,71,5,42,127,538347056
116,5,21,Ticks_Linear_5,72,5,42,127,538896788
116,5,21,Ticks_Linear_5,73,1,48,28,538898424
116,5,21,Ticks_Linear_5,74,1,48,26,539442112
116,5,21,Ticks_Linear_5,75,5,42,127,539446508
116,5,21,Ticks_Linear_5,76,1,48,32,539964432
116,5,21,Ticks_Linear_5,77,5,42,127,540006640
116,5,21,Ticks_Linear_5,78,1,48,31,540544200
116,5,21,Ticks_Linear_5,79,5,42,127,540566924
116,5,21,Ticks_Linear_5,80,1,48,29,541099456
116,5,21,Ticks_Linear_5,81,5,42,127,541127156
116,5,21,Ticks_Linear_5,82,1,48,35,541680280
116,5,21,Ticks_Linear_5,83,5,42,127,541687140
116,5,21,Ticks_Linear_5,84,1,48,24,542216532
116,5,21,Ticks_Linear_5,85,5,42,127,542247272
116,5,21,Ticks_Linear_5,86,1,48,28,542804808
116,5,21,Ticks_Linear_5,87,5,42,127,542816692
116,5,21,Ticks_Linear_5,88,1,48,29,543358960
116,5,21,Ticks_Linear_5,89,5,42,127,543387012
116,5,21,Ticks_Linear_5,90,1,48,34,543955844
116,5,21,Ticks_Linear_5,91,5,42,127,543957352
116,5,21,Ticks_Linear_5,92,5,42,127,544526780
116,5,21,Ticks_Linear_5,93,1,48,29,544542028
116,5,21,Ticks_Linear_5,94,1,48,31,545096192
116,5,21,Ticks_Linear_5,95,5,42,127,545097684
116,5,21,Ticks_Linear_5,96,1,48,30,545659956
116,5,21,Ticks_Linear_5,97,5,42,127,545676620
116,5,21,Ticks_Linear_5,98,1,48,30,546244756
116,5,21,Ticks_Linear_5,99,5,42,127,546257224
116,5,21,Ticks_Linear_5,100,1,48,27,546800916
116,5,21,Ticks_Linear_5,101,5,42,127,546836904
116,5,21,Ticks_Linear_5,102,1,48,29,547411300
116,5,21,Ticks_Linear_5,103,5,42,127,547416584
116,5,21,Ticks_Linear_5,104,5,42,127,547997168
116,5,21,Ticks_Linear_5,105,1,48,34,548002532
116,5,21,Ticks_Linear_5,106,1,48,31,548556084
116,5,21,Ticks_Linear_5,107,5,42,127,548586828
116,5,21,Ticks_Linear_5,108,1,48,26,549166768
116,5,21,Ticks_Linear_5,109,5,42,127,549176988
116,5,21,Ticks_Linear_5,110,1,48,28,549725176
116,5,21,Ticks_Linear_5,111,5,42,127,549766408
116,5,21,Ticks_Linear_5,112,1,48,29,550348688
116,5,21,Ticks_Linear_5,113,5,42,127,550357268
116,5,21,Ticks_Linear_5,114,1,48,32,550930012
116,5,21,Ticks_Linear_5,115,5,42,127,550947208
116,5,21,Ticks_Linear_5,116,1,48,30,551516060
116,5,21,Ticks_Linear_5,117,5,42,127,551547180
116,5,21,Ticks_Linear_5,118,5,42,127,552147184
116,5,21,Ticks_Linear_5,119,1,48,28,552164376
116,5,21,Ticks_Linear_5,120,5,42,127,552747456
116,5,21,Ticks_Linear_5,121,1,48,34,552750572
116,5,21,Ticks_Linear_5,122,1,48,26,553319452
116,5,21,Ticks_Linear_5,123,5,42,127,553346376
116,5,21,Ticks_Linear_5,124,1,48,25,553938768
116,5,21,Ticks_Linear_5,125,5,42,127,553946524
116,5,21,Ticks_Linear_5,126,1,48,28,554525564
116,5,21,Ticks_Linear_5,127,5,42,127,554556980
116,5,21,Ticks_Linear_5,128,1,48,34,555148976
116,5,21,Ticks_Linear_5,129,5,42,127,555166992
116,5,21,Ticks_Linear_5,130,1,48,29,555763272
116,5,21,Ticks_Linear_5,131,5,42,127,555777324
116,5,21,Ticks_Linear_5,132,5,42,127,556386816
116,5,21,Ticks_Linear_5,133,1,48,25,556401164
116,5,21,Ticks_Linear_5,134,1,48,21,556971756
116,5,21,Ticks_Linear_5,135,5,42,127,556997064
116,5,21,Ticks_Linear_5,136,1,48,27,557584720
116,5,21,Ticks_Linear_5,137,5,42,127,557616436
116,5,21,Ticks_Linear_5,138,1,48,28,558223400
116,5,21,Ticks_Linear_5,139,5,42,127,558237000
116,5,21,Ticks_Linear_5,140,5,42,127,558856776
116,5,21,Ticks_Linear_5,141,1,48,30,558863036
116,5,21,Ticks_Linear_5,142,1,48,26,559454300
116,5,21,Ticks_Linear_5,143,5,42,127,559477188
116,5,21,Ticks_Linear_5,144,1,48,30,560030460
116,5,21,Ticks_Linear_5,145,5,42,127,560096732
116,5,21,Ticks_Linear_5,146,5,42,127,560727416
116,5,21,Ticks_Linear_5,147,1,48,27,560774724
116,5,21,Ticks_Linear_5,148,1,48,24,561337680
116,5,21,Ticks_Linear_5,149,5,42,127,561357140
116,5,21,Ticks_Linear_5,150,1,48,26,561938576
116,5,21,Ticks_Linear_5,151,5,42,127,561986840
116,5,21,Ticks_Linear_5,152,1,48,21,562583320
116,5,21,Ticks_Linear_5,153,5,42,127,562616844
116,5,21,Ticks_Linear_5,154,1,48,23,563226088
116,5,21,Ticks_Linear_5,155,5,42,127,563246424
116,5,21,Ticks_Linear_5,156,1,48,22,563850848
116,5,21,Ticks_Linear_5,157,5,42,127,563886316
116,5,21,Ticks_Linear_5,158,1,48,25,564485824
116,5,21,Ticks_Linear_5,159,5,42,127,564526528
116,5,21,Ticks_Linear_5,160,1,48,27,565153408
116,5,21,Ticks_Linear_5,161,5,42,127,565166416
116,5,21,Ticks_Linear_5,162,1,48,27,565794296
116,5,21,Ticks_Linear_5,163,5,42,127,565806332
116,5,21,Ticks_Linear_5,164,1,48,27,566399596
116,5,21,Ticks_Linear_5,165,5,42,127,566446592
116,5,21,Ticks_Linear_5,166,5,42,127,567096848
116,5,21,Ticks_Linear_5,167,1,48,26,567104228
116,5,21,Ticks_Linear_5,168,5,42,127,567746872
116,5,21,Ticks_Linear_5,169,1,48,37,567775080
116,5,21,Ticks_Linear_5,170,5,42,127,568397168
116,5,21,Ticks_Linear_5,171,1,48,33,568400808
116,5,21,Ticks_Linear_5,172,1,48,33,569029096
116,5,21,Ticks_Linear_5,173,5,42,127,569047556
116,5,21,Ticks_Linear_5,174,5,42,127,569696888
116,5,21,Ticks_Linear_5,175,1,48,27,569699860
116,5,21,Ticks_Linear_5,176,1,48,31,570337360
116,5,21,Ticks_Linear_5,177,5,42,127,570357240
116,5,21,Ticks_Linear_5,178,5,42,127,571016832
116,5,21,Ticks_Linear_5,179,1,48,24,571024284
116,5,21,Ticks_Linear_5,180,5,42,127,571677112
116,5,21,Ticks_Linear_5,181,1,48,18,571693704
116,5,21,Ticks_Linear_5,182,5,42,127,572336696
116,5,21,Ticks_Linear_5,183,1,48,29,572361180
116,5,21,Ticks_Linear_5,184,1,48,26,572984952
116,5,21,Ticks_Linear_5,185,5,42,127,572996900
116,5,21,Ticks_Linear_5,186,1,48,27,573651668
116,5,21,Ticks_Linear_5,187,5,42,127,573666768
116,5,21,Ticks_Linear_5,188,1,48,28,574333864
116,5,21,Ticks_Linear_5,189,5,42,127,574337512
116,5,21,Ticks_Linear_5,190,5,42,127,575007088
116,5,21,Ticks_Linear_5,191,1,48,32,575015600
116,5,21,Ticks_Linear_5,192,1,48,23,575660776
116,5,21,Ticks_Linear_5,193,5,42,127,575676848
116,5,21,Ticks_Linear_5,194,1,48,26,576345056
116,5,21,Ticks_Linear_5,195,5,42,127,576346568
116,5,21,Ticks_Linear_5,196,1,48,27,577007636
116,5,21,Ticks_Linear_5,197,5,42,127,577026620
116,5,21,Ticks_Linear_5,198,1,48,19,577666172
116,5,21,Ticks_Linear_5,199,5,42,127,577707468
116,5,21,Ticks_Linear_5,200,1,48,27,578375056
116,5,21,Ticks_Linear_5,201,5,42,127,578387372
116,5,21,Ticks_Linear_5,202,1,48,32,579051056
116,5,21,Ticks_Linear_5,203,5,42,127,579067204
116,5,21,Ticks_Linear_5,204,1,48,28,579712584
116,5,21,Ticks_Linear_5,205,5,42,127,579747156
116,5,21,Ticks_Linear_5,206,1,48,28,580404248
116,5,21,Ticks_Linear_5,207,5,42,127,580437616
116,5,21,Ticks_Linear_5,208,5,42,127,581126592
116,5,21,Ticks_Linear_5,209,1,48,29,581127708
116,5,21,Ticks_Linear_5,210,1,48,29,581798412
116,5,21,Ticks_Linear_5,211,5,42,127,581816652
116,5,21,Ticks_Linear_5,212,1,48,26,582485360
116,5,21,Ticks_Linear_5,213,5,42,127,582506816
116,5,21,Ticks_Linear_5,214,1,48,30,583159416
116,5,21,Ticks_Linear_5,215,5,42,127,583197052
116,5,21,Ticks_Linear_5,216,1,48,28,583846040
116,5,21,Ticks_Linear_5,217,5,42,127,583896652
116,5,21,Ticks_Linear_5,218,1,48,31,584579484
116,5,21,Ticks_Linear_5,219,5,42,127,584596828
116,5,21,Ticks_Linear_5,220,1,48,32,585275644
116,5,21,Ticks_Linear_5,221,5,42,127,585297248
116,5,21,Ticks_Linear_5,222,1,48,30,585963848
116,5,21,Ticks_Linear_5,223,5,42,127,585996548
116,5,21,Ticks_Linear_5,224,1,48,31,586655268
116,5,21,Ticks_Linear_5,225,5,42,127,586697044
116,5,21,Ticks_Linear_5,226,1,48,36,587386468
116,5,21,Ticks_Linear_5,227,5,42,127,587406728
116,5,21,Ticks_Linear_5,228,1,48,34,588087864
116,5,21,Ticks_Linear_5,229,5,42,127,588117408
116,5,21,Ticks_Linear_5,230,1,48,30,588796304
116,5,21,Ticks_Linear_5,231,5,42,127,588826896
116,5,21,Ticks_Linear_5,232,1,48,31,589498344
116,5,21,Ticks_Linear_5,233,5,42,127,589536604
116,5,21,Ticks_Linear_5,234,1,48,28,590209992
116,5,21,Ticks_Linear_5,235,5,42,127,590247480
116,5,21,Ticks_Linear_5,236,1,48,34,590916488
116,5,21,Ticks_Linear_5,237,5,42,127,590967304
116,5,21,Ticks_Linear_5,238,1,48,29,591657280
116,5,21,Ticks_Linear_5,239,5,42,127,591686972
116,5,21,Ticks_Linear_5,240,1,48,20,592338528
116,5,21,Ticks_Linear_5,241,5,42,127,592406792
116,5,21,Ticks_Linear_5,242,5,42,127,593126764
116,5,21,Ticks_Linear_5,243,1,48,29,593138420
116,5,21,Ticks_Linear_5,244,1,48,29,593835580
116,5,21,Ticks_Linear_5,245,5,42,127,593846552
116,5,21,Ticks_Linear_5,246,1,48,27,594521096
116,5,21,Ticks_Linear_5,247,5,42,127,594576704
116,5,21,Ticks_Linear_5,248,1,48,29,595297832
116,5,21,Ticks_Linear_5,249,5,42,127,595306860
116,5,21,Ticks_Linear_5,250,5,42,127,596036944
116,5,21,Ticks_Linear_5,251,1,48,25,596043572
116,5,21,Ticks_Linear_5,252,1,48,27,596702936
116,5,21,Ticks_Linear_5,253,5,42,127,596767088
116,5,21,Ticks_Linear_5,254,1,48,28,597439160
116,5,21,Ticks_Linear_5,255,5,42,127,597497392
116,5,21,Ticks_Linear_5,256,1,48,30,598223080
116,5,21,Ticks_Linear_5,257,5,42,127,598236532
116,5,21,Ticks_Linear_5,258,1,48,28,598953504
116,5,21,Ticks_Linear_5,259,5,42,127,598977016
116,5,21,Ticks_Linear_5,260,1,48,27,599690776
116,5,21,Ticks_Linear_5,261,5,42,127,599717480
116,5,21,Ticks_Linear_5,262,1,48,33,600414572
116,5,21,Ticks_Linear_5,263,5,42,127,600456620
116,5,21,Ticks_Linear_5,264,1,48,33,601163132
116,5,21,Ticks_Linear_5,265,5,42,127,601196956
116,5,21,Ticks_Linear_5,266,1,48,23,601905356
116,5,21,Ticks_Linear_5,267,5,42,127,601946432
116,5,21,Ticks_Linear_5,268,1,48,31,602659020
116,5,21,Ticks_Linear_5,269,5,42,127,602697028
116,5,21,Ticks_Linear_5,270,1,48,26,603422192
116,5,21,Ticks_Linear_5,271,5,42,127,603446724
116,5,21,Ticks_Linear_5,272,1,48,29,604153916
116,5,21,Ticks_Linear_5,273,5,42,127,604197320
116,5,21,Ticks_Linear_5,274,1,48,29,604943000
116,5,21,Ticks_Linear_5,275,5,42,127,604946720
116,5,21,Ticks_Linear_5,276,1,48,33,605678780
116,5,21,Ticks_Linear_5,277,5,42,127,605706680
116,5,21,Ticks_Linear_5,278,1,48,27,606417324
116,5,21,Ticks_Linear_5,279,5,42,127,606466340
116,5,21,Ticks_Linear_5,280,1,48,31,607224672
116,5,21,Ticks_Linear_5,281,5,42,127,607227344
116,5,21,Ticks_Linear_5,282,1,48,28,607980672
116,5,21,Ticks_Linear_5,283,5,42,127,607987152
116,5,21,Ticks_Linear_5,284,1,48,27,608738384
116,5,21,Ticks_Linear_5,285,5,42,127,608746812
116,5,21,Ticks_Linear_5,286,1,48,27,609479696
116,5,21,Ticks_Linear_5,287,5,42,127,609516880
116,5,21,Ticks_Linear_5,288,1,48,23,610222696
116,5,21,Ticks_Linear_5,289,5,42,127,610287096
116,5,21,Ticks_Linear_5,290,1,48,28,611013456
116,5,21,Ticks_Linear_5,291,5,42,127,611057236
116,5,21,Ticks_Linear_5,292,5,42,127,611827240
116,5,21,Ticks_Linear_5,293,1,48,24,611854776
116,5,21,Ticks_Linear_5,294,1,48,25,612494940
116,5,21,Ticks_Linear_5,295,5,42,127,612597284
116,5,21,Ticks_Linear_5,296,1,48,23,613325616
116,5,21,Ticks_Linear_5,297,5,42,127,613377332
116,5,21,Ticks_Linear_5,298,1,48,24,614122640
116,5,21,Ticks_Linear_5,299,5,42,127,614156536
116,5,21,Ticks_Linear_5,300,1,48,30,614924992
116,5,21,Ticks_Linear_5,301,5,42,127,614936936
116,5,21,Ticks_Linear_5,302,1,48,25,615687568
116,5,21,Ticks_Linear_5,303,5,42,127,615717188
116,5,21,Ticks_Linear_5,304,1,48,34,616480396
116,5,21,Ticks_Linear_5,305,5,42,127,616496544
116,5,21,Ticks_Linear_5,306,1,48,27,617251216
116,5,21,Ticks_Linear_5,307,5,42,127,617287132
116,5,21,Ticks_Linear_5,308,1,48,28,618038736
116,5,21,Ticks_Linear_5,309,5,42,127,618076596
116,5,21,Ticks_Linear_5,310,1,48,24,618840628
116,5,21,Ticks_Linear_5,311,5,42,127,618867180
116,5,21,Ticks_Linear_5,312,1,48,24,619646644
116,5,21,Ticks_Linear_5,313,5,42,127,619656572
116,5,21,Ticks_Linear_5,314,1,48,33,620399560
116,5,21,Ticks_Linear_5,315,5,42,127,620447008
116,5,21,Ticks_Linear_5,316,5,42,127,621247136
116,5,21,Ticks_Linear_5,317,1,48,24,621251004
116,5,21,Ticks_Linear_5,318,5,42,127,622046712
116,5,21,Ticks_Linear_5,319,1,48,20,622048352
116,5,21,Ticks_Linear_5,320,1,48,19,622820924
116,5,21,Ticks_Linear_5,321,5,42,127,622847252
116,5,21,Ticks_Linear_5,322,1,48,22,623604536
116,5,21,Ticks_Linear_5,323,5,42,127,623647124
116,5,21,Ticks_Linear_5,324,1,48,24,624422612
116,5,21,Ticks_Linear_5,325,5,42,127,624447220
116,5,21,Ticks_Linear_5,326,1,48,24,625228108
116,5,21,Ticks_Linear_5,327,5,42,127,625257056
116,5,21,Ticks_Linear_5,328,1,48,17,626018992
116,5,21,Ticks_Linear_5,329,5,42,127,626067040
116,5,21,Ticks_Linear_5,330,1,48,24,626872108
116,5,21,Ticks_Linear_5,331,5,42,127,626877192
116,5,21,Ticks_Linear_5,332,1,48,28,627677028
116,5,21,Ticks_Linear_5,333,5,42,127,627687028
116,5,21,Ticks_Linear_5,334,1,48,27,628468892
116,5,21,Ticks_Linear_5,335,5,42,127,628497160
116,5,21,Ticks_Linear_5,0,9999,9999,9999,519324744
116,5,21,Ticks_Linear_5,1,9999,9999,9999,519804996
116,5,21,Ticks_Linear_5,2,9999,9999,9999,520284272
116,5,21,Ticks_Linear_5,3,9999,9999,9999,520764520
116,5,21,Ticks_Linear_5,4,9999,9999,9999,521244764
116,5,21,Ticks_Linear_5,5,9999,9999,9999,521734208
116,5,21,Ticks_Linear_5,6,9999,9999,9999,522224692
116,5,21,Ticks_Linear_5,7,9999,9999,9999,522714208
116,5,21,Ticks_Linear_5,8,9999,9999,9999,523204696
116,5,21,Ticks_Linear_5,9,9999,9999,9999,523694184
116,5,21,Ticks_Linear_5,10,9999,9999,9999,524194932
116,5,21,Ticks_Linear_5,11,9999,9999,9999,524694632
116,5,21,Ticks_Linear_5,12,9999,9999,9999,525194332
116,5,21,Ticks_Linear_5,13,9999,9999,9999,525695076
116,5,21,Ticks_Linear_5,14,9999,9999,9999,526194776
116,5,21,Ticks_Linear_5,15,9999,9999,9999,526704744
116,5,21,Ticks_Linear_5,16,9999,9999,9999,527214700
116,5,21,Ticks_Linear_5,17,9999,9999,9999,527724656
116,5,21,Ticks_Linear_5,18,9999,9999,9999,528234616
116,5,21,Ticks_Linear_5,19,9999,9999,9999,528744576
116,5,21,Ticks_Linear_5,20,9999,9999,9999,529264720
116,5,21,Ticks_Linear_5,21,9999,9999,9999,529784940
116,5,21,Ticks_Linear_5,22,9999,9999,9999,530304112
116,5,21,Ticks_Linear_5,23,9999,9999,9999,530824256
116,5,21,Ticks_Linear_5,24,9999,9999,9999,531344472
116,5,21,Ticks_Linear_5,25,9999,9999,9999,531874876
116,5,21,Ticks_Linear_5,26,9999,9999,9999,532404308
116,5,21,Ticks_Linear_5,27,9999,9999,9999,532934736
116,5,21,Ticks_Linear_5,28,9999,9999,9999,533464164
116,5,21,Ticks_Linear_5,29,9999,9999,9999,533994568
116,5,21,Ticks_Linear_5,30,9999,9999,9999,534534256
116,5,21,Ticks_Linear_5,31,9999,9999,9999,535074920
116,5,21,Ticks_Linear_5,32,9999,9999,9999,535614532
116,5,21,Ticks_Linear_5,33,9999,9999,9999,536154224
116,5,21,Ticks_Linear_5,34,9999,9999,9999,536694892
116,5,21,Ticks_Linear_5,35,9999,9999,9999,537244760
116,5,21,Ticks_Linear_5,36,9999,9999,9999,537794660
116,5,21,Ticks_Linear_5,37,9999,9999,9999,538344532
116,5,21,Ticks_Linear_5,38,9999,9999,9999,538894412
116,5,21,Ticks_Linear_5,39,9999,9999,9999,539444280
116,5,21,Ticks_Linear_5,40,9999,9999,9999,540004416
116,5,21,Ticks_Linear_5,41,9999,9999,9999,540564548
116,5,21,Ticks_Linear_5,42,9999,9999,9999,541124704
116,5,21,Ticks_Linear_5,43,9999,9999,9999,541684840
116,5,21,Ticks_Linear_5,44,9999,9999,9999,542244972
116,5,21,Ticks_Linear_5,45,9999,9999,9999,542814320
116,5,21,Ticks_Linear_5,46,9999,9999,9999,543384636
116,5,21,Ticks_Linear_5,47,9999,9999,9999,543955060
116,5,21,Ticks_Linear_5,48,9999,9999,9999,544524404
116,5,21,Ticks_Linear_5,49,9999,9999,9999,545094720
116,5,21,Ticks_Linear_5,50,9999,9999,9999,545674320
116,5,21,Ticks_Linear_5,51,9999,9999,9999,546254924
116,5,21,Ticks_Linear_5,52,9999,9999,9999,546834532
116,5,21,Ticks_Linear_5,53,9999,9999,9999,547414136
116,5,21,Ticks_Linear_5,54,9999,9999,9999,547994720
116,5,21,Ticks_Linear_5,55,9999,9999,9999,548584528
116,5,21,Ticks_Linear_5,56,9999,9999,9999,549174392
116,5,21,Ticks_Linear_5,57,9999,9999,9999,549764180
116,5,21,Ticks_Linear_5,58,9999,9999,9999,550355040
116,5,21,Ticks_Linear_5,59,9999,9999,9999,550944832
116,5,21,Ticks_Linear_5,60,9999,9999,9999,551544952
116,5,21,Ticks_Linear_5,61,9999,9999,9999,552144956
116,5,21,Ticks_Linear_5,62,9999,9999,9999,552745080
116,5,21,Ticks_Linear_5,63,9999,9999,9999,553344076
116,5,21,Ticks_Linear_5,64,9999,9999,9999,553944148
116,5,21,Ticks_Linear_5,65,9999,9999,9999,554554460
116,5,21,Ticks_Linear_5,66,9999,9999,9999,555164764
116,5,21,Ticks_Linear_5,67,9999,9999,9999,555775100
116,5,21,Ticks_Linear_5,68,9999,9999,9999,556384364
116,5,21,Ticks_Linear_5,69,9999,9999,9999,556994616
116,5,21,Ticks_Linear_5,70,9999,9999,9999,557614136
116,5,21,Ticks_Linear_5,71,9999,9999,9999,558234700
116,5,21,Ticks_Linear_5,72,9999,9999,9999,558854252
116,5,21,Ticks_Linear_5,73,9999,9999,9999,559474812
116,5,21,Ticks_Linear_5,74,9999,9999,9999,560094284
116,5,21,Ticks_Linear_5,75,9999,9999,9999,560725116
116,5,21,Ticks_Linear_5,76,9999,9999,9999,561354840
116,5,21,Ticks_Linear_5,77,9999,9999,9999,561984616
116,5,21,Ticks_Linear_5,78,9999,9999,9999,562614392
116,5,21,Ticks_Linear_5,79,9999,9999,9999,563244124
116,5,21,Ticks_Linear_5,80,9999,9999,9999,563884088
116,5,21,Ticks_Linear_5,81,9999,9999,9999,564524152
116,5,21,Ticks_Linear_5,82,9999,9999,9999,565164116
116,5,21,Ticks_Linear_5,83,9999,9999,9999,565804104
116,5,21,Ticks_Linear_5,84,9999,9999,9999,566444144
116,5,21,Ticks_Linear_5,85,9999,9999,9999,567094396
116,5,21,Ticks_Linear_5,86,9999,9999,9999,567744572
116,5,21,Ticks_Linear_5,87,9999,9999,9999,568394868
116,5,21,Ticks_Linear_5,88,9999,9999,9999,569045108
116,5,21,Ticks_Linear_5,89,9999,9999,9999,569694292
116,5,21,Ticks_Linear_5,90,9999,9999,9999,570354792
116,5,21,Ticks_Linear_5,91,9999,9999,9999,571014232
116,5,21,Ticks_Linear_5,92,9999,9999,9999,571674736
116,5,21,Ticks_Linear_5,93,9999,9999,9999,572334172
116,5,21,Ticks_Linear_5,94,9999,9999,9999,572994672
116,5,21,Ticks_Linear_5,95,9999,9999,9999,573664320
116,5,21,Ticks_Linear_5,96,9999,9999,9999,574335060
116,5,21,Ticks_Linear_5,97,9999,9999,9999,575004784
116,5,21,Ticks_Linear_5,98,9999,9999,9999,575674472
116,5,21,Ticks_Linear_5,99,9999,9999,9999,576344124
116,5,21,Ticks_Linear_5,100,9999,9999,9999,577024096
116,5,21,Ticks_Linear_5,101,9999,9999,9999,577705020
116,5,21,Ticks_Linear_5,102,9999,9999,9999,578385000
116,5,21,Ticks_Linear_5,103,9999,9999,9999,579064900
116,5,21,Ticks_Linear_5,104,9999,9999,9999,579744856
116,5,21,Ticks_Linear_5,105,9999,9999,9999,580435020
116,5,21,Ticks_Linear_5,106,9999,9999,9999,581124216
116,5,21,Ticks_Linear_5,107,9999,9999,9999,581814352
116,5,21,Ticks_Linear_5,108,9999,9999,9999,582504516
116,5,21,Ticks_Linear_5,109,9999,9999,9999,583194680
116,5,21,Ticks_Linear_5,110,9999,9999,9999,583894128
116,5,21,Ticks_Linear_5,111,9999,9999,9999,584594524
116,5,21,Ticks_Linear_5,112,9999,9999,9999,585294948
116,5,21,Ticks_Linear_5,113,9999,9999,9999,585994324
116,5,21,Ticks_Linear_5,114,9999,9999,9999,586694744
116,5,21,Ticks_Linear_5,115,9999,9999,9999,587404356
116,5,21,Ticks_Linear_5,116,9999,9999,9999,588115036
116,5,21,Ticks_Linear_5,117,9999,9999,9999,588824668
116,5,21,Ticks_Linear_5,118,9999,9999,9999,589534304
116,5,21,Ticks_Linear_5,119,9999,9999,9999,590244956
116,5,21,Ticks_Linear_5,120,9999,9999,9999,590964852
116,5,21,Ticks_Linear_5,121,9999,9999,9999,591684672
116,5,21,Ticks_Linear_5,122,9999,9999,9999,592404564
116,5,21,Ticks_Linear_5,123,9999,9999,9999,593124464
116,5,21,Ticks_Linear_5,124,9999,9999,9999,593844328
116,5,21,Ticks_Linear_5,125,9999,9999,9999,594574404
116,5,21,Ticks_Linear_5,126,9999,9999,9999,595304556
116,5,21,Ticks_Linear_5,127,9999,9999,9999,596034640
116,5,21,Ticks_Linear_5,128,9999,9999,9999,596764788
116,5,21,Ticks_Linear_5,129,9999,9999,9999,597494868
116,5,21,Ticks_Linear_5,130,9999,9999,9999,598234232
116,5,21,Ticks_Linear_5,131,9999,9999,9999,598974568
116,5,21,Ticks_Linear_5,132,9999,9999,9999,599714880
116,5,21,Ticks_Linear_5,133,9999,9999,9999,600454244
116,5,21,Ticks_Linear_5,134,9999,9999,9999,601194580
116,5,21,Ticks_Linear_5,135,9999,9999,9999,601944132
116,5,21,Ticks_Linear_5,136,9999,9999,9999,602694724
116,5,21,Ticks_Linear_5,137,9999,9999,9999,603444348
116,5,21,Ticks_Linear_5,138,9999,9999,9999,604194872
116,5,21,Ticks_Linear_5,139,9999,9999,9999,604944496
116,5,21,Ticks_Linear_5,140,9999,9999,9999,605704304
116,5,21,Ticks_Linear_5,141,9999,9999,9999,606464112
116,5,21,Ticks_Linear_5,142,9999,9999,9999,607224896
116,5,21,Ticks_Linear_5,143,9999,9999,9999,607984704
116,5,21,Ticks_Linear_5,144,9999,9999,9999,608744512
116,5,21,Ticks_Linear_5,145,9999,9999,9999,609514580
116,5,21,Ticks_Linear_5,146,9999,9999,9999,610284648
116,5,21,Ticks_Linear_5,147,9999,9999,9999,611054712
116,5,21,Ticks_Linear_5,148,9999,9999,9999,611824716
116,5,21,Ticks_Linear_5,149,9999,9999,9999,612594760
116,5,21,Ticks_Linear_5,150,9999,9999,9999,613375028
116,5,21,Ticks_Linear_5,151,9999,9999,9999,614154308
116,5,21,Ticks_Linear_5,152,9999,9999,9999,614934636
116,5,21,Ticks_Linear_5,153,9999,9999,9999,615714888
116,5,21,Ticks_Linear_5,154,9999,9999,9999,616494168
116,5,21,Ticks_Linear_5,155,9999,9999,9999,617284680
116,5,21,Ticks_Linear_5,156,9999,9999,9999,618074220
116,5,21,Ticks_Linear_5,157,9999,9999,9999,618864732
116,5,21,Ticks_Linear_5,158,9999,9999,9999,619654196
116,5,21,Ticks_Linear_5,159,9999,9999,9999,620444780
116,5,21,Ticks_Linear_5,160,9999,9999,9999,621244536
116,5,21,Ticks_Linear_5,161,9999,9999,9999,622044264
116,5,21,Ticks_Linear_5,162,9999,9999,9999,622845028
116,5,21,Ticks_Linear_5,163,9999,9999,9999,623644748
116,5,21,Ticks_Linear_5,164,9999,9999,9999,624444472
116,5,21,Ticks_Linear_5,165,9999,9999,9999,625254456
116,5,21,Ticks_Linear_5,166,9999,9999,9999,626064440
116,5,21,Ticks_Linear_5,167,9999,9999,9999,626874424
116,5,21,Ticks_Linear_5,168,9999,9999,9999,627684428
116,5,21,Ticks_Linear_5,169,9999,9999,9999,628494416
116,6,20,Ticks_Linear_8,0,5,42,127,637705692
116,6,20,Ticks_Linear_8,1,1,48,29,638262356
116,6,20,Ticks_Linear_8,2,5,42,127,638525716
116,6,20,Ticks_Linear_8,3,1,48,29,639258388
116,6,20,Ticks_Linear_8,4,5,42,127,639346048
116,6,20,Ticks_Linear_8,5,1,48,29,640146856
116,6,20,Ticks_Linear_8,6,5,42,127,640166216
116,6,20,Ticks_Linear_8,7,5,42,127,640985444
116,6,20,Ticks_Linear_8,8,1,48,39,641016048
116,6,20,Ticks_Linear_8,9,1,48,32,641760100
116,6,20,Ticks_Linear_8,10,5,42,127,641795568
116,6,20,Ticks_Linear_8,11,1,48,31,642562148
116,6,20,Ticks_Linear_8,12,5,42,127,642605328
116,6,20,Ticks_Linear_8,13,1,48,28,643404564
116,6,20,Ticks_Linear_8,14,5,42,127,643416584
116,6,20,Ticks_Linear_8,15,1,48,31,644219632
116,6,20,Ticks_Linear_8,16,5,42,127,644226716
116,6,20,Ticks_Linear_8,17,5,42,127,645045768
116,6,20,Ticks_Linear_8,18,1,48,23,645049416
116,6,20,Ticks_Linear_8,19,1,48,24,645839848
116,6,20,Ticks_Linear_8,20,5,42,127,645846260
116,6,20,Ticks_Linear_8,21,5,42,127,646646064
116,6,20,Ticks_Linear_8,22,1,48,28,646658620
116,6,20,Ticks_Linear_8,23,1,48,28,647435780
116,6,20,Ticks_Linear_8,24,5,42,127,647445856
116,6,20,Ticks_Linear_8,25,1,48,28,648233024
116,6,20,Ticks_Linear_8,26,5,42,127,648245724
116,6,20,Ticks_Linear_8,27,1,48,20,649033344
116,6,20,Ticks_Linear_8,28,5,42,127,649046652
116,6,20,Ticks_Linear_8,29,1,48,23,649835068
116,6,20,Ticks_Linear_8,30,5,42,127,649836644
116,6,20,Ticks_Linear_8,31,1,48,25,650588916
116,6,20,Ticks_Linear_8,32,5,42,127,650626552
116,6,20,Ticks_Linear_8,33,1,48,22,651414856
116,6,20,Ticks_Linear_8,34,5,42,127,651426124
116,6,20,Ticks_Linear_8,35,1,48,26,652191956
116,6,20,Ticks_Linear_8,36,5,42,127,652215664
116,6,20,Ticks_Linear_8,37,5,42,127,653006132
116,6,20,Ticks_Linear_8,38,1,48,28,653008800
116,6,20,Ticks_Linear_8,39,5,42,127,653785564
116,6,20,Ticks_Linear_8,40,1,48,26,653808904
116,6,20,Ticks_Linear_8,41,1,48,21,654526080
116,6,20,Ticks_Linear_8,42,5,42,127,654565660
116,6,20,Ticks_Linear_8,43,1,48,27,655280616
116,6,20,Ticks_Linear_8,44,5,42,127,655345988
116,6,20,Ticks_Linear_8,45,1,48,26,656092864
116,6,20,Ticks_Linear_8,46,5,42,127,656126460
116,6,20,Ticks_Linear_8,47,1,48,25,656885560
116,6,20,Ticks_Linear_8,48,5,42,127,656905668
116,6,20,Ticks_Linear_8,49,1,48,23,657649480
116,6,20,Ticks_Linear_8,50,5,42,127,657675588
116,6,20,Ticks_Linear_8,51,1,48,24,658419032
116,6,20,Ticks_Linear_8,52,5,42,127,658445804
116,6,20,Ticks_Linear_8,53,1,48,19,659172092
116,6,20,Ticks_Linear_8,54,5,42,127,659215796
116,6,20,Ticks_Linear_8,55,1,48,25,659983120
116,6,20,Ticks_Linear_8,56,5,42,127,659985864
116,6,20,Ticks_Linear_8,57,1,48,26,660743076
116,6,20,Ticks_Linear_8,58,5,42,127,660755932
116,6,20,Ticks_Linear_8,59,5,42,127,661515528
116,6,20,Ticks_Linear_8,60,1,48,23,661517540
116,6,20,Ticks_Linear_8,61,5,42,127,662275636
116,6,20,Ticks_Linear_8,62,1,48,21,662283928
116,6,20,Ticks_Linear_8,63,1,48,28,663032544
116,6,20,Ticks_Linear_8,64,5,42,127,663036408
116,6,20,Ticks_Linear_8,65,1,48,27,663758508
116,6,20,Ticks_Linear_8,66,5,42,127,663796072
116,6,20,Ticks_Linear_8,67,1,48,24,664514732
116,6,20,Ticks_Linear_8,68,5,42,127,664555880
116,6,20,Ticks_Linear_8,69,5,42,127,665305512
116,6,20,Ticks_Linear_8,70,1,48,30,665330872
116,6,20,Ticks_Linear_8,71,1,48,23,666026452
116,6,20,Ticks_Linear_8,72,5,42,127,666055952
116,6,20,Ticks_Linear_8,73,1,48,27,666771728
116,6,20,Ticks_Linear_8,74,5,42,127,666805624
116,6,20,Ticks_Linear_8,75,1,48,32,667511244
116,6,20,Ticks_Linear_8,76,5,42,127,667556368
116,6,20,Ticks_Linear_8,77,1,48,29,668292912
116,6,20,Ticks_Linear_8,78,5,42,127,668305844
116,6,20,Ticks_Linear_8,79,1,48,28,669008248
116,6,20,Ticks_Linear_8,80,5,42,127,669046256
116,6,20,Ticks_Linear_8,81,1,48,25,669768356
116,6,20,Ticks_Linear_8,82,5,42,127,669785548
116,6,20,Ticks_Linear_8,83,1,48,26,670507944
116,6,20,Ticks_Linear_8,84,5,42,127,670525808
116,6,20,Ticks_Linear_8,85,5,42,127,671266448
116,6,20,Ticks_Linear_8,86,1,48,27,671284408
116,6,20,Ticks_Linear_8,87,5,42,127,672005444
116,6,20,Ticks_Linear_8,88,1,48,27,672019720
116,6,20,Ticks_Linear_8,89,5,42,127,672735596
116,6,20,Ticks_Linear_8,90,1,48,27,672800344
116,6,20,Ticks_Linear_8,91,1,48,23,673414004
116,6,20,Ticks_Linear_8,92,5,42,127,673465716
116,6,20,Ticks_Linear_8,93,1,48,20,674160624
116,6,20,Ticks_Linear_8,94,5,42,127,674195868
116,6,20,Ticks_Linear_8,95,1,48,18,674911072
116,6,20,Ticks_Linear_8,96,5,42,127,674925876
116,6,20,Ticks_Linear_8,97,1,48,24,675628280
116,6,20,Ticks_Linear_8,98,5,42,127,675656176
116,6,20,Ticks_Linear_8,99,1,48,22,676325708
116,6,20,Ticks_Linear_8,100,5,42,127,676375920
116,6,20,Ticks_Linear_8,101,1,48,24,677063952
116,6,20,Ticks_Linear_8,102,5,42,127,677095740
116,6,20,Ticks_Linear_8,103,1,48,31,677773244
116,6,20,Ticks_Linear_8,104,5,42,127,677815532
116,6,20,Ticks_Linear_8,105,5,42,127,678535508
116,6,20,Ticks_Linear_8,106,1,48,24,678548740
116,6,20,Ticks_Linear_8,107,5,42,127,679256376
116,6,20,Ticks_Linear_8,108,1,48,30,679258896
116,6,20,Ticks_Linear_8,109,5,42,127,679976268
116,6,20,Ticks_Linear_8,110,1,48,32,679997668
116,6,20,Ticks_Linear_8,111,1,48,30,680672372
116,6,20,Ticks_Linear_8,112,5,42,127,680685824
116,6,20,Ticks_Linear_8,113,1,48,24,681327168
116,6,20,Ticks_Linear_8,114,5,42,127,681395656
116,6,20,Ticks_Linear_8,115,1,48,27,682069152
116,6,20,Ticks_Linear_8,116,5,42,127,682106112
116,6,20,Ticks_Linear_8,117,1,48,28,682764340
116,6,20,Ticks_Linear_8,118,5,42,127,682816044
116,6,20,Ticks_Linear_8,119,5,42,127,683516472
116,6,20,Ticks_Linear_8,120,1,48,27,683539888
116,6,20,Ticks_Linear_8,121,1,48,28,684201172
116,6,20,Ticks_Linear_8,122,5,42,127,684215668
116,6,20,Ticks_Linear_8,123,1,48,19,684896584
116,6,20,Ticks_Linear_8,124,5,42,127,684916016
116,6,20,Ticks_Linear_8,125,1,48,28,685587268
116,6,20,Ticks_Linear_8,126,5,42,127,685615540
116,6,20,Ticks_Linear_8,127,1,48,23,686290832
116,6,20,Ticks_Linear_8,128,5,42,127,686316040
116,6,20,Ticks_Linear_8,129,1,48,14,686997752
116,6,20,Ticks_Linear_8,130,5,42,127,687006176
116,6,20,Ticks_Linear_8,131,1,48,26,687662300
116,6,20,Ticks_Linear_8,132,5,42,127,687696116
116,6,20,Ticks_Linear_8,133,1,48,16,688328876
116,6,20,Ticks_Linear_8,134,5,42,127,688386356
116,6,20,Ticks_Linear_8,135,1,48,24,689069856
116,6,20,Ticks_Linear_8,136,5,42,127,689086028
116,6,20,Ticks_Linear_8,137,1,48,22,689754264
116,6,20,Ticks_Linear_8,138,5,42,127,689776240
116,6,20,Ticks_Linear_8,139,1,48,29,690443216
116,6,20,Ticks_Linear_8,140,5,42,127,690456072
116,6,20,Ticks_Linear_8,141,5,42,127,691135980
116,6,20,Ticks_Linear_8,142,1,48,26,691144348
116,6,20,Ticks_Linear_8,143,1,48,32,691803540
116,6,20,Ticks_Linear_8,144,5,42,127,691816004
116,6,20,Ticks_Linear_8,145,1,48,24,692448164
116,6,20,Ticks_Linear_8,146,5,42,127,692495684
116,6,20,Ticks_Linear_8,147,1,48,30,693158148
116,6,20,Ticks_Linear_8,148,5,42,127,693175636
116,6,20,Ticks_Linear_8,149,5,42,127,693846536
116,6,20,Ticks_Linear_8,150,1,48,29,693870172
116,6,20,Ticks_Linear_8,151,1,48,30,694512008
116,6,20,Ticks_Linear_8,152,5,42,127,694516172
116,6,20,Ticks_Linear_8,153,1,48,23,695131456
116,6,20,Ticks_Linear_8,154,5,42,127,695185720
116,6,20,Ticks_Linear_8,155,1,48,30,695846636
116,6,20,Ticks_Linear_8,156,5,42,127,695855440
116,6,20,Ticks_Linear_8,157,1,48,30,696511256
116,6,20,Ticks_Linear_8,158,5,42,127,696526132
116,6,20,Ticks_Linear_8,159,1,48,26,697151072
116,6,20,Ticks_Linear_8,160,5,42,127,697185792
116,6,20,Ticks_Linear_8,161,5,42,127,697846008
116,6,20,Ticks_Linear_8,162,1,48,24,697886716
116,6,20,Ticks_Linear_8,163,1,48,22,698482996
116,6,20,Ticks_Linear_8,164,5,42,127,698505584
116,6,20,Ticks_Linear_8,165,1,48,27,699123208
116,6,20,Ticks_Linear_8,166,5,42,127,699166164
116,6,20,Ticks_Linear_8,167,5,42,127,699825460
116,6,20,Ticks_Linear_8,168,1,48,26,699846056
116,6,20,Ticks_Linear_8,169,5,42,127,700475856
116,6,20,Ticks_Linear_8,170,1,48,22,700485344
116,6,20,Ticks_Linear_8,171,5,42,127,701126176
116,6,20,Ticks_Linear_8,172,1,48,27,701137992
116,6,20,Ticks_Linear_8,173,1,48,25,701763620
116,6,20,Ticks_Linear_8,174,5,42,127,701776172
116,6,20,Ticks_Linear_8,175,5,42,127,702425528
116,6,20,Ticks_Linear_8,176,1,48,27,702443168
116,6,20,Ticks_Linear_8,177,1,48,23,703043120
116,6,20,Ticks_Linear_8,178,5,42,127,703075820
116,6,20,Ticks_Linear_8,179,1,48,33,703694724
116,6,20,Ticks_Linear_8,180,5,42,127,703715808
116,6,20,Ticks_Linear_8,181,5,42,127,704355852
116,6,20,Ticks_Linear_8,182,1,48,30,704365492
116,6,20,Ticks_Linear_8,183,1,48,27,704975800
116,6,20,Ticks_Linear_8,184,5,42,127,704996060
116,6,20,Ticks_Linear_8,185,1,48,26,705587008
116,6,20,Ticks_Linear_8,186,5,42,127,705635724
116,6,20,Ticks_Linear_8,187,1,48,24,706276096
116,6,20,Ticks_Linear_8,188,5,42,127,706277360
116,6,20,Ticks_Linear_8,189,5,42,127,706905504
116,6,20,Ticks_Linear_8,190,1,48,28,706945324
116,6,20,Ticks_Linear_8,191,1,48,31,707536648
116,6,20,Ticks_Linear_8,192,5,42,127,707537840
116,6,20,Ticks_Linear_8,193,5,42,127,708165908
116,6,20,Ticks_Linear_8,194,1,48,26,708195916
116,6,20,Ticks_Linear_8,195,1,48,20,708775868
116,6,20,Ticks_Linear_8,196,5,42,127,708795780
116,6,20,Ticks_Linear_8,197,1,48,24,709366888
116,6,20,Ticks_Linear_8,198,5,42,127,709425484
116,6,20,Ticks_Linear_8,199,1,48,23,710019424
116,6,20,Ticks_Linear_8,200,5,42,127,710046200
116,6,20,Ticks_Linear_8,201,5,42,127,710665528
116,6,20,Ticks_Linear_8,202,1,48,31,710689464
116,6,20,Ticks_Linear_8,203,5,42,127,711286168
116,6,20,Ticks_Linear_8,204,1,48,27,711296856
116,6,20,Ticks_Linear_8,205,1,48,31,711900724
116,6,20,Ticks_Linear_8,206,5,42,127,711905784
116,6,20,Ticks_Linear_8,207,1,48,30,712520392
116,6,20,Ticks_Linear_8,208,5,42,127,712526132
116,6,20,Ticks_Linear_8,209,1,48,29,713116328
116,6,20,Ticks_Linear_8,210,5,42,127,713135540
116,6,20,Ticks_Linear_8,211,1,48,27,713729356
116,6,20,Ticks_Linear_8,212,5,42,127,713745648
116,6,20,Ticks_Linear_8,213,1,48,30,714330900
116,6,20,Ticks_Linear_8,214,5,42,127,714356108
116,6,20,Ticks_Linear_8,215,1,48,33,714947008
116,6,20,Ticks_Linear_8,216,5,42,127,714966296
116,6,20,Ticks_Linear_8,217,1,48,32,715544436
116,6,20,Ticks_Linear_8,218,5,42,127,715575928
116,6,20,Ticks_Linear_8,219,1,48,32,716175084
116,6,20,Ticks_Linear_8,220,5,42,127,716176576
116,6,20,Ticks_Linear_8,221,1,48,31,716767100
116,6,20,Ticks_Linear_8,222,5,42,127,716775904
116,6,20,Ticks_Linear_8,223,1,48,27,717363172
116,6,20,Ticks_Linear_8,224,5,42,127,717375728
116,6,20,Ticks_Linear_8,225,1,48,24,717950120
116,6,20,Ticks_Linear_8,226,5,42,127,717975924
116,6,20,Ticks_Linear_8,227,5,42,127,718575856
116,6,20,Ticks_Linear_8,228,1,48,19,718580100
116,6,20,Ticks_Linear_8,229,1,48,28,719151664
116,6,20,Ticks_Linear_8,230,5,42,127,719165792
116,6,20,Ticks_Linear_8,231,1,48,34,719752160
116,6,20,Ticks_Linear_8,232,5,42,127,719755732
116,6,20,Ticks_Linear_8,233,1,48,29,720331716
116,6,20,Ticks_Linear_8,234,5,42,127,720345320
116,6,20,Ticks_Linear_8,235,5,42,127,720936312
116,6,20,Ticks_Linear_8,236,1,48,27,720948276
116,6,20,Ticks_Linear_8,237,5,42,127,721526028
116,6,20,Ticks_Linear_8,238,1,48,31,721543980
116,6,20,Ticks_Linear_8,239,1,48,27,722100040
116,6,20,Ticks_Linear_8,240,5,42,127,722105876
116,6,20,Ticks_Linear_8,241,1,48,29,722650240
116,6,20,Ticks_Linear_8,242,5,42,127,722686376
116,6,20,Ticks_Linear_8,243,5,42,127,723265840
116,6,20,Ticks_Linear_8,244,1,48,22,723278472
116,6,20,Ticks_Linear_8,245,1,48,26,723838432
116,6,20,Ticks_Linear_8,246,5,42,127,723845736
116,6,20,Ticks_Linear_8,247,5,42,127,724426048
116,6,20,Ticks_Linear_8,248,1,48,25,724430216
116,6,20,Ticks_Linear_8,249,1,48,21,724993804
116,6,20,Ticks_Linear_8,250,5,42,127,724995388
116,6,20,Ticks_Linear_8,251,1,48,23,725547248
116,6,20,Ticks_Linear_8,252,5,42,127,725565708
116,6,20,Ticks_Linear_8,253,1,48,29,726109772
116,6,20,Ticks_Linear_8,254,5,42,127,726136100
116,6,20,Ticks_Linear_8,255,5,42,127,726705676
116,6,20,Ticks_Linear_8,256,1,48,22,726706644
116,6,20,Ticks_Linear_8,257,5,42,127,727275796
116,6,20,Ticks_Linear_8,258,1,48,27,727279892
116,6,20,Ticks_Linear_8,259,1,48,20,727833552
116,6,20,Ticks_Linear_8,260,5,42,127,727836000
116,6,20,Ticks_Linear_8,261,1,48,31,728354456
116,6,20,Ticks_Linear_8,262,5,42,127,728396132
116,6,20,Ticks_Linear_8,263,1,48,21,728923952
116,6,20,Ticks_Linear_8,264,5,42,127,728956264
116,6,20,Ticks_Linear_8,265,1,48,19,729483564
116,6,20,Ticks_Linear_8,266,5,42,127,729516552
116,6,20,Ticks_Linear_8,267,1,48,20,730034336
116,6,20,Ticks_Linear_8,268,5,42,127,730075512
116,6,20,Ticks_Linear_8,269,1,48,29,730584608
116,6,20,Ticks_Linear_8,270,5,42,127,730626580
116,6,20,Ticks_Linear_8,271,5,42,127,731185452
116,6,20,Ticks_Linear_8,272,1,48,19,731197036
116,6,20,Ticks_Linear_8,273,1,48,20,731735544
116,6,20,Ticks_Linear_8,274,5,42,127,731737036
116,6,20,Ticks_Linear_8,275,1,48,22,732281624
116,6,20,Ticks_Linear_8,276,5,42,127,732295748
116,6,20,Ticks_Linear_8,277,1,48,29,732831500
116,6,20,Ticks_Linear_8,278,5,42,127,732845700
116,6,20,Ticks_Linear_8,279,1,48,20,733366632
116,6,20,Ticks_Linear_8,280,5,42,127,733386016
116,6,20,Ticks_Linear_8,281,5,42,127,733925784
116,6,20,Ticks_Linear_8,282,1,48,17,733934828
116,6,20,Ticks_Linear_8,283,1,48,26,734442056
116,6,20,Ticks_Linear_8,284,5,42,127,734466444
116,6,20,Ticks_Linear_8,285,1,48,28,734989840
116,6,20,Ticks_Linear_8,286,5,42,127,735016464
116,6,20,Ticks_Linear_8,287,1,48,22,735524968
116,6,20,Ticks_Linear_8,288,5,42,127,735556004
116,6,20,Ticks_Linear_8,289,5,42,127,736086492
116,6,20,Ticks_Linear_8,290,1,48,21,736087532
116,6,20,Ticks_Linear_8,291,1,48,23,736607268
116,6,20,Ticks_Linear_8,292,5,42,127,736615916
116,6,20,Ticks_Linear_8,293,1,48,28,737128460
116,6,20,Ticks_Linear_8,294,5,42,127,737146392
116,6,20,Ticks_Linear_8,295,5,42,127,737675608
116,6,20,Ticks_Linear_8,296,1,48,26,738202908
116,6,20,Ticks_Linear_8,297,5,42,127,738206176
116,6,20,Ticks_Linear_8,298,5,42,127,738726400
116,6,20,Ticks_Linear_8,299,1,48,21,738738508
116,6,20,Ticks_Linear_8,300,5,42,127,739245572
116,6,20,Ticks_Linear_8,301,1,48,35,739251236
116,6,20,Ticks_Linear_8,302,1,48,26,739748592
116,6,20,Ticks_Linear_8,303,5,42,127,739765708
116,6,20,Ticks_Linear_8,304,1,48,27,740257504
116,6,20,Ticks_Linear_8,305,5,42,127,740285728
116,6,20,Ticks_Linear_8,306,1,48,27,740778028
116,6,20,Ticks_Linear_8,307,5,42,127,740805876
116,6,20,Ticks_Linear_8,308,1,48,32,741307332
116,6,20,Ticks_Linear_8,309,5,42,127,741315836
116,6,20,Ticks_Linear_8,310,1,48,27,741821632
116,6,20,Ticks_Linear_8,311,5,42,127,741825868
116,6,20,Ticks_Linear_8,312,1,48,25,742317864
116,6,20,Ticks_Linear_8,313,5,42,127,742335976
116,6,20,Ticks_Linear_8,314,1,48,27,742843976
116,6,20,Ticks_Linear_8,315,5,42,127,742845784
116,6,20,Ticks_Linear_8,316,1,48,32,743354472
116,6,20,Ticks_Linear_8,317,5,42,127,743355968
116,6,20,Ticks_Linear_8,318,1,48,28,743851556
116,6,20,Ticks_Linear_8,319,5,42,127,743855348
116,6,20,Ticks_Linear_8,320,1,48,26,744342720
116,6,20,Ticks_Linear_8,321,5,42,127,744356392
116,6,20,Ticks_Linear_8,322,1,48,27,744832236
116,6,20,Ticks_Linear_8,323,5,42,127,744855796
116,6,20,Ticks_Linear_8,324,5,42,127,745355504
116,6,20,Ticks_Linear_8,325,1,48,36,745361160
116,6,20,Ticks_Linear_8,326,1,48,30,745842340
116,6,20,Ticks_Linear_8,327,5,42,127,745856320
116,6,20,Ticks_Linear_8,328,1,48,31,746345460
116,6,20,Ticks_Linear_8,329,5,42,127,746347104
116,6,20,Ticks_Linear_8,330,5,42,127,746836400
116,6,20,Ticks_Linear_8,331,1,48,28,746846788
116,6,20,Ticks_Linear_8,332,1,48,35,747315984
116,6,20,Ticks_Linear_8,333,5,42,127,747325760
116,6,20,Ticks_Linear_8,334,1,48,26,747794344
116,6,20,Ticks_Linear_8,335,5,42,127,747816396
116,6,20,Ticks_Linear_8,336,1,48,30,748290888
116,6,20,Ticks_Linear_8,337,5,42,127,748305688
116,6,20,Ticks_Linear_8,0,9999,9999,9999,637703248
116,6,20,Ticks_Linear_8,1,9999,9999,9999,638523492
116,6,20,Ticks_Linear_8,2,9999,9999,9999,639343676
116,6,20,Ticks_Linear_8,3,9999,9999,9999,640163916
116,6,20,Ticks_Linear_8,4,9999,9999,9999,640983144
116,6,20,Ticks_Linear_8,5,9999,9999,9999,641793120
116,6,20,Ticks_Linear_8,6,9999,9999,9999,642603104
116,6,20,Ticks_Linear_8,7,9999,9999,9999,643414136
116,6,20,Ticks_Linear_8,8,9999,9999,9999,644224116
116,6,20,Ticks_Linear_8,9,9999,9999,9999,645043320
116,6,20,Ticks_Linear_8,10,9999,9999,9999,645844036
116,6,20,Ticks_Linear_8,11,9999,9999,9999,646643840
116,6,20,Ticks_Linear_8,12,9999,9999,9999,647443556
116,6,20,Ticks_Linear_8,13,9999,9999,9999,648243280
116,6,20,Ticks_Linear_8,14,9999,9999,9999,649044052
116,6,20,Ticks_Linear_8,15,9999,9999,9999,649833600
116,6,20,Ticks_Linear_8,16,9999,9999,9999,650624104
116,6,20,Ticks_Linear_8,17,9999,9999,9999,651423828
116,6,20,Ticks_Linear_8,18,9999,9999,9999,652213364
116,6,20,Ticks_Linear_8,19,9999,9999,9999,653003832
116,6,20,Ticks_Linear_8,20,9999,9999,9999,653783116
116,6,20,Ticks_Linear_8,21,9999,9999,9999,654563436
116,6,20,Ticks_Linear_8,22,9999,9999,9999,655343688
116,6,20,Ticks_Linear_8,23,9999,9999,9999,656124016
116,6,20,Ticks_Linear_8,24,9999,9999,9999,656903296
116,6,20,Ticks_Linear_8,25,9999,9999,9999,657673288
116,6,20,Ticks_Linear_8,26,9999,9999,9999,658443356
116,6,20,Ticks_Linear_8,27,9999,9999,9999,659213424
116,6,20,Ticks_Linear_8,28,9999,9999,9999,659983420
116,6,20,Ticks_Linear_8,29,9999,9999,9999,660753484
116,6,20,Ticks_Linear_8,30,9999,9999,9999,661513300
116,6,20,Ticks_Linear_8,31,9999,9999,9999,662273112
116,6,20,Ticks_Linear_8,32,9999,9999,9999,663033964
116,6,20,Ticks_Linear_8,33,9999,9999,9999,663793772
116,6,20,Ticks_Linear_8,34,9999,9999,9999,664553580
116,6,20,Ticks_Linear_8,35,9999,9999,9999,665303136
116,6,20,Ticks_Linear_8,36,9999,9999,9999,666053724
116,6,20,Ticks_Linear_8,37,9999,9999,9999,666803324
116,6,20,Ticks_Linear_8,38,9999,9999,9999,667553844
116,6,20,Ticks_Linear_8,39,9999,9999,9999,668303472
116,6,20,Ticks_Linear_8,40,9999,9999,9999,669043808
116,6,20,Ticks_Linear_8,41,9999,9999,9999,669783100
116,6,20,Ticks_Linear_8,42,9999,9999,9999,670523508
116,6,20,Ticks_Linear_8,43,9999,9999,9999,671263852
116,6,20,Ticks_Linear_8,44,9999,9999,9999,672003144
116,6,20,Ticks_Linear_8,45,9999,9999,9999,672733296
116,6,20,Ticks_Linear_8,46,9999,9999,9999,673463416
116,6,20,Ticks_Linear_8,47,9999,9999,9999,674193496
116,6,20,Ticks_Linear_8,48,9999,9999,9999,674923576
116,6,20,Ticks_Linear_8,49,9999,9999,9999,675653728
116,6,20,Ticks_Linear_8,50,9999,9999,9999,676373620
116,6,20,Ticks_Linear_8,51,9999,9999,9999,677093440
116,6,20,Ticks_Linear_8,52,9999,9999,9999,677813308
116,6,20,Ticks_Linear_8,53,9999,9999,9999,678533208
116,6,20,Ticks_Linear_8,54,9999,9999,9999,679254072
116,6,20,Ticks_Linear_8,55,9999,9999,9999,679973972
116,6,20,Ticks_Linear_8,56,9999,9999,9999,680683596
116,6,20,Ticks_Linear_8,57,9999,9999,9999,681393208
116,6,20,Ticks_Linear_8,58,9999,9999,9999,682103888
116,6,20,Ticks_Linear_8,59,9999,9999,9999,682813524
116,6,20,Ticks_Linear_8,60,9999,9999,9999,683513952
116,6,20,Ticks_Linear_8,61,9999,9999,9999,684213368
116,6,20,Ticks_Linear_8,62,9999,9999,9999,684913720
116,6,20,Ticks_Linear_8,63,9999,9999,9999,685613168
116,6,20,Ticks_Linear_8,64,9999,9999,9999,686313592
116,6,20,Ticks_Linear_8,65,9999,9999,9999,687003732
116,6,20,Ticks_Linear_8,66,9999,9999,9999,687693892
116,6,20,Ticks_Linear_8,67,9999,9999,9999,688384056
116,6,20,Ticks_Linear_8,68,9999,9999,9999,689083504
116,6,20,Ticks_Linear_8,69,9999,9999,9999,689773644
116,6,20,Ticks_Linear_8,70,9999,9999,9999,690453624
116,6,20,Ticks_Linear_8,71,9999,9999,9999,691133532
116,6,20,Ticks_Linear_8,72,9999,9999,9999,691813480
116,6,20,Ticks_Linear_8,73,9999,9999,9999,692493384
116,6,20,Ticks_Linear_8,74,9999,9999,9999,693173340
116,6,20,Ticks_Linear_8,75,9999,9999,9999,693844088
116,6,20,Ticks_Linear_8,76,9999,9999,9999,694513724
116,6,20,Ticks_Linear_8,77,9999,9999,9999,695183420
116,6,20,Ticks_Linear_8,78,9999,9999,9999,695853140
116,6,20,Ticks_Linear_8,79,9999,9999,9999,696523832
116,6,20,Ticks_Linear_8,80,9999,9999,9999,697183344
116,6,20,Ticks_Linear_8,81,9999,9999,9999,697843784
116,6,20,Ticks_Linear_8,82,9999,9999,9999,698503284
116,6,20,Ticks_Linear_8,83,9999,9999,9999,699163716
116,6,20,Ticks_Linear_8,84,9999,9999,9999,699823160
116,6,20,Ticks_Linear_8,85,9999,9999,9999,700473408
116,6,20,Ticks_Linear_8,86,9999,9999,9999,701123656
116,6,20,Ticks_Linear_8,87,9999,9999,9999,701773948
116,6,20,Ticks_Linear_8,88,9999,9999,9999,702423156
116,6,20,Ticks_Linear_8,89,9999,9999,9999,703073372
116,6,20,Ticks_Linear_8,90,9999,9999,9999,703713360
116,6,20,Ticks_Linear_8,91,9999,9999,9999,704353404
116,6,20,Ticks_Linear_8,92,9999,9999,9999,704993388
116,6,20,Ticks_Linear_8,93,9999,9999,9999,705633352
116,6,20,Ticks_Linear_8,94,9999,9999,9999,706273348
116,6,20,Ticks_Linear_8,95,9999,9999,9999,706903132
116,6,20,Ticks_Linear_8,96,9999,9999,9999,707533904
116,6,20,Ticks_Linear_8,97,9999,9999,9999,708163684
116,6,20,Ticks_Linear_8,98,9999,9999,9999,708793408
116,6,20,Ticks_Linear_8,99,9999,9999,9999,709423188
116,6,20,Ticks_Linear_8,100,9999,9999,9999,710043752
116,6,20,Ticks_Linear_8,101,9999,9999,9999,710663228
116,6,20,Ticks_Linear_8,102,9999,9999,9999,711283796
116,6,20,Ticks_Linear_8,103,9999,9999,9999,711903336
116,6,20,Ticks_Linear_8,104,9999,9999,9999,712523832
116,6,20,Ticks_Linear_8,105,9999,9999,9999,713133168
116,6,20,Ticks_Linear_8,106,9999,9999,9999,713743424
116,6,20,Ticks_Linear_8,107,9999,9999,9999,714353736
116,6,20,Ticks_Linear_8,108,9999,9999,9999,714964068
116,6,20,Ticks_Linear_8,109,9999,9999,9999,715573328
116,6,20,Ticks_Linear_8,110,9999,9999,9999,716173384
116,6,20,Ticks_Linear_8,111,9999,9999,9999,716773456
116,6,20,Ticks_Linear_8,112,9999,9999,9999,717373504
116,6,20,Ticks_Linear_8,113,9999,9999,9999,717973624
116,6,20,Ticks_Linear_8,114,9999,9999,9999,718573632
116,6,20,Ticks_Linear_8,115,9999,9999,9999,719163492
116,6,20,Ticks_Linear_8,116,9999,9999,9999,719753284
116,6,20,Ticks_Linear_8,117,9999,9999,9999,720343096
116,6,20,Ticks_Linear_8,118,9999,9999,9999,720934012
116,6,20,Ticks_Linear_8,119,9999,9999,9999,721523804
116,6,20,Ticks_Linear_8,120,9999,9999,9999,722103404
116,6,20,Ticks_Linear_8,121,9999,9999,9999,722684004
116,6,20,Ticks_Linear_8,122,9999,9999,9999,723263540
116,6,20,Ticks_Linear_8,123,9999,9999,9999,723843140
116,6,20,Ticks_Linear_8,124,9999,9999,9999,724423748
116,6,20,Ticks_Linear_8,125,9999,9999,9999,724993100
116,6,20,Ticks_Linear_8,126,9999,9999,9999,725563484
116,6,20,Ticks_Linear_8,127,9999,9999,9999,726133876
116,6,20,Ticks_Linear_8,128,9999,9999,9999,726703228
116,6,20,Ticks_Linear_8,129,9999,9999,9999,727273572
116,6,20,Ticks_Linear_8,130,9999,9999,9999,727833700
116,6,20,Ticks_Linear_8,131,9999,9999,9999,728393832
116,6,20,Ticks_Linear_8,132,9999,9999,9999,728953964
116,6,20,Ticks_Linear_8,133,9999,9999,9999,729514100
116,6,20,Ticks_Linear_8,134,9999,9999,9999,730073212
116,6,20,Ticks_Linear_8,135,9999,9999,9999,730624056
116,6,20,Ticks_Linear_8,136,9999,9999,9999,731183224
116,6,20,Ticks_Linear_8,137,9999,9999,9999,731734072
116,6,20,Ticks_Linear_8,138,9999,9999,9999,732293228
116,6,20,Ticks_Linear_8,139,9999,9999,9999,732843104
116,6,20,Ticks_Linear_8,140,9999,9999,9999,733383792
116,6,20,Ticks_Linear_8,141,9999,9999,9999,733923412
116,6,20,Ticks_Linear_8,142,9999,9999,9999,734464068
116,6,20,Ticks_Linear_8,143,9999,9999,9999,735013944
116,6,20,Ticks_Linear_8,144,9999,9999,9999,735553632
116,6,20,Ticks_Linear_8,145,9999,9999,9999,736084040
116,6,20,Ticks_Linear_8,146,9999,9999,9999,736613468
116,6,20,Ticks_Linear_8,147,9999,9999,9999,737143872
116,6,20,Ticks_Linear_8,148,9999,9999,9999,737673308
116,6,20,Ticks_Linear_8,149,9999,9999,9999,738203728
116,6,20,Ticks_Linear_8,150,9999,9999,9999,738723952
116,6,20,Ticks_Linear_8,151,9999,9999,9999,739243124
116,6,20,Ticks_Linear_8,152,9999,9999,9999,739763260
116,6,20,Ticks_Linear_8,153,9999,9999,9999,740283504
116,6,20,Ticks_Linear_8,154,9999,9999,9999,740803648
116,6,20,Ticks_Linear_8,155,9999,9999,9999,741313612
116,6,20,Ticks_Linear_8,156,9999,9999,9999,741823568
116,6,20,Ticks_Linear_8,157,9999,9999,9999,742333528
116,6,20,Ticks_Linear_8,158,9999,9999,9999,742843512
116,6,20,Ticks_Linear_8,159,9999,9999,9999,743353452
116,6,20,Ticks_Linear_8,160,9999,9999,9999,743853124
116,6,20,Ticks_Linear_8,161,9999,9999,9999,744353868
116,6,20,Ticks_Linear_8,162,9999,9999,9999,744853572
116,6,20,Ticks_Linear_8,163,9999,9999,9999,745353276
116,6,20,Ticks_Linear_8,164,9999,9999,9999,745854016
116,6,20,Ticks_Linear_8,165,9999,9999,9999,746343540
116,6,20,Ticks_Linear_8,166,9999,9999,9999,746834028
116,6,20,Ticks_Linear_8,167,9999,9999,9999,747323464
116,6,20,Ticks_Linear_8,168,9999,9999,9999,747813948
116,6,20,Ticks_Linear_8,169,9999,9999,9999,748303464
116,7,10,Ticks_ISO_T2_5,0,5,42,127,758057320
116,7,10,Ticks_ISO_T2_5,1,5,42,127,758557260
116,7,10,Ticks_ISO_T2_5,2,1,48,27,758610568
116,7,10,Ticks_ISO_T2_5,3,1,48,25,759040088
116,7,10,Ticks_ISO_T2_5,4,5,42,127,759056800
116,7,10,Ticks_ISO_T2_5,5,1,48,27,759519208
116,7,10,Ticks_ISO_T2_5,6,5,42,127,759556572
116,7,10,Ticks_ISO_T2_5,7,1,48,29,760055580
116,7,10,Ticks_ISO_T2_5,8,5,42,127,760057312
116,7,10,Ticks_ISO_T2_5,9,5,42,127,760557088
116,7,10,Ticks_ISO_T2_5,10,1,48,32,760562828
116,7,10,Ticks_ISO_T2_5,11,1,48,29,761039684
116,7,10,Ticks_ISO_T2_5,12,5,42,127,761056480
116,7,10,Ticks_ISO_T2_5,13,1,48,25,761546040
116,7,10,Ticks_ISO_T2_5,14,5,42,127,761557368
116,7,10,Ticks_ISO_T2_5,15,1,48,30,762034112
116,7,10,Ticks_ISO_T2_5,16,5,42,127,762057064
116,7,10,Ticks_ISO_T2_5,17,1,48,31,762549744
116,7,10,Ticks_ISO_T2_5,18,5,42,127,762556660
116,7,10,Ticks_ISO_T2_5,19,1,48,33,763047616
116,7,10,Ticks_ISO_T2_5,20,5,42,127,763056480
116,7,10,Ticks_ISO_T2_5,21,1,48,31,763544620
116,7,10,Ticks_ISO_T2_5,22,5,42,127,763557148
116,7,10,Ticks_ISO_T2_5,23,1,48,33,764022396
116,7,10,Ticks_ISO_T2_5,24,5,42,127,764057064
116,7,10,Ticks_ISO_T2_5,25,1,48,30,764554876
116,7,10,Ticks_ISO_T2_5,26,5,42,127,764556612
116,7,10,Ticks_ISO_T2_5,27,1,48,31,765051780
116,7,10,Ticks_ISO_T2_5,28,5,42,127,765057356
116,7,10,Ticks_ISO_T2_5,29,1,48,32,765535624
116,7,10,Ticks_ISO_T2_5,30,5,42,127,765557052
116,7,10,Ticks_ISO_T2_5,31,5,42,127,766056904
116,7,10,Ticks_ISO_T2_5,32,1,48,30,766065328
116,7,10,Ticks_ISO_T2_5,33,5,42,127,766556448
116,7,10,Ticks_ISO_T2_5,34,1,48,33,766560612
116,7,10,Ticks_ISO_T2_5,35,5,42,127,767057188
116,7,10,Ticks_ISO_T2_5,36,1,48,37,767063968
116,7,10,Ticks_ISO_T2_5,37,1,48,24,767546364
116,7,10,Ticks_ISO_T2_5,38,5,42,127,767557096
116,7,10,Ticks_ISO_T2_5,39,1,48,29,768051972
116,7,10,Ticks_ISO_T2_5,40,5,42,127,768056868
116,7,10,Ticks_ISO_T2_5,41,1,48,33,768546652
116,7,10,Ticks_ISO_T2_5,42,5,42,127,768557460
116,7,10,Ticks_ISO_T2_5,43,5,42,127,769057088
116,7,10,Ticks_ISO_T2_5,44,1,48,33,769071576
116,7,10,Ticks_ISO_T2_5,45,5,42,127,769556932
116,7,10,Ticks_ISO_T2_5,46,1,48,34,769558492
116,7,10,Ticks_ISO_T2_5,47,1,48,31,770045664
116,7,10,Ticks_ISO_T2_5,48,5,42,127,770056548
116,7,10,Ticks_ISO_T2_5,49,1,48,34,770542440
116,7,10,Ticks_ISO_T2_5,50,5,42,127,770557360
116,7,10,Ticks_ISO_T2_5,51,1,48,37,771045348
116,7,10,Ticks_ISO_T2_5,52,5,42,127,771057132
116,7,10,Ticks_ISO_T2_5,53,5,42,127,771556684
116,7,10,Ticks_ISO_T2_5,54,1,48,31,771566084
116,7,10,Ticks_ISO_T2_5,55,1,48,30,772044296
116,7,10,Ticks_ISO_T2_5,56,5,42,127,772056372
116,7,10,Ticks_ISO_T2_5,57,5,42,127,772557120
116,7,10,Ticks_ISO_T2_5,58,1,48,30,772561284
116,7,10,Ticks_ISO_T2_5,59,1,48,29,773043132
116,7,10,Ticks_ISO_T2_5,60,5,42,127,773056880
116,7,10,Ticks_ISO_T2_5,61,5,42,127,773556484
116,7,10,Ticks_ISO_T2_5,62,1,48,34,773573388
116,7,10,Ticks_ISO_T2_5,63,1,48,32,774040500
116,7,10,Ticks_ISO_T2_5,64,5,42,127,774057220
116,7,10,Ticks_ISO_T2_5,65,1,48,35,774535412
116,7,10,Ticks_ISO_T2_5,66,5,42,127,774557136
116,7,10,Ticks_ISO_T2_5,67,1,48,27,775045428
116,7,10,Ticks_ISO_T2_5,68,5,42,127,775056832
116,7,10,Ticks_ISO_T2_5,69,1,48,30,775519468
116,7,10,Ticks_ISO_T2_5,70,5,42,127,775556452
116,7,10,Ticks_ISO_T2_5,71,1,48,24,776048184
116,7,10,Ticks_ISO_T2_5,72,5,42,127,776057268
116,7,10,Ticks_ISO_T2_5,73,1,48,24,776531868
116,7,10,Ticks_ISO_T2_5,74,5,42,127,776557036
116,7,10,Ticks_ISO_T2_5,75,5,42,127,777056588
116,7,10,Ticks_ISO_T2_5,76,1,48,28,777062920
116,7,10,Ticks_ISO_T2_5,77,1,48,26,777547564
116,7,10,Ticks_ISO_T2_5,78,5,42,127,777557324
116,7,10,Ticks_ISO_T2_5,79,1,48,32,778029608
116,7,10,Ticks_ISO_T2_5,80,5,42,127,778057020
116,7,10,Ticks_ISO_T2_5,81,1,48,25,778533864
116,7,10,Ticks_ISO_T2_5,82,5,42,127,778556940
116,7,10,Ticks_ISO_T2_5,83,1,48,34,779036784
116,7,10,Ticks_ISO_T2_5,84,5,42,127,779056488
116,7,10,Ticks_ISO_T2_5,85,1,48,31,779524656
116,7,10,Ticks_ISO_T2_5,86,5,42,127,779557228
116,7,10,Ticks_ISO_T2_5,87,1,48,29,780043872
116,7,10,Ticks_ISO_T2_5,88,5,42,127,780056848
116,7,10,Ticks_ISO_T2_5,89,1,48,28,780530400
116,7,10,Ticks_ISO_T2_5,90,5,42,127,780556764
116,7,10,Ticks_ISO_T2_5,91,1,48,27,781028824
116,7,10,Ticks_ISO_T2_5,92,5,42,127,781057356
116,7,10,Ticks_ISO_T2_5,93,1,48,31,781545272
116,7,10,Ticks_ISO_T2_5,94,5,42,127,781557200
116,7,10,Ticks_ISO_T2_5,95,5,42,127,782056828
116,7,10,Ticks_ISO_T2_5,96,1,48,34,782058616
116,7,10,Ticks_ISO_T2_5,97,1,48,20,782534864
116,7,10,Ticks_ISO_T2_5,98,5,42,127,782556516
116,7,10,Ticks_ISO_T2_5,99,5,42,127,783057116
116,7,10,Ticks_ISO_T2_5,100,1,48,27,783064940
116,7,10,Ticks_ISO_T2_5,101,1,48,23,783540132
116,7,10,Ticks_ISO_T2_5,102,5,42,127,783556876
116,7,10,Ticks_ISO_T2_5,103,5,42,127,784056652
116,7,10,Ticks_ISO_T2_5,104,1,48,38,784057616
116,7,10,Ticks_ISO_T2_5,105,1,48,25,784555244
116,7,10,Ticks_ISO_T2_5,106,5,42,127,784557360
116,7,10,Ticks_ISO_T2_5,107,1,48,27,785024036
116,7,10,Ticks_ISO_T2_5,108,5,42,127,785057056
116,7,10,Ticks_ISO_T2_5,109,1,48,22,785530832
116,7,10,Ticks_ISO_T2_5,110,5,42,127,785556824
116,7,10,Ticks_ISO_T2_5,111,1,48,31,786027836
116,7,10,Ticks_ISO_T2_5,112,5,42,127,786056816
116,7,10,Ticks_ISO_T2_5,113,1,48,22,786530896
116,7,10,Ticks_ISO_T2_5,114,5,42,127,786557332
116,7,10,Ticks_ISO_T2_5,115,1,48,21,787037476
116,7,10,Ticks_ISO_T2_5,116,5,42,127,787057104
116,7,10,Ticks_ISO_T2_5,117,1,48,24,787538140
116,7,10,Ticks_ISO_T2_5,118,5,42,127,787557024
116,7,10,Ticks_ISO_T2_5,119,1,48,32,788047260
116,7,10,Ticks_ISO_T2_5,120,5,42,127,788056344
116,7,10,Ticks_ISO_T2_5,121,1,48,17,788513592
116,7,10,Ticks_ISO_T2_5,122,5,42,127,788557160
116,7,10,Ticks_ISO_T2_5,123,5,42,127,789056788
116,7,10,Ticks_ISO_T2_5,124,1,48,24,789059832
116,7,10,Ticks_ISO_T2_5,125,1,48,28,789549708
116,7,10,Ticks_ISO_T2_5,126,5,42,127,789556924
116,7,10,Ticks_ISO_T2_5,127,1,48,35,790042972
116,7,10,Ticks_ISO_T2_5,128,5,42,127,790057292
116,7,10,Ticks_ISO_T2_5,129,5,42,127,790556996
116,7,10,Ticks_ISO_T2_5,130,1,48,19,790570880
116,7,10,Ticks_ISO_T2_5,131,1,48,24,791041540
116,7,10,Ticks_ISO_T2_5,132,5,42,127,791056832
116,7,10,Ticks_ISO_T2_5,133,1,48,25,791532556
116,7,10,Ticks_ISO_T2_5,134,5,42,127,791556824
116,7,10,Ticks_ISO_T2_5,135,5,42,127,792057128
116,7,10,Ticks_ISO_T2_5,136,1,48,44,792064580
116,7,10,Ticks_ISO_T2_5,137,1,48,25,792556292
116,7,10,Ticks_ISO_T2_5,138,5,42,127,792557864
116,7,10,Ticks_ISO_T2_5,139,5,42,127,793056816
116,7,10,Ticks_ISO_T2_5,140,1,48,21,793063600
116,7,10,Ticks_ISO_T2_5,141,1,48,24,793505208
116,7,10,Ticks_ISO_T2_5,142,5,42,127,793557252
116,7,10,Ticks_ISO_T2_5,143,5,42,127,794057176
116,7,10,Ticks_ISO_T2_5,144,1,48,28,794059768
116,7,10,Ticks_ISO_T2_5,145,1,48,22,794534964
116,7,10,Ticks_ISO_T2_5,146,5,42,127,794556864
116,7,10,Ticks_ISO_T2_5,147,1,48,28,795054108
116,7,10,Ticks_ISO_T2_5,148,5,42,127,795056684
116,7,10,Ticks_ISO_T2_5,149,1,48,30,795556752
116,7,10,Ticks_ISO_T2_5,150,5,42,127,795558320
116,7,10,Ticks_ISO_T2_5,151,5,42,127,796056828
116,7,10,Ticks_ISO_T2_5,152,1,48,32,796076024
116,7,10,Ticks_ISO_T2_5,153,1,48,27,796544440
116,7,10,Ticks_ISO_T2_5,154,5,42,127,796556816
116,7,10,Ticks_ISO_T2_5,155,1,48,30,797046152
116,7,10,Ticks_ISO_T2_5,156,5,42,127,797057556
116,7,10,Ticks_ISO_T2_5,157,1,48,26,797532908
116,7,10,Ticks_ISO_T2_5,158,5,42,127,797557028
116,7,10,Ticks_ISO_T2_5,159,1,48,24,798039708
116,7,10,Ticks_ISO_T2_5,160,5,42,127,798056872
116,7,10,Ticks_ISO_T2_5,161,1,48,25,798530128
116,7,10,Ticks_ISO_T2_5,162,5,42,127,798556716
116,7,10,Ticks_ISO_T2_5,163,5,42,127,799057244
116,7,10,Ticks_ISO_T2_5,164,1,48,29,799069784
116,7,10,Ticks_ISO_T2_5,165,1,48,26,799555264
116,7,10,Ticks_ISO_T2_5,166,5,42,127,799556928
116,7,10,Ticks_ISO_T2_5,167,1,48,29,800051208
116,7,10,Ticks_ISO_T2_5,168,5,42,127,800056624
116,7,10,Ticks_ISO_T2_5,169,1,48,27,800530856
116,7,10,Ticks_ISO_T2_5,170,5,42,127,800557516
116,7,10,Ticks_ISO_T2_5,171,1,48,30,801031816
116,7,10,Ticks_ISO_T2_5,172,5,42,127,801056988
116,7,10,Ticks_ISO_T2_5,173,1,48,29,801520516
116,7,10,Ticks_ISO_T2_5,174,5,42,127,801556904
116,7,10,Ticks_ISO_T2_5,175,1,48,26,802040628
116,7,10,Ticks_ISO_T2_5,176,5,42,127,802056524
116,7,10,Ticks_ISO_T2_5,177,1,48,23,802530828
116,7,10,Ticks_ISO_T2_5,178,5,42,127,802557192
116,7,10,Ticks_ISO_T2_5,179,5,42,127,803056892
116,7,10,Ticks_ISO_T2_5,180,1,48,27,803065768
116,7,10,Ticks_ISO_T2_5,181,1,48,31,803528796
116,7,10,Ticks_ISO_T2_5,182,5,42,127,803556656
116,7,10,Ticks_ISO_T2_5,183,5,42,127,804056432
116,7,10,Ticks_ISO_T2_5,184,1,48,25,804057396
116,7,10,Ticks_ISO_T2_5,185,1,48,29,804552796
116,7,10,Ticks_ISO_T2_5,186,5,42,127,804557016
116,7,10,Ticks_ISO_T2_5,187,1,48,23,805055732
116,7,10,Ticks_ISO_T2_5,188,5,42,127,805057304
116,7,10,Ticks_ISO_T2_5,189,1,48,20,805540040
116,7,10,Ticks_ISO_T2_5,190,5,42,127,805556628
116,7,10,Ticks_ISO_T2_5,191,1,48,25,806050056
116,7,10,Ticks_ISO_T2_5,192,5,42,127,806057496
116,7,10,Ticks_ISO_T2_5,193,1,48,29,806554088
116,7,10,Ticks_ISO_T2_5,194,5,42,127,806556968
116,7,10,Ticks_ISO_T2_5,195,1,48,24,807037404
116,7,10,Ticks_ISO_T2_5,196,5,42,127,807056736
116,7,10,Ticks_ISO_T2_5,197,1,48,20,807542628
116,7,10,Ticks_ISO_T2_5,198,5,42,127,807556580
116,7,10,Ticks_ISO_T2_5,199,1,48,26,808038516
116,7,10,Ticks_ISO_T2_5,200,5,42,127,808057396
116,7,10,Ticks_ISO_T2_5,201,1,48,30,808555592
116,7,10,Ticks_ISO_T2_5,202,5,42,127,808557088
116,7,10,Ticks_ISO_T2_5,203,1,48,25,809038648
116,7,10,Ticks_ISO_T2_5,204,5,42,127,809056488
116,7,10,Ticks_ISO_T2_5,205,1,48,20,809542756
116,7,10,Ticks_ISO_T2_5,206,5,42,127,809557452
116,7,10,Ticks_ISO_T2_5,207,1,48,28,810048884
116,7,10,Ticks_ISO_T2_5,208,5,42,127,810056924
116,7,10,Ticks_ISO_T2_5,209,1,48,30,810552912
116,7,10,Ticks_ISO_T2_5,210,5,42,127,810556764
116,7,10,Ticks_ISO_T2_5,211,5,42,127,811056392
116,7,10,Ticks_ISO_T2_5,212,1,48,26,811057360
116,7,10,Ticks_ISO_T2_5,213,1,48,27,811540860
116,7,10,Ticks_ISO_T2_5,214,5,42,127,811557424
116,7,10,Ticks_ISO_T2_5,215,1,48,29,812052296
116,7,10,Ticks_ISO_T2_5,216,5,42,127,812056896
116,7,10,Ticks_ISO_T2_5,217,1,48,27,812546756
116,7,10,Ticks_ISO_T2_5,218,5,42,127,812556664
116,7,10,Ticks_ISO_T2_5,219,1,48,26,812997604
116,7,10,Ticks_ISO_T2_5,220,5,42,127,813057556
116,7,10,Ticks_ISO_T2_5,221,5,42,127,813557108
116,7,10,Ticks_ISO_T2_5,222,1,48,28,813584760
116,7,10,Ticks_ISO_T2_5,223,5,42,127,814056728
116,7,10,Ticks_ISO_T2_5,224,1,48,32,814067780
116,7,10,Ticks_ISO_T2_5,225,1,48,34,814554300
116,7,10,Ticks_ISO_T2_5,226,5,42,127,814556416
116,7,10,Ticks_ISO_T2_5,227,1,48,23,815046728
116,7,10,Ticks_ISO_T2_5,228,5,42,127,815057456
116,7,10,Ticks_ISO_T2_5,229,1,48,20,815544776
116,7,10,Ticks_ISO_T2_5,230,5,42,127,815556928
116,7,10,Ticks_ISO_T2_5,231,1,48,32,816026796
116,7,10,Ticks_ISO_T2_5,232,5,42,127,816056696
116,7,10,Ticks_ISO_T2_5,233,5,42,127,816557496
116,7,10,Ticks_ISO_T2_5,234,1,48,27,816573052
116,7,10,Ticks_ISO_T2_5,235,1,48,31,817039196
116,7,10,Ticks_ISO_T2_5,236,5,42,127,817057404
116,7,10,Ticks_ISO_T2_5,237,1,48,29,817552804
116,7,10,Ticks_ISO_T2_5,238,5,42,127,817556876
116,7,10,Ticks_ISO_T2_5,239,1,48,35,818047336
116,7,10,Ticks_ISO_T2_5,240,5,42,127,818056424
116,7,10,Ticks_ISO_T2_5,241,1,48,32,818549496
116,7,10,Ticks_ISO_T2_5,242,5,42,127,818557536
116,7,10,Ticks_ISO_T2_5,243,1,48,32,819025852
116,7,10,Ticks_ISO_T2_5,244,5,42,127,819057008
116,7,10,Ticks_ISO_T2_5,245,5,42,127,819556708
116,7,10,Ticks_ISO_T2_5,246,1,48,30,819574336
116,7,10,Ticks_ISO_T2_5,247,1,48,34,820048732
116,7,10,Ticks_ISO_T2_5,248,5,42,127,820056400
116,7,10,Ticks_ISO_T2_5,249,5,42,127,820557372
116,7,10,Ticks_ISO_T2_5,250,1,48,31,820570060
116,7,10,Ticks_ISO_T2_5,251,1,48,33,821037652
116,7,10,Ticks_ISO_T2_5,252,5,42,127,821056908
116,7,10,Ticks_ISO_T2_5,253,1,48,29,821545352
116,7,10,Ticks_ISO_T2_5,254,5,42,127,821556604
116,7,10,Ticks_ISO_T2_5,255,1,48,25,822013108
116,7,10,Ticks_ISO_T2_5,256,5,42,127,822057424
116,7,10,Ticks_ISO_T2_5,257,5,42,127,822557272
116,7,10,Ticks_ISO_T2_5,258,1,48,31,822584924
116,7,10,Ticks_ISO_T2_5,259,1,48,33,823039052
116,7,10,Ticks_ISO_T2_5,0,9999,9999,9999,758055032
116,7,10,Ticks_ISO_T2_5,1,9999,9999,9999,758554672
116,7,10,Ticks_ISO_T2_5,2,9999,9999,9999,759054436
116,7,10,Ticks_ISO_T2_5,3,9999,9999,9999,759554132
116,7,10,Ticks_ISO_T2_5,4,9999,9999,9999,760054888
116,7,10,Ticks_ISO_T2_5,5,9999,9999,9999,760554576
116,7,10,Ticks_ISO_T2_5,6,9999,9999,9999,761054264
116,7,10,Ticks_ISO_T2_5,7,9999,9999,9999,761555008
116,7,10,Ticks_ISO_T2_5,8,9999,9999,9999,762054776
116,7,10,Ticks_ISO_T2_5,9,9999,9999,9999,762554444
116,7,10,Ticks_ISO_T2_5,10,9999,9999,9999,763054192
116,7,10,Ticks_ISO_T2_5,11,9999,9999,9999,763554932
116,7,10,Ticks_ISO_T2_5,12,9999,9999,9999,764054628
116,7,10,Ticks_ISO_T2_5,13,9999,9999,9999,764554348
116,7,10,Ticks_ISO_T2_5,14,9999,9999,9999,765055064
116,7,10,Ticks_ISO_T2_5,15,9999,9999,9999,765554760
116,7,10,Ticks_ISO_T2_5,16,9999,9999,9999,766054464
116,7,10,Ticks_ISO_T2_5,17,9999,9999,9999,766554232
116,7,10,Ticks_ISO_T2_5,18,9999,9999,9999,767054900
116,7,10,Ticks_ISO_T2_5,19,9999,9999,9999,767554660
116,7,10,Ticks_ISO_T2_5,20,9999,9999,9999,768054356
116,7,10,Ticks_ISO_T2_5,21,9999,9999,9999,768555100
116,7,10,Ticks_ISO_T2_5,22,9999,9999,9999,769054800
116,7,10,Ticks_ISO_T2_5,23,9999,9999,9999,769554496
116,7,10,Ticks_ISO_T2_5,24,9999,9999,9999,770054260
116,7,10,Ticks_ISO_T2_5,25,9999,9999,9999,770555000
116,7,10,Ticks_ISO_T2_5,26,9999,9999,9999,771054692
116,7,10,Ticks_ISO_T2_5,27,9999,9999,9999,771554396
116,7,10,Ticks_ISO_T2_5,28,9999,9999,9999,772054084
116,7,10,Ticks_ISO_T2_5,29,9999,9999,9999,772554832
116,7,10,Ticks_ISO_T2_5,30,9999,9999,9999,773054520
116,7,10,Ticks_ISO_T2_5,31,9999,9999,9999,773554268
116,7,10,Ticks_ISO_T2_5,32,9999,9999,9999,774055004
116,7,10,Ticks_ISO_T2_5,33,9999,9999,9999,774554700
116,7,10,Ticks_ISO_T2_5,34,9999,9999,9999,775054396
116,7,10,Ticks_ISO_T2_5,35,9999,9999,9999,775554164
116,7,10,Ticks_ISO_T2_5,36,9999,9999,9999,776054904
116,7,10,Ticks_ISO_T2_5,37,9999,9999,9999,776554600
116,7,10,Ticks_ISO_T2_5,38,9999,9999,9999,777054300
116,7,10,Ticks_ISO_T2_5,39,9999,9999,9999,777555036
116,7,10,Ticks_ISO_T2_5,40,9999,9999,9999,778054732
116,7,10,Ticks_ISO_T2_5,41,9999,9999,9999,778554428
116,7,10,Ticks_ISO_T2_5,42,9999,9999,9999,779054196
116,7,10,Ticks_ISO_T2_5,43,9999,9999,9999,779554864
116,7,10,Ticks_ISO_T2_5,44,9999,9999,9999,780054632
116,7,10,Ticks_ISO_T2_5,45,9999,9999,9999,780554328
116,7,10,Ticks_ISO_T2_5,46,9999,9999,9999,781055068
116,7,10,Ticks_ISO_T2_5,47,9999,9999,9999,781554764
116,7,10,Ticks_ISO_T2_5,48,9999,9999,9999,782054464
116,7,10,Ticks_ISO_T2_5,49,9999,9999,9999,782554224
116,7,10,Ticks_ISO_T2_5,50,9999,9999,9999,783054900
116,7,10,Ticks_ISO_T2_5,51,9999,9999,9999,783554660
116,7,10,Ticks_ISO_T2_5,52,9999,9999,9999,784054364
116,7,10,Ticks_ISO_T2_5,53,9999,9999,9999,784555112
116,7,10,Ticks_ISO_T2_5,54,9999,9999,9999,785054840
116,7,10,Ticks_ISO_T2_5,55,9999,9999,9999,785554536
116,7,10,Ticks_ISO_T2_5,56,9999,9999,9999,786054228
116,7,10,Ticks_ISO_T2_5,57,9999,9999,9999,786554972
116,7,10,Ticks_ISO_T2_5,58,9999,9999,9999,787054664
116,7,10,Ticks_ISO_T2_5,59,9999,9999,9999,787554360
116,7,10,Ticks_ISO_T2_5,60,9999,9999,9999,788054132
116,7,10,Ticks_ISO_T2_5,61,9999,9999,9999,788554872
116,7,10,Ticks_ISO_T2_5,62,9999,9999,9999,789054572
116,7,10,Ticks_ISO_T2_5,63,9999,9999,9999,789554264
116,7,10,Ticks_ISO_T2_5,64,9999,9999,9999,790055004
116,7,10,Ticks_ISO_T2_5,65,9999,9999,9999,790554704
116,7,10,Ticks_ISO_T2_5,66,9999,9999,9999,791054396
116,7,10,Ticks_ISO_T2_5,67,9999,9999,9999,791554164
116,7,10,Ticks_ISO_T2_5,68,9999,9999,9999,792054840
116,7,10,Ticks_ISO_T2_5,69,9999,9999,9999,792554608
116,7,10,Ticks_ISO_T2_5,70,9999,9999,9999,793054300
116,7,10,Ticks_ISO_T2_5,71,9999,9999,9999,793555036
116,7,10,Ticks_ISO_T2_5,72,9999,9999,9999,794054740
116,7,10,Ticks_ISO_T2_5,73,9999,9999,9999,794554424
116,7,10,Ticks_ISO_T2_5,74,9999,9999,9999,795054172
116,7,10,Ticks_ISO_T2_5,75,9999,9999,9999,795554920
116,7,10,Ticks_ISO_T2_5,76,9999,9999,9999,796054616
116,7,10,Ticks_ISO_T2_5,77,9999,9999,9999,796554304
116,7,10,Ticks_ISO_T2_5,78,9999,9999,9999,797055044
116,7,10,Ticks_ISO_T2_5,79,9999,9999,9999,797554740
116,7,10,Ticks_ISO_T2_5,80,9999,9999,9999,798054512
116,7,10,Ticks_ISO_T2_5,81,9999,9999,9999,798554204
116,7,10,Ticks_ISO_T2_5,82,9999,9999,9999,799054952
116,7,10,Ticks_ISO_T2_5,83,9999,9999,9999,799554664
116,7,10,Ticks_ISO_T2_5,84,9999,9999,9999,800054336
116,7,10,Ticks_ISO_T2_5,85,9999,9999,9999,800555080
116,7,10,Ticks_ISO_T2_5,86,9999,9999,9999,801054772
116,7,10,Ticks_ISO_T2_5,87,9999,9999,9999,801554540
116,7,10,Ticks_ISO_T2_5,88,9999,9999,9999,802054236
116,7,10,Ticks_ISO_T2_5,89,9999,9999,9999,802554976
116,7,10,Ticks_ISO_T2_5,90,9999,9999,9999,803054680
116,7,10,Ticks_ISO_T2_5,91,9999,9999,9999,803554368
116,7,10,Ticks_ISO_T2_5,92,9999,9999,9999,804054068
116,7,10,Ticks_ISO_T2_5,93,9999,9999,9999,804554804
116,7,10,Ticks_ISO_T2_5,94,9999,9999,9999,805054576
116,7,10,Ticks_ISO_T2_5,95,9999,9999,9999,805554240
116,7,10,Ticks_ISO_T2_5,96,9999,9999,9999,806054984
116,7,10,Ticks_ISO_T2_5,97,9999,9999,9999,806554680
116,7,10,Ticks_ISO_T2_5,98,9999,9999,9999,807054448
116,7,10,Ticks_ISO_T2_5,99,9999,9999,9999,807554140
116,7,10,Ticks_ISO_T2_5,100,9999,9999,9999,808054884
116,7,10,Ticks_ISO_T2_5,101,9999,9999,9999,808554584
116,7,10,Ticks_ISO_T2_5,102,9999,9999,9999,809054272
116,7,10,Ticks_ISO_T2_5,103,9999,9999,9999,809555012
116,7,10,Ticks_ISO_T2_5,104,9999,9999,9999,810054708
116,7,10,Ticks_ISO_T2_5,105,9999,9999,9999,810554476
116,7,10,Ticks_ISO_T2_5,106,9999,9999,9999,811054180
116,7,10,Ticks_ISO_T2_5,107,9999,9999,9999,811554912
116,7,10,Ticks_ISO_T2_5,108,9999,9999,9999,812054608
116,7,10,Ticks_ISO_T2_5,109,9999,9999,9999,812554304
116,7,10,Ticks_ISO_T2_5,110,9999,9999,9999,813055044
116,7,10,Ticks_ISO_T2_5,111,9999,9999,9999,813554744
116,7,10,Ticks_ISO_T2_5,112,9999,9999,9999,814054516
116,7,10,Ticks_ISO_T2_5,113,9999,9999,9999,814554172
116,7,10,Ticks_ISO_T2_5,114,9999,9999,9999,815054944
116,7,10,Ticks_ISO_T2_5,115,9999,9999,9999,815554640
116,7,10,Ticks_ISO_T2_5,116,9999,9999,9999,816054332
116,7,10,Ticks_ISO_T2_5,117,9999,9999,9999,816555056
116,7,10,Ticks_ISO_T2_5,118,9999,9999,9999,817054820
116,7,10,Ticks_ISO_T2_5,119,9999,9999,9999,817554516
116,7,10,Ticks_ISO_T2_5,120,9999,9999,9999,818054208
116,7,10,Ticks_ISO_T2_5,121,9999,9999,9999,818554948
116,7,10,Ticks_ISO_T2_5,122,9999,9999,9999,819054644
116,7,10,Ticks_ISO_T2_5,123,9999,9999,9999,819554420
116,7,10,Ticks_ISO_T2_5,124,9999,9999,9999,820054108
116,7,10,Ticks_ISO_T2_5,125,9999,9999,9999,820554860
116,7,10,Ticks_ISO_T2_5,126,9999,9999,9999,821054544
116,7,10,Ticks_ISO_T2_5,127,9999,9999,9999,821554244
116,7,10,Ticks_ISO_T2_5,128,9999,9999,9999,822054984
116,7,10,Ticks_ISO_T2_5,129,9999,9999,9999,822554684
116,8,9,Ticks_ISO_T2_8,0,5,42,127,833448192
116,8,9,Ticks_ISO_T2_8,1,5,42,127,834248048
116,8,9,Ticks_ISO_T2_8,2,5,42,127,835047728
116,8,9,Ticks_ISO_T2_8,3,1,48,29,835071116
116,8,9,Ticks_ISO_T2_8,4,1,48,25,835772472
116,8,9,Ticks_ISO_T2_8,5,5,42,127,835847456
116,8,9,Ticks_ISO_T2_8,6,1,48,24,836590156
116,8,9,Ticks_ISO_T2_8,7,5,42,127,836648384
116,8,9,Ticks_ISO_T2_8,8,1,48,22,837433648
116,8,9,Ticks_ISO_T2_8,9,5,42,127,837447968
116,8,9,Ticks_ISO_T2_8,10,1,48,35,838235920
116,8,9,Ticks_ISO_T2_8,11,5,42,127,838248072
116,8,9,Ticks_ISO_T2_8,12,5,42,127,839047588
116,8,9,Ticks_ISO_T2_8,13,1,48,37,839048556
116,8,9,Ticks_ISO_T2_8,14,5,42,127,839848368
116,8,9,Ticks_ISO_T2_8,15,1,48,32,839877096
116,8,9,Ticks_ISO_T2_8,16,5,42,127,840647980
116,8,9,Ticks_ISO_T2_8,17,1,48,31,840685504
116,8,9,Ticks_ISO_T2_8,18,5,42,127,841447712
116,8,9,Ticks_ISO_T2_8,19,1,48,27,841479480
116,8,9,Ticks_ISO_T2_8,20,1,48,21,842226608
116,8,9,Ticks_ISO_T2_8,21,5,42,127,842247440
116,8,9,Ticks_ISO_T2_8,22,1,48,26,843028812
116,8,9,Ticks_ISO_T2_8,23,5,42,127,843048292
116,8,9,Ticks_ISO_T2_8,24,5,42,127,843847960
116,8,9,Ticks_ISO_T2_8,25,1,48,30,843851524
116,8,9,Ticks_ISO_T2_8,26,1,48,28,844631716
116,8,9,Ticks_ISO_T2_8,27,5,42,127,844647908
116,8,9,Ticks_ISO_T2_8,28,5,42,127,845447500
116,8,9,Ticks_ISO_T2_8,29,1,48,30,845450544
116,8,9,Ticks_ISO_T2_8,30,1,48,24,846223928
116,8,9,Ticks_ISO_T2_8,31,5,42,127,846248272
116,8,9,Ticks_ISO_T2_8,32,1,48,29,847047660
116,8,9,Ticks_ISO_T2_8,33,5,42,127,847049004
116,8,9,Ticks_ISO_T2_8,34,1,48,28,847846180
116,8,9,Ticks_ISO_T2_8,35,5,42,127,847847764
116,8,9,Ticks_ISO_T2_8,36,5,42,127,848647504
116,8,9,Ticks_ISO_T2_8,37,1,48,25,848652716
116,8,9,Ticks_ISO_T2_8,38,1,48,35,849430892
116,8,9,Ticks_ISO_T2_8,39,5,42,127,849448352
116,8,9,Ticks_ISO_T2_8,40,1,48,29,850236008
116,8,9,Ticks_ISO_T2_8,41,5,42,127,850248012
116,8,9,Ticks_ISO_T2_8,42,1,48,30,851019212
116,8,9,Ticks_ISO_T2_8,43,5,42,127,851047744
116,8,9,Ticks_ISO_T2_8,44,5,42,127,851847560
116,8,9,Ticks_ISO_T2_8,45,1,48,30,851858084
116,8,9,Ticks_ISO_T2_8,46,5,42,127,852648192
116,8,9,Ticks_ISO_T2_8,47,1,48,27,852665240
116,8,9,Ticks_ISO_T2_8,48,5,42,127,853448024
116,8,9,Ticks_ISO_T2_8,49,1,48,29,853453836
116,8,9,Ticks_ISO_T2_8,50,1,48,28,854228420
116,8,9,Ticks_ISO_T2_8,51,5,42,127,854247900
116,8,9,Ticks_ISO_T2_8,52,1,48,33,855029948
116,8,9,Ticks_ISO_T2_8,53,5,42,127,855047632
116,8,9,Ticks_ISO_T2_8,54,1,48,25,855842764
116,8,9,Ticks_ISO_T2_8,55,5,42,127,855848264
116,8,9,Ticks_ISO_T2_8,56,5,42,127,856648152
116,8,9,Ticks_ISO_T2_8,57,1,48,34,856659944
116,8,9,Ticks_ISO_T2_8,58,5,42,127,857447960
116,8,9,Ticks_ISO_T2_8,59,1,48,27,857451900
116,8,9,Ticks_ISO_T2_8,60,1,48,20,858233216
116,8,9,Ticks_ISO_T2_8,61,5,42,127,858247684
116,8,9,Ticks_ISO_T2_8,62,1,48,32,859024500
116,8,9,Ticks_ISO_T2_8,63,5,42,127,859048168
116,8,9,Ticks_ISO_T2_8,64,5,42,127,859848084
116,8,9,Ticks_ISO_T2_8,65,1,48,30,859863468
116,8,9,Ticks_ISO_T2_8,66,5,42,127,860647892
116,8,9,Ticks_ISO_T2_8,67,1,48,28,860650564
116,8,9,Ticks_ISO_T2_8,68,1,48,27,861418116
116,8,9,Ticks_ISO_T2_8,69,5,42,127,861447620
116,8,9,Ticks_ISO_T2_8,70,1,48,27,862209620
116,8,9,Ticks_ISO_T2_8,71,5,42,127,862248176
116,8,9,Ticks_ISO_T2_8,72,5,42,127,863048064
116,8,9,Ticks_ISO_T2_8,73,1,48,24,863053348
116,8,9,Ticks_ISO_T2_8,74,1,48,28,863845904
116,8,9,Ticks_ISO_T2_8,75,5,42,127,863847716
116,8,9,Ticks_ISO_T2_8,76,1,48,30,864631556
116,8,9,Ticks_ISO_T2_8,77,5,42,127,864647820
116,8,9,Ticks_ISO_T2_8,78,1,48,30,865431740
116,8,9,Ticks_ISO_T2_8,79,5,42,127,865448304
116,8,9,Ticks_ISO_T2_8,80,1,48,26,866239876
116,8,9,Ticks_ISO_T2_8,81,5,42,127,866247912
116,8,9,Ticks_ISO_T2_8,82,5,42,127,867047800
116,8,9,Ticks_ISO_T2_8,83,1,48,31,867055784
116,8,9,Ticks_ISO_T2_8,84,1,48,27,867834180
116,8,9,Ticks_ISO_T2_8,85,5,42,127,867847752
116,8,9,Ticks_ISO_T2_8,86,1,48,24,868627856
116,8,9,Ticks_ISO_T2_8,87,5,42,127,868648236
116,8,9,Ticks_ISO_T2_8,88,1,48,31,869433348
116,8,9,Ticks_ISO_T2_8,89,5,42,127,869448044
116,8,9,Ticks_ISO_T2_8,90,5,42,127,870247708
116,8,9,Ticks_ISO_T2_8,91,1,48,28,870251348
116,8,9,Ticks_ISO_T2_8,92,5,42,127,871047740
116,8,9,Ticks_ISO_T2_8,93,1,48,29,871063052
116,8,9,Ticks_ISO_T2_8,94,5,42,127,871848296
116,8,9,Ticks_ISO_T2_8,95,1,48,29,871865724
116,8,9,Ticks_ISO_T2_8,96,5,42,127,872647980
116,8,9,Ticks_ISO_T2_8,97,1,48,33,872654464
116,8,9,Ticks_ISO_T2_8,98,1,48,27,873429124
116,8,9,Ticks_ISO_T2_8,99,5,42,127,873447856
116,8,9,Ticks_ISO_T2_8,100,1,48,32,874230720
116,8,9,Ticks_ISO_T2_8,101,5,42,127,874247512
116,8,9,Ticks_ISO_T2_8,102,1,48,25,875033372
116,8,9,Ticks_ISO_T2_8,103,5,42,127,875048440
116,8,9,Ticks_ISO_T2_8,104,1,48,26,875827944
116,8,9,Ticks_ISO_T2_8,105,5,42,127,875848024
116,8,9,Ticks_ISO_T2_8,106,5,42,127,876647764
116,8,9,Ticks_ISO_T2_8,107,1,48,25,876653580
116,8,9,Ticks_ISO_T2_8,108,5,42,127,877447500
116,8,9,Ticks_ISO_T2_8,109,1,48,27,877462504
116,8,9,Ticks_ISO_T2_8,110,1,48,29,878230360
116,8,9,Ticks_ISO_T2_8,111,5,42,127,878248716
116,8,9,Ticks_ISO_T2_8,112,1,48,32,879024808
116,8,9,Ticks_ISO_T2_8,113,5,42,127,879048180
116,8,9,Ticks_ISO_T2_8,114,1,48,27,879806064
116,8,9,Ticks_ISO_T2_8,115,5,42,127,879847764
116,8,9,Ticks_ISO_T2_8,116,1,48,30,880641552
116,8,9,Ticks_ISO_T2_8,117,5,42,127,880647496
116,8,9,Ticks_ISO_T2_8,118,1,48,30,881440312
116,8,9,Ticks_ISO_T2_8,119,5,42,127,881448724
116,8,9,Ticks_ISO_T2_8,120,1,48,31,882226212
116,8,9,Ticks_ISO_T2_8,121,5,42,127,882248088
116,8,9,Ticks_ISO_T2_8,122,1,48,28,882995800
116,8,9,Ticks_ISO_T2_8,123,5,42,127,883047672
116,8,9,Ticks_ISO_T2_8,124,5,42,127,883847488
116,8,9,Ticks_ISO_T2_8,125,1,48,30,883860176
116,8,9,Ticks_ISO_T2_8,126,5,42,127,884648564
116,8,9,Ticks_ISO_T2_8,127,1,48,28,884674372
116,8,9,Ticks_ISO_T2_8,128,1,48,28,885440500
116,8,9,Ticks_ISO_T2_8,129,5,42,127,885448092
116,8,9,Ticks_ISO_T2_8,130,1,48,23,886226548
116,8,9,Ticks_ISO_T2_8,131,5,42,127,886247828
116,8,9,Ticks_ISO_T2_8,132,1,48,29,887041912
116,8,9,Ticks_ISO_T2_8,133,5,42,127,887047560
116,8,9,Ticks_ISO_T2_8,134,1,48,24,887817936
116,8,9,Ticks_ISO_T2_8,135,5,42,127,887848564
116,8,9,Ticks_ISO_T2_8,136,5,42,127,888647932
116,8,9,Ticks_ISO_T2_8,137,1,48,28,888661668
116,8,9,Ticks_ISO_T2_8,138,5,42,127,889447664
116,8,9,Ticks_ISO_T2_8,139,1,48,29,889452348
116,8,9,Ticks_ISO_T2_8,140,1,48,27,890216916
116,8,9,Ticks_ISO_T2_8,141,5,42,127,890247540
116,8,9,Ticks_ISO_T2_8,142,1,48,29,891048772
116,8,9,Ticks_ISO_T2_8,143,5,42,127,891049960
116,8,9,Ticks_ISO_T2_8,144,1,48,13,891830164
116,8,9,Ticks_ISO_T2_8,145,5,42,127,891848004
116,8,9,Ticks_ISO_T2_8,146,1,48,21,892647144
116,8,9,Ticks_ISO_T2_8,147,5,42,127,892648708
116,8,9,Ticks_ISO_T2_8,148,1,48,21,893422448
116,8,9,Ticks_ISO_T2_8,149,5,42,127,893447544
116,8,9,Ticks_ISO_T2_8,150,1,48,21,894239916
116,8,9,Ticks_ISO_T2_8,151,5,42,127,894248324
116,8,9,Ticks_ISO_T2_8,152,1,48,24,895030524
116,8,9,Ticks_ISO_T2_8,153,5,42,127,895048060
116,8,9,Ticks_ISO_T2_8,154,5,42,127,895847872
116,8,9,Ticks_ISO_T2_8,155,1,48,25,895855708
116,8,9,Ticks_ISO_T2_8,156,1,48,25,896635976
116,8,9,Ticks_ISO_T2_8,157,5,42,127,896647452
116,8,9,Ticks_ISO_T2_8,158,5,42,127,897448312
116,8,9,Ticks_ISO_T2_8,159,1,48,23,897452552
116,8,9,Ticks_ISO_T2_8,160,1,48,27,898247020
116,8,9,Ticks_ISO_T2_8,161,5,42,127,898248436
116,8,9,Ticks_ISO_T2_8,162,1,48,24,899041704
116,8,9,Ticks_ISO_T2_8,163,5,42,127,899047796
116,8,9,Ticks_ISO_T2_8,164,1,48,29,899828720
116,8,9,Ticks_ISO_T2_8,165,5,42,127,899847604
116,8,9,Ticks_ISO_T2_8,166,5,42,127,900648320
116,8,9,Ticks_ISO_T2_8,167,1,48,29,900655328
116,8,9,Ticks_ISO_T2_8,168,1,48,21,901443752
116,8,9,Ticks_ISO_T2_8,169,5,42,127,901448120
116,8,9,Ticks_ISO_T2_8,170,1,48,21,902215060
116,8,9,Ticks_ISO_T2_8,171,5,42,127,902247708
116,8,9,Ticks_ISO_T2_8,172,5,42,127,903047592
116,8,9,Ticks_ISO_T2_8,173,1,48,25,903059164
116,8,9,Ticks_ISO_T2_8,174,1,48,24,903816472
116,8,9,Ticks_ISO_T2_8,175,5,42,127,903848292
116,8,9,Ticks_ISO_T2_8,176,1,48,24,904634328
116,8,9,Ticks_ISO_T2_8,177,5,42,127,904647976
116,8,9,Ticks_ISO_T2_8,178,1,48,26,905423364
116,8,9,Ticks_ISO_T2_8,179,5,42,127,905447936
116,8,9,Ticks_ISO_T2_8,180,1,48,28,906219736
116,8,9,Ticks_ISO_T2_8,181,5,42,127,906247520
116,8,9,Ticks_ISO_T2_8,182,5,42,127,907048304
116,8,9,Ticks_ISO_T2_8,183,1,48,26,907821016
116,8,9,Ticks_ISO_T2_8,184,5,42,127,907848128
116,8,9,Ticks_ISO_T2_8,185,5,42,127,908647796
116,8,9,Ticks_ISO_T2_8,186,1,48,30,908661984
116,8,9,Ticks_ISO_T2_8,187,1,48,32,909432376
116,8,9,Ticks_ISO_T2_8,188,5,42,127,909447444
116,8,9,Ticks_ISO_T2_8,189,1,48,32,910207948
116,8,9,Ticks_ISO_T2_8,190,5,42,127,910248228
116,8,9,Ticks_ISO_T2_8,191,1,48,18,911036732
116,8,9,Ticks_ISO_T2_8,192,5,42,127,911048132
116,8,9,Ticks_ISO_T2_8,193,1,48,27,911834372
116,8,9,Ticks_ISO_T2_8,194,5,42,127,911847868
116,8,9,Ticks_ISO_T2_8,195,1,48,28,912640980
116,8,9,Ticks_ISO_T2_8,196,5,42,127,912647452
116,8,9,Ticks_ISO_T2_8,197,1,48,33,913420220
116,8,9,Ticks_ISO_T2_8,198,5,42,127,913448156
116,8,9,Ticks_ISO_T2_8,199,5,42,127,914248196
116,8,9,Ticks_ISO_T2_8,200,1,48,27,914265748
116,8,9,Ticks_ISO_T2_8,201,5,42,127,915047928
116,8,9,Ticks_ISO_T2_8,202,1,48,28,915075284
116,8,9,Ticks_ISO_T2_8,203,1,48,36,915846072
116,8,9,Ticks_ISO_T2_8,204,5,42,127,915847508
116,8,9,Ticks_ISO_T2_8,205,1,48,27,916612796
116,8,9,Ticks_ISO_T2_8,206,5,42,127,916648212
116,8,9,Ticks_ISO_T2_8,207,1,48,31,917428036
116,8,9,Ticks_ISO_T2_8,208,5,42,127,917448116
116,8,9,Ticks_ISO_T2_8,209,1,48,32,918230984
116,8,9,Ticks_ISO_T2_8,210,5,42,127,918248000
116,8,9,Ticks_ISO_T2_8,211,1,48,16,919039992
116,8,9,Ticks_ISO_T2_8,212,5,42,127,919047508
116,8,9,Ticks_ISO_T2_8,213,5,42,127,919848224
116,8,9,Ticks_ISO_T2_8,214,1,48,27,919856124
116,8,9,Ticks_ISO_T2_8,215,1,48,32,920638868
116,8,9,Ticks_ISO_T2_8,216,5,42,127,920648024
116,8,9,Ticks_ISO_T2_8,217,5,42,127,921448064
116,8,9,Ticks_ISO_T2_8,218,1,48,22,921450808
116,8,9,Ticks_ISO_T2_8,219,1,48,20,922247796
116,8,9,Ticks_ISO_T2_8,220,5,42,127,922249060
116,8,9,Ticks_ISO_T2_8,221,5,42,127,923048352
116,8,9,Ticks_ISO_T2_8,222,1,48,31,923058900
116,8,9,Ticks_ISO_T2_8,223,1,48,27,923801296
116,8,9,Ticks_ISO_T2_8,224,5,42,127,923847956
116,8,9,Ticks_ISO_T2_8,225,5,42,127,924648068
116,8,9,Ticks_ISO_T2_8,226,1,48,25,924668836
116,8,9,Ticks_ISO_T2_8,227,1,48,35,925444544
116,8,9,Ticks_ISO_T2_8,228,5,42,127,925447644
116,8,9,Ticks_ISO_T2_8,229,1,48,25,926204560
116,8,9,Ticks_ISO_T2_8,230,5,42,127,926248276
116,8,9,Ticks_ISO_T2_8,231,1,48,30,926968316
116,8,9,Ticks_ISO_T2_8,232,5,42,127,927048156
116,8,9,Ticks_ISO_T2_8,233,1,48,30,927824592
116,8,9,Ticks_ISO_T2_8,234,5,42,127,927847964
116,8,9,Ticks_ISO_T2_8,235,1,48,29,928630312
116,8,9,Ticks_ISO_T2_8,236,5,42,127,928647624
116,8,9,Ticks_ISO_T2_8,237,1,48,27,929429444
116,8,9,Ticks_ISO_T2_8,0,9999,9999,9999,833445976
116,8,9,Ticks_ISO_T2_8,1,9999,9999,9999,834245684
116,8,9,Ticks_ISO_T2_8,2,9999,9999,9999,835045436
116,8,9,Ticks_ISO_T2_8,3,9999,9999,9999,835845240
116,8,9,Ticks_ISO_T2_8,4,9999,9999,9999,836645944
116,8,9,Ticks_ISO_T2_8,5,9999,9999,9999,837445676
116,8,9,Ticks_ISO_T2_8,6,9999,9999,9999,838245488
116,8,9,Ticks_ISO_T2_8,7,9999,9999,9999,839045224
116,8,9,Ticks_ISO_T2_8,8,9999,9999,9999,839846004
116,8,9,Ticks_ISO_T2_8,9,9999,9999,9999,840645688
116,8,9,Ticks_ISO_T2_8,10,9999,9999,9999,841445424
116,8,9,Ticks_ISO_T2_8,11,9999,9999,9999,842245224
116,8,9,Ticks_ISO_T2_8,12,9999,9999,9999,843046004
116,8,9,Ticks_ISO_T2_8,13,9999,9999,9999,843845744
116,8,9,Ticks_ISO_T2_8,14,9999,9999,9999,844645472
116,8,9,Ticks_ISO_T2_8,15,9999,9999,9999,845445208
116,8,9,Ticks_ISO_T2_8,16,9999,9999,9999,846245980
116,8,9,Ticks_ISO_T2_8,17,9999,9999,9999,847045748
116,8,9,Ticks_ISO_T2_8,18,9999,9999,9999,847845488
116,8,9,Ticks_ISO_T2_8,19,9999,9999,9999,848645212
116,8,9,Ticks_ISO_T2_8,20,9999,9999,9999,849445988
116,8,9,Ticks_ISO_T2_8,21,9999,9999,9999,850245724
116,8,9,Ticks_ISO_T2_8,22,9999,9999,9999,851045456
116,8,9,Ticks_ISO_T2_8,23,9999,9999,9999,851845196
116,8,9,Ticks_ISO_T2_8,24,9999,9999,9999,852645976
116,8,9,Ticks_ISO_T2_8,25,9999,9999,9999,853445732
116,8,9,Ticks_ISO_T2_8,26,9999,9999,9999,854245460
116,8,9,Ticks_ISO_T2_8,27,9999,9999,9999,855045192
116,8,9,Ticks_ISO_T2_8,28,9999,9999,9999,855845972
116,8,9,Ticks_ISO_T2_8,29,9999,9999,9999,856645712
116,8,9,Ticks_ISO_T2_8,30,9999,9999,9999,857445444
116,8,9,Ticks_ISO_T2_8,31,9999,9999,9999,858245172
116,8,9,Ticks_ISO_T2_8,32,9999,9999,9999,859045952
116,8,9,Ticks_ISO_T2_8,33,9999,9999,9999,859845720
116,8,9,Ticks_ISO_T2_8,34,9999,9999,9999,860645452
116,8,9,Ticks_ISO_T2_8,35,9999,9999,9999,861445180
116,8,9,Ticks_ISO_T2_8,36,9999,9999,9999,862245960
116,8,9,Ticks_ISO_T2_8,37,9999,9999,9999,863045700
116,8,9,Ticks_ISO_T2_8,38,9999,9999,9999,863845452
116,8,9,Ticks_ISO_T2_8,39,9999,9999,9999,864645236
116,8,9,Ticks_ISO_T2_8,40,9999,9999,9999,865445940
116,8,9,Ticks_ISO_T2_8,41,9999,9999,9999,866245696
116,8,9,Ticks_ISO_T2_8,42,9999,9999,9999,867045436
116,8,9,Ticks_ISO_T2_8,43,9999,9999,9999,867845240
116,8,9,Ticks_ISO_T2_8,44,9999,9999,9999,868645944
116,8,9,Ticks_ISO_T2_8,45,9999,9999,9999,869445680
116,8,9,Ticks_ISO_T2_8,46,9999,9999,9999,870245492
116,8,9,Ticks_ISO_T2_8,47,9999,9999,9999,871045228
116,8,9,Ticks_ISO_T2_8,48,9999,9999,9999,871846004
116,8,9,Ticks_ISO_T2_8,49,9999,9999,9999,872645688
116,8,9,Ticks_ISO_T2_8,50,9999,9999,9999,873445488
116,8,9,Ticks_ISO_T2_8,51,9999,9999,9999,874245224
116,8,9,Ticks_ISO_T2_8,52,9999,9999,9999,875046000
116,8,9,Ticks_ISO_T2_8,53,9999,9999,9999,875845736
116,8,9,Ticks_ISO_T2_8,54,9999,9999,9999,876645476
116,8,9,Ticks_ISO_T2_8,55,9999,9999,9999,877445208
116,8,9,Ticks_ISO_T2_8,56,9999,9999,9999,878245980
116,8,9,Ticks_ISO_T2_8,57,9999,9999,9999,879045740
116,8,9,Ticks_ISO_T2_8,58,9999,9999,9999,879845472
116,8,9,Ticks_ISO_T2_8,59,9999,9999,9999,880645208
116,8,9,Ticks_ISO_T2_8,60,9999,9999,9999,881445988
116,8,9,Ticks_ISO_T2_8,61,9999,9999,9999,882245720
116,8,9,Ticks_ISO_T2_8,62,9999,9999,9999,883045456
116,8,9,Ticks_ISO_T2_8,63,9999,9999,9999,883845196
116,8,9,Ticks_ISO_T2_8,64,9999,9999,9999,884645976
116,8,9,Ticks_ISO_T2_8,65,9999,9999,9999,885445728
116,8,9,Ticks_ISO_T2_8,66,9999,9999,9999,886245464
116,8,9,Ticks_ISO_T2_8,67,9999,9999,9999,887045196
116,8,9,Ticks_ISO_T2_8,68,9999,9999,9999,887845976
116,8,9,Ticks_ISO_T2_8,69,9999,9999,9999,888645716
116,8,9,Ticks_ISO_T2_8,70,9999,9999,9999,889445448
116,8,9,Ticks_ISO_T2_8,71,9999,9999,9999,890245176
116,8,9,Ticks_ISO_T2_8,72,9999,9999,9999,891045960
116,8,9,Ticks_ISO_T2_8,73,9999,9999,9999,891845712
116,8,9,Ticks_ISO_T2_8,74,9999,9999,9999,892645452
116,8,9,Ticks_ISO_T2_8,75,9999,9999,9999,893445180
116,8,9,Ticks_ISO_T2_8,76,9999,9999,9999,894245960
116,8,9,Ticks_ISO_T2_8,77,9999,9999,9999,895045692
116,8,9,Ticks_ISO_T2_8,78,9999,9999,9999,895845436
116,8,9,Ticks_ISO_T2_8,79,9999,9999,9999,896645236
116,8,9,Ticks_ISO_T2_8,80,9999,9999,9999,897445948
116,8,9,Ticks_ISO_T2_8,81,9999,9999,9999,898245704
116,8,9,Ticks_ISO_T2_8,82,9999,9999,9999,899045432
116,8,9,Ticks_ISO_T2_8,83,9999,9999,9999,899845164
116,8,9,Ticks_ISO_T2_8,84,9999,9999,9999,900645952
116,8,9,Ticks_ISO_T2_8,85,9999,9999,9999,901445684
116,8,9,Ticks_ISO_T2_8,86,9999,9999,9999,902245492
116,8,9,Ticks_ISO_T2_8,87,9999,9999,9999,903045228
116,8,9,Ticks_ISO_T2_8,88,9999,9999,9999,903846004
116,8,9,Ticks_ISO_T2_8,89,9999,9999,9999,904645688
116,8,9,Ticks_ISO_T2_8,90,9999,9999,9999,905445496
116,8,9,Ticks_ISO_T2_8,91,9999,9999,9999,906245228
116,8,9,Ticks_ISO_T2_8,92,9999,9999,9999,907045940
116,8,9,Ticks_ISO_T2_8,93,9999,9999,9999,907845688
116,8,9,Ticks_ISO_T2_8,94,9999,9999,9999,908645428
116,8,9,Ticks_ISO_T2_8,95,9999,9999,9999,909445228
116,8,9,Ticks_ISO_T2_8,96,9999,9999,9999,910245936
116,8,9,Ticks_ISO_T2_8,97,9999,9999,9999,911045692
116,8,9,Ticks_ISO_T2_8,98,9999,9999,9999,911845428
116,8,9,Ticks_ISO_T2_8,99,9999,9999,9999,912645236
116,8,9,Ticks_ISO_T2_8,100,9999,9999,9999,913445940
116,8,9,Ticks_ISO_T2_8,101,9999,9999,9999,914245680
116,8,9,Ticks_ISO_T2_8,102,9999,9999,9999,915045488
116,8,9,Ticks_ISO_T2_8,103,9999,9999,9999,915845224
116,8,9,Ticks_ISO_T2_8,104,9999,9999,9999,916645996
116,8,9,Ticks_ISO_T2_8,105,9999,9999,9999,917445680
116,8,9,Ticks_ISO_T2_8,106,9999,9999,9999,918245488
116,8,9,Ticks_ISO_T2_8,107,9999,9999,9999,919045220
116,8,9,Ticks_ISO_T2_8,108,9999,9999,9999,919846008
116,8,9,Ticks_ISO_T2_8,109,9999,9999,9999,920645736
116,8,9,Ticks_ISO_T2_8,110,9999,9999,9999,921445476
116,8,9,Ticks_ISO_T2_8,111,9999,9999,9999,922245208
116,8,9,Ticks_ISO_T2_8,112,9999,9999,9999,923045988
116,8,9,Ticks_ISO_T2_8,113,9999,9999,9999,923845740
116,8,9,Ticks_ISO_T2_8,114,9999,9999,9999,924645480
116,8,9,Ticks_ISO_T2_8,115,9999,9999,9999,925445204
116,8,9,Ticks_ISO_T2_8,116,9999,9999,9999,926245988
116,8,9,Ticks_ISO_T2_8,117,9999,9999,9999,927045720
116,8,9,Ticks_ISO_T2_8,118,9999,9999,9999,927845452
116,8,9,Ticks_ISO_T2_8,119,9999,9999,9999,928645184
116,9,23,Ticks_Phase_5,0,5,42,127,939194704
116,9,23,Ticks_Phase_5,1,5,42,127,939694708
116,9,23,Ticks_Phase_5,2,5,42,127,940195296
116,9,23,Ticks_Phase_5,3,5,42,127,940694860
116,9,23,Ticks_Phase_5,4,5,42,127,941194568
116,9,23,Ticks_Phase_5,5,1,48,27,941251176
116,9,23,Ticks_Phase_5,6,1,48,27,941695304
116,9,23,Ticks_Phase_5,7,5,42,127,941696644
116,9,23,Ticks_Phase_5,8,1,48,21,942166500
116,9,23,Ticks_Phase_5,9,5,42,127,942194984
116,9,23,Ticks_Phase_5,10,1,48,21,942691496
116,9,23,Ticks_Phase_5,11,5,42,127,942694748
116,9,23,Ticks_Phase_5,12,1,48,20,943177332
116,9,23,Ticks_Phase_5,13,5,42,127,943194588
116,9,23,Ticks_Phase_5,14,1,48,23,943666160
116,9,23,Ticks_Phase_5,15,5,42,127,943695172
116,9,23,Ticks_Phase_5,16,1,48,15,944172372
116,9,23,Ticks_Phase_5,17,5,42,127,944194936
116,9,23,Ticks_Phase_5,18,1,48,16,944666136
116,9,23,Ticks_Phase_5,19,5,42,127,944694624
116,9,23,Ticks_Phase_5,20,1,48,16,945170384
116,9,23,Ticks_Phase_5,21,5,42,127,945195656
116,9,23,Ticks_Phase_5,22,1,48,18,945690296
116,9,23,Ticks_Phase_5,23,5,42,127,945695120
116,9,23,Ticks_Phase_5,24,1,48,19,946159504
116,9,23,Ticks_Phase_5,25,5,42,127,946194884
116,9,23,Ticks_Phase_5,26,1,48,20,946678664
116,9,23,Ticks_Phase_5,27,5,42,127,946694496
116,9,23,Ticks_Phase_5,28,1,48,25,947184052
116,9,23,Ticks_Phase_5,29,5,42,127,947195604
116,9,23,Ticks_Phase_5,30,1,48,23,947676920
116,9,23,Ticks_Phase_5,31,5,42,127,947694996
116,9,23,Ticks_Phase_5,32,1,48,21,948172036
116,9,23,Ticks_Phase_5,33,5,42,127,948194684
116,9,23,Ticks_Phase_5,34,1,48,20,948680860
116,9,23,Ticks_Phase_5,35,5,42,127,948695644
116,9,23,Ticks_Phase_5,36,1,48,23,949181364
116,9,23,Ticks_Phase_5,37,5,42,127,949195256
116,9,23,Ticks_Phase_5,38,1,48,23,949687052
116,9,23,Ticks_Phase_5,39,5,42,127,949694796
116,9,23,Ticks_Phase_5,40,1,48,22,950175408
116,9,23,Ticks_Phase_5,41,5,42,127,950194556
116,9,23,Ticks_Phase_5,42,1,48,18,950668504
116,9,23,Ticks_Phase_5,43,5,42,127,950695488
116,9,23,Ticks_Phase_5,44,1,48,19,951173588
116,9,23,Ticks_Phase_5,45,5,42,127,951195028
116,9,23,Ticks_Phase_5,46,1,48,21,951685256
116,9,23,Ticks_Phase_5,47,5,42,127,951694716
116,9,23,Ticks_Phase_5,48,1,48,19,952165244
116,9,23,Ticks_Phase_5,49,5,42,127,952194552
116,9,23,Ticks_Phase_5,50,5,42,127,952695148
116,9,23,Ticks_Phase_5,51,1,48,25,952710620
116,9,23,Ticks_Phase_5,52,1,48,24,953179892
116,9,23,Ticks_Phase_5,53,5,42,127,953194904
116,9,23,Ticks_Phase_5,54,5,42,127,953694524
116,9,23,Ticks_Phase_5,55,1,48,27,953699212
116,9,23,Ticks_Phase_5,56,5,42,127,954184928
116,9,23,Ticks_Phase_5,57,1,48,21,954203924
116,9,23,Ticks_Phase_5,58,1,48,21,954681728
116,9,23,Ticks_Phase_5,59,5,42,127,954684832
116,9,23,Ticks_Phase_5,60,1,48,17,955173040
116,9,23,Ticks_Phase_5,61,5,42,127,955184816
116,9,23,Ticks_Phase_5,62,1,48,16,955656020
116,9,23,Ticks_Phase_5,63,5,42,127,955685180
116,9,23,Ticks_Phase_5,64,1,48,19,956179144
116,9,23,Ticks_Phase_5,65,5,42,127,956184868
116,9,23,Ticks_Phase_5,66,1,48,20,956672476
116,9,23,Ticks_Phase_5,67,5,42,127,956684556
116,9,23,Ticks_Phase_5,68,1,48,19,957168040
116,9,23,Ticks_Phase_5,69,5,42,127,957185516
116,9,23,Ticks_Phase_5,70,1,48,13,957666456
116,9,23,Ticks_Phase_5,71,5,42,127,957685128
116,9,23,Ticks_Phase_5,72,1,48,20,958167488
116,9,23,Ticks_Phase_5,73,5,42,127,958184740
116,9,23,Ticks_Phase_5,74,1,48,27,958660956
116,9,23,Ticks_Phase_5,75,5,42,127,958684652
116,9,23,Ticks_Phase_5,76,1,48,27,959185396
116,9,23,Ticks_Phase_5,77,5,42,127,959186656
116,9,23,Ticks_Phase_5,78,5,42,127,959684860
116,9,23,Ticks_Phase_5,79,1,48,25,959705428
116,9,23,Ticks_Phase_5,80,5,42,127,960184772
116,9,23,Ticks_Phase_5,81,1,48,26,960194712
116,9,23,Ticks_Phase_5,82,1,48,23,960665608
116,9,23,Ticks_Phase_5,83,5,42,127,960685576
116,9,23,Ticks_Phase_5,84,1,48,24,961163424
116,9,23,Ticks_Phase_5,85,5,42,127,961195348
116,9,23,Ticks_Phase_5,86,1,48,26,961675612
116,9,23,Ticks_Phase_5,87,5,42,127,961694964
116,9,23,Ticks_Phase_5,88,1,48,26,962184136
116,9,23,Ticks_Phase_5,89,5,42,127,962194872
116,9,23,Ticks_Phase_5,90,1,48,24,962673868
116,9,23,Ticks_Phase_5,91,5,42,127,962694636
116,9,23,Ticks_Phase_5,92,1,48,23,963176924
116,9,23,Ticks_Phase_5,93,5,42,127,963204360
116,9,23,Ticks_Phase_5,94,1,48,24,963698252
116,9,23,Ticks_Phase_5,95,5,42,127,963705392
116,9,23,Ticks_Phase_5,96,1,48,26,964200632
116,9,23,Ticks_Phase_5,97,5,42,127,964204932
116,9,23,Ticks_Phase_5,98,1,48,24,964668648
116,9,23,Ticks_Phase_5,99,5,42,127,964704548
116,9,23,Ticks_Phase_5,100,1,48,27,965200456
116,9,23,Ticks_Phase_5,101,5,42,127,965205432
116,9,23,Ticks_Phase_5,102,5,42,127,965705200
116,9,23,Ticks_Phase_5,103,5,42,127,966204912
116,9,23,Ticks_Phase_5,104,1,48,26,966227724
116,9,23,Ticks_Phase_5,105,1,48,20,966680748
116,9,23,Ticks_Phase_5,106,5,42,127,966704516
116,9,23,Ticks_Phase_5,107,1,48,34,967204432
116,9,23,Ticks_Phase_5,108,5,42,127,967206076
116,9,23,Ticks_Phase_5,109,1,48,14,967695324
116,9,23,Ticks_Phase_5,110,5,42,127,967704868
116,9,23,Ticks_Phase_5,111,1,48,19,968169700
116,9,23,Ticks_Phase_5,112,5,42,127,968204628
116,9,23,Ticks_Phase_5,113,1,48,24,968690652
116,9,23,Ticks_Phase_5,114,5,42,127,968705292
116,9,23,Ticks_Phase_5,115,5,42,127,969205132
116,9,23,Ticks_Phase_5,116,1,48,32,969213352
116,9,23,Ticks_Phase_5,117,1,48,27,969703004
116,9,23,Ticks_Phase_5,118,5,42,127,969704740
116,9,23,Ticks_Phase_5,119,5,42,127,970204508
116,9,23,Ticks_Phase_5,120,1,48,29,970210024
116,9,23,Ticks_Phase_5,121,5,42,127,970705324
116,9,23,Ticks_Phase_5,122,1,48,25,970718628
116,9,23,Ticks_Phase_5,123,1,48,29,971219204
116,9,23,Ticks_Phase_5,124,5,42,127,971224552
116,9,23,Ticks_Phase_5,125,1,48,30,971721432
116,9,23,Ticks_Phase_5,126,5,42,127,971725432
116,9,23,Ticks_Phase_5,127,5,42,127,972224756
116,9,23,Ticks_Phase_5,128,1,48,23,972252672
116,9,23,Ticks_Phase_5,129,1,48,27,972723156
116,9,23,Ticks_Phase_5,130,5,42,127,972724516
116,9,23,Ticks_Phase_5,131,5,42,127,973225380
116,9,23,Ticks_Phase_5,132,1,48,28,973226568
116,9,23,Ticks_Phase_5,133,5,42,127,973725292
116,9,23,Ticks_Phase_5,134,1,48,23,973729536
116,9,23,Ticks_Phase_5,135,1,48,27,974219924
116,9,23,Ticks_Phase_5,136,5,42,127,974224676
116,9,23,Ticks_Phase_5,137,1,48,27,974694684
116,9,23,Ticks_Phase_5,138,5,42,127,974724440
116,9,23,Ticks_Phase_5,139,1,48,27,975197140
116,9,23,Ticks_Phase_5,140,5,42,127,975225400
116,9,23,Ticks_Phase_5,141,1,48,23,975712636
116,9,23,Ticks_Phase_5,142,5,42,127,975725160
116,9,23,Ticks_Phase_5,143,1,48,26,976215612
116,9,23,Ticks_Phase_5,144,5,42,127,976224556
116,9,23,Ticks_Phase_5,145,1,48,25,976702260
116,9,23,Ticks_Phase_5,146,5,42,127,976725436
116,9,23,Ticks_Phase_5,147,1,48,27,977206972
116,9,23,Ticks_Phase_5,148,5,42,127,977225272
116,9,23,Ticks_Phase_5,149,1,48,26,977710104
116,9,23,Ticks_Phase_5,150,5,42,127,977724812
116,9,23,Ticks_Phase_5,151,5,42,127,978224360
116,9,23,Ticks_Phase_5,152,1,48,27,978233320
116,9,23,Ticks_Phase_5,153,1,48,25,978716972
116,9,23,Ticks_Phase_5,154,5,42,127,978725236
116,9,23,Ticks_Phase_5,155,1,48,28,979185060
116,9,23,Ticks_Phase_5,156,5,42,127,979225076
116,9,23,Ticks_Phase_5,157,5,42,127,979705152
116,9,23,Ticks_Phase_5,158,1,48,19,979718384
116,9,23,Ticks_Phase_5,159,5,42,127,980204840
116,9,23,Ticks_Phase_5,160,1,48,28,980224812
116,9,23,Ticks_Phase_5,161,5,42,127,980704604
116,9,23,Ticks_Phase_5,162,1,48,22,980730036
116,9,23,Ticks_Phase_5,163,1,48,28,981175500
116,9,23,Ticks_Phase_5,164,5,42,127,981205404
116,9,23,Ticks_Phase_5,165,1,48,26,981681092
116,9,23,Ticks_Phase_5,166,5,42,127,981705168
116,9,23,Ticks_Phase_5,167,1,48,26,982149460
116,9,23,Ticks_Phase_5,168,5,42,127,982204780
116,9,23,Ticks_Phase_5,169,1,48,19,982649000
116,9,23,Ticks_Phase_5,170,5,42,127,982704468
116,9,23,Ticks_Phase_5,171,1,48,27,983202448
116,9,23,Ticks_Phase_5,172,5,42,127,983205180
116,9,23,Ticks_Phase_5,173,1,48,25,983682228
116,9,23,Ticks_Phase_5,174,5,42,127,983705016
116,9,23,Ticks_Phase_5,175,1,48,27,984174568
116,9,23,Ticks_Phase_5,176,5,42,127,984204628
116,9,23,Ticks_Phase_5,177,1,48,25,984680844
116,9,23,Ticks_Phase_5,178,5,42,127,984705440
116,9,23,Ticks_Phase_5,179,1,48,26,985186680
116,9,23,Ticks_Phase_5,180,5,42,127,985205128
116,9,23,Ticks_Phase_5,181,1,48,27,985699988
116,9,23,Ticks_Phase_5,182,5,42,127,985704888
116,9,23,Ticks_Phase_5,183,5,42,127,986204508
116,9,23,Ticks_Phase_5,184,1,48,27,986215192
116,9,23,Ticks_Phase_5,185,1,48,27,986681988
116,9,23,Ticks_Phase_5,186,5,42,127,986705164
116,9,23,Ticks_Phase_5,187,5,42,127,987205008
116,9,23,Ticks_Phase_5,188,1,48,30,987222220
116,9,23,Ticks_Phase_5,189,5,42,127,987654452
116,9,23,Ticks_Phase_5,190,1,48,27,987721220
116,9,23,Ticks_Phase_5,191,1,48,24,988154284
116,9,23,Ticks_Phase_5,192,5,42,127,988156004
116,9,23,Ticks_Phase_5,193,1,48,29,988653204
116,9,23,Ticks_Phase_5,194,5,42,127,988654944
116,9,23,Ticks_Phase_5,195,1,48,25,989147340
116,9,23,Ticks_Phase_5,196,5,42,127,989154704
116,9,23,Ticks_Phase_5,197,5,42,127,989655300
116,9,23,Ticks_Phase_5,198,1,48,25,989657968
116,9,23,Ticks_Phase_5,199,1,48,27,990135180
116,9,23,Ticks_Phase_5,200,5,42,127,990155052
116,9,23,Ticks_Phase_5,201,1,48,28,990629000
116,9,23,Ticks_Phase_5,202,5,42,127,990654888
116,9,23,Ticks_Phase_5,203,1,48,22,991122852
116,9,23,Ticks_Phase_5,204,5,42,127,991154504
116,9,23,Ticks_Phase_5,205,1,48,29,991655592
116,9,23,Ticks_Phase_5,206,5,42,127,991656852
116,9,23,Ticks_Phase_5,207,1,48,31,992150676
116,9,23,Ticks_Phase_5,208,5,42,127,992155052
116,9,23,Ticks_Phase_5,209,5,42,127,992654896
116,9,23,Ticks_Phase_5,210,1,48,32,992665280
116,9,23,Ticks_Phase_5,211,1,48,28,993150424
116,9,23,Ticks_Phase_5,212,5,42,127,993154428
116,9,23,Ticks_Phase_5,213,1,48,29,993636184
116,9,23,Ticks_Phase_5,214,5,42,127,993655012
116,9,23,Ticks_Phase_5,215,1,48,29,994131004
116,9,23,Ticks_Phase_5,216,5,42,127,994155000
116,9,23,Ticks_Phase_5,217,1,48,22,994635040
116,9,23,Ticks_Phase_5,218,5,42,127,994654464
116,9,23,Ticks_Phase_5,219,5,42,127,995155280
116,9,23,Ticks_Phase_5,220,1,48,26,995225500
116,9,23,Ticks_Phase_5,221,1,48,25,995652924
116,9,23,Ticks_Phase_5,222,5,42,127,995654960
116,9,23,Ticks_Phase_5,223,1,48,31,996156192
116,9,23,Ticks_Phase_5,224,5,42,127,996205124
116,9,23,Ticks_Phase_5,225,5,42,127,996705040
116,9,23,Ticks_Phase_5,226,1,48,26,996709884
116,9,23,Ticks_Phase_5,227,5,42,127,997205328
116,9,23,Ticks_Phase_5,228,1,48,27,997221848
116,9,23,Ticks_Phase_5,229,5,42,127,997705092
116,9,23,Ticks_Phase_5,230,1,48,24,997712548
116,9,23,Ticks_Phase_5,231,1,48,27,998198076
116,9,23,Ticks_Phase_5,232,5,42,127,998204996
116,9,23,Ticks_Phase_5,233,1,48,28,998701132
116,9,23,Ticks_Phase_5,234,5,42,127,998704388
116,9,23,Ticks_Phase_5,235,5,42,127,999205280
116,9,23,Ticks_Phase_5,236,1,48,31,999221428
116,9,23,Ticks_Phase_5,237,5,42,127,999704968
116,9,23,Ticks_Phase_5,238,1,48,26,999715952
116,9,23,Ticks_Phase_5,239,1,48,25,1000200868
116,9,23,Ticks_Phase_5,240,5,42,127,1000204948
116,9,23,Ticks_Phase_5,241,1,48,20,1000675404
116,9,23,Ticks_Phase_5,242,5,42,127,1000705460
116,9,23,Ticks_Phase_5,243,1,48,28,1001188792
116,9,23,Ticks_Phase_5,244,5,42,127,1001205000
116,9,23,Ticks_Phase_5,245,1,48,21,1001681212
116,9,23,Ticks_Phase_5,246,5,42,127,1001704984
116,9,23,Ticks_Phase_5,247,1,48,28,1002185100
116,9,23,Ticks_Phase_5,248,5,42,127,1002204524
116,9,23,Ticks_Phase_5,249,5,42,127,1002705264
116,9,23,Ticks_Phase_5,250,1,48,25,1002718720
116,9,23,Ticks_Phase_5,251,1,48,28,1003192028
116,9,23,Ticks_Phase_5,252,5,42,127,1003204948
116,9,23,Ticks_Phase_5,253,1,48,30,1003686232
116,9,23,Ticks_Phase_5,254,5,42,127,1003705004
116,9,23,Ticks_Phase_5,255,1,48,25,1004185844
116,9,23,Ticks_Phase_5,256,5,42,127,1004205368
116,9,23,Ticks_Phase_5,257,1,48,32,1004707772
116,9,23,Ticks_Phase_5,258,5,42,127,1004814676
116,9,23,Ticks_Phase_5,259,5,42,127,1005314536
116,9,23,Ticks_Phase_5,260,1,48,24,1005318852
116,9,23,Ticks_Phase_5,261,5,42,127,1005815272
116,9,23,Ticks_Phase_5,262,1,48,18,1005827608
116,9,23,Ticks_Phase_5,263,1,48,29,1006305348
116,9,23,Ticks_Phase_5,264,5,42,127,1006314956
116,9,23,Ticks_Phase_5,265,1,48,26,1006809148
116,9,23,Ticks_Phase_5,266,5,42,127,1006814644
116,9,23,Ticks_Phase_5,267,1,48,24,1007307044
116,9,23,Ticks_Phase_5,268,5,42,127,1007315380
116,9,23,Ticks_Phase_5,269,1,48,29,1007785064
116,9,23,Ticks_Phase_5,270,5,42,127,1007814996
116,9,23,Ticks_Phase_5,271,1,48,27,1008286396
116,9,23,Ticks_Phase_5,272,5,42,127,1008314832
116,9,23,Ticks_Phase_5,273,5,42,127,1008814380
116,9,23,Ticks_Phase_5,274,1,48,23,1008847600
116,9,23,Ticks_Phase_5,275,5,42,127,1009315088
116,9,23,Ticks_Phase_5,276,1,48,27,1009325572
116,9,23,Ticks_Phase_5,277,5,42,127,1009814852
116,9,23,Ticks_Phase_5,278,1,48,30,1009821556
116,9,23,Ticks_Phase_5,279,1,48,27,1010307836
116,9,23,Ticks_Phase_5,280,5,42,127,1010314756
116,9,23,Ticks_Phase_5,281,1,48,20,1010815568
116,9,23,Ticks_Phase_5,282,5,42,127,1010816908
116,9,23,Ticks_Phase_5,283,5,42,127,1011315036
116,9,23,Ticks_Phase_5,284,1,48,27,1011323848
116,9,23,Ticks_Phase_5,285,1,48,31,1011801796
116,9,23,Ticks_Phase_5,286,5,42,127,1011814716
116,9,23,Ticks_Phase_5,287,1,48,24,1012297300
116,9,23,Ticks_Phase_5,288,5,42,127,1012314552
116,9,23,Ticks_Phase_5,289,5,42,127,1012815148
116,9,23,Ticks_Phase_5,290,1,48,31,1012820436
116,9,23,Ticks_Phase_5,291,5,42,127,1013314908
116,9,23,Ticks_Phase_5,292,1,48,29,1013338620
116,9,23,Ticks_Phase_5,293,1,48,25,1013790144
116,9,23,Ticks_Phase_5,294,5,42,127,1013814740
116,9,23,Ticks_Phase_5,295,5,42,127,1014214984
116,9,23,Ticks_Phase_5,296,1,48,27,1014294044
116,9,23,Ticks_Phase_5,297,5,42,127,1014714748
116,9,23,Ticks_Phase_5,298,1,48,17,1014747156
116,9,23,Ticks_Phase_5,299,1,48,20,1015213308
116,9,23,Ticks_Phase_5,300,5,42,127,1015214876
116,9,23,Ticks_Phase_5,301,1,48,28,1015712480
116,9,23,Ticks_Phase_5,302,5,42,127,1015715064
116,9,23,Ticks_Phase_5,303,5,42,127,1016214908
116,9,23,Ticks_Phase_5,304,1,48,27,1016218632
116,9,23,Ticks_Phase_5,305,5,42,127,1016714672
116,9,23,Ticks_Phase_5,306,1,48,28,1016720412
116,9,23,Ticks_Phase_5,307,5,42,127,1017215332
116,9,23,Ticks_Phase_5,308,1,48,25,1017216300
116,9,23,Ticks_Phase_5,309,1,48,25,1017713888
116,9,23,Ticks_Phase_5,310,5,42,127,1017715308
116,9,23,Ticks_Phase_5,311,1,48,31,1018208456
116,9,23,Ticks_Phase_5,312,5,42,127,1018214700
116,9,23,Ticks_Phase_5,313,1,48,27,1018710388
116,9,23,Ticks_Phase_5,314,5,42,127,1018714612
116,9,23,Ticks_Phase_5,315,1,48,31,1019191652
116,9,23,Ticks_Phase_5,316,5,42,127,1019215348
116,9,23,Ticks_Phase_5,317,1,48,25,1019699128
116,9,23,Ticks_Phase_5,318,5,42,127,1019714812
116,9,23,Ticks_Phase_5,319,1,48,27,1020182652
116,9,23,Ticks_Phase_5,320,5,42,127,1020214576
116,9,23,Ticks_Phase_5,321,1,48,28,1020701496
116,9,23,Ticks_Phase_5,322,5,42,127,1020715460
116,9,23,Ticks_Phase_5,323,1,48,30,1021214628
116,9,23,Ticks_Phase_5,324,5,42,127,1021215972
116,9,23,Ticks_Phase_5,325,1,48,19,1021691660
116,9,23,Ticks_Phase_5,326,5,42,127,1021714764
116,9,23,Ticks_Phase_5,327,1,48,23,1022199968
116,9,23,Ticks_Phase_5,328,5,42,127,1022214524
116,9,23,Ticks_Phase_5,329,1,48,30,1022708340
116,9,23,Ticks_Phase_5,330,5,42,127,1022715260
116,9,23,Ticks_Phase_5,331,1,48,26,1023207132
116,9,23,Ticks_Phase_5,332,5,42,127,1023215024
116,9,23,Ticks_Phase_5,333,5,42,127,1023714716
116,9,23,Ticks_Phase_5,0,9999,9999,9999,939192416
116,9,23,Ticks_Phase_5,1,9999,9999,9999,939692100
116,9,23,Ticks_Phase_5,2,9999,9999,9999,940192856
116,9,23,Ticks_Phase_5,3,9999,9999,9999,940692572
116,9,23,Ticks_Phase_5,4,9999,9999,9999,941192280
116,9,23,Ticks_Phase_5,5,9999,9999,9999,941693016
116,9,23,Ticks_Phase_5,6,9999,9999,9999,942192700
116,9,23,Ticks_Phase_5,7,9999,9999,9999,942692460
116,9,23,Ticks_Phase_5,8,9999,9999,9999,943192152
116,9,23,Ticks_Phase_5,9,9999,9999,9999,943692884
116,9,23,Ticks_Phase_5,10,9999,9999,9999,944192576
116,9,23,Ticks_Phase_5,11,9999,9999,9999,944692336
116,9,23,Ticks_Phase_5,12,9999,9999,9999,945193072
116,9,23,Ticks_Phase_5,13,9999,9999,9999,945692760
116,9,23,Ticks_Phase_5,14,9999,9999,9999,946192448
116,9,23,Ticks_Phase_5,15,9999,9999,9999,946692212
116,9,23,Ticks_Phase_5,16,9999,9999,9999,947192948
116,9,23,Ticks_Phase_5,17,9999,9999,9999,947692636
116,9,23,Ticks_Phase_5,18,9999,9999,9999,948192324
116,9,23,Ticks_Phase_5,19,9999,9999,9999,948693060
116,9,23,Ticks_Phase_5,20,9999,9999,9999,949192820
116,9,23,Ticks_Phase_5,21,9999,9999,9999,949692508
116,9,23,Ticks_Phase_5,22,9999,9999,9999,950192196
116,9,23,Ticks_Phase_5,23,9999,9999,9999,950692980
116,9,23,Ticks_Phase_5,24,9999,9999,9999,951192668
116,9,23,Ticks_Phase_5,25,9999,9999,9999,951692356
116,9,23,Ticks_Phase_5,26,9999,9999,9999,952192120
116,9,23,Ticks_Phase_5,27,9999,9999,9999,952692860
116,9,23,Ticks_Phase_5,28,9999,9999,9999,953192540
116,9,23,Ticks_Phase_5,29,9999,9999,9999,953692236
116,9,23,Ticks_Phase_5,30,9999,9999,9999,954182712
116,9,23,Ticks_Phase_5,31,9999,9999,9999,954682472
116,9,23,Ticks_Phase_5,32,9999,9999,9999,955182160
116,9,23,Ticks_Phase_5,33,9999,9999,9999,955682892
116,9,23,Ticks_Phase_5,34,9999,9999,9999,956182584
116,9,23,Ticks_Phase_5,35,9999,9999,9999,956682344
116,9,23,Ticks_Phase_5,36,9999,9999,9999,957183080
116,9,23,Ticks_Phase_5,37,9999,9999,9999,957682768
116,9,23,Ticks_Phase_5,38,9999,9999,9999,958182456
116,9,23,Ticks_Phase_5,39,9999,9999,9999,958682216
116,9,23,Ticks_Phase_5,40,9999,9999,9999,959182960
116,9,23,Ticks_Phase_5,41,9999,9999,9999,959682648
116,9,23,Ticks_Phase_5,42,9999,9999,9999,960182336
116,9,23,Ticks_Phase_5,43,9999,9999,9999,960683116
116,9,23,Ticks_Phase_5,44,9999,9999,9999,961193060
116,9,23,Ticks_Phase_5,45,9999,9999,9999,961692748
116,9,23,Ticks_Phase_5,46,9999,9999,9999,962192436
116,9,23,Ticks_Phase_5,47,9999,9999,9999,962692200
116,9,23,Ticks_Phase_5,48,9999,9999,9999,963202148
116,9,23,Ticks_Phase_5,49,9999,9999,9999,963702884
116,9,23,Ticks_Phase_5,50,9999,9999,9999,964202572
116,9,23,Ticks_Phase_5,51,9999,9999,9999,964702264
116,9,23,Ticks_Phase_5,52,9999,9999,9999,965203072
116,9,23,Ticks_Phase_5,53,9999,9999,9999,965702768
116,9,23,Ticks_Phase_5,54,9999,9999,9999,966202476
116,9,23,Ticks_Phase_5,55,9999,9999,9999,966702156
116,9,23,Ticks_Phase_5,56,9999,9999,9999,967202900
116,9,23,Ticks_Phase_5,57,9999,9999,9999,967702656
116,9,23,Ticks_Phase_5,58,9999,9999,9999,968202344
116,9,23,Ticks_Phase_5,59,9999,9999,9999,968703076
116,9,23,Ticks_Phase_5,60,9999,9999,9999,969202772
116,9,23,Ticks_Phase_5,61,9999,9999,9999,969702480
116,9,23,Ticks_Phase_5,62,9999,9999,9999,970202224
116,9,23,Ticks_Phase_5,63,9999,9999,9999,970702960
116,9,23,Ticks_Phase_5,64,9999,9999,9999,971222116
116,9,23,Ticks_Phase_5,65,9999,9999,9999,971722848
116,9,23,Ticks_Phase_5,66,9999,9999,9999,972222544
116,9,23,Ticks_Phase_5,67,9999,9999,9999,972722232
116,9,23,Ticks_Phase_5,68,9999,9999,9999,973223020
116,9,23,Ticks_Phase_5,69,9999,9999,9999,973722708
116,9,23,Ticks_Phase_5,70,9999,9999,9999,974222392
116,9,23,Ticks_Phase_5,71,9999,9999,9999,974722156
116,9,23,Ticks_Phase_5,72,9999,9999,9999,975222892
116,9,23,Ticks_Phase_5,73,9999,9999,9999,975722580
116,9,23,Ticks_Phase_5,74,9999,9999,9999,976222268
116,9,23,Ticks_Phase_5,75,9999,9999,9999,976723004
116,9,23,Ticks_Phase_5,76,9999,9999,9999,977222764
116,9,23,Ticks_Phase_5,77,9999,9999,9999,977722452
116,9,23,Ticks_Phase_5,78,9999,9999,9999,978222148
116,9,23,Ticks_Phase_5,79,9999,9999,9999,978722876
116,9,23,Ticks_Phase_5,80,9999,9999,9999,979222640
116,9,23,Ticks_Phase_5,81,9999,9999,9999,979702864
116,9,23,Ticks_Phase_5,82,9999,9999,9999,980202552
116,9,23,Ticks_Phase_5,83,9999,9999,9999,980702316
116,9,23,Ticks_Phase_5,84,9999,9999,9999,981203044
116,9,23,Ticks_Phase_5,85,9999,9999,9999,981702732
116,9,23,Ticks_Phase_5,86,9999,9999,9999,982202496
116,9,23,Ticks_Phase_5,87,9999,9999,9999,982702184
116,9,23,Ticks_Phase_5,88,9999,9999,9999,983202892
116,9,23,Ticks_Phase_5,89,9999,9999,9999,983702656
116,9,23,Ticks_Phase_5,90,9999,9999,9999,984202344
116,9,23,Ticks_Phase_5,91,9999,9999,9999,984703080
116,9,23,Ticks_Phase_5,92,9999,9999,9999,985202764
116,9,23,Ticks_Phase_5,93,9999,9999,9999,985702456
116,9,23,Ticks_Phase_5,94,9999,9999,9999,986202224
116,9,23,Ticks_Phase_5,95,9999,9999,9999,986702952
116,9,23,Ticks_Phase_5,96,9999,9999,9999,987202648
116,9,23,Ticks_Phase_5,97,9999,9999,9999,987652164
116,9,23,Ticks_Phase_5,98,9999,9999,9999,988152900
116,9,23,Ticks_Phase_5,99,9999,9999,9999,988652604
116,9,23,Ticks_Phase_5,100,9999,9999,9999,989152344
116,9,23,Ticks_Phase_5,101,9999,9999,9999,989653084
116,9,23,Ticks_Phase_5,102,9999,9999,9999,990152768
116,9,23,Ticks_Phase_5,103,9999,9999,9999,990652528
116,9,23,Ticks_Phase_5,104,9999,9999,9999,991152216
116,9,23,Ticks_Phase_5,105,9999,9999,9999,991652932
116,9,23,Ticks_Phase_5,106,9999,9999,9999,992152688
116,9,23,Ticks_Phase_5,107,9999,9999,9999,992652384
116,9,23,Ticks_Phase_5,108,9999,9999,9999,993152064
116,9,23,Ticks_Phase_5,109,9999,9999,9999,993652800
116,9,23,Ticks_Phase_5,110,9999,9999,9999,994152564
116,9,23,Ticks_Phase_5,111,9999,9999,9999,994652252
116,9,23,Ticks_Phase_5,112,9999,9999,9999,995152992
116,9,23,Ticks_Phase_5,113,9999,9999,9999,995652712
116,9,23,Ticks_Phase_5,114,9999,9999,9999,996202612
116,9,23,Ticks_Phase_5,115,9999,9999,9999,996702308
116,9,23,Ticks_Phase_5,116,9999,9999,9999,997203040
116,9,23,Ticks_Phase_5,117,9999,9999,9999,997702732
116,9,23,Ticks_Phase_5,118,9999,9999,9999,998202484
116,9,23,Ticks_Phase_5,119,9999,9999,9999,998702176
116,9,23,Ticks_Phase_5,120,9999,9999,9999,999202916
116,9,23,Ticks_Phase_5,121,9999,9999,9999,999702604
116,9,23,Ticks_Phase_5,122,9999,9999,9999,1000202364
116,9,23,Ticks_Phase_5,123,9999,9999,9999,1000703096
116,9,23,Ticks_Phase_5,124,9999,9999,9999,1001202788
116,9,23,Ticks_Phase_5,125,9999,9999,9999,1001702476
116,9,23,Ticks_Phase_5,126,9999,9999,9999,1002202236
116,9,23,Ticks_Phase_5,127,9999,9999,9999,1002702904
116,9,23,Ticks_Phase_5,128,9999,9999,9999,1003202660
116,9,23,Ticks_Phase_5,129,9999,9999,9999,1003702348
116,9,23,Ticks_Phase_5,130,9999,9999,9999,1004203080
116,9,23,Ticks_Phase_5,131,9999,9999,9999,1004812388
116,9,23,Ticks_Phase_5,132,9999,9999,9999,1005312100
116,9,23,Ticks_Phase_5,133,9999,9999,9999,1005812840
116,9,23,Ticks_Phase_5,134,9999,9999,9999,1006312520
116,9,23,Ticks_Phase_5,135,9999,9999,9999,1006812284
116,9,23,Ticks_Phase_5,136,9999,9999,9999,1007313020
116,9,23,Ticks_Phase_5,137,9999,9999,9999,1007812708
116,9,23,Ticks_Phase_5,138,9999,9999,9999,1008312396
116,9,23,Ticks_Phase_5,139,9999,9999,9999,1008812092
116,9,23,Ticks_Phase_5,140,9999,9999,9999,1009312876
116,9,23,Ticks_Phase_5,141,9999,9999,9999,1009812564
116,9,23,Ticks_Phase_5,142,9999,9999,9999,1010312244
116,9,23,Ticks_Phase_5,143,9999,9999,9999,1010812984
116,9,23,Ticks_Phase_5,144,9999,9999,9999,1011312748
116,9,23,Ticks_Phase_5,145,9999,9999,9999,1011812428
116,9,23,Ticks_Phase_5,146,9999,9999,9999,1012312120
116,9,23,Ticks_Phase_5,147,9999,9999,9999,1012812860
116,9,23,Ticks_Phase_5,148,9999,9999,9999,1013312620
116,9,23,Ticks_Phase_5,149,9999,9999,9999,1013812304
116,9,23,Ticks_Phase_5,150,9999,9999,9999,1014212696
116,9,23,Ticks_Phase_5,151,9999,9999,9999,1014712388
116,9,23,Ticks_Phase_5,152,9999,9999,9999,1015212152
116,9,23,Ticks_Phase_5,153,9999,9999,9999,1015712852
116,9,23,Ticks_Phase_5,154,9999,9999,9999,1016212548
116,9,23,Ticks_Phase_5,155,9999,9999,9999,1016712312
116,9,23,Ticks_Phase_5,156,9999,9999,9999,1017213044
116,9,23,Ticks_Phase_5,157,9999,9999,9999,1017712732
116,9,23,Ticks_Phase_5,158,9999,9999,9999,1018212412
116,9,23,Ticks_Phase_5,159,9999,9999,9999,1018712176
116,9,23,Ticks_Phase_5,160,9999,9999,9999,1019212912
116,9,23,Ticks_Phase_5,161,9999,9999,9999,1019712600
116,9,23,Ticks_Phase_5,162,9999,9999,9999,1020212288
116,9,23,Ticks_Phase_5,163,9999,9999,9999,1020713024
116,9,23,Ticks_Phase_5,164,9999,9999,9999,1021212792
116,9,23,Ticks_Phase_5,165,9999,9999,9999,1021712476
116,9,23,Ticks_Phase_5,166,9999,9999,9999,1022212164
116,9,23,Ticks_Phase_5,167,9999,9999,9999,1022712900
116,9,23,Ticks_Phase_5,168,9999,9999,9999,1023212660
116,9,23,Ticks_Phase_5,169,9999,9999,9999,1023712356
116,10,22,Ticks_Phase_8,0,5,42,127,1032642904
116,10,22,Ticks_Phase_8,1,1,48,32,1033077776
116,10,22,Ticks_Phase_8,2,5,42,127,1033442688
116,10,22,Ticks_Phase_8,3,1,48,22,1034169740
116,10,22,Ticks_Phase_8,4,5,42,127,1034242492
116,10,22,Ticks_Phase_8,5,1,48,24,1035002336
116,10,22,Ticks_Phase_8,6,5,42,127,1035043472
116,10,22,Ticks_Phase_8,7,1,48,25,1035780484
116,10,22,Ticks_Phase_8,8,5,42,127,1035842964
116,10,22,Ticks_Phase_8,9,1,48,22,1036606628
116,10,22,Ticks_Phase_8,10,5,42,127,1036642604
116,10,22,Ticks_Phase_8,11,1,48,27,1037436660
116,10,22,Ticks_Phase_8,12,5,42,127,1037442460
116,10,22,Ticks_Phase_8,13,1,48,29,1038208292
116,10,22,Ticks_Phase_8,14,5,42,127,1038243444
116,10,22,Ticks_Phase_8,15,1,48,25,1039006808
116,10,22,Ticks_Phase_8,16,5,42,127,1039042808
116,10,22,Ticks_Phase_8,17,1,48,30,1039805192
116,10,22,Ticks_Phase_8,18,5,42,127,1039842816
116,10,22,Ticks_Phase_8,19,1,48,27,1040577272
116,10,22,Ticks_Phase_8,20,5,42,127,1040642380
116,10,22,Ticks_Phase_8,21,1,48,25,1041403792
116,10,22,Ticks_Phase_8,22,5,42,127,1041443364
116,10,22,Ticks_Phase_8,23,1,48,32,1042236080
116,10,22,Ticks_Phase_8,24,5,42,127,1042242928
116,10,22,Ticks_Phase_8,25,1,48,31,1043036088
116,10,22,Ticks_Phase_8,26,5,42,127,1043042564
116,10,22,Ticks_Phase_8,27,1,48,28,1043838052
116,10,22,Ticks_Phase_8,28,5,42,127,1043842352
116,10,22,Ticks_Phase_8,29,1,48,32,1044620768
116,10,22,Ticks_Phase_8,30,5,42,127,1044643256
116,10,22,Ticks_Phase_8,31,1,48,43,1045426640
116,10,22,Ticks_Phase_8,32,5,42,127,1045442920
116,10,22,Ticks_Phase_8,33,5,42,127,1046242636
116,10,22,Ticks_Phase_8,34,1,48,41,1046262236
116,10,22,Ticks_Phase_8,35,5,42,127,1047042496
116,10,22,Ticks_Phase_8,36,1,48,36,1047058572
116,10,22,Ticks_Phase_8,37,1,48,27,1047820220
116,10,22,Ticks_Phase_8,38,5,42,127,1047843252
116,10,22,Ticks_Phase_8,39,1,48,23,1048614400
116,10,22,Ticks_Phase_8,40,5,42,127,1048643184
116,10,22,Ticks_Phase_8,41,1,48,28,1049438144
116,10,22,Ticks_Phase_8,42,5,42,127,1049442600
116,10,22,Ticks_Phase_8,43,5,42,127,1050242392
116,10,22,Ticks_Phase_8,44,1,48,26,1050244984
116,10,22,Ticks_Phase_8,45,1,48,26,1051012116
116,10,22,Ticks_Phase_8,46,5,42,127,1051043292
116,10,22,Ticks_Phase_8,47,1,48,27,1051831400
116,10,22,Ticks_Phase_8,48,5,42,127,1051843104
116,10,22,Ticks_Phase_8,49,5,42,127,1052642600
116,10,22,Ticks_Phase_8,50,1,48,28,1052681224
116,10,22,Ticks_Phase_8,51,1,48,29,1053432392
116,10,22,Ticks_Phase_8,52,5,42,127,1053442528
116,10,22,Ticks_Phase_8,53,1,48,30,1054238684
116,10,22,Ticks_Phase_8,54,5,42,127,1054243064
116,10,22,Ticks_Phase_8,55,5,42,127,1055043004
116,10,22,Ticks_Phase_8,56,1,48,31,1055049792
116,10,22,Ticks_Phase_8,57,1,48,30,1055812280
116,10,22,Ticks_Phase_8,58,5,42,127,1055842564
116,10,22,Ticks_Phase_8,59,5,42,127,1056623036
116,10,22,Ticks_Phase_8,60,1,48,29,1056665024
116,10,22,Ticks_Phase_8,61,1,48,29,1057419412
116,10,22,Ticks_Phase_8,62,5,42,127,1057422664
116,10,22,Ticks_Phase_8,63,1,48,28,1058220592
116,10,22,Ticks_Phase_8,64,5,42,127,1058222404
116,10,22,Ticks_Phase_8,65,1,48,27,1059006352
116,10,22,Ticks_Phase_8,66,5,42,127,1059023160
116,10,22,Ticks_Phase_8,67,1,48,30,1059765928
116,10,22,Ticks_Phase_8,68,5,42,127,1059823020
116,10,22,Ticks_Phase_8,69,1,48,28,1060587280
116,10,22,Ticks_Phase_8,70,5,42,127,1060622736
116,10,22,Ticks_Phase_8,71,1,48,24,1061371124
116,10,22,Ticks_Phase_8,72,5,42,127,1061422448
116,10,22,Ticks_Phase_8,73,1,48,27,1062201088
116,10,22,Ticks_Phase_8,74,5,42,127,1062223132
116,10,22,Ticks_Phase_8,75,1,48,23,1063010760
116,10,22,Ticks_Phase_8,76,5,42,127,1063023064
116,10,22,Ticks_Phase_8,77,1,48,21,1063797508
116,10,22,Ticks_Phase_8,78,5,42,127,1063822852
116,10,22,Ticks_Phase_8,79,1,48,22,1064608228
116,10,22,Ticks_Phase_8,80,5,42,127,1064622364
116,10,22,Ticks_Phase_8,81,5,42,127,1065423204
116,10,22,Ticks_Phase_8,82,1,48,21,1065435312
116,10,22,Ticks_Phase_8,83,5,42,127,1066223064
116,10,22,Ticks_Phase_8,84,1,48,25,1066251580
116,10,22,Ticks_Phase_8,85,1,48,21,1066985072
116,10,22,Ticks_Phase_8,86,5,42,127,1067022844
116,10,22,Ticks_Phase_8,87,1,48,21,1067774076
116,10,22,Ticks_Phase_8,88,5,42,127,1067822332
116,10,22,Ticks_Phase_8,89,1,48,22,1068587416
116,10,22,Ticks_Phase_8,90,5,42,127,1068623168
116,10,22,Ticks_Phase_8,91,5,42,127,1069423108
116,10,22,Ticks_Phase_8,92,1,48,25,1069442032
116,10,22,Ticks_Phase_8,93,5,42,127,1070222968
116,10,22,Ticks_Phase_8,94,1,48,28,1070261840
116,10,22,Ticks_Phase_8,95,1,48,26,1071041488
116,10,22,Ticks_Phase_8,96,5,42,127,1071043068
116,10,22,Ticks_Phase_8,97,1,48,23,1071807328
116,10,22,Ticks_Phase_8,98,5,42,127,1071842780
116,10,22,Ticks_Phase_8,99,1,48,24,1072633700
116,10,22,Ticks_Phase_8,100,5,42,127,1072642272
116,10,22,Ticks_Phase_8,101,1,48,22,1073434608
116,10,22,Ticks_Phase_8,102,5,42,127,1073443104
116,10,22,Ticks_Phase_8,103,1,48,25,1074209084
116,10,22,Ticks_Phase_8,104,5,42,127,1074242888
116,10,22,Ticks_Phase_8,105,1,48,23,1075023624
116,10,22,Ticks_Phase_8,106,5,42,127,1075042824
116,10,22,Ticks_Phase_8,107,5,42,127,1075842540
116,10,22,Ticks_Phase_8,108,1,48,24,1075850540
116,10,22,Ticks_Phase_8,109,1,48,19,1076608736
116,10,22,Ticks_Phase_8,110,5,42,127,1076643072
116,10,22,Ticks_Phase_8,111,1,48,20,1077403584
116,10,22,Ticks_Phase_8,112,5,42,127,1077442880
116,10,22,Ticks_Phase_8,113,1,48,23,1078233132
116,10,22,Ticks_Phase_8,114,5,42,127,1078242888
116,10,22,Ticks_Phase_8,115,1,48,20,1079012548
116,10,22,Ticks_Phase_8,116,5,42,127,1079042452
116,10,22,Ticks_Phase_8,117,1,48,22,1079823492
116,10,22,Ticks_Phase_8,118,5,42,127,1079843212
116,10,22,Ticks_Phase_8,119,1,48,21,1080608896
116,10,22,Ticks_Phase_8,120,5,42,127,1080642852
116,10,22,Ticks_Phase_8,121,1,48,20,1081434068
116,10,22,Ticks_Phase_8,122,5,42,127,1081442784
116,10,22,Ticks_Phase_8,123,5,42,127,1082242580
116,10,22,Ticks_Phase_8,124,1,48,19,1082251844
116,10,22,Ticks_Phase_8,125,1,48,25,1083039852
116,10,22,Ticks_Phase_8,126,5,42,127,1083043180
116,10,22,Ticks_Phase_8,127,1,48,26,1083838992
116,10,22,Ticks_Phase_8,128,5,42,127,1083882836
116,10,22,Ticks_Phase_8,129,5,42,127,1084682704
116,10,22,Ticks_Phase_8,130,1,48,25,1084683668
116,10,22,Ticks_Phase_8,131,5,42,127,1085483536
116,10,22,Ticks_Phase_8,132,1,48,21,1085484500
116,10,22,Ticks_Phase_8,133,5,42,127,1086283248
116,10,22,Ticks_Phase_8,134,1,48,20,1086289960
116,10,22,Ticks_Phase_8,135,5,42,127,1087082812
116,10,22,Ticks_Phase_8,136,1,48,21,1087092224
116,10,22,Ticks_Phase_8,137,5,42,127,1087882896
116,10,22,Ticks_Phase_8,138,1,48,26,1087886764
116,10,22,Ticks_Phase_8,139,5,42,127,1088683456
116,10,22,Ticks_Phase_8,140,1,48,25,1088686648
116,10,22,Ticks_Phase_8,141,1,48,25,1089474368
116,10,22,Ticks_Phase_8,142,5,42,127,1089483084
116,10,22,Ticks_Phase_8,143,5,42,127,1090282804
116,10,22,Ticks_Phase_8,144,1,48,21,1090297980
116,10,22,Ticks_Phase_8,145,5,42,127,1091082664
116,10,22,Ticks_Phase_8,146,1,48,22,1091086228
116,10,22,Ticks_Phase_8,147,1,48,23,1091882068
116,10,22,Ticks_Phase_8,148,5,42,127,1091883640
116,10,22,Ticks_Phase_8,149,5,42,127,1092683360
116,10,22,Ticks_Phase_8,150,1,48,23,1092693892
116,10,22,Ticks_Phase_8,151,1,48,17,1093455104
116,10,22,Ticks_Phase_8,152,5,42,127,1093482988
116,10,22,Ticks_Phase_8,153,5,42,127,1094282560
116,10,22,Ticks_Phase_8,154,1,48,22,1094285224
116,10,22,Ticks_Phase_8,155,5,42,127,1095083416
116,10,22,Ticks_Phase_8,156,1,48,21,1095094328
116,10,22,Ticks_Phase_8,157,1,48,29,1095871716
116,10,22,Ticks_Phase_8,158,5,42,127,1095883044
116,10,22,Ticks_Phase_8,159,1,48,22,1096675760
116,10,22,Ticks_Phase_8,160,5,42,127,1096682832
116,10,22,Ticks_Phase_8,161,5,42,127,1097442784
116,10,22,Ticks_Phase_8,162,1,48,20,1097479376
116,10,22,Ticks_Phase_8,163,1,48,19,1098236764
116,10,22,Ticks_Phase_8,164,5,42,127,1098242492
116,10,22,Ticks_Phase_8,165,1,48,24,1099019100
116,10,22,Ticks_Phase_8,166,5,42,127,1099043468
116,10,22,Ticks_Phase_8,167,1,48,22,1099817468
116,10,22,Ticks_Phase_8,168,5,42,127,1099843032
116,10,22,Ticks_Phase_8,169,1,48,20,1100602804
116,10,22,Ticks_Phase_8,170,5,42,127,1100642672
116,10,22,Ticks_Phase_8,171,1,48,16,1101403416
116,10,22,Ticks_Phase_8,172,5,42,127,1101442456
116,10,22,Ticks_Phase_8,173,1,48,24,1102230764
116,10,22,Ticks_Phase_8,174,5,42,127,1102243588
116,10,22,Ticks_Phase_8,175,1,48,24,1103028296
116,10,22,Ticks_Phase_8,176,5,42,127,1103042928
116,10,22,Ticks_Phase_8,177,1,48,26,1103842572
116,10,22,Ticks_Phase_8,178,5,42,127,1103843984
116,10,22,Ticks_Phase_8,179,1,48,20,1104634680
116,10,22,Ticks_Phase_8,180,5,42,127,1104642276
116,10,22,Ticks_Phase_8,181,5,42,127,1105443340
116,10,22,Ticks_Phase_8,182,1,48,25,1105444304
116,10,22,Ticks_Phase_8,183,5,42,127,1106242828
116,10,22,Ticks_Phase_8,184,1,48,22,1106269608
116,10,22,Ticks_Phase_8,185,1,48,20,1107021536
116,10,22,Ticks_Phase_8,186,5,42,127,1107042532
116,10,22,Ticks_Phase_8,187,1,48,21,1107788368
116,10,22,Ticks_Phase_8,188,5,42,127,1107842392
116,10,22,Ticks_Phase_8,189,1,48,24,1108611528
116,10,22,Ticks_Phase_8,190,5,42,127,1108643228
116,10,22,Ticks_Phase_8,191,1,48,15,1109397424
116,10,22,Ticks_Phase_8,192,5,42,127,1109442864
116,10,22,Ticks_Phase_8,193,5,42,127,1110162732
116,10,22,Ticks_Phase_8,194,1,48,24,1110190892
116,10,22,Ticks_Phase_8,195,1,48,21,1110906016
116,10,22,Ticks_Phase_8,196,5,42,127,1110962608
116,10,22,Ticks_Phase_8,197,1,48,17,1111694420
116,10,22,Ticks_Phase_8,198,5,42,127,1111763368
116,10,22,Ticks_Phase_8,199,1,48,20,1112541488
116,10,22,Ticks_Phase_8,200,5,42,127,1112563304
116,10,22,Ticks_Phase_8,201,1,48,23,1113345164
116,10,22,Ticks_Phase_8,202,5,42,127,1113362940
116,10,22,Ticks_Phase_8,203,1,48,23,1114158500
116,10,22,Ticks_Phase_8,204,5,42,127,1114162652
116,10,22,Ticks_Phase_8,205,1,48,25,1114948176
116,10,22,Ticks_Phase_8,206,5,42,127,1114963336
116,10,22,Ticks_Phase_8,207,1,48,23,1115744300
116,10,22,Ticks_Phase_8,208,5,42,127,1115763272
116,10,22,Ticks_Phase_8,209,1,48,21,1116533228
116,10,22,Ticks_Phase_8,210,5,42,127,1116562760
116,10,22,Ticks_Phase_8,211,5,42,127,1117362652
116,10,22,Ticks_Phase_8,212,1,48,20,1117374912
116,10,22,Ticks_Phase_8,213,1,48,21,1118116948
116,10,22,Ticks_Phase_8,214,5,42,127,1118163332
116,10,22,Ticks_Phase_8,215,1,48,19,1118918756
116,10,22,Ticks_Phase_8,216,5,42,127,1118963344
116,10,22,Ticks_Phase_8,217,1,48,20,1119753296
116,10,22,Ticks_Phase_8,218,5,42,127,1119762832
116,10,22,Ticks_Phase_8,219,1,48,16,1120527464
116,10,22,Ticks_Phase_8,220,5,42,127,1120562620
116,10,22,Ticks_Phase_8,221,1,48,21,1121343732
116,10,22,Ticks_Phase_8,222,5,42,127,1121363300
116,10,22,Ticks_Phase_8,223,5,42,127,1122163172
116,10,22,Ticks_Phase_8,224,1,48,19,1122205528
116,10,22,Ticks_Phase_8,225,1,48,24,1122936256
116,10,22,Ticks_Phase_8,226,5,42,127,1122962728
116,10,22,Ticks_Phase_8,227,1,48,19,1123734776
116,10,22,Ticks_Phase_8,228,5,42,127,1123842356
116,10,22,Ticks_Phase_8,229,5,42,127,1124643212
116,10,22,Ticks_Phase_8,230,1,48,18,1124645076
116,10,22,Ticks_Phase_8,231,5,42,127,1125443072
116,10,22,Ticks_Phase_8,232,1,48,19,1125447992
116,10,22,Ticks_Phase_8,233,1,48,19,1126241432
116,10,22,Ticks_Phase_8,234,5,42,127,1126243076
116,10,22,Ticks_Phase_8,235,1,48,17,1126987488
116,10,22,Ticks_Phase_8,236,5,42,127,1127042488
116,10,22,Ticks_Phase_8,237,1,48,18,1127815808
116,10,22,Ticks_Phase_8,238,5,42,127,1127843176
116,10,22,Ticks_Phase_8,239,1,48,17,1128621544
116,10,22,Ticks_Phase_8,240,5,42,127,1128643136
116,10,22,Ticks_Phase_8,241,1,48,21,1129422228
116,10,22,Ticks_Phase_8,242,5,42,127,1129442696
116,10,22,Ticks_Phase_8,243,5,42,127,1130242492
116,10,22,Ticks_Phase_8,244,1,48,24,1130259908
116,10,22,Ticks_Phase_8,245,1,48,22,1131031836
116,10,22,Ticks_Phase_8,246,5,42,127,1131043168
116,10,22,Ticks_Phase_8,247,1,48,24,1131836708
116,10,22,Ticks_Phase_8,248,5,42,127,1131843100
116,10,22,Ticks_Phase_8,249,1,48,20,1132607888
116,10,22,Ticks_Phase_8,250,5,42,127,1132642888
116,10,22,Ticks_Phase_8,251,5,42,127,1133442532
116,10,22,Ticks_Phase_8,252,1,48,26,1133448944
116,10,22,Ticks_Phase_8,253,5,42,127,1134243292
116,10,22,Ticks_Phase_8,254,1,48,29,1134283184
116,10,22,Ticks_Phase_8,255,5,42,127,1135043000
116,10,22,Ticks_Phase_8,256,1,48,26,1135062900
116,10,22,Ticks_Phase_8,257,1,48,22,1135813248
116,10,22,Ticks_Phase_8,258,5,42,127,1135842856
116,10,22,Ticks_Phase_8,259,5,42,127,1136642500
116,10,22,Ticks_Phase_8,260,1,48,24,1136652960
116,10,22,Ticks_Phase_8,261,1,48,17,1137420984
116,10,22,Ticks_Phase_8,262,5,42,127,1137603072
116,10,22,Ticks_Phase_8,263,5,42,127,1138402804
116,10,22,Ticks_Phase_8,264,1,48,20,1138471604
116,10,22,Ticks_Phase_8,265,5,42,127,1139202444
116,10,22,Ticks_Phase_8,266,1,48,21,1139216192
116,10,22,Ticks_Phase_8,267,1,48,22,1139975532
116,10,22,Ticks_Phase_8,268,5,42,127,1140003048
116,10,22,Ticks_Phase_8,269,1,48,24,1140765808
116,10,22,Ticks_Phase_8,270,5,42,127,1140802908
116,10,22,Ticks_Phase_8,271,1,48,24,1141597572
116,10,22,Ticks_Phase_8,272,5,42,127,1141602916
116,10,22,Ticks_Phase_8,273,1,48,24,1142395780
116,10,22,Ticks_Phase_8,274,5,42,127,1142402552
116,10,22,Ticks_Phase_8,275,1,48,25,1143196168
116,10,22,Ticks_Phase_8,276,5,42,127,1143203092
116,10,22,Ticks_Phase_8,277,5,42,127,1144003032
116,10,22,Ticks_Phase_8,278,1,48,24,1144023900
116,10,22,Ticks_Phase_8,279,1,48,21,1144776872
116,10,22,Ticks_Phase_8,280,5,42,127,1144802888
116,10,22,Ticks_Phase_8,281,1,48,22,1145556512
116,10,22,Ticks_Phase_8,282,5,42,127,1145602448
116,10,22,Ticks_Phase_8,283,1,48,22,1146346260
116,10,22,Ticks_Phase_8,284,5,42,127,1146403280
116,10,22,Ticks_Phase_8,285,1,48,21,1147131600
116,10,22,Ticks_Phase_8,286,5,42,127,1147202992
116,10,22,Ticks_Phase_8,287,1,48,21,1147934300
116,10,22,Ticks_Phase_8,288,5,42,127,1148002852
116,10,22,Ticks_Phase_8,289,1,48,21,1148797516
116,10,22,Ticks_Phase_8,290,5,42,127,1148802492
116,10,22,Ticks_Phase_8,291,5,42,127,1149603356
116,10,22,Ticks_Phase_8,292,1,48,23,1149612472
116,10,22,Ticks_Phase_8,293,5,42,127,1150402992
116,10,22,Ticks_Phase_8,294,1,48,22,1150405664
116,10,22,Ticks_Phase_8,295,1,48,21,1151166872
116,10,22,Ticks_Phase_8,296,5,42,127,1151202772
116,10,22,Ticks_Phase_8,297,1,48,22,1151981416
116,10,22,Ticks_Phase_8,298,5,42,127,1152002708
116,10,22,Ticks_Phase_8,299,5,42,127,1152642372
116,10,22,Ticks_Phase_8,300,1,48,22,1152805772
116,10,22,Ticks_Phase_8,301,5,42,127,1153443228
116,10,22,Ticks_Phase_8,302,5,42,127,1154242964
116,10,22,Ticks_Phase_8,303,1,48,22,1154277088
116,10,22,Ticks_Phase_8,304,1,48,21,1155020612
116,10,22,Ticks_Phase_8,305,5,42,127,1155042744
116,10,22,Ticks_Phase_8,306,1,48,23,1155803860
116,10,22,Ticks_Phase_8,307,5,42,127,1155842380
116,10,22,Ticks_Phase_8,308,1,48,28,1156642620
116,10,22,Ticks_Phase_8,309,5,42,127,1156644112
116,10,22,Ticks_Phase_8,310,1,48,23,1157425672
116,10,22,Ticks_Phase_8,311,5,42,127,1157442924
116,10,22,Ticks_Phase_8,312,1,48,24,1158219164
116,10,22,Ticks_Phase_8,313,5,42,127,1158242636
116,10,22,Ticks_Phase_8,314,1,48,21,1159013188
116,10,22,Ticks_Phase_8,315,5,42,127,1159042496
116,10,22,Ticks_Phase_8,316,1,48,24,1159822640
116,10,22,Ticks_Phase_8,317,5,42,127,1159843280
116,10,22,Ticks_Phase_8,318,1,48,24,1160604072
116,10,22,Ticks_Phase_8,319,5,42,127,1160642916
116,10,22,Ticks_Phase_8,320,1,48,27,1161434216
116,10,22,Ticks_Phase_8,321,5,42,127,1161442704
116,10,22,Ticks_Phase_8,322,5,42,127,1162242572
116,10,22,Ticks_Phase_8,323,1,48,27,1162245764
116,10,22,Ticks_Phase_8,324,1,48,26,1163026892
116,10,22,Ticks_Phase_8,325,5,42,127,1163043172
116,10,22,Ticks_Phase_8,326,1,48,22,1163792464
116,10,22,Ticks_Phase_8,327,5,42,127,1163842960
116,10,22,Ticks_Phase_8,328,1,48,26,1164622200
116,10,22,Ticks_Phase_8,329,5,42,127,1164642596
116,10,22,Ticks_Phase_8,330,1,48,22,1165402588
116,10,22,Ticks_Phase_8,331,5,42,127,1165442380
116,10,22,Ticks_Phase_8,332,1,48,22,1166187020
116,10,22,Ticks_Phase_8,333,5,42,127,1166243464
116,10,22,Ticks_Phase_8,334,1,48,21,1166993320
116,10,22,Ticks_Phase_8,335,5,42,127,1167043024
116,10,22,Ticks_Phase_8,336,1,48,24,1167823312
116,10,22,Ticks_Phase_8,337,5,42,127,1167842660
116,10,22,Ticks_Phase_8,0,9999,9999,9999,1032640616
116,10,22,Ticks_Phase_8,1,9999,9999,9999,1033440328
116,10,22,Ticks_Phase_8,2,9999,9999,9999,1034240056
116,10,22,Ticks_Phase_8,3,9999,9999,9999,1035040888
116,10,22,Ticks_Phase_8,4,9999,9999,9999,1035840600
116,10,22,Ticks_Phase_8,5,9999,9999,9999,1036640316
116,10,22,Ticks_Phase_8,6,9999,9999,9999,1037440100
116,10,22,Ticks_Phase_8,7,9999,9999,9999,1038240860
116,10,22,Ticks_Phase_8,8,9999,9999,9999,1039040596
116,10,22,Ticks_Phase_8,9,9999,9999,9999,1039840384
116,10,22,Ticks_Phase_8,10,9999,9999,9999,1040640096
116,10,22,Ticks_Phase_8,11,9999,9999,9999,1041440852
116,10,22,Ticks_Phase_8,12,9999,9999,9999,1042240564
116,10,22,Ticks_Phase_8,13,9999,9999,9999,1043040352
116,10,22,Ticks_Phase_8,14,9999,9999,9999,1043840064
116,10,22,Ticks_Phase_8,15,9999,9999,9999,1044640824
116,10,22,Ticks_Phase_8,16,9999,9999,9999,1045440632
116,10,22,Ticks_Phase_8,17,9999,9999,9999,1046240352
116,10,22,Ticks_Phase_8,18,9999,9999,9999,1047040064
116,10,22,Ticks_Phase_8,19,9999,9999,9999,1047840888
116,10,22,Ticks_Phase_8,20,9999,9999,9999,1048640600
116,10,22,Ticks_Phase_8,21,9999,9999,9999,1049440312
116,10,22,Ticks_Phase_8,22,9999,9999,9999,1050240104
116,10,22,Ticks_Phase_8,23,9999,9999,9999,1051040856
116,10,22,Ticks_Phase_8,24,9999,9999,9999,1051840592
116,10,22,Ticks_Phase_8,25,9999,9999,9999,1052640312
116,10,22,Ticks_Phase_8,26,9999,9999,9999,1053440092
116,10,22,Ticks_Phase_8,27,9999,9999,9999,1054240852
116,10,22,Ticks_Phase_8,28,9999,9999,9999,1055040568
116,10,22,Ticks_Phase_8,29,9999,9999,9999,1055840348
116,10,22,Ticks_Phase_8,30,9999,9999,9999,1056620600
116,10,22,Ticks_Phase_8,31,9999,9999,9999,1057420380
116,10,22,Ticks_Phase_8,32,9999,9999,9999,1058220140
116,10,22,Ticks_Phase_8,33,9999,9999,9999,1059020872
116,10,22,Ticks_Phase_8,34,9999,9999,9999,1059820660
116,10,22,Ticks_Phase_8,35,9999,9999,9999,1060620376
116,10,22,Ticks_Phase_8,36,9999,9999,9999,1061420084
116,10,22,Ticks_Phase_8,37,9999,9999,9999,1062220920
116,10,22,Ticks_Phase_8,38,9999,9999,9999,1063020632
116,10,22,Ticks_Phase_8,39,9999,9999,9999,1063820344
116,10,22,Ticks_Phase_8,40,9999,9999,9999,1064620152
116,10,22,Ticks_Phase_8,41,9999,9999,9999,1065420916
116,10,22,Ticks_Phase_8,42,9999,9999,9999,1066220628
116,10,22,Ticks_Phase_8,43,9999,9999,9999,1067020408
116,10,22,Ticks_Phase_8,44,9999,9999,9999,1067820120
116,10,22,Ticks_Phase_8,45,9999,9999,9999,1068620880
116,10,22,Ticks_Phase_8,46,9999,9999,9999,1069420596
116,10,22,Ticks_Phase_8,47,9999,9999,9999,1070220384
116,10,22,Ticks_Phase_8,48,9999,9999,9999,1071040640
116,10,22,Ticks_Phase_8,49,9999,9999,9999,1071840348
116,10,22,Ticks_Phase_8,50,9999,9999,9999,1072640060
116,10,22,Ticks_Phase_8,51,9999,9999,9999,1073440892
116,10,22,Ticks_Phase_8,52,9999,9999,9999,1074240604
116,10,22,Ticks_Phase_8,53,9999,9999,9999,1075040312
116,10,22,Ticks_Phase_8,54,9999,9999,9999,1075840108
116,10,22,Ticks_Phase_8,55,9999,9999,9999,1076640860
116,10,22,Ticks_Phase_8,56,9999,9999,9999,1077440592
116,10,22,Ticks_Phase_8,57,9999,9999,9999,1078240380
116,10,22,Ticks_Phase_8,58,9999,9999,9999,1079040092
116,10,22,Ticks_Phase_8,59,9999,9999,9999,1079840848
116,10,22,Ticks_Phase_8,60,9999,9999,9999,1080640640
116,10,22,Ticks_Phase_8,61,9999,9999,9999,1081440352
116,10,22,Ticks_Phase_8,62,9999,9999,9999,1082240068
116,10,22,Ticks_Phase_8,63,9999,9999,9999,1083040892
116,10,22,Ticks_Phase_8,64,9999,9999,9999,1083880548
116,10,22,Ticks_Phase_8,65,9999,9999,9999,1084680268
116,10,22,Ticks_Phase_8,66,9999,9999,9999,1085481028
116,10,22,Ticks_Phase_8,67,9999,9999,9999,1086280812
116,10,22,Ticks_Phase_8,68,9999,9999,9999,1087080524
116,10,22,Ticks_Phase_8,69,9999,9999,9999,1087880308
116,10,22,Ticks_Phase_8,70,9999,9999,9999,1088681020
116,10,22,Ticks_Phase_8,71,9999,9999,9999,1089480800
116,10,22,Ticks_Phase_8,72,9999,9999,9999,1090280516
116,10,22,Ticks_Phase_8,73,9999,9999,9999,1091080304
116,10,22,Ticks_Phase_8,74,9999,9999,9999,1091881060
116,10,22,Ticks_Phase_8,75,9999,9999,9999,1092680776
116,10,22,Ticks_Phase_8,76,9999,9999,9999,1093480552
116,10,22,Ticks_Phase_8,77,9999,9999,9999,1094280272
116,10,22,Ticks_Phase_8,78,9999,9999,9999,1095081056
116,10,22,Ticks_Phase_8,79,9999,9999,9999,1095880760
116,10,22,Ticks_Phase_8,80,9999,9999,9999,1096680544
116,10,22,Ticks_Phase_8,81,9999,9999,9999,1097440348
116,10,22,Ticks_Phase_8,82,9999,9999,9999,1098240056
116,10,22,Ticks_Phase_8,83,9999,9999,9999,1099040888
116,10,22,Ticks_Phase_8,84,9999,9999,9999,1099840600
116,10,22,Ticks_Phase_8,85,9999,9999,9999,1100640312
116,10,22,Ticks_Phase_8,86,9999,9999,9999,1101440096
116,10,22,Ticks_Phase_8,87,9999,9999,9999,1102240856
116,10,22,Ticks_Phase_8,88,9999,9999,9999,1103040568
116,10,22,Ticks_Phase_8,89,9999,9999,9999,1103840360
116,10,22,Ticks_Phase_8,90,9999,9999,9999,1104640064
116,10,22,Ticks_Phase_8,91,9999,9999,9999,1105440828
116,10,22,Ticks_Phase_8,92,9999,9999,9999,1106240616
116,10,22,Ticks_Phase_8,93,9999,9999,9999,1107040320
116,10,22,Ticks_Phase_8,94,9999,9999,9999,1107840108
116,10,22,Ticks_Phase_8,95,9999,9999,9999,1108640864
116,10,22,Ticks_Phase_8,96,9999,9999,9999,1109440576
116,10,22,Ticks_Phase_8,97,9999,9999,9999,1110160444
116,10,22,Ticks_Phase_8,98,9999,9999,9999,1110960248
116,10,22,Ticks_Phase_8,99,9999,9999,9999,1111761008
116,10,22,Ticks_Phase_8,100,9999,9999,9999,1112560720
116,10,22,Ticks_Phase_8,101,9999,9999,9999,1113360504
116,10,22,Ticks_Phase_8,102,9999,9999,9999,1114160216
116,10,22,Ticks_Phase_8,103,9999,9999,9999,1114960976
116,10,22,Ticks_Phase_8,104,9999,9999,9999,1115760764
116,10,22,Ticks_Phase_8,105,9999,9999,9999,1116560476
116,10,22,Ticks_Phase_8,106,9999,9999,9999,1117360216
116,10,22,Ticks_Phase_8,107,9999,9999,9999,1118160972
116,10,22,Ticks_Phase_8,108,9999,9999,9999,1118960756
116,10,22,Ticks_Phase_8,109,9999,9999,9999,1119760472
116,10,22,Ticks_Phase_8,110,9999,9999,9999,1120560184
116,10,22,Ticks_Phase_8,111,9999,9999,9999,1121361016
116,10,22,Ticks_Phase_8,112,9999,9999,9999,1122160736
116,10,22,Ticks_Phase_8,113,9999,9999,9999,1122960440
116,10,22,Ticks_Phase_8,114,9999,9999,9999,1123840068
116,10,22,Ticks_Phase_8,115,9999,9999,9999,1124640848
116,10,22,Ticks_Phase_8,116,9999,9999,9999,1125440636
116,10,22,Ticks_Phase_8,117,9999,9999,9999,1126240348
116,10,22,Ticks_Phase_8,118,9999,9999,9999,1127040128
116,10,22,Ticks_Phase_8,119,9999,9999,9999,1127840888
116,10,22,Ticks_Phase_8,120,9999,9999,9999,1128640624
116,10,22,Ticks_Phase_8,121,9999,9999,9999,1129440336
116,10,22,Ticks_Phase_8,122,9999,9999,9999,1130240052
116,10,22,Ticks_Phase_8,123,9999,9999,9999,1131040880
116,10,22,Ticks_Phase_8,124,9999,9999,9999,1131840592
116,10,22,Ticks_Phase_8,125,9999,9999,9999,1132640380
116,10,22,Ticks_Phase_8,126,9999,9999,9999,1133440096
116,10,22,Ticks_Phase_8,127,9999,9999,9999,1134240856
116,10,22,Ticks_Phase_8,128,9999,9999,9999,1135040564
116,10,22,Ticks_Phase_8,129,9999,9999,9999,1135840344
116,10,22,Ticks_Phase_8,130,9999,9999,9999,1136640064
116,10,22,Ticks_Phase_8,131,9999,9999,9999,1137600636
116,10,22,Ticks_Phase_8,132,9999,9999,9999,1138400372
116,10,22,Ticks_Phase_8,133,9999,9999,9999,1139200084
116,10,22,Ticks_Phase_8,134,9999,9999,9999,1140000836
116,10,22,Ticks_Phase_8,135,9999,9999,9999,1140800620
116,10,22,Ticks_Phase_8,136,9999,9999,9999,1141600332
116,10,22,Ticks_Phase_8,137,9999,9999,9999,1142400120
116,10,22,Ticks_Phase_8,138,9999,9999,9999,1143200880
116,10,22,Ticks_Phase_8,139,9999,9999,9999,1144000596
116,10,22,Ticks_Phase_8,140,9999,9999,9999,1144800376
116,10,22,Ticks_Phase_8,141,9999,9999,9999,1145600088
116,10,22,Ticks_Phase_8,142,9999,9999,9999,1146400844
116,10,22,Ticks_Phase_8,143,9999,9999,9999,1147200632
116,10,22,Ticks_Phase_8,144,9999,9999,9999,1148000344
116,10,22,Ticks_Phase_8,145,9999,9999,9999,1148800056
116,10,22,Ticks_Phase_8,146,9999,9999,9999,1149600896
116,10,22,Ticks_Phase_8,147,9999,9999,9999,1150400632
116,10,22,Ticks_Phase_8,148,9999,9999,9999,1151200336
116,10,22,Ticks_Phase_8,149,9999,9999,9999,1152000124
116,10,22,Ticks_Phase_8,150,9999,9999,9999,1152640084
116,10,22,Ticks_Phase_8,151,9999,9999,9999,1153440844
116,10,22,Ticks_Phase_8,152,9999,9999,9999,1154240604
116,10,22,Ticks_Phase_8,153,9999,9999,9999,1155040384
116,10,22,Ticks_Phase_8,154,9999,9999,9999,1155840096
116,10,22,Ticks_Phase_8,155,9999,9999,9999,1156640860
116,10,22,Ticks_Phase_8,156,9999,9999,9999,1157440640
116,10,22,Ticks_Phase_8,157,9999,9999,9999,1158240352
116,10,22,Ticks_Phase_8,158,9999,9999,9999,1159040064
116,10,22,Ticks_Phase_8,159,9999,9999,9999,1159840896
116,10,22,Ticks_Phase_8,160,9999,9999,9999,1160640632
116,10,22,Ticks_Phase_8,161,9999,9999,9999,1161440344
116,10,22,Ticks_Phase_8,162,9999,9999,9999,1162240060
116,10,22,Ticks_Phase_8,163,9999,9999,9999,1163040888
116,10,22,Ticks_Phase_8,164,9999,9999,9999,1163840600
116,10,22,Ticks_Phase_8,165,9999,9999,9999,1164640312
116,10,22,Ticks_Phase_8,166,9999,9999,9999,1165440096
116,10,22,Ticks_Phase_8,167,9999,9999,9999,1166240856
116,10,22,Ticks_Phase_8,168,9999,9999,9999,1167040588
116,10,22,Ticks_Phase_8,169,9999,9999,9999,1167840376
116,11,25,Jits_Pract_5,0,5,56,103,1224145572
116,11,25,Jits_Pract_5,1,5,63,98,1224148592
116,11,25,Jits_Pract_5,2,5,80,127,1224151712
116,11,25,Jits_Pract_5,0,5,56,103,1224644992
116,11,25,Jits_Pract_5,1,5,63,98,1224648316
116,11,25,Jits_Pract_5,2,5,80,127,1224651364
116,11,25,Jits_Pract_5,0,5,56,103,1225144660
116,11,25,Jits_Pract_5,1,5,80,127,1225154932
116,11,25,Jits_Pract_5,2,5,63,98,1225175464
116,11,25,Jits_Pract_5,0,5,63,98,1225595456
116,11,25,Jits_Pract_5,1,5,80,127,1225624908
116,11,25,Jits_Pract_5,2,5,56,103,1225635128
116,11,25,Jits_Pract_5,0,5,80,127,1226155592
116,11,25,Jits_Pract_5,1,5,56,103,1226164520
116,11,25,Jits_Pract_5,2,5,63,98,1226195464
116,11,25,Jits_Pract_5,0,5,63,98,1226644824
116,11,25,Jits_Pract_5,1,5,56,103,1226674600
116,11,25,Jits_Pract_5,2,5,80,127,1226684720
116,11,25,Jits_Pract_5,0,5,56,103,1227095560
116,11,25,Jits_Pract_5,1,5,63,98,1227144492
116,11,25,Jits_Pract_5,2,5,80,127,1227165100
116,11,25,Jits_Pract_5,0,5,80,127,1227595128
116,11,25,Jits_Pract_5,1,5,63,98,1227645628
116,11,25,Jits_Pract_5,2,5,56,103,1227685368
116,11,25,Jits_Pract_5,0,5,56,103,1228094800
116,11,25,Jits_Pract_5,1,5,63,98,1228124624
116,11,25,Jits_Pract_5,2,5,80,127,1228195224
116,11,25,Jits_Pract_5,0,5,56,103,1228594544
116,11,25,Jits_Pract_5,1,5,80,127,1228654936
116,11,25,Jits_Pract_5,2,5,63,98,1228684612
116,11,25,Jits_Pract_5,0,5,56,103,1229104480
116,11,25,Jits_Pract_5,1,5,63,98,1229114676
116,11,25,Jits_Pract_5,2,5,80,127,1229154540
116,11,25,Jits_Pract_5,0,5,63,98,1229595076
116,11,25,Jits_Pract_5,1,5,80,127,1229674800
116,11,25,Jits_Pract_5,2,5,56,103,1229685068
116,11,25,Jits_Pract_5,0,5,63,98,1230144780
116,11,25,Jits_Pract_5,1,5,56,103,1230184864
116,11,25,Jits_Pract_5,2,5,80,127,1230188008
116,11,25,Jits_Pract_5,0,5,56,103,1230604644
116,11,25,Jits_Pract_5,1,5,63,98,1230614840
116,11,25,Jits_Pract_5,2,5,80,127,1230654776
116,11,25,Jits_Pract_5,0,5,56,103,1231095388
116,11,25,Jits_Pract_5,1,5,63,98,1231098380
116,11,25,Jits_Pract_5,2,5,80,127,1231114576
116,11,25,Jits_Pract_5,0,9999,9999,9999,1224392780
116,11,25,Jits_Pract_5,1,9999,9999,9999,1224892504
116,11,25,Jits_Pract_5,2,9999,9999,9999,1225392252
116,11,25,Jits_Pract_5,3,9999,9999,9999,1225892964
116,11,25,Jits_Pract_5,4,9999,9999,9999,1226392672
116,11,25,Jits_Pract_5,5,9999,9999,9999,1226892344
116,11,25,Jits_Pract_5,6,9999,9999,9999,1227392124
116,11,25,Jits_Pract_5,7,9999,9999,9999,1227892840
116,11,25,Jits_Pract_5,8,9999,9999,9999,1228392508
116,11,25,Jits_Pract_5,9,9999,9999,9999,1228892256
116,11,25,Jits_Pract_5,10,9999,9999,9999,1229392968
116,11,25,Jits_Pract_5,11,9999,9999,9999,1229892712
116,11,25,Jits_Pract_5,12,9999,9999,9999,1230392436
116,11,25,Jits_Pract_5,13,9999,9999,9999,1230892088
116,11,25,Jits_Pract_5,14,9999,9999,9999,1231392860
116,12,25,Jits_Pract_5,0,5,56,103,1282970908
116,12,25,Jits_Pract_5,1,5,63,98,1282974332
116,12,25,Jits_Pract_5,2,5,80,127,1282977448
116,12,25,Jits_Pract_5,0,5,56,103,1283470780
116,12,25,Jits_Pract_5,1,5,63,98,1283474028
116,12,25,Jits_Pract_5,2,5,80,127,1283477224
116,12,25,Jits_Pract_5,0,5,56,103,1283970448
116,12,25,Jits_Pract_5,1,5,80,127,1283980792
116,12,25,Jits_Pract_5,2,5,63,98,1284001128
116,12,25,Jits_Pract_5,0,5,63,98,1284420968
116,12,25,Jits_Pract_5,1,5,80,127,1284450792
116,12,25,Jits_Pract_5,2,5,56,103,1284460840
116,12,25,Jits_Pract_5,0,5,80,127,1284981304
116,12,25,Jits_Pract_5,1,5,56,103,1284991424
116,12,25,Jits_Pract_5,2,5,63,98,1285021200
116,12,25,Jits_Pract_5,0,5,63,98,1285470564
116,12,25,Jits_Pract_5,1,5,56,103,1285501436
116,12,25,Jits_Pract_5,2,5,80,127,1285510512
116,12,25,Jits_Pract_5,3,1,48,28,1285519480
116,12,25,Jits_Pract_5,0,5,56,103,1285921404
116,12,25,Jits_Pract_5,1,1,48,18,1285969416
116,12,25,Jits_Pract_5,2,5,63,98,1285971452
116,12,25,Jits_Pract_5,3,5,80,127,1285990788
116,12,25,Jits_Pract_5,0,5,80,127,1286420812
116,12,25,Jits_Pract_5,1,1,48,16,1286456440
116,12,25,Jits_Pract_5,2,5,63,98,1286471004
116,12,25,Jits_Pract_5,3,5,56,103,1286510944
116,12,25,Jits_Pract_5,0,5,56,103,1286920440
116,12,25,Jits_Pract_5,1,5,63,98,1286951236
116,12,25,Jits_Pract_5,2,1,48,25,1287005224
116,12,25,Jits_Pract_5,3,5,80,127,1287020908
116,12,25,Jits_Pract_5,0,5,56,103,1287421564
116,12,25,Jits_Pract_5,1,1,48,24,1287460952
116,12,25,Jits_Pract_5,2,5,80,127,1287480752
116,12,25,Jits_Pract_5,3,5,63,98,1287511324
116,12,25,Jits_Pract_5,0,5,56,103,1287931532
116,12,25,Jits_Pract_5,1,5,63,98,1287940460
116,12,25,Jits_Pract_5,2,5,80,127,1287981516
116,12,25,Jits_Pract_5,3,1,48,20,1287989292
116,12,25,Jits_Pract_5,0,5,63,98,1288420824
116,12,25,Jits_Pract_5,1,1,48,23,1288440880
116,12,25,Jits_Pract_5,2,5,80,127,1288500540
116,12,25,Jits_Pract_5,3,5,56,103,1288510808
116,12,25,Jits_Pract_5,0,5,63,98,1288970640
116,12,25,Jits_Pract_5,1,1,48,20,1288975480
116,12,25,Jits_Pract_5,2,5,56,103,1289010496
116,12,25,Jits_Pract_5,3,5,80,127,1289013560
116,12,25,Jits_Pract_5,0,5,56,103,1289431512
116,12,25,Jits_Pract_5,1,5,63,98,1289440660
116,12,25,Jits_Pract_5,2,5,80,127,1289480452
116,12,25,Jits_Pract_5,3,1,48,19,1289502224
116,12,25,Jits_Pract_5,0,5,56,103,1289920948
116,12,25,Jits_Pract_5,1,5,63,98,1289924088
116,12,25,Jits_Pract_5,2,5,80,127,1289941332
116,12,25,Jits_Pract_5,3,1,48,21,1289966096
116,12,25,Jits_Pract_5,0,9999,9999,9999,1283218496
116,12,25,Jits_Pract_5,1,9999,9999,9999,1283718216
116,12,25,Jits_Pract_5,2,9999,9999,9999,1284218936
116,12,25,Jits_Pract_5,3,9999,9999,9999,1284718676
116,12,25,Jits_Pract_5,4,9999,9999,9999,1285218408
116,12,25,Jits_Pract_5,5,9999,9999,9999,1285718132
116,12,25,Jits_Pract_5,6,9999,9999,9999,1286218868
116,12,25,Jits_Pract_5,7,9999,9999,9999,1286718576
116,12,25,Jits_Pract_5,8,9999,9999,9999,1287218276
116,12,25,Jits_Pract_5,9,9999,9999,9999,1287719028
116,12,25,Jits_Pract_5,10,9999,9999,9999,1288218732
116,12,25,Jits_Pract_5,11,9999,9999,9999,1288718440
116,12,25,Jits_Pract_5,12,9999,9999,9999,1289218124
116,12,25,Jits_Pract_5,13,9999,9999,9999,1289718860
116,12,25,Jits_Pract_5,14,9999,9999,9999,1290218548
116,13,24,Jits_Pract_8,0,5,56,103,1298762216
116,13,24,Jits_Pract_8,1,5,63,98,1298765164
116,13,24,Jits_Pract_8,2,5,80,127,1298768288
116,13,24,Jits_Pract_8,0,5,56,103,1299561704
116,13,24,Jits_Pract_8,1,5,63,98,1299564952
116,13,24,Jits_Pract_8,2,5,80,127,1299568076
116,13,24,Jits_Pract_8,0,5,80,127,1300302400
116,13,24,Jits_Pract_8,1,5,63,98,1300392408
116,13,24,Jits_Pract_8,2,5,56,103,1300401632
116,13,24,Jits_Pract_8,0,5,56,103,1301122288
116,13,24,Jits_Pract_8,1,5,63,98,1301131588
116,13,24,Jits_Pract_8,2,5,80,127,1301221744
116,13,24,Jits_Pract_8,0,1,48,39,1301873212
116,13,24,Jits_Pract_8,1,5,63,98,1301891372
116,13,24,Jits_Pract_8,2,5,80,127,1301922044
116,13,24,Jits_Pract_8,3,5,56,103,1301952020
116,13,24,Jits_Pract_8,0,1,48,27,1302629196
116,13,24,Jits_Pract_8,1,5,56,103,1302692344
116,13,24,Jits_Pract_8,2,5,80,127,1302791532
116,13,24,Jits_Pract_8,3,5,63,98,1302841804
116,13,24,Jits_Pract_8,0,5,56,103,1303492036
116,13,24,Jits_Pract_8,1,5,80,127,1303542384
116,13,24,Jits_Pract_8,2,1,48,29,1303546772
116,13,24,Jits_Pract_8,3,5,63,98,1303582168
116,13,24,Jits_Pract_8,0,1,48,24,1304275056
116,13,24,Jits_Pract_8,1,5,80,127,1304322508
116,13,24,Jits_Pract_8,2,5,63,98,1304352332
116,13,24,Jits_Pract_8,3,5,56,103,1304421696
116,13,24,Jits_Pract_8,0,1,48,22,1305108600
116,13,24,Jits_Pract_8,1,5,63,98,1305152012
116,13,24,Jits_Pract_8,2,5,56,103,1305181536
116,13,24,Jits_Pract_8,3,5,80,127,1305241984
116,13,24,Jits_Pract_8,0,5,56,103,1305892212
116,13,24,Jits_Pract_8,1,5,80,127,1305895424
116,13,24,Jits_Pract_8,2,1,48,22,1305938028
116,13,24,Jits_Pract_8,3,5,63,98,1306011952
116,13,24,Jits_Pract_8,0,1,48,23,1306695228
116,13,24,Jits_Pract_8,1,5,56,103,1306771976
116,13,24,Jits_Pract_8,2,5,80,127,1306811704
116,13,24,Jits_Pract_8,3,5,63,98,1306821976
116,13,24,Jits_Pract_8,0,1,48,21,1307517540
116,13,24,Jits_Pract_8,1,5,56,103,1307531736
116,13,24,Jits_Pract_8,2,5,80,127,1307552144
116,13,24,Jits_Pract_8,3,5,63,98,1307632000
116,13,24,Jits_Pract_8,0,5,80,127,1308322012
116,13,24,Jits_Pract_8,1,1,48,17,1308337264
116,13,24,Jits_Pract_8,2,5,56,103,1308421356
116,13,24,Jits_Pract_8,3,5,63,98,1308431612
116,13,24,Jits_Pract_8,0,5,63,98,1309092116
116,13,24,Jits_Pract_8,1,5,80,127,1309151832
116,13,24,Jits_Pract_8,2,5,56,103,1309162252
116,13,24,Jits_Pract_8,3,1,48,26,1309169712
116,13,24,Jits_Pract_8,0,5,56,103,1309892016
116,13,24,Jits_Pract_8,1,1,48,27,1309921212
116,13,24,Jits_Pract_8,2,5,63,98,1309961544
116,13,24,Jits_Pract_8,3,5,80,127,1309964832
116,13,24,Jits_Pract_8,0,9999,9999,9999,1299159128
116,13,24,Jits_Pract_8,1,9999,9999,9999,1299959888
116,13,24,Jits_Pract_8,2,9999,9999,9999,1300759624
116,13,24,Jits_Pract_8,3,9999,9999,9999,1301559360
116,13,24,Jits_Pract_8,4,9999,9999,9999,1302359140
116,13,24,Jits_Pract_8,5,9999,9999,9999,1303159868
116,13,24,Jits_Pract_8,6,9999,9999,9999,1303959620
116,13,24,Jits_Pract_8,7,9999,9999,9999,1304759412
116,13,24,Jits_Pract_8,8,9999,9999,9999,1305559100
116,13,24,Jits_Pract_8,9,9999,9999,9999,1306359888
116,13,24,Jits_Pract_8,10,9999,9999,9999,1307159664
116,13,24,Jits_Pract_8,11,9999,9999,9999,1307959352
116,13,24,Jits_Pract_8,12,9999,9999,9999,1308759112
116,13,24,Jits_Pract_8,13,9999,9999,9999,1309559924
116,13,24,Jits_Pract_8,14,9999,9999,9999,1310359668
116,14,19,Jits_Linear_5,0,5,56,103,1340100148
116,14,19,Jits_Linear_5,1,5,63,98,1340103252
116,14,19,Jits_Linear_5,2,5,80,127,1340106368
116,14,19,Jits_Linear_5,0,5,56,103,1340580164
116,14,19,Jits_Linear_5,1,5,63,98,1340583712
116,14,19,Jits_Linear_5,2,5,80,127,1340586684
116,14,19,Jits_Linear_5,0,5,56,103,1341059424
116,14,19,Jits_Linear_5,1,5,80,127,1341069620
116,14,19,Jits_Linear_5,2,5,63,98,1341090252
116,14,19,Jits_Linear_5,0,5,63,98,1341489628
116,14,19,Jits_Linear_5,1,5,80,127,1341520276
116,14,19,Jits_Linear_5,2,5,56,103,1341529648
116,14,19,Jits_Linear_5,0,1,48,40,1341986304
116,14,19,Jits_Linear_5,1,5,80,127,1342030320
116,14,19,Jits_Linear_5,2,5,56,103,1342040592
116,14,19,Jits_Linear_5,3,5,63,98,1342070272
116,14,19,Jits_Linear_5,0,5,63,98,1342509572
116,14,19,Jits_Linear_5,1,1,48,37,1342536508
116,14,19,Jits_Linear_5,2,5,56,103,1342540216
116,14,19,Jits_Linear_5,3,5,80,127,1342550488
116,14,19,Jits_Linear_5,0,5,56,103,1342949848
116,14,19,Jits_Linear_5,1,1,48,28,1342996112
116,14,19,Jits_Linear_5,2,5,63,98,1342999820
116,14,19,Jits_Linear_5,3,5,80,127,1343020356
116,14,19,Jits_Linear_5,0,5,80,127,1343440480
116,14,19,Jits_Linear_5,1,1,48,32,1343457400
116,14,19,Jits_Linear_5,2,5,63,98,1343490532
116,14,19,Jits_Linear_5,3,5,56,103,1343530468
116,14,19,Jits_Linear_5,0,5,56,103,1343929772
116,14,19,Jits_Linear_5,1,5,63,98,1343960424
116,14,19,Jits_Linear_5,2,1,48,35,1343976420
116,14,19,Jits_Linear_5,3,5,80,127,1344029948
116,14,19,Jits_Linear_5,0,5,56,103,1344420408
116,14,19,Jits_Linear_5,1,1,48,29,1344462340
116,14,19,Jits_Linear_5,2,5,80,127,1344479600
116,14,19,Jits_Linear_5,3,5,63,98,1344510544
116,14,19,Jits_Linear_5,0,5,56,103,1344919940
116,14,19,Jits_Linear_5,1,5,63,98,1344930160
116,14,19,Jits_Linear_5,2,1,48,30,1344963468
116,14,19,Jits_Linear_5,3,5,80,127,1344970092
116,14,19,Jits_Linear_5,0,5,63,98,1345410344
116,14,19,Jits_Linear_5,1,1,48,29,1345440916
116,14,19,Jits_Linear_5,2,5,80,127,1345490312
116,14,19,Jits_Linear_5,3,5,56,103,1345499460
116,14,19,Jits_Linear_5,0,1,48,28,1345955420
116,14,19,Jits_Linear_5,1,5,63,98,1345960400
116,14,19,Jits_Linear_5,2,5,56,103,1346000488
116,14,19,Jits_Linear_5,3,5,80,127,1346003552
116,14,19,Jits_Linear_5,0,5,56,103,1346420200
116,14,19,Jits_Linear_5,1,5,63,98,1346430400
116,14,19,Jits_Linear_5,2,1,48,30,1346454720
116,14,19,Jits_Linear_5,3,5,80,127,1346470356
116,14,19,Jits_Linear_5,0,5,56,103,1346909552
116,14,19,Jits_Linear_5,1,5,63,98,1346912468
116,14,19,Jits_Linear_5,2,5,80,127,1346930012
116,14,19,Jits_Linear_5,3,1,48,29,1346936344
116,14,19,Jits_Linear_5,0,1,48,31,1347406128
116,14,19,Jits_Linear_5,1,5,80,127,1347429688
116,14,19,Jits_Linear_5,2,5,56,103,1347439960
116,14,19,Jits_Linear_5,3,5,63,98,1347509576
116,14,19,Jits_Linear_5,0,1,48,31,1347910844
116,14,19,Jits_Linear_5,1,5,63,98,1347929448
116,14,19,Jits_Linear_5,2,5,56,103,1347949908
116,14,19,Jits_Linear_5,3,5,80,127,1348029788
116,14,19,Jits_Linear_5,0,1,48,27,1348420792
116,14,19,Jits_Linear_5,1,5,56,103,1348449664
116,14,19,Jits_Linear_5,2,5,80,127,1348489528
116,14,19,Jits_Linear_5,3,5,63,98,1348499724
116,14,19,Jits_Linear_5,0,1,48,27,1348913208
116,14,19,Jits_Linear_5,1,5,80,127,1348950620
116,14,19,Jits_Linear_5,2,5,63,98,1348980224
116,14,19,Jits_Linear_5,3,5,56,103,1349020172
116,14,19,Jits_Linear_5,0,1,48,28,1349433268
116,14,19,Jits_Linear_5,1,5,56,103,1349479756
116,14,19,Jits_Linear_5,2,5,63,98,1349509508
116,14,19,Jits_Linear_5,3,5,80,127,1349559792
116,14,19,Jits_Linear_5,0,1,48,28,1349969080
116,14,19,Jits_Linear_5,1,5,80,127,1350000120
116,14,19,Jits_Linear_5,2,5,56,103,1350040060
116,14,19,Jits_Linear_5,3,5,63,98,1350050408
116,14,19,Jits_Linear_5,0,5,80,127,1350499708
116,14,19,Jits_Linear_5,1,1,48,28,1350510324
116,14,19,Jits_Linear_5,2,5,63,98,1350539644
116,14,19,Jits_Linear_5,3,5,56,103,1350599912
116,14,19,Jits_Linear_5,0,1,48,27,1351017664
116,14,19,Jits_Linear_5,1,5,56,103,1351019780
116,14,19,Jits_Linear_5,2,5,80,127,1351030348
116,14,19,Jits_Linear_5,3,5,63,98,1351110100
116,14,19,Jits_Linear_5,0,1,48,27,1351521760
116,14,19,Jits_Linear_5,1,5,80,127,1351540216
116,14,19,Jits_Linear_5,2,5,63,98,1351599516
116,14,19,Jits_Linear_5,3,5,56,103,1351630224
116,14,19,Jits_Linear_5,0,5,56,103,1352060292
116,14,19,Jits_Linear_5,1,1,48,27,1352086632
116,14,19,Jits_Linear_5,2,5,80,127,1352119808
116,14,19,Jits_Linear_5,3,5,63,98,1352159596
116,14,19,Jits_Linear_5,0,5,56,103,1352639740
116,14,19,Jits_Linear_5,1,1,48,28,1352644352
116,14,19,Jits_Linear_5,2,5,63,98,1352650528
116,14,19,Jits_Linear_5,3,5,80,127,1352653664
116,14,19,Jits_Linear_5,0,5,80,127,1353120324
116,14,19,Jits_Linear_5,1,5,63,98,1353210540
116,14,19,Jits_Linear_5,2,1,48,20,1353217648
116,14,19,Jits_Linear_5,3,5,56,103,1353219384
116,14,19,Jits_Linear_5,0,5,56,103,1353649536
116,14,19,Jits_Linear_5,1,5,63,98,1353652784
116,14,19,Jits_Linear_5,2,5,80,127,1353656052
116,14,19,Jits_Linear_5,3,1,48,26,1353736340
116,14,19,Jits_Linear_5,0,5,80,127,1354200400
116,14,19,Jits_Linear_5,1,5,63,98,1354249556
116,14,19,Jits_Linear_5,2,1,48,24,1354257704
116,14,19,Jits_Linear_5,3,5,56,103,1354280420
116,14,19,Jits_Linear_5,0,5,56,103,1354710364
116,14,19,Jits_Linear_5,1,5,80,127,1354719588
116,14,19,Jits_Linear_5,2,1,48,22,1354778680
116,14,19,Jits_Linear_5,3,5,63,98,1354790236
116,14,19,Jits_Linear_5,0,5,56,103,1355250148
116,14,19,Jits_Linear_5,1,1,48,25,1355267292
116,14,19,Jits_Linear_5,2,5,63,98,1355269408
116,14,19,Jits_Linear_5,3,5,80,127,1355330020
116,14,19,Jits_Linear_5,0,5,80,127,1355779368
116,14,19,Jits_Linear_5,1,1,48,31,1355808120
116,14,19,Jits_Linear_5,2,5,63,98,1355850244
116,14,19,Jits_Linear_5,3,5,56,103,1355869512
116,14,19,Jits_Linear_5,0,1,48,22,1356328488
116,14,19,Jits_Linear_5,1,5,80,127,1356339452
116,14,19,Jits_Linear_5,2,5,56,103,1356349872
116,14,19,Jits_Linear_5,3,5,63,98,1356360144
116,14,19,Jits_Linear_5,0,5,80,127,1356869932
116,14,19,Jits_Linear_5,1,5,56,103,1356889496
116,14,19,Jits_Linear_5,2,1,48,24,1356890612
116,14,19,Jits_Linear_5,3,5,63,98,1356960392
116,14,19,Jits_Linear_5,0,5,56,103,1357419976
116,14,19,Jits_Linear_5,1,1,48,29,1357422572
116,14,19,Jits_Linear_5,2,5,80,127,1357449500
116,14,19,Jits_Linear_5,3,5,63,98,1357470356
116,14,19,Jits_Linear_5,0,5,63,98,1357959460
116,14,19,Jits_Linear_5,1,1,48,23,1357978492
116,14,19,Jits_Linear_5,2,5,56,103,1358020392
116,14,19,Jits_Linear_5,3,5,80,127,1358049624
116,14,19,Jits_Linear_5,0,5,63,98,1358500228
116,14,19,Jits_Linear_5,1,5,80,127,1358503592
116,14,19,Jits_Linear_5,2,1,48,28,1358530172
116,14,19,Jits_Linear_5,3,5,56,103,1358590428
116,14,19,Jits_Linear_5,0,1,48,23,1359061536
116,14,19,Jits_Linear_5,1,5,56,103,1359069504
116,14,19,Jits_Linear_5,2,5,63,98,1359100376
116,14,19,Jits_Linear_5,3,5,80,127,1359140164
116,14,19,Jits_Linear_5,0,1,48,25,1359610520
116,14,19,Jits_Linear_5,1,5,63,98,1359619388
116,14,19,Jits_Linear_5,2,5,56,103,1359660376
116,14,19,Jits_Linear_5,3,5,80,127,1359680008
116,14,19,Jits_Linear_5,0,1,48,21,1360143620
116,14,19,Jits_Linear_5,1,5,63,98,1360179612
116,14,19,Jits_Linear_5,2,5,56,103,1360219556
116,14,19,Jits_Linear_5,3,5,80,127,1360229748
116,14,19,Jits_Linear_5,0,5,80,127,1360710172
116,14,19,Jits_Linear_5,1,1,48,27,1360743036
116,14,19,Jits_Linear_5,2,5,63,98,1360779776
116,14,19,Jits_Linear_5,3,5,56,103,1360800184
116,14,19,Jits_Linear_5,0,5,56,103,1361260072
116,14,19,Jits_Linear_5,1,5,80,127,1361280312
116,14,19,Jits_Linear_5,2,1,48,28,1361296612
116,14,19,Jits_Linear_5,3,5,63,98,1361320268
116,14,19,Jits_Linear_5,0,5,63,98,1361830296
116,14,19,Jits_Linear_5,1,5,80,127,1361849788
116,14,19,Jits_Linear_5,2,1,48,26,1361858452
116,14,19,Jits_Linear_5,3,5,56,103,1361889716
116,14,19,Jits_Linear_5,0,5,63,98,1362390296
116,14,19,Jits_Linear_5,1,5,56,103,1362410080
116,14,19,Jits_Linear_5,2,5,80,127,1362420500
116,14,19,Jits_Linear_5,3,1,48,29,1362434708
116,14,19,Jits_Linear_5,0,5,80,127,1362949468
116,14,19,Jits_Linear_5,1,1,48,25,1362964268
116,14,19,Jits_Linear_5,2,5,56,103,1362970220
116,14,19,Jits_Linear_5,3,5,63,98,1362999744
116,14,19,Jits_Linear_5,0,1,48,28,1363528328
116,14,19,Jits_Linear_5,1,5,56,103,1363589416
116,14,19,Jits_Linear_5,2,5,80,127,1363592632
116,14,19,Jits_Linear_5,3,5,63,98,1363610124
116,14,19,Jits_Linear_5,0,5,63,98,1364080108
116,14,19,Jits_Linear_5,1,5,56,103,1364109712
116,14,19,Jits_Linear_5,2,1,48,29,1364140504
116,14,19,Jits_Linear_5,3,5,80,127,1364170268
116,14,19,Jits_Linear_5,0,1,48,29,1364689620
116,14,19,Jits_Linear_5,1,5,63,98,1364730180
116,14,19,Jits_Linear_5,2,5,56,103,1364739480
116,14,19,Jits_Linear_5,3,5,80,127,1364749676
116,14,19,Jits_Linear_5,0,5,56,103,1365250328
116,14,19,Jits_Linear_5,1,5,80,127,1365280228
116,14,19,Jits_Linear_5,2,5,63,98,1365290348
116,14,19,Jits_Linear_5,3,1,48,26,1365298272
116,14,19,Jits_Linear_5,0,1,48,30,1365824688
116,14,19,Jits_Linear_5,1,5,63,98,1365859708
116,14,19,Jits_Linear_5,2,5,56,103,1365870056
116,14,19,Jits_Linear_5,3,5,80,127,1365890292
116,14,19,Jits_Linear_5,0,1,48,27,1366358256
116,14,19,Jits_Linear_5,1,5,56,103,1366360372
116,14,19,Jits_Linear_5,2,5,63,98,1366419788
116,14,19,Jits_Linear_5,3,5,80,127,1366423304
116,14,19,Jits_Linear_5,0,5,80,127,1366959548
116,14,19,Jits_Linear_5,1,5,56,103,1366970116
116,14,19,Jits_Linear_5,2,1,48,27,1366978788
116,14,19,Jits_Linear_5,3,5,63,98,1367040320
116,14,19,Jits_Linear_5,0,5,80,127,1367530124
116,14,19,Jits_Linear_5,1,1,48,28,1367558576
116,14,19,Jits_Linear_5,2,5,56,103,1367599580
116,14,19,Jits_Linear_5,3,5,63,98,1367609776
116,14,19,Jits_Linear_5,0,5,63,98,1368150380
116,14,19,Jits_Linear_5,1,1,48,32,1368153276
116,14,19,Jits_Linear_5,2,5,56,103,1368159596
116,14,19,Jits_Linear_5,3,5,80,127,1368179980
116,14,19,Jits_Linear_5,0,5,80,127,1368680032
116,14,19,Jits_Linear_5,1,1,48,28,1368708556
116,14,19,Jits_Linear_5,2,5,63,98,1368740144
116,14,19,Jits_Linear_5,3,5,56,103,1368780084
116,14,19,Jits_Linear_5,0,1,48,28,1369249548
116,14,19,Jits_Linear_5,1,5,56,103,1369309664
116,14,19,Jits_Linear_5,2,5,63,98,1369320012
116,14,19,Jits_Linear_5,3,5,80,127,1369359712
116,14,19,Jits_Linear_5,0,5,56,103,1369859480
116,14,19,Jits_Linear_5,1,1,48,28,1369871068
116,14,19,Jits_Linear_5,2,5,80,127,1369890124
116,14,19,Jits_Linear_5,3,5,63,98,1369940324
116,14,19,Jits_Linear_5,0,1,48,24,1370423048
116,14,19,Jits_Linear_5,1,5,56,103,1370490284
116,14,19,Jits_Linear_5,2,5,63,98,1370530084
116,14,19,Jits_Linear_5,3,5,80,127,1370533376
116,14,19,Jits_Linear_5,0,1,48,26,1371088120
116,14,19,Jits_Linear_5,1,5,56,103,1371090236
116,14,19,Jits_Linear_5,2,5,63,98,1371099536
116,14,19,Jits_Linear_5,3,5,80,127,1371120216
116,14,19,Jits_Linear_5,0,5,56,103,1371640120
116,14,19,Jits_Linear_5,1,5,80,127,1371643112
116,14,19,Jits_Linear_5,2,5,63,98,1371680208
116,14,19,Jits_Linear_5,3,1,48,27,1371684524
116,14,19,Jits_Linear_5,0,1,48,31,1372204356
116,14,19,Jits_Linear_5,1,5,63,98,1372270020
116,14,19,Jits_Linear_5,2,5,56,103,1372299548
116,14,19,Jits_Linear_5,3,5,80,127,1372320240
116,14,19,Jits_Linear_5,0,1,48,28,1372819052
116,14,19,Jits_Linear_5,1,5,80,127,1372840156
116,14,19,Jits_Linear_5,2,5,56,103,1372849604
116,14,19,Jits_Linear_5,3,5,63,98,1372860024
116,14,19,Jits_Linear_5,0,5,56,103,1373440312
116,14,19,Jits_Linear_5,1,1,48,29,1373448236
116,14,19,Jits_Linear_5,2,5,80,127,1373480248
116,14,19,Jits_Linear_5,3,5,63,98,1373509996
116,14,19,Jits_Linear_5,0,5,63,98,1374049624
116,14,19,Jits_Linear_5,1,5,80,127,1374060044
116,14,19,Jits_Linear_5,2,1,48,25,1374068120
116,14,19,Jits_Linear_5,3,5,56,103,1374070084
116,14,19,Jits_Linear_5,0,1,48,26,1374628352
116,14,19,Jits_Linear_5,1,5,56,103,1374630164
116,14,19,Jits_Linear_5,2,5,63,98,1374700000
116,14,19,Jits_Linear_5,3,5,80,127,1374710120
116,14,19,Jits_Linear_5,0,5,80,127,1375239468
116,14,19,Jits_Linear_5,1,1,48,26,1375243708
116,14,19,Jits_Linear_5,2,5,56,103,1375250032
116,14,19,Jits_Linear_5,3,5,63,98,1375300160
116,14,19,Jits_Linear_5,0,1,48,21,1375845284
116,14,19,Jits_Linear_5,1,5,80,127,1375860008
116,14,19,Jits_Linear_5,2,5,56,103,1375919900
116,14,19,Jits_Linear_5,3,5,63,98,1375950160
116,14,19,Jits_Linear_5,0,5,56,103,1376470384
116,14,19,Jits_Linear_5,1,5,80,127,1376473452
116,14,19,Jits_Linear_5,2,1,48,26,1376482268
116,14,19,Jits_Linear_5,3,5,63,98,1376510316
116,14,19,Jits_Linear_5,0,1,48,20,1377082272
116,14,19,Jits_Linear_5,1,5,56,103,1377110252
116,14,19,Jits_Linear_5,2,5,63,98,1377140000
116,14,19,Jits_Linear_5,3,5,80,127,1377150196
116,14,19,Jits_Linear_5,0,1,48,21,1377718352
116,14,19,Jits_Linear_5,1,5,63,98,1377729836
116,14,19,Jits_Linear_5,2,5,80,127,1377740032
116,14,19,Jits_Linear_5,3,5,56,103,1377750528
116,14,19,Jits_Linear_5,0,5,80,127,1378289916
116,14,19,Jits_Linear_5,1,1,48,23,1378317992
116,14,19,Jits_Linear_5,2,5,56,103,1378340108
116,14,19,Jits_Linear_5,3,5,63,98,1378343180
116,14,19,Jits_Linear_5,0,1,48,29,1378925996
116,14,19,Jits_Linear_5,1,5,56,103,1378940268
116,14,19,Jits_Linear_5,2,5,80,127,1378959756
116,14,19,Jits_Linear_5,3,5,63,98,1378969900
116,14,19,Jits_Linear_5,0,1,48,27,1379512472
116,14,19,Jits_Linear_5,1,5,63,98,1379540368
116,14,19,Jits_Linear_5,2,5,56,103,1379570120
116,14,19,Jits_Linear_5,3,5,80,127,1379589384
116,14,19,Jits_Linear_5,0,1,48,26,1380145056
116,14,19,Jits_Linear_5,1,5,56,103,1380170044
116,14,19,Jits_Linear_5,2,5,80,127,1380180388
116,14,19,Jits_Linear_5,3,5,63,98,1380250008
116,14,19,Jits_Linear_5,0,1,48,24,1380752116
116,14,19,Jits_Linear_5,1,5,63,98,1380780340
116,14,19,Jits_Linear_5,2,5,80,127,1380820280
116,14,19,Jits_Linear_5,3,5,56,103,1380860352
116,14,19,Jits_Linear_5,0,1,48,21,1381349528
116,14,19,Jits_Linear_5,1,5,56,103,1381420428
116,14,19,Jits_Linear_5,2,5,63,98,1381429952
116,14,19,Jits_Linear_5,3,5,80,127,1381450172
116,14,19,Jits_Linear_5,0,1,48,22,1381993280
116,14,19,Jits_Linear_5,1,5,63,98,1382090140
116,14,19,Jits_Linear_5,2,5,80,127,1382109688
116,14,19,Jits_Linear_5,3,5,56,103,1382129996
116,14,19,Jits_Linear_5,0,5,56,103,1382659588
116,14,19,Jits_Linear_5,1,1,48,29,1382697980
116,14,19,Jits_Linear_5,2,5,80,127,1382740204
116,14,19,Jits_Linear_5,3,5,63,98,1382749648
116,14,19,Jits_Linear_5,0,1,48,25,1383304596
116,14,19,Jits_Linear_5,1,5,80,127,1383330200
116,14,19,Jits_Linear_5,2,5,63,98,1383340548
116,14,19,Jits_Linear_5,3,5,56,103,1383370076
116,14,19,Jits_Linear_5,0,1,48,23,1383899168
116,14,19,Jits_Linear_5,1,5,63,98,1383920020
116,14,19,Jits_Linear_5,2,5,80,127,1383959960
116,14,19,Jits_Linear_5,3,5,56,103,1384020336
116,14,19,Jits_Linear_5,0,1,48,26,1384562252
116,14,19,Jits_Linear_5,1,5,63,98,1384570372
116,14,19,Jits_Linear_5,2,5,56,103,1384620380
116,14,19,Jits_Linear_5,3,5,80,127,1384650128
116,14,19,Jits_Linear_5,0,1,48,22,1385197952
116,14,19,Jits_Linear_5,1,5,80,127,1385219328
116,14,19,Jits_Linear_5,2,5,63,98,1385229972
116,14,19,Jits_Linear_5,3,5,56,103,1385300316
116,14,19,Jits_Linear_5,0,1,48,23,1385837424
116,14,19,Jits_Linear_5,1,5,80,127,1385930172
116,14,19,Jits_Linear_5,2,5,56,103,1385940196
116,14,19,Jits_Linear_5,3,5,63,98,1385943344
116,14,19,Jits_Linear_5,0,1,48,26,1386509576
116,14,19,Jits_Linear_5,1,5,56,103,1386511064
116,14,19,Jits_Linear_5,2,5,80,127,1386530256
116,14,19,Jits_Linear_5,3,5,63,98,1386540376
116,14,19,Jits_Linear_5,0,1,48,25,1387130904
116,14,19,Jits_Linear_5,1,5,63,98,1387159872
116,14,19,Jits_Linear_5,2,5,56,103,1387200036
116,14,19,Jits_Linear_5,3,5,80,127,1387220272
116,14,19,Jits_Linear_5,0,1,48,22,1387760376
116,14,19,Jits_Linear_5,1,5,63,98,1387799888
116,14,19,Jits_Linear_5,2,5,56,103,1387860268
116,14,19,Jits_Linear_5,3,5,80,127,1387863188
116,14,19,Jits_Linear_5,0,5,56,103,1388419448
116,14,19,Jits_Linear_5,1,5,80,127,1388439860
116,14,19,Jits_Linear_5,2,1,48,25,1388450324
116,14,19,Jits_Linear_5,3,5,63,98,1388479792
116,14,19,Jits_Linear_5,0,1,48,27,1389064260
116,14,19,Jits_Linear_5,1,5,56,103,1389100476
116,14,19,Jits_Linear_5,2,5,63,98,1389119816
116,14,19,Jits_Linear_5,3,5,80,127,1389130012
116,14,19,Jits_Linear_5,0,5,80,127,1389720140
116,14,19,Jits_Linear_5,1,5,56,103,1389749816
116,14,19,Jits_Linear_5,2,1,48,33,1389759836
116,14,19,Jits_Linear_5,3,5,63,98,1389789748
116,14,19,Jits_Linear_5,0,1,48,23,1390376384
116,14,19,Jits_Linear_5,1,5,80,127,1390380540
116,14,19,Jits_Linear_5,2,5,56,103,1390399804
116,14,19,Jits_Linear_5,3,5,63,98,1390460192
116,14,19,Jits_Linear_5,0,1,48,25,1391038552
116,14,19,Jits_Linear_5,1,5,56,103,1391039904
116,14,19,Jits_Linear_5,2,5,80,127,1391060292
116,14,19,Jits_Linear_5,3,5,63,98,1391119636
116,14,19,Jits_Linear_5,0,5,80,127,1391679848
116,14,19,Jits_Linear_5,1,5,56,103,1391690196
116,14,19,Jits_Linear_5,2,1,48,21,1391692868
116,14,19,Jits_Linear_5,3,5,63,98,1391729980
116,14,19,Jits_Linear_5,0,1,48,16,1392333424
116,14,19,Jits_Linear_5,1,5,63,98,1392340272
116,14,19,Jits_Linear_5,2,5,56,103,1392380212
116,14,19,Jits_Linear_5,3,5,80,127,1392383204
116,14,19,Jits_Linear_5,0,1,48,23,1392987520
116,14,19,Jits_Linear_5,1,5,63,98,1393020356
116,14,19,Jits_Linear_5,2,5,80,127,1393060324
116,14,19,Jits_Linear_5,3,5,56,103,1393090056
116,14,19,Jits_Linear_5,0,1,48,22,1393626196
116,14,19,Jits_Linear_5,1,5,56,103,1393669460
116,14,19,Jits_Linear_5,2,5,63,98,1393679656
116,14,19,Jits_Linear_5,3,5,80,127,1393709632
116,14,19,Jits_Linear_5,0,1,48,21,1394270932
116,14,19,Jits_Linear_5,1,5,80,127,1394329948
116,14,19,Jits_Linear_5,2,5,63,98,1394399764
116,14,19,Jits_Linear_5,3,5,56,103,1394409812
116,14,19,Jits_Linear_5,0,5,63,98,1394999636
116,14,19,Jits_Linear_5,1,1,48,19,1395015936
116,14,19,Jits_Linear_5,2,5,56,103,1395070292
116,14,19,Jits_Linear_5,3,5,80,127,1395079812
116,14,19,Jits_Linear_5,0,5,63,98,1395670320
116,14,19,Jits_Linear_5,1,1,48,24,1395671732
116,14,19,Jits_Linear_5,2,5,56,103,1395689876
116,14,19,Jits_Linear_5,3,5,80,127,1395729816
116,14,19,Jits_Linear_5,0,1,48,20,1396313516
116,14,19,Jits_Linear_5,1,5,56,103,1396350408
116,14,19,Jits_Linear_5,2,5,63,98,1396359632
116,14,19,Jits_Linear_5,3,5,80,127,1396440560
116,14,19,Jits_Linear_5,0,5,63,98,1397009784
116,14,19,Jits_Linear_5,1,1,48,21,1397022564
116,14,19,Jits_Linear_5,2,5,56,103,1397039452
116,14,19,Jits_Linear_5,3,5,80,127,1397080588
116,14,19,Jits_Linear_5,0,1,48,26,1397644728
116,14,19,Jits_Linear_5,1,5,56,103,1397679552
116,14,19,Jits_Linear_5,2,5,63,98,1397720540
116,14,19,Jits_Linear_5,3,5,80,127,1397760536
116,14,19,Jits_Linear_5,0,1,48,19,1398350856
116,14,19,Jits_Linear_5,1,5,80,127,1398360840
116,14,19,Jits_Linear_5,2,5,56,103,1398440292
116,14,19,Jits_Linear_5,3,5,63,98,1398450476
116,14,19,Jits_Linear_5,0,1,48,24,1399043408
116,14,19,Jits_Linear_5,1,5,56,103,1399080448
116,14,19,Jits_Linear_5,2,5,63,98,1399083588
116,14,19,Jits_Linear_5,3,5,80,127,1399089672
116,14,19,Jits_Linear_5,0,1,48,24,1399728092
116,14,19,Jits_Linear_5,1,5,56,103,1399779812
116,14,19,Jits_Linear_5,2,5,63,98,1399800200
116,14,19,Jits_Linear_5,3,5,80,127,1399810620
116,14,19,Jits_Linear_5,0,5,63,98,1400419688
116,14,19,Jits_Linear_5,1,5,80,127,1400429884
116,14,19,Jits_Linear_5,2,1,48,27,1400442592
116,14,19,Jits_Linear_5,3,5,56,103,1400450560
116,14,19,Jits_Linear_5,0,1,48,23,1401050996
116,14,19,Jits_Linear_5,1,5,63,98,1401109768
116,14,19,Jits_Linear_5,2,5,56,103,1401189700
116,14,19,Jits_Linear_5,3,5,80,127,1401192692
116,14,19,Jits_Linear_5,0,1,48,20,1401740004
116,14,19,Jits_Linear_5,1,5,63,98,1401800068
116,14,19,Jits_Linear_5,2,5,56,103,1401819484
116,14,19,Jits_Linear_5,3,5,80,127,1401850116
116,14,19,Jits_Linear_5,0,1,48,21,1402445812
116,14,19,Jits_Linear_5,1,5,56,103,1402490276
116,14,19,Jits_Linear_5,2,5,63,98,1402509544
116,14,19,Jits_Linear_5,3,5,80,127,1402519912
116,14,19,Jits_Linear_5,0,1,48,26,1403154636
116,14,19,Jits_Linear_5,1,5,56,103,1403210036
116,14,19,Jits_Linear_5,2,5,63,98,1403239860
116,14,19,Jits_Linear_5,3,5,80,127,1403243372
116,14,19,Jits_Linear_5,0,1,48,20,1403842696
116,14,19,Jits_Linear_5,1,5,56,103,1403850212
116,14,19,Jits_Linear_5,2,5,63,98,1403890152
116,14,19,Jits_Linear_5,3,5,80,127,1403949408
116,14,19,Jits_Linear_5,0,1,48,20,1404534100
116,14,19,Jits_Linear_5,1,5,56,103,1404559904
116,14,19,Jits_Linear_5,2,5,63,98,1404569904
116,14,19,Jits_Linear_5,3,5,80,127,1404630596
116,14,19,Jits_Linear_5,0,1,48,19,1405232356
116,14,19,Jits_Linear_5,1,5,56,103,1405260256
116,14,19,Jits_Linear_5,2,5,80,127,1405279668
116,14,19,Jits_Linear_5,3,5,63,98,1405310540
116,14,19,Jits_Linear_5,0,1,48,23,1405949192
116,14,19,Jits_Linear_5,1,5,80,127,1405959408
116,14,19,Jits_Linear_5,2,5,56,103,1405969752
116,14,19,Jits_Linear_5,3,5,63,98,1405990508
116,14,19,Jits_Linear_5,0,1,48,19,1406625856
116,14,19,Jits_Linear_5,1,5,63,98,1406649564
116,14,19,Jits_Linear_5,2,5,80,127,1406729724
116,14,19,Jits_Linear_5,3,5,56,103,1406739696
116,14,19,Jits_Linear_5,0,1,48,22,1407367556
116,14,19,Jits_Linear_5,1,5,80,127,1407409632
116,14,19,Jits_Linear_5,2,5,56,103,1407429940
116,14,19,Jits_Linear_5,3,5,63,98,1407433232
116,14,19,Jits_Linear_5,0,1,48,24,1408066764
116,14,19,Jits_Linear_5,1,5,63,98,1408089428
116,14,19,Jits_Linear_5,2,5,80,127,1408092864
116,14,19,Jits_Linear_5,3,5,56,103,1408149988
116,14,19,Jits_Linear_5,0,5,56,103,1408779656
116,14,19,Jits_Linear_5,1,5,80,127,1408789852
116,14,19,Jits_Linear_5,2,1,48,22,1408795584
116,14,19,Jits_Linear_5,3,5,63,98,1408829784
116,14,19,Jits_Linear_5,0,5,56,103,1409469752
116,14,19,Jits_Linear_5,1,1,48,24,1409477660
116,14,19,Jits_Linear_5,2,5,63,98,1409530288
116,14,19,Jits_Linear_5,3,5,80,127,1409539588
116,14,19,Jits_Linear_5,0,1,48,24,1410163460
116,14,19,Jits_Linear_5,1,5,63,98,1410189716
116,14,19,Jits_Linear_5,2,5,80,127,1410229608
116,14,19,Jits_Linear_5,3,5,56,103,1410269532
116,14,19,Jits_Linear_5,0,1,48,19,1410870860
116,14,19,Jits_Linear_5,1,5,56,103,1410900404
116,14,19,Jits_Linear_5,2,5,63,98,1410980284
116,14,19,Jits_Linear_5,3,5,80,127,1410983576
116,14,19,Jits_Linear_5,0,1,48,21,1411611436
116,14,19,Jits_Linear_5,1,5,80,127,1411670428
116,14,19,Jits_Linear_5,2,5,56,103,1411700028
116,14,19,Jits_Linear_5,3,5,63,98,1411703168
116,14,19,Jits_Linear_5,0,1,48,17,1412326304
116,14,19,Jits_Linear_5,1,5,56,103,1412350468
116,14,19,Jits_Linear_5,2,5,80,127,1412369732
116,14,19,Jits_Linear_5,3,5,63,98,1412409672
116,14,19,Jits_Linear_5,0,1,48,19,1413025680
116,14,19,Jits_Linear_5,1,5,80,127,1413049696
116,14,19,Jits_Linear_5,2,5,63,98,1413070380
116,14,19,Jits_Linear_5,3,5,56,103,1413129560
116,14,19,Jits_Linear_5,0,1,48,20,1413724060
116,14,19,Jits_Linear_5,1,5,63,98,1413779836
116,14,19,Jits_Linear_5,2,5,56,103,1413789984
116,14,19,Jits_Linear_5,3,5,80,127,1413840320
116,14,19,Jits_Linear_5,0,5,56,103,1414489632
116,14,19,Jits_Linear_5,1,5,63,98,1414509796
116,14,19,Jits_Linear_5,2,5,80,127,1414520364
116,14,19,Jits_Linear_5,0,1,48,24,1415157608
116,14,19,Jits_Linear_5,1,5,56,103,1415210544
116,14,19,Jits_Linear_5,2,5,63,98,1415213612
116,14,19,Jits_Linear_5,3,5,80,127,1415229808
116,14,19,Jits_Linear_5,0,1,48,24,1415847380
116,14,19,Jits_Linear_5,1,5,63,98,1415980544
116,14,19,Jits_Linear_5,2,5,56,103,1416010520
116,14,19,Jits_Linear_5,3,5,80,127,1416039896
116,14,19,Jits_Linear_5,0,1,48,25,1416614120
116,14,19,Jits_Linear_5,1,5,80,127,1416669672
116,14,19,Jits_Linear_5,2,5,56,103,1416759796
116,14,19,Jits_Linear_5,3,5,63,98,1416762936
116,14,19,Jits_Linear_5,0,1,48,19,1417369692
116,14,19,Jits_Linear_5,1,5,56,103,1417399756
116,14,19,Jits_Linear_5,2,5,80,127,1417402748
116,14,19,Jits_Linear_5,3,5,63,98,1417479536
116,14,19,Jits_Linear_5,0,1,48,24,1418105280
116,14,19,Jits_Linear_5,1,5,80,127,1418129812
116,14,19,Jits_Linear_5,2,5,63,98,1418190304
116,14,19,Jits_Linear_5,3,5,56,103,1418219744
116,14,19,Jits_Linear_5,0,5,63,98,1418859840
116,14,19,Jits_Linear_5,1,5,80,127,1418870184
116,14,19,Jits_Linear_5,2,1,48,24,1418872048
116,14,19,Jits_Linear_5,3,5,56,103,1418939660
116,14,19,Jits_Linear_5,0,1,48,23,1419586436
116,14,19,Jits_Linear_5,1,5,56,103,1419609400
116,14,19,Jits_Linear_5,2,5,80,127,1419640348
116,14,19,Jits_Linear_5,3,5,63,98,1419690336
116,14,19,Jits_Linear_5,0,1,48,20,1420327992
116,14,19,Jits_Linear_5,1,5,63,98,1420389692
116,14,19,Jits_Linear_5,2,5,56,103,1420419352
116,14,19,Jits_Linear_5,3,5,80,127,1420422420
116,14,19,Jits_Linear_5,0,1,48,21,1421057720
116,14,19,Jits_Linear_5,1,5,63,98,1421140456
116,14,19,Jits_Linear_5,2,5,80,127,1421159780
116,14,19,Jits_Linear_5,3,5,56,103,1421169904
116,14,19,Jits_Linear_5,0,1,48,24,1421835680
116,14,19,Jits_Linear_5,1,5,56,103,1421889800
116,14,19,Jits_Linear_5,2,5,63,98,1421893100
116,14,19,Jits_Linear_5,3,5,80,127,1421910492
116,14,19,Jits_Linear_5,0,1,48,22,1422564196
116,14,19,Jits_Linear_5,1,5,56,103,1422590376
116,14,19,Jits_Linear_5,2,5,63,98,1422599528
116,14,19,Jits_Linear_5,3,5,80,127,1422630324
116,14,19,Jits_Linear_5,0,1,48,24,1423316012
116,14,19,Jits_Linear_5,1,5,63,98,1423360400
116,14,19,Jits_Linear_5,2,5,80,127,1423379740
116,14,19,Jits_Linear_5,3,5,56,103,1423419664
116,14,19,Jits_Linear_5,0,1,48,26,1424072636
116,14,19,Jits_Linear_5,1,5,56,103,1424139500
116,14,19,Jits_Linear_5,2,5,63,98,1424179500
116,14,19,Jits_Linear_5,3,5,80,127,1424182792
116,14,19,Jits_Linear_5,0,1,48,22,1424809624
116,14,19,Jits_Linear_5,1,5,80,127,1424829804
116,14,19,Jits_Linear_5,2,5,56,103,1424869820
116,14,19,Jits_Linear_5,3,5,63,98,1424919860
116,14,19,Jits_Linear_5,0,1,48,22,1425590816
116,14,19,Jits_Linear_5,1,5,56,103,1425639768
116,14,19,Jits_Linear_5,2,5,80,127,1425650260
116,14,19,Jits_Linear_5,3,5,63,98,1425679640
116,14,19,Jits_Linear_5,0,5,56,103,1426340348
116,14,19,Jits_Linear_5,1,1,48,22,1426353360
116,14,19,Jits_Linear_5,2,5,80,127,1426380284
116,14,19,Jits_Linear_5,3,5,63,98,1426430188
116,14,19,Jits_Linear_5,0,1,48,23,1427082836
116,14,19,Jits_Linear_5,1,5,56,103,1427100268
116,14,19,Jits_Linear_5,2,5,80,127,1427139912
116,14,19,Jits_Linear_5,3,5,63,98,1427190248
116,14,19,Jits_Linear_5,0,1,48,24,1427829792
116,14,19,Jits_Linear_5,1,5,80,127,1427849596
116,14,19,Jits_Linear_5,2,5,63,98,1427929408
116,14,19,Jits_Linear_5,3,5,56,103,1427939676
116,14,19,Jits_Linear_5,0,1,48,19,1428590004
116,14,19,Jits_Linear_5,1,5,80,127,1428659512
116,14,19,Jits_Linear_5,2,5,56,103,1428670304
116,14,19,Jits_Linear_5,3,5,63,98,1428690228
116,14,19,Jits_Linear_5,0,1,48,21,1429339580
116,14,19,Jits_Linear_5,1,5,63,98,1429389728
116,14,19,Jits_Linear_5,2,5,56,103,1429460320
116,14,19,Jits_Linear_5,3,5,80,127,1429463388
116,14,19,Jits_Linear_5,0,1,48,24,1430139344
116,14,19,Jits_Linear_5,1,5,80,127,1430149484
116,14,19,Jits_Linear_5,2,5,63,98,1430199788
116,14,19,Jits_Linear_5,3,5,56,103,1430239712
116,14,19,Jits_Linear_5,0,1,48,19,1430923528
116,14,19,Jits_Linear_5,1,5,63,98,1430959400
116,14,19,Jits_Linear_5,2,5,56,103,1431000388
116,14,19,Jits_Linear_5,3,5,80,127,1431009608
116,14,19,Jits_Linear_5,0,1,48,18,1431708352
116,14,19,Jits_Linear_5,1,5,63,98,1431720288
116,14,19,Jits_Linear_5,2,5,56,103,1431739776
116,14,19,Jits_Linear_5,3,5,80,127,1431760312
116,14,19,Jits_Linear_5,0,1,48,19,1432449988
116,14,19,Jits_Linear_5,1,5,80,127,1432451480
116,14,19,Jits_Linear_5,2,5,56,103,1432459728
116,14,19,Jits_Linear_5,3,5,63,98,1432480212
116,14,19,Jits_Linear_5,0,1,48,21,1433205888
116,14,19,Jits_Linear_5,1,5,63,98,1433250148
116,14,19,Jits_Linear_5,2,5,56,103,1433290240
116,14,19,Jits_Linear_5,3,5,80,127,1433319824
116,14,19,Jits_Linear_5,0,1,48,24,1433979372
116,14,19,Jits_Linear_5,1,5,56,103,1434029472
116,14,19,Jits_Linear_5,2,5,63,98,1434060124
116,14,19,Jits_Linear_5,3,5,80,127,1434089932
116,14,19,Jits_Linear_5,0,5,80,127,1434779948
116,14,19,Jits_Linear_5,1,1,48,19,1434820760
116,14,19,Jits_Linear_5,2,5,56,103,1434849776
116,14,19,Jits_Linear_5,3,5,63,98,1434852916
116,14,19,Jits_Linear_5,0,5,56,103,1435569464
116,14,19,Jits_Linear_5,1,1,48,18,1435571476
116,14,19,Jits_Linear_5,2,5,63,98,1435619660
116,14,19,Jits_Linear_5,3,5,80,127,1435650460
116,14,19,Jits_Linear_5,0,5,63,98,1436330356
116,14,19,Jits_Linear_5,1,5,80,127,1436333720
116,14,19,Jits_Linear_5,2,1,48,18,1436387728
116,14,19,Jits_Linear_5,3,5,56,103,1436389696
116,14,19,Jits_Linear_5,0,5,56,103,1437140308
116,14,19,Jits_Linear_5,1,5,80,127,1437149456
116,14,19,Jits_Linear_5,2,1,48,22,1437150868
116,14,19,Jits_Linear_5,3,5,63,98,1437199948
116,14,19,Jits_Linear_5,0,5,63,98,1437900084
116,14,19,Jits_Linear_5,1,5,56,103,1437910356
116,14,19,Jits_Linear_5,2,5,80,127,1437940028
116,14,19,Jits_Linear_5,3,1,48,16,1437961880
116,14,19,Jits_Linear_5,0,1,48,19,1438681008
116,14,19,Jits_Linear_5,1,5,63,98,1438720296
116,14,19,Jits_Linear_5,2,5,80,127,1438723584
116,14,19,Jits_Linear_5,3,5,56,103,1438749972
116,14,19,Jits_Linear_5,0,1,48,16,1439489836
116,14,19,Jits_Linear_5,1,5,63,98,1439530320
116,14,19,Jits_Linear_5,2,5,56,103,1439550028
116,14,19,Jits_Linear_5,3,5,80,127,1439553096
116,14,19,Jits_Linear_5,0,5,63,98,1440280040
116,14,19,Jits_Linear_5,1,1,48,23,1440310516
116,14,19,Jits_Linear_5,2,5,56,103,1440349496
116,14,19,Jits_Linear_5,3,5,80,127,1440370252
116,14,19,Jits_Linear_5,0,5,56,103,1441060256
116,14,19,Jits_Linear_5,1,5,63,98,1441069408
116,14,19,Jits_Linear_5,2,1,48,23,1441120176
116,14,19,Jits_Linear_5,3,5,80,127,1441159532
116,14,19,Jits_Linear_5,0,5,56,103,1441870156
116,14,19,Jits_Linear_5,1,1,48,21,1441887668
116,14,19,Jits_Linear_5,2,5,80,127,1441910164
116,14,19,Jits_Linear_5,3,5,63,98,1441920360
116,14,19,Jits_Linear_5,0,1,48,17,1442612436
116,14,19,Jits_Linear_5,1,5,56,103,1442690384
116,14,19,Jits_Linear_5,2,5,63,98,1442719972
116,14,19,Jits_Linear_5,3,5,80,127,1442750168
116,14,19,Jits_Linear_5,0,1,48,21,1443441324
116,14,19,Jits_Linear_5,1,5,80,127,1443450264
116,14,19,Jits_Linear_5,2,5,63,98,1443490156
116,14,19,Jits_Linear_5,3,5,56,103,1443509644
116,14,19,Jits_Linear_5,0,1,48,23,1444213288
116,14,19,Jits_Linear_5,1,5,56,103,1444289992
116,14,19,Jits_Linear_5,2,5,80,127,1444310376
116,14,19,Jits_Linear_5,3,5,63,98,1444329848
116,14,19,Jits_Linear_5,0,1,48,19,1444999504
116,14,19,Jits_Linear_5,1,5,63,98,1445060088
116,14,19,Jits_Linear_5,2,5,56,103,1445070064
116,14,19,Jits_Linear_5,3,5,80,127,1445129616
116,14,19,Jits_Linear_5,0,1,48,24,1445804456
116,14,19,Jits_Linear_5,1,5,56,103,1445870044
116,14,19,Jits_Linear_5,2,5,63,98,1445939640
116,14,19,Jits_Linear_5,3,5,80,127,1445960028
116,14,19,Jits_Linear_5,0,1,48,16,1446623784
116,14,19,Jits_Linear_5,1,5,56,103,1446680008
116,14,19,Jits_Linear_5,2,5,63,98,1446709612
116,14,19,Jits_Linear_5,3,5,80,127,1446749460
116,14,19,Jits_Linear_5,0,5,63,98,1447479708
116,14,19,Jits_Linear_5,1,1,48,21,1447496008
116,14,19,Jits_Linear_5,2,5,56,103,1447529980
116,14,19,Jits_Linear_5,3,5,80,127,1447540176
116,14,19,Jits_Linear_5,0,1,48,24,1448325588
116,14,19,Jits_Linear_5,1,5,56,103,1448329744
116,14,19,Jits_Linear_5,2,5,63,98,1448380124
116,14,19,Jits_Linear_5,3,5,80,127,1448389948
116,14,19,Jits_Linear_5,0,5,56,103,1449109844
116,14,19,Jits_Linear_5,1,5,63,98,1449120116
116,14,19,Jits_Linear_5,2,1,48,22,1449139120
116,14,19,Jits_Linear_5,3,5,80,127,1449199980
116,14,19,Jits_Linear_5,0,9999,9999,9999,1340337260
116,14,19,Jits_Linear_5,1,9999,9999,9999,1340817476
116,14,19,Jits_Linear_5,2,9999,9999,9999,1341297732
116,14,19,Jits_Linear_5,3,9999,9999,9999,1341777984
116,14,19,Jits_Linear_5,4,9999,9999,9999,1342257240
116,14,19,Jits_Linear_5,5,9999,9999,9999,1342747716
116,14,19,Jits_Linear_5,6,9999,9999,9999,1343237212
116,14,19,Jits_Linear_5,7,9999,9999,9999,1343727700
116,14,19,Jits_Linear_5,8,9999,9999,9999,1344217216
116,14,19,Jits_Linear_5,9,9999,9999,9999,1344707700
116,14,19,Jits_Linear_5,10,9999,9999,9999,1345207400
116,14,19,Jits_Linear_5,11,9999,9999,9999,1345707104
116,14,19,Jits_Linear_5,12,9999,9999,9999,1346207828
116,14,19,Jits_Linear_5,13,9999,9999,9999,1346707564
116,14,19,Jits_Linear_5,14,9999,9999,9999,1347207244
116,14,19,Jits_Linear_5,15,9999,9999,9999,1347717208
116,14,19,Jits_Linear_5,16,9999,9999,9999,1348227156
116,14,19,Jits_Linear_5,17,9999,9999,9999,1348737108
116,14,19,Jits_Linear_5,18,9999,9999,9999,1349248104
116,14,19,Jits_Linear_5,19,9999,9999,9999,1349767276
116,14,19,Jits_Linear_5,20,9999,9999,9999,1350287468
116,14,19,Jits_Linear_5,21,9999,9999,9999,1350807676
116,14,19,Jits_Linear_5,22,9999,9999,9999,1351327852
116,14,19,Jits_Linear_5,23,9999,9999,9999,1351847996
116,14,19,Jits_Linear_5,24,9999,9999,9999,1352367164
116,14,19,Jits_Linear_5,25,9999,9999,9999,1352897648
116,14,19,Jits_Linear_5,26,9999,9999,9999,1353428072
116,14,19,Jits_Linear_5,27,9999,9999,9999,1353957492
116,14,19,Jits_Linear_5,28,9999,9999,9999,1354487912
116,14,19,Jits_Linear_5,29,9999,9999,9999,1355017280
116,14,19,Jits_Linear_5,30,9999,9999,9999,1355557964
116,14,19,Jits_Linear_5,31,9999,9999,9999,1356097600
116,14,19,Jits_Linear_5,32,9999,9999,9999,1356637304
116,14,19,Jits_Linear_5,33,9999,9999,9999,1357177972
116,14,19,Jits_Linear_5,34,9999,9999,9999,1357717604
116,14,19,Jits_Linear_5,35,9999,9999,9999,1358267452
116,14,19,Jits_Linear_5,36,9999,9999,9999,1358817400
116,14,19,Jits_Linear_5,37,9999,9999,9999,1359367284
116,14,19,Jits_Linear_5,38,9999,9999,9999,1359917168
116,14,19,Jits_Linear_5,39,9999,9999,9999,1360468028
116,14,19,Jits_Linear_5,40,9999,9999,9999,1361027132
116,14,19,Jits_Linear_5,41,9999,9999,9999,1361587316
116,14,19,Jits_Linear_5,42,9999,9999,9999,1362147404
116,14,19,Jits_Linear_5,43,9999,9999,9999,1362707548
116,14,19,Jits_Linear_5,44,9999,9999,9999,1363267692
116,14,19,Jits_Linear_5,45,9999,9999,9999,1363838040
116,14,19,Jits_Linear_5,46,9999,9999,9999,1364407352
116,14,19,Jits_Linear_5,47,9999,9999,9999,1364977764
116,14,19,Jits_Linear_5,48,9999,9999,9999,1365547128
116,14,19,Jits_Linear_5,49,9999,9999,9999,1366117484
116,14,19,Jits_Linear_5,50,9999,9999,9999,1366698072
116,14,19,Jits_Linear_5,51,9999,9999,9999,1367277628
116,14,19,Jits_Linear_5,52,9999,9999,9999,1367857272
116,14,19,Jits_Linear_5,53,9999,9999,9999,1368437888
116,14,19,Jits_Linear_5,54,9999,9999,9999,1369017464
116,14,19,Jits_Linear_5,55,9999,9999,9999,1369607224
116,14,19,Jits_Linear_5,56,9999,9999,9999,1370198084
116,14,19,Jits_Linear_5,57,9999,9999,9999,1370797152
116,14,19,Jits_Linear_5,58,9999,9999,9999,1371388016
116,14,19,Jits_Linear_5,59,9999,9999,9999,1371977816
116,14,19,Jits_Linear_5,60,9999,9999,9999,1372577864
116,14,19,Jits_Linear_5,61,9999,9999,9999,1373177940
116,14,19,Jits_Linear_5,62,9999,9999,9999,1373778020
116,14,19,Jits_Linear_5,63,9999,9999,9999,1374378060
116,14,19,Jits_Linear_5,64,9999,9999,9999,1374977092
116,14,19,Jits_Linear_5,65,9999,9999,9999,1375587436
116,14,19,Jits_Linear_5,66,9999,9999,9999,1376197748
116,14,19,Jits_Linear_5,67,9999,9999,9999,1376808008
116,14,19,Jits_Linear_5,68,9999,9999,9999,1377417320
116,14,19,Jits_Linear_5,69,9999,9999,9999,1378027616
116,14,19,Jits_Linear_5,70,9999,9999,9999,1378647168
116,14,19,Jits_Linear_5,71,9999,9999,9999,1379267664
116,14,19,Jits_Linear_5,72,9999,9999,9999,1379887220
116,14,19,Jits_Linear_5,73,9999,9999,9999,1380507704
116,14,19,Jits_Linear_5,74,9999,9999,9999,1381127268
116,14,19,Jits_Linear_5,75,9999,9999,9999,1381758064
116,14,19,Jits_Linear_5,76,9999,9999,9999,1382387772
116,14,19,Jits_Linear_5,77,9999,9999,9999,1383017596
116,14,19,Jits_Linear_5,78,9999,9999,9999,1383647312
116,14,19,Jits_Linear_5,79,9999,9999,9999,1384278108
116,14,19,Jits_Linear_5,80,9999,9999,9999,1384918072
116,14,19,Jits_Linear_5,81,9999,9999,9999,1385558088
116,14,19,Jits_Linear_5,82,9999,9999,9999,1386198124
116,14,19,Jits_Linear_5,83,9999,9999,9999,1386838140
116,14,19,Jits_Linear_5,84,9999,9999,9999,1387478104
116,14,19,Jits_Linear_5,85,9999,9999,9999,1388137596
116,14,19,Jits_Linear_5,86,9999,9999,9999,1388787820
116,14,19,Jits_Linear_5,87,9999,9999,9999,1389438036
116,14,19,Jits_Linear_5,88,9999,9999,9999,1390087288
116,14,19,Jits_Linear_5,89,9999,9999,9999,1390737504
116,14,19,Jits_Linear_5,90,9999,9999,9999,1391397992
116,14,19,Jits_Linear_5,91,9999,9999,9999,1392057436
116,14,19,Jits_Linear_5,92,9999,9999,9999,1392717904
116,14,19,Jits_Linear_5,93,9999,9999,9999,1393377348
116,14,19,Jits_Linear_5,94,9999,9999,9999,1394037884
116,14,19,Jits_Linear_5,95,9999,9999,9999,1394707516
116,14,19,Jits_Linear_5,96,9999,9999,9999,1395377224
116,14,19,Jits_Linear_5,97,9999,9999,9999,1396047952
116,14,19,Jits_Linear_5,98,9999,9999,9999,1396717664
116,14,19,Jits_Linear_5,99,9999,9999,9999,1397387344
116,14,19,Jits_Linear_5,100,9999,9999,9999,1398067308
116,14,19,Jits_Linear_5,101,9999,9999,9999,1398747204
116,14,19,Jits_Linear_5,102,9999,9999,9999,1399427140
116,14,19,Jits_Linear_5,103,9999,9999,9999,1400107116
116,14,19,Jits_Linear_5,104,9999,9999,9999,1400788056
116,14,19,Jits_Linear_5,105,9999,9999,9999,1401477212
116,14,19,Jits_Linear_5,106,9999,9999,9999,1402167372
116,14,19,Jits_Linear_5,107,9999,9999,9999,1402857528
116,14,19,Jits_Linear_5,108,9999,9999,9999,1403547760
116,14,19,Jits_Linear_5,109,9999,9999,9999,1404237896
116,14,19,Jits_Linear_5,110,9999,9999,9999,1404937272
116,14,19,Jits_Linear_5,111,9999,9999,9999,1405637696
116,14,19,Jits_Linear_5,112,9999,9999,9999,1406337120
116,14,19,Jits_Linear_5,113,9999,9999,9999,1407037548
116,14,19,Jits_Linear_5,114,9999,9999,9999,1407737968
116,14,19,Jits_Linear_5,115,9999,9999,9999,1408447604
116,14,19,Jits_Linear_5,116,9999,9999,9999,1409157216
116,14,19,Jits_Linear_5,117,9999,9999,9999,1409867840
116,14,19,Jits_Linear_5,118,9999,9999,9999,1410577496
116,14,19,Jits_Linear_5,119,9999,9999,9999,1411287132
116,14,19,Jits_Linear_5,120,9999,9999,9999,1412008004
116,14,19,Jits_Linear_5,121,9999,9999,9999,1412727884
116,14,19,Jits_Linear_5,122,9999,9999,9999,1413447788
116,14,19,Jits_Linear_5,123,9999,9999,9999,1414167616
116,14,19,Jits_Linear_5,124,9999,9999,9999,1414887540
116,14,19,Jits_Linear_5,125,9999,9999,9999,1415617640
116,14,19,Jits_Linear_5,126,9999,9999,9999,1416347740
116,14,19,Jits_Linear_5,127,9999,9999,9999,1417077876
116,14,19,Jits_Linear_5,128,9999,9999,9999,1417807956
116,14,19,Jits_Linear_5,129,9999,9999,9999,1418538044
116,14,19,Jits_Linear_5,130,9999,9999,9999,1419277428
116,14,19,Jits_Linear_5,131,9999,9999,9999,1420017780
116,14,19,Jits_Linear_5,132,9999,9999,9999,1420758132
116,14,19,Jits_Linear_5,133,9999,9999,9999,1421507708
116,14,19,Jits_Linear_5,134,9999,9999,9999,1422248064
116,14,19,Jits_Linear_5,135,9999,9999,9999,1422997556
116,14,19,Jits_Linear_5,136,9999,9999,9999,1423747180
116,14,19,Jits_Linear_5,137,9999,9999,9999,1424497728
116,14,19,Jits_Linear_5,138,9999,9999,9999,1425247304
116,14,19,Jits_Linear_5,139,9999,9999,9999,1425997928
116,14,19,Jits_Linear_5,140,9999,9999,9999,1426757692
116,14,19,Jits_Linear_5,141,9999,9999,9999,1427517544
116,14,19,Jits_Linear_5,142,9999,9999,9999,1428277312
116,14,19,Jits_Linear_5,143,9999,9999,9999,1429037148
116,14,19,Jits_Linear_5,144,9999,9999,9999,1429797952
116,14,19,Jits_Linear_5,145,9999,9999,9999,1430568056
116,14,19,Jits_Linear_5,146,9999,9999,9999,1431338084
116,14,19,Jits_Linear_5,147,9999,9999,9999,1432107072
116,14,19,Jits_Linear_5,148,9999,9999,9999,1432877168
116,14,19,Jits_Linear_5,149,9999,9999,9999,1433647196
116,14,19,Jits_Linear_5,150,9999,9999,9999,1434427492
116,14,19,Jits_Linear_5,151,9999,9999,9999,1435207768
116,14,19,Jits_Linear_5,152,9999,9999,9999,1435988076
116,14,19,Jits_Linear_5,153,9999,9999,9999,1436767320
116,14,19,Jits_Linear_5,154,9999,9999,9999,1437547608
116,14,19,Jits_Linear_5,155,9999,9999,9999,1438337124
116,14,19,Jits_Linear_5,156,9999,9999,9999,1439127616
116,14,19,Jits_Linear_5,157,9999,9999,9999,1439917116
116,14,19,Jits_Linear_5,158,9999,9999,9999,1440707672
116,14,19,Jits_Linear_5,159,9999,9999,9999,1441497176
116,14,19,Jits_Linear_5,160,9999,9999,9999,1442297932
116,14,19,Jits_Linear_5,161,9999,9999,9999,1443097692
116,14,19,Jits_Linear_5,162,9999,9999,9999,1443897456
116,14,19,Jits_Linear_5,163,9999,9999,9999,1444697148
116,14,19,Jits_Linear_5,164,9999,9999,9999,1445497960
116,14,19,Jits_Linear_5,165,9999,9999,9999,1446307948
116,14,19,Jits_Linear_5,166,9999,9999,9999,1447117908
116,14,19,Jits_Linear_5,167,9999,9999,9999,1447927864
116,14,19,Jits_Linear_5,168,9999,9999,9999,1448737904
116,14,19,Jits_Linear_5,169,9999,9999,9999,1449547860
116,15,18,Jits_Linear_8,0,5,56,103,1459887536
116,15,18,Jits_Linear_8,1,5,63,98,1459890636
116,15,18,Jits_Linear_8,2,5,80,127,1459893680
116,15,18,Jits_Linear_8,0,5,56,103,1460707616
116,15,18,Jits_Linear_8,1,5,63,98,1460710720
116,15,18,Jits_Linear_8,2,5,80,127,1460713844
116,15,18,Jits_Linear_8,0,5,80,127,1461467856
116,15,18,Jits_Linear_8,1,1,48,37,1461521996
116,15,18,Jits_Linear_8,2,5,63,98,1461557692
116,15,18,Jits_Linear_8,3,5,56,103,1461567812
116,15,18,Jits_Linear_8,0,5,56,103,1462308160
116,15,18,Jits_Linear_8,1,5,63,98,1462317536
116,15,18,Jits_Linear_8,2,1,48,37,1462332864
116,15,18,Jits_Linear_8,3,5,80,127,1462407808
116,15,18,Jits_Linear_8,0,1,48,39,1463095772
116,15,18,Jits_Linear_8,1,5,63,98,1463097656
116,15,18,Jits_Linear_8,2,5,80,127,1463128676
116,15,18,Jits_Linear_8,3,5,56,103,1463158056
116,15,18,Jits_Linear_8,0,1,48,32,1463898728
116,15,18,Jits_Linear_8,1,5,56,103,1463917932
116,15,18,Jits_Linear_8,2,5,80,127,1464018492
116,15,18,Jits_Linear_8,3,5,63,98,1464067572
116,15,18,Jits_Linear_8,0,5,56,103,1464727988
116,15,18,Jits_Linear_8,1,1,48,33,1464764668
116,15,18,Jits_Linear_8,2,5,80,127,1464778108
116,15,18,Jits_Linear_8,3,5,63,98,1464818048
116,15,18,Jits_Linear_8,0,1,48,40,1465555656
116,15,18,Jits_Linear_8,1,5,80,127,1465567756
116,15,18,Jits_Linear_8,2,5,63,98,1465598260
116,15,18,Jits_Linear_8,3,5,56,103,1465668072
116,15,18,Jits_Linear_8,0,5,63,98,1466408428
116,15,18,Jits_Linear_8,1,1,48,36,1466410364
116,15,18,Jits_Linear_8,2,5,56,103,1466437872
116,15,18,Jits_Linear_8,3,5,80,127,1466498708
116,15,18,Jits_Linear_8,0,5,56,103,1467157912
116,15,18,Jits_Linear_8,1,5,80,127,1467160980
116,15,18,Jits_Linear_8,2,1,48,40,1467268988
116,15,18,Jits_Linear_8,3,5,63,98,1467277556
116,15,18,Jits_Linear_8,0,1,48,35,1468000116
116,15,18,Jits_Linear_8,1,5,56,103,1468037756
116,15,18,Jits_Linear_8,2,5,80,127,1468077500
116,15,18,Jits_Linear_8,3,5,63,98,1468087624
116,15,18,Jits_Linear_8,0,5,56,103,1468798416
116,15,18,Jits_Linear_8,1,1,48,31,1468816240
116,15,18,Jits_Linear_8,2,5,80,127,1468817748
116,15,18,Jits_Linear_8,3,5,63,98,1468897568
116,15,18,Jits_Linear_8,0,5,80,127,1469587800
116,15,18,Jits_Linear_8,1,1,48,34,1469593016
116,15,18,Jits_Linear_8,2,5,56,103,1469688180
116,15,18,Jits_Linear_8,3,5,63,98,1469698820
116,15,18,Jits_Linear_8,0,5,63,98,1470357828
116,15,18,Jits_Linear_8,1,5,80,127,1470418372
116,15,18,Jits_Linear_8,2,5,56,103,1470427668
116,15,18,Jits_Linear_8,3,1,48,33,1470430416
116,15,18,Jits_Linear_8,0,5,56,103,1471157656
116,15,18,Jits_Linear_8,1,1,48,27,1471161376
116,15,18,Jits_Linear_8,2,5,63,98,1471228452
116,15,18,Jits_Linear_8,3,5,80,127,1471231740
116,15,18,Jits_Linear_8,0,1,48,34,1471957896
116,15,18,Jits_Linear_8,1,5,63,98,1471988044
116,15,18,Jits_Linear_8,2,5,56,103,1472038320
116,15,18,Jits_Linear_8,3,5,80,127,1472041388
116,15,18,Jits_Linear_8,0,5,56,103,1472737748
116,15,18,Jits_Linear_8,1,5,80,127,1472740740
116,15,18,Jits_Linear_8,2,1,48,32,1472752548
116,15,18,Jits_Linear_8,3,5,63,98,1472827800
116,15,18,Jits_Linear_8,0,1,48,29,1473531024
116,15,18,Jits_Linear_8,1,5,63,98,1473567992
116,15,18,Jits_Linear_8,2,5,56,103,1473658112
116,15,18,Jits_Linear_8,3,5,80,127,1473687888
116,15,18,Jits_Linear_8,0,1,48,30,1474328916
116,15,18,Jits_Linear_8,1,5,56,103,1474348492
116,15,18,Jits_Linear_8,2,5,63,98,1474447684
116,15,18,Jits_Linear_8,3,5,80,127,1474477532
116,15,18,Jits_Linear_8,0,1,48,29,1475152496
116,15,18,Jits_Linear_8,1,5,63,98,1475158520
116,15,18,Jits_Linear_8,2,5,56,103,1475167592
116,15,18,Jits_Linear_8,3,5,80,127,1475257736
116,15,18,Jits_Linear_8,0,1,48,30,1475947764
116,15,18,Jits_Linear_8,1,5,63,98,1475958124
116,15,18,Jits_Linear_8,2,5,56,103,1476038096
116,15,18,Jits_Linear_8,3,5,80,127,1476041972
116,15,18,Jits_Linear_8,0,5,80,127,1476697420
116,15,18,Jits_Linear_8,1,5,63,98,1476717956
116,15,18,Jits_Linear_8,2,5,56,103,1476778592
116,15,18,Jits_Linear_8,3,1,48,25,1476787936
116,15,18,Jits_Linear_8,0,5,56,103,1477517788
116,15,18,Jits_Linear_8,1,1,48,22,1477521356
116,15,18,Jits_Linear_8,2,5,63,98,1477538116
116,15,18,Jits_Linear_8,3,5,80,127,1477541632
116,15,18,Jits_Linear_8,0,5,63,98,1478237532
116,15,18,Jits_Linear_8,1,1,48,28,1478270172
116,15,18,Jits_Linear_8,2,5,80,127,1478317644
116,15,18,Jits_Linear_8,3,5,56,103,1478327544
116,15,18,Jits_Linear_8,0,1,48,27,1479033272
116,15,18,Jits_Linear_8,1,5,63,98,1479038472
116,15,18,Jits_Linear_8,2,5,56,103,1479057740
116,15,18,Jits_Linear_8,3,5,80,127,1479108016
116,15,18,Jits_Linear_8,0,1,48,30,1479804452
116,15,18,Jits_Linear_8,1,5,80,127,1479817524
116,15,18,Jits_Linear_8,2,5,63,98,1479857564
116,15,18,Jits_Linear_8,3,5,56,103,1479878024
116,15,18,Jits_Linear_8,0,1,48,29,1480588780
116,15,18,Jits_Linear_8,1,5,56,103,1480627492
116,15,18,Jits_Linear_8,2,5,63,98,1480637840
116,15,18,Jits_Linear_8,3,5,80,127,1480658520
116,15,18,Jits_Linear_8,0,5,56,103,1481327880
116,15,18,Jits_Linear_8,1,1,48,31,1481385928
116,15,18,Jits_Linear_8,2,5,63,98,1481418184
116,15,18,Jits_Linear_8,3,5,80,127,1481477528
116,15,18,Jits_Linear_8,0,5,80,127,1482127652
116,15,18,Jits_Linear_8,1,5,56,103,1482138172
116,15,18,Jits_Linear_8,2,1,48,30,1482148712
116,15,18,Jits_Linear_8,3,5,63,98,1482207476
116,15,18,Jits_Linear_8,0,1,48,32,1482922612
116,15,18,Jits_Linear_8,1,5,63,98,1482927440
116,15,18,Jits_Linear_8,2,5,80,127,1483017560
116,15,18,Jits_Linear_8,3,5,56,103,1483027684
116,15,18,Jits_Linear_8,0,5,63,98,1483627984
116,15,18,Jits_Linear_8,1,5,80,127,1483678064
116,15,18,Jits_Linear_8,2,1,48,27,1483726368
116,15,18,Jits_Linear_8,3,5,56,103,1483737548
116,15,18,Jits_Linear_8,0,5,56,103,1484418520
116,15,18,Jits_Linear_8,1,1,48,26,1484466036
116,15,18,Jits_Linear_8,2,5,80,127,1484467548
116,15,18,Jits_Linear_8,3,5,63,98,1484488152
116,15,18,Jits_Linear_8,0,5,56,103,1485147488
116,15,18,Jits_Linear_8,1,5,80,127,1485207908
116,15,18,Jits_Linear_8,2,1,48,29,1485248716
116,15,18,Jits_Linear_8,3,5,63,98,1485277508
116,15,18,Jits_Linear_8,0,5,56,103,1485908520
116,15,18,Jits_Linear_8,1,5,80,127,1485938048
116,15,18,Jits_Linear_8,2,5,63,98,1485967724
116,15,18,Jits_Linear_8,3,1,48,24,1485991536
116,15,18,Jits_Linear_8,0,1,48,25,1486685552
116,15,18,Jits_Linear_8,1,5,56,103,1486708196
116,15,18,Jits_Linear_8,2,5,80,127,1486727684
116,15,18,Jits_Linear_8,3,5,63,98,1486787936
116,15,18,Jits_Linear_8,0,1,48,25,1487470164
116,15,18,Jits_Linear_8,1,5,80,127,1487547692
116,15,18,Jits_Linear_8,2,5,56,103,1487558184
116,15,18,Jits_Linear_8,3,5,63,98,1487568216
116,15,18,Jits_Linear_8,0,1,48,24,1488251424
116,15,18,Jits_Linear_8,1,5,56,103,1488258272
116,15,18,Jits_Linear_8,2,5,80,127,1488298460
116,15,18,Jits_Linear_8,3,5,63,98,1488328284
116,15,18,Jits_Linear_8,0,5,56,103,1488978472
116,15,18,Jits_Linear_8,1,5,63,98,1489008000
116,15,18,Jits_Linear_8,2,1,48,28,1489037796
116,15,18,Jits_Linear_8,3,5,80,127,1489047880
116,15,18,Jits_Linear_8,0,5,80,127,1489677624
116,15,18,Jits_Linear_8,1,5,63,98,1489727976
116,15,18,Jits_Linear_8,2,5,56,103,1489748288
116,15,18,Jits_Linear_8,3,1,48,27,1489757780
116,15,18,Jits_Linear_8,0,1,48,28,1490436000
116,15,18,Jits_Linear_8,1,5,56,103,1490458124
116,15,18,Jits_Linear_8,2,5,80,127,1490527660
116,15,18,Jits_Linear_8,3,5,63,98,1490588136
116,15,18,Jits_Linear_8,0,5,80,127,1491198252
116,15,18,Jits_Linear_8,1,1,48,28,1491204216
116,15,18,Jits_Linear_8,2,5,63,98,1491288384
116,15,18,Jits_Linear_8,3,5,56,103,1491307856
116,15,18,Jits_Linear_8,0,5,63,98,1491958244
116,15,18,Jits_Linear_8,1,5,56,103,1491977508
116,15,18,Jits_Linear_8,2,1,48,26,1491992760
116,15,18,Jits_Linear_8,3,5,80,127,1492017440
116,15,18,Jits_Linear_8,0,5,80,127,1492657604
116,15,18,Jits_Linear_8,1,5,63,98,1492678288
116,15,18,Jits_Linear_8,2,1,48,28,1492688304
116,15,18,Jits_Linear_8,3,5,56,103,1492758000
116,15,18,Jits_Linear_8,0,5,63,98,1493387592
116,15,18,Jits_Linear_8,1,1,48,29,1493407076
116,15,18,Jits_Linear_8,2,5,56,103,1493498272
116,15,18,Jits_Linear_8,3,5,80,127,1493502148
116,15,18,Jits_Linear_8,0,5,63,98,1494147556
116,15,18,Jits_Linear_8,1,5,56,103,1494157824
116,15,18,Jits_Linear_8,2,5,80,127,1494160820
116,15,18,Jits_Linear_8,3,1,48,25,1494173448
116,15,18,Jits_Linear_8,0,5,56,103,1494868448
116,15,18,Jits_Linear_8,1,1,48,24,1494875924
116,15,18,Jits_Linear_8,2,5,80,127,1494988332
116,15,18,Jits_Linear_8,3,5,63,98,1495028196
116,15,18,Jits_Linear_8,0,5,56,103,1495618180
116,15,18,Jits_Linear_8,1,1,48,27,1495658764
116,15,18,Jits_Linear_8,2,5,80,127,1495697844
116,15,18,Jits_Linear_8,3,5,63,98,1495718232
116,15,18,Jits_Linear_8,0,5,56,103,1496348124
116,15,18,Jits_Linear_8,1,5,63,98,1496457516
116,15,18,Jits_Linear_8,2,5,80,127,1496460732
116,15,18,Jits_Linear_8,0,5,56,103,1497107916
116,15,18,Jits_Linear_8,1,5,80,127,1497137668
116,15,18,Jits_Linear_8,2,5,63,98,1497158200
116,15,18,Jits_Linear_8,3,1,48,25,1497184464
116,15,18,Jits_Linear_8,0,5,63,98,1497817480
116,15,18,Jits_Linear_8,1,5,56,103,1497827680
116,15,18,Jits_Linear_8,2,5,80,127,1497838024
116,15,18,Jits_Linear_8,3,1,48,28,1497878004
116,15,18,Jits_Linear_8,0,5,80,127,1498528148
116,15,18,Jits_Linear_8,1,5,56,103,1498578280
116,15,18,Jits_Linear_8,2,1,48,30,1498581324
116,15,18,Jits_Linear_8,3,5,63,98,1498618360
116,15,18,Jits_Linear_8,0,5,80,127,1499267360
116,15,18,Jits_Linear_8,1,5,63,98,1499288068
116,15,18,Jits_Linear_8,2,1,48,29,1499337520
116,15,18,Jits_Linear_8,3,5,56,103,1499339160
116,15,18,Jits_Linear_8,0,5,80,127,1499997452
116,15,18,Jits_Linear_8,1,5,56,103,1500028248
116,15,18,Jits_Linear_8,2,1,48,28,1500062704
116,15,18,Jits_Linear_8,3,5,63,98,1500098024
116,15,18,Jits_Linear_8,0,5,56,103,1500767556
116,15,18,Jits_Linear_8,1,5,80,127,1500777976
116,15,18,Jits_Linear_8,2,1,48,26,1500793824
116,15,18,Jits_Linear_8,3,5,63,98,1500818008
116,15,18,Jits_Linear_8,0,5,56,103,1501398308
116,15,18,Jits_Linear_8,1,5,63,98,1501417796
116,15,18,Jits_Linear_8,2,5,80,127,1501487476
116,15,18,Jits_Linear_8,3,1,48,25,1501540416
116,15,18,Jits_Linear_8,0,5,63,98,1502137840
116,15,18,Jits_Linear_8,1,5,80,127,1502198232
116,15,18,Jits_Linear_8,2,5,56,103,1502217572
116,15,18,Jits_Linear_8,3,1,48,28,1502219584
116,15,18,Jits_Linear_8,0,5,80,127,1502838076
116,15,18,Jits_Linear_8,1,5,56,103,1502868000
116,15,18,Jits_Linear_8,2,5,63,98,1502897524
116,15,18,Jits_Linear_8,3,1,48,27,1502933676
116,15,18,Jits_Linear_8,0,5,56,103,1503547716
116,15,18,Jits_Linear_8,1,5,63,98,1503608036
116,15,18,Jits_Linear_8,2,1,48,28,1503609000
116,15,18,Jits_Linear_8,3,5,80,127,1503667472
116,15,18,Jits_Linear_8,0,5,80,127,1504277960
116,15,18,Jits_Linear_8,1,5,56,103,1504298420
116,15,18,Jits_Linear_8,2,1,48,27,1504321168
116,15,18,Jits_Linear_8,3,5,63,98,1504368168
116,15,18,Jits_Linear_8,0,5,80,127,1504987452
116,15,18,Jits_Linear_8,1,5,63,98,1505008288
116,15,18,Jits_Linear_8,2,1,48,27,1505023020
116,15,18,Jits_Linear_8,3,5,56,103,1505037656
116,15,18,Jits_Linear_8,0,5,80,127,1505677592
116,15,18,Jits_Linear_8,1,5,63,98,1505698300
116,15,18,Jits_Linear_8,2,1,48,24,1505713628
116,15,18,Jits_Linear_8,3,5,56,103,1505757488
116,15,18,Jits_Linear_8,0,5,80,127,1506378316
116,15,18,Jits_Linear_8,1,1,48,32,1506443164
116,15,18,Jits_Linear_8,2,5,56,103,1506477388
116,15,18,Jits_Linear_8,3,5,63,98,1506508108
116,15,18,Jits_Linear_8,0,5,63,98,1507068256
116,15,18,Jits_Linear_8,1,5,80,127,1507117416
116,15,18,Jits_Linear_8,2,5,56,103,1507138244
116,15,18,Jits_Linear_8,3,1,48,24,1507186320
116,15,18,Jits_Linear_8,0,5,80,127,1507807556
116,15,18,Jits_Linear_8,1,5,56,103,1507838276
116,15,18,Jits_Linear_8,2,1,48,27,1507839180
116,15,18,Jits_Linear_8,3,5,63,98,1507842608
116,15,18,Jits_Linear_8,0,5,63,98,1508537644
116,15,18,Jits_Linear_8,1,1,48,29,1508542332
116,15,18,Jits_Linear_8,2,5,56,103,1508577728
116,15,18,Jits_Linear_8,3,5,80,127,1508598036
116,15,18,Jits_Linear_8,0,5,80,127,1509177796
116,15,18,Jits_Linear_8,1,5,63,98,1509257524
116,15,18,Jits_Linear_8,2,1,48,30,1509273700
116,15,18,Jits_Linear_8,3,5,56,103,1509297480
116,15,18,Jits_Linear_8,0,5,63,98,1509888268
116,15,18,Jits_Linear_8,1,1,48,23,1509962936
116,15,18,Jits_Linear_8,2,5,80,127,1509968356
116,15,18,Jits_Linear_8,3,5,56,103,1509987620
116,15,18,Jits_Linear_8,0,5,56,103,1510617532
116,15,18,Jits_Linear_8,1,1,48,24,1510623720
116,15,18,Jits_Linear_8,2,5,63,98,1510627572
116,15,18,Jits_Linear_8,3,5,80,127,1510667736
116,15,18,Jits_Linear_8,0,5,56,103,1511227876
116,15,18,Jits_Linear_8,1,5,80,127,1511231016
116,15,18,Jits_Linear_8,2,1,48,28,1511282764
116,15,18,Jits_Linear_8,3,5,63,98,1511368144
116,15,18,Jits_Linear_8,0,5,56,103,1511907760
116,15,18,Jits_Linear_8,1,1,48,27,1511971268
116,15,18,Jits_Linear_8,2,5,63,98,1511997816
116,15,18,Jits_Linear_8,3,5,80,127,1512067348
116,15,18,Jits_Linear_8,0,1,48,27,1512666004
116,15,18,Jits_Linear_8,1,5,63,98,1512667524
116,15,18,Jits_Linear_8,2,5,80,127,1512670740
116,15,18,Jits_Linear_8,3,5,56,103,1512727912
116,15,18,Jits_Linear_8,0,1,48,27,1513364220
116,15,18,Jits_Linear_8,1,5,80,127,1513388456
116,15,18,Jits_Linear_8,2,5,56,103,1513407872
116,15,18,Jits_Linear_8,3,5,63,98,1513418068
116,15,18,Jits_Linear_8,0,5,56,103,1513987340
116,15,18,Jits_Linear_8,1,5,63,98,1513997612
116,15,18,Jits_Linear_8,2,5,80,127,1514068192
116,15,18,Jits_Linear_8,3,1,48,26,1514072360
116,15,18,Jits_Linear_8,0,5,80,127,1514668352
116,15,18,Jits_Linear_8,1,1,48,26,1514684724
116,15,18,Jits_Linear_8,2,5,56,103,1514717648
116,15,18,Jits_Linear_8,3,5,63,98,1514768148
116,15,18,Jits_Linear_8,0,1,48,24,1515397424
116,15,18,Jits_Linear_8,1,5,56,103,1515428188
116,15,18,Jits_Linear_8,2,5,63,98,1515437412
116,15,18,Jits_Linear_8,3,5,80,127,1515478324
116,15,18,Jits_Linear_8,0,5,56,103,1516047824
116,15,18,Jits_Linear_8,1,5,63,98,1516087912
116,15,18,Jits_Linear_8,2,1,48,27,1516115076
116,15,18,Jits_Linear_8,3,5,80,127,1516138108
116,15,18,Jits_Linear_8,0,5,80,127,1516677428
116,15,18,Jits_Linear_8,1,5,56,103,1516727804
116,15,18,Jits_Linear_8,2,5,63,98,1516748040
116,15,18,Jits_Linear_8,3,1,48,21,1516752060
116,15,18,Jits_Linear_8,0,5,80,127,1517357396
116,15,18,Jits_Linear_8,1,1,48,24,1517406820
116,15,18,Jits_Linear_8,2,5,63,98,1517418004
116,15,18,Jits_Linear_8,3,5,56,103,1517497824
116,15,18,Jits_Linear_8,0,5,80,127,1518007628
116,15,18,Jits_Linear_8,1,5,56,103,1518047640
116,15,18,Jits_Linear_8,2,5,63,98,1518068028
116,15,18,Jits_Linear_8,3,1,48,25,1518121564
116,15,18,Jits_Linear_8,0,5,56,103,1518727728
116,15,18,Jits_Linear_8,1,5,80,127,1518737876
116,15,18,Jits_Linear_8,2,5,63,98,1518777888
116,15,18,Jits_Linear_8,3,1,48,21,1518779080
116,15,18,Jits_Linear_8,0,1,48,23,1519408720
116,15,18,Jits_Linear_8,1,5,56,103,1519457596
116,15,18,Jits_Linear_8,2,5,63,98,1519497612
116,15,18,Jits_Linear_8,3,5,80,127,1519501048
116,15,18,Jits_Linear_8,0,5,63,98,1520007472
116,15,18,Jits_Linear_8,1,5,80,127,1520047440
116,15,18,Jits_Linear_8,2,5,56,103,1520118092
116,15,18,Jits_Linear_8,3,1,48,21,1520122780
116,15,18,Jits_Linear_8,0,5,63,98,1520657984
116,15,18,Jits_Linear_8,1,5,56,103,1520737708
116,15,18,Jits_Linear_8,2,5,80,127,1520798048
116,15,18,Jits_Linear_8,3,1,48,24,1520803192
116,15,18,Jits_Linear_8,0,5,80,127,1521327604
116,15,18,Jits_Linear_8,1,5,63,98,1521377732
116,15,18,Jits_Linear_8,2,5,56,103,1521408380
116,15,18,Jits_Linear_8,3,1,48,19,1521453972
116,15,18,Jits_Linear_8,0,5,56,103,1521977852
116,15,18,Jits_Linear_8,1,5,63,98,1522027980
116,15,18,Jits_Linear_8,2,5,80,127,1522038180
116,15,18,Jits_Linear_8,3,1,48,24,1522054332
116,15,18,Jits_Linear_8,0,5,56,103,1522648308
116,15,18,Jits_Linear_8,1,1,48,21,1522667164
116,15,18,Jits_Linear_8,2,5,63,98,1522757916
116,15,18,Jits_Linear_8,3,5,80,127,1522777536
116,15,18,Jits_Linear_8,0,5,63,98,1523297840
116,15,18,Jits_Linear_8,1,5,80,127,1523347996
116,15,18,Jits_Linear_8,2,1,48,21,1523363324
116,15,18,Jits_Linear_8,3,5,56,103,1523437896
116,15,18,Jits_Linear_8,0,5,63,98,1523937792
116,15,18,Jits_Linear_8,1,5,80,127,1523968368
116,15,18,Jits_Linear_8,2,1,48,25,1524033964
116,15,18,Jits_Linear_8,3,5,56,103,1524057448
116,15,18,Jits_Linear_8,0,5,63,98,1524587904
116,15,18,Jits_Linear_8,1,5,56,103,1524598248
116,15,18,Jits_Linear_8,2,1,48,21,1524672568
116,15,18,Jits_Linear_8,3,5,80,127,1524697320
116,15,18,Jits_Linear_8,0,1,48,15,1525294564
116,15,18,Jits_Linear_8,1,5,63,98,1525337384
116,15,18,Jits_Linear_8,2,5,80,127,1525368180
116,15,18,Jits_Linear_8,3,5,56,103,1525397864
116,15,18,Jits_Linear_8,0,1,48,21,1525983076
116,15,18,Jits_Linear_8,1,5,80,127,1525997872
116,15,18,Jits_Linear_8,2,5,63,98,1526008292
116,15,18,Jits_Linear_8,3,5,56,103,1526037968
116,15,18,Jits_Linear_8,0,5,80,127,1526537788
116,15,18,Jits_Linear_8,1,5,63,98,1526558028
116,15,18,Jits_Linear_8,2,5,56,103,1526608156
116,15,18,Jits_Linear_8,3,1,48,26,1526609120
116,15,18,Jits_Linear_8,0,1,48,21,1527170280
116,15,18,Jits_Linear_8,1,5,63,98,1527208464
116,15,18,Jits_Linear_8,2,5,80,127,1527267648
116,15,18,Jits_Linear_8,3,5,56,103,1527288252
116,15,18,Jits_Linear_8,0,5,63,98,1527808316
116,15,18,Jits_Linear_8,1,5,56,103,1527857920
116,15,18,Jits_Linear_8,2,5,80,127,1527867672
116,15,18,Jits_Linear_8,3,1,48,23,1527878208
116,15,18,Jits_Linear_8,0,5,56,103,1528478080
116,15,18,Jits_Linear_8,1,5,80,127,1528488352
116,15,18,Jits_Linear_8,2,1,48,22,1528495140
116,15,18,Jits_Linear_8,3,5,63,98,1528588580
116,15,18,Jits_Linear_8,0,5,80,127,1529078092
116,15,18,Jits_Linear_8,1,5,63,98,1529088660
116,15,18,Jits_Linear_8,2,1,48,25,1529178468
116,15,18,Jits_Linear_8,3,5,56,103,1529237848
116,15,18,Jits_Linear_8,0,5,63,98,1529718032
116,15,18,Jits_Linear_8,1,5,80,127,1529757996
116,15,18,Jits_Linear_8,2,1,48,19,1529827352
116,15,18,Jits_Linear_8,3,5,56,103,1529838008
116,15,18,Jits_Linear_8,0,5,56,103,1530337680
116,15,18,Jits_Linear_8,1,5,80,127,1530437932
116,15,18,Jits_Linear_8,2,1,48,23,1530439720
116,15,18,Jits_Linear_8,3,5,63,98,1530457412
116,15,18,Jits_Linear_8,0,5,80,127,1531027772
116,15,18,Jits_Linear_8,1,5,56,103,1531038264
116,15,18,Jits_Linear_8,2,1,48,22,1531064756
116,15,18,Jits_Linear_8,3,5,63,98,1531128168
116,15,18,Jits_Linear_8,0,5,56,103,1531657900
116,15,18,Jits_Linear_8,1,5,63,98,1531677988
116,15,18,Jits_Linear_8,2,1,48,25,1531718268
116,15,18,Jits_Linear_8,3,5,80,127,1531757852
116,15,18,Jits_Linear_8,0,5,63,98,1532228020
116,15,18,Jits_Linear_8,1,5,56,103,1532317952
116,15,18,Jits_Linear_8,2,5,80,127,1532321024
116,15,18,Jits_Linear_8,3,1,48,22,1532332092
116,15,18,Jits_Linear_8,0,1,48,20,1532873020
116,15,18,Jits_Linear_8,1,5,56,103,1532878296
116,15,18,Jits_Linear_8,2,5,80,127,1532937640
116,15,18,Jits_Linear_8,3,5,63,98,1532947688
116,15,18,Jits_Linear_8,0,1,48,23,1533491676
116,15,18,Jits_Linear_8,1,5,80,127,1533547824
116,15,18,Jits_Linear_8,2,5,56,103,1533558092
116,15,18,Jits_Linear_8,3,5,63,98,1533561384
116,15,18,Jits_Linear_8,0,1,48,23,1534122928
116,15,18,Jits_Linear_8,1,5,56,103,1534127604
116,15,18,Jits_Linear_8,2,5,80,127,1534137652
116,15,18,Jits_Linear_8,3,5,63,98,1534158260
116,15,18,Jits_Linear_8,0,1,48,23,1534716192
116,15,18,Jits_Linear_8,1,5,63,98,1534718232
116,15,18,Jits_Linear_8,2,5,80,127,1534777576
116,15,18,Jits_Linear_8,3,5,56,103,1534827836
116,15,18,Jits_Linear_8,0,1,48,23,1535387236
116,15,18,Jits_Linear_8,1,5,63,98,1535417828
116,15,18,Jits_Linear_8,2,5,56,103,1535427876
116,15,18,Jits_Linear_8,3,5,80,127,1535478076
116,15,18,Jits_Linear_8,0,5,63,98,1535927776
116,15,18,Jits_Linear_8,1,5,80,127,1535948088
116,15,18,Jits_Linear_8,2,5,56,103,1535958356
116,15,18,Jits_Linear_8,3,1,48,22,1536049428
116,15,18,Jits_Linear_8,0,5,63,98,1536537872
116,15,18,Jits_Linear_8,1,5,80,127,1536541168
116,15,18,Jits_Linear_8,2,5,56,103,1536577892
116,15,18,Jits_Linear_8,3,1,48,21,1536626636
116,15,18,Jits_Linear_8,0,1,48,22,1537172228
116,15,18,Jits_Linear_8,1,5,63,98,1537217964
116,15,18,Jits_Linear_8,2,5,80,127,1537247792
116,15,18,Jits_Linear_8,3,5,56,103,1537257988
116,15,18,Jits_Linear_8,0,5,56,103,1537777884
116,15,18,Jits_Linear_8,1,5,80,127,1537807856
116,15,18,Jits_Linear_8,2,1,48,19,1537810756
116,15,18,Jits_Linear_8,3,5,63,98,1537837528
116,15,18,Jits_Linear_8,0,1,48,23,1538390668
116,15,18,Jits_Linear_8,1,5,63,98,1538477556
116,15,18,Jits_Linear_8,2,5,56,103,1538518676
116,15,18,Jits_Linear_8,3,5,80,127,1538521744
116,15,18,Jits_Linear_8,0,5,80,127,1538978136
116,15,18,Jits_Linear_8,1,1,48,25,1539054444
116,15,18,Jits_Linear_8,2,5,56,103,1539058004
116,15,18,Jits_Linear_8,3,5,63,98,1539108204
116,15,18,Jits_Linear_8,0,5,80,127,1539557692
116,15,18,Jits_Linear_8,1,5,56,103,1539578228
116,15,18,Jits_Linear_8,2,1,48,24,1539660988
116,15,18,Jits_Linear_8,3,5,63,98,1539668352
116,15,18,Jits_Linear_8,0,5,80,127,1540197632
116,15,18,Jits_Linear_8,1,1,48,22,1540208100
116,15,18,Jits_Linear_8,2,5,63,98,1540237720
116,15,18,Jits_Linear_8,3,5,56,103,1540277680
116,15,18,Jits_Linear_8,0,5,63,98,1540768076
116,15,18,Jits_Linear_8,1,1,48,17,1540824160
116,15,18,Jits_Linear_8,2,5,80,127,1540827784
116,15,18,Jits_Linear_8,3,5,56,103,1540858284
116,15,18,Jits_Linear_8,0,5,56,103,1541368288
116,15,18,Jits_Linear_8,1,5,80,127,1541397740
116,15,18,Jits_Linear_8,2,1,48,21,1541400408
116,15,18,Jits_Linear_8,3,5,63,98,1541487868
116,15,18,Jits_Linear_8,0,5,56,103,1541968444
116,15,18,Jits_Linear_8,1,1,48,23,1542019444
116,15,18,Jits_Linear_8,2,5,80,127,1542077784
116,15,18,Jits_Linear_8,3,5,63,98,1542107460
116,15,18,Jits_Linear_8,0,5,56,103,1542608420
116,15,18,Jits_Linear_8,1,1,48,21,1542650724
116,15,18,Jits_Linear_8,2,5,63,98,1542667536
116,15,18,Jits_Linear_8,3,5,80,127,1542698628
116,15,18,Jits_Linear_8,0,5,56,103,1543168428
116,15,18,Jits_Linear_8,1,5,63,98,1543237964
116,15,18,Jits_Linear_8,2,1,48,26,1543248500
116,15,18,Jits_Linear_8,3,5,80,127,1543257740
116,15,18,Jits_Linear_8,0,5,80,127,1543727532
116,15,18,Jits_Linear_8,1,5,63,98,1543747916
116,15,18,Jits_Linear_8,2,1,48,22,1543792612
116,15,18,Jits_Linear_8,3,5,56,103,1543798112
116,15,18,Jits_Linear_8,0,5,63,98,1544327464
116,15,18,Jits_Linear_8,1,5,80,127,1544337684
116,15,18,Jits_Linear_8,2,1,48,28,1544350848
116,15,18,Jits_Linear_8,3,5,56,103,1544387880
116,15,18,Jits_Linear_8,0,5,63,98,1544908148
116,15,18,Jits_Linear_8,1,1,48,21,1544922580
116,15,18,Jits_Linear_8,2,5,80,127,1544977752
116,15,18,Jits_Linear_8,3,5,56,103,1544998212
116,15,18,Jits_Linear_8,0,1,48,18,1545504060
116,15,18,Jits_Linear_8,1,5,63,98,1545517504
116,15,18,Jits_Linear_8,2,5,80,127,1545520868
116,15,18,Jits_Linear_8,3,5,56,103,1545587936
116,15,18,Jits_Linear_8,0,5,80,127,1546047744
116,15,18,Jits_Linear_8,1,5,56,103,1546068428
116,15,18,Jits_Linear_8,2,5,63,98,1546077428
116,15,18,Jits_Linear_8,3,1,48,26,1546111784
116,15,18,Jits_Linear_8,0,1,48,26,1546632800
116,15,18,Jits_Linear_8,1,5,56,103,1546648064
116,15,18,Jits_Linear_8,2,5,63,98,1546737960
116,15,18,Jits_Linear_8,3,5,80,127,1546741400
116,15,18,Jits_Linear_8,0,5,80,127,1547197864
116,15,18,Jits_Linear_8,1,5,56,103,1547208132
116,15,18,Jits_Linear_8,2,5,63,98,1547227400
116,15,18,Jits_Linear_8,3,1,48,23,1547254932
116,15,18,Jits_Linear_8,0,5,63,98,1547768120
116,15,18,Jits_Linear_8,1,1,48,21,1547774084
116,15,18,Jits_Linear_8,2,5,80,127,1547827536
116,15,18,Jits_Linear_8,3,5,56,103,1547837952
116,15,18,Jits_Linear_8,0,1,48,23,1548335100
116,15,18,Jits_Linear_8,1,5,63,98,1548408416
116,15,18,Jits_Linear_8,2,5,80,127,1548437804
116,15,18,Jits_Linear_8,3,5,56,103,1548477668
116,15,18,Jits_Linear_8,0,5,56,103,1548968512
116,15,18,Jits_Linear_8,1,5,80,127,1548977660
116,15,18,Jits_Linear_8,2,5,63,98,1549017676
116,15,18,Jits_Linear_8,3,1,48,19,1549020796
116,15,18,Jits_Linear_8,0,5,80,127,1549497648
116,15,18,Jits_Linear_8,1,5,56,103,1549577524
116,15,18,Jits_Linear_8,2,5,63,98,1549587944
116,15,18,Jits_Linear_8,3,1,48,26,1549612264
116,15,18,Jits_Linear_8,0,5,80,127,1550108148
116,15,18,Jits_Linear_8,1,1,48,27,1550180428
116,15,18,Jits_Linear_8,2,5,56,103,1550188016
116,15,18,Jits_Linear_8,3,5,63,98,1550198364
116,15,18,Jits_Linear_8,0,5,80,127,1550628304
116,15,18,Jits_Linear_8,1,5,56,103,1550678360
116,15,18,Jits_Linear_8,2,5,63,98,1550727512
116,15,18,Jits_Linear_8,3,1,48,28,1550750284
116,15,18,Jits_Linear_8,0,5,56,103,1551247896
116,15,18,Jits_Linear_8,1,5,63,98,1551250816
116,15,18,Jits_Linear_8,2,1,48,24,1551274832
116,15,18,Jits_Linear_8,3,5,80,127,1551297868
116,15,18,Jits_Linear_8,0,1,48,29,1551804488
116,15,18,Jits_Linear_8,1,5,56,103,1551828344
116,15,18,Jits_Linear_8,2,5,63,98,1551858096
116,15,18,Jits_Linear_8,3,5,80,127,1551868368
116,15,18,Jits_Linear_8,0,5,63,98,1552298292
116,15,18,Jits_Linear_8,1,5,56,103,1552367976
116,15,18,Jits_Linear_8,2,1,48,29,1552373116
116,15,18,Jits_Linear_8,3,5,80,127,1552418392
116,15,18,Jits_Linear_8,0,1,48,23,1552862064
116,15,18,Jits_Linear_8,1,5,63,98,1552888316
116,15,18,Jits_Linear_8,2,5,56,103,1552898364
116,15,18,Jits_Linear_8,3,5,80,127,1552901652
116,15,18,Jits_Linear_8,0,5,80,127,1553387764
116,15,18,Jits_Linear_8,1,1,48,21,1553415692
116,15,18,Jits_Linear_8,2,5,56,103,1553448452
116,15,18,Jits_Linear_8,3,5,63,98,1553538568
116,15,18,Jits_Linear_8,0,5,80,127,1553937728
116,15,18,Jits_Linear_8,1,1,48,27,1554012692
116,15,18,Jits_Linear_8,2,5,56,103,1554038420
116,15,18,Jits_Linear_8,3,5,63,98,1554078012
116,15,18,Jits_Linear_8,0,5,56,103,1554537820
116,15,18,Jits_Linear_8,1,5,63,98,1554558428
116,15,18,Jits_Linear_8,2,5,80,127,1554598464
116,15,18,Jits_Linear_8,3,1,48,29,1554601956
116,15,18,Jits_Linear_8,0,5,63,98,1555058112
116,15,18,Jits_Linear_8,1,5,56,103,1555077452
116,15,18,Jits_Linear_8,2,1,48,29,1555087864
116,15,18,Jits_Linear_8,3,5,80,127,1555177788
116,15,18,Jits_Linear_8,0,5,63,98,1555587532
116,15,18,Jits_Linear_8,1,1,48,23,1555605748
116,15,18,Jits_Linear_8,2,5,80,127,1555698496
116,15,18,Jits_Linear_8,3,5,56,103,1555727652
116,15,18,Jits_Linear_8,0,5,56,103,1556157744
116,15,18,Jits_Linear_8,1,5,63,98,1556187568
116,15,18,Jits_Linear_8,2,1,48,28,1556190616
116,15,18,Jits_Linear_8,3,5,80,127,1556237612
116,15,18,Jits_Linear_8,0,5,63,98,1556667844
116,15,18,Jits_Linear_8,1,5,56,103,1556697524
116,15,18,Jits_Linear_8,2,1,48,24,1556735396
116,15,18,Jits_Linear_8,3,5,80,127,1556747568
116,15,18,Jits_Linear_8,0,5,56,103,1557238388
116,15,18,Jits_Linear_8,1,1,48,27,1557257284
116,15,18,Jits_Linear_8,2,5,63,98,1557258696
116,15,18,Jits_Linear_8,3,5,80,127,1557337520
116,15,18,Jits_Linear_8,0,5,63,98,1557748048
116,15,18,Jits_Linear_8,1,5,56,103,1557807396
116,15,18,Jits_Linear_8,2,1,48,27,1557815692
116,15,18,Jits_Linear_8,3,5,80,127,1557838260
116,15,18,Jits_Linear_8,0,1,48,22,1558320368
116,15,18,Jits_Linear_8,1,5,56,103,1558327660
116,15,18,Jits_Linear_8,2,5,80,127,1558388128
116,15,18,Jits_Linear_8,3,5,63,98,1558428000
116,15,18,Jits_Linear_8,0,5,63,98,1558837612
116,15,18,Jits_Linear_8,1,1,48,28,1558865072
116,15,18,Jits_Linear_8,2,5,56,103,1558898220
116,15,18,Jits_Linear_8,3,5,80,127,1558967540
116,15,18,Jits_Linear_8,0,1,48,27,1559395160
116,15,18,Jits_Linear_8,1,5,56,103,1559447820
116,15,18,Jits_Linear_8,2,5,63,98,1559458088
116,15,18,Jits_Linear_8,3,5,80,127,1559461456
116,15,18,Jits_Linear_8,0,5,63,98,1559918248
116,15,18,Jits_Linear_8,1,5,56,103,1559978292
116,15,18,Jits_Linear_8,2,5,80,127,1559981432
116,15,18,Jits_Linear_8,3,1,48,27,1559988828
116,15,18,Jits_Linear_8,0,5,63,98,1560427808
116,15,18,Jits_Linear_8,1,5,80,127,1560457708
116,15,18,Jits_Linear_8,2,5,56,103,1560478268
116,15,18,Jits_Linear_8,3,1,48,27,1560533224
116,15,18,Jits_Linear_8,0,5,56,103,1560958272
116,15,18,Jits_Linear_8,1,1,48,29,1560981196
116,15,18,Jits_Linear_8,2,5,63,98,1561007376
116,15,18,Jits_Linear_8,3,5,80,127,1561088352
116,15,18,Jits_Linear_8,0,5,80,127,1561458116
116,15,18,Jits_Linear_8,1,5,63,98,1561497936
116,15,18,Jits_Linear_8,2,5,56,103,1561517420
116,15,18,Jits_Linear_8,3,1,48,28,1561563612
116,15,18,Jits_Linear_8,0,5,56,103,1562047892
116,15,18,Jits_Linear_8,1,1,48,29,1562052056
116,15,18,Jits_Linear_8,2,5,80,127,1562058380
116,15,18,Jits_Linear_8,3,5,63,98,1562077568
116,15,18,Jits_Linear_8,0,5,56,103,1562547516
116,15,18,Jits_Linear_8,1,5,63,98,1562597644
116,15,18,Jits_Linear_8,2,1,48,26,1562609684
116,15,18,Jits_Linear_8,3,5,80,127,1562627388
116,15,18,Jits_Linear_8,0,5,56,103,1563017588
116,15,18,Jits_Linear_8,1,5,63,98,1563027960
116,15,18,Jits_Linear_8,2,5,80,127,1563077940
116,15,18,Jits_Linear_8,3,1,48,30,1563122036
116,15,18,Jits_Linear_8,0,5,56,103,1563527464
116,15,18,Jits_Linear_8,1,5,80,127,1563530532
116,15,18,Jits_Linear_8,2,1,48,22,1563539676
116,15,18,Jits_Linear_8,3,5,63,98,1563688396
116,15,18,Jits_Linear_8,0,5,63,98,1564058188
116,15,18,Jits_Linear_8,1,5,56,103,1564127724
116,15,18,Jits_Linear_8,2,1,48,26,1564131292
116,15,18,Jits_Linear_8,3,5,80,127,1564167580
116,15,18,Jits_Linear_8,0,5,63,98,1564607992
116,15,18,Jits_Linear_8,1,1,48,27,1564663032
116,15,18,Jits_Linear_8,2,5,56,103,1564697900
116,15,18,Jits_Linear_8,3,5,80,127,1564701340
116,15,18,Jits_Linear_8,0,5,56,103,1565098308
116,15,18,Jits_Linear_8,1,5,63,98,1565187324
116,15,18,Jits_Linear_8,2,1,48,27,1565191340
116,15,18,Jits_Linear_8,3,5,80,127,1565197660
116,15,18,Jits_Linear_8,0,5,56,103,1565577452
116,15,18,Jits_Linear_8,1,5,63,98,1565627828
116,15,18,Jits_Linear_8,2,5,80,127,1565657356
116,15,18,Jits_Linear_8,3,1,48,29,1565669312
116,15,18,Jits_Linear_8,0,1,48,25,1566103348
116,15,18,Jits_Linear_8,1,5,63,98,1566158224
116,15,18,Jits_Linear_8,2,5,80,127,1566168424
116,15,18,Jits_Linear_8,3,5,56,103,1566227676
116,15,18,Jits_Linear_8,0,5,63,98,1566578100
116,15,18,Jits_Linear_8,1,5,80,127,1566637324
116,15,18,Jits_Linear_8,2,5,56,103,1566678380
116,15,18,Jits_Linear_8,3,1,48,20,1566700008
116,15,18,Jits_Linear_8,0,1,48,26,1567165664
116,15,18,Jits_Linear_8,1,5,56,103,1567178268
116,15,18,Jits_Linear_8,2,5,80,127,1567197532
116,15,18,Jits_Linear_8,3,5,63,98,1567218140
116,15,18,Jits_Linear_8,0,5,63,98,1567598068
116,15,18,Jits_Linear_8,1,5,56,103,1567618304
116,15,18,Jits_Linear_8,2,5,80,127,1567658340
116,15,18,Jits_Linear_8,3,1,48,32,1567677576
116,15,18,Jits_Linear_8,0,5,63,98,1568108008
116,15,18,Jits_Linear_8,1,1,48,30,1568129712
116,15,18,Jits_Linear_8,2,5,80,127,1568137532
116,15,18,Jits_Linear_8,3,5,56,103,1568158088
116,15,18,Jits_Linear_8,0,5,80,127,1568577860
116,15,18,Jits_Linear_8,1,1,48,31,1568602184
116,15,18,Jits_Linear_8,2,5,56,103,1568628280
116,15,18,Jits_Linear_8,3,5,63,98,1568687428
116,15,18,Jits_Linear_8,0,5,63,98,1569058368
116,15,18,Jits_Linear_8,1,5,56,103,1569178128
116,15,18,Jits_Linear_8,2,1,48,32,1569187024
116,15,18,Jits_Linear_8,3,5,80,127,1569207648
116,15,18,Jits_Linear_8,0,5,80,127,1569587576
116,15,18,Jits_Linear_8,1,5,63,98,1569608332
116,15,18,Jits_Linear_8,2,1,48,24,1569655648
116,15,18,Jits_Linear_8,3,5,56,103,1569677960
116,15,18,Jits_Linear_8,0,5,63,98,1570097384
116,15,18,Jits_Linear_8,1,5,56,103,1570107804
116,15,18,Jits_Linear_8,2,1,48,27,1570136480
116,15,18,Jits_Linear_8,3,5,80,127,1570187592
116,15,18,Jits_Linear_8,0,5,56,103,1570648440
116,15,18,Jits_Linear_8,1,1,48,26,1570653652
116,15,18,Jits_Linear_8,2,5,80,127,1570678332
116,15,18,Jits_Linear_8,3,5,63,98,1570688380
116,15,18,Jits_Linear_8,0,9999,9999,9999,1460295744
116,15,18,Jits_Linear_8,1,9999,9999,9999,1461115980
116,15,18,Jits_Linear_8,2,9999,9999,9999,1461935188
116,15,18,Jits_Linear_8,3,9999,9999,9999,1462755412
116,15,18,Jits_Linear_8,4,9999,9999,9999,1463575628
116,15,18,Jits_Linear_8,5,9999,9999,9999,1464385648
116,15,18,Jits_Linear_8,6,9999,9999,9999,1465195588
116,15,18,Jits_Linear_8,7,9999,9999,9999,1466005576
116,15,18,Jits_Linear_8,8,9999,9999,9999,1466815600
116,15,18,Jits_Linear_8,9,9999,9999,9999,1467625532
116,15,18,Jits_Linear_8,10,9999,9999,9999,1468425308
116,15,18,Jits_Linear_8,11,9999,9999,9999,1469226040
116,15,18,Jits_Linear_8,12,9999,9999,9999,1470025812
116,15,18,Jits_Linear_8,13,9999,9999,9999,1470825580
116,15,18,Jits_Linear_8,14,9999,9999,9999,1471625324
116,15,18,Jits_Linear_8,15,9999,9999,9999,1472415812
116,15,18,Jits_Linear_8,16,9999,9999,9999,1473205364
116,15,18,Jits_Linear_8,17,9999,9999,9999,1473995848
116,15,18,Jits_Linear_8,18,9999,9999,9999,1474785344
116,15,18,Jits_Linear_8,19,9999,9999,9999,1475575884
116,15,18,Jits_Linear_8,20,9999,9999,9999,1476355180
116,15,18,Jits_Linear_8,21,9999,9999,9999,1477135452
116,15,18,Jits_Linear_8,22,9999,9999,9999,1477915732
116,15,18,Jits_Linear_8,23,9999,9999,9999,1478696020
116,15,18,Jits_Linear_8,24,9999,9999,9999,1479475292
116,15,18,Jits_Linear_8,25,9999,9999,9999,1480245304
116,15,18,Jits_Linear_8,26,9999,9999,9999,1481015388
116,15,18,Jits_Linear_8,27,9999,9999,9999,1481785400
116,15,18,Jits_Linear_8,28,9999,9999,9999,1482555500
116,15,18,Jits_Linear_8,29,9999,9999,9999,1483325532
116,15,18,Jits_Linear_8,30,9999,9999,9999,1484085352
116,15,18,Jits_Linear_8,31,9999,9999,9999,1484845172
116,15,18,Jits_Linear_8,32,9999,9999,9999,1485605980
116,15,18,Jits_Linear_8,33,9999,9999,9999,1486365804
116,15,18,Jits_Linear_8,34,9999,9999,9999,1487125564
116,15,18,Jits_Linear_8,35,9999,9999,9999,1487875132
116,15,18,Jits_Linear_8,36,9999,9999,9999,1488625744
116,15,18,Jits_Linear_8,37,9999,9999,9999,1489375308
116,15,18,Jits_Linear_8,38,9999,9999,9999,1490125920
116,15,18,Jits_Linear_8,39,9999,9999,9999,1490875496
116,15,18,Jits_Linear_8,40,9999,9999,9999,1491615840
116,15,18,Jits_Linear_8,41,9999,9999,9999,1492355200
116,15,18,Jits_Linear_8,42,9999,9999,9999,1493095540
116,15,18,Jits_Linear_8,43,9999,9999,9999,1493835884
116,15,18,Jits_Linear_8,44,9999,9999,9999,1494575216
116,15,18,Jits_Linear_8,45,9999,9999,9999,1495305300
116,15,18,Jits_Linear_8,46,9999,9999,9999,1496035392
116,15,18,Jits_Linear_8,47,9999,9999,9999,1496765504
116,15,18,Jits_Linear_8,48,9999,9999,9999,1497495608
116,15,18,Jits_Linear_8,49,9999,9999,9999,1498225744
116,15,18,Jits_Linear_8,50,9999,9999,9999,1498945632
116,15,18,Jits_Linear_8,51,9999,9999,9999,1499665464
116,15,18,Jits_Linear_8,52,9999,9999,9999,1500385368
116,15,18,Jits_Linear_8,53,9999,9999,9999,1501105208
116,15,18,Jits_Linear_8,54,9999,9999,9999,1501825080
116,15,18,Jits_Linear_8,55,9999,9999,9999,1502535772
116,15,18,Jits_Linear_8,56,9999,9999,9999,1503245396
116,15,18,Jits_Linear_8,57,9999,9999,9999,1503956088
116,15,18,Jits_Linear_8,58,9999,9999,9999,1504665656
116,15,18,Jits_Linear_8,59,9999,9999,9999,1505375344
116,15,18,Jits_Linear_8,60,9999,9999,9999,1506075772
116,15,18,Jits_Linear_8,61,9999,9999,9999,1506775156
116,15,18,Jits_Linear_8,62,9999,9999,9999,1507475580
116,15,18,Jits_Linear_8,63,9999,9999,9999,1508175960
116,15,18,Jits_Linear_8,64,9999,9999,9999,1508875344
116,15,18,Jits_Linear_8,65,9999,9999,9999,1509565496
116,15,18,Jits_Linear_8,66,9999,9999,9999,1510255712
116,15,18,Jits_Linear_8,67,9999,9999,9999,1510945864
116,15,18,Jits_Linear_8,68,9999,9999,9999,1511636088
116,15,18,Jits_Linear_8,69,9999,9999,9999,1512325176
116,15,18,Jits_Linear_8,70,9999,9999,9999,1513005144
116,15,18,Jits_Linear_8,71,9999,9999,9999,1513686084
116,15,18,Jits_Linear_8,72,9999,9999,9999,1514375232
116,15,18,Jits_Linear_8,73,9999,9999,9999,1515055200
116,15,18,Jits_Linear_8,74,9999,9999,9999,1515735104
116,15,18,Jits_Linear_8,75,9999,9999,9999,1516405828
116,15,18,Jits_Linear_8,76,9999,9999,9999,1517075532
116,15,18,Jits_Linear_8,77,9999,9999,9999,1517745244
116,15,18,Jits_Linear_8,78,9999,9999,9999,1518415972
116,15,18,Jits_Linear_8,79,9999,9999,9999,1519085680
116,15,18,Jits_Linear_8,80,9999,9999,9999,1519745104
116,15,18,Jits_Linear_8,81,9999,9999,9999,1520405580
116,15,18,Jits_Linear_8,82,9999,9999,9999,1521066060
116,15,18,Jits_Linear_8,83,9999,9999,9999,1521725512
116,15,18,Jits_Linear_8,84,9999,9999,9999,1522385996
116,15,18,Jits_Linear_8,85,9999,9999,9999,1523035232
116,15,18,Jits_Linear_8,86,9999,9999,9999,1523685464
116,15,18,Jits_Linear_8,87,9999,9999,9999,1524335724
116,15,18,Jits_Linear_8,88,9999,9999,9999,1524985936
116,15,18,Jits_Linear_8,89,9999,9999,9999,1525635160
116,15,18,Jits_Linear_8,90,9999,9999,9999,1526275124
116,15,18,Jits_Linear_8,91,9999,9999,9999,1526915196
116,15,18,Jits_Linear_8,92,9999,9999,9999,1527555168
116,15,18,Jits_Linear_8,93,9999,9999,9999,1528195164
116,15,18,Jits_Linear_8,94,9999,9999,9999,1528835188
116,15,18,Jits_Linear_8,95,9999,9999,9999,1529465912
116,15,18,Jits_Linear_8,96,9999,9999,9999,1530095688
116,15,18,Jits_Linear_8,97,9999,9999,9999,1530725504
116,15,18,Jits_Linear_8,98,9999,9999,9999,1531355208
116,15,18,Jits_Linear_8,99,9999,9999,9999,1531986016
116,15,18,Jits_Linear_8,100,9999,9999,9999,1532605520
116,15,18,Jits_Linear_8,101,9999,9999,9999,1533226044
116,15,18,Jits_Linear_8,102,9999,9999,9999,1533845612
116,15,18,Jits_Linear_8,103,9999,9999,9999,1534465084
116,15,18,Jits_Linear_8,104,9999,9999,9999,1535085684
116,15,18,Jits_Linear_8,105,9999,9999,9999,1535695976
116,15,18,Jits_Linear_8,106,9999,9999,9999,1536305252
116,15,18,Jits_Linear_8,107,9999,9999,9999,1536915520
116,15,18,Jits_Linear_8,108,9999,9999,9999,1537525856
116,15,18,Jits_Linear_8,109,9999,9999,9999,1538135136
116,15,18,Jits_Linear_8,110,9999,9999,9999,1538735172
116,15,18,Jits_Linear_8,111,9999,9999,9999,1539335244
116,15,18,Jits_Linear_8,112,9999,9999,9999,1539935324
116,15,18,Jits_Linear_8,113,9999,9999,9999,1540535360
116,15,18,Jits_Linear_8,114,9999,9999,9999,1541135444
116,15,18,Jits_Linear_8,115,9999,9999,9999,1541725248
116,15,18,Jits_Linear_8,116,9999,9999,9999,1542315096
116,15,18,Jits_Linear_8,117,9999,9999,9999,1542905968
116,15,18,Jits_Linear_8,118,9999,9999,9999,1543495792
116,15,18,Jits_Linear_8,119,9999,9999,9999,1544085560
116,15,18,Jits_Linear_8,120,9999,9999,9999,1544665188
116,15,18,Jits_Linear_8,121,9999,9999,9999,1545245776
116,15,18,Jits_Linear_8,122,9999,9999,9999,1545825388
116,15,18,Jits_Linear_8,123,9999,9999,9999,1546405992
116,15,18,Jits_Linear_8,124,9999,9999,9999,1546985544
116,15,18,Jits_Linear_8,125,9999,9999,9999,1547555936
116,15,18,Jits_Linear_8,126,9999,9999,9999,1548125300
116,15,18,Jits_Linear_8,127,9999,9999,9999,1548695656
116,15,18,Jits_Linear_8,128,9999,9999,9999,1549265984
116,15,18,Jits_Linear_8,129,9999,9999,9999,1549835352
116,15,18,Jits_Linear_8,130,9999,9999,9999,1550395516
116,15,18,Jits_Linear_8,131,9999,9999,9999,1550955596
116,15,18,Jits_Linear_8,132,9999,9999,9999,1551515768
116,15,18,Jits_Linear_8,133,9999,9999,9999,1552075856
116,15,18,Jits_Linear_8,134,9999,9999,9999,1552635996
116,15,18,Jits_Linear_8,135,9999,9999,9999,1553185860
116,15,18,Jits_Linear_8,136,9999,9999,9999,1553735736
116,15,18,Jits_Linear_8,137,9999,9999,9999,1554285624
116,15,18,Jits_Linear_8,138,9999,9999,9999,1554835540
116,15,18,Jits_Linear_8,139,9999,9999,9999,1555385428
116,15,18,Jits_Linear_8,140,9999,9999,9999,1555926088
116,15,18,Jits_Linear_8,141,9999,9999,9999,1556475964
116,15,18,Jits_Linear_8,142,9999,9999,9999,1557015660
116,15,18,Jits_Linear_8,143,9999,9999,9999,1557555272
116,15,18,Jits_Linear_8,144,9999,9999,9999,1558095940
116,15,18,Jits_Linear_8,145,9999,9999,9999,1558625368
116,15,18,Jits_Linear_8,146,9999,9999,9999,1559155836
116,15,18,Jits_Linear_8,147,9999,9999,9999,1559685180
116,15,18,Jits_Linear_8,148,9999,9999,9999,1560215664
116,15,18,Jits_Linear_8,149,9999,9999,9999,1560746056
116,15,18,Jits_Linear_8,150,9999,9999,9999,1561265216
116,15,18,Jits_Linear_8,151,9999,9999,9999,1561785432
116,15,18,Jits_Linear_8,152,9999,9999,9999,1562305660
116,15,18,Jits_Linear_8,153,9999,9999,9999,1562825808
116,15,18,Jits_Linear_8,154,9999,9999,9999,1563346024
116,15,18,Jits_Linear_8,155,9999,9999,9999,1563855972
116,15,18,Jits_Linear_8,156,9999,9999,9999,1564365928
116,15,18,Jits_Linear_8,157,9999,9999,9999,1564875868
116,15,18,Jits_Linear_8,158,9999,9999,9999,1565385820
116,15,18,Jits_Linear_8,159,9999,9999,9999,1565895772
116,15,18,Jits_Linear_8,160,9999,9999,9999,1566395476
116,15,18,Jits_Linear_8,161,9999,9999,9999,1566895228
116,15,18,Jits_Linear_8,162,9999,9999,9999,1567395964
116,15,18,Jits_Linear_8,163,9999,9999,9999,1567895640
116,15,18,Jits_Linear_8,164,9999,9999,9999,1568395368
116,15,18,Jits_Linear_8,165,9999,9999,9999,1568885824
116,15,18,Jits_Linear_8,166,9999,9999,9999,1569375332
116,15,18,Jits_Linear_8,167,9999,9999,9999,1569865796
116,15,18,Jits_Linear_8,168,9999,9999,9999,1570355276
116,15,18,Jits_Linear_8,169,9999,9999,9999,1570845752
116,16,16,Jits_ISO_5,0,5,56,103,1578990084
116,16,16,Jits_ISO_5,1,5,63,98,1578993260
116,16,16,Jits_ISO_5,2,5,80,127,1578996304
116,16,16,Jits_ISO_5,0,1,48,35,1579485960
116,16,16,Jits_ISO_5,1,5,56,103,1579489576
116,16,16,Jits_ISO_5,2,5,63,98,1579492900
116,16,16,Jits_ISO_5,3,5,80,127,1579495944
116,16,16,Jits_ISO_5,0,1,48,26,1579949504
116,16,16,Jits_ISO_5,1,5,56,103,1579990356
116,16,16,Jits_ISO_5,2,5,80,127,1579999580
116,16,16,Jits_ISO_5,3,5,63,98,1580020112
116,16,16,Jits_ISO_5,0,5,63,98,1580440124
116,16,16,Jits_ISO_5,1,5,80,127,1580469652
116,16,16,Jits_ISO_5,2,1,48,26,1580475988
116,16,16,Jits_ISO_5,3,5,56,103,1580480064
116,16,16,Jits_ISO_5,0,1,48,28,1580933952
116,16,16,Jits_ISO_5,1,5,80,127,1581000084
116,16,16,Jits_ISO_5,2,5,56,103,1581010356
116,16,16,Jits_ISO_5,3,5,63,98,1581039868
116,16,16,Jits_ISO_5,0,5,63,98,1581489492
116,16,16,Jits_ISO_5,1,1,48,28,1581505720
116,16,16,Jits_ISO_5,2,5,56,103,1581520280
116,16,16,Jits_ISO_5,3,5,80,127,1581529432
116,16,16,Jits_ISO_5,0,5,56,103,1581940204
116,16,16,Jits_ISO_5,1,5,63,98,1581990132
116,16,16,Jits_ISO_5,2,1,48,28,1582005980
116,16,16,Jits_ISO_5,3,5,80,127,1582009908
116,16,16,Jits_ISO_5,0,5,80,127,1582439952
116,16,16,Jits_ISO_5,1,1,48,25,1582457372
116,16,16,Jits_ISO_5,2,5,63,98,1582490020
116,16,16,Jits_ISO_5,3,5,56,103,1582529956
116,16,16,Jits_ISO_5,0,5,56,103,1582939624
116,16,16,Jits_ISO_5,1,5,63,98,1582970124
116,16,16,Jits_ISO_5,2,1,48,28,1582984628
116,16,16,Jits_ISO_5,3,5,80,127,1583039820
116,16,16,Jits_ISO_5,0,5,56,103,1583440192
116,16,16,Jits_ISO_5,1,1,48,29,1583483688
116,16,16,Jits_ISO_5,2,5,80,127,1583499604
116,16,16,Jits_ISO_5,3,5,63,98,1583530348
116,16,16,Jits_ISO_5,0,5,56,103,1583950204
116,16,16,Jits_ISO_5,1,5,63,98,1583960400
116,16,16,Jits_ISO_5,2,1,48,27,1583970716
116,16,16,Jits_ISO_5,3,5,80,127,1584000328
116,16,16,Jits_ISO_5,0,5,63,98,1584439608
116,16,16,Jits_ISO_5,1,1,48,27,1584446392
116,16,16,Jits_ISO_5,2,5,80,127,1584519472
116,16,16,Jits_ISO_5,3,5,56,103,1584529988
116,16,16,Jits_ISO_5,0,1,48,19,1584965228
116,16,16,Jits_ISO_5,1,5,63,98,1584989536
116,16,16,Jits_ISO_5,2,5,56,103,1585029392
116,16,16,Jits_ISO_5,3,5,80,127,1585032540
116,16,16,Jits_ISO_5,0,5,56,103,1585459528
116,16,16,Jits_ISO_5,1,5,63,98,1585469872
116,16,16,Jits_ISO_5,2,1,48,26,1585507844
116,16,16,Jits_ISO_5,3,5,80,127,1585509804
116,16,16,Jits_ISO_5,0,5,56,103,1585950052
116,16,16,Jits_ISO_5,1,5,63,98,1585953120
116,16,16,Jits_ISO_5,2,5,80,127,1585969464
116,16,16,Jits_ISO_5,3,1,48,25,1585981200
116,16,16,Jits_ISO_5,0,1,48,22,1586448040
116,16,16,Jits_ISO_5,1,5,80,127,1586460048
116,16,16,Jits_ISO_5,2,5,56,103,1586470244
116,16,16,Jits_ISO_5,3,5,63,98,1586539844
116,16,16,Jits_ISO_5,0,5,63,98,1586949444
116,16,16,Jits_ISO_5,1,5,56,103,1586969976
116,16,16,Jits_ISO_5,2,1,48,27,1586972348
116,16,16,Jits_ISO_5,3,5,80,127,1587049988
116,16,16,Jits_ISO_5,0,5,56,103,1587459368
116,16,16,Jits_ISO_5,1,1,48,24,1587471028
116,16,16,Jits_ISO_5,2,5,80,127,1587500420
116,16,16,Jits_ISO_5,3,5,63,98,1587509792
116,16,16,Jits_ISO_5,0,5,80,127,1587949972
116,16,16,Jits_ISO_5,1,1,48,21,1587952636
116,16,16,Jits_ISO_5,2,5,63,98,1587979564
116,16,16,Jits_ISO_5,3,5,56,103,1588019428
116,16,16,Jits_ISO_5,0,5,56,103,1588470096
116,16,16,Jits_ISO_5,1,1,48,25,1588481756
116,16,16,Jits_ISO_5,2,5,63,98,1588499912
116,16,16,Jits_ISO_5,3,5,80,127,1588550112
116,16,16,Jits_ISO_5,0,5,80,127,1588969920
116,16,16,Jits_ISO_5,1,1,48,20,1589000912
116,16,16,Jits_ISO_5,2,5,56,103,1589009924
116,16,16,Jits_ISO_5,3,5,63,98,1589020124
116,16,16,Jits_ISO_5,0,5,80,127,1589460380
116,16,16,Jits_ISO_5,1,5,63,98,1589500316
116,16,16,Jits_ISO_5,2,1,48,20,1589520524
116,16,16,Jits_ISO_5,3,5,56,103,1589559652
116,16,16,Jits_ISO_5,0,5,56,103,1589960124
116,16,16,Jits_ISO_5,1,5,80,127,1589970248
116,16,16,Jits_ISO_5,2,1,48,21,1590036960
116,16,16,Jits_ISO_5,3,5,63,98,1590050028
116,16,16,Jits_ISO_5,0,5,80,127,1590459944
116,16,16,Jits_ISO_5,1,1,48,24,1590516176
116,16,16,Jits_ISO_5,2,5,63,98,1590520252
116,16,16,Jits_ISO_5,3,5,56,103,1590549928
116,16,16,Jits_ISO_5,0,5,56,103,1590959544
116,16,16,Jits_ISO_5,1,1,48,21,1591013384
116,16,16,Jits_ISO_5,2,5,80,127,1591020000
116,16,16,Jits_ISO_5,3,5,63,98,1591059864
116,16,16,Jits_ISO_5,0,1,48,13,1591504584
116,16,16,Jits_ISO_5,1,5,56,103,1591510460
116,16,16,Jits_ISO_5,2,5,63,98,1591519752
116,16,16,Jits_ISO_5,3,5,80,127,1591523044
116,16,16,Jits_ISO_5,0,5,80,127,1591959996
116,16,16,Jits_ISO_5,1,1,48,23,1592024172
116,16,16,Jits_ISO_5,2,5,63,98,1592049972
116,16,16,Jits_ISO_5,3,5,56,103,1592060240
116,16,16,Jits_ISO_5,0,5,56,103,1592459852
116,16,16,Jits_ISO_5,1,5,63,98,1592463052
116,16,16,Jits_ISO_5,2,5,80,127,1592466100
116,16,16,Jits_ISO_5,3,1,48,23,1592556720
116,16,16,Jits_ISO_5,0,5,80,127,1592979776
116,16,16,Jits_ISO_5,1,1,48,32,1593002004
116,16,16,Jits_ISO_5,2,5,63,98,1593030044
116,16,16,Jits_ISO_5,3,5,56,103,1593059868
116,16,16,Jits_ISO_5,0,5,56,103,1593460100
116,16,16,Jits_ISO_5,1,5,80,127,1593470292
116,16,16,Jits_ISO_5,2,1,48,27,1593497868
116,16,16,Jits_ISO_5,3,5,63,98,1593539840
116,16,16,Jits_ISO_5,0,5,56,103,1593970108
116,16,16,Jits_ISO_5,1,5,63,98,1593989372
116,16,16,Jits_ISO_5,2,1,48,24,1594007956
116,16,16,Jits_ISO_5,3,5,80,127,1594049924
116,16,16,Jits_ISO_5,0,5,80,127,1594459668
116,16,16,Jits_ISO_5,1,1,48,20,1594520952
116,16,16,Jits_ISO_5,2,5,63,98,1594530116
116,16,16,Jits_ISO_5,3,5,56,103,1594549748
116,16,16,Jits_ISO_5,0,5,80,127,1594979788
116,16,16,Jits_ISO_5,1,5,56,103,1594990060
116,16,16,Jits_ISO_5,2,5,63,98,1595000104
116,16,16,Jits_ISO_5,3,1,48,24,1595001072
116,16,16,Jits_ISO_5,0,5,80,127,1595470168
116,16,16,Jits_ISO_5,1,1,48,16,1595471136
116,16,16,Jits_ISO_5,2,5,56,103,1595489724
116,16,16,Jits_ISO_5,3,5,63,98,1595560176
116,16,16,Jits_ISO_5,0,1,48,22,1595971760
116,16,16,Jits_ISO_5,1,5,56,103,1595980248
116,16,16,Jits_ISO_5,2,5,80,127,1596009848
116,16,16,Jits_ISO_5,3,5,63,98,1596030232
116,16,16,Jits_ISO_5,0,5,63,98,1596469800
116,16,16,Jits_ISO_5,1,1,48,24,1596498012
116,16,16,Jits_ISO_5,2,5,56,103,1596529960
116,16,16,Jits_ISO_5,3,5,80,127,1596559660
116,16,16,Jits_ISO_5,0,5,63,98,1596970432
116,16,16,Jits_ISO_5,1,5,80,127,1596973720
116,16,16,Jits_ISO_5,2,1,48,27,1596999176
116,16,16,Jits_ISO_5,3,5,56,103,1597059504
116,16,16,Jits_ISO_5,0,5,56,103,1597489712
116,16,16,Jits_ISO_5,1,5,63,98,1597520208
116,16,16,Jits_ISO_5,2,1,48,23,1597523104
116,16,16,Jits_ISO_5,3,5,80,127,1597560140
116,16,16,Jits_ISO_5,0,5,63,98,1597990356
116,16,16,Jits_ISO_5,1,1,48,26,1598014224
116,16,16,Jits_ISO_5,2,5,56,103,1598030140
116,16,16,Jits_ISO_5,3,5,80,127,1598049548
116,16,16,Jits_ISO_5,0,1,48,21,1598498160
116,16,16,Jits_ISO_5,1,5,63,98,1598500128
116,16,16,Jits_ISO_5,2,5,56,103,1598540140
116,16,16,Jits_ISO_5,3,5,80,127,1598550780
116,16,16,Jits_ISO_5,0,5,80,127,1598979712
116,16,16,Jits_ISO_5,1,1,48,17,1598990780
116,16,16,Jits_ISO_5,2,5,63,98,1599050136
116,16,16,Jits_ISO_5,3,5,56,103,1599069624
116,16,16,Jits_ISO_5,0,5,56,103,1599469876
116,16,16,Jits_ISO_5,1,5,80,127,1599490632
116,16,16,Jits_ISO_5,2,1,48,19,1599515472
116,16,16,Jits_ISO_5,3,5,63,98,1599530264
116,16,16,Jits_ISO_5,0,5,63,98,1599979960
116,16,16,Jits_ISO_5,1,1,48,27,1599993568
116,16,16,Jits_ISO_5,2,5,80,127,1600000340
116,16,16,Jits_ISO_5,3,5,56,103,1600040276
116,16,16,Jits_ISO_5,0,5,63,98,1600479844
116,16,16,Jits_ISO_5,1,1,48,25,1600494348
116,16,16,Jits_ISO_5,2,5,56,103,1600500072
116,16,16,Jits_ISO_5,3,5,80,127,1600510416
116,16,16,Jits_ISO_5,0,1,48,28,1600975860
116,16,16,Jits_ISO_5,1,5,80,127,1600989756
116,16,16,Jits_ISO_5,2,5,56,103,1601010068
116,16,16,Jits_ISO_5,3,5,63,98,1601039816
116,16,16,Jits_ISO_5,0,1,48,19,1601524444
116,16,16,Jits_ISO_5,1,5,56,103,1601559832
116,16,16,Jits_ISO_5,2,5,80,127,1601563052
116,16,16,Jits_ISO_5,3,5,63,98,1601580520
116,16,16,Jits_ISO_5,0,5,63,98,1601979860
116,16,16,Jits_ISO_5,1,5,56,103,1602009608
116,16,16,Jits_ISO_5,2,1,48,17,1602032880
116,16,16,Jits_ISO_5,3,5,80,127,1602069912
116,16,16,Jits_ISO_5,0,1,48,21,1602473560
116,16,16,Jits_ISO_5,1,5,63,98,1602560348
116,16,16,Jits_ISO_5,2,5,56,103,1602569644
116,16,16,Jits_ISO_5,3,5,80,127,1602579900
116,16,16,Jits_ISO_5,0,1,48,28,1602998628
116,16,16,Jits_ISO_5,1,5,56,103,1603009888
116,16,16,Jits_ISO_5,2,5,80,127,1603039860
116,16,16,Jits_ISO_5,3,5,63,98,1603049836
116,16,16,Jits_ISO_5,0,1,48,23,1603509748
116,16,16,Jits_ISO_5,1,5,63,98,1603549704
116,16,16,Jits_ISO_5,2,5,56,103,1603559900
116,16,16,Jits_ISO_5,3,5,80,127,1603580208
116,16,16,Jits_ISO_5,0,5,56,103,1603979824
116,16,16,Jits_ISO_5,1,1,48,19,1604003172
116,16,16,Jits_ISO_5,2,5,63,98,1604040056
116,16,16,Jits_ISO_5,3,5,80,127,1604043492
116,16,16,Jits_ISO_5,0,5,80,127,1604499792
116,16,16,Jits_ISO_5,1,1,48,21,1604502456
116,16,16,Jits_ISO_5,2,5,56,103,1604510128
116,16,16,Jits_ISO_5,3,5,63,98,1604579804
116,16,16,Jits_ISO_5,0,5,80,127,1604990444
116,16,16,Jits_ISO_5,1,1,48,24,1605024976
116,16,16,Jits_ISO_5,2,5,56,103,1605059848
116,16,16,Jits_ISO_5,3,5,63,98,1605070188
116,16,16,Jits_ISO_5,0,5,63,98,1605530000
116,16,16,Jits_ISO_5,1,1,48,23,1605535512
116,16,16,Jits_ISO_5,2,5,56,103,1605540412
116,16,16,Jits_ISO_5,3,5,80,127,1605559604
116,16,16,Jits_ISO_5,0,5,80,127,1605979740
116,16,16,Jits_ISO_5,1,1,48,18,1606015592
116,16,16,Jits_ISO_5,2,5,63,98,1606039772
116,16,16,Jits_ISO_5,3,5,56,103,1606079712
116,16,16,Jits_ISO_5,0,5,56,103,1606520312
116,16,16,Jits_ISO_5,1,1,48,25,1606522828
116,16,16,Jits_ISO_5,2,5,63,98,1606530652
116,16,16,Jits_ISO_5,3,5,80,127,1606570612
116,16,16,Jits_ISO_5,0,5,56,103,1606979828
116,16,16,Jits_ISO_5,1,5,80,127,1607009652
116,16,16,Jits_ISO_5,2,1,48,21,1607034196
116,16,16,Jits_ISO_5,3,5,63,98,1607059796
116,16,16,Jits_ISO_5,0,5,56,103,1607519584
116,16,16,Jits_ISO_5,1,1,48,21,1607521952
116,16,16,Jits_ISO_5,2,5,63,98,1607559512
116,16,16,Jits_ISO_5,3,5,80,127,1607563024
116,16,16,Jits_ISO_5,0,1,48,22,1608015536
116,16,16,Jits_ISO_5,1,5,56,103,1608020288
116,16,16,Jits_ISO_5,2,5,63,98,1608029592
116,16,16,Jits_ISO_5,3,5,80,127,1608049900
116,16,16,Jits_ISO_5,0,5,56,103,1608490436
116,16,16,Jits_ISO_5,1,5,80,127,1608493504
116,16,16,Jits_ISO_5,2,1,48,20,1608513636
116,16,16,Jits_ISO_5,3,5,63,98,1608530368
116,16,16,Jits_ISO_5,0,5,63,98,1609030104
116,16,16,Jits_ISO_5,1,5,56,103,1609059560
116,16,16,Jits_ISO_5,2,5,80,127,1609080164
116,16,16,Jits_ISO_5,0,5,80,127,1609500016
116,16,16,Jits_ISO_5,1,5,56,103,1609510212
116,16,16,Jits_ISO_5,2,5,63,98,1609519580
116,16,16,Jits_ISO_5,3,1,48,19,1609525240
116,16,16,Jits_ISO_5,0,1,48,29,1609992828
116,16,16,Jits_ISO_5,1,5,56,103,1609999676
116,16,16,Jits_ISO_5,2,5,80,127,1610039612
116,16,16,Jits_ISO_5,3,5,63,98,1610070560
116,16,16,Jits_ISO_5,0,1,48,25,1610495256
116,16,16,Jits_ISO_5,1,5,63,98,1610509748
116,16,16,Jits_ISO_5,2,5,80,127,1610519868
116,16,16,Jits_ISO_5,3,5,56,103,1610530064
116,16,16,Jits_ISO_5,0,5,56,103,1610989856
116,16,16,Jits_ISO_5,1,1,48,25,1611018380
116,16,16,Jits_ISO_5,2,5,63,98,1611059756
116,16,16,Jits_ISO_5,3,5,80,127,1611069800
116,16,16,Jits_ISO_5,0,5,80,127,1611489752
116,16,16,Jits_ISO_5,1,5,56,103,1611500020
116,16,16,Jits_ISO_5,2,1,48,24,1611510560
116,16,16,Jits_ISO_5,3,5,63,98,1611549916
116,16,16,Jits_ISO_5,0,5,80,127,1611999612
116,16,16,Jits_ISO_5,1,1,48,21,1612019892
116,16,16,Jits_ISO_5,2,5,56,103,1612059920
116,16,16,Jits_ISO_5,3,5,63,98,1612089744
116,16,16,Jits_ISO_5,0,5,56,103,1612509396
116,16,16,Jits_ISO_5,1,5,80,127,1612512540
116,16,16,Jits_ISO_5,2,1,48,22,1612536260
116,16,16,Jits_ISO_5,3,5,63,98,1612549628
116,16,16,Jits_ISO_5,0,5,56,103,1613039852
116,16,16,Jits_ISO_5,1,1,48,24,1613042520
116,16,16,Jits_ISO_5,2,5,63,98,1613069672
116,16,16,Jits_ISO_5,3,5,80,127,1613079792
116,16,16,Jits_ISO_5,0,1,48,22,1613545256
116,16,16,Jits_ISO_5,1,5,63,98,1613549936
116,16,16,Jits_ISO_5,2,5,80,127,1613560056
116,16,16,Jits_ISO_5,3,5,56,103,1613570624
116,16,16,Jits_ISO_5,0,5,80,127,1613999556
116,16,16,Jits_ISO_5,1,1,48,19,1614033016
116,16,16,Jits_ISO_5,2,5,56,103,1614049672
116,16,16,Jits_ISO_5,3,5,63,98,1614052664
116,16,16,Jits_ISO_5,0,1,48,17,1614518068
116,16,16,Jits_ISO_5,1,5,56,103,1614529924
116,16,16,Jits_ISO_5,2,5,80,127,1614550460
116,16,16,Jits_ISO_5,3,5,63,98,1614559536
116,16,16,Jits_ISO_5,0,1,48,24,1614994864
116,16,16,Jits_ISO_5,1,5,63,98,1615010252
116,16,16,Jits_ISO_5,2,5,56,103,1615039856
116,16,16,Jits_ISO_5,3,5,80,127,1615060536
116,16,16,Jits_ISO_5,0,1,48,19,1615491432
116,16,16,Jits_ISO_5,1,5,56,103,1615520100
116,16,16,Jits_ISO_5,2,5,80,127,1615530668
116,16,16,Jits_ISO_5,3,5,63,98,1615599884
116,16,16,Jits_ISO_5,0,5,63,98,1616009552
116,16,16,Jits_ISO_5,1,1,48,21,1616040716
116,16,16,Jits_ISO_5,2,5,80,127,1616049656
116,16,16,Jits_ISO_5,3,5,56,103,1616089444
116,16,16,Jits_ISO_5,0,5,56,103,1616519472
116,16,16,Jits_ISO_5,1,5,63,98,1616529844
116,16,16,Jits_ISO_5,2,1,48,26,1616546588
116,16,16,Jits_ISO_5,3,5,80,127,1616550444
116,16,16,Jits_ISO_5,0,1,48,16,1617011172
116,16,16,Jits_ISO_5,1,5,63,98,1617060292
116,16,16,Jits_ISO_5,2,5,80,127,1617079556
116,16,16,Jits_ISO_5,3,5,56,103,1617100236
116,16,16,Jits_ISO_5,0,5,56,103,1617499480
116,16,16,Jits_ISO_5,1,5,80,127,1617580572
116,16,16,Jits_ISO_5,2,1,48,20,1617586904
116,16,16,Jits_ISO_5,3,5,63,98,1617589488
116,16,16,Jits_ISO_5,0,5,80,127,1618040276
116,16,16,Jits_ISO_5,1,5,63,98,1618050400
116,16,16,Jits_ISO_5,2,1,48,24,1618069880
116,16,16,Jits_ISO_5,3,5,56,103,1618080092
116,16,16,Jits_ISO_5,0,5,63,98,1618500020
116,16,16,Jits_ISO_5,1,5,80,127,1618540104
116,16,16,Jits_ISO_5,2,1,48,20,1618561284
116,16,16,Jits_ISO_5,3,5,56,103,1618600360
116,16,16,Jits_ISO_5,0,5,63,98,1619009864
116,16,16,Jits_ISO_5,1,1,48,26,1619043320
116,16,16,Jits_ISO_5,2,5,56,103,1619060360
116,16,16,Jits_ISO_5,3,5,80,127,1619089760
116,16,16,Jits_ISO_5,0,5,80,127,1619519788
116,16,16,Jits_ISO_5,1,5,63,98,1619530428
116,16,16,Jits_ISO_5,2,1,48,23,1619538652
116,16,16,Jits_ISO_5,3,5,56,103,1619599680
116,16,16,Jits_ISO_5,0,1,48,24,1620054412
116,16,16,Jits_ISO_5,1,5,80,127,1620099396
116,16,16,Jits_ISO_5,2,5,56,103,1620109616
116,16,16,Jits_ISO_5,3,5,63,98,1620112756
116,16,16,Jits_ISO_5,0,5,56,103,1620539644
116,16,16,Jits_ISO_5,1,5,80,127,1620560328
116,16,16,Jits_ISO_5,2,5,63,98,1620569552
116,16,16,Jits_ISO_5,3,1,48,21,1620591100
116,16,16,Jits_ISO_5,0,5,63,98,1621049656
116,16,16,Jits_ISO_5,1,5,56,103,1621089520
116,16,16,Jits_ISO_5,2,1,48,25,1621102080
116,16,16,Jits_ISO_5,3,5,80,127,1621110120
116,16,16,Jits_ISO_5,0,5,63,98,1621549468
116,16,16,Jits_ISO_5,1,1,48,22,1621558588
116,16,16,Jits_ISO_5,2,5,56,103,1621609848
116,16,16,Jits_ISO_5,3,5,80,127,1621612764
116,16,16,Jits_ISO_5,0,5,56,103,1622010308
116,16,16,Jits_ISO_5,1,5,80,127,1622029572
116,16,16,Jits_ISO_5,2,5,63,98,1622069584
116,16,16,Jits_ISO_5,3,1,48,26,1622097044
116,16,16,Jits_ISO_5,0,5,56,103,1622539500
116,16,16,Jits_ISO_5,1,5,63,98,1622560256
116,16,16,Jits_ISO_5,2,5,80,127,1622570304
116,16,16,Jits_ISO_5,3,1,48,28,1622584732
116,16,16,Jits_ISO_5,0,5,80,127,1623009576
116,16,16,Jits_ISO_5,1,5,56,103,1623040524
116,16,16,Jits_ISO_5,2,1,48,20,1623042892
116,16,16,Jits_ISO_5,3,5,63,98,1623080452
116,16,16,Jits_ISO_5,0,5,80,127,1623519664
116,16,16,Jits_ISO_5,1,5,56,103,1623540048
116,16,16,Jits_ISO_5,2,1,48,24,1623540940
116,16,16,Jits_ISO_5,3,5,63,98,1623599528
116,16,16,Jits_ISO_5,0,5,56,103,1624039716
116,16,16,Jits_ISO_5,1,1,48,24,1624054820
116,16,16,Jits_ISO_5,2,5,80,127,1624060244
116,16,16,Jits_ISO_5,3,5,63,98,1624119808
116,16,16,Jits_ISO_5,0,5,80,127,1624520132
116,16,16,Jits_ISO_5,1,5,56,103,1624530476
116,16,16,Jits_ISO_5,2,5,63,98,1624570192
116,16,16,Jits_ISO_5,0,5,63,98,1625019720
116,16,16,Jits_ISO_5,1,1,48,25,1625055652
116,16,16,Jits_ISO_5,2,5,56,103,1625059724
116,16,16,Jits_ISO_5,3,5,80,127,1625062792
116,16,16,Jits_ISO_5,0,1,48,24,1625524648
116,16,16,Jits_ISO_5,1,5,63,98,1625539888
116,16,16,Jits_ISO_5,2,5,80,127,1625579828
116,16,16,Jits_ISO_5,3,5,56,103,1625609576
116,16,16,Jits_ISO_5,0,5,56,103,1626029440
116,16,16,Jits_ISO_5,1,5,63,98,1626039636
116,16,16,Jits_ISO_5,2,1,48,30,1626043200
116,16,16,Jits_ISO_5,3,5,80,127,1626070352
116,16,16,Jits_ISO_5,0,5,80,127,1626520116
116,16,16,Jits_ISO_5,1,1,48,30,1626541220
116,16,16,Jits_ISO_5,2,5,63,98,1626589640
116,16,16,Jits_ISO_5,3,5,56,103,1626599836
116,16,16,Jits_ISO_5,0,5,63,98,1627019640
116,16,16,Jits_ISO_5,1,1,48,28,1627081800
116,16,16,Jits_ISO_5,2,5,56,103,1627090436
116,16,16,Jits_ISO_5,3,5,80,127,1627099436
116,16,16,Jits_ISO_5,0,5,63,98,1627520324
116,16,16,Jits_ISO_5,1,1,48,25,1627528016
116,16,16,Jits_ISO_5,2,5,56,103,1627539824
116,16,16,Jits_ISO_5,3,5,80,127,1627579688
116,16,16,Jits_ISO_5,0,5,56,103,1628030392
116,16,16,Jits_ISO_5,1,1,48,30,1628031284
116,16,16,Jits_ISO_5,2,5,63,98,1628039536
116,16,16,Jits_ISO_5,3,5,80,127,1628120472
116,16,16,Jits_ISO_5,0,5,63,98,1628519876
116,16,16,Jits_ISO_5,1,1,48,22,1628536252
116,16,16,Jits_ISO_5,2,5,56,103,1628549544
116,16,16,Jits_ISO_5,3,5,80,127,1628589508
116,16,16,Jits_ISO_5,0,5,56,103,1629019608
116,16,16,Jits_ISO_5,1,1,48,28,1629034112
116,16,16,Jits_ISO_5,2,5,63,98,1629059392
116,16,16,Jits_ISO_5,3,5,80,127,1629100328
116,16,16,Jits_ISO_5,0,1,48,23,1629517284
116,16,16,Jits_ISO_5,1,5,80,127,1629520168
116,16,16,Jits_ISO_5,2,5,56,103,1629600284
116,16,16,Jits_ISO_5,3,5,63,98,1629610408
116,16,16,Jits_ISO_5,0,5,56,103,1630059916
116,16,16,Jits_ISO_5,1,5,63,98,1630063204
116,16,16,Jits_ISO_5,2,5,80,127,1630070256
116,16,16,Jits_ISO_5,3,1,48,33,1630087232
116,16,16,Jits_ISO_5,0,5,56,103,1630580184
116,16,16,Jits_ISO_5,1,5,63,98,1630599444
116,16,16,Jits_ISO_5,2,5,80,127,1630609664
116,16,16,Jits_ISO_5,3,1,48,35,1630612636
116,16,16,Jits_ISO_5,0,5,63,98,1631039924
116,16,16,Jits_ISO_5,1,5,80,127,1631050268
116,16,16,Jits_ISO_5,2,5,56,103,1631069460
116,16,16,Jits_ISO_5,3,1,48,34,1631135668
116,16,16,Jits_ISO_5,0,5,63,98,1631549700
116,16,16,Jits_ISO_5,1,1,48,23,1631581440
116,16,16,Jits_ISO_5,2,5,56,103,1631629656
116,16,16,Jits_ISO_5,3,5,80,127,1631632724
116,16,16,Jits_ISO_5,0,5,63,98,1632049428
116,16,16,Jits_ISO_5,1,5,56,103,1632070112
116,16,16,Jits_ISO_5,2,5,80,127,1632099708
116,16,16,Jits_ISO_5,3,1,48,24,1632109800
116,16,16,Jits_ISO_5,0,5,56,103,1632550356
116,16,16,Jits_ISO_5,1,5,63,98,1632569840
116,16,16,Jits_ISO_5,2,1,48,29,1632573036
116,16,16,Jits_ISO_5,3,5,80,127,1632580028
116,16,16,Jits_ISO_5,0,1,48,31,1633074492
116,16,16,Jits_ISO_5,1,5,56,103,1633079692
116,16,16,Jits_ISO_5,2,5,63,98,1633110412
116,16,16,Jits_ISO_5,3,5,80,127,1633113624
116,16,16,Jits_ISO_5,0,5,56,103,1633530204
116,16,16,Jits_ISO_5,1,1,48,21,1633559700
116,16,16,Jits_ISO_5,2,5,63,98,1633570208
116,16,16,Jits_ISO_5,3,5,80,127,1633629700
116,16,16,Jits_ISO_5,0,5,56,103,1634050556
116,16,16,Jits_ISO_5,1,5,63,98,1634059556
116,16,16,Jits_ISO_5,2,1,48,23,1634064168
116,16,16,Jits_ISO_5,3,5,80,127,1634120232
116,16,16,Jits_ISO_5,0,5,56,103,1634550300
116,16,16,Jits_ISO_5,1,1,48,19,1634563012
116,16,16,Jits_ISO_5,2,5,80,127,1634569560
116,16,16,Jits_ISO_5,3,5,63,98,1634600356
116,16,16,Jits_ISO_5,0,5,80,127,1635049752
116,16,16,Jits_ISO_5,1,5,56,103,1635060472
116,16,16,Jits_ISO_5,2,1,48,26,1635074824
116,16,16,Jits_ISO_5,3,5,63,98,1635079504
116,16,16,Jits_ISO_5,0,5,63,98,1635549424
116,16,16,Jits_ISO_5,1,1,48,25,1635570004
116,16,16,Jits_ISO_5,2,5,80,127,1635629288
116,16,16,Jits_ISO_5,3,5,56,103,1635639560
116,16,16,Jits_ISO_5,0,1,48,21,1636092656
116,16,16,Jits_ISO_5,1,5,80,127,1636109544
116,16,16,Jits_ISO_5,2,5,56,103,1636130148
116,16,16,Jits_ISO_5,3,5,63,98,1636133364
116,16,16,Jits_ISO_5,0,5,63,98,1636579684
116,16,16,Jits_ISO_5,1,5,80,127,1636583196
116,16,16,Jits_ISO_5,2,1,48,27,1636618620
116,16,16,Jits_ISO_5,3,5,56,103,1636640212
116,16,16,Jits_ISO_5,0,5,56,103,1637060232
116,16,16,Jits_ISO_5,1,5,80,127,1637070056
116,16,16,Jits_ISO_5,2,1,48,20,1637100896
116,16,16,Jits_ISO_5,3,5,63,98,1637110280
116,16,16,Jits_ISO_5,0,5,56,103,1637540200
116,16,16,Jits_ISO_5,1,1,48,21,1637566164
116,16,16,Jits_ISO_5,2,5,63,98,1637599464
116,16,16,Jits_ISO_5,3,5,80,127,1637610104
116,16,16,Jits_ISO_5,0,5,63,98,1638050288
116,16,16,Jits_ISO_5,1,1,48,25,1638077452
116,16,16,Jits_ISO_5,2,5,80,127,1638089996
116,16,16,Jits_ISO_5,3,5,56,103,1638130156
116,16,16,Jits_ISO_5,0,5,56,103,1638550096
116,16,16,Jits_ISO_5,1,1,48,15,1638591128
116,16,16,Jits_ISO_5,2,5,63,98,1638629884
116,16,16,Jits_ISO_5,3,5,80,127,1638633320
116,16,16,Jits_ISO_5,0,9999,9999,9999,1579237440
116,16,16,Jits_ISO_5,1,9999,9999,9999,1579737140
116,16,16,Jits_ISO_5,2,9999,9999,9999,1580237924
116,16,16,Jits_ISO_5,3,9999,9999,9999,1580737652
116,16,16,Jits_ISO_5,4,9999,9999,9999,1581237316
116,16,16,Jits_ISO_5,5,9999,9999,9999,1581738100
116,16,16,Jits_ISO_5,6,9999,9999,9999,1582237756
116,16,16,Jits_ISO_5,7,9999,9999,9999,1582737508
116,16,16,Jits_ISO_5,8,9999,9999,9999,1583237232
116,16,16,Jits_ISO_5,9,9999,9999,9999,1583737944
116,16,16,Jits_ISO_5,10,9999,9999,9999,1584237688
116,16,16,Jits_ISO_5,11,9999,9999,9999,1584737364
116,16,16,Jits_ISO_5,12,9999,9999,9999,1585238068
116,16,16,Jits_ISO_5,13,9999,9999,9999,1585748064
116,16,16,Jits_ISO_5,14,9999,9999,9999,1586247792
116,16,16,Jits_ISO_5,15,9999,9999,9999,1586747468
116,16,16,Jits_ISO_5,16,9999,9999,9999,1587247200
116,16,16,Jits_ISO_5,17,9999,9999,9999,1587747904
116,16,16,Jits_ISO_5,18,9999,9999,9999,1588247648
116,16,16,Jits_ISO_5,19,9999,9999,9999,1588747324
116,16,16,Jits_ISO_5,20,9999,9999,9999,1589248120
116,16,16,Jits_ISO_5,21,9999,9999,9999,1589758056
116,16,16,Jits_ISO_5,22,9999,9999,9999,1590257728
116,16,16,Jits_ISO_5,23,9999,9999,9999,1590757476
116,16,16,Jits_ISO_5,24,9999,9999,9999,1591257152
116,16,16,Jits_ISO_5,25,9999,9999,9999,1591757940
116,16,16,Jits_ISO_5,26,9999,9999,9999,1592257600
116,16,16,Jits_ISO_5,27,9999,9999,9999,1592757328
116,16,16,Jits_ISO_5,28,9999,9999,9999,1593258052
116,16,16,Jits_ISO_5,29,9999,9999,9999,1593757800
116,16,16,Jits_ISO_5,30,9999,9999,9999,1594257476
116,16,16,Jits_ISO_5,31,9999,9999,9999,1594757200
116,16,16,Jits_ISO_5,32,9999,9999,9999,1595257912
116,16,16,Jits_ISO_5,33,9999,9999,9999,1595757660
116,16,16,Jits_ISO_5,34,9999,9999,9999,1596257332
116,16,16,Jits_ISO_5,35,9999,9999,9999,1596758116
116,16,16,Jits_ISO_5,36,9999,9999,9999,1597268024
116,16,16,Jits_ISO_5,37,9999,9999,9999,1597767760
116,16,16,Jits_ISO_5,38,9999,9999,9999,1598267512
116,16,16,Jits_ISO_5,39,9999,9999,9999,1598767172
116,16,16,Jits_ISO_5,40,9999,9999,9999,1599267956
116,16,16,Jits_ISO_5,41,9999,9999,9999,1599767628
116,16,16,Jits_ISO_5,42,9999,9999,9999,1600267376
116,16,16,Jits_ISO_5,43,9999,9999,9999,1600768080
116,16,16,Jits_ISO_5,44,9999,9999,9999,1601278076
116,16,16,Jits_ISO_5,45,9999,9999,9999,1601777732
116,16,16,Jits_ISO_5,46,9999,9999,9999,1602277464
116,16,16,Jits_ISO_5,47,9999,9999,9999,1602777200
116,16,16,Jits_ISO_5,48,9999,9999,9999,1603277908
116,16,16,Jits_ISO_5,49,9999,9999,9999,1603777644
116,16,16,Jits_ISO_5,50,9999,9999,9999,1604277344
116,16,16,Jits_ISO_5,51,9999,9999,9999,1604778064
116,16,16,Jits_ISO_5,52,9999,9999,9999,1605277812
116,16,16,Jits_ISO_5,53,9999,9999,9999,1605777488
116,16,16,Jits_ISO_5,54,9999,9999,9999,1606277196
116,16,16,Jits_ISO_5,55,9999,9999,9999,1606777912
116,16,16,Jits_ISO_5,56,9999,9999,9999,1607277656
116,16,16,Jits_ISO_5,57,9999,9999,9999,1607777396
116,16,16,Jits_ISO_5,58,9999,9999,9999,1608278124
116,16,16,Jits_ISO_5,59,9999,9999,9999,1608788032
116,16,16,Jits_ISO_5,60,9999,9999,9999,1609287804
116,16,16,Jits_ISO_5,61,9999,9999,9999,1609787500
116,16,16,Jits_ISO_5,62,9999,9999,9999,1610287172
116,16,16,Jits_ISO_5,63,9999,9999,9999,1610787952
116,16,16,Jits_ISO_5,64,9999,9999,9999,1611287612
116,16,16,Jits_ISO_5,65,9999,9999,9999,1611787352
116,16,16,Jits_ISO_5,66,9999,9999,9999,1612288076
116,16,16,Jits_ISO_5,67,9999,9999,9999,1612798076
116,16,16,Jits_ISO_5,68,9999,9999,9999,1613297752
116,16,16,Jits_ISO_5,69,9999,9999,9999,1613797428
116,16,16,Jits_ISO_5,70,9999,9999,9999,1614297148
116,16,16,Jits_ISO_5,71,9999,9999,9999,1614797944
116,16,16,Jits_ISO_5,72,9999,9999,9999,1615297600
116,16,16,Jits_ISO_5,73,9999,9999,9999,1615797336
116,16,16,Jits_ISO_5,74,9999,9999,9999,1616298040
116,16,16,Jits_ISO_5,75,9999,9999,9999,1616797772
116,16,16,Jits_ISO_5,76,9999,9999,9999,1617297524
116,16,16,Jits_ISO_5,77,9999,9999,9999,1617797236
116,16,16,Jits_ISO_5,78,9999,9999,9999,1618297952
116,16,16,Jits_ISO_5,79,9999,9999,9999,1618797624
116,16,16,Jits_ISO_5,80,9999,9999,9999,1619297356
116,16,16,Jits_ISO_5,81,9999,9999,9999,1619798136
116,16,16,Jits_ISO_5,82,9999,9999,9999,1620308072
116,16,16,Jits_ISO_5,83,9999,9999,9999,1620807804
116,16,16,Jits_ISO_5,84,9999,9999,9999,1621307480
116,16,16,Jits_ISO_5,85,9999,9999,9999,1621807208
116,16,16,Jits_ISO_5,86,9999,9999,9999,1622307912
116,16,16,Jits_ISO_5,87,9999,9999,9999,1622807660
116,16,16,Jits_ISO_5,88,9999,9999,9999,1623307332
116,16,16,Jits_ISO_5,89,9999,9999,9999,1623808124
116,16,16,Jits_ISO_5,90,9999,9999,9999,1624318064
116,16,16,Jits_ISO_5,91,9999,9999,9999,1624817756
116,16,16,Jits_ISO_5,92,9999,9999,9999,1625317460
116,16,16,Jits_ISO_5,93,9999,9999,9999,1625817196
116,16,16,Jits_ISO_5,94,9999,9999,9999,1626317900
116,16,16,Jits_ISO_5,95,9999,9999,9999,1626817648
116,16,16,Jits_ISO_5,96,9999,9999,9999,1627317320
116,16,16,Jits_ISO_5,97,9999,9999,9999,1627818096
116,16,16,Jits_ISO_5,98,9999,9999,9999,1628317756
116,16,16,Jits_ISO_5,99,9999,9999,9999,1628817508
116,16,16,Jits_ISO_5,100,9999,9999,9999,1629317212
116,16,16,Jits_ISO_5,101,9999,9999,9999,1629817928
116,16,16,Jits_ISO_5,102,9999,9999,9999,1630317652
116,16,16,Jits_ISO_5,103,9999,9999,9999,1630817332
116,16,16,Jits_ISO_5,104,9999,9999,9999,1631318124
116,16,16,Jits_ISO_5,105,9999,9999,9999,1631828040
116,16,16,Jits_ISO_5,106,9999,9999,9999,1632327772
116,16,16,Jits_ISO_5,107,9999,9999,9999,1632827504
116,16,16,Jits_ISO_5,108,9999,9999,9999,1633327172
116,16,16,Jits_ISO_5,109,9999,9999,9999,1633827956
116,16,16,Jits_ISO_5,110,9999,9999,9999,1634327632
116,16,16,Jits_ISO_5,111,9999,9999,9999,1634827380
116,16,16,Jits_ISO_5,112,9999,9999,9999,1635328100
116,16,16,Jits_ISO_5,113,9999,9999,9999,1635838040
116,16,16,Jits_ISO_5,114,9999,9999,9999,1636337772
116,16,16,Jits_ISO_5,115,9999,9999,9999,1636837500
116,16,16,Jits_ISO_5,116,9999,9999,9999,1637337160
116,16,16,Jits_ISO_5,117,9999,9999,9999,1637837880
116,16,16,Jits_ISO_5,118,9999,9999,9999,1638337628
116,16,16,Jits_ISO_5,119,9999,9999,9999,1638837356
116,17,7,Jits_ISO_8,0,5,56,103,1648558548
116,17,7,Jits_ISO_8,1,5,63,98,1648561496
116,17,7,Jits_ISO_8,2,5,80,127,1648564840
116,17,7,Jits_ISO_8,0,5,56,103,1649359144
116,17,7,Jits_ISO_8,1,5,63,98,1649362240
116,17,7,Jits_ISO_8,2,5,80,127,1649365364
116,17,7,Jits_ISO_8,0,5,80,127,1650098476
116,17,7,Jits_ISO_8,1,1,48,43,1650134480
116,17,7,Jits_ISO_8,2,5,63,98,1650188756
116,17,7,Jits_ISO_8,3,5,56,103,1650199024
116,17,7,Jits_ISO_8,0,1,48,34,1650900188
116,17,7,Jits_ISO_8,1,5,56,103,1650918944
116,17,7,Jits_ISO_8,2,5,63,98,1650929064
116,17,7,Jits_ISO_8,3,5,80,127,1651019180
116,17,7,Jits_ISO_8,0,1,48,27,1651687176
116,17,7,Jits_ISO_8,1,5,63,98,1651688756
116,17,7,Jits_ISO_8,2,5,80,127,1651718508
116,17,7,Jits_ISO_8,3,5,56,103,1651749304
116,17,7,Jits_ISO_8,0,1,48,31,1652455680
116,17,7,Jits_ISO_8,1,5,56,103,1652488532
116,17,7,Jits_ISO_8,2,5,80,127,1652588768
116,17,7,Jits_ISO_8,3,5,63,98,1652639068
116,17,7,Jits_ISO_8,0,5,56,103,1653289296
116,17,7,Jits_ISO_8,1,5,80,127,1653338380
116,17,7,Jits_ISO_8,2,1,48,26,1653346364
116,17,7,Jits_ISO_8,3,5,63,98,1653378384
116,17,7,Jits_ISO_8,0,5,80,127,1654118984
116,17,7,Jits_ISO_8,1,5,63,98,1654148440
116,17,7,Jits_ISO_8,2,1,48,22,1654169192
116,17,7,Jits_ISO_8,3,5,56,103,1654219108
116,17,7,Jits_ISO_8,0,5,63,98,1654949228
116,17,7,Jits_ISO_8,1,5,56,103,1654978904
116,17,7,Jits_ISO_8,2,1,48,20,1655014904
116,17,7,Jits_ISO_8,3,5,80,127,1655039288
116,17,7,Jits_ISO_8,0,5,56,103,1655688824
116,17,7,Jits_ISO_8,1,5,80,127,1655691816
116,17,7,Jits_ISO_8,2,5,63,98,1655809520
116,17,7,Jits_ISO_8,3,1,48,30,1655818788
116,17,7,Jits_ISO_8,0,5,56,103,1656569152
116,17,7,Jits_ISO_8,1,5,80,127,1656609168
116,17,7,Jits_ISO_8,2,1,48,25,1656614456
116,17,7,Jits_ISO_8,3,5,63,98,1656619360
116,17,7,Jits_ISO_8,0,5,56,103,1657328876
116,17,7,Jits_ISO_8,1,5,80,127,1657348512
116,17,7,Jits_ISO_8,2,1,48,22,1657403548
116,17,7,Jits_ISO_8,3,5,63,98,1657429348
116,17,7,Jits_ISO_8,0,5,80,127,1658118636
116,17,7,Jits_ISO_8,1,5,56,103,1658218812
116,17,7,Jits_ISO_8,2,5,63,98,1658229080
116,17,7,Jits_ISO_8,3,1,48,22,1658232128
116,17,7,Jits_ISO_8,0,5,63,98,1658888692
116,17,7,Jits_ISO_8,1,5,80,127,1658948936
116,17,7,Jits_ISO_8,2,5,56,103,1658959280
116,17,7,Jits_ISO_8,3,1,48,28,1659029552
116,17,7,Jits_ISO_8,0,5,56,103,1659689292
116,17,7,Jits_ISO_8,1,5,63,98,1659758976
116,17,7,Jits_ISO_8,2,5,80,127,1659762264
116,17,7,Jits_ISO_8,3,1,48,18,1659814624
116,17,7,Jits_ISO_8,0,5,63,98,1660518748
116,17,7,Jits_ISO_8,1,1,48,32,1660564744
116,17,7,Jits_ISO_8,2,5,56,103,1660568968
116,17,7,Jits_ISO_8,3,5,80,127,1660572112
116,17,7,Jits_ISO_8,0,1,48,25,1661261692
116,17,7,Jits_ISO_8,1,5,56,103,1661278504
116,17,7,Jits_ISO_8,2,5,80,127,1661281720
116,17,7,Jits_ISO_8,3,5,63,98,1661368868
116,17,7,Jits_ISO_8,0,1,48,29,1662040856
116,17,7,Jits_ISO_8,1,5,63,98,1662119280
116,17,7,Jits_ISO_8,2,5,56,103,1662209328
116,17,7,Jits_ISO_8,3,5,80,127,1662239228
116,17,7,Jits_ISO_8,0,1,48,35,1662864716
116,17,7,Jits_ISO_8,1,5,56,103,1662908732
116,17,7,Jits_ISO_8,2,5,63,98,1663009040
116,17,7,Jits_ISO_8,3,5,80,127,1663038716
116,17,7,Jits_ISO_8,0,5,63,98,1663729052
116,17,7,Jits_ISO_8,1,5,56,103,1663739248
116,17,7,Jits_ISO_8,2,1,48,45,1663752336
116,17,7,Jits_ISO_8,3,5,80,127,1663829228
116,17,7,Jits_ISO_8,0,1,48,43,1664475528
116,17,7,Jits_ISO_8,1,5,63,98,1664549136
116,17,7,Jits_ISO_8,2,5,56,103,1664629068
116,17,7,Jits_ISO_8,3,5,80,127,1664632060
116,17,7,Jits_ISO_8,0,5,80,127,1665309136
116,17,7,Jits_ISO_8,1,1,48,43,1665328404
116,17,7,Jits_ISO_8,2,5,63,98,1665329812
116,17,7,Jits_ISO_8,3,5,56,103,1665388860
116,17,7,Jits_ISO_8,0,1,48,39,1666143884
116,17,7,Jits_ISO_8,1,5,56,103,1666148712
116,17,7,Jits_ISO_8,2,5,63,98,1666169172
116,17,7,Jits_ISO_8,3,5,80,127,1666172756
116,17,7,Jits_ISO_8,0,5,63,98,1666888928
116,17,7,Jits_ISO_8,1,1,48,43,1666948692
116,17,7,Jits_ISO_8,2,5,80,127,1666968896
116,17,7,Jits_ISO_8,3,5,56,103,1666979240
116,17,7,Jits_ISO_8,0,1,48,43,1667687036
116,17,7,Jits_ISO_8,1,5,63,98,1667709156
116,17,7,Jits_ISO_8,2,5,56,103,1667728672
116,17,7,Jits_ISO_8,3,5,80,127,1667778796
116,17,7,Jits_ISO_8,0,1,48,36,1668477976
116,17,7,Jits_ISO_8,1,5,80,127,1668509036
116,17,7,Jits_ISO_8,2,5,63,98,1668548976
116,17,7,Jits_ISO_8,3,5,56,103,1668568612
116,17,7,Jits_ISO_8,0,1,48,40,1669304740
116,17,7,Jits_ISO_8,1,5,56,103,1669348828
116,17,7,Jits_ISO_8,2,5,63,98,1669358948
116,17,7,Jits_ISO_8,3,5,80,127,1669378732
116,17,7,Jits_ISO_8,0,5,56,103,1670078788
116,17,7,Jits_ISO_8,1,1,48,31,1670095608
116,17,7,Jits_ISO_8,2,5,63,98,1670169068
116,17,7,Jits_ISO_8,3,5,80,127,1670229292
116,17,7,Jits_ISO_8,0,1,48,38,1670885664
116,17,7,Jits_ISO_8,1,5,80,127,1670909224
116,17,7,Jits_ISO_8,2,5,56,103,1670918524
116,17,7,Jits_ISO_8,3,5,63,98,1670989236
116,17,7,Jits_ISO_8,0,5,63,98,1671738760
116,17,7,Jits_ISO_8,1,1,48,31,1671752588
116,17,7,Jits_ISO_8,2,5,80,127,1671828988
116,17,7,Jits_ISO_8,3,5,56,103,1671839112
116,17,7,Jits_ISO_8,0,5,63,98,1672478984
116,17,7,Jits_ISO_8,1,5,80,127,1672529340
116,17,7,Jits_ISO_8,2,1,48,27,1672579140
116,17,7,Jits_ISO_8,3,5,56,103,1672588776
116,17,7,Jits_ISO_8,0,1,48,26,1673283148
116,17,7,Jits_ISO_8,1,5,56,103,1673308652
116,17,7,Jits_ISO_8,2,5,80,127,1673358660
116,17,7,Jits_ISO_8,3,5,63,98,1673379028
116,17,7,Jits_ISO_8,0,5,56,103,1674078696
116,17,7,Jits_ISO_8,1,1,48,26,1674137908
116,17,7,Jits_ISO_8,2,5,80,127,1674139556
116,17,7,Jits_ISO_8,3,5,63,98,1674208716
116,17,7,Jits_ISO_8,0,5,56,103,1674879468
116,17,7,Jits_ISO_8,1,5,80,127,1674908944
116,17,7,Jits_ISO_8,2,1,48,21,1674920008
116,17,7,Jits_ISO_8,3,5,63,98,1674938688
116,17,7,Jits_ISO_8,0,1,48,26,1675655176
116,17,7,Jits_ISO_8,1,5,56,103,1675718992
116,17,7,Jits_ISO_8,2,5,80,127,1675738480
116,17,7,Jits_ISO_8,3,5,63,98,1675798780
116,17,7,Jits_ISO_8,0,1,48,21,1676504580
116,17,7,Jits_ISO_8,1,5,80,127,1676598704
116,17,7,Jits_ISO_8,2,5,56,103,1676608828
116,17,7,Jits_ISO_8,3,5,63,98,1676619096
116,17,7,Jits_ISO_8,0,5,56,103,1677358584
116,17,7,Jits_ISO_8,1,1,48,33,1677388304
116,17,7,Jits_ISO_8,2,5,80,127,1677399488
116,17,7,Jits_ISO_8,3,5,63,98,1677429016
116,17,7,Jits_ISO_8,0,5,56,103,1678128420
116,17,7,Jits_ISO_8,1,5,63,98,1678159292
116,17,7,Jits_ISO_8,2,5,80,127,1678199232
116,17,7,Jits_ISO_8,3,1,48,41,1678221480
116,17,7,Jits_ISO_8,0,5,80,127,1678878988
116,17,7,Jits_ISO_8,1,5,63,98,1678929416
116,17,7,Jits_ISO_8,2,5,56,103,1678948828
116,17,7,Jits_ISO_8,3,1,48,45,1678952472
116,17,7,Jits_ISO_8,0,5,56,103,1679708676
116,17,7,Jits_ISO_8,1,1,48,29,1679767940
116,17,7,Jits_ISO_8,2,5,80,127,1679779272
116,17,7,Jits_ISO_8,3,5,63,98,1679838544
116,17,7,Jits_ISO_8,0,5,80,127,1680509372
116,17,7,Jits_ISO_8,1,1,48,30,1680554392
116,17,7,Jits_ISO_8,2,5,63,98,1680599528
116,17,7,Jits_ISO_8,3,5,56,103,1680618864
116,17,7,Jits_ISO_8,0,5,63,98,1681328452
116,17,7,Jits_ISO_8,1,5,56,103,1681348912
116,17,7,Jits_ISO_8,2,1,48,31,1681362740
116,17,7,Jits_ISO_8,3,5,80,127,1681388844
116,17,7,Jits_ISO_8,0,1,48,24,1682068264
116,17,7,Jits_ISO_8,1,5,80,127,1682089340
116,17,7,Jits_ISO_8,2,5,63,98,1682108904
116,17,7,Jits_ISO_8,3,5,56,103,1682188756
116,17,7,Jits_ISO_8,0,1,48,27,1682854244
116,17,7,Jits_ISO_8,1,5,63,98,1682878852
116,17,7,Jits_ISO_8,2,5,56,103,1682989572
116,17,7,Jits_ISO_8,3,5,80,127,1682992492
116,17,7,Jits_ISO_8,0,5,63,98,1683698940
116,17,7,Jits_ISO_8,1,1,48,27,1683708440
116,17,7,Jits_ISO_8,2,5,56,103,1683709876
116,17,7,Jits_ISO_8,3,5,80,127,1683712712
116,17,7,Jits_ISO_8,0,1,48,25,1684479220
116,17,7,Jits_ISO_8,1,5,56,103,1684480484
116,17,7,Jits_ISO_8,2,5,80,127,1684599232
116,17,7,Jits_ISO_8,3,5,63,98,1684638972
116,17,7,Jits_ISO_8,0,5,56,103,1685298488
116,17,7,Jits_ISO_8,1,1,48,27,1685311500
116,17,7,Jits_ISO_8,2,5,80,127,1685378356
116,17,7,Jits_ISO_8,3,5,63,98,1685398840
116,17,7,Jits_ISO_8,0,5,56,103,1686099332
116,17,7,Jits_ISO_8,1,1,48,22,1686108752
116,17,7,Jits_ISO_8,2,5,63,98,1686208948
116,17,7,Jits_ISO_8,3,5,80,127,1686212536
116,17,7,Jits_ISO_8,0,5,56,103,1686928888
116,17,7,Jits_ISO_8,1,5,80,127,1686958492
116,17,7,Jits_ISO_8,2,5,63,98,1686978876
116,17,7,Jits_ISO_8,3,1,48,27,1686983116
116,17,7,Jits_ISO_8,0,5,63,98,1687709280
116,17,7,Jits_ISO_8,1,1,48,19,1687714344
116,17,7,Jits_ISO_8,2,5,56,103,1687719472
116,17,7,Jits_ISO_8,3,5,80,127,1687728472
116,17,7,Jits_ISO_8,0,1,48,24,1688431680
116,17,7,Jits_ISO_8,1,5,80,127,1688498488
116,17,7,Jits_ISO_8,2,5,56,103,1688548604
116,17,7,Jits_ISO_8,3,5,63,98,1688588616
116,17,7,Jits_ISO_8,0,1,48,29,1689248124
116,17,7,Jits_ISO_8,1,5,80,127,1689318724
116,17,7,Jits_ISO_8,2,5,63,98,1689339408
116,17,7,Jits_ISO_8,3,5,56,103,1689389372
116,17,7,Jits_ISO_8,0,1,48,25,1690057272
116,17,7,Jits_ISO_8,1,5,80,127,1690128844
116,17,7,Jits_ISO_8,2,5,56,103,1690158504
116,17,7,Jits_ISO_8,3,5,63,98,1690229156
116,17,7,Jits_ISO_8,0,1,48,27,1690945524
116,17,7,Jits_ISO_8,1,5,56,103,1690978604
116,17,7,Jits_ISO_8,2,5,80,127,1690988876
116,17,7,Jits_ISO_8,3,5,63,98,1691028984
116,17,7,Jits_ISO_8,0,5,56,103,1691689460
116,17,7,Jits_ISO_8,1,5,63,98,1691708724
116,17,7,Jits_ISO_8,2,1,48,27,1691761140
116,17,7,Jits_ISO_8,3,5,80,127,1691778400
116,17,7,Jits_ISO_8,0,1,48,28,1692459028
116,17,7,Jits_ISO_8,1,5,63,98,1692508500
116,17,7,Jits_ISO_8,2,5,80,127,1692568904
116,17,7,Jits_ISO_8,3,5,56,103,1692589292
116,17,7,Jits_ISO_8,0,1,48,29,1693258816
116,17,7,Jits_ISO_8,1,5,80,127,1693298996
116,17,7,Jits_ISO_8,2,5,56,103,1693328772
116,17,7,Jits_ISO_8,3,5,63,98,1693358356
116,17,7,Jits_ISO_8,0,1,48,28,1694061208
116,17,7,Jits_ISO_8,1,5,56,103,1694098800
116,17,7,Jits_ISO_8,2,5,63,98,1694159400
116,17,7,Jits_ISO_8,3,5,80,127,1694218592
116,17,7,Jits_ISO_8,0,1,48,21,1694902072
116,17,7,Jits_ISO_8,1,5,80,127,1694918960
116,17,7,Jits_ISO_8,2,5,56,103,1694938372
116,17,7,Jits_ISO_8,3,5,63,98,1695009380
116,17,7,Jits_ISO_8,0,5,80,127,1695718748
116,17,7,Jits_ISO_8,1,1,48,24,1695737392
116,17,7,Jits_ISO_8,2,5,63,98,1695739128
116,17,7,Jits_ISO_8,3,5,56,103,1695769100
116,17,7,Jits_ISO_8,0,1,48,27,1696480144
116,17,7,Jits_ISO_8,1,5,80,127,1696509320
116,17,7,Jits_ISO_8,2,5,63,98,1696528880
116,17,7,Jits_ISO_8,3,5,56,103,1696589328
116,17,7,Jits_ISO_8,0,1,48,28,1697304492
116,17,7,Jits_ISO_8,1,5,80,127,1697309172
116,17,7,Jits_ISO_8,2,5,56,103,1697409260
116,17,7,Jits_ISO_8,3,5,63,98,1697439180
116,17,7,Jits_ISO_8,0,5,63,98,1698098552
116,17,7,Jits_ISO_8,1,5,80,127,1698148608
116,17,7,Jits_ISO_8,2,5,56,103,1698169068
116,17,7,Jits_ISO_8,3,1,48,24,1698170032
116,17,7,Jits_ISO_8,0,1,48,27,1698901372
116,17,7,Jits_ISO_8,1,5,80,127,1698939308
116,17,7,Jits_ISO_8,2,5,56,103,1698969156
116,17,7,Jits_ISO_8,3,5,63,98,1698972224
116,17,7,Jits_ISO_8,0,1,48,26,1699738336
116,17,7,Jits_ISO_8,1,5,63,98,1699768632
116,17,7,Jits_ISO_8,2,5,56,103,1699808572
116,17,7,Jits_ISO_8,3,5,80,127,1699829328
116,17,7,Jits_ISO_8,0,5,80,127,1700509084
116,17,7,Jits_ISO_8,1,1,48,28,1700548700
116,17,7,Jits_ISO_8,2,5,63,98,1700589100
116,17,7,Jits_ISO_8,3,5,56,103,1700628964
116,17,7,Jits_ISO_8,0,5,63,98,1701329412
116,17,7,Jits_ISO_8,1,1,48,25,1701359660
116,17,7,Jits_ISO_8,2,5,80,127,1701409280
116,17,7,Jits_ISO_8,3,5,56,103,1701428544
116,17,7,Jits_ISO_8,0,1,48,27,1702151648
116,17,7,Jits_ISO_8,1,5,56,103,1702168908
116,17,7,Jits_ISO_8,2,5,63,98,1702179180
116,17,7,Jits_ISO_8,3,5,80,127,1702219264
116,17,7,Jits_ISO_8,0,5,56,103,1702888676
116,17,7,Jits_ISO_8,1,5,80,127,1702891896
116,17,7,Jits_ISO_8,2,1,48,29,1702918624
116,17,7,Jits_ISO_8,3,5,63,98,1703029280
116,17,7,Jits_ISO_8,0,5,56,103,1703679324
116,17,7,Jits_ISO_8,1,1,48,24,1703701472
116,17,7,Jits_ISO_8,2,5,63,98,1703768336
116,17,7,Jits_ISO_8,3,5,80,127,1703839292
116,17,7,Jits_ISO_8,0,1,48,26,1704485380
116,17,7,Jits_ISO_8,1,5,63,98,1704559064
116,17,7,Jits_ISO_8,2,5,80,127,1704562352
116,17,7,Jits_ISO_8,3,5,56,103,1704619312
116,17,7,Jits_ISO_8,0,1,48,24,1705328172
116,17,7,Jits_ISO_8,1,5,80,127,1705398500
116,17,7,Jits_ISO_8,2,5,56,103,1705419540
116,17,7,Jits_ISO_8,3,5,63,98,1705429216
116,17,7,Jits_ISO_8,0,5,56,103,1706109260
116,17,7,Jits_ISO_8,1,5,63,98,1706118484
116,17,7,Jits_ISO_8,2,5,80,127,1706189212
116,17,7,Jits_ISO_8,3,1,48,21,1706205060
116,17,7,Jits_ISO_8,0,5,80,127,1706909200
116,17,7,Jits_ISO_8,1,5,56,103,1706959180
116,17,7,Jits_ISO_8,2,1,48,26,1706964916
116,17,7,Jits_ISO_8,3,5,63,98,1707009304
116,17,7,Jits_ISO_8,0,1,48,25,1707729496
116,17,7,Jits_ISO_8,1,5,56,103,1707788712
116,17,7,Jits_ISO_8,2,5,63,98,1707798984
116,17,7,Jits_ISO_8,3,5,80,127,1707838760
116,17,7,Jits_ISO_8,0,1,48,26,1708498120
116,17,7,Jits_ISO_8,1,5,56,103,1708529228
116,17,7,Jits_ISO_8,2,5,63,98,1708569024
116,17,7,Jits_ISO_8,3,5,80,127,1708619060
116,17,7,Jits_ISO_8,0,5,80,127,1709289088
116,17,7,Jits_ISO_8,1,1,48,23,1709291456
116,17,7,Jits_ISO_8,2,5,56,103,1709339136
116,17,7,Jits_ISO_8,3,5,63,98,1709358472
116,17,7,Jits_ISO_8,0,1,48,21,1710085324
116,17,7,Jits_ISO_8,1,5,80,127,1710099212
116,17,7,Jits_ISO_8,2,5,63,98,1710159160
116,17,7,Jits_ISO_8,3,5,56,103,1710239112
116,17,7,Jits_ISO_8,0,5,80,127,1710879148
116,17,7,Jits_ISO_8,1,1,48,25,1710894548
116,17,7,Jits_ISO_8,2,5,56,103,1710919156
116,17,7,Jits_ISO_8,3,5,63,98,1710938344
116,17,7,Jits_ISO_8,0,1,48,24,1711677492
116,17,7,Jits_ISO_8,1,5,56,103,1711729132
116,17,7,Jits_ISO_8,2,5,80,127,1711739104
116,17,7,Jits_ISO_8,3,5,63,98,1711779128
116,17,7,Jits_ISO_8,0,1,48,21,1712498776
116,17,7,Jits_ISO_8,1,5,56,103,1712599428
116,17,7,Jits_ISO_8,2,5,63,98,1712639292
116,17,7,Jits_ISO_8,3,5,80,127,1712642508
116,17,7,Jits_ISO_8,0,5,63,98,1713288496
116,17,7,Jits_ISO_8,1,5,80,127,1713328436
116,17,7,Jits_ISO_8,2,1,48,26,1713348644
116,17,7,Jits_ISO_8,3,5,56,103,1713399084
116,17,7,Jits_ISO_8,0,5,63,98,1714079060
116,17,7,Jits_ISO_8,1,1,48,25,1714084344
116,17,7,Jits_ISO_8,2,5,56,103,1714159072
116,17,7,Jits_ISO_8,3,5,80,127,1714219372
116,17,7,Jits_ISO_8,0,5,80,127,1714889100
116,17,7,Jits_ISO_8,1,5,63,98,1714939376
116,17,7,Jits_ISO_8,2,1,48,27,1714940344
116,17,7,Jits_ISO_8,3,5,56,103,1714968972
116,17,7,Jits_ISO_8,0,5,56,103,1715678560
116,17,7,Jits_ISO_8,1,1,48,22,1715711200
116,17,7,Jits_ISO_8,2,5,63,98,1715728980
116,17,7,Jits_ISO_8,3,5,80,127,1715739024
116,17,7,Jits_ISO_8,0,1,48,23,1716483256
116,17,7,Jits_ISO_8,1,5,56,103,1716488680
116,17,7,Jits_ISO_8,2,5,63,98,1716599108
116,17,7,Jits_ISO_8,3,5,80,127,1716618544
116,17,7,Jits_ISO_8,0,5,63,98,1717289368
116,17,7,Jits_ISO_8,1,1,48,21,1717292192
116,17,7,Jits_ISO_8,2,5,80,127,1717338372
116,17,7,Jits_ISO_8,3,5,56,103,1717428660
116,17,7,Jits_ISO_8,0,1,48,19,1718077604
116,17,7,Jits_ISO_8,1,5,63,98,1718079100
116,17,7,Jits_ISO_8,2,5,80,127,1718108556
116,17,7,Jits_ISO_8,3,5,56,103,1718198624
116,17,7,Jits_ISO_8,0,5,63,98,1718878440
116,17,7,Jits_ISO_8,1,5,56,103,1718888860
116,17,7,Jits_ISO_8,2,1,48,21,1718912284
116,17,7,Jits_ISO_8,3,5,80,127,1718989272
116,17,7,Jits_ISO_8,0,1,48,24,1719666336
116,17,7,Jits_ISO_8,1,5,63,98,1719778772
116,17,7,Jits_ISO_8,2,5,80,127,1719809492
116,17,7,Jits_ISO_8,3,5,56,103,1719839168
116,17,7,Jits_ISO_8,0,1,48,20,1720521908
116,17,7,Jits_ISO_8,1,5,80,127,1720599032
116,17,7,Jits_ISO_8,2,5,63,98,1720609080
116,17,7,Jits_ISO_8,3,5,56,103,1720638888
116,17,7,Jits_ISO_8,0,5,80,127,1721299248
116,17,7,Jits_ISO_8,1,5,63,98,1721318812
116,17,7,Jits_ISO_8,2,5,56,103,1721369084
116,17,7,Jits_ISO_8,3,1,48,24,1721413476
116,17,7,Jits_ISO_8,0,1,48,20,1722089120
116,17,7,Jits_ISO_8,1,5,63,98,1722129004
116,17,7,Jits_ISO_8,2,5,80,127,1722189156
116,17,7,Jits_ISO_8,3,5,56,103,1722208644
116,17,7,Jits_ISO_8,0,5,63,98,1722888636
116,17,7,Jits_ISO_8,1,1,48,19,1722925388
116,17,7,Jits_ISO_8,2,5,56,103,1722938904
116,17,7,Jits_ISO_8,3,5,80,127,1722948952
116,17,7,Jits_ISO_8,0,1,48,17,1723667180
116,17,7,Jits_ISO_8,1,5,56,103,1723718972
116,17,7,Jits_ISO_8,2,5,80,127,1723729244
116,17,7,Jits_ISO_8,3,5,63,98,1723828676
116,17,7,Jits_ISO_8,0,1,48,20,1724456904
116,17,7,Jits_ISO_8,1,5,80,127,1724478896
116,17,7,Jits_ISO_8,2,5,63,98,1724489092
116,17,7,Jits_ISO_8,3,5,56,103,1724638720
116,17,7,Jits_ISO_8,0,1,48,19,1725259848
116,17,7,Jits_ISO_8,1,5,63,98,1725288864
116,17,7,Jits_ISO_8,2,5,80,127,1725328828
116,17,7,Jits_ISO_8,3,5,56,103,1725408760
116,17,7,Jits_ISO_8,0,5,56,103,1726079288
116,17,7,Jits_ISO_8,1,1,48,21,1726100336
116,17,7,Jits_ISO_8,2,5,80,127,1726179028
116,17,7,Jits_ISO_8,3,5,63,98,1726199100
116,17,7,Jits_ISO_8,0,1,48,19,1726873004
116,17,7,Jits_ISO_8,1,5,80,127,1726938592
116,17,7,Jits_ISO_8,2,5,56,103,1726948940
116,17,7,Jits_ISO_8,3,5,63,98,1727038832
116,17,7,Jits_ISO_8,0,1,48,19,1727664912
116,17,7,Jits_ISO_8,1,5,56,103,1727739200
116,17,7,Jits_ISO_8,2,5,63,98,1727759116
116,17,7,Jits_ISO_8,3,5,80,127,1727838688
116,17,7,Jits_ISO_8,0,5,63,98,1728488792
116,17,7,Jits_ISO_8,1,1,48,19,1728492356
116,17,7,Jits_ISO_8,2,5,56,103,1728578920
116,17,7,Jits_ISO_8,3,5,80,127,1728582212
116,17,7,Jits_ISO_8,0,1,48,19,1729301720
116,17,7,Jits_ISO_8,1,5,56,103,1729319352
116,17,7,Jits_ISO_8,2,5,80,127,1729378848
116,17,7,Jits_ISO_8,3,5,63,98,1729388896
116,17,7,Jits_ISO_8,0,1,48,17,1730085832
116,17,7,Jits_ISO_8,1,5,80,127,1730169188
116,17,7,Jits_ISO_8,2,5,56,103,1730178484
116,17,7,Jits_ISO_8,3,5,63,98,1730181872
116,17,7,Jits_ISO_8,0,1,48,16,1730883820
116,17,7,Jits_ISO_8,1,5,56,103,1730928956
116,17,7,Jits_ISO_8,2,5,80,127,1730939224
116,17,7,Jits_ISO_8,3,5,63,98,1730958664
116,17,7,Jits_ISO_8,0,1,48,20,1731684572
116,17,7,Jits_ISO_8,1,5,63,98,1731699064
116,17,7,Jits_ISO_8,2,5,80,127,1731758732
116,17,7,Jits_ISO_8,3,5,56,103,1731808620
116,17,7,Jits_ISO_8,0,1,48,18,1732511956
116,17,7,Jits_ISO_8,1,5,63,98,1732578888
116,17,7,Jits_ISO_8,2,5,56,103,1732588864
116,17,7,Jits_ISO_8,3,5,80,127,1732639196
116,17,7,Jits_ISO_8,0,5,63,98,1733279036
116,17,7,Jits_ISO_8,1,5,80,127,1733298524
116,17,7,Jits_ISO_8,2,5,56,103,1733308648
116,17,7,Jits_ISO_8,3,1,48,14,1733369004
116,17,7,Jits_ISO_8,0,1,48,17,1734010044
116,17,7,Jits_ISO_8,1,5,63,98,1734078872
116,17,7,Jits_ISO_8,2,5,80,127,1734082236
116,17,7,Jits_ISO_8,3,5,56,103,1734118644
116,17,7,Jits_ISO_8,0,1,48,20,1734809156
116,17,7,Jits_ISO_8,1,5,63,98,1734949200
116,17,7,Jits_ISO_8,2,5,80,127,1734978876
116,17,7,Jits_ISO_8,3,5,56,103,1734989148
116,17,7,Jits_ISO_8,0,1,48,18,1735698736
116,17,7,Jits_ISO_8,1,5,56,103,1735700148
116,17,7,Jits_ISO_8,2,5,80,127,1735728628
116,17,7,Jits_ISO_8,3,5,63,98,1735759128
116,17,7,Jits_ISO_8,0,1,48,17,1736511592
116,17,7,Jits_ISO_8,1,5,63,98,1736598856
116,17,7,Jits_ISO_8,2,5,56,103,1736638852
116,17,7,Jits_ISO_8,3,5,80,127,1736641844
116,17,7,Jits_ISO_8,0,5,80,127,1737299196
116,17,7,Jits_ISO_8,1,1,48,16,1737350520
116,17,7,Jits_ISO_8,2,5,56,103,1737379312
116,17,7,Jits_ISO_8,3,5,63,98,1737429512
116,17,7,Jits_ISO_8,0,5,80,127,1738078768
116,17,7,Jits_ISO_8,1,5,56,103,1738099004
116,17,7,Jits_ISO_8,2,5,63,98,1738189084
116,17,7,Jits_ISO_8,3,1,48,13,1738201644
116,17,7,Jits_ISO_8,0,5,80,127,1738919564
116,17,7,Jits_ISO_8,1,1,48,17,1738929956
116,17,7,Jits_ISO_8,2,5,63,98,1738959272
116,17,7,Jits_ISO_8,3,5,56,103,1738999136
116,17,7,Jits_ISO_8,0,5,63,98,1739689468
116,17,7,Jits_ISO_8,1,5,80,127,1739748664
116,17,7,Jits_ISO_8,2,1,48,21,1739755972
116,17,7,Jits_ISO_8,3,5,56,103,1739778704
116,17,7,Jits_ISO_8,0,5,56,103,1740489020
116,17,7,Jits_ISO_8,1,5,80,127,1740518696
116,17,7,Jits_ISO_8,2,1,48,19,1740537404
116,17,7,Jits_ISO_8,3,5,63,98,1740608896
116,17,7,Jits_ISO_8,0,5,56,103,1741298932
116,17,7,Jits_ISO_8,1,1,48,18,1741299896
116,17,7,Jits_ISO_8,2,5,80,127,1741408748
116,17,7,Jits_ISO_8,3,5,63,98,1741439468
116,17,7,Jits_ISO_8,0,1,48,16,1742108512
116,17,7,Jits_ISO_8,1,5,56,103,1742148848
116,17,7,Jits_ISO_8,2,5,63,98,1742209376
116,17,7,Jits_ISO_8,3,5,80,127,1742239004
116,17,7,Jits_ISO_8,0,5,56,103,1742918900
116,17,7,Jits_ISO_8,1,1,48,17,1742948476
116,17,7,Jits_ISO_8,2,5,63,98,1742988604
116,17,7,Jits_ISO_8,3,5,80,127,1743009212
116,17,7,Jits_ISO_8,0,5,80,127,1743689108
116,17,7,Jits_ISO_8,1,5,63,98,1743708596
116,17,7,Jits_ISO_8,2,1,48,16,1743730664
116,17,7,Jits_ISO_8,3,5,56,103,1743758664
116,17,7,Jits_ISO_8,0,9999,9999,9999,1648956488
116,17,7,Jits_ISO_8,1,9999,9999,9999,1649756264
116,17,7,Jits_ISO_8,2,9999,9999,9999,1650557012
116,17,7,Jits_ISO_8,3,9999,9999,9999,1651356756
116,17,7,Jits_ISO_8,4,9999,9999,9999,1652156536
116,17,7,Jits_ISO_8,5,9999,9999,9999,1652956244
116,17,7,Jits_ISO_8,6,9999,9999,9999,1653756996
116,17,7,Jits_ISO_8,7,9999,9999,9999,1654556796
116,17,7,Jits_ISO_8,8,9999,9999,9999,1655356520
116,17,7,Jits_ISO_8,9,9999,9999,9999,1656156268
116,17,7,Jits_ISO_8,10,9999,9999,9999,1656957044
116,17,7,Jits_ISO_8,11,9999,9999,9999,1657756792
116,17,7,Jits_ISO_8,12,9999,9999,9999,1658556520
116,17,7,Jits_ISO_8,13,9999,9999,9999,1659356240
116,17,7,Jits_ISO_8,14,9999,9999,9999,1660156984
116,17,7,Jits_ISO_8,15,9999,9999,9999,1660956768
116,17,7,Jits_ISO_8,16,9999,9999,9999,1661756536
116,17,7,Jits_ISO_8,17,9999,9999,9999,1662556252
116,17,7,Jits_ISO_8,18,9999,9999,9999,1663357012
116,17,7,Jits_ISO_8,19,9999,9999,9999,1664156748
116,17,7,Jits_ISO_8,20,9999,9999,9999,1664956528
116,17,7,Jits_ISO_8,21,9999,9999,9999,1665756236
116,17,7,Jits_ISO_8,22,9999,9999,9999,1666556996
116,17,7,Jits_ISO_8,23,9999,9999,9999,1667356776
116,17,7,Jits_ISO_8,24,9999,9999,9999,1668156484
116,17,7,Jits_ISO_8,25,9999,9999,9999,1668956264
116,17,7,Jits_ISO_8,26,9999,9999,9999,1669757020
116,17,7,Jits_ISO_8,27,9999,9999,9999,1670556756
116,17,7,Jits_ISO_8,28,9999,9999,9999,1671356480
116,17,7,Jits_ISO_8,29,9999,9999,9999,1672156268
116,17,7,Jits_ISO_8,30,9999,9999,9999,1672957024
116,17,7,Jits_ISO_8,31,9999,9999,9999,1673756732
116,17,7,Jits_ISO_8,32,9999,9999,9999,1674556512
116,17,7,Jits_ISO_8,33,9999,9999,9999,1675356232
116,17,7,Jits_ISO_8,34,9999,9999,9999,1676157004
116,17,7,Jits_ISO_8,35,9999,9999,9999,1676956748
116,17,7,Jits_ISO_8,36,9999,9999,9999,1677756536
116,17,7,Jits_ISO_8,37,9999,9999,9999,1678556264
116,17,7,Jits_ISO_8,38,9999,9999,9999,1679357024
116,17,7,Jits_ISO_8,39,9999,9999,9999,1680156752
116,17,7,Jits_ISO_8,40,9999,9999,9999,1680956476
116,17,7,Jits_ISO_8,41,9999,9999,9999,1681756272
116,17,7,Jits_ISO_8,42,9999,9999,9999,1682557020
116,17,7,Jits_ISO_8,43,9999,9999,9999,1683356740
116,17,7,Jits_ISO_8,44,9999,9999,9999,1684156508
116,17,7,Jits_ISO_8,45,9999,9999,9999,1684956220
116,17,7,Jits_ISO_8,46,9999,9999,9999,1685757048
116,17,7,Jits_ISO_8,47,9999,9999,9999,1686556764
116,17,7,Jits_ISO_8,48,9999,9999,9999,1687356484
116,17,7,Jits_ISO_8,49,9999,9999,9999,1688156276
116,17,7,Jits_ISO_8,50,9999,9999,9999,1688957028
116,17,7,Jits_ISO_8,51,9999,9999,9999,1689756760
116,17,7,Jits_ISO_8,52,9999,9999,9999,1690556472
116,17,7,Jits_ISO_8,53,9999,9999,9999,1691356260
116,17,7,Jits_ISO_8,54,9999,9999,9999,1692157008
116,17,7,Jits_ISO_8,55,9999,9999,9999,1692956728
116,17,7,Jits_ISO_8,56,9999,9999,9999,1693756508
116,17,7,Jits_ISO_8,57,9999,9999,9999,1694556220
116,17,7,Jits_ISO_8,58,9999,9999,9999,1695357044
116,17,7,Jits_ISO_8,59,9999,9999,9999,1696156776
116,17,7,Jits_ISO_8,60,9999,9999,9999,1696956496
116,17,7,Jits_ISO_8,61,9999,9999,9999,1697756284
116,17,7,Jits_ISO_8,62,9999,9999,9999,1698557036
116,17,7,Jits_ISO_8,63,9999,9999,9999,1699356736
116,17,7,Jits_ISO_8,64,9999,9999,9999,1700156528
116,17,7,Jits_ISO_8,65,9999,9999,9999,1700956240
116,17,7,Jits_ISO_8,66,9999,9999,9999,1701757012
116,17,7,Jits_ISO_8,67,9999,9999,9999,1702556752
116,17,7,Jits_ISO_8,68,9999,9999,9999,1703356520
116,17,7,Jits_ISO_8,69,9999,9999,9999,1704156244
116,17,7,Jits_ISO_8,70,9999,9999,9999,1704957012
116,17,7,Jits_ISO_8,71,9999,9999,9999,1705756728
116,17,7,Jits_ISO_8,72,9999,9999,9999,1706556480
116,17,7,Jits_ISO_8,73,9999,9999,9999,1707356276
116,17,7,Jits_ISO_8,74,9999,9999,9999,1708156980
116,17,7,Jits_ISO_8,75,9999,9999,9999,1708956784
116,17,7,Jits_ISO_8,76,9999,9999,9999,1709756488
116,17,7,Jits_ISO_8,77,9999,9999,9999,1710556212
116,17,7,Jits_ISO_8,78,9999,9999,9999,1711357032
116,17,7,Jits_ISO_8,79,9999,9999,9999,1712156756
116,17,7,Jits_ISO_8,80,9999,9999,9999,1712956468
116,17,7,Jits_ISO_8,81,9999,9999,9999,1713756244
116,17,7,Jits_ISO_8,82,9999,9999,9999,1714557000
116,17,7,Jits_ISO_8,83,9999,9999,9999,1715356724
116,17,7,Jits_ISO_8,84,9999,9999,9999,1716156516
116,17,7,Jits_ISO_8,85,9999,9999,9999,1716956244
116,17,7,Jits_ISO_8,86,9999,9999,9999,1717756996
116,17,7,Jits_ISO_8,87,9999,9999,9999,1718556776
116,17,7,Jits_ISO_8,88,9999,9999,9999,1719356476
116,17,7,Jits_ISO_8,89,9999,9999,9999,1720156272
116,17,7,Jits_ISO_8,90,9999,9999,9999,1720957036
116,17,7,Jits_ISO_8,91,9999,9999,9999,1721756756
116,17,7,Jits_ISO_8,92,9999,9999,9999,1722556484
116,17,7,Jits_ISO_8,93,9999,9999,9999,1723356256
116,17,7,Jits_ISO_8,94,9999,9999,9999,1724157012
116,17,7,Jits_ISO_8,95,9999,9999,9999,1724956792
116,17,7,Jits_ISO_8,96,9999,9999,9999,1725756496
116,17,7,Jits_ISO_8,97,9999,9999,9999,1726556280
116,17,7,Jits_ISO_8,98,9999,9999,9999,1727356980
116,17,7,Jits_ISO_8,99,9999,9999,9999,1728156788
116,17,7,Jits_ISO_8,100,9999,9999,9999,1728956484
116,17,7,Jits_ISO_8,101,9999,9999,9999,1729756272
116,17,7,Jits_ISO_8,102,9999,9999,9999,1730557020
116,17,7,Jits_ISO_8,103,9999,9999,9999,1731356728
116,17,7,Jits_ISO_8,104,9999,9999,9999,1732156508
116,17,7,Jits_ISO_8,105,9999,9999,9999,1732956220
116,17,7,Jits_ISO_8,106,9999,9999,9999,1733757044
116,17,7,Jits_ISO_8,107,9999,9999,9999,1734556752
116,17,7,Jits_ISO_8,108,9999,9999,9999,1735356540
116,17,7,Jits_ISO_8,109,9999,9999,9999,1736156244
116,17,7,Jits_ISO_8,110,9999,9999,9999,1736956996
116,17,7,Jits_ISO_8,111,9999,9999,9999,1737756784
116,17,7,Jits_ISO_8,112,9999,9999,9999,1738556504
116,17,7,Jits_ISO_8,113,9999,9999,9999,1739356228
116,17,7,Jits_ISO_8,114,9999,9999,9999,1740156996
116,17,7,Jits_ISO_8,115,9999,9999,9999,1740956792
116,17,7,Jits_ISO_8,116,9999,9999,9999,1741756520
116,17,7,Jits_ISO_8,117,9999,9999,9999,1742556252
116,17,7,Jits_ISO_8,118,9999,9999,9999,1743357008
116,17,7,Jits_ISO_8,119,9999,9999,9999,1744156728
116,18,17,Jits_Phase_5,0,5,56,103,1753108900
116,18,17,Jits_Phase_5,1,5,63,98,1753112076
116,18,17,Jits_Phase_5,2,5,80,127,1753115344
116,18,17,Jits_Phase_5,0,5,56,103,1753608608
116,18,17,Jits_Phase_5,1,5,63,98,1753611632
116,18,17,Jits_Phase_5,2,5,80,127,1753614752
116,18,17,Jits_Phase_5,3,1,48,31,1753789152
116,18,17,Jits_Phase_5,0,5,56,103,1754109264
116,18,17,Jits_Phase_5,1,5,80,127,1754118636
116,18,17,Jits_Phase_5,2,5,63,98,1754138872
116,18,17,Jits_Phase_5,3,1,48,31,1754145652
116,18,17,Jits_Phase_5,0,5,63,98,1754558840
116,18,17,Jits_Phase_5,1,5,80,127,1754588440
116,18,17,Jits_Phase_5,2,5,56,103,1754598636
116,18,17,Jits_Phase_5,3,1,48,28,1754602728
116,18,17,Jits_Phase_5,0,1,48,27,1755046108
116,18,17,Jits_Phase_5,1,5,80,127,1755118816
116,18,17,Jits_Phase_5,2,5,56,103,1755129456
116,18,17,Jits_Phase_5,3,5,63,98,1755158892
116,18,17,Jits_Phase_5,0,5,63,98,1755608388
116,18,17,Jits_Phase_5,1,1,48,29,1755618408
116,18,17,Jits_Phase_5,2,5,56,103,1755639400
116,18,17,Jits_Phase_5,3,5,80,127,1755649520
116,18,17,Jits_Phase_5,0,5,56,103,1756058992
116,18,17,Jits_Phase_5,1,5,63,98,1756109268
116,18,17,Jits_Phase_5,2,1,48,24,1756122128
116,18,17,Jits_Phase_5,3,5,80,127,1756128524
116,18,17,Jits_Phase_5,0,5,80,127,1756558756
116,18,17,Jits_Phase_5,1,1,48,21,1756601204
116,18,17,Jits_Phase_5,2,5,63,98,1756608876
116,18,17,Jits_Phase_5,3,5,56,103,1756648812
116,18,17,Jits_Phase_5,0,5,56,103,1757058348
116,18,17,Jits_Phase_5,1,5,63,98,1757089144
116,18,17,Jits_Phase_5,2,1,48,26,1757138712
116,18,17,Jits_Phase_5,3,5,80,127,1757158736
116,18,17,Jits_Phase_5,0,5,56,103,1757559280
116,18,17,Jits_Phase_5,1,1,48,21,1757591644
116,18,17,Jits_Phase_5,2,5,80,127,1757618416
116,18,17,Jits_Phase_5,3,5,63,98,1757649288
116,18,17,Jits_Phase_5,0,5,56,103,1758069308
116,18,17,Jits_Phase_5,1,5,63,98,1758079428
116,18,17,Jits_Phase_5,2,5,80,127,1758119316
116,18,17,Jits_Phase_5,3,1,48,21,1758121988
116,18,17,Jits_Phase_5,0,5,63,98,1758558584
116,18,17,Jits_Phase_5,1,1,48,19,1758585144
116,18,17,Jits_Phase_5,2,5,80,127,1758638468
116,18,17,Jits_Phase_5,3,5,56,103,1758648664
116,18,17,Jits_Phase_5,0,1,48,23,1759104444
116,18,17,Jits_Phase_5,1,5,63,98,1759108624
116,18,17,Jits_Phase_5,2,5,56,103,1759149384
116,18,17,Jits_Phase_5,3,5,80,127,1759152448
116,18,17,Jits_Phase_5,0,5,56,103,1759569532
116,18,17,Jits_Phase_5,1,5,63,98,1759578384
116,18,17,Jits_Phase_5,2,5,80,127,1759618540
116,18,17,Jits_Phase_5,3,1,48,24,1759621240
116,18,17,Jits_Phase_5,0,5,56,103,1760058728
116,18,17,Jits_Phase_5,1,5,63,98,1760061796
116,18,17,Jits_Phase_5,2,1,48,14,1760067248
116,18,17,Jits_Phase_5,3,5,80,127,1760079628
116,18,17,Jits_Phase_5,0,1,48,18,1760522480
116,18,17,Jits_Phase_5,1,5,80,127,1760568736
116,18,17,Jits_Phase_5,2,5,56,103,1760578856
116,18,17,Jits_Phase_5,3,5,63,98,1760648544
116,18,17,Jits_Phase_5,0,5,63,98,1761059272
116,18,17,Jits_Phase_5,1,1,48,23,1761066352
116,18,17,Jits_Phase_5,2,5,56,103,1761078752
116,18,17,Jits_Phase_5,3,5,80,127,1761158492
116,18,17,Jits_Phase_5,0,5,56,103,1761569356
116,18,17,Jits_Phase_5,1,1,48,19,1761585732
116,18,17,Jits_Phase_5,2,5,80,127,1761609140
116,18,17,Jits_Phase_5,3,5,63,98,1761619260
116,18,17,Jits_Phase_5,0,5,80,127,1762058632
116,18,17,Jits_Phase_5,1,5,63,98,1762089280
116,18,17,Jits_Phase_5,2,1,48,20,1762104828
116,18,17,Jits_Phase_5,3,5,56,103,1762129208
116,18,17,Jits_Phase_5,0,5,56,103,1762578772
116,18,17,Jits_Phase_5,1,5,63,98,1762608448
116,18,17,Jits_Phase_5,2,1,48,14,1762613364
116,18,17,Jits_Phase_5,3,5,80,127,1762658636
116,18,17,Jits_Phase_5,0,5,80,127,1763078388
116,18,17,Jits_Phase_5,1,1,48,19,1763083528
116,18,17,Jits_Phase_5,2,5,56,103,1763118392
116,18,17,Jits_Phase_5,3,5,63,98,1763128736
116,18,17,Jits_Phase_5,0,5,80,127,1763558672
116,18,17,Jits_Phase_5,1,1,48,18,1763589292
116,18,17,Jits_Phase_5,2,5,63,98,1763598752
116,18,17,Jits_Phase_5,3,5,56,103,1763659064
116,18,17,Jits_Phase_5,0,5,56,103,1764058436
116,18,17,Jits_Phase_5,1,5,80,127,1764068856
116,18,17,Jits_Phase_5,2,1,48,22,1764094144
116,18,17,Jits_Phase_5,3,5,63,98,1764148564
116,18,17,Jits_Phase_5,0,5,80,127,1764559388
116,18,17,Jits_Phase_5,1,5,63,98,1764618584
116,18,17,Jits_Phase_5,2,1,48,15,1764638188
116,18,17,Jits_Phase_5,3,5,56,103,1764649448
116,18,17,Jits_Phase_5,0,5,56,103,1765058856
116,18,17,Jits_Phase_5,1,5,80,127,1765119468
116,18,17,Jits_Phase_5,2,1,48,22,1765122516
116,18,17,Jits_Phase_5,3,5,63,98,1765159324
116,18,17,Jits_Phase_5,0,1,48,14,1765606624
116,18,17,Jits_Phase_5,1,5,56,103,1765608812
116,18,17,Jits_Phase_5,2,5,63,98,1765619152
116,18,17,Jits_Phase_5,3,5,80,127,1765622520
116,18,17,Jits_Phase_5,0,5,80,127,1766059260
116,18,17,Jits_Phase_5,1,1,48,15,1766082004
116,18,17,Jits_Phase_5,2,5,63,98,1766148484
116,18,17,Jits_Phase_5,3,5,56,103,1766158828
116,18,17,Jits_Phase_5,0,5,56,103,1766559232
116,18,17,Jits_Phase_5,1,5,63,98,1766562332
116,18,17,Jits_Phase_5,2,5,80,127,1766565376
116,18,17,Jits_Phase_5,3,1,48,16,1766618180
116,18,17,Jits_Phase_5,0,1,48,18,1767060004
116,18,17,Jits_Phase_5,1,5,80,127,1767079208
116,18,17,Jits_Phase_5,2,5,63,98,1767128364
116,18,17,Jits_Phase_5,3,5,56,103,1767159292
116,18,17,Jits_Phase_5,0,5,56,103,1767558436
116,18,17,Jits_Phase_5,1,5,80,127,1767568708
116,18,17,Jits_Phase_5,2,1,48,18,1767580516
116,18,17,Jits_Phase_5,3,5,63,98,1767639500
116,18,17,Jits_Phase_5,0,5,56,103,1768068388
116,18,17,Jits_Phase_5,1,5,63,98,1768089220
116,18,17,Jits_Phase_5,2,1,48,23,1768101036
116,18,17,Jits_Phase_5,3,5,80,127,1768149300
116,18,17,Jits_Phase_5,0,5,80,127,1768548720
116,18,17,Jits_Phase_5,1,1,48,16,1768584528
116,18,17,Jits_Phase_5,2,5,63,98,1768619320
116,18,17,Jits_Phase_5,3,5,56,103,1768639028
116,18,17,Jits_Phase_5,0,5,80,127,1769068940
116,18,17,Jits_Phase_5,1,5,56,103,1769079432
116,18,17,Jits_Phase_5,2,1,48,19,1769082552
116,18,17,Jits_Phase_5,3,5,63,98,1769089472
116,18,17,Jits_Phase_5,0,5,80,127,1769559384
116,18,17,Jits_Phase_5,1,1,48,19,1769568124
116,18,17,Jits_Phase_5,2,5,56,103,1769579012
116,18,17,Jits_Phase_5,3,5,63,98,1769648416
116,18,17,Jits_Phase_5,0,5,56,103,1770069408
116,18,17,Jits_Phase_5,1,1,48,22,1770087816
116,18,17,Jits_Phase_5,2,5,80,127,1770099224
116,18,17,Jits_Phase_5,3,5,63,98,1770118512
116,18,17,Jits_Phase_5,0,5,63,98,1770558980
116,18,17,Jits_Phase_5,1,1,48,21,1770609680
116,18,17,Jits_Phase_5,2,5,56,103,1770619216
116,18,17,Jits_Phase_5,3,5,80,127,1770649212
116,18,17,Jits_Phase_5,0,5,63,98,1771049288
116,18,17,Jits_Phase_5,1,5,80,127,1771052652
116,18,17,Jits_Phase_5,2,1,48,19,1771081548
116,18,17,Jits_Phase_5,3,5,56,103,1771138288
116,18,17,Jits_Phase_5,0,5,56,103,1771568356
116,18,17,Jits_Phase_5,1,1,48,24,1771582112
116,18,17,Jits_Phase_5,2,5,63,98,1771599296
116,18,17,Jits_Phase_5,3,5,80,127,1771639008
116,18,17,Jits_Phase_5,0,5,63,98,1772069244
116,18,17,Jits_Phase_5,1,1,48,16,1772087876
116,18,17,Jits_Phase_5,2,5,56,103,1772109100
116,18,17,Jits_Phase_5,3,5,80,127,1772128736
116,18,17,Jits_Phase_5,0,1,48,17,1772565056
116,18,17,Jits_Phase_5,1,5,63,98,1772579176
116,18,17,Jits_Phase_5,2,5,56,103,1772619112
116,18,17,Jits_Phase_5,3,5,80,127,1772629312
116,18,17,Jits_Phase_5,0,5,80,127,1773058332
116,18,17,Jits_Phase_5,1,1,48,24,1773079960
116,18,17,Jits_Phase_5,2,5,63,98,1773129128
116,18,17,Jits_Phase_5,3,5,56,103,1773148392
116,18,17,Jits_Phase_5,0,5,56,103,1773548956
116,18,17,Jits_Phase_5,1,5,80,127,1773569268
116,18,17,Jits_Phase_5,2,1,48,25,1773604812
116,18,17,Jits_Phase_5,3,5,63,98,1773609420
116,18,17,Jits_Phase_5,0,5,63,98,1774058980
116,18,17,Jits_Phase_5,1,5,80,127,1774079288
116,18,17,Jits_Phase_5,2,1,48,17,1774080256
116,18,17,Jits_Phase_5,3,5,56,103,1774119220
116,18,17,Jits_Phase_5,0,1,48,25,1774558284
116,18,17,Jits_Phase_5,1,5,63,98,1774559620
116,18,17,Jits_Phase_5,2,5,56,103,1774579180
116,18,17,Jits_Phase_5,3,5,80,127,1774589228
116,18,17,Jits_Phase_5,0,5,80,127,1775059372
116,18,17,Jits_Phase_5,1,1,48,27,1775060340
116,18,17,Jits_Phase_5,2,5,56,103,1775078708
116,18,17,Jits_Phase_5,3,5,63,98,1775108452
116,18,17,Jits_Phase_5,0,1,48,26,1775556024
116,18,17,Jits_Phase_5,1,5,56,103,1775628804
116,18,17,Jits_Phase_5,2,5,80,127,1775631796
116,18,17,Jits_Phase_5,3,5,63,98,1775649112
116,18,17,Jits_Phase_5,0,5,63,98,1776048472
116,18,17,Jits_Phase_5,1,5,56,103,1776079120
116,18,17,Jits_Phase_5,2,1,48,16,1776093400
116,18,17,Jits_Phase_5,3,5,80,127,1776138752
116,18,17,Jits_Phase_5,0,1,48,22,1776583168
116,18,17,Jits_Phase_5,1,5,63,98,1776629196
116,18,17,Jits_Phase_5,2,5,56,103,1776639392
116,18,17,Jits_Phase_5,3,5,80,127,1776648468
116,18,17,Jits_Phase_5,0,1,48,26,1777082104
116,18,17,Jits_Phase_5,1,5,56,103,1777089024
116,18,17,Jits_Phase_5,2,5,80,127,1777118476
116,18,17,Jits_Phase_5,3,5,63,98,1777128972
116,18,17,Jits_Phase_5,0,1,48,24,1777606964
116,18,17,Jits_Phase_5,1,5,63,98,1777628488
116,18,17,Jits_Phase_5,2,5,56,103,1777638832
116,18,17,Jits_Phase_5,3,5,80,127,1777659364
116,18,17,Jits_Phase_5,0,5,56,103,1778058724
116,18,17,Jits_Phase_5,1,1,48,26,1778085284
116,18,17,Jits_Phase_5,2,5,63,98,1778118956
116,18,17,Jits_Phase_5,3,5,80,127,1778122540
116,18,17,Jits_Phase_5,0,1,48,24,1778578024
116,18,17,Jits_Phase_5,1,5,80,127,1778579672
116,18,17,Jits_Phase_5,2,5,56,103,1778588896
116,18,17,Jits_Phase_5,3,5,63,98,1778658944
116,18,17,Jits_Phase_5,0,5,80,127,1779069216
116,18,17,Jits_Phase_5,1,1,48,26,1779081280
116,18,17,Jits_Phase_5,2,5,56,103,1779139064
116,18,17,Jits_Phase_5,3,5,63,98,1779149112
116,18,17,Jits_Phase_5,0,1,48,24,1779598272
116,18,17,Jits_Phase_5,1,5,63,98,1779609084
116,18,17,Jits_Phase_5,2,5,56,103,1779619204
116,18,17,Jits_Phase_5,3,5,80,127,1779638540
116,18,17,Jits_Phase_5,0,5,80,127,1780058396
116,18,17,Jits_Phase_5,1,1,48,26,1780098604
116,18,17,Jits_Phase_5,2,5,63,98,1780119152
116,18,17,Jits_Phase_5,3,5,56,103,1780159088
116,18,17,Jits_Phase_5,0,5,56,103,1780599116
116,18,17,Jits_Phase_5,1,1,48,20,1780600080
116,18,17,Jits_Phase_5,2,5,63,98,1780609528
116,18,17,Jits_Phase_5,3,5,80,127,1780649264
116,18,17,Jits_Phase_5,0,5,56,103,1781058868
116,18,17,Jits_Phase_5,1,5,80,127,1781088768
116,18,17,Jits_Phase_5,2,1,48,23,1781104768
116,18,17,Jits_Phase_5,3,5,63,98,1781138908
116,18,17,Jits_Phase_5,0,1,48,20,1781583244
116,18,17,Jits_Phase_5,1,5,56,103,1781598484
116,18,17,Jits_Phase_5,2,5,63,98,1781638444
116,18,17,Jits_Phase_5,3,5,80,127,1781641808
116,18,17,Jits_Phase_5,0,1,48,20,1782079848
116,18,17,Jits_Phase_5,1,5,56,103,1782099200
116,18,17,Jits_Phase_5,2,5,63,98,1782108424
116,18,17,Jits_Phase_5,3,5,80,127,1782129028
116,18,17,Jits_Phase_5,0,5,56,103,1782559096
116,18,17,Jits_Phase_5,1,5,80,127,1782562164
116,18,17,Jits_Phase_5,2,1,48,25,1782572332
116,18,17,Jits_Phase_5,3,5,63,98,1782599100
116,18,17,Jits_Phase_5,0,1,48,22,1783082936
116,18,17,Jits_Phase_5,1,5,63,98,1783098852
116,18,17,Jits_Phase_5,2,5,56,103,1783128528
116,18,17,Jits_Phase_5,3,5,80,127,1783148912
116,18,17,Jits_Phase_5,0,5,80,127,1783568864
116,18,17,Jits_Phase_5,1,5,56,103,1783579060
116,18,17,Jits_Phase_5,2,5,63,98,1783589184
116,18,17,Jits_Phase_5,3,1,48,27,1783611408
116,18,17,Jits_Phase_5,0,5,56,103,1784068400
116,18,17,Jits_Phase_5,1,1,48,30,1784090924
116,18,17,Jits_Phase_5,2,5,80,127,1784109304
116,18,17,Jits_Phase_5,3,5,63,98,1784139124
116,18,17,Jits_Phase_5,0,5,63,98,1784578348
116,18,17,Jits_Phase_5,1,5,80,127,1784588768
116,18,17,Jits_Phase_5,2,5,56,103,1784599040
116,18,17,Jits_Phase_5,3,1,48,23,1784643056
116,18,17,Jits_Phase_5,0,5,56,103,1785068956
116,18,17,Jits_Phase_5,1,1,48,24,1785075816
116,18,17,Jits_Phase_5,2,5,63,98,1785138480
116,18,17,Jits_Phase_5,3,5,80,127,1785148748
116,18,17,Jits_Phase_5,0,5,80,127,1785578836
116,18,17,Jits_Phase_5,1,5,56,103,1785589104
116,18,17,Jits_Phase_5,2,1,48,27,1785619944
116,18,17,Jits_Phase_5,3,5,63,98,1785639224
116,18,17,Jits_Phase_5,0,1,48,16,1786035848
116,18,17,Jits_Phase_5,1,5,80,127,1786088852
116,18,17,Jits_Phase_5,2,5,56,103,1786149300
116,18,17,Jits_Phase_5,3,5,63,98,1786179048
116,18,17,Jits_Phase_5,0,5,56,103,1786588456
116,18,17,Jits_Phase_5,1,5,80,127,1786591600
116,18,17,Jits_Phase_5,2,1,48,17,1786627640
116,18,17,Jits_Phase_5,3,5,63,98,1786629284
116,18,17,Jits_Phase_5,0,5,56,103,1787119148
116,18,17,Jits_Phase_5,1,1,48,20,1787145860
116,18,17,Jits_Phase_5,2,5,63,98,1787148820
116,18,17,Jits_Phase_5,3,5,80,127,1787158940
116,18,17,Jits_Phase_5,0,1,48,19,1787620908
116,18,17,Jits_Phase_5,1,5,63,98,1787628876
116,18,17,Jits_Phase_5,2,5,80,127,1787639224
116,18,17,Jits_Phase_5,3,5,56,103,1787649344
116,18,17,Jits_Phase_5,0,5,80,127,1788078664
116,18,17,Jits_Phase_5,1,1,48,21,1788113172
116,18,17,Jits_Phase_5,2,5,56,103,1788128856
116,18,17,Jits_Phase_5,3,5,63,98,1788131924
116,18,17,Jits_Phase_5,0,5,56,103,1788608908
116,18,17,Jits_Phase_5,1,5,80,127,1788629292
116,18,17,Jits_Phase_5,2,5,63,98,1788638740
116,18,17,Jits_Phase_5,3,1,48,26,1788655040
116,18,17,Jits_Phase_5,0,5,63,98,1789089192
116,18,17,Jits_Phase_5,1,5,56,103,1789118940
116,18,17,Jits_Phase_5,2,1,48,26,1789135988
116,18,17,Jits_Phase_5,3,5,80,127,1789139392
116,18,17,Jits_Phase_5,0,5,56,103,1789599204
116,18,17,Jits_Phase_5,1,1,48,20,1789609920
116,18,17,Jits_Phase_5,2,5,80,127,1789611044
116,18,17,Jits_Phase_5,3,5,63,98,1789679072
116,18,17,Jits_Phase_5,0,5,63,98,1790088704
116,18,17,Jits_Phase_5,1,5,80,127,1790128792
116,18,17,Jits_Phase_5,2,1,48,23,1790136024
116,18,17,Jits_Phase_5,3,5,56,103,1790168424
116,18,17,Jits_Phase_5,0,5,56,103,1790598644
116,18,17,Jits_Phase_5,1,5,63,98,1790608692
116,18,17,Jits_Phase_5,2,5,80,127,1790629224
116,18,17,Jits_Phase_5,3,1,48,19,1790649876
116,18,17,Jits_Phase_5,0,1,48,24,1791122500
116,18,17,Jits_Phase_5,1,5,63,98,1791139156
116,18,17,Jits_Phase_5,2,5,80,127,1791158792
116,18,17,Jits_Phase_5,3,5,56,103,1791179100
116,18,17,Jits_Phase_5,0,5,56,103,1791578432
116,18,17,Jits_Phase_5,1,1,48,26,1791636800
116,18,17,Jits_Phase_5,2,5,80,127,1791659368
116,18,17,Jits_Phase_5,3,5,63,98,1791668740
116,18,17,Jits_Phase_5,0,5,80,127,1792119256
116,18,17,Jits_Phase_5,1,5,63,98,1792129452
116,18,17,Jits_Phase_5,2,5,56,103,1792159224
116,18,17,Jits_Phase_5,3,1,48,22,1792163468
116,18,17,Jits_Phase_5,0,5,63,98,1792578784
116,18,17,Jits_Phase_5,1,5,80,127,1792618944
116,18,17,Jits_Phase_5,2,1,48,19,1792627916
116,18,17,Jits_Phase_5,3,5,56,103,1792679276
116,18,17,Jits_Phase_5,0,5,63,98,1793089016
116,18,17,Jits_Phase_5,1,1,48,23,1793132440
116,18,17,Jits_Phase_5,2,5,56,103,1793138912
116,18,17,Jits_Phase_5,3,5,80,127,1793168836
116,18,17,Jits_Phase_5,0,5,80,127,1793588692
116,18,17,Jits_Phase_5,1,5,63,98,1793598960
116,18,17,Jits_Phase_5,2,1,48,30,1793627336
116,18,17,Jits_Phase_5,3,5,56,103,1793668580
116,18,17,Jits_Phase_5,0,5,80,127,1794148768
116,18,17,Jits_Phase_5,1,5,56,103,1794159036
116,18,17,Jits_Phase_5,2,1,48,17,1794161072
116,18,17,Jits_Phase_5,3,5,63,98,1794163216
116,18,17,Jits_Phase_5,0,5,56,103,1794588892
116,18,17,Jits_Phase_5,1,5,80,127,1794608680
116,18,17,Jits_Phase_5,2,5,63,98,1794618872
116,18,17,Jits_Phase_5,3,1,48,21,1794665512
116,18,17,Jits_Phase_5,0,5,63,98,1795098992
116,18,17,Jits_Phase_5,1,1,48,30,1795135524
116,18,17,Jits_Phase_5,2,5,56,103,1795139148
116,18,17,Jits_Phase_5,3,5,80,127,1795159384
116,18,17,Jits_Phase_5,0,5,63,98,1795598672
116,18,17,Jits_Phase_5,1,1,48,18,1795614444
116,18,17,Jits_Phase_5,2,5,56,103,1795659200
116,18,17,Jits_Phase_5,3,5,80,127,1795662120
116,18,17,Jits_Phase_5,0,5,56,103,1796058856
116,18,17,Jits_Phase_5,1,1,48,18,1796059748
116,18,17,Jits_Phase_5,2,5,80,127,1796079012
116,18,17,Jits_Phase_5,3,5,63,98,1796118948
116,18,17,Jits_Phase_5,0,5,56,103,1796588812
116,18,17,Jits_Phase_5,1,1,48,23,1796597784
116,18,17,Jits_Phase_5,2,5,63,98,1796609340
116,18,17,Jits_Phase_5,3,5,80,127,1796618564
116,18,17,Jits_Phase_5,0,5,80,127,1797058908
116,18,17,Jits_Phase_5,1,5,56,103,1797088728
116,18,17,Jits_Phase_5,2,1,48,23,1797092448
116,18,17,Jits_Phase_5,3,5,63,98,1797128808
116,18,17,Jits_Phase_5,0,5,80,127,1797568784
116,18,17,Jits_Phase_5,1,5,56,103,1797589612
116,18,17,Jits_Phase_5,2,1,48,16,1797595204
116,18,17,Jits_Phase_5,3,5,63,98,1797648796
116,18,17,Jits_Phase_5,0,5,56,103,1798078808
116,18,17,Jits_Phase_5,1,1,48,22,1798089948
116,18,17,Jits_Phase_5,2,5,80,127,1798099408
116,18,17,Jits_Phase_5,3,5,63,98,1798158748
116,18,17,Jits_Phase_5,0,5,80,127,1798559020
116,18,17,Jits_Phase_5,1,5,56,103,1798569292
116,18,17,Jits_Phase_5,2,5,63,98,1798609228
116,18,17,Jits_Phase_5,3,1,48,23,1798617748
116,18,17,Jits_Phase_5,0,5,63,98,1799058780
116,18,17,Jits_Phase_5,1,1,48,15,1799085716
116,18,17,Jits_Phase_5,2,5,56,103,1799098712
116,18,17,Jits_Phase_5,3,5,80,127,1799101776
116,18,17,Jits_Phase_5,0,1,48,23,1799551932
116,18,17,Jits_Phase_5,1,5,63,98,1799579036
116,18,17,Jits_Phase_5,2,5,80,127,1799618900
116,18,17,Jits_Phase_5,3,5,56,103,1799648780
116,18,17,Jits_Phase_5,0,1,48,24,1800056948
116,18,17,Jits_Phase_5,1,5,56,103,1800068752
116,18,17,Jits_Phase_5,2,5,63,98,1800078800
116,18,17,Jits_Phase_5,3,5,80,127,1800109668
116,18,17,Jits_Phase_5,0,1,48,20,1800538704
116,18,17,Jits_Phase_5,1,5,80,127,1800559032
116,18,17,Jits_Phase_5,2,5,63,98,1800630064
116,18,17,Jits_Phase_5,3,5,56,103,1800638916
116,18,17,Jits_Phase_5,0,5,63,98,1801058568
116,18,17,Jits_Phase_5,1,1,48,21,1801099844
116,18,17,Jits_Phase_5,2,5,56,103,1801129460
116,18,17,Jits_Phase_5,3,5,80,127,1801138760
116,18,17,Jits_Phase_5,0,5,63,98,1801538912
116,18,17,Jits_Phase_5,1,5,56,103,1801559444
116,18,17,Jits_Phase_5,2,1,48,21,1801589088
116,18,17,Jits_Phase_5,3,5,80,127,1801599300
116,18,17,Jits_Phase_5,0,5,56,103,1802019184
116,18,17,Jits_Phase_5,1,5,63,98,1802029828
116,18,17,Jits_Phase_5,2,1,48,22,1802041492
116,18,17,Jits_Phase_5,3,5,80,127,1802109240
116,18,17,Jits_Phase_5,0,5,63,98,1802508688
116,18,17,Jits_Phase_5,1,1,48,18,1802534872
116,18,17,Jits_Phase_5,2,5,56,103,1802539624
116,18,17,Jits_Phase_5,3,5,80,127,1802579412
116,18,17,Jits_Phase_5,0,5,56,103,1803009476
116,18,17,Jits_Phase_5,1,1,48,21,1803029084
116,18,17,Jits_Phase_5,2,5,63,98,1803049260
116,18,17,Jits_Phase_5,3,5,80,127,1803089196
116,18,17,Jits_Phase_5,0,1,48,22,1803510332
116,18,17,Jits_Phase_5,1,5,80,127,1803519420
116,18,17,Jits_Phase_5,2,5,56,103,1803599140
116,18,17,Jits_Phase_5,3,5,63,98,1803608572
116,18,17,Jits_Phase_5,0,1,48,19,1804054656
116,18,17,Jits_Phase_5,1,5,56,103,1804058956
116,18,17,Jits_Phase_5,2,5,63,98,1804062020
116,18,17,Jits_Phase_5,3,5,80,127,1804069448
116,18,17,Jits_Phase_5,0,1,48,21,1804557552
116,18,17,Jits_Phase_5,1,5,56,103,1804579072
116,18,17,Jits_Phase_5,2,5,63,98,1804598708
116,18,17,Jits_Phase_5,3,5,80,127,1804608756
116,18,17,Jits_Phase_5,0,1,48,21,1805022904
116,18,17,Jits_Phase_5,1,5,63,98,1805038968
116,18,17,Jits_Phase_5,2,5,80,127,1805049164
116,18,17,Jits_Phase_5,3,5,56,103,1805068800
116,18,17,Jits_Phase_5,0,5,63,98,1805538572
116,18,17,Jits_Phase_5,1,1,48,17,1805580800
116,18,17,Jits_Phase_5,2,5,56,103,1805618656
116,18,17,Jits_Phase_5,3,5,80,127,1805621724
116,18,17,Jits_Phase_5,0,5,63,98,1806039656
116,18,17,Jits_Phase_5,1,5,56,103,1806058772
116,18,17,Jits_Phase_5,2,1,48,23,1806086776
116,18,17,Jits_Phase_5,3,5,80,127,1806088588
116,18,17,Jits_Phase_5,0,1,48,23,1806522520
116,18,17,Jits_Phase_5,1,5,56,103,1806539104
116,18,17,Jits_Phase_5,2,5,63,98,1806558516
116,18,17,Jits_Phase_5,3,5,80,127,1806568784
116,18,17,Jits_Phase_5,0,1,48,22,1807028264
116,18,17,Jits_Phase_5,1,5,56,103,1807068444
116,18,17,Jits_Phase_5,2,5,63,98,1807099536
116,18,17,Jits_Phase_5,3,5,80,127,1807102680
116,18,17,Jits_Phase_5,0,5,56,103,1807519044
116,18,17,Jits_Phase_5,1,1,48,20,1807549512
116,18,17,Jits_Phase_5,2,5,63,98,1807559124
116,18,17,Jits_Phase_5,3,5,80,127,1807618540
116,18,17,Jits_Phase_5,0,1,48,20,1808013600
116,18,17,Jits_Phase_5,1,5,56,103,1808039476
116,18,17,Jits_Phase_5,2,5,63,98,1808048476
116,18,17,Jits_Phase_5,3,5,80,127,1808108852
116,18,17,Jits_Phase_5,0,5,56,103,1808538860
116,18,17,Jits_Phase_5,1,1,48,19,1808544896
116,18,17,Jits_Phase_5,2,5,80,127,1808558416
116,18,17,Jits_Phase_5,3,5,63,98,1808589284
116,18,17,Jits_Phase_5,0,5,80,127,1809038772
116,18,17,Jits_Phase_5,1,1,48,21,1809041520
116,18,17,Jits_Phase_5,2,5,56,103,1809048888
116,18,17,Jits_Phase_5,3,5,63,98,1809069568
116,18,17,Jits_Phase_5,0,5,63,98,1809529068
116,18,17,Jits_Phase_5,1,1,48,19,1809536912
116,18,17,Jits_Phase_5,2,5,80,127,1809608932
116,18,17,Jits_Phase_5,3,5,56,103,1809619720
116,18,17,Jits_Phase_5,0,1,48,22,1810060556
116,18,17,Jits_Phase_5,1,5,80,127,1810119092
116,18,17,Jits_Phase_5,2,5,56,103,1810138576
116,18,17,Jits_Phase_5,3,5,63,98,1810141644
116,18,17,Jits_Phase_5,0,1,48,20,1810605468
116,18,17,Jits_Phase_5,1,5,63,98,1810608496
116,18,17,Jits_Phase_5,2,5,80,127,1810611860
116,18,17,Jits_Phase_5,3,5,56,103,1810669032
116,18,17,Jits_Phase_5,0,5,56,103,1811088768
116,18,17,Jits_Phase_5,1,5,80,127,1811099112
116,18,17,Jits_Phase_5,2,1,48,19,1811117524
116,18,17,Jits_Phase_5,3,5,63,98,1811138968
116,18,17,Jits_Phase_5,0,5,56,103,1811569024
116,18,17,Jits_Phase_5,1,1,48,21,1811603108
116,18,17,Jits_Phase_5,2,5,63,98,1811629656
116,18,17,Jits_Phase_5,3,5,80,127,1811638508
116,18,17,Jits_Phase_5,0,1,48,18,1812076460
116,18,17,Jits_Phase_5,1,5,63,98,1812078972
116,18,17,Jits_Phase_5,2,5,80,127,1812118936
116,18,17,Jits_Phase_5,3,5,56,103,1812158872
116,18,17,Jits_Phase_5,0,5,56,103,1812578580
116,18,17,Jits_Phase_5,1,1,48,22,1812600724
116,18,17,Jits_Phase_5,2,5,63,98,1812658540
116,18,17,Jits_Phase_5,3,5,80,127,1812661904
116,18,17,Jits_Phase_5,0,1,48,21,1813122824
116,18,17,Jits_Phase_5,1,5,80,127,1813138812
116,18,17,Jits_Phase_5,2,5,56,103,1813168632
116,18,17,Jits_Phase_5,3,5,63,98,1813171552
116,18,17,Jits_Phase_5,0,5,56,103,1813598528
116,18,17,Jits_Phase_5,1,5,80,127,1813619136
116,18,17,Jits_Phase_5,2,1,48,21,1813633960
116,18,17,Jits_Phase_5,3,5,63,98,1813658868
116,18,17,Jits_Phase_5,0,5,80,127,1814078960
116,18,17,Jits_Phase_5,1,5,63,98,1814099272
116,18,17,Jits_Phase_5,2,1,48,27,1814137160
116,18,17,Jits_Phase_5,3,5,56,103,1814158628
116,18,17,Jits_Phase_5,0,5,63,98,1814588840
116,18,17,Jits_Phase_5,1,1,48,22,1814596220
116,18,17,Jits_Phase_5,2,5,56,103,1814598880
116,18,17,Jits_Phase_5,3,5,80,127,1814649228
116,18,17,Jits_Phase_5,0,5,56,103,1815079372
116,18,17,Jits_Phase_5,1,1,48,21,1815092752
116,18,17,Jits_Phase_5,2,5,63,98,1815098628
116,18,17,Jits_Phase_5,3,5,80,127,1815108972
116,18,17,Jits_Phase_5,0,5,56,103,1815568716
116,18,17,Jits_Phase_5,1,1,48,19,1815571484
116,18,17,Jits_Phase_5,2,5,63,98,1815573044
116,18,17,Jits_Phase_5,3,5,80,127,1815589316
116,18,17,Jits_Phase_5,0,1,48,17,1816018388
116,18,17,Jits_Phase_5,1,5,63,98,1816109364
116,18,17,Jits_Phase_5,2,5,56,103,1816139248
116,18,17,Jits_Phase_5,3,5,80,127,1816168700
116,18,17,Jits_Phase_5,0,5,80,127,1816569488
116,18,17,Jits_Phase_5,1,1,48,23,1816587304
116,18,17,Jits_Phase_5,2,5,56,103,1816659388
116,18,17,Jits_Phase_5,3,5,63,98,1816662380
116,18,17,Jits_Phase_5,0,5,56,103,1817068872
116,18,17,Jits_Phase_5,1,5,80,127,1817071940
116,18,17,Jits_Phase_5,2,1,48,21,1817138744
116,18,17,Jits_Phase_5,3,5,63,98,1817148804
116,18,17,Jits_Phase_5,0,5,80,127,1817568628
116,18,17,Jits_Phase_5,1,1,48,26,1817599096
116,18,17,Jits_Phase_5,2,5,63,98,1817629308
116,18,17,Jits_Phase_5,3,5,56,103,1817658608
116,18,17,Jits_Phase_5,0,5,63,98,1818069512
116,18,17,Jits_Phase_5,1,5,80,127,1818078664
116,18,17,Jits_Phase_5,2,1,48,20,1818107188
116,18,17,Jits_Phase_5,3,5,56,103,1818149304
116,18,17,Jits_Phase_5,0,1,48,20,1818592004
116,18,17,Jits_Phase_5,1,5,56,103,1818628444
116,18,17,Jits_Phase_5,2,5,80,127,1818659316
116,18,17,Jits_Phase_5,3,5,63,98,1818709428
116,18,17,Jits_Phase_5,0,1,48,28,1819113320
116,18,17,Jits_Phase_5,1,5,63,98,1819219276
116,18,17,Jits_Phase_5,2,5,56,103,1819249100
116,18,17,Jits_Phase_5,3,5,80,127,1819252240
116,18,17,Jits_Phase_5,0,1,48,17,1819712264
116,18,17,Jits_Phase_5,1,5,63,98,1819719108
116,18,17,Jits_Phase_5,2,5,80,127,1819738448
116,18,17,Jits_Phase_5,3,5,56,103,1819748644
116,18,17,Jits_Phase_5,0,5,56,103,1820228908
116,18,17,Jits_Phase_5,1,5,63,98,1820231900
116,18,17,Jits_Phase_5,2,1,48,20,1820235916
116,18,17,Jits_Phase_5,3,5,80,127,1820248388
116,18,17,Jits_Phase_5,0,5,56,103,1820678400
116,18,17,Jits_Phase_5,1,5,63,98,1820688820
116,18,17,Jits_Phase_5,2,1,48,19,1820694856
116,18,17,Jits_Phase_5,3,5,80,127,1820718336
116,18,17,Jits_Phase_5,0,1,48,23,1821129804
116,18,17,Jits_Phase_5,1,5,63,98,1821198680
116,18,17,Jits_Phase_5,2,5,80,127,1821219212
116,18,17,Jits_Phase_5,3,5,56,103,1821259280
116,18,17,Jits_Phase_5,0,1,48,19,1821711284
116,18,17,Jits_Phase_5,1,5,56,103,1821729144
116,18,17,Jits_Phase_5,2,5,63,98,1821769304
116,18,17,Jits_Phase_5,3,5,80,127,1821772672
116,18,17,Jits_Phase_5,0,5,80,127,1822168368
116,18,17,Jits_Phase_5,1,5,56,103,1822209276
116,18,17,Jits_Phase_5,2,1,48,16,1822247908
116,18,17,Jits_Phase_5,3,5,63,98,1822258500
116,18,17,Jits_Phase_5,0,5,56,103,1822728440
116,18,17,Jits_Phase_5,1,1,48,23,1822734176
116,18,17,Jits_Phase_5,2,5,80,127,1822738928
116,18,17,Jits_Phase_5,3,5,63,98,1822768452
116,18,17,Jits_Phase_5,0,5,56,103,1823179060
116,18,17,Jits_Phase_5,1,1,48,22,1823212364
116,18,17,Jits_Phase_5,2,5,80,127,1823219212
116,18,17,Jits_Phase_5,3,5,63,98,1823269412
116,18,17,Jits_Phase_5,0,5,56,103,1823678824
116,18,17,Jits_Phase_5,1,1,48,19,1823713332
116,18,17,Jits_Phase_5,2,5,80,127,1823718756
116,18,17,Jits_Phase_5,3,5,63,98,1823769028
116,18,17,Jits_Phase_5,0,5,80,127,1824169224
116,18,17,Jits_Phase_5,1,1,48,22,1824206200
116,18,17,Jits_Phase_5,2,5,63,98,1824249308
116,18,17,Jits_Phase_5,3,5,56,103,1824258456
116,18,17,Jits_Phase_5,0,1,48,21,1824695544
116,18,17,Jits_Phase_5,1,5,80,127,1824719252
116,18,17,Jits_Phase_5,2,5,56,103,1824728400
116,18,17,Jits_Phase_5,3,5,63,98,1824748932
116,18,17,Jits_Phase_5,0,5,63,98,1825189416
116,18,17,Jits_Phase_5,1,1,48,19,1825200852
116,18,17,Jits_Phase_5,2,5,56,103,1825258708
116,18,17,Jits_Phase_5,3,5,80,127,1825261856
116,18,17,Jits_Phase_5,0,5,80,127,1825678668
116,18,17,Jits_Phase_5,1,1,48,21,1825689736
116,18,17,Jits_Phase_5,2,5,63,98,1825728792
116,18,17,Jits_Phase_5,3,5,56,103,1825768876
116,18,17,Jits_Phase_5,0,1,48,22,1826207696
116,18,17,Jits_Phase_5,1,5,63,98,1826219336
116,18,17,Jits_Phase_5,2,5,56,103,1826259272
116,18,17,Jits_Phase_5,3,5,80,127,1826268424
116,18,17,Jits_Phase_5,0,1,48,21,1826700104
116,18,17,Jits_Phase_5,1,5,63,98,1826708824
116,18,17,Jits_Phase_5,2,5,56,103,1826729284
116,18,17,Jits_Phase_5,3,5,80,127,1826748768
116,18,17,Jits_Phase_5,0,1,48,20,1827169000
116,18,17,Jits_Phase_5,1,5,80,127,1827170188
116,18,17,Jits_Phase_5,2,5,56,103,1827178964
116,18,17,Jits_Phase_5,3,5,63,98,1827199424
116,18,17,Jits_Phase_5,0,1,48,19,1827652304
116,18,17,Jits_Phase_5,1,5,63,98,1827699232
116,18,17,Jits_Phase_5,2,5,56,103,1827739196
116,18,17,Jits_Phase_5,3,5,80,127,1827768556
116,18,17,Jits_Phase_5,0,5,56,103,1828158764
116,18,17,Jits_Phase_5,1,5,63,98,1828188512
116,18,17,Jits_Phase_5,2,1,48,21,1828198528
116,18,17,Jits_Phase_5,3,5,80,127,1828219300
116,18,17,Jits_Phase_5,0,5,80,127,1828578748
116,18,17,Jits_Phase_5,1,5,56,103,1828649396
116,18,17,Jits_Phase_5,2,5,63,98,1828652392
116,18,17,Jits_Phase_5,3,1,48,20,1828672292
116,18,17,Jits_Phase_5,0,5,56,103,1829088616
116,18,17,Jits_Phase_5,1,1,48,17,1829119904
116,18,17,Jits_Phase_5,2,5,63,98,1829138884
116,18,17,Jits_Phase_5,3,5,80,127,1829168484
116,18,17,Jits_Phase_5,0,5,63,98,1829569048
116,18,17,Jits_Phase_5,1,5,80,127,1829572264
116,18,17,Jits_Phase_5,2,1,48,21,1829610828
116,18,17,Jits_Phase_5,3,5,56,103,1829629280
116,18,17,Jits_Phase_5,0,1,48,19,1830065824
116,18,17,Jits_Phase_5,1,5,56,103,1830099420
116,18,17,Jits_Phase_5,2,5,80,127,1830108572
116,18,17,Jits_Phase_5,3,5,63,98,1830158696
116,18,17,Jits_Phase_5,0,1,48,16,1830562432
116,18,17,Jits_Phase_5,1,5,63,98,1830569280
116,18,17,Jits_Phase_5,2,5,56,103,1830578504
116,18,17,Jits_Phase_5,3,5,80,127,1830609224
116,18,17,Jits_Phase_5,0,1,48,21,1831044344
116,18,17,Jits_Phase_5,1,5,63,98,1831098768
116,18,17,Jits_Phase_5,2,5,80,127,1831102280
116,18,17,Jits_Phase_5,3,5,56,103,1831128516
116,18,17,Jits_Phase_5,0,1,48,16,1831553744
116,18,17,Jits_Phase_5,1,5,63,98,1831619036
116,18,17,Jits_Phase_5,2,5,56,103,1831639264
116,18,17,Jits_Phase_5,3,5,80,127,1831642408
116,18,17,Jits_Phase_5,0,1,48,24,1832077728
116,18,17,Jits_Phase_5,1,5,63,98,1832079372
116,18,17,Jits_Phase_5,2,5,56,103,1832149276
116,18,17,Jits_Phase_5,3,5,80,127,1832169940
116,18,17,Jits_Phase_5,0,5,56,103,1832569140
116,18,17,Jits_Phase_5,1,5,63,98,1832578388
116,18,17,Jits_Phase_5,2,1,48,20,1832594088
116,18,17,Jits_Phase_5,3,5,80,127,1832668512
116,18,17,Jits_Phase_5,0,1,48,21,1833066164
116,18,17,Jits_Phase_5,1,5,56,103,1833089300
116,18,17,Jits_Phase_5,2,5,80,127,1833129384
116,18,17,Jits_Phase_5,3,5,63,98,1833138536
116,18,17,Jits_Phase_5,0,1,48,20,1833571164
116,18,17,Jits_Phase_5,1,5,56,103,1833608528
116,18,17,Jits_Phase_5,2,5,63,98,1833639248
116,18,17,Jits_Phase_5,3,5,80,127,1833669132
116,18,17,Jits_Phase_5,0,5,80,127,1834069304
116,18,17,Jits_Phase_5,1,1,48,19,1834108112
116,18,17,Jits_Phase_5,2,5,63,98,1834109460
116,18,17,Jits_Phase_5,3,5,56,103,1834128896
116,18,17,Jits_Phase_5,0,1,48,16,1834594652
116,18,17,Jits_Phase_5,1,5,56,103,1834609144
116,18,17,Jits_Phase_5,2,5,80,127,1834628356
116,18,17,Jits_Phase_5,3,5,63,98,1834649112
116,18,17,Jits_Phase_5,0,5,63,98,1835079236
116,18,17,Jits_Phase_5,1,5,56,103,1835089284
116,18,17,Jits_Phase_5,2,1,48,20,1835096144
116,18,17,Jits_Phase_5,3,5,80,127,1835148568
116,18,17,Jits_Phase_5,0,5,56,103,1835578760
116,18,17,Jits_Phase_5,1,1,48,16,1835588852
116,18,17,Jits_Phase_5,2,5,63,98,1835649356
116,18,17,Jits_Phase_5,3,5,80,127,1835668988
116,18,17,Jits_Phase_5,0,5,56,103,1836078452
116,18,17,Jits_Phase_5,1,1,48,19,1836087348
116,18,17,Jits_Phase_5,2,5,63,98,1836109240
116,18,17,Jits_Phase_5,3,5,80,127,1836149176
116,18,17,Jits_Phase_5,0,5,63,98,1836568996
116,18,17,Jits_Phase_5,1,1,48,21,1836578412
116,18,17,Jits_Phase_5,2,5,56,103,1836619040
116,18,17,Jits_Phase_5,3,5,80,127,1836629236
116,18,17,Jits_Phase_5,0,1,48,21,1837075524
116,18,17,Jits_Phase_5,1,5,56,103,1837108520
116,18,17,Jits_Phase_5,2,5,63,98,1837158872
116,18,17,Jits_Phase_5,3,5,80,127,1837169140
116,18,17,Jits_Phase_5,0,5,56,103,1837578688
116,18,17,Jits_Phase_5,1,5,63,98,1837589108
116,18,17,Jits_Phase_5,2,1,48,18,1837620552
116,18,17,Jits_Phase_5,3,5,80,127,1837668596
116,18,17,Jits_Phase_5,0,9999,9999,9999,1753356404
116,18,17,Jits_Phase_5,1,9999,9999,9999,1753856108
116,18,17,Jits_Phase_5,2,9999,9999,9999,1754356832
116,18,17,Jits_Phase_5,3,9999,9999,9999,1754856516
116,18,17,Jits_Phase_5,4,9999,9999,9999,1755356272
116,18,17,Jits_Phase_5,5,9999,9999,9999,1755857000
116,18,17,Jits_Phase_5,6,9999,9999,9999,1756356672
116,18,17,Jits_Phase_5,7,9999,9999,9999,1756856436
116,18,17,Jits_Phase_5,8,9999,9999,9999,1757356100
116,18,17,Jits_Phase_5,9,9999,9999,9999,1757856836
116,18,17,Jits_Phase_5,10,9999,9999,9999,1758356600
116,18,17,Jits_Phase_5,11,9999,9999,9999,1758856292
116,18,17,Jits_Phase_5,12,9999,9999,9999,1759356984
116,18,17,Jits_Phase_5,13,9999,9999,9999,1759856724
116,18,17,Jits_Phase_5,14,9999,9999,9999,1760356472
116,18,17,Jits_Phase_5,15,9999,9999,9999,1760856160
116,18,17,Jits_Phase_5,16,9999,9999,9999,1761356876
116,18,17,Jits_Phase_5,17,9999,9999,9999,1761856624
116,18,17,Jits_Phase_5,18,9999,9999,9999,1762356312
116,18,17,Jits_Phase_5,19,9999,9999,9999,1762857048
116,18,17,Jits_Phase_5,20,9999,9999,9999,1763356740
116,18,17,Jits_Phase_5,21,9999,9999,9999,1763856504
116,18,17,Jits_Phase_5,22,9999,9999,9999,1764356188
116,18,17,Jits_Phase_5,23,9999,9999,9999,1764856924
116,18,17,Jits_Phase_5,24,9999,9999,9999,1765356612
116,18,17,Jits_Phase_5,25,9999,9999,9999,1765856372
116,18,17,Jits_Phase_5,26,9999,9999,9999,1766357092
116,18,17,Jits_Phase_5,27,9999,9999,9999,1766856828
116,18,17,Jits_Phase_5,28,9999,9999,9999,1767356520
116,18,17,Jits_Phase_5,29,9999,9999,9999,1767856192
116,18,17,Jits_Phase_5,30,9999,9999,9999,1768346740
116,18,17,Jits_Phase_5,31,9999,9999,9999,1768846432
116,18,17,Jits_Phase_5,32,9999,9999,9999,1769346140
116,18,17,Jits_Phase_5,33,9999,9999,9999,1769846876
116,18,17,Jits_Phase_5,34,9999,9999,9999,1770346564
116,18,17,Jits_Phase_5,35,9999,9999,9999,1770846328
116,18,17,Jits_Phase_5,36,9999,9999,9999,1771347036
116,18,17,Jits_Phase_5,37,9999,9999,9999,1771846784
116,18,17,Jits_Phase_5,38,9999,9999,9999,1772346476
116,18,17,Jits_Phase_5,39,9999,9999,9999,1772846152
116,18,17,Jits_Phase_5,40,9999,9999,9999,1773346876
116,18,17,Jits_Phase_5,41,9999,9999,9999,1773846636
116,18,17,Jits_Phase_5,42,9999,9999,9999,1774346324
116,18,17,Jits_Phase_5,43,9999,9999,9999,1774847040
116,18,17,Jits_Phase_5,44,9999,9999,9999,1775346792
116,18,17,Jits_Phase_5,45,9999,9999,9999,1775846480
116,18,17,Jits_Phase_5,46,9999,9999,9999,1776346228
116,18,17,Jits_Phase_5,47,9999,9999,9999,1776846956
116,18,17,Jits_Phase_5,48,9999,9999,9999,1777356896
116,18,17,Jits_Phase_5,49,9999,9999,9999,1777856580
116,18,17,Jits_Phase_5,50,9999,9999,9999,1778356320
116,18,17,Jits_Phase_5,51,9999,9999,9999,1778857056
116,18,17,Jits_Phase_5,52,9999,9999,9999,1779356736
116,18,17,Jits_Phase_5,53,9999,9999,9999,1779856504
116,18,17,Jits_Phase_5,54,9999,9999,9999,1780356152
116,18,17,Jits_Phase_5,55,9999,9999,9999,1780856940
116,18,17,Jits_Phase_5,56,9999,9999,9999,1781356624
116,18,17,Jits_Phase_5,57,9999,9999,9999,1781856380
116,18,17,Jits_Phase_5,58,9999,9999,9999,1782357104
116,18,17,Jits_Phase_5,59,9999,9999,9999,1782856768
116,18,17,Jits_Phase_5,60,9999,9999,9999,1783356536
116,18,17,Jits_Phase_5,61,9999,9999,9999,1783856204
116,18,17,Jits_Phase_5,62,9999,9999,9999,1784356936
116,18,17,Jits_Phase_5,63,9999,9999,9999,1784856700
116,18,17,Jits_Phase_5,64,9999,9999,9999,1785376824
116,18,17,Jits_Phase_5,65,9999,9999,9999,1785876588
116,18,17,Jits_Phase_5,66,9999,9999,9999,1786376280
116,18,17,Jits_Phase_5,67,9999,9999,9999,1786876984
116,18,17,Jits_Phase_5,68,9999,9999,9999,1787376752
116,18,17,Jits_Phase_5,69,9999,9999,9999,1787876448
116,18,17,Jits_Phase_5,70,9999,9999,9999,1788376184
116,18,17,Jits_Phase_5,71,9999,9999,9999,1788876920
116,18,17,Jits_Phase_5,72,9999,9999,9999,1789376608
116,18,17,Jits_Phase_5,73,9999,9999,9999,1789876284
116,18,17,Jits_Phase_5,74,9999,9999,9999,1790377024
116,18,17,Jits_Phase_5,75,9999,9999,9999,1790876772
116,18,17,Jits_Phase_5,76,9999,9999,9999,1791376464
116,18,17,Jits_Phase_5,77,9999,9999,9999,1791876220
116,18,17,Jits_Phase_5,78,9999,9999,9999,1792376932
116,18,17,Jits_Phase_5,79,9999,9999,9999,1792876616
116,18,17,Jits_Phase_5,80,9999,9999,9999,1793376360
116,18,17,Jits_Phase_5,81,9999,9999,9999,1793856632
116,18,17,Jits_Phase_5,82,9999,9999,9999,1794356320
116,18,17,Jits_Phase_5,83,9999,9999,9999,1794857056
116,18,17,Jits_Phase_5,84,9999,9999,9999,1795356748
116,18,17,Jits_Phase_5,85,9999,9999,9999,1795856492
116,18,17,Jits_Phase_5,86,9999,9999,9999,1796356164
116,18,17,Jits_Phase_5,87,9999,9999,9999,1796856900
116,18,17,Jits_Phase_5,88,9999,9999,9999,1797356660
116,18,17,Jits_Phase_5,89,9999,9999,9999,1797856348
116,18,17,Jits_Phase_5,90,9999,9999,9999,1798357088
116,18,17,Jits_Phase_5,91,9999,9999,9999,1798856772
116,18,17,Jits_Phase_5,92,9999,9999,9999,1799356524
116,18,17,Jits_Phase_5,93,9999,9999,9999,1799856200
116,18,17,Jits_Phase_5,94,9999,9999,9999,1800356920
116,18,17,Jits_Phase_5,95,9999,9999,9999,1800856672
116,18,17,Jits_Phase_5,96,9999,9999,9999,1801356348
116,18,17,Jits_Phase_5,97,9999,9999,9999,1801806924
116,18,17,Jits_Phase_5,98,9999,9999,9999,1802306680
116,18,17,Jits_Phase_5,99,9999,9999,9999,1802806368
116,18,17,Jits_Phase_5,100,9999,9999,9999,1803307084
116,18,17,Jits_Phase_5,101,9999,9999,9999,1803817036
116,18,17,Jits_Phase_5,102,9999,9999,9999,1804316780
116,18,17,Jits_Phase_5,103,9999,9999,9999,1804816456
116,18,17,Jits_Phase_5,104,9999,9999,9999,1805316204
116,18,17,Jits_Phase_5,105,9999,9999,9999,1805816916
116,18,17,Jits_Phase_5,106,9999,9999,9999,1806316664
116,18,17,Jits_Phase_5,107,9999,9999,9999,1806816336
116,18,17,Jits_Phase_5,108,9999,9999,9999,1807317052
116,18,17,Jits_Phase_5,109,9999,9999,9999,1807816800
116,18,17,Jits_Phase_5,110,9999,9999,9999,1808316492
116,18,17,Jits_Phase_5,111,9999,9999,9999,1808816240
116,18,17,Jits_Phase_5,112,9999,9999,9999,1809316972
116,18,17,Jits_Phase_5,113,9999,9999,9999,1809816640
116,18,17,Jits_Phase_5,114,9999,9999,9999,1810366580
116,18,17,Jits_Phase_5,115,9999,9999,9999,1810866248
116,18,17,Jits_Phase_5,116,9999,9999,9999,1811366968
116,18,17,Jits_Phase_5,117,9999,9999,9999,1811866732
116,18,17,Jits_Phase_5,118,9999,9999,9999,1812366424
116,18,17,Jits_Phase_5,119,9999,9999,9999,1812866164
116,18,17,Jits_Phase_5,120,9999,9999,9999,1813366872
116,18,17,Jits_Phase_5,121,9999,9999,9999,1813866616
116,18,17,Jits_Phase_5,122,9999,9999,9999,1814366304
116,18,17,Jits_Phase_5,123,9999,9999,9999,1814867040
116,18,17,Jits_Phase_5,124,9999,9999,9999,1815366712
116,18,17,Jits_Phase_5,125,9999,9999,9999,1815866460
116,18,17,Jits_Phase_5,126,9999,9999,9999,1816366152
116,18,17,Jits_Phase_5,127,9999,9999,9999,1816866940
116,18,17,Jits_Phase_5,128,9999,9999,9999,1817366616
116,18,17,Jits_Phase_5,129,9999,9999,9999,1817866308
116,18,17,Jits_Phase_5,130,9999,9999,9999,1818367044
116,18,17,Jits_Phase_5,131,9999,9999,9999,1818966136
116,18,17,Jits_Phase_5,132,9999,9999,9999,1819466852
116,18,17,Jits_Phase_5,133,9999,9999,9999,1819966532
116,18,17,Jits_Phase_5,134,9999,9999,9999,1820466276
116,18,17,Jits_Phase_5,135,9999,9999,9999,1820967012
116,18,17,Jits_Phase_5,136,9999,9999,9999,1821466700
116,18,17,Jits_Phase_5,137,9999,9999,9999,1821966448
116,18,17,Jits_Phase_5,138,9999,9999,9999,1822466124
116,18,17,Jits_Phase_5,139,9999,9999,9999,1822966864
116,18,17,Jits_Phase_5,140,9999,9999,9999,1823466552
116,18,17,Jits_Phase_5,141,9999,9999,9999,1823966316
116,18,17,Jits_Phase_5,142,9999,9999,9999,1824467056
116,18,17,Jits_Phase_5,143,9999,9999,9999,1824966748
116,18,17,Jits_Phase_5,144,9999,9999,9999,1825466488
116,18,17,Jits_Phase_5,145,9999,9999,9999,1825966164
116,18,17,Jits_Phase_5,146,9999,9999,9999,1826466908
116,18,17,Jits_Phase_5,147,9999,9999,9999,1826966656
116,18,17,Jits_Phase_5,148,9999,9999,9999,1827466332
116,18,17,Jits_Phase_5,149,9999,9999,9999,1827967032
116,18,17,Jits_Phase_5,150,9999,9999,9999,1828366400
116,18,17,Jits_Phase_5,151,9999,9999,9999,1828866156
116,18,17,Jits_Phase_5,152,9999,9999,9999,1829366892
116,18,17,Jits_Phase_5,153,9999,9999,9999,1829866572
116,18,17,Jits_Phase_5,154,9999,9999,9999,1830366320
116,18,17,Jits_Phase_5,155,9999,9999,9999,1830867040
116,18,17,Jits_Phase_5,156,9999,9999,9999,1831366776
116,18,17,Jits_Phase_5,157,9999,9999,9999,1831866448
116,18,17,Jits_Phase_5,158,9999,9999,9999,1832366200
116,18,17,Jits_Phase_5,159,9999,9999,9999,1832866920
116,18,17,Jits_Phase_5,160,9999,9999,9999,1833366608
116,18,17,Jits_Phase_5,161,9999,9999,9999,1833866360
116,18,17,Jits_Phase_5,162,9999,9999,9999,1834367060
116,18,17,Jits_Phase_5,163,9999,9999,9999,1834866752
116,18,17,Jits_Phase_5,164,9999,9999,9999,1835366504
116,18,17,Jits_Phase_5,165,9999,9999,9999,1835866180
116,18,17,Jits_Phase_5,166,9999,9999,9999,1836366916
116,18,17,Jits_Phase_5,167,9999,9999,9999,1836866676
116,18,17,Jits_Phase_5,168,9999,9999,9999,1837366356
116,18,17,Jits_Phase_5,169,9999,9999,9999,1837867080
116,19,15,Jits_Phase_8,0,5,56,103,1847360820
116,19,15,Jits_Phase_8,1,5,63,98,1847364068
116,19,15,Jits_Phase_8,2,5,80,127,1847367188
116,19,15,Jits_Phase_8,0,5,56,103,1848160536
116,19,15,Jits_Phase_8,1,5,63,98,1848164080
116,19,15,Jits_Phase_8,2,5,80,127,1848167200
116,19,15,Jits_Phase_8,0,1,48,41,1848893244
116,19,15,Jits_Phase_8,1,5,80,127,1848901068
116,19,15,Jits_Phase_8,2,5,63,98,1848990988
116,19,15,Jits_Phase_8,3,5,56,103,1849001184
116,19,15,Jits_Phase_8,0,1,48,32,1849681248
116,19,15,Jits_Phase_8,1,5,56,103,1849721132
116,19,15,Jits_Phase_8,2,5,63,98,1849730456
116,19,15,Jits_Phase_8,3,5,80,127,1849820644
116,19,15,Jits_Phase_8,0,1,48,27,1850421588
116,19,15,Jits_Phase_8,1,5,63,98,1850491216
116,19,15,Jits_Phase_8,2,5,80,127,1850520900
116,19,15,Jits_Phase_8,3,5,56,103,1850550872
116,19,15,Jits_Phase_8,0,1,48,27,1851215708
116,19,15,Jits_Phase_8,1,5,56,103,1851291140
116,19,15,Jits_Phase_8,2,5,80,127,1851391448
116,19,15,Jits_Phase_8,3,5,63,98,1851440452
116,19,15,Jits_Phase_8,0,1,48,25,1852081512
116,19,15,Jits_Phase_8,1,5,56,103,1852090752
116,19,15,Jits_Phase_8,2,5,80,127,1852140880
116,19,15,Jits_Phase_8,3,5,63,98,1852180876
116,19,15,Jits_Phase_8,0,1,48,20,1852846272
116,19,15,Jits_Phase_8,1,5,80,127,1852921224
116,19,15,Jits_Phase_8,2,5,63,98,1852950808
116,19,15,Jits_Phase_8,3,5,56,103,1853020488
116,19,15,Jits_Phase_8,0,1,48,21,1853673828
116,19,15,Jits_Phase_8,1,5,63,98,1853750800
116,19,15,Jits_Phase_8,2,5,56,103,1853781360
116,19,15,Jits_Phase_8,3,5,80,127,1853840876
116,19,15,Jits_Phase_8,0,5,56,103,1854490928
116,19,15,Jits_Phase_8,1,5,80,127,1854493996
116,19,15,Jits_Phase_8,2,1,48,20,1854516064
116,19,15,Jits_Phase_8,3,5,63,98,1854610952
116,19,15,Jits_Phase_8,0,1,48,16,1855274840
116,19,15,Jits_Phase_8,1,5,56,103,1855371308
116,19,15,Jits_Phase_8,2,5,80,127,1855410872
116,19,15,Jits_Phase_8,3,5,63,98,1855420916
116,19,15,Jits_Phase_8,0,5,56,103,1856130340
116,19,15,Jits_Phase_8,1,5,80,127,1856150872
116,19,15,Jits_Phase_8,2,1,48,21,1856174960
116,19,15,Jits_Phase_8,3,5,63,98,1856230880
116,19,15,Jits_Phase_8,0,5,80,127,1856920892
116,19,15,Jits_Phase_8,1,1,48,25,1857003424
116,19,15,Jits_Phase_8,2,5,56,103,1857021284
116,19,15,Jits_Phase_8,3,5,63,98,1857030656
116,19,15,Jits_Phase_8,0,5,63,98,1857691000
116,19,15,Jits_Phase_8,1,5,80,127,1857751320
116,19,15,Jits_Phase_8,2,5,56,103,1857760764
116,19,15,Jits_Phase_8,3,1,48,21,1857767624
116,19,15,Jits_Phase_8,0,1,48,21,1858462696
116,19,15,Jits_Phase_8,1,5,56,103,1858490972
116,19,15,Jits_Phase_8,2,5,63,98,1858561536
116,19,15,Jits_Phase_8,3,5,80,127,1858564824
116,19,15,Jits_Phase_8,0,1,48,22,1859242736
116,19,15,Jits_Phase_8,1,5,63,98,1859321060
116,19,15,Jits_Phase_8,2,5,56,103,1859371240
116,19,15,Jits_Phase_8,3,5,80,127,1859374384
116,19,15,Jits_Phase_8,0,1,48,24,1860064660
116,19,15,Jits_Phase_8,1,5,56,103,1860080868
116,19,15,Jits_Phase_8,2,5,80,127,1860084012
116,19,15,Jits_Phase_8,3,5,63,98,1860170988
116,19,15,Jits_Phase_8,0,1,48,19,1860866272
116,19,15,Jits_Phase_8,1,5,63,98,1860920920
116,19,15,Jits_Phase_8,2,5,56,103,1861010692
116,19,15,Jits_Phase_8,3,5,80,127,1861040592
116,19,15,Jits_Phase_8,0,1,48,21,1861668204
116,19,15,Jits_Phase_8,1,5,56,103,1861711320
116,19,15,Jits_Phase_8,2,5,63,98,1861810828
116,19,15,Jits_Phase_8,3,5,80,127,1861841400
116,19,15,Jits_Phase_8,0,5,63,98,1862530520
116,19,15,Jits_Phase_8,1,5,56,103,1862540640
116,19,15,Jits_Phase_8,2,1,48,22,1862568548
116,19,15,Jits_Phase_8,3,5,80,127,1862630840
116,19,15,Jits_Phase_8,0,5,63,98,1863350656
116,19,15,Jits_Phase_8,1,1,48,19,1863358112
116,19,15,Jits_Phase_8,2,5,56,103,1863430824
116,19,15,Jits_Phase_8,3,5,80,127,1863433732
116,19,15,Jits_Phase_8,0,5,80,127,1864110704
116,19,15,Jits_Phase_8,1,5,63,98,1864130792
116,19,15,Jits_Phase_8,2,1,48,17,1864157048
116,19,15,Jits_Phase_8,3,5,56,103,1864191320
116,19,15,Jits_Phase_8,0,1,48,16,1864869684
116,19,15,Jits_Phase_8,1,5,56,103,1864951148
116,19,15,Jits_Phase_8,2,5,63,98,1864970696
116,19,15,Jits_Phase_8,3,5,80,127,1864973984
116,19,15,Jits_Phase_8,0,1,48,20,1865663588
116,19,15,Jits_Phase_8,1,5,63,98,1865690736
116,19,15,Jits_Phase_8,2,5,80,127,1865771564
116,19,15,Jits_Phase_8,3,5,56,103,1865780564
116,19,15,Jits_Phase_8,0,1,48,17,1866445432
116,19,15,Jits_Phase_8,1,5,63,98,1866510724
116,19,15,Jits_Phase_8,2,5,56,103,1866531180
116,19,15,Jits_Phase_8,3,5,80,127,1866581292
116,19,15,Jits_Phase_8,0,1,48,21,1867295460
116,19,15,Jits_Phase_8,1,5,80,127,1867310700
116,19,15,Jits_Phase_8,2,5,63,98,1867351612
116,19,15,Jits_Phase_8,3,5,56,103,1867370800
116,19,15,Jits_Phase_8,0,1,48,18,1868112908
116,19,15,Jits_Phase_8,1,5,56,103,1868151364
116,19,15,Jits_Phase_8,2,5,63,98,1868161732
116,19,15,Jits_Phase_8,3,5,80,127,1868180848
116,19,15,Jits_Phase_8,0,1,48,21,1868868672
116,19,15,Jits_Phase_8,1,5,56,103,1868881292
116,19,15,Jits_Phase_8,2,5,63,98,1868971660
116,19,15,Jits_Phase_8,3,5,80,127,1869030856
116,19,15,Jits_Phase_8,0,1,48,19,1869676748
116,19,15,Jits_Phase_8,1,5,80,127,1869710596
116,19,15,Jits_Phase_8,2,5,56,103,1869720944
116,19,15,Jits_Phase_8,3,5,63,98,1869790460
116,19,15,Jits_Phase_8,0,1,48,19,1870481928
116,19,15,Jits_Phase_8,1,5,63,98,1870541220
116,19,15,Jits_Phase_8,2,5,80,127,1870631340
116,19,15,Jits_Phase_8,3,5,56,103,1870640708
116,19,15,Jits_Phase_8,0,5,63,98,1871271460
116,19,15,Jits_Phase_8,1,1,48,17,1871310544
116,19,15,Jits_Phase_8,2,5,80,127,1871320684
116,19,15,Jits_Phase_8,3,5,56,103,1871380848
116,19,15,Jits_Phase_8,0,1,48,15,1872070580
116,19,15,Jits_Phase_8,1,5,56,103,1872090464
116,19,15,Jits_Phase_8,2,5,80,127,1872140740
116,19,15,Jits_Phase_8,3,5,63,98,1872161272
116,19,15,Jits_Phase_8,0,1,48,19,1872820816
116,19,15,Jits_Phase_8,1,5,56,103,1872860400
116,19,15,Jits_Phase_8,2,5,80,127,1872920848
116,19,15,Jits_Phase_8,3,5,63,98,1872990528
116,19,15,Jits_Phase_8,0,5,56,103,1873661656
116,19,15,Jits_Phase_8,1,1,48,14,1873687248
116,19,15,Jits_Phase_8,2,5,80,127,1873690952
116,19,15,Jits_Phase_8,3,5,63,98,1873720776
116,19,15,Jits_Phase_8,0,1,48,21,1874474724
116,19,15,Jits_Phase_8,1,5,56,103,1874500976
116,19,15,Jits_Phase_8,2,5,80,127,1874520616
116,19,15,Jits_Phase_8,3,5,63,98,1874580792
116,19,15,Jits_Phase_8,0,1,48,16,1875296804
116,19,15,Jits_Phase_8,1,5,80,127,1875380552
116,19,15,Jits_Phase_8,2,5,56,103,1875391048
116,19,15,Jits_Phase_8,3,5,63,98,1875401004
116,19,15,Jits_Phase_8,0,5,56,103,1876141436
116,19,15,Jits_Phase_8,1,1,48,16,1876153024
116,19,15,Jits_Phase_8,2,5,80,127,1876181372
116,19,15,Jits_Phase_8,3,5,63,98,1876211044
116,19,15,Jits_Phase_8,0,5,56,103,1876910428
116,19,15,Jits_Phase_8,1,5,63,98,1876941300
116,19,15,Jits_Phase_8,2,5,80,127,1876981088
116,19,15,Jits_Phase_8,3,1,48,17,1877008400
116,19,15,Jits_Phase_8,0,5,80,127,1877660976
116,19,15,Jits_Phase_8,1,1,48,15,1877696532
116,19,15,Jits_Phase_8,2,5,63,98,1877711324
116,19,15,Jits_Phase_8,3,5,56,103,1877730660
116,19,15,Jits_Phase_8,0,1,48,15,1878412152
116,19,15,Jits_Phase_8,1,5,56,103,1878490476
116,19,15,Jits_Phase_8,2,5,80,127,1878561336
116,19,15,Jits_Phase_8,3,5,63,98,1878620456
116,19,15,Jits_Phase_8,0,5,80,127,1879291436
116,19,15,Jits_Phase_8,1,1,48,16,1879295232
116,19,15,Jits_Phase_8,2,5,63,98,1879381344
116,19,15,Jits_Phase_8,3,5,56,103,1879400740
116,19,15,Jits_Phase_8,0,5,63,98,1880110472
116,19,15,Jits_Phase_8,1,5,56,103,1880130784
116,19,15,Jits_Phase_8,2,1,48,16,1880147156
116,19,15,Jits_Phase_8,3,5,80,127,1880170864
116,19,15,Jits_Phase_8,0,5,80,127,1880871492
116,19,15,Jits_Phase_8,1,5,63,98,1880890684
116,19,15,Jits_Phase_8,2,1,48,20,1880939732
116,19,15,Jits_Phase_8,3,5,56,103,1880970568
116,19,15,Jits_Phase_8,0,5,63,98,1881660852
116,19,15,Jits_Phase_8,1,1,48,18,1881734420
116,19,15,Jits_Phase_8,2,5,56,103,1881771456
116,19,15,Jits_Phase_8,3,5,80,127,1881774520
116,19,15,Jits_Phase_8,0,5,63,98,1882481276
116,19,15,Jits_Phase_8,1,5,56,103,1882491624
116,19,15,Jits_Phase_8,2,5,80,127,1882494488
116,19,15,Jits_Phase_8,3,1,48,16,1882517984
116,19,15,Jits_Phase_8,0,1,48,19,1883207552
116,19,15,Jits_Phase_8,1,5,56,103,1883261384
116,19,15,Jits_Phase_8,2,5,80,127,1883381244
116,19,15,Jits_Phase_8,3,5,63,98,1883421256
116,19,15,Jits_Phase_8,0,1,48,20,1884053552
116,19,15,Jits_Phase_8,1,5,56,103,1884080476
116,19,15,Jits_Phase_8,2,5,80,127,1884161380
116,19,15,Jits_Phase_8,3,5,63,98,1884180864
116,19,15,Jits_Phase_8,0,5,56,103,1884881360
116,19,15,Jits_Phase_8,1,5,63,98,1884990820
116,19,15,Jits_Phase_8,2,5,80,127,1884994408
116,19,15,Jits_Phase_8,0,5,56,103,1885720872
116,19,15,Jits_Phase_8,1,1,48,20,1885727728
116,19,15,Jits_Phase_8,2,5,80,127,1885750692
116,19,15,Jits_Phase_8,3,5,63,98,1885771228
116,19,15,Jits_Phase_8,0,1,48,19,1886509180
116,19,15,Jits_Phase_8,1,5,63,98,1886510676
116,19,15,Jits_Phase_8,2,5,56,103,1886520652
116,19,15,Jits_Phase_8,3,5,80,127,1886531144
116,19,15,Jits_Phase_8,0,1,48,18,1887229792
116,19,15,Jits_Phase_8,1,5,80,127,1887300992
116,19,15,Jits_Phase_8,2,5,56,103,1887351328
116,19,15,Jits_Phase_8,3,5,63,98,1887391288
116,19,15,Jits_Phase_8,0,5,80,127,1888121360
116,19,15,Jits_Phase_8,1,5,63,98,1888140572
116,19,15,Jits_Phase_8,2,1,48,20,1888171640
116,19,15,Jits_Phase_8,3,5,56,103,1888190916
116,19,15,Jits_Phase_8,0,5,80,127,1888931420
116,19,15,Jits_Phase_8,1,5,56,103,1888960872
116,19,15,Jits_Phase_8,2,1,48,22,1888963840
116,19,15,Jits_Phase_8,3,5,63,98,1889030468
116,19,15,Jits_Phase_8,0,1,48,21,1889751172
116,19,15,Jits_Phase_8,1,5,56,103,1889781160
116,19,15,Jits_Phase_8,2,5,80,127,1889791284
116,19,15,Jits_Phase_8,3,5,63,98,1889831296
116,19,15,Jits_Phase_8,0,5,56,103,1890490804
116,19,15,Jits_Phase_8,1,5,63,98,1890511336
116,19,15,Jits_Phase_8,2,5,80,127,1890580792
116,19,15,Jits_Phase_8,3,1,48,17,1890594544
116,19,15,Jits_Phase_8,0,1,48,16,1891291960
116,19,15,Jits_Phase_8,1,5,63,98,1891311240
116,19,15,Jits_Phase_8,2,5,80,127,1891371332
116,19,15,Jits_Phase_8,3,5,56,103,1891390952
116,19,15,Jits_Phase_8,0,1,48,16,1892048252
116,19,15,Jits_Phase_8,1,5,80,127,1892100436
116,19,15,Jits_Phase_8,2,5,56,103,1892131384
116,19,15,Jits_Phase_8,3,5,63,98,1892160892
116,19,15,Jits_Phase_8,0,5,56,103,1892901092
116,19,15,Jits_Phase_8,1,1,48,17,1892953056
116,19,15,Jits_Phase_8,2,5,63,98,1892960580
116,19,15,Jits_Phase_8,3,5,80,127,1893021144
116,19,15,Jits_Phase_8,0,5,80,127,1893720424
116,19,15,Jits_Phase_8,1,5,56,103,1893741032
116,19,15,Jits_Phase_8,2,5,63,98,1893810588
116,19,15,Jits_Phase_8,0,5,80,127,1894521132
116,19,15,Jits_Phase_8,1,5,63,98,1894540644
116,19,15,Jits_Phase_8,2,1,48,20,1894548940
116,19,15,Jits_Phase_8,3,5,56,103,1894571360
116,19,15,Jits_Phase_8,0,1,48,18,1895261236
116,19,15,Jits_Phase_8,1,5,80,127,1895310656
116,19,15,Jits_Phase_8,2,5,63,98,1895331340
116,19,15,Jits_Phase_8,3,5,56,103,1895390520
116,19,15,Jits_Phase_8,0,5,80,127,1896110420
116,19,15,Jits_Phase_8,1,1,48,23,1896143284
116,19,15,Jits_Phase_8,2,5,56,103,1896210888
116,19,15,Jits_Phase_8,3,5,63,98,1896241668
116,19,15,Jits_Phase_8,0,5,63,98,1896901128
116,19,15,Jits_Phase_8,1,1,48,19,1896931600
116,19,15,Jits_Phase_8,2,5,80,127,1896951324
116,19,15,Jits_Phase_8,3,5,56,103,1896970740
116,19,15,Jits_Phase_8,0,1,48,16,1897635072
116,19,15,Jits_Phase_8,1,5,80,127,1897740800
116,19,15,Jits_Phase_8,2,5,56,103,1897771372
116,19,15,Jits_Phase_8,3,5,63,98,1897774512
116,19,15,Jits_Phase_8,0,1,48,19,1898446132
116,19,15,Jits_Phase_8,1,5,63,98,1898590604
116,19,15,Jits_Phase_8,2,5,56,103,1898630420
116,19,15,Jits_Phase_8,3,5,80,127,1898651176
116,19,15,Jits_Phase_8,0,1,48,18,1899306656
116,19,15,Jits_Phase_8,1,5,80,127,1899351420
116,19,15,Jits_Phase_8,2,5,63,98,1899431228
116,19,15,Jits_Phase_8,3,5,56,103,1899471240
116,19,15,Jits_Phase_8,0,5,63,98,1900170548
116,19,15,Jits_Phase_8,1,1,48,16,1900185124
116,19,15,Jits_Phase_8,2,5,80,127,1900250412
116,19,15,Jits_Phase_8,3,5,56,103,1900271168
116,19,15,Jits_Phase_8,0,5,56,103,1901011368
116,19,15,Jits_Phase_8,1,5,63,98,1901020516
116,19,15,Jits_Phase_8,2,1,48,17,1901047676
116,19,15,Jits_Phase_8,3,5,80,127,1901060524
116,19,15,Jits_Phase_8,0,5,56,103,1901731204
116,19,15,Jits_Phase_8,1,5,80,127,1901734120
116,19,15,Jits_Phase_8,2,1,48,15,1901771704
116,19,15,Jits_Phase_8,3,5,63,98,1901870308
116,19,15,Jits_Phase_8,0,1,48,17,1902496228
116,19,15,Jits_Phase_8,1,5,56,103,1902520908
116,19,15,Jits_Phase_8,2,5,63,98,1902610956
116,19,15,Jits_Phase_8,3,5,80,127,1902680412
116,19,15,Jits_Phase_8,0,1,48,19,1903305724
116,19,15,Jits_Phase_8,1,5,63,98,1903401268
116,19,15,Jits_Phase_8,2,5,80,127,1903404560
116,19,15,Jits_Phase_8,3,5,56,103,1903461060
116,19,15,Jits_Phase_8,0,1,48,22,1904158448
116,19,15,Jits_Phase_8,1,5,80,127,1904240976
116,19,15,Jits_Phase_8,2,5,56,103,1904260472
116,19,15,Jits_Phase_8,3,5,63,98,1904270668
116,19,15,Jits_Phase_8,0,5,56,103,1904950912
116,19,15,Jits_Phase_8,1,5,63,98,1904961184
116,19,15,Jits_Phase_8,2,1,48,19,1905016140
116,19,15,Jits_Phase_8,3,5,80,127,1905030656
116,19,15,Jits_Phase_8,0,1,48,23,1905716556
116,19,15,Jits_Phase_8,1,5,80,127,1905751352
116,19,15,Jits_Phase_8,2,5,56,103,1905800456
116,19,15,Jits_Phase_8,3,5,63,98,1905850792
116,19,15,Jits_Phase_8,0,1,48,17,1906543964
116,19,15,Jits_Phase_8,1,5,56,103,1906631076
116,19,15,Jits_Phase_8,2,5,63,98,1906641272
116,19,15,Jits_Phase_8,3,5,80,127,1906681272
116,19,15,Jits_Phase_8,0,5,56,103,1907371292
116,19,15,Jits_Phase_8,1,1,48,16,1907382952
116,19,15,Jits_Phase_8,2,5,63,98,1907411448
116,19,15,Jits_Phase_8,3,5,80,127,1907460452
116,19,15,Jits_Phase_8,0,5,80,127,1908131208
116,19,15,Jits_Phase_8,1,1,48,17,1908177028
116,19,15,Jits_Phase_8,2,5,56,103,1908181256
116,19,15,Jits_Phase_8,3,5,63,98,1908200964
116,19,15,Jits_Phase_8,0,5,80,127,1908941084
116,19,15,Jits_Phase_8,1,1,48,18,1908947864
116,19,15,Jits_Phase_8,2,5,63,98,1909000424
116,19,15,Jits_Phase_8,3,5,56,103,1909080424
116,19,15,Jits_Phase_8,0,5,80,127,1909720480
116,19,15,Jits_Phase_8,1,1,48,18,1909753868
116,19,15,Jits_Phase_8,2,5,56,103,1909761312
116,19,15,Jits_Phase_8,3,5,63,98,1909781020
116,19,15,Jits_Phase_8,0,1,48,19,1910495928
116,19,15,Jits_Phase_8,1,5,56,103,1910571408
116,19,15,Jits_Phase_8,2,5,80,127,1910580708
116,19,15,Jits_Phase_8,3,5,63,98,1910620480
116,19,15,Jits_Phase_8,0,1,48,24,1911375556
116,19,15,Jits_Phase_8,1,5,56,103,1911440796
116,19,15,Jits_Phase_8,2,5,63,98,1911480868
116,19,15,Jits_Phase_8,3,5,80,127,1911484232
116,19,15,Jits_Phase_8,0,5,63,98,1912110548
116,19,15,Jits_Phase_8,1,5,80,127,1912151388
116,19,15,Jits_Phase_8,2,1,48,17,1912214912
116,19,15,Jits_Phase_8,3,5,56,103,1912221084
116,19,15,Jits_Phase_8,0,1,48,16,1912861128
116,19,15,Jits_Phase_8,1,5,63,98,1912880484
116,19,15,Jits_Phase_8,2,5,56,103,1912961336
116,19,15,Jits_Phase_8,3,5,80,127,1913020900
116,19,15,Jits_Phase_8,0,1,48,16,1913601624
116,19,15,Jits_Phase_8,1,5,80,127,1913690432
116,19,15,Jits_Phase_8,2,5,63,98,1913740792
116,19,15,Jits_Phase_8,3,5,56,103,1913771364
116,19,15,Jits_Phase_8,0,1,48,19,1914414780
116,19,15,Jits_Phase_8,1,5,56,103,1914481116
116,19,15,Jits_Phase_8,2,5,63,98,1914531180
116,19,15,Jits_Phase_8,3,5,80,127,1914541452
116,19,15,Jits_Phase_8,0,1,48,17,1915265728
116,19,15,Jits_Phase_8,1,5,56,103,1915290936
116,19,15,Jits_Phase_8,2,5,63,98,1915400684
116,19,15,Jits_Phase_8,3,5,80,127,1915421068
116,19,15,Jits_Phase_8,0,5,63,98,1916090928
116,19,15,Jits_Phase_8,1,1,48,18,1916110908
116,19,15,Jits_Phase_8,2,5,80,127,1916140900
116,19,15,Jits_Phase_8,3,5,56,103,1916231088
116,19,15,Jits_Phase_8,0,5,63,98,1916881248
116,19,15,Jits_Phase_8,1,1,48,14,1916882508
116,19,15,Jits_Phase_8,2,5,80,127,1916910988
116,19,15,Jits_Phase_8,3,5,56,103,1917001028
116,19,15,Jits_Phase_8,0,1,48,13,1917672656
116,19,15,Jits_Phase_8,1,5,63,98,1917680996
116,19,15,Jits_Phase_8,2,5,56,103,1917691268
116,19,15,Jits_Phase_8,3,5,80,127,1917790820
116,19,15,Jits_Phase_8,0,1,48,14,1918443036
116,19,15,Jits_Phase_8,1,5,63,98,1918581132
116,19,15,Jits_Phase_8,2,5,80,127,1918610904
116,19,15,Jits_Phase_8,3,5,56,103,1918640580
116,19,15,Jits_Phase_8,0,1,48,15,1919336900
116,19,15,Jits_Phase_8,1,5,80,127,1919401316
116,19,15,Jits_Phase_8,2,5,63,98,1919410840
116,19,15,Jits_Phase_8,3,5,56,103,1919441248
116,19,15,Jits_Phase_8,0,5,80,127,1920100896
116,19,15,Jits_Phase_8,1,5,63,98,1920121136
116,19,15,Jits_Phase_8,2,5,56,103,1920171556
116,19,15,Jits_Phase_8,3,1,48,18,1920243748
116,19,15,Jits_Phase_8,0,1,48,17,1920885392
116,19,15,Jits_Phase_8,1,5,63,98,1920931152
116,19,15,Jits_Phase_8,2,5,80,127,1920990852
116,19,15,Jits_Phase_8,3,5,56,103,1921011012
116,19,15,Jits_Phase_8,0,1,48,13,1921640808
116,19,15,Jits_Phase_8,1,5,63,98,1921691052
116,19,15,Jits_Phase_8,2,5,56,103,1921741240
116,19,15,Jits_Phase_8,3,5,80,127,1921751436
116,19,15,Jits_Phase_8,0,1,48,14,1922365028
116,19,15,Jits_Phase_8,1,5,56,103,1922520532
116,19,15,Jits_Phase_8,2,5,80,127,1922530652
116,19,15,Jits_Phase_8,3,5,63,98,1922630900
116,19,15,Jits_Phase_8,0,1,48,13,1923274200
116,19,15,Jits_Phase_8,1,5,80,127,1923281120
116,19,15,Jits_Phase_8,2,5,63,98,1923290716
116,19,15,Jits_Phase_8,3,5,56,103,1923440916
116,19,15,Jits_Phase_8,0,1,48,15,1924041216
116,19,15,Jits_Phase_8,1,5,63,98,1924091364
116,19,15,Jits_Phase_8,2,5,80,127,1924131228
116,19,15,Jits_Phase_8,3,5,56,103,1924211156
116,19,15,Jits_Phase_8,0,5,56,103,1924840780
116,19,15,Jits_Phase_8,1,1,48,16,1924874392
116,19,15,Jits_Phase_8,2,5,80,127,1924941096
116,19,15,Jits_Phase_8,3,5,63,98,1924960584
116,19,15,Jits_Phase_8,0,5,80,127,1925661088
116,19,15,Jits_Phase_8,1,1,48,14,1925662804
116,19,15,Jits_Phase_8,2,5,56,103,1925671280
116,19,15,Jits_Phase_8,3,5,63,98,1925761640
116,19,15,Jits_Phase_8,0,1,48,17,1926441428
116,19,15,Jits_Phase_8,1,5,56,103,1926460856
116,19,15,Jits_Phase_8,2,5,63,98,1926481464
116,19,15,Jits_Phase_8,3,5,80,127,1926561268
116,19,15,Jits_Phase_8,0,5,63,98,1927211328
116,19,15,Jits_Phase_8,1,1,48,15,1927238188
116,19,15,Jits_Phase_8,2,5,56,103,1927300652
116,19,15,Jits_Phase_8,3,5,80,127,1927303644
116,19,15,Jits_Phase_8,0,1,48,14,1927980180
116,19,15,Jits_Phase_8,1,5,56,103,1928040812
116,19,15,Jits_Phase_8,2,5,80,127,1928101360
116,19,15,Jits_Phase_8,3,5,63,98,1928110732
116,19,15,Jits_Phase_8,0,1,48,15,1928799420
116,19,15,Jits_Phase_8,1,5,80,127,1928890644
116,19,15,Jits_Phase_8,2,5,56,103,1928900892
116,19,15,Jits_Phase_8,3,5,63,98,1928904188
116,19,15,Jits_Phase_8,0,1,48,13,1929649104
116,19,15,Jits_Phase_8,1,5,56,103,1929650612
116,19,15,Jits_Phase_8,2,5,80,127,1929660884
116,19,15,Jits_Phase_8,3,5,63,98,1929681196
116,19,15,Jits_Phase_8,0,1,48,13,1930387624
116,19,15,Jits_Phase_8,1,5,63,98,1930420552
116,19,15,Jits_Phase_8,2,5,80,127,1930481092
116,19,15,Jits_Phase_8,3,5,56,103,1930531276
116,19,15,Jits_Phase_8,0,1,48,13,1931212340
116,19,15,Jits_Phase_8,1,5,63,98,1931301448
116,19,15,Jits_Phase_8,2,5,56,103,1931310660
116,19,15,Jits_Phase_8,3,5,80,127,1931360636
116,19,15,Jits_Phase_8,0,5,63,98,1932000680
116,19,15,Jits_Phase_8,1,5,80,127,1932021140
116,19,15,Jits_Phase_8,2,5,56,103,1932031708
116,19,15,Jits_Phase_8,3,1,48,13,1932046512
116,19,15,Jits_Phase_8,0,5,63,98,1932801476
116,19,15,Jits_Phase_8,1,5,80,127,1932804688
116,19,15,Jits_Phase_8,2,5,56,103,1932841560
116,19,15,Jits_Phase_8,0,1,48,14,1933509516
116,19,15,Jits_Phase_8,1,5,63,98,1933670908
116,19,15,Jits_Phase_8,2,5,80,127,1933700684
116,19,15,Jits_Phase_8,3,5,56,103,1933710804
116,19,15,Jits_Phase_8,0,1,48,19,1934415732
116,19,15,Jits_Phase_8,1,5,56,103,1934421460
116,19,15,Jits_Phase_8,2,5,80,127,1934450984
116,19,15,Jits_Phase_8,3,5,63,98,1934480760
116,19,15,Jits_Phase_8,0,1,48,23,1935247052
116,19,15,Jits_Phase_8,1,5,63,98,1935320584
116,19,15,Jits_Phase_8,2,5,56,103,1935361480
116,19,15,Jits_Phase_8,3,5,80,127,1935364620
116,19,15,Jits_Phase_8,0,5,80,127,1936020708
116,19,15,Jits_Phase_8,1,5,56,103,1936100804
116,19,15,Jits_Phase_8,2,1,48,24,1936127736
116,19,15,Jits_Phase_8,3,5,63,98,1936150848
116,19,15,Jits_Phase_8,0,5,80,127,1936801300
116,19,15,Jits_Phase_8,1,5,56,103,1936820784
116,19,15,Jits_Phase_8,2,5,63,98,1936910768
116,19,15,Jits_Phase_8,3,1,48,26,1936923472
116,19,15,Jits_Phase_8,0,1,48,26,1937639260
116,19,15,Jits_Phase_8,1,5,80,127,1937640768
116,19,15,Jits_Phase_8,2,5,63,98,1937680784
116,19,15,Jits_Phase_8,3,5,56,103,1937720720
116,19,15,Jits_Phase_8,0,1,48,23,1938421920
116,19,15,Jits_Phase_8,1,5,63,98,1938450864
116,19,15,Jits_Phase_8,2,5,80,127,1938511180
116,19,15,Jits_Phase_8,3,5,56,103,1938540768
116,19,15,Jits_Phase_8,0,5,56,103,1939290556
116,19,15,Jits_Phase_8,1,1,48,33,1939309644
116,19,15,Jits_Phase_8,2,5,80,127,1939321272
116,19,15,Jits_Phase_8,3,5,63,98,1939411636
116,19,15,Jits_Phase_8,0,1,48,28,1940091520
116,19,15,Jits_Phase_8,1,5,56,103,1940100612
116,19,15,Jits_Phase_8,2,5,80,127,1940211032
116,19,15,Jits_Phase_8,3,5,63,98,1940240708
116,19,15,Jits_Phase_8,0,1,48,32,1940908220
116,19,15,Jits_Phase_8,1,5,56,103,1940951392
116,19,15,Jits_Phase_8,2,5,63,98,1941010868
116,19,15,Jits_Phase_8,3,5,80,127,1941040544
116,19,15,Jits_Phase_8,0,1,48,30,1941705344
116,19,15,Jits_Phase_8,1,5,56,103,1941720512
116,19,15,Jits_Phase_8,2,5,63,98,1941791464
116,19,15,Jits_Phase_8,3,5,80,127,1941810416
116,19,15,Jits_Phase_8,0,5,80,127,1942490536
116,19,15,Jits_Phase_8,1,5,63,98,1942510848
116,19,15,Jits_Phase_8,2,5,56,103,1942561272
116,19,15,Jits_Phase_8,3,1,48,27,1942565880
116,19,15,Jits_Phase_8,0,1,48,26,1943303528
116,19,15,Jits_Phase_8,1,5,63,98,1943310676
116,19,15,Jits_Phase_8,2,5,80,127,1943320872
116,19,15,Jits_Phase_8,3,5,56,103,1943371220
116,19,15,Jits_Phase_8,0,1,48,25,1944047908
116,19,15,Jits_Phase_8,1,5,63,98,1944110580
116,19,15,Jits_Phase_8,2,5,80,127,1944181072
116,19,15,Jits_Phase_8,3,5,56,103,1944200656
116,19,15,Jits_Phase_8,0,1,48,25,1944871956
116,19,15,Jits_Phase_8,1,5,63,98,1944940904
116,19,15,Jits_Phase_8,2,5,80,127,1944944416
116,19,15,Jits_Phase_8,3,5,56,103,1945010596
116,19,15,Jits_Phase_8,0,5,80,127,1945690396
116,19,15,Jits_Phase_8,1,1,48,27,1945698692
116,19,15,Jits_Phase_8,2,5,56,103,1945711148
116,19,15,Jits_Phase_8,3,5,63,98,1945721416
116,19,15,Jits_Phase_8,0,1,48,19,1946446436
116,19,15,Jits_Phase_8,1,5,56,103,1946510704
116,19,15,Jits_Phase_8,2,5,63,98,1946600896
116,19,15,Jits_Phase_8,3,5,80,127,1946604260
116,19,15,Jits_Phase_8,0,5,80,127,1947280640
116,19,15,Jits_Phase_8,1,5,56,103,1947291136
116,19,15,Jits_Phase_8,2,1,48,21,1947297468
116,19,15,Jits_Phase_8,3,5,63,98,1947310392
116,19,15,Jits_Phase_8,0,1,48,22,1948054212
116,19,15,Jits_Phase_8,1,5,63,98,1948080620
116,19,15,Jits_Phase_8,2,5,80,127,1948140860
116,19,15,Jits_Phase_8,3,5,56,103,1948151264
116,19,15,Jits_Phase_8,0,1,48,19,1948825124
116,19,15,Jits_Phase_8,1,5,63,98,1948950936
116,19,15,Jits_Phase_8,2,5,80,127,1948980536
116,19,15,Jits_Phase_8,3,5,56,103,1949020620
116,19,15,Jits_Phase_8,0,1,48,21,1949694488
116,19,15,Jits_Phase_8,1,5,56,103,1949741420
116,19,15,Jits_Phase_8,2,5,80,127,1949750568
116,19,15,Jits_Phase_8,3,5,63,98,1949790492
116,19,15,Jits_Phase_8,0,1,48,16,1950499204
116,19,15,Jits_Phase_8,1,5,80,127,1950501320
116,19,15,Jits_Phase_8,2,5,56,103,1950581120
116,19,15,Jits_Phase_8,3,5,63,98,1950591772
116,19,15,Jits_Phase_8,0,1,48,21,1951323380
116,19,15,Jits_Phase_8,1,5,80,127,1951351204
116,19,15,Jits_Phase_8,2,5,56,103,1951431232
116,19,15,Jits_Phase_8,3,5,63,98,1951441504
116,19,15,Jits_Phase_8,0,1,48,18,1952183036
116,19,15,Jits_Phase_8,1,5,80,127,1952190856
116,19,15,Jits_Phase_8,2,5,56,103,1952241208
116,19,15,Jits_Phase_8,3,5,63,98,1952291244
116,19,15,Jits_Phase_8,0,1,48,19,1953058296
116,19,15,Jits_Phase_8,1,5,56,103,1953130932
116,19,15,Jits_Phase_8,2,5,63,98,1953133924
116,19,15,Jits_Phase_8,3,5,80,127,1953181292
116,19,15,Jits_Phase_8,0,1,48,19,1953882336
116,19,15,Jits_Phase_8,1,5,56,103,1953951236
116,19,15,Jits_Phase_8,2,5,63,98,1953980748
116,19,15,Jits_Phase_8,3,5,80,127,1953991316
116,19,15,Jits_Phase_8,0,5,63,98,1954660780
116,19,15,Jits_Phase_8,1,1,48,17,1954723556
116,19,15,Jits_Phase_8,2,5,56,103,1954731376
116,19,15,Jits_Phase_8,3,5,80,127,1954780528
116,19,15,Jits_Phase_8,0,1,48,15,1955424160
116,19,15,Jits_Phase_8,1,5,63,98,1955491568
116,19,15,Jits_Phase_8,2,5,56,103,1955501540
116,19,15,Jits_Phase_8,3,5,80,127,1955504608
116,19,15,Jits_Phase_8,0,1,48,15,1956184428
116,19,15,Jits_Phase_8,1,5,80,127,1956240900
116,19,15,Jits_Phase_8,2,5,56,103,1956301348
116,19,15,Jits_Phase_8,3,5,63,98,1956391256
116,19,15,Jits_Phase_8,0,1,48,15,1956995964
116,19,15,Jits_Phase_8,1,5,80,127,1957040432
116,19,15,Jits_Phase_8,2,5,56,103,1957140964
116,19,15,Jits_Phase_8,3,5,63,98,1957180828
116,19,15,Jits_Phase_8,0,1,48,17,1957836108
116,19,15,Jits_Phase_8,1,5,56,103,1957890388
116,19,15,Jits_Phase_8,2,5,63,98,1957910996
116,19,15,Jits_Phase_8,3,5,80,127,1957950696
116,19,15,Jits_Phase_8,0,1,48,18,1958574584
116,19,15,Jits_Phase_8,1,5,63,98,1958660404
116,19,15,Jits_Phase_8,2,5,56,103,1958681220
116,19,15,Jits_Phase_8,3,5,80,127,1958781340
116,19,15,Jits_Phase_8,0,1,48,21,1959428892
116,19,15,Jits_Phase_8,1,5,63,98,1959451240
116,19,15,Jits_Phase_8,2,5,80,127,1959560644
116,19,15,Jits_Phase_8,3,5,56,103,1959591216
116,19,15,Jits_Phase_8,0,5,56,103,1960271164
116,19,15,Jits_Phase_8,1,5,63,98,1960300916
116,19,15,Jits_Phase_8,2,5,80,127,1960351140
116,19,15,Jits_Phase_8,0,1,48,23,1961037664
116,19,15,Jits_Phase_8,1,5,63,98,1961041224
116,19,15,Jits_Phase_8,2,5,56,103,1961071124
116,19,15,Jits_Phase_8,3,5,80,127,1961121124
116,19,15,Jits_Phase_8,0,1,48,23,1961814796
116,19,15,Jits_Phase_8,1,5,56,103,1961870896
116,19,15,Jits_Phase_8,2,5,63,98,1961891204
116,19,15,Jits_Phase_8,3,5,80,127,1961971132
116,19,15,Jits_Phase_8,0,5,63,98,1962640696
116,19,15,Jits_Phase_8,1,1,48,25,1962646128
116,19,15,Jits_Phase_8,2,5,56,103,1962701228
116,19,15,Jits_Phase_8,3,5,80,127,1962730976
116,19,15,Jits_Phase_8,0,1,48,18,1963457408
116,19,15,Jits_Phase_8,1,5,56,103,1963480524
116,19,15,Jits_Phase_8,2,5,80,127,1963540916
116,19,15,Jits_Phase_8,3,5,63,98,1963581060
116,19,15,Jits_Phase_8,0,5,63,98,1964261184
116,19,15,Jits_Phase_8,1,1,48,16,1964286104
116,19,15,Jits_Phase_8,2,5,56,103,1964321272
116,19,15,Jits_Phase_8,3,5,80,127,1964391232
116,19,15,Jits_Phase_8,0,1,48,22,1965134188
116,19,15,Jits_Phase_8,1,5,56,103,1965141260
116,19,15,Jits_Phase_8,2,5,63,98,1965150476
116,19,15,Jits_Phase_8,3,5,80,127,1965154140
116,19,15,Jits_Phase_8,0,5,63,98,1965880560
116,19,15,Jits_Phase_8,1,1,48,26,1965894688
116,19,15,Jits_Phase_8,2,5,56,103,1965941164
116,19,15,Jits_Phase_8,3,5,80,127,1965944156
116,19,15,Jits_Phase_8,0,5,63,98,1966661052
116,19,15,Jits_Phase_8,1,5,80,127,1966690804
116,19,15,Jits_Phase_8,2,1,48,24,1966708748
116,19,15,Jits_Phase_8,3,5,56,103,1966711180
116,19,15,Jits_Phase_8,0,5,56,103,1967391052
116,19,15,Jits_Phase_8,1,1,48,24,1967425332
116,19,15,Jits_Phase_8,2,5,63,98,1967441248
116,19,15,Jits_Phase_8,3,5,80,127,1967521124
116,19,15,Jits_Phase_8,0,5,80,127,1968090444
116,19,15,Jits_Phase_8,1,5,63,98,1968130532
116,19,15,Jits_Phase_8,2,5,56,103,1968151140
116,19,15,Jits_Phase_8,3,1,48,22,1968160108
116,19,15,Jits_Phase_8,0,1,48,21,1968810684
116,19,15,Jits_Phase_8,1,5,56,103,1968961136
116,19,15,Jits_Phase_8,2,5,80,127,1968971332
116,19,15,Jits_Phase_8,3,5,63,98,1968990520
116,19,15,Jits_Phase_8,0,1,48,23,1969670832
116,19,15,Jits_Phase_8,1,5,56,103,1969741208
116,19,15,Jits_Phase_8,2,5,63,98,1969791344
116,19,15,Jits_Phase_8,3,5,80,127,1969821020
116,19,15,Jits_Phase_8,0,5,56,103,1970490852
116,19,15,Jits_Phase_8,1,1,48,18,1970498008
116,19,15,Jits_Phase_8,2,5,63,98,1970501112
116,19,15,Jits_Phase_8,3,5,80,127,1970551092
116,19,15,Jits_Phase_8,0,1,48,21,1971240960
116,19,15,Jits_Phase_8,1,5,56,103,1971281136
116,19,15,Jits_Phase_8,2,5,80,127,1971284132
116,19,15,Jits_Phase_8,3,5,63,98,1971441028
116,19,15,Jits_Phase_8,0,1,48,22,1972086100
116,19,15,Jits_Phase_8,1,5,63,98,1972100396
116,19,15,Jits_Phase_8,2,5,56,103,1972171048
116,19,15,Jits_Phase_8,3,5,80,127,1972211048
116,19,15,Jits_Phase_8,0,1,48,19,1972879452
116,19,15,Jits_Phase_8,1,5,63,98,1972941280
116,19,15,Jits_Phase_8,2,5,56,103,1973031172
116,19,15,Jits_Phase_8,3,5,80,127,1973034316
116,19,15,Jits_Phase_8,0,1,48,19,1973710440
116,19,15,Jits_Phase_8,1,5,56,103,1973720576
116,19,15,Jits_Phase_8,2,5,63,98,1973810624
116,19,15,Jits_Phase_8,3,5,80,127,1973820820
116,19,15,Jits_Phase_8,0,5,56,103,1974490676
116,19,15,Jits_Phase_8,1,5,63,98,1974540804
116,19,15,Jits_Phase_8,2,1,48,24,1974564976
116,19,15,Jits_Phase_8,3,5,80,127,1974571372
116,19,15,Jits_Phase_8,0,1,48,20,1975288228
116,19,15,Jits_Phase_8,1,5,63,98,1975370984
116,19,15,Jits_Phase_8,2,5,80,127,1975381252
116,19,15,Jits_Phase_8,3,5,56,103,1975440828
116,19,15,Jits_Phase_8,0,5,63,98,1976091032
116,19,15,Jits_Phase_8,1,5,80,127,1976151352
116,19,15,Jits_Phase_8,2,5,56,103,1976191312
116,19,15,Jits_Phase_8,0,1,48,18,1976902932
116,19,15,Jits_Phase_8,1,5,56,103,1976991092
116,19,15,Jits_Phase_8,2,5,80,127,1977010416
116,19,15,Jits_Phase_8,3,5,63,98,1977031172
116,19,15,Jits_Phase_8,0,5,63,98,1977711048
116,19,15,Jits_Phase_8,1,1,48,19,1977714692
116,19,15,Jits_Phase_8,2,5,56,103,1977730924
116,19,15,Jits_Phase_8,3,5,80,127,1977771240
116,19,15,Jits_Phase_8,0,1,48,20,1978467304
116,19,15,Jits_Phase_8,1,5,63,98,1978520936
116,19,15,Jits_Phase_8,2,5,80,127,1978550612
116,19,15,Jits_Phase_8,3,5,56,103,1978570984
116,19,15,Jits_Phase_8,0,5,80,127,1979291104
116,19,15,Jits_Phase_8,1,1,48,19,1979299548
116,19,15,Jits_Phase_8,2,5,56,103,1979341152
116,19,15,Jits_Phase_8,3,5,63,98,1979400852
116,19,15,Jits_Phase_8,0,5,63,98,1980080456
116,19,15,Jits_Phase_8,1,1,48,19,1980134816
116,19,15,Jits_Phase_8,2,5,56,103,1980201300
116,19,15,Jits_Phase_8,3,5,80,127,1980231036
116,19,15,Jits_Phase_8,0,1,48,21,1980898300
116,19,15,Jits_Phase_8,1,5,80,127,1980921268
116,19,15,Jits_Phase_8,2,5,63,98,1980940752
116,19,15,Jits_Phase_8,3,5,56,103,1981011240
116,19,15,Jits_Phase_8,0,1,48,22,1981690884
116,19,15,Jits_Phase_8,1,5,63,98,1981741628
116,19,15,Jits_Phase_8,2,5,56,103,1981750776
116,19,15,Jits_Phase_8,3,5,80,127,1981830652
116,19,15,Jits_Phase_8,0,1,48,27,1982527416
116,19,15,Jits_Phase_8,1,5,56,103,1982600752
116,19,15,Jits_Phase_8,2,5,80,127,1982631164
116,19,15,Jits_Phase_8,3,5,63,98,1982640612
116,19,15,Jits_Phase_8,0,9999,9999,9999,1847758928
116,19,15,Jits_Phase_8,1,9999,9999,9999,1848558716
116,19,15,Jits_Phase_8,2,9999,9999,9999,1849358428
116,19,15,Jits_Phase_8,3,9999,9999,9999,1850158188
116,19,15,Jits_Phase_8,4,9999,9999,9999,1850958908
116,19,15,Jits_Phase_8,5,9999,9999,9999,1851758668
116,19,15,Jits_Phase_8,6,9999,9999,9999,1852558448
116,19,15,Jits_Phase_8,7,9999,9999,9999,1853358204
116,19,15,Jits_Phase_8,8,9999,9999,9999,1854158940
116,19,15,Jits_Phase_8,9,9999,9999,9999,1854958684
116,19,15,Jits_Phase_8,10,9999,9999,9999,1855758460
116,19,15,Jits_Phase_8,11,9999,9999,9999,1856558148
116,19,15,Jits_Phase_8,12,9999,9999,9999,1857358968
116,19,15,Jits_Phase_8,13,9999,9999,9999,1858158664
116,19,15,Jits_Phase_8,14,9999,9999,9999,1858958432
116,19,15,Jits_Phase_8,15,9999,9999,9999,1859758180
116,19,15,Jits_Phase_8,16,9999,9999,9999,1860558972
116,19,15,Jits_Phase_8,17,9999,9999,9999,1861358656
116,19,15,Jits_Phase_8,18,9999,9999,9999,1862158420
116,19,15,Jits_Phase_8,19,9999,9999,9999,1862958180
116,19,15,Jits_Phase_8,20,9999,9999,9999,1863758908
116,19,15,Jits_Phase_8,21,9999,9999,9999,1864558664
116,19,15,Jits_Phase_8,22,9999,9999,9999,1865358452
116,19,15,Jits_Phase_8,23,9999,9999,9999,1866158136
116,19,15,Jits_Phase_8,24,9999,9999,9999,1866958936
116,19,15,Jits_Phase_8,25,9999,9999,9999,1867758692
116,19,15,Jits_Phase_8,26,9999,9999,9999,1868558452
116,19,15,Jits_Phase_8,27,9999,9999,9999,1869358136
116,19,15,Jits_Phase_8,28,9999,9999,9999,1870158936
116,19,15,Jits_Phase_8,29,9999,9999,9999,1870958700
116,19,15,Jits_Phase_8,30,9999,9999,9999,1871738976
116,19,15,Jits_Phase_8,31,9999,9999,9999,1872538676
116,19,15,Jits_Phase_8,32,9999,9999,9999,1873338436
116,19,15,Jits_Phase_8,33,9999,9999,9999,1874138184
116,19,15,Jits_Phase_8,34,9999,9999,9999,1874939004
116,19,15,Jits_Phase_8,35,9999,9999,9999,1875738696
116,19,15,Jits_Phase_8,36,9999,9999,9999,1876538460
116,19,15,Jits_Phase_8,37,9999,9999,9999,1877338236
116,19,15,Jits_Phase_8,38,9999,9999,9999,1878138976
116,19,15,Jits_Phase_8,39,9999,9999,9999,1878938696
116,19,15,Jits_Phase_8,40,9999,9999,9999,1879738456
116,19,15,Jits_Phase_8,41,9999,9999,9999,1880538228
116,19,15,Jits_Phase_8,42,9999,9999,9999,1881338956
116,19,15,Jits_Phase_8,43,9999,9999,9999,1882138724
116,19,15,Jits_Phase_8,44,9999,9999,9999,1882938464
116,19,15,Jits_Phase_8,45,9999,9999,9999,1883738200
116,19,15,Jits_Phase_8,46,9999,9999,9999,1884539008
116,19,15,Jits_Phase_8,47,9999,9999,9999,1885338728
116,19,15,Jits_Phase_8,48,9999,9999,9999,1886158972
116,19,15,Jits_Phase_8,49,9999,9999,9999,1886958664
116,19,15,Jits_Phase_8,50,9999,9999,9999,1887758424
116,19,15,Jits_Phase_8,51,9999,9999,9999,1888558188
116,19,15,Jits_Phase_8,52,9999,9999,9999,1889358932
116,19,15,Jits_Phase_8,53,9999,9999,9999,1890158712
116,19,15,Jits_Phase_8,54,9999,9999,9999,1890958416
116,19,15,Jits_Phase_8,55,9999,9999,9999,1891758188
116,19,15,Jits_Phase_8,56,9999,9999,9999,1892558916
116,19,15,Jits_Phase_8,57,9999,9999,9999,1893358672
116,19,15,Jits_Phase_8,58,9999,9999,9999,1894158392
116,19,15,Jits_Phase_8,59,9999,9999,9999,1894958180
116,19,15,Jits_Phase_8,60,9999,9999,9999,1895758924
116,19,15,Jits_Phase_8,61,9999,9999,9999,1896558688
116,19,15,Jits_Phase_8,62,9999,9999,9999,1897358408
116,19,15,Jits_Phase_8,63,9999,9999,9999,1898158160
116,19,15,Jits_Phase_8,64,9999,9999,9999,1898998904
116,19,15,Jits_Phase_8,65,9999,9999,9999,1899798596
116,19,15,Jits_Phase_8,66,9999,9999,9999,1900598360
116,19,15,Jits_Phase_8,67,9999,9999,9999,1901398128
116,19,15,Jits_Phase_8,68,9999,9999,9999,1902198856
116,19,15,Jits_Phase_8,69,9999,9999,9999,1902998648
116,19,15,Jits_Phase_8,70,9999,9999,9999,1903798328
116,19,15,Jits_Phase_8,71,9999,9999,9999,1904598096
116,19,15,Jits_Phase_8,72,9999,9999,9999,1905398896
116,19,15,Jits_Phase_8,73,9999,9999,9999,1906198596
116,19,15,Jits_Phase_8,74,9999,9999,9999,1906998364
116,19,15,Jits_Phase_8,75,9999,9999,9999,1907798128
116,19,15,Jits_Phase_8,76,9999,9999,9999,1908598868
116,19,15,Jits_Phase_8,77,9999,9999,9999,1909398588
116,19,15,Jits_Phase_8,78,9999,9999,9999,1910198352
116,19,15,Jits_Phase_8,79,9999,9999,9999,1910998124
116,19,15,Jits_Phase_8,80,9999,9999,9999,1911798860
116,19,15,Jits_Phase_8,81,9999,9999,9999,1912558684
116,19,15,Jits_Phase_8,82,9999,9999,9999,1913358448
116,19,15,Jits_Phase_8,83,9999,9999,9999,1914158200
116,19,15,Jits_Phase_8,84,9999,9999,9999,1914958924
116,19,15,Jits_Phase_8,85,9999,9999,9999,1915758684
116,19,15,Jits_Phase_8,86,9999,9999,9999,1916558396
116,19,15,Jits_Phase_8,87,9999,9999,9999,1917358152
116,19,15,Jits_Phase_8,88,9999,9999,9999,1918158952
116,19,15,Jits_Phase_8,89,9999,9999,9999,1918958720
116,19,15,Jits_Phase_8,90,9999,9999,9999,1919758416
116,19,15,Jits_Phase_8,91,9999,9999,9999,1920558148
116,19,15,Jits_Phase_8,92,9999,9999,9999,1921358968
116,19,15,Jits_Phase_8,93,9999,9999,9999,1922158648
116,19,15,Jits_Phase_8,94,9999,9999,9999,1922958428
116,19,15,Jits_Phase_8,95,9999,9999,9999,1923758180
116,19,15,Jits_Phase_8,96,9999,9999,9999,1924558912
116,19,15,Jits_Phase_8,97,9999,9999,9999,1925278808
116,19,15,Jits_Phase_8,98,9999,9999,9999,1926078588
116,19,15,Jits_Phase_8,99,9999,9999,9999,1926878288
116,19,15,Jits_Phase_8,100,9999,9999,9999,1927679080
116,19,15,Jits_Phase_8,101,9999,9999,9999,1928478840
116,19,15,Jits_Phase_8,102,9999,9999,9999,1929278520
116,19,15,Jits_Phase_8,103,9999,9999,9999,1930078280
116,19,15,Jits_Phase_8,104,9999,9999,9999,1930879036
116,19,15,Jits_Phase_8,105,9999,9999,9999,1931678800
116,19,15,Jits_Phase_8,106,9999,9999,9999,1932478552
116,19,15,Jits_Phase_8,107,9999,9999,9999,1933278316
116,19,15,Jits_Phase_8,108,9999,9999,9999,1934079060
116,19,15,Jits_Phase_8,109,9999,9999,9999,1934878816
116,19,15,Jits_Phase_8,110,9999,9999,9999,1935678576
116,19,15,Jits_Phase_8,111,9999,9999,9999,1936478264
116,19,15,Jits_Phase_8,112,9999,9999,9999,1937279100
116,19,15,Jits_Phase_8,113,9999,9999,9999,1938078796
116,19,15,Jits_Phase_8,114,9999,9999,9999,1938958412
116,19,15,Jits_Phase_8,115,9999,9999,9999,1939758172
116,19,15,Jits_Phase_8,116,9999,9999,9999,1940558920
116,19,15,Jits_Phase_8,117,9999,9999,9999,1941358684
116,19,15,Jits_Phase_8,118,9999,9999,9999,1942158396
116,19,15,Jits_Phase_8,119,9999,9999,9999,1942958148
116,19,15,Jits_Phase_8,120,9999,9999,9999,1943758964
116,19,15,Jits_Phase_8,121,9999,9999,9999,1944558652
116,19,15,Jits_Phase_8,122,9999,9999,9999,1945358400
116,19,15,Jits_Phase_8,123,9999,9999,9999,1946158156
116,19,15,Jits_Phase_8,124,9999,9999,9999,1946958964
116,19,15,Jits_Phase_8,125,9999,9999,9999,1947758712
116,19,15,Jits_Phase_8,126,9999,9999,9999,1948558428
116,19,15,Jits_Phase_8,127,9999,9999,9999,1949358188
116,19,15,Jits_Phase_8,128,9999,9999,9999,1950158920
116,19,15,Jits_Phase_8,129,9999,9999,9999,1950958680
116,19,15,Jits_Phase_8,130,9999,9999,9999,1951758448
116,19,15,Jits_Phase_8,131,9999,9999,9999,1952718932
116,19,15,Jits_Phase_8,132,9999,9999,9999,1953518684
116,19,15,Jits_Phase_8,133,9999,9999,9999,1954318448
116,19,15,Jits_Phase_8,134,9999,9999,9999,1955118132
116,19,15,Jits_Phase_8,135,9999,9999,9999,1955918928
116,19,15,Jits_Phase_8,136,9999,9999,9999,1956718688
116,19,15,Jits_Phase_8,137,9999,9999,9999,1957518396
116,19,15,Jits_Phase_8,138,9999,9999,9999,1958318152
116,19,15,Jits_Phase_8,139,9999,9999,9999,1959118960
116,19,15,Jits_Phase_8,140,9999,9999,9999,1959918644
116,19,15,Jits_Phase_8,141,9999,9999,9999,1960718424
116,19,15,Jits_Phase_8,142,9999,9999,9999,1961518136
116,19,15,Jits_Phase_8,143,9999,9999,9999,1962318940
116,19,15,Jits_Phase_8,144,9999,9999,9999,1963118696
116,19,15,Jits_Phase_8,145,9999,9999,9999,1963918408
116,19,15,Jits_Phase_8,146,9999,9999,9999,1964718168
116,19,15,Jits_Phase_8,147,9999,9999,9999,1965518968
116,19,15,Jits_Phase_8,148,9999,9999,9999,1966318644
116,19,15,Jits_Phase_8,149,9999,9999,9999,1967118400
116,19,15,Jits_Phase_8,150,9999,9999,9999,1967758436
116,19,15,Jits_Phase_8,151,9999,9999,9999,1968558204
116,19,15,Jits_Phase_8,152,9999,9999,9999,1969358952
116,19,15,Jits_Phase_8,153,9999,9999,9999,1970158712
116,19,15,Jits_Phase_8,154,9999,9999,9999,1970958436
116,19,15,Jits_Phase_8,155,9999,9999,9999,1971758196
116,19,15,Jits_Phase_8,156,9999,9999,9999,1972558928
116,19,15,Jits_Phase_8,157,9999,9999,9999,1973358680
116,19,15,Jits_Phase_8,158,9999,9999,9999,1974158460
116,19,15,Jits_Phase_8,159,9999,9999,9999,1974958140
116,19,15,Jits_Phase_8,160,9999,9999,9999,1975758968
116,19,15,Jits_Phase_8,161,9999,9999,9999,1976558672
116,19,15,Jits_Phase_8,162,9999,9999,9999,1977358452
116,19,15,Jits_Phase_8,163,9999,9999,9999,1978158136
116,19,15,Jits_Phase_8,164,9999,9999,9999,1978958940
116,19,15,Jits_Phase_8,165,9999,9999,9999,1979758696
116,19,15,Jits_Phase_8,166,9999,9999,9999,1980558416
116,19,15,Jits_Phase_8,167,9999,9999,9999,1981358176
116,19,15,Jits_Phase_8,168,9999,9999,9999,1982158908
116,19,15,Jits_Phase_8,169,9999,9999,9999,1982958676
116,20,5,ISIP_5,0,5,42,127,2050468396
116,20,5,ISIP_5,1,5,42,127,2050967892
116,20,5,ISIP_5,2,5,42,127,2051467608
116,20,5,ISIP_5,3,5,42,127,2051968448
116,20,5,ISIP_5,4,1,48,33,2052460388
116,20,5,ISIP_5,5,5,42,127,2052467980
116,20,5,ISIP_5,6,1,48,29,2052949244
116,20,5,ISIP_5,7,5,42,127,2052967748
116,20,5,ISIP_5,8,1,48,28,2053435768
116,20,5,ISIP_5,9,5,42,127,2053467520
116,20,5,ISIP_5,10,5,42,127,2053968340
116,20,5,ISIP_5,11,1,48,30,2053980512
116,20,5,ISIP_5,12,5,42,127,2054467964
116,20,5,ISIP_5,13,1,48,31,2054492400
116,20,5,ISIP_5,14,5,42,127,2054967804
116,20,5,ISIP_5,15,1,48,29,2054978476
116,20,5,ISIP_5,16,1,48,27,2055463348
116,20,5,ISIP_5,17,5,42,127,2055468468
116,20,5,ISIP_5,18,1,48,34,2055963344
116,20,5,ISIP_5,19,5,42,127,2055968088
116,20,5,ISIP_5,20,5,42,127,2056467716
116,20,5,ISIP_5,21,1,48,32,2056469056
116,20,5,ISIP_5,22,1,48,35,2056942840
116,20,5,ISIP_5,23,5,42,127,2056967480
116,20,5,ISIP_5,24,1,48,34,2057462648
116,20,5,ISIP_5,25,5,42,127,2057468444
116,20,5,ISIP_5,26,5,42,127,2057968148
116,20,5,ISIP_5,27,1,48,31,2057980836
116,20,5,ISIP_5,28,1,48,26,2058465336
116,20,5,ISIP_5,29,5,42,127,2058467688
116,20,5,ISIP_5,30,1,48,30,2058966388
116,20,5,ISIP_5,31,5,42,127,2058968356
116,20,5,ISIP_5,32,1,48,27,2059467832
116,20,5,ISIP_5,33,5,42,127,2059469392
116,20,5,ISIP_5,34,1,48,29,2059965240
116,20,5,ISIP_5,35,5,42,127,2059967892
116,20,5,ISIP_5,36,5,42,127,2060467444
116,20,5,ISIP_5,37,1,48,34,2060473780
116,20,5,ISIP_5,38,1,48,24,2060966140
116,20,5,ISIP_5,39,5,42,127,2060968256
116,20,5,ISIP_5,40,5,42,127,2061467956
116,20,5,ISIP_5,41,1,48,29,2061474812
116,20,5,ISIP_5,42,1,48,18,2061960804
116,20,5,ISIP_5,43,5,42,127,2061967796
116,20,5,ISIP_5,44,1,48,28,2062461472
116,20,5,ISIP_5,45,5,42,127,2062467340
116,20,5,ISIP_5,46,1,48,29,2062951264
116,20,5,ISIP_5,47,5,42,127,2062968156
116,20,5,ISIP_5,48,1,48,27,2063439072
116,20,5,ISIP_5,49,5,42,127,2063467900
116,20,5,ISIP_5,50,1,48,32,2063956564
116,20,5,ISIP_5,51,5,42,127,2063967444
116,20,5,ISIP_5,52,5,42,127,2064468268
116,20,5,ISIP_5,53,1,48,29,2064475276
116,20,5,ISIP_5,54,1,48,27,2064961188
116,20,5,ISIP_5,55,5,42,127,2064968180
116,20,5,ISIP_5,56,1,48,27,2065461412
116,20,5,ISIP_5,57,5,42,127,2065467724
116,20,5,ISIP_5,58,1,48,24,2065932680
116,20,5,ISIP_5,59,5,42,127,2065967420
116,20,5,ISIP_5,60,1,48,30,2066420860
116,20,5,ISIP_5,61,5,42,127,2066468160
116,20,5,ISIP_5,62,1,48,31,2066956976
116,20,5,ISIP_5,63,5,42,127,2066967928
116,20,5,ISIP_5,64,5,42,127,2067467632
116,20,5,ISIP_5,65,1,48,22,2067477708
116,20,5,ISIP_5,66,1,48,24,2067961376
116,20,5,ISIP_5,67,5,42,127,2067968292
116,20,5,ISIP_5,68,1,48,24,2068462120
116,20,5,ISIP_5,69,5,42,127,2068468360
116,20,5,ISIP_5,70,1,48,15,2068758040
116,20,5,ISIP_5,71,5,42,127,2068967668
116,20,5,ISIP_5,72,1,48,22,2069004816
116,20,5,ISIP_5,73,1,48,25,2069458120
116,20,5,ISIP_5,74,5,42,127,2069467580
116,20,5,ISIP_5,75,1,48,25,2069959688
116,20,5,ISIP_5,76,5,42,127,2069968392
116,20,5,ISIP_5,77,1,48,27,2070467700
116,20,5,ISIP_5,78,1,48,28,2070983920
116,20,5,ISIP_5,79,1,48,23,2071496996
116,20,5,ISIP_5,80,1,48,26,2072020400
116,20,5,ISIP_5,81,1,48,27,2072523228
116,20,5,ISIP_5,82,1,48,24,2073024568
116,20,5,ISIP_5,83,1,48,27,2073557020
116,20,5,ISIP_5,84,1,48,23,2074045564
116,20,5,ISIP_5,85,1,48,21,2074568968
116,20,5,ISIP_5,86,1,48,26,2075075460
116,20,5,ISIP_5,87,1,48,19,2075573284
116,20,5,ISIP_5,88,1,48,24,2076087412
116,20,5,ISIP_5,89,1,48,26,2076611184
116,20,5,ISIP_5,90,1,48,24,2077117080
116,20,5,ISIP_5,91,1,48,20,2077607424
116,20,5,ISIP_5,92,1,48,21,2078118852
116,20,5,ISIP_5,93,1,48,26,2078618024
116,20,5,ISIP_5,94,1,48,26,2079128716
116,20,5,ISIP_5,95,1,48,26,2079663028
116,20,5,ISIP_5,96,1,48,28,2080194508
116,20,5,ISIP_5,97,1,48,26,2080675132
116,20,5,ISIP_5,98,1,48,23,2081190980
116,20,5,ISIP_5,99,1,48,23,2081686632
116,20,5,ISIP_5,100,1,48,29,2082184072
116,20,5,ISIP_5,101,1,48,28,2082707100
116,20,5,ISIP_5,102,1,48,24,2083204624
116,20,5,ISIP_5,103,1,48,23,2083680728
116,20,5,ISIP_5,104,1,48,26,2084196948
116,20,5,ISIP_5,105,1,48,30,2084720952
116,20,5,ISIP_5,106,1,48,27,2085233732
116,20,5,ISIP_5,107,1,48,20,2085712400
116,20,5,ISIP_5,108,1,48,20,2086234676
116,20,5,ISIP_5,109,1,48,25,2086731748
116,20,5,ISIP_5,110,1,48,24,2087249840
116,20,5,ISIP_5,111,1,48,27,2087762248
116,20,5,ISIP_5,112,1,48,27,2088255428
116,20,5,ISIP_5,113,1,48,21,2088783920
116,20,5,ISIP_5,114,1,48,25,2089287872
116,20,5,ISIP_5,115,1,48,20,2089800728
116,20,5,ISIP_5,116,1,48,26,2090321960
116,20,5,ISIP_5,117,1,48,27,2090821876
116,20,5,ISIP_5,118,1,48,28,2091338172
116,20,5,ISIP_5,119,1,48,29,2091848184
116,20,5,ISIP_5,120,1,48,26,2092360364
116,20,5,ISIP_5,121,1,48,21,2092870828
116,20,5,ISIP_5,122,1,48,27,2093369468
116,20,5,ISIP_5,123,1,48,27,2093872672
116,20,5,ISIP_5,124,1,48,22,2094358524
116,20,5,ISIP_5,125,1,48,26,2094892324
116,20,5,ISIP_5,126,1,48,29,2095411760
116,20,5,ISIP_5,127,1,48,25,2095900908
116,20,5,ISIP_5,128,1,48,27,2096404332
116,20,5,ISIP_5,129,1,48,28,2096918384
116,20,5,ISIP_5,130,1,48,31,2097418076
116,20,5,ISIP_5,131,1,48,25,2097946864
116,20,5,ISIP_5,132,1,48,18,2098437208
116,20,5,ISIP_5,133,1,48,24,2098938092
116,20,5,ISIP_5,134,1,48,24,2099454536
116,20,5,ISIP_5,135,1,48,27,2099974512
116,20,5,ISIP_5,136,1,48,29,2100468368
116,20,5,ISIP_5,137,1,48,25,2100976212
116,20,5,ISIP_5,138,1,48,20,2101478144
116,20,5,ISIP_5,139,1,48,26,2102019648
116,20,5,ISIP_5,140,1,48,25,2102493388
116,20,5,ISIP_5,141,1,48,26,2102996740
116,20,5,ISIP_5,142,1,48,19,2103522316
116,20,5,ISIP_5,143,1,48,26,2104030828
116,20,5,ISIP_5,144,1,48,25,2104517952
116,20,5,ISIP_5,145,1,48,25,2105043672
116,20,5,ISIP_5,146,1,48,23,2105537608
116,20,5,ISIP_5,147,1,48,24,2106034600
116,20,5,ISIP_5,148,1,48,25,2106544088
116,20,5,ISIP_5,149,1,48,22,2107070636
116,20,5,ISIP_5,150,1,48,20,2107557308
116,20,5,ISIP_5,151,1,48,28,2108063580
116,20,5,ISIP_5,152,1,48,23,2108600972
116,20,5,ISIP_5,153,1,48,28,2109115400
116,20,5,ISIP_5,154,1,48,25,2109624516
116,20,5,ISIP_5,155,1,48,25,2110107520
116,20,5,ISIP_5,156,1,48,24,2110623220
116,20,5,ISIP_5,157,1,48,25,2111103464
116,20,5,ISIP_5,158,1,48,21,2111631580
116,20,5,ISIP_5,159,1,48,25,2112146004
116,20,5,ISIP_5,160,1,48,25,2112640608
116,20,5,ISIP_5,161,1,48,22,2113155560
116,20,5,ISIP_5,162,1,48,24,2113659512
116,20,5,ISIP_5,163,1,48,20,2114178132
116,20,5,ISIP_5,164,1,48,26,2114689712
116,20,5,ISIP_5,165,1,48,27,2115189624
116,20,5,ISIP_5,166,1,48,27,2115704424
116,20,5,ISIP_5,167,1,48,24,2116214660
116,20,5,ISIP_5,168,1,48,25,2116722432
116,20,5,ISIP_5,169,1,48,25,2117236256
116,20,5,ISIP_5,170,1,48,21,2117746420
116,20,5,ISIP_5,171,1,48,23,2118264288
116,20,5,ISIP_5,172,1,48,21,2118795396
116,20,5,ISIP_5,173,1,48,22,2119301816
116,20,5,ISIP_5,174,1,48,19,2119818264
116,20,5,ISIP_5,175,1,48,17,2120316232
116,20,5,ISIP_5,176,1,48,19,2120847260
116,20,5,ISIP_5,177,1,48,23,2121349720
116,20,5,ISIP_5,178,1,48,21,2121834652
116,20,5,ISIP_5,179,1,48,20,2122352292
116,20,5,ISIP_5,180,1,48,24,2122854000
116,20,5,ISIP_5,181,1,48,28,2123377500
116,20,5,ISIP_5,182,1,48,26,2123867964
116,20,5,ISIP_5,183,1,48,21,2124371768
116,20,5,ISIP_5,184,1,48,27,2124882232
116,20,5,ISIP_5,185,1,48,26,2125395984
116,20,5,ISIP_5,186,1,48,27,2125884004
116,20,5,ISIP_5,187,1,48,26,2126411896
116,20,5,ISIP_5,188,1,48,27,2126931928
116,20,5,ISIP_5,189,1,48,20,2127437528
116,20,5,ISIP_5,190,1,48,21,2127930112
116,20,5,ISIP_5,191,1,48,28,2128431452
116,20,5,ISIP_5,192,1,48,30,2128965320
116,20,5,ISIP_5,193,1,48,26,2129464188
116,20,5,ISIP_5,194,1,48,27,2129978704
116,20,5,ISIP_5,0,9999,9999,9999,2050465884
116,20,5,ISIP_5,1,9999,9999,9999,2050965604
116,20,5,ISIP_5,2,9999,9999,9999,2051465320
116,20,5,ISIP_5,3,9999,9999,9999,2051966008
116,20,5,ISIP_5,4,9999,9999,9999,2052465768
116,20,5,ISIP_5,5,9999,9999,9999,2052965464
116,20,5,ISIP_5,6,9999,9999,9999,2053465156
116,20,5,ISIP_5,7,9999,9999,9999,2053965904
116,20,5,ISIP_5,8,9999,9999,9999,2054465600
116,20,5,ISIP_5,9,9999,9999,9999,2054965368
116,20,5,ISIP_5,10,9999,9999,9999,2055466032
116,20,5,ISIP_5,11,9999,9999,9999,2055965800
116,20,5,ISIP_5,12,9999,9999,9999,2056465504
116,20,5,ISIP_5,13,9999,9999,9999,2056965192
116,20,5,ISIP_5,14,9999,9999,9999,2057465932
116,20,5,ISIP_5,15,9999,9999,9999,2057965636
116,20,5,ISIP_5,16,9999,9999,9999,2058465400
116,20,5,ISIP_5,17,9999,9999,9999,2058966104
116,20,5,ISIP_5,18,9999,9999,9999,2059465840
116,20,5,ISIP_5,19,9999,9999,9999,2059965532
116,20,5,ISIP_5,20,9999,9999,9999,2060465232
116,20,5,ISIP_5,21,9999,9999,9999,2060966004
116,20,5,ISIP_5,22,9999,9999,9999,2061465668
116,20,5,ISIP_5,23,9999,9999,9999,2061965432
116,20,5,ISIP_5,24,9999,9999,9999,2062465128
116,20,5,ISIP_5,25,9999,9999,9999,2062965868
116,20,5,ISIP_5,26,9999,9999,9999,2063465536
116,20,5,ISIP_5,27,9999,9999,9999,2063965232
116,20,5,ISIP_5,28,9999,9999,9999,2064465980
116,20,5,ISIP_5,29,9999,9999,9999,2064965744
116,20,5,ISIP_5,30,9999,9999,9999,2065465436
116,20,5,ISIP_5,31,9999,9999,9999,2065965132
116,20,5,ISIP_5,32,9999,9999,9999,2066465872
116,20,5,ISIP_5,33,9999,9999,9999,2066965568
116,20,5,ISIP_5,34,9999,9999,9999,2067465268
116,20,5,ISIP_5,35,9999,9999,9999,2067966004
116,20,5,ISIP_5,36,9999,9999,9999,2068465772
116,20,5,ISIP_5,37,9999,9999,9999,2068965452
116,20,5,ISIP_5,38,9999,9999,9999,2069465140
116,20,5,ISIP_5,39,9999,9999,9999,2069965884
116,20,5,ISIP_5,40,9999,9999,9999,2070465584
116,20,5,ISIP_5,41,9999,9999,9999,2070965348
116,20,5,ISIP_5,42,9999,9999,9999,2071466088
116,20,5,ISIP_5,43,9999,9999,9999,2071965780
116,20,5,ISIP_5,44,9999,9999,9999,2072465468
116,20,5,ISIP_5,45,9999,9999,9999,2072965236
116,20,5,ISIP_5,46,9999,9999,9999,2073465972
116,20,5,ISIP_5,47,9999,9999,9999,2073965636
116,20,5,ISIP_5,48,9999,9999,9999,2074465328
116,20,5,ISIP_5,49,9999,9999,9999,2074966064
116,20,5,ISIP_5,50,9999,9999,9999,2075465828
116,20,5,ISIP_5,51,9999,9999,9999,2075965520
116,20,5,ISIP_5,52,9999,9999,9999,2076465212
116,20,5,ISIP_5,53,9999,9999,9999,2076965948
116,20,5,ISIP_5,54,9999,9999,9999,2077465712
116,20,5,ISIP_5,55,9999,9999,9999,2077965404
116,20,5,ISIP_5,56,9999,9999,9999,2078465096
116,20,5,ISIP_5,57,9999,9999,9999,2078965832
116,20,5,ISIP_5,58,9999,9999,9999,2079465524
116,20,5,ISIP_5,59,9999,9999,9999,2079965292
116,20,5,ISIP_5,60,9999,9999,9999,2080466028
116,20,5,ISIP_5,61,9999,9999,9999,2080965720
116,20,5,ISIP_5,62,9999,9999,9999,2081465408
116,20,5,ISIP_5,63,9999,9999,9999,2081965172
116,20,5,ISIP_5,64,9999,9999,9999,2082465912
116,20,5,ISIP_5,65,9999,9999,9999,2082965600
116,20,5,ISIP_5,66,9999,9999,9999,2083465292
116,20,5,ISIP_5,67,9999,9999,9999,2083966032
116,20,5,ISIP_5,68,9999,9999,9999,2084465768
116,20,5,ISIP_5,69,9999,9999,9999,2084965460
116,20,5,ISIP_5,70,9999,9999,9999,2085465152
116,20,5,ISIP_5,71,9999,9999,9999,2085965888
116,20,5,ISIP_5,72,9999,9999,9999,2086465652
116,20,5,ISIP_5,73,9999,9999,9999,2086965344
116,20,5,ISIP_5,74,9999,9999,9999,2087466080
116,20,5,ISIP_5,75,9999,9999,9999,2087965772
116,20,5,ISIP_5,76,9999,9999,9999,2088465460
116,20,5,ISIP_5,77,9999,9999,9999,2088965228
116,20,5,ISIP_5,78,9999,9999,9999,2089465964
116,20,5,ISIP_5,79,9999,9999,9999,2089965652
116,20,5,ISIP_5,80,9999,9999,9999,2090465344
116,20,5,ISIP_5,81,9999,9999,9999,2090966084
116,20,5,ISIP_5,82,9999,9999,9999,2091465848
116,20,5,ISIP_5,83,9999,9999,9999,2091965540
116,20,5,ISIP_5,84,9999,9999,9999,2092465228
116,20,5,ISIP_5,85,9999,9999,9999,2092965968
116,20,5,ISIP_5,86,9999,9999,9999,2093465672
116,20,5,ISIP_5,87,9999,9999,9999,2093965364
116,20,5,ISIP_5,88,9999,9999,9999,2094465112
116,20,5,ISIP_5,89,9999,9999,9999,2094965864
116,20,5,ISIP_5,90,9999,9999,9999,2095465532
116,20,5,ISIP_5,91,9999,9999,9999,2095965296
116,20,5,ISIP_5,92,9999,9999,9999,2096466032
116,20,5,ISIP_5,93,9999,9999,9999,2096965724
116,20,5,ISIP_5,94,9999,9999,9999,2097465416
116,20,5,ISIP_5,95,9999,9999,9999,2097965104
116,20,5,ISIP_5,96,9999,9999,9999,2098465844
116,20,5,ISIP_5,97,9999,9999,9999,2098965608
116,20,5,ISIP_5,98,9999,9999,9999,2099465300
116,20,5,ISIP_5,99,9999,9999,9999,2099966044
116,20,5,ISIP_5,100,9999,9999,9999,2100465732
116,20,5,ISIP_5,101,9999,9999,9999,2100965424
116,20,5,ISIP_5,102,9999,9999,9999,2101465188
116,20,5,ISIP_5,103,9999,9999,9999,2101965928
116,20,5,ISIP_5,104,9999,9999,9999,2102465616
116,20,5,ISIP_5,105,9999,9999,9999,2102965308
116,20,5,ISIP_5,106,9999,9999,9999,2103466048
116,20,5,ISIP_5,107,9999,9999,9999,2103965812
116,20,5,ISIP_5,108,9999,9999,9999,2104465500
116,20,5,ISIP_5,109,9999,9999,9999,2104965192
116,20,5,ISIP_5,110,9999,9999,9999,2105465932
116,20,5,ISIP_5,111,9999,9999,9999,2105965668
116,20,5,ISIP_5,112,9999,9999,9999,2106465360
116,20,5,ISIP_5,113,9999,9999,9999,2106966100
116,20,5,ISIP_5,114,9999,9999,9999,2107465788
116,20,5,ISIP_5,115,9999,9999,9999,2107965556
116,20,5,ISIP_5,116,9999,9999,9999,2108465248
116,20,5,ISIP_5,117,9999,9999,9999,2108965984
116,20,5,ISIP_5,118,9999,9999,9999,2109465676
116,20,5,ISIP_5,119,9999,9999,9999,2109965364
116,20,5,ISIP_5,120,9999,9999,9999,2110465132
116,20,5,ISIP_5,121,9999,9999,9999,2110965868
116,20,5,ISIP_5,122,9999,9999,9999,2111465560
116,20,5,ISIP_5,123,9999,9999,9999,2111965252
116,20,5,ISIP_5,124,9999,9999,9999,2112465988
116,20,5,ISIP_5,125,9999,9999,9999,2112965680
116,20,5,ISIP_5,126,9999,9999,9999,2113465444
116,20,5,ISIP_5,127,9999,9999,9999,2113965140
116,20,5,ISIP_5,128,9999,9999,9999,2114465876
116,20,5,ISIP_5,129,9999,9999,9999,2114965564
116,20,5,ISIP_5,130,9999,9999,9999,2115465332
116,20,5,ISIP_5,131,9999,9999,9999,2115966068
116,20,5,ISIP_5,132,9999,9999,9999,2116465760
116,20,5,ISIP_5,133,9999,9999,9999,2116965424
116,20,5,ISIP_5,134,9999,9999,9999,2117465192
116,20,5,ISIP_5,135,9999,9999,9999,2117965928
116,20,5,ISIP_5,136,9999,9999,9999,2118465616
116,20,5,ISIP_5,137,9999,9999,9999,2118965308
116,20,5,ISIP_5,138,9999,9999,9999,2119466044
116,20,5,ISIP_5,139,9999,9999,9999,2119965812
116,20,5,ISIP_5,140,9999,9999,9999,2120465500
116,20,5,ISIP_5,141,9999,9999,9999,2120965192
116,20,5,ISIP_5,142,9999,9999,9999,2121465932
116,20,5,ISIP_5,143,9999,9999,9999,2121965620
116,20,5,ISIP_5,144,9999,9999,9999,2122465384
116,20,5,ISIP_5,145,9999,9999,9999,2122966124
116,20,5,ISIP_5,146,9999,9999,9999,2123465828
116,20,5,ISIP_5,147,9999,9999,9999,2123965504
116,20,5,ISIP_5,148,9999,9999,9999,2124465268
116,20,5,ISIP_5,149,9999,9999,9999,2124965944
116,20,5,ISIP_5,150,9999,9999,9999,2125465708
116,20,5,ISIP_5,151,9999,9999,9999,2125965400
116,20,5,ISIP_5,152,9999,9999,9999,2126465092
116,20,5,ISIP_5,153,9999,9999,9999,2126965828
116,20,5,ISIP_5,154,9999,9999,9999,2127465568
116,20,5,ISIP_5,155,9999,9999,9999,2127965260
116,20,5,ISIP_5,156,9999,9999,9999,2128465996
116,20,5,ISIP_5,157,9999,9999,9999,2128965688
116,20,5,ISIP_5,158,9999,9999,9999,2129465452
116,20,5,ISIP_5,159,9999,9999,9999,2129965148
116,21,3,ISIP_8,0,5,42,127,2157310224
116,21,3,ISIP_8,1,5,42,127,2158110052
116,21,3,ISIP_8,2,5,42,127,2158909732
116,21,3,ISIP_8,3,5,42,127,2159709636
116,21,3,ISIP_8,4,1,48,19,2160465972
116,21,3,ISIP_8,5,5,42,127,2160510308
116,21,3,ISIP_8,6,1,48,28,2161246628
116,21,3,ISIP_8,7,5,42,127,2161310040
116,21,3,ISIP_8,8,1,48,32,2162047360
116,21,3,ISIP_8,9,5,42,127,2162109852
116,21,3,ISIP_8,10,1,48,32,2162879632
116,21,3,ISIP_8,11,5,42,127,2162909508
116,21,3,ISIP_8,12,1,48,31,2163631644
116,21,3,ISIP_8,13,5,42,127,2163710588
116,21,3,ISIP_8,14,1,48,29,2164439752
116,21,3,ISIP_8,15,5,42,127,2164510100
116,21,3,ISIP_8,16,1,48,33,2165247492
116,21,3,ISIP_8,17,5,42,127,2165309684
116,21,3,ISIP_8,18,1,48,34,2166099136
116,21,3,ISIP_8,19,5,42,127,2166109564
116,21,3,ISIP_8,20,1,48,22,2166891840
116,21,3,ISIP_8,21,5,42,127,2166910296
116,21,3,ISIP_8,22,1,48,30,2167680080
116,21,3,ISIP_8,23,5,42,127,2167710032
116,21,3,ISIP_8,24,1,48,29,2168474952
116,21,3,ISIP_8,25,5,42,127,2168509764
116,21,3,ISIP_8,26,5,42,127,2169309580
116,21,3,ISIP_8,27,1,48,35,2169310916
116,21,3,ISIP_8,28,5,42,127,2170110432
116,21,3,ISIP_8,29,1,48,34,2170113552
116,21,3,ISIP_8,30,1,48,33,2170892024
116,21,3,ISIP_8,31,5,42,127,2170910088
116,21,3,ISIP_8,32,1,48,31,2171691908
116,21,3,ISIP_8,33,5,42,127,2171709744
116,21,3,ISIP_8,34,1,48,26,2172475564
116,21,3,ISIP_8,35,5,42,127,2172509480
116,21,3,ISIP_8,36,1,48,40,2173283452
116,21,3,ISIP_8,37,5,42,127,2173310360
116,21,3,ISIP_8,38,5,42,127,2174110172
116,21,3,ISIP_8,39,1,48,32,2174122716
116,21,3,ISIP_8,40,5,42,127,2174909832
116,21,3,ISIP_8,41,1,48,34,2174921928
116,21,3,ISIP_8,42,1,48,31,2175697936
116,21,3,ISIP_8,43,5,42,127,2175709488
116,21,3,ISIP_8,44,1,48,30,2176497820
116,21,3,ISIP_8,45,5,42,127,2176510340
116,21,3,ISIP_8,46,1,48,30,2177271372
116,21,3,ISIP_8,47,5,42,127,2177309924
116,21,3,ISIP_8,48,1,48,31,2178104464
116,21,3,ISIP_8,49,5,42,127,2178109732
116,21,3,ISIP_8,50,5,42,127,2178909400
116,21,3,ISIP_8,51,1,48,29,2178924184
116,21,3,ISIP_8,52,1,48,30,2179704624
116,21,3,ISIP_8,53,5,42,127,2179710272
116,21,3,ISIP_8,54,5,42,127,2180510084
116,21,3,ISIP_8,55,1,48,26,2180527040
116,21,3,ISIP_8,56,1,48,32,2181306564
116,21,3,ISIP_8,57,1,48,28,2182085568
116,21,3,ISIP_8,58,1,48,31,2182911272
116,21,3,ISIP_8,59,1,48,25,2183710176
116,21,3,ISIP_8,60,1,48,26,2184504584
116,21,3,ISIP_8,61,1,48,25,2185316368
116,21,3,ISIP_8,62,1,48,21,2186113280
116,21,3,ISIP_8,63,1,48,21,2186935372
116,21,3,ISIP_8,64,1,48,27,2187710644
116,21,3,ISIP_8,65,1,48,32,2188514256
116,21,3,ISIP_8,66,1,48,25,2189314140
116,21,3,ISIP_8,67,1,48,31,2190119032
116,21,3,ISIP_8,68,1,48,29,2190958272
116,21,3,ISIP_8,69,1,48,32,2191712876
116,21,3,ISIP_8,70,1,48,20,2192525944
116,21,3,ISIP_8,71,1,48,21,2193301728
116,21,3,ISIP_8,72,1,48,25,2194099288
116,21,3,ISIP_8,73,1,48,26,2194914436
116,21,3,ISIP_8,74,1,48,23,2195716112
116,21,3,ISIP_8,75,1,48,25,2196527284
116,21,3,ISIP_8,76,1,48,27,2197326560
116,21,3,ISIP_8,77,1,48,18,2198091348
116,21,3,ISIP_8,78,1,48,24,2198903516
116,21,3,ISIP_8,79,1,48,22,2199720464
116,21,3,ISIP_8,80,1,48,28,2200505744
116,21,3,ISIP_8,81,1,48,26,2201278920
116,21,3,ISIP_8,82,1,48,32,2202124060
116,21,3,ISIP_8,83,1,48,25,2202907172
116,21,3,ISIP_8,84,1,48,23,2203691868
116,21,3,ISIP_8,85,1,48,23,2204469156
116,21,3,ISIP_8,86,1,48,28,2205296740
116,21,3,ISIP_8,87,1,48,24,2206122064
116,21,3,ISIP_8,88,1,48,19,2206890880
116,21,3,ISIP_8,89,1,48,26,2207660992
116,21,3,ISIP_8,90,1,48,22,2208467676
116,21,3,ISIP_8,91,1,48,20,2209276532
116,21,3,ISIP_8,92,1,48,19,2210069380
116,21,3,ISIP_8,93,1,48,23,2210882420
116,21,3,ISIP_8,94,1,48,24,2211681332
116,21,3,ISIP_8,95,1,48,24,2212465372
116,21,3,ISIP_8,96,1,48,16,2213250520
116,21,3,ISIP_8,97,1,48,18,2214059524
116,21,3,ISIP_8,98,1,48,21,2214862020
116,21,3,ISIP_8,99,1,48,17,2215617768
116,21,3,ISIP_8,100,1,48,21,2216397900
116,21,3,ISIP_8,101,1,48,21,2217187004
116,21,3,ISIP_8,102,1,48,21,2217986736
116,21,3,ISIP_8,103,1,48,20,2218780552
116,21,3,ISIP_8,104,1,48,24,2219568916
116,21,3,ISIP_8,105,1,48,21,2220375972
116,21,3,ISIP_8,106,1,48,21,2221169444
116,21,3,ISIP_8,107,1,48,28,2222718364
116,21,3,ISIP_8,108,1,48,24,2223491616
116,21,3,ISIP_8,109,1,48,29,2224302640
116,21,3,ISIP_8,110,1,48,28,2225060932
116,21,3,ISIP_8,111,1,48,22,2225853104
116,21,3,ISIP_8,112,1,48,26,2226621648
116,21,3,ISIP_8,113,1,48,23,2227439544
116,21,3,ISIP_8,114,1,48,28,2228217888
116,21,3,ISIP_8,115,1,48,26,2229001760
116,21,3,ISIP_8,116,1,48,30,2229813152
116,21,3,ISIP_8,117,1,48,22,2230630012
116,21,3,ISIP_8,118,1,48,26,2231403412
116,21,3,ISIP_8,119,1,48,29,2232174048
116,21,3,ISIP_8,120,1,48,22,2232977892
116,21,3,ISIP_8,121,1,48,28,2233771116
116,21,3,ISIP_8,122,1,48,28,2234547356
116,21,3,ISIP_8,123,1,48,26,2235363392
116,21,3,ISIP_8,124,1,48,29,2236176512
116,21,3,ISIP_8,125,1,48,26,2236923800
116,21,3,ISIP_8,126,1,48,27,2237741116
116,21,3,ISIP_8,127,1,48,26,2238550044
116,21,3,ISIP_8,128,1,48,23,2239313712
116,21,3,ISIP_8,129,1,48,25,2240136056
116,21,3,ISIP_8,130,1,48,26,2240917308
116,21,3,ISIP_8,131,1,48,26,2241702012
116,21,3,ISIP_8,132,1,48,25,2242524700
116,21,3,ISIP_8,133,1,48,21,2243322184
116,21,3,ISIP_8,134,1,48,29,2244096036
116,21,3,ISIP_8,135,1,48,32,2244894792
116,21,3,ISIP_8,136,1,48,29,2245706260
116,21,3,ISIP_8,137,1,48,28,2246496344
116,21,3,ISIP_8,138,1,48,29,2247253512
116,21,3,ISIP_8,139,1,48,25,2248070472
116,21,3,ISIP_8,140,1,48,24,2248849480
116,21,3,ISIP_8,141,1,48,30,2249620936
116,21,3,ISIP_8,142,1,48,29,2250392092
116,21,3,ISIP_8,143,1,48,24,2251209024
116,21,3,ISIP_8,144,1,48,30,2252011220
116,21,3,ISIP_8,145,1,48,27,2252797636
116,21,3,ISIP_8,146,1,48,29,2253601332
116,21,3,ISIP_8,147,1,48,27,2254368824
116,21,3,ISIP_8,148,1,48,30,2255218312
116,21,3,ISIP_8,149,1,48,24,2256027172
116,21,3,ISIP_8,150,1,48,27,2256807152
116,21,3,ISIP_8,151,1,48,30,2257595284
116,21,3,ISIP_8,152,1,48,27,2258405788
116,21,3,ISIP_8,153,1,48,30,2259207240
116,21,3,ISIP_8,154,1,48,21,2260015940
116,21,3,ISIP_8,155,1,48,30,2260811036
116,21,3,ISIP_8,156,1,48,27,2261594080
116,21,3,ISIP_8,157,1,48,22,2262382768
116,21,3,ISIP_8,158,1,48,28,2263193340
116,21,3,ISIP_8,159,1,48,27,2263996588
116,21,3,ISIP_8,160,1,48,24,2264761464
116,21,3,ISIP_8,161,1,48,24,2265593204
116,21,3,ISIP_8,162,1,48,28,2266382008
116,21,3,ISIP_8,163,1,48,27,2267188472
116,21,3,ISIP_8,164,1,48,30,2267982144
116,21,3,ISIP_8,165,1,48,29,2268733848
116,21,3,ISIP_8,166,1,48,27,2269561576
116,21,3,ISIP_8,167,1,48,29,2270383372
116,21,3,ISIP_8,168,1,48,20,2271177116
116,21,3,ISIP_8,169,1,48,24,2271973556
116,21,3,ISIP_8,170,1,48,26,2272750244
116,21,3,ISIP_8,171,1,48,32,2273545340
116,21,3,ISIP_8,172,1,48,31,2274315372
116,21,3,ISIP_8,173,1,48,30,2275119292
116,21,3,ISIP_8,174,1,48,25,2275917148
116,21,3,ISIP_8,175,1,48,33,2276686432
116,21,3,ISIP_8,0,9999,9999,9999,2157308008
116,21,3,ISIP_8,1,9999,9999,9999,2158107764
116,21,3,ISIP_8,2,9999,9999,9999,2158907444
116,21,3,ISIP_8,3,9999,9999,9999,2159707200
116,21,3,ISIP_8,4,9999,9999,9999,2160508020
116,21,3,ISIP_8,5,9999,9999,9999,2161307752
116,21,3,ISIP_8,6,9999,9999,9999,2162107488
116,21,3,ISIP_8,7,9999,9999,9999,2162907220
116,21,3,ISIP_8,8,9999,9999,9999,2163708000
116,21,3,ISIP_8,9,9999,9999,9999,2164507736
116,21,3,ISIP_8,10,9999,9999,9999,2165307468
116,21,3,ISIP_8,11,9999,9999,9999,2166107204
116,21,3,ISIP_8,12,9999,9999,9999,2166908008
116,21,3,ISIP_8,13,9999,9999,9999,2167707744
116,21,3,ISIP_8,14,9999,9999,9999,2168507476
116,21,3,ISIP_8,15,9999,9999,9999,2169307216
116,21,3,ISIP_8,16,9999,9999,9999,2170107996
116,21,3,ISIP_8,17,9999,9999,9999,2170907720
116,21,3,ISIP_8,18,9999,9999,9999,2171707456
116,21,3,ISIP_8,19,9999,9999,9999,2172507192
116,21,3,ISIP_8,20,9999,9999,9999,2173307996
116,21,3,ISIP_8,21,9999,9999,9999,2174107736
116,21,3,ISIP_8,22,9999,9999,9999,2174907468
116,21,3,ISIP_8,23,9999,9999,9999,2175707196
116,21,3,ISIP_8,24,9999,9999,9999,2176507976
116,21,3,ISIP_8,25,9999,9999,9999,2177307712
116,21,3,ISIP_8,26,9999,9999,9999,2178107444
116,21,3,ISIP_8,27,9999,9999,9999,2178907184
116,21,3,ISIP_8,28,9999,9999,9999,2179707980
116,21,3,ISIP_8,29,9999,9999,9999,2180507720
116,21,3,ISIP_8,30,9999,9999,9999,2181307448
116,21,3,ISIP_8,31,9999,9999,9999,2182107252
116,21,3,ISIP_8,32,9999,9999,9999,2182907960
116,21,3,ISIP_8,33,9999,9999,9999,2183707764
116,21,3,ISIP_8,34,9999,9999,9999,2184507488
116,21,3,ISIP_8,35,9999,9999,9999,2185307224
116,21,3,ISIP_8,36,9999,9999,9999,2186108024
116,21,3,ISIP_8,37,9999,9999,9999,2186907752
116,21,3,ISIP_8,38,9999,9999,9999,2187707480
116,21,3,ISIP_8,39,9999,9999,9999,2188507212
116,21,3,ISIP_8,40,9999,9999,9999,2189307984
116,21,3,ISIP_8,41,9999,9999,9999,2190107716
116,21,3,ISIP_8,42,9999,9999,9999,2190907444
116,21,3,ISIP_8,43,9999,9999,9999,2191707248
116,21,3,ISIP_8,44,9999,9999,9999,2192507976
116,21,3,ISIP_8,45,9999,9999,9999,2193307696
116,21,3,ISIP_8,46,9999,9999,9999,2194107500
116,21,3,ISIP_8,47,9999,9999,9999,2194907236
116,21,3,ISIP_8,48,9999,9999,9999,2195708012
116,21,3,ISIP_8,49,9999,9999,9999,2196507740
116,21,3,ISIP_8,50,9999,9999,9999,2197307472
116,21,3,ISIP_8,51,9999,9999,9999,2198107192
116,21,3,ISIP_8,52,9999,9999,9999,2198907992
116,21,3,ISIP_8,53,9999,9999,9999,2199707728
116,21,3,ISIP_8,54,9999,9999,9999,2200507452
116,21,3,ISIP_8,55,9999,9999,9999,2201307180
116,21,3,ISIP_8,56,9999,9999,9999,2202107964
116,21,3,ISIP_8,57,9999,9999,9999,2202907760
116,21,3,ISIP_8,58,9999,9999,9999,2203707492
116,21,3,ISIP_8,59,9999,9999,9999,2204507220
116,21,3,ISIP_8,60,9999,9999,9999,2205308020
116,21,3,ISIP_8,61,9999,9999,9999,2206107756
116,21,3,ISIP_8,62,9999,9999,9999,2206907476
116,21,3,ISIP_8,63,9999,9999,9999,2207707208
116,21,3,ISIP_8,64,9999,9999,9999,2208507984
116,21,3,ISIP_8,65,9999,9999,9999,2209307712
116,21,3,ISIP_8,66,9999,9999,9999,2210107444
116,21,3,ISIP_8,67,9999,9999,9999,2210907244
116,21,3,ISIP_8,68,9999,9999,9999,2211707972
116,21,3,ISIP_8,69,9999,9999,9999,2212507700
116,21,3,ISIP_8,70,9999,9999,9999,2213307504
116,21,3,ISIP_8,71,9999,9999,9999,2214107232
116,21,3,ISIP_8,72,9999,9999,9999,2214908008
116,21,3,ISIP_8,73,9999,9999,9999,2215707736
116,21,3,ISIP_8,74,9999,9999,9999,2216507452
116,21,3,ISIP_8,75,9999,9999,9999,2217307256
116,21,3,ISIP_8,76,9999,9999,9999,2218107980
116,21,3,ISIP_8,77,9999,9999,9999,2218907712
116,21,3,ISIP_8,78,9999,9999,9999,2219707440
116,21,3,ISIP_8,79,9999,9999,9999,2220507244
116,21,3,ISIP_8,80,9999,9999,9999,2221308020
116,21,3,ISIP_8,81,9999,9999,9999,2222107696
116,21,3,ISIP_8,82,9999,9999,9999,2222907500
116,21,3,ISIP_8,83,9999,9999,9999,2223707232
116,21,3,ISIP_8,84,9999,9999,9999,2224507956
116,21,3,ISIP_8,85,9999,9999,9999,2225307760
116,21,3,ISIP_8,86,9999,9999,9999,2226107492
116,21,3,ISIP_8,87,9999,9999,9999,2226907220
116,21,3,ISIP_8,88,9999,9999,9999,2227707996
116,21,3,ISIP_8,89,9999,9999,9999,2228507724
116,21,3,ISIP_8,90,9999,9999,9999,2229307456
116,21,3,ISIP_8,91,9999,9999,9999,2230107184
116,21,3,ISIP_8,92,9999,9999,9999,2230907984
116,21,3,ISIP_8,93,9999,9999,9999,2231707764
116,21,3,ISIP_8,94,9999,9999,9999,2232507496
116,21,3,ISIP_8,95,9999,9999,9999,2233307224
116,21,3,ISIP_8,96,9999,9999,9999,2234108000
116,21,3,ISIP_8,97,9999,9999,9999,2234907728
116,21,3,ISIP_8,98,9999,9999,9999,2235707460
116,21,3,ISIP_8,99,9999,9999,9999,2236507188
116,21,3,ISIP_8,100,9999,9999,9999,2237307988
116,21,3,ISIP_8,101,9999,9999,9999,2238107716
116,21,3,ISIP_8,102,9999,9999,9999,2238907444
116,21,3,ISIP_8,103,9999,9999,9999,2239707248
116,21,3,ISIP_8,104,9999,9999,9999,2240507952
116,21,3,ISIP_8,105,9999,9999,9999,2241307752
116,21,3,ISIP_8,106,9999,9999,9999,2242107484
116,21,3,ISIP_8,107,9999,9999,9999,2242907212
116,21,3,ISIP_8,108,9999,9999,9999,2243708012
116,21,3,ISIP_8,109,9999,9999,9999,2244507744
116,21,3,ISIP_8,110,9999,9999,9999,2245307472
116,21,3,ISIP_8,111,9999,9999,9999,2246107200
116,21,3,ISIP_8,112,9999,9999,9999,2246907976
116,21,3,ISIP_8,113,9999,9999,9999,2247707708
116,21,3,ISIP_8,114,9999,9999,9999,2248507512
116,21,3,ISIP_8,115,9999,9999,9999,2249307240
116,21,3,ISIP_8,116,9999,9999,9999,2250107964
116,21,3,ISIP_8,117,9999,9999,9999,2250907696
116,21,3,ISIP_8,118,9999,9999,9999,2251707500
116,21,3,ISIP_8,119,9999,9999,9999,2252507228
116,21,3,ISIP_8,120,9999,9999,9999,2253308004
116,21,3,ISIP_8,121,9999,9999,9999,2254107732
116,21,3,ISIP_8,122,9999,9999,9999,2254907460
116,21,3,ISIP_8,123,9999,9999,9999,2255707192
116,21,3,ISIP_8,124,9999,9999,9999,2256507992
116,21,3,ISIP_8,125,9999,9999,9999,2257307724
116,21,3,ISIP_8,126,9999,9999,9999,2258107452
116,21,3,ISIP_8,127,9999,9999,9999,2258907180
116,21,3,ISIP_8,128,9999,9999,9999,2259707956
116,21,3,ISIP_8,129,9999,9999,9999,2260507760
116,21,3,ISIP_8,130,9999,9999,9999,2261307488
116,21,3,ISIP_8,131,9999,9999,9999,2262107220
116,21,3,ISIP_8,132,9999,9999,9999,2262908020
116,21,3,ISIP_8,133,9999,9999,9999,2263707748
116,21,3,ISIP_8,134,9999,9999,9999,2264507480
116,21,3,ISIP_8,135,9999,9999,9999,2265307208
116,21,3,ISIP_8,136,9999,9999,9999,2266107984
116,21,3,ISIP_8,137,9999,9999,9999,2266907712
116,21,3,ISIP_8,138,9999,9999,9999,2267707440
116,21,3,ISIP_8,139,9999,9999,9999,2268507244
116,21,3,ISIP_8,140,9999,9999,9999,2269307968
116,21,3,ISIP_8,141,9999,9999,9999,2270107700
116,21,3,ISIP_8,142,9999,9999,9999,2270907500
116,21,3,ISIP_8,143,9999,9999,9999,2271707232
116,21,3,ISIP_8,144,9999,9999,9999,2272508008
116,21,3,ISIP_8,145,9999,9999,9999,2273307736
116,21,3,ISIP_8,146,9999,9999,9999,2274107464
116,21,3,ISIP_8,147,9999,9999,9999,2274907192
116,21,3,ISIP_8,148,9999,9999,9999,2275707996
116,21,3,ISIP_8,149,9999,9999,9999,2276507724
116,22,11,Pattern_Practice,0,5,42,127,2394320204
116,22,11,Pattern_Practice,1,5,42,127,2394819848
116,22,11,Pattern_Practice,2,5,42,127,2395319636
116,22,11,Pattern_Practice,3,5,42,127,2395820476
116,22,11,Pattern_Practice,4,5,42,127,2396320044
116,22,11,Pattern_Practice,5,1,48,30,2396335576
116,22,11,Pattern_Practice,6,1,48,31,2396572540
116,22,11,Pattern_Practice,7,5,42,127,2396819792
116,22,11,Pattern_Practice,8,1,48,35,2396823956
116,22,11,Pattern_Practice,9,1,38,66,2396842412
116,22,11,Pattern_Practice,10,1,48,29,2397095724
116,22,11,Pattern_Practice,11,1,38,54,2397236172
116,22,11,Pattern_Practice,12,5,42,127,2397319784
116,22,11,Pattern_Practice,13,1,48,29,2397358644
116,22,11,Pattern_Practice,14,1,38,50,2397482340
116,22,11,Pattern_Practice,15,1,48,36,2397637320
116,22,11,Pattern_Practice,16,5,42,127,2397820468
116,22,11,Pattern_Practice,17,1,38,66,2397911104
116,22,11,Pattern_Practice,18,1,48,30,2397913624
116,22,11,Pattern_Practice,19,1,48,28,2398170532
116,22,11,Pattern_Practice,20,5,42,127,2398319944
116,22,11,Pattern_Practice,21,1,48,31,2398420968
116,22,11,Pattern_Practice,22,1,48,27,2398652028
116,22,11,Pattern_Practice,23,5,42,127,2398819692
116,22,11,Pattern_Practice,24,1,48,40,2398909276
116,22,11,Pattern_Practice,25,1,38,63,2398920028
116,22,11,Pattern_Practice,26,1,48,29,2399131980
116,22,11,Pattern_Practice,27,1,38,45,2399272800
116,22,11,Pattern_Practice,28,5,42,127,2399320556
116,22,11,Pattern_Practice,29,1,48,31,2399384420
116,22,11,Pattern_Practice,30,1,38,46,2399508564
116,22,11,Pattern_Practice,31,1,48,35,2399610292
116,22,11,Pattern_Practice,32,5,42,127,2399820192
116,22,11,Pattern_Practice,33,1,38,58,2399882580
116,22,11,Pattern_Practice,34,1,48,43,2399892880
116,22,11,Pattern_Practice,35,1,48,29,2400117544
116,22,11,Pattern_Practice,36,5,42,127,2400319820
116,22,11,Pattern_Practice,37,1,48,35,2400369632
116,22,11,Pattern_Practice,38,1,48,29,2400593632
116,22,11,Pattern_Practice,39,5,42,127,2400819640
116,22,11,Pattern_Practice,40,1,38,51,2400858516
116,22,11,Pattern_Practice,41,1,48,41,2400861712
116,22,11,Pattern_Practice,42,1,48,24,2401069176
116,22,11,Pattern_Practice,43,1,38,54,2401227972
116,22,11,Pattern_Practice,44,5,42,127,2401320456
116,22,11,Pattern_Practice,45,1,48,35,2401326716
116,22,11,Pattern_Practice,46,1,38,48,2401462316
116,22,11,Pattern_Practice,47,1,48,38,2401568056
116,22,11,Pattern_Practice,48,5,42,127,2401820016
116,22,11,Pattern_Practice,49,1,48,41,2401826952
116,22,11,Pattern_Practice,50,1,38,62,2401834560
116,22,11,Pattern_Practice,51,1,48,31,2402073960
116,22,11,Pattern_Practice,52,5,42,127,2402319864
116,22,11,Pattern_Practice,53,1,48,38,2402329716
116,22,11,Pattern_Practice,54,1,48,37,2402556872
116,22,11,Pattern_Practice,55,5,42,127,2402819688
116,22,11,Pattern_Practice,56,1,48,46,2402822432
116,22,11,Pattern_Practice,57,1,38,63,2402825556
116,22,11,Pattern_Practice,58,1,48,40,2403062636
116,22,11,Pattern_Practice,59,1,38,66,2403238416
116,22,11,Pattern_Practice,60,5,42,127,2403320280
116,22,11,Pattern_Practice,61,1,48,32,2403458196
116,22,11,Pattern_Practice,62,1,38,54,2403603652
116,22,11,Pattern_Practice,63,5,42,127,2403820012
116,22,11,Pattern_Practice,64,1,48,44,2403845116
116,22,11,Pattern_Practice,65,1,48,37,2404317120
116,22,11,Pattern_Practice,66,5,42,127,2404319700
116,22,11,Pattern_Practice,67,1,48,36,2404565028
116,22,11,Pattern_Practice,68,1,38,59,2404812532
116,22,11,Pattern_Practice,69,1,48,43,2404818440
116,22,11,Pattern_Practice,70,5,42,127,2404820324
116,22,11,Pattern_Practice,71,1,48,35,2405051184
116,22,11,Pattern_Practice,72,1,38,56,2405210488
116,22,11,Pattern_Practice,73,1,48,38,2405317984
116,22,11,Pattern_Practice,74,5,42,127,2405319952
116,22,11,Pattern_Practice,75,1,38,48,2405456192
116,22,11,Pattern_Practice,76,1,48,41,2405560240
116,22,11,Pattern_Practice,77,5,42,127,2405819684
116,22,11,Pattern_Practice,78,1,48,49,2405833124
116,22,11,Pattern_Practice,79,1,38,61,2405843872
116,22,11,Pattern_Practice,80,1,48,35,2406070492
116,22,11,Pattern_Practice,81,5,42,127,2406319536
116,22,11,Pattern_Practice,82,1,48,40,2406328488
116,22,11,Pattern_Practice,83,1,48,37,2406578764
116,22,11,Pattern_Practice,84,5,42,127,2406820328
116,22,11,Pattern_Practice,85,1,38,50,2406831824
116,22,11,Pattern_Practice,86,1,48,43,2406836592
116,22,11,Pattern_Practice,87,1,48,33,2407062836
116,22,11,Pattern_Practice,88,1,38,47,2407211288
116,22,11,Pattern_Practice,89,5,42,127,2407320008
116,22,11,Pattern_Practice,90,1,48,38,2407330160
116,22,11,Pattern_Practice,91,1,38,42,2407441956
116,22,11,Pattern_Practice,92,1,48,38,2407564928
116,22,11,Pattern_Practice,93,1,48,48,2407816172
116,22,11,Pattern_Practice,94,5,42,127,2407819724
116,22,11,Pattern_Practice,95,1,38,54,2407825540
116,22,11,Pattern_Practice,96,1,48,28,2408086180
116,22,11,Pattern_Practice,97,5,42,127,2408320344
116,22,11,Pattern_Practice,98,1,48,36,2408335952
116,22,11,Pattern_Practice,99,1,48,38,2408605152
116,22,11,Pattern_Practice,100,5,42,127,2408820016
116,22,11,Pattern_Practice,101,1,38,48,2408865764
116,22,11,Pattern_Practice,102,1,48,43,2408868968
116,22,11,Pattern_Practice,103,1,48,32,2409082340
116,22,11,Pattern_Practice,104,1,38,45,2409220616
116,22,11,Pattern_Practice,105,5,42,127,2409319768
116,22,11,Pattern_Practice,106,1,48,38,2409343084
116,22,11,Pattern_Practice,107,1,38,39,2409450772
116,22,11,Pattern_Practice,108,1,48,38,2409574640
116,22,11,Pattern_Practice,109,5,42,127,2409819468
116,22,11,Pattern_Practice,110,1,38,52,2409828820
116,22,11,Pattern_Practice,111,1,48,45,2409832620
116,22,11,Pattern_Practice,112,1,48,35,2410083388
116,22,11,Pattern_Practice,113,5,42,127,2410320364
116,22,11,Pattern_Practice,114,1,48,37,2410329988
116,22,11,Pattern_Practice,115,1,48,32,2410569796
116,22,11,Pattern_Practice,116,1,38,51,2410801596
116,22,11,Pattern_Practice,117,1,48,46,2410814064
116,22,11,Pattern_Practice,118,5,42,127,2410819860
116,22,11,Pattern_Practice,119,1,48,35,2411045484
116,22,11,Pattern_Practice,120,1,38,57,2411207124
116,22,11,Pattern_Practice,121,5,42,127,2411319716
116,22,11,Pattern_Practice,122,1,48,27,2411377608
116,22,11,Pattern_Practice,123,1,38,48,2411541244
116,22,11,Pattern_Practice,124,5,42,127,2411820508
116,22,11,Pattern_Practice,125,1,38,55,2411821400
116,22,11,Pattern_Practice,126,1,48,54,2411826764
116,22,11,Pattern_Practice,127,5,42,127,2412320168
116,22,11,Pattern_Practice,128,1,48,36,2412336072
116,22,11,Pattern_Practice,129,1,48,24,2412588228
116,22,11,Pattern_Practice,130,5,42,127,2412819692
116,22,11,Pattern_Practice,131,1,38,55,2412831864
116,22,11,Pattern_Practice,132,1,48,44,2412846048
116,22,11,Pattern_Practice,133,1,48,37,2413102432
116,22,11,Pattern_Practice,134,1,38,53,2413264816
116,22,11,Pattern_Practice,135,5,42,127,2413319460
116,22,11,Pattern_Practice,136,1,48,21,2413448400
116,22,11,Pattern_Practice,137,1,38,45,2413570820
116,22,11,Pattern_Practice,138,5,42,127,2413820312
116,22,11,Pattern_Practice,139,1,48,47,2413845944
116,22,11,Pattern_Practice,140,1,38,48,2413849364
116,22,11,Pattern_Practice,141,5,42,127,2414319960
116,22,11,Pattern_Practice,142,1,48,39,2414334524
116,22,11,Pattern_Practice,143,1,48,36,2414584424
116,22,11,Pattern_Practice,144,1,38,56,2414814880
116,22,11,Pattern_Practice,145,5,42,127,2414819700
116,22,11,Pattern_Practice,146,1,48,49,2414835312
116,22,11,Pattern_Practice,147,1,48,38,2415041204
116,22,11,Pattern_Practice,148,1,38,41,2415049264
116,22,11,Pattern_Practice,149,1,48,46,2415222320
116,22,11,Pattern_Practice,150,5,42,127,2415320476
116,22,11,Pattern_Practice,151,1,48,46,2415530804
116,22,11,Pattern_Practice,152,1,48,47,2415807336
116,22,11,Pattern_Practice,153,1,38,60,2415813828
116,22,11,Pattern_Practice,154,5,42,127,2415820516
116,22,11,Pattern_Practice,155,5,42,127,2416320260
116,22,11,Pattern_Practice,156,1,48,37,2416331756
116,22,11,Pattern_Practice,157,1,48,23,2416579268
116,22,11,Pattern_Practice,158,1,38,53,2416818432
116,22,11,Pattern_Practice,159,5,42,127,2416821428
116,22,11,Pattern_Practice,160,1,48,47,2416837260
116,22,11,Pattern_Practice,161,1,48,37,2417066120
116,22,11,Pattern_Practice,162,1,48,21,2417177168
116,22,11,Pattern_Practice,163,5,42,127,2417320376
116,22,11,Pattern_Practice,164,1,48,46,2417596080
116,22,11,Pattern_Practice,165,5,42,127,2417820292
116,22,11,Pattern_Practice,166,1,38,54,2417888416
116,22,11,Pattern_Practice,167,1,48,40,2417896392
116,22,11,Pattern_Practice,168,5,42,127,2418319716
116,22,11,Pattern_Practice,169,1,48,34,2418362252
116,22,11,Pattern_Practice,170,1,48,21,2418601312
116,22,11,Pattern_Practice,171,5,42,127,2418819392
116,22,11,Pattern_Practice,172,1,38,57,2418823556
116,22,11,Pattern_Practice,173,1,48,39,2418842012
116,22,11,Pattern_Practice,174,1,48,25,2419059644
116,22,11,Pattern_Practice,175,1,48,18,2419205260
116,22,11,Pattern_Practice,176,5,42,127,2419320336
116,22,11,Pattern_Practice,177,1,48,16,2419565604
116,22,11,Pattern_Practice,178,5,42,127,2419819736
116,22,11,Pattern_Practice,179,1,48,41,2419835124
116,22,11,Pattern_Practice,180,1,38,52,2419838540
116,22,11,Pattern_Practice,181,1,48,29,2420310936
116,22,11,Pattern_Practice,182,5,42,127,2420319500
116,22,11,Pattern_Practice,183,1,48,33,2420565472
116,22,11,Pattern_Practice,184,1,38,68,2420810436
116,22,11,Pattern_Practice,185,5,42,127,2420820268
116,22,11,Pattern_Practice,186,1,48,48,2420823684
116,22,11,Pattern_Practice,187,1,48,50,2421040352
116,22,11,Pattern_Practice,188,1,38,41,2421043620
116,22,11,Pattern_Practice,189,1,38,59,2421298056
116,22,11,Pattern_Practice,190,1,48,52,2421308208
116,22,11,Pattern_Practice,191,5,42,127,2421320284
116,22,11,Pattern_Practice,192,1,48,42,2421551376
116,22,11,Pattern_Practice,193,1,38,50,2421558388
116,22,11,Pattern_Practice,194,1,48,43,2421801896
116,22,11,Pattern_Practice,195,1,38,54,2421812724
116,22,11,Pattern_Practice,196,5,42,127,2421819716
116,22,11,Pattern_Practice,197,1,48,48,2422053268
116,22,11,Pattern_Practice,198,1,38,57,2422063420
116,22,11,Pattern_Practice,199,5,42,127,2422319320
116,22,11,Pattern_Practice,200,1,48,49,2422320288
116,22,11,Pattern_Practice,201,1,48,45,2422553488
116,22,11,Pattern_Practice,202,1,38,64,2422816404
116,22,11,Pattern_Practice,203,5,42,127,2422820180
116,22,11,Pattern_Practice,204,1,48,61,2422826292
116,22,11,Pattern_Practice,205,1,48,44,2423053652
116,22,11,Pattern_Practice,206,1,38,61,2423192780
116,22,11,Pattern_Practice,207,1,48,46,2423300468
116,22,11,Pattern_Practice,208,5,42,127,2423320168
116,22,11,Pattern_Practice,209,1,38,48,2423423528
116,22,11,Pattern_Practice,210,1,48,47,2423570032
116,22,11,Pattern_Practice,211,5,42,127,2423819604
116,22,11,Pattern_Practice,212,1,38,59,2423823844
116,22,11,Pattern_Practice,213,1,48,55,2423842300
116,22,11,Pattern_Practice,214,1,48,41,2424079460
116,22,11,Pattern_Practice,215,5,42,127,2424320276
116,22,11,Pattern_Practice,216,1,48,46,2424328176
116,22,11,Pattern_Practice,217,1,48,36,2424581972
116,22,11,Pattern_Practice,218,5,42,127,2424820244
116,22,11,Pattern_Practice,219,1,38,55,2424822920
116,22,11,Pattern_Practice,220,1,48,53,2424842044
116,22,11,Pattern_Practice,221,1,48,44,2425069116
116,22,11,Pattern_Practice,222,1,38,52,2425193736
116,22,11,Pattern_Practice,223,5,42,127,2425320012
116,22,11,Pattern_Practice,224,1,48,47,2425321348
116,22,11,Pattern_Practice,225,1,38,43,2425435076
116,22,11,Pattern_Practice,226,1,48,45,2425559920
116,22,11,Pattern_Practice,227,5,42,127,2425819436
116,22,11,Pattern_Practice,228,1,38,62,2425820852
116,22,11,Pattern_Practice,229,1,48,56,2425827560
116,22,11,Pattern_Practice,230,1,48,31,2426046468
116,22,11,Pattern_Practice,231,5,42,127,2426320196
116,22,11,Pattern_Practice,232,1,48,53,2426323764
116,22,11,Pattern_Practice,233,1,48,48,2426560952
116,22,11,Pattern_Practice,234,5,42,127,2426820168
116,22,11,Pattern_Practice,235,1,38,50,2426827852
116,22,11,Pattern_Practice,236,1,48,56,2426831048
116,22,11,Pattern_Practice,237,1,48,48,2427061256
116,22,11,Pattern_Practice,238,1,38,50,2427206260
116,22,11,Pattern_Practice,239,5,42,127,2427319548
116,22,11,Pattern_Practice,240,1,48,52,2427321564
116,22,11,Pattern_Practice,241,1,38,43,2427432596
116,22,11,Pattern_Practice,242,1,48,58,2427572696
116,22,11,Pattern_Practice,243,5,42,127,2427820472
116,22,11,Pattern_Practice,244,1,48,57,2427834136
116,22,11,Pattern_Practice,245,1,38,53,2427837404
116,22,11,Pattern_Practice,246,1,48,48,2428090124
116,22,11,Pattern_Practice,247,5,42,127,2428320096
116,22,11,Pattern_Practice,248,1,48,48,2428333836
116,22,11,Pattern_Practice,249,1,48,50,2428592864
116,22,11,Pattern_Practice,250,1,38,62,2428815468
116,22,11,Pattern_Practice,251,5,42,127,2428819988
116,22,11,Pattern_Practice,252,1,48,55,2428844200
116,22,11,Pattern_Practice,253,1,48,48,2429096240
116,22,11,Pattern_Practice,254,1,38,65,2429261820
116,22,11,Pattern_Practice,255,1,38,49,2429286956
116,22,11,Pattern_Practice,256,5,42,127,2429319676
116,22,11,Pattern_Practice,257,1,48,41,2429475592
116,22,11,Pattern_Practice,258,1,38,57,2429629980
116,22,11,Pattern_Practice,259,5,42,127,2429820160
116,22,11,Pattern_Practice,260,1,38,60,2429869872
116,22,11,Pattern_Practice,261,1,48,60,2429889004
116,22,11,Pattern_Practice,262,5,42,127,2430320028
116,22,11,Pattern_Practice,263,1,48,46,2430359576
116,22,11,Pattern_Practice,264,1,48,37,2430582028
116,22,11,Pattern_Practice,265,5,42,127,2430819776
116,22,11,Pattern_Practice,266,1,38,58,2430821264
116,22,11,Pattern_Practice,267,1,48,51,2430842708
116,22,11,Pattern_Practice,268,1,48,34,2431061220
116,22,11,Pattern_Practice,269,1,38,55,2431208272
116,22,11,Pattern_Practice,270,5,42,127,2431320416
116,22,11,Pattern_Practice,271,1,48,43,2431329988
116,22,11,Pattern_Practice,272,1,38,47,2431436108
116,22,11,Pattern_Practice,273,1,48,47,2431572220
116,22,11,Pattern_Practice,274,5,42,127,2431820064
116,22,11,Pattern_Practice,275,1,48,54,2431830292
116,22,11,Pattern_Practice,276,1,38,60,2431833560
116,22,11,Pattern_Practice,277,1,38,50,2431858616
116,22,11,Pattern_Practice,278,1,48,43,2432087748
116,22,11,Pattern_Practice,279,5,42,127,2432319964
116,22,11,Pattern_Practice,280,1,48,41,2432341188
116,22,11,Pattern_Practice,281,1,48,50,2432568196
116,22,11,Pattern_Practice,282,1,48,32,2432786688
116,22,11,Pattern_Practice,283,5,42,127,2432819484
116,22,11,Pattern_Practice,284,1,38,53,2432846384
116,22,11,Pattern_Practice,285,1,48,31,2433062748
116,22,11,Pattern_Practice,286,1,38,45,2433177120
116,22,11,Pattern_Practice,287,5,42,127,2433320376
116,22,11,Pattern_Practice,288,1,48,45,2433327164
116,22,11,Pattern_Practice,289,1,38,48,2433439136
116,22,11,Pattern_Practice,290,1,48,51,2433575768
116,22,11,Pattern_Practice,291,1,38,58,2433809816
116,22,11,Pattern_Practice,292,5,42,127,2433820020
116,22,11,Pattern_Practice,293,1,48,55,2433849016
116,22,11,Pattern_Practice,294,1,48,42,2434084604
116,22,11,Pattern_Practice,295,1,48,45,2434317384
116,22,11,Pattern_Practice,0,9999,9999,9999,2394317916
116,22,11,Pattern_Practice,1,9999,9999,9999,2394817632
116,22,11,Pattern_Practice,2,9999,9999,9999,2395317348
116,22,11,Pattern_Practice,3,9999,9999,9999,2395818040
116,22,11,Pattern_Practice,4,9999,9999,9999,2396317756
116,22,11,Pattern_Practice,5,9999,9999,9999,2396817504
116,22,11,Pattern_Practice,6,9999,9999,9999,2397317200
116,22,11,Pattern_Practice,7,9999,9999,9999,2397817956
116,22,11,Pattern_Practice,8,9999,9999,9999,2398317656
116,22,11,Pattern_Practice,9,9999,9999,9999,2398817380
116,22,11,Pattern_Practice,10,9999,9999,9999,2399318120
116,22,11,Pattern_Practice,11,9999,9999,9999,2399817832
116,22,11,Pattern_Practice,12,9999,9999,9999,2400317532
116,22,11,Pattern_Practice,13,9999,9999,9999,2400817204
116,22,11,Pattern_Practice,14,9999,9999,9999,2401317944
116,22,11,Pattern_Practice,15,9999,9999,9999,2401817656
116,22,11,Pattern_Practice,16,9999,9999,9999,2402317428
116,22,11,Pattern_Practice,17,9999,9999,9999,2402817100
116,22,11,Pattern_Practice,18,9999,9999,9999,2403317844
116,22,11,Pattern_Practice,19,9999,9999,9999,2403817576
116,22,11,Pattern_Practice,20,9999,9999,9999,2404317264
116,22,11,Pattern_Practice,21,9999,9999,9999,2404817984
116,22,11,Pattern_Practice,22,9999,9999,9999,2405317700
116,22,11,Pattern_Practice,23,9999,9999,9999,2405817396
116,22,11,Pattern_Practice,24,9999,9999,9999,2406317172
116,22,11,Pattern_Practice,25,9999,9999,9999,2406817892
116,22,11,Pattern_Practice,26,9999,9999,9999,2407317572
116,22,11,Pattern_Practice,27,9999,9999,9999,2407817288
116,22,11,Pattern_Practice,28,9999,9999,9999,2408318056
116,22,11,Pattern_Practice,29,9999,9999,9999,2408817728
116,22,11,Pattern_Practice,30,9999,9999,9999,2409317480
116,22,11,Pattern_Practice,31,9999,9999,9999,2409817180
116,22,11,Pattern_Practice,32,9999,9999,9999,2410317928
116,22,11,Pattern_Practice,33,9999,9999,9999,2410817648
116,22,11,Pattern_Practice,34,9999,9999,9999,2411317352
116,22,11,Pattern_Practice,35,9999,9999,9999,2411818072
116,22,11,Pattern_Practice,36,9999,9999,9999,2412317804
116,22,11,Pattern_Practice,37,9999,9999,9999,2412817480
116,22,11,Pattern_Practice,38,9999,9999,9999,2413317172
116,22,11,Pattern_Practice,39,9999,9999,9999,2413817948
116,22,11,Pattern_Practice,40,9999,9999,9999,2414317672
116,22,11,Pattern_Practice,41,9999,9999,9999,2414817340
116,22,11,Pattern_Practice,42,9999,9999,9999,2415318112
116,22,11,Pattern_Practice,43,9999,9999,9999,2415817780
116,22,11,Pattern_Practice,44,9999,9999,9999,2416317528
116,22,11,Pattern_Practice,45,9999,9999,9999,2416817200
116,22,11,Pattern_Practice,46,9999,9999,9999,2417317940
116,22,11,Pattern_Practice,47,9999,9999,9999,2417817708
116,22,11,Pattern_Practice,48,9999,9999,9999,2418317428
116,22,11,Pattern_Practice,49,9999,9999,9999,2418817104
116,22,11,Pattern_Practice,50,9999,9999,9999,2419317828
116,22,11,Pattern_Practice,51,9999,9999,9999,2419817524
116,22,11,Pattern_Practice,52,9999,9999,9999,2420317288
116,22,11,Pattern_Practice,53,9999,9999,9999,2420817980
116,22,11,Pattern_Practice,54,9999,9999,9999,2421317700
116,22,11,Pattern_Practice,55,9999,9999,9999,2421817428
116,22,11,Pattern_Practice,56,9999,9999,9999,2422317108
116,22,11,Pattern_Practice,57,9999,9999,9999,2422817892
116,22,11,Pattern_Practice,58,9999,9999,9999,2423317584
116,22,11,Pattern_Practice,59,9999,9999,9999,2423817316
116,22,11,Pattern_Practice,60,9999,9999,9999,2424318060
116,22,11,Pattern_Practice,61,9999,9999,9999,2424817732
116,22,11,Pattern_Practice,62,9999,9999,9999,2425317424
116,22,11,Pattern_Practice,63,9999,9999,9999,2425817148
116,22,11,Pattern_Practice,64,9999,9999,9999,2426317908
116,22,11,Pattern_Practice,65,9999,9999,9999,2426817656
116,22,11,Pattern_Practice,66,9999,9999,9999,2427317336
116,22,11,Pattern_Practice,67,9999,9999,9999,2427818036
116,22,11,Pattern_Practice,68,9999,9999,9999,2428317808
116,22,11,Pattern_Practice,69,9999,9999,9999,2428817476
116,22,11,Pattern_Practice,70,9999,9999,9999,2429317240
116,22,11,Pattern_Practice,71,9999,9999,9999,2429817944
116,22,11,Pattern_Practice,72,9999,9999,9999,2430317668
116,22,11,Pattern_Practice,73,9999,9999,9999,2430817340
116,22,11,Pattern_Practice,74,9999,9999,9999,2431318128
116,22,11,Pattern_Practice,75,9999,9999,9999,2431817776
116,22,11,Pattern_Practice,76,9999,9999,9999,2432317528
116,22,11,Pattern_Practice,77,9999,9999,9999,2432817268
116,22,11,Pattern_Practice,78,9999,9999,9999,2433317940
116,22,11,Pattern_Practice,79,9999,9999,9999,2433817660
116,23,13,Improv_Metronome,0,5,42,127,2471407152
116,23,13,Improv_Metronome,1,5,42,127,2471906572
116,23,13,Improv_Metronome,2,5,42,127,2472407336
116,23,13,Improv_Metronome,3,1,38,17,2472496248
116,23,13,Improv_Metronome,4,5,42,127,2472907400
116,23,13,Improv_Metronome,5,5,42,127,2473406968
116,23,13,Improv_Metronome,6,1,38,51,2473456688
116,23,13,Improv_Metronome,7,1,48,40,2473468112
116,23,13,Improv_Metronome,8,1,38,29,2473679440
116,23,13,Improv_Metronome,9,1,48,31,2473708292
116,23,13,Improv_Metronome,10,5,42,127,2473906524
116,23,13,Improv_Metronome,11,1,38,47,2473952724
116,23,13,Improv_Metronome,12,1,48,41,2473966992
116,23,13,Improv_Metronome,13,1,38,39,2474190236
116,23,13,Improv_Metronome,14,1,48,36,2474199940
116,23,13,Improv_Metronome,15,5,42,127,2474407372
116,23,13,Improv_Metronome,16,1,38,43,2474426424
116,23,13,Improv_Metronome,17,1,48,37,2474441888
116,23,13,Improv_Metronome,18,1,48,35,2474663484
116,23,13,Improv_Metronome,19,1,38,41,2474669452
116,23,13,Improv_Metronome,20,5,42,127,2474907244
116,23,13,Improv_Metronome,21,1,38,61,2474926072
116,23,13,Improv_Metronome,22,1,48,51,2474933984
116,23,13,Improv_Metronome,23,5,42,127,2475406596
116,23,13,Improv_Metronome,24,1,48,39,2475434544
116,23,13,Improv_Metronome,25,1,48,38,2475678768
116,23,13,Improv_Metronome,26,5,42,127,2475906344
116,23,13,Improv_Metronome,27,1,38,65,2475916496
116,23,13,Improv_Metronome,28,1,48,53,2475937120
116,23,13,Improv_Metronome,29,1,48,42,2476170316
116,23,13,Improv_Metronome,30,1,38,53,2476302008
116,23,13,Improv_Metronome,31,5,42,127,2476407292
116,23,13,Improv_Metronome,32,1,48,46,2476434268
116,23,13,Improv_Metronome,33,1,38,45,2476524380
116,23,13,Improv_Metronome,34,1,48,47,2476686968
116,23,13,Improv_Metronome,35,5,42,127,2476907064
116,23,13,Improv_Metronome,36,1,48,49,2476952224
116,23,13,Improv_Metronome,37,1,38,59,2476955416
116,23,13,Improv_Metronome,38,1,48,39,2477198412
116,23,13,Improv_Metronome,39,5,42,127,2477406760
116,23,13,Improv_Metronome,40,1,48,39,2477438156
116,23,13,Improv_Metronome,41,1,48,37,2477676612
116,23,13,Improv_Metronome,42,5,42,127,2477907232
116,23,13,Improv_Metronome,43,1,38,65,2477928924
116,23,13,Improv_Metronome,44,1,48,46,2477932120
116,23,13,Improv_Metronome,45,1,48,41,2478162152
116,23,13,Improv_Metronome,46,1,38,57,2478298436
116,23,13,Improv_Metronome,47,5,42,127,2478407280
116,23,13,Improv_Metronome,48,1,48,45,2478410856
116,23,13,Improv_Metronome,49,1,38,48,2478518936
116,23,13,Improv_Metronome,50,1,48,50,2478651156
116,23,13,Improv_Metronome,51,5,42,127,2478906708
116,23,13,Improv_Metronome,52,1,48,57,2478922024
116,23,13,Improv_Metronome,53,1,38,67,2478927088
116,23,13,Improv_Metronome,54,1,48,40,2479158488
116,23,13,Improv_Metronome,55,1,48,48,2479397692
116,23,13,Improv_Metronome,56,5,42,127,2479406328
116,23,13,Improv_Metronome,57,1,48,46,2479638640
116,23,13,Improv_Metronome,58,5,42,127,2479907280
116,23,13,Improv_Metronome,59,1,48,49,2479909648
116,23,13,Improv_Metronome,60,1,38,59,2479910304
116,23,13,Improv_Metronome,61,1,48,43,2480153896
116,23,13,Improv_Metronome,62,1,38,52,2480298852
116,23,13,Improv_Metronome,63,5,42,127,2480407032
116,23,13,Improv_Metronome,64,1,48,45,2480413292
116,23,13,Improv_Metronome,65,1,38,47,2480535668
116,23,13,Improv_Metronome,66,1,48,52,2480669832
116,23,13,Improv_Metronome,67,5,42,127,2480906460
116,23,13,Improv_Metronome,68,1,38,65,2480930820
116,23,13,Improv_Metronome,69,1,48,50,2480935732
116,23,13,Improv_Metronome,70,1,48,47,2481184632
116,23,13,Improv_Metronome,71,5,42,127,2481407204
116,23,13,Improv_Metronome,72,1,38,46,2481417728
116,23,13,Improv_Metronome,73,1,48,59,2481437756
116,23,13,Improv_Metronome,74,1,48,51,2481675732
116,23,13,Improv_Metronome,75,1,38,59,2481687908
116,23,13,Improv_Metronome,76,5,42,127,2481907004
116,23,13,Improv_Metronome,77,1,48,51,2481922764
116,23,13,Improv_Metronome,78,1,38,55,2481928208
116,23,13,Improv_Metronome,79,1,48,55,2482175608
116,23,13,Improv_Metronome,80,1,38,64,2482180604
116,23,13,Improv_Metronome,81,1,38,57,2482399956
116,23,13,Improv_Metronome,82,5,42,127,2482406948
116,23,13,Improv_Metronome,83,1,48,53,2482411568
116,23,13,Improv_Metronome,84,1,48,49,2482656048
116,23,13,Improv_Metronome,85,1,38,61,2482659920
116,23,13,Improv_Metronome,86,5,42,127,2482906472
116,23,13,Improv_Metronome,87,1,48,61,2482910184
116,23,13,Improv_Metronome,88,1,38,69,2482913388
116,23,13,Improv_Metronome,89,1,38,58,2482932508
116,23,13,Improv_Metronome,90,1,48,48,2482936980
116,23,13,Improv_Metronome,91,5,42,127,2483407196
116,23,13,Improv_Metronome,92,1,48,46,2483435292
116,23,13,Improv_Metronome,93,1,48,40,2483681832
116,23,13,Improv_Metronome,94,5,42,127,2483907016
116,23,13,Improv_Metronome,95,1,38,70,2483910064
116,23,13,Improv_Metronome,96,1,48,52,2483930688
116,23,13,Improv_Metronome,97,1,48,45,2484147948
116,23,13,Improv_Metronome,98,1,38,67,2484297668
116,23,13,Improv_Metronome,99,1,38,46,2484324676
116,23,13,Improv_Metronome,100,1,48,48,2484402744
116,23,13,Improv_Metronome,101,5,42,127,2484406672
116,23,13,Improv_Metronome,102,1,38,62,2484547824
116,23,13,Improv_Metronome,103,1,48,51,2484659800
116,23,13,Improv_Metronome,104,5,42,127,2484907276
116,23,13,Improv_Metronome,105,1,38,71,2484914128
116,23,13,Improv_Metronome,106,1,48,50,2484926604
116,23,13,Improv_Metronome,107,1,48,41,2485149548
116,23,13,Improv_Metronome,108,5,42,127,2485407048
116,23,13,Improv_Metronome,109,1,48,47,2485408016
116,23,13,Improv_Metronome,110,1,48,35,2485630448
116,23,13,Improv_Metronome,111,1,48,50,2485889404
116,23,13,Improv_Metronome,112,1,38,65,2485892748
116,23,13,Improv_Metronome,113,5,42,127,2485906920
116,23,13,Improv_Metronome,114,1,38,50,2485917056
116,23,13,Improv_Metronome,115,1,48,44,2486125192
116,23,13,Improv_Metronome,116,1,38,63,2486293840
116,23,13,Improv_Metronome,117,1,48,44,2486396988
116,23,13,Improv_Metronome,118,5,42,127,2486406444
116,23,13,Improv_Metronome,119,1,38,51,2486517480
116,23,13,Improv_Metronome,120,1,48,48,2486664464
116,23,13,Improv_Metronome,121,5,42,127,2486907300
116,23,13,Improv_Metronome,122,1,38,67,2486913116
116,23,13,Improv_Metronome,123,1,48,52,2486933812
116,23,13,Improv_Metronome,124,1,38,47,2486937904
116,23,13,Improv_Metronome,125,1,48,39,2487173792
116,23,13,Improv_Metronome,126,5,42,127,2487407204
116,23,13,Improv_Metronome,127,1,48,43,2487408092
116,23,13,Improv_Metronome,128,1,48,42,2487659176
116,23,13,Improv_Metronome,129,1,38,73,2487895592
116,23,13,Improv_Metronome,130,5,42,127,2487906572
116,23,13,Improv_Metronome,131,1,48,42,2487912380
116,23,13,Improv_Metronome,132,1,38,55,2487920664
116,23,13,Improv_Metronome,133,1,48,40,2488165076
116,23,13,Improv_Metronome,134,1,38,60,2488302456
116,23,13,Improv_Metronome,135,5,42,127,2488407268
116,23,13,Improv_Metronome,136,1,48,40,2488435844
116,23,13,Improv_Metronome,137,1,38,59,2488574124
116,23,13,Improv_Metronome,138,1,38,45,2488599456
116,23,13,Improv_Metronome,139,1,48,46,2488689456
116,23,13,Improv_Metronome,140,5,42,127,2488907036
116,23,13,Improv_Metronome,141,1,38,60,2488933140
116,23,13,Improv_Metronome,142,1,48,51,2488948452
116,23,13,Improv_Metronome,143,1,48,43,2489187856
116,23,13,Improv_Metronome,144,5,42,127,2489407032
116,23,13,Improv_Metronome,145,1,38,54,2489422948
116,23,13,Improv_Metronome,146,1,48,58,2489438520
116,23,13,Improv_Metronome,147,1,48,48,2489677148
116,23,13,Improv_Metronome,148,1,38,54,2489690296
116,23,13,Improv_Metronome,149,5,42,127,2489906400
116,23,13,Improv_Metronome,150,1,48,50,2489933752
116,23,13,Improv_Metronome,151,1,38,54,2489939272
116,23,13,Improv_Metronome,152,1,38,53,2490176804
116,23,13,Improv_Metronome,153,1,48,48,2490184336
116,23,13,Improv_Metronome,154,5,42,127,2490407176
116,23,13,Improv_Metronome,155,1,48,48,2490422036
116,23,13,Improv_Metronome,156,1,38,52,2490422692
116,23,13,Improv_Metronome,157,1,48,49,2490665012
116,23,13,Improv_Metronome,158,1,38,50,2490668284
116,23,13,Improv_Metronome,159,5,42,127,2490906900
116,23,13,Improv_Metronome,160,1,38,76,2490909948
116,23,13,Improv_Metronome,161,1,48,41,2490920100
116,23,13,Improv_Metronome,162,1,48,49,2490948652
116,23,13,Improv_Metronome,163,5,42,127,2491406900
116,23,13,Improv_Metronome,164,1,48,44,2491420720
116,23,13,Improv_Metronome,165,1,48,46,2491679592
116,23,13,Improv_Metronome,166,5,42,127,2491906276
116,23,13,Improv_Metronome,167,1,38,77,2491907760
116,23,13,Improv_Metronome,168,1,48,62,2491911336
116,23,13,Improv_Metronome,169,1,48,50,2492236448
116,23,13,Improv_Metronome,170,1,38,55,2492353888
116,23,13,Improv_Metronome,171,5,42,127,2492407028
116,23,13,Improv_Metronome,172,1,48,48,2492647412
116,23,13,Improv_Metronome,173,5,42,127,2492906856
116,23,13,Improv_Metronome,174,1,48,65,2492913940
116,23,13,Improv_Metronome,175,5,42,127,2493406552
116,23,13,Improv_Metronome,176,1,48,53,2493410644
116,23,13,Improv_Metronome,177,1,48,47,2493652912
116,23,13,Improv_Metronome,178,1,38,69,2493895632
116,23,13,Improv_Metronome,179,5,42,127,2493907416
116,23,13,Improv_Metronome,180,1,48,60,2493910164
116,23,13,Improv_Metronome,181,1,48,50,2494151884
116,23,13,Improv_Metronome,182,1,38,67,2494306864
116,23,13,Improv_Metronome,183,5,42,127,2494406964
116,23,13,Improv_Metronome,184,1,48,60,2494663224
116,23,13,Improv_Metronome,185,5,42,127,2494906732
116,23,13,Improv_Metronome,186,1,48,57,2494942912
116,23,13,Improv_Metronome,187,5,42,127,2495406428
116,23,13,Improv_Metronome,188,1,48,53,2495443132
116,23,13,Improv_Metronome,189,1,48,43,2495685252
116,23,13,Improv_Metronome,190,5,42,127,2495907148
116,23,13,Improv_Metronome,191,1,38,68,2495938844
116,23,13,Improv_Metronome,192,1,48,60,2495948244
116,23,13,Improv_Metronome,193,1,48,49,2496188844
116,23,13,Improv_Metronome,194,1,38,60,2496324804
116,23,13,Improv_Metronome,195,5,42,127,2496406988
116,23,13,Improv_Metronome,196,1,48,51,2496754560
116,23,13,Improv_Metronome,197,5,42,127,2496906744
116,23,13,Improv_Metronome,198,1,48,55,2497031340
116,23,13,Improv_Metronome,199,5,42,127,2497407192
116,23,13,Improv_Metronome,200,1,48,48,2497455860
116,23,13,Improv_Metronome,201,1,48,41,2497702396
116,23,13,Improv_Metronome,202,5,42,127,2497907160
116,23,13,Improv_Metronome,203,1,38,63,2497933240
116,23,13,Improv_Metronome,204,1,48,59,2497946608
116,23,13,Improv_Metronome,205,1,48,58,2498174792
116,23,13,Improv_Metronome,206,1,38,54,2498192276
116,23,13,Improv_Metronome,207,5,42,127,2498406888
116,23,13,Improv_Metronome,208,1,38,63,2498422128
116,23,13,Improv_Metronome,209,1,48,57,2498428016
116,23,13,Improv_Metronome,210,1,38,52,2498661208
116,23,13,Improv_Metronome,211,1,48,51,2498664484
116,23,13,Improv_Metronome,212,1,48,50,2498904004
116,23,13,Improv_Metronome,213,5,42,127,2498906584
116,23,13,Improv_Metronome,214,1,38,50,2498907628
116,23,13,Improv_Metronome,215,1,38,54,2499141780
116,23,13,Improv_Metronome,216,1,48,46,2499145644
116,23,13,Improv_Metronome,217,1,38,74,2499405788
116,23,13,Improv_Metronome,218,5,42,127,2499408344
116,23,13,Improv_Metronome,219,1,48,68,2499419248
116,23,13,Improv_Metronome,220,1,48,59,2499655500
116,23,13,Improv_Metronome,221,1,38,68,2499898376
116,23,13,Improv_Metronome,222,5,42,127,2499906860
116,23,13,Improv_Metronome,223,1,48,80,2499908948
116,23,13,Improv_Metronome,224,1,48,60,2500140108
116,23,13,Improv_Metronome,225,1,38,77,2500257916
116,23,13,Improv_Metronome,226,1,48,63,2500403000
116,23,13,Improv_Metronome,227,5,42,127,2500406776
116,23,13,Improv_Metronome,228,1,38,65,2500521056
116,23,13,Improv_Metronome,229,1,48,61,2500626572
116,23,13,Improv_Metronome,230,1,38,91,2500881860
116,23,13,Improv_Metronome,231,1,48,68,2500885052
116,23,13,Improv_Metronome,232,5,42,127,2500907304
116,23,13,Improv_Metronome,233,1,48,45,2501124696
116,23,13,Improv_Metronome,234,1,48,59,2501383724
116,23,13,Improv_Metronome,235,5,42,127,2501406948
116,23,13,Improv_Metronome,236,1,48,47,2501632824
116,23,13,Improv_Metronome,237,1,38,68,2501894988
116,23,13,Improv_Metronome,238,5,42,127,2501906696
116,23,13,Improv_Metronome,239,1,48,68,2501916772
116,23,13,Improv_Metronome,240,1,48,48,2502146820
116,23,13,Improv_Metronome,241,1,38,62,2502281316
116,23,13,Improv_Metronome,242,5,42,127,2502406392
116,23,13,Improv_Metronome,243,1,48,58,2502417964
116,23,13,Improv_Metronome,244,1,38,47,2502533156
116,23,13,Improv_Metronome,245,1,48,51,2502670540
116,23,13,Improv_Metronome,246,5,42,127,2502907236
116,23,13,Improv_Metronome,247,1,38,67,2502912008
116,23,13,Improv_Metronome,248,1,48,65,2502920588
116,23,13,Improv_Metronome,249,1,48,48,2503167020
116,23,13,Improv_Metronome,250,5,42,127,2503406864
116,23,13,Improv_Metronome,251,1,48,61,2503423072
116,23,13,Improv_Metronome,252,1,48,57,2503674920
116,23,13,Improv_Metronome,253,5,42,127,2503906760
116,23,13,Improv_Metronome,254,1,38,74,2503909204
116,23,13,Improv_Metronome,255,1,48,67,2503925268
116,23,13,Improv_Metronome,256,1,48,54,2504151876
116,23,13,Improv_Metronome,257,1,38,65,2504294144
116,23,13,Improv_Metronome,258,1,38,43,2504324792
116,23,13,Improv_Metronome,259,5,42,127,2504407476
116,23,13,Improv_Metronome,260,1,48,61,2504422476
116,23,13,Improv_Metronome,261,1,38,54,2504567436
116,23,13,Improv_Metronome,262,1,48,59,2504672056
116,23,13,Improv_Metronome,263,5,42,127,2504906968
116,23,13,Improv_Metronome,264,1,38,78,2504921680
116,23,13,Improv_Metronome,265,1,48,68,2504928240
116,23,13,Improv_Metronome,266,1,48,53,2505168764
116,23,13,Improv_Metronome,267,5,42,127,2505406964
116,23,13,Improv_Metronome,268,1,48,60,2505420780
116,23,13,Improv_Metronome,269,1,48,55,2505661408
116,23,13,Improv_Metronome,270,1,38,76,2505903756
116,23,13,Improv_Metronome,271,5,42,127,2505906780
116,23,13,Improv_Metronome,272,1,48,77,2505924184
116,23,13,Improv_Metronome,273,1,48,63,2506167408
116,23,13,Improv_Metronome,274,1,38,67,2506309424
116,23,13,Improv_Metronome,275,5,42,127,2506407172
116,23,13,Improv_Metronome,276,1,48,61,2506552988
116,23,13,Improv_Metronome,277,1,38,65,2506650752
116,23,13,Improv_Metronome,278,1,38,46,2506684540
116,23,13,Improv_Metronome,279,5,42,127,2506906952
116,23,13,Improv_Metronome,280,1,48,91,2506930116
116,23,13,Improv_Metronome,281,1,38,83,2506944384
116,23,13,Improv_Metronome,282,1,48,40,2507007492
116,23,13,Improv_Metronome,283,5,42,127,2507406876
116,23,13,Improv_Metronome,284,1,38,70,2507425180
116,23,13,Improv_Metronome,285,1,48,57,2507438996
116,23,13,Improv_Metronome,286,1,48,51,2507667780
116,23,13,Improv_Metronome,287,1,38,49,2507673744
116,23,13,Improv_Metronome,288,5,42,127,2507906380
116,23,13,Improv_Metronome,289,1,48,58,2507921544
116,23,13,Improv_Metronome,290,1,38,63,2507933636
116,23,13,Improv_Metronome,291,1,38,48,2507959428
116,23,13,Improv_Metronome,292,1,48,53,2508176160
116,23,13,Improv_Metronome,293,1,38,62,2508181228
116,23,13,Improv_Metronome,294,1,38,62,2508403728
116,23,13,Improv_Metronome,295,5,42,127,2508407124
116,23,13,Improv_Metronome,296,1,48,51,2508418696
116,23,13,Improv_Metronome,297,1,38,55,2508656600
116,23,13,Improv_Metronome,298,1,48,51,2508664140
116,23,13,Improv_Metronome,299,1,38,35,2508695232
116,23,13,Improv_Metronome,300,1,48,53,2508900900
116,23,13,Improv_Metronome,301,5,42,127,2508906844
116,23,13,Improv_Metronome,302,1,38,56,2508915948
116,23,13,Improv_Metronome,303,1,48,52,2509150636
116,23,13,Improv_Metronome,304,1,38,57,2509154432
116,23,13,Improv_Metronome,305,5,42,127,2509406740
116,23,13,Improv_Metronome,306,1,48,65,2509416816
116,23,13,Improv_Metronome,307,1,48,60,2509667912
116,23,13,Improv_Metronome,308,1,38,75,2509906004
116,23,13,Improv_Metronome,309,5,42,127,2509908696
116,23,13,Improv_Metronome,310,1,48,69,2509913760
116,23,13,Improv_Metronome,311,1,48,54,2510139100
116,23,13,Improv_Metronome,312,1,38,74,2510277328
116,23,13,Improv_Metronome,313,1,38,42,2510320696
116,23,13,Improv_Metronome,314,1,48,61,2510399660
116,23,13,Improv_Metronome,315,5,42,127,2510406872
116,23,13,Improv_Metronome,316,1,38,64,2510541932
116,23,13,Improv_Metronome,317,1,48,59,2510649616
116,23,13,Improv_Metronome,318,5,42,127,2510906812
116,23,13,Improv_Metronome,319,1,48,71,2510909408
116,23,13,Improv_Metronome,320,1,38,52,2510916648
116,23,13,Improv_Metronome,321,1,48,56,2511147372
116,23,13,Improv_Metronome,322,5,42,127,2511406660
116,23,13,Improv_Metronome,323,1,48,59,2511426236
116,23,13,Improv_Metronome,324,1,48,54,2511648312
116,23,13,Improv_Metronome,325,1,38,57,2511901208
116,23,13,Improv_Metronome,326,5,42,127,2511907300
116,23,13,Improv_Metronome,327,1,48,65,2511921640
116,23,13,Improv_Metronome,328,1,48,48,2512138304
116,23,13,Improv_Metronome,329,1,38,52,2512297028
116,23,13,Improv_Metronome,330,5,42,127,2512406924
116,23,13,Improv_Metronome,331,1,48,54,2512411692
116,23,13,Improv_Metronome,332,1,38,49,2512539368
116,23,13,Improv_Metronome,333,1,48,57,2512685504
116,23,13,Improv_Metronome,334,5,42,127,2512906720
116,23,13,Improv_Metronome,335,1,38,63,2512934376
116,23,13,Improv_Metronome,336,1,48,63,2512938244
116,23,13,Improv_Metronome,337,1,48,48,2513168820
116,23,13,Improv_Metronome,338,5,42,127,2513407544
116,23,13,Improv_Metronome,339,1,48,53,2513423756
116,23,13,Improv_Metronome,340,1,48,41,2513659220
116,23,13,Improv_Metronome,341,5,42,127,2513906992
116,23,13,Improv_Metronome,342,1,48,60,2513916616
116,23,13,Improv_Metronome,343,1,38,51,2513919144
116,23,13,Improv_Metronome,344,1,48,52,2514152788
116,23,13,Improv_Metronome,345,1,38,51,2514295572
116,23,13,Improv_Metronome,346,5,42,127,2514406744
116,23,13,Improv_Metronome,347,1,48,51,2514421532
116,23,13,Improv_Metronome,348,1,38,46,2514560436
116,23,13,Improv_Metronome,349,1,48,52,2514680988
116,23,13,Improv_Metronome,350,5,42,127,2514906692
116,23,13,Improv_Metronome,351,1,38,59,2514943992
116,23,13,Improv_Metronome,352,1,48,62,2514954220
116,23,13,Improv_Metronome,353,1,48,48,2515196764
116,23,13,Improv_Metronome,354,5,42,127,2515407068
116,23,13,Improv_Metronome,355,1,48,57,2515453716
116,23,13,Improv_Metronome,356,1,38,54,2515730848
116,23,13,Improv_Metronome,357,5,42,127,2515906888
116,23,13,Improv_Metronome,358,1,48,64,2515937228
116,23,13,Improv_Metronome,359,1,48,50,2516190652
116,23,13,Improv_Metronome,360,1,38,54,2516344660
116,23,13,Improv_Metronome,361,5,42,127,2516406556
116,23,13,Improv_Metronome,362,1,48,51,2516561200
116,23,13,Improv_Metronome,363,1,38,51,2516666892
116,23,13,Improv_Metronome,364,5,42,127,2516907332
116,23,13,Improv_Metronome,365,1,48,80,2516910976
116,23,13,Improv_Metronome,366,5,42,127,2517406952
116,23,13,Improv_Metronome,367,1,48,52,2517411492
116,23,13,Improv_Metronome,368,1,48,43,2517673584
116,23,13,Improv_Metronome,369,1,38,55,2517892376
116,23,13,Improv_Metronome,370,5,42,127,2517906844
116,23,13,Improv_Metronome,371,1,48,59,2517907880
116,23,13,Improv_Metronome,372,1,48,47,2518127520
116,23,13,Improv_Metronome,373,1,38,48,2518268048
116,23,13,Improv_Metronome,374,1,48,53,2518388100
116,23,13,Improv_Metronome,375,5,42,127,2518406684
116,23,13,Improv_Metronome,376,1,38,44,2518516224
116,23,13,Improv_Metronome,377,1,48,48,2518620644
116,23,13,Improv_Metronome,378,1,38,46,2518779416
116,23,13,Improv_Metronome,379,1,48,49,2518891316
116,23,13,Improv_Metronome,380,5,42,127,2518907432
116,23,13,Improv_Metronome,381,1,38,38,2519021236
116,23,13,Improv_Metronome,382,1,48,44,2519121520
116,23,13,Improv_Metronome,383,1,38,39,2519276496
116,23,13,Improv_Metronome,384,1,48,47,2519373788
116,23,13,Improv_Metronome,385,5,42,127,2519406836
116,23,13,Improv_Metronome,386,1,38,40,2519504632
116,23,13,Improv_Metronome,387,1,48,49,2519646680
116,23,13,Improv_Metronome,388,1,38,39,2519769920
116,23,13,Improv_Metronome,389,5,42,127,2519906624
116,23,13,Improv_Metronome,390,1,48,47,2519915348
116,23,13,Improv_Metronome,391,1,38,44,2520040916
116,23,13,Improv_Metronome,392,1,48,50,2520158800
116,23,13,Improv_Metronome,393,1,38,44,2520286384
116,23,13,Improv_Metronome,394,5,42,127,2520407348
116,23,13,Improv_Metronome,395,1,48,46,2520410016
116,23,13,Improv_Metronome,396,1,38,40,2520545852
116,23,13,Improv_Metronome,397,1,48,57,2520643216
116,23,13,Improv_Metronome,398,1,38,59,2520878684
116,23,13,Improv_Metronome,399,1,48,77,2520888912
116,23,13,Improv_Metronome,400,5,42,127,2520907048
116,23,13,Improv_Metronome,401,1,38,69,2521397104
116,23,13,Improv_Metronome,402,1,48,61,2521400300
116,23,13,Improv_Metronome,403,5,42,127,2521406844
116,23,13,Improv_Metronome,404,1,38,52,2521419824
116,23,13,Improv_Metronome,405,1,48,41,2521431916
116,23,13,Improv_Metronome,406,1,38,61,2521652772
116,23,13,Improv_Metronome,407,1,48,57,2521655964
116,23,13,Improv_Metronome,408,5,42,127,2521906556
116,23,13,Improv_Metronome,409,1,38,71,2521911548
116,23,13,Improv_Metronome,410,1,48,63,2521917512
116,23,13,Improv_Metronome,411,1,38,51,2521935436
116,23,13,Improv_Metronome,412,1,48,56,2522164964
116,23,13,Improv_Metronome,413,1,38,64,2522169364
116,23,13,Improv_Metronome,414,5,42,127,2522407380
116,23,13,Improv_Metronome,415,1,48,53,2522416264
116,23,13,Improv_Metronome,416,1,38,55,2522419608
116,23,13,Improv_Metronome,417,1,48,56,2522663420
116,23,13,Improv_Metronome,418,1,38,58,2522666688
116,23,13,Improv_Metronome,419,5,42,127,2522906884
116,23,13,Improv_Metronome,420,1,38,82,2522933492
116,23,13,Improv_Metronome,421,1,48,79,2522950148
116,23,13,Improv_Metronome,422,1,38,60,2522956112
116,23,13,Improv_Metronome,423,5,42,127,2523406656
116,23,13,Improv_Metronome,424,1,48,51,2523435432
116,23,13,Improv_Metronome,425,1,48,46,2523697676
116,23,13,Improv_Metronome,426,5,42,127,2523906556
116,23,13,Improv_Metronome,427,1,38,84,2523936828
116,23,13,Improv_Metronome,428,1,48,65,2523947056
116,23,13,Improv_Metronome,429,1,38,59,2523959748
116,23,13,Improv_Metronome,430,1,48,48,2524169308
116,23,13,Improv_Metronome,431,1,38,72,2524298632
116,23,13,Improv_Metronome,432,1,38,52,2524323896
116,23,13,Improv_Metronome,433,5,42,127,2524407100
116,23,13,Improv_Metronome,434,1,48,52,2524445284
116,23,13,Improv_Metronome,435,1,38,57,2524532968
116,23,13,Improv_Metronome,436,1,48,64,2524680868
116,23,13,Improv_Metronome,437,5,42,127,2524906800
116,23,13,Improv_Metronome,438,1,38,70,2524924500
116,23,13,Improv_Metronome,439,1,38,53,2524949616
116,23,13,Improv_Metronome,440,1,48,58,2524951536
116,23,13,Improv_Metronome,441,1,48,55,2525179792
116,23,13,Improv_Metronome,442,5,42,127,2525406476
116,23,13,Improv_Metronome,443,1,48,56,2525436596
116,23,13,Improv_Metronome,444,1,48,57,2525686272
116,23,13,Improv_Metronome,445,5,42,127,2525907420
116,23,13,Improv_Metronome,446,1,38,74,2525929764
116,23,13,Improv_Metronome,447,1,48,70,2525948216
116,23,13,Improv_Metronome,448,1,48,51,2526147080
116,23,13,Improv_Metronome,449,1,38,59,2526302136
116,23,13,Improv_Metronome,450,5,42,127,2526407172
116,23,13,Improv_Metronome,451,1,48,57,2526412840
116,23,13,Improv_Metronome,452,1,38,51,2526545056
116,23,13,Improv_Metronome,453,1,48,62,2526680964
116,23,13,Improv_Metronome,454,5,42,127,2526906752
116,23,13,Improv_Metronome,455,1,38,65,2526925800
116,23,13,Improv_Metronome,456,1,48,63,2526934980
116,23,13,Improv_Metronome,457,1,48,51,2527178876
116,23,13,Improv_Metronome,458,5,42,127,2527406376
116,23,13,Improv_Metronome,459,1,48,50,2527410244
116,23,13,Improv_Metronome,460,1,48,51,2527655504
116,23,13,Improv_Metronome,461,1,38,69,2527893440
116,23,13,Improv_Metronome,462,5,42,127,2527907164
116,23,13,Improv_Metronome,463,1,48,60,2527913944
116,23,13,Improv_Metronome,464,1,48,50,2528149012
116,23,13,Improv_Metronome,465,1,38,55,2528294544
116,23,13,Improv_Metronome,466,5,42,127,2528406860
116,23,13,Improv_Metronome,467,1,48,51,2528409684
116,23,13,Improv_Metronome,468,1,38,52,2528552820
116,23,13,Improv_Metronome,469,1,48,57,2528667940
116,23,13,Improv_Metronome,470,5,42,127,2528906588
116,23,13,Improv_Metronome,471,1,38,59,2528935964
116,23,13,Improv_Metronome,472,1,48,62,2528942376
116,23,13,Improv_Metronome,473,5,42,127,2529407432
116,23,13,Improv_Metronome,474,1,38,38,2529465676
116,23,13,Improv_Metronome,475,1,38,46,2529581144
116,23,13,Improv_Metronome,476,1,38,46,2529683468
116,23,13,Improv_Metronome,477,1,38,47,2529797660
116,23,13,Improv_Metronome,478,1,38,45,2529899540
116,23,13,Improv_Metronome,479,5,42,127,2529906976
116,23,13,Improv_Metronome,480,1,38,53,2530040980
116,23,13,Improv_Metronome,481,1,38,46,2530144048
116,23,13,Improv_Metronome,482,1,38,52,2530266696
116,23,13,Improv_Metronome,483,1,38,60,2530398792
116,23,13,Improv_Metronome,484,5,42,127,2530406756
116,23,13,Improv_Metronome,485,1,38,60,2530659412
116,23,13,Improv_Metronome,486,1,38,60,2530890508
116,23,13,Improv_Metronome,487,5,42,127,2530906480
116,23,13,Improv_Metronome,488,5,42,127,2531407448
116,23,13,Improv_Metronome,489,1,48,48,2531420768
116,23,13,Improv_Metronome,490,1,48,55,2531650600
116,23,13,Improv_Metronome,491,1,38,83,2531886292
116,23,13,Improv_Metronome,492,5,42,127,2531906892
116,23,13,Improv_Metronome,493,1,48,68,2531908156
116,23,13,Improv_Metronome,494,1,38,57,2531912680
116,23,13,Improv_Metronome,495,1,48,51,2532131140
116,23,13,Improv_Metronome,496,1,38,70,2532285972
116,23,13,Improv_Metronome,497,1,38,55,2532311008
116,23,13,Improv_Metronome,498,5,42,127,2532407516
116,23,13,Improv_Metronome,499,1,48,52,2532414372
116,23,13,Improv_Metronome,500,1,38,58,2532537944
116,23,13,Improv_Metronome,501,1,48,59,2532673380
116,23,13,Improv_Metronome,502,5,42,127,2532907464
116,23,13,Improv_Metronome,503,1,38,74,2532921804
116,23,13,Improv_Metronome,504,1,48,68,2532938768
116,23,13,Improv_Metronome,505,1,48,48,2533182952
116,23,13,Improv_Metronome,506,5,42,127,2533407240
116,23,13,Improv_Metronome,507,1,48,52,2533423972
116,23,13,Improv_Metronome,508,1,48,46,2533673356
116,23,13,Improv_Metronome,509,5,42,127,2533906840
116,23,13,Improv_Metronome,510,1,38,66,2533929184
116,23,13,Improv_Metronome,511,1,48,55,2533936196
116,23,13,Improv_Metronome,512,1,48,45,2534156972
116,23,13,Improv_Metronome,513,1,38,55,2534309488
116,23,13,Improv_Metronome,514,5,42,127,2534406368
116,23,13,Improv_Metronome,515,1,48,53,2534428112
116,23,13,Improv_Metronome,516,1,38,54,2534567312
116,23,13,Improv_Metronome,517,1,48,57,2534690556
116,23,13,Improv_Metronome,518,5,42,127,2534907364
116,23,13,Improv_Metronome,519,1,38,65,2534938084
116,23,13,Improv_Metronome,520,1,48,62,2534945024
116,23,13,Improv_Metronome,521,1,48,46,2535172460
116,23,13,Improv_Metronome,522,5,42,127,2535407212
116,23,13,Improv_Metronome,523,1,48,51,2535419308
116,23,13,Improv_Metronome,524,1,48,49,2535662104
116,23,13,Improv_Metronome,525,1,38,66,2535905984
116,23,13,Improv_Metronome,526,5,42,127,2535908676
116,23,13,Improv_Metronome,527,1,48,59,2535926528
116,23,13,Improv_Metronome,528,1,38,52,2535928452
116,23,13,Improv_Metronome,529,1,48,51,2536158580
116,23,13,Improv_Metronome,530,1,38,51,2536305480
116,23,13,Improv_Metronome,531,5,42,127,2536407376
116,23,13,Improv_Metronome,532,1,48,48,2536427852
116,23,13,Improv_Metronome,533,1,38,46,2536586352
116,23,13,Improv_Metronome,534,1,48,38,2536711544
116,23,13,Improv_Metronome,535,1,38,51,2536857924
116,23,13,Improv_Metronome,536,5,42,127,2536907396
116,23,13,Improv_Metronome,537,5,42,127,2537406724
116,23,13,Improv_Metronome,538,1,38,51,2537512464
116,23,13,Improv_Metronome,539,1,38,37,2537742992
116,23,13,Improv_Metronome,540,5,42,127,2537906396
116,23,13,Improv_Metronome,541,1,38,52,2538030316
116,23,13,Improv_Metronome,542,1,38,25,2538275128
116,23,13,Improv_Metronome,543,5,42,127,2538407412
116,23,13,Improv_Metronome,544,1,38,47,2538528712
116,23,13,Improv_Metronome,545,1,38,39,2538780188
116,23,13,Improv_Metronome,546,5,42,127,2538907160
116,23,13,Improv_Metronome,547,1,38,48,2539030932
116,23,13,Improv_Metronome,548,1,38,18,2539276116
116,23,13,Improv_Metronome,549,5,42,127,2539406832
116,23,13,Improv_Metronome,550,1,38,21,2539526932
116,23,13,Improv_Metronome,551,1,38,67,2539642052
116,23,13,Improv_Metronome,552,1,38,35,2539784372
116,23,13,Improv_Metronome,553,1,38,54,2539906556
116,23,13,Improv_Metronome,554,5,42,127,2539909248
116,23,13,Improv_Metronome,555,1,38,23,2540016312
116,23,13,Improv_Metronome,556,1,38,40,2540144296
116,23,13,Improv_Metronome,557,1,38,27,2540261860
116,23,13,Improv_Metronome,558,1,38,55,2540392460
116,23,13,Improv_Metronome,559,5,42,127,2540407300
116,23,13,Improv_Metronome,560,1,38,23,2540514076
116,23,13,Improv_Metronome,561,1,38,62,2540635076
116,23,13,Improv_Metronome,562,1,38,25,2540754656
116,23,13,Improv_Metronome,563,1,38,59,2540905936
116,23,13,Improv_Metronome,564,5,42,127,2540908704
116,23,13,Improv_Metronome,565,1,38,27,2540985632
116,23,13,Improv_Metronome,566,1,38,56,2541133632
116,23,13,Improv_Metronome,567,1,38,54,2541279568
116,23,13,Improv_Metronome,0,9999,9999,9999,2471404644
116,23,13,Improv_Metronome,1,9999,9999,9999,2471904360
116,23,13,Improv_Metronome,2,9999,9999,9999,2472405048
116,23,13,Improv_Metronome,3,9999,9999,9999,2472904816
116,23,13,Improv_Metronome,4,9999,9999,9999,2473404532
116,23,13,Improv_Metronome,5,9999,9999,9999,2473904236
116,23,13,Improv_Metronome,6,9999,9999,9999,2474404932
116,23,13,Improv_Metronome,7,9999,9999,9999,2474904660
116,23,13,Improv_Metronome,8,9999,9999,9999,2475404384
116,23,13,Improv_Metronome,9,9999,9999,9999,2475904056
116,23,13,Improv_Metronome,10,9999,9999,9999,2476404856
116,23,13,Improv_Metronome,11,9999,9999,9999,2476904556
116,23,13,Improv_Metronome,12,9999,9999,9999,2477404232
116,23,13,Improv_Metronome,13,9999,9999,9999,2477905016
116,23,13,Improv_Metronome,14,9999,9999,9999,2478404696
116,23,13,Improv_Metronome,15,9999,9999,9999,2478904424
116,23,13,Improv_Metronome,16,9999,9999,9999,2479404116
116,23,13,Improv_Metronome,17,9999,9999,9999,2479904844
116,23,13,Improv_Metronome,18,9999,9999,9999,2480404592
116,23,13,Improv_Metronome,19,9999,9999,9999,2480904244
116,23,13,Improv_Metronome,20,9999,9999,9999,2481404992
116,23,13,Improv_Metronome,21,9999,9999,9999,2481904716
116,23,13,Improv_Metronome,22,9999,9999,9999,2482404436
116,23,13,Improv_Metronome,23,9999,9999,9999,2482904184
116,23,13,Improv_Metronome,24,9999,9999,9999,2483404908
116,23,13,Improv_Metronome,25,9999,9999,9999,2483904580
116,23,13,Improv_Metronome,26,9999,9999,9999,2484404308
116,23,13,Improv_Metronome,27,9999,9999,9999,2484905060
116,23,13,Improv_Metronome,28,9999,9999,9999,2485404760
116,23,13,Improv_Metronome,29,9999,9999,9999,2485904484
116,23,13,Improv_Metronome,30,9999,9999,9999,2486404160
116,23,13,Improv_Metronome,31,9999,9999,9999,2486904936
116,23,13,Improv_Metronome,32,9999,9999,9999,2487404616
116,23,13,Improv_Metronome,33,9999,9999,9999,2487904360
116,23,13,Improv_Metronome,34,9999,9999,9999,2488405056
116,23,13,Improv_Metronome,35,9999,9999,9999,2488904824
116,23,13,Improv_Metronome,36,9999,9999,9999,2489404520
116,23,13,Improv_Metronome,37,9999,9999,9999,2489904188
116,23,13,Improv_Metronome,38,9999,9999,9999,2490404960
116,23,13,Improv_Metronome,39,9999,9999,9999,2490904688
116,23,13,Improv_Metronome,40,9999,9999,9999,2491404388
116,23,13,Improv_Metronome,41,9999,9999,9999,2491904064
116,23,13,Improv_Metronome,42,9999,9999,9999,2492404816
116,23,13,Improv_Metronome,43,9999,9999,9999,2492904568
116,23,13,Improv_Metronome,44,9999,9999,9999,2493404264
116,23,13,Improv_Metronome,45,9999,9999,9999,2493904976
116,23,13,Improv_Metronome,46,9999,9999,9999,2494404676
116,23,13,Improv_Metronome,47,9999,9999,9999,2494904372
116,23,13,Improv_Metronome,48,9999,9999,9999,2495404140
116,23,13,Improv_Metronome,49,9999,9999,9999,2495904860
116,23,13,Improv_Metronome,50,9999,9999,9999,2496404556
116,23,13,Improv_Metronome,51,9999,9999,9999,2496904308
116,23,13,Improv_Metronome,52,9999,9999,9999,2497404980
116,23,13,Improv_Metronome,53,9999,9999,9999,2497904724
116,23,13,Improv_Metronome,54,9999,9999,9999,2498404452
116,23,13,Improv_Metronome,55,9999,9999,9999,2498904148
116,23,13,Improv_Metronome,56,9999,9999,9999,2499404868
116,23,13,Improv_Metronome,57,9999,9999,9999,2499904576
116,23,13,Improv_Metronome,58,9999,9999,9999,2500404340
116,23,13,Improv_Metronome,59,9999,9999,9999,2500905016
116,23,13,Improv_Metronome,60,9999,9999,9999,2501404736
116,23,13,Improv_Metronome,61,9999,9999,9999,2501904480
116,23,13,Improv_Metronome,62,9999,9999,9999,2502404180
116,23,13,Improv_Metronome,63,9999,9999,9999,2502904948
116,23,13,Improv_Metronome,64,9999,9999,9999,2503404652
116,23,13,Improv_Metronome,65,9999,9999,9999,2503904324
116,23,13,Improv_Metronome,66,9999,9999,9999,2504405040
116,23,13,Improv_Metronome,67,9999,9999,9999,2504904752
116,23,13,Improv_Metronome,68,9999,9999,9999,2505404528
116,23,13,Improv_Metronome,69,9999,9999,9999,2505904196
116,23,13,Improv_Metronome,70,9999,9999,9999,2506404956
116,23,13,Improv_Metronome,71,9999,9999,9999,2506904664
116,23,13,Improv_Metronome,72,9999,9999,9999,2507404364
116,23,13,Improv_Metronome,73,9999,9999,9999,2507904092
116,23,13,Improv_Metronome,74,9999,9999,9999,2508404840
116,23,13,Improv_Metronome,75,9999,9999,9999,2508904556
116,23,13,Improv_Metronome,76,9999,9999,9999,2509404228
116,23,13,Improv_Metronome,77,9999,9999,9999,2509904996
116,23,13,Improv_Metronome,78,9999,9999,9999,2510404660
116,23,13,Improv_Metronome,79,9999,9999,9999,2510904376
116,23,13,Improv_Metronome,80,9999,9999,9999,2511404152
116,23,13,Improv_Metronome,81,9999,9999,9999,2511904864
116,23,13,Improv_Metronome,82,9999,9999,9999,2512404560
116,23,13,Improv_Metronome,83,9999,9999,9999,2512904284
116,23,13,Improv_Metronome,84,9999,9999,9999,2513405032
116,23,13,Improv_Metronome,85,9999,9999,9999,2513904704
116,23,13,Improv_Metronome,86,9999,9999,9999,2514404456
116,23,13,Improv_Metronome,87,9999,9999,9999,2514904180
116,23,13,Improv_Metronome,88,9999,9999,9999,2515404852
116,23,13,Improv_Metronome,89,9999,9999,9999,2515904600
116,23,13,Improv_Metronome,90,9999,9999,9999,2516404340
116,23,13,Improv_Metronome,91,9999,9999,9999,2516905044
116,23,13,Improv_Metronome,92,9999,9999,9999,2517404740
116,23,13,Improv_Metronome,93,9999,9999,9999,2517904480
116,23,13,Improv_Metronome,94,9999,9999,9999,2518404172
116,23,13,Improv_Metronome,95,9999,9999,9999,2518904920
116,23,13,Improv_Metronome,96,9999,9999,9999,2519404624
116,23,13,Improv_Metronome,97,9999,9999,9999,2519904336
116,23,13,Improv_Metronome,98,9999,9999,9999,2520405060
116,23,13,Improv_Metronome,99,9999,9999,9999,2520904760
116,23,13,Improv_Metronome,100,9999,9999,9999,2521404484
116,23,13,Improv_Metronome,101,9999,9999,9999,2521904192
116,23,13,Improv_Metronome,102,9999,9999,9999,2522404944
116,23,13,Improv_Metronome,103,9999,9999,9999,2522904672
116,23,13,Improv_Metronome,104,9999,9999,9999,2523404372
116,23,13,Improv_Metronome,105,9999,9999,9999,2523904116
116,23,13,Improv_Metronome,106,9999,9999,9999,2524404812
116,23,13,Improv_Metronome,107,9999,9999,9999,2524904512
116,23,13,Improv_Metronome,108,9999,9999,9999,2525404264
116,23,13,Improv_Metronome,109,9999,9999,9999,2525904984
116,23,13,Improv_Metronome,110,9999,9999,9999,2526404660
116,23,13,Improv_Metronome,111,9999,9999,9999,2526904388
116,23,13,Improv_Metronome,112,9999,9999,9999,2527404088
116,23,13,Improv_Metronome,113,9999,9999,9999,2527904876
116,23,13,Improv_Metronome,114,9999,9999,9999,2528404572
116,23,13,Improv_Metronome,115,9999,9999,9999,2528904300
116,23,13,Improv_Metronome,116,9999,9999,9999,2529404996
116,23,13,Improv_Metronome,117,9999,9999,9999,2529904688
116,23,13,Improv_Metronome,118,9999,9999,9999,2530404468
116,23,13,Improv_Metronome,119,9999,9999,9999,2530904116
116,23,13,Improv_Metronome,120,9999,9999,9999,2531404864
116,23,13,Improv_Metronome,121,9999,9999,9999,2531904604
116,23,13,Improv_Metronome,122,9999,9999,9999,2532404272
116,23,13,Improv_Metronome,123,9999,9999,9999,2532905028
116,23,13,Improv_Metronome,124,9999,9999,9999,2533404728
116,23,13,Improv_Metronome,125,9999,9999,9999,2533904476
116,23,13,Improv_Metronome,126,9999,9999,9999,2534404156
116,23,13,Improv_Metronome,127,9999,9999,9999,2534904928
116,23,13,Improv_Metronome,128,9999,9999,9999,2535404628
116,23,13,Improv_Metronome,129,9999,9999,9999,2535904376
116,23,13,Improv_Metronome,130,9999,9999,9999,2536405056
116,23,13,Improv_Metronome,131,9999,9999,9999,2536904812
116,23,13,Improv_Metronome,132,9999,9999,9999,2537404512
116,23,13,Improv_Metronome,133,9999,9999,9999,2537904184
116,23,13,Improv_Metronome,134,9999,9999,9999,2538404976
116,23,13,Improv_Metronome,135,9999,9999,9999,2538904648
116,23,13,Improv_Metronome,136,9999,9999,9999,2539404396
116,23,13,Improv_Metronome,137,9999,9999,9999,2539904120
116,23,13,Improv_Metronome,138,9999,9999,9999,2540404792
116,23,13,Improv_Metronome,139,9999,9999,9999,2540904552
116,24,14,Improv_Melody,0,1,38,17,2621845676
116,24,14,Improv_Melody,1,1,38,19,2621846632
116,24,14,Improv_Melody,2,1,38,21,2621927768
116,24,14,Improv_Melody,3,2,48,80,2622348728
116,24,14,Improv_Melody,4,2,72,80,2622350740
116,24,14,Improv_Melody,5,5,42,127,2622353196
116,24,14,Improv_Melody,6,5,42,110,2622847236
116,24,14,Improv_Melody,7,5,42,110,2623347032
116,24,14,Improv_Melody,8,5,42,110,2623846756
116,24,14,Improv_Melody,9,5,42,127,2624346624
116,24,14,Improv_Melody,10,5,42,110,2624847220
116,24,14,Improv_Melody,11,5,42,110,2625347016
116,24,14,Improv_Melody,12,5,42,110,2625846516
116,24,14,Improv_Melody,13,2,43,80,2626349860
116,24,14,Improv_Melody,14,2,67,80,2626352316
116,24,14,Improv_Melody,15,5,42,127,2626354700
116,24,14,Improv_Melody,16,5,42,110,2626847016
116,24,14,Improv_Melody,17,5,42,110,2627346664
116,24,14,Improv_Melody,18,5,42,110,2627846536
116,24,14,Improv_Melody,19,5,42,127,2628347452
116,24,14,Improv_Melody,20,5,42,110,2628846876
116,24,14,Improv_Melody,21,5,42,110,2629346676
116,24,14,Improv_Melody,22,5,42,110,2629847668
116,24,14,Improv_Melody,23,2,45,80,2630349672
116,24,14,Improv_Melody,24,2,69,80,2630351596
116,24,14,Improv_Melody,25,5,42,127,2630354436
116,24,14,Improv_Melody,26,5,42,110,2630846824
116,24,14,Improv_Melody,27,5,42,110,2631346624
116,24,14,Improv_Melody,28,5,42,110,2631847616
116,24,14,Improv_Melody,29,5,42,127,2632347040
116,24,14,Improv_Melody,30,5,42,110,2632846688
116,24,14,Improv_Melody,31,5,42,110,2633346560
116,24,14,Improv_Melody,32,5,42,110,2633847104
116,24,14,Improv_Melody,33,2,41,80,2634349556
116,24,14,Improv_Melody,34,2,65,80,2634351480
116,24,14,Improv_Melody,35,5,42,127,2634353944
116,24,14,Improv_Melody,36,5,42,110,2634846636
116,24,14,Improv_Melody,37,5,42,110,2635347528
116,24,14,Improv_Melody,38,5,42,110,2635847028
116,24,14,Improv_Melody,39,5,42,127,2636346748
116,24,14,Improv_Melody,40,5,42,110,2636846472
116,24,14,Improv_Melody,41,5,42,110,2637347164
116,24,14,Improv_Melody,42,5,42,110,2637846960
116,24,14,Improv_Melody,43,1,48,45,2638282984
116,24,14,Improv_Melody,44,2,48,80,2638348952
116,24,14,Improv_Melody,45,2,72,80,2638351256
116,24,14,Improv_Melody,46,5,42,127,2638353796
116,24,14,Improv_Melody,47,1,48,28,2638595456
116,24,14,Improv_Melody,48,5,42,110,2638847272
116,24,14,Improv_Melody,49,1,48,43,2638875000
116,24,14,Improv_Melody,50,1,48,27,2639114876
116,24,14,Improv_Melody,51,5,42,110,2639347100
116,24,14,Improv_Melody,52,1,48,40,2639365404
116,24,14,Improv_Melody,53,1,48,21,2639596376
116,24,14,Improv_Melody,54,5,42,110,2639846852
116,24,14,Improv_Melody,55,1,48,46,2639861192
116,24,14,Improv_Melody,56,1,48,28,2640108624
116,24,14,Improv_Melody,57,5,42,127,2640346528
116,24,14,Improv_Melody,58,1,48,41,2640347716
116,24,14,Improv_Melody,59,1,48,27,2640600524
116,24,14,Improv_Melody,60,5,42,110,2640847328
116,24,14,Improv_Melody,61,1,48,45,2640848292
116,24,14,Improv_Melody,62,5,42,110,2641346880
116,24,14,Improv_Melody,63,1,48,31,2641355380
116,24,14,Improv_Melody,64,1,48,26,2641611048
116,24,14,Improv_Melody,65,5,42,110,2641846556
116,24,14,Improv_Melody,66,1,48,41,2641876452
116,24,14,Improv_Melody,67,1,48,34,2642101072
116,24,14,Improv_Melody,68,2,43,80,2642349856
116,24,14,Improv_Melody,69,2,67,80,2642352088
116,24,14,Improv_Melody,70,5,42,127,2642354700
116,24,14,Improv_Melody,71,1,48,54,2642370836
116,24,14,Improv_Melody,72,1,38,73,2642379416
116,24,14,Improv_Melody,73,1,38,46,2642410512
116,24,14,Improv_Melody,74,1,48,26,2642632036
116,24,14,Improv_Melody,75,5,42,110,2642847052
116,24,14,Improv_Melody,76,1,48,39,2642883232
116,24,14,Improv_Melody,77,1,48,35,2643118328
116,24,14,Improv_Melody,78,5,42,110,2643346732
116,24,14,Improv_Melody,79,1,48,33,2643372292
116,24,14,Improv_Melody,80,1,48,28,2643629968
116,24,14,Improv_Melody,81,5,42,110,2643846636
116,24,14,Improv_Melody,82,1,48,33,2643860528
116,24,14,Improv_Melody,83,1,48,27,2644105116
116,24,14,Improv_Melody,84,5,42,127,2644347212
116,24,14,Improv_Melody,85,1,48,38,2644354892
116,24,14,Improv_Melody,86,1,48,27,2644622600
116,24,14,Improv_Melody,87,5,42,110,2644846892
116,24,14,Improv_Melody,88,1,48,35,2644867512
116,24,14,Improv_Melody,89,1,48,27,2645122428
116,24,14,Improv_Melody,90,5,42,110,2645346568
116,24,14,Improv_Melody,91,1,48,32,2645357540
116,24,14,Improv_Melody,92,1,48,28,2645605500
116,24,14,Improv_Melody,93,5,42,110,2645847296
116,24,14,Improv_Melody,94,1,48,35,2645857744
116,24,14,Improv_Melody,95,1,48,31,2646109816
116,24,14,Improv_Melody,96,2,45,80,2646349596
116,24,14,Improv_Melody,97,2,69,80,2646351908
116,24,14,Improv_Melody,98,5,42,127,2646354364
116,24,14,Improv_Melody,99,1,48,49,2646373744
116,24,14,Improv_Melody,100,1,38,67,2646386888
116,24,14,Improv_Melody,101,1,48,14,2646615668
116,24,14,Improv_Melody,102,5,42,110,2646846740
116,24,14,Improv_Melody,103,1,48,40,2646854496
116,24,14,Improv_Melody,104,1,48,30,2647111880
116,24,14,Improv_Melody,105,5,42,110,2647346492
116,24,14,Improv_Melody,106,1,48,39,2647368012
116,24,14,Improv_Melody,107,1,48,31,2647611708
116,24,14,Improv_Melody,108,5,42,110,2647847144
116,24,14,Improv_Melody,109,1,48,38,2647851164
116,24,14,Improv_Melody,110,1,48,23,2648103308
116,24,14,Improv_Melody,111,5,42,127,2648347120
116,24,14,Improv_Melody,112,1,48,40,2648353380
116,24,14,Improv_Melody,113,1,48,23,2648600216
116,24,14,Improv_Melody,114,5,42,110,2648846576
116,24,14,Improv_Melody,115,1,48,38,2648847912
116,24,14,Improv_Melody,116,1,48,18,2649095260
116,24,14,Improv_Melody,117,1,48,27,2649344812
116,24,14,Improv_Melody,118,5,42,110,2649346396
116,24,14,Improv_Melody,119,1,48,29,2649847372
116,24,14,Improv_Melody,120,5,42,110,2649848708
116,24,14,Improv_Melody,121,1,48,31,2650106744
116,24,14,Improv_Melody,122,1,38,59,2650348516
116,24,14,Improv_Melody,123,2,41,80,2650352256
116,24,14,Improv_Melody,124,2,65,80,2650354180
116,24,14,Improv_Melody,125,5,42,127,2650356636
116,24,14,Improv_Melody,126,1,48,51,2650362304
116,24,14,Improv_Melody,127,1,48,32,2650406636
116,24,14,Improv_Melody,128,1,48,27,2650605736
116,24,14,Improv_Melody,129,5,42,110,2650846560
116,24,14,Improv_Melody,130,1,48,35,2650860148
116,24,14,Improv_Melody,131,1,48,32,2651128600
116,24,14,Improv_Melody,132,5,42,110,2651347284
116,24,14,Improv_Melody,133,1,48,35,2651352048
116,24,14,Improv_Melody,134,1,48,28,2651593272
116,24,14,Improv_Melody,135,5,42,110,2651847112
116,24,14,Improv_Melody,136,1,48,41,2651848524
116,24,14,Improv_Melody,137,1,48,27,2652106416
116,24,14,Improv_Melody,138,5,42,127,2652346716
116,24,14,Improv_Melody,139,1,48,37,2652360528
116,24,14,Improv_Melody,140,1,48,29,2652610208
116,24,14,Improv_Melody,141,1,48,32,2652845940
116,24,14,Improv_Melody,142,5,42,110,2652847432
116,24,14,Improv_Melody,143,1,48,35,2653086544
116,24,14,Improv_Melody,144,1,38,60,2653322236
116,24,14,Improv_Melody,145,1,48,49,2653346796
116,24,14,Improv_Melody,146,5,42,110,2653348512
116,24,14,Improv_Melody,147,1,48,49,2653580120
116,24,14,Improv_Melody,148,1,38,55,2653583988
116,24,14,Improv_Melody,149,1,38,53,2653822048
116,24,14,Improv_Melody,150,1,48,45,2653836912
116,24,14,Improv_Melody,151,5,42,110,2653847048
116,24,14,Improv_Melody,152,1,38,60,2654073420
116,24,14,Improv_Melody,153,1,48,48,2654076612
116,24,14,Improv_Melody,154,1,48,80,2654346392
116,24,14,Improv_Melody,155,2,48,80,2654350056
116,24,14,Improv_Melody,156,2,72,80,2654352056
116,24,14,Improv_Melody,157,5,42,127,2654354668
116,24,14,Improv_Melody,158,1,48,47,2654377292
116,24,14,Improv_Melody,159,1,48,49,2654604756
116,24,14,Improv_Melody,160,1,38,77,2654834088
116,24,14,Improv_Melody,161,5,42,110,2654847216
116,24,14,Improv_Melody,162,1,48,70,2654855644
116,24,14,Improv_Melody,163,1,38,48,2654859368
116,24,14,Improv_Melody,164,1,48,58,2655094428
116,24,14,Improv_Melody,165,1,38,70,2655221712
116,24,14,Improv_Melody,166,5,42,110,2655347120
116,24,14,Improv_Melody,167,1,48,59,2655356224
116,24,14,Improv_Melody,168,1,38,66,2655479764
116,24,14,Improv_Melody,169,1,48,51,2655567708
116,24,14,Improv_Melody,170,1,38,88,2655827532
116,24,14,Improv_Melody,171,1,48,73,2655833908
116,24,14,Improv_Melody,172,5,42,110,2655846664
116,24,14,Improv_Melody,173,1,38,59,2655850740
116,24,14,Improv_Melody,174,1,48,42,2656056304
116,24,14,Improv_Melody,175,1,48,53,2656329468
116,24,14,Improv_Melody,176,5,42,127,2656346364
116,24,14,Improv_Melody,177,1,48,48,2656587928
116,24,14,Improv_Melody,178,1,38,80,2656830500
116,24,14,Improv_Melody,179,1,48,62,2656844612
116,24,14,Improv_Melody,180,5,42,110,2656847196
116,24,14,Improv_Melody,181,1,38,56,2656852172
116,24,14,Improv_Melody,182,1,48,47,2657074740
116,24,14,Improv_Melody,183,1,38,82,2657232944
116,24,14,Improv_Melody,184,1,38,56,2657257448
116,24,14,Improv_Melody,185,5,42,110,2657346876
116,24,14,Improv_Melody,186,1,48,50,2657363368
116,24,14,Improv_Melody,187,1,38,66,2657487608
116,24,14,Improv_Melody,188,1,48,58,2657638632
116,24,14,Improv_Melody,189,5,42,110,2657846592
116,24,14,Improv_Melody,190,1,48,57,2657900900
116,24,14,Improv_Melody,191,1,38,59,2657903568
116,24,14,Improv_Melody,192,1,48,43,2657928236
116,24,14,Improv_Melody,193,1,48,46,2658126924
116,24,14,Improv_Melody,194,2,43,80,2658350056
116,24,14,Improv_Melody,195,2,67,80,2658351980
116,24,14,Improv_Melody,196,5,42,127,2658354520
116,24,14,Improv_Melody,197,1,48,54,2658370580
116,24,14,Improv_Melody,198,1,48,51,2658609108
116,24,14,Improv_Melody,199,5,42,110,2658847164
116,24,14,Improv_Melody,200,1,38,88,2658862552
116,24,14,Improv_Melody,201,1,48,62,2658866424
116,24,14,Improv_Melody,202,1,48,50,2659092736
116,24,14,Improv_Melody,203,1,38,71,2659246744
116,24,14,Improv_Melody,204,1,38,53,2659269460
116,24,14,Improv_Melody,205,5,42,110,2659346916
116,24,14,Improv_Melody,206,1,48,53,2659357588
116,24,14,Improv_Melody,207,1,38,64,2659487056
116,24,14,Improv_Melody,208,1,48,59,2659613068
116,24,14,Improv_Melody,209,5,42,110,2659846408
116,24,14,Improv_Melody,210,1,38,72,2659859776
116,24,14,Improv_Melody,211,1,38,56,2659882044
116,24,14,Improv_Melody,212,1,48,59,2659883964
116,24,14,Improv_Melody,213,1,48,45,2659912440
116,24,14,Improv_Melody,214,1,48,50,2660113772
116,24,14,Improv_Melody,215,5,42,127,2660347116
116,24,14,Improv_Melody,216,1,48,51,2660351132
116,24,14,Improv_Melody,217,1,48,43,2660596468
116,24,14,Improv_Melody,218,1,38,69,2660834780
116,24,14,Improv_Melody,219,1,48,49,2660837976
116,24,14,Improv_Melody,220,5,42,110,2660846916
116,24,14,Improv_Melody,221,1,48,50,2661082108
116,24,14,Improv_Melody,222,1,38,59,2661219892
116,24,14,Improv_Melody,223,5,42,110,2661346624
116,24,14,Improv_Melody,224,1,48,51,2661359244
116,24,14,Improv_Melody,225,1,38,57,2661480644
116,24,14,Improv_Melody,226,1,48,54,2661597308
116,24,14,Improv_Melody,227,5,42,110,2661847328
116,24,14,Improv_Melody,228,1,38,64,2661864280
116,24,14,Improv_Melody,229,1,48,62,2661873692
116,24,14,Improv_Melody,230,1,38,51,2661886532
116,24,14,Improv_Melody,231,1,48,49,2662121600
116,24,14,Improv_Melody,232,2,45,80,2662350044
116,24,14,Improv_Melody,233,2,69,80,2662352044
116,24,14,Improv_Melody,234,5,42,127,2662354952
116,24,14,Improv_Melody,235,1,48,48,2662362412
116,24,14,Improv_Melody,236,1,48,50,2662620016
116,24,14,Improv_Melody,237,5,42,110,2662847076
116,24,14,Improv_Melody,238,1,38,77,2662859920
116,24,14,Improv_Melody,239,1,48,60,2662880916
116,24,14,Improv_Melody,240,1,48,51,2663101320
116,24,14,Improv_Melody,241,1,38,65,2663247304
116,24,14,Improv_Melody,242,5,42,110,2663347284
116,24,14,Improv_Melody,243,1,48,54,2663376504
116,24,14,Improv_Melody,244,1,38,60,2663511372
116,24,14,Improv_Melody,245,1,48,54,2663619956
116,24,14,Improv_Melody,246,5,42,110,2663847240
116,24,14,Improv_Melody,247,1,38,70,2663861128
116,24,14,Improv_Melody,248,1,48,60,2663873976
116,24,14,Improv_Melody,249,1,48,47,2664106120
116,24,14,Improv_Melody,250,5,42,127,2664347016
116,24,14,Improv_Melody,251,1,48,59,2664376016
116,24,14,Improv_Melody,252,1,48,46,2664608640
116,24,14,Improv_Melody,253,5,42,110,2664846996
116,24,14,Improv_Melody,254,1,38,65,2664853480
116,24,14,Improv_Melody,255,1,48,58,2664861992
116,24,14,Improv_Melody,256,1,48,51,2665102888
116,24,14,Improv_Melody,257,1,38,58,2665250144
116,24,14,Improv_Melody,258,5,42,110,2665346308
116,24,14,Improv_Melody,259,1,48,49,2665375832
116,24,14,Improv_Melody,260,1,38,53,2665482692
116,24,14,Improv_Melody,261,1,48,60,2665631844
116,24,14,Improv_Melody,262,5,42,110,2665847156
116,24,14,Improv_Melody,263,1,38,69,2665878396
116,24,14,Improv_Melody,264,1,48,65,2665890720
116,24,14,Improv_Melody,265,1,38,53,2665901396
116,24,14,Improv_Melody,266,1,48,51,2666110208
116,24,14,Improv_Melody,267,2,41,80,2666349420
116,24,14,Improv_Melody,268,2,65,80,2666351724
116,24,14,Improv_Melody,269,5,42,127,2666354256
116,24,14,Improv_Melody,270,1,38,74,2666378168
116,24,14,Improv_Melody,271,1,48,69,2666387348
116,24,14,Improv_Melody,272,1,48,59,2666623092
116,24,14,Improv_Melody,273,1,38,58,2666627484
116,24,14,Improv_Melody,274,5,42,110,2666846588
116,24,14,Improv_Melody,275,1,48,61,2666870276
116,24,14,Improv_Melody,276,1,38,58,2666873620
116,24,14,Improv_Melody,277,1,48,59,2667119084
116,24,14,Improv_Melody,278,1,38,61,2667123928
116,24,14,Improv_Melody,279,5,42,110,2667347192
116,24,14,Improv_Melody,280,1,38,64,2667360288
116,24,14,Improv_Melody,281,1,48,61,2667364004
116,24,14,Improv_Melody,282,1,38,65,2667595376
116,24,14,Improv_Melody,283,1,48,56,2667604036
116,24,14,Improv_Melody,284,1,38,49,2667619648
116,24,14,Improv_Melody,285,1,38,73,2667847400
116,24,14,Improv_Melody,286,5,42,110,2667849412
116,24,14,Improv_Melody,287,1,48,60,2667850984
116,24,14,Improv_Melody,288,1,38,54,2667871764
116,24,14,Improv_Melody,289,1,38,67,2668084512
116,24,14,Improv_Melody,290,1,48,57,2668098176
116,24,14,Improv_Melody,291,1,38,85,2668343716
116,24,14,Improv_Melody,292,5,42,127,2668347044
116,24,14,Improv_Melody,293,1,48,65,2668357492
116,24,14,Improv_Melody,294,1,38,57,2668365176
116,24,14,Improv_Melody,295,1,38,80,2668587076
116,24,14,Improv_Melody,296,1,48,66,2668602468
116,24,14,Improv_Melody,297,1,38,60,2668609924
116,24,14,Improv_Melody,298,1,38,67,2668827404
116,24,14,Improv_Melody,299,1,48,64,2668842796
116,24,14,Improv_Melody,300,5,42,110,2668846352
116,24,14,Improv_Melody,301,1,48,68,2669078632
116,24,14,Improv_Melody,302,1,38,66,2669086164
116,24,14,Improv_Melody,303,1,38,73,2669343296
116,24,14,Improv_Melody,304,5,42,110,2669347076
116,24,14,Improv_Melody,305,1,48,75,2669357524
116,24,14,Improv_Melody,306,1,38,67,2669600664
116,24,14,Improv_Melody,307,1,48,67,2669604536
116,24,14,Improv_Melody,308,5,42,110,2669847052
116,24,14,Improv_Melody,309,1,48,73,2669853088
116,24,14,Improv_Melody,310,1,38,84,2669934712
116,24,14,Improv_Melody,311,1,48,79,2670090316
116,24,14,Improv_Melody,312,1,38,82,2670188604
116,24,14,Improv_Melody,313,1,48,97,2670339068
116,24,14,Improv_Melody,314,2,48,80,2670349244
116,24,14,Improv_Melody,315,2,72,80,2670351696
116,24,14,Improv_Melody,316,5,42,127,2670354080
116,24,14,Improv_Melody,317,1,48,68,2670356080
116,24,14,Improv_Melody,318,1,48,64,2670586296
116,24,14,Improv_Melody,319,1,38,98,2670835748
116,24,14,Improv_Melody,320,5,42,110,2670847380
116,24,14,Improv_Melody,321,1,48,83,2670848348
116,24,14,Improv_Melody,322,1,38,69,2670857656
116,24,14,Improv_Melody,323,1,48,51,2671073124
116,24,14,Improv_Melody,324,1,38,90,2671236188
116,24,14,Improv_Melody,325,1,38,63,2671257556
116,24,14,Improv_Melody,326,1,48,63,2671345452
116,24,14,Improv_Melody,327,5,42,110,2671347336
116,24,14,Improv_Melody,328,1,38,77,2671476772
116,24,14,Improv_Melody,329,1,48,88,2671618040
116,24,14,Improv_Melody,330,5,42,110,2671846896
116,24,14,Improv_Melody,331,1,38,115,2671859364
116,24,14,Improv_Melody,332,1,48,94,2671876548
116,24,14,Improv_Melody,333,1,48,53,2672107960
116,24,14,Improv_Melody,334,5,42,127,2672346464
116,24,14,Improv_Melody,335,1,48,59,2672357960
116,24,14,Improv_Melody,336,1,48,51,2672590888
116,24,14,Improv_Melody,337,5,42,110,2672847116
116,24,14,Improv_Melody,338,1,38,85,2672851136
116,24,14,Improv_Melody,339,1,48,78,2672854852
116,24,14,Improv_Melody,340,1,38,59,2672873228
116,24,14,Improv_Melody,341,1,48,50,2672883084
116,24,14,Improv_Melody,342,1,48,61,2673086512
116,24,14,Improv_Melody,343,1,38,78,2673219628
116,24,14,Improv_Melody,344,1,38,60,2673241992
116,24,14,Improv_Melody,345,5,42,110,2673346888
116,24,14,Improv_Melody,346,1,48,71,2673354640
116,24,14,Improv_Melody,347,1,38,66,2673463824
116,24,14,Improv_Melody,348,1,48,92,2673607816
116,24,14,Improv_Melody,349,1,48,60,2673630236
116,24,14,Improv_Melody,350,5,42,110,2673846896
116,24,14,Improv_Melody,351,1,38,97,2673858844
116,24,14,Improv_Melody,352,1,48,87,2673872436
116,24,14,Improv_Melody,353,1,48,60,2674124328
116,24,14,Improv_Melody,354,2,43,80,2674350084
116,24,14,Improv_Melody,355,2,67,80,2674352160
116,24,14,Improv_Melody,356,5,42,127,2674354916
116,24,14,Improv_Melody,357,1,48,64,2674373148
116,24,14,Improv_Melody,358,1,48,49,2674604352
116,24,14,Improv_Melody,359,5,42,110,2674847116
116,24,14,Improv_Melody,360,1,38,103,2674860036
116,24,14,Improv_Melody,361,1,48,84,2674867716
116,24,14,Improv_Melody,362,1,38,75,2674879212
116,24,14,Improv_Melody,363,1,48,61,2675110244
116,24,14,Improv_Melody,364,1,38,72,2675247180
116,24,14,Improv_Melody,365,1,38,55,2675269144
116,24,14,Improv_Melody,366,5,42,110,2675346848
116,24,14,Improv_Melody,367,1,48,65,2675375160
116,24,14,Improv_Melody,368,1,38,64,2675465420
116,24,14,Improv_Melody,369,1,48,78,2675626372
116,24,14,Improv_Melody,370,5,42,110,2675846404
116,24,14,Improv_Melody,371,1,38,91,2675884304
116,24,14,Improv_Melody,372,1,48,84,2675897448
116,24,14,Improv_Melody,373,1,48,54,2676147092
116,24,14,Improv_Melody,374,5,42,127,2676347228
116,24,14,Improv_Melody,375,1,48,54,2676386028
116,24,14,Improv_Melody,376,1,48,51,2676625232
116,24,14,Improv_Melody,377,5,42,110,2676847056
116,24,14,Improv_Melody,378,1,38,84,2676867004
116,24,14,Improv_Melody,379,1,48,75,2676879628
116,24,14,Improv_Melody,380,1,48,59,2677103996
116,24,14,Improv_Melody,381,1,38,70,2677251548
116,24,14,Improv_Melody,382,5,42,110,2677347788
116,24,14,Improv_Melody,383,1,48,63,2677367584
116,24,14,Improv_Melody,384,1,38,63,2677488064
116,24,14,Improv_Melody,385,1,48,74,2677608988
116,24,14,Improv_Melody,386,1,38,88,2677844828
116,24,14,Improv_Melody,387,5,42,110,2677847932
116,24,14,Improv_Melody,388,1,48,79,2677860556
116,24,14,Improv_Melody,389,1,48,50,2678106760
116,24,14,Improv_Melody,390,2,45,80,2678349764
116,24,14,Improv_Melody,391,2,69,80,2678351920
116,24,14,Improv_Melody,392,5,42,127,2678354600
116,24,14,Improv_Melody,393,1,48,60,2678361712
116,24,14,Improv_Melody,394,1,48,53,2678618796
116,24,14,Improv_Melody,395,5,42,110,2678846800
116,24,14,Improv_Melody,396,1,38,107,2678873580
116,24,14,Improv_Melody,397,1,38,69,2678893608
116,24,14,Improv_Melody,398,1,48,70,2678895528
116,24,14,Improv_Melody,399,1,48,63,2679126184
116,24,14,Improv_Melody,400,1,38,75,2679268576
116,24,14,Improv_Melody,401,5,42,110,2679346628
116,24,14,Improv_Melody,402,1,48,65,2679402116
116,24,14,Improv_Melody,403,1,38,68,2679509428
116,24,14,Improv_Melody,404,1,48,73,2679653940
116,24,14,Improv_Melody,405,5,42,110,2679847168
116,24,14,Improv_Melody,406,1,38,97,2679899000
116,24,14,Improv_Melody,407,1,48,81,2679916564
116,24,14,Improv_Melody,408,1,48,55,2680153644
116,24,14,Improv_Melody,409,5,42,127,2680346872
116,24,14,Improv_Melody,410,1,48,60,2680401748
116,24,14,Improv_Melody,411,1,48,58,2680647388
116,24,14,Improv_Melody,412,5,42,110,2680846696
116,24,14,Improv_Melody,413,1,38,81,2680902776
116,24,14,Improv_Melody,414,1,48,80,2680913152
116,24,14,Improv_Melody,415,1,48,62,2681151656
116,24,14,Improv_Melody,416,1,38,63,2681293624
116,24,14,Improv_Melody,417,5,42,110,2681346544
116,24,14,Improv_Melody,418,1,48,58,2681412708
116,24,14,Improv_Melody,419,1,38,58,2681545776
116,24,14,Improv_Melody,420,1,48,69,2681677764
116,24,14,Improv_Melody,421,5,42,110,2681847232
116,24,14,Improv_Melody,422,1,38,84,2681900012
116,24,14,Improv_Melody,423,1,38,67,2681919892
116,24,14,Improv_Melody,424,1,48,66,2681922640
116,24,14,Improv_Melody,425,1,48,48,2681948452
116,24,14,Improv_Melody,426,1,48,57,2682150576
116,24,14,Improv_Melody,427,2,41,80,2682349628
116,24,14,Improv_Melody,428,2,65,80,2682351780
116,24,14,Improv_Melody,429,5,42,127,2682354312
116,24,14,Improv_Melody,430,1,38,68,2682385328
116,24,14,Improv_Melody,431,1,48,70,2682414260
116,24,14,Improv_Melody,432,1,48,60,2682636680
116,24,14,Improv_Melody,433,5,42,110,2682846684
116,24,14,Improv_Melody,434,1,38,93,2682890796
116,24,14,Improv_Melody,435,1,48,84,2682901320
116,24,14,Improv_Melody,436,1,38,73,2682910572
116,24,14,Improv_Melody,437,1,48,57,2683142348
116,24,14,Improv_Melody,438,5,42,110,2683347268
116,24,14,Improv_Melody,439,1,38,93,2683396536
116,24,14,Improv_Melody,440,1,48,84,2683408784
116,24,14,Improv_Melody,441,1,38,67,2683416692
116,24,14,Improv_Melody,442,1,48,60,2683646216
116,24,14,Improv_Melody,443,5,42,110,2683846876
116,24,14,Improv_Melody,444,1,38,86,2683883352
116,24,14,Improv_Melody,445,1,48,83,2683899860
116,24,14,Improv_Melody,446,1,48,52,2684111008
116,24,14,Improv_Melody,447,5,42,127,2684346668
116,24,14,Improv_Melody,448,1,38,93,2684378732
116,24,14,Improv_Melody,449,1,48,84,2684384696
116,24,14,Improv_Melody,450,1,38,63,2684401808
116,24,14,Improv_Melody,451,1,38,66,2684611512
116,24,14,Improv_Melody,452,1,48,71,2684625700
116,24,14,Improv_Melody,453,1,38,51,2684633760
116,24,14,Improv_Melody,454,5,42,110,2684846580
116,24,14,Improv_Melody,455,1,48,66,2684872512
116,24,14,Improv_Melody,456,1,38,88,2684882664
116,24,14,Improv_Melody,457,1,38,60,2684906128
116,24,14,Improv_Melody,458,1,38,73,2685119352
116,24,14,Improv_Melody,459,1,48,57,2685122548
116,24,14,Improv_Melody,460,5,42,110,2685347116
116,24,14,Improv_Melody,461,1,48,55,2685364672
116,24,14,Improv_Melody,462,1,38,75,2685367944
116,24,14,Improv_Melody,463,1,48,58,2685612284
116,24,14,Improv_Melody,464,1,38,70,2685617120
116,24,14,Improv_Melody,465,5,42,110,2685846996
116,24,14,Improv_Melody,466,1,48,64,2685863804
116,24,14,Improv_Melody,467,1,38,80,2685873732
116,24,14,Improv_Melody,468,1,38,79,2686117772
116,24,14,Improv_Melody,469,1,48,77,2686130996
116,24,14,Improv_Melody,470,1,38,52,2686143460
116,24,14,Improv_Melody,471,2,48,80,2686349064
116,24,14,Improv_Melody,472,2,72,80,2686351448
116,24,14,Improv_Melody,473,5,42,127,2686353980
116,24,14,Improv_Melody,474,1,48,76,2686381112
116,24,14,Improv_Melody,475,1,48,59,2686625772
116,24,14,Improv_Melody,476,5,42,110,2686847448
116,24,14,Improv_Melody,477,1,38,82,2686858796
116,24,14,Improv_Melody,478,1,48,90,2686882784
116,24,14,Improv_Melody,479,1,48,56,2687093392
116,24,14,Improv_Melody,480,1,38,66,2687248876
116,24,14,Improv_Melody,481,1,38,41,2687290064
116,24,14,Improv_Melody,482,5,42,110,2687347052
116,24,14,Improv_Melody,483,1,48,68,2687374556
116,24,14,Improv_Melody,484,1,38,73,2687500088
116,24,14,Improv_Melody,485,1,48,81,2687645124
116,24,14,Improv_Melody,486,5,42,110,2687846680
116,24,14,Improv_Melody,487,1,38,106,2687868568
116,24,14,Improv_Melody,488,1,48,71,2687887476
116,24,14,Improv_Melody,489,1,48,49,2688100924
116,24,14,Improv_Melody,490,5,42,127,2688346608
116,24,14,Improv_Melody,491,1,48,73,2688369772
116,24,14,Improv_Melody,492,1,48,63,2688608228
116,24,14,Improv_Melody,493,5,42,110,2688847084
116,24,14,Improv_Melody,494,1,38,96,2688869972
116,24,14,Improv_Melody,495,1,48,97,2688880348
116,24,14,Improv_Melody,496,1,48,60,2689098936
116,24,14,Improv_Melody,497,1,38,67,2689234916
116,24,14,Improv_Melody,498,1,38,52,2689265264
116,24,14,Improv_Melody,499,5,42,110,2689346912
116,24,14,Improv_Melody,500,1,48,84,2689375696
116,24,14,Improv_Melody,501,1,38,66,2689467532
116,24,14,Improv_Melody,502,1,48,77,2689624432
116,24,14,Improv_Melody,503,5,42,110,2689846604
116,24,14,Improv_Melody,504,1,38,98,2689876672
116,24,14,Improv_Melody,505,1,48,97,2689899992
116,24,14,Improv_Melody,506,1,48,52,2690117600
116,24,14,Improv_Melody,507,2,43,80,2690349856
116,24,14,Improv_Melody,508,2,67,80,2690352168
116,24,14,Improv_Melody,509,5,42,127,2690354700
116,24,14,Improv_Melody,510,1,48,63,2690376892
116,24,14,Improv_Melody,511,1,48,51,2690598516
116,24,14,Improv_Melody,512,5,42,110,2690847492
116,24,14,Improv_Melody,513,1,38,106,2690871408
116,24,14,Improv_Melody,514,1,48,84,2690888364
116,24,14,Improv_Melody,515,1,48,32,2691084536
116,24,14,Improv_Melody,516,1,38,76,2691241764
116,24,14,Improv_Melody,517,5,42,110,2691346728
116,24,14,Improv_Melody,518,1,48,65,2691360616
116,24,14,Improv_Melody,519,1,38,54,2691484712
116,24,14,Improv_Melody,520,1,48,68,2691605112
116,24,14,Improv_Melody,521,5,42,110,2691846460
116,24,14,Improv_Melody,522,1,38,87,2691882936
116,24,14,Improv_Melody,523,1,48,91,2691888900
116,24,14,Improv_Melody,524,1,38,62,2691902868
116,24,14,Improv_Melody,525,1,48,52,2692116688
116,24,14,Improv_Melody,526,5,42,127,2692347188
116,24,14,Improv_Melody,527,1,48,52,2692357636
116,24,14,Improv_Melody,528,1,48,59,2692618760
116,24,14,Improv_Melody,529,5,42,110,2692846940
116,24,14,Improv_Melody,530,1,38,86,2692857164
116,24,14,Improv_Melody,531,1,48,87,2692886312
116,24,14,Improv_Melody,532,1,48,52,2693106120
116,24,14,Improv_Melody,533,1,38,58,2693235448
116,24,14,Improv_Melody,534,5,42,110,2693346700
116,24,14,Improv_Melody,535,1,48,60,2693368664
116,24,14,Improv_Melody,536,1,38,44,2693494628
116,24,14,Improv_Melody,537,1,48,69,2693606204
116,24,14,Improv_Melody,538,5,42,110,2693847552
116,24,14,Improv_Melody,539,1,38,85,2693866680
116,24,14,Improv_Melody,540,1,48,89,2693881616
116,24,14,Improv_Melody,541,1,48,52,2694115124
116,24,14,Improv_Melody,542,2,45,80,2694349700
116,24,14,Improv_Melody,543,2,69,80,2694352080
116,24,14,Improv_Melody,544,5,42,127,2694354612
116,24,14,Improv_Melody,545,1,48,55,2694360576
116,24,14,Improv_Melody,546,1,48,55,2694610624
116,24,14,Improv_Melody,547,5,42,110,2694846812
116,24,14,Improv_Melody,548,1,38,80,2694866012
116,24,14,Improv_Melody,549,1,48,82,2694878180
116,24,14,Improv_Melody,550,1,38,56,2694887736
116,24,14,Improv_Melody,551,1,48,62,2695111356
116,24,14,Improv_Melody,552,1,38,57,2695236024
116,24,14,Improv_Melody,553,5,42,110,2695346472
116,24,14,Improv_Melody,554,1,48,57,2695367696
116,24,14,Improv_Melody,555,1,38,51,2695510488
116,24,14,Improv_Melody,556,1,48,56,2695577556
116,24,14,Improv_Melody,557,5,42,110,2695847524
116,24,14,Improv_Melody,558,1,38,76,2695883256
116,24,14,Improv_Melody,559,1,48,67,2695886452
116,24,14,Improv_Melody,560,1,38,59,2695905432
116,24,14,Improv_Melody,561,1,48,50,2696140344
116,24,14,Improv_Melody,562,5,42,127,2696346984
116,24,14,Improv_Melody,563,1,48,54,2696387572
116,24,14,Improv_Melody,564,1,48,56,2696636956
116,24,14,Improv_Melody,565,5,42,110,2696846664
116,24,14,Improv_Melody,566,1,38,77,2696858836
116,24,14,Improv_Melody,567,1,48,74,2696881848
116,24,14,Improv_Melody,568,1,48,57,2697115416
116,24,14,Improv_Melody,569,1,38,54,2697252424
116,24,14,Improv_Melody,570,5,42,110,2697346512
116,24,14,Improv_Melody,571,1,48,59,2697388364
116,24,14,Improv_Melody,572,1,38,55,2697534416
116,24,14,Improv_Melody,573,1,48,60,2697650584
116,24,14,Improv_Melody,574,5,42,110,2697847420
116,24,14,Improv_Melody,575,1,38,70,2697885096
116,24,14,Improv_Melody,576,1,48,67,2697895252
116,24,14,Improv_Melody,577,1,38,56,2697907496
116,24,14,Improv_Melody,578,1,48,56,2698142484
116,24,14,Improv_Melody,579,2,41,80,2698349388
116,24,14,Improv_Melody,580,2,65,80,2698351316
116,24,14,Improv_Melody,581,5,42,127,2698354004
116,24,14,Improv_Melody,582,1,38,66,2698402596
116,24,14,Improv_Melody,583,1,48,73,2698414844
116,24,14,Improv_Melody,584,1,48,56,2698642656
116,24,14,Improv_Melody,585,1,38,53,2698651460
116,24,14,Improv_Melody,586,5,42,110,2698846628
116,24,14,Improv_Melody,587,1,38,62,2698896272
116,24,14,Improv_Melody,588,1,48,62,2698898800
116,24,14,Improv_Melody,589,1,38,47,2698923684
116,24,14,Improv_Melody,0,1,48,60,2699143860
116,24,14,Improv_Melody,1,1,38,65,2701403208
116,24,14,Improv_Melody,2,1,48,68,2701404396
116,24,14,Improv_Melody,3,1,38,79,2701404624
116,24,14,Improv_Melody,4,1,38,64,2701405572
116,24,14,Improv_Melody,5,1,48,57,2701405796
116,24,14,Improv_Melody,6,1,38,66,2701406740
116,24,14,Improv_Melody,7,1,48,31,2701406964
116,24,14,Improv_Melody,8,1,38,43,2701407588
116,24,14,Improv_Melody,9,1,38,79,2701408524
116,24,14,Improv_Melody,10,1,48,52,2701408728
116,24,14,Improv_Melody,11,1,38,51,2701409304
116,24,14,Improv_Melody,12,5,42,110,2701410088
116,24,14,Improv_Melody,13,5,42,110,2701410672
116,24,14,Improv_Melody,14,5,42,127,2701411424
116,24,14,Improv_Melody,15,5,42,110,2701414552
116,24,14,Improv_Melody,16,5,42,110,2701417588
116,24,14,Improv_Melody,17,1,38,66,2701425092
116,24,14,Improv_Melody,18,1,38,70,2701541228
116,24,14,Improv_Melody,19,1,38,69,2701670860
116,24,14,Improv_Melody,20,1,38,79,2701808240
116,24,14,Improv_Melody,21,5,42,110,2701847024
116,24,14,Improv_Melody,22,1,38,54,2701920764
116,24,14,Improv_Melody,23,1,38,75,2702038844
116,24,14,Improv_Melody,24,1,38,82,2702157380
116,24,14,Improv_Melody,25,1,38,83,2702243548
116,24,14,Improv_Melody,26,2,48,80,2702349376
116,24,14,Improv_Melody,27,2,72,80,2702351452
116,24,14,Improv_Melody,28,5,42,127,2702354356
116,24,14,Improv_Melody,29,1,48,90,2702405200
116,24,14,Improv_Melody,30,1,48,69,2702653832
116,24,14,Improv_Melody,31,5,42,110,2702847380
116,24,14,Improv_Melody,32,1,38,121,2702850128
116,24,14,Improv_Melody,33,1,48,93,2702874940
116,24,14,Improv_Melody,34,1,48,62,2703096540
116,24,14,Improv_Melody,35,1,38,90,2703234544
116,24,14,Improv_Melody,0,9999,9999,9999,2622344268
116,24,14,Improv_Melody,1,9999,9999,9999,2622845016
116,24,14,Improv_Melody,2,9999,9999,9999,2623344740
116,24,14,Improv_Melody,3,9999,9999,9999,2623844464
116,24,14,Improv_Melody,4,9999,9999,9999,2624344184
116,24,14,Improv_Melody,5,9999,9999,9999,2624844852
116,24,14,Improv_Melody,6,9999,9999,9999,2625344576
116,24,14,Improv_Melody,7,9999,9999,9999,2625844296
116,24,14,Improv_Melody,8,9999,9999,9999,2626345064
116,24,14,Improv_Melody,9,9999,9999,9999,2626844724
116,24,14,Improv_Melody,10,9999,9999,9999,2627344448
116,24,14,Improv_Melody,11,9999,9999,9999,2627844168
116,24,14,Improv_Melody,12,9999,9999,9999,2628344936
116,24,14,Improv_Melody,13,9999,9999,9999,2628844660
116,24,14,Improv_Melody,14,9999,9999,9999,2629344308
116,24,14,Improv_Melody,15,9999,9999,9999,2629845076
116,24,14,Improv_Melody,16,9999,9999,9999,2630344800
116,24,14,Improv_Melody,17,9999,9999,9999,2630844532
116,24,14,Improv_Melody,18,9999,9999,9999,2631344184
116,24,14,Improv_Melody,19,9999,9999,9999,2631844952
116,24,14,Improv_Melody,20,9999,9999,9999,2632344672
116,24,14,Improv_Melody,21,9999,9999,9999,2632844396
116,24,14,Improv_Melody,22,9999,9999,9999,2633344116
116,24,14,Improv_Melody,23,9999,9999,9999,2633844808
116,24,14,Improv_Melody,24,9999,9999,9999,2634344532
116,24,14,Improv_Melody,25,9999,9999,9999,2634844268
116,24,14,Improv_Melody,26,9999,9999,9999,2635345012
116,24,14,Improv_Melody,27,9999,9999,9999,2635844660
116,24,14,Improv_Melody,28,9999,9999,9999,2636344380
116,24,14,Improv_Melody,29,9999,9999,9999,2636844104
116,24,14,Improv_Melody,30,9999,9999,9999,2637344872
116,24,14,Improv_Melody,31,9999,9999,9999,2637844592
116,24,14,Improv_Melody,32,9999,9999,9999,2638344308
116,24,14,Improv_Melody,33,9999,9999,9999,2638844980
116,24,14,Improv_Melody,34,9999,9999,9999,2639344732
116,24,14,Improv_Melody,35,9999,9999,9999,2639844408
116,24,14,Improv_Melody,36,9999,9999,9999,2640344160
116,24,14,Improv_Melody,37,9999,9999,9999,2640844884
116,24,14,Improv_Melody,38,9999,9999,9999,2641344584
116,24,14,Improv_Melody,39,9999,9999,9999,2641844336
116,24,14,Improv_Melody,40,9999,9999,9999,2642345064
116,24,14,Improv_Melody,41,9999,9999,9999,2642844760
116,24,14,Improv_Melody,42,9999,9999,9999,2643344440
116,24,14,Improv_Melody,43,9999,9999,9999,2643844192
116,24,14,Improv_Melody,44,9999,9999,9999,2644344920
116,24,14,Improv_Melody,45,9999,9999,9999,2644844600
116,24,14,Improv_Melody,46,9999,9999,9999,2645344352
116,24,14,Improv_Melody,47,9999,9999,9999,2645845076
116,24,14,Improv_Melody,48,9999,9999,9999,2646344804
116,24,14,Improv_Melody,49,9999,9999,9999,2646844524
116,24,14,Improv_Melody,50,9999,9999,9999,2647344200
116,24,14,Improv_Melody,51,9999,9999,9999,2647844928
116,24,14,Improv_Melody,52,9999,9999,9999,2648344676
116,24,14,Improv_Melody,53,9999,9999,9999,2648844356
116,24,14,Improv_Melody,54,9999,9999,9999,2649344116
116,24,14,Improv_Melody,55,9999,9999,9999,2649844856
116,24,14,Improv_Melody,56,9999,9999,9999,2650344532
116,24,14,Improv_Melody,57,9999,9999,9999,2650844264
116,24,14,Improv_Melody,58,9999,9999,9999,2651344992
116,24,14,Improv_Melody,59,9999,9999,9999,2651844672
116,24,14,Improv_Melody,60,9999,9999,9999,2652344424
116,24,14,Improv_Melody,61,9999,9999,9999,2652844100
116,24,14,Improv_Melody,62,9999,9999,9999,2653344820
116,24,14,Improv_Melody,63,9999,9999,9999,2653844532
116,24,14,Improv_Melody,64,9999,9999,9999,2654344292
116,24,14,Improv_Melody,65,9999,9999,9999,2654845000
116,24,14,Improv_Melody,66,9999,9999,9999,2655344756
116,24,14,Improv_Melody,67,9999,9999,9999,2655844444
116,24,14,Improv_Melody,68,9999,9999,9999,2656344148
116,24,14,Improv_Melody,69,9999,9999,9999,2656844904
116,24,14,Improv_Melody,70,9999,9999,9999,2657344584
116,24,14,Improv_Melody,71,9999,9999,9999,2657844300
116,24,14,Improv_Melody,72,9999,9999,9999,2658345032
116,24,14,Improv_Melody,73,9999,9999,9999,2658844724
116,24,14,Improv_Melody,74,9999,9999,9999,2659344476
116,24,14,Improv_Melody,75,9999,9999,9999,2659844192
116,24,14,Improv_Melody,76,9999,9999,9999,2660344896
116,24,14,Improv_Melody,77,9999,9999,9999,2660844624
116,24,14,Improv_Melody,78,9999,9999,9999,2661344332
116,24,14,Improv_Melody,79,9999,9999,9999,2661845108
116,24,14,Improv_Melody,80,9999,9999,9999,2662344792
116,24,14,Improv_Melody,81,9999,9999,9999,2662844484
116,24,14,Improv_Melody,82,9999,9999,9999,2663344184
116,24,14,Improv_Melody,83,9999,9999,9999,2663844944
116,24,14,Improv_Melody,84,9999,9999,9999,2664344648
116,24,14,Improv_Melody,85,9999,9999,9999,2664844404
116,24,14,Improv_Melody,86,9999,9999,9999,2665344088
116,24,14,Improv_Melody,87,9999,9999,9999,2665844788
116,24,14,Improv_Melody,88,9999,9999,9999,2666344548
116,24,14,Improv_Melody,89,9999,9999,9999,2666844220
116,24,14,Improv_Melody,90,9999,9999,9999,2667344972
116,24,14,Improv_Melody,91,9999,9999,9999,2667844660
116,24,14,Improv_Melody,92,9999,9999,9999,2668344376
116,24,14,Improv_Melody,93,9999,9999,9999,2668844132
116,24,14,Improv_Melody,94,9999,9999,9999,2669344856
116,24,14,Improv_Melody,95,9999,9999,9999,2669844536
116,24,14,Improv_Melody,96,9999,9999,9999,2670344300
116,24,14,Improv_Melody,97,9999,9999,9999,2670845012
116,24,14,Improv_Melody,98,9999,9999,9999,2671344688
116,24,14,Improv_Melody,99,9999,9999,9999,2671844456
116,24,14,Improv_Melody,100,9999,9999,9999,2672344172
116,24,14,Improv_Melody,101,9999,9999,9999,2672844896
116,24,14,Improv_Melody,102,9999,9999,9999,2673344592
116,24,14,Improv_Melody,103,9999,9999,9999,2673844304
116,24,14,Improv_Melody,104,9999,9999,9999,2674345056
116,24,14,Improv_Melody,105,9999,9999,9999,2674844748
116,24,14,Improv_Melody,106,9999,9999,9999,2675344480
116,24,14,Improv_Melody,107,9999,9999,9999,2675844184
116,24,14,Improv_Melody,108,9999,9999,9999,2676344936
116,24,14,Improv_Melody,109,9999,9999,9999,2676844616
116,24,14,Improv_Melody,110,9999,9999,9999,2677344316
116,24,14,Improv_Melody,111,9999,9999,9999,2677845044
116,24,14,Improv_Melody,112,9999,9999,9999,2678344820
116,24,14,Improv_Melody,113,9999,9999,9999,2678844508
116,24,14,Improv_Melody,114,9999,9999,9999,2679344184
116,24,14,Improv_Melody,115,9999,9999,9999,2679844948
116,24,14,Improv_Melody,116,9999,9999,9999,2680344652
116,24,14,Improv_Melody,117,9999,9999,9999,2680844404
116,24,14,Improv_Melody,118,9999,9999,9999,2681344104
116,24,14,Improv_Melody,119,9999,9999,9999,2681844792
116,24,14,Improv_Melody,120,9999,9999,9999,2682344528
116,24,14,Improv_Melody,121,9999,9999,9999,2682844244
116,24,14,Improv_Melody,122,9999,9999,9999,2683344972
116,24,14,Improv_Melody,123,9999,9999,9999,2683844656
116,24,14,Improv_Melody,124,9999,9999,9999,2684344372
116,24,14,Improv_Melody,125,9999,9999,9999,2684844140
116,24,14,Improv_Melody,126,9999,9999,9999,2685344824
116,24,14,Improv_Melody,127,9999,9999,9999,2685844556
116,24,14,Improv_Melody,128,9999,9999,9999,2686344272
116,24,14,Improv_Melody,129,9999,9999,9999,2686845008
116,24,14,Improv_Melody,130,9999,9999,9999,2687344756
116,24,14,Improv_Melody,131,9999,9999,9999,2687844460
116,24,14,Improv_Melody,132,9999,9999,9999,2688344164
116,24,14,Improv_Melody,133,9999,9999,9999,2688844864
116,24,14,Improv_Melody,134,9999,9999,9999,2689344616
116,24,14,Improv_Melody,135,9999,9999,9999,2689844308
116,24,14,Improv_Melody,136,9999,9999,9999,2690345064
116,24,14,Improv_Melody,137,9999,9999,9999,2690844752
116,24,14,Improv_Melody,138,9999,9999,9999,2691344436
116,24,14,Improv_Melody,139,9999,9999,9999,2691844168
116,24,14,Improv_Melody,140,9999,9999,9999,2692344896
116,24,14,Improv_Melody,141,9999,9999,9999,2692844648
116,24,14,Improv_Melody,142,9999,9999,9999,2693344332
116,24,14,Improv_Melody,143,9999,9999,9999,2693845108
116,24,14,Improv_Melody,144,9999,9999,9999,2694344752
116,24,14,Improv_Melody,145,9999,9999,9999,2694844520
116,24,14,Improv_Melody,146,9999,9999,9999,2695344180
116,24,14,Improv_Melody,147,9999,9999,9999,2695844936
116,24,14,Improv_Melody,148,9999,9999,9999,2696344692
116,24,14,Improv_Melody,149,9999,9999,9999,2696844372
116,24,14,Improv_Melody,150,9999,9999,9999,2697344068
116,24,14,Improv_Melody,151,9999,9999,9999,2697844828
116,24,14,Improv_Melody,152,9999,9999,9999,2698344516
116,24,14,Improv_Melody,153,9999,9999,9999,2698844260
116,24,14,Improv_Melody,154,9999,9999,9999,2701402876
116,24,14,Improv_Melody,155,9999,9999,9999,2701403080
116,24,14,Improv_Melody,156,9999,9999,9999,2701403288
116,24,14,Improv_Melody,157,9999,9999,9999,2701403464
116,24,14,Improv_Melody,158,9999,9999,9999,2701403644
116,24,14,Improv_Melody,159,9999,9999,9999,2701844580
116,24,14,Improv_Melody,160,9999,9999,9999,2702344276
116,24,14,Improv_Melody,161,9999,9999,9999,2702845012
