pid,taskRunCount,taskID,taskName,i,channel,pitch,velocity,microseconds
1,1,Ticks_Pract_5,0,5,42,127,125364624
1211,1,Ticks_Pract_5,1,5,42,127,125865464
1211,1,Ticks_Pract_5,2,1,38,27,126282116
1211,1,Ticks_Pract_5,3,5,42,127,126365172
1211,1,Ticks_Pract_5,4,1,38,19,126731772
1211,1,Ticks_Pract_5,5,5,42,127,126864852
1211,1,Ticks_Pract_5,6,1,38,21,127258020
1211,1,Ticks_Pract_5,7,5,42,127,127364472
1211,1,Ticks_Pract_5,8,1,38,19,127775964
1211,1,Ticks_Pract_5,9,5,42,127,127865080
1211,1,Ticks_Pract_5,10,1,38,19,128308272
1211,1,Ticks_Pract_5,11,5,42,127,128364996
1211,1,Ticks_Pract_5,12,1,38,20,128839376
1211,1,Ticks_Pract_5,13,5,42,127,128864692
1211,1,Ticks_Pract_5,14,1,38,19,129361660
1211,1,Ticks_Pract_5,15,5,42,127,129365356
1211,1,Ticks_Pract_5,16,1,38,18,129861952
1211,1,Ticks_Pract_5,17,5,42,127,129865200
1211,1,Ticks_Pract_5,18,5,42,127,130364900
1211,1,Ticks_Pract_5,19,1,38,19,130385000
1211,1,Ticks_Pract_5,20,5,42,127,130864520
1211,1,Ticks_Pract_5,21,1,38,16,130892100
1211,1,Ticks_Pract_5,22,5,42,127,131365264
1211,1,Ticks_Pract_5,23,1,38,17,131374816
1211,1,Ticks_Pract_5,24,1,38,19,131817248
1211,1,Ticks_Pract_5,25,5,42,127,131865024
1211,1,Ticks_Pract_5,26,1,38,32,132340528
1211,1,Ticks_Pract_5,27,5,42,127,132364644
1211,1,Ticks_Pract_5,28,1,38,20,132826436
1211,1,Ticks_Pract_5,29,5,42,127,132865384
1211,1,Ticks_Pract_5,30,1,38,31,133349092
1211,1,Ticks_Pract_5,31,5,42,127,133365156
1211,1,Ticks_Pract_5,32,1,38,24,133855140
1211,1,Ticks_Pract_5,33,5,42,127,133864752
1211,1,Ticks_Pract_5,34,1,38,17,134358356
1211,1,Ticks_Pract_5,35,5,42,127,134364668
1211,1,Ticks_Pract_5,36,5,42,127,134865268
1211,1,Ticks_Pract_5,37,5,42,127,135364984
1211,1,Ticks_Pract_5,38,1,48,16,135744012
1211,1,Ticks_Pract_5,39,5,42,127,135864676
1211,1,Ticks_Pract_5,40,1,48,20,136296064
1211,1,Ticks_Pract_5,41,5,42,127,136365436
1211,1,Ticks_Pract_5,42,1,48,20,136783640
1211,1,Ticks_Pract_5,43,5,42,127,136865204
1211,1,Ticks_Pract_5,44,1,48,24,137304656
1211,1,Ticks_Pract_5,45,5,42,127,137364900
1211,1,Ticks_Pract_5,46,1,48,23,137824696
1211,1,Ticks_Pract_5,47,5,42,127,137864672
1211,1,Ticks_Pract_5,48,1,48,22,138345932
1211,1,Ticks_Pract_5,49,5,42,127,138365264
1211,1,Ticks_Pract_5,50,1,48,22,138785788
1211,1,Ticks_Pract_5,51,5,42,127,138865108
1211,1,Ticks_Pract_5,52,1,48,22,139277412
1211,1,Ticks_Pract_5,53,5,42,127,139364804
1211,1,Ticks_Pract_5,54,1,48,21,139778600
1211,1,Ticks_Pract_5,55,5,42,127,139864572
1211,1,Ticks_Pract_5,56,1,48,24,140295644
1211,1,Ticks_Pract_5,57,5,42,127,140365016
1211,1,Ticks_Pract_5,58,1,48,28,140804088
1211,1,Ticks_Pract_5,59,5,42,127,140865008
1211,1,Ticks_Pract_5,60,1,48,22,141359216
1211,1,Ticks_Pract_5,61,5,42,127,141364704
1211,1,Ticks_Pract_5,62,1,48,20,141854792
1211,1,Ticks_Pract_5,63,5,42,127,141865372
1211,1,Ticks_Pract_5,64,5,42,127,142364996
1211,1,Ticks_Pract_5,65,1,48,23,142387268
1211,1,Ticks_Pract_5,66,5,42,127,142864692
1211,1,Ticks_Pract_5,67,1,48,25,142899748
1211,1,Ticks_Pract_5,68,5,42,127,143364536
1211,1,Ticks_Pract_5,69,1,48,28,143398768
1211,1,Ticks_Pract_5,70,1,48,27,143832080
1211,1,Ticks_Pract_5,71,5,42,127,143865340
1211,1,Ticks_Pract_5,72,5,42,127,144364896
1211,1,Ticks_Pract_5,73,1,48,29,144827528
1211,1,Ticks_Pract_5,74,5,42,127,144864656
1211,1,Ticks_Pract_5,75,1,48,22,145300668
1211,1,Ticks_Pract_5,0,9999,9999,9999,125362264
1211,1,Ticks_Pract_5,1,9999,9999,9999,125863028
1211,1,Ticks_Pract_5,2,9999,9999,9999,126362736
1211,1,Ticks_Pract_5,3,9999,9999,9999,126862416
1211,1,Ticks_Pract_5,4,9999,9999,9999,127362112
1211,1,Ticks_Pract_5,5,9999,9999,9999,127862868
1211,1,Ticks_Pract_5,6,9999,9999,9999,128362564
1211,1,Ticks_Pract_5,7,9999,9999,9999,128862256
1211,1,Ticks_Pract_5,8,9999,9999,9999,129362996
1211,1,Ticks_Pract_5,9,9999,9999,9999,129862768
1211,1,Ticks_Pract_5,10,9999,9999,9999,130362468
1211,1,Ticks_Pract_5,11,9999,9999,9999,130862160
1211,1,Ticks_Pract_5,12,9999,9999,9999,131362904
1211,1,Ticks_Pract_5,13,9999,9999,9999,131862592
1211,1,Ticks_Pract_5,14,9999,9999,9999,132362360
1211,1,Ticks_Pract_5,15,9999,9999,9999,132863024
1211,1,Ticks_Pract_5,16,9999,9999,9999,133362792
1211,1,Ticks_Pract_5,17,9999,9999,9999,133862464
1211,1,Ticks_Pract_5,18,9999,9999,9999,134362232
1211,1,Ticks_Pract_5,19,9999,9999,9999,134862904
1211,1,Ticks_Pract_5,20,9999,9999,9999,135362624
1211,1,Ticks_Pract_5,21,9999,9999,9999,135862392
1211,1,Ticks_Pract_5,22,9999,9999,9999,136363076
1211,1,Ticks_Pract_5,23,9999,9999,9999,136862772
1211,1,Ticks_Pract_5,24,9999,9999,9999,137362540
1211,1,Ticks_Pract_5,25,9999,9999,9999,137862236
1211,1,Ticks_Pract_5,26,9999,9999,9999,138362980
1211,1,Ticks_Pract_5,27,9999,9999,9999,138862676
1211,1,Ticks_Pract_5,28,9999,9999,9999,139362368
1211,1,Ticks_Pract_5,29,9999,9999,9999,139862136
1211,1,Ticks_Pract_5,30,9999,9999,9999,140362804
1211,1,Ticks_Pract_5,31,9999,9999,9999,140862576
1211,1,Ticks_Pract_5,32,9999,9999,9999,141362268
1211,1,Ticks_Pract_5,33,9999,9999,9999,141863012
1211,1,Ticks_Pract_5,34,9999,9999,9999,142362708
1211,1,Ticks_Pract_5,35,9999,9999,9999,142862404
1211,1,Ticks_Pract_5,36,9999,9999,9999,143362100
1211,1,Ticks_Pract_5,37,9999,9999,9999,143862832
1211,1,Ticks_Pract_5,38,9999,9999,9999,144362608
1211,1,Ticks_Pract_5,39,9999,9999,9999,144862296
1212,0,Ticks_Pract_8,0,5,42,127,208153980
1212,0,Ticks_Pract_8,1,5,42,127,208953584
1212,0,Ticks_Pract_8,2,1,48,27,209001432
1212,0,Ticks_Pract_8,3,1,48,22,209692768
1212,0,Ticks_Pract_8,4,5,42,127,209753608
1212,0,Ticks_Pract_8,5,1,48,22,210517336
1212,0,Ticks_Pract_8,6,5,42,127,210554316
1212,0,Ticks_Pract_8,7,5,42,127,211353984
1212,0,Ticks_Pract_8,8,1,48,23,211381936
1212,0,Ticks_Pract_8,9,5,42,127,212153568
1212,0,Ticks_Pract_8,10,1,48,16,212190648
1212,0,Ticks_Pract_8,11,5,42,127,212953524
1212,0,Ticks_Pract_8,12,1,48,29,212997808
1212,0,Ticks_Pract_8,13,5,42,127,213754180
1212,0,Ticks_Pract_8,14,1,48,24,213860820
1212,0,Ticks_Pract_8,15,5,42,127,214553916
1212,0,Ticks_Pract_8,16,1,48,26,214585608
1212,0,Ticks_Pract_8,17,5,42,127,215353576
1212,0,Ticks_Pract_8,18,1,48,27,215391100
1212,0,Ticks_Pract_8,19,5,42,127,216153312
1212,0,Ticks_Pract_8,20,1,48,24,216171764
1212,0,Ticks_Pract_8,21,5,42,127,216954240
1212,0,Ticks_Pract_8,22,1,48,25,217018772
1212,0,Ticks_Pract_8,23,5,42,127,217753972
1212,0,Ticks_Pract_8,24,1,48,32,217776988
1212,0,Ticks_Pract_8,25,5,42,127,218553708
1212,0,Ticks_Pract_8,26,1,48,25,218582408
1212,0,Ticks_Pract_8,27,1,48,25,219345248
1212,0,Ticks_Pract_8,28,5,42,127,219353584
1212,0,Ticks_Pract_8,29,1,48,25,220139472
1212,0,Ticks_Pract_8,30,5,42,127,220154168
1212,0,Ticks_Pract_8,31,1,48,26,220938312
1212,0,Ticks_Pract_8,32,5,42,127,220954048
1212,0,Ticks_Pract_8,33,1,48,31,221712612
1212,0,Ticks_Pract_8,34,5,42,127,221753632
1212,0,Ticks_Pract_8,35,1,48,18,221787556
1212,0,Ticks_Pract_8,36,5,42,127,222553428
1212,0,Ticks_Pract_8,37,1,48,29,222560288
1212,0,Ticks_Pract_8,38,5,42,127,223354432
1212,0,Ticks_Pract_8,39,1,48,21,223360916
1212,0,Ticks_Pract_8,40,5,42,127,224154016
1212,0,Ticks_Pract_8,41,1,48,32,224160128
1212,0,Ticks_Pract_8,42,5,42,127,224953676
1212,0,Ticks_Pract_8,43,1,48,29,224987612
1212,0,Ticks_Pract_8,44,1,48,23,225706020
1212,0,Ticks_Pract_8,45,5,42,127,225753400
1212,0,Ticks_Pract_8,46,1,48,29,226490268
1212,0,Ticks_Pract_8,47,5,42,127,226554356
1212,0,Ticks_Pract_8,48,1,48,33,227259636
1212,0,Ticks_Pract_8,49,5,42,127,227354088
1212,0,Ticks_Pract_8,50,1,48,24,228052560
1212,0,Ticks_Pract_8,51,5,42,127,228153804
1212,0,Ticks_Pract_8,52,1,48,32,228829104
1212,0,Ticks_Pract_8,53,5,42,127,228953316
1212,0,Ticks_Pract_8,54,5,42,127,229754192
1212,0,Ticks_Pract_8,55,1,48,24,229778632
1212,0,Ticks_Pract_8,56,5,42,127,230554148
1212,0,Ticks_Pract_8,57,1,48,28,230599008
1212,0,Ticks_Pract_8,58,5,42,127,231353660
1212,0,Ticks_Pract_8,59,1,48,30,231437664
1212,0,Ticks_Pract_8,0,9999,9999,9999,208151616
1212,0,Ticks_Pract_8,1,9999,9999,9999,208951372
1212,0,Ticks_Pract_8,2,9999,9999,9999,209751096
1212,0,Ticks_Pract_8,3,9999,9999,9999,210551880
1212,0,Ticks_Pract_8,4,9999,9999,9999,211351620
1212,0,Ticks_Pract_8,5,9999,9999,9999,212151356
1212,0,Ticks_Pract_8,6,9999,9999,9999,212951088
1212,0,Ticks_Pract_8,7,9999,9999,9999,213751892
1212,0,Ticks_Pract_8,8,9999,9999,9999,214551628
1212,0,Ticks_Pract_8,9,9999,9999,9999,215351360
1212,0,Ticks_Pract_8,10,9999,9999,9999,216151096
1212,0,Ticks_Pract_8,11,9999,9999,9999,216951876
1212,0,Ticks_Pract_8,12,9999,9999,9999,217751612
1212,0,Ticks_Pract_8,13,9999,9999,9999,218551344
1212,0,Ticks_Pract_8,14,9999,9999,9999,219351148
1212,0,Ticks_Pract_8,15,9999,9999,9999,220151880
1212,0,Ticks_Pract_8,16,9999,9999,9999,220951612
1212,0,Ticks_Pract_8,17,9999,9999,9999,221751348
1212,0,Ticks_Pract_8,18,9999,9999,9999,222551140
1212,0,Ticks_Pract_8,19,9999,9999,9999,223351920
1212,0,Ticks_Pract_8,20,9999,9999,9999,224151652
1212,0,Ticks_Pract_8,21,9999,9999,9999,224951388
1212,0,Ticks_Pract_8,22,9999,9999,9999,225751112
1212,0,Ticks_Pract_8,23,9999,9999,9999,226551916
1212,0,Ticks_Pract_8,24,9999,9999,9999,227351648
1212,0,Ticks_Pract_8,25,9999,9999,9999,228151348
1212,0,Ticks_Pract_8,26,9999,9999,9999,228951100
1212,0,Ticks_Pract_8,27,9999,9999,9999,229751904
1212,0,Ticks_Pract_8,28,9999,9999,9999,230551636
1212,0,Ticks_Pract_8,29,9999,9999,9999,231351372
1213,4,T1_SMS_5,0,5,42,127,373232080
1213,4,T1_SMS_5,1,5,42,127,373731724
1213,4,T1_SMS_5,2,1,48,33,373881224
1213,4,T1_SMS_5,3,5,42,127,374232516
1213,4,T1_SMS_5,4,1,48,25,374432376
1213,4,T1_SMS_5,5,5,42,127,374732432
1213,4,T1_SMS_5,6,1,48,19,374870664
1213,4,T1_SMS_5,7,5,42,127,375231832
1213,4,T1_SMS_5,8,1,48,21,375309404
1213,4,T1_SMS_5,9,5,42,127,375731528
1213,4,T1_SMS_5,10,1,48,26,375748556
1213,4,T1_SMS_5,11,5,42,127,376232268
1213,4,T1_SMS_5,12,1,48,26,376235760
1213,4,T1_SMS_5,13,5,42,127,376732112
1213,4,T1_SMS_5,14,1,48,27,376738448
1213,4,T1_SMS_5,15,1,48,29,377210820
1213,4,T1_SMS_5,16,5,42,127,377231724
1213,4,T1_SMS_5,17,1,48,29,377712164
1213,4,T1_SMS_5,18,5,42,127,377731568
1213,4,T1_SMS_5,19,1,48,26,378213652
1213,4,T1_SMS_5,20,5,42,127,378232236
1213,4,T1_SMS_5,21,1,48,28,378710284
1213,4,T1_SMS_5,22,5,42,127,378731860
1213,4,T1_SMS_5,23,1,48,33,379203092
1213,4,T1_SMS_5,24,5,42,127,379231476
1213,4,T1_SMS_5,25,1,48,32,379715656
1213,4,T1_SMS_5,26,5,42,127,379732296
1213,4,T1_SMS_5,27,5,42,127,380232072
1213,4,T1_SMS_5,28,1,48,38,380236988
1213,4,T1_SMS_5,29,5,42,127,380731692
1213,4,T1_SMS_5,30,1,48,28,380762264
1213,4,T1_SMS_5,31,5,42,127,381231608
1213,4,T1_SMS_5,32,1,48,30,381255668
1213,4,T1_SMS_5,33,1,48,35,381730760
1213,4,T1_SMS_5,34,5,42,127,381732344
1213,4,T1_SMS_5,35,5,42,127,382231896
1213,4,T1_SMS_5,36,1,48,29,382241224
1213,4,T1_SMS_5,37,5,42,127,382731668
1213,4,T1_SMS_5,38,1,48,29,382742116
1213,4,T1_SMS_5,39,1,48,25,383218760
1213,4,T1_SMS_5,40,5,42,127,383232328
1213,4,T1_SMS_5,41,1,48,26,383708332
1213,4,T1_SMS_5,42,5,42,127,383732024
1213,4,T1_SMS_5,43,1,48,30,384185436
1213,4,T1_SMS_5,44,5,42,127,384231864
1213,4,T1_SMS_5,45,1,48,29,384671816
1213,4,T1_SMS_5,46,5,42,127,384731612
1213,4,T1_SMS_5,47,1,48,28,385185616
1213,4,T1_SMS_5,48,5,42,127,385232104
1213,4,T1_SMS_5,49,1,48,23,385705804
1213,4,T1_SMS_5,50,5,42,127,385732096
1213,4,T1_SMS_5,51,1,48,30,386183440
1213,4,T1_SMS_5,52,5,42,127,386231572
1213,4,T1_SMS_5,53,1,48,31,386676400
1213,4,T1_SMS_5,54,5,42,127,386732536
1213,4,T1_SMS_5,55,1,48,31,387197120
1213,4,T1_SMS_5,56,5,42,127,387232004
1213,4,T1_SMS_5,57,1,48,26,387713340
1213,4,T1_SMS_5,58,5,42,127,387731924
1213,4,T1_SMS_5,59,1,48,29,388217228
1213,4,T1_SMS_5,60,5,42,127,388231472
1213,4,T1_SMS_5,61,1,48,31,388715120
1213,4,T1_SMS_5,62,5,42,127,388732360
1213,4,T1_SMS_5,63,5,42,127,389231988
1213,4,T1_SMS_5,64,1,48,32,389243556
1213,4,T1_SMS_5,65,5,42,127,389731684
1213,4,T1_SMS_5,66,1,48,32,389735848
1213,4,T1_SMS_5,67,5,42,127,390232352
1213,4,T1_SMS_5,68,1,48,31,390236520
1213,4,T1_SMS_5,69,5,42,127,390732120
1213,4,T1_SMS_5,70,1,48,24,390761572
1213,4,T1_SMS_5,71,1,48,31,391219508
1213,4,T1_SMS_5,72,5,42,127,391231956
1213,4,T1_SMS_5,73,1,48,29,391728256
1213,4,T1_SMS_5,74,5,42,127,391731504
1213,4,T1_SMS_5,75,1,48,36,392213812
1213,4,T1_SMS_5,76,5,42,127,392232244
1213,4,T1_SMS_5,77,1,48,36,392722252
1213,4,T1_SMS_5,78,5,42,127,392731864
1213,4,T1_SMS_5,79,1,48,29,393216568
1213,4,T1_SMS_5,80,5,42,127,393231784
1213,4,T1_SMS_5,81,1,48,29,393706456
1213,4,T1_SMS_5,82,5,42,127,393731480
1213,4,T1_SMS_5,83,1,48,29,394181824
1213,4,T1_SMS_5,84,5,42,127,394232144
1213,4,T1_SMS_5,85,1,48,29,394709120
1213,4,T1_SMS_5,86,5,42,127,394731840
1213,4,T1_SMS_5,87,1,48,27,395193176
1213,4,T1_SMS_5,88,5,42,127,395231460
1213,4,T1_SMS_5,89,1,48,30,395694668
1213,4,T1_SMS_5,90,5,42,127,395732252
1213,4,T1_SMS_5,91,1,48,26,396210596
1213,4,T1_SMS_5,92,5,42,127,396232020
1213,4,T1_SMS_5,93,1,48,28,396698700
1213,4,T1_SMS_5,94,5,42,127,396731864
1213,4,T1_SMS_5,95,1,48,38,397189936
1213,4,T1_SMS_5,96,5,42,127,397231408
1213,4,T1_SMS_5,97,1,48,32,397705112
1213,4,T1_SMS_5,98,5,42,127,397732148
1213,4,T1_SMS_5,99,1,48,29,398207652
1213,4,T1_SMS_5,100,5,42,127,398231772
1213,4,T1_SMS_5,101,5,42,127,398731772
1213,4,T1_SMS_5,102,1,48,31,398733708
1213,4,T1_SMS_5,103,1,48,26,399204500
1213,4,T1_SMS_5,104,5,42,127,399232284
1213,4,T1_SMS_5,105,1,48,25,399715412
1213,4,T1_SMS_5,106,5,42,127,399732052
1213,4,T1_SMS_5,107,1,48,28,400176368
1213,4,T1_SMS_5,108,5,42,127,400231896
1213,4,T1_SMS_5,109,1,48,26,400702236
1213,4,T1_SMS_5,110,5,42,127,400731816
1213,4,T1_SMS_5,111,1,48,27,401188768
1213,4,T1_SMS_5,112,5,42,127,401232112
1213,4,T1_SMS_5,113,1,48,27,401690032
1213,4,T1_SMS_5,114,5,42,127,401732028
1213,4,T1_SMS_5,115,1,48,24,402182772
1213,4,T1_SMS_5,116,5,42,127,402231948
1213,4,T1_SMS_5,117,1,48,26,402703932
1213,4,T1_SMS_5,118,5,42,127,402732464
1213,4,T1_SMS_5,119,1,48,22,403207816
1213,4,T1_SMS_5,120,5,42,127,403232084
1213,4,T1_SMS_5,121,1,48,23,403713644
1213,4,T1_SMS_5,122,5,42,127,403732004
1213,4,T1_SMS_5,123,1,48,23,404187736
1213,4,T1_SMS_5,124,5,42,127,404231700
1213,4,T1_SMS_5,125,1,48,31,404676356
1213,4,T1_SMS_5,126,5,42,127,404732292
1213,4,T1_SMS_5,127,1,48,32,405204476
1213,4,T1_SMS_5,128,5,42,127,405231912
1213,4,T1_SMS_5,129,1,48,32,405689884
1213,4,T1_SMS_5,130,5,42,127,405731976
1213,4,T1_SMS_5,131,1,48,29,406192348
1213,4,T1_SMS_5,132,5,42,127,406232396
1213,4,T1_SMS_5,133,1,48,28,406708796
1213,4,T1_SMS_5,134,5,42,127,406732016
1213,4,T1_SMS_5,135,1,48,31,407213500
1213,4,T1_SMS_5,136,5,42,127,407231784
1213,4,T1_SMS_5,137,1,48,29,407726136
1213,4,T1_SMS_5,138,5,42,127,407731852
1213,4,T1_SMS_5,139,5,42,127,408232156
1213,4,T1_SMS_5,140,1,48,27,408241188
1213,4,T1_SMS_5,141,5,42,127,408731924
1213,4,T1_SMS_5,142,1,48,24,408732888
1213,4,T1_SMS_5,143,1,48,27,409226268
1213,4,T1_SMS_5,144,5,42,127,409231760
1213,4,T1_SMS_5,145,1,48,34,409724912
1213,4,T1_SMS_5,146,5,42,127,409731384
1213,4,T1_SMS_5,147,1,48,30,410180708
1213,4,T1_SMS_5,148,5,42,127,410232048
1213,4,T1_SMS_5,149,1,48,23,410691392
1213,4,T1_SMS_5,150,5,42,127,410731892
1213,4,T1_SMS_5,151,1,48,25,411160196
1213,4,T1_SMS_5,152,5,42,127,411231812
1213,4,T1_SMS_5,153,1,48,27,411688840
1213,4,T1_SMS_5,154,5,42,127,411732332
1213,4,T1_SMS_5,155,1,48,21,412201624
1213,4,T1_SMS_5,156,5,42,127,412232028
1213,4,T1_SMS_5,157,1,48,27,412692644
1213,4,T1_SMS_5,158,5,42,127,412731872
1213,4,T1_SMS_5,159,1,48,29,413172892
1213,4,T1_SMS_5,160,5,42,127,413231716
1213,4,T1_SMS_5,161,1,48,23,413702652
1213,4,T1_SMS_5,162,5,42,127,413732160
1213,4,T1_SMS_5,163,1,48,29,414189484
1213,4,T1_SMS_5,164,5,42,127,414231928
1213,4,T1_SMS_5,165,1,48,29,414701968
1213,4,T1_SMS_5,166,5,42,127,414731772
1213,4,T1_SMS_5,167,1,48,21,415206752
1213,4,T1_SMS_5,168,5,42,127,415232440
1213,4,T1_SMS_5,169,1,48,31,415707172
1213,4,T1_SMS_5,170,5,42,127,415732060
1213,4,T1_SMS_5,171,1,48,27,416225812
1213,4,T1_SMS_5,172,5,42,127,416231684
1213,4,T1_SMS_5,173,1,48,26,416713964
1213,4,T1_SMS_5,174,5,42,127,416731576
1213,4,T1_SMS_5,175,1,48,23,417227472
1213,4,T1_SMS_5,176,5,42,127,417232216
1213,4,T1_SMS_5,177,5,42,127,417731916
1213,4,T1_SMS_5,178,1,48,21,417737280
1213,4,T1_SMS_5,179,1,48,28,418223716
1213,4,T1_SMS_5,180,5,42,127,418231604
1213,4,T1_SMS_5,181,1,48,29,418730232
1213,4,T1_SMS_5,182,5,42,127,418732348
1213,4,T1_SMS_5,183,1,48,28,419220264
1213,4,T1_SMS_5,184,5,42,127,419232040
1213,4,T1_SMS_5,185,1,48,29,419710904
1213,4,T1_SMS_5,186,5,42,127,419731812
1213,4,T1_SMS_5,187,1,48,22,420217560
1213,4,T1_SMS_5,188,5,42,127,420231508
1213,4,T1_SMS_5,189,1,48,27,420707732
1213,4,T1_SMS_5,190,5,42,127,420732372
1213,4,T1_SMS_5,191,1,48,28,421193816
1213,4,T1_SMS_5,192,5,42,127,421231844
1213,4,T1_SMS_5,193,1,48,22,421694852
1213,4,T1_SMS_5,194,5,42,127,421731836
1213,4,T1_SMS_5,195,1,48,25,422182876
1213,4,T1_SMS_5,196,5,42,127,422232504
1213,4,T1_SMS_5,197,1,48,22,422708460
1213,4,T1_SMS_5,198,5,42,127,422732052
1213,4,T1_SMS_5,199,1,48,22,423211072
1213,4,T1_SMS_5,200,5,42,127,423231820
1213,4,T1_SMS_5,201,1,48,27,423707472
1213,4,T1_SMS_5,202,5,42,127,423731668
1213,4,T1_SMS_5,203,1,48,23,424228264
1213,4,T1_SMS_5,204,5,42,127,424232484
1213,4,T1_SMS_5,205,1,48,22,424711872
1213,4,T1_SMS_5,206,5,42,127,424731956
1213,4,T1_SMS_5,207,1,48,20,425218156
1213,4,T1_SMS_5,208,5,42,127,425231652
1213,4,T1_SMS_5,209,1,48,19,425715904
1213,4,T1_SMS_5,210,5,42,127,425731496
1213,4,T1_SMS_5,211,1,48,19,426220908
1213,4,T1_SMS_5,212,5,42,127,426232460
1213,4,T1_SMS_5,213,1,48,21,426725392
1213,4,T1_SMS_5,214,5,42,127,426731860
1213,4,T1_SMS_5,215,1,48,23,427219080
1213,4,T1_SMS_5,216,5,42,127,427231552
1213,4,T1_SMS_5,217,1,48,26,427716524
1213,4,T1_SMS_5,218,5,42,127,427732568
1213,4,T1_SMS_5,219,1,48,21,428224000
1213,4,T1_SMS_5,220,5,42,127,428232040
1213,4,T1_SMS_5,221,1,48,26,428706416
1213,4,T1_SMS_5,222,5,42,127,428731660
1213,4,T1_SMS_5,223,1,48,22,429219128
1213,4,T1_SMS_5,224,5,42,127,429231428
1213,4,T1_SMS_5,225,1,48,33,429701244
1213,4,T1_SMS_5,226,5,42,127,429732392
1213,4,T1_SMS_5,227,1,48,19,430193532
1213,4,T1_SMS_5,228,5,42,127,430231864
1213,4,T1_SMS_5,229,1,48,21,430699592
1213,4,T1_SMS_5,230,5,42,127,430731708
1213,4,T1_SMS_5,231,1,48,25,431167340
1213,4,T1_SMS_5,232,5,42,127,431232376
1213,4,T1_SMS_5,233,1,48,13,431678184
1213,4,T1_SMS_5,234,5,42,127,431732296
1213,4,T1_SMS_5,235,1,48,35,432141380
1213,4,T1_SMS_5,236,5,42,127,432231768
1213,4,T1_SMS_5,237,1,48,24,432678396
1213,4,T1_SMS_5,238,5,42,127,432731460
1213,4,T1_SMS_5,239,1,48,27,433175848
1213,4,T1_SMS_5,240,5,42,127,433232500
1213,4,T1_SMS_5,241,1,48,27,433682048
1213,4,T1_SMS_5,242,5,42,127,433731900
1213,4,T1_SMS_5,243,1,48,27,434180844
1213,4,T1_SMS_5,244,5,42,127,434231668
1213,4,T1_SMS_5,245,1,48,21,434707920
1213,4,T1_SMS_5,246,5,42,127,434732484
1213,4,T1_SMS_5,247,1,48,21,435220400
1213,4,T1_SMS_5,248,5,42,127,435232328
1213,4,T1_SMS_5,249,1,48,20,435715684
1213,4,T1_SMS_5,250,5,42,127,435731800
1213,4,T1_SMS_5,251,5,42,127,436231652
1213,4,T1_SMS_5,252,5,42,127,436732412
1213,4,T1_SMS_5,253,1,48,23,437212348
1213,4,T1_SMS_5,254,5,42,127,437232272
1213,4,T1_SMS_5,255,5,42,127,437731600
1213,4,T1_SMS_5,256,1,48,27,438189220
1213,4,T1_SMS_5,0,9999,9999,9999,373229644
1213,4,T1_SMS_5,1,9999,9999,9999,373729360
1213,4,T1_SMS_5,2,9999,9999,9999,374230080
1213,4,T1_SMS_5,3,9999,9999,9999,374729848
1213,4,T1_SMS_5,4,9999,9999,9999,375229548
1213,4,T1_SMS_5,5,9999,9999,9999,375729240
1213,4,T1_SMS_5,6,9999,9999,9999,376229984
1213,4,T1_SMS_5,7,9999,9999,9999,376729676
1213,4,T1_SMS_5,8,9999,9999,9999,377229364
1213,4,T1_SMS_5,9,9999,9999,9999,377729136
1213,4,T1_SMS_5,10,9999,9999,9999,378229876
1213,4,T1_SMS_5,11,9999,9999,9999,378729572
1213,4,T1_SMS_5,12,9999,9999,9999,379229264
1213,4,T1_SMS_5,13,9999,9999,9999,379730008
1213,4,T1_SMS_5,14,9999,9999,9999,380229712
1213,4,T1_SMS_5,15,9999,9999,9999,380729404
1213,4,T1_SMS_5,16,9999,9999,9999,381229176
1213,4,T1_SMS_5,17,9999,9999,9999,381729840
1213,4,T1_SMS_5,18,9999,9999,9999,382229612
1213,4,T1_SMS_5,19,9999,9999,9999,382729308
1213,4,T1_SMS_5,20,9999,9999,9999,383230040
1213,4,T1_SMS_5,21,9999,9999,9999,383729736
1213,4,T1_SMS_5,22,9999,9999,9999,384229432
1213,4,T1_SMS_5,23,9999,9999,9999,384729176
1213,4,T1_SMS_5,24,9999,9999,9999,385229892
1213,4,T1_SMS_5,25,9999,9999,9999,385729588
1213,4,T1_SMS_5,26,9999,9999,9999,386229360
1213,4,T1_SMS_5,27,9999,9999,9999,386730100
1213,4,T1_SMS_5,28,9999,9999,9999,387229792
1213,4,T1_SMS_5,29,9999,9999,9999,387729488
1213,4,T1_SMS_5,30,9999,9999,9999,388229184
1213,4,T1_SMS_5,31,9999,9999,9999,388729924
1213,4,T1_SMS_5,32,9999,9999,9999,389229628
1213,4,T1_SMS_5,33,9999,9999,9999,389729396
1213,4,T1_SMS_5,34,9999,9999,9999,390230064
1213,4,T1_SMS_5,35,9999,9999,9999,390729832
1213,4,T1_SMS_5,36,9999,9999,9999,391229520
1213,4,T1_SMS_5,37,9999,9999,9999,391729216
1213,4,T1_SMS_5,38,9999,9999,9999,392229960
1213,4,T1_SMS_5,39,9999,9999,9999,392729652
1213,4,T1_SMS_5,40,9999,9999,9999,393229424
1213,4,T1_SMS_5,41,9999,9999,9999,393729120
1213,4,T1_SMS_5,42,9999,9999,9999,394229860
1213,4,T1_SMS_5,43,9999,9999,9999,394729552
1213,4,T1_SMS_5,44,9999,9999,9999,395229248
1213,4,T1_SMS_5,45,9999,9999,9999,395730040
1213,4,T1_SMS_5,46,9999,9999,9999,396229736
1213,4,T1_SMS_5,47,9999,9999,9999,396729428
1213,4,T1_SMS_5,48,9999,9999,9999,397229124
1213,4,T1_SMS_5,49,9999,9999,9999,397729864
1213,4,T1_SMS_5,50,9999,9999,9999,398229560
1213,4,T1_SMS_5,51,9999,9999,9999,398729336
1213,4,T1_SMS_5,52,9999,9999,9999,399230072
1213,4,T1_SMS_5,53,9999,9999,9999,399729764
1213,4,T1_SMS_5,54,9999,9999,9999,400229464
1213,4,T1_SMS_5,55,9999,9999,9999,400729156
1213,4,T1_SMS_5,56,9999,9999,9999,401229900
1213,4,T1_SMS_5,57,9999,9999,9999,401729592
1213,4,T1_SMS_5,58,9999,9999,9999,402229360
1213,4,T1_SMS_5,59,9999,9999,9999,402730104
1213,4,T1_SMS_5,60,9999,9999,9999,403229800
1213,4,T1_SMS_5,61,9999,9999,9999,403729496
1213,4,T1_SMS_5,62,9999,9999,9999,404229188
1213,4,T1_SMS_5,63,9999,9999,9999,404729928
1213,4,T1_SMS_5,64,9999,9999,9999,405229624
1213,4,T1_SMS_5,65,9999,9999,9999,405729392
1213,4,T1_SMS_5,66,9999,9999,9999,406230108
1213,4,T1_SMS_5,67,9999,9999,9999,406729804
1213,4,T1_SMS_5,68,9999,9999,9999,407229500
1213,4,T1_SMS_5,69,9999,9999,9999,407729268
1213,4,T1_SMS_5,70,9999,9999,9999,408229944
1213,4,T1_SMS_5,71,9999,9999,9999,408729712
1213,4,T1_SMS_5,72,9999,9999,9999,409229400
1213,4,T1_SMS_5,73,9999,9999,9999,409729096
1213,4,T1_SMS_5,74,9999,9999,9999,410229836
1213,4,T1_SMS_5,75,9999,9999,9999,410729532
1213,4,T1_SMS_5,76,9999,9999,9999,411229300
1213,4,T1_SMS_5,77,9999,9999,9999,411729972
1213,4,T1_SMS_5,78,9999,9999,9999,412229740
1213,4,T1_SMS_5,79,9999,9999,9999,412729436
1213,4,T1_SMS_5,80,9999,9999,9999,413229132
1213,4,T1_SMS_5,81,9999,9999,9999,413729872
1213,4,T1_SMS_5,82,9999,9999,9999,414229568
1213,4,T1_SMS_5,83,9999,9999,9999,414729336
1213,4,T1_SMS_5,84,9999,9999,9999,415230004
1213,4,T1_SMS_5,85,9999,9999,9999,415729772
1213,4,T1_SMS_5,86,9999,9999,9999,416229472
1213,4,T1_SMS_5,87,9999,9999,9999,416729140
1213,4,T1_SMS_5,88,9999,9999,9999,417229932
1213,4,T1_SMS_5,89,9999,9999,9999,417729632
1213,4,T1_SMS_5,90,9999,9999,9999,418229320
1213,4,T1_SMS_5,91,9999,9999,9999,418730100
1213,4,T1_SMS_5,92,9999,9999,9999,419229756
1213,4,T1_SMS_5,93,9999,9999,9999,419729524
1213,4,T1_SMS_5,94,9999,9999,9999,420229220
1213,4,T1_SMS_5,95,9999,9999,9999,420729936
1213,4,T1_SMS_5,96,9999,9999,9999,421229632
1213,4,T1_SMS_5,97,9999,9999,9999,421729400
1213,4,T1_SMS_5,98,9999,9999,9999,422230068
1213,4,T1_SMS_5,99,9999,9999,9999,422729840
1213,4,T1_SMS_5,100,9999,9999,9999,423229536
1213,4,T1_SMS_5,101,9999,9999,9999,423729232
1213,4,T1_SMS_5,102,9999,9999,9999,424229972
1213,4,T1_SMS_5,103,9999,9999,9999,424729668
1213,4,T1_SMS_5,104,9999,9999,9999,425229364
1213,4,T1_SMS_5,105,9999,9999,9999,425729132
1213,4,T1_SMS_5,106,9999,9999,9999,426229876
1213,4,T1_SMS_5,107,9999,9999,9999,426729572
1213,4,T1_SMS_5,108,9999,9999,9999,427229268
1213,4,T1_SMS_5,109,9999,9999,9999,427729984
1213,4,T1_SMS_5,110,9999,9999,9999,428229752
1213,4,T1_SMS_5,111,9999,9999,9999,428729448
1213,4,T1_SMS_5,112,9999,9999,9999,429229140
1213,4,T1_SMS_5,113,9999,9999,9999,429729880
1213,4,T1_SMS_5,114,9999,9999,9999,430229576
1213,4,T1_SMS_5,115,9999,9999,9999,430729276
1213,4,T1_SMS_5,116,9999,9999,9999,431230016
1213,4,T1_SMS_5,117,9999,9999,9999,431729784
1213,4,T1_SMS_5,118,9999,9999,9999,432229480
1213,4,T1_SMS_5,119,9999,9999,9999,432729176
1213,4,T1_SMS_5,120,9999,9999,9999,433229916
1213,4,T1_SMS_5,121,9999,9999,9999,433729612
1213,4,T1_SMS_5,122,9999,9999,9999,434229308
1213,4,T1_SMS_5,123,9999,9999,9999,434730048
1213,4,T1_SMS_5,124,9999,9999,9999,435229744
1213,4,T1_SMS_5,125,9999,9999,9999,435729512
1213,4,T1_SMS_5,126,9999,9999,9999,436229216
1213,4,T1_SMS_5,127,9999,9999,9999,436729976
1213,4,T1_SMS_5,128,9999,9999,9999,437229688
1213,4,T1_SMS_5,129,9999,9999,9999,437729388
1214,2,T1_SMS_8,0,5,42,127,495575448
1214,2,T1_SMS_8,1,1,48,21,496097420
1214,2,T1_SMS_8,2,5,42,127,496375108
1214,2,T1_SMS_8,3,5,42,127,497175160
1214,2,T1_SMS_8,4,5,42,127,497974544
1214,2,T1_SMS_8,5,1,48,17,498766932
1214,2,T1_SMS_8,6,5,42,127,498775340
1214,2,T1_SMS_8,7,1,48,20,499481540
1214,2,T1_SMS_8,8,5,42,127,499575072
1214,2,T1_SMS_8,9,5,42,127,500375036
1214,2,T1_SMS_8,10,1,48,21,500376904
1214,2,T1_SMS_8,11,5,42,127,501174992
1214,2,T1_SMS_8,12,1,48,18,501205044
1214,2,T1_SMS_8,13,5,42,127,501975400
1214,2,T1_SMS_8,14,1,48,25,502007692
1214,2,T1_SMS_8,15,5,42,127,502775288
1214,2,T1_SMS_8,16,1,48,28,502819848
1214,2,T1_SMS_8,17,5,42,127,503575168
1214,2,T1_SMS_8,18,1,48,25,503588016
1214,2,T1_SMS_8,19,5,42,127,504374604
1214,2,T1_SMS_8,20,1,48,22,504438532
1214,2,T1_SMS_8,21,1,48,24,505173944
1214,2,T1_SMS_8,22,5,42,127,505175528
1214,2,T1_SMS_8,23,5,42,127,505975120
1214,2,T1_SMS_8,24,1,48,24,506004268
1214,2,T1_SMS_8,25,5,42,127,506774856
1214,2,T1_SMS_8,26,1,48,23,506801164
1214,2,T1_SMS_8,27,5,42,127,507574584
1214,2,T1_SMS_8,28,1,48,20,507576296
1214,2,T1_SMS_8,29,1,48,21,508316840
1214,2,T1_SMS_8,30,5,42,127,508375532
1214,2,T1_SMS_8,31,1,48,27,509169780
1214,2,T1_SMS_8,32,5,42,127,509175044
1214,2,T1_SMS_8,33,1,48,24,509953280
1214,2,T1_SMS_8,34,5,42,127,509974852
1214,2,T1_SMS_8,35,1,48,28,510771936
1214,2,T1_SMS_8,36,5,42,127,510774588
1214,2,T1_SMS_8,37,1,48,24,511559252
1214,2,T1_SMS_8,38,5,42,127,511575368
1214,2,T1_SMS_8,39,1,48,25,512369760
1214,2,T1_SMS_8,40,5,42,127,512375248
1214,2,T1_SMS_8,41,1,48,21,513140320
1214,2,T1_SMS_8,42,5,42,127,513174984
1214,2,T1_SMS_8,43,1,48,21,513917836
1214,2,T1_SMS_8,44,5,42,127,513974568
1214,2,T1_SMS_8,45,1,48,20,514709572
1214,2,T1_SMS_8,46,5,42,127,514775300
1214,2,T1_SMS_8,47,1,48,24,515515880
1214,2,T1_SMS_8,48,5,42,127,515575180
1214,2,T1_SMS_8,49,1,48,23,516256744
1214,2,T1_SMS_8,50,5,42,127,516374824
1214,2,T1_SMS_8,51,1,48,24,517118960
1214,2,T1_SMS_8,52,5,42,127,517174792
1214,2,T1_SMS_8,53,1,48,29,517953776
1214,2,T1_SMS_8,54,5,42,127,517975352
1214,2,T1_SMS_8,55,5,42,127,518775164
1214,2,T1_SMS_8,56,1,48,18,518796392
1214,2,T1_SMS_8,57,1,48,27,519545088
1214,2,T1_SMS_8,58,5,42,127,519575040
1214,2,T1_SMS_8,59,1,48,28,520358292
1214,2,T1_SMS_8,60,5,42,127,520374776
1214,2,T1_SMS_8,61,1,48,29,521138724
1214,2,T1_SMS_8,62,5,42,127,521175284
1214,2,T1_SMS_8,63,1,48,24,521958004
1214,2,T1_SMS_8,64,5,42,127,521975092
1214,2,T1_SMS_8,65,5,42,127,522774832
1214,2,T1_SMS_8,66,1,48,19,522795900
1214,2,T1_SMS_8,67,1,48,36,523514760
1214,2,T1_SMS_8,68,5,42,127,523574780
1214,2,T1_SMS_8,69,1,48,29,524319432
1214,2,T1_SMS_8,70,5,42,127,524375636
1214,2,T1_SMS_8,71,5,42,127,525175152
1214,2,T1_SMS_8,72,1,48,30,525186652
1214,2,T1_SMS_8,73,1,48,27,525900276
1214,2,T1_SMS_8,74,5,42,127,525975028
1214,2,T1_SMS_8,75,1,48,20,526727084
1214,2,T1_SMS_8,76,5,42,127,526774540
1214,2,T1_SMS_8,77,1,48,27,527497124
1214,2,T1_SMS_8,78,5,42,127,527575568
1214,2,T1_SMS_8,79,1,48,30,528272772
1214,2,T1_SMS_8,80,5,42,127,528375288
1214,2,T1_SMS_8,81,1,48,25,529116212
1214,2,T1_SMS_8,82,5,42,127,529175036
1214,2,T1_SMS_8,83,1,48,29,529851896
1214,2,T1_SMS_8,84,5,42,127,529974680
1214,2,T1_SMS_8,85,1,48,27,530748596
1214,2,T1_SMS_8,86,5,42,127,530775476
1214,2,T1_SMS_8,87,1,48,24,531525436
1214,2,T1_SMS_8,88,5,42,127,531575136
1214,2,T1_SMS_8,89,1,48,26,532325916
1214,2,T1_SMS_8,90,5,42,127,532375016
1214,2,T1_SMS_8,91,1,48,19,533117796
1214,2,T1_SMS_8,92,5,42,127,533174600
1214,2,T1_SMS_8,93,1,48,27,533895912
1214,2,T1_SMS_8,94,5,42,127,533975480
1214,2,T1_SMS_8,95,1,48,27,534661840
1214,2,T1_SMS_8,96,5,42,127,534775348
1214,2,T1_SMS_8,97,1,48,25,535527796
1214,2,T1_SMS_8,98,5,42,127,535574800
1214,2,T1_SMS_8,99,1,48,19,536294988
1214,2,T1_SMS_8,100,5,42,127,536374608
1214,2,T1_SMS_8,101,1,48,20,537006292
1214,2,T1_SMS_8,102,5,42,127,537175372
1214,2,T1_SMS_8,103,1,48,25,537894008
1214,2,T1_SMS_8,104,5,42,127,537975268
1214,2,T1_SMS_8,105,1,48,24,538761584
1214,2,T1_SMS_8,106,5,42,127,538775000
1214,2,T1_SMS_8,107,1,48,18,539528176
1214,2,T1_SMS_8,108,5,42,127,539574584
1214,2,T1_SMS_8,109,1,48,28,540308692
1214,2,T1_SMS_8,110,5,42,127,540375464
1214,2,T1_SMS_8,111,1,48,32,541128992
1214,2,T1_SMS_8,112,5,42,127,541175272
1214,2,T1_SMS_8,113,1,48,24,541949024
1214,2,T1_SMS_8,114,5,42,127,541974784
1214,2,T1_SMS_8,115,1,48,25,542702680
1214,2,T1_SMS_8,116,5,42,127,542774592
1214,2,T1_SMS_8,117,1,48,21,543561952
1214,2,T1_SMS_8,118,5,42,127,543575372
1214,2,T1_SMS_8,119,1,48,24,544370740
1214,2,T1_SMS_8,120,5,42,127,544375180
1214,2,T1_SMS_8,121,5,42,127,545174848
1214,2,T1_SMS_8,122,1,48,21,545182756
1214,2,T1_SMS_8,123,1,48,29,545950380
1214,2,T1_SMS_8,124,5,42,127,545974572
1214,2,T1_SMS_8,125,5,42,127,546775608
1214,2,T1_SMS_8,126,1,48,23,547570312
1214,2,T1_SMS_8,127,5,42,127,547575280
1214,2,T1_SMS_8,128,5,42,127,548374872
1214,2,T1_SMS_8,129,1,48,27,548378216
1214,2,T1_SMS_8,130,1,48,23,549158708
1214,2,T1_SMS_8,131,5,42,127,549174596
1214,2,T1_SMS_8,132,1,48,18,549929568
1214,2,T1_SMS_8,133,5,42,127,549975528
1214,2,T1_SMS_8,134,1,48,28,550764832
1214,2,T1_SMS_8,135,5,42,127,550775408
1214,2,T1_SMS_8,136,5,42,127,551574852
1214,2,T1_SMS_8,137,1,48,25,551580740
1214,2,T1_SMS_8,138,1,48,30,552339016
1214,2,T1_SMS_8,139,5,42,127,552374580
1214,2,T1_SMS_8,140,1,48,25,553173424
1214,2,T1_SMS_8,141,5,42,127,553175232
1214,2,T1_SMS_8,142,1,48,27,553923000
1214,2,T1_SMS_8,143,5,42,127,553975340
1214,2,T1_SMS_8,144,5,42,127,554774860
1214,2,T1_SMS_8,145,1,48,26,554815976
1214,2,T1_SMS_8,146,1,48,27,555557500
1214,2,T1_SMS_8,147,5,42,127,555574736
1214,2,T1_SMS_8,148,5,42,127,556375372
1214,2,T1_SMS_8,149,1,48,29,557066412
1214,2,T1_SMS_8,150,5,42,127,557175252
1214,2,T1_SMS_8,151,1,48,32,557891272
1214,2,T1_SMS_8,152,5,42,127,557975076
1214,2,T1_SMS_8,153,1,48,25,558750248
1214,2,T1_SMS_8,154,5,42,127,558774664
1214,2,T1_SMS_8,155,5,42,127,559575400
1214,2,T1_SMS_8,156,1,48,24,559613452
1214,2,T1_SMS_8,157,1,48,32,560340216
1214,2,T1_SMS_8,158,5,42,127,560375104
1214,2,T1_SMS_8,159,1,48,24,561133740
1214,2,T1_SMS_8,160,5,42,127,561175132
1214,2,T1_SMS_8,161,1,48,27,561950524
1214,2,T1_SMS_8,162,5,42,127,561974572
1214,2,T1_SMS_8,163,1,48,24,562729840
1214,2,T1_SMS_8,164,5,42,127,562775352
1214,2,T1_SMS_8,165,1,48,22,563469812
1214,2,T1_SMS_8,166,5,42,127,563575144
1214,2,T1_SMS_8,167,1,48,21,564312028
1214,2,T1_SMS_8,168,5,42,127,564375040
1214,2,T1_SMS_8,169,1,48,26,565131732
1214,2,T1_SMS_8,170,5,42,127,565174552
1214,2,T1_SMS_8,171,1,48,24,565918832
1214,2,T1_SMS_8,172,5,42,127,565975432
1214,2,T1_SMS_8,173,1,48,21,566679216
1214,2,T1_SMS_8,174,5,42,127,566775076
1214,2,T1_SMS_8,175,1,48,26,567520788
1214,2,T1_SMS_8,176,5,42,127,567575044
1214,2,T1_SMS_8,177,1,48,29,568370636
1214,2,T1_SMS_8,178,5,42,127,568375076
1214,2,T1_SMS_8,179,5,42,127,569175344
1214,2,T1_SMS_8,180,1,48,15,569191704
1214,2,T1_SMS_8,181,1,48,25,569934872
1214,2,T1_SMS_8,182,5,42,127,569974996
1214,2,T1_SMS_8,183,1,48,25,570756748
1214,2,T1_SMS_8,184,5,42,127,570775028
1214,2,T1_SMS_8,185,1,48,16,571522076
1214,2,T1_SMS_8,186,5,42,127,571574908
1214,2,T1_SMS_8,187,1,48,23,572355988
1214,2,T1_SMS_8,188,5,42,127,572375344
1214,2,T1_SMS_8,189,5,42,127,573175304
1214,2,T1_SMS_8,190,1,48,18,573179400
1214,2,T1_SMS_8,191,5,42,127,573974816
1214,2,T1_SMS_8,192,1,48,22,574020568
1214,2,T1_SMS_8,193,5,42,127,574774772
1214,2,T1_SMS_8,194,1,48,21,574814620
1214,2,T1_SMS_8,195,5,42,127,575575256
1214,2,T1_SMS_8,196,1,48,31,575607472
1214,2,T1_SMS_8,197,5,42,127,576375112
1214,2,T1_SMS_8,198,1,48,22,576450788
1214,2,T1_SMS_8,199,5,42,127,577174772
1214,2,T1_SMS_8,200,1,48,25,577263640
1214,2,T1_SMS_8,201,5,42,127,577974656
1214,2,T1_SMS_8,202,1,48,28,578022004
1214,2,T1_SMS_8,203,5,42,127,578775536
1214,2,T1_SMS_8,204,1,48,29,578796232
1214,2,T1_SMS_8,205,1,48,27,579548976
1214,2,T1_SMS_8,206,5,42,127,579575188
1214,2,T1_SMS_8,207,1,48,24,580361356
1214,2,T1_SMS_8,208,5,42,127,580374848
1214,2,T1_SMS_8,209,1,48,21,581170212
1214,2,T1_SMS_8,210,5,42,127,581174732
1214,2,T1_SMS_8,211,1,48,27,581962240
1214,2,T1_SMS_8,212,5,42,127,581975288
1214,2,T1_SMS_8,213,1,48,23,582753072
1214,2,T1_SMS_8,214,5,42,127,582775172
1214,2,T1_SMS_8,215,1,48,21,583552212
1214,2,T1_SMS_8,216,5,42,127,583574832
1214,2,T1_SMS_8,217,5,42,127,584374720
1214,2,T1_SMS_8,218,1,48,22,584380084
1214,2,T1_SMS_8,219,5,42,127,585175376
1214,2,T1_SMS_8,220,1,48,27,585186724
1214,2,T1_SMS_8,221,5,42,127,585975108
1214,2,T1_SMS_8,222,1,48,25,585984140
1214,2,T1_SMS_8,223,1,48,17,586768220
1214,2,T1_SMS_8,224,5,42,127,586774984
1214,2,T1_SMS_8,225,1,48,32,587571092
1214,2,T1_SMS_8,226,5,42,127,587574716
1214,2,T1_SMS_8,227,5,42,127,588375580
1214,2,T1_SMS_8,228,1,48,31,588460304
1214,2,T1_SMS_8,229,5,42,127,589175012
1214,2,T1_SMS_8,230,1,48,19,589243432
1214,2,T1_SMS_8,231,5,42,127,589974820
1214,2,T1_SMS_8,232,1,48,20,590003068
1214,2,T1_SMS_8,233,1,48,22,590713928
1214,2,T1_SMS_8,234,5,42,127,590774696
1214,2,T1_SMS_8,235,1,48,22,591571208
1214,2,T1_SMS_8,0,9999,9999,9999,495573088
1214,2,T1_SMS_8,1,9999,9999,9999,496372820
1214,2,T1_SMS_8,2,9999,9999,9999,497172576
1214,2,T1_SMS_8,3,9999,9999,9999,497972332
1214,2,T1_SMS_8,4,9999,9999,9999,498773052
1214,2,T1_SMS_8,5,9999,9999,9999,499572784
1214,2,T1_SMS_8,6,9999,9999,9999,500372524
1214,2,T1_SMS_8,7,9999,9999,9999,501172332
1214,2,T1_SMS_8,8,9999,9999,9999,501973040
1214,2,T1_SMS_8,9,9999,9999,9999,502772848
1214,2,T1_SMS_8,10,9999,9999,9999,503572584
1214,2,T1_SMS_8,11,9999,9999,9999,504372316
1214,2,T1_SMS_8,12,9999,9999,9999,505173096
1214,2,T1_SMS_8,13,9999,9999,9999,505972832
1214,2,T1_SMS_8,14,9999,9999,9999,506772564
1214,2,T1_SMS_8,15,9999,9999,9999,507572296
1214,2,T1_SMS_8,16,9999,9999,9999,508373072
1214,2,T1_SMS_8,17,9999,9999,9999,509172832
1214,2,T1_SMS_8,18,9999,9999,9999,509972564
1214,2,T1_SMS_8,19,9999,9999,9999,510772300
1214,2,T1_SMS_8,20,9999,9999,9999,511573080
1214,2,T1_SMS_8,21,9999,9999,9999,512372812
1214,2,T1_SMS_8,22,9999,9999,9999,513172548
1214,2,T1_SMS_8,23,9999,9999,9999,513972280
1214,2,T1_SMS_8,24,9999,9999,9999,514773060
1214,2,T1_SMS_8,25,9999,9999,9999,515572816
1214,2,T1_SMS_8,26,9999,9999,9999,516372536
1214,2,T1_SMS_8,27,9999,9999,9999,517172284
1214,2,T1_SMS_8,28,9999,9999,9999,517973064
1214,2,T1_SMS_8,29,9999,9999,9999,518772804
1214,2,T1_SMS_8,30,9999,9999,9999,519572528
1214,2,T1_SMS_8,31,9999,9999,9999,520372340
1214,2,T1_SMS_8,32,9999,9999,9999,521173044
1214,2,T1_SMS_8,33,9999,9999,9999,521972804
1214,2,T1_SMS_8,34,9999,9999,9999,522772544
1214,2,T1_SMS_8,35,9999,9999,9999,523572272
1214,2,T1_SMS_8,36,9999,9999,9999,524373052
1214,2,T1_SMS_8,37,9999,9999,9999,525172792
1214,2,T1_SMS_8,38,9999,9999,9999,525972592
1214,2,T1_SMS_8,39,9999,9999,9999,526772328
1214,2,T1_SMS_8,40,9999,9999,9999,527573104
1214,2,T1_SMS_8,41,9999,9999,9999,528372848
1214,2,T1_SMS_8,42,9999,9999,9999,529172600
1214,2,T1_SMS_8,43,9999,9999,9999,529972316
1214,2,T1_SMS_8,44,9999,9999,9999,530773040
1214,2,T1_SMS_8,45,9999,9999,9999,531572848
1214,2,T1_SMS_8,46,9999,9999,9999,532372580
1214,2,T1_SMS_8,47,9999,9999,9999,533172312
1214,2,T1_SMS_8,48,9999,9999,9999,533973096
1214,2,T1_SMS_8,49,9999,9999,9999,534772836
1214,2,T1_SMS_8,50,9999,9999,9999,535572588
1214,2,T1_SMS_8,51,9999,9999,9999,536372320
1214,2,T1_SMS_8,52,9999,9999,9999,537173084
1214,2,T1_SMS_8,53,9999,9999,9999,537972832
1214,2,T1_SMS_8,54,9999,9999,9999,538772564
1214,2,T1_SMS_8,55,9999,9999,9999,539572296
1214,2,T1_SMS_8,56,9999,9999,9999,540373104
1214,2,T1_SMS_8,57,9999,9999,9999,541172836
1214,2,T1_SMS_8,58,9999,9999,9999,541972568
1214,2,T1_SMS_8,59,9999,9999,9999,542772304
1214,2,T1_SMS_8,60,9999,9999,9999,543573084
1214,2,T1_SMS_8,61,9999,9999,9999,544372820
1214,2,T1_SMS_8,62,9999,9999,9999,545172556
1214,2,T1_SMS_8,63,9999,9999,9999,545972284
1214,2,T1_SMS_8,64,9999,9999,9999,546773096
1214,2,T1_SMS_8,65,9999,9999,9999,547572844
1214,2,T1_SMS_8,66,9999,9999,9999,548372584
1214,2,T1_SMS_8,67,9999,9999,9999,549172308
1214,2,T1_SMS_8,68,9999,9999,9999,549973092
1214,2,T1_SMS_8,69,9999,9999,9999,550772824
1214,2,T1_SMS_8,70,9999,9999,9999,551572564
1214,2,T1_SMS_8,71,9999,9999,9999,552372292
1214,2,T1_SMS_8,72,9999,9999,9999,553173044
1214,2,T1_SMS_8,73,9999,9999,9999,553972832
1214,2,T1_SMS_8,74,9999,9999,9999,554772572
1214,2,T1_SMS_8,75,9999,9999,9999,555572296
1214,2,T1_SMS_8,76,9999,9999,9999,556373084
1214,2,T1_SMS_8,77,9999,9999,9999,557172816
1214,2,T1_SMS_8,78,9999,9999,9999,557972568
1214,2,T1_SMS_8,79,9999,9999,9999,558772304
1214,2,T1_SMS_8,80,9999,9999,9999,559573040
1214,2,T1_SMS_8,81,9999,9999,9999,560372816
1214,2,T1_SMS_8,82,9999,9999,9999,561172548
1214,2,T1_SMS_8,83,9999,9999,9999,561972284
1214,2,T1_SMS_8,84,9999,9999,9999,562773064
1214,2,T1_SMS_8,85,9999,9999,9999,563572856
1214,2,T1_SMS_8,86,9999,9999,9999,564372532
1214,2,T1_SMS_8,87,9999,9999,9999,565172336
1214,2,T1_SMS_8,88,9999,9999,9999,565973068
1214,2,T1_SMS_8,89,9999,9999,9999,566772788
1214,2,T1_SMS_8,90,9999,9999,9999,567572536
1214,2,T1_SMS_8,91,9999,9999,9999,568372344
1214,2,T1_SMS_8,92,9999,9999,9999,569173056
1214,2,T1_SMS_8,93,9999,9999,9999,569972784
1214,2,T1_SMS_8,94,9999,9999,9999,570772592
1214,2,T1_SMS_8,95,9999,9999,9999,571572324
1214,2,T1_SMS_8,96,9999,9999,9999,572373056
1214,2,T1_SMS_8,97,9999,9999,9999,573172796
1214,2,T1_SMS_8,98,9999,9999,9999,573972528
1214,2,T1_SMS_8,99,9999,9999,9999,574772336
1214,2,T1_SMS_8,100,9999,9999,9999,575573040
1214,2,T1_SMS_8,101,9999,9999,9999,576372824
1214,2,T1_SMS_8,102,9999,9999,9999,577172556
1214,2,T1_SMS_8,103,9999,9999,9999,577972292
1214,2,T1_SMS_8,104,9999,9999,9999,578773100
1214,2,T1_SMS_8,105,9999,9999,9999,579572828
1214,2,T1_SMS_8,106,9999,9999,9999,580372560
1214,2,T1_SMS_8,107,9999,9999,9999,581172292
1214,2,T1_SMS_8,108,9999,9999,9999,581973076
1214,2,T1_SMS_8,109,9999,9999,9999,582772808
1214,2,T1_SMS_8,110,9999,9999,9999,583572544
1214,2,T1_SMS_8,111,9999,9999,9999,584372284
1214,2,T1_SMS_8,112,9999,9999,9999,585173088
1214,2,T1_SMS_8,113,9999,9999,9999,585972820
1214,2,T1_SMS_8,114,9999,9999,9999,586772548
1214,2,T1_SMS_8,115,9999,9999,9999,587572280
1214,2,T1_SMS_8,116,9999,9999,9999,588373068
1214,2,T1_SMS_8,117,9999,9999,9999,589172800
1214,2,T1_SMS_8,118,9999,9999,9999,589972532
1214,2,T1_SMS_8,119,9999,9999,9999,590772336
1215,23,Ticks_Phase_5,0,5,42,127,601289296
1215,23,Ticks_Phase_5,1,5,42,127,601788780
1215,23,Ticks_Phase_5,2,5,42,127,602288492
1215,23,Ticks_Phase_5,3,5,42,127,602789172
1215,23,Ticks_Phase_5,4,5,42,127,603288956
1215,23,Ticks_Phase_5,5,5,42,127,603788668
1215,23,Ticks_Phase_5,6,1,48,16,604249104
1215,23,Ticks_Phase_5,7,5,42,127,604289268
1215,23,Ticks_Phase_5,8,5,42,127,604788964
1215,23,Ticks_Phase_5,9,1,48,22,604800916
1215,23,Ticks_Phase_5,10,5,42,127,605288876
1215,23,Ticks_Phase_5,11,1,48,20,605293644
1215,23,Ticks_Phase_5,12,5,42,127,605788492
1215,23,Ticks_Phase_5,13,1,48,19,605795868
1215,23,Ticks_Phase_5,14,5,42,127,606289300
1215,23,Ticks_Phase_5,15,1,48,20,606302232
1215,23,Ticks_Phase_5,16,1,48,24,606780940
1215,23,Ticks_Phase_5,17,5,42,127,606788832
1215,23,Ticks_Phase_5,18,5,42,127,607288828
1215,23,Ticks_Phase_5,19,1,48,19,607292916
1215,23,Ticks_Phase_5,20,5,42,127,607789488
1215,23,Ticks_Phase_5,21,1,48,17,607821292
1215,23,Ticks_Phase_5,22,5,42,127,608299512
1215,23,Ticks_Phase_5,23,1,48,23,608305696
1215,23,Ticks_Phase_5,24,5,42,127,608799200
1215,23,Ticks_Phase_5,25,1,48,19,608816168
1215,23,Ticks_Phase_5,26,5,42,127,609298740
1215,23,Ticks_Phase_5,27,1,48,19,609306736
1215,23,Ticks_Phase_5,28,5,42,127,609798576
1215,23,Ticks_Phase_5,29,1,48,16,609822888
1215,23,Ticks_Phase_5,30,5,42,127,610299388
1215,23,Ticks_Phase_5,31,1,48,16,610328648
1215,23,Ticks_Phase_5,32,1,48,26,610793044
1215,23,Ticks_Phase_5,33,5,42,127,610799292
1215,23,Ticks_Phase_5,34,5,42,127,611298688
1215,23,Ticks_Phase_5,35,1,48,17,611308328
1215,23,Ticks_Phase_5,36,5,42,127,611799276
1215,23,Ticks_Phase_5,37,1,48,22,611809884
1215,23,Ticks_Phase_5,38,5,42,127,612299236
1215,23,Ticks_Phase_5,39,1,48,19,612312936
1215,23,Ticks_Phase_5,40,5,42,127,612798776
1215,23,Ticks_Phase_5,41,1,48,20,612810284
1215,23,Ticks_Phase_5,42,5,42,127,613298688
1215,23,Ticks_Phase_5,43,1,48,19,613303900
1215,23,Ticks_Phase_5,44,5,42,127,613799272
1215,23,Ticks_Phase_5,45,1,48,18,613810928
1215,23,Ticks_Phase_5,46,5,42,127,614299112
1215,23,Ticks_Phase_5,47,1,48,22,614310840
1215,23,Ticks_Phase_5,48,5,42,127,614798724
1215,23,Ticks_Phase_5,49,1,48,21,614804008
1215,23,Ticks_Phase_5,50,5,42,127,615298412
1215,23,Ticks_Phase_5,51,1,48,22,615331780
1215,23,Ticks_Phase_5,52,1,48,18,615797180
1215,23,Ticks_Phase_5,53,5,42,127,615799064
1215,23,Ticks_Phase_5,54,1,48,22,616281500
1215,23,Ticks_Phase_5,55,5,42,127,616288496
1215,23,Ticks_Phase_5,56,1,48,20,616784700
1215,23,Ticks_Phase_5,57,5,42,127,616789380
1215,23,Ticks_Phase_5,58,1,48,24,617286556
1215,23,Ticks_Phase_5,59,5,42,127,617289216
1215,23,Ticks_Phase_5,60,5,42,127,617788688
1215,23,Ticks_Phase_5,61,1,48,20,617792176
1215,23,Ticks_Phase_5,62,5,42,127,618288376
1215,23,Ticks_Phase_5,63,1,48,25,618303548
1215,23,Ticks_Phase_5,64,1,48,19,618788356
1215,23,Ticks_Phase_5,65,5,42,127,618789772
1215,23,Ticks_Phase_5,66,1,48,24,619285908
1215,23,Ticks_Phase_5,67,5,42,127,619289164
1215,23,Ticks_Phase_5,68,1,48,23,619781560
1215,23,Ticks_Phase_5,69,5,42,127,619788632
1215,23,Ticks_Phase_5,70,1,48,19,620287252
1215,23,Ticks_Phase_5,71,5,42,127,620289364
1215,23,Ticks_Phase_5,72,1,48,22,620788156
1215,23,Ticks_Phase_5,73,5,42,127,620789648
1215,23,Ticks_Phase_5,74,1,48,26,621273804
1215,23,Ticks_Phase_5,75,5,42,127,621288892
1215,23,Ticks_Phase_5,76,5,42,127,621788512
1215,23,Ticks_Phase_5,77,1,48,18,621797028
1215,23,Ticks_Phase_5,78,1,48,25,622271664
1215,23,Ticks_Phase_5,79,5,42,127,622289532
1215,23,Ticks_Phase_5,80,1,48,18,622768428
1215,23,Ticks_Phase_5,81,5,42,127,622788972
1215,23,Ticks_Phase_5,82,1,48,24,623245488
1215,23,Ticks_Phase_5,83,5,42,127,623288736
1215,23,Ticks_Phase_5,84,5,42,127,623789328
1215,23,Ticks_Phase_5,85,1,48,20,623797168
1215,23,Ticks_Phase_5,86,5,42,127,624299348
1215,23,Ticks_Phase_5,87,1,48,29,624324632
1215,23,Ticks_Phase_5,88,5,42,127,624799188
1215,23,Ticks_Phase_5,89,1,48,23,624816692
1215,23,Ticks_Phase_5,90,1,48,27,625304900
1215,23,Ticks_Phase_5,91,5,42,127,625309128
1215,23,Ticks_Phase_5,92,5,42,127,625808896
1215,23,Ticks_Phase_5,93,1,48,26,625823920
1215,23,Ticks_Phase_5,94,5,42,127,626308436
1215,23,Ticks_Phase_5,95,1,48,20,626347580
1215,23,Ticks_Phase_5,96,5,42,127,626809244
1215,23,Ticks_Phase_5,97,1,48,22,626854224
1215,23,Ticks_Phase_5,98,5,42,127,627308856
1215,23,Ticks_Phase_5,99,1,48,26,627350464
1215,23,Ticks_Phase_5,100,5,42,127,627808844
1215,23,Ticks_Phase_5,101,1,48,21,627827692
1215,23,Ticks_Phase_5,102,5,42,127,628309428
1215,23,Ticks_Phase_5,103,1,48,22,628320036
1215,23,Ticks_Phase_5,104,1,48,24,628787220
1215,23,Ticks_Phase_5,105,5,42,127,628809108
1215,23,Ticks_Phase_5,106,1,48,23,629252676
1215,23,Ticks_Phase_5,107,5,42,127,629308872
1215,23,Ticks_Phase_5,108,5,42,127,629808792
1215,23,Ticks_Phase_5,109,1,48,21,629816020
1215,23,Ticks_Phase_5,110,1,48,26,630300356
1215,23,Ticks_Phase_5,111,5,42,127,630309220
1215,23,Ticks_Phase_5,112,1,48,23,630776816
1215,23,Ticks_Phase_5,113,5,42,127,630808836
1215,23,Ticks_Phase_5,114,1,48,22,631280260
1215,23,Ticks_Phase_5,115,5,42,127,631308820
1215,23,Ticks_Phase_5,116,1,48,19,631791852
1215,23,Ticks_Phase_5,117,5,42,127,631809404
1215,23,Ticks_Phase_5,118,1,48,22,632276924
1215,23,Ticks_Phase_5,119,5,42,127,632309092
1215,23,Ticks_Phase_5,120,1,48,20,632791452
1215,23,Ticks_Phase_5,121,5,42,127,632808784
1215,23,Ticks_Phase_5,122,1,48,25,633262508
1215,23,Ticks_Phase_5,123,5,42,127,633328992
1215,23,Ticks_Phase_5,124,1,48,19,633799416
1215,23,Ticks_Phase_5,125,5,42,127,633828904
1215,23,Ticks_Phase_5,126,1,48,25,634304868
1215,23,Ticks_Phase_5,127,5,42,127,634328516
1215,23,Ticks_Phase_5,128,1,48,19,634820664
1215,23,Ticks_Phase_5,129,5,42,127,634829080
1215,23,Ticks_Phase_5,130,1,48,18,635308964
1215,23,Ticks_Phase_5,131,5,42,127,635328840
1215,23,Ticks_Phase_5,132,1,48,19,635802284
1215,23,Ticks_Phase_5,133,5,42,127,635828604
1215,23,Ticks_Phase_5,134,1,48,19,636298980
1215,23,Ticks_Phase_5,135,5,42,127,636329264
1215,23,Ticks_Phase_5,136,1,48,18,636817392
1215,23,Ticks_Phase_5,137,5,42,127,636828952
1215,23,Ticks_Phase_5,138,1,48,17,637314304
1215,23,Ticks_Phase_5,139,5,42,127,637328864
1215,23,Ticks_Phase_5,140,1,48,19,637798424
1215,23,Ticks_Phase_5,141,5,42,127,637828404
1215,23,Ticks_Phase_5,142,1,48,25,638322816
1215,23,Ticks_Phase_5,143,5,42,127,638329284
1215,23,Ticks_Phase_5,144,5,42,127,638828908
1215,23,Ticks_Phase_5,145,1,48,20,638851572
1215,23,Ticks_Phase_5,146,5,42,127,639328668
1215,23,Ticks_Phase_5,147,1,48,14,639385852
1215,23,Ticks_Phase_5,148,5,42,127,639829328
1215,23,Ticks_Phase_5,149,1,48,25,639856552
1215,23,Ticks_Phase_5,150,5,42,127,640329020
1215,23,Ticks_Phase_5,151,1,48,23,640346968
1215,23,Ticks_Phase_5,152,5,42,127,640828780
1215,23,Ticks_Phase_5,153,1,48,14,640848156
1215,23,Ticks_Phase_5,154,1,48,28,641303120
1215,23,Ticks_Phase_5,155,5,42,127,641328616
1215,23,Ticks_Phase_5,156,1,48,23,641799964
1215,23,Ticks_Phase_5,157,5,42,127,641808980
1215,23,Ticks_Phase_5,158,1,48,25,642294776
1215,23,Ticks_Phase_5,159,5,42,127,642308448
1215,23,Ticks_Phase_5,160,1,48,27,642787288
1215,23,Ticks_Phase_5,161,5,42,127,642809256
1215,23,Ticks_Phase_5,162,5,42,127,643308952
1215,23,Ticks_Phase_5,163,1,48,24,643321652
1215,23,Ticks_Phase_5,164,5,42,127,643808864
1215,23,Ticks_Phase_5,165,1,48,18,643831832
1215,23,Ticks_Phase_5,166,5,42,127,644309300
1215,23,Ticks_Phase_5,167,1,48,23,644314884
1215,23,Ticks_Phase_5,168,5,42,127,644809036
1215,23,Ticks_Phase_5,169,1,48,22,644818552
1215,23,Ticks_Phase_5,170,1,48,27,645293932
1215,23,Ticks_Phase_5,171,5,42,127,645308720
1215,23,Ticks_Phase_5,172,5,42,127,645808788
1215,23,Ticks_Phase_5,173,1,48,20,645854760
1215,23,Ticks_Phase_5,174,5,42,127,646309224
1215,23,Ticks_Phase_5,175,1,48,27,646344016
1215,23,Ticks_Phase_5,176,5,42,127,646809060
1215,23,Ticks_Phase_5,177,1,48,24,646849776
1215,23,Ticks_Phase_5,178,5,42,127,647308748
1215,23,Ticks_Phase_5,179,1,48,27,647764012
1215,23,Ticks_Phase_5,180,5,42,127,647809348
1215,23,Ticks_Phase_5,181,1,48,27,648292384
1215,23,Ticks_Phase_5,182,5,42,127,648309036
1215,23,Ticks_Phase_5,183,5,42,127,648808884
1215,23,Ticks_Phase_5,184,1,48,25,648814844
1215,23,Ticks_Phase_5,185,1,48,21,649255208
1215,23,Ticks_Phase_5,186,5,42,127,649308712
1215,23,Ticks_Phase_5,187,5,42,127,649759056
1215,23,Ticks_Phase_5,188,1,48,24,649768172
1215,23,Ticks_Phase_5,189,5,42,127,650258748
1215,23,Ticks_Phase_5,190,1,48,24,650261340
1215,23,Ticks_Phase_5,191,5,42,127,650758732
1215,23,Ticks_Phase_5,192,1,48,24,650785212
1215,23,Ticks_Phase_5,193,1,48,24,651259096
1215,23,Ticks_Phase_5,194,5,42,127,651260508
1215,23,Ticks_Phase_5,195,1,48,16,651757956
1215,23,Ticks_Phase_5,196,5,42,127,651759592
1215,23,Ticks_Phase_5,197,1,48,24,652241136
1215,23,Ticks_Phase_5,198,5,42,127,652258760
1215,23,Ticks_Phase_5,199,1,48,20,652700956
1215,23,Ticks_Phase_5,200,5,42,127,652759572
1215,23,Ticks_Phase_5,201,5,42,127,653259092
1215,23,Ticks_Phase_5,202,1,48,25,653268828
1215,23,Ticks_Phase_5,203,1,48,23,653754092
1215,23,Ticks_Phase_5,204,5,42,127,653758848
1215,23,Ticks_Phase_5,205,1,48,23,654240836
1215,23,Ticks_Phase_5,206,5,42,127,654258684
1215,23,Ticks_Phase_5,207,1,48,25,654739476
1215,23,Ticks_Phase_5,208,5,42,127,654759420
1215,23,Ticks_Phase_5,209,1,48,24,655250616
1215,23,Ticks_Phase_5,210,5,42,127,655259108
1215,23,Ticks_Phase_5,211,1,48,22,655714048
1215,23,Ticks_Phase_5,212,5,42,127,655758648
1215,23,Ticks_Phase_5,213,5,42,127,656258636
1215,23,Ticks_Phase_5,214,1,48,24,656263476
1215,23,Ticks_Phase_5,215,5,42,127,656759148
1215,23,Ticks_Phase_5,216,1,48,19,656760116
1215,23,Ticks_Phase_5,217,5,42,127,657258836
1215,23,Ticks_Phase_5,218,1,48,27,657280380
1215,23,Ticks_Phase_5,219,1,48,27,657743432
1215,23,Ticks_Phase_5,220,5,42,127,657758520
1215,23,Ticks_Phase_5,221,5,42,127,658308464
1215,23,Ticks_Phase_5,222,1,48,23,658309428
1215,23,Ticks_Phase_5,223,5,42,127,658809272
1215,23,Ticks_Phase_5,224,1,48,23,658913512
1215,23,Ticks_Phase_5,225,5,42,127,659308960
1215,23,Ticks_Phase_5,226,1,48,16,659394448
1215,23,Ticks_Phase_5,227,5,42,127,659808576
1215,23,Ticks_Phase_5,228,1,48,24,659856240
1215,23,Ticks_Phase_5,229,1,48,21,660288084
1215,23,Ticks_Phase_5,230,5,42,127,660309448
1215,23,Ticks_Phase_5,231,1,48,20,660778264
1215,23,Ticks_Phase_5,232,5,42,127,660808992
1215,23,Ticks_Phase_5,233,1,48,24,661275916
1215,23,Ticks_Phase_5,234,5,42,127,661308680
1215,23,Ticks_Phase_5,235,1,48,24,661779508
1215,23,Ticks_Phase_5,236,5,42,127,661808440
1215,23,Ticks_Phase_5,237,1,48,20,662286148
1215,23,Ticks_Phase_5,238,5,42,127,662309328
1215,23,Ticks_Phase_5,239,1,48,20,662789068
1215,23,Ticks_Phase_5,240,5,42,127,662808940
1215,23,Ticks_Phase_5,241,5,42,127,663308708
1215,23,Ticks_Phase_5,242,1,48,16,663326644
1215,23,Ticks_Phase_5,243,5,42,127,663809368
1215,23,Ticks_Phase_5,244,1,48,17,663816764
1215,23,Ticks_Phase_5,245,5,42,127,664309204
1215,23,Ticks_Phase_5,246,1,48,19,664338312
1215,23,Ticks_Phase_5,247,5,42,127,664808744
1215,23,Ticks_Phase_5,248,1,48,25,664816124
1215,23,Ticks_Phase_5,249,1,48,25,665295352
1215,23,Ticks_Phase_5,250,5,42,127,665308496
1215,23,Ticks_Phase_5,251,5,42,127,665809608
1215,23,Ticks_Phase_5,252,1,48,24,665816408
1215,23,Ticks_Phase_5,253,1,48,20,666301452
1215,23,Ticks_Phase_5,254,5,42,127,666308896
1215,23,Ticks_Phase_5,255,1,48,23,666788336
1215,23,Ticks_Phase_5,256,5,42,127,666909016
1215,23,Ticks_Phase_5,257,5,42,127,667408724
1215,23,Ticks_Phase_5,258,5,42,127,667908436
1215,23,Ticks_Phase_5,259,1,48,19,667945324
1215,23,Ticks_Phase_5,260,5,42,127,668409396
1215,23,Ticks_Phase_5,261,1,48,23,668441348
1215,23,Ticks_Phase_5,262,1,48,15,668896772
1215,23,Ticks_Phase_5,263,5,42,127,668908780
1215,23,Ticks_Phase_5,264,1,48,21,669342136
1215,23,Ticks_Phase_5,265,5,42,127,669408616
1215,23,Ticks_Phase_5,266,1,48,19,669886524
1215,23,Ticks_Phase_5,267,5,42,127,669909424
1215,23,Ticks_Phase_5,268,1,48,19,670385312
1215,23,Ticks_Phase_5,269,5,42,127,670409164
1215,23,Ticks_Phase_5,270,1,48,21,670883956
1215,23,Ticks_Phase_5,271,5,42,127,670908852
1215,23,Ticks_Phase_5,272,1,48,18,671364396
1215,23,Ticks_Phase_5,273,5,42,127,671408612
1215,23,Ticks_Phase_5,274,1,48,16,671869704
1215,23,Ticks_Phase_5,275,5,42,127,671909200
1215,23,Ticks_Phase_5,276,1,48,24,672366384
1215,23,Ticks_Phase_5,277,5,42,127,672409036
1215,23,Ticks_Phase_5,278,1,48,25,672873340
1215,23,Ticks_Phase_5,279,5,42,127,672908800
1215,23,Ticks_Phase_5,280,1,48,18,673383520
1215,23,Ticks_Phase_5,281,5,42,127,673409312
1215,23,Ticks_Phase_5,282,1,48,19,673892492
1215,23,Ticks_Phase_5,283,5,42,127,673909220
1215,23,Ticks_Phase_5,284,1,48,26,674390980
1215,23,Ticks_Phase_5,285,5,42,127,674408760
1215,23,Ticks_Phase_5,286,1,48,21,674891492
1215,23,Ticks_Phase_5,287,5,42,127,674908600
1215,23,Ticks_Phase_5,288,1,48,24,675391708
1215,23,Ticks_Phase_5,289,5,42,127,675409408
1215,23,Ticks_Phase_5,290,5,42,127,675909108
1215,23,Ticks_Phase_5,291,1,48,22,675915216
1215,23,Ticks_Phase_5,292,5,42,127,676309344
1215,23,Ticks_Phase_5,293,1,48,23,676437532
1215,23,Ticks_Phase_5,294,5,42,127,676809304
1215,23,Ticks_Phase_5,295,1,48,25,677134636
1215,23,Ticks_Phase_5,296,5,42,127,677308772
1215,23,Ticks_Phase_5,297,1,48,18,677664500
1215,23,Ticks_Phase_5,298,5,42,127,677808532
1215,23,Ticks_Phase_5,299,1,48,23,678165460
1215,23,Ticks_Phase_5,300,5,42,127,678309192
1215,23,Ticks_Phase_5,301,1,48,19,678738180
1215,23,Ticks_Phase_5,302,5,42,127,678809268
1215,23,Ticks_Phase_5,303,1,48,23,679233064
1215,23,Ticks_Phase_5,304,5,42,127,679308732
1215,23,Ticks_Phase_5,305,1,48,19,679738900
1215,23,Ticks_Phase_5,306,5,42,127,679809396
1215,23,Ticks_Phase_5,307,1,48,19,680236568
1215,23,Ticks_Phase_5,308,5,42,127,680309232
1215,23,Ticks_Phase_5,309,1,48,19,680762232
1215,23,Ticks_Phase_5,310,5,42,127,680808772
1215,23,Ticks_Phase_5,311,1,48,19,681278556
1215,23,Ticks_Phase_5,312,5,42,127,681308532
1215,23,Ticks_Phase_5,313,1,48,15,681776892
1215,23,Ticks_Phase_5,314,5,42,127,681809196
1215,23,Ticks_Phase_5,315,1,48,16,682267820
1215,23,Ticks_Phase_5,316,5,42,127,682308956
1215,23,Ticks_Phase_5,317,1,48,21,682755216
1215,23,Ticks_Phase_5,318,5,42,127,682808572
1215,23,Ticks_Phase_5,319,1,48,18,683293024
1215,23,Ticks_Phase_5,320,5,42,127,683309532
1215,23,Ticks_Phase_5,321,1,48,17,683766196
1215,23,Ticks_Phase_5,322,5,42,127,683819328
1215,23,Ticks_Phase_5,323,1,48,21,684240656
1215,23,Ticks_Phase_5,324,5,42,127,684319240
1215,23,Ticks_Phase_5,325,1,48,18,684763336
1215,23,Ticks_Phase_5,326,5,42,127,684819004
1215,23,Ticks_Phase_5,327,1,48,18,685261500
1215,23,Ticks_Phase_5,328,5,42,127,685318448
1215,23,Ticks_Phase_5,329,1,48,18,685767908
1215,23,Ticks_Phase_5,330,5,42,127,685819180
1215,23,Ticks_Phase_5,0,9999,9999,9999,601286784
1215,23,Ticks_Phase_5,1,9999,9999,9999,601786492
1215,23,Ticks_Phase_5,2,9999,9999,9999,602286204
1215,23,Ticks_Phase_5,3,9999,9999,9999,602786888
1215,23,Ticks_Phase_5,4,9999,9999,9999,603286596
1215,23,Ticks_Phase_5,5,9999,9999,9999,603786308
1215,23,Ticks_Phase_5,6,9999,9999,9999,604287056
1215,23,Ticks_Phase_5,7,9999,9999,9999,604786752
1215,23,Ticks_Phase_5,8,9999,9999,9999,605286516
1215,23,Ticks_Phase_5,9,9999,9999,9999,605786204
1215,23,Ticks_Phase_5,10,9999,9999,9999,606286940
1215,23,Ticks_Phase_5,11,9999,9999,9999,606786620
1215,23,Ticks_Phase_5,12,9999,9999,9999,607286392
1215,23,Ticks_Phase_5,13,9999,9999,9999,607787128
1215,23,Ticks_Phase_5,14,9999,9999,9999,608297076
1215,23,Ticks_Phase_5,15,9999,9999,9999,608796764
1215,23,Ticks_Phase_5,16,9999,9999,9999,609296452
1215,23,Ticks_Phase_5,17,9999,9999,9999,609796216
1215,23,Ticks_Phase_5,18,9999,9999,9999,610296952
1215,23,Ticks_Phase_5,19,9999,9999,9999,610796636
1215,23,Ticks_Phase_5,20,9999,9999,9999,611296328
1215,23,Ticks_Phase_5,21,9999,9999,9999,611797064
1215,23,Ticks_Phase_5,22,9999,9999,9999,612296800
1215,23,Ticks_Phase_5,23,9999,9999,9999,612796488
1215,23,Ticks_Phase_5,24,9999,9999,9999,613296252
1215,23,Ticks_Phase_5,25,9999,9999,9999,613796984
1215,23,Ticks_Phase_5,26,9999,9999,9999,614296676
1215,23,Ticks_Phase_5,27,9999,9999,9999,614796364
1215,23,Ticks_Phase_5,28,9999,9999,9999,615296124
1215,23,Ticks_Phase_5,29,9999,9999,9999,615796808
1215,23,Ticks_Phase_5,30,9999,9999,9999,616286284
1215,23,Ticks_Phase_5,31,9999,9999,9999,616787020
1215,23,Ticks_Phase_5,32,9999,9999,9999,617286780
1215,23,Ticks_Phase_5,33,9999,9999,9999,617786476
1215,23,Ticks_Phase_5,34,9999,9999,9999,618286164
1215,23,Ticks_Phase_5,35,9999,9999,9999,618786900
1215,23,Ticks_Phase_5,36,9999,9999,9999,619286656
1215,23,Ticks_Phase_5,37,9999,9999,9999,619786344
1215,23,Ticks_Phase_5,38,9999,9999,9999,620287040
1215,23,Ticks_Phase_5,39,9999,9999,9999,620786772
1215,23,Ticks_Phase_5,40,9999,9999,9999,621286456
1215,23,Ticks_Phase_5,41,9999,9999,9999,621786224
1215,23,Ticks_Phase_5,42,9999,9999,9999,622286928
1215,23,Ticks_Phase_5,43,9999,9999,9999,622786688
1215,23,Ticks_Phase_5,44,9999,9999,9999,623286372
1215,23,Ticks_Phase_5,45,9999,9999,9999,623787116
1215,23,Ticks_Phase_5,46,9999,9999,9999,624297060
1215,23,Ticks_Phase_5,47,9999,9999,9999,624796752
1215,23,Ticks_Phase_5,48,9999,9999,9999,625306692
1215,23,Ticks_Phase_5,49,9999,9999,9999,625806460
1215,23,Ticks_Phase_5,50,9999,9999,9999,626306148
1215,23,Ticks_Phase_5,51,9999,9999,9999,626806884
1215,23,Ticks_Phase_5,52,9999,9999,9999,627306572
1215,23,Ticks_Phase_5,53,9999,9999,9999,627806332
1215,23,Ticks_Phase_5,54,9999,9999,9999,628307064
1215,23,Ticks_Phase_5,55,9999,9999,9999,628806748
1215,23,Ticks_Phase_5,56,9999,9999,9999,629306436
1215,23,Ticks_Phase_5,57,9999,9999,9999,629806204
1215,23,Ticks_Phase_5,58,9999,9999,9999,630306936
1215,23,Ticks_Phase_5,59,9999,9999,9999,630806624
1215,23,Ticks_Phase_5,60,9999,9999,9999,631306308
1215,23,Ticks_Phase_5,61,9999,9999,9999,631807044
1215,23,Ticks_Phase_5,62,9999,9999,9999,632306808
1215,23,Ticks_Phase_5,63,9999,9999,9999,632806496
1215,23,Ticks_Phase_5,64,9999,9999,9999,633326704
1215,23,Ticks_Phase_5,65,9999,9999,9999,633826392
1215,23,Ticks_Phase_5,66,9999,9999,9999,634326080
1215,23,Ticks_Phase_5,67,9999,9999,9999,634826868
1215,23,Ticks_Phase_5,68,9999,9999,9999,635326552
1215,23,Ticks_Phase_5,69,9999,9999,9999,635826244
1215,23,Ticks_Phase_5,70,9999,9999,9999,636326976
1215,23,Ticks_Phase_5,71,9999,9999,9999,636826740
1215,23,Ticks_Phase_5,72,9999,9999,9999,637326428
1215,23,Ticks_Phase_5,73,9999,9999,9999,637826116
1215,23,Ticks_Phase_5,74,9999,9999,9999,638326852
1215,23,Ticks_Phase_5,75,9999,9999,9999,638826620
1215,23,Ticks_Phase_5,76,9999,9999,9999,639326308
1215,23,Ticks_Phase_5,77,9999,9999,9999,639827044
1215,23,Ticks_Phase_5,78,9999,9999,9999,640326732
1215,23,Ticks_Phase_5,79,9999,9999,9999,640826496
1215,23,Ticks_Phase_5,80,9999,9999,9999,641326180
1215,23,Ticks_Phase_5,81,9999,9999,9999,641806396
1215,23,Ticks_Phase_5,82,9999,9999,9999,642306160
1215,23,Ticks_Phase_5,83,9999,9999,9999,642806896
1215,23,Ticks_Phase_5,84,9999,9999,9999,643306588
1215,23,Ticks_Phase_5,85,9999,9999,9999,643806280
1215,23,Ticks_Phase_5,86,9999,9999,9999,644307012
1215,23,Ticks_Phase_5,87,9999,9999,9999,644806752
1215,23,Ticks_Phase_5,88,9999,9999,9999,645306436
1215,23,Ticks_Phase_5,89,9999,9999,9999,645806204
1215,23,Ticks_Phase_5,90,9999,9999,9999,646306936
1215,23,Ticks_Phase_5,91,9999,9999,9999,646806624
1215,23,Ticks_Phase_5,92,9999,9999,9999,647306312
1215,23,Ticks_Phase_5,93,9999,9999,9999,647807064
1215,23,Ticks_Phase_5,94,9999,9999,9999,648306752
1215,23,Ticks_Phase_5,95,9999,9999,9999,648806520
1215,23,Ticks_Phase_5,96,9999,9999,9999,649306204
1215,23,Ticks_Phase_5,97,9999,9999,9999,649756768
1215,23,Ticks_Phase_5,98,9999,9999,9999,650256460
1215,23,Ticks_Phase_5,99,9999,9999,9999,650756220
1215,23,Ticks_Phase_5,100,9999,9999,9999,651256956
1215,23,Ticks_Phase_5,101,9999,9999,9999,651756644
1215,23,Ticks_Phase_5,102,9999,9999,9999,652256324
1215,23,Ticks_Phase_5,103,9999,9999,9999,652757060
1215,23,Ticks_Phase_5,104,9999,9999,9999,653256804
1215,23,Ticks_Phase_5,105,9999,9999,9999,653756488
1215,23,Ticks_Phase_5,106,9999,9999,9999,654256248
1215,23,Ticks_Phase_5,107,9999,9999,9999,654756984
1215,23,Ticks_Phase_5,108,9999,9999,9999,655256672
1215,23,Ticks_Phase_5,109,9999,9999,9999,655756360
1215,23,Ticks_Phase_5,110,9999,9999,9999,656256128
1215,23,Ticks_Phase_5,111,9999,9999,9999,656756860
1215,23,Ticks_Phase_5,112,9999,9999,9999,657256552
1215,23,Ticks_Phase_5,113,9999,9999,9999,657756232
1215,23,Ticks_Phase_5,114,9999,9999,9999,658306176
1215,23,Ticks_Phase_5,115,9999,9999,9999,658806912
1215,23,Ticks_Phase_5,116,9999,9999,9999,659306600
1215,23,Ticks_Phase_5,117,9999,9999,9999,659806288
1215,23,Ticks_Phase_5,118,9999,9999,9999,660307016
1215,23,Ticks_Phase_5,119,9999,9999,9999,660806780
1215,23,Ticks_Phase_5,120,9999,9999,9999,661306468
1215,23,Ticks_Phase_5,121,9999,9999,9999,661806156
1215,23,Ticks_Phase_5,122,9999,9999,9999,662306892
1215,23,Ticks_Phase_5,123,9999,9999,9999,662806656
1215,23,Ticks_Phase_5,124,9999,9999,9999,663306348
1215,23,Ticks_Phase_5,125,9999,9999,9999,663807084
1215,23,Ticks_Phase_5,126,9999,9999,9999,664306768
1215,23,Ticks_Phase_5,127,9999,9999,9999,664806460
1215,23,Ticks_Phase_5,128,9999,9999,9999,665306208
1215,23,Ticks_Phase_5,129,9999,9999,9999,665806948
1215,23,Ticks_Phase_5,130,9999,9999,9999,666306680
1215,23,Ticks_Phase_5,131,9999,9999,9999,666906728
1215,23,Ticks_Phase_5,132,9999,9999,9999,667406436
1215,23,Ticks_Phase_5,133,9999,9999,9999,667906148
1215,23,Ticks_Phase_5,134,9999,9999,9999,668406884
1215,23,Ticks_Phase_5,135,9999,9999,9999,668906568
1215,23,Ticks_Phase_5,136,9999,9999,9999,669406328
1215,23,Ticks_Phase_5,137,9999,9999,9999,669907064
1215,23,Ticks_Phase_5,138,9999,9999,9999,670406728
1215,23,Ticks_Phase_5,139,9999,9999,9999,670906492
1215,23,Ticks_Phase_5,140,9999,9999,9999,671406180
1215,23,Ticks_Phase_5,141,9999,9999,9999,671906912
1215,23,Ticks_Phase_5,142,9999,9999,9999,672406600
1215,23,Ticks_Phase_5,143,9999,9999,9999,672906364
1215,23,Ticks_Phase_5,144,9999,9999,9999,673407100
1215,23,Ticks_Phase_5,145,9999,9999,9999,673906788
1215,23,Ticks_Phase_5,146,9999,9999,9999,674406476
1215,23,Ticks_Phase_5,147,9999,9999,9999,674906240
1215,23,Ticks_Phase_5,148,9999,9999,9999,675406976
1215,23,Ticks_Phase_5,149,9999,9999,9999,675906672
1215,23,Ticks_Phase_5,150,9999,9999,9999,676307056
1215,23,Ticks_Phase_5,151,9999,9999,9999,676806720
1215,23,Ticks_Phase_5,152,9999,9999,9999,677306484
1215,23,Ticks_Phase_5,153,9999,9999,9999,677806172
1215,23,Ticks_Phase_5,154,9999,9999,9999,678306908
1215,23,Ticks_Phase_5,155,9999,9999,9999,678806612
1215,23,Ticks_Phase_5,156,9999,9999,9999,679306300
1215,23,Ticks_Phase_5,157,9999,9999,9999,679807036
1215,23,Ticks_Phase_5,158,9999,9999,9999,680306796
1215,23,Ticks_Phase_5,159,9999,9999,9999,680806484
1215,23,Ticks_Phase_5,160,9999,9999,9999,681306172
1215,23,Ticks_Phase_5,161,9999,9999,9999,681806908
1215,23,Ticks_Phase_5,162,9999,9999,9999,682306672
1215,23,Ticks_Phase_5,163,9999,9999,9999,682806360
1215,23,Ticks_Phase_5,164,9999,9999,9999,683307096
1215,23,Ticks_Phase_5,165,9999,9999,9999,683817044
1215,23,Ticks_Phase_5,166,9999,9999,9999,684316732
1215,23,Ticks_Phase_5,167,9999,9999,9999,684816496
1215,23,Ticks_Phase_5,168,9999,9999,9999,685316160
1215,23,Ticks_Phase_5,169,9999,9999,9999,685816892
1216,22,Ticks_Phase_8,0,5,42,127,696121696
1216,22,Ticks_Phase_8,1,5,42,127,696921356
1216,22,Ticks_Phase_8,2,5,42,127,697722208
1216,22,Ticks_Phase_8,3,5,42,127,698521944
1216,22,Ticks_Phase_8,4,1,48,22,699315276
1216,22,Ticks_Phase_8,5,5,42,127,699321668
1216,22,Ticks_Phase_8,6,1,48,24,700078660
1216,22,Ticks_Phase_8,7,5,42,127,700121332
1216,22,Ticks_Phase_8,8,5,42,127,700922244
1216,22,Ticks_Phase_8,9,1,48,23,700930836
1216,22,Ticks_Phase_8,10,1,48,23,701702304
1216,22,Ticks_Phase_8,11,5,42,127,701722024
1216,22,Ticks_Phase_8,12,5,42,127,702521668
1216,22,Ticks_Phase_8,13,1,48,20,702537892
1216,22,Ticks_Phase_8,14,5,42,127,703321528
1216,22,Ticks_Phase_8,15,1,48,29,703326744
1216,22,Ticks_Phase_8,16,5,42,127,704122288
1216,22,Ticks_Phase_8,17,1,48,19,704150580
1216,22,Ticks_Phase_8,18,5,42,127,704922076
1216,22,Ticks_Phase_8,19,1,48,20,704941448
1216,22,Ticks_Phase_8,20,1,48,16,705707516
1216,22,Ticks_Phase_8,21,5,42,127,705721628
1216,22,Ticks_Phase_8,22,5,42,127,706521524
1216,22,Ticks_Phase_8,23,1,48,21,707309008
1216,22,Ticks_Phase_8,24,5,42,127,707322220
1216,22,Ticks_Phase_8,25,5,42,127,708121940
1216,22,Ticks_Phase_8,26,1,48,24,708150376
1216,22,Ticks_Phase_8,27,5,42,127,708921576
1216,22,Ticks_Phase_8,28,1,48,27,708941548
1216,22,Ticks_Phase_8,29,5,42,127,709721584
1216,22,Ticks_Phase_8,30,1,48,34,710333888
1216,22,Ticks_Phase_8,31,5,42,127,710522344
1216,22,Ticks_Phase_8,32,1,48,23,711226708
1216,22,Ticks_Phase_8,33,5,42,127,711321980
1216,22,Ticks_Phase_8,34,1,48,22,712037272
1216,22,Ticks_Phase_8,35,5,42,127,712121704
1216,22,Ticks_Phase_8,36,1,48,24,712822612
1216,22,Ticks_Phase_8,37,5,42,127,712921516
1216,22,Ticks_Phase_8,38,1,48,25,713692140
1216,22,Ticks_Phase_8,39,5,42,127,713722200
1216,22,Ticks_Phase_8,40,1,48,20,714502192
1216,22,Ticks_Phase_8,41,5,42,127,714522060
1216,22,Ticks_Phase_8,42,5,42,127,715321708
1216,22,Ticks_Phase_8,43,1,48,21,715325872
1216,22,Ticks_Phase_8,44,5,42,127,716121564
1216,22,Ticks_Phase_8,45,1,48,24,716126336
1216,22,Ticks_Phase_8,46,5,42,127,716922548
1216,22,Ticks_Phase_8,47,1,48,24,716954952
1216,22,Ticks_Phase_8,48,5,42,127,717722184
1216,22,Ticks_Phase_8,49,1,48,26,717792956
1216,22,Ticks_Phase_8,50,5,42,127,718521824
1216,22,Ticks_Phase_8,51,1,48,20,718548180
1216,22,Ticks_Phase_8,52,5,42,127,719321560
1216,22,Ticks_Phase_8,53,1,48,25,719344372
1216,22,Ticks_Phase_8,54,5,42,127,720101652
1216,22,Ticks_Phase_8,55,1,48,26,720143188
1216,22,Ticks_Phase_8,56,1,48,19,720898628
1216,22,Ticks_Phase_8,57,5,42,127,720901656
1216,22,Ticks_Phase_8,58,1,48,21,721640464
1216,22,Ticks_Phase_8,59,5,42,127,721702340
1216,22,Ticks_Phase_8,60,1,48,22,722480984
1216,22,Ticks_Phase_8,61,5,42,127,722502128
1216,22,Ticks_Phase_8,62,5,42,127,723301624
1216,22,Ticks_Phase_8,63,1,48,19,723317544
1216,22,Ticks_Phase_8,64,1,48,17,724053220
1216,22,Ticks_Phase_8,65,5,42,127,724101476
1216,22,Ticks_Phase_8,66,1,48,19,724863936
1216,22,Ticks_Phase_8,67,5,42,127,724902236
1216,22,Ticks_Phase_8,68,1,48,25,725686340
1216,22,Ticks_Phase_8,69,5,42,127,725702096
1216,22,Ticks_Phase_8,70,1,48,27,726487272
1216,22,Ticks_Phase_8,71,5,42,127,726501756
1216,22,Ticks_Phase_8,72,5,42,127,727301552
1216,22,Ticks_Phase_8,73,1,48,22,727340696
1216,22,Ticks_Phase_8,74,5,42,127,728102308
1216,22,Ticks_Phase_8,75,1,48,19,728136128
1216,22,Ticks_Phase_8,76,5,42,127,728902020
1216,22,Ticks_Phase_8,77,1,48,26,728918168
1216,22,Ticks_Phase_8,78,5,42,127,729701732
1216,22,Ticks_Phase_8,79,1,48,25,729716304
1216,22,Ticks_Phase_8,80,5,42,127,730501520
1216,22,Ticks_Phase_8,81,1,48,20,730520144
1216,22,Ticks_Phase_8,82,1,48,22,731294756
1216,22,Ticks_Phase_8,83,5,42,127,731302348
1216,22,Ticks_Phase_8,84,5,42,127,732102212
1216,22,Ticks_Phase_8,85,1,48,27,732112180
1216,22,Ticks_Phase_8,86,5,42,127,732901800
1216,22,Ticks_Phase_8,87,1,48,27,733287316
1216,22,Ticks_Phase_8,88,5,42,127,733701440
1216,22,Ticks_Phase_8,89,1,48,19,733907976
1216,22,Ticks_Phase_8,90,5,42,127,734521744
1216,22,Ticks_Phase_8,91,1,48,20,734713232
1216,22,Ticks_Phase_8,92,5,42,127,735321460
1216,22,Ticks_Phase_8,93,1,48,26,735809068
1216,22,Ticks_Phase_8,94,5,42,127,736122216
1216,22,Ticks_Phase_8,95,1,48,18,736889700
1216,22,Ticks_Phase_8,96,5,42,127,736922016
1216,22,Ticks_Phase_8,97,1,48,27,737618204
1216,22,Ticks_Phase_8,98,5,42,127,737721564
1216,22,Ticks_Phase_8,99,1,48,19,738478124
1216,22,Ticks_Phase_8,100,5,42,127,738521464
1216,22,Ticks_Phase_8,101,1,48,17,739304292
1216,22,Ticks_Phase_8,102,5,42,127,739322224
1216,22,Ticks_Phase_8,103,1,48,20,740051588
1216,22,Ticks_Phase_8,104,5,42,127,740122160
1216,22,Ticks_Phase_8,105,5,42,127,740921728
1216,22,Ticks_Phase_8,106,1,48,18,740939220
1216,22,Ticks_Phase_8,107,5,42,127,741721364
1216,22,Ticks_Phase_8,108,1,48,23,741749416
1216,22,Ticks_Phase_8,109,1,48,21,742488756
1216,22,Ticks_Phase_8,110,5,42,127,742522268
1216,22,Ticks_Phase_8,111,1,48,18,743316856
1216,22,Ticks_Phase_8,112,5,42,127,743322128
1216,22,Ticks_Phase_8,113,1,48,26,744025652
1216,22,Ticks_Phase_8,114,5,42,127,744122500
1216,22,Ticks_Phase_8,115,5,42,127,744921436
1216,22,Ticks_Phase_8,116,1,48,20,745635060
1216,22,Ticks_Phase_8,117,5,42,127,745722208
1216,22,Ticks_Phase_8,118,5,42,127,746522152
1216,22,Ticks_Phase_8,119,1,48,16,746563388
1216,22,Ticks_Phase_8,120,1,48,18,747279284
1216,22,Ticks_Phase_8,121,5,42,127,747361700
1216,22,Ticks_Phase_8,122,1,48,21,748067616
1216,22,Ticks_Phase_8,123,5,42,127,748162516
1216,22,Ticks_Phase_8,124,1,48,14,748972584
1216,22,Ticks_Phase_8,125,5,42,127,748973848
1216,22,Ticks_Phase_8,126,1,48,17,749714452
1216,22,Ticks_Phase_8,127,5,42,127,749772164
1216,22,Ticks_Phase_8,128,1,48,19,750557468
1216,22,Ticks_Phase_8,129,5,42,127,750571876
1216,22,Ticks_Phase_8,130,1,48,25,751322956
1216,22,Ticks_Phase_8,131,5,42,127,751371588
1216,22,Ticks_Phase_8,132,1,48,16,752160488
1216,22,Ticks_Phase_8,133,5,42,127,752172496
1216,22,Ticks_Phase_8,134,1,48,20,752944472
1216,22,Ticks_Phase_8,135,5,42,127,752972284
1216,22,Ticks_Phase_8,136,5,42,127,753772152
1216,22,Ticks_Phase_8,137,1,48,27,754367080
1216,22,Ticks_Phase_8,138,5,42,127,754571640
1216,22,Ticks_Phase_8,139,1,48,19,754960260
1216,22,Ticks_Phase_8,140,5,42,127,755372324
1216,22,Ticks_Phase_8,141,5,42,127,756172232
1216,22,Ticks_Phase_8,142,1,48,22,756376492
1216,22,Ticks_Phase_8,143,5,42,127,756972016
1216,22,Ticks_Phase_8,144,1,48,23,757657856
1216,22,Ticks_Phase_8,145,5,42,127,757771804
1216,22,Ticks_Phase_8,146,5,42,127,758572284
1216,22,Ticks_Phase_8,147,1,48,23,759301964
1216,22,Ticks_Phase_8,148,5,42,127,759372236
1216,22,Ticks_Phase_8,149,1,48,17,759780540
1216,22,Ticks_Phase_8,150,5,42,127,760172008
1216,22,Ticks_Phase_8,151,1,48,20,760712120
1216,22,Ticks_Phase_8,152,5,42,127,760931880
1216,22,Ticks_Phase_8,153,1,48,18,761169120
1216,22,Ticks_Phase_8,154,1,48,17,761624768
1216,22,Ticks_Phase_8,155,5,42,127,761731424
1216,22,Ticks_Phase_8,156,1,48,22,762349900
1216,22,Ticks_Phase_8,157,5,42,127,762532328
1216,22,Ticks_Phase_8,158,1,48,24,763139276
1216,22,Ticks_Phase_8,159,5,42,127,763331892
1216,22,Ticks_Phase_8,160,1,48,20,763917856
1216,22,Ticks_Phase_8,161,5,42,127,764131776
1216,22,Ticks_Phase_8,162,1,48,24,764747524
1216,22,Ticks_Phase_8,163,5,42,127,764931640
1216,22,Ticks_Phase_8,164,1,48,16,765647912
1216,22,Ticks_Phase_8,165,5,42,127,765732192
1216,22,Ticks_Phase_8,166,1,48,17,766437440
1216,22,Ticks_Phase_8,167,5,42,127,766532036
1216,22,Ticks_Phase_8,168,5,42,127,767331620
1216,22,Ticks_Phase_8,169,1,48,17,767347688
1216,22,Ticks_Phase_8,170,5,42,127,768131552
1216,22,Ticks_Phase_8,171,1,48,21,768151152
1216,22,Ticks_Phase_8,172,5,42,127,768932164
1216,22,Ticks_Phase_8,173,1,48,24,768936180
1216,22,Ticks_Phase_8,174,5,42,127,769731952
1216,22,Ticks_Phase_8,175,1,48,22,769768412
1216,22,Ticks_Phase_8,176,5,42,127,770531764
1216,22,Ticks_Phase_8,177,1,48,16,770618004
1216,22,Ticks_Phase_8,178,5,42,127,771331548
1216,22,Ticks_Phase_8,179,1,48,15,771340888
1216,22,Ticks_Phase_8,180,1,48,24,772105388
1216,22,Ticks_Phase_8,181,5,42,127,772132152
1216,22,Ticks_Phase_8,182,5,42,127,772932020
1216,22,Ticks_Phase_8,183,1,48,16,772948464
1216,22,Ticks_Phase_8,184,5,42,127,773651756
1216,22,Ticks_Phase_8,185,1,48,26,773711492
1216,22,Ticks_Phase_8,186,5,42,127,774451616
1216,22,Ticks_Phase_8,187,1,48,24,774513148
1216,22,Ticks_Phase_8,188,1,48,21,775243576
1216,22,Ticks_Phase_8,189,5,42,127,775252440
1216,22,Ticks_Phase_8,190,1,48,24,776009132
1216,22,Ticks_Phase_8,191,5,42,127,776052004
1216,22,Ticks_Phase_8,192,1,48,23,776756576
1216,22,Ticks_Phase_8,193,5,42,127,776851716
1216,22,Ticks_Phase_8,194,1,48,18,777570296
1216,22,Ticks_Phase_8,195,5,42,127,777651576
1216,22,Ticks_Phase_8,196,1,48,24,778392772
1216,22,Ticks_Phase_8,197,5,42,127,778452436
1216,22,Ticks_Phase_8,198,1,48,24,779228448
1216,22,Ticks_Phase_8,199,5,42,127,779252296
1216,22,Ticks_Phase_8,200,1,48,24,779994316
1216,22,Ticks_Phase_8,201,5,42,127,780051712
1216,22,Ticks_Phase_8,202,1,48,17,780822336
1216,22,Ticks_Phase_8,203,5,42,127,780851572
1216,22,Ticks_Phase_8,204,1,48,19,781596884
1216,22,Ticks_Phase_8,205,5,42,127,781652552
1216,22,Ticks_Phase_8,206,1,48,27,782379528
1216,22,Ticks_Phase_8,207,5,42,127,782452044
1216,22,Ticks_Phase_8,208,1,48,23,783221548
1216,22,Ticks_Phase_8,209,5,42,127,783251756
1216,22,Ticks_Phase_8,210,1,48,20,784018488
1216,22,Ticks_Phase_8,211,5,42,127,784051616
1216,22,Ticks_Phase_8,212,1,48,22,784798348
1216,22,Ticks_Phase_8,213,5,42,127,784852624
1216,22,Ticks_Phase_8,214,5,42,127,785652268
1216,22,Ticks_Phase_8,215,1,48,13,785656884
1216,22,Ticks_Phase_8,216,1,48,20,786419212
1216,22,Ticks_Phase_8,217,5,42,127,786451828
1216,22,Ticks_Phase_8,218,1,48,17,787184332
1216,22,Ticks_Phase_8,219,5,42,127,787331504
1216,22,Ticks_Phase_8,220,1,48,23,788027480
1216,22,Ticks_Phase_8,221,5,42,127,788132184
1216,22,Ticks_Phase_8,222,1,48,19,788920728
1216,22,Ticks_Phase_8,223,5,42,127,788932060
1216,22,Ticks_Phase_8,224,5,42,127,789731656
1216,22,Ticks_Phase_8,225,1,48,19,789778804
1216,22,Ticks_Phase_8,226,5,42,127,790531368
1216,22,Ticks_Phase_8,227,1,48,18,790595364
1216,22,Ticks_Phase_8,228,5,42,127,791332200
1216,22,Ticks_Phase_8,229,1,48,22,791346996
1216,22,Ticks_Phase_8,230,5,42,127,792131912
1216,22,Ticks_Phase_8,231,1,48,18,792148580
1216,22,Ticks_Phase_8,232,1,48,19,792858412
1216,22,Ticks_Phase_8,233,5,42,127,792931764
1216,22,Ticks_Phase_8,234,1,48,22,793694304
1216,22,Ticks_Phase_8,235,5,42,127,793731476
1216,22,Ticks_Phase_8,236,1,48,20,794483452
1216,22,Ticks_Phase_8,237,5,42,127,794532160
1216,22,Ticks_Phase_8,238,1,48,17,795327944
1216,22,Ticks_Phase_8,239,5,42,127,795332172
1216,22,Ticks_Phase_8,240,5,42,127,796131764
1216,22,Ticks_Phase_8,241,1,48,19,796890432
1216,22,Ticks_Phase_8,242,5,42,127,796931568
1216,22,Ticks_Phase_8,243,1,48,23,797712604
1216,22,Ticks_Phase_8,244,5,42,127,797732180
1216,22,Ticks_Phase_8,245,5,42,127,798531896
1216,22,Ticks_Phase_8,246,1,48,19,798556128
1216,22,Ticks_Phase_8,247,5,42,127,799331680
1216,22,Ticks_Phase_8,248,1,48,19,799366700
1216,22,Ticks_Phase_8,249,5,42,127,800131392
1216,22,Ticks_Phase_8,250,1,48,17,800136076
1216,22,Ticks_Phase_8,251,1,48,19,800929560
1216,22,Ticks_Phase_8,252,5,42,127,801092036
1216,22,Ticks_Phase_8,253,1,48,22,801778648
1216,22,Ticks_Phase_8,254,5,42,127,801891676
1216,22,Ticks_Phase_8,255,1,48,16,802660968
1216,22,Ticks_Phase_8,256,5,42,127,802691548
1216,22,Ticks_Phase_8,257,1,48,23,803447568
1216,22,Ticks_Phase_8,258,5,42,127,803492236
1216,22,Ticks_Phase_8,259,1,48,20,804291804
1216,22,Ticks_Phase_8,260,5,42,127,804293216
1216,22,Ticks_Phase_8,261,5,42,127,805091840
1216,22,Ticks_Phase_8,262,1,48,23,805131056
1216,22,Ticks_Phase_8,263,5,42,127,805891476
1216,22,Ticks_Phase_8,264,1,48,16,805968208
1216,22,Ticks_Phase_8,265,5,42,127,806692236
1216,22,Ticks_Phase_8,266,1,48,19,806772564
1216,22,Ticks_Phase_8,267,5,42,127,807491872
1216,22,Ticks_Phase_8,268,1,48,17,807581792
1216,22,Ticks_Phase_8,269,5,42,127,808291808
1216,22,Ticks_Phase_8,270,1,48,18,808305484
1216,22,Ticks_Phase_8,271,5,42,127,809091372
1216,22,Ticks_Phase_8,272,1,48,22,809140172
1216,22,Ticks_Phase_8,273,1,48,21,809877408
1216,22,Ticks_Phase_8,274,5,42,127,809892124
1216,22,Ticks_Phase_8,275,5,42,127,810691916
1216,22,Ticks_Phase_8,276,1,48,18,810729816
1216,22,Ticks_Phase_8,277,1,48,19,811490448
1216,22,Ticks_Phase_8,278,5,42,127,811492092
1216,22,Ticks_Phase_8,279,1,48,19,812255076
1216,22,Ticks_Phase_8,280,5,42,127,812291356
1216,22,Ticks_Phase_8,281,1,48,20,813058828
1216,22,Ticks_Phase_8,282,5,42,127,813092188
1216,22,Ticks_Phase_8,283,1,48,15,813809264
1216,22,Ticks_Phase_8,284,5,42,127,813892052
1216,22,Ticks_Phase_8,285,1,48,19,814598644
1216,22,Ticks_Phase_8,286,5,42,127,814691836
1216,22,Ticks_Phase_8,287,1,48,17,815464032
1216,22,Ticks_Phase_8,288,5,42,127,815491400
1216,22,Ticks_Phase_8,289,5,42,127,816131384
1216,22,Ticks_Phase_8,290,1,48,22,816289140
1216,22,Ticks_Phase_8,291,5,42,127,816932144
1216,22,Ticks_Phase_8,292,1,48,17,817346796
1216,22,Ticks_Phase_8,293,5,42,127,817731932
1216,22,Ticks_Phase_8,294,5,42,127,818531960
1216,22,Ticks_Phase_8,295,1,48,26,819223896
1216,22,Ticks_Phase_8,296,5,42,127,819331448
1216,22,Ticks_Phase_8,297,1,48,19,820053192
1216,22,Ticks_Phase_8,298,5,42,127,820132148
1216,22,Ticks_Phase_8,299,1,48,21,820904792
1216,22,Ticks_Phase_8,300,5,42,127,820932008
1216,22,Ticks_Phase_8,301,5,42,127,821731900
1216,22,Ticks_Phase_8,302,1,48,16,821769552
1216,22,Ticks_Phase_8,303,5,42,127,822531688
1216,22,Ticks_Phase_8,304,1,48,27,822551588
1216,22,Ticks_Phase_8,305,5,42,127,823332076
1216,22,Ticks_Phase_8,306,1,48,20,823341636
1216,22,Ticks_Phase_8,307,1,48,18,824091984
1216,22,Ticks_Phase_8,308,5,42,127,824131928
1216,22,Ticks_Phase_8,309,1,48,15,824910048
1216,22,Ticks_Phase_8,310,5,42,127,824931640
1216,22,Ticks_Phase_8,311,1,48,16,825686684
1216,22,Ticks_Phase_8,312,5,42,127,825731724
1216,22,Ticks_Phase_8,313,1,48,22,826490224
1216,22,Ticks_Phase_8,314,5,42,127,826532108
1216,22,Ticks_Phase_8,315,1,48,16,827317560
1216,22,Ticks_Phase_8,316,5,42,127,827331972
1216,22,Ticks_Phase_8,317,5,42,127,828131788
1216,22,Ticks_Phase_8,318,1,48,15,828158344
1216,22,Ticks_Phase_8,319,5,42,127,828931720
1216,22,Ticks_Phase_8,320,1,48,29,828940616
1216,22,Ticks_Phase_8,321,5,42,127,829732184
1216,22,Ticks_Phase_8,322,1,48,21,829775588
1216,22,Ticks_Phase_8,323,5,42,127,830531896
1216,22,Ticks_Phase_8,324,1,48,24,830590736
1216,22,Ticks_Phase_8,325,5,42,127,831331756
1216,22,Ticks_Phase_8,0,9999,9999,9999,696119408
1216,22,Ticks_Phase_8,1,9999,9999,9999,696919144
1216,22,Ticks_Phase_8,2,9999,9999,9999,697719924
1216,22,Ticks_Phase_8,3,9999,9999,9999,698519656
1216,22,Ticks_Phase_8,4,9999,9999,9999,699319384
1216,22,Ticks_Phase_8,5,9999,9999,9999,700119120
1216,22,Ticks_Phase_8,6,9999,9999,9999,700919884
1216,22,Ticks_Phase_8,7,9999,9999,9999,701719664
1216,22,Ticks_Phase_8,8,9999,9999,9999,702519384
1216,22,Ticks_Phase_8,9,9999,9999,9999,703319096
1216,22,Ticks_Phase_8,10,9999,9999,9999,704119924
1216,22,Ticks_Phase_8,11,9999,9999,9999,704919640
1216,22,Ticks_Phase_8,12,9999,9999,9999,705719416
1216,22,Ticks_Phase_8,13,9999,9999,9999,706519160
1216,22,Ticks_Phase_8,14,9999,9999,9999,707319936
1216,22,Ticks_Phase_8,15,9999,9999,9999,708119652
1216,22,Ticks_Phase_8,16,9999,9999,9999,708919364
1216,22,Ticks_Phase_8,17,9999,9999,9999,709719148
1216,22,Ticks_Phase_8,18,9999,9999,9999,710519908
1216,22,Ticks_Phase_8,19,9999,9999,9999,711319620
1216,22,Ticks_Phase_8,20,9999,9999,9999,712119420
1216,22,Ticks_Phase_8,21,9999,9999,9999,712919156
1216,22,Ticks_Phase_8,22,9999,9999,9999,713719916
1216,22,Ticks_Phase_8,23,9999,9999,9999,714519628
1216,22,Ticks_Phase_8,24,9999,9999,9999,715319420
1216,22,Ticks_Phase_8,25,9999,9999,9999,716119132
1216,22,Ticks_Phase_8,26,9999,9999,9999,716919892
1216,22,Ticks_Phase_8,27,9999,9999,9999,717719676
1216,22,Ticks_Phase_8,28,9999,9999,9999,718519388
1216,22,Ticks_Phase_8,29,9999,9999,9999,719319124
1216,22,Ticks_Phase_8,30,9999,9999,9999,720099440
1216,22,Ticks_Phase_8,31,9999,9999,9999,720899148
1216,22,Ticks_Phase_8,32,9999,9999,9999,721699904
1216,22,Ticks_Phase_8,33,9999,9999,9999,722499692
1216,22,Ticks_Phase_8,34,9999,9999,9999,723299412
1216,22,Ticks_Phase_8,35,9999,9999,9999,724099192
1216,22,Ticks_Phase_8,36,9999,9999,9999,724899948
1216,22,Ticks_Phase_8,37,9999,9999,9999,725699660
1216,22,Ticks_Phase_8,38,9999,9999,9999,726499396
1216,22,Ticks_Phase_8,39,9999,9999,9999,727299188
1216,22,Ticks_Phase_8,40,9999,9999,9999,728099948
1216,22,Ticks_Phase_8,41,9999,9999,9999,728899660
1216,22,Ticks_Phase_8,42,9999,9999,9999,729699444
1216,22,Ticks_Phase_8,43,9999,9999,9999,730499156
1216,22,Ticks_Phase_8,44,9999,9999,9999,731299912
1216,22,Ticks_Phase_8,45,9999,9999,9999,732099704
1216,22,Ticks_Phase_8,46,9999,9999,9999,732899440
1216,22,Ticks_Phase_8,47,9999,9999,9999,733699152
1216,22,Ticks_Phase_8,48,9999,9999,9999,734519384
1216,22,Ticks_Phase_8,49,9999,9999,9999,735319096
1216,22,Ticks_Phase_8,50,9999,9999,9999,736119928
1216,22,Ticks_Phase_8,51,9999,9999,9999,736919656
1216,22,Ticks_Phase_8,52,9999,9999,9999,737719352
1216,22,Ticks_Phase_8,53,9999,9999,9999,738519104
1216,22,Ticks_Phase_8,54,9999,9999,9999,739319864
1216,22,Ticks_Phase_8,55,9999,9999,9999,740119648
1216,22,Ticks_Phase_8,56,9999,9999,9999,740919368
1216,22,Ticks_Phase_8,57,9999,9999,9999,741719152
1216,22,Ticks_Phase_8,58,9999,9999,9999,742519904
1216,22,Ticks_Phase_8,59,9999,9999,9999,743319620
1216,22,Ticks_Phase_8,60,9999,9999,9999,744119404
1216,22,Ticks_Phase_8,61,9999,9999,9999,744919148
1216,22,Ticks_Phase_8,62,9999,9999,9999,745719920
1216,22,Ticks_Phase_8,63,9999,9999,9999,746519640
1216,22,Ticks_Phase_8,64,9999,9999,9999,747359340
1216,22,Ticks_Phase_8,65,9999,9999,9999,748160128
1216,22,Ticks_Phase_8,66,9999,9999,9999,748970076
1216,22,Ticks_Phase_8,67,9999,9999,9999,749769856
1216,22,Ticks_Phase_8,68,9999,9999,9999,750569592
1216,22,Ticks_Phase_8,69,9999,9999,9999,751369304
1216,22,Ticks_Phase_8,70,9999,9999,9999,752170060
1216,22,Ticks_Phase_8,71,9999,9999,9999,752969848
1216,22,Ticks_Phase_8,72,9999,9999,9999,753769568
1216,22,Ticks_Phase_8,73,9999,9999,9999,754569280
1216,22,Ticks_Phase_8,74,9999,9999,9999,755370040
1216,22,Ticks_Phase_8,75,9999,9999,9999,756169796
1216,22,Ticks_Phase_8,76,9999,9999,9999,756969580
1216,22,Ticks_Phase_8,77,9999,9999,9999,757769292
1216,22,Ticks_Phase_8,78,9999,9999,9999,758570072
1216,22,Ticks_Phase_8,79,9999,9999,9999,759369800
1216,22,Ticks_Phase_8,80,9999,9999,9999,760169572
1216,22,Ticks_Phase_8,81,9999,9999,9999,760929372
1216,22,Ticks_Phase_8,82,9999,9999,9999,761729136
1216,22,Ticks_Phase_8,83,9999,9999,9999,762529892
1216,22,Ticks_Phase_8,84,9999,9999,9999,763329604
1216,22,Ticks_Phase_8,85,9999,9999,9999,764129340
1216,22,Ticks_Phase_8,86,9999,9999,9999,764929128
1216,22,Ticks_Phase_8,87,9999,9999,9999,765729904
1216,22,Ticks_Phase_8,88,9999,9999,9999,766529616
1216,22,Ticks_Phase_8,89,9999,9999,9999,767329336
1216,22,Ticks_Phase_8,90,9999,9999,9999,768129120
1216,22,Ticks_Phase_8,91,9999,9999,9999,768929876
1216,22,Ticks_Phase_8,92,9999,9999,9999,769729664
1216,22,Ticks_Phase_8,93,9999,9999,9999,770529400
1216,22,Ticks_Phase_8,94,9999,9999,9999,771329116
1216,22,Ticks_Phase_8,95,9999,9999,9999,772129864
1216,22,Ticks_Phase_8,96,9999,9999,9999,772929660
1216,22,Ticks_Phase_8,97,9999,9999,9999,773649464
1216,22,Ticks_Phase_8,98,9999,9999,9999,774449252
1216,22,Ticks_Phase_8,99,9999,9999,9999,775250004
1216,22,Ticks_Phase_8,100,9999,9999,9999,776049716
1216,22,Ticks_Phase_8,101,9999,9999,9999,776849504
1216,22,Ticks_Phase_8,102,9999,9999,9999,777649216
1216,22,Ticks_Phase_8,103,9999,9999,9999,778450000
1216,22,Ticks_Phase_8,104,9999,9999,9999,779249784
1216,22,Ticks_Phase_8,105,9999,9999,9999,780049500
1216,22,Ticks_Phase_8,106,9999,9999,9999,780849212
1216,22,Ticks_Phase_8,107,9999,9999,9999,781650044
1216,22,Ticks_Phase_8,108,9999,9999,9999,782449756
1216,22,Ticks_Phase_8,109,9999,9999,9999,783249472
1216,22,Ticks_Phase_8,110,9999,9999,9999,784049256
1216,22,Ticks_Phase_8,111,9999,9999,9999,784850040
1216,22,Ticks_Phase_8,112,9999,9999,9999,785649760
1216,22,Ticks_Phase_8,113,9999,9999,9999,786449464
1216,22,Ticks_Phase_8,114,9999,9999,9999,787329140
1216,22,Ticks_Phase_8,115,9999,9999,9999,788129900
1216,22,Ticks_Phase_8,116,9999,9999,9999,788929628
1216,22,Ticks_Phase_8,117,9999,9999,9999,789729368
1216,22,Ticks_Phase_8,118,9999,9999,9999,790529080
1216,22,Ticks_Phase_8,119,9999,9999,9999,791329912
1216,22,Ticks_Phase_8,120,9999,9999,9999,792129624
1216,22,Ticks_Phase_8,121,9999,9999,9999,792929404
1216,22,Ticks_Phase_8,122,9999,9999,9999,793729116
1216,22,Ticks_Phase_8,123,9999,9999,9999,794529876
1216,22,Ticks_Phase_8,124,9999,9999,9999,795329660
1216,22,Ticks_Phase_8,125,9999,9999,9999,796129404
1216,22,Ticks_Phase_8,126,9999,9999,9999,796929132
1216,22,Ticks_Phase_8,127,9999,9999,9999,797729892
1216,22,Ticks_Phase_8,128,9999,9999,9999,798529608
1216,22,Ticks_Phase_8,129,9999,9999,9999,799329396
1216,22,Ticks_Phase_8,130,9999,9999,9999,800129104
1216,22,Ticks_Phase_8,131,9999,9999,9999,801089600
1216,22,Ticks_Phase_8,132,9999,9999,9999,801889388
1216,22,Ticks_Phase_8,133,9999,9999,9999,802689116
1216,22,Ticks_Phase_8,134,9999,9999,9999,803489876
1216,22,Ticks_Phase_8,135,9999,9999,9999,804289592
1216,22,Ticks_Phase_8,136,9999,9999,9999,805089404
1216,22,Ticks_Phase_8,137,9999,9999,9999,805889116
1216,22,Ticks_Phase_8,138,9999,9999,9999,806689872
1216,22,Ticks_Phase_8,139,9999,9999,9999,807489660
1216,22,Ticks_Phase_8,140,9999,9999,9999,808289372
1216,22,Ticks_Phase_8,141,9999,9999,9999,809089084
1216,22,Ticks_Phase_8,142,9999,9999,9999,809889912
1216,22,Ticks_Phase_8,143,9999,9999,9999,810689628
1216,22,Ticks_Phase_8,144,9999,9999,9999,811489364
1216,22,Ticks_Phase_8,145,9999,9999,9999,812289144
1216,22,Ticks_Phase_8,146,9999,9999,9999,813089904
1216,22,Ticks_Phase_8,147,9999,9999,9999,813889616
1216,22,Ticks_Phase_8,148,9999,9999,9999,814689400
1216,22,Ticks_Phase_8,149,9999,9999,9999,815489112
1216,22,Ticks_Phase_8,150,9999,9999,9999,816129100
1216,22,Ticks_Phase_8,151,9999,9999,9999,816929856
1216,22,Ticks_Phase_8,152,9999,9999,9999,817729644
1216,22,Ticks_Phase_8,153,9999,9999,9999,818529376
1216,22,Ticks_Phase_8,154,9999,9999,9999,819329088
1216,22,Ticks_Phase_8,155,9999,9999,9999,820129864
1216,22,Ticks_Phase_8,156,9999,9999,9999,820929648
1216,22,Ticks_Phase_8,157,9999,9999,9999,821729392
1216,22,Ticks_Phase_8,158,9999,9999,9999,822529104
1216,22,Ticks_Phase_8,159,9999,9999,9999,823329860
1216,22,Ticks_Phase_8,160,9999,9999,9999,824129640
1216,22,Ticks_Phase_8,161,9999,9999,9999,824929352
1216,22,Ticks_Phase_8,162,9999,9999,9999,825729140
1216,22,Ticks_Phase_8,163,9999,9999,9999,826529896
1216,22,Ticks_Phase_8,164,9999,9999,9999,827329608
1216,22,Ticks_Phase_8,165,9999,9999,9999,828129352
1216,22,Ticks_Phase_8,166,9999,9999,9999,828929136
1216,22,Ticks_Phase_8,167,9999,9999,9999,829729896
1216,22,Ticks_Phase_8,168,9999,9999,9999,830529608
1216,22,Ticks_Phase_8,169,9999,9999,9999,831329396
1217,21,Ticks_Linear_5,0,5,42,127,840965736
1217,21,Ticks_Linear_5,1,5,42,127,841445616
1217,21,Ticks_Linear_5,2,5,42,127,841926160
1217,21,Ticks_Linear_5,3,5,42,127,842406312
1217,21,Ticks_Linear_5,4,5,42,127,842885444
1217,21,Ticks_Linear_5,5,1,48,16,842898748
1217,21,Ticks_Linear_5,6,1,48,19,843358288
1217,21,Ticks_Linear_5,7,5,42,127,843375924
1217,21,Ticks_Linear_5,8,1,48,23,843833416
1217,21,Ticks_Linear_5,9,5,42,127,843865512
1217,21,Ticks_Linear_5,10,5,42,127,844355856
1217,21,Ticks_Linear_5,11,1,48,13,844366688
1217,21,Ticks_Linear_5,12,1,48,20,844817092
1217,21,Ticks_Linear_5,13,5,42,127,844845364
1217,21,Ticks_Linear_5,14,1,48,20,845326456
1217,21,Ticks_Linear_5,15,5,42,127,845335928
1217,21,Ticks_Linear_5,16,1,48,25,845786464
1217,21,Ticks_Linear_5,17,5,42,127,845835552
1217,21,Ticks_Linear_5,18,1,48,19,846321804
1217,21,Ticks_Linear_5,19,5,42,127,846336376
1217,21,Ticks_Linear_5,20,1,48,16,846834492
1217,21,Ticks_Linear_5,21,5,42,127,846836148
1217,21,Ticks_Linear_5,22,5,42,127,847335704
1217,21,Ticks_Linear_5,23,5,42,127,847835576
1217,21,Ticks_Linear_5,24,1,48,13,847880780
1217,21,Ticks_Linear_5,25,5,42,127,848345460
1217,21,Ticks_Linear_5,26,1,48,19,848370592
1217,21,Ticks_Linear_5,27,1,48,19,848803220
1217,21,Ticks_Linear_5,28,5,42,127,848856388
1217,21,Ticks_Linear_5,29,1,48,20,849306148
1217,21,Ticks_Linear_5,30,5,42,127,849375484
1217,21,Ticks_Linear_5,31,1,48,20,849865404
1217,21,Ticks_Linear_5,32,5,42,127,849885440
1217,21,Ticks_Linear_5,33,5,42,127,850395408
1217,21,Ticks_Linear_5,34,1,48,19,850402040
1217,21,Ticks_Linear_5,35,1,48,17,850904352
1217,21,Ticks_Linear_5,36,5,42,127,850915692
1217,21,Ticks_Linear_5,37,1,48,18,851398728
1217,21,Ticks_Linear_5,38,5,42,127,851435760
1217,21,Ticks_Linear_5,39,1,48,19,851926436
1217,21,Ticks_Linear_5,40,5,42,127,851956276
1217,21,Ticks_Linear_5,41,1,48,19,852443512
1217,21,Ticks_Linear_5,42,5,42,127,852476196
1217,21,Ticks_Linear_5,43,1,48,18,852988288
1217,21,Ticks_Linear_5,44,5,42,127,852995516
1217,21,Ticks_Linear_5,45,1,48,16,853509180
1217,21,Ticks_Linear_5,46,5,42,127,853525920
1217,21,Ticks_Linear_5,47,1,48,17,854007088
1217,21,Ticks_Linear_5,48,5,42,127,854056176
1217,21,Ticks_Linear_5,49,1,48,13,854561072
1217,21,Ticks_Linear_5,50,5,42,127,854585604
1217,21,Ticks_Linear_5,51,1,48,19,855110724
1217,21,Ticks_Linear_5,52,5,42,127,855116156
1217,21,Ticks_Linear_5,53,1,48,16,855631388
1217,21,Ticks_Linear_5,54,5,42,127,855645512
1217,21,Ticks_Linear_5,55,1,48,16,856121428
1217,21,Ticks_Linear_5,56,5,42,127,856186176
1217,21,Ticks_Linear_5,57,1,48,17,856676172
1217,21,Ticks_Linear_5,58,5,42,127,856725864
1217,21,Ticks_Linear_5,59,1,48,19,857213832
1217,21,Ticks_Linear_5,60,5,42,127,857265480
1217,21,Ticks_Linear_5,61,1,48,19,857775176
1217,21,Ticks_Linear_5,62,5,42,127,857806240
1217,21,Ticks_Linear_5,63,1,48,19,858283860
1217,21,Ticks_Linear_5,64,5,42,127,858346228
1217,21,Ticks_Linear_5,65,1,48,24,858859072
1217,21,Ticks_Linear_5,66,5,42,127,858895808
1217,21,Ticks_Linear_5,67,1,48,17,859440916
1217,21,Ticks_Linear_5,68,5,42,127,859445604
1217,21,Ticks_Linear_5,69,1,48,21,859930356
1217,21,Ticks_Linear_5,70,5,42,127,859995480
1217,21,Ticks_Linear_5,71,1,48,21,860543060
1217,21,Ticks_Linear_5,72,5,42,127,860546404
1217,21,Ticks_Linear_5,73,1,48,14,861105420
1217,21,Ticks_Linear_5,74,5,42,127,861106908
1217,21,Ticks_Linear_5,75,1,48,24,861627988
1217,21,Ticks_Linear_5,76,5,42,127,861665868
1217,21,Ticks_Linear_5,77,1,48,22,862174224
1217,21,Ticks_Linear_5,78,5,42,127,862226004
1217,21,Ticks_Linear_5,79,1,48,20,862753816
1217,21,Ticks_Linear_5,80,5,42,127,862786064
1217,21,Ticks_Linear_5,81,1,48,19,863325344
1217,21,Ticks_Linear_5,82,5,42,127,863346272
1217,21,Ticks_Linear_5,83,1,48,25,863864804
1217,21,Ticks_Linear_5,84,5,42,127,863906256
1217,21,Ticks_Linear_5,85,1,48,21,864411152
1217,21,Ticks_Linear_5,86,5,42,127,864475404
1217,21,Ticks_Linear_5,87,1,48,27,865006740
1217,21,Ticks_Linear_5,88,5,42,127,865046092
1217,21,Ticks_Linear_5,89,1,48,21,865599892
1217,21,Ticks_Linear_5,90,5,42,127,865616184
1217,21,Ticks_Linear_5,91,5,42,127,866185536
1217,21,Ticks_Linear_5,92,1,48,17,866193608
1217,21,Ticks_Linear_5,93,1,48,23,866714176
1217,21,Ticks_Linear_5,94,5,42,127,866755928
1217,21,Ticks_Linear_5,95,1,48,25,867285936
1217,21,Ticks_Linear_5,96,5,42,127,867335628
1217,21,Ticks_Linear_5,97,1,48,17,867874084
1217,21,Ticks_Linear_5,98,5,42,127,867916280
1217,21,Ticks_Linear_5,99,1,48,23,868462668
1217,21,Ticks_Linear_5,100,5,42,127,868495884
1217,21,Ticks_Linear_5,101,1,48,22,869055228
1217,21,Ticks_Linear_5,102,5,42,127,869076260
1217,21,Ticks_Linear_5,103,1,48,25,869590596
1217,21,Ticks_Linear_5,104,5,42,127,869655940
1217,21,Ticks_Linear_5,105,1,48,23,870153044
1217,21,Ticks_Linear_5,106,5,42,127,870245880
1217,21,Ticks_Linear_5,107,1,48,19,870790396
1217,21,Ticks_Linear_5,108,5,42,127,870835668
1217,21,Ticks_Linear_5,109,1,48,21,871350824
1217,21,Ticks_Linear_5,110,5,42,127,871426308
1217,21,Ticks_Linear_5,111,1,48,22,871956824
1217,21,Ticks_Linear_5,112,5,42,127,872025604
1217,21,Ticks_Linear_5,113,1,48,20,872558668
1217,21,Ticks_Linear_5,114,5,42,127,872616292
1217,21,Ticks_Linear_5,115,1,48,19,873144788
1217,21,Ticks_Linear_5,116,5,42,127,873216368
1217,21,Ticks_Linear_5,117,1,48,19,873739316
1217,21,Ticks_Linear_5,118,5,42,127,873816340
1217,21,Ticks_Linear_5,119,1,48,20,874358756
1217,21,Ticks_Linear_5,120,5,42,127,874425972
1217,21,Ticks_Linear_5,121,1,48,21,874958308
1217,21,Ticks_Linear_5,122,5,42,127,875025896
1217,21,Ticks_Linear_5,123,1,48,23,875523688
1217,21,Ticks_Linear_5,124,5,42,127,875626080
1217,21,Ticks_Linear_5,125,1,48,18,876130396
1217,21,Ticks_Linear_5,126,5,42,127,876236112
1217,21,Ticks_Linear_5,127,1,48,19,876737712
1217,21,Ticks_Linear_5,128,5,42,127,876845372
1217,21,Ticks_Linear_5,129,1,48,20,877345800
1217,21,Ticks_Linear_5,130,5,42,127,877455828
1217,21,Ticks_Linear_5,131,1,48,19,877992044
1217,21,Ticks_Linear_5,132,5,42,127,878066028
1217,21,Ticks_Linear_5,133,1,48,19,878638024
1217,21,Ticks_Linear_5,134,5,42,127,878676484
1217,21,Ticks_Linear_5,135,1,48,21,879244144
1217,21,Ticks_Linear_5,136,5,42,127,879295928
1217,21,Ticks_Linear_5,137,1,48,23,879847888
1217,21,Ticks_Linear_5,138,5,42,127,879916376
1217,21,Ticks_Linear_5,139,1,48,22,880477664
1217,21,Ticks_Linear_5,140,5,42,127,880535892
1217,21,Ticks_Linear_5,141,1,48,17,881146112
1217,21,Ticks_Linear_5,142,5,42,127,881155584
1217,21,Ticks_Linear_5,143,1,48,17,881722936
1217,21,Ticks_Linear_5,144,5,42,127,881775856
1217,21,Ticks_Linear_5,145,1,48,19,882345460
1217,21,Ticks_Linear_5,146,5,42,127,882405808
1217,21,Ticks_Linear_5,147,1,48,24,882957516
1217,21,Ticks_Linear_5,148,5,42,127,883035584
1217,21,Ticks_Linear_5,149,1,48,18,883609528
1217,21,Ticks_Linear_5,150,5,42,127,883666360
1217,21,Ticks_Linear_5,151,1,48,23,884235216
1217,21,Ticks_Linear_5,152,5,42,127,884296064
1217,21,Ticks_Linear_5,153,1,48,19,884881768
1217,21,Ticks_Linear_5,154,5,42,127,884925772
1217,21,Ticks_Linear_5,155,1,48,18,885516216
1217,21,Ticks_Linear_5,156,5,42,127,885565832
1217,21,Ticks_Linear_5,157,1,48,20,886164944
1217,21,Ticks_Linear_5,158,5,42,127,886205944
1217,21,Ticks_Linear_5,159,1,48,21,886834516
1217,21,Ticks_Linear_5,160,5,42,127,886845860
1217,21,Ticks_Linear_5,161,1,48,20,887476572
1217,21,Ticks_Linear_5,162,5,42,127,887485748
1217,21,Ticks_Linear_5,163,5,42,127,888125816
1217,21,Ticks_Linear_5,164,1,48,25,888134712
1217,21,Ticks_Linear_5,165,1,48,19,888772120
1217,21,Ticks_Linear_5,166,5,42,127,888775988
1217,21,Ticks_Linear_5,167,1,48,22,889425012
1217,21,Ticks_Linear_5,168,5,42,127,889426508
1217,21,Ticks_Linear_5,169,1,48,17,890052296
1217,21,Ticks_Linear_5,170,5,42,127,890075784
1217,21,Ticks_Linear_5,171,5,42,127,890725640
1217,21,Ticks_Linear_5,172,1,48,24,891345460
1217,21,Ticks_Linear_5,173,5,42,127,891375976
1217,21,Ticks_Linear_5,174,1,48,20,891991484
1217,21,Ticks_Linear_5,175,5,42,127,892035484
1217,21,Ticks_Linear_5,176,1,48,23,892691228
1217,21,Ticks_Linear_5,177,5,42,127,892695916
1217,21,Ticks_Linear_5,178,1,48,25,893336140
1217,21,Ticks_Linear_5,179,5,42,127,893356624
1217,21,Ticks_Linear_5,180,1,48,15,894004368
1217,21,Ticks_Linear_5,181,5,42,127,894015860
1217,21,Ticks_Linear_5,182,1,48,23,894609800
1217,21,Ticks_Linear_5,183,5,42,127,894676512
1217,21,Ticks_Linear_5,184,1,48,19,895307232
1217,21,Ticks_Linear_5,185,5,42,127,895346132
1217,21,Ticks_Linear_5,186,1,48,22,895988928
1217,21,Ticks_Linear_5,187,5,42,127,896015704
1217,21,Ticks_Linear_5,188,1,48,16,896672172
1217,21,Ticks_Linear_5,189,5,42,127,896685544
1217,21,Ticks_Linear_5,190,1,48,24,897296592
1217,21,Ticks_Linear_5,191,5,42,127,897356016
1217,21,Ticks_Linear_5,192,1,48,16,898010932
1217,21,Ticks_Linear_5,193,5,42,127,898025808
1217,21,Ticks_Linear_5,194,1,48,25,898702568
1217,21,Ticks_Linear_5,195,5,42,127,898705760
1217,21,Ticks_Linear_5,196,1,48,19,899361504
1217,21,Ticks_Linear_5,197,5,42,127,899385812
1217,21,Ticks_Linear_5,198,1,48,19,899984704
1217,21,Ticks_Linear_5,199,5,42,127,900065716
1217,21,Ticks_Linear_5,200,1,48,22,900583804
1217,21,Ticks_Linear_5,201,5,42,127,900745580
1217,21,Ticks_Linear_5,202,5,42,127,901425504
1217,21,Ticks_Linear_5,203,1,48,24,901455736
1217,21,Ticks_Linear_5,204,1,48,18,902090908
1217,21,Ticks_Linear_5,205,5,42,127,902115664
1217,21,Ticks_Linear_5,206,1,48,19,902768840
1217,21,Ticks_Linear_5,207,5,42,127,902805948
1217,21,Ticks_Linear_5,208,1,48,21,903472252
1217,21,Ticks_Linear_5,209,5,42,127,903495960
1217,21,Ticks_Linear_5,210,1,48,19,904156360
1217,21,Ticks_Linear_5,211,5,42,127,904186496
1217,21,Ticks_Linear_5,212,1,48,18,904869704
1217,21,Ticks_Linear_5,213,5,42,127,904876640
1217,21,Ticks_Linear_5,214,1,48,18,905514940
1217,21,Ticks_Linear_5,215,5,42,127,905575712
1217,21,Ticks_Linear_5,216,1,48,18,906206824
1217,21,Ticks_Linear_5,217,5,42,127,906276208
1217,21,Ticks_Linear_5,218,1,48,16,906920772
1217,21,Ticks_Linear_5,219,5,42,127,906975584
1217,21,Ticks_Linear_5,220,1,48,13,907613100
1217,21,Ticks_Linear_5,221,5,42,127,907675904
1217,21,Ticks_Linear_5,222,5,42,127,908376412
1217,21,Ticks_Linear_5,223,1,48,16,908382144
1217,21,Ticks_Linear_5,224,1,48,17,909076864
1217,21,Ticks_Linear_5,225,5,42,127,909096368
1217,21,Ticks_Linear_5,226,1,48,23,909776088
1217,21,Ticks_Linear_5,227,5,42,127,909806152
1217,21,Ticks_Linear_5,228,1,48,24,910482544
1217,21,Ticks_Linear_5,229,5,42,127,910515612
1217,21,Ticks_Linear_5,230,1,48,23,911171428
1217,21,Ticks_Linear_5,231,5,42,127,911226220
1217,21,Ticks_Linear_5,232,5,42,127,911935784
1217,21,Ticks_Linear_5,233,1,48,18,911982480
1217,21,Ticks_Linear_5,234,5,42,127,912655604
1217,21,Ticks_Linear_5,235,1,48,18,912681408
1217,21,Ticks_Linear_5,236,5,42,127,913375572
1217,21,Ticks_Linear_5,237,1,48,14,913380260
1217,21,Ticks_Linear_5,238,5,42,127,914095440
1217,21,Ticks_Linear_5,239,1,48,17,914120748
1217,21,Ticks_Linear_5,240,1,48,18,914802100
1217,21,Ticks_Linear_5,241,5,42,127,914816524
1217,21,Ticks_Linear_5,242,1,48,26,915505600
1217,21,Ticks_Linear_5,243,5,42,127,915536264
1217,21,Ticks_Linear_5,244,1,48,21,916225716
1217,21,Ticks_Linear_5,245,5,42,127,916266344
1217,21,Ticks_Linear_5,246,1,48,19,916925592
1217,21,Ticks_Linear_5,247,5,42,127,916995596
1217,21,Ticks_Linear_5,248,1,48,17,917637768
1217,21,Ticks_Linear_5,249,5,42,127,917725452
1217,21,Ticks_Linear_5,250,1,48,24,918393672
1217,21,Ticks_Linear_5,251,5,42,127,918455656
1217,21,Ticks_Linear_5,252,1,48,20,919158356
1217,21,Ticks_Linear_5,253,5,42,127,919185804
1217,21,Ticks_Linear_5,254,1,48,17,919908056
1217,21,Ticks_Linear_5,255,5,42,127,919926220
1217,21,Ticks_Linear_5,256,1,48,17,920665144
1217,21,Ticks_Linear_5,257,5,42,127,920666484
1217,21,Ticks_Linear_5,258,5,42,127,921406004
1217,21,Ticks_Linear_5,259,1,48,17,921441696
1217,21,Ticks_Linear_5,260,5,42,127,922146116
1217,21,Ticks_Linear_5,261,1,48,19,922182108
1217,21,Ticks_Linear_5,262,1,48,23,922877052
1217,21,Ticks_Linear_5,263,5,42,127,922885476
1217,21,Ticks_Linear_5,264,1,48,21,923596716
1217,21,Ticks_Linear_5,265,5,42,127,923636072
1217,21,Ticks_Linear_5,266,1,48,23,924290520
1217,21,Ticks_Linear_5,267,5,42,127,924385844
1217,21,Ticks_Linear_5,268,1,48,17,925119148
1217,21,Ticks_Linear_5,269,5,42,127,925136292
1217,21,Ticks_Linear_5,270,1,48,18,925797108
1217,21,Ticks_Linear_5,271,5,42,127,925885964
1217,21,Ticks_Linear_5,272,1,48,18,926589344
1217,21,Ticks_Linear_5,273,5,42,127,926636340
1217,21,Ticks_Linear_5,274,1,48,20,927316428
1217,21,Ticks_Linear_5,275,5,42,127,927396148
1217,21,Ticks_Linear_5,276,1,48,19,928049500
1217,21,Ticks_Linear_5,277,5,42,127,928156088
1217,21,Ticks_Linear_5,278,1,48,21,928776732
1217,21,Ticks_Linear_5,279,5,42,127,928916120
1217,21,Ticks_Linear_5,280,1,48,19,929488988
1217,21,Ticks_Linear_5,281,5,42,127,929675556
1217,21,Ticks_Linear_5,282,1,48,13,930299044
1217,21,Ticks_Linear_5,283,5,42,127,930435516
1217,21,Ticks_Linear_5,284,1,48,16,931076308
1217,21,Ticks_Linear_5,285,5,42,127,931205432
1217,21,Ticks_Linear_5,286,1,48,21,931783920
1217,21,Ticks_Linear_5,287,5,42,127,931975648
1217,21,Ticks_Linear_5,288,1,48,14,932583176
1217,21,Ticks_Linear_5,289,5,42,127,932745792
1217,21,Ticks_Linear_5,290,1,48,15,933335880
1217,21,Ticks_Linear_5,291,5,42,127,933515784
1217,21,Ticks_Linear_5,292,1,48,18,934052224
1217,21,Ticks_Linear_5,293,5,42,127,934285852
1217,21,Ticks_Linear_5,294,1,48,15,934830904
1217,21,Ticks_Linear_5,295,5,42,127,935065952
1217,21,Ticks_Linear_5,296,5,42,127,935846376
1217,21,Ticks_Linear_5,297,1,48,21,936161824
1217,21,Ticks_Linear_5,298,5,42,127,936625656
1217,21,Ticks_Linear_5,299,1,48,19,936820584
1217,21,Ticks_Linear_5,300,5,42,127,937405832
1217,21,Ticks_Linear_5,301,1,48,22,937426956
1217,21,Ticks_Linear_5,302,1,48,17,938118344
1217,21,Ticks_Linear_5,303,5,42,127,938186176
1217,21,Ticks_Linear_5,304,1,48,29,938821832
1217,21,Ticks_Linear_5,305,5,42,127,938975776
1217,21,Ticks_Linear_5,306,1,48,22,939608304
1217,21,Ticks_Linear_5,307,5,42,127,939765992
1217,21,Ticks_Linear_5,308,1,48,19,940350588
1217,21,Ticks_Linear_5,309,5,42,127,940555904
1217,21,Ticks_Linear_5,310,5,42,127,941346140
1217,21,Ticks_Linear_5,311,1,48,17,941837800
1217,21,Ticks_Linear_5,312,5,42,127,942135752
1217,21,Ticks_Linear_5,313,1,48,23,942504128
1217,21,Ticks_Linear_5,314,5,42,127,942936300
1217,21,Ticks_Linear_5,315,1,48,19,943162752
1217,21,Ticks_Linear_5,316,5,42,127,943746432
1217,21,Ticks_Linear_5,317,5,42,127,944556288
1217,21,Ticks_Linear_5,318,1,48,13,944625556
1217,21,Ticks_Linear_5,319,1,48,26,945258232
1217,21,Ticks_Linear_5,320,5,42,127,945357356
1217,21,Ticks_Linear_5,321,1,48,29,945994528
1217,21,Ticks_Linear_5,322,5,42,127,946155960
1217,21,Ticks_Linear_5,323,1,48,25,946735392
1217,21,Ticks_Linear_5,324,5,42,127,946966016
1217,21,Ticks_Linear_5,325,1,48,20,947469732
1217,21,Ticks_Linear_5,326,5,42,127,947775776
1217,21,Ticks_Linear_5,327,1,48,24,948224380
1217,21,Ticks_Linear_5,328,5,42,127,948585832
1217,21,Ticks_Linear_5,329,1,48,26,949003880
1217,21,Ticks_Linear_5,330,5,42,127,949395740
1217,21,Ticks_Linear_5,331,1,48,23,949753492
1217,21,Ticks_Linear_5,332,5,42,127,950205796
1217,21,Ticks_Linear_5,0,9999,9999,9999,840963140
1217,21,Ticks_Linear_5,1,9999,9999,9999,841443392
1217,21,Ticks_Linear_5,2,9999,9999,9999,841923688
1217,21,Ticks_Linear_5,3,9999,9999,9999,842403940
1217,21,Ticks_Linear_5,4,9999,9999,9999,842883144
1217,21,Ticks_Linear_5,5,9999,9999,9999,843373624
1217,21,Ticks_Linear_5,6,9999,9999,9999,843863140
1217,21,Ticks_Linear_5,7,9999,9999,9999,844353632
1217,21,Ticks_Linear_5,8,9999,9999,9999,844843068
1217,21,Ticks_Linear_5,9,9999,9999,9999,845333628
1217,21,Ticks_Linear_5,10,9999,9999,9999,845833328
1217,21,Ticks_Linear_5,11,9999,9999,9999,846334076
1217,21,Ticks_Linear_5,12,9999,9999,9999,846833780
1217,21,Ticks_Linear_5,13,9999,9999,9999,847333480
1217,21,Ticks_Linear_5,14,9999,9999,9999,847833200
1217,21,Ticks_Linear_5,15,9999,9999,9999,848343160
1217,21,Ticks_Linear_5,16,9999,9999,9999,848854088
1217,21,Ticks_Linear_5,17,9999,9999,9999,849373260
1217,21,Ticks_Linear_5,18,9999,9999,9999,849883216
1217,21,Ticks_Linear_5,19,9999,9999,9999,850393184
1217,21,Ticks_Linear_5,20,9999,9999,9999,850913396
1217,21,Ticks_Linear_5,21,9999,9999,9999,851433536
1217,21,Ticks_Linear_5,22,9999,9999,9999,851953756
1217,21,Ticks_Linear_5,23,9999,9999,9999,852473972
1217,21,Ticks_Linear_5,24,9999,9999,9999,852993144
1217,21,Ticks_Linear_5,25,9999,9999,9999,853523548
1217,21,Ticks_Linear_5,26,9999,9999,9999,854053952
1217,21,Ticks_Linear_5,27,9999,9999,9999,854583380
1217,21,Ticks_Linear_5,28,9999,9999,9999,855113784
1217,21,Ticks_Linear_5,29,9999,9999,9999,855643216
1217,21,Ticks_Linear_5,30,9999,9999,9999,856183876
1217,21,Ticks_Linear_5,31,9999,9999,9999,856723564
1217,21,Ticks_Linear_5,32,9999,9999,9999,857263184
1217,21,Ticks_Linear_5,33,9999,9999,9999,857803868
1217,21,Ticks_Linear_5,34,9999,9999,9999,858343484
1217,21,Ticks_Linear_5,35,9999,9999,9999,858893436
1217,21,Ticks_Linear_5,36,9999,9999,9999,859443308
1217,21,Ticks_Linear_5,37,9999,9999,9999,859993180
1217,21,Ticks_Linear_5,38,9999,9999,9999,860544104
1217,21,Ticks_Linear_5,39,9999,9999,9999,861103192
1217,21,Ticks_Linear_5,40,9999,9999,9999,861663348
1217,21,Ticks_Linear_5,41,9999,9999,9999,862223484
1217,21,Ticks_Linear_5,42,9999,9999,9999,862783544
1217,21,Ticks_Linear_5,43,9999,9999,9999,863343676
1217,21,Ticks_Linear_5,44,9999,9999,9999,863903808
1217,21,Ticks_Linear_5,45,9999,9999,9999,864473180
1217,21,Ticks_Linear_5,46,9999,9999,9999,865043568
1217,21,Ticks_Linear_5,47,9999,9999,9999,865613888
1217,21,Ticks_Linear_5,48,9999,9999,9999,866183240
1217,21,Ticks_Linear_5,49,9999,9999,9999,866753624
1217,21,Ticks_Linear_5,50,9999,9999,9999,867333184
1217,21,Ticks_Linear_5,51,9999,9999,9999,867913832
1217,21,Ticks_Linear_5,52,9999,9999,9999,868493436
1217,21,Ticks_Linear_5,53,9999,9999,9999,869074036
1217,21,Ticks_Linear_5,54,9999,9999,9999,869653568
1217,21,Ticks_Linear_5,55,9999,9999,9999,870243432
1217,21,Ticks_Linear_5,56,9999,9999,9999,870833220
1217,21,Ticks_Linear_5,57,9999,9999,9999,871424080
1217,21,Ticks_Linear_5,58,9999,9999,9999,872023156
1217,21,Ticks_Linear_5,59,9999,9999,9999,872613992
1217,21,Ticks_Linear_5,60,9999,9999,9999,873214068
1217,21,Ticks_Linear_5,61,9999,9999,9999,873814116
1217,21,Ticks_Linear_5,62,9999,9999,9999,874423376
1217,21,Ticks_Linear_5,63,9999,9999,9999,875023448
1217,21,Ticks_Linear_5,64,9999,9999,9999,875623484
1217,21,Ticks_Linear_5,65,9999,9999,9999,876233816
1217,21,Ticks_Linear_5,66,9999,9999,9999,876843076
1217,21,Ticks_Linear_5,67,9999,9999,9999,877453380
1217,21,Ticks_Linear_5,68,9999,9999,9999,878063728
1217,21,Ticks_Linear_5,69,9999,9999,9999,878674036
1217,21,Ticks_Linear_5,70,9999,9999,9999,879293556
1217,21,Ticks_Linear_5,71,9999,9999,9999,879914072
1217,21,Ticks_Linear_5,72,9999,9999,9999,880533592
1217,21,Ticks_Linear_5,73,9999,9999,9999,881153136
1217,21,Ticks_Linear_5,74,9999,9999,9999,881773632
1217,21,Ticks_Linear_5,75,9999,9999,9999,882403432
1217,21,Ticks_Linear_5,76,9999,9999,9999,883033212
1217,21,Ticks_Linear_5,77,9999,9999,9999,883663988
1217,21,Ticks_Linear_5,78,9999,9999,9999,884293692
1217,21,Ticks_Linear_5,79,9999,9999,9999,884923472
1217,21,Ticks_Linear_5,80,9999,9999,9999,885563460
1217,21,Ticks_Linear_5,81,9999,9999,9999,886203500
1217,21,Ticks_Linear_5,82,9999,9999,9999,886843488
1217,21,Ticks_Linear_5,83,9999,9999,9999,887483448
1217,21,Ticks_Linear_5,84,9999,9999,9999,888123520
1217,21,Ticks_Linear_5,85,9999,9999,9999,888773688
1217,21,Ticks_Linear_5,86,9999,9999,9999,889423992
1217,21,Ticks_Linear_5,87,9999,9999,9999,890073188
1217,21,Ticks_Linear_5,88,9999,9999,9999,890723416
1217,21,Ticks_Linear_5,89,9999,9999,9999,891373680
1217,21,Ticks_Linear_5,90,9999,9999,9999,892033112
1217,21,Ticks_Linear_5,91,9999,9999,9999,892693620
1217,21,Ticks_Linear_5,92,9999,9999,9999,893354100
1217,21,Ticks_Linear_5,93,9999,9999,9999,894013560
1217,21,Ticks_Linear_5,94,9999,9999,9999,894673992
1217,21,Ticks_Linear_5,95,9999,9999,9999,895343688
1217,21,Ticks_Linear_5,96,9999,9999,9999,896013404
1217,21,Ticks_Linear_5,97,9999,9999,9999,896683100
1217,21,Ticks_Linear_5,98,9999,9999,9999,897353792
1217,21,Ticks_Linear_5,99,9999,9999,9999,898023508
1217,21,Ticks_Linear_5,100,9999,9999,9999,898703460
1217,21,Ticks_Linear_5,101,9999,9999,9999,899383368
1217,21,Ticks_Linear_5,102,9999,9999,9999,900063344
1217,21,Ticks_Linear_5,103,9999,9999,9999,900743280
1217,21,Ticks_Linear_5,104,9999,9999,9999,901423208
1217,21,Ticks_Linear_5,105,9999,9999,9999,902113364
1217,21,Ticks_Linear_5,106,9999,9999,9999,902803576
1217,21,Ticks_Linear_5,107,9999,9999,9999,903493736
1217,21,Ticks_Linear_5,108,9999,9999,9999,904183900
1217,21,Ticks_Linear_5,109,9999,9999,9999,904874040
1217,21,Ticks_Linear_5,110,9999,9999,9999,905573488
1217,21,Ticks_Linear_5,111,9999,9999,9999,906273912
1217,21,Ticks_Linear_5,112,9999,9999,9999,906973284
1217,21,Ticks_Linear_5,113,9999,9999,9999,907673680
1217,21,Ticks_Linear_5,114,9999,9999,9999,908374112
1217,21,Ticks_Linear_5,115,9999,9999,9999,909093996
1217,21,Ticks_Linear_5,116,9999,9999,9999,909803632
1217,21,Ticks_Linear_5,117,9999,9999,9999,910513240
1217,21,Ticks_Linear_5,118,9999,9999,9999,911223920
1217,21,Ticks_Linear_5,119,9999,9999,9999,911933560
1217,21,Ticks_Linear_5,120,9999,9999,9999,912653380
1217,21,Ticks_Linear_5,121,9999,9999,9999,913373272
1217,21,Ticks_Linear_5,122,9999,9999,9999,914093140
1217,21,Ticks_Linear_5,123,9999,9999,9999,914814076
1217,21,Ticks_Linear_5,124,9999,9999,9999,915533892
1217,21,Ticks_Linear_5,125,9999,9999,9999,916264044
1217,21,Ticks_Linear_5,126,9999,9999,9999,916993152
1217,21,Ticks_Linear_5,127,9999,9999,9999,917723228
1217,21,Ticks_Linear_5,128,9999,9999,9999,918453356
1217,21,Ticks_Linear_5,129,9999,9999,9999,919183432
1217,21,Ticks_Linear_5,130,9999,9999,9999,919923772
1217,21,Ticks_Linear_5,131,9999,9999,9999,920663144
1217,21,Ticks_Linear_5,132,9999,9999,9999,921403480
1217,21,Ticks_Linear_5,133,9999,9999,9999,922143820
1217,21,Ticks_Linear_5,134,9999,9999,9999,922883180
1217,21,Ticks_Linear_5,135,9999,9999,9999,923633776
1217,21,Ticks_Linear_5,136,9999,9999,9999,924383324
1217,21,Ticks_Linear_5,137,9999,9999,9999,925133916
1217,21,Ticks_Linear_5,138,9999,9999,9999,925883516
1217,21,Ticks_Linear_5,139,9999,9999,9999,926634040
1217,21,Ticks_Linear_5,140,9999,9999,9999,927393848
1217,21,Ticks_Linear_5,141,9999,9999,9999,928153716
1217,21,Ticks_Linear_5,142,9999,9999,9999,928913524
1217,21,Ticks_Linear_5,143,9999,9999,9999,929673332
1217,21,Ticks_Linear_5,144,9999,9999,9999,930433140
1217,21,Ticks_Linear_5,145,9999,9999,9999,931203132
1217,21,Ticks_Linear_5,146,9999,9999,9999,931973200
1217,21,Ticks_Linear_5,147,9999,9999,9999,932743272
1217,21,Ticks_Linear_5,148,9999,9999,9999,933513336
1217,21,Ticks_Linear_5,149,9999,9999,9999,934283328
1217,21,Ticks_Linear_5,150,9999,9999,9999,935063656
1217,21,Ticks_Linear_5,151,9999,9999,9999,935843928
1217,21,Ticks_Linear_5,152,9999,9999,9999,936623208
1217,21,Ticks_Linear_5,153,9999,9999,9999,937403460
1217,21,Ticks_Linear_5,154,9999,9999,9999,938183804
1217,21,Ticks_Linear_5,155,9999,9999,9999,938973256
1217,21,Ticks_Linear_5,156,9999,9999,9999,939763764
1217,21,Ticks_Linear_5,157,9999,9999,9999,940553308
1217,21,Ticks_Linear_5,158,9999,9999,9999,941343840
1217,21,Ticks_Linear_5,159,9999,9999,9999,942133304
1217,21,Ticks_Linear_5,160,9999,9999,9999,942934076
1217,21,Ticks_Linear_5,161,9999,9999,9999,943744056
1217,21,Ticks_Linear_5,162,9999,9999,9999,944554060
1217,21,Ticks_Linear_5,163,9999,9999,9999,945353804
1217,21,Ticks_Linear_5,164,9999,9999,9999,946153584
1217,21,Ticks_Linear_5,165,9999,9999,9999,946963568
1217,21,Ticks_Linear_5,166,9999,9999,9999,947773552
1217,21,Ticks_Linear_5,167,9999,9999,9999,948583532
1217,21,Ticks_Linear_5,168,9999,9999,9999,949393516
1217,21,Ticks_Linear_5,169,9999,9999,9999,950203496
1218,20,Ticks_Linear_8,0,5,42,127,961236536
1218,20,Ticks_Linear_8,1,5,42,127,962055604
1218,20,Ticks_Linear_8,2,5,42,127,962875720
1218,20,Ticks_Linear_8,3,1,48,18,963665384
1218,20,Ticks_Linear_8,4,5,42,127,963695900
1218,20,Ticks_Linear_8,5,1,48,20,964423012
1218,20,Ticks_Linear_8,6,5,42,127,964516440
1218,20,Ticks_Linear_8,7,1,48,21,965288568
1218,20,Ticks_Linear_8,8,5,42,127,965326300
1218,20,Ticks_Linear_8,9,1,48,15,966077512
1218,20,Ticks_Linear_8,10,5,42,127,966136356
1218,20,Ticks_Linear_8,11,5,42,127,966946196
1218,20,Ticks_Linear_8,12,1,48,17,966953580
1218,20,Ticks_Linear_8,13,5,42,127,967756332
1218,20,Ticks_Linear_8,14,1,48,20,967772028
1218,20,Ticks_Linear_8,15,5,42,127,968566316
1218,20,Ticks_Linear_8,16,1,48,16,968634364
1218,20,Ticks_Linear_8,17,5,42,127,969365892
1218,20,Ticks_Linear_8,18,1,48,20,969405404
1218,20,Ticks_Linear_8,19,5,42,127,970165688
1218,20,Ticks_Linear_8,20,1,48,18,970191372
1218,20,Ticks_Linear_8,21,5,42,127,970966336
1218,20,Ticks_Linear_8,22,1,48,23,971005628
1218,20,Ticks_Linear_8,23,1,48,13,971753196
1218,20,Ticks_Linear_8,24,5,42,127,971766128
1218,20,Ticks_Linear_8,25,1,48,14,972548808
1218,20,Ticks_Linear_8,26,5,42,127,972566148
1218,20,Ticks_Linear_8,27,1,48,21,973311908
1218,20,Ticks_Linear_8,28,5,42,127,973356292
1218,20,Ticks_Linear_8,29,1,48,20,974137404
1218,20,Ticks_Linear_8,30,5,42,127,974145976
1218,20,Ticks_Linear_8,31,1,48,19,974915184
1218,20,Ticks_Linear_8,32,5,42,127,974936416
1218,20,Ticks_Linear_8,33,1,48,21,975722312
1218,20,Ticks_Linear_8,34,5,42,127,975736288
1218,20,Ticks_Linear_8,35,1,48,29,976488344
1218,20,Ticks_Linear_8,36,5,42,127,976525680
1218,20,Ticks_Linear_8,37,1,48,14,977283284
1218,20,Ticks_Linear_8,38,5,42,127,977306008
1218,20,Ticks_Linear_8,39,1,48,27,977998156
1218,20,Ticks_Linear_8,40,5,42,127,978086332
1218,20,Ticks_Linear_8,41,1,48,19,978857040
1218,20,Ticks_Linear_8,42,5,42,127,978865540
1218,20,Ticks_Linear_8,43,1,48,28,979529972
1218,20,Ticks_Linear_8,44,5,42,127,979645776
1218,20,Ticks_Linear_8,45,1,48,23,980328800
1218,20,Ticks_Linear_8,46,5,42,127,980426056
1218,20,Ticks_Linear_8,47,5,42,127,981196220
1218,20,Ticks_Linear_8,48,1,48,27,981796244
1218,20,Ticks_Linear_8,49,5,42,127,981966212
1218,20,Ticks_Linear_8,50,1,48,27,982688904
1218,20,Ticks_Linear_8,51,5,42,127,982736220
1218,20,Ticks_Linear_8,52,1,48,15,983456720
1218,20,Ticks_Linear_8,53,5,42,127,983506216
1218,20,Ticks_Linear_8,54,1,48,24,984187700
1218,20,Ticks_Linear_8,55,5,42,127,984276284
1218,20,Ticks_Linear_8,56,1,48,24,984964216
1218,20,Ticks_Linear_8,57,5,42,127,985036168
1218,20,Ticks_Linear_8,58,1,48,22,985744016
1218,20,Ticks_Linear_8,59,5,42,127,985795976
1218,20,Ticks_Linear_8,60,1,48,20,986525464
1218,20,Ticks_Linear_8,61,5,42,127,986555908
1218,20,Ticks_Linear_8,62,1,48,22,987302268
1218,20,Ticks_Linear_8,63,5,42,127,987315644
1218,20,Ticks_Linear_8,64,1,48,21,988055644
1218,20,Ticks_Linear_8,65,5,42,127,988076276
1218,20,Ticks_Linear_8,66,1,48,23,988779128
1218,20,Ticks_Linear_8,67,5,42,127,988826124
1218,20,Ticks_Linear_8,68,1,48,23,989573712
1218,20,Ticks_Linear_8,69,5,42,127,989575376
1218,20,Ticks_Linear_8,70,5,42,127,990326052
1218,20,Ticks_Linear_8,71,1,48,24,990332092
1218,20,Ticks_Linear_8,72,5,42,127,991075824
1218,20,Ticks_Linear_8,73,1,48,21,991086816
1218,20,Ticks_Linear_8,74,1,48,19,991771856
1218,20,Ticks_Linear_8,75,5,42,127,991826340
1218,20,Ticks_Linear_8,76,1,48,29,992543116
1218,20,Ticks_Linear_8,77,5,42,127,992565704
1218,20,Ticks_Linear_8,78,1,48,17,993294700
1218,20,Ticks_Linear_8,79,5,42,127,993305968
1218,20,Ticks_Linear_8,80,5,42,127,994046312
1218,20,Ticks_Linear_8,81,1,48,18,994061184
1218,20,Ticks_Linear_8,82,1,48,21,994741716
1218,20,Ticks_Linear_8,83,5,42,127,994785892
1218,20,Ticks_Linear_8,84,1,48,23,995484684
1218,20,Ticks_Linear_8,85,5,42,127,995526156
1218,20,Ticks_Linear_8,86,1,48,25,996244792
1218,20,Ticks_Linear_8,87,5,42,127,996256132
1218,20,Ticks_Linear_8,88,1,48,27,996981224
1218,20,Ticks_Linear_8,89,5,42,127,996986136
1218,20,Ticks_Linear_8,90,1,48,23,997691232
1218,20,Ticks_Linear_8,91,5,42,127,997716436
1218,20,Ticks_Linear_8,92,1,48,19,998407836
1218,20,Ticks_Linear_8,93,5,42,127,998445544
1218,20,Ticks_Linear_8,94,5,42,127,999175408
1218,20,Ticks_Linear_8,95,1,48,20,999183308
1218,20,Ticks_Linear_8,96,5,42,127,999896648
1218,20,Ticks_Linear_8,97,1,48,19,999907184
1218,20,Ticks_Linear_8,98,5,42,127,1000625504
1218,20,Ticks_Linear_8,99,1,48,19,1000675976
1218,20,Ticks_Linear_8,100,1,48,24,1001341228
1218,20,Ticks_Linear_8,101,5,42,127,1001346440
1218,20,Ticks_Linear_8,102,1,48,24,1002075624
1218,20,Ticks_Linear_8,103,5,42,127,1002076888
1218,20,Ticks_Linear_8,104,1,48,23,1002777276
1218,20,Ticks_Linear_8,105,5,42,127,1002796264
1218,20,Ticks_Linear_8,106,5,42,127,1003506124
1218,20,Ticks_Linear_8,107,1,48,17,1003519284
1218,20,Ticks_Linear_8,108,1,48,24,1004215808
1218,20,Ticks_Linear_8,109,5,42,127,1004217076
1218,20,Ticks_Linear_8,110,1,48,29,1004885188
1218,20,Ticks_Linear_8,111,5,42,127,1004926260
1218,20,Ticks_Linear_8,112,5,42,127,1005635904
1218,20,Ticks_Linear_8,113,1,48,20,1005648164
1218,20,Ticks_Linear_8,114,1,48,22,1006328192
1218,20,Ticks_Linear_8,115,5,42,127,1006345608
1218,20,Ticks_Linear_8,116,1,48,19,1006999760
1218,20,Ticks_Linear_8,117,5,42,127,1007046104
1218,20,Ticks_Linear_8,118,5,42,127,1007746512
1218,20,Ticks_Linear_8,119,1,48,26,1007781080
1218,20,Ticks_Linear_8,120,5,42,127,1008456068
1218,20,Ticks_Linear_8,121,1,48,21,1008499400
1218,20,Ticks_Linear_8,122,5,42,127,1009155592
1218,20,Ticks_Linear_8,123,1,48,22,1009200944
1218,20,Ticks_Linear_8,124,5,42,127,1009855868
1218,20,Ticks_Linear_8,125,1,48,24,1009880480
1218,20,Ticks_Linear_8,126,5,42,127,1010546004
1218,20,Ticks_Linear_8,127,1,48,21,1010553832
1218,20,Ticks_Linear_8,128,1,48,18,1011229528
1218,20,Ticks_Linear_8,129,5,42,127,1011236312
1218,20,Ticks_Linear_8,130,1,48,27,1011880204
1218,20,Ticks_Linear_8,131,5,42,127,1011926552
1218,20,Ticks_Linear_8,132,1,48,18,1012594932
1218,20,Ticks_Linear_8,133,5,42,127,1012615788
1218,20,Ticks_Linear_8,134,1,48,22,1013289584
1218,20,Ticks_Linear_8,135,5,42,127,1013305656
1218,20,Ticks_Linear_8,136,1,48,18,1013964328
1218,20,Ticks_Linear_8,137,5,42,127,1013985708
1218,20,Ticks_Linear_8,138,5,42,127,1014665520
1218,20,Ticks_Linear_8,139,1,48,17,1014684368
1218,20,Ticks_Linear_8,140,1,48,25,1015294604
1218,20,Ticks_Linear_8,141,5,42,127,1015345492
1218,20,Ticks_Linear_8,142,5,42,127,1016025476
1218,20,Ticks_Linear_8,143,1,48,19,1016607004
1218,20,Ticks_Linear_8,144,5,42,127,1016706404
1218,20,Ticks_Linear_8,145,5,42,127,1017386328
1218,20,Ticks_Linear_8,146,1,48,14,1017444120
1218,20,Ticks_Linear_8,147,1,48,20,1018053928
1218,20,Ticks_Linear_8,148,5,42,127,1018055968
1218,20,Ticks_Linear_8,149,5,42,127,1018725816
1218,20,Ticks_Linear_8,150,1,48,17,1018766612
1218,20,Ticks_Linear_8,151,1,48,22,1019355724
1218,20,Ticks_Linear_8,152,5,42,127,1019395528
1218,20,Ticks_Linear_8,153,1,48,19,1020037328
1218,20,Ticks_Linear_8,154,5,42,127,1020066272
1218,20,Ticks_Linear_8,155,1,48,19,1020690264
1218,20,Ticks_Linear_8,156,5,42,127,1020725584
1218,20,Ticks_Linear_8,157,1,48,16,1021366412
1218,20,Ticks_Linear_8,158,5,42,127,1021386240
1218,20,Ticks_Linear_8,159,1,48,18,1022022336
1218,20,Ticks_Linear_8,160,5,42,127,1022045672
1218,20,Ticks_Linear_8,161,1,48,25,1022689136
1218,20,Ticks_Linear_8,162,5,42,127,1022705956
1218,20,Ticks_Linear_8,163,1,48,24,1023316600
1218,20,Ticks_Linear_8,164,5,42,127,1023365544
1218,20,Ticks_Linear_8,165,5,42,127,1024015724
1218,20,Ticks_Linear_8,166,1,48,16,1024094032
1218,20,Ticks_Linear_8,167,5,42,127,1024665944
1218,20,Ticks_Linear_8,168,1,48,25,1024698648
1218,20,Ticks_Linear_8,169,5,42,127,1025316192
1218,20,Ticks_Linear_8,170,1,48,24,1025323144
1218,20,Ticks_Linear_8,171,5,42,127,1025965444
1218,20,Ticks_Linear_8,172,1,48,27,1026578596
1218,20,Ticks_Linear_8,173,5,42,127,1026615556
1218,20,Ticks_Linear_8,174,5,42,127,1027255676
1218,20,Ticks_Linear_8,175,1,48,21,1027307500
1218,20,Ticks_Linear_8,176,5,42,127,1027895740
1218,20,Ticks_Linear_8,177,1,48,19,1027908296
1218,20,Ticks_Linear_8,178,5,42,127,1028535556
1218,20,Ticks_Linear_8,179,1,48,23,1028558620
1218,20,Ticks_Linear_8,180,1,48,24,1029152496
1218,20,Ticks_Linear_8,181,5,42,127,1029175612
1218,20,Ticks_Linear_8,182,1,48,23,1029811860
1218,20,Ticks_Linear_8,183,5,42,127,1029815652
1218,20,Ticks_Linear_8,184,1,48,21,1030425724
1218,20,Ticks_Linear_8,185,5,42,127,1030445380
1218,20,Ticks_Linear_8,186,1,48,20,1031030860
1218,20,Ticks_Linear_8,187,5,42,127,1031076208
1218,20,Ticks_Linear_8,188,5,42,127,1031705944
1218,20,Ticks_Linear_8,189,1,48,20,1031727036
1218,20,Ticks_Linear_8,190,1,48,25,1032329832
1218,20,Ticks_Linear_8,191,5,42,127,1032335716
1218,20,Ticks_Linear_8,192,5,42,127,1032965380
1218,20,Ticks_Linear_8,193,1,48,19,1032992308
1218,20,Ticks_Linear_8,194,5,42,127,1033586096
1218,20,Ticks_Linear_8,195,1,48,25,1033636176
1218,20,Ticks_Linear_8,196,5,42,127,1034205640
1218,20,Ticks_Linear_8,197,1,48,23,1034264784
1218,20,Ticks_Linear_8,198,5,42,127,1034826060
1218,20,Ticks_Linear_8,199,1,48,20,1034846560
1218,20,Ticks_Linear_8,200,5,42,127,1035445504
1218,20,Ticks_Linear_8,201,1,48,20,1035454648
1218,20,Ticks_Linear_8,202,1,48,19,1036045904
1218,20,Ticks_Linear_8,203,5,42,127,1036066312
1218,20,Ticks_Linear_8,204,5,42,127,1036675580
1218,20,Ticks_Linear_8,205,1,48,19,1036704024
1218,20,Ticks_Linear_8,206,1,48,21,1037273224
1218,20,Ticks_Linear_8,207,5,42,127,1037285612
1218,20,Ticks_Linear_8,208,1,48,24,1037853108
1218,20,Ticks_Linear_8,209,5,42,127,1037895992
1218,20,Ticks_Linear_8,210,1,48,19,1038468964
1218,20,Ticks_Linear_8,211,5,42,127,1038506300
1218,20,Ticks_Linear_8,212,1,48,16,1039093444
1218,20,Ticks_Linear_8,213,5,42,127,1039115512
1218,20,Ticks_Linear_8,214,1,48,19,1039695228
1218,20,Ticks_Linear_8,215,5,42,127,1039715784
1218,20,Ticks_Linear_8,216,5,42,127,1040316236
1218,20,Ticks_Linear_8,217,1,48,18,1040317880
1218,20,Ticks_Linear_8,218,1,48,20,1040903208
1218,20,Ticks_Linear_8,219,5,42,127,1040915836
1218,20,Ticks_Linear_8,220,1,48,20,1041480416
1218,20,Ticks_Linear_8,221,5,42,127,1041516180
1218,20,Ticks_Linear_8,222,5,42,127,1042116040
1218,20,Ticks_Linear_8,223,1,48,25,1042674428
1218,20,Ticks_Linear_8,224,5,42,127,1042705992
1218,20,Ticks_Linear_8,225,1,48,26,1043280536
1218,20,Ticks_Linear_8,226,5,42,127,1043295560
1218,20,Ticks_Linear_8,227,5,42,127,1043885356
1218,20,Ticks_Linear_8,228,1,48,21,1043886324
1218,20,Ticks_Linear_8,229,1,48,24,1044454084
1218,20,Ticks_Linear_8,230,5,42,127,1044476140
1218,20,Ticks_Linear_8,231,1,48,19,1045057500
1218,20,Ticks_Linear_8,232,5,42,127,1045066152
1218,20,Ticks_Linear_8,233,1,48,20,1045628196
1218,20,Ticks_Linear_8,234,5,42,127,1045645980
1218,20,Ticks_Linear_8,235,1,48,16,1046195140
1218,20,Ticks_Linear_8,236,5,42,127,1046226208
1218,20,Ticks_Linear_8,237,1,48,21,1046753732
1218,20,Ticks_Linear_8,238,5,42,127,1046805964
1218,20,Ticks_Linear_8,239,1,48,19,1047299852
1218,20,Ticks_Linear_8,240,5,42,127,1047385420
1218,20,Ticks_Linear_8,241,1,48,18,1047936304
1218,20,Ticks_Linear_8,242,5,42,127,1047966148
1218,20,Ticks_Linear_8,243,1,48,18,1048517956
1218,20,Ticks_Linear_8,244,5,42,127,1048536344
1218,20,Ticks_Linear_8,245,1,48,17,1049095612
1218,20,Ticks_Linear_8,246,5,42,127,1049116020
1218,20,Ticks_Linear_8,247,1,48,19,1049661428
1218,20,Ticks_Linear_8,248,5,42,127,1049686492
1218,20,Ticks_Linear_8,249,1,48,18,1050234680
1218,20,Ticks_Linear_8,250,5,42,127,1050255688
1218,20,Ticks_Linear_8,251,1,48,19,1050804476
1218,20,Ticks_Linear_8,252,5,42,127,1050826032
1218,20,Ticks_Linear_8,253,1,48,19,1051369344
1218,20,Ticks_Linear_8,254,5,42,127,1051386088
1218,20,Ticks_Linear_8,255,1,48,17,1051929328
1218,20,Ticks_Linear_8,256,5,42,127,1051946372
1218,20,Ticks_Linear_8,257,1,48,18,1052484600
1218,20,Ticks_Linear_8,258,5,42,127,1052505608
1218,20,Ticks_Linear_8,259,1,48,14,1053064924
1218,20,Ticks_Linear_8,260,5,42,127,1053066492
1218,20,Ticks_Linear_8,261,5,42,127,1053625808
1218,20,Ticks_Linear_8,262,1,48,20,1053636896
1218,20,Ticks_Linear_8,263,5,42,127,1054175560
1218,20,Ticks_Linear_8,264,1,48,18,1054191104
1218,20,Ticks_Linear_8,265,1,48,19,1054722004
1218,20,Ticks_Linear_8,266,5,42,127,1054725424
1218,20,Ticks_Linear_8,267,1,48,20,1055245460
1218,20,Ticks_Linear_8,268,5,42,127,1055276424
1218,20,Ticks_Linear_8,269,1,48,17,1055757960
1218,20,Ticks_Linear_8,270,5,42,127,1055826148
1218,20,Ticks_Linear_8,271,1,48,20,1056330744
1218,20,Ticks_Linear_8,272,5,42,127,1056376100
1218,20,Ticks_Linear_8,273,1,48,17,1056894852
1218,20,Ticks_Linear_8,274,5,42,127,1056915936
1218,20,Ticks_Linear_8,275,1,48,19,1057410724
1218,20,Ticks_Linear_8,276,5,42,127,1057455404
1218,20,Ticks_Linear_8,277,1,48,14,1057969440
1218,20,Ticks_Linear_8,278,5,42,127,1057996092
1218,20,Ticks_Linear_8,279,1,48,18,1058482160
1218,20,Ticks_Linear_8,280,5,42,127,1058535852
1218,20,Ticks_Linear_8,281,1,48,15,1059028176
1218,20,Ticks_Linear_8,282,5,42,127,1059075620
1218,20,Ticks_Linear_8,283,1,48,21,1059584272
1218,20,Ticks_Linear_8,284,5,42,127,1059605800
1218,20,Ticks_Linear_8,285,1,48,15,1060098940
1218,20,Ticks_Linear_8,286,5,42,127,1060136424
1218,20,Ticks_Linear_8,287,1,48,19,1060635488
1218,20,Ticks_Linear_8,288,5,42,127,1060665932
1218,20,Ticks_Linear_8,289,1,48,16,1061132036
1218,20,Ticks_Linear_8,290,5,42,127,1061196112
1218,20,Ticks_Linear_8,291,1,48,18,1061671132
1218,20,Ticks_Linear_8,292,5,42,127,1061725844
1218,20,Ticks_Linear_8,293,1,48,17,1062198768
1218,20,Ticks_Linear_8,294,5,42,127,1062245764
1218,20,Ticks_Linear_8,295,1,48,16,1062747596
1218,20,Ticks_Linear_8,296,5,42,127,1062765908
1218,20,Ticks_Linear_8,297,1,48,15,1063244228
1218,20,Ticks_Linear_8,298,5,42,127,1063286052
1218,20,Ticks_Linear_8,299,1,48,18,1063746848
1218,20,Ticks_Linear_8,300,5,42,127,1063806196
1218,20,Ticks_Linear_8,301,1,48,16,1064298216
1218,20,Ticks_Linear_8,302,5,42,127,1064325592
1218,20,Ticks_Linear_8,303,1,48,16,1064829816
1218,20,Ticks_Linear_8,304,5,42,127,1064835552
1218,20,Ticks_Linear_8,305,1,48,15,1065323520
1218,20,Ticks_Linear_8,306,5,42,127,1065346636
1218,20,Ticks_Linear_8,307,1,48,14,1065857452
1218,20,Ticks_Linear_8,308,5,42,127,1065865804
1218,20,Ticks_Linear_8,309,1,48,18,1066336336
1218,20,Ticks_Linear_8,310,5,42,127,1066375540
1218,20,Ticks_Linear_8,311,1,48,14,1066851756
1218,20,Ticks_Linear_8,312,5,42,127,1066885428
1218,20,Ticks_Linear_8,313,1,48,17,1067373468
1218,20,Ticks_Linear_8,314,5,42,127,1067386248
1218,20,Ticks_Linear_8,315,1,48,13,1067859772
1218,20,Ticks_Linear_8,316,5,42,127,1067885952
1218,20,Ticks_Linear_8,317,1,48,17,1068372052
1218,20,Ticks_Linear_8,318,5,42,127,1068385576
1218,20,Ticks_Linear_8,319,1,48,13,1068858648
1218,20,Ticks_Linear_8,320,5,42,127,1068886548
1218,20,Ticks_Linear_8,321,5,42,127,1069386032
1218,20,Ticks_Linear_8,322,5,42,127,1069875492
1218,20,Ticks_Linear_8,323,1,48,20,1069876460
1218,20,Ticks_Linear_8,324,5,42,127,1070366056
1218,20,Ticks_Linear_8,325,1,48,17,1070399128
1218,20,Ticks_Linear_8,326,1,48,17,1070845268
1218,20,Ticks_Linear_8,327,5,42,127,1070855716
1218,20,Ticks_Linear_8,328,1,48,18,1071285104
1218,20,Ticks_Linear_8,329,5,42,127,1071345980
1218,20,Ticks_Linear_8,330,1,48,19,1071780680
1218,20,Ticks_Linear_8,331,5,42,127,1071835644
1218,20,Ticks_Linear_8,0,9999,9999,9999,961234012
1218,20,Ticks_Linear_8,1,9999,9999,9999,962053228
1218,20,Ticks_Linear_8,2,9999,9999,9999,962873420
1218,20,Ticks_Linear_8,3,9999,9999,9999,963693676
1218,20,Ticks_Linear_8,4,9999,9999,9999,964513920
1218,20,Ticks_Linear_8,5,9999,9999,9999,965323852
1218,20,Ticks_Linear_8,6,9999,9999,9999,966133836
1218,20,Ticks_Linear_8,7,9999,9999,9999,966943824
1218,20,Ticks_Linear_8,8,9999,9999,9999,967753808
1218,20,Ticks_Linear_8,9,9999,9999,9999,968563792
1218,20,Ticks_Linear_8,10,9999,9999,9999,969363516
1218,20,Ticks_Linear_8,11,9999,9999,9999,970163312
1218,20,Ticks_Linear_8,12,9999,9999,9999,970964036
1218,20,Ticks_Linear_8,13,9999,9999,9999,971763828
1218,20,Ticks_Linear_8,14,9999,9999,9999,972563552
1218,20,Ticks_Linear_8,15,9999,9999,9999,973354064
1218,20,Ticks_Linear_8,16,9999,9999,9999,974143604
1218,20,Ticks_Linear_8,17,9999,9999,9999,974934116
1218,20,Ticks_Linear_8,18,9999,9999,9999,975733840
1218,20,Ticks_Linear_8,19,9999,9999,9999,976523380
1218,20,Ticks_Linear_8,20,9999,9999,9999,977303636
1218,20,Ticks_Linear_8,21,9999,9999,9999,978083960
1218,20,Ticks_Linear_8,22,9999,9999,9999,978863168
1218,20,Ticks_Linear_8,23,9999,9999,9999,979643476
1218,20,Ticks_Linear_8,24,9999,9999,9999,980423808
1218,20,Ticks_Linear_8,25,9999,9999,9999,981193844
1218,20,Ticks_Linear_8,26,9999,9999,9999,981963840
1218,20,Ticks_Linear_8,27,9999,9999,9999,982733924
1218,20,Ticks_Linear_8,28,9999,9999,9999,983503992
1218,20,Ticks_Linear_8,29,9999,9999,9999,984273984
1218,20,Ticks_Linear_8,30,9999,9999,9999,985033792
1218,20,Ticks_Linear_8,31,9999,9999,9999,985793604
1218,20,Ticks_Linear_8,32,9999,9999,9999,986553460
1218,20,Ticks_Linear_8,33,9999,9999,9999,987313268
1218,20,Ticks_Linear_8,34,9999,9999,9999,988074048
1218,20,Ticks_Linear_8,35,9999,9999,9999,988823676
1218,20,Ticks_Linear_8,36,9999,9999,9999,989573176
1218,20,Ticks_Linear_8,37,9999,9999,9999,990323828
1218,20,Ticks_Linear_8,38,9999,9999,9999,991073376
1218,20,Ticks_Linear_8,39,9999,9999,9999,991823968
1218,20,Ticks_Linear_8,40,9999,9999,9999,992563260
1218,20,Ticks_Linear_8,41,9999,9999,9999,993303672
1218,20,Ticks_Linear_8,42,9999,9999,9999,994044012
1218,20,Ticks_Linear_8,43,9999,9999,9999,994783296
1218,20,Ticks_Linear_8,44,9999,9999,9999,995523708
1218,20,Ticks_Linear_8,45,9999,9999,9999,996253760
1218,20,Ticks_Linear_8,46,9999,9999,9999,996983912
1218,20,Ticks_Linear_8,47,9999,9999,9999,997713992
1218,20,Ticks_Linear_8,48,9999,9999,9999,998443096
1218,20,Ticks_Linear_8,49,9999,9999,9999,999173180
1218,20,Ticks_Linear_8,50,9999,9999,9999,999894124
1218,20,Ticks_Linear_8,51,9999,9999,9999,1000623204
1218,20,Ticks_Linear_8,52,9999,9999,9999,1001344064
1218,20,Ticks_Linear_8,53,9999,9999,9999,1002073176
1218,20,Ticks_Linear_8,54,9999,9999,9999,1002794036
1218,20,Ticks_Linear_8,55,9999,9999,9999,1003503676
1218,20,Ticks_Linear_8,56,9999,9999,9999,1004213360
1218,20,Ticks_Linear_8,57,9999,9999,9999,1004923964
1218,20,Ticks_Linear_8,58,9999,9999,9999,1005633604
1218,20,Ticks_Linear_8,59,9999,9999,9999,1006343232
1218,20,Ticks_Linear_8,60,9999,9999,9999,1007043656
1218,20,Ticks_Linear_8,61,9999,9999,9999,1007744060
1218,20,Ticks_Linear_8,62,9999,9999,9999,1008453692
1218,20,Ticks_Linear_8,63,9999,9999,9999,1009153144
1218,20,Ticks_Linear_8,64,9999,9999,9999,1009853568
1218,20,Ticks_Linear_8,65,9999,9999,9999,1010543708
1218,20,Ticks_Linear_8,66,9999,9999,9999,1011233864
1218,20,Ticks_Linear_8,67,9999,9999,9999,1011924024
1218,20,Ticks_Linear_8,68,9999,9999,9999,1012613192
1218,20,Ticks_Linear_8,69,9999,9999,9999,1013303356
1218,20,Ticks_Linear_8,70,9999,9999,9999,1013983336
1218,20,Ticks_Linear_8,71,9999,9999,9999,1014663292
1218,20,Ticks_Linear_8,72,9999,9999,9999,1015343192
1218,20,Ticks_Linear_8,73,9999,9999,9999,1016023104
1218,20,Ticks_Linear_8,74,9999,9999,9999,1016704100
1218,20,Ticks_Linear_8,75,9999,9999,9999,1017384028
1218,20,Ticks_Linear_8,76,9999,9999,9999,1018053708
1218,20,Ticks_Linear_8,77,9999,9999,9999,1018723444
1218,20,Ticks_Linear_8,78,9999,9999,9999,1019393080
1218,20,Ticks_Linear_8,79,9999,9999,9999,1020063824
1218,20,Ticks_Linear_8,80,9999,9999,9999,1020723284
1218,20,Ticks_Linear_8,81,9999,9999,9999,1021383792
1218,20,Ticks_Linear_8,82,9999,9999,9999,1022043228
1218,20,Ticks_Linear_8,83,9999,9999,9999,1022703732
1218,20,Ticks_Linear_8,84,9999,9999,9999,1023363168
1218,20,Ticks_Linear_8,85,9999,9999,9999,1024013424
1218,20,Ticks_Linear_8,86,9999,9999,9999,1024663648
1218,20,Ticks_Linear_8,87,9999,9999,9999,1025313896
1218,20,Ticks_Linear_8,88,9999,9999,9999,1025963068
1218,20,Ticks_Linear_8,89,9999,9999,9999,1026613332
1218,20,Ticks_Linear_8,90,9999,9999,9999,1027253304
1218,20,Ticks_Linear_8,91,9999,9999,9999,1027893368
1218,20,Ticks_Linear_8,92,9999,9999,9999,1028533332
1218,20,Ticks_Linear_8,93,9999,9999,9999,1029173312
1218,20,Ticks_Linear_8,94,9999,9999,9999,1029813352
1218,20,Ticks_Linear_8,95,9999,9999,9999,1030443084
1218,20,Ticks_Linear_8,96,9999,9999,9999,1031073908
1218,20,Ticks_Linear_8,97,9999,9999,9999,1031703644
1218,20,Ticks_Linear_8,98,9999,9999,9999,1032333420
1218,20,Ticks_Linear_8,99,9999,9999,9999,1032963156
1218,20,Ticks_Linear_8,100,9999,9999,9999,1033583724
1218,20,Ticks_Linear_8,101,9999,9999,9999,1034203192
1218,20,Ticks_Linear_8,102,9999,9999,9999,1034823760
1218,20,Ticks_Linear_8,103,9999,9999,9999,1035443280
1218,20,Ticks_Linear_8,104,9999,9999,9999,1036063864
1218,20,Ticks_Linear_8,105,9999,9999,9999,1036673136
1218,20,Ticks_Linear_8,106,9999,9999,9999,1037283388
1218,20,Ticks_Linear_8,107,9999,9999,9999,1037893696
1218,20,Ticks_Linear_8,108,9999,9999,9999,1038504004
1218,20,Ticks_Linear_8,109,9999,9999,9999,1039113288
1218,20,Ticks_Linear_8,110,9999,9999,9999,1039713340
1218,20,Ticks_Linear_8,111,9999,9999,9999,1040313468
1218,20,Ticks_Linear_8,112,9999,9999,9999,1040913460
1218,20,Ticks_Linear_8,113,9999,9999,9999,1041513584
1218,20,Ticks_Linear_8,114,9999,9999,9999,1042113592
1218,20,Ticks_Linear_8,115,9999,9999,9999,1042703472
1218,20,Ticks_Linear_8,116,9999,9999,9999,1043293260
1218,20,Ticks_Linear_8,117,9999,9999,9999,1043883132
1218,20,Ticks_Linear_8,118,9999,9999,9999,1044473916
1218,20,Ticks_Linear_8,119,9999,9999,9999,1045063780
1218,20,Ticks_Linear_8,120,9999,9999,9999,1045643384
1218,20,Ticks_Linear_8,121,9999,9999,9999,1046223984
1218,20,Ticks_Linear_8,122,9999,9999,9999,1046803516
1218,20,Ticks_Linear_8,123,9999,9999,9999,1047383120
1218,20,Ticks_Linear_8,124,9999,9999,9999,1047963772
1218,20,Ticks_Linear_8,125,9999,9999,9999,1048534116
1218,20,Ticks_Linear_8,126,9999,9999,9999,1049113720
1218,20,Ticks_Linear_8,127,9999,9999,9999,1049684040
1218,20,Ticks_Linear_8,128,9999,9999,9999,1050253388
1218,20,Ticks_Linear_8,129,9999,9999,9999,1050823804
1218,20,Ticks_Linear_8,130,9999,9999,9999,1051383864
1218,20,Ticks_Linear_8,131,9999,9999,9999,1051944000
1218,20,Ticks_Linear_8,132,9999,9999,9999,1052503160
1218,20,Ticks_Linear_8,133,9999,9999,9999,1053063224
1218,20,Ticks_Linear_8,134,9999,9999,9999,1053623360
1218,20,Ticks_Linear_8,135,9999,9999,9999,1054173260
1218,20,Ticks_Linear_8,136,9999,9999,9999,1054723128
1218,20,Ticks_Linear_8,137,9999,9999,9999,1055274052
1218,20,Ticks_Linear_8,138,9999,9999,9999,1055823924
1218,20,Ticks_Linear_8,139,9999,9999,9999,1056373872
1218,20,Ticks_Linear_8,140,9999,9999,9999,1056913488
1218,20,Ticks_Linear_8,141,9999,9999,9999,1057453180
1218,20,Ticks_Linear_8,142,9999,9999,9999,1057993792
1218,20,Ticks_Linear_8,143,9999,9999,9999,1058533480
1218,20,Ticks_Linear_8,144,9999,9999,9999,1059073096
1218,20,Ticks_Linear_8,145,9999,9999,9999,1059603576
1218,20,Ticks_Linear_8,146,9999,9999,9999,1060133976
1218,20,Ticks_Linear_8,147,9999,9999,9999,1060663412
1218,20,Ticks_Linear_8,148,9999,9999,9999,1061193816
1218,20,Ticks_Linear_8,149,9999,9999,9999,1061723244
1218,20,Ticks_Linear_8,150,9999,9999,9999,1062243392
1218,20,Ticks_Linear_8,151,9999,9999,9999,1062763608
1218,20,Ticks_Linear_8,152,9999,9999,9999,1063283828
1218,20,Ticks_Linear_8,153,9999,9999,9999,1063803972
1218,20,Ticks_Linear_8,154,9999,9999,9999,1064323144
1218,20,Ticks_Linear_8,155,9999,9999,9999,1064833104
1218,20,Ticks_Linear_8,156,9999,9999,9999,1065344112
1218,20,Ticks_Linear_8,157,9999,9999,9999,1065863284
1218,20,Ticks_Linear_8,158,9999,9999,9999,1066373244
1218,20,Ticks_Linear_8,159,9999,9999,9999,1066883128
1218,20,Ticks_Linear_8,160,9999,9999,9999,1067383876
1218,20,Ticks_Linear_8,161,9999,9999,9999,1067883576
1218,20,Ticks_Linear_8,162,9999,9999,9999,1068383352
1218,20,Ticks_Linear_8,163,9999,9999,9999,1068884024
1218,20,Ticks_Linear_8,164,9999,9999,9999,1069383804
1218,20,Ticks_Linear_8,165,9999,9999,9999,1069873268
1218,20,Ticks_Linear_8,166,9999,9999,9999,1070363756
1218,20,Ticks_Linear_8,167,9999,9999,9999,1070853192
1218,20,Ticks_Linear_8,168,9999,9999,9999,1071343680
1218,20,Ticks_Linear_8,169,9999,9999,9999,1071833196
1219,10,Ticks_ISO_T2_5,0,5,42,127,1081459232
1219,10,Ticks_ISO_T2_5,1,5,42,127,1081958724
1219,10,Ticks_ISO_T2_5,2,5,42,127,1082458440
1219,10,Ticks_ISO_T2_5,3,5,42,127,1082959204
1219,10,Ticks_ISO_T2_5,4,5,42,127,1083458848
1219,10,Ticks_ISO_T2_5,5,5,42,127,1083958564
1219,10,Ticks_ISO_T2_5,6,1,48,20,1084413584
1219,10,Ticks_ISO_T2_5,7,5,42,127,1084459320
1219,10,Ticks_ISO_T2_5,8,1,48,22,1084898992
1219,10,Ticks_ISO_T2_5,9,5,42,127,1084958940
1219,10,Ticks_ISO_T2_5,10,1,48,24,1085380360
1219,10,Ticks_ISO_T2_5,11,5,42,127,1085458860
1219,10,Ticks_ISO_T2_5,12,1,48,21,1085867468
1219,10,Ticks_ISO_T2_5,13,5,42,127,1085958480
1219,10,Ticks_ISO_T2_5,14,1,48,21,1086390648
1219,10,Ticks_ISO_T2_5,15,5,42,127,1086459220
1219,10,Ticks_ISO_T2_5,16,1,48,21,1086876728
1219,10,Ticks_ISO_T2_5,17,5,42,127,1086959064
1219,10,Ticks_ISO_T2_5,18,1,48,19,1087369992
1219,10,Ticks_ISO_T2_5,19,5,42,127,1087458540
1219,10,Ticks_ISO_T2_5,20,1,48,19,1087877468
1219,10,Ticks_ISO_T2_5,21,5,42,127,1087959352
1219,10,Ticks_ISO_T2_5,22,1,48,20,1088397656
1219,10,Ticks_ISO_T2_5,23,5,42,127,1088459272
1219,10,Ticks_ISO_T2_5,24,1,48,20,1088881044
1219,10,Ticks_ISO_T2_5,25,5,42,127,1088959040
1219,10,Ticks_ISO_T2_5,26,1,48,20,1089377672
1219,10,Ticks_ISO_T2_5,27,5,42,127,1089458488
1219,10,Ticks_ISO_T2_5,28,1,48,19,1089891724
1219,10,Ticks_ISO_T2_5,29,5,42,127,1089959152
1219,10,Ticks_ISO_T2_5,30,1,48,20,1090367408
1219,10,Ticks_ISO_T2_5,31,5,42,127,1090458920
1219,10,Ticks_ISO_T2_5,32,1,48,23,1090891560
1219,10,Ticks_ISO_T2_5,33,5,42,127,1090958692
1219,10,Ticks_ISO_T2_5,34,1,48,19,1091394848
1219,10,Ticks_ISO_T2_5,35,5,42,127,1091458388
1219,10,Ticks_ISO_T2_5,36,1,48,18,1091890128
1219,10,Ticks_ISO_T2_5,37,5,42,127,1091959204
1219,10,Ticks_ISO_T2_5,38,1,48,17,1092400300
1219,10,Ticks_ISO_T2_5,39,5,42,127,1092459044
1219,10,Ticks_ISO_T2_5,40,1,48,19,1092911732
1219,10,Ticks_ISO_T2_5,41,5,42,127,1092958668
1219,10,Ticks_ISO_T2_5,42,1,48,19,1093398116
1219,10,Ticks_ISO_T2_5,43,5,42,127,1093459260
1219,10,Ticks_ISO_T2_5,44,1,48,18,1093907008
1219,10,Ticks_ISO_T2_5,45,5,42,127,1093959104
1219,10,Ticks_ISO_T2_5,46,1,48,13,1094385236
1219,10,Ticks_ISO_T2_5,47,5,42,127,1094459020
1219,10,Ticks_ISO_T2_5,48,1,48,13,1094951056
1219,10,Ticks_ISO_T2_5,49,5,42,127,1094958416
1219,10,Ticks_ISO_T2_5,50,1,48,19,1095455084
1219,10,Ticks_ISO_T2_5,51,5,42,127,1095459232
1219,10,Ticks_ISO_T2_5,52,1,48,17,1095932116
1219,10,Ticks_ISO_T2_5,53,5,42,127,1095959152
1219,10,Ticks_ISO_T2_5,54,1,48,19,1096436828
1219,10,Ticks_ISO_T2_5,55,5,42,127,1096458628
1219,10,Ticks_ISO_T2_5,56,1,48,20,1096916324
1219,10,Ticks_ISO_T2_5,57,5,42,127,1096959292
1219,10,Ticks_ISO_T2_5,58,1,48,18,1097429560
1219,10,Ticks_ISO_T2_5,59,5,42,127,1097459064
1219,10,Ticks_ISO_T2_5,60,1,48,17,1097927532
1219,10,Ticks_ISO_T2_5,61,5,42,127,1097958684
1219,10,Ticks_ISO_T2_5,62,1,48,17,1098440464
1219,10,Ticks_ISO_T2_5,63,5,42,127,1098458604
1219,10,Ticks_ISO_T2_5,64,1,48,19,1098934676
1219,10,Ticks_ISO_T2_5,65,5,42,127,1098959268
1219,10,Ticks_ISO_T2_5,66,5,42,127,1099459044
1219,10,Ticks_ISO_T2_5,67,5,42,127,1099958588
1219,10,Ticks_ISO_T2_5,68,1,48,20,1099964996
1219,10,Ticks_ISO_T2_5,69,5,42,127,1100459304
1219,10,Ticks_ISO_T2_5,70,1,48,23,1100465192
1219,10,Ticks_ISO_T2_5,71,1,48,19,1100942872
1219,10,Ticks_ISO_T2_5,72,5,42,127,1100959064
1219,10,Ticks_ISO_T2_5,73,1,48,20,1101403528
1219,10,Ticks_ISO_T2_5,74,5,42,127,1101459056
1219,10,Ticks_ISO_T2_5,75,1,48,17,1101912792
1219,10,Ticks_ISO_T2_5,76,5,42,127,1101958456
1219,10,Ticks_ISO_T2_5,77,1,48,19,1102411512
1219,10,Ticks_ISO_T2_5,78,5,42,127,1102459272
1219,10,Ticks_ISO_T2_5,79,1,48,27,1102901416
1219,10,Ticks_ISO_T2_5,80,5,42,127,1102959116
1219,10,Ticks_ISO_T2_5,81,1,48,18,1103448676
1219,10,Ticks_ISO_T2_5,82,5,42,127,1103458956
1219,10,Ticks_ISO_T2_5,83,1,48,19,1103913216
1219,10,Ticks_ISO_T2_5,84,5,42,127,1103959400
1219,10,Ticks_ISO_T2_5,85,1,48,20,1104422780
1219,10,Ticks_ISO_T2_5,86,5,42,127,1104459096
1219,10,Ticks_ISO_T2_5,87,1,48,19,1104909016
1219,10,Ticks_ISO_T2_5,88,5,42,127,1104959088
1219,10,Ticks_ISO_T2_5,89,1,48,18,1105411108
1219,10,Ticks_ISO_T2_5,90,5,42,127,1105458484
1219,10,Ticks_ISO_T2_5,91,1,48,19,1105944304
1219,10,Ticks_ISO_T2_5,92,5,42,127,1105959224
1219,10,Ticks_ISO_T2_5,93,1,48,20,1106416400
1219,10,Ticks_ISO_T2_5,94,5,42,127,1106459144
1219,10,Ticks_ISO_T2_5,95,1,48,17,1106918792
1219,10,Ticks_ISO_T2_5,96,5,42,127,1106958988
1219,10,Ticks_ISO_T2_5,97,1,48,18,1107410552
1219,10,Ticks_ISO_T2_5,98,5,42,127,1107458460
1219,10,Ticks_ISO_T2_5,99,1,48,18,1107940020
1219,10,Ticks_ISO_T2_5,100,5,42,127,1107959128
1219,10,Ticks_ISO_T2_5,101,1,48,17,1108429392
1219,10,Ticks_ISO_T2_5,102,5,42,127,1108459120
1219,10,Ticks_ISO_T2_5,103,1,48,18,1108947712
1219,10,Ticks_ISO_T2_5,104,5,42,127,1108958664
1219,10,Ticks_ISO_T2_5,105,1,48,15,1109409984
1219,10,Ticks_ISO_T2_5,106,5,42,127,1109459184
1219,10,Ticks_ISO_T2_5,107,1,48,22,1109919324
1219,10,Ticks_ISO_T2_5,108,5,42,127,1109958952
1219,10,Ticks_ISO_T2_5,109,1,48,17,1110388352
1219,10,Ticks_ISO_T2_5,110,5,42,127,1110458944
1219,10,Ticks_ISO_T2_5,111,1,48,18,1110885728
1219,10,Ticks_ISO_T2_5,112,5,42,127,1110958316
1219,10,Ticks_ISO_T2_5,113,1,48,18,1111379808
1219,10,Ticks_ISO_T2_5,114,5,42,127,1111459208
1219,10,Ticks_ISO_T2_5,115,1,48,18,1111947648
1219,10,Ticks_ISO_T2_5,116,5,42,127,1111958976
1219,10,Ticks_ISO_T2_5,117,1,48,19,1112436196
1219,10,Ticks_ISO_T2_5,118,5,42,127,1112458820
1219,10,Ticks_ISO_T2_5,119,1,48,18,1112910016
1219,10,Ticks_ISO_T2_5,120,5,42,127,1112959192
1219,10,Ticks_ISO_T2_5,121,1,48,20,1113386892
1219,10,Ticks_ISO_T2_5,122,5,42,127,1113459112
1219,10,Ticks_ISO_T2_5,123,1,48,19,1113875524
1219,10,Ticks_ISO_T2_5,124,5,42,127,1113959104
1219,10,Ticks_ISO_T2_5,125,1,48,19,1114408652
1219,10,Ticks_ISO_T2_5,126,5,42,127,1114458352
1219,10,Ticks_ISO_T2_5,127,1,48,18,1114901388
1219,10,Ticks_ISO_T2_5,128,5,42,127,1114959320
1219,10,Ticks_ISO_T2_5,129,1,48,16,1115398840
1219,10,Ticks_ISO_T2_5,130,5,42,127,1115459088
1219,10,Ticks_ISO_T2_5,131,1,48,19,1115894124
1219,10,Ticks_ISO_T2_5,132,5,42,127,1115958856
1219,10,Ticks_ISO_T2_5,133,1,48,20,1116421044
1219,10,Ticks_ISO_T2_5,134,5,42,127,1116459528
1219,10,Ticks_ISO_T2_5,135,1,48,18,1116923956
1219,10,Ticks_ISO_T2_5,136,5,42,127,1116959148
1219,10,Ticks_ISO_T2_5,137,1,48,19,1117400836
1219,10,Ticks_ISO_T2_5,138,5,42,127,1117458916
1219,10,Ticks_ISO_T2_5,139,1,48,17,1117915940
1219,10,Ticks_ISO_T2_5,140,5,42,127,1117958608
1219,10,Ticks_ISO_T2_5,141,1,48,19,1118383376
1219,10,Ticks_ISO_T2_5,142,5,42,127,1118459204
1219,10,Ticks_ISO_T2_5,143,1,48,19,1118938892
1219,10,Ticks_ISO_T2_5,144,5,42,127,1118958824
1219,10,Ticks_ISO_T2_5,145,1,48,18,1119427440
1219,10,Ticks_ISO_T2_5,146,5,42,127,1119458664
1219,10,Ticks_ISO_T2_5,147,1,48,18,1119913868
1219,10,Ticks_ISO_T2_5,148,5,42,127,1119959332
1219,10,Ticks_ISO_T2_5,149,1,48,19,1120408108
1219,10,Ticks_ISO_T2_5,150,5,42,127,1120459028
1219,10,Ticks_ISO_T2_5,151,1,48,20,1120906752
1219,10,Ticks_ISO_T2_5,152,5,42,127,1120958872
1219,10,Ticks_ISO_T2_5,153,1,48,18,1121417444
1219,10,Ticks_ISO_T2_5,154,5,42,127,1121458688
1219,10,Ticks_ISO_T2_5,155,1,48,17,1121953264
1219,10,Ticks_ISO_T2_5,156,5,42,127,1121959132
1219,10,Ticks_ISO_T2_5,157,1,48,16,1122441440
1219,10,Ticks_ISO_T2_5,158,5,42,127,1122459052
1219,10,Ticks_ISO_T2_5,159,1,48,18,1122939492
1219,10,Ticks_ISO_T2_5,160,5,42,127,1122958824
1219,10,Ticks_ISO_T2_5,161,1,48,19,1123410240
1219,10,Ticks_ISO_T2_5,162,5,42,127,1123458516
1219,10,Ticks_ISO_T2_5,163,5,42,127,1123959044
1219,10,Ticks_ISO_T2_5,164,1,48,19,1123969564
1219,10,Ticks_ISO_T2_5,165,1,48,23,1124444856
1219,10,Ticks_ISO_T2_5,166,5,42,127,1124458804
1219,10,Ticks_ISO_T2_5,167,1,48,19,1124953076
1219,10,Ticks_ISO_T2_5,168,5,42,127,1124958500
1219,10,Ticks_ISO_T2_5,169,1,48,17,1125442448
1219,10,Ticks_ISO_T2_5,170,5,42,127,1125459244
1219,10,Ticks_ISO_T2_5,171,1,48,17,1125939456
1219,10,Ticks_ISO_T2_5,172,5,42,127,1125959160
1219,10,Ticks_ISO_T2_5,173,1,48,22,1126427332
1219,10,Ticks_ISO_T2_5,174,5,42,127,1126458632
1219,10,Ticks_ISO_T2_5,175,1,48,16,1126940560
1219,10,Ticks_ISO_T2_5,176,5,42,127,1126958548
1219,10,Ticks_ISO_T2_5,177,1,48,16,1127420212
1219,10,Ticks_ISO_T2_5,178,5,42,127,1127459140
1219,10,Ticks_ISO_T2_5,179,1,48,17,1127930752
1219,10,Ticks_ISO_T2_5,180,5,42,127,1127958836
1219,10,Ticks_ISO_T2_5,181,1,48,16,1128431344
1219,10,Ticks_ISO_T2_5,182,5,42,127,1128458680
1219,10,Ticks_ISO_T2_5,183,1,48,16,1128933132
1219,10,Ticks_ISO_T2_5,184,5,42,127,1128959496
1219,10,Ticks_ISO_T2_5,185,5,42,127,1129458976
1219,10,Ticks_ISO_T2_5,186,1,48,17,1129469276
1219,10,Ticks_ISO_T2_5,187,5,42,127,1129958668
1219,10,Ticks_ISO_T2_5,188,1,48,14,1129985496
1219,10,Ticks_ISO_T2_5,189,1,48,16,1130424740
1219,10,Ticks_ISO_T2_5,190,5,42,127,1130458508
1219,10,Ticks_ISO_T2_5,191,1,48,18,1130929276
1219,10,Ticks_ISO_T2_5,192,5,42,127,1130959620
1219,10,Ticks_ISO_T2_5,193,1,48,18,1131447016
1219,10,Ticks_ISO_T2_5,194,5,42,127,1131458796
1219,10,Ticks_ISO_T2_5,195,1,48,17,1131939284
1219,10,Ticks_ISO_T2_5,196,5,42,127,1131959012
1219,10,Ticks_ISO_T2_5,197,1,48,17,1132422068
1219,10,Ticks_ISO_T2_5,198,5,42,127,1132459652
1219,10,Ticks_ISO_T2_5,199,1,48,17,1132914436
1219,10,Ticks_ISO_T2_5,200,5,42,127,1132959200
1219,10,Ticks_ISO_T2_5,201,1,48,17,1133435744
1219,10,Ticks_ISO_T2_5,202,5,42,127,1133458824
1219,10,Ticks_ISO_T2_5,203,1,48,14,1133922276
1219,10,Ticks_ISO_T2_5,204,5,42,127,1133958516
1219,10,Ticks_ISO_T2_5,205,1,48,17,1134436260
1219,10,Ticks_ISO_T2_5,206,5,42,127,1134459184
1219,10,Ticks_ISO_T2_5,207,1,48,18,1134934832
1219,10,Ticks_ISO_T2_5,208,5,42,127,1134959104
1219,10,Ticks_ISO_T2_5,209,1,48,15,1135413288
1219,10,Ticks_ISO_T2_5,210,5,42,127,1135458648
1219,10,Ticks_ISO_T2_5,211,1,48,16,1135920536
1219,10,Ticks_ISO_T2_5,212,5,42,127,1135959540
1219,10,Ticks_ISO_T2_5,213,1,48,15,1136415068
1219,10,Ticks_ISO_T2_5,214,5,42,127,1136459012
1219,10,Ticks_ISO_T2_5,215,1,48,21,1136891952
1219,10,Ticks_ISO_T2_5,216,5,42,127,1136958780
1219,10,Ticks_ISO_T2_5,217,1,48,19,1137444904
1219,10,Ticks_ISO_T2_5,218,5,42,127,1137458400
1219,10,Ticks_ISO_T2_5,219,1,48,17,1137932924
1219,10,Ticks_ISO_T2_5,220,5,42,127,1137959512
1219,10,Ticks_ISO_T2_5,221,1,48,23,1138442344
1219,10,Ticks_ISO_T2_5,222,5,42,127,1138458984
1219,10,Ticks_ISO_T2_5,223,1,48,15,1138951464
1219,10,Ticks_ISO_T2_5,224,5,42,127,1138958752
1219,10,Ticks_ISO_T2_5,225,1,48,17,1139431184
1219,10,Ticks_ISO_T2_5,226,5,42,127,1139458372
1219,10,Ticks_ISO_T2_5,227,1,48,16,1139926768
1219,10,Ticks_ISO_T2_5,228,5,42,127,1139959336
1219,10,Ticks_ISO_T2_5,229,1,48,19,1140399512
1219,10,Ticks_ISO_T2_5,230,5,42,127,1140458808
1219,10,Ticks_ISO_T2_5,231,5,42,127,1140958584
1219,10,Ticks_ISO_T2_5,232,1,48,17,1141430884
1219,10,Ticks_ISO_T2_5,233,5,42,127,1141459712
1219,10,Ticks_ISO_T2_5,234,1,48,15,1141941096
1219,10,Ticks_ISO_T2_5,235,5,42,127,1141959108
1219,10,Ticks_ISO_T2_5,236,1,48,19,1142413716
1219,10,Ticks_ISO_T2_5,237,5,42,127,1142458728
1219,10,Ticks_ISO_T2_5,238,1,48,19,1142886332
1219,10,Ticks_ISO_T2_5,239,5,42,127,1142958400
1219,10,Ticks_ISO_T2_5,240,1,48,16,1143417296
1219,10,Ticks_ISO_T2_5,241,5,42,127,1143459216
1219,10,Ticks_ISO_T2_5,242,1,48,16,1143895744
1219,10,Ticks_ISO_T2_5,243,5,42,127,1143958836
1219,10,Ticks_ISO_T2_5,244,1,48,15,1144402028
1219,10,Ticks_ISO_T2_5,245,5,42,127,1144458532
1219,10,Ticks_ISO_T2_5,246,1,48,16,1144900520
1219,10,Ticks_ISO_T2_5,247,5,42,127,1144959348
1219,10,Ticks_ISO_T2_5,248,1,48,16,1145401712
1219,10,Ticks_ISO_T2_5,249,5,42,127,1145459040
1219,10,Ticks_ISO_T2_5,250,1,48,16,1145899092
1219,10,Ticks_ISO_T2_5,251,5,42,127,1145958736
1219,10,Ticks_ISO_T2_5,252,1,48,16,1146431844
1219,10,Ticks_ISO_T2_5,0,9999,9999,9999,1081456720
1219,10,Ticks_ISO_T2_5,1,9999,9999,9999,1081956436
1219,10,Ticks_ISO_T2_5,2,9999,9999,9999,1082456156
1219,10,Ticks_ISO_T2_5,3,9999,9999,9999,1082956920
1219,10,Ticks_ISO_T2_5,4,9999,9999,9999,1083456636
1219,10,Ticks_ISO_T2_5,5,9999,9999,9999,1083956276
1219,10,Ticks_ISO_T2_5,6,9999,9999,9999,1084457036
1219,10,Ticks_ISO_T2_5,7,9999,9999,9999,1084956728
1219,10,Ticks_ISO_T2_5,8,9999,9999,9999,1085456500
1219,10,Ticks_ISO_T2_5,9,9999,9999,9999,1085956192
1219,10,Ticks_ISO_T2_5,10,9999,9999,9999,1086456932
1219,10,Ticks_ISO_T2_5,11,9999,9999,9999,1086956628
1219,10,Ticks_ISO_T2_5,12,9999,9999,9999,1087456328
1219,10,Ticks_ISO_T2_5,13,9999,9999,9999,1087957068
1219,10,Ticks_ISO_T2_5,14,9999,9999,9999,1088456764
1219,10,Ticks_ISO_T2_5,15,9999,9999,9999,1088956532
1219,10,Ticks_ISO_T2_5,16,9999,9999,9999,1089456200
1219,10,Ticks_ISO_T2_5,17,9999,9999,9999,1089956940
1219,10,Ticks_ISO_T2_5,18,9999,9999,9999,1090456636
1219,10,Ticks_ISO_T2_5,19,9999,9999,9999,1090956404
1219,10,Ticks_ISO_T2_5,20,9999,9999,9999,1091456100
1219,10,Ticks_ISO_T2_5,21,9999,9999,9999,1091956840
1219,10,Ticks_ISO_T2_5,22,9999,9999,9999,1092456536
1219,10,Ticks_ISO_T2_5,23,9999,9999,9999,1092956232
1219,10,Ticks_ISO_T2_5,24,9999,9999,9999,1093456972
1219,10,Ticks_ISO_T2_5,25,9999,9999,9999,1093956668
1219,10,Ticks_ISO_T2_5,26,9999,9999,9999,1094456436
1219,10,Ticks_ISO_T2_5,27,9999,9999,9999,1094956132
1219,10,Ticks_ISO_T2_5,28,9999,9999,9999,1095456872
1219,10,Ticks_ISO_T2_5,29,9999,9999,9999,1095956568
1219,10,Ticks_ISO_T2_5,30,9999,9999,9999,1096456268
1219,10,Ticks_ISO_T2_5,31,9999,9999,9999,1096957008
1219,10,Ticks_ISO_T2_5,32,9999,9999,9999,1097456704
1219,10,Ticks_ISO_T2_5,33,9999,9999,9999,1097956472
1219,10,Ticks_ISO_T2_5,34,9999,9999,9999,1098456168
1219,10,Ticks_ISO_T2_5,35,9999,9999,9999,1098956908
1219,10,Ticks_ISO_T2_5,36,9999,9999,9999,1099456608
1219,10,Ticks_ISO_T2_5,37,9999,9999,9999,1099956300
1219,10,Ticks_ISO_T2_5,38,9999,9999,9999,1100457020
1219,10,Ticks_ISO_T2_5,39,9999,9999,9999,1100956780
1219,10,Ticks_ISO_T2_5,40,9999,9999,9999,1101456476
1219,10,Ticks_ISO_T2_5,41,9999,9999,9999,1101956168
1219,10,Ticks_ISO_T2_5,42,9999,9999,9999,1102456908
1219,10,Ticks_ISO_T2_5,43,9999,9999,9999,1102956604
1219,10,Ticks_ISO_T2_5,44,9999,9999,9999,1103456372
1219,10,Ticks_ISO_T2_5,45,9999,9999,9999,1103957116
1219,10,Ticks_ISO_T2_5,46,9999,9999,9999,1104456812
1219,10,Ticks_ISO_T2_5,47,9999,9999,9999,1104956504
1219,10,Ticks_ISO_T2_5,48,9999,9999,9999,1105456200
1219,10,Ticks_ISO_T2_5,49,9999,9999,9999,1105956940
1219,10,Ticks_ISO_T2_5,50,9999,9999,9999,1106456636
1219,10,Ticks_ISO_T2_5,51,9999,9999,9999,1106956404
1219,10,Ticks_ISO_T2_5,52,9999,9999,9999,1107456100
1219,10,Ticks_ISO_T2_5,53,9999,9999,9999,1107956840
1219,10,Ticks_ISO_T2_5,54,9999,9999,9999,1108456536
1219,10,Ticks_ISO_T2_5,55,9999,9999,9999,1108956232
1219,10,Ticks_ISO_T2_5,56,9999,9999,9999,1109456972
1219,10,Ticks_ISO_T2_5,57,9999,9999,9999,1109956668
1219,10,Ticks_ISO_T2_5,58,9999,9999,9999,1110456436
1219,10,Ticks_ISO_T2_5,59,9999,9999,9999,1110956104
1219,10,Ticks_ISO_T2_5,60,9999,9999,9999,1111456844
1219,10,Ticks_ISO_T2_5,61,9999,9999,9999,1111956540
1219,10,Ticks_ISO_T2_5,62,9999,9999,9999,1112456312
1219,10,Ticks_ISO_T2_5,63,9999,9999,9999,1112956980
1219,10,Ticks_ISO_T2_5,64,9999,9999,9999,1113456752
1219,10,Ticks_ISO_T2_5,65,9999,9999,9999,1113956444
1219,10,Ticks_ISO_T2_5,66,9999,9999,9999,1114456140
1219,10,Ticks_ISO_T2_5,67,9999,9999,9999,1114956884
1219,10,Ticks_ISO_T2_5,68,9999,9999,9999,1115456576
1219,10,Ticks_ISO_T2_5,69,9999,9999,9999,1115956348
1219,10,Ticks_ISO_T2_5,70,9999,9999,9999,1116457016
1219,10,Ticks_ISO_T2_5,71,9999,9999,9999,1116956784
1219,10,Ticks_ISO_T2_5,72,9999,9999,9999,1117456480
1219,10,Ticks_ISO_T2_5,73,9999,9999,9999,1117956176
1219,10,Ticks_ISO_T2_5,74,9999,9999,9999,1118456916
1219,10,Ticks_ISO_T2_5,75,9999,9999,9999,1118956612
1219,10,Ticks_ISO_T2_5,76,9999,9999,9999,1119456380
1219,10,Ticks_ISO_T2_5,77,9999,9999,9999,1119957048
1219,10,Ticks_ISO_T2_5,78,9999,9999,9999,1120456816
1219,10,Ticks_ISO_T2_5,79,9999,9999,9999,1120956508
1219,10,Ticks_ISO_T2_5,80,9999,9999,9999,1121456180
1219,10,Ticks_ISO_T2_5,81,9999,9999,9999,1121956920
1219,10,Ticks_ISO_T2_5,82,9999,9999,9999,1122456692
1219,10,Ticks_ISO_T2_5,83,9999,9999,9999,1122956388
1219,10,Ticks_ISO_T2_5,84,9999,9999,9999,1123456080
1219,10,Ticks_ISO_T2_5,85,9999,9999,9999,1123956832
1219,10,Ticks_ISO_T2_5,86,9999,9999,9999,1124456520
1219,10,Ticks_ISO_T2_5,87,9999,9999,9999,1124956212
1219,10,Ticks_ISO_T2_5,88,9999,9999,9999,1125456956
1219,10,Ticks_ISO_T2_5,89,9999,9999,9999,1125956724
1219,10,Ticks_ISO_T2_5,90,9999,9999,9999,1126456420
1219,10,Ticks_ISO_T2_5,91,9999,9999,9999,1126956116
1219,10,Ticks_ISO_T2_5,92,9999,9999,9999,1127456856
1219,10,Ticks_ISO_T2_5,93,9999,9999,9999,1127956552
1219,10,Ticks_ISO_T2_5,94,9999,9999,9999,1128456248
1219,10,Ticks_ISO_T2_5,95,9999,9999,9999,1128956988
1219,10,Ticks_ISO_T2_5,96,9999,9999,9999,1129456764
1219,10,Ticks_ISO_T2_5,97,9999,9999,9999,1129956456
1219,10,Ticks_ISO_T2_5,98,9999,9999,9999,1130456148
1219,10,Ticks_ISO_T2_5,99,9999,9999,9999,1130956888
1219,10,Ticks_ISO_T2_5,100,9999,9999,9999,1131456584
1219,10,Ticks_ISO_T2_5,101,9999,9999,9999,1131956328
1219,10,Ticks_ISO_T2_5,102,9999,9999,9999,1132457068
1219,10,Ticks_ISO_T2_5,103,9999,9999,9999,1132956764
1219,10,Ticks_ISO_T2_5,104,9999,9999,9999,1133456460
1219,10,Ticks_ISO_T2_5,105,9999,9999,9999,1133956156
1219,10,Ticks_ISO_T2_5,106,9999,9999,9999,1134456900
1219,10,Ticks_ISO_T2_5,107,9999,9999,9999,1134956668
1219,10,Ticks_ISO_T2_5,108,9999,9999,9999,1135456364
1219,10,Ticks_ISO_T2_5,109,9999,9999,9999,1135957104
1219,10,Ticks_ISO_T2_5,110,9999,9999,9999,1136456800
1219,10,Ticks_ISO_T2_5,111,9999,9999,9999,1136956492
1219,10,Ticks_ISO_T2_5,112,9999,9999,9999,1137456188
1219,10,Ticks_ISO_T2_5,113,9999,9999,9999,1137956928
1219,10,Ticks_ISO_T2_5,114,9999,9999,9999,1138456696
1219,10,Ticks_ISO_T2_5,115,9999,9999,9999,1138956392
1219,10,Ticks_ISO_T2_5,116,9999,9999,9999,1139456088
1219,10,Ticks_ISO_T2_5,117,9999,9999,9999,1139956828
1219,10,Ticks_ISO_T2_5,118,9999,9999,9999,1140456524
1219,10,Ticks_ISO_T2_5,119,9999,9999,9999,1140956224
1219,10,Ticks_ISO_T2_5,120,9999,9999,9999,1141456980
1219,10,Ticks_ISO_T2_5,121,9999,9999,9999,1141956672
1219,10,Ticks_ISO_T2_5,122,9999,9999,9999,1142456444
1219,10,Ticks_ISO_T2_5,123,9999,9999,9999,1142956116
1219,10,Ticks_ISO_T2_5,124,9999,9999,9999,1143456856
1219,10,Ticks_ISO_T2_5,125,9999,9999,9999,1143956552
1219,10,Ticks_ISO_T2_5,126,9999,9999,9999,1144456248
1219,10,Ticks_ISO_T2_5,127,9999,9999,9999,1144956988
1219,10,Ticks_ISO_T2_5,128,9999,9999,9999,1145456756
1219,10,Ticks_ISO_T2_5,129,9999,9999,9999,1145956452
12110,9,Ticks_ISO_T2_8,0,5,42,127,1155351184
12110,9,Ticks_ISO_T2_8,1,5,42,127,1156150716
12110,9,Ticks_ISO_T2_8,2,5,42,127,1156951292
12110,9,Ticks_ISO_T2_8,3,1,48,15,1157706428
12110,9,Ticks_ISO_T2_8,4,5,42,127,1157751116
12110,9,Ticks_ISO_T2_8,5,1,48,19,1158457992
12110,9,Ticks_ISO_T2_8,6,5,42,127,1158551220
12110,9,Ticks_ISO_T2_8,7,1,48,19,1159238128
12110,9,Ticks_ISO_T2_8,8,5,42,127,1159350520
12110,9,Ticks_ISO_T2_8,9,1,48,18,1160055736
12110,9,Ticks_ISO_T2_8,10,5,42,127,1160151968
12110,9,Ticks_ISO_T2_8,11,1,48,21,1160883068
12110,9,Ticks_ISO_T2_8,12,5,42,127,1160951196
12110,9,Ticks_ISO_T2_8,13,1,48,16,1161666752
12110,9,Ticks_ISO_T2_8,14,5,42,127,1161751152
12110,9,Ticks_ISO_T2_8,15,1,48,17,1162419104
12110,9,Ticks_ISO_T2_8,16,5,42,127,1162550496
12110,9,Ticks_ISO_T2_8,17,1,48,15,1163229036
12110,9,Ticks_ISO_T2_8,18,5,42,127,1163351276
12110,9,Ticks_ISO_T2_8,19,1,48,17,1164079188
12110,9,Ticks_ISO_T2_8,20,5,42,127,1164151100
12110,9,Ticks_ISO_T2_8,21,1,48,19,1164874428
12110,9,Ticks_ISO_T2_8,22,5,42,127,1164950980
12110,9,Ticks_ISO_T2_8,23,1,48,18,1165638112
12110,9,Ticks_ISO_T2_8,24,5,42,127,1165750504
12110,9,Ticks_ISO_T2_8,25,1,48,15,1166464328
12110,9,Ticks_ISO_T2_8,26,5,42,127,1166551300
12110,9,Ticks_ISO_T2_8,27,5,42,127,1167351188
12110,9,Ticks_ISO_T2_8,28,1,48,17,1168140280
12110,9,Ticks_ISO_T2_8,29,5,42,127,1168150936
12110,9,Ticks_ISO_T2_8,30,5,42,127,1168950752
12110,9,Ticks_ISO_T2_8,31,1,48,19,1168971448
12110,9,Ticks_ISO_T2_8,32,5,42,127,1169751384
12110,9,Ticks_ISO_T2_8,33,1,48,20,1169764000
12110,9,Ticks_ISO_T2_8,34,1,48,22,1170527140
12110,9,Ticks_ISO_T2_8,35,5,42,127,1170551260
12110,9,Ticks_ISO_T2_8,36,1,48,21,1171334280
12110,9,Ticks_ISO_T2_8,37,5,42,127,1171350916
12110,9,Ticks_ISO_T2_8,38,1,48,19,1172139400
12110,9,Ticks_ISO_T2_8,39,5,42,127,1172150748
12110,9,Ticks_ISO_T2_8,40,1,48,20,1172879444
12110,9,Ticks_ISO_T2_8,41,5,42,127,1172951380
12110,9,Ticks_ISO_T2_8,42,1,48,21,1173634892
12110,9,Ticks_ISO_T2_8,43,5,42,127,1173751172
12110,9,Ticks_ISO_T2_8,44,1,48,19,1174487836
12110,9,Ticks_ISO_T2_8,45,5,42,127,1174550772
12110,9,Ticks_ISO_T2_8,46,1,48,19,1175325116
12110,9,Ticks_ISO_T2_8,47,5,42,127,1175350732
12110,9,Ticks_ISO_T2_8,48,1,48,18,1176104060
12110,9,Ticks_ISO_T2_8,49,5,42,127,1176151436
12110,9,Ticks_ISO_T2_8,50,1,48,18,1176907980
12110,9,Ticks_ISO_T2_8,51,5,42,127,1176951244
12110,9,Ticks_ISO_T2_8,52,1,48,17,1177734936
12110,9,Ticks_ISO_T2_8,53,5,42,127,1177750828
12110,9,Ticks_ISO_T2_8,54,5,42,127,1178550816
12110,9,Ticks_ISO_T2_8,55,1,48,20,1178551784
12110,9,Ticks_ISO_T2_8,56,5,42,127,1179351820
12110,9,Ticks_ISO_T2_8,57,1,48,26,1179362868
12110,9,Ticks_ISO_T2_8,58,5,42,127,1180151180
12110,9,Ticks_ISO_T2_8,59,1,48,24,1180165596
12110,9,Ticks_ISO_T2_8,60,5,42,127,1180950988
12110,9,Ticks_ISO_T2_8,61,1,48,27,1180958976
12110,9,Ticks_ISO_T2_8,62,5,42,127,1181750648
12110,9,Ticks_ISO_T2_8,63,1,48,20,1181763192
12110,9,Ticks_ISO_T2_8,64,1,48,19,1182527980
12110,9,Ticks_ISO_T2_8,65,5,42,127,1182551644
12110,9,Ticks_ISO_T2_8,66,1,48,24,1183240200
12110,9,Ticks_ISO_T2_8,67,5,42,127,1183351140
12110,9,Ticks_ISO_T2_8,68,1,48,19,1184121460
12110,9,Ticks_ISO_T2_8,69,5,42,127,1184150964
12110,9,Ticks_ISO_T2_8,70,1,48,24,1184888580
12110,9,Ticks_ISO_T2_8,71,5,42,127,1184950796
12110,9,Ticks_ISO_T2_8,72,1,48,25,1185694372
12110,9,Ticks_ISO_T2_8,73,5,42,127,1185751500
12110,9,Ticks_ISO_T2_8,74,1,48,20,1186488000
12110,9,Ticks_ISO_T2_8,75,5,42,127,1186551012
12110,9,Ticks_ISO_T2_8,76,1,48,19,1187288704
12110,9,Ticks_ISO_T2_8,77,5,42,127,1187350744
12110,9,Ticks_ISO_T2_8,78,1,48,17,1188096444
12110,9,Ticks_ISO_T2_8,79,5,42,127,1188150628
12110,9,Ticks_ISO_T2_8,80,1,48,22,1188887420
12110,9,Ticks_ISO_T2_8,81,5,42,127,1188951480
12110,9,Ticks_ISO_T2_8,82,1,48,17,1189706600
12110,9,Ticks_ISO_T2_8,83,5,42,127,1189751288
12110,9,Ticks_ISO_T2_8,84,1,48,19,1190542760
12110,9,Ticks_ISO_T2_8,85,5,42,127,1190550800
12110,9,Ticks_ISO_T2_8,86,1,48,16,1191337484
12110,9,Ticks_ISO_T2_8,87,5,42,127,1191350556
12110,9,Ticks_ISO_T2_8,88,5,42,127,1192151344
12110,9,Ticks_ISO_T2_8,89,1,48,19,1192289172
12110,9,Ticks_ISO_T2_8,90,5,42,127,1192951076
12110,9,Ticks_ISO_T2_8,91,1,48,16,1193034232
12110,9,Ticks_ISO_T2_8,92,5,42,127,1193750888
12110,9,Ticks_ISO_T2_8,93,1,48,16,1193771284
12110,9,Ticks_ISO_T2_8,94,1,48,17,1194508696
12110,9,Ticks_ISO_T2_8,95,5,42,127,1194550616
12110,9,Ticks_ISO_T2_8,96,1,48,16,1195283596
12110,9,Ticks_ISO_T2_8,97,5,42,127,1195351396
12110,9,Ticks_ISO_T2_8,98,1,48,15,1196090956
12110,9,Ticks_ISO_T2_8,99,5,42,127,1196151352
12110,9,Ticks_ISO_T2_8,100,1,48,17,1196881416
12110,9,Ticks_ISO_T2_8,101,5,42,127,1196950860
12110,9,Ticks_ISO_T2_8,102,1,48,24,1197719968
12110,9,Ticks_ISO_T2_8,103,5,42,127,1197750544
12110,9,Ticks_ISO_T2_8,104,5,42,127,1198551332
12110,9,Ticks_ISO_T2_8,105,5,42,127,1199351012
12110,9,Ticks_ISO_T2_8,106,1,48,16,1199362952
12110,9,Ticks_ISO_T2_8,107,1,48,19,1200132824
12110,9,Ticks_ISO_T2_8,108,5,42,127,1200150960
12110,9,Ticks_ISO_T2_8,109,1,48,14,1200879832
12110,9,Ticks_ISO_T2_8,110,5,42,127,1200950696
12110,9,Ticks_ISO_T2_8,111,1,48,13,1201637224
12110,9,Ticks_ISO_T2_8,112,5,42,127,1201751384
12110,9,Ticks_ISO_T2_8,113,1,48,21,1202450948
12110,9,Ticks_ISO_T2_8,114,5,42,127,1202551268
12110,9,Ticks_ISO_T2_8,115,1,48,16,1203337300
12110,9,Ticks_ISO_T2_8,116,5,42,127,1203350792
12110,9,Ticks_ISO_T2_8,117,1,48,16,1204063652
12110,9,Ticks_ISO_T2_8,118,5,42,127,1204150776
12110,9,Ticks_ISO_T2_8,119,1,48,19,1204838556
12110,9,Ticks_ISO_T2_8,120,5,42,127,1204951392
12110,9,Ticks_ISO_T2_8,121,1,48,19,1205595048
12110,9,Ticks_ISO_T2_8,122,5,42,127,1205751272
12110,9,Ticks_ISO_T2_8,123,1,48,21,1206447220
12110,9,Ticks_ISO_T2_8,124,5,42,127,1206550780
12110,9,Ticks_ISO_T2_8,125,1,48,17,1207309280
12110,9,Ticks_ISO_T2_8,126,5,42,127,1207350528
12110,9,Ticks_ISO_T2_8,127,1,48,16,1208094504
12110,9,Ticks_ISO_T2_8,128,5,42,127,1208151384
12110,9,Ticks_ISO_T2_8,129,1,48,15,1208890196
12110,9,Ticks_ISO_T2_8,130,5,42,127,1208951340
12110,9,Ticks_ISO_T2_8,131,1,48,16,1209640568
12110,9,Ticks_ISO_T2_8,132,5,42,127,1209750840
12110,9,Ticks_ISO_T2_8,133,5,42,127,1210550768
12110,9,Ticks_ISO_T2_8,134,1,48,22,1211260848
12110,9,Ticks_ISO_T2_8,135,5,42,127,1211351340
12110,9,Ticks_ISO_T2_8,136,1,48,20,1212070456
12110,9,Ticks_ISO_T2_8,137,5,42,127,1212151220
12110,9,Ticks_ISO_T2_8,138,1,48,20,1212873428
12110,9,Ticks_ISO_T2_8,139,5,42,127,1212951028
12110,9,Ticks_ISO_T2_8,140,1,48,20,1213631424
12110,9,Ticks_ISO_T2_8,141,5,42,127,1213750600
12110,9,Ticks_ISO_T2_8,142,1,48,19,1214522936
12110,9,Ticks_ISO_T2_8,143,5,42,127,1214551392
12110,9,Ticks_ISO_T2_8,144,1,48,21,1215288416
12110,9,Ticks_ISO_T2_8,145,5,42,127,1215351124
12110,9,Ticks_ISO_T2_8,146,1,48,18,1216076252
12110,9,Ticks_ISO_T2_8,147,5,42,127,1216151156
12110,9,Ticks_ISO_T2_8,148,1,48,22,1216799772
12110,9,Ticks_ISO_T2_8,149,5,42,127,1216950752
12110,9,Ticks_ISO_T2_8,150,1,48,21,1217611244
12110,9,Ticks_ISO_T2_8,151,5,42,127,1217751384
12110,9,Ticks_ISO_T2_8,152,1,48,16,1218490444
12110,9,Ticks_ISO_T2_8,153,5,42,127,1218551136
12110,9,Ticks_ISO_T2_8,154,1,48,22,1219234796
12110,9,Ticks_ISO_T2_8,155,5,42,127,1219351224
12110,9,Ticks_ISO_T2_8,156,1,48,27,1220118932
12110,9,Ticks_ISO_T2_8,157,5,42,127,1220150528
12110,9,Ticks_ISO_T2_8,158,1,48,26,1220925472
12110,9,Ticks_ISO_T2_8,159,5,42,127,1220951380
12110,9,Ticks_ISO_T2_8,160,1,48,20,1221709344
12110,9,Ticks_ISO_T2_8,161,5,42,127,1221751188
12110,9,Ticks_ISO_T2_8,162,1,48,19,1222543184
12110,9,Ticks_ISO_T2_8,163,5,42,127,1222551148
12110,9,Ticks_ISO_T2_8,164,1,48,24,1223312776
12110,9,Ticks_ISO_T2_8,165,5,42,127,1223350904
12110,9,Ticks_ISO_T2_8,166,1,48,29,1224131380
12110,9,Ticks_ISO_T2_8,167,5,42,127,1224151312
12110,9,Ticks_ISO_T2_8,168,1,48,22,1224921316
12110,9,Ticks_ISO_T2_8,169,5,42,127,1224951120
12110,9,Ticks_ISO_T2_8,170,1,48,29,1225717016
12110,9,Ticks_ISO_T2_8,171,5,42,127,1225750856
12110,9,Ticks_ISO_T2_8,172,1,48,29,1226477552
12110,9,Ticks_ISO_T2_8,173,5,42,127,1226551036
12110,9,Ticks_ISO_T2_8,174,1,48,19,1227292920
12110,9,Ticks_ISO_T2_8,175,5,42,127,1227351368
12110,9,Ticks_ISO_T2_8,176,1,48,21,1228118008
12110,9,Ticks_ISO_T2_8,177,5,42,127,1228151252
12110,9,Ticks_ISO_T2_8,178,1,48,22,1228924024
12110,9,Ticks_ISO_T2_8,179,5,42,127,1228950836
12110,9,Ticks_ISO_T2_8,180,1,48,26,1229727348
12110,9,Ticks_ISO_T2_8,181,5,42,127,1229750892
12110,9,Ticks_ISO_T2_8,182,1,48,23,1230551156
12110,9,Ticks_ISO_T2_8,183,5,42,127,1230552716
12110,9,Ticks_ISO_T2_8,184,5,42,127,1231351112
12110,9,Ticks_ISO_T2_8,185,1,48,18,1231354232
12110,9,Ticks_ISO_T2_8,186,1,48,21,1232087824
12110,9,Ticks_ISO_T2_8,187,5,42,127,1232150840
12110,9,Ticks_ISO_T2_8,188,1,48,19,1232885464
12110,9,Ticks_ISO_T2_8,189,5,42,127,1232950720
12110,9,Ticks_ISO_T2_8,190,1,48,18,1233655352
12110,9,Ticks_ISO_T2_8,191,5,42,127,1233751276
12110,9,Ticks_ISO_T2_8,192,1,48,24,1234434516
12110,9,Ticks_ISO_T2_8,193,5,42,127,1234551144
12110,9,Ticks_ISO_T2_8,194,1,48,18,1235233724
12110,9,Ticks_ISO_T2_8,195,5,42,127,1235350804
12110,9,Ticks_ISO_T2_8,196,1,48,27,1236121196
12110,9,Ticks_ISO_T2_8,197,5,42,127,1236150652
12110,9,Ticks_ISO_T2_8,198,1,48,22,1236876200
12110,9,Ticks_ISO_T2_8,199,5,42,127,1236951508
12110,9,Ticks_ISO_T2_8,200,1,48,20,1237663072
12110,9,Ticks_ISO_T2_8,201,5,42,127,1237751092
12110,9,Ticks_ISO_T2_8,202,1,48,19,1238492968
12110,9,Ticks_ISO_T2_8,203,5,42,127,1238550824
12110,9,Ticks_ISO_T2_8,204,5,42,127,1239350564
12110,9,Ticks_ISO_T2_8,205,1,48,17,1239364600
12110,9,Ticks_ISO_T2_8,206,5,42,127,1240151568
12110,9,Ticks_ISO_T2_8,207,1,48,20,1240182660
12110,9,Ticks_ISO_T2_8,208,1,48,17,1240897184
12110,9,Ticks_ISO_T2_8,209,5,42,127,1240951072
12110,9,Ticks_ISO_T2_8,210,1,48,15,1241719056
12110,9,Ticks_ISO_T2_8,211,5,42,127,1241751028
12110,9,Ticks_ISO_T2_8,212,1,48,20,1242468456
12110,9,Ticks_ISO_T2_8,213,5,42,127,1242550640
12110,9,Ticks_ISO_T2_8,214,5,42,127,1243351576
12110,9,Ticks_ISO_T2_8,215,1,48,19,1243381776
12110,9,Ticks_ISO_T2_8,216,5,42,127,1244151088
12110,9,Ticks_ISO_T2_8,217,1,48,17,1244170364
12110,9,Ticks_ISO_T2_8,218,1,48,19,1244919660
12110,9,Ticks_ISO_T2_8,219,5,42,127,1244950812
12110,9,Ticks_ISO_T2_8,220,1,48,15,1245710424
12110,9,Ticks_ISO_T2_8,221,5,42,127,1245750624
12110,9,Ticks_ISO_T2_8,222,1,48,15,1246513068
12110,9,Ticks_ISO_T2_8,223,5,42,127,1246551552
12110,9,Ticks_ISO_T2_8,224,1,48,14,1247304880
12110,9,Ticks_ISO_T2_8,225,5,42,127,1247351136
12110,9,Ticks_ISO_T2_8,226,1,48,17,1248103716
12110,9,Ticks_ISO_T2_8,227,5,42,127,1248150796
12110,9,Ticks_ISO_T2_8,228,1,48,15,1248873528
12110,9,Ticks_ISO_T2_8,229,5,42,127,1248950776
12110,9,Ticks_ISO_T2_8,230,1,48,15,1249626140
12110,9,Ticks_ISO_T2_8,231,5,42,127,1249751392
12110,9,Ticks_ISO_T2_8,232,5,42,127,1250551000
12110,9,Ticks_ISO_T2_8,233,1,48,16,1251149332
12110,9,Ticks_ISO_T2_8,0,9999,9999,9999,1155348596
12110,9,Ticks_ISO_T2_8,1,9999,9999,9999,1156148280
12110,9,Ticks_ISO_T2_8,2,9999,9999,9999,1156949080
12110,9,Ticks_ISO_T2_8,3,9999,9999,9999,1157748828
12110,9,Ticks_ISO_T2_8,4,9999,9999,9999,1158548564
12110,9,Ticks_ISO_T2_8,5,9999,9999,9999,1159348280
12110,9,Ticks_ISO_T2_8,6,9999,9999,9999,1160149100
12110,9,Ticks_ISO_T2_8,7,9999,9999,9999,1160948832
12110,9,Ticks_ISO_T2_8,8,9999,9999,9999,1161748564
12110,9,Ticks_ISO_T2_8,9,9999,9999,9999,1162548284
12110,9,Ticks_ISO_T2_8,10,9999,9999,9999,1163349060
12110,9,Ticks_ISO_T2_8,11,9999,9999,9999,1164148812
12110,9,Ticks_ISO_T2_8,12,9999,9999,9999,1164948544
12110,9,Ticks_ISO_T2_8,13,9999,9999,9999,1165748288
12110,9,Ticks_ISO_T2_8,14,9999,9999,9999,1166549084
12110,9,Ticks_ISO_T2_8,15,9999,9999,9999,1167348824
12110,9,Ticks_ISO_T2_8,16,9999,9999,9999,1168148576
12110,9,Ticks_ISO_T2_8,17,9999,9999,9999,1168948312
12110,9,Ticks_ISO_T2_8,18,9999,9999,9999,1169749096
12110,9,Ticks_ISO_T2_8,19,9999,9999,9999,1170548824
12110,9,Ticks_ISO_T2_8,20,9999,9999,9999,1171348556
12110,9,Ticks_ISO_T2_8,21,9999,9999,9999,1172148312
12110,9,Ticks_ISO_T2_8,22,9999,9999,9999,1172949092
12110,9,Ticks_ISO_T2_8,23,9999,9999,9999,1173748812
12110,9,Ticks_ISO_T2_8,24,9999,9999,9999,1174548560
12110,9,Ticks_ISO_T2_8,25,9999,9999,9999,1175348292
12110,9,Ticks_ISO_T2_8,26,9999,9999,9999,1176149076
12110,9,Ticks_ISO_T2_8,27,9999,9999,9999,1176948808
12110,9,Ticks_ISO_T2_8,28,9999,9999,9999,1177748540
12110,9,Ticks_ISO_T2_8,29,9999,9999,9999,1178548304
12110,9,Ticks_ISO_T2_8,30,9999,9999,9999,1179349084
12110,9,Ticks_ISO_T2_8,31,9999,9999,9999,1180148820
12110,9,Ticks_ISO_T2_8,32,9999,9999,9999,1180948552
12110,9,Ticks_ISO_T2_8,33,9999,9999,9999,1181748288
12110,9,Ticks_ISO_T2_8,34,9999,9999,9999,1182549060
12110,9,Ticks_ISO_T2_8,35,9999,9999,9999,1183348852
12110,9,Ticks_ISO_T2_8,36,9999,9999,9999,1184148528
12110,9,Ticks_ISO_T2_8,37,9999,9999,9999,1184948284
12110,9,Ticks_ISO_T2_8,38,9999,9999,9999,1185749064
12110,9,Ticks_ISO_T2_8,39,9999,9999,9999,1186548800
12110,9,Ticks_ISO_T2_8,40,9999,9999,9999,1187348532
12110,9,Ticks_ISO_T2_8,41,9999,9999,9999,1188148340
12110,9,Ticks_ISO_T2_8,42,9999,9999,9999,1188949044
12110,9,Ticks_ISO_T2_8,43,9999,9999,9999,1189748852
12110,9,Ticks_ISO_T2_8,44,9999,9999,9999,1190548588
12110,9,Ticks_ISO_T2_8,45,9999,9999,9999,1191348268
12110,9,Ticks_ISO_T2_8,46,9999,9999,9999,1192149056
12110,9,Ticks_ISO_T2_8,47,9999,9999,9999,1192948788
12110,9,Ticks_ISO_T2_8,48,9999,9999,9999,1193748600
12110,9,Ticks_ISO_T2_8,49,9999,9999,9999,1194548324
12110,9,Ticks_ISO_T2_8,50,9999,9999,9999,1195349108
12110,9,Ticks_ISO_T2_8,51,9999,9999,9999,1196148840
12110,9,Ticks_ISO_T2_8,52,9999,9999,9999,1196948572
12110,9,Ticks_ISO_T2_8,53,9999,9999,9999,1197748332
12110,9,Ticks_ISO_T2_8,54,9999,9999,9999,1198549044
12110,9,Ticks_ISO_T2_8,55,9999,9999,9999,1199348796
12110,9,Ticks_ISO_T2_8,56,9999,9999,9999,1200148600
12110,9,Ticks_ISO_T2_8,57,9999,9999,9999,1200948332
12110,9,Ticks_ISO_T2_8,58,9999,9999,9999,1201749096
12110,9,Ticks_ISO_T2_8,59,9999,9999,9999,1202548832
12110,9,Ticks_ISO_T2_8,60,9999,9999,9999,1203348580
12110,9,Ticks_ISO_T2_8,61,9999,9999,9999,1204148336
12110,9,Ticks_ISO_T2_8,62,9999,9999,9999,1204949100
12110,9,Ticks_ISO_T2_8,63,9999,9999,9999,1205748836
12110,9,Ticks_ISO_T2_8,64,9999,9999,9999,1206548568
12110,9,Ticks_ISO_T2_8,65,9999,9999,9999,1207348316
12110,9,Ticks_ISO_T2_8,66,9999,9999,9999,1208149096
12110,9,Ticks_ISO_T2_8,67,9999,9999,9999,1208948832
12110,9,Ticks_ISO_T2_8,68,9999,9999,9999,1209748552
12110,9,Ticks_ISO_T2_8,69,9999,9999,9999,1210548332
12110,9,Ticks_ISO_T2_8,70,9999,9999,9999,1211349052
12110,9,Ticks_ISO_T2_8,71,9999,9999,9999,1212148784
12110,9,Ticks_ISO_T2_8,72,9999,9999,9999,1212948592
12110,9,Ticks_ISO_T2_8,73,9999,9999,9999,1213748312
12110,9,Ticks_ISO_T2_8,74,9999,9999,9999,1214549104
12110,9,Ticks_ISO_T2_8,75,9999,9999,9999,1215348840
12110,9,Ticks_ISO_T2_8,76,9999,9999,9999,1216148572
12110,9,Ticks_ISO_T2_8,77,9999,9999,9999,1216948316
12110,9,Ticks_ISO_T2_8,78,9999,9999,9999,1217749096
12110,9,Ticks_ISO_T2_8,79,9999,9999,9999,1218548848
12110,9,Ticks_ISO_T2_8,80,9999,9999,9999,1219348564
12110,9,Ticks_ISO_T2_8,81,9999,9999,9999,1220148316
12110,9,Ticks_ISO_T2_8,82,9999,9999,9999,1220949092
12110,9,Ticks_ISO_T2_8,83,9999,9999,9999,1221748828
12110,9,Ticks_ISO_T2_8,84,9999,9999,9999,1222548560
12110,9,Ticks_ISO_T2_8,85,9999,9999,9999,1223348320
12110,9,Ticks_ISO_T2_8,86,9999,9999,9999,1224149100
12110,9,Ticks_ISO_T2_8,87,9999,9999,9999,1224948832
12110,9,Ticks_ISO_T2_8,88,9999,9999,9999,1225748568
12110,9,Ticks_ISO_T2_8,89,9999,9999,9999,1226548304
12110,9,Ticks_ISO_T2_8,90,9999,9999,9999,1227349080
12110,9,Ticks_ISO_T2_8,91,9999,9999,9999,1228148816
12110,9,Ticks_ISO_T2_8,92,9999,9999,9999,1228948548
12110,9,Ticks_ISO_T2_8,93,9999,9999,9999,1229748304
12110,9,Ticks_ISO_T2_8,94,9999,9999,9999,1230549092
12110,9,Ticks_ISO_T2_8,95,9999,9999,9999,1231348824
12110,9,Ticks_ISO_T2_8,96,9999,9999,9999,1232148552
12110,9,Ticks_ISO_T2_8,97,9999,9999,9999,1232948284
12110,9,Ticks_ISO_T2_8,98,9999,9999,9999,1233749064
12110,9,Ticks_ISO_T2_8,99,9999,9999,9999,1234548784
12110,9,Ticks_ISO_T2_8,100,9999,9999,9999,1235348588
12110,9,Ticks_ISO_T2_8,101,9999,9999,9999,1236148292
12110,9,Ticks_ISO_T2_8,102,9999,9999,9999,1236949068
12110,9,Ticks_ISO_T2_8,103,9999,9999,9999,1237748804
12110,9,Ticks_ISO_T2_8,104,9999,9999,9999,1238548536
12110,9,Ticks_ISO_T2_8,105,9999,9999,9999,1239348276
12110,9,Ticks_ISO_T2_8,106,9999,9999,9999,1240149056
12110,9,Ticks_ISO_T2_8,107,9999,9999,9999,1240948784
12110,9,Ticks_ISO_T2_8,108,9999,9999,9999,1241748592
12110,9,Ticks_ISO_T2_8,109,9999,9999,9999,1242548276
12110,9,Ticks_ISO_T2_8,110,9999,9999,9999,1243349064
12110,9,Ticks_ISO_T2_8,111,9999,9999,9999,1244148800
12110,9,Ticks_ISO_T2_8,112,9999,9999,9999,1244948524
12110,9,Ticks_ISO_T2_8,113,9999,9999,9999,1245748336
12110,9,Ticks_ISO_T2_8,114,9999,9999,9999,1246549040
12110,9,Ticks_ISO_T2_8,115,9999,9999,9999,1247348848
12110,9,Ticks_ISO_T2_8,116,9999,9999,9999,1248148580
12110,9,Ticks_ISO_T2_8,117,9999,9999,9999,1248948340
12110,9,Ticks_ISO_T2_8,118,9999,9999,9999,1249749104
12110,9,Ticks_ISO_T2_8,119,9999,9999,9999,1250548784
12111,25,Jits_Pract_5,0,5,56,103,1347714444
12111,25,Jits_Pract_5,1,5,63,98,1347717616
12111,25,Jits_Pract_5,2,5,80,127,1347720736
12111,25,Jits_Pract_5,0,5,56,103,1348215064
12111,25,Jits_Pract_5,1,5,63,98,1348218312
12111,25,Jits_Pract_5,2,5,80,127,1348221504
12111,25,Jits_Pract_5,0,5,56,103,1348714952
12111,25,Jits_Pract_5,1,5,80,127,1348725076
12111,25,Jits_Pract_5,2,5,63,98,1348744636
12111,25,Jits_Pract_5,0,5,63,98,1349165768
12111,25,Jits_Pract_5,1,5,80,127,1349195148
12111,25,Jits_Pract_5,2,5,56,103,1349205568
12111,25,Jits_Pract_5,0,5,80,127,1349724612
12111,25,Jits_Pract_5,1,5,56,103,1349734732
12111,25,Jits_Pract_5,2,5,63,98,1349764704
12111,25,Jits_Pract_5,0,5,63,98,1350214992
12111,25,Jits_Pract_5,1,5,56,103,1350244592
12111,25,Jits_Pract_5,2,5,80,127,1350255088
12111,25,Jits_Pract_5,0,5,56,103,1350664600
12111,25,Jits_Pract_5,1,5,63,98,1350714728
12111,25,Jits_Pract_5,2,5,80,127,1350735112
12111,25,Jits_Pract_5,0,5,80,127,1351165536
12111,25,Jits_Pract_5,1,5,63,98,1351214616
12111,25,Jits_Pract_5,2,5,56,103,1351255528
12111,25,Jits_Pract_5,0,5,56,103,1351664984
12111,25,Jits_Pract_5,1,5,63,98,1351694660
12111,25,Jits_Pract_5,2,5,80,127,1351765536
12111,25,Jits_Pract_5,0,5,56,103,1352164728
12111,25,Jits_Pract_5,1,5,80,127,1352225640
12111,25,Jits_Pract_5,2,5,63,98,1352254944
12111,25,Jits_Pract_5,0,5,56,103,1352674808
12111,25,Jits_Pract_5,1,5,63,98,1352684856
12111,25,Jits_Pract_5,2,5,80,127,1352724792
12111,25,Jits_Pract_5,0,5,63,98,1353165256
12111,25,Jits_Pract_5,1,5,80,127,1353244980
12111,25,Jits_Pract_5,2,5,56,103,1353255324
12111,25,Jits_Pract_5,0,5,63,98,1353715032
12111,25,Jits_Pract_5,1,5,56,103,1353754972
12111,25,Jits_Pract_5,2,5,80,127,1353757964
12111,25,Jits_Pract_5,0,5,56,103,1354174824
12111,25,Jits_Pract_5,1,5,63,98,1354185020
12111,25,Jits_Pract_5,2,5,80,127,1354225032
12111,25,Jits_Pract_5,0,5,56,103,1354665624
12111,25,Jits_Pract_5,1,5,63,98,1354668636
12111,25,Jits_Pract_5,2,5,80,127,1354684756
12111,25,Jits_Pract_5,0,9999,9999,9999,1347963000
12111,25,Jits_Pract_5,1,9999,9999,9999,1348462648
12111,25,Jits_Pract_5,2,9999,9999,9999,1348962392
12111,25,Jits_Pract_5,3,9999,9999,9999,1349462132
12111,25,Jits_Pract_5,4,9999,9999,9999,1349962836
12111,25,Jits_Pract_5,5,9999,9999,9999,1350462584
12111,25,Jits_Pract_5,6,9999,9999,9999,1350962236
12111,25,Jits_Pract_5,7,9999,9999,9999,1351463024
12111,25,Jits_Pract_5,8,9999,9999,9999,1351962692
12111,25,Jits_Pract_5,9,9999,9999,9999,1352462440
12111,25,Jits_Pract_5,10,9999,9999,9999,1352962104
12111,25,Jits_Pract_5,11,9999,9999,9999,1353462892
12111,25,Jits_Pract_5,12,9999,9999,9999,1353962620
12111,25,Jits_Pract_5,13,9999,9999,9999,1354462268
12111,25,Jits_Pract_5,14,9999,9999,9999,1354963044
12112,25,Jits_Pract_5,0,5,56,103,1408890616
12112,25,Jits_Pract_5,1,5,63,98,1408893560
12112,25,Jits_Pract_5,2,5,80,127,1408896680
12112,25,Jits_Pract_5,0,5,56,103,1409389964
12112,25,Jits_Pract_5,1,5,63,98,1409392984
12112,25,Jits_Pract_5,2,5,80,127,1409396256
12112,25,Jits_Pract_5,0,5,56,103,1409889704
12112,25,Jits_Pract_5,1,5,80,127,1409899824
12112,25,Jits_Pract_5,2,5,63,98,1409920432
12112,25,Jits_Pract_5,0,5,63,98,1410340372
12112,25,Jits_Pract_5,1,5,80,127,1410369896
12112,25,Jits_Pract_5,2,5,56,103,1410380240
12112,25,Jits_Pract_5,3,1,48,28,1410472384
12112,25,Jits_Pract_5,0,5,80,127,1410900592
12112,25,Jits_Pract_5,1,5,56,103,1410909520
12112,25,Jits_Pract_5,2,1,48,28,1410912640
12112,25,Jits_Pract_5,3,5,63,98,1410940384
12112,25,Jits_Pract_5,0,5,63,98,1411389744
12112,25,Jits_Pract_5,1,1,48,31,1411410100
12112,25,Jits_Pract_5,2,5,56,103,1411419488
12112,25,Jits_Pract_5,3,5,80,127,1411429832
12112,25,Jits_Pract_5,0,5,56,103,1411840584
12112,25,Jits_Pract_5,1,5,63,98,1411889592
12112,25,Jits_Pract_5,2,1,48,29,1411899684
12112,25,Jits_Pract_5,3,5,80,127,1411909892
12112,25,Jits_Pract_5,0,5,80,127,1412340064
12112,25,Jits_Pract_5,1,1,48,31,1412362736
12112,25,Jits_Pract_5,2,5,63,98,1412390188
12112,25,Jits_Pract_5,3,5,56,103,1412430272
12112,25,Jits_Pract_5,0,1,48,28,1412837576
12112,25,Jits_Pract_5,1,5,56,103,1412839688
12112,25,Jits_Pract_5,2,5,63,98,1412869440
12112,25,Jits_Pract_5,3,5,80,127,1412940224
12112,25,Jits_Pract_5,0,1,48,27,1413326308
12112,25,Jits_Pract_5,1,5,56,103,1413339380
12112,25,Jits_Pract_5,2,5,80,127,1413399920
12112,25,Jits_Pract_5,3,5,63,98,1413429656
12112,25,Jits_Pract_5,0,1,48,25,1413831252
12112,25,Jits_Pract_5,1,5,56,103,1413849484
12112,25,Jits_Pract_5,2,5,63,98,1413859680
12112,25,Jits_Pract_5,3,5,80,127,1413899620
12112,25,Jits_Pract_5,0,1,48,25,1414339592
12112,25,Jits_Pract_5,1,5,63,98,1414341076
12112,25,Jits_Pract_5,2,5,80,127,1414419680
12112,25,Jits_Pract_5,3,5,56,103,1414430172
12112,25,Jits_Pract_5,0,1,48,25,1414874980
12112,25,Jits_Pract_5,1,5,63,98,1414889848
12112,25,Jits_Pract_5,2,5,56,103,1414929784
12112,25,Jits_Pract_5,3,5,80,127,1414932852
12112,25,Jits_Pract_5,0,5,56,103,1415349684
12112,25,Jits_Pract_5,1,5,63,98,1415359808
12112,25,Jits_Pract_5,2,1,48,24,1415385692
12112,25,Jits_Pract_5,3,5,80,127,1415399812
12112,25,Jits_Pract_5,0,1,48,27,1415844980
12112,25,Jits_Pract_5,1,5,56,103,1415850424
12112,25,Jits_Pract_5,2,5,63,98,1415853492
12112,25,Jits_Pract_5,3,5,80,127,1415869836
12112,25,Jits_Pract_5,0,9999,9999,9999,1409137752
12112,25,Jits_Pract_5,1,9999,9999,9999,1409637476
12112,25,Jits_Pract_5,2,9999,9999,9999,1410137144
12112,25,Jits_Pract_5,3,9999,9999,9999,1410637908
12112,25,Jits_Pract_5,4,9999,9999,9999,1411137604
12112,25,Jits_Pract_5,5,9999,9999,9999,1411637312
12112,25,Jits_Pract_5,6,9999,9999,9999,1412138048
12112,25,Jits_Pract_5,7,9999,9999,9999,1412637756
12112,25,Jits_Pract_5,8,9999,9999,9999,1413137460
12112,25,Jits_Pract_5,9,9999,9999,9999,1413637228
12112,25,Jits_Pract_5,10,9999,9999,9999,1414137960
12112,25,Jits_Pract_5,11,9999,9999,9999,1414637656
12112,25,Jits_Pract_5,12,9999,9999,9999,1415137344
12112,25,Jits_Pract_5,13,9999,9999,9999,1415638080
12112,25,Jits_Pract_5,14,9999,9999,9999,1416148032
12113,24,Jits_Pract_8,0,5,56,103,1427848644
12113,24,Jits_Pract_8,1,5,63,98,1427851664
12113,24,Jits_Pract_8,2,5,80,127,1427855088
12113,24,Jits_Pract_8,0,5,56,103,1428649204
12113,24,Jits_Pract_8,1,5,63,98,1428652380
12113,24,Jits_Pract_8,2,5,80,127,1428655432
12113,24,Jits_Pract_8,0,5,80,127,1429388532
12113,24,Jits_Pract_8,1,5,63,98,1429479064
12113,24,Jits_Pract_8,2,5,56,103,1429488960
12113,24,Jits_Pract_8,0,5,56,103,1430208892
12113,24,Jits_Pract_8,1,5,63,98,1430219240
12113,24,Jits_Pract_8,2,5,80,127,1430309144
12113,24,Jits_Pract_8,0,5,63,98,1430979108
12113,24,Jits_Pract_8,1,5,80,127,1431008708
12113,24,Jits_Pract_8,2,5,56,103,1431039280
12113,24,Jits_Pract_8,0,1,48,16,1431742748
12113,24,Jits_Pract_8,1,5,56,103,1431778664
12113,24,Jits_Pract_8,2,5,80,127,1431878972
12113,24,Jits_Pract_8,3,5,63,98,1431929248
12113,24,Jits_Pract_8,0,1,48,19,1432523544
12113,24,Jits_Pract_8,1,5,56,103,1432578500
12113,24,Jits_Pract_8,2,5,80,127,1432628536
12113,24,Jits_Pract_8,3,5,63,98,1432668476
12113,24,Jits_Pract_8,0,1,48,24,1433317244
12113,24,Jits_Pract_8,1,5,80,127,1433409044
12113,24,Jits_Pract_8,2,5,63,98,1433438556
12113,24,Jits_Pract_8,3,5,56,103,1433509208
12113,24,Jits_Pract_8,0,1,48,19,1434128984
12113,24,Jits_Pract_8,1,5,63,98,1434239280
12113,24,Jits_Pract_8,2,5,56,103,1434268956
12113,24,Jits_Pract_8,3,5,80,127,1434328324
12113,24,Jits_Pract_8,0,5,56,103,1434978824
12113,24,Jits_Pract_8,1,1,48,28,1434981360
12113,24,Jits_Pract_8,2,5,80,127,1434983004
12113,24,Jits_Pract_8,3,5,63,98,1435098548
12113,24,Jits_Pract_8,0,1,48,32,1435817988
12113,24,Jits_Pract_8,1,5,56,103,1435859216
12113,24,Jits_Pract_8,2,5,80,127,1435899228
12113,24,Jits_Pract_8,3,5,63,98,1435908676
12113,24,Jits_Pract_8,0,1,48,28,1436607484
12113,24,Jits_Pract_8,1,5,56,103,1436619120
12113,24,Jits_Pract_8,2,5,80,127,1436638756
12113,24,Jits_Pract_8,3,5,63,98,1436718536
12113,24,Jits_Pract_8,0,1,48,33,1437404980
12113,24,Jits_Pract_8,1,5,80,127,1437408912
12113,24,Jits_Pract_8,2,5,56,103,1437509000
12113,24,Jits_Pract_8,3,5,63,98,1437519344
12113,24,Jits_Pract_8,0,5,63,98,1438178864
12113,24,Jits_Pract_8,1,1,48,36,1438229564
12113,24,Jits_Pract_8,2,5,80,127,1438239100
12113,24,Jits_Pract_8,3,5,56,103,1438249444
12113,24,Jits_Pract_8,0,1,48,32,1438958960
12113,24,Jits_Pract_8,1,5,56,103,1438978388
12113,24,Jits_Pract_8,2,5,63,98,1439049112
12113,24,Jits_Pract_8,3,5,80,127,1439052328
12113,24,Jits_Pract_8,0,9999,9999,9999,1428246604
12113,24,Jits_Pract_8,1,9999,9999,9999,1429046396
12113,24,Jits_Pract_8,2,9999,9999,9999,1429846128
12113,24,Jits_Pract_8,3,9999,9999,9999,1430646836
12113,24,Jits_Pract_8,4,9999,9999,9999,1431446640
12113,24,Jits_Pract_8,5,9999,9999,9999,1432246364
12113,24,Jits_Pract_8,6,9999,9999,9999,1433046120
12113,24,Jits_Pract_8,7,9999,9999,9999,1433846848
12113,24,Jits_Pract_8,8,9999,9999,9999,1434646612
12113,24,Jits_Pract_8,9,9999,9999,9999,1435446352
12113,24,Jits_Pract_8,10,9999,9999,9999,1436246128
12113,24,Jits_Pract_8,11,9999,9999,9999,1437046860
12113,24,Jits_Pract_8,12,9999,9999,9999,1437846624
12113,24,Jits_Pract_8,13,9999,9999,9999,1438646328
12113,24,Jits_Pract_8,14,9999,9999,9999,1439446072
12114,17,Jits_Phase_5,0,5,56,103,1469731380
12114,17,Jits_Phase_5,1,5,63,98,1469734632
12114,17,Jits_Phase_5,2,5,80,127,1469737676
12114,17,Jits_Phase_5,0,5,56,103,1470231164
12114,17,Jits_Phase_5,1,5,63,98,1470234268
12114,17,Jits_Phase_5,2,5,80,127,1470237312
12114,17,Jits_Phase_5,0,5,56,103,1470730668
12114,17,Jits_Phase_5,1,5,80,127,1470740788
12114,17,Jits_Phase_5,2,5,63,98,1470761320
12114,17,Jits_Phase_5,0,5,63,98,1471181396
12114,17,Jits_Phase_5,1,5,80,127,1471210996
12114,17,Jits_Phase_5,2,5,56,103,1471221264
12114,17,Jits_Phase_5,0,5,80,127,1471741268
12114,17,Jits_Phase_5,1,5,56,103,1471750416
12114,17,Jits_Phase_5,2,5,63,98,1471781212
12114,17,Jits_Phase_5,0,5,63,98,1472230664
12114,17,Jits_Phase_5,1,5,56,103,1472260340
12114,17,Jits_Phase_5,2,5,80,127,1472270832
12114,17,Jits_Phase_5,0,5,56,103,1472681452
12114,17,Jits_Phase_5,1,5,63,98,1472730460
12114,17,Jits_Phase_5,2,5,80,127,1472751064
12114,17,Jits_Phase_5,3,1,48,31,1472769176
12114,17,Jits_Phase_5,0,5,80,127,1473181188
12114,17,Jits_Phase_5,1,1,48,28,1473231416
12114,17,Jits_Phase_5,2,5,63,98,1473232752
12114,17,Jits_Phase_5,3,5,56,103,1473271196
12114,17,Jits_Phase_5,0,5,56,103,1473680656
12114,17,Jits_Phase_5,1,5,63,98,1473710428
12114,17,Jits_Phase_5,2,5,80,127,1473781228
12114,17,Jits_Phase_5,3,1,48,32,1473795212
12114,17,Jits_Phase_5,0,5,56,103,1474180492
12114,17,Jits_Phase_5,1,5,80,127,1474240904
12114,17,Jits_Phase_5,2,1,48,25,1474256676
12114,17,Jits_Phase_5,3,5,63,98,1474270648
12114,17,Jits_Phase_5,0,5,56,103,1474690444
12114,17,Jits_Phase_5,1,5,63,98,1474700864
12114,17,Jits_Phase_5,2,1,48,24,1474714468
12114,17,Jits_Phase_5,3,5,80,127,1474740520
12114,17,Jits_Phase_5,0,5,63,98,1475181208
12114,17,Jits_Phase_5,1,1,48,25,1475206724
12114,17,Jits_Phase_5,2,5,80,127,1475260724
12114,17,Jits_Phase_5,3,5,56,103,1475271216
12114,17,Jits_Phase_5,0,5,63,98,1475730708
12114,17,Jits_Phase_5,1,1,48,25,1475734200
12114,17,Jits_Phase_5,2,5,56,103,1475770584
12114,17,Jits_Phase_5,3,5,80,127,1475773876
12114,17,Jits_Phase_5,0,5,56,103,1476190596
12114,17,Jits_Phase_5,1,5,63,98,1476200940
12114,17,Jits_Phase_5,2,5,80,127,1476240728
12114,17,Jits_Phase_5,3,1,48,27,1476246688
12114,17,Jits_Phase_5,0,5,56,103,1476681360
12114,17,Jits_Phase_5,1,5,63,98,1476684424
12114,17,Jits_Phase_5,2,5,80,127,1476700548
12114,17,Jits_Phase_5,3,1,48,31,1476705160
12114,17,Jits_Phase_5,0,5,80,127,1477191520
12114,17,Jits_Phase_5,1,1,48,29,1477195240
12114,17,Jits_Phase_5,2,5,56,103,1477201188
12114,17,Jits_Phase_5,3,5,63,98,1477271016
12114,17,Jits_Phase_5,0,5,63,98,1477680348
12114,17,Jits_Phase_5,1,5,56,103,1477701180
12114,17,Jits_Phase_5,2,1,48,28,1477709624
12114,17,Jits_Phase_5,3,5,80,127,1477781040
12114,17,Jits_Phase_5,0,5,56,103,1478190436
12114,17,Jits_Phase_5,1,1,48,28,1478193552
12114,17,Jits_Phase_5,2,5,80,127,1478231488
12114,17,Jits_Phase_5,3,5,63,98,1478240560
12114,17,Jits_Phase_5,0,5,80,127,1478681128
12114,17,Jits_Phase_5,1,1,48,29,1478695704
12114,17,Jits_Phase_5,2,5,63,98,1478710572
12114,17,Jits_Phase_5,3,5,56,103,1478750584
12114,17,Jits_Phase_5,0,1,48,25,1479191572
12114,17,Jits_Phase_5,1,5,56,103,1479201036
12114,17,Jits_Phase_5,2,5,63,98,1479231008
12114,17,Jits_Phase_5,3,5,80,127,1479281056
12114,17,Jits_Phase_5,0,1,48,27,1479701240
12114,17,Jits_Phase_5,1,5,80,127,1479702428
12114,17,Jits_Phase_5,2,5,56,103,1479740724
12114,17,Jits_Phase_5,3,5,63,98,1479751292
12114,17,Jits_Phase_5,0,5,80,127,1480191400
12114,17,Jits_Phase_5,1,1,48,25,1480212128
12114,17,Jits_Phase_5,2,5,63,98,1480231332
12114,17,Jits_Phase_5,3,5,56,103,1480290596
12114,17,Jits_Phase_5,0,5,56,103,1480691164
12114,17,Jits_Phase_5,1,5,80,127,1480701284
12114,17,Jits_Phase_5,2,1,48,27,1480720740
12114,17,Jits_Phase_5,3,5,63,98,1480781068
12114,17,Jits_Phase_5,0,5,80,127,1481191000
12114,17,Jits_Phase_5,1,1,48,24,1481247760
12114,17,Jits_Phase_5,2,5,63,98,1481251312
12114,17,Jits_Phase_5,3,5,56,103,1481280908
12114,17,Jits_Phase_5,0,5,56,103,1481690540
12114,17,Jits_Phase_5,1,5,80,127,1481751156
12114,17,Jits_Phase_5,2,1,48,24,1481768500
12114,17,Jits_Phase_5,3,5,63,98,1481790936
12114,17,Jits_Phase_5,0,5,56,103,1482241328
12114,17,Jits_Phase_5,1,1,48,24,1482242220
12114,17,Jits_Phase_5,2,5,63,98,1482250692
12114,17,Jits_Phase_5,3,5,80,127,1482254204
12114,17,Jits_Phase_5,0,5,80,127,1482691260
12114,17,Jits_Phase_5,1,1,48,25,1482724572
12114,17,Jits_Phase_5,2,5,63,98,1482781012
12114,17,Jits_Phase_5,3,5,56,103,1482791208
12114,17,Jits_Phase_5,0,5,56,103,1483190560
12114,17,Jits_Phase_5,1,5,63,98,1483193656
12114,17,Jits_Phase_5,2,5,80,127,1483197080
12114,17,Jits_Phase_5,3,1,48,24,1483220216
12114,17,Jits_Phase_5,0,1,48,22,1483684360
12114,17,Jits_Phase_5,1,5,80,127,1483710908
12114,17,Jits_Phase_5,2,5,63,98,1483761184
12114,17,Jits_Phase_5,3,5,56,103,1483790844
12114,17,Jits_Phase_5,0,1,48,25,1484182140
12114,17,Jits_Phase_5,1,5,56,103,1484191232
12114,17,Jits_Phase_5,2,5,80,127,1484201300
12114,17,Jits_Phase_5,3,5,63,98,1484271128
12114,17,Jits_Phase_5,0,1,48,20,1484682784
12114,17,Jits_Phase_5,1,5,56,103,1484701168
12114,17,Jits_Phase_5,2,5,63,98,1484720604
12114,17,Jits_Phase_5,3,5,80,127,1484780976
12114,17,Jits_Phase_5,0,5,80,127,1485181224
12114,17,Jits_Phase_5,1,1,48,23,1485199784
12114,17,Jits_Phase_5,2,5,63,98,1485251220
12114,17,Jits_Phase_5,3,5,56,103,1485271380
12114,17,Jits_Phase_5,0,5,80,127,1485700392
12114,17,Jits_Phase_5,1,5,56,103,1485710884
12114,17,Jits_Phase_5,2,1,48,27,1485712220
12114,17,Jits_Phase_5,3,5,63,98,1485720924
12114,17,Jits_Phase_5,0,5,80,127,1486191228
12114,17,Jits_Phase_5,1,5,56,103,1486210340
12114,17,Jits_Phase_5,2,1,48,23,1486214432
12114,17,Jits_Phase_5,3,5,63,98,1486281232
12114,17,Jits_Phase_5,0,1,48,25,1486698688
12114,17,Jits_Phase_5,1,5,56,103,1486701100
12114,17,Jits_Phase_5,2,5,80,127,1486730548
12114,17,Jits_Phase_5,3,5,63,98,1486751156
12114,17,Jits_Phase_5,0,1,48,28,1487182688
12114,17,Jits_Phase_5,1,5,63,98,1487191332
12114,17,Jits_Phase_5,2,5,56,103,1487250972
12114,17,Jits_Phase_5,3,5,80,127,1487280360
12114,17,Jits_Phase_5,0,5,63,98,1487680976
12114,17,Jits_Phase_5,1,5,80,127,1487684264
12114,17,Jits_Phase_5,2,1,48,27,1487701476
12114,17,Jits_Phase_5,3,5,56,103,1487770872
12114,17,Jits_Phase_5,0,1,48,26,1488174384
12114,17,Jits_Phase_5,1,5,56,103,1488201156
12114,17,Jits_Phase_5,2,5,63,98,1488230908
12114,17,Jits_Phase_5,3,5,80,127,1488270976
12114,17,Jits_Phase_5,0,1,48,24,1488675928
12114,17,Jits_Phase_5,1,5,63,98,1488700980
12114,17,Jits_Phase_5,2,5,56,103,1488740768
12114,17,Jits_Phase_5,3,5,80,127,1488761152
12114,17,Jits_Phase_5,0,1,48,25,1489178984
12114,17,Jits_Phase_5,1,5,63,98,1489210844
12114,17,Jits_Phase_5,2,5,56,103,1489250932
12114,17,Jits_Phase_5,3,5,80,127,1489261052
12114,17,Jits_Phase_5,0,1,48,26,1489680456
12114,17,Jits_Phase_5,1,5,80,127,1489691040
12114,17,Jits_Phase_5,2,5,63,98,1489760572
12114,17,Jits_Phase_5,3,5,56,103,1489781092
12114,17,Jits_Phase_5,0,5,56,103,1490180460
12114,17,Jits_Phase_5,1,5,80,127,1490201068
12114,17,Jits_Phase_5,2,1,48,27,1490205984
12114,17,Jits_Phase_5,3,5,63,98,1490240996
12114,17,Jits_Phase_5,0,1,48,27,1490684980
12114,17,Jits_Phase_5,1,5,63,98,1490690328
12114,17,Jits_Phase_5,2,5,80,127,1490711160
12114,17,Jits_Phase_5,3,5,56,103,1490750948
12114,17,Jits_Phase_5,0,5,63,98,1491191056
12114,17,Jits_Phase_5,1,1,48,24,1491204736
12114,17,Jits_Phase_5,2,5,56,103,1491210536
12114,17,Jits_Phase_5,3,5,80,127,1491221028
12114,17,Jits_Phase_5,0,5,80,127,1491691172
12114,17,Jits_Phase_5,1,5,56,103,1491711336
12114,17,Jits_Phase_5,2,1,48,21,1491713780
12114,17,Jits_Phase_5,3,5,63,98,1491740928
12114,17,Jits_Phase_5,0,1,48,22,1492190688
12114,17,Jits_Phase_5,1,5,56,103,1492261204
12114,17,Jits_Phase_5,2,5,80,127,1492264420
12114,17,Jits_Phase_5,3,5,63,98,1492280764
12114,17,Jits_Phase_5,0,5,63,98,1492680948
12114,17,Jits_Phase_5,1,5,56,103,1492711068
12114,17,Jits_Phase_5,2,1,48,24,1492741836
12114,17,Jits_Phase_5,3,5,80,127,1492771152
12114,17,Jits_Phase_5,0,1,48,25,1493226208
12114,17,Jits_Phase_5,1,5,63,98,1493260852
12114,17,Jits_Phase_5,2,5,56,103,1493270976
12114,17,Jits_Phase_5,3,5,80,127,1493281096
12114,17,Jits_Phase_5,0,5,56,103,1493720312
12114,17,Jits_Phase_5,1,1,48,26,1493729880
12114,17,Jits_Phase_5,2,5,80,127,1493751104
12114,17,Jits_Phase_5,3,5,63,98,1493761372
12114,17,Jits_Phase_5,0,1,48,29,1494220348
12114,17,Jits_Phase_5,1,5,63,98,1494261052
12114,17,Jits_Phase_5,2,5,56,103,1494271248
12114,17,Jits_Phase_5,3,5,80,127,1494290884
12114,17,Jits_Phase_5,0,5,56,103,1494691040
12114,17,Jits_Phase_5,1,1,48,24,1494749152
12114,17,Jits_Phase_5,2,5,63,98,1494750820
12114,17,Jits_Phase_5,3,5,80,127,1494753964
12114,17,Jits_Phase_5,0,5,80,127,1495211320
12114,17,Jits_Phase_5,1,5,56,103,1495220620
12114,17,Jits_Phase_5,2,1,48,28,1495254748
12114,17,Jits_Phase_5,3,5,63,98,1495291188
12114,17,Jits_Phase_5,0,5,80,127,1495700948
12114,17,Jits_Phase_5,1,5,56,103,1495770576
12114,17,Jits_Phase_5,2,1,48,24,1495772064
12114,17,Jits_Phase_5,3,5,63,98,1495780988
12114,17,Jits_Phase_5,0,5,63,98,1496240372
12114,17,Jits_Phase_5,1,1,48,28,1496245584
12114,17,Jits_Phase_5,2,5,56,103,1496250856
12114,17,Jits_Phase_5,3,5,80,127,1496271240
12114,17,Jits_Phase_5,0,5,80,127,1496691024
12114,17,Jits_Phase_5,1,1,48,29,1496735340
12114,17,Jits_Phase_5,2,5,63,98,1496750384
12114,17,Jits_Phase_5,3,5,56,103,1496791292
12114,17,Jits_Phase_5,0,1,48,28,1497215316
12114,17,Jits_Phase_5,1,5,56,103,1497230780
12114,17,Jits_Phase_5,2,5,63,98,1497241052
12114,17,Jits_Phase_5,3,5,80,127,1497280864
12114,17,Jits_Phase_5,0,5,56,103,1497690460
12114,17,Jits_Phase_5,1,1,48,22,1497701220
12114,17,Jits_Phase_5,2,5,80,127,1497721324
12114,17,Jits_Phase_5,3,5,63,98,1497771400
12114,17,Jits_Phase_5,0,1,48,27,1498209072
12114,17,Jits_Phase_5,1,5,56,103,1498231116
12114,17,Jits_Phase_5,2,5,63,98,1498271052
12114,17,Jits_Phase_5,3,5,80,127,1498274268
12114,17,Jits_Phase_5,0,1,48,27,1498692544
12114,17,Jits_Phase_5,1,5,56,103,1498730936
12114,17,Jits_Phase_5,2,5,63,98,1498741204
12114,17,Jits_Phase_5,3,5,80,127,1498760692
12114,17,Jits_Phase_5,0,1,48,24,1499174916
12114,17,Jits_Phase_5,1,5,56,103,1499190600
12114,17,Jits_Phase_5,2,5,80,127,1499193744
12114,17,Jits_Phase_5,3,5,63,98,1499230540
12114,17,Jits_Phase_5,0,1,48,28,1499648440
12114,17,Jits_Phase_5,1,5,63,98,1499731248
12114,17,Jits_Phase_5,2,5,56,103,1499761128
12114,17,Jits_Phase_5,3,5,80,127,1499780392
12114,17,Jits_Phase_5,0,1,48,27,1500154844
12114,17,Jits_Phase_5,1,5,80,127,1500201252
12114,17,Jits_Phase_5,2,5,56,103,1500210700
12114,17,Jits_Phase_5,3,5,63,98,1500220896
12114,17,Jits_Phase_5,0,1,48,25,1500655792
12114,17,Jits_Phase_5,1,5,56,103,1500701072
12114,17,Jits_Phase_5,2,5,80,127,1500741012
12114,17,Jits_Phase_5,3,5,63,98,1500770892
12114,17,Jits_Phase_5,0,1,48,27,1501155988
12114,17,Jits_Phase_5,1,5,63,98,1501210940
12114,17,Jits_Phase_5,2,5,80,127,1501221284
12114,17,Jits_Phase_5,3,5,56,103,1501230584
12114,17,Jits_Phase_5,0,1,48,25,1501675672
12114,17,Jits_Phase_5,1,5,56,103,1501700424
12114,17,Jits_Phase_5,2,5,63,98,1501771152
12114,17,Jits_Phase_5,3,5,80,127,1501781408
12114,17,Jits_Phase_5,0,1,48,26,1502168616
12114,17,Jits_Phase_5,1,5,80,127,1502210364
12114,17,Jits_Phase_5,2,5,56,103,1502220932
12114,17,Jits_Phase_5,3,5,63,98,1502270968
12114,17,Jits_Phase_5,0,1,48,26,1502699372
12114,17,Jits_Phase_5,1,5,80,127,1502721420
12114,17,Jits_Phase_5,2,5,56,103,1502780836
12114,17,Jits_Phase_5,3,5,63,98,1502810572
12114,17,Jits_Phase_5,0,1,48,27,1503199576
12114,17,Jits_Phase_5,1,5,56,103,1503221096
12114,17,Jits_Phase_5,2,5,80,127,1503224164
12114,17,Jits_Phase_5,3,5,63,98,1503261108
12114,17,Jits_Phase_5,0,1,48,25,1503724932
12114,17,Jits_Phase_5,1,5,56,103,1503750656
12114,17,Jits_Phase_5,2,5,63,98,1503781380
12114,17,Jits_Phase_5,3,5,80,127,1503790676
12114,17,Jits_Phase_5,0,1,48,26,1504235700
12114,17,Jits_Phase_5,1,5,63,98,1504260528
12114,17,Jits_Phase_5,2,5,80,127,1504270648
12114,17,Jits_Phase_5,3,5,56,103,1504281068
12114,17,Jits_Phase_5,0,5,80,127,1504710988
12114,17,Jits_Phase_5,1,1,48,27,1504724740
12114,17,Jits_Phase_5,2,5,56,103,1504761180
12114,17,Jits_Phase_5,3,5,63,98,1504764396
12114,17,Jits_Phase_5,0,1,48,25,1505231460
12114,17,Jits_Phase_5,1,5,56,103,1505240552
12114,17,Jits_Phase_5,2,5,80,127,1505260860
12114,17,Jits_Phase_5,3,5,63,98,1505271132
12114,17,Jits_Phase_5,0,5,63,98,1505720828
12114,17,Jits_Phase_5,1,1,48,22,1505733384
12114,17,Jits_Phase_5,2,5,56,103,1505751620
12114,17,Jits_Phase_5,3,5,80,127,1505770804
12114,17,Jits_Phase_5,0,1,48,27,1506217984
12114,17,Jits_Phase_5,1,5,56,103,1506230832
12114,17,Jits_Phase_5,2,5,80,127,1506240952
12114,17,Jits_Phase_5,3,5,63,98,1506310628
12114,17,Jits_Phase_5,0,1,48,27,1506695688
12114,17,Jits_Phase_5,1,5,63,98,1506721192
12114,17,Jits_Phase_5,2,5,80,127,1506760932
12114,17,Jits_Phase_5,3,5,56,103,1506800928
12114,17,Jits_Phase_5,0,1,48,25,1507230764
12114,17,Jits_Phase_5,1,5,56,103,1507232252
12114,17,Jits_Phase_5,2,5,63,98,1507241352
12114,17,Jits_Phase_5,3,5,80,127,1507260688
12114,17,Jits_Phase_5,0,1,48,26,1507736016
12114,17,Jits_Phase_5,1,5,63,98,1507770688
12114,17,Jits_Phase_5,2,5,80,127,1507791072
12114,17,Jits_Phase_5,3,5,56,103,1507810708
12114,17,Jits_Phase_5,0,5,56,103,1508211012
12114,17,Jits_Phase_5,1,1,48,31,1508263080
12114,17,Jits_Phase_5,2,5,80,127,1508290900
12114,17,Jits_Phase_5,3,5,63,98,1508301096
12114,17,Jits_Phase_5,0,1,48,28,1508744376
12114,17,Jits_Phase_5,1,5,80,127,1508750772
12114,17,Jits_Phase_5,2,5,63,98,1508761116
12114,17,Jits_Phase_5,3,5,56,103,1508790668
12114,17,Jits_Phase_5,0,5,63,98,1509210600
12114,17,Jits_Phase_5,1,1,48,27,1509237460
12114,17,Jits_Phase_5,2,5,80,127,1509250456
12114,17,Jits_Phase_5,3,5,56,103,1509310792
12114,17,Jits_Phase_5,0,5,63,98,1509720688
12114,17,Jits_Phase_5,1,5,56,103,1509770592
12114,17,Jits_Phase_5,2,1,48,27,1509774756
12114,17,Jits_Phase_5,3,5,80,127,1509801404
12114,17,Jits_Phase_5,0,5,80,127,1510221264
12114,17,Jits_Phase_5,1,5,63,98,1510231608
12114,17,Jits_Phase_5,2,5,56,103,1510301060
12114,17,Jits_Phase_5,3,1,48,27,1510315440
12114,17,Jits_Phase_5,0,5,80,127,1510781268
12114,17,Jits_Phase_5,1,5,56,103,1510790784
12114,17,Jits_Phase_5,2,5,63,98,1510793776
12114,17,Jits_Phase_5,3,1,48,27,1510818960
12114,17,Jits_Phase_5,0,5,56,103,1511220788
12114,17,Jits_Phase_5,1,5,80,127,1511241024
12114,17,Jits_Phase_5,2,5,63,98,1511251592
12114,17,Jits_Phase_5,3,1,48,31,1511330152
12114,17,Jits_Phase_5,0,5,63,98,1511730644
12114,17,Jits_Phase_5,1,5,56,103,1511770508
12114,17,Jits_Phase_5,2,5,80,127,1511790892
12114,17,Jits_Phase_5,3,1,48,28,1511856052
12114,17,Jits_Phase_5,0,5,63,98,1512231444
12114,17,Jits_Phase_5,1,5,56,103,1512290712
12114,17,Jits_Phase_5,2,5,80,127,1512293704
12114,17,Jits_Phase_5,3,1,48,27,1512372736
12114,17,Jits_Phase_5,0,5,56,103,1512691108
12114,17,Jits_Phase_5,1,5,80,127,1512710444
12114,17,Jits_Phase_5,2,5,63,98,1512750380
12114,17,Jits_Phase_5,3,1,48,29,1512854104
12114,17,Jits_Phase_5,0,5,56,103,1513220392
12114,17,Jits_Phase_5,1,5,63,98,1513241076
12114,17,Jits_Phase_5,2,5,80,127,1513251196
12114,17,Jits_Phase_5,3,1,48,26,1513335436
12114,17,Jits_Phase_5,0,5,80,127,1513690488
12114,17,Jits_Phase_5,1,5,56,103,1513721208
12114,17,Jits_Phase_5,2,5,63,98,1513761148
12114,17,Jits_Phase_5,3,1,48,27,1513807936
12114,17,Jits_Phase_5,0,5,80,127,1514200512
12114,17,Jits_Phase_5,1,5,56,103,1514220896
12114,17,Jits_Phase_5,2,1,48,31,1514272632
12114,17,Jits_Phase_5,3,5,63,98,1514281424
12114,17,Jits_Phase_5,0,5,56,103,1514711660
12114,17,Jits_Phase_5,1,5,80,127,1514730776
12114,17,Jits_Phase_5,2,1,48,32,1514745956
12114,17,Jits_Phase_5,3,5,63,98,1514791380
12114,17,Jits_Phase_5,0,5,80,127,1515190604
12114,17,Jits_Phase_5,1,5,56,103,1515201020
12114,17,Jits_Phase_5,2,5,63,98,1515240808
12114,17,Jits_Phase_5,3,1,48,28,1515249400
12114,17,Jits_Phase_5,0,5,63,98,1515691560
12114,17,Jits_Phase_5,1,1,48,35,1515694900
12114,17,Jits_Phase_5,2,5,56,103,1515731412
12114,17,Jits_Phase_5,3,5,80,127,1515734556
12114,17,Jits_Phase_5,0,1,48,31,1516196128
12114,17,Jits_Phase_5,1,5,63,98,1516210472
12114,17,Jits_Phase_5,2,5,80,127,1516250632
12114,17,Jits_Phase_5,3,5,56,103,1516281204
12114,17,Jits_Phase_5,0,1,48,37,1516688280
12114,17,Jits_Phase_5,1,5,56,103,1516701056
12114,17,Jits_Phase_5,2,5,63,98,1516711648
12114,17,Jits_Phase_5,3,5,80,127,1516741024
12114,17,Jits_Phase_5,0,5,80,127,1517190692
12114,17,Jits_Phase_5,1,1,48,36,1517203480
12114,17,Jits_Phase_5,2,5,63,98,1517261436
12114,17,Jits_Phase_5,3,5,56,103,1517271632
12114,17,Jits_Phase_5,0,5,63,98,1517691428
12114,17,Jits_Phase_5,1,1,48,32,1517703540
12114,17,Jits_Phase_5,2,5,56,103,1517760980
12114,17,Jits_Phase_5,3,5,80,127,1517771544
12114,17,Jits_Phase_5,0,5,63,98,1518170580
12114,17,Jits_Phase_5,1,5,56,103,1518190816
12114,17,Jits_Phase_5,2,1,48,35,1518206512
12114,17,Jits_Phase_5,3,5,80,127,1518230816
12114,17,Jits_Phase_5,0,5,56,103,1518650704
12114,17,Jits_Phase_5,1,5,63,98,1518661048
12114,17,Jits_Phase_5,2,1,48,34,1518703420
12114,17,Jits_Phase_5,3,5,80,127,1518740832
12114,17,Jits_Phase_5,0,5,63,98,1519141624
12114,17,Jits_Phase_5,1,1,48,32,1519167516
12114,17,Jits_Phase_5,2,5,56,103,1519170920
12114,17,Jits_Phase_5,3,5,80,127,1519210780
12114,17,Jits_Phase_5,0,1,48,32,1519630556
12114,17,Jits_Phase_5,1,5,56,103,1519640992
12114,17,Jits_Phase_5,2,5,63,98,1519680856
12114,17,Jits_Phase_5,3,5,80,127,1519720792
12114,17,Jits_Phase_5,0,1,48,35,1520116884
12114,17,Jits_Phase_5,1,5,80,127,1520140668
12114,17,Jits_Phase_5,2,5,56,103,1520220520
12114,17,Jits_Phase_5,3,5,63,98,1520230640
12114,17,Jits_Phase_5,0,1,48,34,1520648252
12114,17,Jits_Phase_5,1,5,56,103,1520681396
12114,17,Jits_Phase_5,2,5,63,98,1520684464
12114,17,Jits_Phase_5,3,5,80,127,1520690620
12114,17,Jits_Phase_5,0,1,48,35,1521164476
12114,17,Jits_Phase_5,1,5,56,103,1521210732
12114,17,Jits_Phase_5,2,5,63,98,1521231412
12114,17,Jits_Phase_5,3,5,80,127,1521240488
12114,17,Jits_Phase_5,0,5,63,98,1521670484
12114,17,Jits_Phase_5,1,1,48,36,1521671448
12114,17,Jits_Phase_5,2,5,80,127,1521680820
12114,17,Jits_Phase_5,3,5,56,103,1521701652
12114,17,Jits_Phase_5,0,1,48,33,1522129592
12114,17,Jits_Phase_5,1,5,63,98,1522171344
12114,17,Jits_Phase_5,2,5,56,103,1522251196
12114,17,Jits_Phase_5,3,5,80,127,1522254112
12114,17,Jits_Phase_5,0,1,48,30,1522662220
12114,17,Jits_Phase_5,1,5,63,98,1522670940
12114,17,Jits_Phase_5,2,5,56,103,1522690504
12114,17,Jits_Phase_5,3,5,80,127,1522721148
12114,17,Jits_Phase_5,0,5,56,103,1523170624
12114,17,Jits_Phase_5,1,1,48,36,1523189640
12114,17,Jits_Phase_5,2,5,63,98,1523191224
12114,17,Jits_Phase_5,3,5,80,127,1523201492
12114,17,Jits_Phase_5,0,1,48,35,1523684884
12114,17,Jits_Phase_5,1,5,56,103,1523701244
12114,17,Jits_Phase_5,2,5,63,98,1523730844
12114,17,Jits_Phase_5,3,5,80,127,1523734432
12114,17,Jits_Phase_5,0,5,56,103,1524150504
12114,17,Jits_Phase_5,1,1,48,37,1524189760
12114,17,Jits_Phase_5,2,5,63,98,1524191408
12114,17,Jits_Phase_5,3,5,80,127,1524251192
12114,17,Jits_Phase_5,0,1,48,37,1524662296
12114,17,Jits_Phase_5,1,5,56,103,1524670788
12114,17,Jits_Phase_5,2,5,63,98,1524681280
12114,17,Jits_Phase_5,3,5,80,127,1524740396
12114,17,Jits_Phase_5,0,1,48,36,1525168880
12114,17,Jits_Phase_5,1,5,56,103,1525170388
12114,17,Jits_Phase_5,2,5,80,127,1525190920
12114,17,Jits_Phase_5,3,5,63,98,1525220668
12114,17,Jits_Phase_5,0,1,48,38,1525651880
12114,17,Jits_Phase_5,1,5,80,127,1525671408
12114,17,Jits_Phase_5,2,5,56,103,1525680480
12114,17,Jits_Phase_5,3,5,63,98,1525700940
12114,17,Jits_Phase_5,0,1,48,36,1526142708
12114,17,Jits_Phase_5,1,5,63,98,1526160868
12114,17,Jits_Phase_5,2,5,80,127,1526240748
12114,17,Jits_Phase_5,3,5,56,103,1526250792
12114,17,Jits_Phase_5,0,1,48,40,1526616168
12114,17,Jits_Phase_5,1,5,80,127,1526750688
12114,17,Jits_Phase_5,2,5,56,103,1526771372
12114,17,Jits_Phase_5,3,5,63,98,1526774360
12114,17,Jits_Phase_5,0,1,48,32,1527145048
12114,17,Jits_Phase_5,1,5,63,98,1527241000
12114,17,Jits_Phase_5,2,5,80,127,1527245248
12114,17,Jits_Phase_5,3,5,56,103,1527300476
12114,17,Jits_Phase_5,0,1,48,27,1527677380
12114,17,Jits_Phase_5,1,5,56,103,1527721488
12114,17,Jits_Phase_5,2,5,80,127,1527730488
12114,17,Jits_Phase_5,3,5,63,98,1527770500
12114,17,Jits_Phase_5,0,5,56,103,1528200544
12114,17,Jits_Phase_5,1,1,48,29,1528217892
12114,17,Jits_Phase_5,2,5,63,98,1528261100
12114,17,Jits_Phase_5,3,5,80,127,1528271444
12114,17,Jits_Phase_5,0,5,63,98,1528710500
12114,17,Jits_Phase_5,1,1,48,30,1528712880
12114,17,Jits_Phase_5,2,5,80,127,1528750604
12114,17,Jits_Phase_5,3,5,56,103,1528791436
12114,17,Jits_Phase_5,0,5,56,103,1529211440
12114,17,Jits_Phase_5,1,1,48,30,1529218080
12114,17,Jits_Phase_5,2,5,63,98,1529291556
12114,17,Jits_Phase_5,3,5,80,127,1529294692
12114,17,Jits_Phase_5,0,1,48,28,1529725992
12114,17,Jits_Phase_5,1,5,80,127,1529771372
12114,17,Jits_Phase_5,2,5,56,103,1529801268
12114,17,Jits_Phase_5,3,5,63,98,1529804412
12114,17,Jits_Phase_5,0,5,56,103,1530231392
12114,17,Jits_Phase_5,1,1,48,29,1530250508
12114,17,Jits_Phase_5,2,5,80,127,1530251844
12114,17,Jits_Phase_5,3,5,63,98,1530290536
12114,17,Jits_Phase_5,0,5,80,127,1530711384
12114,17,Jits_Phase_5,1,5,63,98,1530731168
12114,17,Jits_Phase_5,2,1,48,32,1530751148
12114,17,Jits_Phase_5,3,5,56,103,1530791420
12114,17,Jits_Phase_5,0,5,63,98,1531221484
12114,17,Jits_Phase_5,1,5,56,103,1531230632
12114,17,Jits_Phase_5,2,1,48,32,1531250840
12114,17,Jits_Phase_5,3,5,80,127,1531280824
12114,17,Jits_Phase_5,0,5,56,103,1531710748
12114,17,Jits_Phase_5,1,5,63,98,1531731356
12114,17,Jits_Phase_5,2,5,80,127,1531740580
12114,17,Jits_Phase_5,3,1,48,30,1531758520
12114,17,Jits_Phase_5,0,5,56,103,1532201212
12114,17,Jits_Phase_5,1,5,63,98,1532204284
12114,17,Jits_Phase_5,2,5,80,127,1532220776
12114,17,Jits_Phase_5,3,1,48,32,1532238716
12114,17,Jits_Phase_5,0,1,48,28,1532719296
12114,17,Jits_Phase_5,1,5,63,98,1532741116
12114,17,Jits_Phase_5,2,5,56,103,1532770716
12114,17,Jits_Phase_5,3,5,80,127,1532801360
12114,17,Jits_Phase_5,0,5,80,127,1533200872
12114,17,Jits_Phase_5,1,1,48,31,1533221900
12114,17,Jits_Phase_5,2,5,56,103,1533290920
12114,17,Jits_Phase_5,3,5,63,98,1533294136
12114,17,Jits_Phase_5,0,5,56,103,1533700400
12114,17,Jits_Phase_5,1,5,80,127,1533703468
12114,17,Jits_Phase_5,2,1,48,31,1533778800
12114,17,Jits_Phase_5,3,5,63,98,1533781308
12114,17,Jits_Phase_5,0,5,80,127,1534201280
12114,17,Jits_Phase_5,1,5,63,98,1534260548
12114,17,Jits_Phase_5,2,1,48,31,1534262484
12114,17,Jits_Phase_5,3,5,56,103,1534291260
12114,17,Jits_Phase_5,0,5,63,98,1534701044
12114,17,Jits_Phase_5,1,5,80,127,1534711240
12114,17,Jits_Phase_5,2,1,48,36,1534765968
12114,17,Jits_Phase_5,3,5,56,103,1534780908
12114,17,Jits_Phase_5,0,1,48,30,1535240096
12114,17,Jits_Phase_5,1,5,56,103,1535261244
12114,17,Jits_Phase_5,2,5,80,127,1535290920
12114,17,Jits_Phase_5,3,5,63,98,1535341104
12114,17,Jits_Phase_5,0,1,48,35,1535772428
12114,17,Jits_Phase_5,1,5,63,98,1535851196
12114,17,Jits_Phase_5,2,5,56,103,1535880556
12114,17,Jits_Phase_5,3,5,80,127,1535883696
12114,17,Jits_Phase_5,0,5,63,98,1536350500
12114,17,Jits_Phase_5,1,1,48,34,1536359620
12114,17,Jits_Phase_5,2,5,80,127,1536371176
12114,17,Jits_Phase_5,3,5,56,103,1536381148
12114,17,Jits_Phase_5,0,5,56,103,1536860512
12114,17,Jits_Phase_5,1,5,63,98,1536863656
12114,17,Jits_Phase_5,2,1,48,35,1536866700
12114,17,Jits_Phase_5,3,5,80,127,1536881112
12114,17,Jits_Phase_5,0,5,56,103,1537311200
12114,17,Jits_Phase_5,1,5,63,98,1537321468
12114,17,Jits_Phase_5,2,5,80,127,1537351216
12114,17,Jits_Phase_5,3,1,48,36,1537354936
12114,17,Jits_Phase_5,0,5,63,98,1537831260
12114,17,Jits_Phase_5,1,5,80,127,1537850672
12114,17,Jits_Phase_5,2,1,48,36,1537857684
12114,17,Jits_Phase_5,3,5,56,103,1537890528
12114,17,Jits_Phase_5,0,1,48,35,1538340792
12114,17,Jits_Phase_5,1,5,56,103,1538360672
12114,17,Jits_Phase_5,2,5,63,98,1538400684
12114,17,Jits_Phase_5,3,5,80,127,1538403972
12114,17,Jits_Phase_5,0,5,80,127,1538801236
12114,17,Jits_Phase_5,1,5,56,103,1538840876
12114,17,Jits_Phase_5,2,1,48,29,1538857844
12114,17,Jits_Phase_5,3,5,63,98,1538891068
12114,17,Jits_Phase_5,0,5,56,103,1539361312
12114,17,Jits_Phase_5,1,1,48,29,1539371952
12114,17,Jits_Phase_5,2,5,80,127,1539372992
12114,17,Jits_Phase_5,3,5,63,98,1539401024
12114,17,Jits_Phase_5,0,5,56,103,1539810808
12114,17,Jits_Phase_5,1,5,80,127,1539850596
12114,17,Jits_Phase_5,2,1,48,38,1539882928
12114,17,Jits_Phase_5,3,5,63,98,1539900640
12114,17,Jits_Phase_5,0,5,56,103,1540311472
12114,17,Jits_Phase_5,1,5,80,127,1540351336
12114,17,Jits_Phase_5,2,5,63,98,1540400488
12114,17,Jits_Phase_5,3,1,48,32,1540417836
12114,17,Jits_Phase_5,0,5,80,127,1540801124
12114,17,Jits_Phase_5,1,5,63,98,1540880620
12114,17,Jits_Phase_5,2,5,56,103,1540891112
12114,17,Jits_Phase_5,3,1,48,28,1540947340
12114,17,Jits_Phase_5,0,5,80,127,1541350636
12114,17,Jits_Phase_5,1,5,56,103,1541361204
12114,17,Jits_Phase_5,2,5,63,98,1541380392
12114,17,Jits_Phase_5,3,1,48,31,1541461716
12114,17,Jits_Phase_5,0,5,63,98,1541820960
12114,17,Jits_Phase_5,1,5,56,103,1541890412
12114,17,Jits_Phase_5,2,5,80,127,1541893404
12114,17,Jits_Phase_5,3,1,48,24,1541960808
12114,17,Jits_Phase_5,0,5,80,127,1542311260
12114,17,Jits_Phase_5,1,5,63,98,1542360488
12114,17,Jits_Phase_5,2,5,56,103,1542401320
12114,17,Jits_Phase_5,3,1,48,26,1542482868
12114,17,Jits_Phase_5,0,5,63,98,1542851032
12114,17,Jits_Phase_5,1,5,56,103,1542890820
12114,17,Jits_Phase_5,2,5,80,127,1542901312
12114,17,Jits_Phase_5,3,1,48,27,1542948696
12114,17,Jits_Phase_5,0,5,63,98,1543341344
12114,17,Jits_Phase_5,1,5,56,103,1543361052
12114,17,Jits_Phase_5,2,1,48,30,1543378548
12114,17,Jits_Phase_5,3,5,80,127,1543381356
12114,17,Jits_Phase_5,0,5,80,127,1543801212
12114,17,Jits_Phase_5,1,5,56,103,1543810436
12114,17,Jits_Phase_5,2,5,63,98,1543830968
12114,17,Jits_Phase_5,3,1,48,29,1543884080
12114,17,Jits_Phase_5,0,5,63,98,1544330792
12114,17,Jits_Phase_5,1,5,56,103,1544370608
12114,17,Jits_Phase_5,2,1,48,28,1544401180
12114,17,Jits_Phase_5,3,5,80,127,1544402588
12114,17,Jits_Phase_5,0,5,56,103,1544791428
12114,17,Jits_Phase_5,1,5,63,98,1544820956
12114,17,Jits_Phase_5,2,5,80,127,1544850928
12114,17,Jits_Phase_5,3,1,48,31,1544875420
12114,17,Jits_Phase_5,0,5,80,127,1545211120
12114,17,Jits_Phase_5,1,5,56,103,1545281092
12114,17,Jits_Phase_5,2,5,63,98,1545284012
12114,17,Jits_Phase_5,3,1,48,32,1545315600
12114,17,Jits_Phase_5,0,5,56,103,1545721064
12114,17,Jits_Phase_5,1,5,63,98,1545771492
12114,17,Jits_Phase_5,2,5,80,127,1545801164
12114,17,Jits_Phase_5,3,1,48,31,1545811108
12114,17,Jits_Phase_5,0,5,63,98,1546200380
12114,17,Jits_Phase_5,1,5,80,127,1546203964
12114,17,Jits_Phase_5,2,5,56,103,1546260988
12114,17,Jits_Phase_5,3,1,48,31,1546272348
12114,17,Jits_Phase_5,0,5,56,103,1546731056
12114,17,Jits_Phase_5,1,5,80,127,1546741104
12114,17,Jits_Phase_5,2,1,48,30,1546773064
12114,17,Jits_Phase_5,3,5,63,98,1546791296
12114,17,Jits_Phase_5,0,5,63,98,1547201004
12114,17,Jits_Phase_5,1,5,56,103,1547211124
12114,17,Jits_Phase_5,2,5,80,127,1547241096
12114,17,Jits_Phase_5,3,1,48,36,1547263020
12114,17,Jits_Phase_5,0,5,63,98,1547731536
12114,17,Jits_Phase_5,1,5,80,127,1547734900
12114,17,Jits_Phase_5,2,1,48,28,1547743872
12114,17,Jits_Phase_5,3,5,56,103,1547761128
12114,17,Jits_Phase_5,0,1,48,31,1548238652
12114,17,Jits_Phase_5,1,5,63,98,1548250456
12114,17,Jits_Phase_5,2,5,56,103,1548270912
12114,17,Jits_Phase_5,3,5,80,127,1548274052
12114,17,Jits_Phase_5,0,5,63,98,1548711168
12114,17,Jits_Phase_5,1,1,48,29,1548748820
12114,17,Jits_Phase_5,2,5,56,103,1548780992
12114,17,Jits_Phase_5,3,5,80,127,1548801376
12114,17,Jits_Phase_5,0,5,56,103,1549200932
12114,17,Jits_Phase_5,1,5,63,98,1549211052
12114,17,Jits_Phase_5,2,1,48,34,1549225284
12114,17,Jits_Phase_5,3,5,80,127,1549301048
12114,17,Jits_Phase_5,0,1,48,32,1549696384
12114,17,Jits_Phase_5,1,5,56,103,1549720992
12114,17,Jits_Phase_5,2,5,80,127,1549761028
12114,17,Jits_Phase_5,3,5,63,98,1549771076
12114,17,Jits_Phase_5,0,1,48,29,1550190152
12114,17,Jits_Phase_5,1,5,56,103,1550241068
12114,17,Jits_Phase_5,2,5,63,98,1550270816
12114,17,Jits_Phase_5,3,5,80,127,1550300476
12114,17,Jits_Phase_5,0,1,48,27,1550683380
12114,17,Jits_Phase_5,1,5,80,127,1550701088
12114,17,Jits_Phase_5,2,5,63,98,1550740876
12114,17,Jits_Phase_5,3,5,56,103,1550761208
12114,17,Jits_Phase_5,0,1,48,30,1551187756
12114,17,Jits_Phase_5,1,5,56,103,1551240684
12114,17,Jits_Phase_5,2,5,80,127,1551260996
12114,17,Jits_Phase_5,3,5,63,98,1551280356
12114,17,Jits_Phase_5,0,1,48,30,1551696056
12114,17,Jits_Phase_5,1,5,63,98,1551710548
12114,17,Jits_Phase_5,2,5,56,103,1551720816
12114,17,Jits_Phase_5,3,5,80,127,1551781228
12114,17,Jits_Phase_5,0,1,48,31,1552189448
12114,17,Jits_Phase_5,1,5,56,103,1552211340
12114,17,Jits_Phase_5,2,5,63,98,1552280944
12114,17,Jits_Phase_5,3,5,80,127,1552301412
12114,17,Jits_Phase_5,0,1,48,26,1552710644
12114,17,Jits_Phase_5,1,5,56,103,1552712136
12114,17,Jits_Phase_5,2,5,63,98,1552740768
12114,17,Jits_Phase_5,3,5,80,127,1552780700
12114,17,Jits_Phase_5,0,1,48,27,1553196424
12114,17,Jits_Phase_5,1,5,63,98,1553200652
12114,17,Jits_Phase_5,2,5,56,103,1553250852
12114,17,Jits_Phase_5,3,5,80,127,1553260972
12114,17,Jits_Phase_5,0,1,48,29,1553676544
12114,17,Jits_Phase_5,1,5,56,103,1553741232
12114,17,Jits_Phase_5,2,5,63,98,1553791268
12114,17,Jits_Phase_5,3,5,80,127,1553800716
12114,17,Jits_Phase_5,0,1,48,29,1554174280
12114,17,Jits_Phase_5,1,5,56,103,1554211392
12114,17,Jits_Phase_5,2,5,63,98,1554221884
12114,17,Jits_Phase_5,3,5,80,127,1554301512
12114,17,Jits_Phase_5,0,9999,9999,9999,1469978740
12114,17,Jits_Phase_5,1,9999,9999,9999,1470478448
12114,17,Jits_Phase_5,2,9999,9999,9999,1470978104
12114,17,Jits_Phase_5,3,9999,9999,9999,1471478876
12114,17,Jits_Phase_5,4,9999,9999,9999,1471978592
12114,17,Jits_Phase_5,5,9999,9999,9999,1472478328
12114,17,Jits_Phase_5,6,9999,9999,9999,1472979060
12114,17,Jits_Phase_5,7,9999,9999,9999,1473478748
12114,17,Jits_Phase_5,8,9999,9999,9999,1473978436
12114,17,Jits_Phase_5,9,9999,9999,9999,1474478200
12114,17,Jits_Phase_5,10,9999,9999,9999,1474978908
12114,17,Jits_Phase_5,11,9999,9999,9999,1475478596
12114,17,Jits_Phase_5,12,9999,9999,9999,1475978340
12114,17,Jits_Phase_5,13,9999,9999,9999,1476479056
12114,17,Jits_Phase_5,14,9999,9999,9999,1476978804
12114,17,Jits_Phase_5,15,9999,9999,9999,1477478492
12114,17,Jits_Phase_5,16,9999,9999,9999,1477978180
12114,17,Jits_Phase_5,17,9999,9999,9999,1478478972
12114,17,Jits_Phase_5,18,9999,9999,9999,1478978660
12114,17,Jits_Phase_5,19,9999,9999,9999,1479478348
12114,17,Jits_Phase_5,20,9999,9999,9999,1479979072
12114,17,Jits_Phase_5,21,9999,9999,9999,1480489080
12114,17,Jits_Phase_5,22,9999,9999,9999,1480988768
12114,17,Jits_Phase_5,23,9999,9999,9999,1481488460
12114,17,Jits_Phase_5,24,9999,9999,9999,1481988152
12114,17,Jits_Phase_5,25,9999,9999,9999,1482488956
12114,17,Jits_Phase_5,26,9999,9999,9999,1482988644
12114,17,Jits_Phase_5,27,9999,9999,9999,1483488384
12114,17,Jits_Phase_5,28,9999,9999,9999,1483989048
12114,17,Jits_Phase_5,29,9999,9999,9999,1484488792
12114,17,Jits_Phase_5,30,9999,9999,9999,1484978284
12114,17,Jits_Phase_5,31,9999,9999,9999,1485479004
12114,17,Jits_Phase_5,32,9999,9999,9999,1485978740
12114,17,Jits_Phase_5,33,9999,9999,9999,1486478424
12114,17,Jits_Phase_5,34,9999,9999,9999,1486978112
12114,17,Jits_Phase_5,35,9999,9999,9999,1487478912
12114,17,Jits_Phase_5,36,9999,9999,9999,1487978572
12114,17,Jits_Phase_5,37,9999,9999,9999,1488478320
12114,17,Jits_Phase_5,38,9999,9999,9999,1488979044
12114,17,Jits_Phase_5,39,9999,9999,9999,1489478716
12114,17,Jits_Phase_5,40,9999,9999,9999,1489978468
12114,17,Jits_Phase_5,41,9999,9999,9999,1490478140
12114,17,Jits_Phase_5,42,9999,9999,9999,1490978872
12114,17,Jits_Phase_5,43,9999,9999,9999,1491478620
12114,17,Jits_Phase_5,44,9999,9999,9999,1491978296
12114,17,Jits_Phase_5,45,9999,9999,9999,1492479028
12114,17,Jits_Phase_5,46,9999,9999,9999,1492978780
12114,17,Jits_Phase_5,47,9999,9999,9999,1493478460
12114,17,Jits_Phase_5,48,9999,9999,9999,1493988476
12114,17,Jits_Phase_5,49,9999,9999,9999,1494488172
12114,17,Jits_Phase_5,50,9999,9999,9999,1494988864
12114,17,Jits_Phase_5,51,9999,9999,9999,1495488628
12114,17,Jits_Phase_5,52,9999,9999,9999,1495988316
12114,17,Jits_Phase_5,53,9999,9999,9999,1496489056
12114,17,Jits_Phase_5,54,9999,9999,9999,1496988780
12114,17,Jits_Phase_5,55,9999,9999,9999,1497488468
12114,17,Jits_Phase_5,56,9999,9999,9999,1497988216
12114,17,Jits_Phase_5,57,9999,9999,9999,1498488940
12114,17,Jits_Phase_5,58,9999,9999,9999,1498988620
12114,17,Jits_Phase_5,59,9999,9999,9999,1499488356
12114,17,Jits_Phase_5,60,9999,9999,9999,1499989080
12114,17,Jits_Phase_5,61,9999,9999,9999,1500488824
12114,17,Jits_Phase_5,62,9999,9999,9999,1500988500
12114,17,Jits_Phase_5,63,9999,9999,9999,1501488248
12114,17,Jits_Phase_5,64,9999,9999,9999,1502008380
12114,17,Jits_Phase_5,65,9999,9999,9999,1502508124
12114,17,Jits_Phase_5,66,9999,9999,9999,1503008848
12114,17,Jits_Phase_5,67,9999,9999,9999,1503508588
12114,17,Jits_Phase_5,68,9999,9999,9999,1504008268
12114,17,Jits_Phase_5,69,9999,9999,9999,1504508996
12114,17,Jits_Phase_5,70,9999,9999,9999,1505008732
12114,17,Jits_Phase_5,71,9999,9999,9999,1505508424
12114,17,Jits_Phase_5,72,9999,9999,9999,1506008172
12114,17,Jits_Phase_5,73,9999,9999,9999,1506508892
12114,17,Jits_Phase_5,74,9999,9999,9999,1507008568
12114,17,Jits_Phase_5,75,9999,9999,9999,1507508316
12114,17,Jits_Phase_5,76,9999,9999,9999,1508009044
12114,17,Jits_Phase_5,77,9999,9999,9999,1508508772
12114,17,Jits_Phase_5,78,9999,9999,9999,1509008456
12114,17,Jits_Phase_5,79,9999,9999,9999,1509508208
12114,17,Jits_Phase_5,80,9999,9999,9999,1510008932
12114,17,Jits_Phase_5,81,9999,9999,9999,1510488156
12114,17,Jits_Phase_5,82,9999,9999,9999,1510988892
12114,17,Jits_Phase_5,83,9999,9999,9999,1511488632
12114,17,Jits_Phase_5,84,9999,9999,9999,1511988324
12114,17,Jits_Phase_5,85,9999,9999,9999,1512489040
12114,17,Jits_Phase_5,86,9999,9999,9999,1512988792
12114,17,Jits_Phase_5,87,9999,9999,9999,1513488480
12114,17,Jits_Phase_5,88,9999,9999,9999,1513988168
12114,17,Jits_Phase_5,89,9999,9999,9999,1514488904
12114,17,Jits_Phase_5,90,9999,9999,9999,1514988672
12114,17,Jits_Phase_5,91,9999,9999,9999,1515488356
12114,17,Jits_Phase_5,92,9999,9999,9999,1515989080
12114,17,Jits_Phase_5,93,9999,9999,9999,1516488832
12114,17,Jits_Phase_5,94,9999,9999,9999,1516988504
12114,17,Jits_Phase_5,95,9999,9999,9999,1517488252
12114,17,Jits_Phase_5,96,9999,9999,9999,1517988988
12114,17,Jits_Phase_5,97,9999,9999,9999,1518438520
12114,17,Jits_Phase_5,98,9999,9999,9999,1518938196
12114,17,Jits_Phase_5,99,9999,9999,9999,1519438932
12114,17,Jits_Phase_5,100,9999,9999,9999,1519938680
12114,17,Jits_Phase_5,101,9999,9999,9999,1520438356
12114,17,Jits_Phase_5,102,9999,9999,9999,1520939068
12114,17,Jits_Phase_5,103,9999,9999,9999,1521449084
12114,17,Jits_Phase_5,104,9999,9999,9999,1521948760
12114,17,Jits_Phase_5,105,9999,9999,9999,1522448500
12114,17,Jits_Phase_5,106,9999,9999,9999,1522948176
12114,17,Jits_Phase_5,107,9999,9999,9999,1523448900
12114,17,Jits_Phase_5,108,9999,9999,9999,1523948656
12114,17,Jits_Phase_5,109,9999,9999,9999,1524448332
12114,17,Jits_Phase_5,110,9999,9999,9999,1524949072
12114,17,Jits_Phase_5,111,9999,9999,9999,1525448820
12114,17,Jits_Phase_5,112,9999,9999,9999,1525948492
12114,17,Jits_Phase_5,113,9999,9999,9999,1526448244
12114,17,Jits_Phase_5,114,9999,9999,9999,1526998112
12114,17,Jits_Phase_5,115,9999,9999,9999,1527498828
12114,17,Jits_Phase_5,116,9999,9999,9999,1527998576
12114,17,Jits_Phase_5,117,9999,9999,9999,1528498252
12114,17,Jits_Phase_5,118,9999,9999,9999,1528998988
12114,17,Jits_Phase_5,119,9999,9999,9999,1529498704
12114,17,Jits_Phase_5,120,9999,9999,9999,1529998460
12114,17,Jits_Phase_5,121,9999,9999,9999,1530498136
12114,17,Jits_Phase_5,122,9999,9999,9999,1530998876
12114,17,Jits_Phase_5,123,9999,9999,9999,1531498568
12114,17,Jits_Phase_5,124,9999,9999,9999,1531998312
12114,17,Jits_Phase_5,125,9999,9999,9999,1532499036
12114,17,Jits_Phase_5,126,9999,9999,9999,1532998728
12114,17,Jits_Phase_5,127,9999,9999,9999,1533498472
12114,17,Jits_Phase_5,128,9999,9999,9999,1533998152
12114,17,Jits_Phase_5,129,9999,9999,9999,1534498888
12114,17,Jits_Phase_5,130,9999,9999,9999,1534998648
12114,17,Jits_Phase_5,131,9999,9999,9999,1535598716
12114,17,Jits_Phase_5,132,9999,9999,9999,1536098384
12114,17,Jits_Phase_5,133,9999,9999,9999,1536598140
12114,17,Jits_Phase_5,134,9999,9999,9999,1537098856
12114,17,Jits_Phase_5,135,9999,9999,9999,1537598540
12114,17,Jits_Phase_5,136,9999,9999,9999,1538098304
12114,17,Jits_Phase_5,137,9999,9999,9999,1538599020
12114,17,Jits_Phase_5,138,9999,9999,9999,1539098696
12114,17,Jits_Phase_5,139,9999,9999,9999,1539598392
12114,17,Jits_Phase_5,140,9999,9999,9999,1540098156
12114,17,Jits_Phase_5,141,9999,9999,9999,1540598896
12114,17,Jits_Phase_5,142,9999,9999,9999,1541098584
12114,17,Jits_Phase_5,143,9999,9999,9999,1541598276
12114,17,Jits_Phase_5,144,9999,9999,9999,1542099004
12114,17,Jits_Phase_5,145,9999,9999,9999,1542598756
12114,17,Jits_Phase_5,146,9999,9999,9999,1543098448
12114,17,Jits_Phase_5,147,9999,9999,9999,1543598200
12114,17,Jits_Phase_5,148,9999,9999,9999,1544098916
12114,17,Jits_Phase_5,149,9999,9999,9999,1544598584
12114,17,Jits_Phase_5,150,9999,9999,9999,1544998996
12114,17,Jits_Phase_5,151,9999,9999,9999,1545498680
12114,17,Jits_Phase_5,152,9999,9999,9999,1545998448
12114,17,Jits_Phase_5,153,9999,9999,9999,1546498124
12114,17,Jits_Phase_5,154,9999,9999,9999,1546998848
12114,17,Jits_Phase_5,155,9999,9999,9999,1547498608
12114,17,Jits_Phase_5,156,9999,9999,9999,1547998272
12114,17,Jits_Phase_5,157,9999,9999,9999,1548499060
12114,17,Jits_Phase_5,158,9999,9999,9999,1548998740
12114,17,Jits_Phase_5,159,9999,9999,9999,1549498488
12114,17,Jits_Phase_5,160,9999,9999,9999,1549998180
12114,17,Jits_Phase_5,161,9999,9999,9999,1550498900
12114,17,Jits_Phase_5,162,9999,9999,9999,1550998624
12114,17,Jits_Phase_5,163,9999,9999,9999,1551498296
12114,17,Jits_Phase_5,164,9999,9999,9999,1551999092
12114,17,Jits_Phase_5,165,9999,9999,9999,1552498768
12114,17,Jits_Phase_5,166,9999,9999,9999,1552998520
12114,17,Jits_Phase_5,167,9999,9999,9999,1553498192
12114,17,Jits_Phase_5,168,9999,9999,9999,1553998920
12114,17,Jits_Phase_5,169,9999,9999,9999,1554498668
12115,15,Jits_Phase_8,0,5,56,103,1564822000
12115,15,Jits_Phase_8,1,5,63,98,1564825248
12115,15,Jits_Phase_8,2,5,80,127,1564828296
12115,15,Jits_Phase_8,0,5,56,103,1565621816
12115,15,Jits_Phase_8,1,5,63,98,1565624844
12115,15,Jits_Phase_8,2,5,80,127,1565627816
12115,15,Jits_Phase_8,0,5,80,127,1566362040
12115,15,Jits_Phase_8,1,5,63,98,1566452052
12115,15,Jits_Phase_8,2,1,48,27,1566453684
12115,15,Jits_Phase_8,3,5,56,103,1566462316
12115,15,Jits_Phase_8,0,5,56,103,1567182292
12115,15,Jits_Phase_8,1,1,48,31,1567184736
12115,15,Jits_Phase_8,2,5,63,98,1567192780
12115,15,Jits_Phase_8,3,5,80,127,1567281624
12115,15,Jits_Phase_8,0,5,63,98,1567952172
12115,15,Jits_Phase_8,1,5,80,127,1567981996
12115,15,Jits_Phase_8,2,1,48,27,1567996276
12115,15,Jits_Phase_8,3,5,56,103,1568011592
12115,15,Jits_Phase_8,0,1,48,34,1568727536
12115,15,Jits_Phase_8,1,5,56,103,1568751920
12115,15,Jits_Phase_8,2,5,80,127,1568852448
12115,15,Jits_Phase_8,3,5,63,98,1568901452
12115,15,Jits_Phase_8,0,1,48,38,1569536144
12115,15,Jits_Phase_8,1,5,56,103,1569551680
12115,15,Jits_Phase_8,2,5,80,127,1569601808
12115,15,Jits_Phase_8,3,5,63,98,1569641804
12115,15,Jits_Phase_8,0,1,48,38,1570356044
12115,15,Jits_Phase_8,1,5,80,127,1570382300
12115,15,Jits_Phase_8,2,5,63,98,1570411828
12115,15,Jits_Phase_8,3,5,56,103,1570481592
12115,15,Jits_Phase_8,0,1,48,37,1571154536
12115,15,Jits_Phase_8,1,5,63,98,1571211656
12115,15,Jits_Phase_8,2,5,56,103,1571242552
12115,15,Jits_Phase_8,3,5,80,127,1571301732
12115,15,Jits_Phase_8,0,5,56,103,1571951856
12115,15,Jits_Phase_8,1,5,80,127,1571955080
12115,15,Jits_Phase_8,2,1,48,33,1572006768
12115,15,Jits_Phase_8,3,5,63,98,1572071828
12115,15,Jits_Phase_8,0,1,48,39,1572779644
12115,15,Jits_Phase_8,1,5,56,103,1572831512
12115,15,Jits_Phase_8,2,5,80,127,1572871600
12115,15,Jits_Phase_8,3,5,63,98,1572881708
12115,15,Jits_Phase_8,0,1,48,32,1573587640
12115,15,Jits_Phase_8,1,5,56,103,1573592616
12115,15,Jits_Phase_8,2,5,80,127,1573611808
12115,15,Jits_Phase_8,3,5,63,98,1573691660
12115,15,Jits_Phase_8,0,5,80,127,1574381972
12115,15,Jits_Phase_8,1,1,48,39,1574423076
12115,15,Jits_Phase_8,2,5,56,103,1574482216
12115,15,Jits_Phase_8,3,5,63,98,1574491660
12115,15,Jits_Phase_8,0,5,63,98,1575151932
12115,15,Jits_Phase_8,1,1,48,35,1575196028
12115,15,Jits_Phase_8,2,5,80,127,1575212688
12115,15,Jits_Phase_8,3,5,56,103,1575221616
12115,15,Jits_Phase_8,0,5,56,103,1575951764
12115,15,Jits_Phase_8,1,1,48,33,1575962904
12115,15,Jits_Phase_8,2,5,63,98,1576022788
12115,15,Jits_Phase_8,3,5,80,127,1576025848
12115,15,Jits_Phase_8,0,1,48,39,1576751716
12115,15,Jits_Phase_8,1,5,63,98,1576782384
12115,15,Jits_Phase_8,2,5,56,103,1576832812
12115,15,Jits_Phase_8,3,5,80,127,1576835648
12115,15,Jits_Phase_8,0,5,56,103,1577542056
12115,15,Jits_Phase_8,1,5,80,127,1577545120
12115,15,Jits_Phase_8,2,1,48,33,1577553864
12115,15,Jits_Phase_8,3,5,63,98,1577632276
12115,15,Jits_Phase_8,0,1,48,30,1578341412
12115,15,Jits_Phase_8,1,5,63,98,1578381664
12115,15,Jits_Phase_8,2,5,56,103,1578471660
12115,15,Jits_Phase_8,3,5,80,127,1578501484
12115,15,Jits_Phase_8,0,1,48,40,1579158464
12115,15,Jits_Phase_8,1,5,56,103,1579172308
12115,15,Jits_Phase_8,2,5,63,98,1579271496
12115,15,Jits_Phase_8,3,5,80,127,1579302444
12115,15,Jits_Phase_8,0,5,63,98,1579992536
12115,15,Jits_Phase_8,1,5,56,103,1580001612
12115,15,Jits_Phase_8,2,1,48,42,1580019328
12115,15,Jits_Phase_8,3,5,80,127,1580091732
12115,15,Jits_Phase_8,0,5,63,98,1580811552
12115,15,Jits_Phase_8,1,1,48,39,1580882400
12115,15,Jits_Phase_8,2,5,56,103,1580891488
12115,15,Jits_Phase_8,3,5,80,127,1580894480
12115,15,Jits_Phase_8,0,1,48,47,1581564744
12115,15,Jits_Phase_8,1,5,80,127,1581571368
12115,15,Jits_Phase_8,2,5,63,98,1581592048
12115,15,Jits_Phase_8,3,5,56,103,1581652588
12115,15,Jits_Phase_8,0,5,56,103,1582412332
12115,15,Jits_Phase_8,1,5,63,98,1582431516
12115,15,Jits_Phase_8,2,5,80,127,1582434884
12115,15,Jits_Phase_8,3,1,48,29,1582550188
12115,15,Jits_Phase_8,0,5,63,98,1583151564
12115,15,Jits_Phase_8,1,5,80,127,1583232480
12115,15,Jits_Phase_8,2,1,48,27,1583235452
12115,15,Jits_Phase_8,3,5,56,103,1583241696
12115,15,Jits_Phase_8,0,1,48,40,1583915544
12115,15,Jits_Phase_8,1,5,63,98,1583971692
12115,15,Jits_Phase_8,2,5,56,103,1583992376
12115,15,Jits_Phase_8,3,5,80,127,1584042436
12115,15,Jits_Phase_8,0,1,48,33,1584667876
12115,15,Jits_Phase_8,1,5,80,127,1584771436
12115,15,Jits_Phase_8,2,5,63,98,1584812372
12115,15,Jits_Phase_8,3,5,56,103,1584831860
12115,15,Jits_Phase_8,0,1,48,25,1585415192
12115,15,Jits_Phase_8,1,5,56,103,1585612348
12115,15,Jits_Phase_8,2,5,63,98,1585622320
12115,15,Jits_Phase_8,3,5,80,127,1585641804
12115,15,Jits_Phase_8,0,1,48,35,1586226336
12115,15,Jits_Phase_8,1,5,56,103,1586342352
12115,15,Jits_Phase_8,2,5,63,98,1586432412
12115,15,Jits_Phase_8,3,5,80,127,1586491680
12115,15,Jits_Phase_8,0,1,48,35,1587115504
12115,15,Jits_Phase_8,1,5,80,127,1587171652
12115,15,Jits_Phase_8,2,5,56,103,1587181848
12115,15,Jits_Phase_8,3,5,63,98,1587251660
12115,15,Jits_Phase_8,0,1,48,32,1587964560
12115,15,Jits_Phase_8,1,5,63,98,1588002276
12115,15,Jits_Phase_8,2,5,80,127,1588092244
12115,15,Jits_Phase_8,3,5,56,103,1588101468
12115,15,Jits_Phase_8,0,5,63,98,1588732368
12115,15,Jits_Phase_8,1,5,80,127,1588781448
12115,15,Jits_Phase_8,2,1,48,32,1588784044
12115,15,Jits_Phase_8,3,5,56,103,1588841832
12115,15,Jits_Phase_8,0,1,48,38,1589511348
12115,15,Jits_Phase_8,1,5,56,103,1589551376
12115,15,Jits_Phase_8,2,5,80,127,1589601728
12115,15,Jits_Phase_8,3,5,63,98,1589622396
12115,15,Jits_Phase_8,0,1,48,40,1590267188
12115,15,Jits_Phase_8,1,5,56,103,1590321464
12115,15,Jits_Phase_8,2,5,80,127,1590381912
12115,15,Jits_Phase_8,3,5,63,98,1590451544
12115,15,Jits_Phase_8,0,1,48,40,1591004388
12115,15,Jits_Phase_8,1,5,56,103,1591122400
12115,15,Jits_Phase_8,2,5,80,127,1591152152
12115,15,Jits_Phase_8,3,5,63,98,1591181676
12115,15,Jits_Phase_8,0,1,48,30,1591782936
12115,15,Jits_Phase_8,1,5,56,103,1591962088
12115,15,Jits_Phase_8,2,5,80,127,1591981376
12115,15,Jits_Phase_8,3,5,63,98,1592041764
12115,15,Jits_Phase_8,0,1,48,39,1592697396
12115,15,Jits_Phase_8,1,5,80,127,1592841516
12115,15,Jits_Phase_8,2,5,56,103,1592851784
12115,15,Jits_Phase_8,3,5,63,98,1592862352
12115,15,Jits_Phase_8,0,1,48,38,1593600672
12115,15,Jits_Phase_8,1,5,56,103,1593602336
12115,15,Jits_Phase_8,2,5,80,127,1593642276
12115,15,Jits_Phase_8,3,5,63,98,1593672320
12115,15,Jits_Phase_8,0,5,56,103,1594371388
12115,15,Jits_Phase_8,1,5,63,98,1594402260
12115,15,Jits_Phase_8,2,1,48,36,1594436168
12115,15,Jits_Phase_8,3,5,80,127,1594442264
12115,15,Jits_Phase_8,0,5,80,127,1595122308
12115,15,Jits_Phase_8,1,5,63,98,1595172064
12115,15,Jits_Phase_8,2,5,56,103,1595191624
12115,15,Jits_Phase_8,3,1,48,37,1595212796
12115,15,Jits_Phase_8,0,5,56,103,1595951520
12115,15,Jits_Phase_8,1,1,48,31,1596003864
12115,15,Jits_Phase_8,2,5,80,127,1596022244
12115,15,Jits_Phase_8,3,5,63,98,1596081536
12115,15,Jits_Phase_8,0,5,80,127,1596752196
12115,15,Jits_Phase_8,1,1,48,38,1596788348
12115,15,Jits_Phase_8,2,5,63,98,1596842424
12115,15,Jits_Phase_8,3,5,56,103,1596861836
12115,15,Jits_Phase_8,0,1,48,44,1597563404
12115,15,Jits_Phase_8,1,5,63,98,1597571372
12115,15,Jits_Phase_8,2,5,56,103,1597591904
12115,15,Jits_Phase_8,3,5,80,127,1597632016
12115,15,Jits_Phase_8,0,5,80,127,1598332176
12115,15,Jits_Phase_8,1,1,48,37,1598335220
12115,15,Jits_Phase_8,2,5,63,98,1598351804
12115,15,Jits_Phase_8,3,5,56,103,1598431608
12115,15,Jits_Phase_8,0,5,63,98,1599121980
12115,15,Jits_Phase_8,1,1,48,38,1599149260
12115,15,Jits_Phase_8,2,5,56,103,1599232356
12115,15,Jits_Phase_8,3,5,80,127,1599235424
12115,15,Jits_Phase_8,0,1,48,38,1599927104
12115,15,Jits_Phase_8,1,5,63,98,1599942272
12115,15,Jits_Phase_8,2,5,56,103,1599952168
12115,15,Jits_Phase_8,3,5,80,127,1599955456
12115,15,Jits_Phase_8,0,1,48,39,1600693140
12115,15,Jits_Phase_8,1,5,56,103,1600722236
12115,15,Jits_Phase_8,2,5,80,127,1600841952
12115,15,Jits_Phase_8,3,5,63,98,1600882260
12115,15,Jits_Phase_8,0,1,48,34,1601532988
12115,15,Jits_Phase_8,1,5,56,103,1601541476
12115,15,Jits_Phase_8,2,5,80,127,1601622320
12115,15,Jits_Phase_8,3,5,63,98,1601642088
12115,15,Jits_Phase_8,0,5,56,103,1602342364
12115,15,Jits_Phase_8,1,1,48,33,1602347056
12115,15,Jits_Phase_8,2,5,63,98,1602452104
12115,15,Jits_Phase_8,3,5,80,127,1602455316
12115,15,Jits_Phase_8,0,1,48,29,1603116472
12115,15,Jits_Phase_8,1,5,56,103,1603182060
12115,15,Jits_Phase_8,2,5,80,127,1603211572
12115,15,Jits_Phase_8,3,5,63,98,1603231980
12115,15,Jits_Phase_8,0,1,48,43,1603930772
12115,15,Jits_Phase_8,1,5,63,98,1603971404
12115,15,Jits_Phase_8,2,5,56,103,1603981748
12115,15,Jits_Phase_8,3,5,80,127,1603992092
12115,15,Jits_Phase_8,0,1,48,38,1604724448
12115,15,Jits_Phase_8,1,5,80,127,1604762164
12115,15,Jits_Phase_8,2,5,56,103,1604812092
12115,15,Jits_Phase_8,3,5,63,98,1604852088
12115,15,Jits_Phase_8,0,1,48,39,1605517684
12115,15,Jits_Phase_8,1,5,80,127,1605582172
12115,15,Jits_Phase_8,2,5,63,98,1605601512
12115,15,Jits_Phase_8,3,5,56,103,1605651920
12115,15,Jits_Phase_8,0,1,48,35,1606360556
12115,15,Jits_Phase_8,1,5,80,127,1606392192
12115,15,Jits_Phase_8,2,5,56,103,1606421944
12115,15,Jits_Phase_8,3,5,63,98,1606491536
12115,15,Jits_Phase_8,0,1,48,43,1607161736
12115,15,Jits_Phase_8,1,5,56,103,1607242004
12115,15,Jits_Phase_8,2,5,80,127,1607252276
12115,15,Jits_Phase_8,3,5,63,98,1607292344
12115,15,Jits_Phase_8,0,5,56,103,1607951940
12115,15,Jits_Phase_8,1,5,63,98,1607972180
12115,15,Jits_Phase_8,2,1,48,38,1608005940
12115,15,Jits_Phase_8,3,5,80,127,1608041776
12115,15,Jits_Phase_8,0,1,48,38,1608743960
12115,15,Jits_Phase_8,1,5,63,98,1608772156
12115,15,Jits_Phase_8,2,5,80,127,1608832472
12115,15,Jits_Phase_8,3,5,56,103,1608851944
12115,15,Jits_Phase_8,0,5,80,127,1609561508
12115,15,Jits_Phase_8,1,1,48,39,1609573096
12115,15,Jits_Phase_8,2,5,56,103,1609592152
12115,15,Jits_Phase_8,3,5,63,98,1609621824
12115,15,Jits_Phase_8,0,5,56,103,1610362104
12115,15,Jits_Phase_8,1,1,48,43,1610367392
12115,15,Jits_Phase_8,2,5,63,98,1610421836
12115,15,Jits_Phase_8,3,5,80,127,1610481916
12115,15,Jits_Phase_8,0,1,48,43,1611163192
12115,15,Jits_Phase_8,1,5,80,127,1611181448
12115,15,Jits_Phase_8,2,5,56,103,1611202056
12115,15,Jits_Phase_8,3,5,63,98,1611271796
12115,15,Jits_Phase_8,0,1,48,42,1611956752
12115,15,Jits_Phase_8,1,5,80,127,1611982180
12115,15,Jits_Phase_8,2,5,63,98,1612001596
12115,15,Jits_Phase_8,3,5,56,103,1612032388
12115,15,Jits_Phase_8,0,1,48,38,1612738972
12115,15,Jits_Phase_8,1,5,80,127,1612771896
12115,15,Jits_Phase_8,2,5,63,98,1612792056
12115,15,Jits_Phase_8,3,5,56,103,1612851680
12115,15,Jits_Phase_8,0,1,48,36,1613526892
12115,15,Jits_Phase_8,1,5,80,127,1613571428
12115,15,Jits_Phase_8,2,5,56,103,1613671812
12115,15,Jits_Phase_8,3,5,63,98,1613701484
12115,15,Jits_Phase_8,0,1,48,38,1614345684
12115,15,Jits_Phase_8,1,5,63,98,1614361976
12115,15,Jits_Phase_8,2,5,80,127,1614412252
12115,15,Jits_Phase_8,3,5,56,103,1614431812
12115,15,Jits_Phase_8,0,1,48,32,1615182756
12115,15,Jits_Phase_8,1,5,80,127,1615201664
12115,15,Jits_Phase_8,2,5,56,103,1615232312
12115,15,Jits_Phase_8,3,5,63,98,1615235524
12115,15,Jits_Phase_8,0,1,48,33,1615965796
12115,15,Jits_Phase_8,1,5,63,98,1616051788
12115,15,Jits_Phase_8,2,5,56,103,1616091784
12115,15,Jits_Phase_8,3,5,80,127,1616112096
12115,15,Jits_Phase_8,0,1,48,33,1616795156
12115,15,Jits_Phase_8,1,5,80,127,1616812364
12115,15,Jits_Phase_8,2,5,63,98,1616892368
12115,15,Jits_Phase_8,3,5,56,103,1616932308
12115,15,Jits_Phase_8,0,5,63,98,1617631764
12115,15,Jits_Phase_8,1,1,48,31,1617697064
12115,15,Jits_Phase_8,2,5,80,127,1617711556
12115,15,Jits_Phase_8,3,5,56,103,1617731864
12115,15,Jits_Phase_8,0,5,56,103,1618472432
12115,15,Jits_Phase_8,1,1,48,31,1618481732
12115,15,Jits_Phase_8,2,5,63,98,1618483144
12115,15,Jits_Phase_8,3,5,80,127,1618521736
12115,15,Jits_Phase_8,0,5,56,103,1619192192
12115,15,Jits_Phase_8,1,5,80,127,1619195108
12115,15,Jits_Phase_8,2,1,48,32,1619229388
12115,15,Jits_Phase_8,3,5,63,98,1619331372
12115,15,Jits_Phase_8,0,5,56,103,1619981916
12115,15,Jits_Phase_8,1,1,48,33,1620023992
12115,15,Jits_Phase_8,2,5,63,98,1620071744
12115,15,Jits_Phase_8,3,5,80,127,1620141284
12115,15,Jits_Phase_8,0,1,48,32,1620793792
12115,15,Jits_Phase_8,1,5,63,98,1620862296
12115,15,Jits_Phase_8,2,5,80,127,1620865736
12115,15,Jits_Phase_8,3,5,56,103,1620921872
12115,15,Jits_Phase_8,0,1,48,30,1621624868
12115,15,Jits_Phase_8,1,5,80,127,1621701864
12115,15,Jits_Phase_8,2,5,56,103,1621721928
12115,15,Jits_Phase_8,3,5,63,98,1621731828
12115,15,Jits_Phase_8,0,1,48,30,1622360876
12115,15,Jits_Phase_8,1,5,56,103,1622411844
12115,15,Jits_Phase_8,2,5,63,98,1622421820
12115,15,Jits_Phase_8,3,5,80,127,1622491436
12115,15,Jits_Phase_8,0,1,48,28,1623089684
12115,15,Jits_Phase_8,1,5,80,127,1623212436
12115,15,Jits_Phase_8,2,5,56,103,1623261664
12115,15,Jits_Phase_8,3,5,63,98,1623311792
12115,15,Jits_Phase_8,0,1,48,24,1623951772
12115,15,Jits_Phase_8,1,5,56,103,1624092136
12115,15,Jits_Phase_8,2,5,63,98,1624102184
12115,15,Jits_Phase_8,3,5,80,127,1624142048
12115,15,Jits_Phase_8,0,1,48,28,1624802364
12115,15,Jits_Phase_8,1,5,56,103,1624832504
12115,15,Jits_Phase_8,2,5,63,98,1624872444
12115,15,Jits_Phase_8,3,5,80,127,1624921728
12115,15,Jits_Phase_8,0,1,48,28,1625584740
12115,15,Jits_Phase_8,1,5,80,127,1625592108
12115,15,Jits_Phase_8,2,5,56,103,1625642608
12115,15,Jits_Phase_8,3,5,63,98,1625661724
12115,15,Jits_Phase_8,0,1,48,28,1626370192
12115,15,Jits_Phase_8,1,5,80,127,1626402200
12115,15,Jits_Phase_8,2,5,63,98,1626462128
12115,15,Jits_Phase_8,3,5,56,103,1626541648
12115,15,Jits_Phase_8,0,1,48,29,1627130016
12115,15,Jits_Phase_8,1,5,80,127,1627181656
12115,15,Jits_Phase_8,2,5,56,103,1627222492
12115,15,Jits_Phase_8,3,5,63,98,1627241892
12115,15,Jits_Phase_8,0,1,48,26,1627889440
12115,15,Jits_Phase_8,1,5,56,103,1628032488
12115,15,Jits_Phase_8,2,5,80,127,1628041712
12115,15,Jits_Phase_8,3,5,63,98,1628081600
12115,15,Jits_Phase_8,0,1,48,24,1628596304
12115,15,Jits_Phase_8,1,5,56,103,1628901652
12115,15,Jits_Phase_8,2,5,63,98,1628941664
12115,15,Jits_Phase_8,3,5,80,127,1628945104
12115,15,Jits_Phase_8,0,1,48,26,1629482080
12115,15,Jits_Phase_8,1,5,63,98,1629571560
12115,15,Jits_Phase_8,2,5,80,127,1629612556
12115,15,Jits_Phase_8,3,5,56,103,1629682012
12115,15,Jits_Phase_8,0,1,48,24,1630318916
12115,15,Jits_Phase_8,1,5,63,98,1630341500
12115,15,Jits_Phase_8,2,5,56,103,1630422576
12115,15,Jits_Phase_8,3,5,80,127,1630481772
12115,15,Jits_Phase_8,0,1,48,21,1631130000
12115,15,Jits_Phase_8,1,5,80,127,1631151620
12115,15,Jits_Phase_8,2,5,63,98,1631201748
12115,15,Jits_Phase_8,3,5,56,103,1631232380
12115,15,Jits_Phase_8,0,1,48,21,1631878420
12115,15,Jits_Phase_8,1,5,56,103,1631941936
12115,15,Jits_Phase_8,2,5,63,98,1631992048
12115,15,Jits_Phase_8,3,5,80,127,1632002544
12115,15,Jits_Phase_8,0,1,48,23,1632680156
12115,15,Jits_Phase_8,1,5,56,103,1632751952
12115,15,Jits_Phase_8,2,5,63,98,1632861628
12115,15,Jits_Phase_8,3,5,80,127,1632881936
12115,15,Jits_Phase_8,0,1,48,29,1633476912
12115,15,Jits_Phase_8,1,5,63,98,1633551716
12115,15,Jits_Phase_8,2,5,80,127,1633602052
12115,15,Jits_Phase_8,3,5,56,103,1633692204
12115,15,Jits_Phase_8,0,1,48,25,1634284312
12115,15,Jits_Phase_8,1,5,63,98,1634342552
12115,15,Jits_Phase_8,2,5,80,127,1634371932
12115,15,Jits_Phase_8,3,5,56,103,1634461924
12115,15,Jits_Phase_8,0,1,48,29,1635073580
12115,15,Jits_Phase_8,1,5,63,98,1635142084
12115,15,Jits_Phase_8,2,5,56,103,1635152580
12115,15,Jits_Phase_8,3,5,80,127,1635251712
12115,15,Jits_Phase_8,0,1,48,25,1635887268
12115,15,Jits_Phase_8,1,5,63,98,1636042172
12115,15,Jits_Phase_8,2,5,80,127,1636071776
12115,15,Jits_Phase_8,3,5,56,103,1636101448
12115,15,Jits_Phase_8,0,1,48,21,1636656836
12115,15,Jits_Phase_8,1,5,80,127,1636862464
12115,15,Jits_Phase_8,2,5,63,98,1636871540
12115,15,Jits_Phase_8,3,5,56,103,1636902412
12115,15,Jits_Phase_8,0,1,48,24,1637453992
12115,15,Jits_Phase_8,1,5,80,127,1637561692
12115,15,Jits_Phase_8,2,5,63,98,1637582372
12115,15,Jits_Phase_8,3,5,56,103,1637632348
12115,15,Jits_Phase_8,0,1,48,27,1638256740
12115,15,Jits_Phase_8,1,5,63,98,1638392384
12115,15,Jits_Phase_8,2,5,80,127,1638451584
12115,15,Jits_Phase_8,3,5,56,103,1638472116
12115,15,Jits_Phase_8,0,1,48,23,1639131904
12115,15,Jits_Phase_8,1,5,63,98,1639151860
12115,15,Jits_Phase_8,2,5,56,103,1639202360
12115,15,Jits_Phase_8,3,5,80,127,1639212556
12115,15,Jits_Phase_8,0,1,48,24,1639933156
12115,15,Jits_Phase_8,1,5,56,103,1639981284
12115,15,Jits_Phase_8,2,5,80,127,1639991776
12115,15,Jits_Phase_8,3,5,63,98,1640092028
12115,15,Jits_Phase_8,0,1,48,24,1640731636
12115,15,Jits_Phase_8,1,5,80,127,1640742300
12115,15,Jits_Phase_8,2,5,63,98,1640751600
12115,15,Jits_Phase_8,3,5,56,103,1640902120
12115,15,Jits_Phase_8,0,1,48,19,1641519336
12115,15,Jits_Phase_8,1,5,63,98,1641552392
12115,15,Jits_Phase_8,2,5,80,127,1641592408
12115,15,Jits_Phase_8,3,5,56,103,1641671988
12115,15,Jits_Phase_8,0,5,56,103,1642301736
12115,15,Jits_Phase_8,1,1,48,20,1642309488
12115,15,Jits_Phase_8,2,5,80,127,1642402448
12115,15,Jits_Phase_8,3,5,63,98,1642421472
12115,15,Jits_Phase_8,0,1,48,18,1643109336
12115,15,Jits_Phase_8,1,5,80,127,1643121960
12115,15,Jits_Phase_8,2,5,56,103,1643132380
12115,15,Jits_Phase_8,3,5,63,98,1643222372
12115,15,Jits_Phase_8,0,1,48,20,1643915624
12115,15,Jits_Phase_8,1,5,56,103,1643921796
12115,15,Jits_Phase_8,2,5,63,98,1643942356
12115,15,Jits_Phase_8,3,5,80,127,1644022432
12115,15,Jits_Phase_8,0,5,63,98,1644672340
12115,15,Jits_Phase_8,1,1,48,22,1644691272
12115,15,Jits_Phase_8,2,5,56,103,1644761668
12115,15,Jits_Phase_8,3,5,80,127,1644764584
12115,15,Jits_Phase_8,0,1,48,20,1645493732
12115,15,Jits_Phase_8,1,5,56,103,1645501772
12115,15,Jits_Phase_8,2,5,80,127,1645562312
12115,15,Jits_Phase_8,3,5,63,98,1645571464
12115,15,Jits_Phase_8,0,1,48,25,1646265764
12115,15,Jits_Phase_8,1,5,80,127,1646351656
12115,15,Jits_Phase_8,2,5,56,103,1646362072
12115,15,Jits_Phase_8,3,5,63,98,1646366096
12115,15,Jits_Phase_8,0,1,48,21,1647045276
12115,15,Jits_Phase_8,1,5,56,103,1647111392
12115,15,Jits_Phase_8,2,5,80,127,1647121808
12115,15,Jits_Phase_8,3,5,63,98,1647142256
12115,15,Jits_Phase_8,0,1,48,21,1647821584
12115,15,Jits_Phase_8,1,5,63,98,1647881476
12115,15,Jits_Phase_8,2,5,80,127,1647942072
12115,15,Jits_Phase_8,3,5,56,103,1647992200
12115,15,Jits_Phase_8,0,1,48,22,1648627928
12115,15,Jits_Phase_8,1,5,63,98,1648762280
12115,15,Jits_Phase_8,2,5,56,103,1648771504
12115,15,Jits_Phase_8,3,5,80,127,1648821728
12115,15,Jits_Phase_8,0,5,63,98,1649461672
12115,15,Jits_Phase_8,1,5,80,127,1649482356
12115,15,Jits_Phase_8,2,5,56,103,1649492476
12115,15,Jits_Phase_8,3,1,48,22,1649503468
12115,15,Jits_Phase_8,0,1,48,19,1650230676
12115,15,Jits_Phase_8,1,5,63,98,1650262312
12115,15,Jits_Phase_8,2,5,80,127,1650265600
12115,15,Jits_Phase_8,3,5,56,103,1650302324
12115,15,Jits_Phase_8,0,1,48,20,1650980368
12115,15,Jits_Phase_8,1,5,63,98,1651131740
12115,15,Jits_Phase_8,2,5,80,127,1651161420
12115,15,Jits_Phase_8,3,5,56,103,1651171764
12115,15,Jits_Phase_8,0,1,48,21,1651848592
12115,15,Jits_Phase_8,1,5,56,103,1651882288
12115,15,Jits_Phase_8,2,5,80,127,1651912264
12115,15,Jits_Phase_8,3,5,63,98,1651941792
12115,15,Jits_Phase_8,0,1,48,29,1652613292
12115,15,Jits_Phase_8,1,5,63,98,1652781524
12115,15,Jits_Phase_8,2,5,56,103,1652822512
12115,15,Jits_Phase_8,3,5,80,127,1652825432
12115,15,Jits_Phase_8,0,1,48,21,1653416952
12115,15,Jits_Phase_8,1,5,80,127,1653481800
12115,15,Jits_Phase_8,2,5,56,103,1653561652
12115,15,Jits_Phase_8,3,5,63,98,1653612076
12115,15,Jits_Phase_8,0,1,48,29,1654178428
12115,15,Jits_Phase_8,1,5,80,127,1654262076
12115,15,Jits_Phase_8,2,5,56,103,1654281624
12115,15,Jits_Phase_8,3,5,63,98,1654371828
12115,15,Jits_Phase_8,0,1,48,31,1654999624
12115,15,Jits_Phase_8,1,5,80,127,1655102192
12115,15,Jits_Phase_8,2,5,63,98,1655141836
12115,15,Jits_Phase_8,3,5,56,103,1655181772
12115,15,Jits_Phase_8,0,1,48,32,1655783492
12115,15,Jits_Phase_8,1,5,63,98,1655911768
12115,15,Jits_Phase_8,2,5,80,127,1655972336
12115,15,Jits_Phase_8,3,5,56,103,1656002008
12115,15,Jits_Phase_8,0,1,48,27,1656599568
12115,15,Jits_Phase_8,1,5,56,103,1656751328
12115,15,Jits_Phase_8,2,5,80,127,1656782276
12115,15,Jits_Phase_8,3,5,63,98,1656872256
12115,15,Jits_Phase_8,0,1,48,31,1657438504
12115,15,Jits_Phase_8,1,5,56,103,1657561500
12115,15,Jits_Phase_8,2,5,80,127,1657672308
12115,15,Jits_Phase_8,3,5,63,98,1657701836
12115,15,Jits_Phase_8,0,5,56,103,1658412304
12115,15,Jits_Phase_8,1,1,48,26,1658424712
12115,15,Jits_Phase_8,2,5,63,98,1658471940
12115,15,Jits_Phase_8,3,5,80,127,1658501540
12115,15,Jits_Phase_8,0,5,56,103,1659181488
12115,15,Jits_Phase_8,1,1,48,34,1659250176
12115,15,Jits_Phase_8,2,5,63,98,1659252060
12115,15,Jits_Phase_8,3,5,80,127,1659271472
12115,15,Jits_Phase_8,0,5,80,127,1659951516
12115,15,Jits_Phase_8,1,5,63,98,1659971904
12115,15,Jits_Phase_8,2,5,56,103,1660022176
12115,15,Jits_Phase_8,3,1,48,39,1660072000
12115,15,Jits_Phase_8,0,5,63,98,1660771664
12115,15,Jits_Phase_8,1,5,80,127,1660782084
12115,15,Jits_Phase_8,2,1,48,33,1660789392
12115,15,Jits_Phase_8,3,5,56,103,1660832080
12115,15,Jits_Phase_8,0,1,48,38,1661558340
12115,15,Jits_Phase_8,1,5,63,98,1661571340
12115,15,Jits_Phase_8,2,5,80,127,1661642168
12115,15,Jits_Phase_8,3,5,56,103,1661661416
12115,15,Jits_Phase_8,0,1,48,39,1662365396
12115,15,Jits_Phase_8,1,5,63,98,1662401840
12115,15,Jits_Phase_8,2,5,80,127,1662405204
12115,15,Jits_Phase_8,3,5,56,103,1662471504
12115,15,Jits_Phase_8,0,1,48,43,1663114028
12115,15,Jits_Phase_8,1,5,80,127,1663151544
12115,15,Jits_Phase_8,2,5,56,103,1663171928
12115,15,Jits_Phase_8,3,5,63,98,1663182348
12115,15,Jits_Phase_8,0,1,48,36,1663904436
12115,15,Jits_Phase_8,1,5,56,103,1663971824
12115,15,Jits_Phase_8,2,5,63,98,1664062088
12115,15,Jits_Phase_8,3,5,80,127,1664065376
12115,15,Jits_Phase_8,0,1,48,35,1664705532
12115,15,Jits_Phase_8,1,5,80,127,1664741976
12115,15,Jits_Phase_8,2,5,56,103,1664752100
12115,15,Jits_Phase_8,3,5,63,98,1664771588
12115,15,Jits_Phase_8,0,1,48,30,1665419708
12115,15,Jits_Phase_8,1,5,63,98,1665541412
12115,15,Jits_Phase_8,2,5,80,127,1665602028
12115,15,Jits_Phase_8,3,5,56,103,1665612000
12115,15,Jits_Phase_8,0,1,48,40,1666270432
12115,15,Jits_Phase_8,1,5,63,98,1666411816
12115,15,Jits_Phase_8,2,5,80,127,1666441788
12115,15,Jits_Phase_8,3,5,56,103,1666481528
12115,15,Jits_Phase_8,0,1,48,39,1667108312
12115,15,Jits_Phase_8,1,5,56,103,1667202432
12115,15,Jits_Phase_8,2,5,80,127,1667211732
12115,15,Jits_Phase_8,3,5,63,98,1667251472
12115,15,Jits_Phase_8,0,1,48,36,1667961604
12115,15,Jits_Phase_8,1,5,80,127,1667963244
12115,15,Jits_Phase_8,2,5,56,103,1668042168
12115,15,Jits_Phase_8,3,5,63,98,1668052364
12115,15,Jits_Phase_8,0,1,48,35,1668739460
12115,15,Jits_Phase_8,1,5,80,127,1668812100
12115,15,Jits_Phase_8,2,5,56,103,1668892032
12115,15,Jits_Phase_8,3,5,63,98,1668902376
12115,15,Jits_Phase_8,0,1,48,31,1669595432
12115,15,Jits_Phase_8,1,5,80,127,1669651876
12115,15,Jits_Phase_8,2,5,56,103,1669701988
12115,15,Jits_Phase_8,3,5,63,98,1669752116
12115,15,Jits_Phase_8,0,1,48,36,1670398692
12115,15,Jits_Phase_8,1,5,56,103,1670591812
12115,15,Jits_Phase_8,2,5,63,98,1670595028
12115,15,Jits_Phase_8,3,5,80,127,1670641940
12115,15,Jits_Phase_8,0,1,48,31,1671344504
12115,15,Jits_Phase_8,1,5,56,103,1671412188
12115,15,Jits_Phase_8,2,5,63,98,1671441996
12115,15,Jits_Phase_8,3,5,80,127,1671451972
12115,15,Jits_Phase_8,0,5,63,98,1672121828
12115,15,Jits_Phase_8,1,5,56,103,1672192260
12115,15,Jits_Phase_8,2,1,48,38,1672194276
12115,15,Jits_Phase_8,3,5,80,127,1672241484
12115,15,Jits_Phase_8,0,1,48,36,1672929952
12115,15,Jits_Phase_8,1,5,63,98,1672952076
12115,15,Jits_Phase_8,2,5,56,103,1672962264
12115,15,Jits_Phase_8,3,5,80,127,1672965412
12115,15,Jits_Phase_8,0,5,80,127,1673701924
12115,15,Jits_Phase_8,1,1,48,35,1673717700
12115,15,Jits_Phase_8,2,5,56,103,1673762088
12115,15,Jits_Phase_8,3,5,63,98,1673852276
12115,15,Jits_Phase_8,0,1,48,43,1674489444
12115,15,Jits_Phase_8,1,5,80,127,1674501396
12115,15,Jits_Phase_8,2,5,56,103,1674601852
12115,15,Jits_Phase_8,3,5,63,98,1674642012
12115,15,Jits_Phase_8,0,1,48,43,1675307040
12115,15,Jits_Phase_8,1,5,56,103,1675352472
12115,15,Jits_Phase_8,2,5,63,98,1675371956
12115,15,Jits_Phase_8,3,5,80,127,1675411804
12115,15,Jits_Phase_8,0,5,63,98,1676121592
12115,15,Jits_Phase_8,1,1,48,42,1676136320
12115,15,Jits_Phase_8,2,5,56,103,1676141896
12115,15,Jits_Phase_8,3,5,80,127,1676242224
12115,15,Jits_Phase_8,0,5,63,98,1676911984
12115,15,Jits_Phase_8,1,1,48,40,1676918320
12115,15,Jits_Phase_8,2,5,80,127,1677021828
12115,15,Jits_Phase_8,3,5,56,103,1677052252
12115,15,Jits_Phase_8,0,1,48,37,1677727536
12115,15,Jits_Phase_8,1,5,56,103,1677732292
12115,15,Jits_Phase_8,2,5,63,98,1677762044
12115,15,Jits_Phase_8,3,5,80,127,1677812168
12115,15,Jits_Phase_8,0,5,63,98,1678502236
12115,15,Jits_Phase_8,1,1,48,36,1678504100
12115,15,Jits_Phase_8,2,5,56,103,1678531904
12115,15,Jits_Phase_8,3,5,80,127,1678582252
12115,15,Jits_Phase_8,0,1,48,35,1679265756
12115,15,Jits_Phase_8,1,5,56,103,1679331796
12115,15,Jits_Phase_8,2,5,63,98,1679352184
12115,15,Jits_Phase_8,3,5,80,127,1679432112
12115,15,Jits_Phase_8,0,1,48,35,1680056528
12115,15,Jits_Phase_8,1,5,63,98,1680101736
12115,15,Jits_Phase_8,2,5,56,103,1680162112
12115,15,Jits_Phase_8,3,5,80,127,1680191788
12115,15,Jits_Phase_8,0,1,48,34,1680828100
12115,15,Jits_Phase_8,1,5,56,103,1680941628
12115,15,Jits_Phase_8,2,5,80,127,1681001872
12115,15,Jits_Phase_8,3,5,63,98,1681041736
12115,15,Jits_Phase_8,0,1,48,36,1681615352
12115,15,Jits_Phase_8,1,5,63,98,1681721832
12115,15,Jits_Phase_8,2,5,56,103,1681782224
12115,15,Jits_Phase_8,3,5,80,127,1681851852
12115,15,Jits_Phase_8,0,1,48,33,1682444180
12115,15,Jits_Phase_8,1,5,56,103,1682602456
12115,15,Jits_Phase_8,2,5,63,98,1682611528
12115,15,Jits_Phase_8,3,5,80,127,1682615116
12115,15,Jits_Phase_8,0,1,48,33,1683287752
12115,15,Jits_Phase_8,1,5,63,98,1683341804
12115,15,Jits_Phase_8,2,5,56,103,1683402204
12115,15,Jits_Phase_8,3,5,80,127,1683405272
12115,15,Jits_Phase_8,0,1,48,35,1684115448
12115,15,Jits_Phase_8,1,5,63,98,1684121876
12115,15,Jits_Phase_8,2,5,80,127,1684151700
12115,15,Jits_Phase_8,3,5,56,103,1684172084
12115,15,Jits_Phase_8,0,5,56,103,1684852156
12115,15,Jits_Phase_8,1,5,63,98,1684902380
12115,15,Jits_Phase_8,2,1,48,33,1684919896
12115,15,Jits_Phase_8,3,5,80,127,1684982320
12115,15,Jits_Phase_8,0,5,80,127,1685551768
12115,15,Jits_Phase_8,1,5,63,98,1685592384
12115,15,Jits_Phase_8,2,5,56,103,1685611944
12115,15,Jits_Phase_8,3,1,48,35,1685626668
12115,15,Jits_Phase_8,0,1,48,34,1686331200
12115,15,Jits_Phase_8,1,5,56,103,1686421808
12115,15,Jits_Phase_8,2,5,80,127,1686432312
12115,15,Jits_Phase_8,3,5,63,98,1686451504
12115,15,Jits_Phase_8,0,1,48,33,1687113956
12115,15,Jits_Phase_8,1,5,56,103,1687202112
12115,15,Jits_Phase_8,2,5,63,98,1687252596
12115,15,Jits_Phase_8,3,5,80,127,1687281976
12115,15,Jits_Phase_8,0,1,48,36,1687906064
12115,15,Jits_Phase_8,1,5,56,103,1687951872
12115,15,Jits_Phase_8,2,5,63,98,1687962020
12115,15,Jits_Phase_8,3,5,80,127,1688012280
12115,15,Jits_Phase_8,0,1,48,30,1688697948
12115,15,Jits_Phase_8,1,5,56,103,1688742208
12115,15,Jits_Phase_8,2,5,80,127,1688745348
12115,15,Jits_Phase_8,3,5,63,98,1688902068
12115,15,Jits_Phase_8,0,1,48,31,1689466672
12115,15,Jits_Phase_8,1,5,63,98,1689561640
12115,15,Jits_Phase_8,2,5,56,103,1689632592
12115,15,Jits_Phase_8,3,5,80,127,1689672084
12115,15,Jits_Phase_8,0,1,48,30,1690234072
12115,15,Jits_Phase_8,1,5,63,98,1690402156
12115,15,Jits_Phase_8,2,5,56,103,1690492664
12115,15,Jits_Phase_8,3,5,80,127,1690495580
12115,15,Jits_Phase_8,0,1,48,30,1691021764
12115,15,Jits_Phase_8,1,5,56,103,1691181384
12115,15,Jits_Phase_8,2,5,63,98,1691271516
12115,15,Jits_Phase_8,3,5,80,127,1691281712
12115,15,Jits_Phase_8,0,1,48,34,1691864248
12115,15,Jits_Phase_8,1,5,56,103,1691951336
12115,15,Jits_Phase_8,2,5,63,98,1692001524
12115,15,Jits_Phase_8,3,5,80,127,1692032544
12115,15,Jits_Phase_8,0,1,48,32,1692733752
12115,15,Jits_Phase_8,1,5,63,98,1692832232
12115,15,Jits_Phase_8,2,5,80,127,1692842428
12115,15,Jits_Phase_8,3,5,56,103,1692901696
12115,15,Jits_Phase_8,0,1,48,32,1693512988
12115,15,Jits_Phase_8,1,5,63,98,1693551972
12115,15,Jits_Phase_8,2,5,80,127,1693612376
12115,15,Jits_Phase_8,3,5,56,103,1693652460
12115,15,Jits_Phase_8,0,1,48,27,1694325924
12115,15,Jits_Phase_8,1,5,56,103,1694451980
12115,15,Jits_Phase_8,2,5,80,127,1694471468
12115,15,Jits_Phase_8,3,5,63,98,1694492152
12115,15,Jits_Phase_8,0,1,48,27,1695136200
12115,15,Jits_Phase_8,1,5,63,98,1695171968
12115,15,Jits_Phase_8,2,5,56,103,1695192576
12115,15,Jits_Phase_8,3,5,80,127,1695232440
12115,15,Jits_Phase_8,0,1,48,27,1695918344
12115,15,Jits_Phase_8,1,5,63,98,1695981836
12115,15,Jits_Phase_8,2,5,80,127,1696011660
12115,15,Jits_Phase_8,3,5,56,103,1696032104
12115,15,Jits_Phase_8,0,5,80,127,1696751928
12115,15,Jits_Phase_8,1,1,48,36,1696783068
12115,15,Jits_Phase_8,2,5,56,103,1696802272
12115,15,Jits_Phase_8,3,5,63,98,1696861616
12115,15,Jits_Phase_8,0,1,48,36,1697527836
12115,15,Jits_Phase_8,1,5,63,98,1697541432
12115,15,Jits_Phase_8,2,5,56,103,1697662340
12115,15,Jits_Phase_8,3,5,80,127,1697692408
12115,15,Jits_Phase_8,0,1,48,29,1698311720
12115,15,Jits_Phase_8,1,5,80,127,1698382464
12115,15,Jits_Phase_8,2,5,63,98,1698401580
12115,15,Jits_Phase_8,3,5,56,103,1698472244
12115,15,Jits_Phase_8,0,1,48,32,1699146756
12115,15,Jits_Phase_8,1,5,63,98,1699202380
12115,15,Jits_Phase_8,2,5,56,103,1699211824
12115,15,Jits_Phase_8,3,5,80,127,1699291556
12115,15,Jits_Phase_8,0,1,48,32,1699938796
12115,15,Jits_Phase_8,1,5,56,103,1700061492
12115,15,Jits_Phase_8,2,5,80,127,1700092512
12115,15,Jits_Phase_8,3,5,63,98,1700101436
12115,15,Jits_Phase_8,0,9999,9999,9999,1565219960
12115,15,Jits_Phase_8,1,9999,9999,9999,1566019680
12115,15,Jits_Phase_8,2,9999,9999,9999,1566819400
12115,15,Jits_Phase_8,3,9999,9999,9999,1567619172
12115,15,Jits_Phase_8,4,9999,9999,9999,1568419936
12115,15,Jits_Phase_8,5,9999,9999,9999,1569219696
12115,15,Jits_Phase_8,6,9999,9999,9999,1570019452
12115,15,Jits_Phase_8,7,9999,9999,9999,1570819136
12115,15,Jits_Phase_8,8,9999,9999,9999,1571619948
12115,15,Jits_Phase_8,9,9999,9999,9999,1572419696
12115,15,Jits_Phase_8,10,9999,9999,9999,1573219404
12115,15,Jits_Phase_8,11,9999,9999,9999,1574019168
12115,15,Jits_Phase_8,12,9999,9999,9999,1574819928
12115,15,Jits_Phase_8,13,9999,9999,9999,1575619696
12115,15,Jits_Phase_8,14,9999,9999,9999,1576419444
12115,15,Jits_Phase_8,15,9999,9999,9999,1577219132
12115,15,Jits_Phase_8,16,9999,9999,9999,1578019924
12115,15,Jits_Phase_8,17,9999,9999,9999,1578819700
12115,15,Jits_Phase_8,18,9999,9999,9999,1579619388
12115,15,Jits_Phase_8,19,9999,9999,9999,1580419148
12115,15,Jits_Phase_8,20,9999,9999,9999,1581219904
12115,15,Jits_Phase_8,21,9999,9999,9999,1582019660
12115,15,Jits_Phase_8,22,9999,9999,9999,1582819408
12115,15,Jits_Phase_8,23,9999,9999,9999,1583619180
12115,15,Jits_Phase_8,24,9999,9999,9999,1584419908
12115,15,Jits_Phase_8,25,9999,9999,9999,1585219668
12115,15,Jits_Phase_8,26,9999,9999,9999,1586019428
12115,15,Jits_Phase_8,27,9999,9999,9999,1586819188
12115,15,Jits_Phase_8,28,9999,9999,9999,1587619944
12115,15,Jits_Phase_8,29,9999,9999,9999,1588419708
12115,15,Jits_Phase_8,30,9999,9999,9999,1589199988
12115,15,Jits_Phase_8,31,9999,9999,9999,1589999672
12115,15,Jits_Phase_8,32,9999,9999,9999,1590799424
12115,15,Jits_Phase_8,33,9999,9999,9999,1591599176
12115,15,Jits_Phase_8,34,9999,9999,9999,1592399984
12115,15,Jits_Phase_8,35,9999,9999,9999,1593199676
12115,15,Jits_Phase_8,36,9999,9999,9999,1593999440
12115,15,Jits_Phase_8,37,9999,9999,9999,1594799224
12115,15,Jits_Phase_8,38,9999,9999,9999,1595599960
12115,15,Jits_Phase_8,39,9999,9999,9999,1596399736
12115,15,Jits_Phase_8,40,9999,9999,9999,1597199440
12115,15,Jits_Phase_8,41,9999,9999,9999,1597999216
12115,15,Jits_Phase_8,42,9999,9999,9999,1598799940
12115,15,Jits_Phase_8,43,9999,9999,9999,1599599704
12115,15,Jits_Phase_8,44,9999,9999,9999,1600399444
12115,15,Jits_Phase_8,45,9999,9999,9999,1601199160
12115,15,Jits_Phase_8,46,9999,9999,9999,1601999960
12115,15,Jits_Phase_8,47,9999,9999,9999,1602799712
12115,15,Jits_Phase_8,48,9999,9999,9999,1603619940
12115,15,Jits_Phase_8,49,9999,9999,9999,1604419692
12115,15,Jits_Phase_8,50,9999,9999,9999,1605219448
12115,15,Jits_Phase_8,51,9999,9999,9999,1606019132
12115,15,Jits_Phase_8,52,9999,9999,9999,1606819964
12115,15,Jits_Phase_8,53,9999,9999,9999,1607619656
12115,15,Jits_Phase_8,54,9999,9999,9999,1608419408
12115,15,Jits_Phase_8,55,9999,9999,9999,1609219184
12115,15,Jits_Phase_8,56,9999,9999,9999,1610019908
12115,15,Jits_Phase_8,57,9999,9999,9999,1610819684
12115,15,Jits_Phase_8,58,9999,9999,9999,1611619456
12115,15,Jits_Phase_8,59,9999,9999,9999,1612419136
12115,15,Jits_Phase_8,60,9999,9999,9999,1613219964
12115,15,Jits_Phase_8,61,9999,9999,9999,1614019652
12115,15,Jits_Phase_8,62,9999,9999,9999,1614819408
12115,15,Jits_Phase_8,63,9999,9999,9999,1615619160
12115,15,Jits_Phase_8,64,9999,9999,9999,1616459828
12115,15,Jits_Phase_8,65,9999,9999,9999,1617259592
12115,15,Jits_Phase_8,66,9999,9999,9999,1618059356
12115,15,Jits_Phase_8,67,9999,9999,9999,1618859068
12115,15,Jits_Phase_8,68,9999,9999,9999,1619659876
12115,15,Jits_Phase_8,69,9999,9999,9999,1620459576
12115,15,Jits_Phase_8,70,9999,9999,9999,1621259344
12115,15,Jits_Phase_8,71,9999,9999,9999,1622059112
12115,15,Jits_Phase_8,72,9999,9999,9999,1622859840
12115,15,Jits_Phase_8,73,9999,9999,9999,1623659600
12115,15,Jits_Phase_8,74,9999,9999,9999,1624459364
12115,15,Jits_Phase_8,75,9999,9999,9999,1625259076
12115,15,Jits_Phase_8,76,9999,9999,9999,1626059880
12115,15,Jits_Phase_8,77,9999,9999,9999,1626859640
12115,15,Jits_Phase_8,78,9999,9999,9999,1627659316
12115,15,Jits_Phase_8,79,9999,9999,9999,1628459076
12115,15,Jits_Phase_8,80,9999,9999,9999,1629259880
12115,15,Jits_Phase_8,81,9999,9999,9999,1630019708
12115,15,Jits_Phase_8,82,9999,9999,9999,1630819388
12115,15,Jits_Phase_8,83,9999,9999,9999,1631619144
12115,15,Jits_Phase_8,84,9999,9999,9999,1632419968
12115,15,Jits_Phase_8,85,9999,9999,9999,1633219656
12115,15,Jits_Phase_8,86,9999,9999,9999,1634019412
12115,15,Jits_Phase_8,87,9999,9999,9999,1634819168
12115,15,Jits_Phase_8,88,9999,9999,9999,1635619896
12115,15,Jits_Phase_8,89,9999,9999,9999,1636419664
12115,15,Jits_Phase_8,90,9999,9999,9999,1637219432
12115,15,Jits_Phase_8,91,9999,9999,9999,1638019188
12115,15,Jits_Phase_8,92,9999,9999,9999,1638819948
12115,15,Jits_Phase_8,93,9999,9999,9999,1639619704
12115,15,Jits_Phase_8,94,9999,9999,9999,1640419388
12115,15,Jits_Phase_8,95,9999,9999,9999,1641219140
12115,15,Jits_Phase_8,96,9999,9999,9999,1642019944
12115,15,Jits_Phase_8,97,9999,9999,9999,1642739840
12115,15,Jits_Phase_8,98,9999,9999,9999,1643539544
12115,15,Jits_Phase_8,99,9999,9999,9999,1644339304
12115,15,Jits_Phase_8,100,9999,9999,9999,1645140024
12115,15,Jits_Phase_8,101,9999,9999,9999,1645939780
12115,15,Jits_Phase_8,102,9999,9999,9999,1646739532
12115,15,Jits_Phase_8,103,9999,9999,9999,1647539304
12115,15,Jits_Phase_8,104,9999,9999,9999,1648340032
12115,15,Jits_Phase_8,105,9999,9999,9999,1649139796
12115,15,Jits_Phase_8,106,9999,9999,9999,1649939548
12115,15,Jits_Phase_8,107,9999,9999,9999,1650739288
12115,15,Jits_Phase_8,108,9999,9999,9999,1651540096
12115,15,Jits_Phase_8,109,9999,9999,9999,1652339776
12115,15,Jits_Phase_8,110,9999,9999,9999,1653139532
12115,15,Jits_Phase_8,111,9999,9999,9999,1653939308
12115,15,Jits_Phase_8,112,9999,9999,9999,1654740036
12115,15,Jits_Phase_8,113,9999,9999,9999,1655539792
12115,15,Jits_Phase_8,114,9999,9999,9999,1656419408
12115,15,Jits_Phase_8,115,9999,9999,9999,1657219168
12115,15,Jits_Phase_8,116,9999,9999,9999,1658019928
12115,15,Jits_Phase_8,117,9999,9999,9999,1658819664
12115,15,Jits_Phase_8,118,9999,9999,9999,1659619440
12115,15,Jits_Phase_8,119,9999,9999,9999,1660419132
12115,15,Jits_Phase_8,120,9999,9999,9999,1661219948
12115,15,Jits_Phase_8,121,9999,9999,9999,1662019708
12115,15,Jits_Phase_8,122,9999,9999,9999,1662819388
12115,15,Jits_Phase_8,123,9999,9999,9999,1663619136
12115,15,Jits_Phase_8,124,9999,9999,9999,1664419960
12115,15,Jits_Phase_8,125,9999,9999,9999,1665219712
12115,15,Jits_Phase_8,126,9999,9999,9999,1666019388
12115,15,Jits_Phase_8,127,9999,9999,9999,1666819148
12115,15,Jits_Phase_8,128,9999,9999,9999,1667619952
12115,15,Jits_Phase_8,129,9999,9999,9999,1668419708
12115,15,Jits_Phase_8,130,9999,9999,9999,1669219396
12115,15,Jits_Phase_8,131,9999,9999,9999,1670179952
12115,15,Jits_Phase_8,132,9999,9999,9999,1670979708
12115,15,Jits_Phase_8,133,9999,9999,9999,1671779400
12115,15,Jits_Phase_8,134,9999,9999,9999,1672579160
12115,15,Jits_Phase_8,135,9999,9999,9999,1673379904
12115,15,Jits_Phase_8,136,9999,9999,9999,1674179660
12115,15,Jits_Phase_8,137,9999,9999,9999,1674979432
12115,15,Jits_Phase_8,138,9999,9999,9999,1675779188
12115,15,Jits_Phase_8,139,9999,9999,9999,1676579920
12115,15,Jits_Phase_8,140,9999,9999,9999,1677379680
12115,15,Jits_Phase_8,141,9999,9999,9999,1678179436
12115,15,Jits_Phase_8,142,9999,9999,9999,1678979188
12115,15,Jits_Phase_8,143,9999,9999,9999,1679779944
12115,15,Jits_Phase_8,144,9999,9999,9999,1680579696
12115,15,Jits_Phase_8,145,9999,9999,9999,1681379452
12115,15,Jits_Phase_8,146,9999,9999,9999,1682179136
12115,15,Jits_Phase_8,147,9999,9999,9999,1682979932
12115,15,Jits_Phase_8,148,9999,9999,9999,1683779680
12115,15,Jits_Phase_8,149,9999,9999,9999,1684579432
12115,15,Jits_Phase_8,150,9999,9999,9999,1685219392
12115,15,Jits_Phase_8,151,9999,9999,9999,1686019160
12115,15,Jits_Phase_8,152,9999,9999,9999,1686819908
12115,15,Jits_Phase_8,153,9999,9999,9999,1687619668
12115,15,Jits_Phase_8,154,9999,9999,9999,1688419420
12115,15,Jits_Phase_8,155,9999,9999,9999,1689219164
12115,15,Jits_Phase_8,156,9999,9999,9999,1690019916
12115,15,Jits_Phase_8,157,9999,9999,9999,1690819672
12115,15,Jits_Phase_8,158,9999,9999,9999,1691619432
12115,15,Jits_Phase_8,159,9999,9999,9999,1692419180
12115,15,Jits_Phase_8,160,9999,9999,9999,1693219916
12115,15,Jits_Phase_8,161,9999,9999,9999,1694019672
12115,15,Jits_Phase_8,162,9999,9999,9999,1694819432
12115,15,Jits_Phase_8,163,9999,9999,9999,1695619188
12115,15,Jits_Phase_8,164,9999,9999,9999,1696419940
12115,15,Jits_Phase_8,165,9999,9999,9999,1697219696
12115,15,Jits_Phase_8,166,9999,9999,9999,1698019396
12115,15,Jits_Phase_8,167,9999,9999,9999,1698819152
12115,15,Jits_Phase_8,168,9999,9999,9999,1699619960
12115,15,Jits_Phase_8,169,9999,9999,9999,1700419652
12116,19,Jits_Linear_5,0,5,56,103,1708813608
12116,19,Jits_Linear_5,1,5,63,98,1708816704
12116,19,Jits_Linear_5,2,5,80,127,1708819680
12116,19,Jits_Linear_5,0,5,56,103,1709294140
12116,19,Jits_Linear_5,1,5,63,98,1709297092
12116,19,Jits_Linear_5,2,5,80,127,1709300360
12116,19,Jits_Linear_5,0,5,56,103,1709774324
12116,19,Jits_Linear_5,1,5,80,127,1709784296
12116,19,Jits_Linear_5,2,5,63,98,1709804008
12116,19,Jits_Linear_5,0,5,63,98,1710204280
12116,19,Jits_Linear_5,1,1,48,23,1710219756
12116,19,Jits_Linear_5,2,5,80,127,1710233900
12116,19,Jits_Linear_5,3,5,56,103,1710244172
12116,19,Jits_Linear_5,0,1,48,33,1710708644
12116,19,Jits_Linear_5,1,5,80,127,1710744140
12116,19,Jits_Linear_5,2,5,56,103,1710754112
12116,19,Jits_Linear_5,3,5,63,98,1710784088
12116,19,Jits_Linear_5,0,5,63,98,1711224184
12116,19,Jits_Linear_5,1,1,48,39,1711232184
12116,19,Jits_Linear_5,2,5,56,103,1711254004
12116,19,Jits_Linear_5,3,5,80,127,1711264272
12116,19,Jits_Linear_5,0,5,56,103,1711663388
12116,19,Jits_Linear_5,1,5,63,98,1711713668
12116,19,Jits_Linear_5,2,5,80,127,1711734128
12116,19,Jits_Linear_5,3,1,48,40,1711745120
12116,19,Jits_Linear_5,0,5,80,127,1712154172
12116,19,Jits_Linear_5,1,5,63,98,1712204304
12116,19,Jits_Linear_5,2,1,48,41,1712220604
12116,19,Jits_Linear_5,3,5,56,103,1712244088
12116,19,Jits_Linear_5,0,5,56,103,1712643388
12116,19,Jits_Linear_5,1,5,63,98,1712674188
12116,19,Jits_Linear_5,2,1,48,43,1712720232
12116,19,Jits_Linear_5,3,5,80,127,1712744012
12116,19,Jits_Linear_5,0,5,56,103,1713134024
12116,19,Jits_Linear_5,1,1,48,43,1713182028
12116,19,Jits_Linear_5,2,5,80,127,1713194408
12116,19,Jits_Linear_5,3,5,63,98,1713224232
12116,19,Jits_Linear_5,0,5,56,103,1713633876
12116,19,Jits_Linear_5,1,5,63,98,1713644148
12116,19,Jits_Linear_5,2,1,48,40,1713663828
12116,19,Jits_Linear_5,3,5,80,127,1713684004
12116,19,Jits_Linear_5,0,5,63,98,1714124208
12116,19,Jits_Linear_5,1,1,48,40,1714158644
12116,19,Jits_Linear_5,2,5,80,127,1714204300
12116,19,Jits_Linear_5,3,5,56,103,1714214276
12116,19,Jits_Linear_5,0,1,48,43,1714654440
12116,19,Jits_Linear_5,1,5,63,98,1714674096
12116,19,Jits_Linear_5,2,5,56,103,1714714180
12116,19,Jits_Linear_5,3,5,80,127,1714717176
12116,19,Jits_Linear_5,0,5,56,103,1715133920
12116,19,Jits_Linear_5,1,5,63,98,1715144340
12116,19,Jits_Linear_5,2,1,48,43,1715170228
12116,19,Jits_Linear_5,3,5,80,127,1715184124
12116,19,Jits_Linear_5,0,5,56,103,1715624176
12116,19,Jits_Linear_5,1,5,63,98,1715627248
12116,19,Jits_Linear_5,2,1,48,43,1715643288
12116,19,Jits_Linear_5,3,5,80,127,1715644856
12116,19,Jits_Linear_5,0,1,48,45,1716136272
12116,19,Jits_Linear_5,1,5,80,127,1716143420
12116,19,Jits_Linear_5,2,5,56,103,1716153616
12116,19,Jits_Linear_5,3,5,63,98,1716224420
12116,19,Jits_Linear_5,0,5,63,98,1716644236
12116,19,Jits_Linear_5,1,1,48,46,1716654776
12116,19,Jits_Linear_5,2,5,56,103,1716664016
12116,19,Jits_Linear_5,3,5,80,127,1716743440
12116,19,Jits_Linear_5,0,5,56,103,1717164304
12116,19,Jits_Linear_5,1,1,48,40,1717165268
12116,19,Jits_Linear_5,2,5,80,127,1717204312
12116,19,Jits_Linear_5,3,5,63,98,1717213460
12116,19,Jits_Linear_5,0,5,80,127,1717664152
12116,19,Jits_Linear_5,1,1,48,38,1717669068
12116,19,Jits_Linear_5,2,5,63,98,1717693748
12116,19,Jits_Linear_5,3,5,56,103,1717733688
12116,19,Jits_Linear_5,0,1,48,36,1718167708
12116,19,Jits_Linear_5,1,5,56,103,1718193660
12116,19,Jits_Linear_5,2,5,63,98,1718224236
12116,19,Jits_Linear_5,3,5,80,127,1718274348
12116,19,Jits_Linear_5,0,1,48,34,1718673448
12116,19,Jits_Linear_5,1,5,80,127,1718703468
12116,19,Jits_Linear_5,2,5,56,103,1718744380
12116,19,Jits_Linear_5,3,5,63,98,1718753752
12116,19,Jits_Linear_5,0,5,80,127,1719204136
12116,19,Jits_Linear_5,1,1,48,35,1719238416
12116,19,Jits_Linear_5,2,5,63,98,1719244144
12116,19,Jits_Linear_5,3,5,56,103,1719303412
12116,19,Jits_Linear_5,0,5,56,103,1719724440
12116,19,Jits_Linear_5,1,5,80,127,1719733592
12116,19,Jits_Linear_5,2,1,48,36,1719757384
12116,19,Jits_Linear_5,3,5,63,98,1719813456
12116,19,Jits_Linear_5,0,5,80,127,1720243548
12116,19,Jits_Linear_5,1,1,48,38,1720260672
12116,19,Jits_Linear_5,2,5,63,98,1720303932
12116,19,Jits_Linear_5,3,5,56,103,1720333612
12116,19,Jits_Linear_5,0,5,56,103,1720763924
12116,19,Jits_Linear_5,1,1,48,33,1720794472
12116,19,Jits_Linear_5,2,5,80,127,1720824236
12116,19,Jits_Linear_5,3,5,63,98,1720864176
12116,19,Jits_Linear_5,0,5,56,103,1721344248
12116,19,Jits_Linear_5,1,1,48,38,1721346916
12116,19,Jits_Linear_5,2,5,63,98,1721353536
12116,19,Jits_Linear_5,3,5,80,127,1721357200
12116,19,Jits_Linear_5,0,5,80,127,1721823484
12116,19,Jits_Linear_5,1,1,48,41,1721869528
12116,19,Jits_Linear_5,2,5,63,98,1721914060
12116,19,Jits_Linear_5,3,5,56,103,1721924036
12116,19,Jits_Linear_5,0,5,56,103,1722354036
12116,19,Jits_Linear_5,1,5,63,98,1722357288
12116,19,Jits_Linear_5,2,5,80,127,1722360108
12116,19,Jits_Linear_5,3,1,48,39,1722406240
12116,19,Jits_Linear_5,0,1,48,40,1722893932
12116,19,Jits_Linear_5,1,5,80,127,1722904068
12116,19,Jits_Linear_5,2,5,63,98,1722954052
12116,19,Jits_Linear_5,3,5,56,103,1722983952
12116,19,Jits_Linear_5,0,5,56,103,1723414028
12116,19,Jits_Linear_5,1,5,80,127,1723424076
12116,19,Jits_Linear_5,2,1,48,50,1723442264
12116,19,Jits_Linear_5,3,5,63,98,1723493756
12116,19,Jits_Linear_5,0,5,56,103,1723953664
12116,19,Jits_Linear_5,1,1,48,53,1723956564
12116,19,Jits_Linear_5,2,5,63,98,1723974044
12116,19,Jits_Linear_5,3,5,80,127,1724034288
12116,19,Jits_Linear_5,0,5,80,127,1724483936
12116,19,Jits_Linear_5,1,1,48,48,1724517992
12116,19,Jits_Linear_5,2,5,63,98,1724553612
12116,19,Jits_Linear_5,3,5,56,103,1724573948
12116,19,Jits_Linear_5,0,5,80,127,1725044024
12116,19,Jits_Linear_5,1,5,56,103,1725054444
12116,19,Jits_Linear_5,2,5,63,98,1725063520
12116,19,Jits_Linear_5,3,1,48,54,1725066416
12116,19,Jits_Linear_5,0,5,80,127,1725573616
12116,19,Jits_Linear_5,1,5,56,103,1725593952
12116,19,Jits_Linear_5,2,1,48,51,1725605388
12116,19,Jits_Linear_5,3,5,63,98,1725663552
12116,19,Jits_Linear_5,0,5,56,103,1726124360
12116,19,Jits_Linear_5,1,5,80,127,1726154040
12116,19,Jits_Linear_5,2,1,48,51,1726170560
12116,19,Jits_Linear_5,3,5,63,98,1726173816
12116,19,Jits_Linear_5,0,5,63,98,1726664072
12116,19,Jits_Linear_5,1,1,48,57,1726704956
12116,19,Jits_Linear_5,2,5,56,103,1726723412
12116,19,Jits_Linear_5,3,5,80,127,1726754284
12116,19,Jits_Linear_5,0,5,63,98,1727214032
12116,19,Jits_Linear_5,1,5,80,127,1727217172
12116,19,Jits_Linear_5,2,1,48,55,1727240668
12116,19,Jits_Linear_5,3,5,56,103,1727304232
12116,19,Jits_Linear_5,0,5,56,103,1727784288
12116,19,Jits_Linear_5,1,1,48,57,1727791908
12116,19,Jits_Linear_5,2,5,63,98,1727813956
12116,19,Jits_Linear_5,3,5,80,127,1727853968
12116,19,Jits_Linear_5,0,5,63,98,1728334188
12116,19,Jits_Linear_5,1,1,48,57,1728362860
12116,19,Jits_Linear_5,2,5,56,103,1728374048
12116,19,Jits_Linear_5,3,5,80,127,1728393684
12116,19,Jits_Linear_5,0,5,63,98,1728894408
12116,19,Jits_Linear_5,1,1,48,59,1728909136
12116,19,Jits_Linear_5,2,5,56,103,1728934368
12116,19,Jits_Linear_5,3,5,80,127,1728943592
12116,19,Jits_Linear_5,0,5,80,127,1729423916
12116,19,Jits_Linear_5,1,1,48,53,1729451940
12116,19,Jits_Linear_5,2,5,63,98,1729494372
12116,19,Jits_Linear_5,3,5,56,103,1729513784
12116,19,Jits_Linear_5,0,5,56,103,1729973620
12116,19,Jits_Linear_5,1,5,80,127,1729994080
12116,19,Jits_Linear_5,2,1,48,59,1730016976
12116,19,Jits_Linear_5,3,5,63,98,1730034012
12116,19,Jits_Linear_5,0,1,48,59,1730511480
12116,19,Jits_Linear_5,1,5,63,98,1730543964
12116,19,Jits_Linear_5,2,5,80,127,1730563452
12116,19,Jits_Linear_5,3,5,56,103,1730604436
12116,19,Jits_Linear_5,0,1,48,51,1731060316
12116,19,Jits_Linear_5,1,5,63,98,1731104184
12116,19,Jits_Linear_5,2,5,56,103,1731123744
12116,19,Jits_Linear_5,3,5,80,127,1731133720
12116,19,Jits_Linear_5,0,1,48,49,1731625192
12116,19,Jits_Linear_5,1,5,80,127,1731664104
12116,19,Jits_Linear_5,2,5,56,103,1731683964
12116,19,Jits_Linear_5,3,5,63,98,1731714536
12116,19,Jits_Linear_5,0,1,48,48,1732177684
12116,19,Jits_Linear_5,1,5,56,103,1732304196
12116,19,Jits_Linear_5,2,5,80,127,1732307264
12116,19,Jits_Linear_5,3,5,63,98,1732323832
12116,19,Jits_Linear_5,0,5,63,98,1732793780
12116,19,Jits_Linear_5,1,5,56,103,1732824728
12116,19,Jits_Linear_5,2,5,80,127,1732883776
12116,19,Jits_Linear_5,3,1,48,45,1732937984
12116,19,Jits_Linear_5,0,1,48,51,1733438328
12116,19,Jits_Linear_5,1,5,63,98,1733443904
12116,19,Jits_Linear_5,2,5,56,103,1733454252
12116,19,Jits_Linear_5,3,5,80,127,1733464448
12116,19,Jits_Linear_5,0,5,56,103,1733964280
12116,19,Jits_Linear_5,1,5,80,127,1733993956
12116,19,Jits_Linear_5,2,1,48,49,1734003932
12116,19,Jits_Linear_5,3,5,63,98,1734005416
12116,19,Jits_Linear_5,0,1,48,45,1734558524
12116,19,Jits_Linear_5,1,5,63,98,1734573540
12116,19,Jits_Linear_5,2,5,56,103,1734583664
12116,19,Jits_Linear_5,3,5,80,127,1734604124
12116,19,Jits_Linear_5,0,5,56,103,1735074136
12116,19,Jits_Linear_5,1,1,48,49,1735108564
12116,19,Jits_Linear_5,2,5,63,98,1735133852
12116,19,Jits_Linear_5,3,5,80,127,1735136988
12116,19,Jits_Linear_5,4,1,48,25,1735172616
12116,19,Jits_Linear_5,0,1,48,49,1735647856
12116,19,Jits_Linear_5,1,5,80,127,1735674188
12116,19,Jits_Linear_5,2,5,56,103,1735683560
12116,19,Jits_Linear_5,3,1,48,24,1735714164
12116,19,Jits_Linear_5,4,5,63,98,1735754044
12116,19,Jits_Linear_5,0,1,48,45,1736218244
12116,19,Jits_Linear_5,1,5,80,127,1736243824
12116,19,Jits_Linear_5,2,5,56,103,1736314992
12116,19,Jits_Linear_5,3,5,63,98,1736323616
12116,19,Jits_Linear_5,0,1,48,48,1736821540
12116,19,Jits_Linear_5,1,5,63,98,1736864088
12116,19,Jits_Linear_5,2,5,56,103,1736874356
12116,19,Jits_Linear_5,3,5,80,127,1736893772
12116,19,Jits_Linear_5,0,5,80,127,1737393596
12116,19,Jits_Linear_5,1,5,63,98,1737453840
12116,19,Jits_Linear_5,2,1,48,48,1737458528
12116,19,Jits_Linear_5,3,5,56,103,1737493848
12116,19,Jits_Linear_5,0,5,56,103,1738024268
12116,19,Jits_Linear_5,1,5,63,98,1738033568
12116,19,Jits_Linear_5,2,1,48,52,1738065532
12116,19,Jits_Linear_5,3,5,80,127,1738073724
12116,19,Jits_Linear_5,0,5,56,103,1738574092
12116,19,Jits_Linear_5,1,5,80,127,1738603772
12116,19,Jits_Linear_5,2,1,48,55,1738611076
12116,19,Jits_Linear_5,3,5,63,98,1738654064
12116,19,Jits_Linear_5,0,1,48,51,1739175600
12116,19,Jits_Linear_5,1,5,56,103,1739203948
12116,19,Jits_Linear_5,2,5,63,98,1739243812
12116,19,Jits_Linear_5,3,5,80,127,1739247104
12116,19,Jits_Linear_5,0,1,48,60,1739767504
12116,19,Jits_Linear_5,1,5,56,103,1739793836
12116,19,Jits_Linear_5,2,5,63,98,1739804108
12116,19,Jits_Linear_5,3,5,80,127,1739823744
12116,19,Jits_Linear_5,0,1,48,51,1740330276
12116,19,Jits_Linear_5,1,5,56,103,1740343644
12116,19,Jits_Linear_5,2,5,80,127,1740346712
12116,19,Jits_Linear_5,3,5,63,98,1740383808
12116,19,Jits_Linear_5,0,1,48,51,1740909888
12116,19,Jits_Linear_5,1,5,63,98,1740973412
12116,19,Jits_Linear_5,2,5,56,103,1741005244
12116,19,Jits_Linear_5,3,5,80,127,1741023536
12116,19,Jits_Linear_5,0,5,80,127,1741543756
12116,19,Jits_Linear_5,1,5,56,103,1741554176
12116,19,Jits_Linear_5,2,5,63,98,1741564372
12116,19,Jits_Linear_5,3,1,48,48,1741571084
12116,19,Jits_Linear_5,0,1,48,53,1742092940
12116,19,Jits_Linear_5,1,5,56,103,1742143840
12116,19,Jits_Linear_5,2,5,80,127,1742183856
12116,19,Jits_Linear_5,3,5,63,98,1742213516
12116,19,Jits_Linear_5,0,1,48,47,1742676228
12116,19,Jits_Linear_5,1,5,63,98,1742754052
12116,19,Jits_Linear_5,2,5,80,127,1742764620
12116,19,Jits_Linear_5,3,5,56,103,1742773608
12116,19,Jits_Linear_5,0,1,48,50,1743297904
12116,19,Jits_Linear_5,1,5,56,103,1743333676
12116,19,Jits_Linear_5,2,5,63,98,1743404692
12116,19,Jits_Linear_5,3,5,80,127,1743413692
12116,19,Jits_Linear_5,0,1,48,52,1743932536
12116,19,Jits_Linear_5,1,5,80,127,1743944168
12116,19,Jits_Linear_5,2,5,56,103,1743954288
12116,19,Jits_Linear_5,3,5,63,98,1744003672
12116,19,Jits_Linear_5,0,1,48,52,1744523020
12116,19,Jits_Linear_5,1,5,80,127,1744563752
12116,19,Jits_Linear_5,2,5,56,103,1744623984
12116,19,Jits_Linear_5,3,5,63,98,1744653660
12116,19,Jits_Linear_5,0,1,48,58,1745128436
12116,19,Jits_Linear_5,1,5,56,103,1745173800
12116,19,Jits_Linear_5,2,5,80,127,1745176940
12116,19,Jits_Linear_5,3,5,63,98,1745213740
12116,19,Jits_Linear_5,0,1,48,54,1745792728
12116,19,Jits_Linear_5,1,5,56,103,1745813880
12116,19,Jits_Linear_5,2,5,63,98,1745843480
12116,19,Jits_Linear_5,3,5,80,127,1745853828
12116,19,Jits_Linear_5,0,5,63,98,1746434496
12116,19,Jits_Linear_5,1,1,48,52,1746436360
12116,19,Jits_Linear_5,2,5,80,127,1746443712
12116,19,Jits_Linear_5,3,5,56,103,1746453760
12116,19,Jits_Linear_5,0,5,80,127,1746993672
12116,19,Jits_Linear_5,1,5,56,103,1747043652
12116,19,Jits_Linear_5,2,5,63,98,1747046644
12116,19,Jits_Linear_5,3,1,48,46,1747076884
12116,19,Jits_Linear_5,0,5,56,103,1747643756
12116,19,Jits_Linear_5,1,1,48,50,1747653616
12116,19,Jits_Linear_5,2,5,80,127,1747664208
12116,19,Jits_Linear_5,3,5,63,98,1747673432
12116,19,Jits_Linear_5,0,1,48,45,1748186500
12116,19,Jits_Linear_5,1,5,63,98,1748243696
12116,19,Jits_Linear_5,2,5,56,103,1748273668
12116,19,Jits_Linear_5,3,5,80,127,1748293964
12116,19,Jits_Linear_5,0,1,48,63,1748784776
12116,19,Jits_Linear_5,1,1,48,39,1748820260
12116,19,Jits_Linear_5,2,5,56,103,1748873492
12116,19,Jits_Linear_5,3,5,80,127,1748883764
12116,19,Jits_Linear_5,4,5,63,98,1748953728
12116,19,Jits_Linear_5,0,1,48,57,1749407304
12116,19,Jits_Linear_5,1,5,63,98,1749483908
12116,19,Jits_Linear_5,2,5,80,127,1749523760
12116,19,Jits_Linear_5,3,5,56,103,1749563700
12116,19,Jits_Linear_5,0,1,48,57,1750053692
12116,19,Jits_Linear_5,1,5,56,103,1750123924
12116,19,Jits_Linear_5,2,5,63,98,1750134196
12116,19,Jits_Linear_5,3,5,80,127,1750153668
12116,19,Jits_Linear_5,0,1,48,56,1750688932
12116,19,Jits_Linear_5,1,5,63,98,1750793472
12116,19,Jits_Linear_5,2,5,80,127,1750814004
12116,19,Jits_Linear_5,3,5,56,103,1750833564
12116,19,Jits_Linear_5,0,5,56,103,1751363980
12116,19,Jits_Linear_5,1,1,48,54,1751380352
12116,19,Jits_Linear_5,2,5,80,127,1751443772
12116,19,Jits_Linear_5,3,5,63,98,1751454340
12116,19,Jits_Linear_5,0,1,48,62,1752001660
12116,19,Jits_Linear_5,1,5,80,127,1752033672
12116,19,Jits_Linear_5,2,5,63,98,1752044016
12116,19,Jits_Linear_5,3,5,56,103,1752073620
12116,19,Jits_Linear_5,0,5,63,98,1752623344
12116,19,Jits_Linear_5,1,5,80,127,1752664556
12116,19,Jits_Linear_5,2,1,48,59,1752706264
12116,19,Jits_Linear_5,3,5,56,103,1752723744
12116,19,Jits_Linear_5,0,5,63,98,1753263512
12116,19,Jits_Linear_5,1,5,56,103,1753313640
12116,19,Jits_Linear_5,2,1,48,67,1753316388
12116,19,Jits_Linear_5,3,5,80,127,1753344356
12116,19,Jits_Linear_5,0,5,80,127,1753913564
12116,19,Jits_Linear_5,1,5,63,98,1753924132
12116,19,Jits_Linear_5,2,1,48,66,1753930544
12116,19,Jits_Linear_5,3,5,56,103,1753993588
12116,19,Jits_Linear_5,0,1,48,66,1754526912
12116,19,Jits_Linear_5,1,5,80,127,1754625448
12116,19,Jits_Linear_5,2,5,56,103,1754633624
12116,19,Jits_Linear_5,3,5,63,98,1754636692
12116,19,Jits_Linear_5,0,5,56,103,1755203972
12116,19,Jits_Linear_5,1,1,48,63,1755210980
12116,19,Jits_Linear_5,2,5,80,127,1755224352
12116,19,Jits_Linear_5,3,5,63,98,1755233576
12116,19,Jits_Linear_5,0,1,48,52,1755795564
12116,19,Jits_Linear_5,1,5,63,98,1755854356
12116,19,Jits_Linear_5,2,5,56,103,1755894056
12116,19,Jits_Linear_5,3,5,80,127,1755913544
12116,19,Jits_Linear_5,0,1,48,62,1756384584
12116,19,Jits_Linear_5,1,5,63,98,1756504328
12116,19,Jits_Linear_5,2,5,56,103,1756563896
12116,19,Jits_Linear_5,3,5,80,127,1756566984
12116,19,Jits_Linear_5,0,1,48,60,1757046320
12116,19,Jits_Linear_5,1,5,56,103,1757113728
12116,19,Jits_Linear_5,2,5,80,127,1757134340
12116,19,Jits_Linear_5,3,5,63,98,1757174412
12116,19,Jits_Linear_5,0,1,48,59,1757697812
12116,19,Jits_Linear_5,1,5,56,103,1757793584
12116,19,Jits_Linear_5,2,5,63,98,1757814344
12116,19,Jits_Linear_5,3,5,80,127,1757824316
12116,19,Jits_Linear_5,0,1,48,66,1758347792
12116,19,Jits_Linear_5,1,5,80,127,1758414304
12116,19,Jits_Linear_5,2,5,56,103,1758443816
12116,19,Jits_Linear_5,3,5,63,98,1758483756
12116,19,Jits_Linear_5,0,1,48,56,1758991588
12116,19,Jits_Linear_5,1,5,80,127,1759073576
12116,19,Jits_Linear_5,2,5,56,103,1759094320
12116,19,Jits_Linear_5,3,5,63,98,1759153540
12116,19,Jits_Linear_5,0,1,48,64,1759633320
12116,19,Jits_Linear_5,1,5,56,103,1759734204
12116,19,Jits_Linear_5,2,5,80,127,1759753540
12116,19,Jits_Linear_5,3,5,63,98,1759814232
12116,19,Jits_Linear_5,0,1,48,68,1760320704
12116,19,Jits_Linear_5,1,5,80,127,1760374308
12116,19,Jits_Linear_5,2,5,56,103,1760384428
12116,19,Jits_Linear_5,3,5,63,98,1760424452
12116,19,Jits_Linear_5,0,1,48,70,1760960960
12116,19,Jits_Linear_5,1,5,63,98,1761033524
12116,19,Jits_Linear_5,2,5,56,103,1761073448
12116,19,Jits_Linear_5,3,5,80,127,1761076368
12116,19,Jits_Linear_5,0,1,48,66,1761602168
12116,19,Jits_Linear_5,1,5,63,98,1761713468
12116,19,Jits_Linear_5,2,5,80,127,1761753336
12116,19,Jits_Linear_5,3,5,56,103,1761784280
12116,19,Jits_Linear_5,0,1,48,64,1762276816
12116,19,Jits_Linear_5,1,5,56,103,1762363832
12116,19,Jits_Linear_5,2,5,63,98,1762374088
12116,19,Jits_Linear_5,3,5,80,127,1762403616
12116,19,Jits_Linear_5,0,1,48,65,1762933460
12116,19,Jits_Linear_5,1,5,80,127,1763024324
12116,19,Jits_Linear_5,2,5,63,98,1763093772
12116,19,Jits_Linear_5,3,5,56,103,1763104188
12116,19,Jits_Linear_5,0,1,48,56,1763600540
12116,19,Jits_Linear_5,1,5,63,98,1763695260
12116,19,Jits_Linear_5,2,5,56,103,1763763552
12116,19,Jits_Linear_5,3,5,80,127,1763773748
12116,19,Jits_Linear_5,0,1,48,56,1764300892
12116,19,Jits_Linear_5,1,5,63,98,1764363712
12116,19,Jits_Linear_5,2,5,56,103,1764384472
12116,19,Jits_Linear_5,3,5,80,127,1764424024
12116,19,Jits_Linear_5,0,1,48,59,1764965708
12116,19,Jits_Linear_5,1,5,56,103,1765043532
12116,19,Jits_Linear_5,2,5,63,98,1765053732
12116,19,Jits_Linear_5,3,5,80,127,1765133660
12116,19,Jits_Linear_5,0,1,48,56,1765664864
12116,19,Jits_Linear_5,1,5,63,98,1765704296
12116,19,Jits_Linear_5,2,5,56,103,1765733600
12116,19,Jits_Linear_5,3,5,80,127,1765773600
12116,19,Jits_Linear_5,0,1,48,59,1766312172
12116,19,Jits_Linear_5,1,5,56,103,1766373852
12116,19,Jits_Linear_5,2,5,63,98,1766413632
12116,19,Jits_Linear_5,3,5,80,127,1766453568
12116,19,Jits_Linear_5,0,1,48,60,1766987684
12116,19,Jits_Linear_5,1,5,80,127,1767053724
12116,19,Jits_Linear_5,2,5,56,103,1767133536
12116,19,Jits_Linear_5,3,5,63,98,1767143880
12116,19,Jits_Linear_5,0,1,48,67,1767691028
12116,19,Jits_Linear_5,1,5,56,103,1767773632
12116,19,Jits_Linear_5,2,5,63,98,1767776548
12116,19,Jits_Linear_5,3,5,80,127,1767784488
12116,19,Jits_Linear_5,0,1,48,64,1768417524
12116,19,Jits_Linear_5,1,5,56,103,1768474048
12116,19,Jits_Linear_5,2,5,63,98,1768493388
12116,19,Jits_Linear_5,3,5,80,127,1768504180
12116,19,Jits_Linear_5,0,1,48,58,1769055144
12116,19,Jits_Linear_5,1,5,63,98,1769114088
12116,19,Jits_Linear_5,2,5,80,127,1769124208
12116,19,Jits_Linear_5,3,5,56,103,1769143548
12116,19,Jits_Linear_5,0,1,48,62,1769712868
12116,19,Jits_Linear_5,1,5,63,98,1769804072
12116,19,Jits_Linear_5,2,5,56,103,1769884252
12116,19,Jits_Linear_5,3,5,80,127,1769887172
12116,19,Jits_Linear_5,0,1,48,58,1770401652
12116,19,Jits_Linear_5,1,5,63,98,1770494224
12116,19,Jits_Linear_5,2,5,56,103,1770513700
12116,19,Jits_Linear_5,3,5,80,127,1770543524
12116,19,Jits_Linear_5,0,1,48,62,1771045716
12116,19,Jits_Linear_5,1,5,56,103,1771183472
12116,19,Jits_Linear_5,2,5,63,98,1771204304
12116,19,Jits_Linear_5,3,5,80,127,1771214128
12116,19,Jits_Linear_5,0,1,48,61,1771762256
12116,19,Jits_Linear_5,1,5,56,103,1771904248
12116,19,Jits_Linear_5,2,5,63,98,1771934172
12116,19,Jits_Linear_5,3,5,80,127,1771937388
12116,19,Jits_Linear_5,0,1,48,67,1772460192
12116,19,Jits_Linear_5,1,5,56,103,1772544368
12116,19,Jits_Linear_5,2,5,63,98,1772584368
12116,19,Jits_Linear_5,3,5,80,127,1772643636
12116,19,Jits_Linear_5,0,1,48,67,1773134904
12116,19,Jits_Linear_5,1,5,56,103,1773253996
12116,19,Jits_Linear_5,2,5,63,98,1773264192
12116,19,Jits_Linear_5,3,5,80,127,1773323684
12116,19,Jits_Linear_5,0,1,48,61,1773880572
12116,19,Jits_Linear_5,1,5,56,103,1773954332
12116,19,Jits_Linear_5,2,5,80,127,1773973996
12116,19,Jits_Linear_5,3,5,63,98,1774003512
12116,19,Jits_Linear_5,0,1,48,60,1774602816
12116,19,Jits_Linear_5,1,5,80,127,1774654008
12116,19,Jits_Linear_5,2,5,56,103,1774664132
12116,19,Jits_Linear_5,3,5,63,98,1774683468
12116,19,Jits_Linear_5,0,1,48,61,1775327052
12116,19,Jits_Linear_5,1,5,63,98,1775344164
12116,19,Jits_Linear_5,2,5,80,127,1775423952
12116,19,Jits_Linear_5,3,5,56,103,1775434224
12116,19,Jits_Linear_5,0,1,48,64,1776019740
12116,19,Jits_Linear_5,1,5,80,127,1776103936
12116,19,Jits_Linear_5,2,5,56,103,1776124232
12116,19,Jits_Linear_5,3,5,63,98,1776127300
12116,19,Jits_Linear_5,0,1,48,57,1776736796
12116,19,Jits_Linear_5,1,5,63,98,1776783572
12116,19,Jits_Linear_5,2,5,80,127,1776787240
12116,19,Jits_Linear_5,3,5,56,103,1776844128
12116,19,Jits_Linear_5,0,1,48,69,1777448004
12116,19,Jits_Linear_5,1,5,56,103,1777474032
12116,19,Jits_Linear_5,2,5,80,127,1777484228
12116,19,Jits_Linear_5,3,5,63,98,1777524240
12116,19,Jits_Linear_5,0,1,48,55,1778130884
12116,19,Jits_Linear_5,1,5,56,103,1778163968
12116,19,Jits_Linear_5,2,5,63,98,1778223612
12116,19,Jits_Linear_5,3,5,80,127,1778233644
12116,19,Jits_Linear_5,0,1,48,54,1778799440
12116,19,Jits_Linear_5,1,5,63,98,1778884092
12116,19,Jits_Linear_5,2,5,80,127,1778924016
12116,19,Jits_Linear_5,3,5,56,103,1778964108
12116,19,Jits_Linear_5,0,1,48,58,1779538756
12116,19,Jits_Linear_5,1,5,56,103,1779593488
12116,19,Jits_Linear_5,2,5,63,98,1779673520
12116,19,Jits_Linear_5,3,5,80,127,1779676808
12116,19,Jits_Linear_5,0,1,48,56,1780238128
12116,19,Jits_Linear_5,1,5,80,127,1780363572
12116,19,Jits_Linear_5,2,5,56,103,1780394236
12116,19,Jits_Linear_5,3,5,63,98,1780397312
12116,19,Jits_Linear_5,0,1,48,53,1781010396
12116,19,Jits_Linear_5,1,5,56,103,1781043552
12116,19,Jits_Linear_5,2,5,80,127,1781064012
12116,19,Jits_Linear_5,3,5,63,98,1781104160
12116,19,Jits_Linear_5,0,1,48,54,1781731272
12116,19,Jits_Linear_5,1,5,80,127,1781743976
12116,19,Jits_Linear_5,2,5,63,98,1781763388
12116,19,Jits_Linear_5,3,5,56,103,1781824004
12116,19,Jits_Linear_5,0,5,63,98,1782474076
12116,19,Jits_Linear_5,1,5,56,103,1782484348
12116,19,Jits_Linear_5,2,1,48,58,1782505900
12116,19,Jits_Linear_5,3,5,80,127,1782533424
12116,19,Jits_Linear_5,0,5,56,103,1783183840
12116,19,Jits_Linear_5,1,5,63,98,1783204104
12116,19,Jits_Linear_5,2,1,48,54,1783212948
12116,19,Jits_Linear_5,3,5,80,127,1783214440
12116,19,Jits_Linear_5,0,1,48,54,1783837484
12116,19,Jits_Linear_5,1,5,56,103,1783903600
12116,19,Jits_Linear_5,2,5,63,98,1783906812
12116,19,Jits_Linear_5,3,5,80,127,1783923984
12116,19,Jits_Linear_5,0,1,48,56,1784511516
12116,19,Jits_Linear_5,1,5,63,98,1784673604
12116,19,Jits_Linear_5,2,5,56,103,1784704252
12116,19,Jits_Linear_5,3,5,80,127,1784734028
12116,19,Jits_Linear_5,0,1,48,55,1785270312
12116,19,Jits_Linear_5,1,5,80,127,1785363912
12116,19,Jits_Linear_5,2,5,56,103,1785453820
12116,19,Jits_Linear_5,3,5,63,98,1785456892
12116,19,Jits_Linear_5,0,1,48,55,1786048352
12116,19,Jits_Linear_5,1,5,56,103,1786094088
12116,19,Jits_Linear_5,2,5,80,127,1786097004
12116,19,Jits_Linear_5,3,5,63,98,1786174092
12116,19,Jits_Linear_5,0,1,48,54,1786812612
12116,19,Jits_Linear_5,1,5,80,127,1786824020
12116,19,Jits_Linear_5,2,5,63,98,1786883592
12116,19,Jits_Linear_5,3,5,56,103,1786914076
12116,19,Jits_Linear_5,0,5,63,98,1787554124
12116,19,Jits_Linear_5,1,5,80,127,1787564320
12116,19,Jits_Linear_5,2,1,48,59,1787578452
12116,19,Jits_Linear_5,3,5,56,103,1787633920
12116,19,Jits_Linear_5,0,1,48,54,1788274792
12116,19,Jits_Linear_5,1,5,56,103,1788303812
12116,19,Jits_Linear_5,2,5,80,127,1788333288
12116,19,Jits_Linear_5,3,5,63,98,1788383552
12116,19,Jits_Linear_5,0,1,48,53,1789040236
12116,19,Jits_Linear_5,1,5,63,98,1789084052
12116,19,Jits_Linear_5,2,5,56,103,1789113952
12116,19,Jits_Linear_5,3,5,80,127,1789116872
12116,19,Jits_Linear_5,0,1,48,56,1789728144
12116,19,Jits_Linear_5,1,5,63,98,1789824364
12116,19,Jits_Linear_5,2,5,80,127,1789844100
12116,19,Jits_Linear_5,3,5,56,103,1789854000
12116,19,Jits_Linear_5,0,1,48,48,1790459880
12116,19,Jits_Linear_5,1,5,56,103,1790573864
12116,19,Jits_Linear_5,2,5,63,98,1790576932
12116,19,Jits_Linear_5,3,5,80,127,1790594400
12116,19,Jits_Linear_5,0,1,48,38,1791217544
12116,19,Jits_Linear_5,1,5,56,103,1791274220
12116,19,Jits_Linear_5,2,5,63,98,1791283816
12116,19,Jits_Linear_5,3,5,80,127,1791314168
12116,19,Jits_Linear_5,0,1,48,45,1791933180
12116,19,Jits_Linear_5,1,5,63,98,1792044532
12116,19,Jits_Linear_5,2,5,80,127,1792063796
12116,19,Jits_Linear_5,3,5,56,103,1792103884
12116,19,Jits_Linear_5,0,1,48,48,1792716324
12116,19,Jits_Linear_5,1,5,56,103,1792823708
12116,19,Jits_Linear_5,2,5,63,98,1792863796
12116,19,Jits_Linear_5,3,5,80,127,1792867088
12116,19,Jits_Linear_5,0,1,48,52,1793484108
12116,19,Jits_Linear_5,1,5,80,127,1793513876
12116,19,Jits_Linear_5,2,5,56,103,1793553968
12116,19,Jits_Linear_5,3,5,63,98,1793604080
12116,19,Jits_Linear_5,0,1,48,49,1794274436
12116,19,Jits_Linear_5,1,5,56,103,1794323832
12116,19,Jits_Linear_5,2,5,80,127,1794334176
12116,19,Jits_Linear_5,3,5,63,98,1794363928
12116,19,Jits_Linear_5,0,1,48,55,1795009620
12116,19,Jits_Linear_5,1,5,56,103,1795024260
12116,19,Jits_Linear_5,2,5,80,127,1795064200
12116,19,Jits_Linear_5,3,5,63,98,1795114312
12116,19,Jits_Linear_5,0,1,48,61,1795734096
12116,19,Jits_Linear_5,1,5,56,103,1795784096
12116,19,Jits_Linear_5,2,5,80,127,1795823964
12116,19,Jits_Linear_5,3,5,63,98,1795874148
12116,19,Jits_Linear_5,0,1,48,57,1796500436
12116,19,Jits_Linear_5,1,5,80,127,1796533592
12116,19,Jits_Linear_5,2,5,63,98,1796613752
12116,19,Jits_Linear_5,3,5,56,103,1796623872
12116,19,Jits_Linear_5,0,1,48,59,1797276540
12116,19,Jits_Linear_5,1,5,80,127,1797343704
12116,19,Jits_Linear_5,2,5,56,103,1797353828
12116,19,Jits_Linear_5,3,5,63,98,1797374196
12116,19,Jits_Linear_5,0,1,48,62,1798044708
12116,19,Jits_Linear_5,1,5,63,98,1798073800
12116,19,Jits_Linear_5,2,1,48,38,1798114140
12116,19,Jits_Linear_5,3,5,56,103,1798144656
12116,19,Jits_Linear_5,4,5,80,127,1798147724
12116,19,Jits_Linear_5,0,5,80,127,1798833612
12116,19,Jits_Linear_5,1,1,48,60,1798842580
12116,19,Jits_Linear_5,2,5,63,98,1798883808
12116,19,Jits_Linear_5,3,5,56,103,1798923896
12116,19,Jits_Linear_5,0,5,63,98,1799643740
12116,19,Jits_Linear_5,1,1,48,58,1799656224
12116,19,Jits_Linear_5,2,5,56,103,1799683820
12116,19,Jits_Linear_5,3,5,80,127,1799694164
12116,19,Jits_Linear_5,0,1,48,63,1800373204
12116,19,Jits_Linear_5,1,5,63,98,1800404620
12116,19,Jits_Linear_5,2,5,56,103,1800423736
12116,19,Jits_Linear_5,3,1,48,40,1800427064
12116,19,Jits_Linear_5,4,5,80,127,1800444396
12116,19,Jits_Linear_5,0,5,80,127,1801143536
12116,19,Jits_Linear_5,1,5,56,103,1801153880
12116,19,Jits_Linear_5,2,1,48,60,1801166216
12116,19,Jits_Linear_5,3,5,63,98,1801174484
12116,19,Jits_Linear_5,4,1,48,35,1801221352
12116,19,Jits_Linear_5,0,1,48,60,1801928792
12116,19,Jits_Linear_5,1,5,63,98,1801944628
12116,19,Jits_Linear_5,2,5,56,103,1801984348
12116,19,Jits_Linear_5,3,5,80,127,1802014100
12116,19,Jits_Linear_5,0,1,48,54,1802706024
12116,19,Jits_Linear_5,1,5,56,103,1802723656
12116,19,Jits_Linear_5,2,5,63,98,1802754456
12116,19,Jits_Linear_5,3,5,80,127,1802784056
12116,19,Jits_Linear_5,0,1,48,55,1803450640
12116,19,Jits_Linear_5,1,5,80,127,1803474648
12116,19,Jits_Linear_5,2,5,56,103,1803543868
12116,19,Jits_Linear_5,3,5,63,98,1803546936
12116,19,Jits_Linear_5,0,1,48,57,1804212124
12116,19,Jits_Linear_5,1,5,56,103,1804263848
12116,19,Jits_Linear_5,2,5,63,98,1804313964
12116,19,Jits_Linear_5,3,5,80,127,1804343640
12116,19,Jits_Linear_5,0,1,48,52,1804991344
12116,19,Jits_Linear_5,1,5,63,98,1805023528
12116,19,Jits_Linear_5,2,5,80,127,1805027040
12116,19,Jits_Linear_5,3,5,56,103,1805083920
12116,19,Jits_Linear_5,0,1,48,58,1805759788
12116,19,Jits_Linear_5,1,5,56,103,1805833624
12116,19,Jits_Linear_5,2,5,80,127,1805843968
12116,19,Jits_Linear_5,3,5,63,98,1805893932
12116,19,Jits_Linear_5,0,1,48,59,1806518128
12116,19,Jits_Linear_5,1,5,63,98,1806594584
12116,19,Jits_Linear_5,2,5,56,103,1806603584
12116,19,Jits_Linear_5,3,5,80,127,1806634444
12116,19,Jits_Linear_5,0,1,48,56,1807272648
12116,19,Jits_Linear_5,1,5,63,98,1807413512
12116,19,Jits_Linear_5,2,5,80,127,1807416880
12116,19,Jits_Linear_5,3,5,56,103,1807444464
12116,19,Jits_Linear_5,0,1,48,49,1808045052
12116,19,Jits_Linear_5,1,5,63,98,1808223544
12116,19,Jits_Linear_5,2,5,56,103,1808244076
12116,19,Jits_Linear_5,3,5,80,127,1808247292
12116,19,Jits_Linear_5,0,1,48,52,1808824664
12116,19,Jits_Linear_5,1,5,63,98,1808974228
12116,19,Jits_Linear_5,2,5,56,103,1809043788
12116,19,Jits_Linear_5,3,5,80,127,1809064396
12116,19,Jits_Linear_5,0,1,48,43,1809642120
12116,19,Jits_Linear_5,1,5,56,103,1809753616
12116,19,Jits_Linear_5,2,5,63,98,1809763736
12116,19,Jits_Linear_5,3,5,80,127,1809853748
12116,19,Jits_Linear_5,0,1,48,51,1810403600
12116,19,Jits_Linear_5,1,5,56,103,1810563720
12116,19,Jits_Linear_5,2,5,80,127,1810604584
12116,19,Jits_Linear_5,3,5,63,98,1810613660
12116,19,Jits_Linear_5,0,1,48,58,1811196540
12116,19,Jits_Linear_5,1,5,56,103,1811383820
12116,19,Jits_Linear_5,2,5,63,98,1811414544
12116,19,Jits_Linear_5,3,5,80,127,1811444072
12116,19,Jits_Linear_5,0,1,48,53,1811948588
12116,19,Jits_Linear_5,1,5,80,127,1812143660
12116,19,Jits_Linear_5,2,5,63,98,1812184428
12116,19,Jits_Linear_5,3,5,56,103,1812203840
12116,19,Jits_Linear_5,0,1,48,48,1812796540
12116,19,Jits_Linear_5,1,5,56,103,1812984116
12116,19,Jits_Linear_5,2,5,80,127,1813003528
12116,19,Jits_Linear_5,3,5,63,98,1813023988
12116,19,Jits_Linear_5,0,1,48,45,1813516880
12116,19,Jits_Linear_5,1,5,63,98,1813754356
12116,19,Jits_Linear_5,2,5,56,103,1813763580
12116,19,Jits_Linear_5,3,5,80,127,1813823748
12116,19,Jits_Linear_5,0,1,48,57,1814215196
12116,19,Jits_Linear_5,1,1,48,35,1814262756
12116,19,Jits_Linear_5,2,5,56,103,1814564144
12116,19,Jits_Linear_5,3,5,63,98,1814633828
12116,19,Jits_Linear_5,4,5,80,127,1814654436
12116,19,Jits_Linear_5,5,1,48,49,1814972032
12116,19,Jits_Linear_5,0,5,56,103,1815374316
12116,19,Jits_Linear_5,1,5,63,98,1815403768
12116,19,Jits_Linear_5,2,5,80,127,1815443880
12116,19,Jits_Linear_5,3,1,48,48,1815730868
12116,19,Jits_Linear_5,0,5,63,98,1816173876
12116,19,Jits_Linear_5,1,5,56,103,1816224328
12116,19,Jits_Linear_5,2,5,80,127,1816234600
12116,19,Jits_Linear_5,3,1,48,46,1816356828
12116,19,Jits_Linear_5,0,1,48,55,1816955548
12116,19,Jits_Linear_5,1,5,56,103,1817023712
12116,19,Jits_Linear_5,2,5,63,98,1817073976
12116,19,Jits_Linear_5,3,5,80,127,1817084324
12116,19,Jits_Linear_5,0,1,48,48,1817735324
12116,19,Jits_Linear_5,1,5,56,103,1817804080
12116,19,Jits_Linear_5,2,5,63,98,1817814352
12116,19,Jits_Linear_5,3,5,80,127,1817894356
12116,19,Jits_Linear_5,0,9999,9999,9999,1709051992
12116,19,Jits_Linear_5,1,9999,9999,9999,1709531256
12116,19,Jits_Linear_5,2,9999,9999,9999,1710011512
12116,19,Jits_Linear_5,3,9999,9999,9999,1710491740
12116,19,Jits_Linear_5,4,9999,9999,9999,1710972000
12116,19,Jits_Linear_5,5,9999,9999,9999,1711461480
12116,19,Jits_Linear_5,6,9999,9999,9999,1711951948
12116,19,Jits_Linear_5,7,9999,9999,9999,1712441464
12116,19,Jits_Linear_5,8,9999,9999,9999,1712931952
12116,19,Jits_Linear_5,9,9999,9999,9999,1713421388
12116,19,Jits_Linear_5,10,9999,9999,9999,1713921088
12116,19,Jits_Linear_5,11,9999,9999,9999,1714421840
12116,19,Jits_Linear_5,12,9999,9999,9999,1714921600
12116,19,Jits_Linear_5,13,9999,9999,9999,1715421284
12116,19,Jits_Linear_5,14,9999,9999,9999,1715922020
12116,19,Jits_Linear_5,15,9999,9999,9999,1716431988
12116,19,Jits_Linear_5,16,9999,9999,9999,1716941940
12116,19,Jits_Linear_5,17,9999,9999,9999,1717451888
12116,19,Jits_Linear_5,18,9999,9999,9999,1717961784
12116,19,Jits_Linear_5,19,9999,9999,9999,1718471740
12116,19,Jits_Linear_5,20,9999,9999,9999,1718991960
12116,19,Jits_Linear_5,21,9999,9999,9999,1719511132
12116,19,Jits_Linear_5,22,9999,9999,9999,1720031356
12116,19,Jits_Linear_5,23,9999,9999,9999,1720551512
12116,19,Jits_Linear_5,24,9999,9999,9999,1721071744
12116,19,Jits_Linear_5,25,9999,9999,9999,1721601108
12116,19,Jits_Linear_5,26,9999,9999,9999,1722131528
12116,19,Jits_Linear_5,27,9999,9999,9999,1722661992
12116,19,Jits_Linear_5,28,9999,9999,9999,1723191368
12116,19,Jits_Linear_5,29,9999,9999,9999,1723721844
12116,19,Jits_Linear_5,30,9999,9999,9999,1724261480
12116,19,Jits_Linear_5,31,9999,9999,9999,1724801116
12116,19,Jits_Linear_5,32,9999,9999,9999,1725341820
12116,19,Jits_Linear_5,33,9999,9999,9999,1725881456
12116,19,Jits_Linear_5,34,9999,9999,9999,1726422136
12116,19,Jits_Linear_5,35,9999,9999,9999,1726981180
12116,19,Jits_Linear_5,36,9999,9999,9999,1727531132
12116,19,Jits_Linear_5,37,9999,9999,9999,1728081988
12116,19,Jits_Linear_5,38,9999,9999,9999,1728631888
12116,19,Jits_Linear_5,39,9999,9999,9999,1729181796
12116,19,Jits_Linear_5,40,9999,9999,9999,1729741948
12116,19,Jits_Linear_5,41,9999,9999,9999,1730302032
12116,19,Jits_Linear_5,42,9999,9999,9999,1730861148
12116,19,Jits_Linear_5,43,9999,9999,9999,1731421292
12116,19,Jits_Linear_5,44,9999,9999,9999,1731981440
12116,19,Jits_Linear_5,45,9999,9999,9999,1732551788
12116,19,Jits_Linear_5,46,9999,9999,9999,1733121152
12116,19,Jits_Linear_5,47,9999,9999,9999,1733691492
12116,19,Jits_Linear_5,48,9999,9999,9999,1734261832
12116,19,Jits_Linear_5,49,9999,9999,9999,1734831168
12116,19,Jits_Linear_5,50,9999,9999,9999,1735411812
12116,19,Jits_Linear_5,51,9999,9999,9999,1735991352
12116,19,Jits_Linear_5,52,9999,9999,9999,1736572024
12116,19,Jits_Linear_5,53,9999,9999,9999,1737151604
12116,19,Jits_Linear_5,54,9999,9999,9999,1737731156
12116,19,Jits_Linear_5,55,9999,9999,9999,1738322044
12116,19,Jits_Linear_5,56,9999,9999,9999,1738911820
12116,19,Jits_Linear_5,57,9999,9999,9999,1739501648
12116,19,Jits_Linear_5,58,9999,9999,9999,1740091464
12116,19,Jits_Linear_5,59,9999,9999,9999,1740681272
12116,19,Jits_Linear_5,60,9999,9999,9999,1741281380
12116,19,Jits_Linear_5,61,9999,9999,9999,1741881456
12116,19,Jits_Linear_5,62,9999,9999,9999,1742481476
12116,19,Jits_Linear_5,63,9999,9999,9999,1743081572
12116,19,Jits_Linear_5,64,9999,9999,9999,1743681652
12116,19,Jits_Linear_5,65,9999,9999,9999,1744291944
12116,19,Jits_Linear_5,66,9999,9999,9999,1744901244
12116,19,Jits_Linear_5,67,9999,9999,9999,1745511500
12116,19,Jits_Linear_5,68,9999,9999,9999,1746121848
12116,19,Jits_Linear_5,69,9999,9999,9999,1746731076
12116,19,Jits_Linear_5,70,9999,9999,9999,1747351620
12116,19,Jits_Linear_5,71,9999,9999,9999,1747971196
12116,19,Jits_Linear_5,72,9999,9999,9999,1748591740
12116,19,Jits_Linear_5,73,9999,9999,9999,1749211208
12116,19,Jits_Linear_5,74,9999,9999,9999,1749831736
12116,19,Jits_Linear_5,75,9999,9999,9999,1750461508
12116,19,Jits_Linear_5,76,9999,9999,9999,1751091264
12116,19,Jits_Linear_5,77,9999,9999,9999,1751722064
12116,19,Jits_Linear_5,78,9999,9999,9999,1752351828
12116,19,Jits_Linear_5,79,9999,9999,9999,1752981580
12116,19,Jits_Linear_5,80,9999,9999,9999,1753621592
12116,19,Jits_Linear_5,81,9999,9999,9999,1754261560
12116,19,Jits_Linear_5,82,9999,9999,9999,1754901584
12116,19,Jits_Linear_5,83,9999,9999,9999,1755541624
12116,19,Jits_Linear_5,84,9999,9999,9999,1756181584
12116,19,Jits_Linear_5,85,9999,9999,9999,1756831804
12116,19,Jits_Linear_5,86,9999,9999,9999,1757482080
12116,19,Jits_Linear_5,87,9999,9999,9999,1758131260
12116,19,Jits_Linear_5,88,9999,9999,9999,1758781536
12116,19,Jits_Linear_5,89,9999,9999,9999,1759431764
12116,19,Jits_Linear_5,90,9999,9999,9999,1760091260
12116,19,Jits_Linear_5,91,9999,9999,9999,1760751676
12116,19,Jits_Linear_5,92,9999,9999,9999,1761411156
12116,19,Jits_Linear_5,93,9999,9999,9999,1762071648
12116,19,Jits_Linear_5,94,9999,9999,9999,1762731088
12116,19,Jits_Linear_5,95,9999,9999,9999,1763401816
12116,19,Jits_Linear_5,96,9999,9999,9999,1764071528
12116,19,Jits_Linear_5,97,9999,9999,9999,1764741208
12116,19,Jits_Linear_5,98,9999,9999,9999,1765411960
12116,19,Jits_Linear_5,99,9999,9999,9999,1766081592
12116,19,Jits_Linear_5,100,9999,9999,9999,1766761536
12116,19,Jits_Linear_5,101,9999,9999,9999,1767441508
12116,19,Jits_Linear_5,102,9999,9999,9999,1768121468
12116,19,Jits_Linear_5,103,9999,9999,9999,1768801348
12116,19,Jits_Linear_5,104,9999,9999,9999,1769481312
12116,19,Jits_Linear_5,105,9999,9999,9999,1770171472
12116,19,Jits_Linear_5,106,9999,9999,9999,1770861676
12116,19,Jits_Linear_5,107,9999,9999,9999,1771551836
12116,19,Jits_Linear_5,108,9999,9999,9999,1772241988
12116,19,Jits_Linear_5,109,9999,9999,9999,1772931152
12116,19,Jits_Linear_5,110,9999,9999,9999,1773631576
12116,19,Jits_Linear_5,111,9999,9999,9999,1774332000
12116,19,Jits_Linear_5,112,9999,9999,9999,1775031376
12116,19,Jits_Linear_5,113,9999,9999,9999,1775731776
12116,19,Jits_Linear_5,114,9999,9999,9999,1776431224
12116,19,Jits_Linear_5,115,9999,9999,9999,1777141832
12116,19,Jits_Linear_5,116,9999,9999,9999,1777851472
12116,19,Jits_Linear_5,117,9999,9999,9999,1778561088
12116,19,Jits_Linear_5,118,9999,9999,9999,1779271772
12116,19,Jits_Linear_5,119,9999,9999,9999,1779981412
12116,19,Jits_Linear_5,120,9999,9999,9999,1780701236
12116,19,Jits_Linear_5,121,9999,9999,9999,1781421140
12116,19,Jits_Linear_5,122,9999,9999,9999,1782142068
12116,19,Jits_Linear_5,123,9999,9999,9999,1782861900
12116,19,Jits_Linear_5,124,9999,9999,9999,1783581800
12116,19,Jits_Linear_5,125,9999,9999,9999,1784311896
12116,19,Jits_Linear_5,126,9999,9999,9999,1785041992
12116,19,Jits_Linear_5,127,9999,9999,9999,1785771108
12116,19,Jits_Linear_5,128,9999,9999,9999,1786501236
12116,19,Jits_Linear_5,129,9999,9999,9999,1787231332
12116,19,Jits_Linear_5,130,9999,9999,9999,1787971684
12116,19,Jits_Linear_5,131,9999,9999,9999,1788712040
12116,19,Jits_Linear_5,132,9999,9999,9999,1789451344
12116,19,Jits_Linear_5,133,9999,9999,9999,1790191704
12116,19,Jits_Linear_5,134,9999,9999,9999,1790932056
12116,19,Jits_Linear_5,135,9999,9999,9999,1791681628
12116,19,Jits_Linear_5,136,9999,9999,9999,1792431204
12116,19,Jits_Linear_5,137,9999,9999,9999,1793181752
12116,19,Jits_Linear_5,138,9999,9999,9999,1793931376
12116,19,Jits_Linear_5,139,9999,9999,9999,1794681920
12116,19,Jits_Linear_5,140,9999,9999,9999,1795441756
12116,19,Jits_Linear_5,141,9999,9999,9999,1796201596
12116,19,Jits_Linear_5,142,9999,9999,9999,1796961360
12116,19,Jits_Linear_5,143,9999,9999,9999,1797721196
12116,19,Jits_Linear_5,144,9999,9999,9999,1798481976
12116,19,Jits_Linear_5,145,9999,9999,9999,1799252076
12116,19,Jits_Linear_5,146,9999,9999,9999,1800022120
12116,19,Jits_Linear_5,147,9999,9999,9999,1800801344
12116,19,Jits_Linear_5,148,9999,9999,9999,1801571416
12116,19,Jits_Linear_5,149,9999,9999,9999,1802341452
12116,19,Jits_Linear_5,150,9999,9999,9999,1803121748
12116,19,Jits_Linear_5,151,9999,9999,9999,1803902024
12116,19,Jits_Linear_5,152,9999,9999,9999,1804681272
12116,19,Jits_Linear_5,153,9999,9999,9999,1805461564
12116,19,Jits_Linear_5,154,9999,9999,9999,1806241856
12116,19,Jits_Linear_5,155,9999,9999,9999,1807031360
12116,19,Jits_Linear_5,156,9999,9999,9999,1807821900
12116,19,Jits_Linear_5,157,9999,9999,9999,1808611400
12116,19,Jits_Linear_5,158,9999,9999,9999,1809401952
12116,19,Jits_Linear_5,159,9999,9999,9999,1810191452
12116,19,Jits_Linear_5,160,9999,9999,9999,1810991224
12116,19,Jits_Linear_5,161,9999,9999,9999,1811791968
12116,19,Jits_Linear_5,162,9999,9999,9999,1812591740
12116,19,Jits_Linear_5,163,9999,9999,9999,1813391436
12116,19,Jits_Linear_5,164,9999,9999,9999,1814191224
12116,19,Jits_Linear_5,165,9999,9999,9999,1815001156
12116,19,Jits_Linear_5,166,9999,9999,9999,1815811176
12116,19,Jits_Linear_5,167,9999,9999,9999,1816621132
12116,19,Jits_Linear_5,168,9999,9999,9999,1817431096
12116,19,Jits_Linear_5,169,9999,9999,9999,1818241132
12117,18,Jits_Linear_8,0,5,56,103,1827743148
12117,18,Jits_Linear_8,1,5,63,98,1827746324
12117,18,Jits_Linear_8,2,5,80,127,1827749368
12117,18,Jits_Linear_8,0,5,56,103,1828563236
12117,18,Jits_Linear_8,1,5,63,98,1828566332
12117,18,Jits_Linear_8,2,5,80,127,1828569532
12117,18,Jits_Linear_8,0,5,80,127,1829323096
12117,18,Jits_Linear_8,1,1,48,32,1829394920
12117,18,Jits_Linear_8,2,5,63,98,1829413300
12117,18,Jits_Linear_8,3,5,56,103,1829422300
12117,18,Jits_Linear_8,0,5,56,103,1830162652
12117,18,Jits_Linear_8,1,5,63,98,1830173368
12117,18,Jits_Linear_8,2,1,48,51,1830188624
12117,18,Jits_Linear_8,3,5,80,127,1830263272
12117,18,Jits_Linear_8,0,5,63,98,1830953276
12117,18,Jits_Linear_8,1,1,48,45,1830977676
12117,18,Jits_Linear_8,2,5,80,127,1830983320
12117,18,Jits_Linear_8,3,5,56,103,1831012772
12117,18,Jits_Linear_8,0,1,48,51,1831716128
12117,18,Jits_Linear_8,1,5,56,103,1831772576
12117,18,Jits_Linear_8,2,5,80,127,1831872836
12117,18,Jits_Linear_8,3,5,63,98,1831923336
12117,18,Jits_Linear_8,0,1,48,56,1832525400
12117,18,Jits_Linear_8,1,5,56,103,1832582596
12117,18,Jits_Linear_8,2,5,80,127,1832632664
12117,18,Jits_Linear_8,3,5,63,98,1832672676
12117,18,Jits_Linear_8,0,1,48,62,1833289332
12117,18,Jits_Linear_8,1,5,80,127,1833423340
12117,18,Jits_Linear_8,2,5,63,98,1833453092
12117,18,Jits_Linear_8,3,5,56,103,1833522548
12117,18,Jits_Linear_8,0,1,48,55,1834107152
12117,18,Jits_Linear_8,1,5,63,98,1834262956
12117,18,Jits_Linear_8,2,5,56,103,1834292484
12117,18,Jits_Linear_8,3,5,80,127,1834353248
12117,18,Jits_Linear_8,0,1,48,52,1834930324
12117,18,Jits_Linear_8,1,5,56,103,1835012532
12117,18,Jits_Linear_8,2,5,80,127,1835015524
12117,18,Jits_Linear_8,3,5,63,98,1835133364
12117,18,Jits_Linear_8,0,1,48,49,1835750892
12117,18,Jits_Linear_8,1,5,56,103,1835893104
12117,18,Jits_Linear_8,2,5,80,127,1835933216
12117,18,Jits_Linear_8,3,5,63,98,1835943264
12117,18,Jits_Linear_8,0,1,48,58,1836618000
12117,18,Jits_Linear_8,1,5,56,103,1836653016
12117,18,Jits_Linear_8,2,5,80,127,1836673332
12117,18,Jits_Linear_8,3,5,63,98,1836753280
12117,18,Jits_Linear_8,0,5,80,127,1837442440
12117,18,Jits_Linear_8,1,1,48,54,1837445108
12117,18,Jits_Linear_8,2,5,56,103,1837542624
12117,18,Jits_Linear_8,3,5,63,98,1837553188
12117,18,Jits_Linear_8,0,5,63,98,1838212320
12117,18,Jits_Linear_8,1,1,48,51,1838254576
12117,18,Jits_Linear_8,2,5,80,127,1838272880
12117,18,Jits_Linear_8,3,5,56,103,1838283004
12117,18,Jits_Linear_8,0,1,48,59,1838965960
12117,18,Jits_Linear_8,1,5,56,103,1839013288
12117,18,Jits_Linear_8,2,5,63,98,1839082952
12117,18,Jits_Linear_8,3,5,80,127,1839086316
12117,18,Jits_Linear_8,0,1,48,63,1839740068
12117,18,Jits_Linear_8,1,5,63,98,1839842832
12117,18,Jits_Linear_8,2,5,56,103,1839893036
12117,18,Jits_Linear_8,3,5,80,127,1839896100
12117,18,Jits_Linear_8,0,1,48,56,1840555424
12117,18,Jits_Linear_8,1,5,56,103,1840593360
12117,18,Jits_Linear_8,2,5,80,127,1840596500
12117,18,Jits_Linear_8,3,5,63,98,1840683328
12117,18,Jits_Linear_8,0,1,48,62,1841310124
12117,18,Jits_Linear_8,1,5,63,98,1841422904
12117,18,Jits_Linear_8,2,5,56,103,1841512820
12117,18,Jits_Linear_8,3,5,80,127,1841542496
12117,18,Jits_Linear_8,0,1,48,61,1842131332
12117,18,Jits_Linear_8,1,5,56,103,1842203128
12117,18,Jits_Linear_8,2,5,63,98,1842303288
12117,18,Jits_Linear_8,3,5,80,127,1842333064
12117,18,Jits_Linear_8,0,1,48,67,1842840116
12117,18,Jits_Linear_8,1,1,48,21,1842920184
12117,18,Jits_Linear_8,2,5,63,98,1843012964
12117,18,Jits_Linear_8,3,5,56,103,1843023088
12117,18,Jits_Linear_8,4,5,80,127,1843113244
12117,18,Jits_Linear_8,0,1,48,62,1843675148
12117,18,Jits_Linear_8,1,5,63,98,1843812940
12117,18,Jits_Linear_8,2,5,56,103,1843892616
12117,18,Jits_Linear_8,3,5,80,127,1843895904
12117,18,Jits_Linear_8,0,1,48,61,1844509280
12117,18,Jits_Linear_8,1,5,80,127,1844553292
12117,18,Jits_Linear_8,2,5,63,98,1844572484
12117,18,Jits_Linear_8,3,5,56,103,1844633032
12117,18,Jits_Linear_8,0,1,48,60,1845272184
12117,18,Jits_Linear_8,1,5,56,103,1845373264
12117,18,Jits_Linear_8,2,5,63,98,1845393152
12117,18,Jits_Linear_8,3,5,80,127,1845396288
12117,18,Jits_Linear_8,0,1,48,64,1846016480
12117,18,Jits_Linear_8,1,5,63,98,1846093084
12117,18,Jits_Linear_8,2,5,80,127,1846173040
12117,18,Jits_Linear_8,3,5,56,103,1846183384
12117,18,Jits_Linear_8,0,1,48,58,1846749092
12117,18,Jits_Linear_8,1,5,63,98,1846893040
12117,18,Jits_Linear_8,2,5,56,103,1846913356
12117,18,Jits_Linear_8,3,5,80,127,1846962684
12117,18,Jits_Linear_8,0,1,48,50,1847550716
12117,18,Jits_Linear_8,1,5,80,127,1847673168
12117,18,Jits_Linear_8,2,5,63,98,1847713132
12117,18,Jits_Linear_8,3,5,56,103,1847732468
12117,18,Jits_Linear_8,0,1,48,57,1848297956
12117,18,Jits_Linear_8,1,5,56,103,1848483136
12117,18,Jits_Linear_8,2,5,63,98,1848493556
12117,18,Jits_Linear_8,3,5,80,127,1848513040
12117,18,Jits_Linear_8,0,1,48,47,1849032988
12117,18,Jits_Linear_8,1,5,56,103,1849182544
12117,18,Jits_Linear_8,2,5,63,98,1849272704
12117,18,Jits_Linear_8,3,5,80,127,1849333020
12117,18,Jits_Linear_8,0,1,48,46,1849831020
12117,18,Jits_Linear_8,1,5,80,127,1849983272
12117,18,Jits_Linear_8,2,5,56,103,1849992644
12117,18,Jits_Linear_8,3,5,63,98,1850063100
12117,18,Jits_Linear_8,0,1,48,51,1850606716
12117,18,Jits_Linear_8,1,5,63,98,1850782976
12117,18,Jits_Linear_8,2,5,80,127,1850873184
12117,18,Jits_Linear_8,3,5,56,103,1850882332
12117,18,Jits_Linear_8,0,1,48,55,1851443716
12117,18,Jits_Linear_8,1,5,63,98,1851492744
12117,18,Jits_Linear_8,2,5,80,127,1851542956
12117,18,Jits_Linear_8,3,5,56,103,1851603272
12117,18,Jits_Linear_8,0,1,48,53,1852241892
12117,18,Jits_Linear_8,1,5,56,103,1852283200
12117,18,Jits_Linear_8,2,5,80,127,1852333504
12117,18,Jits_Linear_8,3,5,63,98,1852352752
12117,18,Jits_Linear_8,0,1,48,60,1853010320
12117,18,Jits_Linear_8,1,5,56,103,1853013352
12117,18,Jits_Linear_8,2,5,80,127,1853072944
12117,18,Jits_Linear_8,3,5,63,98,1853143288
12117,18,Jits_Linear_8,0,5,56,103,1853773028
12117,18,Jits_Linear_8,1,1,48,57,1853776072
12117,18,Jits_Linear_8,2,5,80,127,1853802772
12117,18,Jits_Linear_8,3,5,63,98,1853832820
12117,18,Jits_Linear_8,0,1,48,66,1854515288
12117,18,Jits_Linear_8,1,5,56,103,1854572856
12117,18,Jits_Linear_8,2,5,80,127,1854593392
12117,18,Jits_Linear_8,3,5,63,98,1854652892
12117,18,Jits_Linear_8,0,1,48,49,1855269480
12117,18,Jits_Linear_8,1,5,80,127,1855412780
12117,18,Jits_Linear_8,2,5,56,103,1855422976
12117,18,Jits_Linear_8,3,5,63,98,1855433024
12117,18,Jits_Linear_8,0,1,48,54,1856051284
12117,18,Jits_Linear_8,1,5,56,103,1856123152
12117,18,Jits_Linear_8,2,5,80,127,1856163104
12117,18,Jits_Linear_8,3,5,63,98,1856192928
12117,18,Jits_Linear_8,0,1,48,58,1856815964
12117,18,Jits_Linear_8,1,5,56,103,1856843120
12117,18,Jits_Linear_8,2,5,63,98,1856872796
12117,18,Jits_Linear_8,3,5,80,127,1856912820
12117,18,Jits_Linear_8,0,5,80,127,1857542636
12117,18,Jits_Linear_8,1,1,48,63,1857560504
12117,18,Jits_Linear_8,2,5,63,98,1857592908
12117,18,Jits_Linear_8,3,5,56,103,1857613068
12117,18,Jits_Linear_8,0,5,56,103,1858322772
12117,18,Jits_Linear_8,1,1,48,57,1858329552
12117,18,Jits_Linear_8,2,5,80,127,1858392672
12117,18,Jits_Linear_8,3,5,63,98,1858452772
12117,18,Jits_Linear_8,0,5,80,127,1859063280
12117,18,Jits_Linear_8,1,1,48,55,1859125064
12117,18,Jits_Linear_8,2,5,63,98,1859153188
12117,18,Jits_Linear_8,3,5,56,103,1859172748
12117,18,Jits_Linear_8,0,5,63,98,1859822948
12117,18,Jits_Linear_8,1,5,56,103,1859842360
12117,18,Jits_Linear_8,2,1,48,65,1859845776
12117,18,Jits_Linear_8,3,5,80,127,1859883560
12117,18,Jits_Linear_8,0,1,48,59,1860505340
12117,18,Jits_Linear_8,1,5,80,127,1860523500
12117,18,Jits_Linear_8,2,5,63,98,1860542836
12117,18,Jits_Linear_8,3,5,56,103,1860622616
12117,18,Jits_Linear_8,0,5,63,98,1861252584
12117,18,Jits_Linear_8,1,1,48,57,1861265168
12117,18,Jits_Linear_8,2,5,56,103,1861363100
12117,18,Jits_Linear_8,3,5,80,127,1861366168
12117,18,Jits_Linear_8,0,5,63,98,1862013296
12117,18,Jits_Linear_8,1,5,56,103,1862022740
12117,18,Jits_Linear_8,2,5,80,127,1862025660
12117,18,Jits_Linear_8,3,1,48,51,1862045064
12117,18,Jits_Linear_8,0,1,48,70,1862720384
12117,18,Jits_Linear_8,1,5,56,103,1862733160
12117,18,Jits_Linear_8,2,5,80,127,1862853048
12117,18,Jits_Linear_8,3,5,63,98,1862892988
12117,18,Jits_Linear_8,0,1,48,64,1863458784
12117,18,Jits_Linear_8,1,5,56,103,1863482720
12117,18,Jits_Linear_8,2,5,80,127,1863562728
12117,18,Jits_Linear_8,3,5,63,98,1863583064
12117,18,Jits_Linear_8,0,1,48,60,1864198532
12117,18,Jits_Linear_8,1,5,56,103,1864212728
12117,18,Jits_Linear_8,2,5,63,98,1864322624
12117,18,Jits_Linear_8,3,5,80,127,1864325840
12117,18,Jits_Linear_8,0,5,56,103,1864972700
12117,18,Jits_Linear_8,1,1,48,50,1864988624
12117,18,Jits_Linear_8,2,5,80,127,1865003640
12117,18,Jits_Linear_8,3,5,63,98,1865022752
12117,18,Jits_Linear_8,0,5,63,98,1865683608
12117,18,Jits_Linear_8,1,5,56,103,1865692608
12117,18,Jits_Linear_8,2,5,80,127,1865702880
12117,18,Jits_Linear_8,3,1,48,50,1865736640
12117,18,Jits_Linear_8,0,5,80,127,1866392932
12117,18,Jits_Linear_8,1,1,48,59,1866417704
12117,18,Jits_Linear_8,2,5,56,103,1866443280
12117,18,Jits_Linear_8,3,5,63,98,1866483144
12117,18,Jits_Linear_8,0,5,80,127,1867133564
12117,18,Jits_Linear_8,1,5,63,98,1867152708
12117,18,Jits_Linear_8,2,1,48,51,1867170876
12117,18,Jits_Linear_8,3,5,56,103,1867202828
12117,18,Jits_Linear_8,0,5,80,127,1867863732
12117,18,Jits_Linear_8,1,5,56,103,1867892964
12117,18,Jits_Linear_8,2,1,48,50,1867907244
12117,18,Jits_Linear_8,3,5,63,98,1867962736
12117,18,Jits_Linear_8,0,1,48,55,1868595300
12117,18,Jits_Linear_8,1,5,56,103,1868632412
12117,18,Jits_Linear_8,2,5,80,127,1868642608
12117,18,Jits_Linear_8,3,5,63,98,1868682620
12117,18,Jits_Linear_8,0,5,56,103,1869272368
12117,18,Jits_Linear_8,1,5,63,98,1869292980
12117,18,Jits_Linear_8,2,1,48,58,1869323220
12117,18,Jits_Linear_8,3,5,80,127,1869362652
12117,18,Jits_Linear_8,0,1,48,48,1869995384
12117,18,Jits_Linear_8,1,5,63,98,1870012868
12117,18,Jits_Linear_8,2,5,80,127,1870073332
12117,18,Jits_Linear_8,3,5,56,103,1870092580
12117,18,Jits_Linear_8,0,1,48,64,1870706328
12117,18,Jits_Linear_8,1,5,80,127,1870713400
12117,18,Jits_Linear_8,2,5,56,103,1870742952
12117,18,Jits_Linear_8,3,5,63,98,1870772480
12117,18,Jits_Linear_8,0,5,56,103,1871422732
12117,18,Jits_Linear_8,1,1,48,65,1871431624
12117,18,Jits_Linear_8,2,5,63,98,1871483344
12117,18,Jits_Linear_8,3,5,80,127,1871542768
12117,18,Jits_Linear_8,0,1,48,65,1872101028
12117,18,Jits_Linear_8,1,5,80,127,1872152896
12117,18,Jits_Linear_8,2,5,56,103,1872173508
12117,18,Jits_Linear_8,3,5,63,98,1872243172
12117,18,Jits_Linear_8,0,1,48,49,1872813724
12117,18,Jits_Linear_8,1,5,80,127,1872862600
12117,18,Jits_Linear_8,2,5,63,98,1872883428
12117,18,Jits_Linear_8,3,5,56,103,1872912720
12117,18,Jits_Linear_8,0,1,48,53,1873547964
12117,18,Jits_Linear_8,1,5,80,127,1873552744
12117,18,Jits_Linear_8,2,5,63,98,1873573500
12117,18,Jits_Linear_8,3,5,56,103,1873632548
12117,18,Jits_Linear_8,0,1,48,54,1874181260
12117,18,Jits_Linear_8,1,5,80,127,1874253424
12117,18,Jits_Linear_8,2,5,56,103,1874352492
12117,18,Jits_Linear_8,3,5,63,98,1874383436
12117,18,Jits_Linear_8,0,5,63,98,1874943508
12117,18,Jits_Linear_8,1,1,48,51,1874971960
12117,18,Jits_Linear_8,2,5,80,127,1874992584
12117,18,Jits_Linear_8,3,5,56,103,1875012972
12117,18,Jits_Linear_8,0,1,48,58,1875657444
12117,18,Jits_Linear_8,1,5,80,127,1875682652
12117,18,Jits_Linear_8,2,5,56,103,1875713376
12117,18,Jits_Linear_8,3,5,63,98,1875716588
12117,18,Jits_Linear_8,0,1,48,55,1876379724
12117,18,Jits_Linear_8,1,5,63,98,1876412648
12117,18,Jits_Linear_8,2,5,56,103,1876452588
12117,18,Jits_Linear_8,3,5,80,127,1876473348
12117,18,Jits_Linear_8,0,5,80,127,1877052736
12117,18,Jits_Linear_8,1,1,48,60,1877109868
12117,18,Jits_Linear_8,2,5,63,98,1877132676
12117,18,Jits_Linear_8,3,5,56,103,1877172540
12117,18,Jits_Linear_8,0,5,63,98,1877762432
12117,18,Jits_Linear_8,1,1,48,54,1877814480
12117,18,Jits_Linear_8,2,5,80,127,1877843420
12117,18,Jits_Linear_8,3,5,56,103,1877862908
12117,18,Jits_Linear_8,0,5,56,103,1878492596
12117,18,Jits_Linear_8,1,5,63,98,1878502792
12117,18,Jits_Linear_8,2,1,48,62,1878519168
12117,18,Jits_Linear_8,3,5,80,127,1878542724
12117,18,Jits_Linear_8,4,1,48,40,1878568672
12117,18,Jits_Linear_8,0,5,56,103,1879102764
12117,18,Jits_Linear_8,1,5,80,127,1879105756
12117,18,Jits_Linear_8,2,1,48,61,1879232072
12117,18,Jits_Linear_8,3,5,63,98,1879243256
12117,18,Jits_Linear_8,0,5,56,103,1879782652
12117,18,Jits_Linear_8,1,5,63,98,1879872864
12117,18,Jits_Linear_8,2,1,48,62,1879940180
12117,18,Jits_Linear_8,3,5,80,127,1879942536
12117,18,Jits_Linear_8,0,5,63,98,1880542712
12117,18,Jits_Linear_8,1,5,80,127,1880546000
12117,18,Jits_Linear_8,2,5,56,103,1880603028
12117,18,Jits_Linear_8,3,1,48,55,1880670732
12117,18,Jits_Linear_8,0,5,80,127,1881262456
12117,18,Jits_Linear_8,1,5,56,103,1881282840
12117,18,Jits_Linear_8,2,5,63,98,1881293260
12117,18,Jits_Linear_8,3,1,48,56,1881308808
12117,18,Jits_Linear_8,0,5,56,103,1881853324
12117,18,Jits_Linear_8,1,5,63,98,1881862476
12117,18,Jits_Linear_8,2,5,80,127,1881933276
12117,18,Jits_Linear_8,3,1,48,61,1881962396
12117,18,Jits_Linear_8,0,5,80,127,1882533296
12117,18,Jits_Linear_8,1,5,56,103,1882583500
12117,18,Jits_Linear_8,2,5,63,98,1882632580
12117,18,Jits_Linear_8,3,1,48,49,1882703796
12117,18,Jits_Linear_8,0,5,56,103,1883293136
12117,18,Jits_Linear_8,1,5,63,98,1883303260
12117,18,Jits_Linear_8,2,1,48,48,1883322264
12117,18,Jits_Linear_8,3,5,80,127,1883343416
12117,18,Jits_Linear_8,0,5,56,103,1883912632
12117,18,Jits_Linear_8,1,5,63,98,1883952572
12117,18,Jits_Linear_8,2,1,48,52,1883963564
12117,18,Jits_Linear_8,3,5,80,127,1884002768
12117,18,Jits_Linear_8,0,5,80,127,1884543288
12117,18,Jits_Linear_8,1,5,56,103,1884592544
12117,18,Jits_Linear_8,2,5,63,98,1884613000
12117,18,Jits_Linear_8,3,1,48,52,1884626984
12117,18,Jits_Linear_8,0,5,80,127,1885223408
12117,18,Jits_Linear_8,1,1,48,55,1885252008
12117,18,Jits_Linear_8,2,5,63,98,1885282596
12117,18,Jits_Linear_8,3,5,56,103,1885362552
12117,18,Jits_Linear_8,0,5,80,127,1885872516
12117,18,Jits_Linear_8,1,5,56,103,1885912456
12117,18,Jits_Linear_8,2,5,63,98,1885932988
12117,18,Jits_Linear_8,3,1,48,52,1885934180
12117,18,Jits_Linear_8,0,1,48,52,1886580584
12117,18,Jits_Linear_8,1,5,56,103,1886602576
12117,18,Jits_Linear_8,2,5,80,127,1886612944
12117,18,Jits_Linear_8,3,5,63,98,1886652736
12117,18,Jits_Linear_8,0,1,48,55,1887220236
12117,18,Jits_Linear_8,1,5,56,103,1887332792
12117,18,Jits_Linear_8,2,5,63,98,1887372584
12117,18,Jits_Linear_8,3,5,80,127,1887375896
12117,18,Jits_Linear_8,0,5,63,98,1887882528
12117,18,Jits_Linear_8,1,5,80,127,1887922492
12117,18,Jits_Linear_8,2,1,48,57,1887935052
12117,18,Jits_Linear_8,3,1,48,32,1887990088
12117,18,Jits_Linear_8,4,5,56,103,1887993340
12117,18,Jits_Linear_8,0,5,63,98,1888532864
12117,18,Jits_Linear_8,1,1,48,59,1888598164
12117,18,Jits_Linear_8,2,5,56,103,1888612656
12117,18,Jits_Linear_8,3,5,80,127,1888673220
12117,18,Jits_Linear_8,0,5,80,127,1889202484
12117,18,Jits_Linear_8,1,1,48,64,1889231752
12117,18,Jits_Linear_8,2,5,63,98,1889252680
12117,18,Jits_Linear_8,3,5,56,103,1889282356
12117,18,Jits_Linear_8,0,5,56,103,1889852684
12117,18,Jits_Linear_8,1,1,48,60,1889853652
12117,18,Jits_Linear_8,2,5,63,98,1889903328
12117,18,Jits_Linear_8,3,5,80,127,1889913376
12117,18,Jits_Linear_8,0,1,48,66,1890450588
12117,18,Jits_Linear_8,1,5,56,103,1890522384
12117,18,Jits_Linear_8,2,5,63,98,1890633036
12117,18,Jits_Linear_8,3,5,80,127,1890652668
12117,18,Jits_Linear_8,0,1,48,54,1891155688
12117,18,Jits_Linear_8,1,5,63,98,1891172576
12117,18,Jits_Linear_8,2,5,80,127,1891223104
12117,18,Jits_Linear_8,3,5,56,103,1891313144
12117,18,Jits_Linear_8,0,5,63,98,1891812832
12117,18,Jits_Linear_8,1,5,80,127,1891842436
12117,18,Jits_Linear_8,2,1,48,58,1891889072
12117,18,Jits_Linear_8,3,5,56,103,1891932412
12117,18,Jits_Linear_8,0,5,63,98,1892463244
12117,18,Jits_Linear_8,1,5,56,103,1892473292
12117,18,Jits_Linear_8,2,1,48,52,1892531656
12117,18,Jits_Linear_8,3,5,80,127,1892572508
12117,18,Jits_Linear_8,0,1,48,53,1893169384
12117,18,Jits_Linear_8,1,5,63,98,1893212500
12117,18,Jits_Linear_8,2,5,80,127,1893243224
12117,18,Jits_Linear_8,3,5,56,103,1893273056
12117,18,Jits_Linear_8,0,1,48,58,1893789628
12117,18,Jits_Linear_8,1,5,80,127,1893873132
12117,18,Jits_Linear_8,2,5,63,98,1893883240
12117,18,Jits_Linear_8,3,5,56,103,1893913212
12117,18,Jits_Linear_8,0,5,80,127,1894412748
12117,18,Jits_Linear_8,1,5,63,98,1894433136
12117,18,Jits_Linear_8,2,1,48,53,1894451916
12117,18,Jits_Linear_8,3,5,56,103,1894483404
12117,18,Jits_Linear_8,0,1,48,55,1895062040
12117,18,Jits_Linear_8,1,5,63,98,1895083268
12117,18,Jits_Linear_8,2,5,80,127,1895142760
12117,18,Jits_Linear_8,3,5,56,103,1895163280
12117,18,Jits_Linear_8,0,5,63,98,1895682296
12117,18,Jits_Linear_8,1,1,48,54,1895691188
12117,18,Jits_Linear_8,2,5,56,103,1895732496
12117,18,Jits_Linear_8,3,5,80,127,1895742764
12117,18,Jits_Linear_8,0,1,48,54,1896299388
12117,18,Jits_Linear_8,1,5,56,103,1896353244
12117,18,Jits_Linear_8,2,5,80,127,1896363296
12117,18,Jits_Linear_8,3,5,63,98,1896462852
12117,18,Jits_Linear_8,0,1,48,55,1896939644
12117,18,Jits_Linear_8,1,5,80,127,1896953092
12117,18,Jits_Linear_8,2,5,63,98,1896962464
12117,18,Jits_Linear_8,3,5,56,103,1897113360
12117,18,Jits_Linear_8,0,1,48,58,1897592188
12117,18,Jits_Linear_8,1,5,63,98,1897593760
12117,18,Jits_Linear_8,2,5,80,127,1897633056
12117,18,Jits_Linear_8,3,5,56,103,1897712984
12117,18,Jits_Linear_8,0,5,56,103,1898212892
12117,18,Jits_Linear_8,1,1,48,55,1898247852
12117,18,Jits_Linear_8,2,5,80,127,1898313136
12117,18,Jits_Linear_8,3,5,63,98,1898332400
12117,18,Jits_Linear_8,0,1,48,51,1898854076
12117,18,Jits_Linear_8,1,5,80,127,1898903052
12117,18,Jits_Linear_8,2,5,56,103,1898913172
12117,18,Jits_Linear_8,3,5,63,98,1899003216
12117,18,Jits_Linear_8,0,1,48,62,1899520268
12117,18,Jits_Linear_8,1,5,56,103,1899532572
12117,18,Jits_Linear_8,2,5,63,98,1899553108
12117,18,Jits_Linear_8,3,5,80,127,1899632888
12117,18,Jits_Linear_8,0,5,63,98,1900103128
12117,18,Jits_Linear_8,1,5,56,103,1900192984
12117,18,Jits_Linear_8,2,5,80,127,1900196280
12117,18,Jits_Linear_8,3,1,48,42,1900197692
12117,18,Jits_Linear_8,0,5,56,103,1900753332
12117,18,Jits_Linear_8,1,5,80,127,1900812756
12117,18,Jits_Linear_8,2,5,63,98,1900823024
12117,18,Jits_Linear_8,3,1,48,50,1900845104
12117,18,Jits_Linear_8,0,5,80,127,1901423100
12117,18,Jits_Linear_8,1,5,56,103,1901433220
12117,18,Jits_Linear_8,2,5,63,98,1901436212
12117,18,Jits_Linear_8,3,1,48,54,1901456444
12117,18,Jits_Linear_8,0,5,56,103,1902002452
12117,18,Jits_Linear_8,1,5,80,127,1902012872
12117,18,Jits_Linear_8,2,5,63,98,1902033256
12117,18,Jits_Linear_8,3,1,48,56,1902095708
12117,18,Jits_Linear_8,0,5,63,98,1902593464
12117,18,Jits_Linear_8,1,5,80,127,1902652884
12117,18,Jits_Linear_8,2,5,56,103,1902702936
12117,18,Jits_Linear_8,3,1,48,46,1902751784
12117,18,Jits_Linear_8,0,5,63,98,1903293052
12117,18,Jits_Linear_8,1,5,56,103,1903303176
12117,18,Jits_Linear_8,2,1,48,50,1903318876
12117,18,Jits_Linear_8,3,5,80,127,1903353296
12117,18,Jits_Linear_8,0,5,63,98,1903802924
12117,18,Jits_Linear_8,1,5,80,127,1903823160
12117,18,Jits_Linear_8,2,5,56,103,1903832384
12117,18,Jits_Linear_8,3,1,48,51,1903954760
12117,18,Jits_Linear_8,0,5,63,98,1904413096
12117,18,Jits_Linear_8,1,5,80,127,1904416384
12117,18,Jits_Linear_8,2,5,56,103,1904453036
12117,18,Jits_Linear_8,3,1,48,52,1904563688
12117,18,Jits_Linear_8,0,5,63,98,1905092896
12117,18,Jits_Linear_8,1,5,80,127,1905122948
12117,18,Jits_Linear_8,2,5,56,103,1905132844
12117,18,Jits_Linear_8,3,1,48,47,1905176488
12117,18,Jits_Linear_8,0,5,56,103,1905653184
12117,18,Jits_Linear_8,1,5,80,127,1905683008
12117,18,Jits_Linear_8,2,5,63,98,1905712460
12117,18,Jits_Linear_8,3,1,48,52,1905802932
12117,18,Jits_Linear_8,0,5,63,98,1906352492
12117,18,Jits_Linear_8,1,5,56,103,1906392276
12117,18,Jits_Linear_8,2,5,80,127,1906395348
12117,18,Jits_Linear_8,3,1,48,45,1906405288
12117,18,Jits_Linear_8,0,5,80,127,1906853288
12117,18,Jits_Linear_8,1,5,56,103,1906933160
12117,18,Jits_Linear_8,2,5,63,98,1906983216
12117,18,Jits_Linear_8,3,1,48,45,1907032412
12117,18,Jits_Linear_8,0,5,80,127,1907433144
12117,18,Jits_Linear_8,1,5,56,103,1907453156
12117,18,Jits_Linear_8,2,5,63,98,1907543364
12117,18,Jits_Linear_8,3,1,48,46,1907615504
12117,18,Jits_Linear_8,0,5,80,127,1908072788
12117,18,Jits_Linear_8,1,5,63,98,1908113048
12117,18,Jits_Linear_8,2,5,56,103,1908152840
12117,18,Jits_Linear_8,3,1,48,40,1908213872
12117,18,Jits_Linear_8,0,5,63,98,1908643300
12117,18,Jits_Linear_8,1,5,80,127,1908702724
12117,18,Jits_Linear_8,2,5,56,103,1908733220
12117,18,Jits_Linear_8,3,1,48,43,1908826908
12117,18,Jits_Linear_8,0,5,56,103,1909243296
12117,18,Jits_Linear_8,1,5,80,127,1909272976
12117,18,Jits_Linear_8,2,5,63,98,1909363032
12117,18,Jits_Linear_8,3,1,48,44,1909377312
12117,18,Jits_Linear_8,0,5,56,103,1909843304
12117,18,Jits_Linear_8,1,1,48,51,1909934784
12117,18,Jits_Linear_8,2,5,80,127,1909952864
12117,18,Jits_Linear_8,3,5,63,98,1909982692
12117,18,Jits_Linear_8,0,5,56,103,1910483204
12117,18,Jits_Linear_8,1,5,63,98,1910542848
12117,18,Jits_Linear_8,2,1,48,41,1910566196
12117,18,Jits_Linear_8,3,5,80,127,1910573564
12117,18,Jits_Linear_8,0,5,56,103,1911042388
12117,18,Jits_Linear_8,1,5,63,98,1911113192
12117,18,Jits_Linear_8,2,5,80,127,1911132456
12117,18,Jits_Linear_8,3,1,48,45,1911170792
12117,18,Jits_Linear_8,0,5,80,127,1911602692
12117,18,Jits_Linear_8,1,5,63,98,1911622928
12117,18,Jits_Linear_8,2,5,56,103,1911673204
12117,18,Jits_Linear_8,3,1,48,43,1911721232
12117,18,Jits_Linear_8,0,5,63,98,1912202996
12117,18,Jits_Linear_8,1,5,80,127,1912212844
12117,18,Jits_Linear_8,2,5,56,103,1912263048
12117,18,Jits_Linear_8,3,1,48,42,1912314788
12117,18,Jits_Linear_8,0,5,63,98,1912783832
12117,18,Jits_Linear_8,1,1,48,47,1912831912
12117,18,Jits_Linear_8,2,5,80,127,1912852912
12117,18,Jits_Linear_8,3,5,56,103,1912873224
12117,18,Jits_Linear_8,0,1,48,50,1913362604
12117,18,Jits_Linear_8,1,5,63,98,1913392444
12117,18,Jits_Linear_8,2,5,80,127,1913396032
12117,18,Jits_Linear_8,3,5,56,103,1913463012
12117,18,Jits_Linear_8,0,1,48,42,1913920468
12117,18,Jits_Linear_8,1,5,80,127,1913922980
12117,18,Jits_Linear_8,2,5,56,103,1913943368
12117,18,Jits_Linear_8,3,5,63,98,1913952888
12117,18,Jits_Linear_8,0,1,48,55,1914461212
12117,18,Jits_Linear_8,1,5,56,103,1914522920
12117,18,Jits_Linear_8,2,5,63,98,1914612960
12117,18,Jits_Linear_8,3,5,80,127,1914616256
12117,18,Jits_Linear_8,0,5,80,127,1915073016
12117,18,Jits_Linear_8,1,5,56,103,1915083212
12117,18,Jits_Linear_8,2,1,48,57,1915088652
12117,18,Jits_Linear_8,3,5,63,98,1915102544
12117,18,Jits_Linear_8,4,1,48,28,1915147072
12117,18,Jits_Linear_8,0,5,63,98,1915643248
12117,18,Jits_Linear_8,1,1,48,52,1915671400
12117,18,Jits_Linear_8,2,5,80,127,1915702812
12117,18,Jits_Linear_8,3,5,56,103,1915712784
12117,18,Jits_Linear_8,0,1,48,49,1916251680
12117,18,Jits_Linear_8,1,5,63,98,1916283244
12117,18,Jits_Linear_8,2,5,80,127,1916312872
12117,18,Jits_Linear_8,3,5,56,103,1916352796
12117,18,Jits_Linear_8,0,1,48,52,1916842288
12117,18,Jits_Linear_8,1,5,56,103,1916843932
12117,18,Jits_Linear_8,2,5,80,127,1916852860
12117,18,Jits_Linear_8,3,5,63,98,1916892948
12117,18,Jits_Linear_8,0,5,80,127,1917372768
12117,18,Jits_Linear_8,1,1,48,48,1917422940
12117,18,Jits_Linear_8,2,5,56,103,1917452856
12117,18,Jits_Linear_8,3,5,63,98,1917462904
12117,18,Jits_Linear_8,0,1,48,51,1917954396
12117,18,Jits_Linear_8,1,5,80,127,1917983040
12117,18,Jits_Linear_8,2,5,56,103,1918062900
12117,18,Jits_Linear_8,3,5,63,98,1918073244
12117,18,Jits_Linear_8,0,5,80,127,1918503404
12117,18,Jits_Linear_8,1,5,56,103,1918552564
12117,18,Jits_Linear_8,2,1,48,50,1918575384
12117,18,Jits_Linear_8,3,5,63,98,1918602536
12117,18,Jits_Linear_8,0,1,48,53,1919114456
12117,18,Jits_Linear_8,1,5,56,103,1919122744
12117,18,Jits_Linear_8,2,5,63,98,1919125736
12117,18,Jits_Linear_8,3,5,80,127,1919172944
12117,18,Jits_Linear_8,0,1,48,49,1919634076
12117,18,Jits_Linear_8,1,5,56,103,1919703556
12117,18,Jits_Linear_8,2,5,63,98,1919733068
12117,18,Jits_Linear_8,3,5,80,127,1919743340
12117,18,Jits_Linear_8,0,5,63,98,1920173356
12117,18,Jits_Linear_8,1,1,48,52,1920212588
12117,18,Jits_Linear_8,2,5,56,103,1920243108
12117,18,Jits_Linear_8,3,5,80,127,1920293084
12117,18,Jits_Linear_8,0,1,48,50,1920723944
12117,18,Jits_Linear_8,1,5,63,98,1920763232
12117,18,Jits_Linear_8,2,5,56,103,1920772752
12117,18,Jits_Linear_8,3,5,80,127,1920775668
12117,18,Jits_Linear_8,0,1,48,51,1921262144
12117,18,Jits_Linear_8,1,5,80,127,1921263792
12117,18,Jits_Linear_8,2,5,56,103,1921323508
12117,18,Jits_Linear_8,3,5,63,98,1921412652
12117,18,Jits_Linear_8,0,5,80,127,1921812924
12117,18,Jits_Linear_8,1,1,48,41,1921814484
12117,18,Jits_Linear_8,2,5,56,103,1921913092
12117,18,Jits_Linear_8,3,5,63,98,1921953188
12117,18,Jits_Linear_8,0,5,56,103,1922412860
12117,18,Jits_Linear_8,1,1,48,55,1922428188
12117,18,Jits_Linear_8,2,5,63,98,1922433536
12117,18,Jits_Linear_8,3,5,80,127,1922473500
12117,18,Jits_Linear_8,0,5,63,98,1922933152
12117,18,Jits_Linear_8,1,5,56,103,1922952788
12117,18,Jits_Linear_8,2,1,48,54,1922972272
12117,18,Jits_Linear_8,3,5,80,127,1923052828
12117,18,Jits_Linear_8,0,5,63,98,1923462796
12117,18,Jits_Linear_8,1,1,48,48,1923522740
12117,18,Jits_Linear_8,2,5,80,127,1923573032
12117,18,Jits_Linear_8,3,5,56,103,1923602708
12117,18,Jits_Linear_8,0,5,56,103,1924022812
12117,18,Jits_Linear_8,1,5,63,98,1924053536
12117,18,Jits_Linear_8,2,1,48,45,1924084904
12117,18,Jits_Linear_8,3,5,80,127,1924102684
12117,18,Jits_Linear_8,0,5,63,98,1924532840
12117,18,Jits_Linear_8,1,5,56,103,1924563416
12117,18,Jits_Linear_8,2,5,80,127,1924612568
12117,18,Jits_Linear_8,3,1,48,46,1924626852
12117,18,Jits_Linear_8,0,5,56,103,1925102940
12117,18,Jits_Linear_8,1,5,63,98,1925122428
12117,18,Jits_Linear_8,2,1,48,48,1925126300
12117,18,Jits_Linear_8,3,5,80,127,1925203412
12117,18,Jits_Linear_8,0,5,63,98,1925613044
12117,18,Jits_Linear_8,1,1,48,51,1925665840
12117,18,Jits_Linear_8,2,5,56,103,1925673580
12117,18,Jits_Linear_8,3,5,80,127,1925702960
12117,18,Jits_Linear_8,0,1,48,51,1926187236
12117,18,Jits_Linear_8,1,5,56,103,1926192508
12117,18,Jits_Linear_8,2,1,48,25,1926244312
12117,18,Jits_Linear_8,3,5,80,127,1926252808
12117,18,Jits_Linear_8,4,5,63,98,1926292844
12117,18,Jits_Linear_8,0,5,63,98,1926702732
12117,18,Jits_Linear_8,1,1,48,43,1926742348
12117,18,Jits_Linear_8,2,5,56,103,1926762824
12117,18,Jits_Linear_8,3,5,80,127,1926832604
12117,18,Jits_Linear_8,0,1,48,43,1927262096
12117,18,Jits_Linear_8,1,5,56,103,1927312868
12117,18,Jits_Linear_8,2,5,63,98,1927322988
12117,18,Jits_Linear_8,3,5,80,127,1927326428
12117,18,Jits_Linear_8,0,5,63,98,1927782708
12117,18,Jits_Linear_8,1,1,48,55,1927805084
12117,18,Jits_Linear_8,2,5,56,103,1927843264
12117,18,Jits_Linear_8,3,5,80,127,1927846108
12117,18,Jits_Linear_8,0,5,63,98,1928292860
12117,18,Jits_Linear_8,1,5,80,127,1928322536
12117,18,Jits_Linear_8,2,5,56,103,1928343020
12117,18,Jits_Linear_8,3,1,48,51,1928344588
12117,18,Jits_Linear_8,0,5,56,103,1928823100
12117,18,Jits_Linear_8,1,5,63,98,1928873480
12117,18,Jits_Linear_8,2,1,48,54,1928876228
12117,18,Jits_Linear_8,3,5,80,127,1928953192
12117,18,Jits_Linear_8,0,5,80,127,1929332984
12117,18,Jits_Linear_8,1,1,48,52,1929366320
12117,18,Jits_Linear_8,2,5,63,98,1929372944
12117,18,Jits_Linear_8,3,5,56,103,1929392428
12117,18,Jits_Linear_8,0,5,56,103,1929922904
12117,18,Jits_Linear_8,1,5,80,127,1929933252
12117,18,Jits_Linear_8,2,1,48,44,1929934216
12117,18,Jits_Linear_8,3,5,63,98,1929952584
12117,18,Jits_Linear_8,0,5,56,103,1930422600
12117,18,Jits_Linear_8,1,1,48,52,1930460492
12117,18,Jits_Linear_8,2,5,63,98,1930472724
12117,18,Jits_Linear_8,3,5,80,127,1930502472
12117,18,Jits_Linear_8,0,5,56,103,1930892700
12117,18,Jits_Linear_8,1,5,63,98,1930902824
12117,18,Jits_Linear_8,2,5,80,127,1930953172
12117,18,Jits_Linear_8,3,1,48,53,1930994052
12117,18,Jits_Linear_8,0,5,56,103,1931402624
12117,18,Jits_Linear_8,1,5,80,127,1931405788
12117,18,Jits_Linear_8,2,1,48,51,1931520996
12117,18,Jits_Linear_8,3,5,63,98,1931563568
12117,18,Jits_Linear_8,0,5,63,98,1931932900
12117,18,Jits_Linear_8,1,5,56,103,1932002656
12117,18,Jits_Linear_8,2,5,80,127,1932042596
12117,18,Jits_Linear_8,3,1,48,51,1932068936
12117,18,Jits_Linear_8,0,5,63,98,1932482928
12117,18,Jits_Linear_8,1,5,56,103,1932572908
12117,18,Jits_Linear_8,2,5,80,127,1932576056
12117,18,Jits_Linear_8,3,1,48,50,1932604576
12117,18,Jits_Linear_8,0,5,56,103,1932973312
12117,18,Jits_Linear_8,1,5,63,98,1933062404
12117,18,Jits_Linear_8,2,5,80,127,1933072748
12117,18,Jits_Linear_8,3,1,48,50,1933116388
12117,18,Jits_Linear_8,0,5,56,103,1933452556
12117,18,Jits_Linear_8,1,5,63,98,1933502760
12117,18,Jits_Linear_8,2,5,80,127,1933532584
12117,18,Jits_Linear_8,3,1,48,52,1933610608
12117,18,Jits_Linear_8,0,5,63,98,1934033384
12117,18,Jits_Linear_8,1,5,80,127,1934042608
12117,18,Jits_Linear_8,2,5,56,103,1934102924
12117,18,Jits_Linear_8,3,1,48,47,1934125372
12117,18,Jits_Linear_8,0,5,63,98,1934453248
12117,18,Jits_Linear_8,1,5,80,127,1934512544
12117,18,Jits_Linear_8,2,5,56,103,1934552560
12117,18,Jits_Linear_8,3,1,48,46,1934579640
12117,18,Jits_Linear_8,0,1,48,49,1935030920
12117,18,Jits_Linear_8,1,5,56,103,1935053640
12117,18,Jits_Linear_8,2,5,80,127,1935072608
12117,18,Jits_Linear_8,3,5,63,98,1935093364
12117,18,Jits_Linear_8,0,5,63,98,1935472992
12117,18,Jits_Linear_8,1,5,56,103,1935492404
12117,18,Jits_Linear_8,2,5,80,127,1935533416
12117,18,Jits_Linear_8,3,1,48,40,1935575344
12117,18,Jits_Linear_8,0,5,63,98,1935982932
12117,18,Jits_Linear_8,1,5,80,127,1936012632
12117,18,Jits_Linear_8,2,5,56,103,1936033312
12117,18,Jits_Linear_8,3,1,48,47,1936063560
12117,18,Jits_Linear_8,0,5,80,127,1936452936
12117,18,Jits_Linear_8,1,5,56,103,1936503440
12117,18,Jits_Linear_8,2,5,63,98,1936562436
12117,18,Jits_Linear_8,3,1,48,46,1936565480
12117,18,Jits_Linear_8,0,5,63,98,1936933520
12117,18,Jits_Linear_8,1,1,48,49,1937050692
12117,18,Jits_Linear_8,2,5,56,103,1937053196
12117,18,Jits_Linear_8,3,5,80,127,1937082872
12117,18,Jits_Linear_8,0,5,80,127,1937462576
12117,18,Jits_Linear_8,1,5,63,98,1937483332
12117,18,Jits_Linear_8,2,1,48,52,1937543400
12117,18,Jits_Linear_8,3,5,56,103,1937552736
12117,18,Jits_Linear_8,0,5,63,98,1937972536
12117,18,Jits_Linear_8,1,5,56,103,1937982804
12117,18,Jits_Linear_8,2,1,48,44,1938040084
12117,18,Jits_Linear_8,3,5,80,127,1938062764
12117,18,Jits_Linear_8,0,5,56,103,1938522488
12117,18,Jits_Linear_8,1,1,48,48,1938532056
12117,18,Jits_Linear_8,2,5,80,127,1938553280
12117,18,Jits_Linear_8,3,5,63,98,1938562356
12117,18,Jits_Linear_8,0,9999,9999,9999,1828150384
12117,18,Jits_Linear_8,1,9999,9999,9999,1828970620
12117,18,Jits_Linear_8,2,9999,9999,9999,1829790800
12117,18,Jits_Linear_8,3,9999,9999,9999,1830611024
12117,18,Jits_Linear_8,4,9999,9999,9999,1831430268
12117,18,Jits_Linear_8,5,9999,9999,9999,1832240216
12117,18,Jits_Linear_8,6,9999,9999,9999,1833050232
12117,18,Jits_Linear_8,7,9999,9999,9999,1833860180
12117,18,Jits_Linear_8,8,9999,9999,9999,1834670152
12117,18,Jits_Linear_8,9,9999,9999,9999,1835480160
12117,18,Jits_Linear_8,10,9999,9999,9999,1836280892
12117,18,Jits_Linear_8,11,9999,9999,9999,1837080648
12117,18,Jits_Linear_8,12,9999,9999,9999,1837880408
12117,18,Jits_Linear_8,13,9999,9999,9999,1838680172
12117,18,Jits_Linear_8,14,9999,9999,9999,1839480888
12117,18,Jits_Linear_8,15,9999,9999,9999,1840270444
12117,18,Jits_Linear_8,16,9999,9999,9999,1841060984
12117,18,Jits_Linear_8,17,9999,9999,9999,1841850484
12117,18,Jits_Linear_8,18,9999,9999,9999,1842640952
12117,18,Jits_Linear_8,19,9999,9999,9999,1843430496
12117,18,Jits_Linear_8,20,9999,9999,9999,1844210764
12117,18,Jits_Linear_8,21,9999,9999,9999,1844991040
12117,18,Jits_Linear_8,22,9999,9999,9999,1845770332
12117,18,Jits_Linear_8,23,9999,9999,9999,1846550608
12117,18,Jits_Linear_8,24,9999,9999,9999,1847330872
12117,18,Jits_Linear_8,25,9999,9999,9999,1848100960
12117,18,Jits_Linear_8,26,9999,9999,9999,1848870968
12117,18,Jits_Linear_8,27,9999,9999,9999,1849641056
12117,18,Jits_Linear_8,28,9999,9999,9999,1850411064
12117,18,Jits_Linear_8,29,9999,9999,9999,1851190368
12117,18,Jits_Linear_8,30,9999,9999,9999,1851950188
12117,18,Jits_Linear_8,31,9999,9999,9999,1852710980
12117,18,Jits_Linear_8,32,9999,9999,9999,1853470800
12117,18,Jits_Linear_8,33,9999,9999,9999,1854230612
12117,18,Jits_Linear_8,34,9999,9999,9999,1854990448
12117,18,Jits_Linear_8,35,9999,9999,9999,1855740984
12117,18,Jits_Linear_8,36,9999,9999,9999,1856490552
12117,18,Jits_Linear_8,37,9999,9999,9999,1857240184
12117,18,Jits_Linear_8,38,9999,9999,9999,1857990712
12117,18,Jits_Linear_8,39,9999,9999,9999,1858740284
12117,18,Jits_Linear_8,40,9999,9999,9999,1859480696
12117,18,Jits_Linear_8,41,9999,9999,9999,1860221028
12117,18,Jits_Linear_8,42,9999,9999,9999,1860960320
12117,18,Jits_Linear_8,43,9999,9999,9999,1861700728
12117,18,Jits_Linear_8,44,9999,9999,9999,1862441052
12117,18,Jits_Linear_8,45,9999,9999,9999,1863170160
12117,18,Jits_Linear_8,46,9999,9999,9999,1863900240
12117,18,Jits_Linear_8,47,9999,9999,9999,1864630388
12117,18,Jits_Linear_8,48,9999,9999,9999,1865360464
12117,18,Jits_Linear_8,49,9999,9999,9999,1866090604
12117,18,Jits_Linear_8,50,9999,9999,9999,1866810496
12117,18,Jits_Linear_8,51,9999,9999,9999,1867530328
12117,18,Jits_Linear_8,52,9999,9999,9999,1868250232
12117,18,Jits_Linear_8,53,9999,9999,9999,1868971116
12117,18,Jits_Linear_8,54,9999,9999,9999,1869700192
12117,18,Jits_Linear_8,55,9999,9999,9999,1870410876
12117,18,Jits_Linear_8,56,9999,9999,9999,1871120504
12117,18,Jits_Linear_8,57,9999,9999,9999,1871830132
12117,18,Jits_Linear_8,58,9999,9999,9999,1872540748
12117,18,Jits_Linear_8,59,9999,9999,9999,1873250420
12117,18,Jits_Linear_8,60,9999,9999,9999,1873950832
12117,18,Jits_Linear_8,61,9999,9999,9999,1874650200
12117,18,Jits_Linear_8,62,9999,9999,9999,1875350608
12117,18,Jits_Linear_8,63,9999,9999,9999,1876051060
12117,18,Jits_Linear_8,64,9999,9999,9999,1876750432
12117,18,Jits_Linear_8,65,9999,9999,9999,1877440632
12117,18,Jits_Linear_8,66,9999,9999,9999,1878130776
12117,18,Jits_Linear_8,67,9999,9999,9999,1878820980
12117,18,Jits_Linear_8,68,9999,9999,9999,1879510080
12117,18,Jits_Linear_8,69,9999,9999,9999,1880200292
12117,18,Jits_Linear_8,70,9999,9999,9999,1880880252
12117,18,Jits_Linear_8,71,9999,9999,9999,1881560148
12117,18,Jits_Linear_8,72,9999,9999,9999,1882240096
12117,18,Jits_Linear_8,73,9999,9999,9999,1882921040
12117,18,Jits_Linear_8,74,9999,9999,9999,1883601020
12117,18,Jits_Linear_8,75,9999,9999,9999,1884270712
12117,18,Jits_Linear_8,76,9999,9999,9999,1884940344
12117,18,Jits_Linear_8,77,9999,9999,9999,1885611104
12117,18,Jits_Linear_8,78,9999,9999,9999,1886291044
12117,18,Jits_Linear_8,79,9999,9999,9999,1886960756
12117,18,Jits_Linear_8,80,9999,9999,9999,1887620164
12117,18,Jits_Linear_8,81,9999,9999,9999,1888280688
12117,18,Jits_Linear_8,82,9999,9999,9999,1888940116
12117,18,Jits_Linear_8,83,9999,9999,9999,1889600564
12117,18,Jits_Linear_8,84,9999,9999,9999,1890261052
12117,18,Jits_Linear_8,85,9999,9999,9999,1890910288
12117,18,Jits_Linear_8,86,9999,9999,9999,1891560504
12117,18,Jits_Linear_8,87,9999,9999,9999,1892210764
12117,18,Jits_Linear_8,88,9999,9999,9999,1892861048
12117,18,Jits_Linear_8,89,9999,9999,9999,1893510204
12117,18,Jits_Linear_8,90,9999,9999,9999,1894150232
12117,18,Jits_Linear_8,91,9999,9999,9999,1894790232
12117,18,Jits_Linear_8,92,9999,9999,9999,1895430268
12117,18,Jits_Linear_8,93,9999,9999,9999,1896070264
12117,18,Jits_Linear_8,94,9999,9999,9999,1896710208
12117,18,Jits_Linear_8,95,9999,9999,9999,1897340992
12117,18,Jits_Linear_8,96,9999,9999,9999,1897970756
12117,18,Jits_Linear_8,97,9999,9999,9999,1898600568
12117,18,Jits_Linear_8,98,9999,9999,9999,1899230272
12117,18,Jits_Linear_8,99,9999,9999,9999,1899861064
12117,18,Jits_Linear_8,100,9999,9999,9999,1900480628
12117,18,Jits_Linear_8,101,9999,9999,9999,1901100104
12117,18,Jits_Linear_8,102,9999,9999,9999,1901720660
12117,18,Jits_Linear_8,103,9999,9999,9999,1902340220
12117,18,Jits_Linear_8,104,9999,9999,9999,1902960756
12117,18,Jits_Linear_8,105,9999,9999,9999,1903571048
12117,18,Jits_Linear_8,106,9999,9999,9999,1904180324
12117,18,Jits_Linear_8,107,9999,9999,9999,1904790592
12117,18,Jits_Linear_8,108,9999,9999,9999,1905400928
12117,18,Jits_Linear_8,109,9999,9999,9999,1906010212
12117,18,Jits_Linear_8,110,9999,9999,9999,1906610252
12117,18,Jits_Linear_8,111,9999,9999,9999,1907210320
12117,18,Jits_Linear_8,112,9999,9999,9999,1907810404
12117,18,Jits_Linear_8,113,9999,9999,9999,1908410440
12117,18,Jits_Linear_8,114,9999,9999,9999,1909010524
12117,18,Jits_Linear_8,115,9999,9999,9999,1909600328
12117,18,Jits_Linear_8,116,9999,9999,9999,1910190180
12117,18,Jits_Linear_8,117,9999,9999,9999,1910781052
12117,18,Jits_Linear_8,118,9999,9999,9999,1911370876
12117,18,Jits_Linear_8,119,9999,9999,9999,1911960644
12117,18,Jits_Linear_8,120,9999,9999,9999,1912540276
12117,18,Jits_Linear_8,121,9999,9999,9999,1913120868
12117,18,Jits_Linear_8,122,9999,9999,9999,1913700480
12117,18,Jits_Linear_8,123,9999,9999,9999,1914281088
12117,18,Jits_Linear_8,124,9999,9999,9999,1914860620
12117,18,Jits_Linear_8,125,9999,9999,9999,1915430992
12117,18,Jits_Linear_8,126,9999,9999,9999,1916000356
12117,18,Jits_Linear_8,127,9999,9999,9999,1916570712
12117,18,Jits_Linear_8,128,9999,9999,9999,1917141116
12117,18,Jits_Linear_8,129,9999,9999,9999,1917710396
12117,18,Jits_Linear_8,130,9999,9999,9999,1918270560
12117,18,Jits_Linear_8,131,9999,9999,9999,1918830672
12117,18,Jits_Linear_8,132,9999,9999,9999,1919390844
12117,18,Jits_Linear_8,133,9999,9999,9999,1919950916
12117,18,Jits_Linear_8,134,9999,9999,9999,1920511060
12117,18,Jits_Linear_8,135,9999,9999,9999,1921060920
12117,18,Jits_Linear_8,136,9999,9999,9999,1921610868
12117,18,Jits_Linear_8,137,9999,9999,9999,1922160744
12117,18,Jits_Linear_8,138,9999,9999,9999,1922710656
12117,18,Jits_Linear_8,139,9999,9999,9999,1923260540
12117,18,Jits_Linear_8,140,9999,9999,9999,1923800156
12117,18,Jits_Linear_8,141,9999,9999,9999,1924340812
12117,18,Jits_Linear_8,142,9999,9999,9999,1924880504
12117,18,Jits_Linear_8,143,9999,9999,9999,1925420116
12117,18,Jits_Linear_8,144,9999,9999,9999,1925960792
12117,18,Jits_Linear_8,145,9999,9999,9999,1926490196
12117,18,Jits_Linear_8,146,9999,9999,9999,1927020664
12117,18,Jits_Linear_8,147,9999,9999,9999,1927551056
12117,18,Jits_Linear_8,148,9999,9999,9999,1928080492
12117,18,Jits_Linear_8,149,9999,9999,9999,1928610884
12117,18,Jits_Linear_8,150,9999,9999,9999,1929131092
12117,18,Jits_Linear_8,151,9999,9999,9999,1929660520
12117,18,Jits_Linear_8,152,9999,9999,9999,1930180672
12117,18,Jits_Linear_8,153,9999,9999,9999,1930700896
12117,18,Jits_Linear_8,154,9999,9999,9999,1931221108
12117,18,Jits_Linear_8,155,9999,9999,9999,1931731052
12117,18,Jits_Linear_8,156,9999,9999,9999,1932241012
12117,18,Jits_Linear_8,157,9999,9999,9999,1932750952
12117,18,Jits_Linear_8,158,9999,9999,9999,1933260900
12117,18,Jits_Linear_8,159,9999,9999,9999,1933770852
12117,18,Jits_Linear_8,160,9999,9999,9999,1934270552
12117,18,Jits_Linear_8,161,9999,9999,9999,1934770304
12117,18,Jits_Linear_8,162,9999,9999,9999,1935271036
12117,18,Jits_Linear_8,163,9999,9999,9999,1935770712
12117,18,Jits_Linear_8,164,9999,9999,9999,1936270464
12117,18,Jits_Linear_8,165,9999,9999,9999,1936760900
12117,18,Jits_Linear_8,166,9999,9999,9999,1937250408
12117,18,Jits_Linear_8,167,9999,9999,9999,1937740868
12117,18,Jits_Linear_8,168,9999,9999,9999,1938230376
12117,18,Jits_Linear_8,169,9999,9999,9999,1938720848
12118,16,Jits_ISO_5,0,5,56,103,1947880756
12118,16,Jits_ISO_5,1,5,63,98,1947883928
12118,16,Jits_ISO_5,2,5,80,127,1947887124
12118,16,Jits_ISO_5,0,5,56,103,1948380552
12118,16,Jits_ISO_5,1,5,63,98,1948383648
12118,16,Jits_ISO_5,2,5,80,127,1948386772
12118,16,Jits_ISO_5,0,5,56,103,1948881264
12118,16,Jits_ISO_5,1,5,80,127,1948890412
12118,16,Jits_ISO_5,2,5,63,98,1948911168
12118,16,Jits_ISO_5,0,5,63,98,1949330808
12118,16,Jits_ISO_5,1,1,48,29,1949340296
12118,16,Jits_ISO_5,2,5,80,127,1949360548
12118,16,Jits_ISO_5,3,5,56,103,1949370820
12118,16,Jits_ISO_5,0,1,48,40,1949803204
12118,16,Jits_ISO_5,1,5,80,127,1949890988
12118,16,Jits_ISO_5,2,5,56,103,1949901320
12118,16,Jits_ISO_5,3,5,63,98,1949930992
12118,16,Jits_ISO_5,0,5,63,98,1950381368
12118,16,Jits_ISO_5,1,1,48,43,1950406808
12118,16,Jits_ISO_5,2,5,56,103,1950411260
12118,16,Jits_ISO_5,3,5,80,127,1950421304
12118,16,Jits_ISO_5,0,5,56,103,1950831108
12118,16,Jits_ISO_5,1,5,63,98,1950881112
12118,16,Jits_ISO_5,2,5,80,127,1950900672
12118,16,Jits_ISO_5,3,1,48,46,1950962072
12118,16,Jits_ISO_5,0,5,80,127,1951330780
12118,16,Jits_ISO_5,1,5,63,98,1951380932
12118,16,Jits_ISO_5,2,5,56,103,1951420644
12118,16,Jits_ISO_5,3,1,48,45,1951459128
12118,16,Jits_ISO_5,0,5,56,103,1951831504
12118,16,Jits_ISO_5,1,5,63,98,1951861252
12118,16,Jits_ISO_5,2,5,80,127,1951930880
12118,16,Jits_ISO_5,3,1,48,42,1951949584
12118,16,Jits_ISO_5,0,5,56,103,1952331180
12118,16,Jits_ISO_5,1,5,80,127,1952390520
12118,16,Jits_ISO_5,2,1,48,46,1952409104
12118,16,Jits_ISO_5,3,5,63,98,1952421260
12118,16,Jits_ISO_5,0,5,56,103,1952841264
12118,16,Jits_ISO_5,1,5,63,98,1952851308
12118,16,Jits_ISO_5,2,1,48,42,1952890948
12118,16,Jits_ISO_5,3,5,80,127,1952892284
12118,16,Jits_ISO_5,0,5,63,98,1953330524
12118,16,Jits_ISO_5,1,1,48,42,1953367572
12118,16,Jits_ISO_5,2,5,80,127,1953410384
12118,16,Jits_ISO_5,3,5,56,103,1953420604
12118,16,Jits_ISO_5,0,5,63,98,1953880308
12118,16,Jits_ISO_5,1,1,48,42,1953898716
12118,16,Jits_ISO_5,2,5,56,103,1953921276
12118,16,Jits_ISO_5,3,5,80,127,1953924348
12118,16,Jits_ISO_5,0,5,56,103,1954341224
12118,16,Jits_ISO_5,1,5,63,98,1954350520
12118,16,Jits_ISO_5,2,5,80,127,1954391356
12118,16,Jits_ISO_5,3,1,48,44,1954399796
12118,16,Jits_ISO_5,0,5,56,103,1954830628
12118,16,Jits_ISO_5,1,5,63,98,1954833768
12118,16,Jits_ISO_5,2,5,80,127,1954851236
12118,16,Jits_ISO_5,3,1,48,45,1954861848
12118,16,Jits_ISO_5,0,5,80,127,1955340628
12118,16,Jits_ISO_5,1,5,56,103,1955351120
12118,16,Jits_ISO_5,2,1,48,42,1955366000
12118,16,Jits_ISO_5,3,5,63,98,1955420492
12118,16,Jits_ISO_5,0,5,63,98,1955831160
12118,16,Jits_ISO_5,1,1,48,42,1955839824
12118,16,Jits_ISO_5,2,5,56,103,1955850564
12118,16,Jits_ISO_5,3,5,80,127,1955930356
12118,16,Jits_ISO_5,0,1,48,43,1956329220
12118,16,Jits_ISO_5,1,5,56,103,1956341004
12118,16,Jits_ISO_5,2,5,80,127,1956380940
12118,16,Jits_ISO_5,3,5,63,98,1956391360
12118,16,Jits_ISO_5,0,5,80,127,1956830776
12118,16,Jits_ISO_5,1,1,48,41,1956845584
12118,16,Jits_ISO_5,2,5,63,98,1956861416
12118,16,Jits_ISO_5,3,5,56,103,1956901352
12118,16,Jits_ISO_5,0,1,48,39,1957344648
12118,16,Jits_ISO_5,1,5,56,103,1957350968
12118,16,Jits_ISO_5,2,5,63,98,1957380348
12118,16,Jits_ISO_5,3,5,80,127,1957430620
12118,16,Jits_ISO_5,0,5,80,127,1957850488
12118,16,Jits_ISO_5,1,1,48,33,1957882448
12118,16,Jits_ISO_5,2,5,56,103,1957890344
12118,16,Jits_ISO_5,3,5,63,98,1957900764
12118,16,Jits_ISO_5,0,5,80,127,1958330832
12118,16,Jits_ISO_5,1,1,48,36,1958367880
12118,16,Jits_ISO_5,2,5,63,98,1958370540
12118,16,Jits_ISO_5,3,5,56,103,1958431076
12118,16,Jits_ISO_5,0,5,56,103,1958830432
12118,16,Jits_ISO_5,1,5,80,127,1958840628
12118,16,Jits_ISO_5,2,1,48,47,1958880460
12118,16,Jits_ISO_5,3,5,63,98,1958920484
12118,16,Jits_ISO_5,0,5,80,127,1959331224
12118,16,Jits_ISO_5,1,1,48,45,1959356516
12118,16,Jits_ISO_5,2,5,63,98,1959390560
12118,16,Jits_ISO_5,3,5,56,103,1959421208
12118,16,Jits_ISO_5,0,5,56,103,1959830824
12118,16,Jits_ISO_5,1,1,48,43,1959861888
12118,16,Jits_ISO_5,2,5,80,127,1959891280
12118,16,Jits_ISO_5,3,5,63,98,1959931216
12118,16,Jits_ISO_5,0,1,48,42,1960375340
12118,16,Jits_ISO_5,1,5,56,103,1960380912
12118,16,Jits_ISO_5,2,5,63,98,1960390960
12118,16,Jits_ISO_5,3,5,80,127,1960394248
12118,16,Jits_ISO_5,0,5,80,127,1960831396
12118,16,Jits_ISO_5,1,1,48,43,1960872672
12118,16,Jits_ISO_5,2,5,63,98,1960920500
12118,16,Jits_ISO_5,3,5,56,103,1960930920
12118,16,Jits_ISO_5,0,5,56,103,1961330984
12118,16,Jits_ISO_5,1,5,63,98,1961334080
12118,16,Jits_ISO_5,2,5,80,127,1961337352
12118,16,Jits_ISO_5,3,1,48,40,1961399692
12118,16,Jits_ISO_5,0,5,80,127,1961851252
12118,16,Jits_ISO_5,1,1,48,37,1961896868
12118,16,Jits_ISO_5,2,5,63,98,1961901544
12118,16,Jits_ISO_5,3,5,56,103,1961930996
12118,16,Jits_ISO_5,0,5,56,103,1962330552
12118,16,Jits_ISO_5,1,5,80,127,1962340896
12118,16,Jits_ISO_5,2,5,63,98,1962411348
12118,16,Jits_ISO_5,3,1,48,35,1962413360
12118,16,Jits_ISO_5,0,5,56,103,1962840408
12118,16,Jits_ISO_5,1,5,63,98,1962861016
12118,16,Jits_ISO_5,2,1,48,36,1962894048
12118,16,Jits_ISO_5,3,5,80,127,1962921272
12118,16,Jits_ISO_5,0,5,80,127,1963331012
12118,16,Jits_ISO_5,1,1,48,35,1963396532
12118,16,Jits_ISO_5,2,5,63,98,1963400688
12118,16,Jits_ISO_5,3,5,56,103,1963421016
12118,16,Jits_ISO_5,0,5,80,127,1963850988
12118,16,Jits_ISO_5,1,5,56,103,1963861332
12118,16,Jits_ISO_5,2,5,63,98,1963870556
12118,16,Jits_ISO_5,3,1,48,35,1963906852
12118,16,Jits_ISO_5,0,5,80,127,1964340544
12118,16,Jits_ISO_5,1,5,56,103,1964361004
12118,16,Jits_ISO_5,2,1,48,38,1964426216
12118,16,Jits_ISO_5,3,5,63,98,1964430896
12118,16,Jits_ISO_5,0,5,56,103,1964850528
12118,16,Jits_ISO_5,1,5,80,127,1964881252
12118,16,Jits_ISO_5,2,1,48,39,1964882968
12118,16,Jits_ISO_5,3,5,63,98,1964900808
12118,16,Jits_ISO_5,0,5,63,98,1965341064
12118,16,Jits_ISO_5,1,1,48,41,1965376316
12118,16,Jits_ISO_5,2,5,56,103,1965400328
12118,16,Jits_ISO_5,3,5,80,127,1965431120
12118,16,Jits_ISO_5,0,5,63,98,1965830464
12118,16,Jits_ISO_5,1,5,80,127,1965834052
12118,16,Jits_ISO_5,2,1,48,44,1965889924
12118,16,Jits_ISO_5,3,5,56,103,1965920732
12118,16,Jits_ISO_5,0,5,56,103,1966350716
12118,16,Jits_ISO_5,1,5,63,98,1966381440
12118,16,Jits_ISO_5,2,1,48,40,1966398108
12118,16,Jits_ISO_5,3,5,80,127,1966421292
12118,16,Jits_ISO_5,0,5,63,98,1966850316
12118,16,Jits_ISO_5,1,1,48,43,1966889632
12118,16,Jits_ISO_5,2,5,56,103,1966891296
12118,16,Jits_ISO_5,3,5,80,127,1966910780
12118,16,Jits_ISO_5,0,5,63,98,1967361436
12118,16,Jits_ISO_5,1,1,48,36,1967395344
12118,16,Jits_ISO_5,2,5,56,103,1967401220
12118,16,Jits_ISO_5,3,5,80,127,1967410592
12118,16,Jits_ISO_5,0,5,80,127,1967840716
12118,16,Jits_ISO_5,1,1,48,35,1967892612
12118,16,Jits_ISO_5,2,5,63,98,1967911212
12118,16,Jits_ISO_5,3,5,56,103,1967930924
12118,16,Jits_ISO_5,0,5,56,103,1968331028
12118,16,Jits_ISO_5,1,5,80,127,1968350592
12118,16,Jits_ISO_5,2,5,63,98,1968390600
12118,16,Jits_ISO_5,3,1,48,35,1968408020
12118,16,Jits_ISO_5,0,5,63,98,1968841040
12118,16,Jits_ISO_5,1,5,80,127,1968860676
12118,16,Jits_ISO_5,2,1,48,40,1968898644
12118,16,Jits_ISO_5,3,5,56,103,1968900308
12118,16,Jits_ISO_5,0,5,63,98,1969340696
12118,16,Jits_ISO_5,1,5,56,103,1969361228
12118,16,Jits_ISO_5,2,1,48,36,1969365988
12118,16,Jits_ISO_5,3,5,80,127,1969370444
12118,16,Jits_ISO_5,0,5,80,127,1969840576
12118,16,Jits_ISO_5,1,1,48,33,1969856580
12118,16,Jits_ISO_5,2,5,56,103,1969861028
12118,16,Jits_ISO_5,3,5,63,98,1969890852
12118,16,Jits_ISO_5,0,1,48,30,1970344928
12118,16,Jits_ISO_5,1,5,56,103,1970410816
12118,16,Jits_ISO_5,2,5,80,127,1970413956
12118,16,Jits_ISO_5,3,5,63,98,1970431272
12118,16,Jits_ISO_5,0,5,63,98,1970830616
12118,16,Jits_ISO_5,1,5,56,103,1970861560
12118,16,Jits_ISO_5,2,1,48,27,1970870532
12118,16,Jits_ISO_5,3,5,80,127,1970920816
12118,16,Jits_ISO_5,0,1,48,32,1971341332
12118,16,Jits_ISO_5,1,5,63,98,1971411256
12118,16,Jits_ISO_5,2,5,56,103,1971420476
12118,16,Jits_ISO_5,3,5,80,127,1971430672
12118,16,Jits_ISO_5,0,1,48,30,1971852076
12118,16,Jits_ISO_5,1,5,56,103,1971860720
12118,16,Jits_ISO_5,2,5,80,127,1971890472
12118,16,Jits_ISO_5,3,5,63,98,1971900964
12118,16,Jits_ISO_5,0,1,48,31,1972342720
12118,16,Jits_ISO_5,1,5,63,98,1972400612
12118,16,Jits_ISO_5,2,5,56,103,1972410732
12118,16,Jits_ISO_5,3,5,80,127,1972431116
12118,16,Jits_ISO_5,0,5,56,103,1972830804
12118,16,Jits_ISO_5,1,1,48,28,1972852804
12118,16,Jits_ISO_5,2,5,63,98,1972891060
12118,16,Jits_ISO_5,3,5,80,127,1972894348
12118,16,Jits_ISO_5,0,1,48,32,1973340844
12118,16,Jits_ISO_5,1,5,80,127,1973350832
12118,16,Jits_ISO_5,2,5,56,103,1973360876
12118,16,Jits_ISO_5,3,5,63,98,1973430580
12118,16,Jits_ISO_5,0,5,80,127,1973841204
12118,16,Jits_ISO_5,1,1,48,35,1973853464
12118,16,Jits_ISO_5,2,5,56,103,1973910900
12118,16,Jits_ISO_5,3,5,63,98,1973921096
12118,16,Jits_ISO_5,0,1,48,32,1974368872
12118,16,Jits_ISO_5,1,5,63,98,1974380880
12118,16,Jits_ISO_5,2,5,56,103,1974391224
12118,16,Jits_ISO_5,3,5,80,127,1974410736
12118,16,Jits_ISO_5,0,5,80,127,1974830724
12118,16,Jits_ISO_5,1,1,48,35,1974885756
12118,16,Jits_ISO_5,2,5,63,98,1974890884
12118,16,Jits_ISO_5,3,5,56,103,1974930772
12118,16,Jits_ISO_5,0,5,56,103,1975371080
12118,16,Jits_ISO_5,1,5,63,98,1975381276
12118,16,Jits_ISO_5,2,1,48,35,1975382316
12118,16,Jits_ISO_5,3,5,80,127,1975421280
12118,16,Jits_ISO_5,0,5,56,103,1975830824
12118,16,Jits_ISO_5,1,5,80,127,1975860644
12118,16,Jits_ISO_5,2,1,48,32,1975897768
12118,16,Jits_ISO_5,3,5,63,98,1975910764
12118,16,Jits_ISO_5,0,5,56,103,1976370728
12118,16,Jits_ISO_5,1,1,48,37,1976377660
12118,16,Jits_ISO_5,2,5,63,98,1976410432
12118,16,Jits_ISO_5,3,5,80,127,1976413724
12118,16,Jits_ISO_5,0,1,48,36,1976866676
12118,16,Jits_ISO_5,1,5,56,103,1976871284
12118,16,Jits_ISO_5,2,5,63,98,1976880728
12118,16,Jits_ISO_5,3,5,80,127,1976900964
12118,16,Jits_ISO_5,0,5,56,103,1977331016
12118,16,Jits_ISO_5,1,5,80,127,1977334080
12118,16,Jits_ISO_5,2,1,48,36,1977369744
12118,16,Jits_ISO_5,3,5,63,98,1977371240
12118,16,Jits_ISO_5,0,1,48,37,1977841208
12118,16,Jits_ISO_5,1,5,63,98,1977870680
12118,16,Jits_ISO_5,2,5,56,103,1977901548
12118,16,Jits_ISO_5,3,5,80,127,1977920736
12118,16,Jits_ISO_5,0,5,80,127,1978340752
12118,16,Jits_ISO_5,1,1,48,40,1978341716
12118,16,Jits_ISO_5,2,5,56,103,1978350940
12118,16,Jits_ISO_5,3,5,63,98,1978361208
12118,16,Jits_ISO_5,0,5,56,103,1978840720
12118,16,Jits_ISO_5,1,1,48,40,1978859056
12118,16,Jits_ISO_5,2,5,80,127,1978881324
12118,16,Jits_ISO_5,3,5,63,98,1978911148
12118,16,Jits_ISO_5,0,5,63,98,1979351336
12118,16,Jits_ISO_5,1,5,80,127,1979360560
12118,16,Jits_ISO_5,2,1,48,38,1979361452
12118,16,Jits_ISO_5,3,5,56,103,1979370972
12118,16,Jits_ISO_5,0,5,56,103,1979830764
12118,16,Jits_ISO_5,1,1,48,40,1979833132
12118,16,Jits_ISO_5,2,5,63,98,1979901412
12118,16,Jits_ISO_5,3,5,80,127,1979910632
12118,16,Jits_ISO_5,0,5,80,127,1980331488
12118,16,Jits_ISO_5,1,5,56,103,1980340712
12118,16,Jits_ISO_5,2,1,48,38,1980346820
12118,16,Jits_ISO_5,3,5,63,98,1980390752
12118,16,Jits_ISO_5,0,1,48,39,1980824228
12118,16,Jits_ISO_5,1,5,80,127,1980841264
12118,16,Jits_ISO_5,2,5,56,103,1980900684
12118,16,Jits_ISO_5,3,5,63,98,1980930564
12118,16,Jits_ISO_5,0,1,48,38,1981318632
12118,16,Jits_ISO_5,1,5,56,103,1981341000
12118,16,Jits_ISO_5,2,5,80,127,1981343992
12118,16,Jits_ISO_5,3,5,63,98,1981380936
12118,16,Jits_ISO_5,0,1,48,38,1981778480
12118,16,Jits_ISO_5,1,5,56,103,1981870396
12118,16,Jits_ISO_5,2,5,63,98,1981901100
12118,16,Jits_ISO_5,3,5,80,127,1981911592
12118,16,Jits_ISO_5,0,1,48,39,1982338988
12118,16,Jits_ISO_5,1,5,63,98,1982381512
12118,16,Jits_ISO_5,2,5,80,127,1982390660
12118,16,Jits_ISO_5,3,5,56,103,1982400932
12118,16,Jits_ISO_5,0,5,80,127,1982830888
12118,16,Jits_ISO_5,1,1,48,41,1982869172
12118,16,Jits_ISO_5,2,5,56,103,1982881104
12118,16,Jits_ISO_5,3,5,63,98,1982884096
12118,16,Jits_ISO_5,0,5,56,103,1983361560
12118,16,Jits_ISO_5,1,1,48,46,1983369412
12118,16,Jits_ISO_5,2,5,80,127,1983380968
12118,16,Jits_ISO_5,3,5,63,98,1983391088
12118,16,Jits_ISO_5,0,5,63,98,1983840684
12118,16,Jits_ISO_5,1,1,48,48,1983864032
12118,16,Jits_ISO_5,2,5,56,103,1983871620
12118,16,Jits_ISO_5,3,5,80,127,1983890984
12118,16,Jits_ISO_5,0,1,48,45,1984328304
12118,16,Jits_ISO_5,1,5,56,103,1984350444
12118,16,Jits_ISO_5,2,5,80,127,1984360864
12118,16,Jits_ISO_5,3,5,63,98,1984430476
12118,16,Jits_ISO_5,0,1,48,48,1984825868
12118,16,Jits_ISO_5,1,5,63,98,1984841108
12118,16,Jits_ISO_5,2,5,80,127,1984881044
12118,16,Jits_ISO_5,3,5,56,103,1984920932
12118,16,Jits_ISO_5,0,1,48,49,1985348840
12118,16,Jits_ISO_5,1,5,56,103,1985351104
12118,16,Jits_ISO_5,2,5,63,98,1985361596
12118,16,Jits_ISO_5,3,5,80,127,1985380712
12118,16,Jits_ISO_5,0,1,48,46,1985847200
12118,16,Jits_ISO_5,1,5,63,98,1985890692
12118,16,Jits_ISO_5,2,5,80,127,1985911076
12118,16,Jits_ISO_5,3,5,56,103,1985930736
12118,16,Jits_ISO_5,0,5,56,103,1986330872
12118,16,Jits_ISO_5,1,1,48,43,1986380820
12118,16,Jits_ISO_5,2,5,80,127,1986410884
12118,16,Jits_ISO_5,3,5,63,98,1986421228
12118,16,Jits_ISO_5,0,5,80,127,1986870780
12118,16,Jits_ISO_5,1,5,63,98,1986880828
12118,16,Jits_ISO_5,2,1,48,45,1986905068
12118,16,Jits_ISO_5,3,5,56,103,1986910644
12118,16,Jits_ISO_5,0,5,63,98,1987330448
12118,16,Jits_ISO_5,1,5,80,127,1987371656
12118,16,Jits_ISO_5,2,1,48,47,1987392308
12118,16,Jits_ISO_5,3,5,56,103,1987430916
12118,16,Jits_ISO_5,0,5,63,98,1987841344
12118,16,Jits_ISO_5,1,5,56,103,1987890500
12118,16,Jits_ISO_5,2,1,48,42,1987903204
12118,16,Jits_ISO_5,3,5,80,127,1987921436
12118,16,Jits_ISO_5,0,5,80,127,1988351488
12118,16,Jits_ISO_5,1,5,63,98,1988360488
12118,16,Jits_ISO_5,2,1,48,49,1988398972
12118,16,Jits_ISO_5,3,5,56,103,1988431428
12118,16,Jits_ISO_5,0,1,48,49,1988879532
12118,16,Jits_ISO_5,1,5,80,127,1988920684
12118,16,Jits_ISO_5,2,5,56,103,1988930952
12118,16,Jits_ISO_5,3,5,63,98,1988934092
12118,16,Jits_ISO_5,0,5,56,103,1989360864
12118,16,Jits_ISO_5,1,1,48,48,1989374544
12118,16,Jits_ISO_5,2,5,80,127,1989380416
12118,16,Jits_ISO_5,3,5,63,98,1989390760
12118,16,Jits_ISO_5,0,1,48,50,1989862900
12118,16,Jits_ISO_5,1,5,63,98,1989871016
12118,16,Jits_ISO_5,2,5,56,103,1989910880
12118,16,Jits_ISO_5,3,5,80,127,1989931560
12118,16,Jits_ISO_5,0,5,63,98,1990370760
12118,16,Jits_ISO_5,1,1,48,45,1990385564
12118,16,Jits_ISO_5,2,5,56,103,1990431068
12118,16,Jits_ISO_5,3,5,80,127,1990434360
12118,16,Jits_ISO_5,0,5,56,103,1990830412
12118,16,Jits_ISO_5,1,5,80,127,1990850872
12118,16,Jits_ISO_5,2,1,48,47,1990887620
12118,16,Jits_ISO_5,3,5,63,98,1990890876
12118,16,Jits_ISO_5,0,1,48,45,1991349536
12118,16,Jits_ISO_5,1,5,56,103,1991361016
12118,16,Jits_ISO_5,2,5,63,98,1991381552
12118,16,Jits_ISO_5,3,5,80,127,1991390476
12118,16,Jits_ISO_5,0,5,80,127,1991830792
12118,16,Jits_ISO_5,1,1,48,42,1991844996
12118,16,Jits_ISO_5,2,5,56,103,1991860608
12118,16,Jits_ISO_5,3,5,63,98,1991900692
12118,16,Jits_ISO_5,0,1,48,47,1992337312
12118,16,Jits_ISO_5,1,5,80,127,1992340796
12118,16,Jits_ISO_5,2,5,56,103,1992361328
12118,16,Jits_ISO_5,3,5,63,98,1992420816
12118,16,Jits_ISO_5,0,5,56,103,1992850944
12118,16,Jits_ISO_5,1,1,48,43,1992856232
12118,16,Jits_ISO_5,2,5,80,127,1992871472
12118,16,Jits_ISO_5,3,5,63,98,1992930660
12118,16,Jits_ISO_5,0,5,80,127,1993330968
12118,16,Jits_ISO_5,1,5,56,103,1993341384
12118,16,Jits_ISO_5,2,1,48,48,1993357412
12118,16,Jits_ISO_5,3,5,63,98,1993381412
12118,16,Jits_ISO_5,0,5,63,98,1993830860
12118,16,Jits_ISO_5,1,5,56,103,1993870592
12118,16,Jits_ISO_5,2,1,48,44,1993871576
12118,16,Jits_ISO_5,3,5,80,127,1993874928
12118,16,Jits_ISO_5,0,5,63,98,1994350956
12118,16,Jits_ISO_5,1,5,80,127,1994390772
12118,16,Jits_ISO_5,2,1,48,43,1994394484
12118,16,Jits_ISO_5,3,5,56,103,1994420588
12118,16,Jits_ISO_5,0,5,56,103,1994840424
12118,16,Jits_ISO_5,1,5,63,98,1994850548
12118,16,Jits_ISO_5,2,1,48,55,1994880964
12118,16,Jits_ISO_5,3,5,80,127,1994882528
12118,16,Jits_ISO_5,0,5,80,127,1995331024
12118,16,Jits_ISO_5,1,1,48,51,1995387108
12118,16,Jits_ISO_5,2,5,63,98,1995400476
12118,16,Jits_ISO_5,3,5,56,103,1995410748
12118,16,Jits_ISO_5,0,5,63,98,1995830676
12118,16,Jits_ISO_5,1,5,56,103,1995901404
12118,16,Jits_ISO_5,2,1,48,58,1995907216
12118,16,Jits_ISO_5,3,5,80,127,1995910620
12118,16,Jits_ISO_5,0,5,63,98,1996331360
12118,16,Jits_ISO_5,1,5,56,103,1996350848
12118,16,Jits_ISO_5,2,5,80,127,1996390712
12118,16,Jits_ISO_5,3,1,48,52,1996424764
12118,16,Jits_ISO_5,0,5,56,103,1996841256
12118,16,Jits_ISO_5,1,5,63,98,1996850480
12118,16,Jits_ISO_5,2,1,48,51,1996913680
12118,16,Jits_ISO_5,3,5,80,127,1996930564
12118,16,Jits_ISO_5,0,5,63,98,1997330740
12118,16,Jits_ISO_5,1,5,56,103,1997360492
12118,16,Jits_ISO_5,2,5,80,127,1997400352
12118,16,Jits_ISO_5,3,1,48,51,1997410816
12118,16,Jits_ISO_5,0,5,56,103,1997830476
12118,16,Jits_ISO_5,1,5,63,98,1997870412
12118,16,Jits_ISO_5,2,1,48,46,1997891436
12118,16,Jits_ISO_5,3,5,80,127,1997911388
12118,16,Jits_ISO_5,0,5,80,127,1998331416
12118,16,Jits_ISO_5,1,1,48,45,1998349824
12118,16,Jits_ISO_5,2,5,56,103,1998411128
12118,16,Jits_ISO_5,3,5,63,98,1998421248
12118,16,Jits_ISO_5,0,5,56,103,1998871020
12118,16,Jits_ISO_5,1,5,63,98,1998874016
12118,16,Jits_ISO_5,2,5,80,127,1998881516
12118,16,Jits_ISO_5,3,1,48,40,1998897960
12118,16,Jits_ISO_5,0,1,48,53,1999385036
12118,16,Jits_ISO_5,1,5,56,103,1999391284
12118,16,Jits_ISO_5,2,5,63,98,1999410548
12118,16,Jits_ISO_5,3,5,80,127,1999420744
12118,16,Jits_ISO_5,0,5,63,98,1999850800
12118,16,Jits_ISO_5,1,5,80,127,1999861144
12118,16,Jits_ISO_5,2,1,48,52,1999879348
12118,16,Jits_ISO_5,3,5,56,103,1999880696
12118,16,Jits_ISO_5,0,5,63,98,2000350680
12118,16,Jits_ISO_5,1,1,48,43,2000395072
12118,16,Jits_ISO_5,2,5,56,103,2000430392
12118,16,Jits_ISO_5,3,5,80,127,2000433604
12118,16,Jits_ISO_5,0,5,63,98,2000851232
12118,16,Jits_ISO_5,1,5,56,103,2000870716
12118,16,Jits_ISO_5,2,1,48,48,2000897128
12118,16,Jits_ISO_5,3,5,80,127,2000900456
12118,16,Jits_ISO_5,0,5,56,103,2001351188
12118,16,Jits_ISO_5,1,1,48,50,2001365692
12118,16,Jits_ISO_5,2,5,63,98,2001370444
12118,16,Jits_ISO_5,3,5,80,127,2001380712
12118,16,Jits_ISO_5,0,1,48,53,2001852324
12118,16,Jits_ISO_5,1,5,56,103,2001880372
12118,16,Jits_ISO_5,2,5,63,98,2001911168
12118,16,Jits_ISO_5,3,5,80,127,2001914532
12118,16,Jits_ISO_5,0,5,56,103,2002331332
12118,16,Jits_ISO_5,1,1,48,53,2002353708
12118,16,Jits_ISO_5,2,5,63,98,2002371116
12118,16,Jits_ISO_5,3,5,80,127,2002431276
12118,16,Jits_ISO_5,0,1,48,54,2002850864
12118,16,Jits_ISO_5,1,5,56,103,2002852352
12118,16,Jits_ISO_5,2,5,63,98,2002861500
12118,16,Jits_ISO_5,3,5,80,127,2002920916
12118,16,Jits_ISO_5,0,5,56,103,2003350896
12118,16,Jits_ISO_5,1,5,80,127,2003371356
12118,16,Jits_ISO_5,2,1,48,47,2003388324
12118,16,Jits_ISO_5,3,5,63,98,2003401244
12118,16,Jits_ISO_5,0,5,80,127,2003850644
12118,16,Jits_ISO_5,1,5,56,103,2003860764
12118,16,Jits_ISO_5,2,1,48,48,2003861732
12118,16,Jits_ISO_5,3,5,63,98,2003881368
12118,16,Jits_ISO_5,0,5,63,98,2004341300
12118,16,Jits_ISO_5,1,1,48,43,2004364300
12118,16,Jits_ISO_5,2,5,80,127,2004420964
12118,16,Jits_ISO_5,3,5,56,103,2004431084
12118,16,Jits_ISO_5,0,1,48,41,2004899024
12118,16,Jits_ISO_5,1,5,80,127,2004901436
12118,16,Jits_ISO_5,2,5,56,103,2004920700
12118,16,Jits_ISO_5,3,5,63,98,2004923616
12118,16,Jits_ISO_5,0,5,63,98,2005371100
12118,16,Jits_ISO_5,1,5,80,127,2005374396
12118,16,Jits_ISO_5,2,5,56,103,2005430696
12118,16,Jits_ISO_5,3,1,48,41,2005447588
12118,16,Jits_ISO_5,0,5,56,103,2005850384
12118,16,Jits_ISO_5,1,5,80,127,2005860656
12118,16,Jits_ISO_5,2,5,63,98,2005900616
12118,16,Jits_ISO_5,3,1,48,51,2005926500
12118,16,Jits_ISO_5,0,5,56,103,2006330872
12118,16,Jits_ISO_5,1,5,63,98,2006391336
12118,16,Jits_ISO_5,2,5,80,127,2006401384
12118,16,Jits_ISO_5,3,1,48,43,2006414040
12118,16,Jits_ISO_5,0,5,63,98,2006840664
12118,16,Jits_ISO_5,1,5,80,127,2006880600
12118,16,Jits_ISO_5,2,1,48,53,2006892332
12118,16,Jits_ISO_5,3,5,56,103,2006920628
12118,16,Jits_ISO_5,0,5,56,103,2007341516
12118,16,Jits_ISO_5,1,1,48,50,2007416104
12118,16,Jits_ISO_5,2,5,63,98,2007421452
12118,16,Jits_ISO_5,3,5,80,127,2007424740
12118,16,Jits_ISO_5,0,9999,9999,9999,1948128336
12118,16,Jits_ISO_5,1,9999,9999,9999,1948629100
12118,16,Jits_ISO_5,2,9999,9999,9999,1949128768
12118,16,Jits_ISO_5,3,9999,9999,9999,1949628480
12118,16,Jits_ISO_5,4,9999,9999,9999,1950128220
12118,16,Jits_ISO_5,5,9999,9999,9999,1950628928
12118,16,Jits_ISO_5,6,9999,9999,9999,1951128660
12118,16,Jits_ISO_5,7,9999,9999,9999,1951628408
12118,16,Jits_ISO_5,8,9999,9999,9999,1952128060
12118,16,Jits_ISO_5,9,9999,9999,9999,1952628856
12118,16,Jits_ISO_5,10,9999,9999,9999,1953128528
12118,16,Jits_ISO_5,11,9999,9999,9999,1953628276
12118,16,Jits_ISO_5,12,9999,9999,9999,1954128980
12118,16,Jits_ISO_5,13,9999,9999,9999,1954628708
12118,16,Jits_ISO_5,14,9999,9999,9999,1955128440
12118,16,Jits_ISO_5,15,9999,9999,9999,1955628116
12118,16,Jits_ISO_5,16,9999,9999,9999,1956128836
12118,16,Jits_ISO_5,17,9999,9999,9999,1956628572
12118,16,Jits_ISO_5,18,9999,9999,9999,1957128304
12118,16,Jits_ISO_5,19,9999,9999,9999,1957629024
12118,16,Jits_ISO_5,20,9999,9999,9999,1958128760
12118,16,Jits_ISO_5,21,9999,9999,9999,1958628436
12118,16,Jits_ISO_5,22,9999,9999,9999,1959128180
12118,16,Jits_ISO_5,23,9999,9999,9999,1959628904
12118,16,Jits_ISO_5,24,9999,9999,9999,1960128576
12118,16,Jits_ISO_5,25,9999,9999,9999,1960628320
12118,16,Jits_ISO_5,26,9999,9999,9999,1961129028
12118,16,Jits_ISO_5,27,9999,9999,9999,1961628752
12118,16,Jits_ISO_5,28,9999,9999,9999,1962128504
12118,16,Jits_ISO_5,29,9999,9999,9999,1962628152
12118,16,Jits_ISO_5,30,9999,9999,9999,1963128940
12118,16,Jits_ISO_5,31,9999,9999,9999,1963628612
12118,16,Jits_ISO_5,32,9999,9999,9999,1964128356
12118,16,Jits_ISO_5,33,9999,9999,9999,1964629052
12118,16,Jits_ISO_5,34,9999,9999,9999,1965128804
12118,16,Jits_ISO_5,35,9999,9999,9999,1965628480
12118,16,Jits_ISO_5,36,9999,9999,9999,1966128208
12118,16,Jits_ISO_5,37,9999,9999,9999,1966628916
12118,16,Jits_ISO_5,38,9999,9999,9999,1967128664
12118,16,Jits_ISO_5,39,9999,9999,9999,1967628400
12118,16,Jits_ISO_5,40,9999,9999,9999,1968128060
12118,16,Jits_ISO_5,41,9999,9999,9999,1968628856
12118,16,Jits_ISO_5,42,9999,9999,9999,1969128528
12118,16,Jits_ISO_5,43,9999,9999,9999,1969628256
12118,16,Jits_ISO_5,44,9999,9999,9999,1970128964
12118,16,Jits_ISO_5,45,9999,9999,9999,1970628708
12118,16,Jits_ISO_5,46,9999,9999,9999,1971128440
12118,16,Jits_ISO_5,47,9999,9999,9999,1971628108
12118,16,Jits_ISO_5,48,9999,9999,9999,1972128888
12118,16,Jits_ISO_5,49,9999,9999,9999,1972628548
12118,16,Jits_ISO_5,50,9999,9999,9999,1973128248
12118,16,Jits_ISO_5,51,9999,9999,9999,1973629036
12118,16,Jits_ISO_5,52,9999,9999,9999,1974128696
12118,16,Jits_ISO_5,53,9999,9999,9999,1974628444
12118,16,Jits_ISO_5,54,9999,9999,9999,1975128180
12118,16,Jits_ISO_5,55,9999,9999,9999,1975628904
12118,16,Jits_ISO_5,56,9999,9999,9999,1976128572
12118,16,Jits_ISO_5,57,9999,9999,9999,1976628316
12118,16,Jits_ISO_5,58,9999,9999,9999,1977129036
12118,16,Jits_ISO_5,59,9999,9999,9999,1977628752
12118,16,Jits_ISO_5,60,9999,9999,9999,1978128508
12118,16,Jits_ISO_5,61,9999,9999,9999,1978628160
12118,16,Jits_ISO_5,62,9999,9999,9999,1979128888
12118,16,Jits_ISO_5,63,9999,9999,9999,1979628636
12118,16,Jits_ISO_5,64,9999,9999,9999,1980128368
12118,16,Jits_ISO_5,65,9999,9999,9999,1980629088
12118,16,Jits_ISO_5,66,9999,9999,9999,1981128764
12118,16,Jits_ISO_5,67,9999,9999,9999,1981628488
12118,16,Jits_ISO_5,68,9999,9999,9999,1982128220
12118,16,Jits_ISO_5,69,9999,9999,9999,1982628928
12118,16,Jits_ISO_5,70,9999,9999,9999,1983128652
12118,16,Jits_ISO_5,71,9999,9999,9999,1983628376
12118,16,Jits_ISO_5,72,9999,9999,9999,1984128096
12118,16,Jits_ISO_5,73,9999,9999,9999,1984628796
12118,16,Jits_ISO_5,74,9999,9999,9999,1985128528
12118,16,Jits_ISO_5,75,9999,9999,9999,1985628260
12118,16,Jits_ISO_5,76,9999,9999,9999,1986128968
12118,16,Jits_ISO_5,77,9999,9999,9999,1986628704
12118,16,Jits_ISO_5,78,9999,9999,9999,1987128380
12118,16,Jits_ISO_5,79,9999,9999,9999,1987628128
12118,16,Jits_ISO_5,80,9999,9999,9999,1988128832
12118,16,Jits_ISO_5,81,9999,9999,9999,1988628564
12118,16,Jits_ISO_5,82,9999,9999,9999,1989128316
12118,16,Jits_ISO_5,83,9999,9999,9999,1989629020
12118,16,Jits_ISO_5,84,9999,9999,9999,1990128696
12118,16,Jits_ISO_5,85,9999,9999,9999,1990628432
12118,16,Jits_ISO_5,86,9999,9999,9999,1991128164
12118,16,Jits_ISO_5,87,9999,9999,9999,1991628884
12118,16,Jits_ISO_5,88,9999,9999,9999,1992128616
12118,16,Jits_ISO_5,89,9999,9999,9999,1992628292
12118,16,Jits_ISO_5,90,9999,9999,9999,1993129068
12118,16,Jits_ISO_5,91,9999,9999,9999,1993628740
12118,16,Jits_ISO_5,92,9999,9999,9999,1994128476
12118,16,Jits_ISO_5,93,9999,9999,9999,1994628188
12118,16,Jits_ISO_5,94,9999,9999,9999,1995128884
12118,16,Jits_ISO_5,95,9999,9999,9999,1995628604
12118,16,Jits_ISO_5,96,9999,9999,9999,1996128328
12118,16,Jits_ISO_5,97,9999,9999,9999,1996629084
12118,16,Jits_ISO_5,98,9999,9999,9999,1997128820
12118,16,Jits_ISO_5,99,9999,9999,9999,1997628492
12118,16,Jits_ISO_5,100,9999,9999,9999,1998128224
12118,16,Jits_ISO_5,101,9999,9999,9999,1998628944
12118,16,Jits_ISO_5,102,9999,9999,9999,1999128688
12118,16,Jits_ISO_5,103,9999,9999,9999,1999628364
12118,16,Jits_ISO_5,104,9999,9999,9999,2000128096
12118,16,Jits_ISO_5,105,9999,9999,9999,2000628796
12118,16,Jits_ISO_5,106,9999,9999,9999,2001128532
12118,16,Jits_ISO_5,107,9999,9999,9999,2001628260
12118,16,Jits_ISO_5,108,9999,9999,9999,2002128980
12118,16,Jits_ISO_5,109,9999,9999,9999,2002628712
12118,16,Jits_ISO_5,110,9999,9999,9999,2003128388
12118,16,Jits_ISO_5,111,9999,9999,9999,2003628120
12118,16,Jits_ISO_5,112,9999,9999,9999,2004128840
12118,16,Jits_ISO_5,113,9999,9999,9999,2004628592
12118,16,Jits_ISO_5,114,9999,9999,9999,2005128248
12118,16,Jits_ISO_5,115,9999,9999,9999,2005628996
12118,16,Jits_ISO_5,116,9999,9999,9999,2006128728
12118,16,Jits_ISO_5,117,9999,9999,9999,2006628404
12118,16,Jits_ISO_5,118,9999,9999,9999,2007128152
12118,16,Jits_ISO_5,119,9999,9999,9999,2007628852
12119,7,Jits_ISO_8,0,5,56,103,2017450336
12119,7,Jits_ISO_8,1,5,63,98,2017453360
12119,7,Jits_ISO_8,2,5,80,127,2017456556
12119,7,Jits_ISO_8,0,5,56,103,2018250036
12119,7,Jits_ISO_8,1,5,63,98,2018253132
12119,7,Jits_ISO_8,2,5,80,127,2018256180
12119,7,Jits_ISO_8,3,1,48,38,2018485044
12119,7,Jits_ISO_8,0,5,80,127,2018989296
12119,7,Jits_ISO_8,1,5,63,98,2019079508
12119,7,Jits_ISO_8,2,1,48,43,2019083148
12119,7,Jits_ISO_8,3,5,56,103,2019089992
12119,7,Jits_ISO_8,0,1,48,49,2019791088
12119,7,Jits_ISO_8,1,5,56,103,2019809768
12119,7,Jits_ISO_8,2,5,63,98,2019820036
12119,7,Jits_ISO_8,3,5,80,127,2019909856
12119,7,Jits_ISO_8,0,5,63,98,2020580036
12119,7,Jits_ISO_8,1,1,48,48,2020585552
12119,7,Jits_ISO_8,2,5,80,127,2020610380
12119,7,Jits_ISO_8,3,5,56,103,2020640128
12119,7,Jits_ISO_8,0,1,48,41,2021330108
12119,7,Jits_ISO_8,1,5,56,103,2021379584
12119,7,Jits_ISO_8,2,5,80,127,2021479896
12119,7,Jits_ISO_8,3,5,63,98,2021530044
12119,7,Jits_ISO_8,0,1,48,45,2022136404
12119,7,Jits_ISO_8,1,5,56,103,2022180192
12119,7,Jits_ISO_8,2,5,80,127,2022230400
12119,7,Jits_ISO_8,3,5,63,98,2022270396
12119,7,Jits_ISO_8,0,1,48,42,2022920084
12119,7,Jits_ISO_8,1,5,80,127,2023009796
12119,7,Jits_ISO_8,2,5,63,98,2023040356
12119,7,Jits_ISO_8,3,5,56,103,2023109908
12119,7,Jits_ISO_8,0,1,48,40,2023718672
12119,7,Jits_ISO_8,1,5,63,98,2023840008
12119,7,Jits_ISO_8,2,5,56,103,2023869908
12119,7,Jits_ISO_8,3,5,80,127,2023930220
12119,7,Jits_ISO_8,0,1,48,38,2024574868
12119,7,Jits_ISO_8,1,5,56,103,2024579396
12119,7,Jits_ISO_8,2,5,80,127,2024582760
12119,7,Jits_ISO_8,3,5,63,98,2024700176
12119,7,Jits_ISO_8,0,1,48,42,2025396392
12119,7,Jits_ISO_8,1,5,56,103,2025459960
12119,7,Jits_ISO_8,2,5,80,127,2025500036
12119,7,Jits_ISO_8,3,5,63,98,2025510232
12119,7,Jits_ISO_8,0,1,48,35,2026200312
12119,7,Jits_ISO_8,1,5,56,103,2026220036
12119,7,Jits_ISO_8,2,5,80,127,2026240352
12119,7,Jits_ISO_8,3,5,63,98,2026320276
12119,7,Jits_ISO_8,0,1,48,36,2026939488
12119,7,Jits_ISO_8,1,5,80,127,2027010464
12119,7,Jits_ISO_8,2,5,56,103,2027109724
12119,7,Jits_ISO_8,3,5,63,98,2027119848
12119,7,Jits_ISO_8,0,5,63,98,2027779316
12119,7,Jits_ISO_8,1,1,48,40,2027786172
12119,7,Jits_ISO_8,2,5,80,127,2027839852
12119,7,Jits_ISO_8,3,5,56,103,2027849972
12119,7,Jits_ISO_8,0,5,56,103,2028580292
12119,7,Jits_ISO_8,1,1,48,36,2028586552
12119,7,Jits_ISO_8,2,5,63,98,2028650040
12119,7,Jits_ISO_8,3,5,80,127,2028653256
12119,7,Jits_ISO_8,0,1,48,37,2029390832
12119,7,Jits_ISO_8,1,5,63,98,2029409816
12119,7,Jits_ISO_8,2,5,56,103,2029460044
12119,7,Jits_ISO_8,3,5,80,127,2029463036
12119,7,Jits_ISO_8,0,5,56,103,2030169440
12119,7,Jits_ISO_8,1,5,80,127,2030172804
12119,7,Jits_ISO_8,2,1,48,43,2030193012
12119,7,Jits_ISO_8,3,5,63,98,2030259588
12119,7,Jits_ISO_8,0,1,48,39,2030977364
12119,7,Jits_ISO_8,1,5,63,98,2031010148
12119,7,Jits_ISO_8,2,5,56,103,2031100420
12119,7,Jits_ISO_8,3,5,80,127,2031129944
12119,7,Jits_ISO_8,0,1,48,38,2031786972
12119,7,Jits_ISO_8,1,5,56,103,2031799748
12119,7,Jits_ISO_8,2,5,63,98,2031900136
12119,7,Jits_ISO_8,3,5,80,127,2031929736
12119,7,Jits_ISO_8,0,1,48,52,2032580784
12119,7,Jits_ISO_8,1,5,63,98,2032619992
12119,7,Jits_ISO_8,2,5,56,103,2032630112
12119,7,Jits_ISO_8,3,5,80,127,2032720156
12119,7,Jits_ISO_8,0,1,48,50,2033366324
12119,7,Jits_ISO_8,1,5,63,98,2033440008
12119,7,Jits_ISO_8,2,5,56,103,2033519940
12119,7,Jits_ISO_8,3,5,80,127,2033522932
12119,7,Jits_ISO_8,0,1,48,53,2034180800
12119,7,Jits_ISO_8,1,5,80,127,2034200004
12119,7,Jits_ISO_8,2,5,63,98,2034220316
12119,7,Jits_ISO_8,3,5,56,103,2034279864
12119,7,Jits_ISO_8,0,1,48,52,2035026648
12119,7,Jits_ISO_8,1,5,56,103,2035039868
12119,7,Jits_ISO_8,2,5,63,98,2035060104
12119,7,Jits_ISO_8,3,5,80,127,2035063540
12119,7,Jits_ISO_8,0,5,63,98,2035779864
12119,7,Jits_ISO_8,1,1,48,47,2035788908
12119,7,Jits_ISO_8,2,5,80,127,2035859752
12119,7,Jits_ISO_8,3,5,56,103,2035870172
12119,7,Jits_ISO_8,0,5,63,98,2036600096
12119,7,Jits_ISO_8,1,1,48,44,2036601064
12119,7,Jits_ISO_8,2,5,56,103,2036619604
12119,7,Jits_ISO_8,3,5,80,127,2036669804
12119,7,Jits_ISO_8,0,1,48,45,2037381636
12119,7,Jits_ISO_8,1,5,80,127,2037399896
12119,7,Jits_ISO_8,2,5,63,98,2037439764
12119,7,Jits_ISO_8,3,5,56,103,2037460296
12119,7,Jits_ISO_8,0,1,48,51,2038171108
12119,7,Jits_ISO_8,1,5,56,103,2038239764
12119,7,Jits_ISO_8,2,5,63,98,2038249884
12119,7,Jits_ISO_8,3,5,80,127,2038270332
12119,7,Jits_ISO_8,0,5,56,103,2038969728
12119,7,Jits_ISO_8,1,1,48,45,2038982508
12119,7,Jits_ISO_8,2,5,63,98,2039059780
12119,7,Jits_ISO_8,3,5,80,127,2039120156
12119,7,Jits_ISO_8,0,1,48,57,2039781104
12119,7,Jits_ISO_8,1,5,80,127,2039800160
12119,7,Jits_ISO_8,2,5,56,103,2039810656
12119,7,Jits_ISO_8,3,5,63,98,2039880096
12119,7,Jits_ISO_8,0,1,48,49,2040563732
12119,7,Jits_ISO_8,1,5,63,98,2040629616
12119,7,Jits_ISO_8,2,5,80,127,2040719688
12119,7,Jits_ISO_8,3,5,56,103,2040730032
12119,7,Jits_ISO_8,0,5,63,98,2041369924
12119,7,Jits_ISO_8,1,1,48,58,2041400016
12119,7,Jits_ISO_8,2,5,80,127,2041420120
12119,7,Jits_ISO_8,3,5,56,103,2041479788
12119,7,Jits_ISO_8,0,5,56,103,2042200720
12119,7,Jits_ISO_8,1,1,48,53,2042219356
12119,7,Jits_ISO_8,2,5,80,127,2042249672
12119,7,Jits_ISO_8,3,5,63,98,2042270056
12119,7,Jits_ISO_8,0,5,56,103,2042969504
12119,7,Jits_ISO_8,1,1,48,55,2042999300
12119,7,Jits_ISO_8,2,5,80,127,2043029764
12119,7,Jits_ISO_8,3,5,63,98,2043099580
12119,7,Jits_ISO_8,0,5,56,103,2043770272
12119,7,Jits_ISO_8,1,1,48,48,2043779320
12119,7,Jits_ISO_8,2,5,80,127,2043799892
12119,7,Jits_ISO_8,3,5,63,98,2043829640
12119,7,Jits_ISO_8,0,1,48,48,2044556416
12119,7,Jits_ISO_8,1,5,56,103,2044610016
12119,7,Jits_ISO_8,2,5,80,127,2044630552
12119,7,Jits_ISO_8,3,5,63,98,2044689880
12119,7,Jits_ISO_8,0,1,48,56,2045332680
12119,7,Jits_ISO_8,1,5,80,127,2045489656
12119,7,Jits_ISO_8,2,5,56,103,2045499780
12119,7,Jits_ISO_8,3,5,63,98,2045509976
12119,7,Jits_ISO_8,0,1,48,51,2046128732
12119,7,Jits_ISO_8,1,5,56,103,2046250488
12119,7,Jits_ISO_8,2,5,80,127,2046290428
12119,7,Jits_ISO_8,3,5,63,98,2046319880
12119,7,Jits_ISO_8,0,1,48,37,2046873072
12119,7,Jits_ISO_8,1,5,56,103,2047020760
12119,7,Jits_ISO_8,2,5,63,98,2047050064
12119,7,Jits_ISO_8,3,5,80,127,2047089928
12119,7,Jits_ISO_8,0,1,48,41,2047742616
12119,7,Jits_ISO_8,1,5,80,127,2047769840
12119,7,Jits_ISO_8,2,5,63,98,2047820120
12119,7,Jits_ISO_8,3,5,56,103,2047839532
12119,7,Jits_ISO_8,0,1,48,42,2048503732
12119,7,Jits_ISO_8,1,5,56,103,2048600400
12119,7,Jits_ISO_8,2,5,80,127,2048670184
12119,7,Jits_ISO_8,3,5,63,98,2048729528
12119,7,Jits_ISO_8,0,1,48,53,2049316476
12119,7,Jits_ISO_8,1,5,80,127,2049400348
12119,7,Jits_ISO_8,2,5,63,98,2049490348
12119,7,Jits_ISO_8,3,5,56,103,2049509612
12119,7,Jits_ISO_8,0,1,48,49,2050145560
12119,7,Jits_ISO_8,1,5,63,98,2050220612
12119,7,Jits_ISO_8,2,5,56,103,2050239860
12119,7,Jits_ISO_8,3,5,80,127,2050279800
12119,7,Jits_ISO_8,0,1,48,59,2050978048
12119,7,Jits_ISO_8,1,5,80,127,2050980384
12119,7,Jits_ISO_8,2,5,63,98,2050999796
12119,7,Jits_ISO_8,3,5,56,103,2051079728
12119,7,Jits_ISO_8,0,5,63,98,2051769684
12119,7,Jits_ISO_8,1,1,48,51,2051795272
12119,7,Jits_ISO_8,2,5,56,103,2051880484
12119,7,Jits_ISO_8,3,5,80,127,2051883480
12119,7,Jits_ISO_8,0,5,63,98,2052590056
12119,7,Jits_ISO_8,1,5,56,103,2052600480
12119,7,Jits_ISO_8,2,5,80,127,2052603392
12119,7,Jits_ISO_8,3,1,48,50,2052637844
12119,7,Jits_ISO_8,0,1,48,44,2053355768
12119,7,Jits_ISO_8,1,5,56,103,2053370188
12119,7,Jits_ISO_8,2,5,80,127,2053489980
12119,7,Jits_ISO_8,3,5,63,98,2053529940
12119,7,Jits_ISO_8,0,1,48,47,2054159160
12119,7,Jits_ISO_8,1,5,56,103,2054189528
12119,7,Jits_ISO_8,2,5,80,127,2054270580
12119,7,Jits_ISO_8,3,5,63,98,2054289644
12119,7,Jits_ISO_8,0,1,48,49,2054960444
12119,7,Jits_ISO_8,1,5,56,103,2054990284
12119,7,Jits_ISO_8,2,5,63,98,2055099688
12119,7,Jits_ISO_8,3,5,80,127,2055103052
12119,7,Jits_ISO_8,0,1,48,48,2055760444
12119,7,Jits_ISO_8,1,5,56,103,2055819608
12119,7,Jits_ISO_8,2,5,80,127,2055850480
12119,7,Jits_ISO_8,3,5,63,98,2055869728
12119,7,Jits_ISO_8,0,1,48,40,2056562396
12119,7,Jits_ISO_8,1,5,63,98,2056599836
12119,7,Jits_ISO_8,2,5,56,103,2056610108
12119,7,Jits_ISO_8,3,5,80,127,2056620452
12119,7,Jits_ISO_8,0,1,48,40,2057354700
12119,7,Jits_ISO_8,1,5,80,127,2057389496
12119,7,Jits_ISO_8,2,5,56,103,2057439624
12119,7,Jits_ISO_8,3,5,63,98,2057479548
12119,7,Jits_ISO_8,0,1,48,44,2058115868
12119,7,Jits_ISO_8,1,5,80,127,2058209656
12119,7,Jits_ISO_8,2,5,63,98,2058230400
12119,7,Jits_ISO_8,3,5,56,103,2058280452
12119,7,Jits_ISO_8,0,1,48,37,2058928276
12119,7,Jits_ISO_8,1,5,80,127,2059019628
12119,7,Jits_ISO_8,2,5,56,103,2059050336
12119,7,Jits_ISO_8,3,5,63,98,2059120168
12119,7,Jits_ISO_8,0,1,48,43,2059736364
12119,7,Jits_ISO_8,1,5,56,103,2059869524
12119,7,Jits_ISO_8,2,5,80,127,2059879796
12119,7,Jits_ISO_8,3,5,63,98,2059919756
12119,7,Jits_ISO_8,0,1,48,48,2060571376
12119,7,Jits_ISO_8,1,5,56,103,2060580316
12119,7,Jits_ISO_8,2,5,63,98,2060599656
12119,7,Jits_ISO_8,3,5,80,127,2060670308
12119,7,Jits_ISO_8,0,1,48,46,2061332640
12119,7,Jits_ISO_8,1,5,63,98,2061400400
12119,7,Jits_ISO_8,2,5,80,127,2061459908
12119,7,Jits_ISO_8,3,5,56,103,2061480440
12119,7,Jits_ISO_8,0,1,48,45,2062122088
12119,7,Jits_ISO_8,1,5,80,127,2062189920
12119,7,Jits_ISO_8,2,5,56,103,2062219604
12119,7,Jits_ISO_8,3,5,63,98,2062250328
12119,7,Jits_ISO_8,0,1,48,45,2062896460
12119,7,Jits_ISO_8,1,5,56,103,2062989652
12119,7,Jits_ISO_8,2,5,63,98,2063050400
12119,7,Jits_ISO_8,3,5,80,127,2063109372
12119,7,Jits_ISO_8,0,1,48,34,2063727732
12119,7,Jits_ISO_8,1,5,80,127,2063809964
12119,7,Jits_ISO_8,2,5,56,103,2063830336
12119,7,Jits_ISO_8,3,5,63,98,2063900164
12119,7,Jits_ISO_8,0,1,48,44,2064561476
12119,7,Jits_ISO_8,1,5,80,127,2064609600
12119,7,Jits_ISO_8,2,5,63,98,2064630208
12119,7,Jits_ISO_8,3,5,56,103,2064660620
12119,7,Jits_ISO_8,0,1,48,48,2065348444
12119,7,Jits_ISO_8,1,5,80,127,2065400312
12119,7,Jits_ISO_8,2,5,63,98,2065419652
12119,7,Jits_ISO_8,3,5,56,103,2065480324
12119,7,Jits_ISO_8,0,1,48,60,2066074720
12119,7,Jits_ISO_8,1,5,80,127,2066200004
12119,7,Jits_ISO_8,2,5,56,103,2066300332
12119,7,Jits_ISO_8,3,5,63,98,2066330104
12119,7,Jits_ISO_8,0,1,48,54,2066926196
12119,7,Jits_ISO_8,1,5,63,98,2066989544
12119,7,Jits_ISO_8,2,5,80,127,2067039508
12119,7,Jits_ISO_8,3,5,56,103,2067060264
12119,7,Jits_ISO_8,0,1,48,59,2067691296
12119,7,Jits_ISO_8,1,5,80,127,2067829992
12119,7,Jits_ISO_8,2,5,56,103,2067859840
12119,7,Jits_ISO_8,3,5,63,98,2067862984
12119,7,Jits_ISO_8,0,1,48,64,2068500212
12119,7,Jits_ISO_8,1,5,63,98,2068659464
12119,7,Jits_ISO_8,2,5,56,103,2068699480
12119,7,Jits_ISO_8,3,5,80,127,2068719936
12119,7,Jits_ISO_8,0,1,48,60,2069320084
12119,7,Jits_ISO_8,1,5,80,127,2069400076
12119,7,Jits_ISO_8,2,5,63,98,2069479788
12119,7,Jits_ISO_8,3,5,56,103,2069519724
12119,7,Jits_ISO_8,0,1,48,55,2070144808
12119,7,Jits_ISO_8,1,5,63,98,2070220092
12119,7,Jits_ISO_8,2,5,80,127,2070300244
12119,7,Jits_ISO_8,3,5,56,103,2070319584
12119,7,Jits_ISO_8,0,1,48,50,2070973096
12119,7,Jits_ISO_8,1,5,56,103,2071060036
12119,7,Jits_ISO_8,2,5,63,98,2071070144
12119,7,Jits_ISO_8,3,5,80,127,2071110228
12119,7,Jits_ISO_8,0,1,48,54,2071747796
12119,7,Jits_ISO_8,1,5,56,103,2071779656
12119,7,Jits_ISO_8,2,5,80,127,2071782796
12119,7,Jits_ISO_8,3,5,63,98,2071920116
12119,7,Jits_ISO_8,0,1,48,50,2072503432
12119,7,Jits_ISO_8,1,5,56,103,2072570212
12119,7,Jits_ISO_8,2,5,63,98,2072660260
12119,7,Jits_ISO_8,3,5,80,127,2072730188
12119,7,Jits_ISO_8,0,1,48,49,2073271748
12119,7,Jits_ISO_8,1,5,63,98,2073449776
12119,7,Jits_ISO_8,2,5,80,127,2073453292
12119,7,Jits_ISO_8,3,5,56,103,2073510196
12119,7,Jits_ISO_8,0,1,48,49,2074091612
12119,7,Jits_ISO_8,1,5,80,127,2074289444
12119,7,Jits_ISO_8,2,5,56,103,2074310200
12119,7,Jits_ISO_8,3,5,63,98,2074320176
12119,7,Jits_ISO_8,0,1,48,50,2074888704
12119,7,Jits_ISO_8,1,5,56,103,2075000124
12119,7,Jits_ISO_8,2,5,63,98,2075010396
12119,7,Jits_ISO_8,3,5,80,127,2075080000
12119,7,Jits_ISO_8,0,1,48,51,2075715648
12119,7,Jits_ISO_8,1,5,80,127,2075799992
12119,7,Jits_ISO_8,2,5,56,103,2075850184
12119,7,Jits_ISO_8,3,5,63,98,2075900160
12119,7,Jits_ISO_8,0,1,48,43,2076532072
12119,7,Jits_ISO_8,1,5,56,103,2076679560
12119,7,Jits_ISO_8,2,5,63,98,2076690052
12119,7,Jits_ISO_8,3,5,80,127,2076729692
12119,7,Jits_ISO_8,0,1,48,43,2077366496
12119,7,Jits_ISO_8,1,5,56,103,2077419948
12119,7,Jits_ISO_8,2,5,63,98,2077459952
12119,7,Jits_ISO_8,3,5,80,127,2077510152
12119,7,Jits_ISO_8,0,5,80,127,2078179660
12119,7,Jits_ISO_8,1,1,48,46,2078189604
12119,7,Jits_ISO_8,2,5,56,103,2078230004
12119,7,Jits_ISO_8,3,5,63,98,2078250316
12119,7,Jits_ISO_8,0,1,48,51,2078919712
12119,7,Jits_ISO_8,1,5,80,127,2078989636
12119,7,Jits_ISO_8,2,5,63,98,2079050088
12119,7,Jits_ISO_8,3,5,56,103,2079130132
12119,7,Jits_ISO_8,0,1,48,50,2079713572
12119,7,Jits_ISO_8,1,5,80,127,2079770088
12119,7,Jits_ISO_8,2,5,56,103,2079810104
12119,7,Jits_ISO_8,3,5,63,98,2079830252
12119,7,Jits_ISO_8,0,1,48,52,2080492144
12119,7,Jits_ISO_8,1,5,56,103,2080619976
12119,7,Jits_ISO_8,2,5,80,127,2080630248
12119,7,Jits_ISO_8,3,5,63,98,2080670212
12119,7,Jits_ISO_8,0,1,48,51,2081275140
12119,7,Jits_ISO_8,1,5,56,103,2081490140
12119,7,Jits_ISO_8,2,5,63,98,2081530300
12119,7,Jits_ISO_8,3,5,80,127,2081533740
12119,7,Jits_ISO_8,0,1,48,46,2082129852
12119,7,Jits_ISO_8,1,5,63,98,2082179404
12119,7,Jits_ISO_8,2,5,80,127,2082220416
12119,7,Jits_ISO_8,3,5,56,103,2082290004
12119,7,Jits_ISO_8,0,5,63,98,2082970072
12119,7,Jits_ISO_8,1,1,48,51,2082971040
12119,7,Jits_ISO_8,2,5,56,103,2083049792
12119,7,Jits_ISO_8,3,5,80,127,2083110388
12119,7,Jits_ISO_8,0,1,48,47,2083744640
12119,7,Jits_ISO_8,1,5,80,127,2083779816
12119,7,Jits_ISO_8,2,5,63,98,2083830092
12119,7,Jits_ISO_8,3,5,56,103,2083859976
12119,7,Jits_ISO_8,0,1,48,47,2084555660
12119,7,Jits_ISO_8,1,5,56,103,2084569556
12119,7,Jits_ISO_8,2,5,63,98,2084619760
12119,7,Jits_ISO_8,3,5,80,127,2084630028
12119,7,Jits_ISO_8,0,5,56,103,2085379380
12119,7,Jits_ISO_8,1,1,48,41,2085388724
12119,7,Jits_ISO_8,2,5,63,98,2085489948
12119,7,Jits_ISO_8,3,5,80,127,2085509384
12119,7,Jits_ISO_8,0,5,63,98,2086180224
12119,7,Jits_ISO_8,1,1,48,54,2086225816
12119,7,Jits_ISO_8,2,5,80,127,2086230424
12119,7,Jits_ISO_8,3,5,56,103,2086319444
12119,7,Jits_ISO_8,0,1,48,48,2086965060
12119,7,Jits_ISO_8,1,5,63,98,2086969812
12119,7,Jits_ISO_8,2,5,80,127,2087000612
12119,7,Jits_ISO_8,3,5,56,103,2087089704
12119,7,Jits_ISO_8,0,1,48,52,2087759824
12119,7,Jits_ISO_8,1,5,63,98,2087769812
12119,7,Jits_ISO_8,2,5,56,103,2087780008
12119,7,Jits_ISO_8,3,5,80,127,2087879968
12119,7,Jits_ISO_8,0,1,48,53,2088548744
12119,7,Jits_ISO_8,1,5,63,98,2088669776
12119,7,Jits_ISO_8,2,5,80,127,2088700124
12119,7,Jits_ISO_8,3,5,56,103,2088730024
12119,7,Jits_ISO_8,0,1,48,45,2089376120
12119,7,Jits_ISO_8,1,5,80,127,2089489652
12119,7,Jits_ISO_8,2,5,63,98,2089499996
12119,7,Jits_ISO_8,3,5,56,103,2089529892
12119,7,Jits_ISO_8,0,5,80,127,2090190184
12119,7,Jits_ISO_8,1,1,48,46,2090194872
12119,7,Jits_ISO_8,2,5,63,98,2090209964
12119,7,Jits_ISO_8,3,5,56,103,2090259792
12119,7,Jits_ISO_8,0,1,48,43,2090984924
12119,7,Jits_ISO_8,1,5,63,98,2091019868
12119,7,Jits_ISO_8,2,5,80,127,2091079948
12119,7,Jits_ISO_8,3,5,56,103,2091099656
12119,7,Jits_ISO_8,0,1,48,48,2091713456
12119,7,Jits_ISO_8,1,5,63,98,2091779792
12119,7,Jits_ISO_8,2,5,56,103,2091829984
12119,7,Jits_ISO_8,3,5,80,127,2091839956
12119,7,Jits_ISO_8,0,1,48,46,2092498044
12119,7,Jits_ISO_8,1,5,56,103,2092609760
12119,7,Jits_ISO_8,2,5,80,127,2092620328
12119,7,Jits_ISO_8,3,5,63,98,2092719700
12119,7,Jits_ISO_8,0,1,48,40,2093368876
12119,7,Jits_ISO_8,1,5,80,127,2093370364
12119,7,Jits_ISO_8,2,5,63,98,2093379968
12119,7,Jits_ISO_8,3,5,56,103,2093529668
12119,7,Jits_ISO_8,0,1,48,45,2094137840
12119,7,Jits_ISO_8,1,5,63,98,2094179668
12119,7,Jits_ISO_8,2,5,80,127,2094219780
12119,7,Jits_ISO_8,3,5,56,103,2094299636
12119,7,Jits_ISO_8,0,5,56,103,2094970312
12119,7,Jits_ISO_8,1,1,48,42,2094971800
12119,7,Jits_ISO_8,2,5,80,127,2095069672
12119,7,Jits_ISO_8,3,5,63,98,2095089908
12119,7,Jits_ISO_8,0,1,48,43,2095762616
12119,7,Jits_ISO_8,1,5,80,127,2095830372
12119,7,Jits_ISO_8,2,5,56,103,2095839820
12119,7,Jits_ISO_8,3,5,63,98,2095929640
12119,7,Jits_ISO_8,0,1,48,49,2096597680
12119,7,Jits_ISO_8,1,5,56,103,2096630236
12119,7,Jits_ISO_8,2,5,63,98,2096649796
12119,7,Jits_ISO_8,3,5,80,127,2096729648
12119,7,Jits_ISO_8,0,5,63,98,2097379680
12119,7,Jits_ISO_8,1,1,48,47,2097432100
12119,7,Jits_ISO_8,2,5,56,103,2097469884
12119,7,Jits_ISO_8,3,5,80,127,2097473024
12119,7,Jits_ISO_8,0,5,56,103,2098210096
12119,7,Jits_ISO_8,1,5,80,127,2098269516
12119,7,Jits_ISO_8,2,1,48,40,2098274728
12119,7,Jits_ISO_8,3,5,63,98,2098279928
12119,7,Jits_ISO_8,0,1,48,50,2099018032
12119,7,Jits_ISO_8,1,5,80,127,2099059936
12119,7,Jits_ISO_8,2,5,56,103,2099070196
12119,7,Jits_ISO_8,3,5,63,98,2099073568
12119,7,Jits_ISO_8,0,1,48,47,2099816496
12119,7,Jits_ISO_8,1,5,56,103,2099819824
12119,7,Jits_ISO_8,2,5,80,127,2099830168
12119,7,Jits_ISO_8,3,5,63,98,2099849828
12119,7,Jits_ISO_8,0,5,63,98,2100589864
12119,7,Jits_ISO_8,1,1,48,51,2100592100
12119,7,Jits_ISO_8,2,5,80,127,2100650496
12119,7,Jits_ISO_8,3,5,56,103,2100699636
12119,7,Jits_ISO_8,0,1,48,54,2101394804
12119,7,Jits_ISO_8,1,5,63,98,2101469756
12119,7,Jits_ISO_8,2,5,56,103,2101479804
12119,7,Jits_ISO_8,3,5,80,127,2101530064
12119,7,Jits_ISO_8,0,5,63,98,2102170052
12119,7,Jits_ISO_8,1,5,80,127,2102189392
12119,7,Jits_ISO_8,2,5,56,103,2102199736
12119,7,Jits_ISO_8,3,1,48,50,2102271032
12119,7,Jits_ISO_8,0,5,63,98,2102969748
12119,7,Jits_ISO_8,1,5,80,127,2102972888
12119,7,Jits_ISO_8,2,5,56,103,2103009536
12119,7,Jits_ISO_8,3,1,48,47,2103023144
12119,7,Jits_ISO_8,0,1,48,46,2103770904
12119,7,Jits_ISO_8,1,5,63,98,2103840156
12119,7,Jits_ISO_8,2,5,80,127,2103869820
12119,7,Jits_ISO_8,3,5,56,103,2103880164
12119,7,Jits_ISO_8,0,5,56,103,2104589676
12119,7,Jits_ISO_8,1,1,48,40,2104608532
12119,7,Jits_ISO_8,2,5,80,127,2104620468
12119,7,Jits_ISO_8,3,5,63,98,2104650068
12119,7,Jits_ISO_8,0,1,48,48,2105391236
12119,7,Jits_ISO_8,1,5,63,98,2105490844
12119,7,Jits_ISO_8,2,5,56,103,2105529656
12119,7,Jits_ISO_8,3,5,80,127,2105532800
12119,7,Jits_ISO_8,0,5,80,127,2106190148
12119,7,Jits_ISO_8,1,1,48,47,2106209608
12119,7,Jits_ISO_8,2,5,56,103,2106270112
12119,7,Jits_ISO_8,3,5,63,98,2106320524
12119,7,Jits_ISO_8,0,5,80,127,2106969496
12119,7,Jits_ISO_8,1,5,56,103,2106989880
12119,7,Jits_ISO_8,2,1,48,42,2107037144
12119,7,Jits_ISO_8,3,5,63,98,2107080032
12119,7,Jits_ISO_8,0,5,80,127,2107810368
12119,7,Jits_ISO_8,1,1,48,43,2107820760
12119,7,Jits_ISO_8,2,5,63,98,2107850304
12119,7,Jits_ISO_8,3,5,56,103,2107890388
12119,7,Jits_ISO_8,0,5,63,98,2108580496
12119,7,Jits_ISO_8,1,5,80,127,2108639548
12119,7,Jits_ISO_8,2,1,48,50,2108654948
12119,7,Jits_ISO_8,3,5,56,103,2108670264
12119,7,Jits_ISO_8,0,5,56,103,2109379980
12119,7,Jits_ISO_8,1,5,80,127,2109409660
12119,7,Jits_ISO_8,2,1,48,44,2109435620
12119,7,Jits_ISO_8,3,5,63,98,2109499712
12119,7,Jits_ISO_8,0,5,56,103,2110189820
12119,7,Jits_ISO_8,1,1,48,48,2110224324
12119,7,Jits_ISO_8,2,5,80,127,2110299580
12119,7,Jits_ISO_8,3,5,63,98,2110330508
12119,7,Jits_ISO_8,0,1,48,48,2110986808
12119,7,Jits_ISO_8,1,5,56,103,2111039892
12119,7,Jits_ISO_8,2,5,63,98,2111100416
12119,7,Jits_ISO_8,3,5,80,127,2111129820
12119,7,Jits_ISO_8,0,5,56,103,2111810016
12119,7,Jits_ISO_8,1,1,48,42,2111813060
12119,7,Jits_ISO_8,2,5,63,98,2111879644
12119,7,Jits_ISO_8,3,5,80,127,2111899952
12119,7,Jits_ISO_8,0,1,48,49,2112550892
12119,7,Jits_ISO_8,1,5,80,127,2112580064
12119,7,Jits_ISO_8,2,5,63,98,2112600376
12119,7,Jits_ISO_8,3,5,56,103,2112649540
12119,7,Jits_ISO_8,0,9999,9999,9999,2017847380
12119,7,Jits_ISO_8,1,9999,9999,9999,2018647132
12119,7,Jits_ISO_8,2,9999,9999,9999,2019447904
12119,7,Jits_ISO_8,3,9999,9999,9999,2020247656
12119,7,Jits_ISO_8,4,9999,9999,9999,2021047360
12119,7,Jits_ISO_8,5,9999,9999,9999,2021847144
12119,7,Jits_ISO_8,6,9999,9999,9999,2022647900
12119,7,Jits_ISO_8,7,9999,9999,9999,2023447608
12119,7,Jits_ISO_8,8,9999,9999,9999,2024247396
12119,7,Jits_ISO_8,9,9999,9999,9999,2025047092
12119,7,Jits_ISO_8,10,9999,9999,9999,2025847928
12119,7,Jits_ISO_8,11,9999,9999,9999,2026647668
12119,7,Jits_ISO_8,12,9999,9999,9999,2027447384
12119,7,Jits_ISO_8,13,9999,9999,9999,2028247092
12119,7,Jits_ISO_8,14,9999,9999,9999,2029047908
12119,7,Jits_ISO_8,15,9999,9999,9999,2029847624
12119,7,Jits_ISO_8,16,9999,9999,9999,2030647392
12119,7,Jits_ISO_8,17,9999,9999,9999,2031447120
12119,7,Jits_ISO_8,18,9999,9999,9999,2032247880
12119,7,Jits_ISO_8,19,9999,9999,9999,2033047620
12119,7,Jits_ISO_8,20,9999,9999,9999,2033847400
12119,7,Jits_ISO_8,21,9999,9999,9999,2034647108
12119,7,Jits_ISO_8,22,9999,9999,9999,2035447928
12119,7,Jits_ISO_8,23,9999,9999,9999,2036247636
12119,7,Jits_ISO_8,24,9999,9999,9999,2037047416
12119,7,Jits_ISO_8,25,9999,9999,9999,2037847124
12119,7,Jits_ISO_8,26,9999,9999,9999,2038647884
12119,7,Jits_ISO_8,27,9999,9999,9999,2039447616
12119,7,Jits_ISO_8,28,9999,9999,9999,2040247416
12119,7,Jits_ISO_8,29,9999,9999,9999,2041047132
12119,7,Jits_ISO_8,30,9999,9999,9999,2041847884
12119,7,Jits_ISO_8,31,9999,9999,9999,2042647668
12119,7,Jits_ISO_8,32,9999,9999,9999,2043447392
12119,7,Jits_ISO_8,33,9999,9999,9999,2044247108
12119,7,Jits_ISO_8,34,9999,9999,9999,2045047880
12119,7,Jits_ISO_8,35,9999,9999,9999,2045847624
12119,7,Jits_ISO_8,36,9999,9999,9999,2046647416
12119,7,Jits_ISO_8,37,9999,9999,9999,2047447128
12119,7,Jits_ISO_8,38,9999,9999,9999,2048247884
12119,7,Jits_ISO_8,39,9999,9999,9999,2049047676
12119,7,Jits_ISO_8,40,9999,9999,9999,2049847384
12119,7,Jits_ISO_8,41,9999,9999,9999,2050647092
12119,7,Jits_ISO_8,42,9999,9999,9999,2051447916
12119,7,Jits_ISO_8,43,9999,9999,9999,2052247636
12119,7,Jits_ISO_8,44,9999,9999,9999,2053047404
12119,7,Jits_ISO_8,45,9999,9999,9999,2053847116
12119,7,Jits_ISO_8,46,9999,9999,9999,2054647868
12119,7,Jits_ISO_8,47,9999,9999,9999,2055447648
12119,7,Jits_ISO_8,48,9999,9999,9999,2056247356
12119,7,Jits_ISO_8,49,9999,9999,9999,2057047136
12119,7,Jits_ISO_8,50,9999,9999,9999,2057847888
12119,7,Jits_ISO_8,51,9999,9999,9999,2058647620
12119,7,Jits_ISO_8,52,9999,9999,9999,2059447404
12119,7,Jits_ISO_8,53,9999,9999,9999,2060247120
12119,7,Jits_ISO_8,54,9999,9999,9999,2061047872
12119,7,Jits_ISO_8,55,9999,9999,9999,2061847656
12119,7,Jits_ISO_8,56,9999,9999,9999,2062647360
12119,7,Jits_ISO_8,57,9999,9999,9999,2063447148
12119,7,Jits_ISO_8,58,9999,9999,9999,2064247900
12119,7,Jits_ISO_8,59,9999,9999,9999,2065047636
12119,7,Jits_ISO_8,60,9999,9999,9999,2065847416
12119,7,Jits_ISO_8,61,9999,9999,9999,2066647132
12119,7,Jits_ISO_8,62,9999,9999,9999,2067447880
12119,7,Jits_ISO_8,63,9999,9999,9999,2068247660
12119,7,Jits_ISO_8,64,9999,9999,9999,2069047376
12119,7,Jits_ISO_8,65,9999,9999,9999,2069847160
12119,7,Jits_ISO_8,66,9999,9999,9999,2070647920
12119,7,Jits_ISO_8,67,9999,9999,9999,2071447656
12119,7,Jits_ISO_8,68,9999,9999,9999,2072247356
12119,7,Jits_ISO_8,69,9999,9999,9999,2073047140
12119,7,Jits_ISO_8,70,9999,9999,9999,2073847892
12119,7,Jits_ISO_8,71,9999,9999,9999,2074647612
12119,7,Jits_ISO_8,72,9999,9999,9999,2075447368
12119,7,Jits_ISO_8,73,9999,9999,9999,2076247152
12119,7,Jits_ISO_8,74,9999,9999,9999,2077047916
12119,7,Jits_ISO_8,75,9999,9999,9999,2077847652
12119,7,Jits_ISO_8,76,9999,9999,9999,2078647356
12119,7,Jits_ISO_8,77,9999,9999,9999,2079447156
12119,7,Jits_ISO_8,78,9999,9999,9999,2080247908
12119,7,Jits_ISO_8,79,9999,9999,9999,2081047616
12119,7,Jits_ISO_8,80,9999,9999,9999,2081847400
12119,7,Jits_ISO_8,81,9999,9999,9999,2082647108
12119,7,Jits_ISO_8,82,9999,9999,9999,2083447864
12119,7,Jits_ISO_8,83,9999,9999,9999,2084247668
12119,7,Jits_ISO_8,84,9999,9999,9999,2085047372
12119,7,Jits_ISO_8,85,9999,9999,9999,2085847156
12119,7,Jits_ISO_8,86,9999,9999,9999,2086647924
12119,7,Jits_ISO_8,87,9999,9999,9999,2087447628
12119,7,Jits_ISO_8,88,9999,9999,9999,2088247408
12119,7,Jits_ISO_8,89,9999,9999,9999,2089047128
12119,7,Jits_ISO_8,90,9999,9999,9999,2089847892
12119,7,Jits_ISO_8,91,9999,9999,9999,2090647620
12119,7,Jits_ISO_8,92,9999,9999,9999,2091447348
12119,7,Jits_ISO_8,93,9999,9999,9999,2092247128
12119,7,Jits_ISO_8,94,9999,9999,9999,2093047888
12119,7,Jits_ISO_8,95,9999,9999,9999,2093847668
12119,7,Jits_ISO_8,96,9999,9999,9999,2094647376
12119,7,Jits_ISO_8,97,9999,9999,9999,2095447160
12119,7,Jits_ISO_8,98,9999,9999,9999,2096247860
12119,7,Jits_ISO_8,99,9999,9999,9999,2097047672
12119,7,Jits_ISO_8,100,9999,9999,9999,2097847372
12119,7,Jits_ISO_8,101,9999,9999,9999,2098647156
12119,7,Jits_ISO_8,102,9999,9999,9999,2099447888
12119,7,Jits_ISO_8,103,9999,9999,9999,2100247668
12119,7,Jits_ISO_8,104,9999,9999,9999,2101047376
12119,7,Jits_ISO_8,105,9999,9999,9999,2101847092
12119,7,Jits_ISO_8,106,9999,9999,9999,2102647908
12119,7,Jits_ISO_8,107,9999,9999,9999,2103447620
12119,7,Jits_ISO_8,108,9999,9999,9999,2104247404
12119,7,Jits_ISO_8,109,9999,9999,9999,2105047112
12119,7,Jits_ISO_8,110,9999,9999,9999,2105847880
12119,7,Jits_ISO_8,111,9999,9999,9999,2106647664
12119,7,Jits_ISO_8,112,9999,9999,9999,2107447380
12119,7,Jits_ISO_8,113,9999,9999,9999,2108247108
12119,7,Jits_ISO_8,114,9999,9999,9999,2109047876
12119,7,Jits_ISO_8,115,9999,9999,9999,2109847608
12119,7,Jits_ISO_8,116,9999,9999,9999,2110647412
12119,7,Jits_ISO_8,117,9999,9999,9999,2111447144
12119,7,Jits_ISO_8,118,9999,9999,9999,2112247900
12119,7,Jits_ISO_8,119,9999,9999,9999,2113047616
12120,5,ISIP_5,0,5,42,127,2187236712
12120,5,ISIP_5,1,5,42,127,2187736352
12120,5,ISIP_5,2,1,48,16,2187914824
12120,5,ISIP_5,3,5,42,127,2188237096
12120,5,ISIP_5,4,1,48,21,2188398188
12120,5,ISIP_5,5,5,42,127,2188737012
12120,5,ISIP_5,6,1,48,23,2188831460
12120,5,ISIP_5,7,5,42,127,2189236560
12120,5,ISIP_5,8,1,48,30,2189271616
12120,5,ISIP_5,9,5,42,127,2189737448
12120,5,ISIP_5,10,1,48,29,2189740048
12120,5,ISIP_5,11,5,42,127,2190237144
12120,5,ISIP_5,12,1,48,29,2190238188
12120,5,ISIP_5,13,5,42,127,2190736768
12120,5,ISIP_5,14,1,48,30,2190743548
12120,5,ISIP_5,15,5,42,127,2191236536
12120,5,ISIP_5,16,1,48,27,2191242352
12120,5,ISIP_5,17,1,48,27,2191726816
12120,5,ISIP_5,18,5,42,127,2191737172
12120,5,ISIP_5,19,5,42,127,2192236948
12120,5,ISIP_5,20,1,48,23,2192243136
12120,5,ISIP_5,21,1,48,31,2192729044
12120,5,ISIP_5,22,5,42,127,2192736488
12120,5,ISIP_5,23,1,48,28,2193223884
12120,5,ISIP_5,24,5,42,127,2193237304
12120,5,ISIP_5,25,5,42,127,2193737004
12120,5,ISIP_5,26,1,48,33,2193737972
12120,5,ISIP_5,27,5,42,127,2194236924
12120,5,ISIP_5,28,1,48,34,2194242736
12120,5,ISIP_5,29,5,42,127,2194736396
12120,5,ISIP_5,30,1,48,35,2194741008
12120,5,ISIP_5,31,1,48,34,2195224300
12120,5,ISIP_5,32,5,42,127,2195237200
12120,5,ISIP_5,33,1,48,32,2195707688
12120,5,ISIP_5,34,5,42,127,2195736972
12120,5,ISIP_5,35,1,48,31,2196190260
12120,5,ISIP_5,36,5,42,127,2196236740
12120,5,ISIP_5,37,1,48,39,2196699528
12120,5,ISIP_5,38,5,42,127,2196737408
12120,5,ISIP_5,39,1,48,44,2197236280
12120,5,ISIP_5,40,5,42,127,2197237928
12120,5,ISIP_5,41,5,42,127,2197737028
12120,5,ISIP_5,42,1,48,41,2197759148
12120,5,ISIP_5,43,1,48,41,2198235368
12120,5,ISIP_5,44,5,42,127,2198237012
12120,5,ISIP_5,45,1,48,39,2198718052
12120,5,ISIP_5,46,5,42,127,2198737308
12120,5,ISIP_5,47,1,48,40,2199208176
12120,5,ISIP_5,48,5,42,127,2199237076
12120,5,ISIP_5,49,1,48,37,2199721184
12120,5,ISIP_5,50,5,42,127,2199736920
12120,5,ISIP_5,51,1,48,38,2200204648
12120,5,ISIP_5,52,5,42,127,2200237292
12120,5,ISIP_5,53,1,48,37,2200709500
12120,5,ISIP_5,54,5,42,127,2200737208
12120,5,ISIP_5,55,1,48,39,2201204084
12120,5,ISIP_5,56,5,42,127,2201236980
12120,5,ISIP_5,57,1,48,41,2201712228
12120,5,ISIP_5,58,5,42,127,2201736524
12120,5,ISIP_5,59,1,48,43,2202206612
12120,5,ISIP_5,60,5,42,127,2202237164
12120,5,ISIP_5,61,1,48,40,2202717532
12120,5,ISIP_5,62,5,42,127,2202736936
12120,5,ISIP_5,63,1,48,45,2203230012
12120,5,ISIP_5,64,5,42,127,2203237004
12120,5,ISIP_5,65,1,48,40,2203707192
12120,5,ISIP_5,66,5,42,127,2203736400
12120,5,ISIP_5,67,1,48,43,2204176600
12120,5,ISIP_5,68,5,42,127,2204237140
12120,5,ISIP_5,69,1,48,40,2204722220
12120,5,ISIP_5,70,5,42,127,2204736912
12120,5,ISIP_5,71,1,48,38,2205227076
12120,5,ISIP_5,72,5,42,127,2205236756
12120,5,ISIP_5,73,1,48,37,2205706500
12120,5,ISIP_5,74,5,42,127,2205737200
12120,5,ISIP_5,75,1,48,37,2206212848
12120,5,ISIP_5,76,5,42,127,2206237116
12120,5,ISIP_5,77,1,48,39,2206708956
12120,5,ISIP_5,78,5,42,127,2206736888
12120,5,ISIP_5,79,1,48,42,2207199972
12120,5,ISIP_5,80,1,48,38,2207740144
12120,5,ISIP_5,81,1,48,38,2208229572
12120,5,ISIP_5,82,1,48,37,2208740500
12120,5,ISIP_5,83,1,48,42,2209212500
12120,5,ISIP_5,84,1,48,42,2209700444
12120,5,ISIP_5,85,1,48,36,2210225268
12120,5,ISIP_5,86,1,48,34,2210742996
12120,5,ISIP_5,87,1,48,35,2211230556
12120,5,ISIP_5,88,1,48,40,2211731896
12120,5,ISIP_5,89,1,48,33,2212243268
12120,5,ISIP_5,90,1,48,34,2212749992
12120,5,ISIP_5,91,1,48,42,2213251404
12120,5,ISIP_5,92,1,48,37,2213756080
12120,5,ISIP_5,93,1,48,40,2214266316
12120,5,ISIP_5,94,1,48,38,2214787724
12120,5,ISIP_5,95,1,48,41,2215283568
12120,5,ISIP_5,96,1,48,39,2215782212
12120,5,ISIP_5,97,1,48,34,2216290436
12120,5,ISIP_5,98,1,48,36,2216788476
12120,5,ISIP_5,99,1,48,41,2217282332
12120,5,ISIP_5,100,1,48,40,2217784792
12120,5,ISIP_5,101,1,48,41,2218300488
12120,5,ISIP_5,102,1,48,38,2218807056
12120,5,ISIP_5,103,1,48,39,2219320588
12120,5,ISIP_5,104,1,48,34,2219824616
12120,5,ISIP_5,105,1,48,35,2220332084
12120,5,ISIP_5,106,1,48,39,2220848232
12120,5,ISIP_5,107,1,48,40,2221347692
12120,5,ISIP_5,108,1,48,35,2221838856
12120,5,ISIP_5,109,1,48,38,2222339668
12120,5,ISIP_5,110,1,48,38,2222853944
12120,5,ISIP_5,111,1,48,33,2223347200
12120,5,ISIP_5,112,1,48,34,2223862228
12120,5,ISIP_5,113,1,48,34,2224355256
12120,5,ISIP_5,114,1,48,38,2224850240
12120,5,ISIP_5,115,1,48,37,2225336392
12120,5,ISIP_5,116,1,48,38,2225834288
12120,5,ISIP_5,117,1,48,40,2226355368
12120,5,ISIP_5,118,1,48,43,2226870840
12120,5,ISIP_5,119,1,48,36,2227356544
12120,5,ISIP_5,120,1,48,32,2227851820
12120,5,ISIP_5,121,1,48,37,2228346548
12120,5,ISIP_5,122,1,48,43,2228831656
12120,5,ISIP_5,123,1,48,38,2229323044
12120,5,ISIP_5,124,1,48,45,2229805828
12120,5,ISIP_5,125,1,48,41,2230304620
12120,5,ISIP_5,126,1,48,38,2230809548
12120,5,ISIP_5,127,1,48,41,2231307372
12120,5,ISIP_5,128,1,48,38,2231801156
12120,5,ISIP_5,129,1,48,34,2232288800
12120,5,ISIP_5,130,1,48,36,2232792604
12120,5,ISIP_5,131,1,48,36,2233268808
12120,5,ISIP_5,132,1,48,34,2233792060
12120,5,ISIP_5,133,1,48,35,2234300052
12120,5,ISIP_5,134,1,48,37,2234842900
12120,5,ISIP_5,135,1,48,40,2235333016
12120,5,ISIP_5,136,1,48,31,2235825604
12120,5,ISIP_5,137,1,48,41,2236307944
12120,5,ISIP_5,138,1,48,38,2236806584
12120,5,ISIP_5,139,1,48,35,2237301764
12120,5,ISIP_5,140,1,48,39,2237789932
12120,5,ISIP_5,141,1,48,40,2238268532
12120,5,ISIP_5,142,1,48,42,2238748324
12120,5,ISIP_5,143,1,48,43,2239239560
12120,5,ISIP_5,144,1,48,34,2239747408
12120,5,ISIP_5,145,1,48,36,2240245448
12120,5,ISIP_5,146,1,48,38,2240711316
12120,5,ISIP_5,147,1,48,34,2241198444
12120,5,ISIP_5,148,1,48,33,2241679280
12120,5,ISIP_5,149,1,48,38,2242184588
12120,5,ISIP_5,150,1,48,34,2242662256
12120,5,ISIP_5,151,1,48,40,2243148264
12120,5,ISIP_5,152,1,48,39,2243641376
12120,5,ISIP_5,153,1,48,35,2244129096
12120,5,ISIP_5,154,1,48,30,2244614800
12120,5,ISIP_5,155,1,48,34,2245094520
12120,5,ISIP_5,156,1,48,36,2245592036
12120,5,ISIP_5,157,1,48,36,2246093224
12120,5,ISIP_5,158,1,48,36,2246588804
12120,5,ISIP_5,159,1,48,38,2247099112
12120,5,ISIP_5,160,1,48,33,2247612192
12120,5,ISIP_5,161,1,48,33,2248096620
12120,5,ISIP_5,162,1,48,33,2248578216
12120,5,ISIP_5,163,1,48,37,2249073844
12120,5,ISIP_5,164,1,48,36,2249584076
12120,5,ISIP_5,165,1,48,41,2250092820
12120,5,ISIP_5,166,1,48,38,2250593932
12120,5,ISIP_5,167,1,48,38,2251107080
12120,5,ISIP_5,168,1,48,33,2251601168
12120,5,ISIP_5,169,1,48,30,2252086344
12120,5,ISIP_5,170,1,48,35,2252589252
12120,5,ISIP_5,171,1,48,36,2253073684
12120,5,ISIP_5,172,1,48,42,2253561552
12120,5,ISIP_5,173,1,48,34,2254076652
12120,5,ISIP_5,174,1,48,39,2254601332
12120,5,ISIP_5,175,1,48,40,2255105728
12120,5,ISIP_5,176,1,48,35,2255600632
12120,5,ISIP_5,177,1,48,39,2256078556
12120,5,ISIP_5,178,1,48,39,2256596500
12120,5,ISIP_5,179,1,48,37,2257075248
12120,5,ISIP_5,180,1,48,35,2257583612
12120,5,ISIP_5,181,1,48,43,2258051888
12120,5,ISIP_5,182,1,48,40,2258555468
12120,5,ISIP_5,183,1,48,34,2259054612
12120,5,ISIP_5,184,1,48,38,2259574644
12120,5,ISIP_5,185,1,48,40,2260065584
12120,5,ISIP_5,186,1,48,40,2260568716
12120,5,ISIP_5,187,1,48,40,2261077012
12120,5,ISIP_5,188,1,48,34,2261566148
12120,5,ISIP_5,189,1,48,38,2262048116
12120,5,ISIP_5,190,1,48,38,2262545184
12120,5,ISIP_5,191,1,48,36,2263056548
12120,5,ISIP_5,192,1,48,34,2263545388
12120,5,ISIP_5,193,1,48,39,2264023912
12120,5,ISIP_5,194,1,48,40,2264544772
12120,5,ISIP_5,195,1,48,40,2265092260
12120,5,ISIP_5,196,1,48,44,2265595760
12120,5,ISIP_5,197,1,48,44,2266128516
12120,5,ISIP_5,198,1,48,41,2266670540
12120,5,ISIP_5,199,1,48,50,2267181600
12120,5,ISIP_5,0,9999,9999,9999,2187234424
12120,5,ISIP_5,1,9999,9999,9999,2187734068
12120,5,ISIP_5,2,9999,9999,9999,2188234808
12120,5,ISIP_5,3,9999,9999,9999,2188734576
12120,5,ISIP_5,4,9999,9999,9999,2189234272
12120,5,ISIP_5,5,9999,9999,9999,2189735012
12120,5,ISIP_5,6,9999,9999,9999,2190234712
12120,5,ISIP_5,7,9999,9999,9999,2190734404
12120,5,ISIP_5,8,9999,9999,9999,2191234100
12120,5,ISIP_5,9,9999,9999,9999,2191734884
12120,5,ISIP_5,10,9999,9999,9999,2192234588
12120,5,ISIP_5,11,9999,9999,9999,2192734276
12120,5,ISIP_5,12,9999,9999,9999,2193235016
12120,5,ISIP_5,13,9999,9999,9999,2193734716
12120,5,ISIP_5,14,9999,9999,9999,2194234488
12120,5,ISIP_5,15,9999,9999,9999,2194734180
12120,5,ISIP_5,16,9999,9999,9999,2195234916
12120,5,ISIP_5,17,9999,9999,9999,2195734612
12120,5,ISIP_5,18,9999,9999,9999,2196234304
12120,5,ISIP_5,19,9999,9999,9999,2196735048
12120,5,ISIP_5,20,9999,9999,9999,2197234748
12120,5,ISIP_5,21,9999,9999,9999,2197734516
12120,5,ISIP_5,22,9999,9999,9999,2198234212
12120,5,ISIP_5,23,9999,9999,9999,2198734948
12120,5,ISIP_5,24,9999,9999,9999,2199234644
12120,5,ISIP_5,25,9999,9999,9999,2199734336
12120,5,ISIP_5,26,9999,9999,9999,2200235080
12120,5,ISIP_5,27,9999,9999,9999,2200734776
12120,5,ISIP_5,28,9999,9999,9999,2201234544
12120,5,ISIP_5,29,9999,9999,9999,2201734236
12120,5,ISIP_5,30,9999,9999,9999,2202234952
12120,5,ISIP_5,31,9999,9999,9999,2202734648
12120,5,ISIP_5,32,9999,9999,9999,2203234416
12120,5,ISIP_5,33,9999,9999,9999,2203734112
12120,5,ISIP_5,34,9999,9999,9999,2204234856
12120,5,ISIP_5,35,9999,9999,9999,2204734552
12120,5,ISIP_5,36,9999,9999,9999,2205234244
12120,5,ISIP_5,37,9999,9999,9999,2205734988
12120,5,ISIP_5,38,9999,9999,9999,2206234684
12120,5,ISIP_5,39,9999,9999,9999,2206734452
12120,5,ISIP_5,40,9999,9999,9999,2207234148
12120,5,ISIP_5,41,9999,9999,9999,2207734892
12120,5,ISIP_5,42,9999,9999,9999,2208234576
12120,5,ISIP_5,43,9999,9999,9999,2208734272
12120,5,ISIP_5,44,9999,9999,9999,2209235004
12120,5,ISIP_5,45,9999,9999,9999,2209734768
12120,5,ISIP_5,46,9999,9999,9999,2210234460
12120,5,ISIP_5,47,9999,9999,9999,2210734156
12120,5,ISIP_5,48,9999,9999,9999,2211234888
12120,5,ISIP_5,49,9999,9999,9999,2211734580
12120,5,ISIP_5,50,9999,9999,9999,2212234352
12120,5,ISIP_5,51,9999,9999,9999,2212735092
12120,5,ISIP_5,52,9999,9999,9999,2213234756
12120,5,ISIP_5,53,9999,9999,9999,2213734520
12120,5,ISIP_5,54,9999,9999,9999,2214234212
12120,5,ISIP_5,55,9999,9999,9999,2214734948
12120,5,ISIP_5,56,9999,9999,9999,2215234640
12120,5,ISIP_5,57,9999,9999,9999,2215734328
12120,5,ISIP_5,58,9999,9999,9999,2216235068
12120,5,ISIP_5,59,9999,9999,9999,2216734832
12120,5,ISIP_5,60,9999,9999,9999,2217234520
12120,5,ISIP_5,61,9999,9999,9999,2217734212
12120,5,ISIP_5,62,9999,9999,9999,2218234948
12120,5,ISIP_5,63,9999,9999,9999,2218734712
12120,5,ISIP_5,64,9999,9999,9999,2219234404
12120,5,ISIP_5,65,9999,9999,9999,2219734092
12120,5,ISIP_5,66,9999,9999,9999,2220234828
12120,5,ISIP_5,67,9999,9999,9999,2220734520
12120,5,ISIP_5,68,9999,9999,9999,2221234284
12120,5,ISIP_5,69,9999,9999,9999,2221735020
12120,5,ISIP_5,70,9999,9999,9999,2222234712
12120,5,ISIP_5,71,9999,9999,9999,2222734404
12120,5,ISIP_5,72,9999,9999,9999,2223234168
12120,5,ISIP_5,73,9999,9999,9999,2223734880
12120,5,ISIP_5,74,9999,9999,9999,2224234572
12120,5,ISIP_5,75,9999,9999,9999,2224734260
12120,5,ISIP_5,76,9999,9999,9999,2225235000
12120,5,ISIP_5,77,9999,9999,9999,2225734764
12120,5,ISIP_5,78,9999,9999,9999,2226234452
12120,5,ISIP_5,79,9999,9999,9999,2226734144
12120,5,ISIP_5,80,9999,9999,9999,2227234880
12120,5,ISIP_5,81,9999,9999,9999,2227734648
12120,5,ISIP_5,82,9999,9999,9999,2228234340
12120,5,ISIP_5,83,9999,9999,9999,2228735076
12120,5,ISIP_5,84,9999,9999,9999,2229234768
12120,5,ISIP_5,85,9999,9999,9999,2229734456
12120,5,ISIP_5,86,9999,9999,9999,2230234220
12120,5,ISIP_5,87,9999,9999,9999,2230734960
12120,5,ISIP_5,88,9999,9999,9999,2231234652
12120,5,ISIP_5,89,9999,9999,9999,2231734344
12120,5,ISIP_5,90,9999,9999,9999,2232235080
12120,5,ISIP_5,91,9999,9999,9999,2232734768
12120,5,ISIP_5,92,9999,9999,9999,2233234536
12120,5,ISIP_5,93,9999,9999,9999,2233734224
12120,5,ISIP_5,94,9999,9999,9999,2234234936
12120,5,ISIP_5,95,9999,9999,9999,2234734704
12120,5,ISIP_5,96,9999,9999,9999,2235234392
12120,5,ISIP_5,97,9999,9999,9999,2235734084
12120,5,ISIP_5,98,9999,9999,9999,2236234820
12120,5,ISIP_5,99,9999,9999,9999,2236734512
12120,5,ISIP_5,100,9999,9999,9999,2237234280
12120,5,ISIP_5,101,9999,9999,9999,2237735016
12120,5,ISIP_5,102,9999,9999,9999,2238234704
12120,5,ISIP_5,103,9999,9999,9999,2238734396
12120,5,ISIP_5,104,9999,9999,9999,2239234160
12120,5,ISIP_5,105,9999,9999,9999,2239734896
12120,5,ISIP_5,106,9999,9999,9999,2240234588
12120,5,ISIP_5,107,9999,9999,9999,2240734272
12120,5,ISIP_5,108,9999,9999,9999,2241235012
12120,5,ISIP_5,109,9999,9999,9999,2241734776
12120,5,ISIP_5,110,9999,9999,9999,2242234468
12120,5,ISIP_5,111,9999,9999,9999,2242734156
12120,5,ISIP_5,112,9999,9999,9999,2243234892
12120,5,ISIP_5,113,9999,9999,9999,2243734584
12120,5,ISIP_5,114,9999,9999,9999,2244234336
12120,5,ISIP_5,115,9999,9999,9999,2244735072
12120,5,ISIP_5,116,9999,9999,9999,2245234740
12120,5,ISIP_5,117,9999,9999,9999,2245734504
12120,5,ISIP_5,118,9999,9999,9999,2246234196
12120,5,ISIP_5,119,9999,9999,9999,2246734932
12120,5,ISIP_5,120,9999,9999,9999,2247234624
12120,5,ISIP_5,121,9999,9999,9999,2247734388
12120,5,ISIP_5,122,9999,9999,9999,2248235128
12120,5,ISIP_5,123,9999,9999,9999,2248734816
12120,5,ISIP_5,124,9999,9999,9999,2249234508
12120,5,ISIP_5,125,9999,9999,9999,2249734196
12120,5,ISIP_5,126,9999,9999,9999,2250234936
12120,5,ISIP_5,127,9999,9999,9999,2250734700
12120,5,ISIP_5,128,9999,9999,9999,2251234388
12120,5,ISIP_5,129,9999,9999,9999,2251734080
12120,5,ISIP_5,130,9999,9999,9999,2252234816
12120,5,ISIP_5,131,9999,9999,9999,2252734584
12120,5,ISIP_5,132,9999,9999,9999,2253234276
12120,5,ISIP_5,133,9999,9999,9999,2253735012
12120,5,ISIP_5,134,9999,9999,9999,2254234704
12120,5,ISIP_5,135,9999,9999,9999,2254734392
12120,5,ISIP_5,136,9999,9999,9999,2255234160
12120,5,ISIP_5,137,9999,9999,9999,2255734872
12120,5,ISIP_5,138,9999,9999,9999,2256234564
12120,5,ISIP_5,139,9999,9999,9999,2256734328
12120,5,ISIP_5,140,9999,9999,9999,2257235064
12120,5,ISIP_5,141,9999,9999,9999,2257734752
12120,5,ISIP_5,142,9999,9999,9999,2258234444
12120,5,ISIP_5,143,9999,9999,9999,2258734136
12120,5,ISIP_5,144,9999,9999,9999,2259234872
12120,5,ISIP_5,145,9999,9999,9999,2259734640
12120,5,ISIP_5,146,9999,9999,9999,2260234328
12120,5,ISIP_5,147,9999,9999,9999,2260735068
12120,5,ISIP_5,148,9999,9999,9999,2261234756
12120,5,ISIP_5,149,9999,9999,9999,2261734520
12120,5,ISIP_5,150,9999,9999,9999,2262234212
12120,5,ISIP_5,151,9999,9999,9999,2262734948
12120,5,ISIP_5,152,9999,9999,9999,2263234640
12120,5,ISIP_5,153,9999,9999,9999,2263734332
12120,5,ISIP_5,154,9999,9999,9999,2264235068
12120,5,ISIP_5,155,9999,9999,9999,2264734832
12120,5,ISIP_5,156,9999,9999,9999,2265234524
12120,5,ISIP_5,157,9999,9999,9999,2265734216
12120,5,ISIP_5,158,9999,9999,9999,2266234952
12120,5,ISIP_5,159,9999,9999,9999,2266734708
12121,3,ISIP_8,0,5,42,127,2292734416
12121,3,ISIP_8,1,5,42,127,2293534320
12121,3,ISIP_8,2,5,42,127,2294333780
12121,3,ISIP_8,3,1,48,25,2294338620
12121,3,ISIP_8,4,1,48,30,2295098468
12121,3,ISIP_8,5,5,42,127,2295133504
12121,3,ISIP_8,6,1,48,32,2295898424
12121,3,ISIP_8,7,5,42,127,2295934308
12121,3,ISIP_8,8,1,48,32,2296709700
12121,3,ISIP_8,9,5,42,127,2296734264
12121,3,ISIP_8,10,1,48,27,2297504420
12121,3,ISIP_8,11,5,42,127,2297533924
12121,3,ISIP_8,12,1,48,29,2298271772
12121,3,ISIP_8,13,5,42,127,2298333436
12121,3,ISIP_8,14,1,48,36,2299019368
12121,3,ISIP_8,15,5,42,127,2299134424
12121,3,ISIP_8,16,1,48,38,2299862928
12121,3,ISIP_8,17,5,42,127,2299934172
12121,3,ISIP_8,18,1,48,40,2300707688
12121,3,ISIP_8,19,5,42,127,2300733680
12121,3,ISIP_8,20,1,48,37,2301489024
12121,3,ISIP_8,21,5,42,127,2301533416
12121,3,ISIP_8,22,1,48,36,2302284496
12121,3,ISIP_8,23,5,42,127,2302334220
12121,3,ISIP_8,24,1,48,40,2303110436
12121,3,ISIP_8,25,5,42,127,2303134104
12121,3,ISIP_8,26,5,42,127,2303933844
12121,3,ISIP_8,27,1,48,36,2303981992
12121,3,ISIP_8,28,5,42,127,2304733428
12121,3,ISIP_8,29,1,48,35,2304745972
12121,3,ISIP_8,30,1,48,33,2305486372
12121,3,ISIP_8,31,5,42,127,2305534276
12121,3,ISIP_8,32,1,48,33,2306303160
12121,3,ISIP_8,33,5,42,127,2306334160
12121,3,ISIP_8,34,1,48,40,2307119796
12121,3,ISIP_8,35,5,42,127,2307133744
12121,3,ISIP_8,36,1,48,35,2307905772
12121,3,ISIP_8,37,5,42,127,2307933480
12121,3,ISIP_8,38,1,48,38,2308715224
12121,3,ISIP_8,39,5,42,127,2308734284
12121,3,ISIP_8,40,1,48,38,2309498452
12121,3,ISIP_8,41,5,42,127,2309534016
12121,3,ISIP_8,42,1,48,38,2310285024
12121,3,ISIP_8,43,5,42,127,2310333828
12121,3,ISIP_8,44,1,48,39,2311099864
12121,3,ISIP_8,45,5,42,127,2311133632
12121,3,ISIP_8,46,1,48,38,2311912164
12121,3,ISIP_8,47,5,42,127,2311934192
12121,3,ISIP_8,48,1,48,33,2312704048
12121,3,ISIP_8,49,5,42,127,2312734148
12121,3,ISIP_8,50,1,48,40,2313480592
12121,3,ISIP_8,51,5,42,127,2313533956
12121,3,ISIP_8,52,1,48,36,2314267384
12121,3,ISIP_8,53,5,42,127,2314333540
12121,3,ISIP_8,54,1,48,38,2315062856
12121,3,ISIP_8,55,5,42,127,2315134420
12121,3,ISIP_8,56,1,48,37,2315857424
12121,3,ISIP_8,57,5,42,127,2315934076
12121,3,ISIP_8,58,1,48,33,2316685980
12121,3,ISIP_8,59,1,48,34,2317506280
12121,3,ISIP_8,60,1,48,31,2318290080
12121,3,ISIP_8,61,1,48,31,2319097960
12121,3,ISIP_8,62,1,48,31,2319915936
12121,3,ISIP_8,63,1,48,35,2320663304
12121,3,ISIP_8,64,1,48,36,2321491012
12121,3,ISIP_8,65,1,48,26,2322309168
12121,3,ISIP_8,66,1,48,28,2323151616
12121,3,ISIP_8,67,1,48,34,2323911612
12121,3,ISIP_8,68,1,48,36,2324752124
12121,3,ISIP_8,69,1,48,41,2325576912
12121,3,ISIP_8,70,1,48,36,2326410024
12121,3,ISIP_8,71,1,48,29,2327232940
12121,3,ISIP_8,72,1,48,42,2328062660
12121,3,ISIP_8,73,1,48,40,2328953972
12121,3,ISIP_8,74,1,48,37,2329832160
12121,3,ISIP_8,75,1,48,35,2330642884
12121,3,ISIP_8,76,1,48,34,2331469092
12121,3,ISIP_8,77,1,48,37,2332309836
12121,3,ISIP_8,78,1,48,40,2333139036
12121,3,ISIP_8,79,1,48,42,2333975640
12121,3,ISIP_8,80,1,48,36,2334763180
12121,3,ISIP_8,81,1,48,35,2335655008
12121,3,ISIP_8,82,1,48,39,2336484580
12121,3,ISIP_8,83,1,48,41,2337332704
12121,3,ISIP_8,84,1,48,40,2338150832
12121,3,ISIP_8,85,1,48,37,2339053884
12121,3,ISIP_8,86,1,48,44,2339966592
12121,3,ISIP_8,87,1,48,38,2340804772
12121,3,ISIP_8,88,1,48,40,2341740560
12121,3,ISIP_8,89,1,48,28,2342691180
12121,3,ISIP_8,90,1,48,45,2343535112
12121,3,ISIP_8,91,1,48,42,2344411312
12121,3,ISIP_8,92,1,48,40,2345330044
12121,3,ISIP_8,93,1,48,44,2346321132
12121,3,ISIP_8,94,1,48,42,2347245136
12121,3,ISIP_8,95,1,48,42,2348128788
12121,3,ISIP_8,96,1,48,41,2349001920
12121,3,ISIP_8,97,1,48,41,2349920356
12121,3,ISIP_8,98,1,48,36,2350773736
12121,3,ISIP_8,99,1,48,43,2351659108
12121,3,ISIP_8,100,1,48,39,2352525360
12121,3,ISIP_8,101,1,48,37,2353414620
12121,3,ISIP_8,102,1,48,39,2354310036
12121,3,ISIP_8,103,1,48,45,2355164312
12121,3,ISIP_8,104,1,48,45,2356093016
12121,3,ISIP_8,105,1,48,44,2356915412
12121,3,ISIP_8,106,1,48,47,2357778044
12121,3,ISIP_8,107,1,48,42,2358658776
12121,3,ISIP_8,108,1,48,43,2359516024
12121,3,ISIP_8,109,1,48,46,2360412620
12121,3,ISIP_8,110,1,48,53,2361250220
12121,3,ISIP_8,111,1,48,34,2361290964
12121,3,ISIP_8,112,1,48,48,2362095928
12121,3,ISIP_8,113,1,48,44,2363012888
12121,3,ISIP_8,114,1,48,50,2363833260
12121,3,ISIP_8,115,1,48,43,2364676376
12121,3,ISIP_8,116,1,48,43,2365558196
12121,3,ISIP_8,117,1,48,39,2366396820
12121,3,ISIP_8,118,1,48,43,2367274044
12121,3,ISIP_8,119,1,48,41,2368130564
12121,3,ISIP_8,120,1,48,40,2369017356
12121,3,ISIP_8,121,1,48,43,2369823740
12121,3,ISIP_8,122,1,48,44,2370695528
12121,3,ISIP_8,123,1,48,41,2371552104
12121,3,ISIP_8,124,1,48,39,2372405616
12121,3,ISIP_8,125,1,48,38,2373304328
12121,3,ISIP_8,126,1,48,38,2374243704
12121,3,ISIP_8,127,1,48,32,2375134944
12121,3,ISIP_8,128,1,48,42,2375975440
12121,3,ISIP_8,129,1,48,41,2376879084
12121,3,ISIP_8,130,1,48,38,2377688092
12121,3,ISIP_8,131,1,48,42,2378611608
12121,3,ISIP_8,132,1,48,38,2379478756
12121,3,ISIP_8,133,1,48,39,2380314692
12121,3,ISIP_8,134,1,48,42,2381164380
12121,3,ISIP_8,135,1,48,34,2382029652
12121,3,ISIP_8,136,1,48,35,2382842848
12121,3,ISIP_8,137,1,48,32,2383714760
12121,3,ISIP_8,138,1,48,45,2384654980
12121,3,ISIP_8,139,1,48,25,2385614148
12121,3,ISIP_8,140,1,48,39,2386499516
12121,3,ISIP_8,141,1,48,35,2387444008
12121,3,ISIP_8,142,1,48,39,2388321452
12121,3,ISIP_8,143,1,48,40,2389214404
12121,3,ISIP_8,144,1,48,40,2390120192
12121,3,ISIP_8,145,1,48,40,2391007984
12121,3,ISIP_8,146,1,48,38,2391862164
12121,3,ISIP_8,147,1,48,35,2392806816
12121,3,ISIP_8,148,1,48,41,2393748312
12121,3,ISIP_8,149,1,48,34,2394684624
12121,3,ISIP_8,150,1,48,41,2395532096
12121,3,ISIP_8,151,1,48,33,2396380968
12121,3,ISIP_8,152,1,48,35,2397253404
12121,3,ISIP_8,153,1,48,33,2398108060
12121,3,ISIP_8,154,1,48,41,2398968076
12121,3,ISIP_8,155,1,48,40,2399808872
12121,3,ISIP_8,156,1,48,37,2400694792
12121,3,ISIP_8,157,1,48,42,2401546520
12121,3,ISIP_8,158,1,48,36,2402413412
12121,3,ISIP_8,159,1,48,42,2403302176
12121,3,ISIP_8,160,1,48,43,2404194956
12121,3,ISIP_8,161,1,48,40,2405033304
12121,3,ISIP_8,162,1,48,37,2405916812
12121,3,ISIP_8,163,1,48,39,2406821132
12121,3,ISIP_8,164,1,48,34,2407702460
12121,3,ISIP_8,165,1,48,41,2408584044
12121,3,ISIP_8,166,1,48,44,2409449820
12121,3,ISIP_8,167,1,48,37,2410392152
12121,3,ISIP_8,168,1,48,42,2411248880
12121,3,ISIP_8,169,1,48,43,2412107396
12121,3,ISIP_8,0,9999,9999,9999,2292731980
12121,3,ISIP_8,1,9999,9999,9999,2293531732
12121,3,ISIP_8,2,9999,9999,9999,2294331488
12121,3,ISIP_8,3,9999,9999,9999,2295131216
12121,3,ISIP_8,4,9999,9999,9999,2295932020
12121,3,ISIP_8,5,9999,9999,9999,2296731752
12121,3,ISIP_8,6,9999,9999,9999,2297531488
12121,3,ISIP_8,7,9999,9999,9999,2298331220
12121,3,ISIP_8,8,9999,9999,9999,2299131984
12121,3,ISIP_8,9,9999,9999,9999,2299931736
12121,3,ISIP_8,10,9999,9999,9999,2300731468
12121,3,ISIP_8,11,9999,9999,9999,2301531200
12121,3,ISIP_8,12,9999,9999,9999,2302332008
12121,3,ISIP_8,13,9999,9999,9999,2303131740
12121,3,ISIP_8,14,9999,9999,9999,2303931480
12121,3,ISIP_8,15,9999,9999,9999,2304731212
12121,3,ISIP_8,16,9999,9999,9999,2305531988
12121,3,ISIP_8,17,9999,9999,9999,2306331724
12121,3,ISIP_8,18,9999,9999,9999,2307131456
12121,3,ISIP_8,19,9999,9999,9999,2307931192
12121,3,ISIP_8,20,9999,9999,9999,2308731996
12121,3,ISIP_8,21,9999,9999,9999,2309531728
12121,3,ISIP_8,22,9999,9999,9999,2310331464
12121,3,ISIP_8,23,9999,9999,9999,2311131196
12121,3,ISIP_8,24,9999,9999,9999,2311931976
12121,3,ISIP_8,25,9999,9999,9999,2312731708
12121,3,ISIP_8,26,9999,9999,9999,2313531444
12121,3,ISIP_8,27,9999,9999,9999,2314331252
12121,3,ISIP_8,28,9999,9999,9999,2315131980
12121,3,ISIP_8,29,9999,9999,9999,2315931716
12121,3,ISIP_8,30,9999,9999,9999,2316731448
12121,3,ISIP_8,31,9999,9999,9999,2317531252
12121,3,ISIP_8,32,9999,9999,9999,2318331952
12121,3,ISIP_8,33,9999,9999,9999,2319131756
12121,3,ISIP_8,34,9999,9999,9999,2319931484
12121,3,ISIP_8,35,9999,9999,9999,2320731212
12121,3,ISIP_8,36,9999,9999,9999,2321532016
12121,3,ISIP_8,37,9999,9999,9999,2322331744
12121,3,ISIP_8,38,9999,9999,9999,2323131480
12121,3,ISIP_8,39,9999,9999,9999,2323931204
12121,3,ISIP_8,40,9999,9999,9999,2324731984
12121,3,ISIP_8,41,9999,9999,9999,2325531712
12121,3,ISIP_8,42,9999,9999,9999,2326331444
12121,3,ISIP_8,43,9999,9999,9999,2327131248
12121,3,ISIP_8,44,9999,9999,9999,2327931972
12121,3,ISIP_8,45,9999,9999,9999,2328731704
12121,3,ISIP_8,46,9999,9999,9999,2329531508
12121,3,ISIP_8,47,9999,9999,9999,2330331236
12121,3,ISIP_8,48,9999,9999,9999,2331132012
12121,3,ISIP_8,49,9999,9999,9999,2331931740
12121,3,ISIP_8,50,9999,9999,9999,2332731468
12121,3,ISIP_8,51,9999,9999,9999,2333531200
12121,3,ISIP_8,52,9999,9999,9999,2334332000
12121,3,ISIP_8,53,9999,9999,9999,2335131728
12121,3,ISIP_8,54,9999,9999,9999,2335931456
12121,3,ISIP_8,55,9999,9999,9999,2336731188
12121,3,ISIP_8,56,9999,9999,9999,2337531964
12121,3,ISIP_8,57,9999,9999,9999,2338331768
12121,3,ISIP_8,58,9999,9999,9999,2339131512
12121,3,ISIP_8,59,9999,9999,9999,2339931248
12121,3,ISIP_8,60,9999,9999,9999,2340731972
12121,3,ISIP_8,61,9999,9999,9999,2341531704
12121,3,ISIP_8,62,9999,9999,9999,2342331508
12121,3,ISIP_8,63,9999,9999,9999,2343131236
12121,3,ISIP_8,64,9999,9999,9999,2343932012
12121,3,ISIP_8,65,9999,9999,9999,2344731744
12121,3,ISIP_8,66,9999,9999,9999,2345531472
12121,3,ISIP_8,67,9999,9999,9999,2346331216
12121,3,ISIP_8,68,9999,9999,9999,2347132024
12121,3,ISIP_8,69,9999,9999,9999,2347931752
12121,3,ISIP_8,70,9999,9999,9999,2348731480
12121,3,ISIP_8,71,9999,9999,9999,2349531212
12121,3,ISIP_8,72,9999,9999,9999,2350331988
12121,3,ISIP_8,73,9999,9999,9999,2351131716
12121,3,ISIP_8,74,9999,9999,9999,2351931444
12121,3,ISIP_8,75,9999,9999,9999,2352731248
12121,3,ISIP_8,76,9999,9999,9999,2353531976
12121,3,ISIP_8,77,9999,9999,9999,2354331720
12121,3,ISIP_8,78,9999,9999,9999,2355131456
12121,3,ISIP_8,79,9999,9999,9999,2355931188
12121,3,ISIP_8,80,9999,9999,9999,2356731960
12121,3,ISIP_8,81,9999,9999,9999,2357531764
12121,3,ISIP_8,82,9999,9999,9999,2358331472
12121,3,ISIP_8,83,9999,9999,9999,2359131200
12121,3,ISIP_8,84,9999,9999,9999,2359932000
12121,3,ISIP_8,85,9999,9999,9999,2360731728
12121,3,ISIP_8,86,9999,9999,9999,2361531512
12121,3,ISIP_8,87,9999,9999,9999,2362331240
12121,3,ISIP_8,88,9999,9999,9999,2363132016
12121,3,ISIP_8,89,9999,9999,9999,2363931748
12121,3,ISIP_8,90,9999,9999,9999,2364731488
12121,3,ISIP_8,91,9999,9999,9999,2365531228
12121,3,ISIP_8,92,9999,9999,9999,2366331952
12121,3,ISIP_8,93,9999,9999,9999,2367131756
12121,3,ISIP_8,94,9999,9999,9999,2367931484
12121,3,ISIP_8,95,9999,9999,9999,2368731212
12121,3,ISIP_8,96,9999,9999,9999,2369531988
12121,3,ISIP_8,97,9999,9999,9999,2370331720
12121,3,ISIP_8,98,9999,9999,9999,2371131448
12121,3,ISIP_8,99,9999,9999,9999,2371931252
12121,3,ISIP_8,100,9999,9999,9999,2372731980
12121,3,ISIP_8,101,9999,9999,9999,2373531708
12121,3,ISIP_8,102,9999,9999,9999,2374331452
12121,3,ISIP_8,103,9999,9999,9999,2375131188
12121,3,ISIP_8,104,9999,9999,9999,2375931964
12121,3,ISIP_8,105,9999,9999,9999,2376731768
12121,3,ISIP_8,106,9999,9999,9999,2377531496
12121,3,ISIP_8,107,9999,9999,9999,2378331228
12121,3,ISIP_8,108,9999,9999,9999,2379131952
12121,3,ISIP_8,109,9999,9999,9999,2379931756
12121,3,ISIP_8,110,9999,9999,9999,2380731484
12121,3,ISIP_8,111,9999,9999,9999,2381531212
12121,3,ISIP_8,112,9999,9999,9999,2382331988
12121,3,ISIP_8,113,9999,9999,9999,2383131716
12121,3,ISIP_8,114,9999,9999,9999,2383931448
12121,3,ISIP_8,115,9999,9999,9999,2384731192
12121,3,ISIP_8,116,9999,9999,9999,2385532000
12121,3,ISIP_8,117,9999,9999,9999,2386331728
12121,3,ISIP_8,118,9999,9999,9999,2387131456
12121,3,ISIP_8,119,9999,9999,9999,2387931188
12121,3,ISIP_8,120,9999,9999,9999,2388731960
12121,3,ISIP_8,121,9999,9999,9999,2389531768
12121,3,ISIP_8,122,9999,9999,9999,2390331496
12121,3,ISIP_8,123,9999,9999,9999,2391131224
12121,3,ISIP_8,124,9999,9999,9999,2391931964
12121,3,ISIP_8,125,9999,9999,9999,2392731700
12121,3,ISIP_8,126,9999,9999,9999,2393531504
12121,3,ISIP_8,127,9999,9999,9999,2394331236
12121,3,ISIP_8,128,9999,9999,9999,2395132012
12121,3,ISIP_8,129,9999,9999,9999,2395931740
12121,3,ISIP_8,130,9999,9999,9999,2396731472
12121,3,ISIP_8,131,9999,9999,9999,2397531204
12121,3,ISIP_8,132,9999,9999,9999,2398332004
12121,3,ISIP_8,133,9999,9999,9999,2399131732
12121,3,ISIP_8,134,9999,9999,9999,2399931460
12121,3,ISIP_8,135,9999,9999,9999,2400731204
12121,3,ISIP_8,136,9999,9999,9999,2401531988
12121,3,ISIP_8,137,9999,9999,9999,2402331720
12121,3,ISIP_8,138,9999,9999,9999,2403131448
12121,3,ISIP_8,139,9999,9999,9999,2403931252
12121,3,ISIP_8,140,9999,9999,9999,2404731976
12121,3,ISIP_8,141,9999,9999,9999,2405531708
12121,3,ISIP_8,142,9999,9999,9999,2406331512
12121,3,ISIP_8,143,9999,9999,9999,2407131240
12121,3,ISIP_8,144,9999,9999,9999,2407932016
12121,3,ISIP_8,145,9999,9999,9999,2408731744
12121,3,ISIP_8,146,9999,9999,9999,2409531488
12121,3,ISIP_8,147,9999,9999,9999,2410331224
12121,3,ISIP_8,148,9999,9999,9999,2411131952
12121,3,ISIP_8,149,9999,9999,9999,2411931756
12122,11,Pattern_Practice,0,5,42,127,2516456736
12122,11,Pattern_Practice,1,5,42,127,2516956600
12122,11,Pattern_Practice,2,5,42,127,2517457364
12122,11,Pattern_Practice,3,5,42,127,2517956860
12122,11,Pattern_Practice,4,1,48,43,2518017276
12122,11,Pattern_Practice,5,5,42,127,2518456704
12122,11,Pattern_Practice,6,1,38,51,2518488100
12122,11,Pattern_Practice,7,5,42,127,2518957372
12122,11,Pattern_Practice,8,1,48,47,2519028784
12122,11,Pattern_Practice,9,1,48,44,2519276212
12122,11,Pattern_Practice,10,5,42,127,2519457116
12122,11,Pattern_Practice,11,1,38,68,2519525760
12122,11,Pattern_Practice,12,5,42,127,2519956960
12122,11,Pattern_Practice,13,1,48,51,2520020220
12122,11,Pattern_Practice,14,1,48,44,2520278868
12122,11,Pattern_Practice,15,5,42,127,2520456560
12122,11,Pattern_Practice,16,1,38,58,2520489596
12122,11,Pattern_Practice,17,1,48,49,2520953816
12122,11,Pattern_Practice,18,5,42,127,2520957444
12122,11,Pattern_Practice,19,1,48,38,2521199776
12122,11,Pattern_Practice,20,1,38,57,2521423696
12122,11,Pattern_Practice,21,5,42,127,2521456968
12122,11,Pattern_Practice,22,1,38,28,2521484980
12122,11,Pattern_Practice,23,5,42,127,2521956696
12122,11,Pattern_Practice,24,1,38,47,2521996492
12122,11,Pattern_Practice,25,1,48,58,2522448424
12122,11,Pattern_Practice,26,5,42,127,2522456536
12122,11,Pattern_Practice,27,1,38,55,2522896512
12122,11,Pattern_Practice,28,5,42,127,2522957200
12122,11,Pattern_Practice,29,1,48,47,2523368080
12122,11,Pattern_Practice,30,5,42,127,2523456824
12122,11,Pattern_Practice,31,1,48,39,2523655020
12122,11,Pattern_Practice,32,1,38,67,2523909860
12122,11,Pattern_Practice,33,5,42,127,2523956572
12122,11,Pattern_Practice,34,1,38,24,2523982708
12122,11,Pattern_Practice,35,1,48,46,2524432944
12122,11,Pattern_Practice,36,5,42,127,2524457288
12122,11,Pattern_Practice,37,1,48,40,2524697828
12122,11,Pattern_Practice,38,1,38,63,2524934640
12122,11,Pattern_Practice,39,5,42,127,2524957112
12122,11,Pattern_Practice,40,1,38,24,2525003824
12122,11,Pattern_Practice,41,5,42,127,2525456712
12122,11,Pattern_Practice,42,1,38,47,2525463420
12122,11,Pattern_Practice,43,1,48,58,2525930484
12122,11,Pattern_Practice,44,5,42,127,2525956480
12122,11,Pattern_Practice,45,1,38,53,2526404756
12122,11,Pattern_Practice,46,5,42,127,2526457292
12122,11,Pattern_Practice,47,1,48,54,2526899132
12122,11,Pattern_Practice,48,5,42,127,2526956764
12122,11,Pattern_Practice,49,1,48,40,2527173216
12122,11,Pattern_Practice,50,1,38,70,2527414740
12122,11,Pattern_Practice,51,5,42,127,2527456512
12122,11,Pattern_Practice,52,1,38,32,2527479136
12122,11,Pattern_Practice,53,1,48,53,2527920324
12122,11,Pattern_Practice,54,5,42,127,2527957456
12122,11,Pattern_Practice,55,1,48,44,2528150268
12122,11,Pattern_Practice,56,1,38,61,2528381548
12122,11,Pattern_Practice,57,5,42,127,2528457128
12122,11,Pattern_Practice,58,1,48,46,2528649272
12122,11,Pattern_Practice,59,1,48,46,2528880396
12122,11,Pattern_Practice,60,5,42,127,2528956724
12122,11,Pattern_Practice,61,1,38,68,2529204668
12122,11,Pattern_Practice,62,1,38,43,2529241596
12122,11,Pattern_Practice,63,1,48,62,2529437416
12122,11,Pattern_Practice,64,5,42,127,2529456448
12122,11,Pattern_Practice,65,1,48,31,2529675300
12122,11,Pattern_Practice,66,1,48,30,2529890320
12122,11,Pattern_Practice,67,5,42,127,2529957316
12122,11,Pattern_Practice,68,1,38,57,2530140612
12122,11,Pattern_Practice,69,1,48,34,2530414248
12122,11,Pattern_Practice,70,5,42,127,2530457144
12122,11,Pattern_Practice,71,1,48,28,2530668408
12122,11,Pattern_Practice,72,5,42,127,2530956796
12122,11,Pattern_Practice,73,1,38,62,2531079964
12122,11,Pattern_Practice,74,1,48,38,2531400624
12122,11,Pattern_Practice,75,5,42,127,2531457384
12122,11,Pattern_Practice,76,1,48,39,2531629828
12122,11,Pattern_Practice,77,5,42,127,2531957064
12122,11,Pattern_Practice,78,1,38,58,2532007380
12122,11,Pattern_Practice,79,1,48,48,2532369628
12122,11,Pattern_Practice,80,5,42,127,2532456724
12122,11,Pattern_Practice,81,1,38,43,2532890040
12122,11,Pattern_Practice,82,5,42,127,2532956496
12122,11,Pattern_Practice,83,1,48,41,2533415240
12122,11,Pattern_Practice,84,1,48,57,2533444388
12122,11,Pattern_Practice,85,5,42,127,2533457360
12122,11,Pattern_Practice,86,1,38,41,2533910052
12122,11,Pattern_Practice,87,5,42,127,2533957208
12122,11,Pattern_Practice,88,1,48,46,2534376236
12122,11,Pattern_Practice,89,5,42,127,2534456532
12122,11,Pattern_Practice,90,1,38,41,2534866432
12122,11,Pattern_Practice,91,5,42,127,2534957424
12122,11,Pattern_Practice,92,1,48,46,2535376300
12122,11,Pattern_Practice,93,5,42,127,2535457412
12122,11,Pattern_Practice,94,1,38,35,2535875172
12122,11,Pattern_Practice,95,1,38,34,2535928704
12122,11,Pattern_Practice,96,5,42,127,2535956716
12122,11,Pattern_Practice,97,1,38,38,2536377088
12122,11,Pattern_Practice,98,1,48,45,2536386720
12122,11,Pattern_Practice,99,5,42,127,2536456540
12122,11,Pattern_Practice,100,1,38,43,2536882276
12122,11,Pattern_Practice,101,1,38,48,2536926828
12122,11,Pattern_Practice,102,5,42,127,2536957232
12122,11,Pattern_Practice,103,5,42,127,2537457156
12122,11,Pattern_Practice,104,1,38,41,2537490944
12122,11,Pattern_Practice,105,1,38,48,2537558392
12122,11,Pattern_Practice,106,1,38,31,2537723616
12122,11,Pattern_Practice,107,1,38,51,2537773120
12122,11,Pattern_Practice,108,5,42,127,2537956636
12122,11,Pattern_Practice,109,1,48,51,2538197192
12122,11,Pattern_Practice,110,5,42,127,2538456332
12122,11,Pattern_Practice,111,1,48,54,2538484884
12122,11,Pattern_Practice,112,1,38,59,2538945964
12122,11,Pattern_Practice,113,5,42,127,2538957364
12122,11,Pattern_Practice,114,1,38,37,2538990088
12122,11,Pattern_Practice,115,5,42,127,2539457120
12122,11,Pattern_Practice,116,1,48,49,2539462632
12122,11,Pattern_Practice,117,1,38,64,2539934336
12122,11,Pattern_Practice,118,5,42,127,2539956512
12122,11,Pattern_Practice,119,1,38,43,2539977564
12122,11,Pattern_Practice,120,1,48,50,2540447692
12122,11,Pattern_Practice,121,5,42,127,2540457304
12122,11,Pattern_Practice,122,1,38,53,2540895232
12122,11,Pattern_Practice,123,1,38,36,2540936972
12122,11,Pattern_Practice,124,5,42,127,2540957200
12122,11,Pattern_Practice,125,1,48,48,2541387952
12122,11,Pattern_Practice,126,5,42,127,2541456672
12122,11,Pattern_Practice,127,1,48,54,2541562844
12122,11,Pattern_Practice,128,1,48,32,2541721420
12122,11,Pattern_Practice,129,1,48,34,2541771216
12122,11,Pattern_Practice,130,1,48,43,2541936368
12122,11,Pattern_Practice,131,5,42,127,2541956452
12122,11,Pattern_Practice,132,1,38,42,2542255776
12122,11,Pattern_Practice,133,5,42,127,2542457252
12122,11,Pattern_Practice,134,1,38,37,2542478848
12122,11,Pattern_Practice,135,5,42,127,2542957100
12122,11,Pattern_Practice,136,1,48,47,2542962536
12122,11,Pattern_Practice,137,1,48,36,2543417232
12122,11,Pattern_Practice,138,5,42,127,2543456540
12122,11,Pattern_Practice,139,1,38,47,2543908252
12122,11,Pattern_Practice,140,5,42,127,2543957280
12122,11,Pattern_Practice,141,1,48,35,2544405104
12122,11,Pattern_Practice,142,5,42,127,2544457048
12122,11,Pattern_Practice,143,1,38,48,2544895820
12122,11,Pattern_Practice,144,1,38,30,2544949952
12122,11,Pattern_Practice,145,5,42,127,2544956944
12122,11,Pattern_Practice,146,1,38,39,2545381808
12122,11,Pattern_Practice,147,5,42,127,2545456488
12122,11,Pattern_Practice,148,1,38,44,2545578472
12122,11,Pattern_Practice,149,1,38,37,2545739564
12122,11,Pattern_Practice,150,1,38,41,2545801504
12122,11,Pattern_Practice,151,5,42,127,2545957176
12122,11,Pattern_Practice,152,1,48,44,2546294092
12122,11,Pattern_Practice,153,5,42,127,2546457092
12122,11,Pattern_Practice,154,1,38,43,2546870676
12122,11,Pattern_Practice,155,5,42,127,2546956504
12122,11,Pattern_Practice,156,1,48,48,2547408220
12122,11,Pattern_Practice,157,5,42,127,2547457320
12122,11,Pattern_Practice,158,1,38,50,2547886744
12122,11,Pattern_Practice,159,5,42,127,2547957092
12122,11,Pattern_Practice,160,1,38,38,2548395864
12122,11,Pattern_Practice,161,5,42,127,2548457008
12122,11,Pattern_Practice,162,1,38,45,2548890100
12122,11,Pattern_Practice,163,5,42,127,2548956628
12122,11,Pattern_Practice,164,1,48,61,2549359572
12122,11,Pattern_Practice,165,5,42,127,2549457356
12122,11,Pattern_Practice,166,1,48,56,2549899292
12122,11,Pattern_Practice,167,5,42,127,2549956988
12122,11,Pattern_Practice,168,1,48,46,2550406388
12122,11,Pattern_Practice,169,5,42,127,2550456836
12122,11,Pattern_Practice,170,1,38,60,2550868288
12122,11,Pattern_Practice,171,1,38,21,2550954604
12122,11,Pattern_Practice,172,5,42,127,2550957332
12122,11,Pattern_Practice,173,1,38,26,2551396152
12122,11,Pattern_Practice,174,5,42,127,2551457100
12122,11,Pattern_Practice,175,1,48,59,2551891064
12122,11,Pattern_Practice,176,5,42,127,2551956944
12122,11,Pattern_Practice,177,1,48,38,2552393152
12122,11,Pattern_Practice,178,5,42,127,2552456488
12122,11,Pattern_Practice,179,5,42,127,2552957160
12122,11,Pattern_Practice,180,1,38,51,2552961180
12122,11,Pattern_Practice,181,1,48,27,2553075224
12122,11,Pattern_Practice,182,5,42,127,2553456984
12122,11,Pattern_Practice,183,1,38,24,2553468184
12122,11,Pattern_Practice,184,5,42,127,2553956728
12122,11,Pattern_Practice,185,1,38,32,2553982016
12122,11,Pattern_Practice,186,1,38,41,2554442024
12122,11,Pattern_Practice,187,5,42,127,2554456416
12122,11,Pattern_Practice,188,1,38,64,2554890256
12122,11,Pattern_Practice,189,5,42,127,2554957308
12122,11,Pattern_Practice,190,1,38,24,2554959676
12122,11,Pattern_Practice,191,1,48,53,2555406536
12122,11,Pattern_Practice,192,5,42,127,2555456904
12122,11,Pattern_Practice,193,1,48,59,2555891340
12122,11,Pattern_Practice,194,5,42,127,2555956524
12122,11,Pattern_Practice,195,1,48,44,2556426188
12122,11,Pattern_Practice,0,9999,9999,9999,2516454452
12122,11,Pattern_Practice,1,9999,9999,9999,2516954168
12122,11,Pattern_Practice,2,9999,9999,9999,2517454928
12122,11,Pattern_Practice,3,9999,9999,9999,2517954648
12122,11,Pattern_Practice,4,9999,9999,9999,2518454344
12122,11,Pattern_Practice,5,9999,9999,9999,2518955084
12122,11,Pattern_Practice,6,9999,9999,9999,2519454832
12122,11,Pattern_Practice,7,9999,9999,9999,2519954524
12122,11,Pattern_Practice,8,9999,9999,9999,2520454196
12122,11,Pattern_Practice,9,9999,9999,9999,2520954932
12122,11,Pattern_Practice,10,9999,9999,9999,2521454680
12122,11,Pattern_Practice,11,9999,9999,9999,2521954412
12122,11,Pattern_Practice,12,9999,9999,9999,2522454100
12122,11,Pattern_Practice,13,9999,9999,9999,2522954840
12122,11,Pattern_Practice,14,9999,9999,9999,2523454536
12122,11,Pattern_Practice,15,9999,9999,9999,2523954284
12122,11,Pattern_Practice,16,9999,9999,9999,2524455004
12122,11,Pattern_Practice,17,9999,9999,9999,2524954676
12122,11,Pattern_Practice,18,9999,9999,9999,2525454428
12122,11,Pattern_Practice,19,9999,9999,9999,2525954116
12122,11,Pattern_Practice,20,9999,9999,9999,2526454860
12122,11,Pattern_Practice,21,9999,9999,9999,2526954552
12122,11,Pattern_Practice,22,9999,9999,9999,2527454300
12122,11,Pattern_Practice,23,9999,9999,9999,2527955020
12122,11,Pattern_Practice,24,9999,9999,9999,2528454768
12122,11,Pattern_Practice,25,9999,9999,9999,2528954440
12122,11,Pattern_Practice,26,9999,9999,9999,2529454164
12122,11,Pattern_Practice,27,9999,9999,9999,2529954884
12122,11,Pattern_Practice,28,9999,9999,9999,2530454632
12122,11,Pattern_Practice,29,9999,9999,9999,2530954360
12122,11,Pattern_Practice,30,9999,9999,9999,2531455096
12122,11,Pattern_Practice,31,9999,9999,9999,2531954776
12122,11,Pattern_Practice,32,9999,9999,9999,2532454512
12122,11,Pattern_Practice,33,9999,9999,9999,2532954208
12122,11,Pattern_Practice,34,9999,9999,9999,2533454928
12122,11,Pattern_Practice,35,9999,9999,9999,2533954624
12122,11,Pattern_Practice,36,9999,9999,9999,2534454320
12122,11,Pattern_Practice,37,9999,9999,9999,2534955060
12122,11,Pattern_Practice,38,9999,9999,9999,2535454828
12122,11,Pattern_Practice,39,9999,9999,9999,2535954504
12122,11,Pattern_Practice,40,9999,9999,9999,2536454252
12122,11,Pattern_Practice,41,9999,9999,9999,2536954944
12122,11,Pattern_Practice,42,9999,9999,9999,2537454644
12122,11,Pattern_Practice,43,9999,9999,9999,2537954424
12122,11,Pattern_Practice,44,9999,9999,9999,2538454120
12122,11,Pattern_Practice,45,9999,9999,9999,2538954856
12122,11,Pattern_Practice,46,9999,9999,9999,2539454536
12122,11,Pattern_Practice,47,9999,9999,9999,2539954224
12122,11,Pattern_Practice,48,9999,9999,9999,2540455016
12122,11,Pattern_Practice,49,9999,9999,9999,2540954692
12122,11,Pattern_Practice,50,9999,9999,9999,2541454384
12122,11,Pattern_Practice,51,9999,9999,9999,2541954164
12122,11,Pattern_Practice,52,9999,9999,9999,2542454892
12122,11,Pattern_Practice,53,9999,9999,9999,2542954564
12122,11,Pattern_Practice,54,9999,9999,9999,2543454328
12122,11,Pattern_Practice,55,9999,9999,9999,2543954992
12122,11,Pattern_Practice,56,9999,9999,9999,2544454760
12122,11,Pattern_Practice,57,9999,9999,9999,2544954436
12122,11,Pattern_Practice,58,9999,9999,9999,2545454128
12122,11,Pattern_Practice,59,9999,9999,9999,2545954888
12122,11,Pattern_Practice,60,9999,9999,9999,2546454584
12122,11,Pattern_Practice,61,9999,9999,9999,2546954292
12122,11,Pattern_Practice,62,9999,9999,9999,2547455032
12122,11,Pattern_Practice,63,9999,9999,9999,2547954804
12122,11,Pattern_Practice,64,9999,9999,9999,2548454500
12122,11,Pattern_Practice,65,9999,9999,9999,2548954192
12122,11,Pattern_Practice,66,9999,9999,9999,2549454920
12122,11,Pattern_Practice,67,9999,9999,9999,2549954628
12122,11,Pattern_Practice,68,9999,9999,9999,2550454324
12122,11,Pattern_Practice,69,9999,9999,9999,2550955120
12122,11,Pattern_Practice,70,9999,9999,9999,2551454812
12122,11,Pattern_Practice,71,9999,9999,9999,2551954508
12122,11,Pattern_Practice,72,9999,9999,9999,2552454200
12122,11,Pattern_Practice,73,9999,9999,9999,2552954948
12122,11,Pattern_Practice,74,9999,9999,9999,2553454696
12122,11,Pattern_Practice,75,9999,9999,9999,2553954368
12122,11,Pattern_Practice,76,9999,9999,9999,2554454132
12122,11,Pattern_Practice,77,9999,9999,9999,2554954872
12122,11,Pattern_Practice,78,9999,9999,9999,2555454544
12122,11,Pattern_Practice,79,9999,9999,9999,2555954240
12123,13,Improv_Metronome,0,5,42,127,2588021356
12123,13,Improv_Metronome,1,5,42,127,2588520896
12123,13,Improv_Metronome,2,5,42,127,2589020464
12123,13,Improv_Metronome,3,5,42,127,2589521452
12123,13,Improv_Metronome,4,1,38,53,2589523820
12123,13,Improv_Metronome,5,5,42,127,2590021144
12123,13,Improv_Metronome,6,1,48,52,2590073728
12123,13,Improv_Metronome,7,5,42,127,2590520764
12123,13,Improv_Metronome,8,1,48,47,2590522704
12123,13,Improv_Metronome,9,1,38,58,2590969480
12123,13,Improv_Metronome,10,5,42,127,2591021276
12123,13,Improv_Metronome,11,1,48,55,2591481220
12123,13,Improv_Metronome,12,5,42,127,2591521192
12123,13,Improv_Metronome,13,1,38,61,2591944040
12123,13,Improv_Metronome,14,1,38,36,2591985228
12123,13,Improv_Metronome,15,5,42,127,2592020792
12123,13,Improv_Metronome,16,1,48,56,2592454628
12123,13,Improv_Metronome,17,5,42,127,2592520560
12123,13,Improv_Metronome,18,1,48,51,2592955748
12123,13,Improv_Metronome,19,5,42,127,2593021228
12123,13,Improv_Metronome,20,1,38,59,2593468304
12123,13,Improv_Metronome,21,1,38,37,2593509796
12123,13,Improv_Metronome,22,5,42,127,2593520976
12123,13,Improv_Metronome,23,1,48,55,2593969024
12123,13,Improv_Metronome,24,5,42,127,2594020820
12123,13,Improv_Metronome,25,1,38,52,2594481664
12123,13,Improv_Metronome,26,5,42,127,2594520368
12123,13,Improv_Metronome,27,1,38,26,2594553992
12123,13,Improv_Metronome,28,1,38,54,2594949248
12123,13,Improv_Metronome,29,5,42,127,2595021088
12123,13,Improv_Metronome,30,1,38,48,2595203880
12123,13,Improv_Metronome,31,1,38,46,2595407532
12123,13,Improv_Metronome,32,5,42,127,2595520968
12123,13,Improv_Metronome,33,1,38,49,2595650648
12123,13,Improv_Metronome,34,1,38,70,2595858512
12123,13,Improv_Metronome,35,5,42,127,2596020568
12123,13,Improv_Metronome,36,1,48,75,2596418044
12123,13,Improv_Metronome,37,5,42,127,2596521232
12123,13,Improv_Metronome,38,1,38,76,2596905840
12123,13,Improv_Metronome,39,5,42,127,2597021152
12123,13,Improv_Metronome,40,1,38,60,2597153148
12123,13,Improv_Metronome,41,1,38,58,2597377468
12123,13,Improv_Metronome,42,5,42,127,2597520672
12123,13,Improv_Metronome,43,1,38,58,2597608236
12123,13,Improv_Metronome,44,1,48,73,2597901376
12123,13,Improv_Metronome,45,5,42,127,2598020496
12123,13,Improv_Metronome,46,1,38,69,2598369428
12123,13,Improv_Metronome,47,5,42,127,2598521160
12123,13,Improv_Metronome,48,1,38,62,2598582324
12123,13,Improv_Metronome,49,1,48,57,2598813224
12123,13,Improv_Metronome,50,5,42,127,2599020908
12123,13,Improv_Metronome,51,1,38,69,2599081544
12123,13,Improv_Metronome,52,1,38,43,2599125952
12123,13,Improv_Metronome,53,5,42,127,2599520704
12123,13,Improv_Metronome,54,1,48,52,2599629840
12123,13,Improv_Metronome,55,1,48,57,2599866048
12123,13,Improv_Metronome,56,5,42,127,2600021352
12123,13,Improv_Metronome,57,1,38,73,2600338596
12123,13,Improv_Metronome,58,1,38,44,2600385244
12123,13,Improv_Metronome,59,5,42,127,2600521100
12123,13,Improv_Metronome,60,1,48,54,2600834604
12123,13,Improv_Metronome,61,5,42,127,2601020720
12123,13,Improv_Metronome,62,1,48,53,2601406324
12123,13,Improv_Metronome,63,5,42,127,2601520488
12123,13,Improv_Metronome,64,1,38,52,2601911560
12123,13,Improv_Metronome,65,1,38,29,2601962624
12123,13,Improv_Metronome,66,5,42,127,2602021220
12123,13,Improv_Metronome,67,1,38,56,2602416316
12123,13,Improv_Metronome,68,5,42,127,2602520904
12123,13,Improv_Metronome,69,1,48,51,2602913844
12123,13,Improv_Metronome,70,5,42,127,2603020744
12123,13,Improv_Metronome,71,1,48,48,2603199364
12123,13,Improv_Metronome,72,1,38,65,2603429896
12123,13,Improv_Metronome,73,1,38,34,2603476172
12123,13,Improv_Metronome,74,5,42,127,2603521532
12123,13,Improv_Metronome,75,1,48,36,2603931812
12123,13,Improv_Metronome,76,5,42,127,2604021004
12123,13,Improv_Metronome,77,1,48,46,2604200428
12123,13,Improv_Metronome,78,1,38,84,2604404184
12123,13,Improv_Metronome,79,1,38,43,2604460780
12123,13,Improv_Metronome,80,5,42,127,2604520804
12123,13,Improv_Metronome,81,1,48,45,2604870168
12123,13,Improv_Metronome,82,5,42,127,2605020632
12123,13,Improv_Metronome,83,1,48,34,2605116948
12123,13,Improv_Metronome,84,1,38,68,2605340000
12123,13,Improv_Metronome,85,1,38,39,2605392336
12123,13,Improv_Metronome,86,5,42,127,2605521256
12123,13,Improv_Metronome,87,1,48,43,2605580996
12123,13,Improv_Metronome,88,1,48,38,2605829624
12123,13,Improv_Metronome,89,5,42,127,2606021000
12123,13,Improv_Metronome,90,1,48,45,2606025092
12123,13,Improv_Metronome,91,1,38,107,2606236996
12123,13,Improv_Metronome,92,1,38,50,2606280208
12123,13,Improv_Metronome,93,5,42,127,2606520800
12123,13,Improv_Metronome,94,1,48,43,2606547332
12123,13,Improv_Metronome,95,1,48,40,2606768060
12123,13,Improv_Metronome,96,1,48,40,2606926536
12123,13,Improv_Metronome,97,5,42,127,2607021348
12123,13,Improv_Metronome,98,1,38,83,2607164788
12123,13,Improv_Metronome,99,1,38,39,2607207852
12123,13,Improv_Metronome,100,1,48,47,2607413772
12123,13,Improv_Metronome,101,5,42,127,2607521076
12123,13,Improv_Metronome,102,1,48,35,2607635116
12123,13,Improv_Metronome,103,1,48,29,2607787484
12123,13,Improv_Metronome,104,5,42,127,2608020896
12123,13,Improv_Metronome,105,1,38,85,2608041220
12123,13,Improv_Metronome,106,1,38,51,2608077024
12123,13,Improv_Metronome,107,5,42,127,2608520644
12123,13,Improv_Metronome,108,1,48,50,2608556596
12123,13,Improv_Metronome,109,1,38,65,2609020556
12123,13,Improv_Metronome,110,5,42,127,2609023324
12123,13,Improv_Metronome,111,5,42,127,2609520932
12123,13,Improv_Metronome,112,1,48,43,2609543200
12123,13,Improv_Metronome,113,1,38,70,2609954660
12123,13,Improv_Metronome,114,1,38,43,2610011416
12123,13,Improv_Metronome,115,5,42,127,2610020648
12123,13,Improv_Metronome,116,1,48,53,2610437656
12123,13,Improv_Metronome,117,5,42,127,2610520344
12123,13,Improv_Metronome,118,1,38,71,2610914136
12123,13,Improv_Metronome,119,1,38,35,2610975376
12123,13,Improv_Metronome,120,5,42,127,2611021112
12123,13,Improv_Metronome,121,1,48,42,2611434156
12123,13,Improv_Metronome,122,5,42,127,2611520956
12123,13,Improv_Metronome,123,1,38,54,2611940360
12123,13,Improv_Metronome,124,1,48,17,2611974596
12123,13,Improv_Metronome,125,1,38,33,2611982580
12123,13,Improv_Metronome,126,5,42,127,2612020532
12123,13,Improv_Metronome,127,1,38,65,2612434908
12123,13,Improv_Metronome,128,1,38,46,2612472960
12123,13,Improv_Metronome,129,5,42,127,2612521388
12123,13,Improv_Metronome,130,1,38,78,2612956652
12123,13,Improv_Metronome,131,5,42,127,2613021012
12123,13,Improv_Metronome,132,1,48,56,2613463672
12123,13,Improv_Metronome,133,5,42,127,2613520704
12123,13,Improv_Metronome,134,1,48,42,2613945120
12123,13,Improv_Metronome,135,5,42,127,2614020328
12123,13,Improv_Metronome,136,1,38,81,2614446460
12123,13,Improv_Metronome,137,1,38,37,2614489152
12123,13,Improv_Metronome,138,5,42,127,2614521048
12123,13,Improv_Metronome,139,1,38,76,2614953536
12123,13,Improv_Metronome,140,1,38,55,2614983508
12123,13,Improv_Metronome,141,5,42,127,2615020868
12123,13,Improv_Metronome,142,1,48,45,2615434884
12123,13,Improv_Metronome,143,5,42,127,2615520936
12123,13,Improv_Metronome,144,1,38,77,2615934136
12123,13,Improv_Metronome,145,1,38,36,2615986692
12123,13,Improv_Metronome,146,5,42,127,2616021360
12123,13,Improv_Metronome,147,1,38,81,2616409844
12123,13,Improv_Metronome,148,1,38,56,2616445524
12123,13,Improv_Metronome,149,5,42,127,2616521180
12123,13,Improv_Metronome,150,1,48,48,2616865756
12123,13,Improv_Metronome,151,5,42,127,2617021008
12123,13,Improv_Metronome,152,1,38,66,2617344660
12123,13,Improv_Metronome,153,1,38,37,2617388840
12123,13,Improv_Metronome,154,5,42,127,2617520756
12123,13,Improv_Metronome,155,1,48,53,2617597252
12123,13,Improv_Metronome,156,1,38,73,2617775204
12123,13,Improv_Metronome,157,1,38,47,2617810184
12123,13,Improv_Metronome,158,5,42,127,2618021084
12123,13,Improv_Metronome,159,1,48,62,2618253856
12123,13,Improv_Metronome,160,1,48,39,2618322568
12123,13,Improv_Metronome,161,5,42,127,2618520904
12123,13,Improv_Metronome,162,1,38,68,2618780004
12123,13,Improv_Metronome,163,1,38,39,2618835632
12123,13,Improv_Metronome,164,5,42,127,2619020948
12123,13,Improv_Metronome,165,1,48,51,2619044412
12123,13,Improv_Metronome,166,1,38,63,2619221068
12123,13,Improv_Metronome,167,5,42,127,2619521296
12123,13,Improv_Metronome,168,1,48,59,2619620828
12123,13,Improv_Metronome,169,1,48,37,2619669948
12123,13,Improv_Metronome,170,5,42,127,2620021044
12123,13,Improv_Metronome,171,1,38,61,2620166504
12123,13,Improv_Metronome,172,1,38,36,2620215772
12123,13,Improv_Metronome,173,1,48,48,2620402616
12123,13,Improv_Metronome,174,5,42,127,2620520840
12123,13,Improv_Metronome,175,1,38,54,2620571456
12123,13,Improv_Metronome,176,1,48,49,2620987860
12123,13,Improv_Metronome,177,5,42,127,2621020876
12123,13,Improv_Metronome,178,1,48,21,2621067316
12123,13,Improv_Metronome,179,1,38,48,2621514760
12123,13,Improv_Metronome,180,5,42,127,2621521224
12123,13,Improv_Metronome,181,1,38,59,2621986180
12123,13,Improv_Metronome,182,1,38,40,2622022248
12123,13,Improv_Metronome,183,5,42,127,2622023892
12123,13,Improv_Metronome,184,1,48,46,2622422352
12123,13,Improv_Metronome,185,5,42,127,2622520800
12123,13,Improv_Metronome,186,1,38,49,2622917628
12123,13,Improv_Metronome,187,5,42,127,2623021544
12123,13,Improv_Metronome,188,1,38,46,2623374764
12123,13,Improv_Metronome,189,5,42,127,2623521164
12123,13,Improv_Metronome,190,1,48,62,2623898844
12123,13,Improv_Metronome,191,5,42,127,2624020712
12123,13,Improv_Metronome,192,1,38,67,2624372284
12123,13,Improv_Metronome,193,1,38,34,2624433600
12123,13,Improv_Metronome,194,5,42,127,2624520844
12123,13,Improv_Metronome,195,1,38,54,2624812544
12123,13,Improv_Metronome,196,1,38,33,2624854856
12123,13,Improv_Metronome,197,5,42,127,2625021180
12123,13,Improv_Metronome,198,1,48,41,2625303316
12123,13,Improv_Metronome,199,5,42,127,2625521024
12123,13,Improv_Metronome,200,1,38,61,2625767636
12123,13,Improv_Metronome,201,5,42,127,2626020644
12123,13,Improv_Metronome,202,1,38,54,2626199936
12123,13,Improv_Metronome,203,1,38,37,2626238356
12123,13,Improv_Metronome,204,5,42,127,2626520616
12123,13,Improv_Metronome,205,1,48,40,2626677992
12123,13,Improv_Metronome,206,5,42,127,2627021132
12123,13,Improv_Metronome,207,1,38,57,2627101744
12123,13,Improv_Metronome,208,1,38,37,2627146448
12123,13,Improv_Metronome,209,5,42,127,2627520732
12123,13,Improv_Metronome,210,1,48,40,2627553620
12123,13,Improv_Metronome,211,1,38,84,2627952844
12123,13,Improv_Metronome,212,1,38,48,2627996204
12123,13,Improv_Metronome,213,5,42,127,2628020696
12123,13,Improv_Metronome,214,1,48,35,2628451596
12123,13,Improv_Metronome,215,5,42,127,2628521364
12123,13,Improv_Metronome,216,1,38,70,2628918824
12123,13,Improv_Metronome,217,1,38,41,2628970812
12123,13,Improv_Metronome,218,5,42,127,2629020960
12123,13,Improv_Metronome,219,1,48,40,2629361572
12123,13,Improv_Metronome,220,5,42,127,2629520716
12123,13,Improv_Metronome,221,1,48,44,2629625260
12123,13,Improv_Metronome,222,1,48,46,2629793332
12123,13,Improv_Metronome,223,1,38,97,2629995816
12123,13,Improv_Metronome,224,5,42,127,2630020604
12123,13,Improv_Metronome,225,1,38,55,2630035152
12123,13,Improv_Metronome,226,1,48,42,2630403092
12123,13,Improv_Metronome,227,5,42,127,2630521312
12123,13,Improv_Metronome,228,1,38,58,2630910260
12123,13,Improv_Metronome,229,1,38,35,2630956764
12123,13,Improv_Metronome,230,5,42,127,2631020852
12123,13,Improv_Metronome,231,1,48,52,2631462812
12123,13,Improv_Metronome,232,5,42,127,2631520596
12123,13,Improv_Metronome,233,1,38,73,2631946652
12123,13,Improv_Metronome,234,1,38,39,2631995248
12123,13,Improv_Metronome,235,5,42,127,2632021612
12123,13,Improv_Metronome,236,5,42,127,2632520940
12123,13,Improv_Metronome,237,1,38,49,2632883364
12123,13,Improv_Metronome,238,5,42,127,2633020788
12123,13,Improv_Metronome,239,1,38,62,2633097152
12123,13,Improv_Metronome,240,1,38,59,2633288844
12123,13,Improv_Metronome,241,5,42,127,2633520384
12123,13,Improv_Metronome,242,1,48,49,2633593164
12123,13,Improv_Metronome,243,5,42,127,2634021200
12123,13,Improv_Metronome,244,1,38,79,2634038680
12123,13,Improv_Metronome,245,1,38,67,2634263296
12123,13,Improv_Metronome,246,1,38,52,2634445656
12123,13,Improv_Metronome,247,5,42,127,2634520792
12123,13,Improv_Metronome,248,1,48,46,2634670672
12123,13,Improv_Metronome,249,5,42,127,2635020544
12123,13,Improv_Metronome,250,1,38,70,2635134464
12123,13,Improv_Metronome,251,1,38,61,2635334300
12123,13,Improv_Metronome,252,5,42,127,2635521340
12123,13,Improv_Metronome,253,1,48,44,2635598132
12123,13,Improv_Metronome,254,5,42,127,2636021180
12123,13,Improv_Metronome,255,1,38,57,2636064688
12123,13,Improv_Metronome,256,5,42,127,2636520800
12123,13,Improv_Metronome,257,1,48,44,2636533120
12123,13,Improv_Metronome,258,1,38,65,2636937804
12123,13,Improv_Metronome,259,1,38,44,2636997020
12123,13,Improv_Metronome,260,5,42,127,2637020392
12123,13,Improv_Metronome,261,1,48,45,2637412768
12123,13,Improv_Metronome,262,1,48,19,2637493404
12123,13,Improv_Metronome,263,5,42,127,2637521336
12123,13,Improv_Metronome,264,1,38,58,2637837424
12123,13,Improv_Metronome,265,1,38,39,2637886240
12123,13,Improv_Metronome,266,5,42,127,2638020920
12123,13,Improv_Metronome,267,1,48,54,2638341360
12123,13,Improv_Metronome,268,5,42,127,2638520616
12123,13,Improv_Metronome,269,1,38,59,2638838136
12123,13,Improv_Metronome,270,1,38,38,2638880372
12123,13,Improv_Metronome,271,5,42,127,2639021484
12123,13,Improv_Metronome,272,1,48,42,2639387320
12123,13,Improv_Metronome,273,5,42,127,2639521252
12123,13,Improv_Metronome,274,1,38,40,2639613752
12123,13,Improv_Metronome,275,5,42,127,2640020724
12123,13,Improv_Metronome,276,1,38,48,2640077852
12123,13,Improv_Metronome,277,1,38,44,2640254076
12123,13,Improv_Metronome,278,5,42,127,2640520620
12123,13,Improv_Metronome,279,1,48,49,2640679616
12123,13,Improv_Metronome,280,5,42,127,2641021588
12123,13,Improv_Metronome,281,1,38,61,2641073024
12123,13,Improv_Metronome,282,1,38,41,2641113248
12123,13,Improv_Metronome,283,5,42,127,2641521036
12123,13,Improv_Metronome,284,1,48,39,2641561856
12123,13,Improv_Metronome,285,1,38,67,2641976832
12123,13,Improv_Metronome,286,5,42,127,2642020700
12123,13,Improv_Metronome,287,1,38,33,2642046168
12123,13,Improv_Metronome,288,1,38,54,2642280360
12123,13,Improv_Metronome,289,1,38,25,2642414228
12123,13,Improv_Metronome,290,5,42,127,2642520312
12123,13,Improv_Metronome,291,1,48,43,2642753528
12123,13,Improv_Metronome,292,5,42,127,2643021424
12123,13,Improv_Metronome,293,1,38,75,2643040480
12123,13,Improv_Metronome,294,1,38,38,2643119172
12123,13,Improv_Metronome,295,5,42,127,2643520876
12123,13,Improv_Metronome,296,1,48,40,2643544788
12123,13,Improv_Metronome,297,1,38,73,2644011552
12123,13,Improv_Metronome,298,5,42,127,2644020712
12123,13,Improv_Metronome,299,1,38,47,2644327392
12123,13,Improv_Metronome,300,5,42,127,2644521512
12123,13,Improv_Metronome,301,1,48,39,2644785628
12123,13,Improv_Metronome,302,5,42,127,2645021280
12123,13,Improv_Metronome,303,1,38,91,2645065992
12123,13,Improv_Metronome,304,1,38,50,2645128972
12123,13,Improv_Metronome,305,5,42,127,2645520732
12123,13,Improv_Metronome,306,1,48,34,2645560124
12123,13,Improv_Metronome,307,1,48,16,2645899060
12123,13,Improv_Metronome,308,5,42,127,2646020404
12123,13,Improv_Metronome,309,1,38,84,2646070120
12123,13,Improv_Metronome,310,1,38,43,2646125472
12123,13,Improv_Metronome,311,1,38,64,2646296364
12123,13,Improv_Metronome,312,1,38,34,2646339352
12123,13,Improv_Metronome,313,1,38,49,2646506680
12123,13,Improv_Metronome,314,5,42,127,2646521372
12123,13,Improv_Metronome,315,1,48,42,2646922452
12123,13,Improv_Metronome,316,5,42,127,2647020904
12123,13,Improv_Metronome,317,1,38,69,2647280304
12123,13,Improv_Metronome,318,1,38,43,2647335556
12123,13,Improv_Metronome,319,5,42,127,2647520500
12123,13,Improv_Metronome,320,1,48,36,2647844152
12123,13,Improv_Metronome,321,5,42,127,2648021316
12123,13,Improv_Metronome,322,1,38,60,2648291260
12123,13,Improv_Metronome,323,1,38,51,2648508104
12123,13,Improv_Metronome,324,5,42,127,2648521300
12123,13,Improv_Metronome,325,1,38,54,2648733564
12123,13,Improv_Metronome,326,1,38,26,2648789568
12123,13,Improv_Metronome,327,5,42,127,2649020736
12123,13,Improv_Metronome,328,1,48,34,2649193144
12123,13,Improv_Metronome,329,5,42,127,2649520356
12123,13,Improv_Metronome,330,1,38,61,2649585404
12123,13,Improv_Metronome,331,1,38,33,2649649188
12123,13,Improv_Metronome,332,1,38,57,2649942024
12123,13,Improv_Metronome,333,1,38,38,2649991540
12123,13,Improv_Metronome,334,5,42,127,2650021420
12123,13,Improv_Metronome,335,1,48,44,2650264052
12123,13,Improv_Metronome,336,5,42,127,2650521172
12123,13,Improv_Metronome,337,1,38,63,2650723252
12123,13,Improv_Metronome,338,1,38,26,2650905764
12123,13,Improv_Metronome,339,5,42,127,2651020844
12123,13,Improv_Metronome,340,1,48,27,2651412492
12123,13,Improv_Metronome,341,5,42,127,2651521364
12123,13,Improv_Metronome,342,1,38,50,2651856828
12123,13,Improv_Metronome,343,5,42,127,2652021280
12123,13,Improv_Metronome,344,1,48,47,2652383000
12123,13,Improv_Metronome,345,5,42,127,2652520824
12123,13,Improv_Metronome,346,1,38,43,2652939548
12123,13,Improv_Metronome,347,5,42,127,2653020588
12123,13,Improv_Metronome,348,1,48,42,2653432188
12123,13,Improv_Metronome,349,5,42,127,2653521228
12123,13,Improv_Metronome,350,1,38,55,2653973992
12123,13,Improv_Metronome,351,5,42,127,2654021148
12123,13,Improv_Metronome,352,1,38,24,2654035248
12123,13,Improv_Metronome,353,1,48,40,2654450400
12123,13,Improv_Metronome,354,5,42,127,2654520596
12123,13,Improv_Metronome,355,1,38,64,2654980836
12123,13,Improv_Metronome,356,5,42,127,2655021560
12123,13,Improv_Metronome,357,1,38,41,2655039396
12123,13,Improv_Metronome,358,5,42,127,2655521240
12123,13,Improv_Metronome,359,1,48,40,2655538648
12123,13,Improv_Metronome,360,1,38,60,2655997704
12123,13,Improv_Metronome,361,5,42,127,2656021004
12123,13,Improv_Metronome,362,1,38,17,2656088956
12123,13,Improv_Metronome,363,1,38,51,2656256656
12123,13,Improv_Metronome,364,1,38,41,2656431980
12123,13,Improv_Metronome,365,5,42,127,2656520504
12123,13,Improv_Metronome,366,1,48,44,2656606484
12123,13,Improv_Metronome,367,5,42,127,2657021380
12123,13,Improv_Metronome,368,1,38,57,2657041104
12123,13,Improv_Metronome,369,1,38,30,2657105184
12123,13,Improv_Metronome,370,1,38,53,2657296968
12123,13,Improv_Metronome,371,1,38,30,2657344072
12123,13,Improv_Metronome,372,5,42,127,2657521008
12123,13,Improv_Metronome,373,1,48,39,2657588456
12123,13,Improv_Metronome,374,1,38,61,2658008768
12123,13,Improv_Metronome,0,9999,9999,9999,2588018768
12123,13,Improv_Metronome,1,9999,9999,9999,2588518460
12123,13,Improv_Metronome,2,9999,9999,9999,2589018176
12123,13,Improv_Metronome,3,9999,9999,9999,2589518940
12123,13,Improv_Metronome,4,9999,9999,9999,2590018636
12123,13,Improv_Metronome,5,9999,9999,9999,2590518328
12123,13,Improv_Metronome,6,9999,9999,9999,2591019064
12123,13,Improv_Metronome,7,9999,9999,9999,2591518832
12123,13,Improv_Metronome,8,9999,9999,9999,2592018504
12123,13,Improv_Metronome,9,9999,9999,9999,2592518200
12123,13,Improv_Metronome,10,9999,9999,9999,2593018940
12123,13,Improv_Metronome,11,9999,9999,9999,2593518688
12123,13,Improv_Metronome,12,9999,9999,9999,2594018384
12123,13,Improv_Metronome,13,9999,9999,9999,2594518080
12123,13,Improv_Metronome,14,9999,9999,9999,2595018800
12123,13,Improv_Metronome,15,9999,9999,9999,2595518532
12123,13,Improv_Metronome,16,9999,9999,9999,2596018280
12123,13,Improv_Metronome,17,9999,9999,9999,2596519020
12123,13,Improv_Metronome,18,9999,9999,9999,2597018712
12123,13,Improv_Metronome,19,9999,9999,9999,2597518384
12123,13,Improv_Metronome,20,9999,9999,9999,2598018132
12123,13,Improv_Metronome,21,9999,9999,9999,2598518872
12123,13,Improv_Metronome,22,9999,9999,9999,2599018548
12123,13,Improv_Metronome,23,9999,9999,9999,2599518268
12123,13,Improv_Metronome,24,9999,9999,9999,2600019064
12123,13,Improv_Metronome,25,9999,9999,9999,2600518736
12123,13,Improv_Metronome,26,9999,9999,9999,2601018432
12123,13,Improv_Metronome,27,9999,9999,9999,2601518200
12123,13,Improv_Metronome,28,9999,9999,9999,2602018936
12123,13,Improv_Metronome,29,9999,9999,9999,2602518616
12123,13,Improv_Metronome,30,9999,9999,9999,2603018308
12123,13,Improv_Metronome,31,9999,9999,9999,2603519096
12123,13,Improv_Metronome,32,9999,9999,9999,2604018792
12123,13,Improv_Metronome,33,9999,9999,9999,2604518516
12123,13,Improv_Metronome,34,9999,9999,9999,2605018196
12123,13,Improv_Metronome,35,9999,9999,9999,2605518968
12123,13,Improv_Metronome,36,9999,9999,9999,2606018640
12123,13,Improv_Metronome,37,9999,9999,9999,2606518364
12123,13,Improv_Metronome,38,9999,9999,9999,2607019060
12123,13,Improv_Metronome,39,9999,9999,9999,2607518788
12123,13,Improv_Metronome,40,9999,9999,9999,2608018532
12123,13,Improv_Metronome,41,9999,9999,9999,2608518204
12123,13,Improv_Metronome,42,9999,9999,9999,2609018948
12123,13,Improv_Metronome,43,9999,9999,9999,2609518644
12123,13,Improv_Metronome,44,9999,9999,9999,2610018360
12123,13,Improv_Metronome,45,9999,9999,9999,2610518128
12123,13,Improv_Metronome,46,9999,9999,9999,2611018824
12123,13,Improv_Metronome,47,9999,9999,9999,2611518520
12123,13,Improv_Metronome,48,9999,9999,9999,2612018248
12123,13,Improv_Metronome,49,9999,9999,9999,2612519024
12123,13,Improv_Metronome,50,9999,9999,9999,2613018724
12123,13,Improv_Metronome,51,9999,9999,9999,2613518416
12123,13,Improv_Metronome,52,9999,9999,9999,2614018112
12123,13,Improv_Metronome,53,9999,9999,9999,2614518832
12123,13,Improv_Metronome,54,9999,9999,9999,2615018580
12123,13,Improv_Metronome,55,9999,9999,9999,2615518276
12123,13,Improv_Metronome,56,9999,9999,9999,2616018996
12123,13,Improv_Metronome,57,9999,9999,9999,2616518744
12123,13,Improv_Metronome,58,9999,9999,9999,2617018424
12123,13,Improv_Metronome,59,9999,9999,9999,2617518168
12123,13,Improv_Metronome,60,9999,9999,9999,2618018868
12123,13,Improv_Metronome,61,9999,9999,9999,2618518616
12123,13,Improv_Metronome,62,9999,9999,9999,2619018288
12123,13,Improv_Metronome,63,9999,9999,9999,2619519084
12123,13,Improv_Metronome,64,9999,9999,9999,2620018756
12123,13,Improv_Metronome,65,9999,9999,9999,2620518456
12123,13,Improv_Metronome,66,9999,9999,9999,2621018216
12123,13,Improv_Metronome,67,9999,9999,9999,2621518936
12123,13,Improv_Metronome,68,9999,9999,9999,2622018632
12123,13,Improv_Metronome,69,9999,9999,9999,2622518364
12123,13,Improv_Metronome,70,9999,9999,9999,2623019104
12123,13,Improv_Metronome,71,9999,9999,9999,2623518800
12123,13,Improv_Metronome,72,9999,9999,9999,2624018496
12123,13,Improv_Metronome,73,9999,9999,9999,2624518260
12123,13,Improv_Metronome,74,9999,9999,9999,2625018964
12123,13,Improv_Metronome,75,9999,9999,9999,2625518660
12123,13,Improv_Metronome,76,9999,9999,9999,2626018356
12123,13,Improv_Metronome,77,9999,9999,9999,2626518104
12123,13,Improv_Metronome,78,9999,9999,9999,2627018844
12123,13,Improv_Metronome,79,9999,9999,9999,2627518516
12123,13,Improv_Metronome,80,9999,9999,9999,2628018260
12123,13,Improv_Metronome,81,9999,9999,9999,2628519000
12123,13,Improv_Metronome,82,9999,9999,9999,2629018672
12123,13,Improv_Metronome,83,9999,9999,9999,2629518428
12123,13,Improv_Metronome,84,9999,9999,9999,2630018168
12123,13,Improv_Metronome,85,9999,9999,9999,2630518876
12123,13,Improv_Metronome,86,9999,9999,9999,2631018564
12123,13,Improv_Metronome,87,9999,9999,9999,2631518308
12123,13,Improv_Metronome,88,9999,9999,9999,2632019028
12123,13,Improv_Metronome,89,9999,9999,9999,2632518728
12123,13,Improv_Metronome,90,9999,9999,9999,2633018424
12123,13,Improv_Metronome,91,9999,9999,9999,2633518168
12123,13,Improv_Metronome,92,9999,9999,9999,2634018912
12123,13,Improv_Metronome,93,9999,9999,9999,2634518580
12123,13,Improv_Metronome,94,9999,9999,9999,2635018332
12123,13,Improv_Metronome,95,9999,9999,9999,2635519052
12123,13,Improv_Metronome,96,9999,9999,9999,2636018744
12123,13,Improv_Metronome,97,9999,9999,9999,2636518512
12123,13,Improv_Metronome,98,9999,9999,9999,2637018180
12123,13,Improv_Metronome,99,9999,9999,9999,2637518900
12123,13,Improv_Metronome,100,9999,9999,9999,2638018632
12123,13,Improv_Metronome,101,9999,9999,9999,2638518328
12123,13,Improv_Metronome,102,9999,9999,9999,2639019120
12123,13,Improv_Metronome,103,9999,9999,9999,2639518816
12123,13,Improv_Metronome,104,9999,9999,9999,2640018512
12123,13,Improv_Metronome,105,9999,9999,9999,2640518260
12123,13,Improv_Metronome,106,9999,9999,9999,2641019000
12123,13,Improv_Metronome,107,9999,9999,9999,2641518672
12123,13,Improv_Metronome,108,9999,9999,9999,2642018412
12123,13,Improv_Metronome,109,9999,9999,9999,2642518100
12123,13,Improv_Metronome,110,9999,9999,9999,2643018840
12123,13,Improv_Metronome,111,9999,9999,9999,2643518512
12123,13,Improv_Metronome,112,9999,9999,9999,2644018276
12123,13,Improv_Metronome,113,9999,9999,9999,2644519000
12123,13,Improv_Metronome,114,9999,9999,9999,2645018696
12123,13,Improv_Metronome,115,9999,9999,9999,2645518444
12123,13,Improv_Metronome,116,9999,9999,9999,2646018116
12123,13,Improv_Metronome,117,9999,9999,9999,2646518864
12123,13,Improv_Metronome,118,9999,9999,9999,2647018616
12123,13,Improv_Metronome,119,9999,9999,9999,2647518288
12123,13,Improv_Metronome,120,9999,9999,9999,2648019028
12123,13,Improv_Metronome,121,9999,9999,9999,2648518716
12123,13,Improv_Metronome,122,9999,9999,9999,2649018448
12123,13,Improv_Metronome,123,9999,9999,9999,2649518144
12123,13,Improv_Metronome,124,9999,9999,9999,2650018908
12123,13,Improv_Metronome,125,9999,9999,9999,2650518588
12123,13,Improv_Metronome,126,9999,9999,9999,2651018332
12123,13,Improv_Metronome,127,9999,9999,9999,2651519076
12123,13,Improv_Metronome,128,9999,9999,9999,2652018768
12123,13,Improv_Metronome,129,9999,9999,9999,2652518464
12123,13,Improv_Metronome,130,9999,9999,9999,2653018224
12123,13,Improv_Metronome,131,9999,9999,9999,2653518940
12123,13,Improv_Metronome,132,9999,9999,9999,2654018636
12123,13,Improv_Metronome,133,9999,9999,9999,2654518384
12123,13,Improv_Metronome,134,9999,9999,9999,2655019124
12123,13,Improv_Metronome,135,9999,9999,9999,2655518804
12123,13,Improv_Metronome,136,9999,9999,9999,2656018492
12123,13,Improv_Metronome,137,9999,9999,9999,2656518216
12123,13,Improv_Metronome,138,9999,9999,9999,2657018944
12123,13,Improv_Metronome,139,9999,9999,9999,2657518648
12124,14,Improv_Melody,0,2,48,80,2710348216
12124,14,Improv_Melody,1,2,72,80,2710350888
12124,14,Improv_Melody,2,5,42,127,2710352448
12124,14,Improv_Melody,3,5,42,110,2710844916
12124,14,Improv_Melody,4,5,42,110,2711344636
12124,14,Improv_Melody,5,5,42,110,2711845256
12124,14,Improv_Melody,6,5,42,127,2712345052
12124,14,Improv_Melody,7,5,42,110,2712844700
12124,14,Improv_Melody,8,5,42,110,2713345392
12124,14,Improv_Melody,9,5,42,110,2713845116
12124,14,Improv_Melody,10,2,43,80,2714347344
12124,14,Improv_Melody,11,2,67,80,2714349492
12124,14,Improv_Melody,12,5,42,127,2714352180
12124,14,Improv_Melody,13,5,42,110,2714844496
12124,14,Improv_Melody,14,5,42,110,2715345116
12124,14,Improv_Melody,15,5,42,110,2715844912
12124,14,Improv_Melody,16,5,42,127,2716344856
12124,14,Improv_Melody,17,1,38,40,2716361964
12124,14,Improv_Melody,18,5,42,110,2716845380
12124,14,Improv_Melody,19,1,48,32,2716881936
12124,14,Improv_Melody,20,1,38,47,2717283480
12124,14,Improv_Melody,21,5,42,110,2717345148
12124,14,Improv_Melody,22,1,38,41,2717772676
12124,14,Improv_Melody,23,5,42,110,2717844924
12124,14,Improv_Melody,24,1,48,31,2718295420
12124,14,Improv_Melody,25,2,45,80,2718347204
12124,14,Improv_Melody,26,2,69,80,2718349360
12124,14,Improv_Melody,27,5,42,127,2718352040
12124,14,Improv_Melody,28,5,42,110,2718845392
12124,14,Improv_Melody,29,1,38,48,2718849184
12124,14,Improv_Melody,30,5,42,110,2719345016
12124,14,Improv_Melody,31,1,38,50,2719371696
12124,14,Improv_Melody,32,5,42,110,2719844864
12124,14,Improv_Melody,33,1,48,34,2719863844
12124,14,Improv_Melody,34,1,38,48,2720294380
12124,14,Improv_Melody,35,5,42,127,2720344536
12124,14,Improv_Melody,36,1,38,49,2720779196
12124,14,Improv_Melody,37,5,42,110,2720845132
12124,14,Improv_Melody,38,1,48,32,2721304548
12124,14,Improv_Melody,39,5,42,110,2721344836
12124,14,Improv_Melody,40,1,38,56,2721768200
12124,14,Improv_Melody,41,1,38,31,2721815228
12124,14,Improv_Melody,42,5,42,110,2721844736
12124,14,Improv_Melody,43,1,38,48,2722252996
12124,14,Improv_Melody,44,2,41,80,2722347840
12124,14,Improv_Melody,45,2,65,80,2722350144
12124,14,Improv_Melody,46,5,42,127,2722352680
12124,14,Improv_Melody,47,1,48,30,2722762956
12124,14,Improv_Melody,48,5,42,110,2722845124
12124,14,Improv_Melody,49,1,38,51,2723277688
12124,14,Improv_Melody,50,5,42,110,2723344824
12124,14,Improv_Melody,51,1,38,49,2723742384
12124,14,Improv_Melody,52,5,42,110,2723844360
12124,14,Improv_Melody,53,1,48,32,2724291828
12124,14,Improv_Melody,54,5,42,127,2724345196
12124,14,Improv_Melody,55,1,38,48,2724777020
12124,14,Improv_Melody,56,5,42,110,2724844972
12124,14,Improv_Melody,57,1,38,51,2725263552
12124,14,Improv_Melody,58,5,42,110,2725344672
12124,14,Improv_Melody,59,1,48,31,2725777764
12124,14,Improv_Melody,60,5,42,110,2725845344
12124,14,Improv_Melody,61,1,38,52,2726266092
12124,14,Improv_Melody,62,2,48,80,2726347772
12124,14,Improv_Melody,63,2,72,80,2726349696
12124,14,Improv_Melody,64,5,42,127,2726352236
12124,14,Improv_Melody,65,1,38,48,2726759672
12124,14,Improv_Melody,66,5,42,110,2726844904
12124,14,Improv_Melody,67,1,48,24,2727318760
12124,14,Improv_Melody,68,5,42,110,2727344604
12124,14,Improv_Melody,69,1,38,50,2727776328
12124,14,Improv_Melody,70,5,42,110,2727845200
12124,14,Improv_Melody,71,1,38,45,2728224116
12124,14,Improv_Melody,72,5,42,127,2728344888
12124,14,Improv_Melody,73,1,48,29,2728762184
12124,14,Improv_Melody,74,5,42,110,2728844752
12124,14,Improv_Melody,75,1,38,51,2729236752
12124,14,Improv_Melody,76,5,42,110,2729345404
12124,14,Improv_Melody,77,1,38,52,2729736304
12124,14,Improv_Melody,78,5,42,110,2729844956
12124,14,Improv_Melody,79,1,48,41,2730251708
12124,14,Improv_Melody,80,2,43,80,2730347172
12124,14,Improv_Melody,81,2,67,80,2730349472
12124,14,Improv_Melody,82,5,42,127,2730352820
12124,14,Improv_Melody,83,1,38,56,2730766228
12124,14,Improv_Melody,84,1,38,31,2730816624
12124,14,Improv_Melody,85,5,42,110,2730844784
12124,14,Improv_Melody,86,1,38,57,2731261792
12124,14,Improv_Melody,87,1,38,38,2731300220
12124,14,Improv_Melody,88,5,42,110,2731345136
12124,14,Improv_Melody,89,1,48,31,2731732300
12124,14,Improv_Melody,90,5,42,110,2731845044
12124,14,Improv_Melody,91,1,38,60,2732232076
12124,14,Improv_Melody,92,1,38,31,2732284040
12124,14,Improv_Melody,93,5,42,127,2732344740
12124,14,Improv_Melody,94,1,38,51,2732722184
12124,14,Improv_Melody,95,1,38,34,2732760680
12124,14,Improv_Melody,96,5,42,110,2732845388
12124,14,Improv_Melody,97,1,48,29,2733224032
12124,14,Improv_Melody,98,5,42,110,2733345148
12124,14,Improv_Melody,99,1,38,55,2733717820
12124,14,Improv_Melody,100,1,38,33,2733763948
12124,14,Improv_Melody,101,5,42,110,2733844840
12124,14,Improv_Melody,102,1,38,54,2734200664
12124,14,Improv_Melody,103,2,45,80,2734347028
12124,14,Improv_Melody,104,2,69,80,2734349484
12124,14,Improv_Melody,105,5,42,127,2734351796
12124,14,Improv_Melody,106,1,48,32,2734676272
12124,14,Improv_Melody,107,5,42,110,2734845508
12124,14,Improv_Melody,108,1,38,53,2735137300
12124,14,Improv_Melody,109,1,38,33,2735180064
12124,14,Improv_Melody,110,5,42,110,2735344888
12124,14,Improv_Melody,111,1,38,46,2735559408
12124,14,Improv_Melody,112,5,42,110,2735844740
12124,14,Improv_Melody,113,1,48,33,2736023584
12124,14,Improv_Melody,114,5,42,127,2736344660
12124,14,Improv_Melody,115,1,38,45,2736468132
12124,14,Improv_Melody,116,5,42,110,2736845260
12124,14,Improv_Melody,117,1,38,46,2736890192
12124,14,Improv_Melody,118,1,48,35,2737318212
12124,14,Improv_Melody,119,5,42,110,2737344804
12124,14,Improv_Melody,120,1,38,44,2737793232
12124,14,Improv_Melody,121,5,42,110,2737844728
12124,14,Improv_Melody,122,1,38,51,2738256772
12124,14,Improv_Melody,123,2,41,80,2738347980
12124,14,Improv_Melody,124,2,65,80,2738351400
12124,14,Improv_Melody,125,5,42,127,2738353712
12124,14,Improv_Melody,126,1,48,31,2738726136
12124,14,Improv_Melody,127,5,42,110,2738844960
12124,14,Improv_Melody,128,1,38,49,2739228904
12124,14,Improv_Melody,129,5,42,110,2739344736
12124,14,Improv_Melody,130,1,38,49,2739675348
12124,14,Improv_Melody,131,5,42,110,2739844588
12124,14,Improv_Melody,132,1,48,36,2740136896
12124,14,Improv_Melody,133,5,42,127,2740345184
12124,14,Improv_Melody,134,1,38,46,2740591872
12124,14,Improv_Melody,135,5,42,110,2740844884
12124,14,Improv_Melody,136,1,38,47,2741038588
12124,14,Improv_Melody,137,5,42,110,2741344784
12124,14,Improv_Melody,138,1,48,36,2741515024
12124,14,Improv_Melody,139,5,42,110,2741845456
12124,14,Improv_Melody,140,1,38,47,2741990496
12124,14,Improv_Melody,141,2,48,80,2742347660
12124,14,Improv_Melody,142,2,72,80,2742349892
12124,14,Improv_Melody,143,5,42,127,2742352424
12124,14,Improv_Melody,144,1,48,24,2742435748
12124,14,Improv_Melody,145,5,42,110,2742844796
12124,14,Improv_Melody,146,1,38,36,2742964624
12124,14,Improv_Melody,147,5,42,110,2743344568
12124,14,Improv_Melody,148,1,48,32,2743358984
12124,14,Improv_Melody,149,1,38,49,2743788724
12124,14,Improv_Melody,150,5,42,110,2743845308
12124,14,Improv_Melody,151,1,38,56,2744223496
12124,14,Improv_Melody,152,1,38,40,2744255868
12124,14,Improv_Melody,153,5,42,127,2744345064
12124,14,Improv_Melody,154,1,48,33,2744678972
12124,14,Improv_Melody,155,5,42,110,2744844600
12124,14,Improv_Melody,156,1,38,49,2745144840
12124,14,Improv_Melody,157,5,42,110,2745345344
12124,14,Improv_Melody,158,1,38,52,2745557696
12124,14,Improv_Melody,159,5,42,110,2745845272
12124,14,Improv_Melody,160,1,48,29,2745953952
12124,14,Improv_Melody,161,2,43,80,2746347476
12124,14,Improv_Melody,162,2,67,80,2746349476
12124,14,Improv_Melody,163,5,42,127,2746352088
12124,14,Improv_Melody,164,1,38,49,2746385432
12124,14,Improv_Melody,165,1,48,25,2746828108
12124,14,Improv_Melody,166,5,42,110,2746844456
12124,14,Improv_Melody,167,1,48,32,2747304996
12124,14,Improv_Melody,168,5,42,110,2747345348
12124,14,Improv_Melody,169,1,38,48,2747749716
12124,14,Improv_Melody,170,5,42,110,2747844900
12124,14,Improv_Melody,171,1,38,52,2748214392
12124,14,Improv_Melody,172,5,42,127,2748344660
12124,14,Improv_Melody,173,1,48,29,2748656116
12124,14,Improv_Melody,174,5,42,110,2748845480
12124,14,Improv_Melody,175,1,38,47,2749101440
12124,14,Improv_Melody,176,5,42,110,2749345328
12124,14,Improv_Melody,177,1,38,49,2749507096
12124,14,Improv_Melody,178,5,42,110,2749844808
12124,14,Improv_Melody,179,1,48,32,2749909036
12124,14,Improv_Melody,180,2,45,80,2750347316
12124,14,Improv_Melody,181,2,69,80,2750349312
12124,14,Improv_Melody,182,5,42,127,2750351776
12124,14,Improv_Melody,183,1,38,46,2750355416
12124,14,Improv_Melody,184,1,38,45,2750836020
12124,14,Improv_Melody,185,5,42,110,2750845260
12124,14,Improv_Melody,186,1,48,26,2751280868
12124,14,Improv_Melody,187,5,42,110,2751345036
12124,14,Improv_Melody,188,1,38,48,2751740700
12124,14,Improv_Melody,189,5,42,110,2751844720
12124,14,Improv_Melody,190,1,38,48,2752255808
12124,14,Improv_Melody,191,5,42,127,2752344412
12124,14,Improv_Melody,192,1,48,34,2752738388
12124,14,Improv_Melody,193,5,42,110,2752845292
12124,14,Improv_Melody,194,1,38,51,2753221252
12124,14,Improv_Melody,195,5,42,110,2753344768
12124,14,Improv_Melody,196,1,38,51,2753671364
12124,14,Improv_Melody,197,5,42,110,2753844544
12124,14,Improv_Melody,198,1,48,35,2754211376
12124,14,Improv_Melody,199,2,41,80,2754347872
12124,14,Improv_Melody,200,2,65,80,2754350020
12124,14,Improv_Melody,201,5,42,127,2754352632
12124,14,Improv_Melody,202,1,38,44,2754647192
12124,14,Improv_Melody,203,5,42,110,2754845228
12124,14,Improv_Melody,204,1,38,45,2755132300
12124,14,Improv_Melody,205,5,42,110,2755344852
12124,14,Improv_Melody,206,1,48,28,2755634248
12124,14,Improv_Melody,207,5,42,110,2755844552
12124,14,Improv_Melody,208,1,38,45,2756099688
12124,14,Improv_Melody,209,5,42,127,2756345372
12124,14,Improv_Melody,210,1,38,45,2756561764
12124,14,Improv_Melody,211,5,42,110,2756844776
12124,14,Improv_Melody,212,1,48,31,2756965348
12124,14,Improv_Melody,213,5,42,110,2757344772
12124,14,Improv_Melody,214,1,38,44,2757395160
12124,14,Improv_Melody,215,1,38,46,2757794384
12124,14,Improv_Melody,216,5,42,110,2757845288
12124,14,Improv_Melody,217,1,48,28,2758241276
12124,14,Improv_Melody,218,2,48,80,2758347548
12124,14,Improv_Melody,219,2,72,80,2758350004
12124,14,Improv_Melody,220,5,42,127,2758352464
12124,14,Improv_Melody,221,1,38,45,2758698632
12124,14,Improv_Melody,222,5,42,110,2758844836
12124,14,Improv_Melody,223,1,38,48,2759175372
12124,14,Improv_Melody,224,5,42,110,2759344612
12124,14,Improv_Melody,225,1,48,26,2759599972
12124,14,Improv_Melody,226,5,42,110,2759845356
12124,14,Improv_Melody,227,1,38,39,2760083668
12124,14,Improv_Melody,228,5,42,127,2760345132
12124,14,Improv_Melody,229,1,38,40,2760468752
12124,14,Improv_Melody,230,5,42,110,2760844608
12124,14,Improv_Melody,231,1,48,30,2760884308
12124,14,Improv_Melody,232,1,38,44,2761272056
12124,14,Improv_Melody,233,5,42,110,2761345276
12124,14,Improv_Melody,234,1,38,49,2761681928
12124,14,Improv_Melody,235,5,42,110,2761845184
12124,14,Improv_Melody,236,1,48,30,2762088052
12124,14,Improv_Melody,237,2,43,80,2762347308
12124,14,Improv_Melody,238,2,67,80,2762349768
12124,14,Improv_Melody,239,5,42,127,2762352300
12124,14,Improv_Melody,240,1,38,40,2762503748
12124,14,Improv_Melody,241,1,38,46,2762843216
12124,14,Improv_Melody,242,5,42,110,2762845536
12124,14,Improv_Melody,243,1,48,29,2763190892
12124,14,Improv_Melody,244,5,42,110,2763345296
12124,14,Improv_Melody,245,1,38,46,2763644812
12124,14,Improv_Melody,246,5,42,110,2763845144
12124,14,Improv_Melody,247,1,38,38,2764000804
12124,14,Improv_Melody,248,5,42,127,2764344548
12124,14,Improv_Melody,249,1,48,31,2764409768
12124,14,Improv_Melody,250,1,38,45,2764845444
12124,14,Improv_Melody,251,5,42,110,2764847604
12124,14,Improv_Melody,252,1,38,47,2765256988
12124,14,Improv_Melody,253,5,42,110,2765345212
12124,14,Improv_Melody,254,1,48,25,2765619484
12124,14,Improv_Melody,255,5,42,110,2765845116
12124,14,Improv_Melody,256,1,38,42,2766174308
12124,14,Improv_Melody,257,2,45,80,2766347328
12124,14,Improv_Melody,258,2,69,80,2766349328
12124,14,Improv_Melody,259,5,42,127,2766352012
12124,14,Improv_Melody,260,1,38,42,2766599372
12124,14,Improv_Melody,261,5,42,110,2766845204
12124,14,Improv_Melody,262,1,48,24,2767176408
12124,14,Improv_Melody,263,5,42,110,2767345128
12124,14,Improv_Melody,264,1,38,46,2767754300
12124,14,Improv_Melody,265,5,42,110,2767844916
12124,14,Improv_Melody,266,1,38,43,2768258932
12124,14,Improv_Melody,267,5,42,127,2768344468
12124,14,Improv_Melody,268,1,48,29,2768744948
12124,14,Improv_Melody,269,5,42,110,2768845200
12124,14,Improv_Melody,270,1,38,46,2769219788
12124,14,Improv_Melody,271,5,42,110,2769345048
12124,14,Improv_Melody,272,1,38,51,2769721808
12124,14,Improv_Melody,273,5,42,110,2769844452
12124,14,Improv_Melody,274,1,48,35,2770238560
12124,14,Improv_Melody,275,2,41,80,2770347924
12124,14,Improv_Melody,276,2,65,80,2770350072
12124,14,Improv_Melody,277,5,42,127,2770352612
12124,14,Improv_Melody,278,1,38,46,2770771928
12124,14,Improv_Melody,279,5,42,110,2770844996
12124,14,Improv_Melody,280,1,38,48,2771285544
12124,14,Improv_Melody,281,5,42,110,2771344696
12124,14,Improv_Melody,282,1,48,38,2771755768
12124,14,Improv_Melody,283,5,42,110,2771844396
12124,14,Improv_Melody,284,1,38,43,2772236476
12124,14,Improv_Melody,285,5,42,127,2772345204
12124,14,Improv_Melody,286,1,38,57,2772712088
12124,14,Improv_Melody,287,5,42,110,2772844828
12124,14,Improv_Melody,288,1,48,39,2773177384
12124,14,Improv_Melody,289,5,42,110,2773344752
12124,14,Improv_Melody,290,1,38,45,2773666836
12124,14,Improv_Melody,291,5,42,110,2773845400
12124,14,Improv_Melody,292,1,38,55,2774130180
12124,14,Improv_Melody,293,1,38,35,2774170396
12124,14,Improv_Melody,294,2,48,80,2774347812
12124,14,Improv_Melody,295,2,72,80,2774349808
12124,14,Improv_Melody,296,5,42,127,2774352344
12124,14,Improv_Melody,297,1,48,32,2774608456
12124,14,Improv_Melody,298,5,42,110,2774844716
12124,14,Improv_Melody,299,1,38,47,2775028420
12124,14,Improv_Melody,300,5,42,110,2775344640
12124,14,Improv_Melody,301,1,38,52,2775458860
12124,14,Improv_Melody,302,5,42,110,2775845160
12124,14,Improv_Melody,303,1,48,36,2775883136
12124,14,Improv_Melody,304,1,38,39,2776293952
12124,14,Improv_Melody,305,5,42,127,2776344928
12124,14,Improv_Melody,306,1,38,52,2776759168
12124,14,Improv_Melody,307,5,42,110,2776844928
12124,14,Improv_Melody,308,1,48,38,2777200832
12124,14,Improv_Melody,309,5,42,110,2777345508
12124,14,Improv_Melody,310,1,38,53,2777659664
12124,14,Improv_Melody,311,5,42,110,2777844988
12124,14,Improv_Melody,312,1,38,46,2778098852
12124,14,Improv_Melody,313,2,43,80,2778347340
12124,14,Improv_Melody,314,2,67,80,2778349564
12124,14,Improv_Melody,315,5,42,127,2778352028
12124,14,Improv_Melody,316,1,48,59,2778564380
12124,14,Improv_Melody,317,5,42,110,2778844620
12124,14,Improv_Melody,318,1,38,46,2778953808
12124,14,Improv_Melody,319,1,38,31,2778997188
12124,14,Improv_Melody,320,5,42,110,2779345200
12124,14,Improv_Melody,321,1,48,40,2779403744
12124,14,Improv_Melody,322,1,38,66,2779802068
12124,14,Improv_Melody,323,5,42,110,2779844968
12124,14,Improv_Melody,324,1,38,60,2780253280
12124,14,Improv_Melody,325,1,38,38,2780290156
12124,14,Improv_Melody,326,5,42,127,2780344796
12124,14,Improv_Melody,327,1,48,36,2780661180
12124,14,Improv_Melody,328,5,42,110,2780845308
12124,14,Improv_Melody,329,1,38,65,2781078680
12124,14,Improv_Melody,330,1,38,38,2781120240
12124,14,Improv_Melody,331,5,42,110,2781345132
12124,14,Improv_Melody,332,1,38,56,2781492008
12124,14,Improv_Melody,333,5,42,110,2781844832
12124,14,Improv_Melody,334,1,48,32,2781884456
12124,14,Improv_Melody,335,1,38,48,2782246472
12124,14,Improv_Melody,336,2,45,80,2782348224
12124,14,Improv_Melody,337,2,69,80,2782350376
12124,14,Improv_Melody,338,5,42,127,2782352836
12124,14,Improv_Melody,339,1,38,48,2782645148
12124,14,Improv_Melody,340,5,42,110,2782845208
12124,14,Improv_Melody,341,1,48,30,2783073496
12124,14,Improv_Melody,342,5,42,110,2783345056
12124,14,Improv_Melody,343,1,38,47,2783470920
12124,14,Improv_Melody,344,5,42,110,2783844680
12124,14,Improv_Melody,345,1,38,47,2783873532
12124,14,Improv_Melody,346,1,48,25,2784252308
12124,14,Improv_Melody,347,5,42,127,2784344572
12124,14,Improv_Melody,348,1,38,53,2784653196
12124,14,Improv_Melody,349,5,42,110,2784845156
12124,14,Improv_Melody,350,1,38,50,2785053540
12124,14,Improv_Melody,351,5,42,110,2785344928
12124,14,Improv_Melody,352,1,48,32,2785438056
12124,14,Improv_Melody,353,1,38,55,2785764852
12124,14,Improv_Melody,354,5,42,110,2785844548
12124,14,Improv_Melody,355,1,38,46,2786152952
12124,14,Improv_Melody,356,2,41,80,2786347936
12124,14,Improv_Melody,357,2,65,80,2786350316
12124,14,Improv_Melody,358,5,42,127,2786352700
12124,14,Improv_Melody,359,1,48,29,2786531692
12124,14,Improv_Melody,360,5,42,110,2786845068
12124,14,Improv_Melody,361,1,38,49,2786898304
12124,14,Improv_Melody,362,1,38,44,2787253844
12124,14,Improv_Melody,363,5,42,110,2787344688
12124,14,Improv_Melody,364,1,48,24,2787602580
12124,14,Improv_Melody,365,5,42,110,2787844596
12124,14,Improv_Melody,366,1,38,51,2788007360
12124,14,Improv_Melody,367,1,38,47,2788344740
12124,14,Improv_Melody,368,5,42,127,2788346908
12124,14,Improv_Melody,369,1,48,33,2788702556
12124,14,Improv_Melody,370,5,42,110,2788844920
12124,14,Improv_Melody,371,1,38,51,2789073060
12124,14,Improv_Melody,372,5,42,110,2789344696
12124,14,Improv_Melody,373,1,38,50,2789446620
12124,14,Improv_Melody,374,1,48,45,2789786980
12124,14,Improv_Melody,375,5,42,110,2789845512
12124,14,Improv_Melody,376,1,38,50,2790170268
12124,14,Improv_Melody,377,2,48,80,2790347932
12124,14,Improv_Melody,378,2,72,80,2790349932
12124,14,Improv_Melody,379,5,42,127,2790352540
12124,14,Improv_Melody,380,1,38,47,2790518224
12124,14,Improv_Melody,381,5,42,110,2790844764
12124,14,Improv_Melody,382,1,48,34,2790876676
12124,14,Improv_Melody,383,1,38,49,2791218656
12124,14,Improv_Melody,0,9999,9999,9999,2710342712
12124,14,Improv_Melody,1,9999,9999,9999,2710842472
12124,14,Improv_Melody,2,9999,9999,9999,2711342196
12124,14,Improv_Melody,3,9999,9999,9999,2711842888
12124,14,Improv_Melody,4,9999,9999,9999,2712342612
12124,14,Improv_Melody,5,9999,9999,9999,2712842332
12124,14,Improv_Melody,6,9999,9999,9999,2713343028
12124,14,Improv_Melody,7,9999,9999,9999,2713842748
12124,14,Improv_Melody,8,9999,9999,9999,2714342472
12124,14,Improv_Melody,9,9999,9999,9999,2714842204
12124,14,Improv_Melody,10,9999,9999,9999,2715342900
12124,14,Improv_Melody,11,9999,9999,9999,2715842620
12124,14,Improv_Melody,12,9999,9999,9999,2716342340
12124,14,Improv_Melody,13,9999,9999,9999,2716843088
12124,14,Improv_Melody,14,9999,9999,9999,2717342780
12124,14,Improv_Melody,15,9999,9999,9999,2717842484
12124,14,Improv_Melody,16,9999,9999,9999,2718342260
12124,14,Improv_Melody,17,9999,9999,9999,2718842948
12124,14,Improv_Melody,18,9999,9999,9999,2719342648
12124,14,Improv_Melody,19,9999,9999,9999,2719842424
12124,14,Improv_Melody,20,9999,9999,9999,2720342092
12124,14,Improv_Melody,21,9999,9999,9999,2720842840
12124,14,Improv_Melody,22,9999,9999,9999,2721342540
12124,14,Improv_Melody,23,9999,9999,9999,2721842296
12124,14,Improv_Melody,24,9999,9999,9999,2722342968
12124,14,Improv_Melody,25,9999,9999,9999,2722842680
12124,14,Improv_Melody,26,9999,9999,9999,2723342456
12124,14,Improv_Melody,27,9999,9999,9999,2723842144
12124,14,Improv_Melody,28,9999,9999,9999,2724342904
12124,14,Improv_Melody,29,9999,9999,9999,2724842604
12124,14,Improv_Melody,30,9999,9999,9999,2725342304
12124,14,Improv_Melody,31,9999,9999,9999,2725843048
12124,14,Improv_Melody,32,9999,9999,9999,2726342748
12124,14,Improv_Melody,33,9999,9999,9999,2726842464
12124,14,Improv_Melody,34,9999,9999,9999,2727342164
12124,14,Improv_Melody,35,9999,9999,9999,2727842908
12124,14,Improv_Melody,36,9999,9999,9999,2728342592
12124,14,Improv_Melody,37,9999,9999,9999,2728842308
12124,14,Improv_Melody,38,9999,9999,9999,2729343040
12124,14,Improv_Melody,39,9999,9999,9999,2729842736
12124,14,Improv_Melody,40,9999,9999,9999,2730342452
12124,14,Improv_Melody,41,9999,9999,9999,2730842192
12124,14,Improv_Melody,42,9999,9999,9999,2731342920
12124,14,Improv_Melody,43,9999,9999,9999,2731842676
12124,14,Improv_Melody,44,9999,9999,9999,2732342372
12124,14,Improv_Melody,45,9999,9999,9999,2732843100
12124,14,Improv_Melody,46,9999,9999,9999,2733342780
12124,14,Improv_Melody,47,9999,9999,9999,2733842548
12124,14,Improv_Melody,48,9999,9999,9999,2734342236
12124,14,Improv_Melody,49,9999,9999,9999,2734842992
12124,14,Improv_Melody,50,9999,9999,9999,2735342672
12124,14,Improv_Melody,51,9999,9999,9999,2735842372
12124,14,Improv_Melody,52,9999,9999,9999,2736342072
12124,14,Improv_Melody,53,9999,9999,9999,2736842816
12124,14,Improv_Melody,54,9999,9999,9999,2737342512
12124,14,Improv_Melody,55,9999,9999,9999,2737842284
12124,14,Improv_Melody,56,9999,9999,9999,2738343032
12124,14,Improv_Melody,57,9999,9999,9999,2738842744
12124,14,Improv_Melody,58,9999,9999,9999,2739342444
12124,14,Improv_Melody,59,9999,9999,9999,2739842144
12124,14,Improv_Melody,60,9999,9999,9999,2740342892
12124,14,Improv_Melody,61,9999,9999,9999,2740842592
12124,14,Improv_Melody,62,9999,9999,9999,2741342268
12124,14,Improv_Melody,63,9999,9999,9999,2741843012
12124,14,Improv_Melody,64,9999,9999,9999,2742342716
12124,14,Improv_Melody,65,9999,9999,9999,2742842428
12124,14,Improv_Melody,66,9999,9999,9999,2743342128
12124,14,Improv_Melody,67,9999,9999,9999,2743842868
12124,14,Improv_Melody,68,9999,9999,9999,2744342620
12124,14,Improv_Melody,69,9999,9999,9999,2744842308
12124,14,Improv_Melody,70,9999,9999,9999,2745343052
12124,14,Improv_Melody,71,9999,9999,9999,2745842752
12124,14,Improv_Melody,72,9999,9999,9999,2746342456
12124,14,Improv_Melody,73,9999,9999,9999,2746842160
12124,14,Improv_Melody,74,9999,9999,9999,2747342908
12124,14,Improv_Melody,75,9999,9999,9999,2747842680
12124,14,Improv_Melody,76,9999,9999,9999,2748342368
12124,14,Improv_Melody,77,9999,9999,9999,2748843116
12124,14,Improv_Melody,78,9999,9999,9999,2749342816
12124,14,Improv_Melody,79,9999,9999,9999,2749842512
12124,14,Improv_Melody,80,9999,9999,9999,2750342216
12124,14,Improv_Melody,81,9999,9999,9999,2750842968
12124,14,Improv_Melody,82,9999,9999,9999,2751342668
12124,14,Improv_Melody,83,9999,9999,9999,2751842352
12124,14,Improv_Melody,84,9999,9999,9999,2752342120
12124,14,Improv_Melody,85,9999,9999,9999,2752842852
12124,14,Improv_Melody,86,9999,9999,9999,2753342552
12124,14,Improv_Melody,87,9999,9999,9999,2753842252
12124,14,Improv_Melody,88,9999,9999,9999,2754342996
12124,14,Improv_Melody,89,9999,9999,9999,2754842712
12124,14,Improv_Melody,90,9999,9999,9999,2755342412
12124,14,Improv_Melody,91,9999,9999,9999,2755842108
12124,14,Improv_Melody,92,9999,9999,9999,2756342856
12124,14,Improv_Melody,93,9999,9999,9999,2756842556
12124,14,Improv_Melody,94,9999,9999,9999,2757342328
12124,14,Improv_Melody,95,9999,9999,9999,2757842996
12124,14,Improv_Melody,96,9999,9999,9999,2758342756
12124,14,Improv_Melody,97,9999,9999,9999,2758842468
12124,14,Improv_Melody,98,9999,9999,9999,2759342168
12124,14,Improv_Melody,99,9999,9999,9999,2759842916
12124,14,Improv_Melody,100,9999,9999,9999,2760342616
12124,14,Improv_Melody,101,9999,9999,9999,2760842316
12124,14,Improv_Melody,102,9999,9999,9999,2761343056
12124,14,Improv_Melody,103,9999,9999,9999,2761842740
12124,14,Improv_Melody,104,9999,9999,9999,2762342516
12124,14,Improv_Melody,105,9999,9999,9999,2762842204
12124,14,Improv_Melody,106,9999,9999,9999,2763342928
12124,14,Improv_Melody,107,9999,9999,9999,2763842628
12124,14,Improv_Melody,108,9999,9999,9999,2764342328
12124,14,Improv_Melody,109,9999,9999,9999,2764843076
12124,14,Improv_Melody,110,9999,9999,9999,2765342768
12124,14,Improv_Melody,111,9999,9999,9999,2765842528
12124,14,Improv_Melody,112,9999,9999,9999,2766342228
12124,14,Improv_Melody,113,9999,9999,9999,2766842984
12124,14,Improv_Melody,114,9999,9999,9999,2767342684
12124,14,Improv_Melody,115,9999,9999,9999,2767842400
12124,14,Improv_Melody,116,9999,9999,9999,2768342100
12124,14,Improv_Melody,117,9999,9999,9999,2768842832
12124,14,Improv_Melody,118,9999,9999,9999,2769342532
12124,14,Improv_Melody,119,9999,9999,9999,2769842232
12124,14,Improv_Melody,120,9999,9999,9999,2770342976
12124,14,Improv_Melody,121,9999,9999,9999,2770842704
12124,14,Improv_Melody,122,9999,9999,9999,2771342404
12124,14,Improv_Melody,123,9999,9999,9999,2771842104
12124,14,Improv_Melody,124,9999,9999,9999,2772342836
12124,14,Improv_Melody,125,9999,9999,9999,2772842612
12124,14,Improv_Melody,126,9999,9999,9999,2773342284
12124,14,Improv_Melody,127,9999,9999,9999,2773843032
12124,14,Improv_Melody,128,9999,9999,9999,2774342712
12124,14,Improv_Melody,129,9999,9999,9999,2774842424
12124,14,Improv_Melody,130,9999,9999,9999,2775342196
12124,14,Improv_Melody,131,9999,9999,9999,2775842868
12124,14,Improv_Melody,132,9999,9999,9999,2776342636
12124,14,Improv_Melody,133,9999,9999,9999,2776842336
12124,14,Improv_Melody,134,9999,9999,9999,2777343068
12124,14,Improv_Melody,135,9999,9999,9999,2777842768
12124,14,Improv_Melody,136,9999,9999,9999,2778342468
12124,14,Improv_Melody,137,9999,9999,9999,2778842180
12124,14,Improv_Melody,138,9999,9999,9999,2779342904
12124,14,Improv_Melody,139,9999,9999,9999,2779842672
12124,14,Improv_Melody,140,9999,9999,9999,2780342356
12124,14,Improv_Melody,141,9999,9999,9999,2780843088
12124,14,Improv_Melody,142,9999,9999,9999,2781342840
12124,14,Improv_Melody,143,9999,9999,9999,2781842540
12124,14,Improv_Melody,144,9999,9999,9999,2782342232
12124,14,Improv_Melody,145,9999,9999,9999,2782842988
12124,14,Improv_Melody,146,9999,9999,9999,2783342688
12124,14,Improv_Melody,147,9999,9999,9999,2783842388
12124,14,Improv_Melody,148,9999,9999,9999,2784342132
12124,14,Improv_Melody,149,9999,9999,9999,2784842864
12124,14,Improv_Melody,150,9999,9999,9999,2785342560
12124,14,Improv_Melody,151,9999,9999,9999,2785842256
12124,14,Improv_Melody,152,9999,9999,9999,2786342988
12124,14,Improv_Melody,153,9999,9999,9999,2786842700
12124,14,Improv_Melody,154,9999,9999,9999,2787342396
12124,14,Improv_Melody,155,9999,9999,9999,2787842156
12124,14,Improv_Melody,156,9999,9999,9999,2788342900
12124,14,Improv_Melody,157,9999,9999,9999,2788842552
12124,14,Improv_Melody,158,9999,9999,9999,2789342328
12124,14,Improv_Melody,159,9999,9999,9999,2789842996
12124,14,Improv_Melody,160,9999,9999,9999,2790342756
12124,14,Improv_Melody,161,9999,9999,9999,2790842468
121