pid,taskRunCount,taskID,taskName,i,channel,pitch,velocity,microseconds
120,1,0,Ticks_Pract_8,0,5,42,127,127239492
120,1,0,Ticks_Pract_8,1,5,42,127,128040220
120,1,0,Ticks_Pract_8,2,5,42,127,128840072
120,1,0,Ticks_Pract_8,3,5,42,127,129639904
120,1,0,Ticks_Pract_8,4,5,42,127,130439436
120,1,0,Ticks_Pract_8,5,5,42,127,131240236
120,1,0,Ticks_Pract_8,6,5,42,127,132039996
120,1,0,Ticks_Pract_8,7,5,42,127,132839748
120,1,0,Ticks_Pract_8,8,5,42,127,133639428
120,1,0,Ticks_Pract_8,9,1,48,53,133641368
120,1,0,Ticks_Pract_8,10,1,48,50,134399032
120,1,0,Ticks_Pract_8,11,5,42,127,134440204
120,1,0,Ticks_Pract_8,12,1,48,48,135176920
120,1,0,Ticks_Pract_8,13,5,42,127,135240108
120,1,0,Ticks_Pract_8,14,1,48,54,136036288
120,1,0,Ticks_Pract_8,15,5,42,127,136039916
120,1,0,Ticks_Pract_8,16,5,42,127,136839508
120,1,0,Ticks_Pract_8,17,1,48,49,136855340
120,1,0,Ticks_Pract_8,18,5,42,127,137640364
120,1,0,Ticks_Pract_8,19,1,48,52,137679756
120,1,0,Ticks_Pract_8,20,5,42,127,138440096
120,1,0,Ticks_Pract_8,21,1,48,56,138492508
120,1,0,Ticks_Pract_8,22,5,42,127,139239904
120,1,0,Ticks_Pract_8,23,1,48,56,139330860
120,1,0,Ticks_Pract_8,24,5,42,127,140039564
120,1,0,Ticks_Pract_8,25,1,48,57,140118924
120,1,0,Ticks_Pract_8,26,5,42,127,140840268
120,1,0,Ticks_Pract_8,27,1,48,51,140872432
120,1,0,Ticks_Pract_8,28,1,48,54,141620088
120,1,0,Ticks_Pract_8,29,5,42,127,141640096
120,1,0,Ticks_Pract_8,30,1,48,55,142422812
120,1,0,Ticks_Pract_8,31,5,42,127,142439904
120,1,0,Ticks_Pract_8,32,1,48,58,143227708
120,1,0,Ticks_Pract_8,33,5,42,127,143239488
120,1,0,Ticks_Pract_8,34,5,42,127,144040276
120,1,0,Ticks_Pract_8,35,1,48,52,144067180
120,1,0,Ticks_Pract_8,36,5,42,127,144839932
120,1,0,Ticks_Pract_8,37,1,48,59,144879032
120,1,0,Ticks_Pract_8,38,5,42,127,145639888
120,1,0,Ticks_Pract_8,39,1,48,58,145666796
120,1,0,Ticks_Pract_8,40,5,42,127,146439476
120,1,0,Ticks_Pract_8,41,1,48,59,146446104
120,1,0,Ticks_Pract_8,42,1,48,63,147189804
120,1,0,Ticks_Pract_8,43,5,42,127,147240172
120,1,0,Ticks_Pract_8,44,1,48,62,148033912
120,1,0,Ticks_Pract_8,45,5,42,127,148039932
120,1,0,Ticks_Pract_8,46,5,42,127,148839896
120,1,0,Ticks_Pract_8,47,1,48,50,148879064
120,1,0,Ticks_Pract_8,48,5,42,127,149639780
120,1,0,Ticks_Pract_8,49,1,48,61,149678800
120,1,0,Ticks_Pract_8,50,5,42,127,150440336
120,1,0,Ticks_Pract_8,51,1,48,54,150480628
120,1,0,Ticks_Pract_8,0,9999,9999,9999,127237204
120,1,0,Ticks_Pract_8,1,9999,9999,9999,128038004
120,1,0,Ticks_Pract_8,2,9999,9999,9999,128837712
120,1,0,Ticks_Pract_8,3,9999,9999,9999,129637468
120,1,0,Ticks_Pract_8,4,9999,9999,9999,130437224
120,1,0,Ticks_Pract_8,5,9999,9999,9999,131237948
120,1,0,Ticks_Pract_8,6,9999,9999,9999,132037704
120,1,0,Ticks_Pract_8,7,9999,9999,9999,132837460
120,1,0,Ticks_Pract_8,8,9999,9999,9999,133637216
120,1,0,Ticks_Pract_8,9,9999,9999,9999,134437988
120,1,0,Ticks_Pract_8,10,9999,9999,9999,135237748
120,1,0,Ticks_Pract_8,11,9999,9999,9999,136037480
120,1,0,Ticks_Pract_8,12,9999,9999,9999,136837220
120,1,0,Ticks_Pract_8,13,9999,9999,9999,137638000
120,1,0,Ticks_Pract_8,14,9999,9999,9999,138437736
120,1,0,Ticks_Pract_8,15,9999,9999,9999,139237468
120,1,0,Ticks_Pract_8,16,9999,9999,9999,140037200
120,1,0,Ticks_Pract_8,17,9999,9999,9999,140837980
120,1,0,Ticks_Pract_8,18,9999,9999,9999,141637732
120,1,0,Ticks_Pract_8,19,9999,9999,9999,142437468
120,1,0,Ticks_Pract_8,20,9999,9999,9999,143237200
120,1,0,Ticks_Pract_8,21,9999,9999,9999,144037988
120,1,0,Ticks_Pract_8,22,9999,9999,9999,144837720
120,1,0,Ticks_Pract_8,23,9999,9999,9999,145637452
120,1,0,Ticks_Pract_8,24,9999,9999,9999,146437188
120,1,0,Ticks_Pract_8,25,9999,9999,9999,147237960
120,1,0,Ticks_Pract_8,26,9999,9999,9999,148037720
120,1,0,Ticks_Pract_8,27,9999,9999,9999,148837460
120,1,0,Ticks_Pract_8,28,9999,9999,9999,149637192
120,1,0,Ticks_Pract_8,29,9999,9999,9999,150437972
120,2,1,Ticks_Pract_5,0,5,42,127,171965788
120,2,1,Ticks_Pract_5,1,5,42,127,172465432
120,2,1,Ticks_Pract_5,2,5,42,127,172966268
120,2,1,Ticks_Pract_5,3,5,42,127,173465836
120,2,1,Ticks_Pract_5,4,5,42,127,173965552
120,2,1,Ticks_Pract_5,5,5,42,127,174466320
120,2,1,Ticks_Pract_5,6,5,42,127,174966252
120,2,1,Ticks_Pract_5,7,5,42,127,175465972
120,2,1,Ticks_Pract_5,8,5,42,127,175965536
120,2,1,Ticks_Pract_5,9,1,48,63,176018700
120,2,1,Ticks_Pract_5,10,5,42,127,176466352
120,2,1,Ticks_Pract_5,11,1,48,65,176473288
120,2,1,Ticks_Pract_5,12,1,48,71,176958904
120,2,1,Ticks_Pract_5,13,5,42,127,176966116
120,2,1,Ticks_Pract_5,14,1,48,78,177455676
120,2,1,Ticks_Pract_5,15,5,42,127,177465660
120,2,1,Ticks_Pract_5,16,5,42,127,177965484
120,2,1,Ticks_Pract_5,17,1,48,67,177977208
120,2,1,Ticks_Pract_5,18,1,48,72,178461080
120,2,1,Ticks_Pract_5,19,5,42,127,178466124
120,2,1,Ticks_Pract_5,20,1,48,81,178947388
120,2,1,Ticks_Pract_5,21,5,42,127,178965892
120,2,1,Ticks_Pract_5,22,1,48,78,179456876
120,2,1,Ticks_Pract_5,23,5,42,127,179465512
120,2,1,Ticks_Pract_5,24,1,48,81,179950888
120,2,1,Ticks_Pract_5,25,5,42,127,179966252
120,2,1,Ticks_Pract_5,26,1,48,78,180454992
120,2,1,Ticks_Pract_5,27,5,42,127,180466168
120,2,1,Ticks_Pract_5,28,1,48,86,180919536
120,2,1,Ticks_Pract_5,29,5,42,127,180965716
120,2,1,Ticks_Pract_5,30,1,48,83,181435308
120,2,1,Ticks_Pract_5,31,5,42,127,181465484
120,2,1,Ticks_Pract_5,32,1,48,81,181954224
120,2,1,Ticks_Pract_5,33,5,42,127,181966300
120,2,1,Ticks_Pract_5,34,1,48,69,182426244
120,2,1,Ticks_Pract_5,35,5,42,127,182465848
120,2,1,Ticks_Pract_5,36,1,48,72,182912476
120,2,1,Ticks_Pract_5,37,5,42,127,182965540
120,2,1,Ticks_Pract_5,38,1,48,74,183404168
120,2,1,Ticks_Pract_5,39,5,42,127,183466284
120,2,1,Ticks_Pract_5,40,1,48,72,183886432
120,2,1,Ticks_Pract_5,41,5,42,127,183966052
120,2,1,Ticks_Pract_5,42,1,48,67,184365980
120,2,1,Ticks_Pract_5,43,5,42,127,184465728
120,2,1,Ticks_Pract_5,44,1,48,75,184854684
120,2,1,Ticks_Pract_5,45,5,42,127,184965424
120,2,1,Ticks_Pract_5,46,1,48,76,185330288
120,2,1,Ticks_Pract_5,47,5,42,127,185466164
120,2,1,Ticks_Pract_5,48,1,48,72,185847336
120,2,1,Ticks_Pract_5,49,5,42,127,185965932
120,2,1,Ticks_Pract_5,50,5,42,127,186465576
120,2,1,Ticks_Pract_5,51,5,42,127,186966416
120,2,1,Ticks_Pract_5,52,5,42,127,187466204
120,2,1,Ticks_Pract_5,53,5,42,127,187965992
120,2,1,Ticks_Pract_5,54,1,48,54,188045780
120,2,1,Ticks_Pract_5,55,5,42,127,188465464
120,2,1,Ticks_Pract_5,56,1,48,66,188512568
120,2,1,Ticks_Pract_5,57,1,48,65,188964976
120,2,1,Ticks_Pract_5,58,5,42,127,188966396
120,2,1,Ticks_Pract_5,59,1,48,63,189443396
120,2,1,Ticks_Pract_5,60,5,42,127,189466092
120,2,1,Ticks_Pract_5,61,1,48,73,189954236
120,2,1,Ticks_Pract_5,62,5,42,127,189965636
120,2,1,Ticks_Pract_5,63,1,48,66,190401724
120,2,1,Ticks_Pract_5,64,5,42,127,190466456
120,2,1,Ticks_Pract_5,65,1,48,66,190887504
120,2,1,Ticks_Pract_5,66,5,42,127,190966220
120,2,1,Ticks_Pract_5,67,1,48,67,191352268
120,2,1,Ticks_Pract_5,68,5,42,127,191466052
120,2,1,Ticks_Pract_5,69,1,48,72,191864524
120,2,1,Ticks_Pract_5,0,9999,9999,9999,171963504
120,2,1,Ticks_Pract_5,1,9999,9999,9999,172463220
120,2,1,Ticks_Pract_5,2,9999,9999,9999,172963908
120,2,1,Ticks_Pract_5,3,9999,9999,9999,173463624
120,2,1,Ticks_Pract_5,4,9999,9999,9999,173963340
120,2,1,Ticks_Pract_5,5,9999,9999,9999,174464104
120,2,1,Ticks_Pract_5,6,9999,9999,9999,174963820
120,2,1,Ticks_Pract_5,7,9999,9999,9999,175463536
120,2,1,Ticks_Pract_5,8,9999,9999,9999,175963252
120,2,1,Ticks_Pract_5,9,9999,9999,9999,176463992
120,2,1,Ticks_Pract_5,10,9999,9999,9999,176963680
120,2,1,Ticks_Pract_5,11,9999,9999,9999,177463376
120,2,1,Ticks_Pract_5,12,9999,9999,9999,177963124
120,2,1,Ticks_Pract_5,13,9999,9999,9999,178463836
120,2,1,Ticks_Pract_5,14,9999,9999,9999,178963532
120,2,1,Ticks_Pract_5,15,9999,9999,9999,179463224
120,2,1,Ticks_Pract_5,16,9999,9999,9999,179963964
120,2,1,Ticks_Pract_5,17,9999,9999,9999,180463736
120,2,1,Ticks_Pract_5,18,9999,9999,9999,180963428
120,2,1,Ticks_Pract_5,19,9999,9999,9999,181463124
120,2,1,Ticks_Pract_5,20,9999,9999,9999,181963868
120,2,1,Ticks_Pract_5,21,9999,9999,9999,182463560
120,2,1,Ticks_Pract_5,22,9999,9999,9999,182963256
120,2,1,Ticks_Pract_5,23,9999,9999,9999,183463996
120,2,1,Ticks_Pract_5,24,9999,9999,9999,183963764
120,2,1,Ticks_Pract_5,25,9999,9999,9999,184463444
120,2,1,Ticks_Pract_5,26,9999,9999,9999,184963136
120,2,1,Ticks_Pract_5,27,9999,9999,9999,185463876
120,2,1,Ticks_Pract_5,28,9999,9999,9999,185963572
120,2,1,Ticks_Pract_5,29,9999,9999,9999,186463288
120,2,1,Ticks_Pract_5,30,9999,9999,9999,186964052
120,2,1,Ticks_Pract_5,31,9999,9999,9999,187463768
120,2,1,Ticks_Pract_5,32,9999,9999,9999,187963484
120,2,1,Ticks_Pract_5,33,9999,9999,9999,188463180
120,2,1,Ticks_Pract_5,34,9999,9999,9999,188963896
120,2,1,Ticks_Pract_5,35,9999,9999,9999,189463656
120,2,1,Ticks_Pract_5,36,9999,9999,9999,189963352
120,2,1,Ticks_Pract_5,37,9999,9999,9999,190464092
120,2,1,Ticks_Pract_5,38,9999,9999,9999,190963788
120,2,1,Ticks_Pract_5,39,9999,9999,9999,191463540
120,3,2,T1_SMS_8,0,5,42,127,282384768
120,3,2,T1_SMS_8,1,5,42,127,283184476
120,3,2,T1_SMS_8,2,5,42,127,283985200
120,3,2,T1_SMS_8,3,5,42,127,284784956
120,3,2,T1_SMS_8,4,5,42,127,285584936
120,3,2,T1_SMS_8,5,5,42,127,286384688
120,3,2,T1_SMS_8,6,5,42,127,287185268
120,3,2,T1_SMS_8,7,1,48,54,287239328
120,3,2,T1_SMS_8,8,5,42,127,287984852
120,3,2,T1_SMS_8,9,1,48,60,288025588
120,3,2,T1_SMS_8,10,5,42,127,288784880
120,3,2,T1_SMS_8,11,1,48,63,288795932
120,3,2,T1_SMS_8,12,5,42,127,289584788
120,3,2,T1_SMS_8,13,1,48,68,289605712
120,3,2,T1_SMS_8,14,5,42,127,290385196
120,3,2,T1_SMS_8,15,1,48,58,290416892
120,3,2,T1_SMS_8,16,5,42,127,291184856
120,3,2,T1_SMS_8,17,1,48,62,291214380
120,3,2,T1_SMS_8,18,5,42,127,291984960
120,3,2,T1_SMS_8,19,1,48,57,291990628
120,3,2,T1_SMS_8,20,5,42,127,292784768
120,3,2,T1_SMS_8,21,1,48,69,292835156
120,3,2,T1_SMS_8,22,1,48,64,293576232
120,3,2,T1_SMS_8,23,5,42,127,293585468
120,3,2,T1_SMS_8,24,1,48,71,294347548
120,3,2,T1_SMS_8,25,5,42,127,294384976
120,3,2,T1_SMS_8,26,1,48,66,295133816
120,3,2,T1_SMS_8,27,5,42,127,295184860
120,3,2,T1_SMS_8,28,1,48,70,295922552
120,3,2,T1_SMS_8,29,5,42,127,295984840
120,3,2,T1_SMS_8,30,1,48,63,296703588
120,3,2,T1_SMS_8,31,5,42,127,296785472
120,3,2,T1_SMS_8,32,1,48,59,297466296
120,3,2,T1_SMS_8,33,5,42,127,297585116
120,3,2,T1_SMS_8,34,1,48,36,298244784
120,3,2,T1_SMS_8,35,5,42,127,298384848
120,3,2,T1_SMS_8,36,1,48,35,299043924
120,3,2,T1_SMS_8,37,5,42,127,299184508
120,3,2,T1_SMS_8,38,1,48,26,299852280
120,3,2,T1_SMS_8,39,5,42,127,299985288
120,3,2,T1_SMS_8,40,1,48,20,300631072
120,3,2,T1_SMS_8,41,5,42,127,300784872
120,3,2,T1_SMS_8,42,1,48,26,301467456
120,3,2,T1_SMS_8,43,5,42,127,301584604
120,3,2,T1_SMS_8,44,1,48,27,302269656
120,3,2,T1_SMS_8,45,5,42,127,302384512
120,3,2,T1_SMS_8,46,1,48,14,303066252
120,3,2,T1_SMS_8,47,5,42,127,303185220
120,3,2,T1_SMS_8,48,1,48,31,303857832
120,3,2,T1_SMS_8,49,5,42,127,303984952
120,3,2,T1_SMS_8,50,1,48,22,304671696
120,3,2,T1_SMS_8,51,5,42,127,304784836
120,3,2,T1_SMS_8,52,1,48,19,305434256
120,3,2,T1_SMS_8,53,5,42,127,305584420
120,3,2,T1_SMS_8,54,1,48,23,306253088
120,3,2,T1_SMS_8,55,5,42,127,306385496
120,3,2,T1_SMS_8,56,1,48,18,307101744
120,3,2,T1_SMS_8,57,5,42,127,307185024
120,3,2,T1_SMS_8,58,1,48,21,307944556
120,3,2,T1_SMS_8,59,5,42,127,307984680
120,3,2,T1_SMS_8,60,1,48,23,308690064
120,3,2,T1_SMS_8,61,5,42,127,308784424
120,3,2,T1_SMS_8,62,1,48,20,309464216
120,3,2,T1_SMS_8,63,5,42,127,309585428
120,3,2,T1_SMS_8,64,1,48,18,310292672
120,3,2,T1_SMS_8,65,5,42,127,310384880
120,3,2,T1_SMS_8,66,1,48,18,311130800
120,3,2,T1_SMS_8,67,5,42,127,311184688
120,3,2,T1_SMS_8,68,1,48,18,311917748
120,3,2,T1_SMS_8,69,5,42,127,311984420
120,3,2,T1_SMS_8,70,1,48,21,312729444
120,3,2,T1_SMS_8,71,5,42,127,312785424
120,3,2,T1_SMS_8,72,1,48,20,313501652
120,3,2,T1_SMS_8,73,5,42,127,313584936
120,3,2,T1_SMS_8,74,1,48,20,314291664
120,3,2,T1_SMS_8,75,5,42,127,314385552
120,3,2,T1_SMS_8,76,1,48,24,315083688
120,3,2,T1_SMS_8,77,5,42,127,315184460
120,3,2,T1_SMS_8,78,1,48,18,315891476
120,3,2,T1_SMS_8,79,5,42,127,315985332
120,3,2,T1_SMS_8,80,1,48,27,316683432
120,3,2,T1_SMS_8,81,5,42,127,316785348
120,3,2,T1_SMS_8,82,1,48,27,317514980
120,3,2,T1_SMS_8,83,5,42,127,317584648
120,3,2,T1_SMS_8,84,1,48,22,318323612
120,3,2,T1_SMS_8,85,5,42,127,318384532
120,3,2,T1_SMS_8,86,1,48,27,319131348
120,3,2,T1_SMS_8,87,5,42,127,319185460
120,3,2,T1_SMS_8,88,1,48,26,319951880
120,3,2,T1_SMS_8,89,5,42,127,319984896
120,3,2,T1_SMS_8,90,1,48,26,320743760
120,3,2,T1_SMS_8,91,5,42,127,320784708
120,3,2,T1_SMS_8,92,1,48,33,321535340
120,3,2,T1_SMS_8,93,5,42,127,321584464
120,3,2,T1_SMS_8,94,1,48,28,322329840
120,3,2,T1_SMS_8,95,5,42,127,322385316
120,3,2,T1_SMS_8,96,1,48,29,323128024
120,3,2,T1_SMS_8,97,5,42,127,323185124
120,3,2,T1_SMS_8,98,1,48,27,323897540
120,3,2,T1_SMS_8,99,5,42,127,323984860
120,3,2,T1_SMS_8,100,1,48,27,324701316
120,3,2,T1_SMS_8,101,5,42,127,324784444
120,3,2,T1_SMS_8,102,1,48,24,325483620
120,3,2,T1_SMS_8,103,5,42,127,325585284
120,3,2,T1_SMS_8,104,1,48,24,326310056
120,3,2,T1_SMS_8,105,5,42,127,326385108
120,3,2,T1_SMS_8,106,1,48,26,327116892
120,3,2,T1_SMS_8,107,5,42,127,327184616
120,3,2,T1_SMS_8,108,1,48,24,327950132
120,3,2,T1_SMS_8,109,5,42,127,327984524
120,3,2,T1_SMS_8,110,1,48,28,328726684
120,3,2,T1_SMS_8,111,5,42,127,328785304
120,3,2,T1_SMS_8,112,1,48,23,329537664
120,3,2,T1_SMS_8,113,5,42,127,329585112
120,3,2,T1_SMS_8,114,1,48,28,330352124
120,3,2,T1_SMS_8,115,5,42,127,330384768
120,3,2,T1_SMS_8,116,1,48,23,331136380
120,3,2,T1_SMS_8,117,5,42,127,331184432
120,3,2,T1_SMS_8,118,1,48,28,331922196
120,3,2,T1_SMS_8,119,5,42,127,331985360
120,3,2,T1_SMS_8,120,1,48,31,332712580
120,3,2,T1_SMS_8,121,5,42,127,332785168
120,3,2,T1_SMS_8,122,1,48,37,333545748
120,3,2,T1_SMS_8,123,5,42,127,333584676
120,3,2,T1_SMS_8,124,1,48,33,334319832
120,3,2,T1_SMS_8,125,5,42,127,334384436
120,3,2,T1_SMS_8,126,1,48,31,335130932
120,3,2,T1_SMS_8,127,5,42,127,335185364
120,3,2,T1_SMS_8,128,1,48,32,335921416
120,3,2,T1_SMS_8,129,5,42,127,335985024
120,3,2,T1_SMS_8,130,1,48,27,336730044
120,3,2,T1_SMS_8,131,5,42,127,336784684
120,3,2,T1_SMS_8,132,1,48,29,337533076
120,3,2,T1_SMS_8,133,5,42,127,337584568
120,3,2,T1_SMS_8,134,1,48,38,338333032
120,3,2,T1_SMS_8,135,5,42,127,338385272
120,3,2,T1_SMS_8,136,1,48,31,339123188
120,3,2,T1_SMS_8,137,5,42,127,339185156
120,3,2,T1_SMS_8,138,1,48,35,339911104
120,3,2,T1_SMS_8,139,5,42,127,339984740
120,3,2,T1_SMS_8,140,1,48,39,340747940
120,3,2,T1_SMS_8,141,5,42,127,340784348
120,3,2,T1_SMS_8,142,1,48,39,341555700
120,3,2,T1_SMS_8,143,5,42,127,341585128
120,3,2,T1_SMS_8,144,1,48,27,342333364
120,3,2,T1_SMS_8,145,5,42,127,342385160
120,3,2,T1_SMS_8,146,1,48,28,343144392
120,3,2,T1_SMS_8,147,5,42,127,343184672
120,3,2,T1_SMS_8,148,1,48,32,343935972
120,3,2,T1_SMS_8,149,5,42,127,343984480
120,3,2,T1_SMS_8,150,1,48,28,344749996
120,3,2,T1_SMS_8,151,5,42,127,344785184
120,3,2,T1_SMS_8,152,1,48,30,345535820
120,3,2,T1_SMS_8,153,5,42,127,345585216
120,3,2,T1_SMS_8,154,1,48,30,346297328
120,3,2,T1_SMS_8,155,5,42,127,346384948
120,3,2,T1_SMS_8,156,1,48,36,347129976
120,3,2,T1_SMS_8,157,5,42,127,347184484
120,3,2,T1_SMS_8,158,1,48,35,347939880
120,3,2,T1_SMS_8,159,5,42,127,347985116
120,3,2,T1_SMS_8,160,1,48,40,348739864
120,3,2,T1_SMS_8,161,5,42,127,348785144
120,3,2,T1_SMS_8,162,1,48,31,349570188
120,3,2,T1_SMS_8,163,5,42,127,349584952
120,3,2,T1_SMS_8,164,5,42,127,350384396
120,3,2,T1_SMS_8,165,1,48,33,350405916
120,3,2,T1_SMS_8,166,1,48,41,351151180
120,3,2,T1_SMS_8,167,5,42,127,351185244
120,3,2,T1_SMS_8,168,1,48,43,351921140
120,3,2,T1_SMS_8,169,5,42,127,351985052
120,3,2,T1_SMS_8,170,1,48,35,352741968
120,3,2,T1_SMS_8,171,5,42,127,352785008
120,3,2,T1_SMS_8,172,1,48,42,353564512
120,3,2,T1_SMS_8,173,5,42,127,353584620
120,3,2,T1_SMS_8,174,1,48,45,354342484
120,3,2,T1_SMS_8,175,5,42,127,354385152
120,3,2,T1_SMS_8,176,1,48,43,355112672
120,3,2,T1_SMS_8,177,5,42,127,355184888
120,3,2,T1_SMS_8,178,1,48,43,355914276
120,3,2,T1_SMS_8,179,5,42,127,355984916
120,3,2,T1_SMS_8,180,1,48,43,356701964
120,3,2,T1_SMS_8,181,5,42,127,356784428
120,3,2,T1_SMS_8,182,1,48,40,357487116
120,3,2,T1_SMS_8,183,5,42,127,357585192
120,3,2,T1_SMS_8,184,1,48,43,358280564
120,3,2,T1_SMS_8,185,5,42,127,358384996
120,3,2,T1_SMS_8,186,1,48,40,359085088
120,3,2,T1_SMS_8,187,5,42,127,359184808
120,3,2,T1_SMS_8,188,1,48,40,359898580
120,3,2,T1_SMS_8,189,5,42,127,359984356
120,3,2,T1_SMS_8,190,1,48,42,360696812
120,3,2,T1_SMS_8,191,5,42,127,360785136
120,3,2,T1_SMS_8,192,1,48,43,361483984
120,3,2,T1_SMS_8,193,5,42,127,361584928
120,3,2,T1_SMS_8,194,1,48,42,362252824
120,3,2,T1_SMS_8,195,5,42,127,362384736
120,3,2,T1_SMS_8,196,1,48,31,363142936
120,3,2,T1_SMS_8,197,5,42,127,363184632
120,3,2,T1_SMS_8,198,5,42,127,363985196
120,3,2,T1_SMS_8,199,1,48,54,364010380
120,3,2,T1_SMS_8,200,1,48,53,364765664
120,3,2,T1_SMS_8,201,5,42,127,364784996
120,3,2,T1_SMS_8,202,1,48,47,365485960
120,3,2,T1_SMS_8,203,5,42,127,365584716
120,3,2,T1_SMS_8,204,1,48,47,366312324
120,3,2,T1_SMS_8,205,5,42,127,366384412
120,3,2,T1_SMS_8,206,1,48,43,367133004
120,3,2,T1_SMS_8,207,5,42,127,367185268
120,3,2,T1_SMS_8,208,1,48,45,367912416
120,3,2,T1_SMS_8,209,5,42,127,367984928
120,3,2,T1_SMS_8,210,1,48,46,368715816
120,3,2,T1_SMS_8,211,5,42,127,368784808
120,3,2,T1_SMS_8,212,1,48,49,369501264
120,3,2,T1_SMS_8,213,5,42,127,369584540
120,3,2,T1_SMS_8,214,1,48,44,370316776
120,3,2,T1_SMS_8,215,5,42,127,370385248
120,3,2,T1_SMS_8,216,1,48,45,371129000
120,3,2,T1_SMS_8,217,5,42,127,371185056
120,3,2,T1_SMS_8,218,1,48,39,371906744
120,3,2,T1_SMS_8,219,5,42,127,371984788
120,3,2,T1_SMS_8,220,1,48,40,372700496
120,3,2,T1_SMS_8,221,5,42,127,372784548
120,3,2,T1_SMS_8,222,1,48,43,373473220
120,3,2,T1_SMS_8,223,5,42,127,373585388
120,3,2,T1_SMS_8,224,1,48,44,374255080
120,3,2,T1_SMS_8,225,5,42,127,374384900
120,3,2,T1_SMS_8,226,1,48,40,375078700
120,3,2,T1_SMS_8,227,5,42,127,375184856
120,3,2,T1_SMS_8,228,1,48,46,375899380
120,3,2,T1_SMS_8,229,5,42,127,375984532
120,3,2,T1_SMS_8,230,1,48,45,376725436
120,3,2,T1_SMS_8,231,5,42,127,376785308
120,3,2,T1_SMS_8,232,1,48,36,377545068
120,3,2,T1_SMS_8,233,5,42,127,377585044
120,3,2,T1_SMS_8,234,1,48,38,378346972
120,3,2,T1_SMS_8,0,9999,9999,9999,282382404
120,3,2,T1_SMS_8,1,9999,9999,9999,283182188
120,3,2,T1_SMS_8,2,9999,9999,9999,283982912
120,3,2,T1_SMS_8,3,9999,9999,9999,284782668
120,3,2,T1_SMS_8,4,9999,9999,9999,285582424
120,3,2,T1_SMS_8,5,9999,9999,9999,286382176
120,3,2,T1_SMS_8,6,9999,9999,9999,287182904
120,3,2,T1_SMS_8,7,9999,9999,9999,287982640
120,3,2,T1_SMS_8,8,9999,9999,9999,288782444
120,3,2,T1_SMS_8,9,9999,9999,9999,289582128
120,3,2,T1_SMS_8,10,9999,9999,9999,290382908
120,3,2,T1_SMS_8,11,9999,9999,9999,291182640
120,3,2,T1_SMS_8,12,9999,9999,9999,291982448
120,3,2,T1_SMS_8,13,9999,9999,9999,292782180
120,3,2,T1_SMS_8,14,9999,9999,9999,293582956
120,3,2,T1_SMS_8,15,9999,9999,9999,294382688
120,3,2,T1_SMS_8,16,9999,9999,9999,295182424
120,3,2,T1_SMS_8,17,9999,9999,9999,295982180
120,3,2,T1_SMS_8,18,9999,9999,9999,296782960
120,3,2,T1_SMS_8,19,9999,9999,9999,297582680
120,3,2,T1_SMS_8,20,9999,9999,9999,298382412
120,3,2,T1_SMS_8,21,9999,9999,9999,299182144
120,3,2,T1_SMS_8,22,9999,9999,9999,299982924
120,3,2,T1_SMS_8,23,9999,9999,9999,300782656
120,3,2,T1_SMS_8,24,9999,9999,9999,301582392
120,3,2,T1_SMS_8,25,9999,9999,9999,302382148
120,3,2,T1_SMS_8,26,9999,9999,9999,303182932
120,3,2,T1_SMS_8,27,9999,9999,9999,303982664
120,3,2,T1_SMS_8,28,9999,9999,9999,304782400
120,3,2,T1_SMS_8,29,9999,9999,9999,305582132
120,3,2,T1_SMS_8,30,9999,9999,9999,306382912
120,3,2,T1_SMS_8,31,9999,9999,9999,307182660
120,3,2,T1_SMS_8,32,9999,9999,9999,307982396
120,3,2,T1_SMS_8,33,9999,9999,9999,308782136
120,3,2,T1_SMS_8,34,9999,9999,9999,309582916
120,3,2,T1_SMS_8,35,9999,9999,9999,310382664
120,3,2,T1_SMS_8,36,9999,9999,9999,311182400
120,3,2,T1_SMS_8,37,9999,9999,9999,311982132
120,3,2,T1_SMS_8,38,9999,9999,9999,312782912
120,3,2,T1_SMS_8,39,9999,9999,9999,313582648
120,3,2,T1_SMS_8,40,9999,9999,9999,314382456
120,3,2,T1_SMS_8,41,9999,9999,9999,315182172
120,3,2,T1_SMS_8,42,9999,9999,9999,315982896
120,3,2,T1_SMS_8,43,9999,9999,9999,316782688
120,3,2,T1_SMS_8,44,9999,9999,9999,317582436
120,3,2,T1_SMS_8,45,9999,9999,9999,318382168
120,3,2,T1_SMS_8,46,9999,9999,9999,319182948
120,3,2,T1_SMS_8,47,9999,9999,9999,319982684
120,3,2,T1_SMS_8,48,9999,9999,9999,320782420
120,3,2,T1_SMS_8,49,9999,9999,9999,321582176
120,3,2,T1_SMS_8,50,9999,9999,9999,322382956
120,3,2,T1_SMS_8,51,9999,9999,9999,323182688
120,3,2,T1_SMS_8,52,9999,9999,9999,323982424
120,3,2,T1_SMS_8,53,9999,9999,9999,324782156
120,3,2,T1_SMS_8,54,9999,9999,9999,325582924
120,3,2,T1_SMS_8,55,9999,9999,9999,326382672
120,3,2,T1_SMS_8,56,9999,9999,9999,327182404
120,3,2,T1_SMS_8,57,9999,9999,9999,327982164
120,3,2,T1_SMS_8,58,9999,9999,9999,328782940
120,3,2,T1_SMS_8,59,9999,9999,9999,329582676
120,3,2,T1_SMS_8,60,9999,9999,9999,330382408
120,3,2,T1_SMS_8,61,9999,9999,9999,331182144
120,3,2,T1_SMS_8,62,9999,9999,9999,331982924
120,3,2,T1_SMS_8,63,9999,9999,9999,332782656
120,3,2,T1_SMS_8,64,9999,9999,9999,333582388
120,3,2,T1_SMS_8,65,9999,9999,9999,334382148
120,3,2,T1_SMS_8,66,9999,9999,9999,335182928
120,3,2,T1_SMS_8,67,9999,9999,9999,335982664
120,3,2,T1_SMS_8,68,9999,9999,9999,336782396
120,3,2,T1_SMS_8,69,9999,9999,9999,337582128
120,3,2,T1_SMS_8,70,9999,9999,9999,338382912
120,3,2,T1_SMS_8,71,9999,9999,9999,339182644
120,3,2,T1_SMS_8,72,9999,9999,9999,339982452
120,3,2,T1_SMS_8,73,9999,9999,9999,340782136
120,3,2,T1_SMS_8,74,9999,9999,9999,341582916
120,3,2,T1_SMS_8,75,9999,9999,9999,342382648
120,3,2,T1_SMS_8,76,9999,9999,9999,343182384
120,3,2,T1_SMS_8,77,9999,9999,9999,343982192
120,3,2,T1_SMS_8,78,9999,9999,9999,344782896
120,3,2,T1_SMS_8,79,9999,9999,9999,345582704
120,3,2,T1_SMS_8,80,9999,9999,9999,346382436
120,3,2,T1_SMS_8,81,9999,9999,9999,347182196
120,3,2,T1_SMS_8,82,9999,9999,9999,347982900
120,3,2,T1_SMS_8,83,9999,9999,9999,348782708
120,3,2,T1_SMS_8,84,9999,9999,9999,349582444
120,3,2,T1_SMS_8,85,9999,9999,9999,350382184
120,3,2,T1_SMS_8,86,9999,9999,9999,351182956
120,3,2,T1_SMS_8,87,9999,9999,9999,351982692
120,3,2,T1_SMS_8,88,9999,9999,9999,352782424
120,3,2,T1_SMS_8,89,9999,9999,9999,353582180
120,3,2,T1_SMS_8,90,9999,9999,9999,354382936
120,3,2,T1_SMS_8,91,9999,9999,9999,355182672
120,3,2,T1_SMS_8,92,9999,9999,9999,355982408
120,3,2,T1_SMS_8,93,9999,9999,9999,356782140
120,3,2,T1_SMS_8,94,9999,9999,9999,357582904
120,3,2,T1_SMS_8,95,9999,9999,9999,358382708
120,3,2,T1_SMS_8,96,9999,9999,9999,359182384
120,3,2,T1_SMS_8,97,9999,9999,9999,359982144
120,3,2,T1_SMS_8,98,9999,9999,9999,360782920
120,3,2,T1_SMS_8,99,9999,9999,9999,361582640
120,3,2,T1_SMS_8,100,9999,9999,9999,362382448
120,3,2,T1_SMS_8,101,9999,9999,9999,363182196
120,3,2,T1_SMS_8,102,9999,9999,9999,363982908
120,3,2,T1_SMS_8,103,9999,9999,9999,364782708
120,3,2,T1_SMS_8,104,9999,9999,9999,365582428
120,3,2,T1_SMS_8,105,9999,9999,9999,366382124
120,3,2,T1_SMS_8,106,9999,9999,9999,367182904
120,3,2,T1_SMS_8,107,9999,9999,9999,367982640
120,3,2,T1_SMS_8,108,9999,9999,9999,368782448
120,3,2,T1_SMS_8,109,9999,9999,9999,369582180
120,3,2,T1_SMS_8,110,9999,9999,9999,370382960
120,3,2,T1_SMS_8,111,9999,9999,9999,371182692
120,3,2,T1_SMS_8,112,9999,9999,9999,371982428
120,3,2,T1_SMS_8,113,9999,9999,9999,372782184
120,3,2,T1_SMS_8,114,9999,9999,9999,373582952
120,3,2,T1_SMS_8,115,9999,9999,9999,374382684
120,3,2,T1_SMS_8,116,9999,9999,9999,375182420
120,3,2,T1_SMS_8,117,9999,9999,9999,375982168
120,3,2,T1_SMS_8,118,9999,9999,9999,376782948
120,3,2,T1_SMS_8,119,9999,9999,9999,377582684
120,4,4,T1_SMS_5,0,5,42,127,435031408
120,4,4,T1_SMS_5,1,5,42,127,435531124
120,4,4,T1_SMS_5,2,5,42,127,436030916
120,4,4,T1_SMS_5,3,5,42,127,436530780
120,4,4,T1_SMS_5,4,5,42,127,437031172
120,4,4,T1_SMS_5,5,1,48,64,437052092
120,4,4,T1_SMS_5,6,1,48,73,437503200
120,4,4,T1_SMS_5,7,5,42,127,437530912
120,4,4,T1_SMS_5,8,1,48,83,437986520
120,4,4,T1_SMS_5,9,5,42,127,438030904
120,4,4,T1_SMS_5,10,1,48,76,438476940
120,4,4,T1_SMS_5,11,5,42,127,438530524
120,4,4,T1_SMS_5,12,1,48,66,438950896
120,4,4,T1_SMS_5,13,5,42,127,439031188
120,4,4,T1_SMS_5,14,1,48,78,439449624
120,4,4,T1_SMS_5,15,5,42,127,439530812
120,4,4,T1_SMS_5,16,1,48,73,439927400
120,4,4,T1_SMS_5,17,5,42,127,440030864
120,4,4,T1_SMS_5,18,1,48,65,440408992
120,4,4,T1_SMS_5,19,5,42,127,440531304
120,4,4,T1_SMS_5,20,1,48,72,440861016
120,4,4,T1_SMS_5,21,5,42,127,441031004
120,4,4,T1_SMS_5,22,1,48,64,441336476
120,4,4,T1_SMS_5,23,5,42,127,441530844
120,4,4,T1_SMS_5,24,1,48,67,441793388
120,4,4,T1_SMS_5,25,5,42,127,442030692
120,4,4,T1_SMS_5,26,1,48,66,442278648
120,4,4,T1_SMS_5,27,5,42,127,442531208
120,4,4,T1_SMS_5,28,1,48,61,442814096
120,4,4,T1_SMS_5,29,5,42,127,443030904
120,4,4,T1_SMS_5,30,1,48,50,443334060
120,4,4,T1_SMS_5,31,5,42,127,443530748
120,4,4,T1_SMS_5,32,1,48,55,443825304
120,4,4,T1_SMS_5,33,5,42,127,444031340
120,4,4,T1_SMS_5,34,1,48,60,444336668
120,4,4,T1_SMS_5,35,5,42,127,444531036
120,4,4,T1_SMS_5,36,1,48,58,444831424
120,4,4,T1_SMS_5,37,5,42,127,445030808
120,4,4,T1_SMS_5,38,1,48,63,445317880
120,4,4,T1_SMS_5,39,5,42,127,445530724
120,4,4,T1_SMS_5,40,1,48,53,445821316
120,4,4,T1_SMS_5,41,5,42,127,446031168
120,4,4,T1_SMS_5,42,1,48,56,446327896
120,4,4,T1_SMS_5,43,5,42,127,446530864
120,4,4,T1_SMS_5,44,1,48,56,446820484
120,4,4,T1_SMS_5,45,5,42,127,447030632
120,4,4,T1_SMS_5,46,1,48,48,447314416
120,4,4,T1_SMS_5,47,5,42,127,447531448
120,4,4,T1_SMS_5,48,1,48,51,447830344
120,4,4,T1_SMS_5,49,5,42,127,448031044
120,4,4,T1_SMS_5,50,1,48,54,448332356
120,4,4,T1_SMS_5,51,5,42,127,448530740
120,4,4,T1_SMS_5,52,1,48,56,448821284
120,4,4,T1_SMS_5,53,5,42,127,449030732
120,4,4,T1_SMS_5,54,1,48,55,449327412
120,4,4,T1_SMS_5,55,5,42,127,449531252
120,4,4,T1_SMS_5,56,1,48,51,449836384
120,4,4,T1_SMS_5,57,5,42,127,450030872
120,4,4,T1_SMS_5,58,1,48,55,450344448
120,4,4,T1_SMS_5,59,5,42,127,450530716
120,4,4,T1_SMS_5,60,1,48,55,450881468
120,4,4,T1_SMS_5,61,5,42,127,451031532
120,4,4,T1_SMS_5,62,1,48,51,451397472
120,4,4,T1_SMS_5,63,5,42,127,451531228
120,4,4,T1_SMS_5,64,1,48,49,451961416
120,4,4,T1_SMS_5,65,5,42,127,452030716
120,4,4,T1_SMS_5,66,1,48,46,452486320
120,4,4,T1_SMS_5,67,5,42,127,452530484
120,4,4,T1_SMS_5,68,1,48,48,452994092
120,4,4,T1_SMS_5,69,5,42,127,453031372
120,4,4,T1_SMS_5,70,1,48,47,453509272
120,4,4,T1_SMS_5,71,5,42,127,453530992
120,4,4,T1_SMS_5,72,1,48,51,453992584
120,4,4,T1_SMS_5,73,5,42,127,454030764
120,4,4,T1_SMS_5,74,1,48,49,454527808
120,4,4,T1_SMS_5,75,5,42,127,454530536
120,4,4,T1_SMS_5,76,5,42,127,455031060
120,4,4,T1_SMS_5,77,1,48,49,455032924
120,4,4,T1_SMS_5,78,5,42,127,455530828
120,4,4,T1_SMS_5,79,1,48,43,455538212
120,4,4,T1_SMS_5,80,1,48,49,456019412
120,4,4,T1_SMS_5,81,5,42,127,456030592
120,4,4,T1_SMS_5,82,1,48,49,456526064
120,4,4,T1_SMS_5,83,5,42,127,456531408
120,4,4,T1_SMS_5,84,1,48,46,457021720
120,4,4,T1_SMS_5,85,5,42,127,457030952
120,4,4,T1_SMS_5,86,5,42,127,457530804
120,4,4,T1_SMS_5,87,1,48,49,457564664
120,4,4,T1_SMS_5,88,5,42,127,458030352
120,4,4,T1_SMS_5,89,1,48,47,458045884
120,4,4,T1_SMS_5,90,1,48,52,458513296
120,4,4,T1_SMS_5,91,5,42,127,458531308
120,4,4,T1_SMS_5,92,1,48,55,458976188
120,4,4,T1_SMS_5,93,5,42,127,459030904
120,4,4,T1_SMS_5,94,1,48,51,459462724
120,4,4,T1_SMS_5,95,5,42,127,459530600
120,4,4,T1_SMS_5,96,1,48,48,459982240
120,4,4,T1_SMS_5,97,5,42,127,460031416
120,4,4,T1_SMS_5,98,1,48,47,460468020
120,4,4,T1_SMS_5,99,5,42,127,460531036
120,4,4,T1_SMS_5,100,1,48,43,460973924
120,4,4,T1_SMS_5,101,5,42,127,461030656
120,4,4,T1_SMS_5,102,1,48,49,461477360
120,4,4,T1_SMS_5,103,5,42,127,461530572
120,4,4,T1_SMS_5,104,1,48,49,461952448
120,4,4,T1_SMS_5,105,5,42,127,462031464
120,4,4,T1_SMS_5,106,1,48,48,462493204
120,4,4,T1_SMS_5,107,5,42,127,462530936
120,4,4,T1_SMS_5,108,1,48,43,462973976
120,4,4,T1_SMS_5,109,5,42,127,463030556
120,4,4,T1_SMS_5,110,1,48,50,463484588
120,4,4,T1_SMS_5,111,5,42,127,463531520
120,4,4,T1_SMS_5,112,1,48,42,463993560
120,4,4,T1_SMS_5,113,5,42,127,464031588
120,4,4,T1_SMS_5,114,1,48,46,464494900
120,4,4,T1_SMS_5,115,5,42,127,464530688
120,4,4,T1_SMS_5,116,1,48,46,464989736
120,4,4,T1_SMS_5,117,5,42,127,465030536
120,4,4,T1_SMS_5,118,1,48,49,465486656
120,4,4,T1_SMS_5,119,5,42,127,465531424
120,4,4,T1_SMS_5,120,1,48,51,466004084
120,4,4,T1_SMS_5,121,5,42,127,466031044
120,4,4,T1_SMS_5,122,1,48,50,466513352
120,4,4,T1_SMS_5,123,5,42,127,466530592
120,4,4,T1_SMS_5,124,1,48,52,467012596
120,4,4,T1_SMS_5,125,5,42,127,467031556
120,4,4,T1_SMS_5,126,1,48,50,467486764
120,4,4,T1_SMS_5,127,5,42,127,467531472
120,4,4,T1_SMS_5,128,1,48,51,468007280
120,4,4,T1_SMS_5,129,5,42,127,468030796
120,4,4,T1_SMS_5,130,1,48,50,468490492
120,4,4,T1_SMS_5,131,5,42,127,468530640
120,4,4,T1_SMS_5,132,1,48,49,469013444
120,4,4,T1_SMS_5,133,5,42,127,469031456
120,4,4,T1_SMS_5,134,1,48,47,469512616
120,4,4,T1_SMS_5,135,5,42,127,469531200
120,4,4,T1_SMS_5,136,1,48,50,470001244
120,4,4,T1_SMS_5,137,5,42,127,470030672
120,4,4,T1_SMS_5,138,1,48,48,470501160
120,4,4,T1_SMS_5,139,5,42,127,470530444
120,4,4,T1_SMS_5,140,1,48,53,470979164
120,4,4,T1_SMS_5,141,5,42,127,471031552
120,4,4,T1_SMS_5,142,1,48,53,471500176
120,4,4,T1_SMS_5,143,5,42,127,471530876
120,4,4,T1_SMS_5,144,1,48,54,471995304
120,4,4,T1_SMS_5,145,5,42,127,472030500
120,4,4,T1_SMS_5,146,5,42,127,472531468
120,4,4,T1_SMS_5,147,1,48,54,472533836
120,4,4,T1_SMS_5,148,5,42,127,473031236
120,4,4,T1_SMS_5,149,1,48,47,473045948
120,4,4,T1_SMS_5,150,5,42,127,473530784
120,4,4,T1_SMS_5,151,1,48,51,473539212
120,4,4,T1_SMS_5,152,1,48,49,473996628
120,4,4,T1_SMS_5,153,5,42,127,474030396
120,4,4,T1_SMS_5,154,5,42,127,474531368
120,4,4,T1_SMS_5,155,1,48,45,474543240
120,4,4,T1_SMS_5,156,1,48,52,475014716
120,4,4,T1_SMS_5,157,5,42,127,475030756
120,4,4,T1_SMS_5,158,1,48,46,475501096
120,4,4,T1_SMS_5,159,5,42,127,475530528
120,4,4,T1_SMS_5,160,1,48,51,475981268
120,4,4,T1_SMS_5,161,5,42,127,476031268
120,4,4,T1_SMS_5,162,1,48,52,476484328
120,4,4,T1_SMS_5,163,5,42,127,476531408
120,4,4,T1_SMS_5,164,1,48,51,477007364
120,4,4,T1_SMS_5,165,5,42,127,477030732
120,4,4,T1_SMS_5,166,1,48,45,477496280
120,4,4,T1_SMS_5,167,5,42,127,477530428
120,4,4,T1_SMS_5,168,1,48,54,477999720
120,4,4,T1_SMS_5,169,5,42,127,478031096
120,4,4,T1_SMS_5,170,1,48,48,478475604
120,4,4,T1_SMS_5,171,5,42,127,478531012
120,4,4,T1_SMS_5,172,1,48,47,479001176
120,4,4,T1_SMS_5,173,5,42,127,479030484
120,4,4,T1_SMS_5,174,1,48,45,479481796
120,4,4,T1_SMS_5,175,5,42,127,479531224
120,4,4,T1_SMS_5,176,1,48,47,479996452
120,4,4,T1_SMS_5,177,5,42,127,480031192
120,4,4,T1_SMS_5,178,1,48,45,480469296
120,4,4,T1_SMS_5,179,5,42,127,480530664
120,4,4,T1_SMS_5,180,1,48,49,480973476
120,4,4,T1_SMS_5,181,5,42,127,481030360
120,4,4,T1_SMS_5,182,1,48,54,481497408
120,4,4,T1_SMS_5,183,5,42,127,481531248
120,4,4,T1_SMS_5,184,1,48,49,482004284
120,4,4,T1_SMS_5,185,5,42,127,482031168
120,4,4,T1_SMS_5,186,1,48,47,482468672
120,4,4,T1_SMS_5,187,5,42,127,482530564
120,4,4,T1_SMS_5,188,1,48,48,483002848
120,4,4,T1_SMS_5,189,5,42,127,483031676
120,4,4,T1_SMS_5,190,1,48,50,483529804
120,4,4,T1_SMS_5,191,5,42,127,483531372
120,4,4,T1_SMS_5,192,1,48,51,484001340
120,4,4,T1_SMS_5,193,5,42,127,484030992
120,4,4,T1_SMS_5,194,1,48,48,484505896
120,4,4,T1_SMS_5,195,5,42,127,484530388
120,4,4,T1_SMS_5,196,1,48,46,485002824
120,4,4,T1_SMS_5,197,5,42,127,485031356
120,4,4,T1_SMS_5,198,1,48,49,485469608
120,4,4,T1_SMS_5,199,5,42,127,485531124
120,4,4,T1_SMS_5,200,1,48,45,486015376
120,4,4,T1_SMS_5,201,5,42,127,486030672
120,4,4,T1_SMS_5,202,1,48,47,486523448
120,4,4,T1_SMS_5,203,5,42,127,486530440
120,4,4,T1_SMS_5,204,1,48,46,487025088
120,4,4,T1_SMS_5,205,5,42,127,487031108
120,4,4,T1_SMS_5,206,5,42,127,487530956
120,4,4,T1_SMS_5,207,1,48,49,487545220
120,4,4,T1_SMS_5,208,1,48,48,487998828
120,4,4,T1_SMS_5,209,5,42,127,488030500
120,4,4,T1_SMS_5,210,1,48,49,488509888
120,4,4,T1_SMS_5,211,5,42,127,488531240
120,4,4,T1_SMS_5,212,1,48,51,489007864
120,4,4,T1_SMS_5,213,5,42,127,489031236
120,4,4,T1_SMS_5,214,1,48,49,489496916
120,4,4,T1_SMS_5,215,5,42,127,489530852
120,4,4,T1_SMS_5,216,1,48,40,490019740
120,4,4,T1_SMS_5,217,5,42,127,490030548
120,4,4,T1_SMS_5,218,1,48,48,490518072
120,4,4,T1_SMS_5,219,5,42,127,490531216
120,4,4,T1_SMS_5,220,1,48,45,491020680
120,4,4,T1_SMS_5,221,5,42,127,491030888
120,4,4,T1_SMS_5,222,1,48,48,491514612
120,4,4,T1_SMS_5,223,5,42,127,491530580
120,4,4,T1_SMS_5,224,1,48,47,492027400
120,4,4,T1_SMS_5,225,5,42,127,492031324
120,4,4,T1_SMS_5,226,1,48,48,492514604
120,4,4,T1_SMS_5,227,5,42,127,492531020
120,4,4,T1_SMS_5,228,1,48,43,492998820
120,4,4,T1_SMS_5,229,5,42,127,493030864
120,4,4,T1_SMS_5,230,1,48,45,493495444
120,4,4,T1_SMS_5,231,5,42,127,493530408
120,4,4,T1_SMS_5,232,1,48,43,493996712
120,4,4,T1_SMS_5,233,5,42,127,494031228
120,4,4,T1_SMS_5,234,1,48,48,494516072
120,4,4,T1_SMS_5,235,5,42,127,494530996
120,4,4,T1_SMS_5,236,1,48,45,495030772
120,4,4,T1_SMS_5,237,5,42,127,495032108
120,4,4,T1_SMS_5,238,1,48,46,495528188
120,4,4,T1_SMS_5,239,5,42,127,495531508
120,4,4,T1_SMS_5,240,1,48,40,496018980
120,4,4,T1_SMS_5,241,5,42,127,496030980
120,4,4,T1_SMS_5,242,1,48,49,496522712
120,4,4,T1_SMS_5,243,5,42,127,496530900
120,4,4,T1_SMS_5,244,1,48,45,497025548
120,4,4,T1_SMS_5,245,5,42,127,497030372
120,4,4,T1_SMS_5,246,1,48,43,497528384
120,4,4,T1_SMS_5,247,5,42,127,497531184
120,4,4,T1_SMS_5,248,5,42,127,498031036
120,4,4,T1_SMS_5,249,1,48,40,498057192
120,4,4,T1_SMS_5,250,5,42,127,498530804
120,4,4,T1_SMS_5,251,1,48,46,498531772
120,4,4,T1_SMS_5,252,1,48,44,499013704
120,4,4,T1_SMS_5,253,5,42,127,499031316
120,4,4,T1_SMS_5,254,1,48,50,499508464
120,4,4,T1_SMS_5,255,5,42,127,499531160
120,4,4,T1_SMS_5,256,1,48,46,500014216
120,4,4,T1_SMS_5,0,9999,9999,9999,435029048
120,4,4,T1_SMS_5,1,9999,9999,9999,435528764
120,4,4,T1_SMS_5,2,9999,9999,9999,436028480
120,4,4,T1_SMS_5,3,9999,9999,9999,436528196
120,4,4,T1_SMS_5,4,9999,9999,9999,437028960
120,4,4,T1_SMS_5,5,9999,9999,9999,437528624
120,4,4,T1_SMS_5,6,9999,9999,9999,438028392
120,4,4,T1_SMS_5,7,9999,9999,9999,438528088
120,4,4,T1_SMS_5,8,9999,9999,9999,439028828
120,4,4,T1_SMS_5,9,9999,9999,9999,439528524
120,4,4,T1_SMS_5,10,9999,9999,9999,440028280
120,4,4,T1_SMS_5,11,9999,9999,9999,440528944
120,4,4,T1_SMS_5,12,9999,9999,9999,441028716
120,4,4,T1_SMS_5,13,9999,9999,9999,441528412
120,4,4,T1_SMS_5,14,9999,9999,9999,442028108
120,4,4,T1_SMS_5,15,9999,9999,9999,442528848
120,4,4,T1_SMS_5,16,9999,9999,9999,443028544
120,4,4,T1_SMS_5,17,9999,9999,9999,443528312
120,4,4,T1_SMS_5,18,9999,9999,9999,444028980
120,4,4,T1_SMS_5,19,9999,9999,9999,444528748
120,4,4,T1_SMS_5,20,9999,9999,9999,445028444
120,4,4,T1_SMS_5,21,9999,9999,9999,445528140
120,4,4,T1_SMS_5,22,9999,9999,9999,446028880
120,4,4,T1_SMS_5,23,9999,9999,9999,446528576
120,4,4,T1_SMS_5,24,9999,9999,9999,447028344
120,4,4,T1_SMS_5,25,9999,9999,9999,447529012
120,4,4,T1_SMS_5,26,9999,9999,9999,448028760
120,4,4,T1_SMS_5,27,9999,9999,9999,448528452
120,4,4,T1_SMS_5,28,9999,9999,9999,449028148
120,4,4,T1_SMS_5,29,9999,9999,9999,449528892
120,4,4,T1_SMS_5,30,9999,9999,9999,450028660
120,4,4,T1_SMS_5,31,9999,9999,9999,450528356
120,4,4,T1_SMS_5,32,9999,9999,9999,451029096
120,4,4,T1_SMS_5,33,9999,9999,9999,451528792
120,4,4,T1_SMS_5,34,9999,9999,9999,452028504
120,4,4,T1_SMS_5,35,9999,9999,9999,452528196
120,4,4,T1_SMS_5,36,9999,9999,9999,453028940
120,4,4,T1_SMS_5,37,9999,9999,9999,453528632
120,4,4,T1_SMS_5,38,9999,9999,9999,454028404
120,4,4,T1_SMS_5,39,9999,9999,9999,454528100
120,4,4,T1_SMS_5,40,9999,9999,9999,455028848
120,4,4,T1_SMS_5,41,9999,9999,9999,455528544
120,4,4,T1_SMS_5,42,9999,9999,9999,456028232
120,4,4,T1_SMS_5,43,9999,9999,9999,456528972
120,4,4,T1_SMS_5,44,9999,9999,9999,457028668
120,4,4,T1_SMS_5,45,9999,9999,9999,457528368
120,4,4,T1_SMS_5,46,9999,9999,9999,458028140
120,4,4,T1_SMS_5,47,9999,9999,9999,458528856
120,4,4,T1_SMS_5,48,9999,9999,9999,459028544
120,4,4,T1_SMS_5,49,9999,9999,9999,459528312
120,4,4,T1_SMS_5,50,9999,9999,9999,460028980
120,4,4,T1_SMS_5,51,9999,9999,9999,460528748
120,4,4,T1_SMS_5,52,9999,9999,9999,461028444
120,4,4,T1_SMS_5,53,9999,9999,9999,461528140
120,4,4,T1_SMS_5,54,9999,9999,9999,462028880
120,4,4,T1_SMS_5,55,9999,9999,9999,462528576
120,4,4,T1_SMS_5,56,9999,9999,9999,463028344
120,4,4,T1_SMS_5,57,9999,9999,9999,463529012
120,4,4,T1_SMS_5,58,9999,9999,9999,464028784
120,4,4,T1_SMS_5,59,9999,9999,9999,464528476
120,4,4,T1_SMS_5,60,9999,9999,9999,465028172
120,4,4,T1_SMS_5,61,9999,9999,9999,465528912
120,4,4,T1_SMS_5,62,9999,9999,9999,466028608
120,4,4,T1_SMS_5,63,9999,9999,9999,466528304
120,4,4,T1_SMS_5,64,9999,9999,9999,467029044
120,4,4,T1_SMS_5,65,9999,9999,9999,467528816
120,4,4,T1_SMS_5,66,9999,9999,9999,468028512
120,4,4,T1_SMS_5,67,9999,9999,9999,468528204
120,4,4,T1_SMS_5,68,9999,9999,9999,469028948
120,4,4,T1_SMS_5,69,9999,9999,9999,469528692
120,4,4,T1_SMS_5,70,9999,9999,9999,470028388
120,4,4,T1_SMS_5,71,9999,9999,9999,470528080
120,4,4,T1_SMS_5,72,9999,9999,9999,471028820
120,4,4,T1_SMS_5,73,9999,9999,9999,471528516
120,4,4,T1_SMS_5,74,9999,9999,9999,472028212
120,4,4,T1_SMS_5,75,9999,9999,9999,472528960
120,4,4,T1_SMS_5,76,9999,9999,9999,473028728
120,4,4,T1_SMS_5,77,9999,9999,9999,473528420
120,4,4,T1_SMS_5,78,9999,9999,9999,474028108
120,4,4,T1_SMS_5,79,9999,9999,9999,474528856
120,4,4,T1_SMS_5,80,9999,9999,9999,475028544
120,4,4,T1_SMS_5,81,9999,9999,9999,475528240
120,4,4,T1_SMS_5,82,9999,9999,9999,476028984
120,4,4,T1_SMS_5,83,9999,9999,9999,476528752
120,4,4,T1_SMS_5,84,9999,9999,9999,477028448
120,4,4,T1_SMS_5,85,9999,9999,9999,477528140
120,4,4,T1_SMS_5,86,9999,9999,9999,478028884
120,4,4,T1_SMS_5,87,9999,9999,9999,478528576
120,4,4,T1_SMS_5,88,9999,9999,9999,479028272
120,4,4,T1_SMS_5,89,9999,9999,9999,479529012
120,4,4,T1_SMS_5,90,9999,9999,9999,480028760
120,4,4,T1_SMS_5,91,9999,9999,9999,480528452
120,4,4,T1_SMS_5,92,9999,9999,9999,481028148
120,4,4,T1_SMS_5,93,9999,9999,9999,481528888
120,4,4,T1_SMS_5,94,9999,9999,9999,482028660
120,4,4,T1_SMS_5,95,9999,9999,9999,482528352
120,4,4,T1_SMS_5,96,9999,9999,9999,483029092
120,4,4,T1_SMS_5,97,9999,9999,9999,483528796
120,4,4,T1_SMS_5,98,9999,9999,9999,484028484
120,4,4,T1_SMS_5,99,9999,9999,9999,484528176
120,4,4,T1_SMS_5,100,9999,9999,9999,485028920
120,4,4,T1_SMS_5,101,9999,9999,9999,485528688
120,4,4,T1_SMS_5,102,9999,9999,9999,486028384
120,4,4,T1_SMS_5,103,9999,9999,9999,486528080
120,4,4,T1_SMS_5,104,9999,9999,9999,487028820
120,4,4,T1_SMS_5,105,9999,9999,9999,487528524
120,4,4,T1_SMS_5,106,9999,9999,9999,488028212
120,4,4,T1_SMS_5,107,9999,9999,9999,488528952
120,4,4,T1_SMS_5,108,9999,9999,9999,489028724
120,4,4,T1_SMS_5,109,9999,9999,9999,489528420
120,4,4,T1_SMS_5,110,9999,9999,9999,490028112
120,4,4,T1_SMS_5,111,9999,9999,9999,490528856
120,4,4,T1_SMS_5,112,9999,9999,9999,491028600
120,4,4,T1_SMS_5,113,9999,9999,9999,491528296
120,4,4,T1_SMS_5,114,9999,9999,9999,492029036
120,4,4,T1_SMS_5,115,9999,9999,9999,492528732
120,4,4,T1_SMS_5,116,9999,9999,9999,493028428
120,4,4,T1_SMS_5,117,9999,9999,9999,493528124
120,4,4,T1_SMS_5,118,9999,9999,9999,494028868
120,4,4,T1_SMS_5,119,9999,9999,9999,494528560
120,4,4,T1_SMS_5,120,9999,9999,9999,495028336
120,4,4,T1_SMS_5,121,9999,9999,9999,495529072
120,4,4,T1_SMS_5,122,9999,9999,9999,496028768
120,4,4,T1_SMS_5,123,9999,9999,9999,496528464
120,4,4,T1_SMS_5,124,9999,9999,9999,497028160
120,4,4,T1_SMS_5,125,9999,9999,9999,497528900
120,4,4,T1_SMS_5,126,9999,9999,9999,498028600
120,4,4,T1_SMS_5,127,9999,9999,9999,498528368
120,4,4,T1_SMS_5,128,9999,9999,9999,499029104
120,4,4,T1_SMS_5,129,9999,9999,9999,499528800
120,5,9,Ticks_ISO_T2_8,0,5,42,127,510217864
120,5,9,Ticks_ISO_T2_8,1,5,42,127,511018392
120,5,9,Ticks_ISO_T2_8,2,5,42,127,511818000
120,5,9,Ticks_ISO_T2_8,3,1,48,63,511911620
120,5,9,Ticks_ISO_T2_8,4,5,42,127,512617808
120,5,9,Ticks_ISO_T2_8,5,1,48,60,512775904
120,5,9,Ticks_ISO_T2_8,6,5,42,127,513417688
120,5,9,Ticks_ISO_T2_8,7,1,48,60,513629372
120,5,9,Ticks_ISO_T2_8,8,5,42,127,514218544
120,5,9,Ticks_ISO_T2_8,9,5,42,127,515018000
120,5,9,Ticks_ISO_T2_8,10,1,48,58,515126388
120,5,9,Ticks_ISO_T2_8,11,1,48,66,515806168
120,5,9,Ticks_ISO_T2_8,12,5,42,127,515817804
120,5,9,Ticks_ISO_T2_8,13,1,48,61,516419664
120,5,9,Ticks_ISO_T2_8,14,5,42,127,516617520
120,5,9,Ticks_ISO_T2_8,15,1,48,53,517153420
120,5,9,Ticks_ISO_T2_8,16,5,42,127,517418548
120,5,9,Ticks_ISO_T2_8,17,1,48,54,518023164
120,5,9,Ticks_ISO_T2_8,18,5,42,127,518218060
120,5,9,Ticks_ISO_T2_8,19,1,48,55,518865532
120,5,9,Ticks_ISO_T2_8,20,5,42,127,519017792
120,5,9,Ticks_ISO_T2_8,21,1,48,54,519677756
120,5,9,Ticks_ISO_T2_8,22,5,42,127,519817524
120,5,9,Ticks_ISO_T2_8,23,1,48,54,520512820
120,5,9,Ticks_ISO_T2_8,24,5,42,127,520618308
120,5,9,Ticks_ISO_T2_8,25,1,48,54,521362292
120,5,9,Ticks_ISO_T2_8,26,5,42,127,521418128
120,5,9,Ticks_ISO_T2_8,27,1,48,56,522177816
120,5,9,Ticks_ISO_T2_8,28,5,42,127,522217716
120,5,9,Ticks_ISO_T2_8,29,1,48,52,523008512
120,5,9,Ticks_ISO_T2_8,30,5,42,127,523017672
120,5,9,Ticks_ISO_T2_8,31,1,48,50,523773016
120,5,9,Ticks_ISO_T2_8,32,5,42,127,523818548
120,5,9,Ticks_ISO_T2_8,33,1,48,55,524548588
120,5,9,Ticks_ISO_T2_8,34,5,42,127,524618060
120,5,9,Ticks_ISO_T2_8,35,1,48,51,525373700
120,5,9,Ticks_ISO_T2_8,36,5,42,127,525417940
120,5,9,Ticks_ISO_T2_8,37,1,48,49,526194756
120,5,9,Ticks_ISO_T2_8,38,5,42,127,526217528
120,5,9,Ticks_ISO_T2_8,39,1,48,46,526994784
120,5,9,Ticks_ISO_T2_8,40,5,42,127,527018528
120,5,9,Ticks_ISO_T2_8,41,1,48,46,527773572
120,5,9,Ticks_ISO_T2_8,42,5,42,127,527818040
120,5,9,Ticks_ISO_T2_8,43,1,48,51,528571212
120,5,9,Ticks_ISO_T2_8,44,5,42,127,528617776
120,5,9,Ticks_ISO_T2_8,45,1,48,43,529369156
120,5,9,Ticks_ISO_T2_8,46,5,42,127,529417656
120,5,9,Ticks_ISO_T2_8,47,1,48,46,530195284
120,5,9,Ticks_ISO_T2_8,48,5,42,127,530218460
120,5,9,Ticks_ISO_T2_8,49,1,48,47,531015240
120,5,9,Ticks_ISO_T2_8,50,5,42,127,531017972
120,5,9,Ticks_ISO_T2_8,51,1,48,47,531797028
120,5,9,Ticks_ISO_T2_8,52,5,42,127,531817780
120,5,9,Ticks_ISO_T2_8,53,1,48,51,532574168
120,5,9,Ticks_ISO_T2_8,54,5,42,127,532617664
120,5,9,Ticks_ISO_T2_8,55,1,48,53,533416324
120,5,9,Ticks_ISO_T2_8,56,5,42,127,533418368
120,5,9,Ticks_ISO_T2_8,57,5,42,127,534218036
120,5,9,Ticks_ISO_T2_8,58,1,48,54,534246436
120,5,9,Ticks_ISO_T2_8,59,5,42,127,535017768
120,5,9,Ticks_ISO_T2_8,60,1,48,46,535035248
120,5,9,Ticks_ISO_T2_8,61,5,42,127,535817576
120,5,9,Ticks_ISO_T2_8,62,1,48,46,535825556
120,5,9,Ticks_ISO_T2_8,63,5,42,127,536618456
120,5,9,Ticks_ISO_T2_8,64,1,48,54,536639976
120,5,9,Ticks_ISO_T2_8,65,1,48,50,537388084
120,5,9,Ticks_ISO_T2_8,66,5,42,127,537418032
120,5,9,Ticks_ISO_T2_8,67,1,48,47,538149892
120,5,9,Ticks_ISO_T2_8,68,5,42,127,538217840
120,5,9,Ticks_ISO_T2_8,69,1,48,50,538953584
120,5,9,Ticks_ISO_T2_8,70,5,42,127,539017576
120,5,9,Ticks_ISO_T2_8,71,1,48,49,539786612
120,5,9,Ticks_ISO_T2_8,72,5,42,127,539818356
120,5,9,Ticks_ISO_T2_8,73,1,48,52,540600028
120,5,9,Ticks_ISO_T2_8,74,5,42,127,540618088
120,5,9,Ticks_ISO_T2_8,75,1,48,54,541392800
120,5,9,Ticks_ISO_T2_8,76,5,42,127,541417748
120,5,9,Ticks_ISO_T2_8,77,1,48,46,542177580
120,5,9,Ticks_ISO_T2_8,78,5,42,127,542217556
120,5,9,Ticks_ISO_T2_8,79,1,48,48,542977612
120,5,9,Ticks_ISO_T2_8,80,5,42,127,543018284
120,5,9,Ticks_ISO_T2_8,81,1,48,55,543797116
120,5,9,Ticks_ISO_T2_8,82,5,42,127,543818168
120,5,9,Ticks_ISO_T2_8,83,1,48,49,544604780
120,5,9,Ticks_ISO_T2_8,84,5,42,127,544617904
120,5,9,Ticks_ISO_T2_8,85,1,48,53,545412740
120,5,9,Ticks_ISO_T2_8,86,5,42,127,545417564
120,5,9,Ticks_ISO_T2_8,87,1,48,57,546186968
120,5,9,Ticks_ISO_T2_8,88,5,42,127,546218492
120,5,9,Ticks_ISO_T2_8,89,5,42,127,547018232
120,5,9,Ticks_ISO_T2_8,90,1,48,52,547043116
120,5,9,Ticks_ISO_T2_8,91,5,42,127,547817968
120,5,9,Ticks_ISO_T2_8,92,1,48,52,547860732
120,5,9,Ticks_ISO_T2_8,93,5,42,127,548617552
120,5,9,Ticks_ISO_T2_8,94,1,48,52,548629652
120,5,9,Ticks_ISO_T2_8,95,5,42,127,549418432
120,5,9,Ticks_ISO_T2_8,96,1,48,54,549442648
120,5,9,Ticks_ISO_T2_8,97,1,48,56,550201672
120,5,9,Ticks_ISO_T2_8,98,5,42,127,550218308
120,5,9,Ticks_ISO_T2_8,99,1,48,53,551010384
120,5,9,Ticks_ISO_T2_8,100,5,42,127,551017748
120,5,9,Ticks_ISO_T2_8,101,1,48,47,551806892
120,5,9,Ticks_ISO_T2_8,102,5,42,127,551817480
120,5,9,Ticks_ISO_T2_8,103,5,42,127,552618344
120,5,9,Ticks_ISO_T2_8,104,1,48,49,552622952
120,5,9,Ticks_ISO_T2_8,105,5,42,127,553418296
120,5,9,Ticks_ISO_T2_8,106,1,48,53,553428820
120,5,9,Ticks_ISO_T2_8,107,1,48,56,554195400
120,5,9,Ticks_ISO_T2_8,108,5,42,127,554217800
120,5,9,Ticks_ISO_T2_8,109,5,42,127,555017468
120,5,9,Ticks_ISO_T2_8,110,1,48,59,555027840
120,5,9,Ticks_ISO_T2_8,111,1,48,57,555814488
120,5,9,Ticks_ISO_T2_8,112,5,42,127,555818264
120,5,9,Ticks_ISO_T2_8,113,1,48,59,556538956
120,5,9,Ticks_ISO_T2_8,114,5,42,127,556618220
120,5,9,Ticks_ISO_T2_8,115,1,48,47,557336816
120,5,9,Ticks_ISO_T2_8,116,5,42,127,557418100
120,5,9,Ticks_ISO_T2_8,117,1,48,48,558109724
120,5,9,Ticks_ISO_T2_8,118,5,42,127,558217448
120,5,9,Ticks_ISO_T2_8,119,1,48,43,558957472
120,5,9,Ticks_ISO_T2_8,120,5,42,127,559018244
120,5,9,Ticks_ISO_T2_8,121,1,48,53,559802908
120,5,9,Ticks_ISO_T2_8,122,5,42,127,559818200
120,5,9,Ticks_ISO_T2_8,123,1,48,50,560590904
120,5,9,Ticks_ISO_T2_8,124,5,42,127,560618012
120,5,9,Ticks_ISO_T2_8,125,1,48,57,561368568
120,5,9,Ticks_ISO_T2_8,126,5,42,127,561417520
120,5,9,Ticks_ISO_T2_8,127,1,48,54,562160824
120,5,9,Ticks_ISO_T2_8,128,5,42,127,562218324
120,5,9,Ticks_ISO_T2_8,129,1,48,48,562970052
120,5,9,Ticks_ISO_T2_8,130,5,42,127,563018132
120,5,9,Ticks_ISO_T2_8,131,1,48,56,563768240
120,5,9,Ticks_ISO_T2_8,132,5,42,127,563818016
120,5,9,Ticks_ISO_T2_8,133,1,48,46,564586676
120,5,9,Ticks_ISO_T2_8,134,5,42,127,564617524
120,5,9,Ticks_ISO_T2_8,135,1,48,58,565364116
120,5,9,Ticks_ISO_T2_8,136,5,42,127,565418304
120,5,9,Ticks_ISO_T2_8,137,1,48,55,566143056
120,5,9,Ticks_ISO_T2_8,138,5,42,127,566218112
120,5,9,Ticks_ISO_T2_8,139,1,48,53,566947424
120,5,9,Ticks_ISO_T2_8,140,5,42,127,567017992
120,5,9,Ticks_ISO_T2_8,141,1,48,53,567748428
120,5,9,Ticks_ISO_T2_8,142,5,42,127,567817504
120,5,9,Ticks_ISO_T2_8,143,1,48,49,568531856
120,5,9,Ticks_ISO_T2_8,144,5,42,127,568618456
120,5,9,Ticks_ISO_T2_8,145,1,48,53,569394220
120,5,9,Ticks_ISO_T2_8,146,5,42,127,569418112
120,5,9,Ticks_ISO_T2_8,147,1,48,55,570188640
120,5,9,Ticks_ISO_T2_8,148,5,42,127,570217920
120,5,9,Ticks_ISO_T2_8,149,1,48,56,570970048
120,5,9,Ticks_ISO_T2_8,150,5,42,127,571017432
120,5,9,Ticks_ISO_T2_8,151,1,48,58,571740388
120,5,9,Ticks_ISO_T2_8,152,5,42,127,571818212
120,5,9,Ticks_ISO_T2_8,153,1,48,50,572541096
120,5,9,Ticks_ISO_T2_8,154,5,42,127,572617948
120,5,9,Ticks_ISO_T2_8,155,1,48,52,573336484
120,5,9,Ticks_ISO_T2_8,156,5,42,127,573417976
120,5,9,Ticks_ISO_T2_8,157,1,48,59,574167340
120,5,9,Ticks_ISO_T2_8,158,5,42,127,574217708
120,5,9,Ticks_ISO_T2_8,159,1,48,63,574978368
120,5,9,Ticks_ISO_T2_8,160,5,42,127,575018292
120,5,9,Ticks_ISO_T2_8,161,1,48,53,575751092
120,5,9,Ticks_ISO_T2_8,162,5,42,127,575818024
120,5,9,Ticks_ISO_T2_8,163,1,48,46,576540012
120,5,9,Ticks_ISO_T2_8,164,5,42,127,576617908
120,5,9,Ticks_ISO_T2_8,165,1,48,54,577333684
120,5,9,Ticks_ISO_T2_8,166,5,42,127,577417716
120,5,9,Ticks_ISO_T2_8,167,1,48,66,578186600
120,5,9,Ticks_ISO_T2_8,168,5,42,127,578218420
120,5,9,Ticks_ISO_T2_8,169,1,48,59,579001516
120,5,9,Ticks_ISO_T2_8,170,5,42,127,579018004
120,5,9,Ticks_ISO_T2_8,171,1,48,62,579810748
120,5,9,Ticks_ISO_T2_8,172,5,42,127,579817812
120,5,9,Ticks_ISO_T2_8,173,1,48,63,580572932
120,5,9,Ticks_ISO_T2_8,174,5,42,127,580617548
120,5,9,Ticks_ISO_T2_8,175,1,48,67,581349556
120,5,9,Ticks_ISO_T2_8,176,5,42,127,581418204
120,5,9,Ticks_ISO_T2_8,177,1,48,58,582156620
120,5,9,Ticks_ISO_T2_8,178,5,42,127,582218012
120,5,9,Ticks_ISO_T2_8,179,1,48,53,582972532
120,5,9,Ticks_ISO_T2_8,180,5,42,127,583017816
120,5,9,Ticks_ISO_T2_8,181,1,48,56,583768600
120,5,9,Ticks_ISO_T2_8,182,5,42,127,583817628
120,5,9,Ticks_ISO_T2_8,183,1,48,54,584573048
120,5,9,Ticks_ISO_T2_8,184,5,42,127,584618332
120,5,9,Ticks_ISO_T2_8,185,1,48,50,585365896
120,5,9,Ticks_ISO_T2_8,186,5,42,127,585418064
120,5,9,Ticks_ISO_T2_8,187,1,48,51,586144756
120,5,9,Ticks_ISO_T2_8,188,5,42,127,586217948
120,5,9,Ticks_ISO_T2_8,189,1,48,50,586942996
120,5,9,Ticks_ISO_T2_8,190,5,42,127,587017532
120,5,9,Ticks_ISO_T2_8,191,1,48,51,587775640
120,5,9,Ticks_ISO_T2_8,192,5,42,127,587818632
120,5,9,Ticks_ISO_T2_8,193,1,48,56,588591032
120,5,9,Ticks_ISO_T2_8,194,5,42,127,588618072
120,5,9,Ticks_ISO_T2_8,195,1,48,60,589406624
120,5,9,Ticks_ISO_T2_8,196,5,42,127,589417804
120,5,9,Ticks_ISO_T2_8,197,1,48,58,590214584
120,5,9,Ticks_ISO_T2_8,198,5,42,127,590217760
120,5,9,Ticks_ISO_T2_8,199,1,48,56,591001528
120,5,9,Ticks_ISO_T2_8,200,5,42,127,591018320
120,5,9,Ticks_ISO_T2_8,201,1,48,52,591740156
120,5,9,Ticks_ISO_T2_8,202,5,42,127,591818056
120,5,9,Ticks_ISO_T2_8,203,1,48,51,592575040
120,5,9,Ticks_ISO_T2_8,204,5,42,127,592617788
120,5,9,Ticks_ISO_T2_8,205,1,48,51,593393776
120,5,9,Ticks_ISO_T2_8,206,5,42,127,593417744
120,5,9,Ticks_ISO_T2_8,207,1,48,52,594192836
120,5,9,Ticks_ISO_T2_8,208,5,42,127,594218476
120,5,9,Ticks_ISO_T2_8,209,1,48,51,594992520
120,5,9,Ticks_ISO_T2_8,210,5,42,127,595018060
120,5,9,Ticks_ISO_T2_8,211,1,48,54,595776316
120,5,9,Ticks_ISO_T2_8,212,5,42,127,595817720
120,5,9,Ticks_ISO_T2_8,213,1,48,46,596574180
120,5,9,Ticks_ISO_T2_8,214,5,42,127,596617600
120,5,9,Ticks_ISO_T2_8,215,1,48,56,597376316
120,5,9,Ticks_ISO_T2_8,216,5,42,127,597418308
120,5,9,Ticks_ISO_T2_8,217,1,48,55,598199008
120,5,9,Ticks_ISO_T2_8,218,5,42,127,598218040
120,5,9,Ticks_ISO_T2_8,219,1,48,55,599017328
120,5,9,Ticks_ISO_T2_8,220,5,42,127,599018896
120,5,9,Ticks_ISO_T2_8,221,1,48,58,599805948
120,5,9,Ticks_ISO_T2_8,222,5,42,127,599817508
120,5,9,Ticks_ISO_T2_8,223,5,42,127,600618320
120,5,9,Ticks_ISO_T2_8,224,1,48,62,600625096
120,5,9,Ticks_ISO_T2_8,225,1,48,62,601411500
120,5,9,Ticks_ISO_T2_8,226,5,42,127,601418044
120,5,9,Ticks_ISO_T2_8,227,1,48,55,602165832
120,5,9,Ticks_ISO_T2_8,228,5,42,127,602217856
120,5,9,Ticks_ISO_T2_8,229,1,48,57,602958312
120,5,9,Ticks_ISO_T2_8,230,5,42,127,603017512
120,5,9,Ticks_ISO_T2_8,231,1,48,59,603767996
120,5,9,Ticks_ISO_T2_8,232,5,42,127,603818444
120,5,9,Ticks_ISO_T2_8,233,1,48,58,604592860
120,5,9,Ticks_ISO_T2_8,234,5,42,127,604618028
120,5,9,Ticks_ISO_T2_8,235,1,48,62,605395512
120,5,9,Ticks_ISO_T2_8,236,5,42,127,605417688
120,5,9,Ticks_ISO_T2_8,237,1,48,54,606177068
120,5,9,Ticks_ISO_T2_8,0,9999,9999,9999,510215276
120,5,9,Ticks_ISO_T2_8,1,9999,9999,9999,511016024
120,5,9,Ticks_ISO_T2_8,2,9999,9999,9999,511815784
120,5,9,Ticks_ISO_T2_8,3,9999,9999,9999,512615516
120,5,9,Ticks_ISO_T2_8,4,9999,9999,9999,513415248
120,5,9,Ticks_ISO_T2_8,5,9999,9999,9999,514216028
120,5,9,Ticks_ISO_T2_8,6,9999,9999,9999,515015784
120,5,9,Ticks_ISO_T2_8,7,9999,9999,9999,515815512
120,5,9,Ticks_ISO_T2_8,8,9999,9999,9999,516615228
120,5,9,Ticks_ISO_T2_8,9,9999,9999,9999,517416036
120,5,9,Ticks_ISO_T2_8,10,9999,9999,9999,518215768
120,5,9,Ticks_ISO_T2_8,11,9999,9999,9999,519015500
120,5,9,Ticks_ISO_T2_8,12,9999,9999,9999,519815232
120,5,9,Ticks_ISO_T2_8,13,9999,9999,9999,520616012
120,5,9,Ticks_ISO_T2_8,14,9999,9999,9999,521415764
120,5,9,Ticks_ISO_T2_8,15,9999,9999,9999,522215496
120,5,9,Ticks_ISO_T2_8,16,9999,9999,9999,523015228
120,5,9,Ticks_ISO_T2_8,17,9999,9999,9999,523816036
120,5,9,Ticks_ISO_T2_8,18,9999,9999,9999,524615768
120,5,9,Ticks_ISO_T2_8,19,9999,9999,9999,525415500
120,5,9,Ticks_ISO_T2_8,20,9999,9999,9999,526215236
120,5,9,Ticks_ISO_T2_8,21,9999,9999,9999,527016016
120,5,9,Ticks_ISO_T2_8,22,9999,9999,9999,527815748
120,5,9,Ticks_ISO_T2_8,23,9999,9999,9999,528615484
120,5,9,Ticks_ISO_T2_8,24,9999,9999,9999,529415216
120,5,9,Ticks_ISO_T2_8,25,9999,9999,9999,530216020
120,5,9,Ticks_ISO_T2_8,26,9999,9999,9999,531015752
120,5,9,Ticks_ISO_T2_8,27,9999,9999,9999,531815488
120,5,9,Ticks_ISO_T2_8,28,9999,9999,9999,532615224
120,5,9,Ticks_ISO_T2_8,29,9999,9999,9999,533416040
120,5,9,Ticks_ISO_T2_8,30,9999,9999,9999,534215744
120,5,9,Ticks_ISO_T2_8,31,9999,9999,9999,535015476
120,5,9,Ticks_ISO_T2_8,32,9999,9999,9999,535815284
120,5,9,Ticks_ISO_T2_8,33,9999,9999,9999,536616016
120,5,9,Ticks_ISO_T2_8,34,9999,9999,9999,537415740
120,5,9,Ticks_ISO_T2_8,35,9999,9999,9999,538215476
120,5,9,Ticks_ISO_T2_8,36,9999,9999,9999,539015284
120,5,9,Ticks_ISO_T2_8,37,9999,9999,9999,539815992
120,5,9,Ticks_ISO_T2_8,38,9999,9999,9999,540615800
120,5,9,Ticks_ISO_T2_8,39,9999,9999,9999,541415532
120,5,9,Ticks_ISO_T2_8,40,9999,9999,9999,542215264
120,5,9,Ticks_ISO_T2_8,41,9999,9999,9999,543015992
120,5,9,Ticks_ISO_T2_8,42,9999,9999,9999,543815728
120,5,9,Ticks_ISO_T2_8,43,9999,9999,9999,544615540
120,5,9,Ticks_ISO_T2_8,44,9999,9999,9999,545415272
120,5,9,Ticks_ISO_T2_8,45,9999,9999,9999,546216052
120,5,9,Ticks_ISO_T2_8,46,9999,9999,9999,547015792
120,5,9,Ticks_ISO_T2_8,47,9999,9999,9999,547815528
120,5,9,Ticks_ISO_T2_8,48,9999,9999,9999,548615260
120,5,9,Ticks_ISO_T2_8,49,9999,9999,9999,549415992
120,5,9,Ticks_ISO_T2_8,50,9999,9999,9999,550215796
120,5,9,Ticks_ISO_T2_8,51,9999,9999,9999,551015528
120,5,9,Ticks_ISO_T2_8,52,9999,9999,9999,551815264
120,5,9,Ticks_ISO_T2_8,53,9999,9999,9999,552616052
120,5,9,Ticks_ISO_T2_8,54,9999,9999,9999,553415784
120,5,9,Ticks_ISO_T2_8,55,9999,9999,9999,554215512
120,5,9,Ticks_ISO_T2_8,56,9999,9999,9999,555015248
120,5,9,Ticks_ISO_T2_8,57,9999,9999,9999,555816048
120,5,9,Ticks_ISO_T2_8,58,9999,9999,9999,556615780
120,5,9,Ticks_ISO_T2_8,59,9999,9999,9999,557415512
120,5,9,Ticks_ISO_T2_8,60,9999,9999,9999,558215232
120,5,9,Ticks_ISO_T2_8,61,9999,9999,9999,559016028
120,5,9,Ticks_ISO_T2_8,62,9999,9999,9999,559815760
120,5,9,Ticks_ISO_T2_8,63,9999,9999,9999,560615496
120,5,9,Ticks_ISO_T2_8,64,9999,9999,9999,561415228
120,5,9,Ticks_ISO_T2_8,65,9999,9999,9999,562216032
120,5,9,Ticks_ISO_T2_8,66,9999,9999,9999,563015764
120,5,9,Ticks_ISO_T2_8,67,9999,9999,9999,563815500
120,5,9,Ticks_ISO_T2_8,68,9999,9999,9999,564615232
120,5,9,Ticks_ISO_T2_8,69,9999,9999,9999,565416012
120,5,9,Ticks_ISO_T2_8,70,9999,9999,9999,566215744
120,5,9,Ticks_ISO_T2_8,71,9999,9999,9999,567015480
120,5,9,Ticks_ISO_T2_8,72,9999,9999,9999,567815284
120,5,9,Ticks_ISO_T2_8,73,9999,9999,9999,568616016
120,5,9,Ticks_ISO_T2_8,74,9999,9999,9999,569415748
120,5,9,Ticks_ISO_T2_8,75,9999,9999,9999,570215480
120,5,9,Ticks_ISO_T2_8,76,9999,9999,9999,571015212
120,5,9,Ticks_ISO_T2_8,77,9999,9999,9999,571815996
120,5,9,Ticks_ISO_T2_8,78,9999,9999,9999,572615728
120,5,9,Ticks_ISO_T2_8,79,9999,9999,9999,573415536
120,5,9,Ticks_ISO_T2_8,80,9999,9999,9999,574215268
120,5,9,Ticks_ISO_T2_8,81,9999,9999,9999,575016000
120,5,9,Ticks_ISO_T2_8,82,9999,9999,9999,575815732
120,5,9,Ticks_ISO_T2_8,83,9999,9999,9999,576615544
120,5,9,Ticks_ISO_T2_8,84,9999,9999,9999,577415276
120,5,9,Ticks_ISO_T2_8,85,9999,9999,9999,578215980
120,5,9,Ticks_ISO_T2_8,86,9999,9999,9999,579015788
120,5,9,Ticks_ISO_T2_8,87,9999,9999,9999,579815524
120,5,9,Ticks_ISO_T2_8,88,9999,9999,9999,580615256
120,5,9,Ticks_ISO_T2_8,89,9999,9999,9999,581415984
120,5,9,Ticks_ISO_T2_8,90,9999,9999,9999,582215792
120,5,9,Ticks_ISO_T2_8,91,9999,9999,9999,583015528
120,5,9,Ticks_ISO_T2_8,92,9999,9999,9999,583815260
120,5,9,Ticks_ISO_T2_8,93,9999,9999,9999,584616040
120,5,9,Ticks_ISO_T2_8,94,9999,9999,9999,585415772
120,5,9,Ticks_ISO_T2_8,95,9999,9999,9999,586215508
120,5,9,Ticks_ISO_T2_8,96,9999,9999,9999,587015240
120,5,9,Ticks_ISO_T2_8,97,9999,9999,9999,587816044
120,5,9,Ticks_ISO_T2_8,98,9999,9999,9999,588615780
120,5,9,Ticks_ISO_T2_8,99,9999,9999,9999,589415512
120,5,9,Ticks_ISO_T2_8,100,9999,9999,9999,590215248
120,5,9,Ticks_ISO_T2_8,101,9999,9999,9999,591016028
120,5,9,Ticks_ISO_T2_8,102,9999,9999,9999,591815764
120,5,9,Ticks_ISO_T2_8,103,9999,9999,9999,592615496
120,5,9,Ticks_ISO_T2_8,104,9999,9999,9999,593415228
120,5,9,Ticks_ISO_T2_8,105,9999,9999,9999,594216036
120,5,9,Ticks_ISO_T2_8,106,9999,9999,9999,595015768
120,5,9,Ticks_ISO_T2_8,107,9999,9999,9999,595815504
120,5,9,Ticks_ISO_T2_8,108,9999,9999,9999,596615236
120,5,9,Ticks_ISO_T2_8,109,9999,9999,9999,597416016
120,5,9,Ticks_ISO_T2_8,110,9999,9999,9999,598215748
120,5,9,Ticks_ISO_T2_8,111,9999,9999,9999,599015488
120,5,9,Ticks_ISO_T2_8,112,9999,9999,9999,599815216
120,5,9,Ticks_ISO_T2_8,113,9999,9999,9999,600616028
120,5,9,Ticks_ISO_T2_8,114,9999,9999,9999,601415756
120,5,9,Ticks_ISO_T2_8,115,9999,9999,9999,602215488
120,5,9,Ticks_ISO_T2_8,116,9999,9999,9999,603015220
120,5,9,Ticks_ISO_T2_8,117,9999,9999,9999,603816000
120,5,9,Ticks_ISO_T2_8,118,9999,9999,9999,604615736
120,5,9,Ticks_ISO_T2_8,119,9999,9999,9999,605415472
120,6,10,Ticks_ISO_T2_5,0,5,42,127,616793648
120,6,10,Ticks_ISO_T2_5,1,5,42,127,617294264
120,6,10,Ticks_ISO_T2_5,2,5,42,127,617793756
120,6,10,Ticks_ISO_T2_5,3,5,42,127,618293548
120,6,10,Ticks_ISO_T2_5,4,5,42,127,618794312
120,6,10,Ticks_ISO_T2_5,5,1,48,62,618811720
120,6,10,Ticks_ISO_T2_5,6,5,42,127,619294156
120,6,10,Ticks_ISO_T2_5,7,1,48,71,619305204
120,6,10,Ticks_ISO_T2_5,8,1,48,71,619779276
120,6,10,Ticks_ISO_T2_5,9,5,42,127,619793668
120,6,10,Ticks_ISO_T2_5,10,1,48,86,620264084
120,6,10,Ticks_ISO_T2_5,11,5,42,127,620293364
120,6,10,Ticks_ISO_T2_5,12,1,48,86,620777920
120,6,10,Ticks_ISO_T2_5,13,5,42,127,620794256
120,6,10,Ticks_ISO_T2_5,14,1,48,80,621269236
120,6,10,Ticks_ISO_T2_5,15,5,42,127,621293876
120,6,10,Ticks_ISO_T2_5,16,1,48,73,621773044
120,6,10,Ticks_ISO_T2_5,17,5,42,127,621793644
120,6,10,Ticks_ISO_T2_5,18,1,48,84,622293344
120,6,10,Ticks_ISO_T2_5,19,5,42,127,622295288
120,6,10,Ticks_ISO_T2_5,20,5,42,127,622794016
120,6,10,Ticks_ISO_T2_5,21,1,48,78,622801252
120,6,10,Ticks_ISO_T2_5,22,1,48,75,623266220
120,6,10,Ticks_ISO_T2_5,23,5,42,127,623293704
120,6,10,Ticks_ISO_T2_5,24,1,48,78,623747592
120,6,10,Ticks_ISO_T2_5,25,5,42,127,623793400
120,6,10,Ticks_ISO_T2_5,26,1,48,85,624237488
120,6,10,Ticks_ISO_T2_5,27,5,42,127,624294292
120,6,10,Ticks_ISO_T2_5,28,1,48,71,624754532
120,6,10,Ticks_ISO_T2_5,29,5,42,127,624793912
120,6,10,Ticks_ISO_T2_5,30,1,48,89,625269116
120,6,10,Ticks_ISO_T2_5,31,5,42,127,625293532
120,6,10,Ticks_ISO_T2_5,32,1,48,79,625761704
120,6,10,Ticks_ISO_T2_5,33,5,42,127,625794424
120,6,10,Ticks_ISO_T2_5,34,1,48,78,626244268
120,6,10,Ticks_ISO_T2_5,35,5,42,127,626294192
120,6,10,Ticks_ISO_T2_5,36,1,48,83,626757428
120,6,10,Ticks_ISO_T2_5,37,5,42,127,626793888
120,6,10,Ticks_ISO_T2_5,38,1,48,75,627244028
120,6,10,Ticks_ISO_T2_5,39,5,42,127,627293432
120,6,10,Ticks_ISO_T2_5,40,1,48,79,627726504
120,6,10,Ticks_ISO_T2_5,41,5,42,127,627794176
120,6,10,Ticks_ISO_T2_5,42,1,48,66,628216616
120,6,10,Ticks_ISO_T2_5,43,5,42,127,628294020
120,6,10,Ticks_ISO_T2_5,44,1,48,73,628751620
120,6,10,Ticks_ISO_T2_5,45,5,42,127,628793640
120,6,10,Ticks_ISO_T2_5,46,1,48,67,629264700
120,6,10,Ticks_ISO_T2_5,47,5,42,127,629293480
120,6,10,Ticks_ISO_T2_5,48,1,48,67,629767764
120,6,10,Ticks_ISO_T2_5,49,5,42,127,629794224
120,6,10,Ticks_ISO_T2_5,50,1,48,75,630250928
120,6,10,Ticks_ISO_T2_5,51,5,42,127,630293968
120,6,10,Ticks_ISO_T2_5,52,1,48,79,630777176
120,6,10,Ticks_ISO_T2_5,53,5,42,127,630793588
120,6,10,Ticks_ISO_T2_5,54,1,48,82,631278216
120,6,10,Ticks_ISO_T2_5,55,5,42,127,631294180
120,6,10,Ticks_ISO_T2_5,56,1,48,80,631775064
120,6,10,Ticks_ISO_T2_5,57,5,42,127,631794100
120,6,10,Ticks_ISO_T2_5,58,1,48,73,632281496
120,6,10,Ticks_ISO_T2_5,59,5,42,127,632293792
120,6,10,Ticks_ISO_T2_5,60,1,48,74,632767424
120,6,10,Ticks_ISO_T2_5,61,5,42,127,632793416
120,6,10,Ticks_ISO_T2_5,62,1,48,78,633276388
120,6,10,Ticks_ISO_T2_5,63,5,42,127,633294156
120,6,10,Ticks_ISO_T2_5,64,1,48,75,633769804
120,6,10,Ticks_ISO_T2_5,65,5,42,127,633793924
120,6,10,Ticks_ISO_T2_5,66,1,48,70,634275936
120,6,10,Ticks_ISO_T2_5,67,5,42,127,634293472
120,6,10,Ticks_ISO_T2_5,68,1,48,74,634762840
120,6,10,Ticks_ISO_T2_5,69,5,42,127,634794288
120,6,10,Ticks_ISO_T2_5,70,1,48,71,635261860
120,6,10,Ticks_ISO_T2_5,71,5,42,127,635294132
120,6,10,Ticks_ISO_T2_5,72,1,48,73,635758116
120,6,10,Ticks_ISO_T2_5,73,5,42,127,635793976
120,6,10,Ticks_ISO_T2_5,74,1,48,69,636250556
120,6,10,Ticks_ISO_T2_5,75,5,42,127,636293448
120,6,10,Ticks_ISO_T2_5,76,1,48,72,636738208
120,6,10,Ticks_ISO_T2_5,77,5,42,127,636794264
120,6,10,Ticks_ISO_T2_5,78,1,48,74,637234984
120,6,10,Ticks_ISO_T2_5,79,5,42,127,637294108
120,6,10,Ticks_ISO_T2_5,80,1,48,70,637719848
120,6,10,Ticks_ISO_T2_5,81,5,42,127,637793508
120,6,10,Ticks_ISO_T2_5,82,1,48,70,638220964
120,6,10,Ticks_ISO_T2_5,83,5,42,127,638294396
120,6,10,Ticks_ISO_T2_5,84,1,48,71,638733820
120,6,10,Ticks_ISO_T2_5,85,5,42,127,638794092
120,6,10,Ticks_ISO_T2_5,86,1,48,75,639204044
120,6,10,Ticks_ISO_T2_5,87,5,42,127,639294008
120,6,10,Ticks_ISO_T2_5,88,1,48,67,639700448
120,6,10,Ticks_ISO_T2_5,89,5,42,127,639793628
120,6,10,Ticks_ISO_T2_5,90,1,48,76,640228868
120,6,10,Ticks_ISO_T2_5,91,5,42,127,640294296
120,6,10,Ticks_ISO_T2_5,92,1,48,71,640748684
120,6,10,Ticks_ISO_T2_5,93,5,42,127,640793992
120,6,10,Ticks_ISO_T2_5,94,1,48,66,641255556
120,6,10,Ticks_ISO_T2_5,95,5,42,127,641293956
120,6,10,Ticks_ISO_T2_5,96,1,48,72,641747400
120,6,10,Ticks_ISO_T2_5,97,5,42,127,641794328
120,6,10,Ticks_ISO_T2_5,98,1,48,76,642261752
120,6,10,Ticks_ISO_T2_5,99,5,42,127,642294172
120,6,10,Ticks_ISO_T2_5,100,1,48,75,642758908
120,6,10,Ticks_ISO_T2_5,101,5,42,127,642794016
120,6,10,Ticks_ISO_T2_5,102,1,48,78,643260696
120,6,10,Ticks_ISO_T2_5,103,5,42,127,643293712
120,6,10,Ticks_ISO_T2_5,104,1,48,73,643761288
120,6,10,Ticks_ISO_T2_5,105,5,42,127,643794232
120,6,10,Ticks_ISO_T2_5,106,1,48,68,644254024
120,6,10,Ticks_ISO_T2_5,107,5,42,127,644293924
120,6,10,Ticks_ISO_T2_5,108,1,48,85,644735616
120,6,10,Ticks_ISO_T2_5,109,5,42,127,644793920
120,6,10,Ticks_ISO_T2_5,110,1,48,76,645239204
120,6,10,Ticks_ISO_T2_5,111,5,42,127,645293392
120,6,10,Ticks_ISO_T2_5,112,1,48,69,645718108
120,6,10,Ticks_ISO_T2_5,113,5,42,127,645794280
120,6,10,Ticks_ISO_T2_5,114,1,48,77,646215252
120,6,10,Ticks_ISO_T2_5,115,5,42,127,646293976
120,6,10,Ticks_ISO_T2_5,116,1,48,77,646730584
120,6,10,Ticks_ISO_T2_5,117,5,42,127,646793524
120,6,10,Ticks_ISO_T2_5,118,1,48,64,647243896
120,6,10,Ticks_ISO_T2_5,119,5,42,127,647294264
120,6,10,Ticks_ISO_T2_5,120,1,48,75,647716508
120,6,10,Ticks_ISO_T2_5,121,5,42,127,647794032
120,6,10,Ticks_ISO_T2_5,122,1,48,68,648215500
120,6,10,Ticks_ISO_T2_5,123,5,42,127,648293876
120,6,10,Ticks_ISO_T2_5,124,1,48,67,648723276
120,6,10,Ticks_ISO_T2_5,125,5,42,127,648793868
120,6,10,Ticks_ISO_T2_5,126,1,48,72,649186240
120,6,10,Ticks_ISO_T2_5,127,5,42,127,649294144
120,6,10,Ticks_ISO_T2_5,128,1,48,70,649705308
120,6,10,Ticks_ISO_T2_5,129,5,42,127,649793856
120,6,10,Ticks_ISO_T2_5,130,1,48,73,650203880
120,6,10,Ticks_ISO_T2_5,131,5,42,127,650293700
120,6,10,Ticks_ISO_T2_5,132,1,48,72,650701932
120,6,10,Ticks_ISO_T2_5,133,5,42,127,650794288
120,6,10,Ticks_ISO_T2_5,134,1,48,68,651198408
120,6,10,Ticks_ISO_T2_5,135,5,42,127,651294116
120,6,10,Ticks_ISO_T2_5,136,1,48,65,651674612
120,6,10,Ticks_ISO_T2_5,137,5,42,127,651793864
120,6,10,Ticks_ISO_T2_5,138,1,48,60,652219568
120,6,10,Ticks_ISO_T2_5,139,5,42,127,652293572
120,6,10,Ticks_ISO_T2_5,140,1,48,57,652752096
120,6,10,Ticks_ISO_T2_5,141,5,42,127,652794092
120,6,10,Ticks_ISO_T2_5,142,1,48,61,653256424
120,6,10,Ticks_ISO_T2_5,143,5,42,127,653293860
120,6,10,Ticks_ISO_T2_5,144,1,48,63,653748348
120,6,10,Ticks_ISO_T2_5,145,5,42,127,653793704
120,6,10,Ticks_ISO_T2_5,146,1,48,60,654269732
120,6,10,Ticks_ISO_T2_5,147,5,42,127,654294520
120,6,10,Ticks_ISO_T2_5,148,1,48,64,654766288
120,6,10,Ticks_ISO_T2_5,149,5,42,127,654794068
120,6,10,Ticks_ISO_T2_5,150,1,48,63,655266128
120,6,10,Ticks_ISO_T2_5,151,5,42,127,655293688
120,6,10,Ticks_ISO_T2_5,152,1,48,56,655766648
120,6,10,Ticks_ISO_T2_5,153,5,42,127,655793604
120,6,10,Ticks_ISO_T2_5,154,1,48,57,656245244
120,6,10,Ticks_ISO_T2_5,155,5,42,127,656294124
120,6,10,Ticks_ISO_T2_5,156,1,48,60,656764908
120,6,10,Ticks_ISO_T2_5,157,5,42,127,656793968
120,6,10,Ticks_ISO_T2_5,158,1,48,63,657218760
120,6,10,Ticks_ISO_T2_5,159,5,42,127,657293660
120,6,10,Ticks_ISO_T2_5,160,1,48,62,657734760
120,6,10,Ticks_ISO_T2_5,161,5,42,127,657794700
120,6,10,Ticks_ISO_T2_5,162,1,48,60,658228020
120,6,10,Ticks_ISO_T2_5,163,5,42,127,658294024
120,6,10,Ticks_ISO_T2_5,164,1,48,59,658760472
120,6,10,Ticks_ISO_T2_5,165,5,42,127,658793792
120,6,10,Ticks_ISO_T2_5,166,1,48,62,659275648
120,6,10,Ticks_ISO_T2_5,167,5,42,127,659293636
120,6,10,Ticks_ISO_T2_5,168,1,48,61,659772128
120,6,10,Ticks_ISO_T2_5,169,5,42,127,659794376
120,6,10,Ticks_ISO_T2_5,170,1,48,65,660275936
120,6,10,Ticks_ISO_T2_5,171,5,42,127,660294000
120,6,10,Ticks_ISO_T2_5,172,1,48,67,660762540
120,6,10,Ticks_ISO_T2_5,173,5,42,127,660793692
120,6,10,Ticks_ISO_T2_5,174,1,48,60,661270140
120,6,10,Ticks_ISO_T2_5,175,5,42,127,661293536
120,6,10,Ticks_ISO_T2_5,176,1,48,61,661768416
120,6,10,Ticks_ISO_T2_5,177,5,42,127,661794128
120,6,10,Ticks_ISO_T2_5,178,1,48,61,662258164
120,6,10,Ticks_ISO_T2_5,179,5,42,127,662293800
120,6,10,Ticks_ISO_T2_5,180,1,48,70,662749028
120,6,10,Ticks_ISO_T2_5,181,5,42,127,662793640
120,6,10,Ticks_ISO_T2_5,182,1,48,65,663233692
120,6,10,Ticks_ISO_T2_5,183,5,42,127,663294532
120,6,10,Ticks_ISO_T2_5,184,1,48,75,663736380
120,6,10,Ticks_ISO_T2_5,185,5,42,127,663793932
120,6,10,Ticks_ISO_T2_5,186,1,48,69,664224700
120,6,10,Ticks_ISO_T2_5,187,5,42,127,664293628
120,6,10,Ticks_ISO_T2_5,188,1,48,66,664713104
120,6,10,Ticks_ISO_T2_5,189,5,42,127,664793548
120,6,10,Ticks_ISO_T2_5,190,1,48,70,665196720
120,6,10,Ticks_ISO_T2_5,191,5,42,127,665294124
120,6,10,Ticks_ISO_T2_5,192,1,48,73,665658492
120,6,10,Ticks_ISO_T2_5,193,5,42,127,665793892
120,6,10,Ticks_ISO_T2_5,194,1,48,71,666145096
120,6,10,Ticks_ISO_T2_5,195,5,42,127,666293512
120,6,10,Ticks_ISO_T2_5,196,1,48,62,666649276
120,6,10,Ticks_ISO_T2_5,197,5,42,127,666794624
120,6,10,Ticks_ISO_T2_5,198,1,48,57,667149096
120,6,10,Ticks_ISO_T2_5,199,5,42,127,667293948
120,6,10,Ticks_ISO_T2_5,200,1,48,55,667708580
120,6,10,Ticks_ISO_T2_5,201,5,42,127,667793656
120,6,10,Ticks_ISO_T2_5,202,1,48,52,668272448
120,6,10,Ticks_ISO_T2_5,203,5,42,127,668293576
120,6,10,Ticks_ISO_T2_5,204,1,48,57,668721432
120,6,10,Ticks_ISO_T2_5,205,5,42,127,668794392
120,6,10,Ticks_ISO_T2_5,206,1,48,62,669231820
120,6,10,Ticks_ISO_T2_5,207,5,42,127,669293864
120,6,10,Ticks_ISO_T2_5,208,1,48,55,669736600
120,6,10,Ticks_ISO_T2_5,209,5,42,127,669793556
120,6,10,Ticks_ISO_T2_5,210,1,48,59,670246764
120,6,10,Ticks_ISO_T2_5,211,5,42,127,670294596
120,6,10,Ticks_ISO_T2_5,212,1,48,60,670747508
120,6,10,Ticks_ISO_T2_5,213,5,42,127,670794140
120,6,10,Ticks_ISO_T2_5,214,1,48,62,671247408
120,6,10,Ticks_ISO_T2_5,215,5,42,127,671293912
120,6,10,Ticks_ISO_T2_5,216,1,48,61,671746428
120,6,10,Ticks_ISO_T2_5,217,5,42,127,671793532
120,6,10,Ticks_ISO_T2_5,218,1,48,63,672236924
120,6,10,Ticks_ISO_T2_5,219,5,42,127,672294568
120,6,10,Ticks_ISO_T2_5,220,1,48,63,672735788
120,6,10,Ticks_ISO_T2_5,221,5,42,127,672793892
120,6,10,Ticks_ISO_T2_5,222,1,48,65,673217012
120,6,10,Ticks_ISO_T2_5,223,5,42,127,673293636
120,6,10,Ticks_ISO_T2_5,224,1,48,65,673718200
120,6,10,Ticks_ISO_T2_5,225,5,42,127,673794676
120,6,10,Ticks_ISO_T2_5,226,1,48,67,674183640
120,6,10,Ticks_ISO_T2_5,227,5,42,127,674294208
120,6,10,Ticks_ISO_T2_5,228,1,48,62,674698968
120,6,10,Ticks_ISO_T2_5,229,5,42,127,674793828
120,6,10,Ticks_ISO_T2_5,230,1,48,70,675204572
120,6,10,Ticks_ISO_T2_5,231,5,42,127,675293692
120,6,10,Ticks_ISO_T2_5,232,1,48,72,675695440
120,6,10,Ticks_ISO_T2_5,233,5,42,127,675795388
120,6,10,Ticks_ISO_T2_5,234,1,48,69,676220048
120,6,10,Ticks_ISO_T2_5,235,5,42,127,676293976
120,6,10,Ticks_ISO_T2_5,236,1,48,70,676735520
120,6,10,Ticks_ISO_T2_5,237,5,42,127,676793748
120,6,10,Ticks_ISO_T2_5,238,1,48,68,677234844
120,6,10,Ticks_ISO_T2_5,239,5,42,127,677293588
120,6,10,Ticks_ISO_T2_5,240,1,48,66,677745604
120,6,10,Ticks_ISO_T2_5,241,5,42,127,677794256
120,6,10,Ticks_ISO_T2_5,242,1,48,58,678247624
120,6,10,Ticks_ISO_T2_5,243,5,42,127,678293804
120,6,10,Ticks_ISO_T2_5,244,1,48,53,678742452
120,6,10,Ticks_ISO_T2_5,245,5,42,127,678793720
120,6,10,Ticks_ISO_T2_5,246,1,48,52,679246332
120,6,10,Ticks_ISO_T2_5,247,5,42,127,679294388
120,6,10,Ticks_ISO_T2_5,248,1,48,70,679754860
120,6,10,Ticks_ISO_T2_5,249,5,42,127,679794160
120,6,10,Ticks_ISO_T2_5,250,1,48,57,680243336
120,6,10,Ticks_ISO_T2_5,251,5,42,127,680293784
120,6,10,Ticks_ISO_T2_5,252,1,48,43,680755068
120,6,10,Ticks_ISO_T2_5,253,5,42,127,680793552
120,6,10,Ticks_ISO_T2_5,254,1,48,62,681247288
120,6,10,Ticks_ISO_T2_5,255,5,42,127,681294216
120,6,10,Ticks_ISO_T2_5,256,1,48,66,681722348
120,6,10,Ticks_ISO_T2_5,0,9999,9999,9999,616791140
120,6,10,Ticks_ISO_T2_5,1,9999,9999,9999,617291828
120,6,10,Ticks_ISO_T2_5,2,9999,9999,9999,617791544
120,6,10,Ticks_ISO_T2_5,3,9999,9999,9999,618291264
120,6,10,Ticks_ISO_T2_5,4,9999,9999,9999,618792024
120,6,10,Ticks_ISO_T2_5,5,9999,9999,9999,619291720
120,6,10,Ticks_ISO_T2_5,6,9999,9999,9999,619791456
120,6,10,Ticks_ISO_T2_5,7,9999,9999,9999,620291152
120,6,10,Ticks_ISO_T2_5,8,9999,9999,9999,620791896
120,6,10,Ticks_ISO_T2_5,9,9999,9999,9999,621291588
120,6,10,Ticks_ISO_T2_5,10,9999,9999,9999,621791284
120,6,10,Ticks_ISO_T2_5,11,9999,9999,9999,622292032
120,6,10,Ticks_ISO_T2_5,12,9999,9999,9999,622791728
120,6,10,Ticks_ISO_T2_5,13,9999,9999,9999,623291492
120,6,10,Ticks_ISO_T2_5,14,9999,9999,9999,623791188
120,6,10,Ticks_ISO_T2_5,15,9999,9999,9999,624291932
120,6,10,Ticks_ISO_T2_5,16,9999,9999,9999,624791628
120,6,10,Ticks_ISO_T2_5,17,9999,9999,9999,625291320
120,6,10,Ticks_ISO_T2_5,18,9999,9999,9999,625792064
120,6,10,Ticks_ISO_T2_5,19,9999,9999,9999,626291832
120,6,10,Ticks_ISO_T2_5,20,9999,9999,9999,626791528
120,6,10,Ticks_ISO_T2_5,21,9999,9999,9999,627291220
120,6,10,Ticks_ISO_T2_5,22,9999,9999,9999,627791964
120,6,10,Ticks_ISO_T2_5,23,9999,9999,9999,628291656
120,6,10,Ticks_ISO_T2_5,24,9999,9999,9999,628791352
120,6,10,Ticks_ISO_T2_5,25,9999,9999,9999,629291120
120,6,10,Ticks_ISO_T2_5,26,9999,9999,9999,629791864
120,6,10,Ticks_ISO_T2_5,27,9999,9999,9999,630291532
120,6,10,Ticks_ISO_T2_5,28,9999,9999,9999,630791228
120,6,10,Ticks_ISO_T2_5,29,9999,9999,9999,631291968
120,6,10,Ticks_ISO_T2_5,30,9999,9999,9999,631791664
120,6,10,Ticks_ISO_T2_5,31,9999,9999,9999,632291432
120,6,10,Ticks_ISO_T2_5,32,9999,9999,9999,632791128
120,6,10,Ticks_ISO_T2_5,33,9999,9999,9999,633291868
120,6,10,Ticks_ISO_T2_5,34,9999,9999,9999,633791564
120,6,10,Ticks_ISO_T2_5,35,9999,9999,9999,634291260
120,6,10,Ticks_ISO_T2_5,36,9999,9999,9999,634792000
120,6,10,Ticks_ISO_T2_5,37,9999,9999,9999,635291696
120,6,10,Ticks_ISO_T2_5,38,9999,9999,9999,635791468
120,6,10,Ticks_ISO_T2_5,39,9999,9999,9999,636291164
120,6,10,Ticks_ISO_T2_5,40,9999,9999,9999,636791904
120,6,10,Ticks_ISO_T2_5,41,9999,9999,9999,637291600
120,6,10,Ticks_ISO_T2_5,42,9999,9999,9999,637791296
120,6,10,Ticks_ISO_T2_5,43,9999,9999,9999,638292036
120,6,10,Ticks_ISO_T2_5,44,9999,9999,9999,638791728
120,6,10,Ticks_ISO_T2_5,45,9999,9999,9999,639291500
120,6,10,Ticks_ISO_T2_5,46,9999,9999,9999,639791192
120,6,10,Ticks_ISO_T2_5,47,9999,9999,9999,640291936
120,6,10,Ticks_ISO_T2_5,48,9999,9999,9999,640791604
120,6,10,Ticks_ISO_T2_5,49,9999,9999,9999,641291376
120,6,10,Ticks_ISO_T2_5,50,9999,9999,9999,641792116
120,6,10,Ticks_ISO_T2_5,51,9999,9999,9999,642291812
120,6,10,Ticks_ISO_T2_5,52,9999,9999,9999,642791508
120,6,10,Ticks_ISO_T2_5,53,9999,9999,9999,643291204
120,6,10,Ticks_ISO_T2_5,54,9999,9999,9999,643791944
120,6,10,Ticks_ISO_T2_5,55,9999,9999,9999,644291640
120,6,10,Ticks_ISO_T2_5,56,9999,9999,9999,644791408
120,6,10,Ticks_ISO_T2_5,57,9999,9999,9999,645291104
120,6,10,Ticks_ISO_T2_5,58,9999,9999,9999,645791844
120,6,10,Ticks_ISO_T2_5,59,9999,9999,9999,646291540
120,6,10,Ticks_ISO_T2_5,60,9999,9999,9999,646791236
120,6,10,Ticks_ISO_T2_5,61,9999,9999,9999,647291980
120,6,10,Ticks_ISO_T2_5,62,9999,9999,9999,647791672
120,6,10,Ticks_ISO_T2_5,63,9999,9999,9999,648291440
120,6,10,Ticks_ISO_T2_5,64,9999,9999,9999,648791136
120,6,10,Ticks_ISO_T2_5,65,9999,9999,9999,649291860
120,6,10,Ticks_ISO_T2_5,66,9999,9999,9999,649791568
120,6,10,Ticks_ISO_T2_5,67,9999,9999,9999,650291264
120,6,10,Ticks_ISO_T2_5,68,9999,9999,9999,650792004
120,6,10,Ticks_ISO_T2_5,69,9999,9999,9999,651291756
120,6,10,Ticks_ISO_T2_5,70,9999,9999,9999,651791428
120,6,10,Ticks_ISO_T2_5,71,9999,9999,9999,652291136
120,6,10,Ticks_ISO_T2_5,72,9999,9999,9999,652791880
120,6,10,Ticks_ISO_T2_5,73,9999,9999,9999,653291576
120,6,10,Ticks_ISO_T2_5,74,9999,9999,9999,653791344
120,6,10,Ticks_ISO_T2_5,75,9999,9999,9999,654292084
120,6,10,Ticks_ISO_T2_5,76,9999,9999,9999,654791780
120,6,10,Ticks_ISO_T2_5,77,9999,9999,9999,655291476
120,6,10,Ticks_ISO_T2_5,78,9999,9999,9999,655791168
120,6,10,Ticks_ISO_T2_5,79,9999,9999,9999,656291912
120,6,10,Ticks_ISO_T2_5,80,9999,9999,9999,656791608
120,6,10,Ticks_ISO_T2_5,81,9999,9999,9999,657291376
120,6,10,Ticks_ISO_T2_5,82,9999,9999,9999,657792116
120,6,10,Ticks_ISO_T2_5,83,9999,9999,9999,658291812
120,6,10,Ticks_ISO_T2_5,84,9999,9999,9999,658791504
120,6,10,Ticks_ISO_T2_5,85,9999,9999,9999,659291200
120,6,10,Ticks_ISO_T2_5,86,9999,9999,9999,659791940
120,6,10,Ticks_ISO_T2_5,87,9999,9999,9999,660291640
120,6,10,Ticks_ISO_T2_5,88,9999,9999,9999,660791408
120,6,10,Ticks_ISO_T2_5,89,9999,9999,9999,661291100
120,6,10,Ticks_ISO_T2_5,90,9999,9999,9999,661791840
120,6,10,Ticks_ISO_T2_5,91,9999,9999,9999,662291512
120,6,10,Ticks_ISO_T2_5,92,9999,9999,9999,662791280
120,6,10,Ticks_ISO_T2_5,93,9999,9999,9999,663292024
120,6,10,Ticks_ISO_T2_5,94,9999,9999,9999,663791720
120,6,10,Ticks_ISO_T2_5,95,9999,9999,9999,664291416
120,6,10,Ticks_ISO_T2_5,96,9999,9999,9999,664791112
120,6,10,Ticks_ISO_T2_5,97,9999,9999,9999,665291836
120,6,10,Ticks_ISO_T2_5,98,9999,9999,9999,665791604
120,6,10,Ticks_ISO_T2_5,99,9999,9999,9999,666291300
120,6,10,Ticks_ISO_T2_5,100,9999,9999,9999,666792040
120,6,10,Ticks_ISO_T2_5,101,9999,9999,9999,667291736
120,6,10,Ticks_ISO_T2_5,102,9999,9999,9999,667791444
120,6,10,Ticks_ISO_T2_5,103,9999,9999,9999,668291140
120,6,10,Ticks_ISO_T2_5,104,9999,9999,9999,668791884
120,6,10,Ticks_ISO_T2_5,105,9999,9999,9999,669291576
120,6,10,Ticks_ISO_T2_5,106,9999,9999,9999,669791348
120,6,10,Ticks_ISO_T2_5,107,9999,9999,9999,670292088
120,6,10,Ticks_ISO_T2_5,108,9999,9999,9999,670791780
120,6,10,Ticks_ISO_T2_5,109,9999,9999,9999,671291476
120,6,10,Ticks_ISO_T2_5,110,9999,9999,9999,671791172
120,6,10,Ticks_ISO_T2_5,111,9999,9999,9999,672291912
120,6,10,Ticks_ISO_T2_5,112,9999,9999,9999,672791604
120,6,10,Ticks_ISO_T2_5,113,9999,9999,9999,673291348
120,6,10,Ticks_ISO_T2_5,114,9999,9999,9999,673792092
120,6,10,Ticks_ISO_T2_5,115,9999,9999,9999,674291772
120,6,10,Ticks_ISO_T2_5,116,9999,9999,9999,674791484
120,6,10,Ticks_ISO_T2_5,117,9999,9999,9999,675291256
120,6,10,Ticks_ISO_T2_5,118,9999,9999,9999,675791920
120,6,10,Ticks_ISO_T2_5,119,9999,9999,9999,676291692
120,6,10,Ticks_ISO_T2_5,120,9999,9999,9999,676791388
120,6,10,Ticks_ISO_T2_5,121,9999,9999,9999,677291080
120,6,10,Ticks_ISO_T2_5,122,9999,9999,9999,677791824
120,6,10,Ticks_ISO_T2_5,123,9999,9999,9999,678291516
120,6,10,Ticks_ISO_T2_5,124,9999,9999,9999,678791284
120,6,10,Ticks_ISO_T2_5,125,9999,9999,9999,679291952
120,6,10,Ticks_ISO_T2_5,126,9999,9999,9999,679791724
120,6,10,Ticks_ISO_T2_5,127,9999,9999,9999,680291420
120,6,10,Ticks_ISO_T2_5,128,9999,9999,9999,680791116
120,6,10,Ticks_ISO_T2_5,129,9999,9999,9999,681291856
120,7,20,Ticks_Linear_8,0,5,42,127,691473700
120,7,20,Ticks_Linear_8,1,5,42,127,692293988
120,7,20,Ticks_Linear_8,2,5,42,127,693114100
120,7,20,Ticks_Linear_8,3,5,42,127,693933392
120,7,20,Ticks_Linear_8,4,5,42,127,694753584
120,7,20,Ticks_Linear_8,5,1,48,63,694760288
120,7,20,Ticks_Linear_8,6,5,42,127,695563564
120,7,20,Ticks_Linear_8,7,1,48,80,695572980
120,7,20,Ticks_Linear_8,8,1,48,89,696369996
120,7,20,Ticks_Linear_8,9,5,42,127,696373716
120,7,20,Ticks_Linear_8,10,1,48,78,697177888
120,7,20,Ticks_Linear_8,11,5,42,127,697183476
120,7,20,Ticks_Linear_8,12,1,48,76,697969000
120,7,20,Ticks_Linear_8,13,5,42,127,697993460
120,7,20,Ticks_Linear_8,14,1,48,72,698786396
120,7,20,Ticks_Linear_8,15,5,42,127,698803444
120,7,20,Ticks_Linear_8,16,1,48,78,699552648
120,7,20,Ticks_Linear_8,17,5,42,127,699604212
120,7,20,Ticks_Linear_8,18,5,42,127,700404164
120,7,20,Ticks_Linear_8,19,1,48,73,700410352
120,7,20,Ticks_Linear_8,20,5,42,127,701203960
120,7,20,Ticks_Linear_8,21,1,48,77,701236960
120,7,20,Ticks_Linear_8,22,5,42,127,702003536
120,7,20,Ticks_Linear_8,23,1,48,75,702026424
120,7,20,Ticks_Linear_8,24,1,48,79,702762328
120,7,20,Ticks_Linear_8,25,5,42,127,702804228
120,7,20,Ticks_Linear_8,26,1,48,73,703559568
120,7,20,Ticks_Linear_8,27,5,42,127,703594064
120,7,20,Ticks_Linear_8,28,1,48,72,704360940
120,7,20,Ticks_Linear_8,29,5,42,127,704384276
120,7,20,Ticks_Linear_8,30,1,48,71,705124872
120,7,20,Ticks_Linear_8,31,5,42,127,705174116
120,7,20,Ticks_Linear_8,32,1,48,76,705919204
120,7,20,Ticks_Linear_8,33,5,42,127,705964328
120,7,20,Ticks_Linear_8,34,1,48,76,706715332
120,7,20,Ticks_Linear_8,35,5,42,127,706753868
120,7,20,Ticks_Linear_8,36,1,48,84,707498284
120,7,20,Ticks_Linear_8,37,5,42,127,707534268
120,7,20,Ticks_Linear_8,38,1,48,78,708276368
120,7,20,Ticks_Linear_8,39,5,42,127,708313628
120,7,20,Ticks_Linear_8,40,1,48,75,709073324
120,7,20,Ticks_Linear_8,41,5,42,127,709093728
120,7,20,Ticks_Linear_8,42,5,42,127,709873916
120,7,20,Ticks_Linear_8,43,1,48,80,709881296
120,7,20,Ticks_Linear_8,44,5,42,127,710654388
120,7,20,Ticks_Linear_8,45,1,48,73,710699468
120,7,20,Ticks_Linear_8,46,5,42,127,711424308
120,7,20,Ticks_Linear_8,47,1,48,82,711452468
120,7,20,Ticks_Linear_8,48,5,42,127,712194304
120,7,20,Ticks_Linear_8,49,1,48,86,712204836
120,7,20,Ticks_Linear_8,50,5,42,127,712973808
120,7,20,Ticks_Linear_8,51,1,48,81,712984512
120,7,20,Ticks_Linear_8,52,5,42,127,713743948
120,7,20,Ticks_Linear_8,53,1,48,80,713772636
120,7,20,Ticks_Linear_8,54,5,42,127,714513868
120,7,20,Ticks_Linear_8,55,1,48,85,714515280
120,7,20,Ticks_Linear_8,56,5,42,127,715273600
120,7,20,Ticks_Linear_8,57,1,48,88,715279492
120,7,20,Ticks_Linear_8,58,5,42,127,716034308
120,7,20,Ticks_Linear_8,59,1,48,86,716051124
120,7,20,Ticks_Linear_8,60,1,48,90,716793620
120,7,20,Ticks_Linear_8,61,5,42,127,716803396
120,7,20,Ticks_Linear_8,62,1,48,80,717532764
120,7,20,Ticks_Linear_8,63,5,42,127,717564180
120,7,20,Ticks_Linear_8,64,1,48,78,718296836
120,7,20,Ticks_Linear_8,65,5,42,127,718323988
120,7,20,Ticks_Linear_8,66,5,42,127,719073768
120,7,20,Ticks_Linear_8,67,1,48,92,719088120
120,7,20,Ticks_Linear_8,68,5,42,127,719824216
120,7,20,Ticks_Linear_8,69,1,48,87,719862240
120,7,20,Ticks_Linear_8,70,1,48,98,720544288
120,7,20,Ticks_Linear_8,71,5,42,127,720573832
120,7,20,Ticks_Linear_8,72,1,48,108,721271812
120,7,20,Ticks_Linear_8,73,5,42,127,721324432
120,7,20,Ticks_Linear_8,74,1,48,96,722034176
120,7,20,Ticks_Linear_8,75,5,42,127,722073980
120,7,20,Ticks_Linear_8,76,5,42,127,722814324
120,7,20,Ticks_Linear_8,77,1,48,92,722818864
120,7,20,Ticks_Linear_8,78,5,42,127,723553616
120,7,20,Ticks_Linear_8,79,1,48,78,723585568
120,7,20,Ticks_Linear_8,80,5,42,127,724293880
120,7,20,Ticks_Linear_8,81,1,48,86,724332424
120,7,20,Ticks_Linear_8,82,5,42,127,725034588
120,7,20,Ticks_Linear_8,83,1,48,89,725051412
120,7,20,Ticks_Linear_8,84,5,42,127,725773704
120,7,20,Ticks_Linear_8,85,1,48,89,725803440
120,7,20,Ticks_Linear_8,86,1,48,85,726492432
120,7,20,Ticks_Linear_8,87,5,42,127,726503776
120,7,20,Ticks_Linear_8,88,1,48,84,727207156
120,7,20,Ticks_Linear_8,89,5,42,127,727233856
120,7,20,Ticks_Linear_8,90,1,48,81,727930040
120,7,20,Ticks_Linear_8,91,5,42,127,727964084
120,7,20,Ticks_Linear_8,92,1,48,80,728599684
120,7,20,Ticks_Linear_8,93,5,42,127,728693996
120,7,20,Ticks_Linear_8,94,1,48,82,729402416
120,7,20,Ticks_Linear_8,95,5,42,127,729424316
120,7,20,Ticks_Linear_8,96,5,42,127,730144068
120,7,20,Ticks_Linear_8,97,1,48,74,730173176
120,7,20,Ticks_Linear_8,98,5,42,127,730864008
120,7,20,Ticks_Linear_8,99,1,48,77,730939420
120,7,20,Ticks_Linear_8,100,5,42,127,731583976
120,7,20,Ticks_Linear_8,101,1,48,70,731624620
120,7,20,Ticks_Linear_8,102,1,48,66,732282484
120,7,20,Ticks_Linear_8,103,5,42,127,732303716
120,7,20,Ticks_Linear_8,104,1,48,62,732942668
120,7,20,Ticks_Linear_8,105,5,42,127,733023756
120,7,20,Ticks_Linear_8,106,5,42,127,733734444
120,7,20,Ticks_Linear_8,107,1,48,52,733914528
120,7,20,Ticks_Linear_8,108,5,42,127,734443904
120,7,20,Ticks_Linear_8,109,1,48,68,734520436
120,7,20,Ticks_Linear_8,110,1,48,70,735146004
120,7,20,Ticks_Linear_8,111,5,42,127,735153684
120,7,20,Ticks_Linear_8,112,1,48,60,735803820
120,7,20,Ticks_Linear_8,113,5,42,127,735864068
120,7,20,Ticks_Linear_8,114,1,48,58,736520608
120,7,20,Ticks_Linear_8,115,5,42,127,736573928
120,7,20,Ticks_Linear_8,116,1,48,59,737233396
120,7,20,Ticks_Linear_8,117,5,42,127,737274324
120,7,20,Ticks_Linear_8,118,1,48,61,737910372
120,7,20,Ticks_Linear_8,119,5,42,127,737973624
120,7,20,Ticks_Linear_8,120,1,48,61,738626680
120,7,20,Ticks_Linear_8,121,5,42,127,738673900
120,7,20,Ticks_Linear_8,122,1,48,56,739299516
120,7,20,Ticks_Linear_8,123,5,42,127,739373572
120,7,20,Ticks_Linear_8,124,1,48,59,740006084
120,7,20,Ticks_Linear_8,125,5,42,127,740073820
120,7,20,Ticks_Linear_8,126,1,48,56,740756680
120,7,20,Ticks_Linear_8,127,5,42,127,740763908
120,7,20,Ticks_Linear_8,128,5,42,127,741454304
120,7,20,Ticks_Linear_8,129,1,48,52,741484384
120,7,20,Ticks_Linear_8,130,1,48,65,742109196
120,7,20,Ticks_Linear_8,131,5,42,127,742144360
120,7,20,Ticks_Linear_8,132,1,48,66,742816208
120,7,20,Ticks_Linear_8,133,5,42,127,742833476
120,7,20,Ticks_Linear_8,134,1,48,64,743477840
120,7,20,Ticks_Linear_8,135,5,42,127,743523712
120,7,20,Ticks_Linear_8,136,1,48,57,744155920
120,7,20,Ticks_Linear_8,137,5,42,127,744203668
120,7,20,Ticks_Linear_8,138,1,48,63,744839420
120,7,20,Ticks_Linear_8,139,5,42,127,744883576
120,7,20,Ticks_Linear_8,140,1,48,63,745523148
120,7,20,Ticks_Linear_8,141,5,42,127,745563476
120,7,20,Ticks_Linear_8,142,1,48,64,746209536
120,7,20,Ticks_Linear_8,143,5,42,127,746243580
120,7,20,Ticks_Linear_8,144,1,48,64,746865256
120,7,20,Ticks_Linear_8,145,5,42,127,746924456
120,7,20,Ticks_Linear_8,146,1,48,68,747581712
120,7,20,Ticks_Linear_8,147,5,42,127,747594252
120,7,20,Ticks_Linear_8,148,5,42,127,748263656
120,7,20,Ticks_Linear_8,149,1,48,68,748288936
120,7,20,Ticks_Linear_8,150,5,42,127,748933452
120,7,20,Ticks_Linear_8,151,1,48,62,748937544
120,7,20,Ticks_Linear_8,152,1,48,69,749596080
120,7,20,Ticks_Linear_8,153,5,42,127,749604360
120,7,20,Ticks_Linear_8,154,1,48,70,750254692
120,7,20,Ticks_Linear_8,155,5,42,127,750273832
120,7,20,Ticks_Linear_8,156,5,42,127,750934344
120,7,20,Ticks_Linear_8,157,1,48,69,750942564
120,7,20,Ticks_Linear_8,158,5,42,127,751593704
120,7,20,Ticks_Linear_8,159,1,48,70,751611644
120,7,20,Ticks_Linear_8,160,5,42,127,752254508
120,7,20,Ticks_Linear_8,161,1,48,69,752298296
120,7,20,Ticks_Linear_8,162,5,42,127,752913648
120,7,20,Ticks_Linear_8,163,1,48,66,752961268
120,7,20,Ticks_Linear_8,164,5,42,127,753574528
120,7,20,Ticks_Linear_8,165,1,48,64,753596292
120,7,20,Ticks_Linear_8,166,5,42,127,754223356
120,7,20,Ticks_Linear_8,167,1,48,64,754247968
120,7,20,Ticks_Linear_8,168,1,48,65,754848440
120,7,20,Ticks_Linear_8,169,5,42,127,754873872
120,7,20,Ticks_Linear_8,170,1,48,63,755493080
120,7,20,Ticks_Linear_8,171,5,42,127,755523820
120,7,20,Ticks_Linear_8,172,1,48,66,756130260
120,7,20,Ticks_Linear_8,173,5,42,127,756174192
120,7,20,Ticks_Linear_8,174,1,48,68,756779836
120,7,20,Ticks_Linear_8,175,5,42,127,756824440
120,7,20,Ticks_Linear_8,176,1,48,65,757448040
120,7,20,Ticks_Linear_8,177,5,42,127,757464404
120,7,20,Ticks_Linear_8,178,1,48,63,758099704
120,7,20,Ticks_Linear_8,179,5,42,127,758104468
120,7,20,Ticks_Linear_8,180,1,48,72,758727764
120,7,20,Ticks_Linear_8,181,5,42,127,758744356
120,7,20,Ticks_Linear_8,182,1,48,72,759350072
120,7,20,Ticks_Linear_8,183,5,42,127,759384492
120,7,20,Ticks_Linear_8,184,1,48,70,759959564
120,7,20,Ticks_Linear_8,185,5,42,127,760024384
120,7,20,Ticks_Linear_8,186,1,48,57,760625320
120,7,20,Ticks_Linear_8,187,5,42,127,760664372
120,7,20,Ticks_Linear_8,188,1,48,58,761303288
120,7,20,Ticks_Linear_8,189,5,42,127,761304784
120,7,20,Ticks_Linear_8,190,5,42,127,761944408
120,7,20,Ticks_Linear_8,191,1,48,68,761961372
120,7,20,Ticks_Linear_8,192,5,42,127,762584296
120,7,20,Ticks_Linear_8,193,1,48,63,762621332
120,7,20,Ticks_Linear_8,194,5,42,127,763224508
120,7,20,Ticks_Linear_8,195,1,48,64,763248148
120,7,20,Ticks_Linear_8,196,5,42,127,763854288
120,7,20,Ticks_Linear_8,197,1,48,70,763894108
120,7,20,Ticks_Linear_8,198,5,42,127,764473684
120,7,20,Ticks_Linear_8,199,1,48,61,764531020
120,7,20,Ticks_Linear_8,200,5,42,127,765094256
120,7,20,Ticks_Linear_8,201,1,48,62,765143212
120,7,20,Ticks_Linear_8,202,5,42,127,765713924
120,7,20,Ticks_Linear_8,203,1,48,60,765755688
120,7,20,Ticks_Linear_8,204,1,48,66,766334568
120,7,20,Ticks_Linear_8,205,5,42,127,766335756
120,7,20,Ticks_Linear_8,206,1,48,61,766934048
120,7,20,Ticks_Linear_8,207,5,42,127,766943744
120,7,20,Ticks_Linear_8,208,1,48,60,767528352
120,7,20,Ticks_Linear_8,209,5,42,127,767554004
120,7,20,Ticks_Linear_8,210,1,48,62,768157676
120,7,20,Ticks_Linear_8,211,5,42,127,768164236
120,7,20,Ticks_Linear_8,212,1,48,60,768772152
120,7,20,Ticks_Linear_8,213,5,42,127,768773648
120,7,20,Ticks_Linear_8,214,1,48,60,769358928
120,7,20,Ticks_Linear_8,215,5,42,127,769383980
120,7,20,Ticks_Linear_8,216,1,48,62,769962128
120,7,20,Ticks_Linear_8,217,5,42,127,769984028
120,7,20,Ticks_Linear_8,218,1,48,66,770555728
120,7,20,Ticks_Linear_8,219,5,42,127,770584028
120,7,20,Ticks_Linear_8,220,1,48,62,771141192
120,7,20,Ticks_Linear_8,221,5,42,127,771183928
120,7,20,Ticks_Linear_8,222,1,48,68,771745068
120,7,20,Ticks_Linear_8,223,5,42,127,771784124
120,7,20,Ticks_Linear_8,224,1,48,65,772340248
120,7,20,Ticks_Linear_8,225,5,42,127,772384052
120,7,20,Ticks_Linear_8,226,1,48,61,772931256
120,7,20,Ticks_Linear_8,227,5,42,127,772974140
120,7,20,Ticks_Linear_8,228,1,48,65,773523756
120,7,20,Ticks_Linear_8,229,5,42,127,773563856
120,7,20,Ticks_Linear_8,230,1,48,65,774117808
120,7,20,Ticks_Linear_8,231,5,42,127,774153496
120,7,20,Ticks_Linear_8,232,1,48,57,774689344
120,7,20,Ticks_Linear_8,233,5,42,127,774744508
120,7,20,Ticks_Linear_8,234,1,48,64,775297412
120,7,20,Ticks_Linear_8,235,5,42,127,775343588
120,7,20,Ticks_Linear_8,236,1,48,57,775913192
120,7,20,Ticks_Linear_8,237,5,42,127,775924088
120,7,20,Ticks_Linear_8,238,5,42,127,776503800
120,7,20,Ticks_Linear_8,239,1,48,57,776529752
120,7,20,Ticks_Linear_8,240,5,42,127,777084228
120,7,20,Ticks_Linear_8,241,1,48,48,777100820
120,7,20,Ticks_Linear_8,242,1,48,53,777650376
120,7,20,Ticks_Linear_8,243,5,42,127,777664124
120,7,20,Ticks_Linear_8,244,1,48,49,778194860
120,7,20,Ticks_Linear_8,245,5,42,127,778243508
120,7,20,Ticks_Linear_8,246,1,48,59,778779880
120,7,20,Ticks_Linear_8,247,5,42,127,778814000
120,7,20,Ticks_Linear_8,248,1,48,53,779358136
120,7,20,Ticks_Linear_8,249,5,42,127,779384168
120,7,20,Ticks_Linear_8,250,1,48,56,779922024
120,7,20,Ticks_Linear_8,251,5,42,127,779953516
120,7,20,Ticks_Linear_8,252,1,48,58,780468968
120,7,20,Ticks_Linear_8,253,5,42,127,780523832
120,7,20,Ticks_Linear_8,254,1,48,50,781061388
120,7,20,Ticks_Linear_8,255,5,42,127,781094248
120,7,20,Ticks_Linear_8,256,1,48,59,781604172
120,7,20,Ticks_Linear_8,257,5,42,127,781654456
120,7,20,Ticks_Linear_8,258,1,48,63,782168940
120,7,20,Ticks_Linear_8,259,5,42,127,782213468
120,7,20,Ticks_Linear_8,260,1,48,60,782751240
120,7,20,Ticks_Linear_8,261,5,42,127,782773528
120,7,20,Ticks_Linear_8,262,1,48,63,783301644
120,7,20,Ticks_Linear_8,263,5,42,127,783333740
120,7,20,Ticks_Linear_8,264,1,48,61,783808232
120,7,20,Ticks_Linear_8,265,5,42,127,783893748
120,7,20,Ticks_Linear_8,266,1,48,63,784418044
120,7,20,Ticks_Linear_8,267,5,42,127,784443920
120,7,20,Ticks_Linear_8,268,1,48,66,784967392
120,7,20,Ticks_Linear_8,269,5,42,127,784993868
120,7,20,Ticks_Linear_8,270,1,48,63,785539580
120,7,20,Ticks_Linear_8,271,5,42,127,785543520
120,7,20,Ticks_Linear_8,272,5,42,127,786093328
120,7,20,Ticks_Linear_8,273,1,48,63,786099960
120,7,20,Ticks_Linear_8,274,1,48,70,786627800
120,7,20,Ticks_Linear_8,275,5,42,127,786644240
120,7,20,Ticks_Linear_8,276,1,48,65,787182348
120,7,20,Ticks_Linear_8,277,5,42,127,787183856
120,7,20,Ticks_Linear_8,278,5,42,127,787723776
120,7,20,Ticks_Linear_8,279,1,48,57,787768780
120,7,20,Ticks_Linear_8,280,1,48,65,788252888
120,7,20,Ticks_Linear_8,281,5,42,127,788264380
120,7,20,Ticks_Linear_8,282,1,48,76,788782172
120,7,20,Ticks_Linear_8,283,5,42,127,788804000
120,7,20,Ticks_Linear_8,284,1,48,76,789334216
120,7,20,Ticks_Linear_8,285,5,42,127,789343616
120,7,20,Ticks_Linear_8,286,1,48,74,789848440
120,7,20,Ticks_Linear_8,287,5,42,127,789874020
120,7,20,Ticks_Linear_8,288,1,48,72,790363120
120,7,20,Ticks_Linear_8,289,5,42,127,790403304
120,7,20,Ticks_Linear_8,290,1,48,66,790894124
120,7,20,Ticks_Linear_8,291,5,42,127,790933928
120,7,20,Ticks_Linear_8,292,1,48,78,791412852
120,7,20,Ticks_Linear_8,293,5,42,127,791464408
120,7,20,Ticks_Linear_8,294,1,48,66,791927076
120,7,20,Ticks_Linear_8,295,5,42,127,791993616
120,7,20,Ticks_Linear_8,296,1,48,82,792477320
120,7,20,Ticks_Linear_8,297,5,42,127,792513984
120,7,20,Ticks_Linear_8,298,1,48,74,793005852
120,7,20,Ticks_Linear_8,299,5,42,127,793033980
120,7,20,Ticks_Linear_8,300,5,42,127,793554280
120,7,20,Ticks_Linear_8,301,1,48,64,793584812
120,7,20,Ticks_Linear_8,302,5,42,127,794073672
120,7,20,Ticks_Linear_8,303,1,48,70,794085104
120,7,20,Ticks_Linear_8,304,5,42,127,794593744
120,7,20,Ticks_Linear_8,305,1,48,69,794607272
120,7,20,Ticks_Linear_8,306,5,42,127,795103704
120,7,20,Ticks_Linear_8,307,1,48,67,795130780
120,7,20,Ticks_Linear_8,308,1,48,77,795607400
120,7,20,Ticks_Linear_8,309,5,42,127,795613580
120,7,20,Ticks_Linear_8,310,1,48,67,796083440
120,7,20,Ticks_Linear_8,311,5,42,127,796123540
120,7,20,Ticks_Linear_8,312,1,48,75,796611748
120,7,20,Ticks_Linear_8,313,5,42,127,796633724
120,7,20,Ticks_Linear_8,314,1,48,71,797059836
120,7,20,Ticks_Linear_8,315,5,42,127,797144508
120,7,20,Ticks_Linear_8,316,1,48,65,797630080
120,7,20,Ticks_Linear_8,317,5,42,127,797654540
120,7,20,Ticks_Linear_8,318,5,42,127,798154024
120,7,20,Ticks_Linear_8,319,1,48,68,798161552
120,7,20,Ticks_Linear_8,320,1,48,64,798651904
120,7,20,Ticks_Linear_8,321,5,42,127,798653792
120,7,20,Ticks_Linear_8,322,5,42,127,799153720
120,7,20,Ticks_Linear_8,323,1,48,66,799168824
120,7,20,Ticks_Linear_8,324,1,48,68,799652352
120,7,20,Ticks_Linear_8,325,5,42,127,799654164
120,7,20,Ticks_Linear_8,326,5,42,127,800143836
120,7,20,Ticks_Linear_8,327,1,48,73,800152728
120,7,20,Ticks_Linear_8,328,5,42,127,800634172
120,7,20,Ticks_Linear_8,329,1,48,72,800640880
120,7,20,Ticks_Linear_8,330,5,42,127,801123840
120,7,20,Ticks_Linear_8,331,1,48,65,801136848
120,7,20,Ticks_Linear_8,332,5,42,127,801614328
120,7,20,Ticks_Linear_8,333,1,48,62,801630624
120,7,20,Ticks_Linear_8,334,1,48,70,802100348
120,7,20,Ticks_Linear_8,335,5,42,127,802103616
120,7,20,Ticks_Linear_8,0,9999,9999,9999,691471476
120,7,20,Ticks_Linear_8,1,9999,9999,9999,692291688
120,7,20,Ticks_Linear_8,2,9999,9999,9999,693111876
120,7,20,Ticks_Linear_8,3,9999,9999,9999,693931096
120,7,20,Ticks_Linear_8,4,9999,9999,9999,694751356
120,7,20,Ticks_Linear_8,5,9999,9999,9999,695561340
120,7,20,Ticks_Linear_8,6,9999,9999,9999,696371268
120,7,20,Ticks_Linear_8,7,9999,9999,9999,697181252
120,7,20,Ticks_Linear_8,8,9999,9999,9999,697991236
120,7,20,Ticks_Linear_8,9,9999,9999,9999,698801216
120,7,20,Ticks_Linear_8,10,9999,9999,9999,699601988
120,7,20,Ticks_Linear_8,11,9999,9999,9999,700401716
120,7,20,Ticks_Linear_8,12,9999,9999,9999,701201516
120,7,20,Ticks_Linear_8,13,9999,9999,9999,702001240
120,7,20,Ticks_Linear_8,14,9999,9999,9999,702802004
120,7,20,Ticks_Linear_8,15,9999,9999,9999,703591540
120,7,20,Ticks_Linear_8,16,9999,9999,9999,704382052
120,7,20,Ticks_Linear_8,17,9999,9999,9999,705171516
120,7,20,Ticks_Linear_8,18,9999,9999,9999,705962104
120,7,20,Ticks_Linear_8,19,9999,9999,9999,706751568
120,7,20,Ticks_Linear_8,20,9999,9999,9999,707531896
120,7,20,Ticks_Linear_8,21,9999,9999,9999,708311104
120,7,20,Ticks_Linear_8,22,9999,9999,9999,709091432
120,7,20,Ticks_Linear_8,23,9999,9999,9999,709871692
120,7,20,Ticks_Linear_8,24,9999,9999,9999,710652016
120,7,20,Ticks_Linear_8,25,9999,9999,9999,711422008
120,7,20,Ticks_Linear_8,26,9999,9999,9999,712192076
120,7,20,Ticks_Linear_8,27,9999,9999,9999,712971360
120,7,20,Ticks_Linear_8,28,9999,9999,9999,713741424
120,7,20,Ticks_Linear_8,29,9999,9999,9999,714511420
120,7,20,Ticks_Linear_8,30,9999,9999,9999,715271228
120,7,20,Ticks_Linear_8,31,9999,9999,9999,716032084
120,7,20,Ticks_Linear_8,32,9999,9999,9999,716801100
120,7,20,Ticks_Linear_8,33,9999,9999,9999,717561956
120,7,20,Ticks_Linear_8,34,9999,9999,9999,718321764
120,7,20,Ticks_Linear_8,35,9999,9999,9999,719071320
120,7,20,Ticks_Linear_8,36,9999,9999,9999,719821916
120,7,20,Ticks_Linear_8,37,9999,9999,9999,720571460
120,7,20,Ticks_Linear_8,38,9999,9999,9999,721322056
120,7,20,Ticks_Linear_8,39,9999,9999,9999,722071608
120,7,20,Ticks_Linear_8,40,9999,9999,9999,722812028
120,7,20,Ticks_Linear_8,41,9999,9999,9999,723551316
120,7,20,Ticks_Linear_8,42,9999,9999,9999,724291656
120,7,20,Ticks_Linear_8,43,9999,9999,9999,725031992
120,7,20,Ticks_Linear_8,44,9999,9999,9999,725771332
120,7,20,Ticks_Linear_8,45,9999,9999,9999,726501480
120,7,20,Ticks_Linear_8,46,9999,9999,9999,727231556
120,7,20,Ticks_Linear_8,47,9999,9999,9999,727961712
120,7,20,Ticks_Linear_8,48,9999,9999,9999,728691772
120,7,20,Ticks_Linear_8,49,9999,9999,9999,729421944
120,7,20,Ticks_Linear_8,50,9999,9999,9999,730141768
120,7,20,Ticks_Linear_8,51,9999,9999,9999,730861636
120,7,20,Ticks_Linear_8,52,9999,9999,9999,731581532
120,7,20,Ticks_Linear_8,53,9999,9999,9999,732301416
120,7,20,Ticks_Linear_8,54,9999,9999,9999,733021308
120,7,20,Ticks_Linear_8,55,9999,9999,9999,733731924
120,7,20,Ticks_Linear_8,56,9999,9999,9999,734441532
120,7,20,Ticks_Linear_8,57,9999,9999,9999,735151160
120,7,20,Ticks_Linear_8,58,9999,9999,9999,735861844
120,7,20,Ticks_Linear_8,59,9999,9999,9999,736571476
120,7,20,Ticks_Linear_8,60,9999,9999,9999,737271876
120,7,20,Ticks_Linear_8,61,9999,9999,9999,737971328
120,7,20,Ticks_Linear_8,62,9999,9999,9999,738671676
120,7,20,Ticks_Linear_8,63,9999,9999,9999,739371124
120,7,20,Ticks_Linear_8,64,9999,9999,9999,740071524
120,7,20,Ticks_Linear_8,65,9999,9999,9999,740761684
120,7,20,Ticks_Linear_8,66,9999,9999,9999,741451856
120,7,20,Ticks_Linear_8,67,9999,9999,9999,742142060
120,7,20,Ticks_Linear_8,68,9999,9999,9999,742831176
120,7,20,Ticks_Linear_8,69,9999,9999,9999,743521340
120,7,20,Ticks_Linear_8,70,9999,9999,9999,744201292
120,7,20,Ticks_Linear_8,71,9999,9999,9999,744881276
120,7,20,Ticks_Linear_8,72,9999,9999,9999,745561180
120,7,20,Ticks_Linear_8,73,9999,9999,9999,746241132
120,7,20,Ticks_Linear_8,74,9999,9999,9999,746922084
120,7,20,Ticks_Linear_8,75,9999,9999,9999,747591804
120,7,20,Ticks_Linear_8,76,9999,9999,9999,748261432
120,7,20,Ticks_Linear_8,77,9999,9999,9999,748931152
120,7,20,Ticks_Linear_8,78,9999,9999,9999,749601912
120,7,20,Ticks_Linear_8,79,9999,9999,9999,750271608
120,7,20,Ticks_Linear_8,80,9999,9999,9999,750932044
120,7,20,Ticks_Linear_8,81,9999,9999,9999,751591480
120,7,20,Ticks_Linear_8,82,9999,9999,9999,752251988
120,7,20,Ticks_Linear_8,83,9999,9999,9999,752911424
120,7,20,Ticks_Linear_8,84,9999,9999,9999,753571928
120,7,20,Ticks_Linear_8,85,9999,9999,9999,754221132
120,7,20,Ticks_Linear_8,86,9999,9999,9999,754871424
120,7,20,Ticks_Linear_8,87,9999,9999,9999,755521596
120,7,20,Ticks_Linear_8,88,9999,9999,9999,756171892
120,7,20,Ticks_Linear_8,89,9999,9999,9999,756822140
120,7,20,Ticks_Linear_8,90,9999,9999,9999,757462108
120,7,20,Ticks_Linear_8,91,9999,9999,9999,758102092
120,7,20,Ticks_Linear_8,92,9999,9999,9999,758742132
120,7,20,Ticks_Linear_8,93,9999,9999,9999,759382120
120,7,20,Ticks_Linear_8,94,9999,9999,9999,760022084
120,7,20,Ticks_Linear_8,95,9999,9999,9999,760662076
120,7,20,Ticks_Linear_8,96,9999,9999,9999,761302120
120,7,20,Ticks_Linear_8,97,9999,9999,9999,761942108
120,7,20,Ticks_Linear_8,98,9999,9999,9999,762582072
120,7,20,Ticks_Linear_8,99,9999,9999,9999,763222136
120,7,20,Ticks_Linear_8,100,9999,9999,9999,763851840
120,7,20,Ticks_Linear_8,101,9999,9999,9999,764471388
120,7,20,Ticks_Linear_8,102,9999,9999,9999,765091956
120,7,20,Ticks_Linear_8,103,9999,9999,9999,765711476
120,7,20,Ticks_Linear_8,104,9999,9999,9999,766331968
120,7,20,Ticks_Linear_8,105,9999,9999,9999,766941300
120,7,20,Ticks_Linear_8,106,9999,9999,9999,767551556
120,7,20,Ticks_Linear_8,107,9999,9999,9999,768161864
120,7,20,Ticks_Linear_8,108,9999,9999,9999,768771132
120,7,20,Ticks_Linear_8,109,9999,9999,9999,769381456
120,7,20,Ticks_Linear_8,110,9999,9999,9999,769981508
120,7,20,Ticks_Linear_8,111,9999,9999,9999,770581580
120,7,20,Ticks_Linear_8,112,9999,9999,9999,771181628
120,7,20,Ticks_Linear_8,113,9999,9999,9999,771781752
120,7,20,Ticks_Linear_8,114,9999,9999,9999,772381752
120,7,20,Ticks_Linear_8,115,9999,9999,9999,772971620
120,7,20,Ticks_Linear_8,116,9999,9999,9999,773561408
120,7,20,Ticks_Linear_8,117,9999,9999,9999,774151272
120,7,20,Ticks_Linear_8,118,9999,9999,9999,774742132
120,7,20,Ticks_Linear_8,119,9999,9999,9999,775341136
120,7,20,Ticks_Linear_8,120,9999,9999,9999,775921792
120,7,20,Ticks_Linear_8,121,9999,9999,9999,776501352
120,7,20,Ticks_Linear_8,122,9999,9999,9999,777081928
120,7,20,Ticks_Linear_8,123,9999,9999,9999,777661528
120,7,20,Ticks_Linear_8,124,9999,9999,9999,778241132
120,7,20,Ticks_Linear_8,125,9999,9999,9999,778811476
120,7,20,Ticks_Linear_8,126,9999,9999,9999,779381868
120,7,20,Ticks_Linear_8,127,9999,9999,9999,779951216
120,7,20,Ticks_Linear_8,128,9999,9999,9999,780521532
120,7,20,Ticks_Linear_8,129,9999,9999,9999,781091948
120,7,20,Ticks_Linear_8,130,9999,9999,9999,781652084
120,7,20,Ticks_Linear_8,131,9999,9999,9999,782211172
120,7,20,Ticks_Linear_8,132,9999,9999,9999,782771304
120,7,20,Ticks_Linear_8,133,9999,9999,9999,783331440
120,7,20,Ticks_Linear_8,134,9999,9999,9999,783891524
120,7,20,Ticks_Linear_8,135,9999,9999,9999,784441400
120,7,20,Ticks_Linear_8,136,9999,9999,9999,784991348
120,7,20,Ticks_Linear_8,137,9999,9999,9999,785541224
120,7,20,Ticks_Linear_8,138,9999,9999,9999,786091104
120,7,20,Ticks_Linear_8,139,9999,9999,9999,786642016
120,7,20,Ticks_Linear_8,140,9999,9999,9999,787181640
120,7,20,Ticks_Linear_8,141,9999,9999,9999,787721328
120,7,20,Ticks_Linear_8,142,9999,9999,9999,788262008
120,7,20,Ticks_Linear_8,143,9999,9999,9999,788801624
120,7,20,Ticks_Linear_8,144,9999,9999,9999,789341240
120,7,20,Ticks_Linear_8,145,9999,9999,9999,789871720
120,7,20,Ticks_Linear_8,146,9999,9999,9999,790401080
120,7,20,Ticks_Linear_8,147,9999,9999,9999,790931556
120,7,20,Ticks_Linear_8,148,9999,9999,9999,791461960
120,7,20,Ticks_Linear_8,149,9999,9999,9999,791991392
120,7,20,Ticks_Linear_8,150,9999,9999,9999,792511608
120,7,20,Ticks_Linear_8,151,9999,9999,9999,793031756
120,7,20,Ticks_Linear_8,152,9999,9999,9999,793551980
120,7,20,Ticks_Linear_8,153,9999,9999,9999,794071152
120,7,20,Ticks_Linear_8,154,9999,9999,9999,794591296
120,7,20,Ticks_Linear_8,155,9999,9999,9999,795101256
120,7,20,Ticks_Linear_8,156,9999,9999,9999,795611208
120,7,20,Ticks_Linear_8,157,9999,9999,9999,796121168
120,7,20,Ticks_Linear_8,158,9999,9999,9999,796631128
120,7,20,Ticks_Linear_8,159,9999,9999,9999,797142132
120,7,20,Ticks_Linear_8,160,9999,9999,9999,797652092
120,7,20,Ticks_Linear_8,161,9999,9999,9999,798151800
120,7,20,Ticks_Linear_8,162,9999,9999,9999,798651524
120,7,20,Ticks_Linear_8,163,9999,9999,9999,799151200
120,7,20,Ticks_Linear_8,164,9999,9999,9999,799651964
120,7,20,Ticks_Linear_8,165,9999,9999,9999,800141388
120,7,20,Ticks_Linear_8,166,9999,9999,9999,800631876
120,7,20,Ticks_Linear_8,167,9999,9999,9999,801121388
120,7,20,Ticks_Linear_8,168,9999,9999,9999,801611880
120,7,20,Ticks_Linear_8,169,9999,9999,9999,802101316
120,8,21,Ticks_Linear_5,0,5,42,127,811140588
120,8,21,Ticks_Linear_5,1,5,42,127,811620688
120,8,21,Ticks_Linear_5,2,1,48,66,811652416
120,8,21,Ticks_Linear_5,3,5,42,127,812100916
120,8,21,Ticks_Linear_5,4,5,42,127,812581388
120,8,21,Ticks_Linear_5,5,5,42,127,813060492
120,8,21,Ticks_Linear_5,6,1,48,63,813153272
120,8,21,Ticks_Linear_5,7,5,42,127,813550908
120,8,21,Ticks_Linear_5,8,1,48,61,813611640
120,8,21,Ticks_Linear_5,9,5,42,127,814040568
120,8,21,Ticks_Linear_5,10,1,48,79,814068772
120,8,21,Ticks_Linear_5,11,1,48,77,814518512
120,8,21,Ticks_Linear_5,12,5,42,127,814530828
120,8,21,Ticks_Linear_5,13,1,48,73,814985624
120,8,21,Ticks_Linear_5,14,5,42,127,815021464
120,8,21,Ticks_Linear_5,15,1,48,81,815449612
120,8,21,Ticks_Linear_5,16,5,42,127,815521236
120,8,21,Ticks_Linear_5,17,1,48,73,815948472
120,8,21,Ticks_Linear_5,18,5,42,127,816020716
120,8,21,Ticks_Linear_5,19,1,48,75,816461436
120,8,21,Ticks_Linear_5,20,5,42,127,816520636
120,8,21,Ticks_Linear_5,21,1,48,67,816978428
120,8,21,Ticks_Linear_5,22,5,42,127,817021308
120,8,21,Ticks_Linear_5,23,1,48,68,817479864
120,8,21,Ticks_Linear_5,24,5,42,127,817520936
120,8,21,Ticks_Linear_5,25,1,48,74,817961212
120,8,21,Ticks_Linear_5,26,5,42,127,818020860
120,8,21,Ticks_Linear_5,27,1,48,81,818481876
120,8,21,Ticks_Linear_5,28,5,42,127,818530668
120,8,21,Ticks_Linear_5,29,1,48,84,819017816
120,8,21,Ticks_Linear_5,30,5,42,127,819040704
120,8,21,Ticks_Linear_5,31,1,48,79,819501944
120,8,21,Ticks_Linear_5,32,5,42,127,819550588
120,8,21,Ticks_Linear_5,33,1,48,78,819985468
120,8,21,Ticks_Linear_5,34,5,42,127,820060472
120,8,21,Ticks_Linear_5,35,1,48,73,820521712
120,8,21,Ticks_Linear_5,36,5,42,127,820570432
120,8,21,Ticks_Linear_5,37,1,48,70,821014516
120,8,21,Ticks_Linear_5,38,5,42,127,821090648
120,8,21,Ticks_Linear_5,39,1,48,64,821517712
120,8,21,Ticks_Linear_5,40,5,42,127,821610864
120,8,21,Ticks_Linear_5,41,1,48,70,822006548
120,8,21,Ticks_Linear_5,42,5,42,127,822131288
120,8,21,Ticks_Linear_5,43,1,48,64,822542652
120,8,21,Ticks_Linear_5,44,5,42,127,822651212
120,8,21,Ticks_Linear_5,45,1,48,52,823061024
120,8,21,Ticks_Linear_5,46,5,42,127,823170456
120,8,21,Ticks_Linear_5,47,1,48,55,823635304
120,8,21,Ticks_Linear_5,48,5,42,127,823700800
120,8,21,Ticks_Linear_5,49,1,48,56,824170508
120,8,21,Ticks_Linear_5,50,5,42,127,824231204
120,8,21,Ticks_Linear_5,51,1,48,46,824758520
120,8,21,Ticks_Linear_5,52,5,42,127,824760632
120,8,21,Ticks_Linear_5,53,5,42,127,825291340
120,8,21,Ticks_Linear_5,54,1,48,52,825330408
120,8,21,Ticks_Linear_5,55,1,48,52,825785376
120,8,21,Ticks_Linear_5,56,5,42,127,825820468
120,8,21,Ticks_Linear_5,57,1,48,54,826304772
120,8,21,Ticks_Linear_5,58,5,42,127,826361204
120,8,21,Ticks_Linear_5,59,1,48,59,826834572
120,8,21,Ticks_Linear_5,60,5,42,127,826900840
120,8,21,Ticks_Linear_5,61,1,48,58,827363176
120,8,21,Ticks_Linear_5,62,5,42,127,827440456
120,8,21,Ticks_Linear_5,63,1,48,55,827876204
120,8,21,Ticks_Linear_5,64,5,42,127,827981176
120,8,21,Ticks_Linear_5,65,1,48,57,828501444
120,8,21,Ticks_Linear_5,66,5,42,127,828520732
120,8,21,Ticks_Linear_5,67,5,42,127,829070688
120,8,21,Ticks_Linear_5,68,1,48,56,829077468
120,8,21,Ticks_Linear_5,69,5,42,127,829620488
120,8,21,Ticks_Linear_5,70,1,48,55,829638204
120,8,21,Ticks_Linear_5,71,5,42,127,830170436
120,8,21,Ticks_Linear_5,72,1,48,53,830188764
120,8,21,Ticks_Linear_5,73,5,42,127,830721356
120,8,21,Ticks_Linear_5,74,1,48,58,830725672
120,8,21,Ticks_Linear_5,75,1,48,58,831269588
120,8,21,Ticks_Linear_5,76,5,42,127,831271176
120,8,21,Ticks_Linear_5,77,1,48,55,831821160
120,8,21,Ticks_Linear_5,78,5,42,127,831831308
120,8,21,Ticks_Linear_5,79,1,48,57,832379496
120,8,21,Ticks_Linear_5,80,5,42,127,832390544
120,8,21,Ticks_Linear_5,81,1,48,57,832940156
120,8,21,Ticks_Linear_5,82,5,42,127,832950752
120,8,21,Ticks_Linear_5,83,1,48,51,833498104
120,8,21,Ticks_Linear_5,84,5,42,127,833510960
120,8,21,Ticks_Linear_5,85,1,48,51,834052408
120,8,21,Ticks_Linear_5,86,5,42,127,834071044
120,8,21,Ticks_Linear_5,87,1,48,53,834613984
120,8,21,Ticks_Linear_5,88,5,42,127,834641364
120,8,21,Ticks_Linear_5,89,1,48,51,835186176
120,8,21,Ticks_Linear_5,90,5,42,127,835210560
120,8,21,Ticks_Linear_5,91,1,48,56,835749760
120,8,21,Ticks_Linear_5,92,5,42,127,835781176
120,8,21,Ticks_Linear_5,93,1,48,48,836330940
120,8,21,Ticks_Linear_5,94,5,42,127,836351348
120,8,21,Ticks_Linear_5,95,1,48,53,836893116
120,8,21,Ticks_Linear_5,96,5,42,127,836920868
120,8,21,Ticks_Linear_5,97,1,48,56,837471380
120,8,21,Ticks_Linear_5,98,5,42,127,837501220
120,8,21,Ticks_Linear_5,99,1,48,66,838080380
120,8,21,Ticks_Linear_5,100,5,42,127,838081944
120,8,21,Ticks_Linear_5,101,1,48,60,838654468
120,8,21,Ticks_Linear_5,102,5,42,127,838660504
120,8,21,Ticks_Linear_5,103,1,48,60,839221144
120,8,21,Ticks_Linear_5,104,5,42,127,839240956
120,8,21,Ticks_Linear_5,105,1,48,62,839786592
120,8,21,Ticks_Linear_5,106,5,42,127,839820640
120,8,21,Ticks_Linear_5,107,1,48,61,840381032
120,8,21,Ticks_Linear_5,108,5,42,127,840410428
120,8,21,Ticks_Linear_5,109,1,48,59,840977276
120,8,21,Ticks_Linear_5,110,5,42,127,841001288
120,8,21,Ticks_Linear_5,111,1,48,59,841583700
120,8,21,Ticks_Linear_5,112,5,42,127,841591300
120,8,21,Ticks_Linear_5,113,1,48,61,842177824
120,8,21,Ticks_Linear_5,114,5,42,127,842181088
120,8,21,Ticks_Linear_5,115,5,42,127,842770836
120,8,21,Ticks_Linear_5,116,1,48,68,842777096
120,8,21,Ticks_Linear_5,117,1,48,58,843338780
120,8,21,Ticks_Linear_5,118,5,42,127,843370952
120,8,21,Ticks_Linear_5,119,1,48,64,843912848
120,8,21,Ticks_Linear_5,120,5,42,127,843971224
120,8,21,Ticks_Linear_5,121,1,48,60,844532144
120,8,21,Ticks_Linear_5,122,5,42,127,844571000
120,8,21,Ticks_Linear_5,123,1,48,60,845138052
120,8,21,Ticks_Linear_5,124,5,42,127,845171048
120,8,21,Ticks_Linear_5,125,1,48,64,845735852
120,8,21,Ticks_Linear_5,126,5,42,127,845771024
120,8,21,Ticks_Linear_5,127,1,48,60,846274200
120,8,21,Ticks_Linear_5,128,5,42,127,846381344
120,8,21,Ticks_Linear_5,129,5,42,127,847000884
120,8,21,Ticks_Linear_5,130,1,48,53,847030964
120,8,21,Ticks_Linear_5,131,5,42,127,847611116
120,8,21,Ticks_Linear_5,132,1,48,51,847663460
120,8,21,Ticks_Linear_5,133,5,42,127,848220548
120,8,21,Ticks_Linear_5,134,1,48,50,848225760
120,8,21,Ticks_Linear_5,135,1,48,53,848805492
120,8,21,Ticks_Linear_5,136,5,42,127,848830928
120,8,21,Ticks_Linear_5,137,1,48,53,849408548
120,8,21,Ticks_Linear_5,138,5,42,127,849451368
120,8,21,Ticks_Linear_5,139,1,48,51,850026660
120,8,21,Ticks_Linear_5,140,5,42,127,850070812
120,8,21,Ticks_Linear_5,141,1,48,54,850664300
120,8,21,Ticks_Linear_5,142,5,42,127,850690408
120,8,21,Ticks_Linear_5,143,1,48,56,851288644
120,8,21,Ticks_Linear_5,144,5,42,127,851311000
120,8,21,Ticks_Linear_5,145,1,48,55,851909212
120,8,21,Ticks_Linear_5,146,5,42,127,851930444
120,8,21,Ticks_Linear_5,147,1,48,52,852531376
120,8,21,Ticks_Linear_5,148,5,42,127,852561144
120,8,21,Ticks_Linear_5,149,1,48,56,853166392
120,8,21,Ticks_Linear_5,150,5,42,127,853191076
120,8,21,Ticks_Linear_5,151,5,42,127,853820884
120,8,21,Ticks_Linear_5,152,1,48,54,853825652
120,8,21,Ticks_Linear_5,153,1,48,60,854428744
120,8,21,Ticks_Linear_5,154,5,42,127,854450660
120,8,21,Ticks_Linear_5,155,1,48,61,855074276
120,8,21,Ticks_Linear_5,156,5,42,127,855081284
120,8,21,Ticks_Linear_5,157,1,48,63,855684584
120,8,21,Ticks_Linear_5,158,5,42,127,855721320
120,8,21,Ticks_Linear_5,159,1,48,60,856292800
120,8,21,Ticks_Linear_5,160,5,42,127,856361312
120,8,21,Ticks_Linear_5,161,1,48,66,856944392
120,8,21,Ticks_Linear_5,162,5,42,127,857001276
120,8,21,Ticks_Linear_5,163,1,48,67,857625564
120,8,21,Ticks_Linear_5,164,5,42,127,857641340
120,8,21,Ticks_Linear_5,165,5,42,127,858281312
120,8,21,Ticks_Linear_5,166,1,48,65,858290948
120,8,21,Ticks_Linear_5,167,5,42,127,858930732
120,8,21,Ticks_Linear_5,168,1,48,62,858935500
120,8,21,Ticks_Linear_5,169,1,48,70,859521824
120,8,21,Ticks_Linear_5,170,5,42,127,859580652
120,8,21,Ticks_Linear_5,171,1,48,72,860177536
120,8,21,Ticks_Linear_5,172,5,42,127,860231048
120,8,21,Ticks_Linear_5,173,1,48,68,860830680
120,8,21,Ticks_Linear_5,174,5,42,127,860881196
120,8,21,Ticks_Linear_5,175,1,48,67,861486392
120,8,21,Ticks_Linear_5,176,5,42,127,861530620
120,8,21,Ticks_Linear_5,177,1,48,63,862131972
120,8,21,Ticks_Linear_5,178,5,42,127,862190952
120,8,21,Ticks_Linear_5,179,5,42,127,862850492
120,8,21,Ticks_Linear_5,180,1,48,72,862856232
120,8,21,Ticks_Linear_5,181,1,48,62,863506004
120,8,21,Ticks_Linear_5,182,5,42,127,863510916
120,8,21,Ticks_Linear_5,183,1,48,65,864167460
120,8,21,Ticks_Linear_5,184,5,42,127,864171252
120,8,21,Ticks_Linear_5,185,5,42,127,864830796
120,8,21,Ticks_Linear_5,186,1,48,68,864837952
120,8,21,Ticks_Linear_5,187,5,42,127,865500712
120,8,21,Ticks_Linear_5,188,1,48,66,865515664
120,8,21,Ticks_Linear_5,189,1,48,70,866106576
120,8,21,Ticks_Linear_5,190,5,42,127,866171396
120,8,21,Ticks_Linear_5,191,1,48,62,866728488
120,8,21,Ticks_Linear_5,192,5,42,127,866840876
120,8,21,Ticks_Linear_5,193,1,48,64,867386900
120,8,21,Ticks_Linear_5,194,5,42,127,867510868
120,8,21,Ticks_Linear_5,195,1,48,58,868130688
120,8,21,Ticks_Linear_5,196,5,42,127,868181352
120,8,21,Ticks_Linear_5,197,1,48,54,868828696
120,8,21,Ticks_Linear_5,198,5,42,127,868861680
120,8,21,Ticks_Linear_5,199,1,48,44,869502972
120,8,21,Ticks_Linear_5,200,5,42,127,869541136
120,8,21,Ticks_Linear_5,201,1,48,56,870149008
120,8,21,Ticks_Linear_5,202,5,42,127,870221116
120,8,21,Ticks_Linear_5,203,1,48,49,870841340
120,8,21,Ticks_Linear_5,204,5,42,127,870900992
120,8,21,Ticks_Linear_5,205,1,48,64,871525512
120,8,21,Ticks_Linear_5,206,5,42,127,871580972
120,8,21,Ticks_Linear_5,207,1,48,62,872229088
120,8,21,Ticks_Linear_5,208,5,42,127,872271356
120,8,21,Ticks_Linear_5,209,1,48,63,872934644
120,8,21,Ticks_Linear_5,210,5,42,127,872961572
120,8,21,Ticks_Linear_5,211,1,48,66,873595596
120,8,21,Ticks_Linear_5,212,5,42,127,873650688
120,8,21,Ticks_Linear_5,213,1,48,58,874272064
120,8,21,Ticks_Linear_5,214,5,42,127,874340700
120,8,21,Ticks_Linear_5,215,1,48,56,874958448
120,8,21,Ticks_Linear_5,216,5,42,127,875030940
120,8,21,Ticks_Linear_5,217,1,48,52,875635580
120,8,21,Ticks_Linear_5,218,5,42,127,875731688
120,8,21,Ticks_Linear_5,219,1,48,51,876361924
120,8,21,Ticks_Linear_5,220,5,42,127,876430636
120,8,21,Ticks_Linear_5,221,1,48,50,877065312
120,8,21,Ticks_Linear_5,222,5,42,127,877131056
120,8,21,Ticks_Linear_5,223,1,48,53,877805420
120,8,21,Ticks_Linear_5,224,5,42,127,877830556
120,8,21,Ticks_Linear_5,225,1,48,49,878521876
120,8,21,Ticks_Linear_5,226,5,42,127,878530976
120,8,21,Ticks_Linear_5,227,5,42,127,879240468
120,8,21,Ticks_Linear_5,228,1,48,49,879254668
120,8,21,Ticks_Linear_5,229,5,42,127,879951372
120,8,21,Ticks_Linear_5,230,1,48,52,879954044
120,8,21,Ticks_Linear_5,231,1,48,60,880621848
120,8,21,Ticks_Linear_5,232,5,42,127,880660852
120,8,21,Ticks_Linear_5,233,1,48,54,881332824
120,8,21,Ticks_Linear_5,234,5,42,127,881370536
120,8,21,Ticks_Linear_5,235,1,48,58,882066792
120,8,21,Ticks_Linear_5,236,5,42,127,882081068
120,8,21,Ticks_Linear_5,237,1,48,58,882747820
120,8,21,Ticks_Linear_5,238,5,42,127,882800888
120,8,21,Ticks_Linear_5,239,1,48,56,883447992
120,8,21,Ticks_Linear_5,240,5,42,127,883520852
120,8,21,Ticks_Linear_5,241,1,48,55,884171788
120,8,21,Ticks_Linear_5,242,5,42,127,884240672
120,8,21,Ticks_Linear_5,243,1,48,50,884888300
120,8,21,Ticks_Linear_5,244,5,42,127,884960616
120,8,21,Ticks_Linear_5,245,1,48,46,885640104
120,8,21,Ticks_Linear_5,246,5,42,127,885680432
120,8,21,Ticks_Linear_5,247,1,48,47,886380220
120,8,21,Ticks_Linear_5,248,5,42,127,886410588
120,8,21,Ticks_Linear_5,249,1,48,50,887114860
120,8,21,Ticks_Linear_5,250,5,42,127,887140740
120,8,21,Ticks_Linear_5,251,5,42,127,887870972
120,8,21,Ticks_Linear_5,252,1,48,47,887881508
120,8,21,Ticks_Linear_5,253,1,48,51,888553196
120,8,21,Ticks_Linear_5,254,5,42,127,888600892
120,8,21,Ticks_Linear_5,255,1,48,49,889283424
120,8,21,Ticks_Linear_5,256,5,42,127,889331172
120,8,21,Ticks_Linear_5,257,1,48,54,889998376
120,8,21,Ticks_Linear_5,258,5,42,127,890071508
120,8,21,Ticks_Linear_5,259,1,48,56,890741864
120,8,21,Ticks_Linear_5,260,5,42,127,890810652
120,8,21,Ticks_Linear_5,261,1,48,54,891505040
120,8,21,Ticks_Linear_5,262,5,42,127,891551212
120,8,21,Ticks_Linear_5,263,1,48,57,892270920
120,8,21,Ticks_Linear_5,264,5,42,127,892290352
120,8,21,Ticks_Linear_5,265,5,42,127,893030848
120,8,21,Ticks_Linear_5,266,1,48,56,893037860
120,8,21,Ticks_Linear_5,267,1,48,57,893738184
120,8,21,Ticks_Linear_5,268,5,42,127,893781364
120,8,21,Ticks_Linear_5,269,1,48,63,894458572
120,8,21,Ticks_Linear_5,270,5,42,127,894531064
120,8,21,Ticks_Linear_5,271,1,48,58,895209108
120,8,21,Ticks_Linear_5,272,5,42,127,895280536
120,8,21,Ticks_Linear_5,273,1,48,52,895945992
120,8,21,Ticks_Linear_5,274,5,42,127,896031284
120,8,21,Ticks_Linear_5,275,1,48,56,896692172
120,8,21,Ticks_Linear_5,276,5,42,127,896780684
120,8,21,Ticks_Linear_5,277,1,48,55,897449820
120,8,21,Ticks_Linear_5,278,5,42,127,897540472
120,8,21,Ticks_Linear_5,279,1,48,54,898276496
120,8,21,Ticks_Linear_5,280,5,42,127,898301328
120,8,21,Ticks_Linear_5,281,1,48,52,899024696
120,8,21,Ticks_Linear_5,282,5,42,127,899061208
120,8,21,Ticks_Linear_5,283,1,48,51,899786824
120,8,21,Ticks_Linear_5,284,5,42,127,899820868
120,8,21,Ticks_Linear_5,285,1,48,57,900519308
120,8,21,Ticks_Linear_5,286,5,42,127,900580752
120,8,21,Ticks_Linear_5,287,1,48,52,901326136
120,8,21,Ticks_Linear_5,288,5,42,127,901350744
120,8,21,Ticks_Linear_5,289,1,48,55,902100256
120,8,21,Ticks_Linear_5,290,5,42,127,902121036
120,8,21,Ticks_Linear_5,291,5,42,127,902890812
120,8,21,Ticks_Linear_5,292,1,48,60,902903220
120,8,21,Ticks_Linear_5,293,1,48,51,903612304
120,8,21,Ticks_Linear_5,294,5,42,127,903661172
120,8,21,Ticks_Linear_5,295,1,48,53,904365296
120,8,21,Ticks_Linear_5,296,5,42,127,904431092
120,8,21,Ticks_Linear_5,297,1,48,48,905157828
120,8,21,Ticks_Linear_5,298,5,42,127,905211196
120,8,21,Ticks_Linear_5,299,1,48,50,905873756
120,8,21,Ticks_Linear_5,300,5,42,127,905990536
120,8,21,Ticks_Linear_5,301,1,48,46,906683888
120,8,21,Ticks_Linear_5,302,5,42,127,906770676
120,8,21,Ticks_Linear_5,303,1,48,46,907461224
120,8,21,Ticks_Linear_5,304,5,42,127,907551004
120,8,21,Ticks_Linear_5,305,1,48,58,908158196
120,8,21,Ticks_Linear_5,306,5,42,127,908331392
120,8,21,Ticks_Linear_5,307,1,48,54,908950740
120,8,21,Ticks_Linear_5,308,5,42,127,909121004
120,8,21,Ticks_Linear_5,309,1,48,49,909828796
120,8,21,Ticks_Linear_5,310,5,42,127,909911380
120,8,21,Ticks_Linear_5,311,1,48,51,910610792
120,8,21,Ticks_Linear_5,312,5,42,127,910701068
120,8,21,Ticks_Linear_5,313,1,48,50,911473716
120,8,21,Ticks_Linear_5,314,5,42,127,911490384
120,8,21,Ticks_Linear_5,315,1,48,49,912263180
120,8,21,Ticks_Linear_5,316,5,42,127,912281044
120,8,21,Ticks_Linear_5,317,5,42,127,913080700
120,8,21,Ticks_Linear_5,318,1,48,51,913081740
120,8,21,Ticks_Linear_5,319,1,48,52,913842032
120,8,21,Ticks_Linear_5,320,5,42,127,913880344
120,8,21,Ticks_Linear_5,321,1,48,55,914626700
120,8,21,Ticks_Linear_5,322,5,42,127,914681336
120,8,21,Ticks_Linear_5,323,1,48,57,915406720
120,8,21,Ticks_Linear_5,324,5,42,127,915481156
120,8,21,Ticks_Linear_5,325,1,48,52,916180396
120,8,21,Ticks_Linear_5,326,5,42,127,916280644
120,8,21,Ticks_Linear_5,327,1,48,52,917008292
120,8,21,Ticks_Linear_5,328,5,42,127,917090864
120,8,21,Ticks_Linear_5,329,1,48,56,917804948
120,8,21,Ticks_Linear_5,330,5,42,127,917901204
120,8,21,Ticks_Linear_5,331,1,48,44,918672296
120,8,21,Ticks_Linear_5,332,5,42,127,918710756
120,8,21,Ticks_Linear_5,333,1,48,51,919461916
120,8,21,Ticks_Linear_5,334,5,42,127,919520592
120,8,21,Ticks_Linear_5,335,1,48,54,920301252
120,8,21,Ticks_Linear_5,336,5,42,127,920330892
120,8,21,Ticks_Linear_5,0,9999,9999,9999,811138140
120,8,21,Ticks_Linear_5,1,9999,9999,9999,811618392
120,8,21,Ticks_Linear_5,2,9999,9999,9999,812098620
120,8,21,Ticks_Linear_5,3,9999,9999,9999,812578940
120,8,21,Ticks_Linear_5,4,9999,9999,9999,813058120
120,8,21,Ticks_Linear_5,5,9999,9999,9999,813548608
120,8,21,Ticks_Linear_5,6,9999,9999,9999,814038124
120,8,21,Ticks_Linear_5,7,9999,9999,9999,814528604
120,8,21,Ticks_Linear_5,8,9999,9999,9999,815019092
120,8,21,Ticks_Linear_5,9,9999,9999,9999,815518792
120,8,21,Ticks_Linear_5,10,9999,9999,9999,816018492
120,8,21,Ticks_Linear_5,11,9999,9999,9999,816518264
120,8,21,Ticks_Linear_5,12,9999,9999,9999,817018936
120,8,21,Ticks_Linear_5,13,9999,9999,9999,817518712
120,8,21,Ticks_Linear_5,14,9999,9999,9999,818018412
120,8,21,Ticks_Linear_5,15,9999,9999,9999,818528372
120,8,21,Ticks_Linear_5,16,9999,9999,9999,819038332
120,8,21,Ticks_Linear_5,17,9999,9999,9999,819548216
120,8,21,Ticks_Linear_5,18,9999,9999,9999,820058172
120,8,21,Ticks_Linear_5,19,9999,9999,9999,820568132
120,8,21,Ticks_Linear_5,20,9999,9999,9999,821088352
120,8,21,Ticks_Linear_5,21,9999,9999,9999,821608568
120,8,21,Ticks_Linear_5,22,9999,9999,9999,822128692
120,8,21,Ticks_Linear_5,23,9999,9999,9999,822648912
120,8,21,Ticks_Linear_5,24,9999,9999,9999,823168084
120,8,21,Ticks_Linear_5,25,9999,9999,9999,823698500
120,8,21,Ticks_Linear_5,26,9999,9999,9999,824228980
120,8,21,Ticks_Linear_5,27,9999,9999,9999,824758380
120,8,21,Ticks_Linear_5,28,9999,9999,9999,825288816
120,8,21,Ticks_Linear_5,29,9999,9999,9999,825818168
120,8,21,Ticks_Linear_5,30,9999,9999,9999,826358904
120,8,21,Ticks_Linear_5,31,9999,9999,9999,826898544
120,8,21,Ticks_Linear_5,32,9999,9999,9999,827438160
120,8,21,Ticks_Linear_5,33,9999,9999,9999,827978880
120,8,21,Ticks_Linear_5,34,9999,9999,9999,828518508
120,8,21,Ticks_Linear_5,35,9999,9999,9999,829068388
120,8,21,Ticks_Linear_5,36,9999,9999,9999,829618264
120,8,21,Ticks_Linear_5,37,9999,9999,9999,830168136
120,8,21,Ticks_Linear_5,38,9999,9999,9999,830719060
120,8,21,Ticks_Linear_5,39,9999,9999,9999,831268964
120,8,21,Ticks_Linear_5,40,9999,9999,9999,831829084
120,8,21,Ticks_Linear_5,41,9999,9999,9999,832388172
120,8,21,Ticks_Linear_5,42,9999,9999,9999,832948304
120,8,21,Ticks_Linear_5,43,9999,9999,9999,833508440
120,8,21,Ticks_Linear_5,44,9999,9999,9999,834068596
120,8,21,Ticks_Linear_5,45,9999,9999,9999,834638916
120,8,21,Ticks_Linear_5,46,9999,9999,9999,835208264
120,8,21,Ticks_Linear_5,47,9999,9999,9999,835778652
120,8,21,Ticks_Linear_5,48,9999,9999,9999,836349048
120,8,21,Ticks_Linear_5,49,9999,9999,9999,836918344
120,8,21,Ticks_Linear_5,50,9999,9999,9999,837498996
120,8,21,Ticks_Linear_5,51,9999,9999,9999,838078532
120,8,21,Ticks_Linear_5,52,9999,9999,9999,838658132
120,8,21,Ticks_Linear_5,53,9999,9999,9999,839238732
120,8,21,Ticks_Linear_5,54,9999,9999,9999,839818340
120,8,21,Ticks_Linear_5,55,9999,9999,9999,840408128
120,8,21,Ticks_Linear_5,56,9999,9999,9999,840998988
120,8,21,Ticks_Linear_5,57,9999,9999,9999,841588852
120,8,21,Ticks_Linear_5,58,9999,9999,9999,842178640
120,8,21,Ticks_Linear_5,59,9999,9999,9999,842768460
120,8,21,Ticks_Linear_5,60,9999,9999,9999,843368504
120,8,21,Ticks_Linear_5,61,9999,9999,9999,843968628
120,8,21,Ticks_Linear_5,62,9999,9999,9999,844568700
120,8,21,Ticks_Linear_5,63,9999,9999,9999,845168748
120,8,21,Ticks_Linear_5,64,9999,9999,9999,845768800
120,8,21,Ticks_Linear_5,65,9999,9999,9999,846379120
120,8,21,Ticks_Linear_5,66,9999,9999,9999,846998584
120,8,21,Ticks_Linear_5,67,9999,9999,9999,847608892
120,8,21,Ticks_Linear_5,68,9999,9999,9999,848218176
120,8,21,Ticks_Linear_5,69,9999,9999,9999,848828480
120,8,21,Ticks_Linear_5,70,9999,9999,9999,849449072
120,8,21,Ticks_Linear_5,71,9999,9999,9999,850068588
120,8,21,Ticks_Linear_5,72,9999,9999,9999,850688108
120,8,21,Ticks_Linear_5,73,9999,9999,9999,851308628
120,8,21,Ticks_Linear_5,74,9999,9999,9999,851928144
120,8,21,Ticks_Linear_5,75,9999,9999,9999,852558920
120,8,21,Ticks_Linear_5,76,9999,9999,9999,853188700
120,8,21,Ticks_Linear_5,77,9999,9999,9999,853818440
120,8,21,Ticks_Linear_5,78,9999,9999,9999,854448212
120,8,21,Ticks_Linear_5,79,9999,9999,9999,855078988
120,8,21,Ticks_Linear_5,80,9999,9999,9999,855719024
120,8,21,Ticks_Linear_5,81,9999,9999,9999,856359016
120,8,21,Ticks_Linear_5,82,9999,9999,9999,856998976
120,8,21,Ticks_Linear_5,83,9999,9999,9999,857638968
120,8,21,Ticks_Linear_5,84,9999,9999,9999,858279012
120,8,21,Ticks_Linear_5,85,9999,9999,9999,858928212
120,8,21,Ticks_Linear_5,86,9999,9999,9999,859578428
120,8,21,Ticks_Linear_5,87,9999,9999,9999,860228676
120,8,21,Ticks_Linear_5,88,9999,9999,9999,860878972
120,8,21,Ticks_Linear_5,89,9999,9999,9999,861528172
120,8,21,Ticks_Linear_5,90,9999,9999,9999,862188652
120,8,21,Ticks_Linear_5,91,9999,9999,9999,862848120
120,8,21,Ticks_Linear_5,92,9999,9999,9999,863508544
120,8,21,Ticks_Linear_5,93,9999,9999,9999,864169028
120,8,21,Ticks_Linear_5,94,9999,9999,9999,864828496
120,8,21,Ticks_Linear_5,95,9999,9999,9999,865498192
120,8,21,Ticks_Linear_5,96,9999,9999,9999,866168948
120,8,21,Ticks_Linear_5,97,9999,9999,9999,866838652
120,8,21,Ticks_Linear_5,98,9999,9999,9999,867508348
120,8,21,Ticks_Linear_5,99,9999,9999,9999,868179052
120,8,21,Ticks_Linear_5,100,9999,9999,9999,868858936
120,8,21,Ticks_Linear_5,101,9999,9999,9999,869538912
120,8,21,Ticks_Linear_5,102,9999,9999,9999,870218816
120,8,21,Ticks_Linear_5,103,9999,9999,9999,870898768
120,8,21,Ticks_Linear_5,104,9999,9999,9999,871578748
120,8,21,Ticks_Linear_5,105,9999,9999,9999,872268912
120,8,21,Ticks_Linear_5,106,9999,9999,9999,872959048
120,8,21,Ticks_Linear_5,107,9999,9999,9999,873648240
120,8,21,Ticks_Linear_5,108,9999,9999,9999,874338404
120,8,21,Ticks_Linear_5,109,9999,9999,9999,875028564
120,8,21,Ticks_Linear_5,110,9999,9999,9999,875729020
120,8,21,Ticks_Linear_5,111,9999,9999,9999,876428412
120,8,21,Ticks_Linear_5,112,9999,9999,9999,877128760
120,8,21,Ticks_Linear_5,113,9999,9999,9999,877828184
120,8,21,Ticks_Linear_5,114,9999,9999,9999,878528604
120,8,21,Ticks_Linear_5,115,9999,9999,9999,879238244
120,8,21,Ticks_Linear_5,116,9999,9999,9999,879948928
120,8,21,Ticks_Linear_5,117,9999,9999,9999,880658552
120,8,21,Ticks_Linear_5,118,9999,9999,9999,881368160
120,8,21,Ticks_Linear_5,119,9999,9999,9999,882078844
120,8,21,Ticks_Linear_5,120,9999,9999,9999,882798664
120,8,21,Ticks_Linear_5,121,9999,9999,9999,883518556
120,8,21,Ticks_Linear_5,122,9999,9999,9999,884238448
120,8,21,Ticks_Linear_5,123,9999,9999,9999,884958316
120,8,21,Ticks_Linear_5,124,9999,9999,9999,885678136
120,8,21,Ticks_Linear_5,125,9999,9999,9999,886408288
120,8,21,Ticks_Linear_5,126,9999,9999,9999,887138368
120,8,21,Ticks_Linear_5,127,9999,9999,9999,887868528
120,8,21,Ticks_Linear_5,128,9999,9999,9999,888598596
120,8,21,Ticks_Linear_5,129,9999,9999,9999,889328724
120,8,21,Ticks_Linear_5,130,9999,9999,9999,890069060
120,8,21,Ticks_Linear_5,131,9999,9999,9999,890808428
120,8,21,Ticks_Linear_5,132,9999,9999,9999,891548764
120,8,21,Ticks_Linear_5,133,9999,9999,9999,892288056
120,8,21,Ticks_Linear_5,134,9999,9999,9999,893028476
120,8,21,Ticks_Linear_5,135,9999,9999,9999,893779064
120,8,21,Ticks_Linear_5,136,9999,9999,9999,894528616
120,8,21,Ticks_Linear_5,137,9999,9999,9999,895278164
120,8,21,Ticks_Linear_5,138,9999,9999,9999,896028764
120,8,21,Ticks_Linear_5,139,9999,9999,9999,896778360
120,8,21,Ticks_Linear_5,140,9999,9999,9999,897538172
120,8,21,Ticks_Linear_5,141,9999,9999,9999,898298956
120,8,21,Ticks_Linear_5,142,9999,9999,9999,899058764
120,8,21,Ticks_Linear_5,143,9999,9999,9999,899818572
120,8,21,Ticks_Linear_5,144,9999,9999,9999,900578376
120,8,21,Ticks_Linear_5,145,9999,9999,9999,901348448
120,8,21,Ticks_Linear_5,146,9999,9999,9999,902118516
120,8,21,Ticks_Linear_5,147,9999,9999,9999,902888516
120,8,21,Ticks_Linear_5,148,9999,9999,9999,903658576
120,8,21,Ticks_Linear_5,149,9999,9999,9999,904428644
120,8,21,Ticks_Linear_5,150,9999,9999,9999,905208896
120,8,21,Ticks_Linear_5,151,9999,9999,9999,905988160
120,8,21,Ticks_Linear_5,152,9999,9999,9999,906768452
120,8,21,Ticks_Linear_5,153,9999,9999,9999,907548780
120,8,21,Ticks_Linear_5,154,9999,9999,9999,908329016
120,8,21,Ticks_Linear_5,155,9999,9999,9999,909118556
120,8,21,Ticks_Linear_5,156,9999,9999,9999,909909084
120,8,21,Ticks_Linear_5,157,9999,9999,9999,910698620
120,8,21,Ticks_Linear_5,158,9999,9999,9999,911488084
120,8,21,Ticks_Linear_5,159,9999,9999,9999,912278596
120,8,21,Ticks_Linear_5,160,9999,9999,9999,913078328
120,8,21,Ticks_Linear_5,161,9999,9999,9999,913878120
120,8,21,Ticks_Linear_5,162,9999,9999,9999,914678888
120,8,21,Ticks_Linear_5,163,9999,9999,9999,915478636
120,8,21,Ticks_Linear_5,164,9999,9999,9999,916278344
120,8,21,Ticks_Linear_5,165,9999,9999,9999,917088344
120,8,21,Ticks_Linear_5,166,9999,9999,9999,917898328
120,8,21,Ticks_Linear_5,167,9999,9999,9999,918708312
120,8,21,Ticks_Linear_5,168,9999,9999,9999,919518292
120,8,21,Ticks_Linear_5,169,9999,9999,9999,920328276
120,9,22,Ticks_Phase_8,0,5,42,127,929766836
120,9,22,Ticks_Phase_8,1,5,42,127,930566572
120,9,22,Ticks_Phase_8,2,5,42,127,931367228
120,9,22,Ticks_Phase_8,3,5,42,127,932166964
120,9,22,Ticks_Phase_8,4,1,48,77,932922472
120,9,22,Ticks_Phase_8,5,5,42,127,932966764
120,9,22,Ticks_Phase_8,6,1,48,89,933710952
120,9,22,Ticks_Phase_8,7,5,42,127,933766624
120,9,22,Ticks_Phase_8,8,1,48,82,934492612
120,9,22,Ticks_Phase_8,9,5,42,127,934567232
120,9,22,Ticks_Phase_8,10,1,48,78,935271584
120,9,22,Ticks_Phase_8,11,5,42,127,935367020
120,9,22,Ticks_Phase_8,12,1,48,73,936045164
120,9,22,Ticks_Phase_8,13,5,42,127,936166868
120,9,22,Ticks_Phase_8,14,1,48,62,936794480
120,9,22,Ticks_Phase_8,15,5,42,127,936966504
120,9,22,Ticks_Phase_8,16,1,48,64,937672736
120,9,22,Ticks_Phase_8,17,5,42,127,937767140
120,9,22,Ticks_Phase_8,18,1,48,61,938498068
120,9,22,Ticks_Phase_8,19,5,42,127,938566940
120,9,22,Ticks_Phase_8,20,1,48,57,939311576
120,9,22,Ticks_Phase_8,21,5,42,127,939366800
120,9,22,Ticks_Phase_8,22,1,48,64,940054684
120,9,22,Ticks_Phase_8,23,5,42,127,940166724
120,9,22,Ticks_Phase_8,24,1,48,59,940834924
120,9,22,Ticks_Phase_8,25,5,42,127,940967408
120,9,22,Ticks_Phase_8,26,1,48,54,941704576
120,9,22,Ticks_Phase_8,27,5,42,127,941766908
120,9,22,Ticks_Phase_8,28,1,48,60,942489084
120,9,22,Ticks_Phase_8,29,5,42,127,942566848
120,9,22,Ticks_Phase_8,30,1,48,57,943289620
120,9,22,Ticks_Phase_8,31,5,42,127,943366636
120,9,22,Ticks_Phase_8,32,1,48,54,944164236
120,9,22,Ticks_Phase_8,33,5,42,127,944167492
120,9,22,Ticks_Phase_8,34,1,48,61,944931156
120,9,22,Ticks_Phase_8,35,5,42,127,944966908
120,9,22,Ticks_Phase_8,36,1,48,57,945731088
120,9,22,Ticks_Phase_8,37,5,42,127,945766768
120,9,22,Ticks_Phase_8,38,1,48,60,946484604
120,9,22,Ticks_Phase_8,39,5,42,127,946566704
120,9,22,Ticks_Phase_8,40,1,48,64,947333876
120,9,22,Ticks_Phase_8,41,5,42,127,947367388
120,9,22,Ticks_Phase_8,42,1,48,64,948126556
120,9,22,Ticks_Phase_8,43,5,42,127,948167028
120,9,22,Ticks_Phase_8,44,1,48,61,948889272
120,9,22,Ticks_Phase_8,45,5,42,127,948966664
120,9,22,Ticks_Phase_8,46,1,48,60,949658508
120,9,22,Ticks_Phase_8,47,5,42,127,949766440
120,9,22,Ticks_Phase_8,48,1,48,64,950445792
120,9,22,Ticks_Phase_8,49,5,42,127,950567448
120,9,22,Ticks_Phase_8,50,1,48,60,951277184
120,9,22,Ticks_Phase_8,51,5,42,127,951366952
120,9,22,Ticks_Phase_8,52,1,48,65,952084784
120,9,22,Ticks_Phase_8,53,5,42,127,952166736
120,9,22,Ticks_Phase_8,54,1,48,60,952953676
120,9,22,Ticks_Phase_8,55,5,42,127,952966376
120,9,22,Ticks_Phase_8,56,5,42,127,953746772
120,9,22,Ticks_Phase_8,57,1,48,63,953808452
120,9,22,Ticks_Phase_8,58,1,48,60,954540676
120,9,22,Ticks_Phase_8,59,5,42,127,954546476
120,9,22,Ticks_Phase_8,60,1,48,59,955306024
120,9,22,Ticks_Phase_8,61,5,42,127,955347532
120,9,22,Ticks_Phase_8,62,1,48,65,956075700
120,9,22,Ticks_Phase_8,63,5,42,127,956146948
120,9,22,Ticks_Phase_8,64,1,48,64,956875264
120,9,22,Ticks_Phase_8,65,5,42,127,956946684
120,9,22,Ticks_Phase_8,66,1,48,74,957676624
120,9,22,Ticks_Phase_8,67,5,42,127,957746396
120,9,22,Ticks_Phase_8,68,1,48,64,958524888
120,9,22,Ticks_Phase_8,69,5,42,127,958547452
120,9,22,Ticks_Phase_8,70,1,48,67,959332604
120,9,22,Ticks_Phase_8,71,5,42,127,959347388
120,9,22,Ticks_Phase_8,72,1,48,61,960124668
120,9,22,Ticks_Phase_8,73,5,42,127,960146800
120,9,22,Ticks_Phase_8,74,1,48,61,960897360
120,9,22,Ticks_Phase_8,75,5,42,127,960946512
120,9,22,Ticks_Phase_8,76,1,48,66,961626232
120,9,22,Ticks_Phase_8,77,5,42,127,961747332
120,9,22,Ticks_Phase_8,78,1,48,57,962460980
120,9,22,Ticks_Phase_8,79,5,42,127,962547280
120,9,22,Ticks_Phase_8,80,1,48,59,963301804
120,9,22,Ticks_Phase_8,81,5,42,127,963346868
120,9,22,Ticks_Phase_8,82,1,48,56,964102784
120,9,22,Ticks_Phase_8,83,5,42,127,964146432
120,9,22,Ticks_Phase_8,84,1,48,56,964920500
120,9,22,Ticks_Phase_8,85,5,42,127,964947264
120,9,22,Ticks_Phase_8,86,1,48,58,965690028
120,9,22,Ticks_Phase_8,87,5,42,127,965747348
120,9,22,Ticks_Phase_8,88,1,48,57,966480604
120,9,22,Ticks_Phase_8,89,5,42,127,966546912
120,9,22,Ticks_Phase_8,90,1,48,57,967307580
120,9,22,Ticks_Phase_8,91,5,42,127,967346400
120,9,22,Ticks_Phase_8,92,1,48,53,968084440
120,9,22,Ticks_Phase_8,93,5,42,127,968166636
120,9,22,Ticks_Phase_8,94,1,48,51,968908652
120,9,22,Ticks_Phase_8,95,5,42,127,968966496
120,9,22,Ticks_Phase_8,96,1,48,54,969716756
120,9,22,Ticks_Phase_8,97,5,42,127,969767204
120,9,22,Ticks_Phase_8,98,1,48,55,970542016
120,9,22,Ticks_Phase_8,99,5,42,127,970567288
120,9,22,Ticks_Phase_8,100,1,48,59,971300396
120,9,22,Ticks_Phase_8,101,5,42,127,971366632
120,9,22,Ticks_Phase_8,102,1,48,56,972127744
120,9,22,Ticks_Phase_8,103,5,42,127,972166568
120,9,22,Ticks_Phase_8,104,1,48,53,972924376
120,9,22,Ticks_Phase_8,105,5,42,127,972967400
120,9,22,Ticks_Phase_8,106,1,48,59,973699160
120,9,22,Ticks_Phase_8,107,5,42,127,973767112
120,9,22,Ticks_Phase_8,108,1,48,58,974467200
120,9,22,Ticks_Phase_8,109,5,42,127,974567104
120,9,22,Ticks_Phase_8,110,1,48,46,975220100
120,9,22,Ticks_Phase_8,111,5,42,127,975366444
120,9,22,Ticks_Phase_8,112,1,48,47,976103004
120,9,22,Ticks_Phase_8,113,5,42,127,976167168
120,9,22,Ticks_Phase_8,114,1,48,52,976903012
120,9,22,Ticks_Phase_8,115,5,42,127,976967104
120,9,22,Ticks_Phase_8,116,1,48,55,977689424
120,9,22,Ticks_Phase_8,117,5,42,127,977766740
120,9,22,Ticks_Phase_8,118,1,48,57,978513996
120,9,22,Ticks_Phase_8,119,5,42,127,978566452
120,9,22,Ticks_Phase_8,120,1,48,59,979304340
120,9,22,Ticks_Phase_8,121,5,42,127,979367136
120,9,22,Ticks_Phase_8,122,1,48,59,980109228
120,9,22,Ticks_Phase_8,123,5,42,127,980167148
120,9,22,Ticks_Phase_8,124,1,48,57,980920096
120,9,22,Ticks_Phase_8,125,5,42,127,981006576
120,9,22,Ticks_Phase_8,126,1,48,59,981736064
120,9,22,Ticks_Phase_8,127,5,42,127,981806436
120,9,22,Ticks_Phase_8,128,1,48,59,982555344
120,9,22,Ticks_Phase_8,129,5,42,127,982607196
120,9,22,Ticks_Phase_8,130,1,48,59,983389652
120,9,22,Ticks_Phase_8,131,5,42,127,983406832
120,9,22,Ticks_Phase_8,132,5,42,127,984206996
120,9,22,Ticks_Phase_8,133,1,48,68,984209968
120,9,22,Ticks_Phase_8,134,5,42,127,985006488
120,9,22,Ticks_Phase_8,135,1,48,60,985040236
120,9,22,Ticks_Phase_8,136,5,42,127,985807100
120,9,22,Ticks_Phase_8,137,1,48,67,985827216
120,9,22,Ticks_Phase_8,138,5,42,127,986606884
120,9,22,Ticks_Phase_8,139,1,48,67,986610372
120,9,22,Ticks_Phase_8,140,1,48,61,987377204
120,9,22,Ticks_Phase_8,141,5,42,127,987406984
120,9,22,Ticks_Phase_8,142,1,48,63,988185924
120,9,22,Ticks_Phase_8,143,5,42,127,988206472
120,9,22,Ticks_Phase_8,144,1,48,70,988982408
120,9,22,Ticks_Phase_8,145,5,42,127,989007380
120,9,22,Ticks_Phase_8,146,1,48,65,989778824
120,9,22,Ticks_Phase_8,147,5,42,127,989806940
120,9,22,Ticks_Phase_8,148,1,48,54,990567832
120,9,22,Ticks_Phase_8,149,5,42,127,990606652
120,9,22,Ticks_Phase_8,150,1,48,56,991328380
120,9,22,Ticks_Phase_8,151,5,42,127,991406516
120,9,22,Ticks_Phase_8,152,1,48,61,992096860
120,9,22,Ticks_Phase_8,153,5,42,127,992207180
120,9,22,Ticks_Phase_8,154,1,48,63,992946600
120,9,22,Ticks_Phase_8,155,5,42,127,993006908
120,9,22,Ticks_Phase_8,156,1,48,55,993768924
120,9,22,Ticks_Phase_8,157,5,42,127,993806872
120,9,22,Ticks_Phase_8,158,5,42,127,994566500
120,9,22,Ticks_Phase_8,159,1,48,58,994575464
120,9,22,Ticks_Phase_8,160,1,48,56,995309984
120,9,22,Ticks_Phase_8,161,5,42,127,995367328
120,9,22,Ticks_Phase_8,162,1,48,55,996051352
120,9,22,Ticks_Phase_8,163,5,42,127,996166948
120,9,22,Ticks_Phase_8,164,1,48,51,996897672
120,9,22,Ticks_Phase_8,165,5,42,127,996966972
120,9,22,Ticks_Phase_8,166,1,48,54,997684116
120,9,22,Ticks_Phase_8,167,5,42,127,997766460
120,9,22,Ticks_Phase_8,168,1,48,58,998493792
120,9,22,Ticks_Phase_8,169,5,42,127,998567368
120,9,22,Ticks_Phase_8,170,1,48,57,999307740
120,9,22,Ticks_Phase_8,171,5,42,127,999367152
120,9,22,Ticks_Phase_8,172,1,48,59,1000097712
120,9,22,Ticks_Phase_8,173,5,42,127,1000166864
120,9,22,Ticks_Phase_8,174,1,48,57,1000925960
120,9,22,Ticks_Phase_8,175,5,42,127,1000966824
120,9,22,Ticks_Phase_8,176,1,48,62,1001737680
120,9,22,Ticks_Phase_8,177,5,42,127,1001767360
120,9,22,Ticks_Phase_8,178,1,48,57,1002529824
120,9,22,Ticks_Phase_8,179,5,42,127,1002567072
120,9,22,Ticks_Phase_8,180,1,48,56,1003356572
120,9,22,Ticks_Phase_8,181,5,42,127,1003366708
120,9,22,Ticks_Phase_8,182,1,48,55,1004150960
120,9,22,Ticks_Phase_8,183,5,42,127,1004166792
120,9,22,Ticks_Phase_8,184,1,48,54,1004915784
120,9,22,Ticks_Phase_8,185,5,42,127,1004967328
120,9,22,Ticks_Phase_8,186,1,48,50,1005712564
120,9,22,Ticks_Phase_8,187,5,42,127,1005766892
120,9,22,Ticks_Phase_8,188,1,48,52,1006519616
120,9,22,Ticks_Phase_8,189,5,42,127,1006566828
120,9,22,Ticks_Phase_8,190,1,48,58,1007275596
120,9,22,Ticks_Phase_8,191,5,42,127,1007286784
120,9,22,Ticks_Phase_8,192,1,48,67,1008014040
120,9,22,Ticks_Phase_8,193,5,42,127,1008087616
120,9,22,Ticks_Phase_8,194,1,48,62,1008816984
120,9,22,Ticks_Phase_8,195,5,42,127,1008887180
120,9,22,Ticks_Phase_8,196,1,48,60,1009641396
120,9,22,Ticks_Phase_8,197,5,42,127,1009686988
120,9,22,Ticks_Phase_8,198,1,48,59,1010459040
120,9,22,Ticks_Phase_8,199,5,42,127,1010486776
120,9,22,Ticks_Phase_8,200,1,48,60,1011263456
120,9,22,Ticks_Phase_8,201,5,42,127,1011287532
120,9,22,Ticks_Phase_8,202,1,48,70,1012076888
120,9,22,Ticks_Phase_8,203,5,42,127,1012087100
120,9,22,Ticks_Phase_8,204,1,48,65,1012862732
120,9,22,Ticks_Phase_8,205,5,42,127,1012886884
120,9,22,Ticks_Phase_8,206,1,48,66,1013632788
120,9,22,Ticks_Phase_8,207,5,42,127,1013686596
120,9,22,Ticks_Phase_8,208,1,48,67,1014411536
120,9,22,Ticks_Phase_8,209,5,42,127,1014487580
120,9,22,Ticks_Phase_8,210,1,48,54,1015227952
120,9,22,Ticks_Phase_8,211,5,42,127,1015287140
120,9,22,Ticks_Phase_8,212,1,48,48,1016077344
120,9,22,Ticks_Phase_8,213,5,42,127,1016086952
120,9,22,Ticks_Phase_8,214,5,42,127,1016886748
120,9,22,Ticks_Phase_8,215,1,48,61,1016920196
120,9,22,Ticks_Phase_8,216,5,42,127,1017687356
120,9,22,Ticks_Phase_8,217,1,48,62,1017708976
120,9,22,Ticks_Phase_8,218,5,42,127,1018487292
120,9,22,Ticks_Phase_8,219,1,48,65,1018525988
120,9,22,Ticks_Phase_8,220,5,42,127,1019286856
120,9,22,Ticks_Phase_8,221,1,48,67,1019307948
120,9,22,Ticks_Phase_8,222,1,48,70,1020078964
120,9,22,Ticks_Phase_8,223,5,42,127,1020086636
120,9,22,Ticks_Phase_8,224,1,48,71,1020903380
120,9,22,Ticks_Phase_8,225,5,42,127,1020967544
120,9,22,Ticks_Phase_8,226,1,48,65,1021714740
120,9,22,Ticks_Phase_8,227,5,42,127,1021766960
120,9,22,Ticks_Phase_8,228,1,48,62,1022520208
120,9,22,Ticks_Phase_8,229,5,42,127,1022566672
120,9,22,Ticks_Phase_8,230,1,48,65,1023286604
120,9,22,Ticks_Phase_8,231,5,42,127,1023366460
120,9,22,Ticks_Phase_8,232,1,48,58,1024095220
120,9,22,Ticks_Phase_8,233,5,42,127,1024167440
120,9,22,Ticks_Phase_8,234,1,48,59,1024900104
120,9,22,Ticks_Phase_8,235,5,42,127,1024967304
120,9,22,Ticks_Phase_8,236,1,48,54,1025686640
120,9,22,Ticks_Phase_8,237,5,42,127,1025766716
120,9,22,Ticks_Phase_8,238,1,48,61,1026505516
120,9,22,Ticks_Phase_8,239,5,42,127,1026566604
120,9,22,Ticks_Phase_8,240,1,48,63,1027308296
120,9,22,Ticks_Phase_8,241,5,42,127,1027367436
120,9,22,Ticks_Phase_8,242,1,48,64,1028125260
120,9,22,Ticks_Phase_8,243,5,42,127,1028167220
120,9,22,Ticks_Phase_8,244,1,48,61,1028874428
120,9,22,Ticks_Phase_8,245,5,42,127,1028966844
120,9,22,Ticks_Phase_8,246,1,48,61,1029684080
120,9,22,Ticks_Phase_8,247,5,42,127,1029766496
120,9,22,Ticks_Phase_8,248,1,48,62,1030539140
120,9,22,Ticks_Phase_8,249,5,42,127,1030567328
120,9,22,Ticks_Phase_8,250,1,48,57,1031315496
120,9,22,Ticks_Phase_8,251,5,42,127,1031367264
120,9,22,Ticks_Phase_8,252,1,48,54,1032083668
120,9,22,Ticks_Phase_8,253,5,42,127,1032166828
120,9,22,Ticks_Phase_8,254,1,48,61,1032878740
120,9,22,Ticks_Phase_8,255,5,42,127,1032966636
120,9,22,Ticks_Phase_8,256,1,48,47,1033644160
120,9,22,Ticks_Phase_8,257,5,42,127,1033767232
120,9,22,Ticks_Phase_8,258,1,48,50,1034534792
120,9,22,Ticks_Phase_8,259,5,42,127,1034726980
120,9,22,Ticks_Phase_8,260,5,42,127,1035526440
120,9,22,Ticks_Phase_8,261,1,48,43,1035635228
120,9,22,Ticks_Phase_8,262,5,42,127,1036327272
120,9,22,Ticks_Phase_8,263,1,48,33,1036447144
120,9,22,Ticks_Phase_8,264,5,42,127,1037127208
120,9,22,Ticks_Phase_8,265,1,48,45,1037225660
120,9,22,Ticks_Phase_8,266,5,42,127,1037926620
120,9,22,Ticks_Phase_8,267,1,48,45,1037959916
120,9,22,Ticks_Phase_8,268,1,48,44,1038646992
120,9,22,Ticks_Phase_8,269,5,42,127,1038726552
120,9,22,Ticks_Phase_8,270,1,48,47,1039458160
120,9,22,Ticks_Phase_8,271,5,42,127,1039527236
120,9,22,Ticks_Phase_8,272,1,48,47,1040243040
120,9,22,Ticks_Phase_8,273,5,42,127,1040327172
120,9,22,Ticks_Phase_8,274,1,48,50,1041068964
120,9,22,Ticks_Phase_8,275,5,42,127,1041126736
120,9,22,Ticks_Phase_8,276,1,48,52,1041885308
120,9,22,Ticks_Phase_8,277,5,42,127,1041926472
120,9,22,Ticks_Phase_8,278,1,48,58,1042699564
120,9,22,Ticks_Phase_8,279,5,42,127,1042727300
120,9,22,Ticks_Phase_8,280,1,48,57,1043503540
120,9,22,Ticks_Phase_8,281,5,42,127,1043527016
120,9,22,Ticks_Phase_8,282,1,48,59,1044281984
120,9,22,Ticks_Phase_8,283,5,42,127,1044327024
120,9,22,Ticks_Phase_8,284,1,48,60,1045074356
120,9,22,Ticks_Phase_8,285,5,42,127,1045126588
120,9,22,Ticks_Phase_8,286,1,48,56,1045872124
120,9,22,Ticks_Phase_8,287,5,42,127,1045927348
120,9,22,Ticks_Phase_8,288,1,48,59,1046674148
120,9,22,Ticks_Phase_8,289,5,42,127,1046727132
120,9,22,Ticks_Phase_8,290,1,48,56,1047519256
120,9,22,Ticks_Phase_8,291,5,42,127,1047526920
120,9,22,Ticks_Phase_8,292,1,48,55,1048304200
120,9,22,Ticks_Phase_8,293,5,42,127,1048326656
120,9,22,Ticks_Phase_8,294,1,48,54,1049072764
120,9,22,Ticks_Phase_8,295,5,42,127,1049127412
120,9,22,Ticks_Phase_8,296,5,42,127,1049767300
120,9,22,Ticks_Phase_8,297,1,48,58,1049825540
120,9,22,Ticks_Phase_8,298,5,42,127,1050567012
120,9,22,Ticks_Phase_8,299,1,48,51,1050593188
120,9,22,Ticks_Phase_8,300,1,48,58,1051327444
120,9,22,Ticks_Phase_8,301,5,42,127,1051366868
120,9,22,Ticks_Phase_8,302,1,48,60,1052090984
120,9,22,Ticks_Phase_8,303,5,42,127,1052166604
120,9,22,Ticks_Phase_8,304,1,48,50,1052855508
120,9,22,Ticks_Phase_8,305,5,42,127,1052967272
120,9,22,Ticks_Phase_8,306,1,48,49,1053667352
120,9,22,Ticks_Phase_8,307,5,42,127,1053766984
120,9,22,Ticks_Phase_8,308,1,48,52,1054523840
120,9,22,Ticks_Phase_8,309,5,42,127,1054566936
120,9,22,Ticks_Phase_8,310,1,48,55,1055337492
120,9,22,Ticks_Phase_8,311,5,42,127,1055366648
120,9,22,Ticks_Phase_8,312,5,42,127,1056167264
120,9,22,Ticks_Phase_8,313,1,48,49,1056179892
120,9,22,Ticks_Phase_8,314,5,42,127,1056966976
120,9,22,Ticks_Phase_8,315,1,48,67,1057005672
120,9,22,Ticks_Phase_8,316,1,48,65,1057744176
120,9,22,Ticks_Phase_8,317,5,42,127,1057767052
120,9,22,Ticks_Phase_8,318,1,48,57,1058514232
120,9,22,Ticks_Phase_8,319,5,42,127,1058566492
120,9,22,Ticks_Phase_8,320,1,48,59,1059321212
120,9,22,Ticks_Phase_8,321,5,42,127,1059367396
120,9,22,Ticks_Phase_8,322,1,48,61,1060151504
120,9,22,Ticks_Phase_8,323,5,42,127,1060166960
120,9,22,Ticks_Phase_8,324,5,42,127,1060967052
120,9,22,Ticks_Phase_8,325,1,48,55,1060975416
120,9,22,Ticks_Phase_8,326,5,42,127,1061766616
120,9,22,Ticks_Phase_8,327,1,48,56,1061769808
120,9,22,Ticks_Phase_8,328,1,48,68,1062546296
120,9,22,Ticks_Phase_8,329,5,42,127,1062567220
120,9,22,Ticks_Phase_8,330,1,48,68,1063293280
120,9,22,Ticks_Phase_8,331,5,42,127,1063367156
120,9,22,Ticks_Phase_8,332,1,48,62,1064127300
120,9,22,Ticks_Phase_8,333,5,42,127,1064166940
120,9,22,Ticks_Phase_8,334,1,48,54,1064893456
120,9,22,Ticks_Phase_8,335,5,42,127,1064966752
120,9,22,Ticks_Phase_8,0,9999,9999,9999,929764472
120,9,22,Ticks_Phase_8,1,9999,9999,9999,930564208
120,9,22,Ticks_Phase_8,2,9999,9999,9999,931364940
120,9,22,Ticks_Phase_8,3,9999,9999,9999,932164672
120,9,22,Ticks_Phase_8,4,9999,9999,9999,932964476
120,9,22,Ticks_Phase_8,5,9999,9999,9999,933764184
120,9,22,Ticks_Phase_8,6,9999,9999,9999,934564944
120,9,22,Ticks_Phase_8,7,9999,9999,9999,935364732
120,9,22,Ticks_Phase_8,8,9999,9999,9999,936164428
120,9,22,Ticks_Phase_8,9,9999,9999,9999,936964216
120,9,22,Ticks_Phase_8,10,9999,9999,9999,937764924
120,9,22,Ticks_Phase_8,11,9999,9999,9999,938564724
120,9,22,Ticks_Phase_8,12,9999,9999,9999,939364436
120,9,22,Ticks_Phase_8,13,9999,9999,9999,940164212
120,9,22,Ticks_Phase_8,14,9999,9999,9999,940964968
120,9,22,Ticks_Phase_8,15,9999,9999,9999,941764696
120,9,22,Ticks_Phase_8,16,9999,9999,9999,942564408
120,9,22,Ticks_Phase_8,17,9999,9999,9999,943364196
120,9,22,Ticks_Phase_8,18,9999,9999,9999,944164980
120,9,22,Ticks_Phase_8,19,9999,9999,9999,944964696
120,9,22,Ticks_Phase_8,20,9999,9999,9999,945764480
120,9,22,Ticks_Phase_8,21,9999,9999,9999,946564192
120,9,22,Ticks_Phase_8,22,9999,9999,9999,947364952
120,9,22,Ticks_Phase_8,23,9999,9999,9999,948164664
120,9,22,Ticks_Phase_8,24,9999,9999,9999,948964452
120,9,22,Ticks_Phase_8,25,9999,9999,9999,949764148
120,9,22,Ticks_Phase_8,26,9999,9999,9999,950564936
120,9,22,Ticks_Phase_8,27,9999,9999,9999,951364664
120,9,22,Ticks_Phase_8,28,9999,9999,9999,952164448
120,9,22,Ticks_Phase_8,29,9999,9999,9999,952964160
120,9,22,Ticks_Phase_8,30,9999,9999,9999,953744480
120,9,22,Ticks_Phase_8,31,9999,9999,9999,954544188
120,9,22,Ticks_Phase_8,32,9999,9999,9999,955345020
120,9,22,Ticks_Phase_8,33,9999,9999,9999,956144732
120,9,22,Ticks_Phase_8,34,9999,9999,9999,956944472
120,9,22,Ticks_Phase_8,35,9999,9999,9999,957744180
120,9,22,Ticks_Phase_8,36,9999,9999,9999,958545016
120,9,22,Ticks_Phase_8,37,9999,9999,9999,959344724
120,9,22,Ticks_Phase_8,38,9999,9999,9999,960144436
120,9,22,Ticks_Phase_8,39,9999,9999,9999,960944224
120,9,22,Ticks_Phase_8,40,9999,9999,9999,961744968
120,9,22,Ticks_Phase_8,41,9999,9999,9999,962544696
120,9,22,Ticks_Phase_8,42,9999,9999,9999,963344504
120,9,22,Ticks_Phase_8,43,9999,9999,9999,964144216
120,9,22,Ticks_Phase_8,44,9999,9999,9999,964944976
120,9,22,Ticks_Phase_8,45,9999,9999,9999,965744760
120,9,22,Ticks_Phase_8,46,9999,9999,9999,966544472
120,9,22,Ticks_Phase_8,47,9999,9999,9999,967344184
120,9,22,Ticks_Phase_8,48,9999,9999,9999,968164420
120,9,22,Ticks_Phase_8,49,9999,9999,9999,968964208
120,9,22,Ticks_Phase_8,50,9999,9999,9999,969764992
120,9,22,Ticks_Phase_8,51,9999,9999,9999,970564704
120,9,22,Ticks_Phase_8,52,9999,9999,9999,971364416
120,9,22,Ticks_Phase_8,53,9999,9999,9999,972164204
120,9,22,Ticks_Phase_8,54,9999,9999,9999,972964964
120,9,22,Ticks_Phase_8,55,9999,9999,9999,973764672
120,9,22,Ticks_Phase_8,56,9999,9999,9999,974564460
120,9,22,Ticks_Phase_8,57,9999,9999,9999,975364156
120,9,22,Ticks_Phase_8,58,9999,9999,9999,976164952
120,9,22,Ticks_Phase_8,59,9999,9999,9999,976964668
120,9,22,Ticks_Phase_8,60,9999,9999,9999,977764452
120,9,22,Ticks_Phase_8,61,9999,9999,9999,978564164
120,9,22,Ticks_Phase_8,62,9999,9999,9999,979364924
120,9,22,Ticks_Phase_8,63,9999,9999,9999,980164708
120,9,22,Ticks_Phase_8,64,9999,9999,9999,981004364
120,9,22,Ticks_Phase_8,65,9999,9999,9999,981804148
120,9,22,Ticks_Phase_8,66,9999,9999,9999,982604904
120,9,22,Ticks_Phase_8,67,9999,9999,9999,983404620
120,9,22,Ticks_Phase_8,68,9999,9999,9999,984204408
120,9,22,Ticks_Phase_8,69,9999,9999,9999,985004124
120,9,22,Ticks_Phase_8,70,9999,9999,9999,985804884
120,9,22,Ticks_Phase_8,71,9999,9999,9999,986604668
120,9,22,Ticks_Phase_8,72,9999,9999,9999,987404396
120,9,22,Ticks_Phase_8,73,9999,9999,9999,988204108
120,9,22,Ticks_Phase_8,74,9999,9999,9999,989004868
120,9,22,Ticks_Phase_8,75,9999,9999,9999,989804652
120,9,22,Ticks_Phase_8,76,9999,9999,9999,990604364
120,9,22,Ticks_Phase_8,77,9999,9999,9999,991404152
120,9,22,Ticks_Phase_8,78,9999,9999,9999,992204892
120,9,22,Ticks_Phase_8,79,9999,9999,9999,993004620
120,9,22,Ticks_Phase_8,80,9999,9999,9999,993804356
120,9,22,Ticks_Phase_8,81,9999,9999,9999,994564212
120,9,22,Ticks_Phase_8,82,9999,9999,9999,995364964
120,9,22,Ticks_Phase_8,83,9999,9999,9999,996164732
120,9,22,Ticks_Phase_8,84,9999,9999,9999,996964460
120,9,22,Ticks_Phase_8,85,9999,9999,9999,997764172
120,9,22,Ticks_Phase_8,86,9999,9999,9999,998564928
120,9,22,Ticks_Phase_8,87,9999,9999,9999,999364716
120,9,22,Ticks_Phase_8,88,9999,9999,9999,1000164428
120,9,22,Ticks_Phase_8,89,9999,9999,9999,1000964216
120,9,22,Ticks_Phase_8,90,9999,9999,9999,1001764924
120,9,22,Ticks_Phase_8,91,9999,9999,9999,1002564708
120,9,22,Ticks_Phase_8,92,9999,9999,9999,1003364420
120,9,22,Ticks_Phase_8,93,9999,9999,9999,1004164204
120,9,22,Ticks_Phase_8,94,9999,9999,9999,1004964964
120,9,22,Ticks_Phase_8,95,9999,9999,9999,1005764676
120,9,22,Ticks_Phase_8,96,9999,9999,9999,1006564464
120,9,22,Ticks_Phase_8,97,9999,9999,9999,1007284344
120,9,22,Ticks_Phase_8,98,9999,9999,9999,1008085104
120,9,22,Ticks_Phase_8,99,9999,9999,9999,1008884816
120,9,22,Ticks_Phase_8,100,9999,9999,9999,1009684552
120,9,22,Ticks_Phase_8,101,9999,9999,9999,1010484340
120,9,22,Ticks_Phase_8,102,9999,9999,9999,1011285096
120,9,22,Ticks_Phase_8,103,9999,9999,9999,1012084808
120,9,22,Ticks_Phase_8,104,9999,9999,9999,1012884596
120,9,22,Ticks_Phase_8,105,9999,9999,9999,1013684308
120,9,22,Ticks_Phase_8,106,9999,9999,9999,1014485068
120,9,22,Ticks_Phase_8,107,9999,9999,9999,1015284852
120,9,22,Ticks_Phase_8,108,9999,9999,9999,1016084588
120,9,22,Ticks_Phase_8,109,9999,9999,9999,1016884308
120,9,22,Ticks_Phase_8,110,9999,9999,9999,1017685068
120,9,22,Ticks_Phase_8,111,9999,9999,9999,1018484856
120,9,22,Ticks_Phase_8,112,9999,9999,9999,1019284564
120,9,22,Ticks_Phase_8,113,9999,9999,9999,1020084344
120,9,22,Ticks_Phase_8,114,9999,9999,9999,1020964960
120,9,22,Ticks_Phase_8,115,9999,9999,9999,1021764672
120,9,22,Ticks_Phase_8,116,9999,9999,9999,1022564456
120,9,22,Ticks_Phase_8,117,9999,9999,9999,1023364172
120,9,22,Ticks_Phase_8,118,9999,9999,9999,1024164928
120,9,22,Ticks_Phase_8,119,9999,9999,9999,1024964716
120,9,22,Ticks_Phase_8,120,9999,9999,9999,1025764428
120,9,22,Ticks_Phase_8,121,9999,9999,9999,1026564216
120,9,22,Ticks_Phase_8,122,9999,9999,9999,1027364924
120,9,22,Ticks_Phase_8,123,9999,9999,9999,1028164708
120,9,22,Ticks_Phase_8,124,9999,9999,9999,1028964424
120,9,22,Ticks_Phase_8,125,9999,9999,9999,1029764208
120,9,22,Ticks_Phase_8,126,9999,9999,9999,1030564964
120,9,22,Ticks_Phase_8,127,9999,9999,9999,1031364676
120,9,22,Ticks_Phase_8,128,9999,9999,9999,1032164464
120,9,22,Ticks_Phase_8,129,9999,9999,9999,1032964176
120,9,22,Ticks_Phase_8,130,9999,9999,9999,1033764944
120,9,22,Ticks_Phase_8,131,9999,9999,9999,1034724464
120,9,22,Ticks_Phase_8,132,9999,9999,9999,1035524224
120,9,22,Ticks_Phase_8,133,9999,9999,9999,1036324984
120,9,22,Ticks_Phase_8,134,9999,9999,9999,1037124696
120,9,22,Ticks_Phase_8,135,9999,9999,9999,1037924408
120,9,22,Ticks_Phase_8,136,9999,9999,9999,1038724188
120,9,22,Ticks_Phase_8,137,9999,9999,9999,1039524948
120,9,22,Ticks_Phase_8,138,9999,9999,9999,1040324736
120,9,22,Ticks_Phase_8,139,9999,9999,9999,1041124444
120,9,22,Ticks_Phase_8,140,9999,9999,9999,1041924180
120,9,22,Ticks_Phase_8,141,9999,9999,9999,1042724940
120,9,22,Ticks_Phase_8,142,9999,9999,9999,1043524728
120,9,22,Ticks_Phase_8,143,9999,9999,9999,1044324440
120,9,22,Ticks_Phase_8,144,9999,9999,9999,1045124152
120,9,22,Ticks_Phase_8,145,9999,9999,9999,1045924984
120,9,22,Ticks_Phase_8,146,9999,9999,9999,1046724696
120,9,22,Ticks_Phase_8,147,9999,9999,9999,1047524408
120,9,22,Ticks_Phase_8,148,9999,9999,9999,1048324220
120,9,22,Ticks_Phase_8,149,9999,9999,9999,1049124976
120,9,22,Ticks_Phase_8,150,9999,9999,9999,1049764932
120,9,22,Ticks_Phase_8,151,9999,9999,9999,1050564724
120,9,22,Ticks_Phase_8,152,9999,9999,9999,1051364428
120,9,22,Ticks_Phase_8,153,9999,9999,9999,1052164168
120,9,22,Ticks_Phase_8,154,9999,9999,9999,1052964984
120,9,22,Ticks_Phase_8,155,9999,9999,9999,1053764696
120,9,22,Ticks_Phase_8,156,9999,9999,9999,1054564424
120,9,22,Ticks_Phase_8,157,9999,9999,9999,1055364208
120,9,22,Ticks_Phase_8,158,9999,9999,9999,1056164976
120,9,22,Ticks_Phase_8,159,9999,9999,9999,1056964688
120,9,22,Ticks_Phase_8,160,9999,9999,9999,1057764464
120,9,22,Ticks_Phase_8,161,9999,9999,9999,1058564204
120,9,22,Ticks_Phase_8,162,9999,9999,9999,1059364960
120,9,22,Ticks_Phase_8,163,9999,9999,9999,1060164672
120,9,22,Ticks_Phase_8,164,9999,9999,9999,1060964464
120,9,22,Ticks_Phase_8,165,9999,9999,9999,1061764180
120,9,22,Ticks_Phase_8,166,9999,9999,9999,1062564932
120,9,22,Ticks_Phase_8,167,9999,9999,9999,1063364716
120,9,22,Ticks_Phase_8,168,9999,9999,9999,1064164428
120,9,22,Ticks_Phase_8,169,9999,9999,9999,1064964168
120,10,23,Ticks_Phase_5,0,5,42,127,1075316192
120,10,23,Ticks_Phase_5,1,5,42,127,1075815828
120,10,23,Ticks_Phase_5,2,5,42,127,1076315612
120,10,23,Ticks_Phase_5,3,5,42,127,1076816220
120,10,23,Ticks_Phase_5,4,5,42,127,1077316080
120,10,23,Ticks_Phase_5,5,1,48,64,1077335156
120,10,23,Ticks_Phase_5,6,5,42,127,1077815620
120,10,23,Ticks_Phase_5,7,1,48,78,1077818288
120,10,23,Ticks_Phase_5,8,1,48,74,1078300964
120,10,23,Ticks_Phase_5,9,5,42,127,1078316648
120,10,23,Ticks_Phase_5,10,1,48,66,1078801096
120,10,23,Ticks_Phase_5,11,5,42,127,1078816108
120,10,23,Ticks_Phase_5,12,1,48,75,1079311424
120,10,23,Ticks_Phase_5,13,5,42,127,1079315796
120,10,23,Ticks_Phase_5,14,1,48,72,1079779252
120,10,23,Ticks_Phase_5,15,5,42,127,1079815484
120,10,23,Ticks_Phase_5,16,1,48,69,1080275204
120,10,23,Ticks_Phase_5,17,5,42,127,1080316564
120,10,23,Ticks_Phase_5,18,1,48,71,1080772788
120,10,23,Ticks_Phase_5,19,5,42,127,1080815956
120,10,23,Ticks_Phase_5,20,1,48,74,1081283632
120,10,23,Ticks_Phase_5,21,5,42,127,1081315568
120,10,23,Ticks_Phase_5,22,1,48,62,1081774568
120,10,23,Ticks_Phase_5,23,5,42,127,1081816604
120,10,23,Ticks_Phase_5,24,1,48,74,1082274032
120,10,23,Ticks_Phase_5,25,5,42,127,1082326328
120,10,23,Ticks_Phase_5,26,1,48,66,1082799848
120,10,23,Ticks_Phase_5,27,5,42,127,1082826236
120,10,23,Ticks_Phase_5,28,1,48,67,1083294672
120,10,23,Ticks_Phase_5,29,5,42,127,1083326076
120,10,23,Ticks_Phase_5,30,1,48,66,1083764404
120,10,23,Ticks_Phase_5,31,5,42,127,1083825616
120,10,23,Ticks_Phase_5,32,1,48,57,1084267912
120,10,23,Ticks_Phase_5,33,5,42,127,1084326500
120,10,23,Ticks_Phase_5,34,1,48,66,1084773668
120,10,23,Ticks_Phase_5,35,5,42,127,1084825888
120,10,23,Ticks_Phase_5,36,1,48,68,1085306228
120,10,23,Ticks_Phase_5,37,5,42,127,1085325652
120,10,23,Ticks_Phase_5,38,1,48,73,1085814012
120,10,23,Ticks_Phase_5,39,5,42,127,1085826616
120,10,23,Ticks_Phase_5,40,1,48,72,1086294748
120,10,23,Ticks_Phase_5,41,5,42,127,1086336268
120,10,23,Ticks_Phase_5,42,1,48,79,1086802068
120,10,23,Ticks_Phase_5,43,5,42,127,1086836172
120,10,23,Ticks_Phase_5,44,1,48,75,1087298536
120,10,23,Ticks_Phase_5,45,5,42,127,1087335936
120,10,23,Ticks_Phase_5,46,1,48,63,1087781972
120,10,23,Ticks_Phase_5,47,5,42,127,1087835400
120,10,23,Ticks_Phase_5,48,1,48,73,1088290420
120,10,23,Ticks_Phase_5,49,5,42,127,1088336360
120,10,23,Ticks_Phase_5,50,1,48,71,1088799776
120,10,23,Ticks_Phase_5,51,5,42,127,1088835900
120,10,23,Ticks_Phase_5,52,1,48,58,1089262508
120,10,23,Ticks_Phase_5,53,5,42,127,1089335660
120,10,23,Ticks_Phase_5,54,1,48,67,1089789536
120,10,23,Ticks_Phase_5,55,5,42,127,1089836548
120,10,23,Ticks_Phase_5,56,1,48,68,1090248636
120,10,23,Ticks_Phase_5,57,5,42,127,1090325904
120,10,23,Ticks_Phase_5,58,1,48,56,1090756720
120,10,23,Ticks_Phase_5,59,5,42,127,1090825516
120,10,23,Ticks_Phase_5,60,1,48,63,1091233856
120,10,23,Ticks_Phase_5,61,5,42,127,1091326528
120,10,23,Ticks_Phase_5,62,1,48,59,1091740512
120,10,23,Ticks_Phase_5,63,5,42,127,1091825992
120,10,23,Ticks_Phase_5,64,1,48,62,1092251280
120,10,23,Ticks_Phase_5,65,5,42,127,1092325680
120,10,23,Ticks_Phase_5,66,1,48,58,1092779952
120,10,23,Ticks_Phase_5,67,5,42,127,1092825368
120,10,23,Ticks_Phase_5,68,1,48,58,1093315292
120,10,23,Ticks_Phase_5,69,5,42,127,1093326400
120,10,23,Ticks_Phase_5,70,5,42,127,1093826020
120,10,23,Ticks_Phase_5,71,1,48,59,1093829216
120,10,23,Ticks_Phase_5,72,5,42,127,1094325636
120,10,23,Ticks_Phase_5,73,1,48,67,1094337896
120,10,23,Ticks_Phase_5,74,5,42,127,1094826444
120,10,23,Ticks_Phase_5,75,1,48,73,1094834664
120,10,23,Ticks_Phase_5,76,5,42,127,1095326356
120,10,23,Ticks_Phase_5,77,1,48,71,1095357040
120,10,23,Ticks_Phase_5,78,1,48,74,1095815976
120,10,23,Ticks_Phase_5,79,5,42,127,1095825816
120,10,23,Ticks_Phase_5,80,1,48,55,1096309076
120,10,23,Ticks_Phase_5,81,5,42,127,1096325504
120,10,23,Ticks_Phase_5,82,1,48,62,1096795808
120,10,23,Ticks_Phase_5,83,5,42,127,1096826388
120,10,23,Ticks_Phase_5,84,1,48,58,1097282756
120,10,23,Ticks_Phase_5,85,5,42,127,1097325924
120,10,23,Ticks_Phase_5,86,1,48,59,1097764704
120,10,23,Ticks_Phase_5,87,5,42,127,1097825616
120,10,23,Ticks_Phase_5,88,1,48,59,1098272024
120,10,23,Ticks_Phase_5,89,5,42,127,1098326500
120,10,23,Ticks_Phase_5,90,1,48,56,1098778380
120,10,23,Ticks_Phase_5,91,5,42,127,1098826188
120,10,23,Ticks_Phase_5,92,1,48,58,1099297764
120,10,23,Ticks_Phase_5,93,5,42,127,1099336212
120,10,23,Ticks_Phase_5,94,1,48,64,1099796108
120,10,23,Ticks_Phase_5,95,5,42,127,1099835900
120,10,23,Ticks_Phase_5,96,1,48,62,1100298344
120,10,23,Ticks_Phase_5,97,5,42,127,1100335588
120,10,23,Ticks_Phase_5,98,1,48,66,1100794784
120,10,23,Ticks_Phase_5,99,5,42,127,1100836396
120,10,23,Ticks_Phase_5,100,1,48,62,1101291316
120,10,23,Ticks_Phase_5,101,5,42,127,1101336308
120,10,23,Ticks_Phase_5,102,1,48,62,1101799396
120,10,23,Ticks_Phase_5,103,5,42,127,1101835552
120,10,23,Ticks_Phase_5,104,1,48,66,1102306432
120,10,23,Ticks_Phase_5,105,5,42,127,1102336412
120,10,23,Ticks_Phase_5,106,1,48,68,1102796528
120,10,23,Ticks_Phase_5,107,5,42,127,1102836244
120,10,23,Ticks_Phase_5,108,1,48,69,1103287904
120,10,23,Ticks_Phase_5,109,5,42,127,1103335788
120,10,23,Ticks_Phase_5,110,1,48,70,1103788788
120,10,23,Ticks_Phase_5,111,5,42,127,1103835400
120,10,23,Ticks_Phase_5,112,1,48,63,1104250432
120,10,23,Ticks_Phase_5,113,5,42,127,1104336284
120,10,23,Ticks_Phase_5,114,1,48,65,1104740388
120,10,23,Ticks_Phase_5,115,5,42,127,1104836032
120,10,23,Ticks_Phase_5,116,1,48,60,1105296468
120,10,23,Ticks_Phase_5,117,5,42,127,1105335660
120,10,23,Ticks_Phase_5,118,1,48,66,1105824016
120,10,23,Ticks_Phase_5,119,5,42,127,1105836400
120,10,23,Ticks_Phase_5,120,5,42,127,1106336164
120,10,23,Ticks_Phase_5,121,1,48,59,1106355912
120,10,23,Ticks_Phase_5,122,1,48,62,1106832444
120,10,23,Ticks_Phase_5,123,5,42,127,1106835776
120,10,23,Ticks_Phase_5,124,1,48,59,1107325400
120,10,23,Ticks_Phase_5,125,5,42,127,1107356204
120,10,23,Ticks_Phase_5,126,1,48,62,1107822160
120,10,23,Ticks_Phase_5,127,5,42,127,1107855668
120,10,23,Ticks_Phase_5,128,1,48,63,1108312708
120,10,23,Ticks_Phase_5,129,5,42,127,1108355356
120,10,23,Ticks_Phase_5,130,1,48,64,1108795032
120,10,23,Ticks_Phase_5,131,5,42,127,1108856316
120,10,23,Ticks_Phase_5,132,1,48,55,1109280260
120,10,23,Ticks_Phase_5,133,5,42,127,1109356076
120,10,23,Ticks_Phase_5,134,1,48,58,1109800992
120,10,23,Ticks_Phase_5,135,5,42,127,1109855692
120,10,23,Ticks_Phase_5,136,1,48,55,1110312880
120,10,23,Ticks_Phase_5,137,5,42,127,1110356352
120,10,23,Ticks_Phase_5,138,1,48,61,1110836916
120,10,23,Ticks_Phase_5,139,5,42,127,1110856188
120,10,23,Ticks_Phase_5,140,1,48,60,1111350076
120,10,23,Ticks_Phase_5,141,5,42,127,1111355728
120,10,23,Ticks_Phase_5,142,5,42,127,1111855424
120,10,23,Ticks_Phase_5,143,1,48,65,1111868508
120,10,23,Ticks_Phase_5,144,5,42,127,1112356308
120,10,23,Ticks_Phase_5,145,1,48,59,1112377104
120,10,23,Ticks_Phase_5,146,5,42,127,1112856068
120,10,23,Ticks_Phase_5,147,1,48,59,1112905776
120,10,23,Ticks_Phase_5,148,1,48,63,1113353488
120,10,23,Ticks_Phase_5,149,5,42,127,1113355528
120,10,23,Ticks_Phase_5,150,1,48,64,1113854576
120,10,23,Ticks_Phase_5,151,5,42,127,1113856316
120,10,23,Ticks_Phase_5,152,1,48,65,1114351596
120,10,23,Ticks_Phase_5,153,5,42,127,1114356124
120,10,23,Ticks_Phase_5,154,1,48,62,1114850540
120,10,23,Ticks_Phase_5,155,5,42,127,1114855960
120,10,23,Ticks_Phase_5,156,5,42,127,1115355512
120,10,23,Ticks_Phase_5,157,1,48,57,1115373372
120,10,23,Ticks_Phase_5,158,1,48,68,1115832088
120,10,23,Ticks_Phase_5,159,5,42,127,1115835944
120,10,23,Ticks_Phase_5,160,1,48,61,1116327888
120,10,23,Ticks_Phase_5,161,5,42,127,1116335484
120,10,23,Ticks_Phase_5,162,1,48,53,1116816872
120,10,23,Ticks_Phase_5,163,5,42,127,1116836068
120,10,23,Ticks_Phase_5,164,1,48,59,1117302692
120,10,23,Ticks_Phase_5,165,5,42,127,1117335832
120,10,23,Ticks_Phase_5,166,1,48,59,1117776104
120,10,23,Ticks_Phase_5,167,5,42,127,1117835744
120,10,23,Ticks_Phase_5,168,1,48,55,1118286724
120,10,23,Ticks_Phase_5,169,5,42,127,1118336480
120,10,23,Ticks_Phase_5,170,1,48,54,1118800340
120,10,23,Ticks_Phase_5,171,5,42,127,1118836020
120,10,23,Ticks_Phase_5,172,1,48,53,1119306176
120,10,23,Ticks_Phase_5,173,5,42,127,1119335932
120,10,23,Ticks_Phase_5,174,1,48,57,1119797924
120,10,23,Ticks_Phase_5,175,5,42,127,1119835472
120,10,23,Ticks_Phase_5,176,1,48,55,1120290488
120,10,23,Ticks_Phase_5,177,5,42,127,1120336352
120,10,23,Ticks_Phase_5,178,1,48,47,1120793172
120,10,23,Ticks_Phase_5,179,5,42,127,1120836044
120,10,23,Ticks_Phase_5,180,1,48,49,1121273808
120,10,23,Ticks_Phase_5,181,5,42,127,1121335804
120,10,23,Ticks_Phase_5,182,1,48,75,1121779724
120,10,23,Ticks_Phase_5,183,5,42,127,1121836468
120,10,23,Ticks_Phase_5,184,1,48,69,1122294844
120,10,23,Ticks_Phase_5,185,5,42,127,1122336152
120,10,23,Ticks_Phase_5,186,1,48,67,1122777676
120,10,23,Ticks_Phase_5,187,5,42,127,1122835916
120,10,23,Ticks_Phase_5,188,1,48,64,1123274896
120,10,23,Ticks_Phase_5,189,5,42,127,1123335752
120,10,23,Ticks_Phase_5,190,5,42,127,1123786072
120,10,23,Ticks_Phase_5,191,1,48,63,1123793752
120,10,23,Ticks_Phase_5,192,1,48,63,1124284784
120,10,23,Ticks_Phase_5,193,5,42,127,1124286348
120,10,23,Ticks_Phase_5,194,1,48,63,1124772600
120,10,23,Ticks_Phase_5,195,5,42,127,1124785516
120,10,23,Ticks_Phase_5,196,1,48,65,1125282324
120,10,23,Ticks_Phase_5,197,5,42,127,1125286328
120,10,23,Ticks_Phase_5,198,1,48,61,1125744500
120,10,23,Ticks_Phase_5,199,5,42,127,1125785940
120,10,23,Ticks_Phase_5,200,1,48,64,1126232576
120,10,23,Ticks_Phase_5,201,5,42,127,1126285780
120,10,23,Ticks_Phase_5,202,1,48,67,1126737964
120,10,23,Ticks_Phase_5,203,5,42,127,1126786516
120,10,23,Ticks_Phase_5,204,1,48,66,1127229408
120,10,23,Ticks_Phase_5,205,5,42,127,1127296468
120,10,23,Ticks_Phase_5,206,1,48,62,1127727752
120,10,23,Ticks_Phase_5,207,5,42,127,1127796076
120,10,23,Ticks_Phase_5,208,1,48,61,1128226464
120,10,23,Ticks_Phase_5,209,5,42,127,1128295768
120,10,23,Ticks_Phase_5,210,1,48,59,1128766368
120,10,23,Ticks_Phase_5,211,5,42,127,1128795604
120,10,23,Ticks_Phase_5,212,5,42,127,1129296344
120,10,23,Ticks_Phase_5,213,1,48,62,1129302904
120,10,23,Ticks_Phase_5,214,1,48,58,1129794296
120,10,23,Ticks_Phase_5,215,5,42,127,1129795880
120,10,23,Ticks_Phase_5,216,5,42,127,1130295796
120,10,23,Ticks_Phase_5,217,1,48,66,1130298400
120,10,23,Ticks_Phase_5,218,5,42,127,1130796312
120,10,23,Ticks_Phase_5,219,1,48,66,1130806244
120,10,23,Ticks_Phase_5,220,5,42,127,1131296220
120,10,23,Ticks_Phase_5,221,1,48,62,1131301804
120,10,23,Ticks_Phase_5,222,5,42,127,1131795684
120,10,23,Ticks_Phase_5,223,1,48,58,1131797552
120,10,23,Ticks_Phase_5,224,1,48,57,1132292632
120,10,23,Ticks_Phase_5,225,5,42,127,1132345764
120,10,23,Ticks_Phase_5,226,1,48,61,1132815996
120,10,23,Ticks_Phase_5,227,5,42,127,1132845600
120,10,23,Ticks_Phase_5,228,1,48,58,1133330276
120,10,23,Ticks_Phase_5,229,5,42,127,1133346260
120,10,23,Ticks_Phase_5,230,1,48,71,1133813928
120,10,23,Ticks_Phase_5,231,5,42,127,1133845800
120,10,23,Ticks_Phase_5,232,1,48,62,1134309936
120,10,23,Ticks_Phase_5,233,5,42,127,1134345712
120,10,23,Ticks_Phase_5,234,1,48,66,1134811040
120,10,23,Ticks_Phase_5,235,5,42,127,1134846200
120,10,23,Ticks_Phase_5,236,1,48,59,1135305272
120,10,23,Ticks_Phase_5,237,5,42,127,1135345888
120,10,23,Ticks_Phase_5,238,1,48,59,1135811768
120,10,23,Ticks_Phase_5,239,5,42,127,1135845800
120,10,23,Ticks_Phase_5,240,1,48,64,1136324792
120,10,23,Ticks_Phase_5,241,5,42,127,1136345632
120,10,23,Ticks_Phase_5,242,1,48,58,1136832404
120,10,23,Ticks_Phase_5,243,5,42,127,1136846144
120,10,23,Ticks_Phase_5,244,1,48,60,1137332248
120,10,23,Ticks_Phase_5,245,5,42,127,1137345908
120,10,23,Ticks_Phase_5,246,1,48,65,1137800408
120,10,23,Ticks_Phase_5,247,5,42,127,1137845820
120,10,23,Ticks_Phase_5,248,1,48,61,1138316428
120,10,23,Ticks_Phase_5,249,5,42,127,1138346480
120,10,23,Ticks_Phase_5,250,1,48,66,1138838424
120,10,23,Ticks_Phase_5,251,5,42,127,1138846096
120,10,23,Ticks_Phase_5,252,1,48,56,1139305020
120,10,23,Ticks_Phase_5,253,5,42,127,1139345784
120,10,23,Ticks_Phase_5,254,1,48,65,1139795344
120,10,23,Ticks_Phase_5,255,5,42,127,1139845696
120,10,23,Ticks_Phase_5,256,1,48,60,1140274516
120,10,23,Ticks_Phase_5,257,5,42,127,1140346432
120,10,23,Ticks_Phase_5,258,1,48,56,1140778544
120,10,23,Ticks_Phase_5,259,5,42,127,1140946452
120,10,23,Ticks_Phase_5,260,5,42,127,1141445940
120,10,23,Ticks_Phase_5,261,1,48,60,1141781376
120,10,23,Ticks_Phase_5,262,5,42,127,1141945628
120,10,23,Ticks_Phase_5,263,1,48,54,1142386892
120,10,23,Ticks_Phase_5,264,5,42,127,1142445556
120,10,23,Ticks_Phase_5,265,1,48,54,1142940416
120,10,23,Ticks_Phase_5,266,5,42,127,1142946140
120,10,23,Ticks_Phase_5,267,5,42,127,1143445912
120,10,23,Ticks_Phase_5,268,1,48,45,1143471272
120,10,23,Ticks_Phase_5,269,5,42,127,1143945524
120,10,23,Ticks_Phase_5,270,1,48,63,1143990432
120,10,23,Ticks_Phase_5,271,5,42,127,1144446408
120,10,23,Ticks_Phase_5,272,1,48,57,1144482100
120,10,23,Ticks_Phase_5,273,5,42,127,1144946096
120,10,23,Ticks_Phase_5,274,1,48,56,1144968912
120,10,23,Ticks_Phase_5,275,5,42,127,1145445712
120,10,23,Ticks_Phase_5,276,1,48,63,1145447800
120,10,23,Ticks_Phase_5,277,1,48,60,1145924544
120,10,23,Ticks_Phase_5,278,5,42,127,1145945540
120,10,23,Ticks_Phase_5,279,1,48,60,1146438532
120,10,23,Ticks_Phase_5,280,5,42,127,1146446128
120,10,23,Ticks_Phase_5,281,1,48,64,1146906544
120,10,23,Ticks_Phase_5,282,5,42,127,1146945816
120,10,23,Ticks_Phase_5,283,1,48,63,1147397324
120,10,23,Ticks_Phase_5,284,5,42,127,1147445652
120,10,23,Ticks_Phase_5,285,1,48,59,1147902296
120,10,23,Ticks_Phase_5,286,5,42,127,1147946608
120,10,23,Ticks_Phase_5,287,1,48,63,1148407380
120,10,23,Ticks_Phase_5,288,5,42,127,1148446000
120,10,23,Ticks_Phase_5,289,1,48,60,1148874644
120,10,23,Ticks_Phase_5,290,5,42,127,1148945836
120,10,23,Ticks_Phase_5,291,1,48,55,1149365116
120,10,23,Ticks_Phase_5,292,5,42,127,1149445452
120,10,23,Ticks_Phase_5,293,1,48,61,1149877688
120,10,23,Ticks_Phase_5,294,5,42,127,1149946460
120,10,23,Ticks_Phase_5,295,5,42,127,1150345508
120,10,23,Ticks_Phase_5,296,1,48,58,1150408912
120,10,23,Ticks_Phase_5,297,5,42,127,1150846464
120,10,23,Ticks_Phase_5,298,1,48,57,1150886284
120,10,23,Ticks_Phase_5,299,1,48,53,1151344800
120,10,23,Ticks_Phase_5,300,5,42,127,1151346516
120,10,23,Ticks_Phase_5,301,1,48,42,1151827536
120,10,23,Ticks_Phase_5,302,5,42,127,1151845688
120,10,23,Ticks_Phase_5,303,1,48,56,1152318460
120,10,23,Ticks_Phase_5,304,5,42,127,1152345448
120,10,23,Ticks_Phase_5,305,1,48,47,1152807440
120,10,23,Ticks_Phase_5,306,5,42,127,1152846332
120,10,23,Ticks_Phase_5,307,1,48,53,1153291920
120,10,23,Ticks_Phase_5,308,5,42,127,1153345800
120,10,23,Ticks_Phase_5,309,1,48,53,1153799552
120,10,23,Ticks_Phase_5,310,5,42,127,1153845564
120,10,23,Ticks_Phase_5,311,1,48,59,1154309724
120,10,23,Ticks_Phase_5,312,5,42,127,1154346520
120,10,23,Ticks_Phase_5,313,1,48,58,1154833144
120,10,23,Ticks_Phase_5,314,5,42,127,1154846060
120,10,23,Ticks_Phase_5,315,1,48,65,1155318436
120,10,23,Ticks_Phase_5,316,5,42,127,1155345748
120,10,23,Ticks_Phase_5,317,1,48,60,1155791752
120,10,23,Ticks_Phase_5,318,5,42,127,1155845360
120,10,23,Ticks_Phase_5,319,1,48,62,1156288228
120,10,23,Ticks_Phase_5,320,5,42,127,1156346368
120,10,23,Ticks_Phase_5,321,1,48,63,1156791280
120,10,23,Ticks_Phase_5,322,5,42,127,1156845908
120,10,23,Ticks_Phase_5,323,1,48,62,1157290372
120,10,23,Ticks_Phase_5,324,5,42,127,1157345672
120,10,23,Ticks_Phase_5,325,1,48,59,1157795232
120,10,23,Ticks_Phase_5,326,5,42,127,1157846408
120,10,23,Ticks_Phase_5,327,1,48,59,1158281360
120,10,23,Ticks_Phase_5,328,5,42,127,1158346020
120,10,23,Ticks_Phase_5,329,1,48,64,1158784796
120,10,23,Ticks_Phase_5,330,5,42,127,1158845932
120,10,23,Ticks_Phase_5,331,1,48,61,1159281408
120,10,23,Ticks_Phase_5,332,5,42,127,1159345472
120,10,23,Ticks_Phase_5,333,1,48,65,1159807764
120,10,23,Ticks_Phase_5,334,5,42,127,1159846208
120,10,23,Ticks_Phase_5,0,9999,9999,9999,1075313756
120,10,23,Ticks_Phase_5,1,9999,9999,9999,1075813468
120,10,23,Ticks_Phase_5,2,9999,9999,9999,1076313176
120,10,23,Ticks_Phase_5,3,9999,9999,9999,1076813932
120,10,23,Ticks_Phase_5,4,9999,9999,9999,1077313644
120,10,23,Ticks_Phase_5,5,9999,9999,9999,1077813332
120,10,23,Ticks_Phase_5,6,9999,9999,9999,1078314060
120,10,23,Ticks_Phase_5,7,9999,9999,9999,1078813820
120,10,23,Ticks_Phase_5,8,9999,9999,9999,1079313512
120,10,23,Ticks_Phase_5,9,9999,9999,9999,1079813196
120,10,23,Ticks_Phase_5,10,9999,9999,9999,1080313980
120,10,23,Ticks_Phase_5,11,9999,9999,9999,1080813672
120,10,23,Ticks_Phase_5,12,9999,9999,9999,1081313356
120,10,23,Ticks_Phase_5,13,9999,9999,9999,1081814092
120,10,23,Ticks_Phase_5,14,9999,9999,9999,1082324040
120,10,23,Ticks_Phase_5,15,9999,9999,9999,1082823800
120,10,23,Ticks_Phase_5,16,9999,9999,9999,1083323492
120,10,23,Ticks_Phase_5,17,9999,9999,9999,1083823180
120,10,23,Ticks_Phase_5,18,9999,9999,9999,1084323912
120,10,23,Ticks_Phase_5,19,9999,9999,9999,1084823676
120,10,23,Ticks_Phase_5,20,9999,9999,9999,1085323364
120,10,23,Ticks_Phase_5,21,9999,9999,9999,1085824100
120,10,23,Ticks_Phase_5,22,9999,9999,9999,1086334052
120,10,23,Ticks_Phase_5,23,9999,9999,9999,1086833740
120,10,23,Ticks_Phase_5,24,9999,9999,9999,1087333500
120,10,23,Ticks_Phase_5,25,9999,9999,9999,1087833188
120,10,23,Ticks_Phase_5,26,9999,9999,9999,1088333924
120,10,23,Ticks_Phase_5,27,9999,9999,9999,1088833612
120,10,23,Ticks_Phase_5,28,9999,9999,9999,1089333376
120,10,23,Ticks_Phase_5,29,9999,9999,9999,1089834108
120,10,23,Ticks_Phase_5,30,9999,9999,9999,1090323540
120,10,23,Ticks_Phase_5,31,9999,9999,9999,1090823232
120,10,23,Ticks_Phase_5,32,9999,9999,9999,1091324016
120,10,23,Ticks_Phase_5,33,9999,9999,9999,1091823708
120,10,23,Ticks_Phase_5,34,9999,9999,9999,1092323392
120,10,23,Ticks_Phase_5,35,9999,9999,9999,1092823156
120,10,23,Ticks_Phase_5,36,9999,9999,9999,1093323892
120,10,23,Ticks_Phase_5,37,9999,9999,9999,1093823584
120,10,23,Ticks_Phase_5,38,9999,9999,9999,1094323276
120,10,23,Ticks_Phase_5,39,9999,9999,9999,1094824008
120,10,23,Ticks_Phase_5,40,9999,9999,9999,1095323772
120,10,23,Ticks_Phase_5,41,9999,9999,9999,1095823456
120,10,23,Ticks_Phase_5,42,9999,9999,9999,1096323144
120,10,23,Ticks_Phase_5,43,9999,9999,9999,1096823876
120,10,23,Ticks_Phase_5,44,9999,9999,9999,1097323640
120,10,23,Ticks_Phase_5,45,9999,9999,9999,1097823328
120,10,23,Ticks_Phase_5,46,9999,9999,9999,1098324064
120,10,23,Ticks_Phase_5,47,9999,9999,9999,1098823752
120,10,23,Ticks_Phase_5,48,9999,9999,9999,1099333700
120,10,23,Ticks_Phase_5,49,9999,9999,9999,1099833464
120,10,23,Ticks_Phase_5,50,9999,9999,9999,1100333152
120,10,23,Ticks_Phase_5,51,9999,9999,9999,1100833888
120,10,23,Ticks_Phase_5,52,9999,9999,9999,1101333576
120,10,23,Ticks_Phase_5,53,9999,9999,9999,1101833340
120,10,23,Ticks_Phase_5,54,9999,9999,9999,1102334048
120,10,23,Ticks_Phase_5,55,9999,9999,9999,1102833736
120,10,23,Ticks_Phase_5,56,9999,9999,9999,1103333500
120,10,23,Ticks_Phase_5,57,9999,9999,9999,1103833188
120,10,23,Ticks_Phase_5,58,9999,9999,9999,1104333924
120,10,23,Ticks_Phase_5,59,9999,9999,9999,1104833672
120,10,23,Ticks_Phase_5,60,9999,9999,9999,1105333376
120,10,23,Ticks_Phase_5,61,9999,9999,9999,1105834108
120,10,23,Ticks_Phase_5,62,9999,9999,9999,1106333804
120,10,23,Ticks_Phase_5,63,9999,9999,9999,1106833484
120,10,23,Ticks_Phase_5,64,9999,9999,9999,1107353696
120,10,23,Ticks_Phase_5,65,9999,9999,9999,1107853384
120,10,23,Ticks_Phase_5,66,9999,9999,9999,1108353144
120,10,23,Ticks_Phase_5,67,9999,9999,9999,1108853880
120,10,23,Ticks_Phase_5,68,9999,9999,9999,1109353568
120,10,23,Ticks_Phase_5,69,9999,9999,9999,1109853256
120,10,23,Ticks_Phase_5,70,9999,9999,9999,1110353992
120,10,23,Ticks_Phase_5,71,9999,9999,9999,1110853752
120,10,23,Ticks_Phase_5,72,9999,9999,9999,1111353440
120,10,23,Ticks_Phase_5,73,9999,9999,9999,1111853136
120,10,23,Ticks_Phase_5,74,9999,9999,9999,1112353872
120,10,23,Ticks_Phase_5,75,9999,9999,9999,1112853560
120,10,23,Ticks_Phase_5,76,9999,9999,9999,1113353276
120,10,23,Ticks_Phase_5,77,9999,9999,9999,1113854048
120,10,23,Ticks_Phase_5,78,9999,9999,9999,1114353764
120,10,23,Ticks_Phase_5,79,9999,9999,9999,1114853452
120,10,23,Ticks_Phase_5,80,9999,9999,9999,1115353148
120,10,23,Ticks_Phase_5,81,9999,9999,9999,1115833432
120,10,23,Ticks_Phase_5,82,9999,9999,9999,1116333124
120,10,23,Ticks_Phase_5,83,9999,9999,9999,1116833856
120,10,23,Ticks_Phase_5,84,9999,9999,9999,1117333620
120,10,23,Ticks_Phase_5,85,9999,9999,9999,1117833308
120,10,23,Ticks_Phase_5,86,9999,9999,9999,1118334044
120,10,23,Ticks_Phase_5,87,9999,9999,9999,1118833732
120,10,23,Ticks_Phase_5,88,9999,9999,9999,1119333496
120,10,23,Ticks_Phase_5,89,9999,9999,9999,1119833184
120,10,23,Ticks_Phase_5,90,9999,9999,9999,1120333920
120,10,23,Ticks_Phase_5,91,9999,9999,9999,1120833608
120,10,23,Ticks_Phase_5,92,9999,9999,9999,1121333372
120,10,23,Ticks_Phase_5,93,9999,9999,9999,1121834104
120,10,23,Ticks_Phase_5,94,9999,9999,9999,1122333792
120,10,23,Ticks_Phase_5,95,9999,9999,9999,1122833480
120,10,23,Ticks_Phase_5,96,9999,9999,9999,1123333244
120,10,23,Ticks_Phase_5,97,9999,9999,9999,1123783784
120,10,23,Ticks_Phase_5,98,9999,9999,9999,1124283472
120,10,23,Ticks_Phase_5,99,9999,9999,9999,1124783232
120,10,23,Ticks_Phase_5,100,9999,9999,9999,1125283964
120,10,23,Ticks_Phase_5,101,9999,9999,9999,1125783656
120,10,23,Ticks_Phase_5,102,9999,9999,9999,1126283344
120,10,23,Ticks_Phase_5,103,9999,9999,9999,1126784076
120,10,23,Ticks_Phase_5,104,9999,9999,9999,1127294028
120,10,23,Ticks_Phase_5,105,9999,9999,9999,1127793788
120,10,23,Ticks_Phase_5,106,9999,9999,9999,1128293480
120,10,23,Ticks_Phase_5,107,9999,9999,9999,1128793168
120,10,23,Ticks_Phase_5,108,9999,9999,9999,1129293908
120,10,23,Ticks_Phase_5,109,9999,9999,9999,1129793604
120,10,23,Ticks_Phase_5,110,9999,9999,9999,1130293364
120,10,23,Ticks_Phase_5,111,9999,9999,9999,1130794096
120,10,23,Ticks_Phase_5,112,9999,9999,9999,1131293784
120,10,23,Ticks_Phase_5,113,9999,9999,9999,1131793472
120,10,23,Ticks_Phase_5,114,9999,9999,9999,1132343404
120,10,23,Ticks_Phase_5,115,9999,9999,9999,1132843092
120,10,23,Ticks_Phase_5,116,9999,9999,9999,1133343824
120,10,23,Ticks_Phase_5,117,9999,9999,9999,1133843516
120,10,23,Ticks_Phase_5,118,9999,9999,9999,1134343276
120,10,23,Ticks_Phase_5,119,9999,9999,9999,1134843988
120,10,23,Ticks_Phase_5,120,9999,9999,9999,1135343676
120,10,23,Ticks_Phase_5,121,9999,9999,9999,1135843436
120,10,23,Ticks_Phase_5,122,9999,9999,9999,1136343124
120,10,23,Ticks_Phase_5,123,9999,9999,9999,1136843860
120,10,23,Ticks_Phase_5,124,9999,9999,9999,1137343548
120,10,23,Ticks_Phase_5,125,9999,9999,9999,1137843308
120,10,23,Ticks_Phase_5,126,9999,9999,9999,1138344044
120,10,23,Ticks_Phase_5,127,9999,9999,9999,1138843732
120,10,23,Ticks_Phase_5,128,9999,9999,9999,1139343424
120,10,23,Ticks_Phase_5,129,9999,9999,9999,1139843188
120,10,23,Ticks_Phase_5,130,9999,9999,9999,1140343920
120,10,23,Ticks_Phase_5,131,9999,9999,9999,1140943944
120,10,23,Ticks_Phase_5,132,9999,9999,9999,1141443652
120,10,23,Ticks_Phase_5,133,9999,9999,9999,1141943416
120,10,23,Ticks_Phase_5,134,9999,9999,9999,1142443120
120,10,23,Ticks_Phase_5,135,9999,9999,9999,1142943852
120,10,23,Ticks_Phase_5,136,9999,9999,9999,1143443548
120,10,23,Ticks_Phase_5,137,9999,9999,9999,1143943240
120,10,23,Ticks_Phase_5,138,9999,9999,9999,1144443972
120,10,23,Ticks_Phase_5,139,9999,9999,9999,1144943736
120,10,23,Ticks_Phase_5,140,9999,9999,9999,1145443424
120,10,23,Ticks_Phase_5,141,9999,9999,9999,1145943104
120,10,23,Ticks_Phase_5,142,9999,9999,9999,1146443840
120,10,23,Ticks_Phase_5,143,9999,9999,9999,1146943604
120,10,23,Ticks_Phase_5,144,9999,9999,9999,1147443292
120,10,23,Ticks_Phase_5,145,9999,9999,9999,1147944028
120,10,23,Ticks_Phase_5,146,9999,9999,9999,1148443712
120,10,23,Ticks_Phase_5,147,9999,9999,9999,1148943476
120,10,23,Ticks_Phase_5,148,9999,9999,9999,1149443164
120,10,23,Ticks_Phase_5,149,9999,9999,9999,1149943872
120,10,23,Ticks_Phase_5,150,9999,9999,9999,1150343220
120,10,23,Ticks_Phase_5,151,9999,9999,9999,1150844028
120,10,23,Ticks_Phase_5,152,9999,9999,9999,1151343716
120,10,23,Ticks_Phase_5,153,9999,9999,9999,1151843400
120,10,23,Ticks_Phase_5,154,9999,9999,9999,1152343164
120,10,23,Ticks_Phase_5,155,9999,9999,9999,1152843900
120,10,23,Ticks_Phase_5,156,9999,9999,9999,1153343584
120,10,23,Ticks_Phase_5,157,9999,9999,9999,1153843276
120,10,23,Ticks_Phase_5,158,9999,9999,9999,1154344012
120,10,23,Ticks_Phase_5,159,9999,9999,9999,1154843772
120,10,23,Ticks_Phase_5,160,9999,9999,9999,1155343460
120,10,23,Ticks_Phase_5,161,9999,9999,9999,1155843148
120,10,23,Ticks_Phase_5,162,9999,9999,9999,1156343936
120,10,23,Ticks_Phase_5,163,9999,9999,9999,1156843624
120,10,23,Ticks_Phase_5,164,9999,9999,9999,1157343308
120,10,23,Ticks_Phase_5,165,9999,9999,9999,1157844044
120,10,23,Ticks_Phase_5,166,9999,9999,9999,1158343732
120,10,23,Ticks_Phase_5,167,9999,9999,9999,1158843496
120,10,23,Ticks_Phase_5,168,9999,9999,9999,1159343184
120,10,23,Ticks_Phase_5,169,9999,9999,9999,1159843924
120,11,25,Jits_Pract_5,0,5,56,103,1208883564
120,11,25,Jits_Pract_5,1,5,63,98,1208886588
120,11,25,Jits_Pract_5,2,5,80,127,1208889856
120,11,25,Jits_Pract_5,0,5,56,103,1209384556
120,11,25,Jits_Pract_5,1,5,63,98,1209387584
120,11,25,Jits_Pract_5,2,5,80,127,1209390628
120,11,25,Jits_Pract_5,0,5,56,103,1209883928
120,11,25,Jits_Pract_5,1,5,80,127,1209894496
120,11,25,Jits_Pract_5,2,5,63,98,1209913760
120,11,25,Jits_Pract_5,0,5,63,98,1210333452
120,11,25,Jits_Pract_5,1,5,80,127,1210364496
120,11,25,Jits_Pract_5,2,5,56,103,1210373424
120,11,25,Jits_Pract_5,0,5,80,127,1210893812
120,11,25,Jits_Pract_5,1,5,56,103,1210903860
120,11,25,Jits_Pract_5,2,5,63,98,1210933608
120,11,25,Jits_Pract_5,0,5,63,98,1211384392
120,11,25,Jits_Pract_5,1,5,56,103,1211413872
120,11,25,Jits_Pract_5,2,5,80,127,1211424288
120,11,25,Jits_Pract_5,0,5,56,103,1211833708
120,11,25,Jits_Pract_5,1,5,63,98,1211883836
120,11,25,Jits_Pract_5,2,5,80,127,1211904320
120,11,25,Jits_Pract_5,0,5,80,127,1212333376
120,11,25,Jits_Pract_5,1,5,63,98,1212383504
120,11,25,Jits_Pract_5,2,5,56,103,1212423612
120,11,25,Jits_Pract_5,0,5,56,103,1212834392
120,11,25,Jits_Pract_5,1,5,63,98,1212863844
120,11,25,Jits_Pract_5,2,5,80,127,1212933548
120,11,25,Jits_Pract_5,0,5,56,103,1213333832
120,11,25,Jits_Pract_5,1,5,80,127,1213394524
120,11,25,Jits_Pract_5,2,5,63,98,1213424052
120,11,25,Jits_Pract_5,0,5,56,103,1213843696
120,11,25,Jits_Pract_5,1,5,63,98,1213854260
120,11,25,Jits_Pract_5,2,5,80,127,1213893900
120,11,25,Jits_Pract_5,0,5,63,98,1214334516
120,11,25,Jits_Pract_5,1,5,80,127,1214414312
120,11,25,Jits_Pract_5,2,5,56,103,1214424288
120,11,25,Jits_Pract_5,0,5,63,98,1214884372
120,11,25,Jits_Pract_5,1,5,56,103,1214924236
120,11,25,Jits_Pract_5,2,5,80,127,1214927304
120,11,25,Jits_Pract_5,0,5,56,103,1215343868
120,11,25,Jits_Pract_5,1,5,63,98,1215354360
120,11,25,Jits_Pract_5,2,5,80,127,1215394520
120,11,25,Jits_Pract_5,0,5,56,103,1215833492
120,11,25,Jits_Pract_5,1,5,63,98,1215836484
120,11,25,Jits_Pract_5,2,5,80,127,1215853952
120,11,25,Jits_Pract_5,0,9999,9999,9999,1209131072
120,11,25,Jits_Pract_5,1,9999,9999,9999,1209631844
120,11,25,Jits_Pract_5,2,9999,9999,9999,1210131516
120,11,25,Jits_Pract_5,3,9999,9999,9999,1210631256
120,11,25,Jits_Pract_5,4,9999,9999,9999,1211131964
120,11,25,Jits_Pract_5,5,9999,9999,9999,1211631684
120,11,25,Jits_Pract_5,6,9999,9999,9999,1212131416
120,11,25,Jits_Pract_5,7,9999,9999,9999,1212631160
120,11,25,Jits_Pract_5,8,9999,9999,9999,1213131876
120,11,25,Jits_Pract_5,9,9999,9999,9999,1213631544
120,11,25,Jits_Pract_5,10,9999,9999,9999,1214131284
120,11,25,Jits_Pract_5,11,9999,9999,9999,1214632004
120,11,25,Jits_Pract_5,12,9999,9999,9999,1215131732
120,11,25,Jits_Pract_5,13,9999,9999,9999,1215631456
120,11,25,Jits_Pract_5,14,9999,9999,9999,1216131188
120,12,24,Jits_Pract_8,0,5,56,103,1284146528
120,12,24,Jits_Pract_8,1,5,63,98,1284149696
120,12,24,Jits_Pract_8,2,5,80,127,1284152744
120,12,24,Jits_Pract_8,0,5,56,103,1284947288
120,12,24,Jits_Pract_8,1,5,63,98,1284950384
120,12,24,Jits_Pract_8,2,5,80,127,1284953436
120,12,24,Jits_Pract_8,0,5,80,127,1285686632
120,12,24,Jits_Pract_8,1,5,63,98,1285776692
120,12,24,Jits_Pract_8,2,5,56,103,1285787260
120,12,24,Jits_Pract_8,0,5,56,103,1286506968
120,12,24,Jits_Pract_8,1,5,63,98,1286517092
120,12,24,Jits_Pract_8,2,5,80,127,1286607292
120,12,24,Jits_Pract_8,0,5,63,98,1287277176
120,12,24,Jits_Pract_8,1,5,80,127,1287306556
120,12,24,Jits_Pract_8,2,5,56,103,1287337352
120,12,24,Jits_Pract_8,0,5,56,103,1288076596
120,12,24,Jits_Pract_8,1,5,80,127,1288176992
120,12,24,Jits_Pract_8,2,5,63,98,1288227292
120,12,24,Jits_Pract_8,0,5,56,103,1288877380
120,12,24,Jits_Pract_8,1,5,80,127,1288926608
120,12,24,Jits_Pract_8,2,5,63,98,1288966644
120,12,24,Jits_Pract_8,0,5,80,127,1289706852
120,12,24,Jits_Pract_8,1,5,63,98,1289736628
120,12,24,Jits_Pract_8,2,5,56,103,1289807356
120,12,24,Jits_Pract_8,0,5,63,98,1290537332
120,12,24,Jits_Pract_8,1,1,48,47,1290564812
120,12,24,Jits_Pract_8,2,5,56,103,1290567000
120,12,24,Jits_Pract_8,3,5,80,127,1290626416
120,12,24,Jits_Pract_8,0,5,56,103,1291276548
120,12,24,Jits_Pract_8,1,5,80,127,1291279544
120,12,24,Jits_Pract_8,2,1,48,64,1291327244
120,12,24,Jits_Pract_8,3,5,63,98,1291396344
120,12,24,Jits_Pract_8,0,1,48,63,1292090956
120,12,24,Jits_Pract_8,1,5,56,103,1292157440
120,12,24,Jits_Pract_8,2,5,80,127,1292197364
120,12,24,Jits_Pract_8,3,5,63,98,1292206516
120,12,24,Jits_Pract_8,0,1,48,58,1292895300
120,12,24,Jits_Pract_8,1,5,56,103,1292917268
120,12,24,Jits_Pract_8,2,5,80,127,1292936460
120,12,24,Jits_Pract_8,3,5,63,98,1293016308
120,12,24,Jits_Pract_8,0,5,80,127,1293706544
120,12,24,Jits_Pract_8,1,1,48,64,1293725252
120,12,24,Jits_Pract_8,2,5,56,103,1293807236
120,12,24,Jits_Pract_8,3,5,63,98,1293817156
120,12,24,Jits_Pract_8,0,5,63,98,1294476800
120,12,24,Jits_Pract_8,1,5,80,127,1294537040
120,12,24,Jits_Pract_8,2,5,56,103,1294547312
120,12,24,Jits_Pract_8,3,1,48,58,1294562412
120,12,24,Jits_Pract_8,0,5,56,103,1295277520
120,12,24,Jits_Pract_8,1,1,48,61,1295281764
120,12,24,Jits_Pract_8,2,5,63,98,1295347196
120,12,24,Jits_Pract_8,3,5,80,127,1295350488
120,12,24,Jits_Pract_8,0,9999,9999,9999,1284544608
120,12,24,Jits_Pract_8,1,9999,9999,9999,1285344324
120,12,24,Jits_Pract_8,2,9999,9999,9999,1286144080
120,12,24,Jits_Pract_8,3,9999,9999,9999,1286944860
120,12,24,Jits_Pract_8,4,9999,9999,9999,1287744584
120,12,24,Jits_Pract_8,5,9999,9999,9999,1288544308
120,12,24,Jits_Pract_8,6,9999,9999,9999,1289344112
120,12,24,Jits_Pract_8,7,9999,9999,9999,1290144820
120,12,24,Jits_Pract_8,8,9999,9999,9999,1290944612
120,12,24,Jits_Pract_8,9,9999,9999,9999,1291744352
120,12,24,Jits_Pract_8,10,9999,9999,9999,1292544080
120,12,24,Jits_Pract_8,11,9999,9999,9999,1293344884
120,12,24,Jits_Pract_8,12,9999,9999,9999,1294144568
120,12,24,Jits_Pract_8,13,9999,9999,9999,1294944336
120,12,24,Jits_Pract_8,14,9999,9999,9999,1295744076
120,13,25,Jits_Pract_5,0,5,56,103,1309554924
120,13,25,Jits_Pract_5,1,5,63,98,1309558028
120,13,25,Jits_Pract_5,2,5,80,127,1309561224
120,13,25,Jits_Pract_5,0,5,56,103,1310054804
120,13,25,Jits_Pract_5,1,5,63,98,1310057828
120,13,25,Jits_Pract_5,2,5,80,127,1310060952
120,13,25,Jits_Pract_5,0,5,56,103,1310554476
120,13,25,Jits_Pract_5,1,5,80,127,1310564896
120,13,25,Jits_Pract_5,2,5,63,98,1310585056
120,13,25,Jits_Pract_5,0,5,63,98,1311005072
120,13,25,Jits_Pract_5,1,5,80,127,1311034972
120,13,25,Jits_Pract_5,2,5,56,103,1311044944
120,13,25,Jits_Pract_5,0,1,48,64,1311523648
120,13,25,Jits_Pract_5,1,5,80,127,1311565028
120,13,25,Jits_Pract_5,2,5,56,103,1311575448
120,13,25,Jits_Pract_5,3,5,63,98,1311605124
120,13,25,Jits_Pract_5,0,1,48,64,1312040488
120,13,25,Jits_Pract_5,1,5,63,98,1312054756
120,13,25,Jits_Pract_5,2,5,56,103,1312085256
120,13,25,Jits_Pract_5,3,5,80,127,1312094776
120,13,25,Jits_Pract_5,0,5,56,103,1312505228
120,13,25,Jits_Pract_5,1,1,48,76,1312542352
120,13,25,Jits_Pract_5,2,5,63,98,1312555352
120,13,25,Jits_Pract_5,3,5,80,127,1312574912
120,13,25,Jits_Pract_5,0,5,80,127,1313004832
120,13,25,Jits_Pract_5,1,1,48,75,1313022652
120,13,25,Jits_Pract_5,2,5,63,98,1313055052
120,13,25,Jits_Pract_5,3,5,56,103,1313095064
120,13,25,Jits_Pract_5,0,5,56,103,1313504760
120,13,25,Jits_Pract_5,1,5,63,98,1313535284
120,13,25,Jits_Pract_5,2,1,48,74,1313555412
120,13,25,Jits_Pract_5,3,5,80,127,1313605108
120,13,25,Jits_Pract_5,0,5,56,103,1314005436
120,13,25,Jits_Pract_5,1,1,48,76,1314021440
120,13,25,Jits_Pract_5,2,5,80,127,1314064876
120,13,25,Jits_Pract_5,3,5,63,98,1314094772
120,13,25,Jits_Pract_5,0,5,56,103,1314515184
120,13,25,Jits_Pract_5,1,1,48,72,1314522892
120,13,25,Jits_Pract_5,2,5,63,98,1314524624
120,13,25,Jits_Pract_5,3,5,80,127,1314564436
120,13,25,Jits_Pract_5,0,5,63,98,1315004688
120,13,25,Jits_Pract_5,1,1,48,70,1315008180
120,13,25,Jits_Pract_5,2,5,80,127,1315084880
120,13,25,Jits_Pract_5,3,5,56,103,1315094924
120,13,25,Jits_Pract_5,0,5,63,98,1315554656
120,13,25,Jits_Pract_5,1,1,48,58,1315558820
120,13,25,Jits_Pract_5,2,5,56,103,1315594760
120,13,25,Jits_Pract_5,3,5,80,127,1315597828
120,13,25,Jits_Pract_5,0,5,56,103,1316014556
120,13,25,Jits_Pract_5,1,5,63,98,1316024900
120,13,25,Jits_Pract_5,2,1,48,68,1316056640
120,13,25,Jits_Pract_5,3,5,80,127,1316064684
120,13,25,Jits_Pract_5,0,1,48,67,1316504812
120,13,25,Jits_Pract_5,1,5,56,103,1316506396
120,13,25,Jits_Pract_5,2,5,63,98,1316508924
120,13,25,Jits_Pract_5,3,5,80,127,1316525564
120,13,25,Jits_Pract_5,0,9999,9999,9999,1309802592
120,13,25,Jits_Pract_5,1,9999,9999,9999,1310302316
120,13,25,Jits_Pract_5,2,9999,9999,9999,1310803036
120,13,25,Jits_Pract_5,3,9999,9999,9999,1311302708
120,13,25,Jits_Pract_5,4,9999,9999,9999,1311802492
120,13,25,Jits_Pract_5,5,9999,9999,9999,1312302184
120,13,25,Jits_Pract_5,6,9999,9999,9999,1312802916
120,13,25,Jits_Pract_5,7,9999,9999,9999,1313302620
120,13,25,Jits_Pract_5,8,9999,9999,9999,1313802324
120,13,25,Jits_Pract_5,9,9999,9999,9999,1314303080
120,13,25,Jits_Pract_5,10,9999,9999,9999,1314802752
120,13,25,Jits_Pract_5,11,9999,9999,9999,1315302456
120,13,25,Jits_Pract_5,12,9999,9999,9999,1315802216
120,13,25,Jits_Pract_5,13,9999,9999,9999,1316302952
120,13,25,Jits_Pract_5,14,9999,9999,9999,1316802644
120,14,7,Jits_ISO_8,0,5,56,103,1347035484
120,14,7,Jits_ISO_8,1,5,63,98,1347038580
120,14,7,Jits_ISO_8,2,5,80,127,1347041700
120,14,7,Jits_ISO_8,0,5,56,103,1347836256
120,14,7,Jits_ISO_8,1,5,63,98,1347839352
120,14,7,Jits_ISO_8,2,5,80,127,1347842548
120,14,7,Jits_ISO_8,0,5,80,127,1348575556
120,14,7,Jits_ISO_8,1,5,63,98,1348665568
120,14,7,Jits_ISO_8,2,5,56,103,1348676136
120,14,7,Jits_ISO_8,0,5,56,103,1349395756
120,14,7,Jits_ISO_8,1,5,63,98,1349406028
120,14,7,Jits_ISO_8,2,5,80,127,1349496232
120,14,7,Jits_ISO_8,0,5,63,98,1350166024
120,14,7,Jits_ISO_8,1,5,80,127,1350195552
120,14,7,Jits_ISO_8,2,5,56,103,1350226352
120,14,7,Jits_ISO_8,3,1,48,54,1350236888
120,14,7,Jits_ISO_8,0,5,56,103,1350965580
120,14,7,Jits_ISO_8,1,1,48,72,1350996720
120,14,7,Jits_ISO_8,2,5,80,127,1351066272
120,14,7,Jits_ISO_8,3,5,63,98,1351116084
120,14,7,Jits_ISO_8,0,5,56,103,1351766352
120,14,7,Jits_ISO_8,1,5,80,127,1351815584
120,14,7,Jits_ISO_8,2,1,48,70,1351821472
120,14,7,Jits_ISO_8,3,5,63,98,1351855516
120,14,7,Jits_ISO_8,0,1,48,65,1352588736
120,14,7,Jits_ISO_8,1,5,80,127,1352595956
120,14,7,Jits_ISO_8,2,5,63,98,1352625484
120,14,7,Jits_ISO_8,3,5,56,103,1352696148
120,14,7,Jits_ISO_8,0,1,48,65,1353401776
120,14,7,Jits_ISO_8,1,5,63,98,1353426236
120,14,7,Jits_ISO_8,2,5,56,103,1353456208
120,14,7,Jits_ISO_8,3,5,80,127,1353516312
120,14,7,Jits_ISO_8,0,5,56,103,1354165636
120,14,7,Jits_ISO_8,1,5,80,127,1354168776
120,14,7,Jits_ISO_8,2,1,48,73,1354224052
120,14,7,Jits_ISO_8,3,5,63,98,1354285380
120,14,7,Jits_ISO_8,0,1,48,78,1354995436
120,14,7,Jits_ISO_8,1,5,56,103,1355046284
120,14,7,Jits_ISO_8,2,5,80,127,1355086148
120,14,7,Jits_ISO_8,3,5,63,98,1355096480
120,14,7,Jits_ISO_8,0,5,56,103,1355805996
120,14,7,Jits_ISO_8,1,1,48,76,1355813376
120,14,7,Jits_ISO_8,2,5,80,127,1355825480
120,14,7,Jits_ISO_8,3,5,63,98,1355906468
120,14,7,Jits_ISO_8,0,5,80,127,1356595532
120,14,7,Jits_ISO_8,1,1,48,79,1356653480
120,14,7,Jits_ISO_8,2,5,56,103,1356696296
120,14,7,Jits_ISO_8,3,5,63,98,1356706196
120,14,7,Jits_ISO_8,0,5,63,98,1357365812
120,14,7,Jits_ISO_8,1,5,80,127,1357425980
120,14,7,Jits_ISO_8,2,5,56,103,1357436176
120,14,7,Jits_ISO_8,3,1,48,76,1357466644
120,14,7,Jits_ISO_8,0,5,56,103,1358166264
120,14,7,Jits_ISO_8,1,1,48,77,1358183552
120,14,7,Jits_ISO_8,2,5,63,98,1358236160
120,14,7,Jits_ISO_8,3,5,80,127,1358239376
120,14,7,Jits_ISO_8,0,1,48,76,1358958972
120,14,7,Jits_ISO_8,1,5,63,98,1358995936
120,14,7,Jits_ISO_8,2,5,56,103,1359046140
120,14,7,Jits_ISO_8,3,5,80,127,1359049056
120,14,7,Jits_ISO_8,0,5,56,103,1359755780
120,14,7,Jits_ISO_8,1,5,80,127,1359758624
120,14,7,Jits_ISO_8,2,1,48,83,1359766392
120,14,7,Jits_ISO_8,3,5,63,98,1359845612
120,14,7,Jits_ISO_8,0,1,48,74,1360539796
120,14,7,Jits_ISO_8,1,5,63,98,1360596316
120,14,7,Jits_ISO_8,2,5,56,103,1360685492
120,14,7,Jits_ISO_8,3,5,80,127,1360716140
120,14,7,Jits_ISO_8,0,5,56,103,1361385844
120,14,7,Jits_ISO_8,1,1,48,78,1361409664
120,14,7,Jits_ISO_8,2,5,63,98,1361486264
120,14,7,Jits_ISO_8,3,5,80,127,1361516148
120,14,7,Jits_ISO_8,0,5,63,98,1362206052
120,14,7,Jits_ISO_8,1,1,48,73,1362215796
120,14,7,Jits_ISO_8,2,5,56,103,1362217364
120,14,7,Jits_ISO_8,3,5,80,127,1362306376
120,14,7,Jits_ISO_8,0,1,48,68,1363012984
120,14,7,Jits_ISO_8,1,5,63,98,1363026284
120,14,7,Jits_ISO_8,2,5,56,103,1363106212
120,14,7,Jits_ISO_8,3,5,80,127,1363109356
120,14,7,Jits_ISO_8,0,5,80,127,1363786060
120,14,7,Jits_ISO_8,1,5,63,98,1363805624
120,14,7,Jits_ISO_8,2,1,48,64,1363813004
120,14,7,Jits_ISO_8,3,5,56,103,1363866080
120,14,7,Jits_ISO_8,0,1,48,75,1364573916
120,14,7,Jits_ISO_8,1,5,56,103,1364625860
120,14,7,Jits_ISO_8,2,5,63,98,1364646244
120,14,7,Jits_ISO_8,3,5,80,127,1364649680
120,14,7,Jits_ISO_8,0,5,63,98,1365366000
120,14,7,Jits_ISO_8,1,1,48,62,1365370092
120,14,7,Jits_ISO_8,2,5,80,127,1365445868
120,14,7,Jits_ISO_8,3,5,56,103,1365456284
120,14,7,Jits_ISO_8,0,1,48,67,1366141684
120,14,7,Jits_ISO_8,1,5,63,98,1366186300
120,14,7,Jits_ISO_8,2,5,56,103,1366205936
120,14,7,Jits_ISO_8,3,5,80,127,1366255900
120,14,7,Jits_ISO_8,0,1,48,70,1366917500
120,14,7,Jits_ISO_8,1,5,80,127,1366986080
120,14,7,Jits_ISO_8,2,5,63,98,1367026004
120,14,7,Jits_ISO_8,3,5,56,103,1367045516
120,14,7,Jits_ISO_8,0,1,48,67,1367734740
120,14,7,Jits_ISO_8,1,5,56,103,1367825952
120,14,7,Jits_ISO_8,2,5,63,98,1367836000
120,14,7,Jits_ISO_8,3,5,80,127,1367855340
120,14,7,Jits_ISO_8,0,5,56,103,1368555828
120,14,7,Jits_ISO_8,1,1,48,59,1368573868
120,14,7,Jits_ISO_8,2,5,63,98,1368645908
120,14,7,Jits_ISO_8,3,5,80,127,1368706436
120,14,7,Jits_ISO_8,0,1,48,57,1369371724
120,14,7,Jits_ISO_8,1,5,80,127,1369386364
120,14,7,Jits_ISO_8,2,5,56,103,1369395588
120,14,7,Jits_ISO_8,3,5,63,98,1369466092
120,14,7,Jits_ISO_8,0,1,48,64,1370188216
120,14,7,Jits_ISO_8,1,5,63,98,1370215892
120,14,7,Jits_ISO_8,2,5,80,127,1370305940
120,14,7,Jits_ISO_8,3,5,56,103,1370316136
120,14,7,Jits_ISO_8,0,5,63,98,1370956196
120,14,7,Jits_ISO_8,1,1,48,73,1370994988
120,14,7,Jits_ISO_8,2,5,80,127,1371006248
120,14,7,Jits_ISO_8,3,5,56,103,1371065888
120,14,7,Jits_ISO_8,0,1,48,70,1371779840
120,14,7,Jits_ISO_8,1,5,56,103,1371785864
120,14,7,Jits_ISO_8,2,5,80,127,1371835696
120,14,7,Jits_ISO_8,3,5,63,98,1371856232
120,14,7,Jits_ISO_8,0,5,56,103,1372555612
120,14,7,Jits_ISO_8,1,1,48,61,1372587800
120,14,7,Jits_ISO_8,2,5,80,127,1372616000
120,14,7,Jits_ISO_8,3,5,63,98,1372686812
120,14,7,Jits_ISO_8,0,5,56,103,1373356456
120,14,7,Jits_ISO_8,1,1,48,66,1373363332
120,14,7,Jits_ISO_8,2,5,80,127,1373386048
120,14,7,Jits_ISO_8,3,5,63,98,1373415948
120,14,7,Jits_ISO_8,0,1,48,65,1374102108
120,14,7,Jits_ISO_8,1,5,56,103,1374195972
120,14,7,Jits_ISO_8,2,5,80,127,1374215596
120,14,7,Jits_ISO_8,3,5,63,98,1374275912
120,14,7,Jits_ISO_8,0,1,48,67,1374998276
120,14,7,Jits_ISO_8,1,5,80,127,1375075776
120,14,7,Jits_ISO_8,2,5,56,103,1375085972
120,14,7,Jits_ISO_8,3,5,63,98,1375096152
120,14,7,Jits_ISO_8,0,1,48,58,1375833296
120,14,7,Jits_ISO_8,1,5,56,103,1375835560
120,14,7,Jits_ISO_8,2,5,80,127,1375875352
120,14,7,Jits_ISO_8,3,5,63,98,1375906148
120,14,7,Jits_ISO_8,0,5,56,103,1376605760
120,14,7,Jits_ISO_8,1,1,48,59,1376606876
120,14,7,Jits_ISO_8,2,5,63,98,1376636256
120,14,7,Jits_ISO_8,3,5,80,127,1376676120
120,14,7,Jits_ISO_8,0,5,80,127,1377356108
120,14,7,Jits_ISO_8,1,1,48,61,1377359228
120,14,7,Jits_ISO_8,2,5,63,98,1377406232
120,14,7,Jits_ISO_8,3,5,56,103,1377425868
120,14,7,Jits_ISO_8,0,1,48,67,1378157140
120,14,7,Jits_ISO_8,1,5,56,103,1378185784
120,14,7,Jits_ISO_8,2,5,80,127,1378256132
120,14,7,Jits_ISO_8,3,5,63,98,1378315576
120,14,7,Jits_ISO_8,0,5,80,127,1378986328
120,14,7,Jits_ISO_8,1,1,48,67,1379000684
120,14,7,Jits_ISO_8,2,5,63,98,1379075588
120,14,7,Jits_ISO_8,3,5,56,103,1379095820
120,14,7,Jits_ISO_8,0,1,48,63,1379803716
120,14,7,Jits_ISO_8,1,5,63,98,1379805676
120,14,7,Jits_ISO_8,2,5,56,103,1379825988
120,14,7,Jits_ISO_8,3,5,80,127,1379865880
120,14,7,Jits_ISO_8,0,5,80,127,1380566504
120,14,7,Jits_ISO_8,1,1,48,50,1380572764
120,14,7,Jits_ISO_8,2,5,63,98,1380585912
120,14,7,Jits_ISO_8,3,5,56,103,1380665644
120,14,7,Jits_ISO_8,0,5,63,98,1381355960
120,14,7,Jits_ISO_8,1,1,48,61,1381376788
120,14,7,Jits_ISO_8,2,5,56,103,1381465520
120,14,7,Jits_ISO_8,3,5,80,127,1381468512
120,14,7,Jits_ISO_8,0,1,48,55,1382147708
120,14,7,Jits_ISO_8,1,5,63,98,1382176128
120,14,7,Jits_ISO_8,2,5,56,103,1382186628
120,14,7,Jits_ISO_8,3,5,80,127,1382189616
120,14,7,Jits_ISO_8,0,1,48,61,1382911572
120,14,7,Jits_ISO_8,1,5,56,103,1382956712
120,14,7,Jits_ISO_8,2,5,80,127,1383076352
120,14,7,Jits_ISO_8,3,5,63,98,1383116068
120,14,7,Jits_ISO_8,0,5,56,103,1383775684
120,14,7,Jits_ISO_8,1,1,48,57,1383778280
120,14,7,Jits_ISO_8,2,5,80,127,1383855628
120,14,7,Jits_ISO_8,3,5,63,98,1383875924
120,14,7,Jits_ISO_8,0,1,48,59,1384569904
120,14,7,Jits_ISO_8,1,5,56,103,1384576600
120,14,7,Jits_ISO_8,2,5,63,98,1384685976
120,14,7,Jits_ISO_8,3,5,80,127,1384689268
120,14,7,Jits_ISO_8,0,1,48,62,1385397856
120,14,7,Jits_ISO_8,1,5,56,103,1385405824
120,14,7,Jits_ISO_8,2,5,80,127,1385435724
120,14,7,Jits_ISO_8,3,5,63,98,1385455960
120,14,7,Jits_ISO_8,0,1,48,55,1386185532
120,14,7,Jits_ISO_8,1,5,63,98,1386187024
120,14,7,Jits_ISO_8,2,5,56,103,1386196544
120,14,7,Jits_ISO_8,3,5,80,127,1386205692
120,14,7,Jits_ISO_8,0,1,48,62,1386927736
120,14,7,Jits_ISO_8,1,5,80,127,1386975564
120,14,7,Jits_ISO_8,2,5,56,103,1387025720
120,14,7,Jits_ISO_8,3,5,63,98,1387065644
120,14,7,Jits_ISO_8,0,1,48,58,1387780056
120,14,7,Jits_ISO_8,1,5,80,127,1387795824
120,14,7,Jits_ISO_8,2,5,63,98,1387816436
120,14,7,Jits_ISO_8,3,5,56,103,1387865440
120,14,7,Jits_ISO_8,0,1,48,57,1388593268
120,14,7,Jits_ISO_8,1,5,80,127,1388605868
120,14,7,Jits_ISO_8,2,5,56,103,1388635620
120,14,7,Jits_ISO_8,3,5,63,98,1388706112
120,14,7,Jits_ISO_8,0,1,48,62,1389421500
120,14,7,Jits_ISO_8,1,5,56,103,1389455852
120,14,7,Jits_ISO_8,2,5,80,127,1389466048
120,14,7,Jits_ISO_8,3,5,63,98,1389505984
120,14,7,Jits_ISO_8,0,5,56,103,1390166632
120,14,7,Jits_ISO_8,1,5,63,98,1390185820
120,14,7,Jits_ISO_8,2,1,48,60,1390214868
120,14,7,Jits_ISO_8,3,5,80,127,1390255644
120,14,7,Jits_ISO_8,0,1,48,69,1390953500
120,14,7,Jits_ISO_8,1,5,63,98,1390985456
120,14,7,Jits_ISO_8,2,5,80,127,1391045996
120,14,7,Jits_ISO_8,3,5,56,103,1391065616
120,14,7,Jits_ISO_8,0,1,48,70,1391766556
120,14,7,Jits_ISO_8,1,5,80,127,1391776244
120,14,7,Jits_ISO_8,2,5,56,103,1391805772
120,14,7,Jits_ISO_8,3,5,63,98,1391835524
120,14,7,Jits_ISO_8,0,1,48,58,1392567280
120,14,7,Jits_ISO_8,1,5,56,103,1392575852
120,14,7,Jits_ISO_8,2,5,63,98,1392636492
120,14,7,Jits_ISO_8,3,5,80,127,1392695672
120,14,7,Jits_ISO_8,0,1,48,61,1393381524
120,14,7,Jits_ISO_8,1,5,80,127,1393395968
120,14,7,Jits_ISO_8,2,5,56,103,1393415456
120,14,7,Jits_ISO_8,3,5,63,98,1393486316
120,14,7,Jits_ISO_8,0,5,80,127,1394195756
120,14,7,Jits_ISO_8,1,5,63,98,1394216516
120,14,7,Jits_ISO_8,2,1,48,61,1394220608
120,14,7,Jits_ISO_8,3,5,56,103,1394245960
120,14,7,Jits_ISO_8,0,1,48,64,1394971912
120,14,7,Jits_ISO_8,1,5,80,127,1394986552
120,14,7,Jits_ISO_8,2,5,63,98,1395005892
120,14,7,Jits_ISO_8,3,5,56,103,1395066488
120,14,7,Jits_ISO_8,0,5,80,127,1395786036
120,14,7,Jits_ISO_8,1,1,48,63,1395800764
120,14,7,Jits_ISO_8,2,5,56,103,1395885608
120,14,7,Jits_ISO_8,3,5,63,98,1395916016
120,14,7,Jits_ISO_8,0,5,63,98,1396575648
120,14,7,Jits_ISO_8,1,1,48,62,1396622212
120,14,7,Jits_ISO_8,2,5,80,127,1396625920
120,14,7,Jits_ISO_8,3,5,56,103,1396646380
120,14,7,Jits_ISO_8,0,5,80,127,1397416636
120,14,7,Jits_ISO_8,1,1,48,64,1397419828
120,14,7,Jits_ISO_8,2,5,56,103,1397445932
120,14,7,Jits_ISO_8,3,5,63,98,1397449000
120,14,7,Jits_ISO_8,0,1,48,63,1398225168
120,14,7,Jits_ISO_8,1,5,63,98,1398245792
120,14,7,Jits_ISO_8,2,5,56,103,1398285760
120,14,7,Jits_ISO_8,3,5,80,127,1398306440
120,14,7,Jits_ISO_8,0,5,80,127,1398986100
120,14,7,Jits_ISO_8,1,1,48,59,1399037052
120,14,7,Jits_ISO_8,2,5,63,98,1399065844
120,14,7,Jits_ISO_8,3,5,56,103,1399106004
120,14,7,Jits_ISO_8,0,5,63,98,1399806528
120,14,7,Jits_ISO_8,1,1,48,62,1399843656
120,14,7,Jits_ISO_8,2,5,80,127,1399886172
120,14,7,Jits_ISO_8,3,5,56,103,1399905736
120,14,7,Jits_ISO_8,0,1,48,58,1400585316
120,14,7,Jits_ISO_8,1,5,56,103,1400645952
120,14,7,Jits_ISO_8,2,5,63,98,1400656372
120,14,7,Jits_ISO_8,3,5,80,127,1400696292
120,14,7,Jits_ISO_8,0,1,48,57,1401353168
120,14,7,Jits_ISO_8,1,5,56,103,1401365868
120,14,7,Jits_ISO_8,2,5,80,127,1401368860
120,14,7,Jits_ISO_8,3,5,63,98,1401506104
120,14,7,Jits_ISO_8,0,1,48,61,1402153160
120,14,7,Jits_ISO_8,1,5,56,103,1402156340
120,14,7,Jits_ISO_8,2,5,63,98,1402245432
120,14,7,Jits_ISO_8,3,5,80,127,1402316292
120,14,7,Jits_ISO_8,0,1,48,57,1402950176
120,14,7,Jits_ISO_8,1,5,63,98,1403035912
120,14,7,Jits_ISO_8,2,5,80,127,1403039284
120,14,7,Jits_ISO_8,3,5,56,103,1403096444
120,14,7,Jits_ISO_8,0,1,48,59,1403759392
120,14,7,Jits_ISO_8,1,5,80,127,1403875620
120,14,7,Jits_ISO_8,2,5,56,103,1403896324
120,14,7,Jits_ISO_8,3,5,63,98,1403906372
120,14,7,Jits_ISO_8,0,5,56,103,1404586268
120,14,7,Jits_ISO_8,1,5,63,98,1404595716
120,14,7,Jits_ISO_8,2,1,48,54,1404611488
120,14,7,Jits_ISO_8,3,5,80,127,1404666388
120,14,7,Jits_ISO_8,0,1,48,55,1405369844
120,14,7,Jits_ISO_8,1,5,80,127,1405386208
120,14,7,Jits_ISO_8,2,5,56,103,1405436436
120,14,7,Jits_ISO_8,3,5,63,98,1405485352
120,14,7,Jits_ISO_8,0,1,48,51,1406166560
120,14,7,Jits_ISO_8,1,5,56,103,1406265644
120,14,7,Jits_ISO_8,2,5,63,98,1406276064
120,14,7,Jits_ISO_8,3,5,80,127,1406315856
120,14,7,Jits_ISO_8,0,1,48,57,1407000380
120,14,7,Jits_ISO_8,1,5,56,103,1407006332
120,14,7,Jits_ISO_8,2,5,63,98,1407046272
120,14,7,Jits_ISO_8,3,5,80,127,1407096236
120,14,7,Jits_ISO_8,0,5,80,127,1407765744
120,14,7,Jits_ISO_8,1,1,48,53,1407774488
120,14,7,Jits_ISO_8,2,5,56,103,1407816240
120,14,7,Jits_ISO_8,3,5,63,98,1407835504
120,14,7,Jits_ISO_8,0,1,48,54,1408520392
120,14,7,Jits_ISO_8,1,5,80,127,1408575792
120,14,7,Jits_ISO_8,2,5,63,98,1408636320
120,14,7,Jits_ISO_8,3,5,56,103,1408716336
120,14,7,Jits_ISO_8,0,5,80,127,1409356248
120,14,7,Jits_ISO_8,1,1,48,53,1409390232
120,14,7,Jits_ISO_8,2,5,56,103,1409396184
120,14,7,Jits_ISO_8,3,5,63,98,1409415596
120,14,7,Jits_ISO_8,0,1,48,55,1410167320
120,14,7,Jits_ISO_8,1,5,56,103,1410206084
120,14,7,Jits_ISO_8,2,5,80,127,1410216280
120,14,7,Jits_ISO_8,3,5,63,98,1410256364
120,14,7,Jits_ISO_8,0,1,48,52,1410936912
120,14,7,Jits_ISO_8,1,5,56,103,1411075480
120,14,7,Jits_ISO_8,2,5,63,98,1411116540
120,14,7,Jits_ISO_8,3,5,80,127,1411119756
120,14,7,Jits_ISO_8,0,5,63,98,1411765572
120,14,7,Jits_ISO_8,1,1,48,52,1411801052
120,14,7,Jits_ISO_8,2,5,80,127,1411805432
120,14,7,Jits_ISO_8,3,5,56,103,1411876336
120,14,7,Jits_ISO_8,0,1,48,55,1412556584
120,14,7,Jits_ISO_8,1,5,63,98,1412557776
120,14,7,Jits_ISO_8,2,5,56,103,1412636252
120,14,7,Jits_ISO_8,3,5,80,127,1412696408
120,14,7,Jits_ISO_8,0,1,48,52,1413361976
120,14,7,Jits_ISO_8,1,5,80,127,1413366204
120,14,7,Jits_ISO_8,2,5,63,98,1413416188
120,14,7,Jits_ISO_8,3,5,56,103,1413446160
120,14,7,Jits_ISO_8,0,1,48,55,1414148276
120,14,7,Jits_ISO_8,1,5,56,103,1414155496
120,14,7,Jits_ISO_8,2,5,63,98,1414205700
120,14,7,Jits_ISO_8,3,5,80,127,1414216192
120,14,7,Jits_ISO_8,0,1,48,56,1414925872
120,14,7,Jits_ISO_8,1,5,56,103,1414965608
120,14,7,Jits_ISO_8,2,5,63,98,1415076332
120,14,7,Jits_ISO_8,3,5,80,127,1415095668
120,14,7,Jits_ISO_8,0,1,48,53,1415754132
120,14,7,Jits_ISO_8,1,5,63,98,1415766292
120,14,7,Jits_ISO_8,2,5,80,127,1415815524
120,14,7,Jits_ISO_8,3,5,56,103,1415905568
120,14,7,Jits_ISO_8,0,5,63,98,1416555816
120,14,7,Jits_ISO_8,1,5,80,127,1416585568
120,14,7,Jits_ISO_8,2,1,48,54,1416607564
120,14,7,Jits_ISO_8,3,5,56,103,1416675692
120,14,7,Jits_ISO_8,0,5,63,98,1417355596
120,14,7,Jits_ISO_8,1,5,56,103,1417365940
120,14,7,Jits_ISO_8,2,1,48,50,1417383584
120,14,7,Jits_ISO_8,3,5,80,127,1417466280
120,14,7,Jits_ISO_8,0,1,48,50,1418190324
120,14,7,Jits_ISO_8,1,5,63,98,1418255644
120,14,7,Jits_ISO_8,2,5,80,127,1418285468
120,14,7,Jits_ISO_8,3,5,56,103,1418316324
120,14,7,Jits_ISO_8,0,1,48,55,1419008280
120,14,7,Jits_ISO_8,1,5,80,127,1419076332
120,14,7,Jits_ISO_8,2,5,63,98,1419086160
120,14,7,Jits_ISO_8,3,5,56,103,1419115968
120,14,7,Jits_ISO_8,0,5,80,127,1419776260
120,14,7,Jits_ISO_8,1,5,63,98,1419796044
120,14,7,Jits_ISO_8,2,5,56,103,1419845948
120,14,7,Jits_ISO_8,3,1,48,53,1419854172
120,14,7,Jits_ISO_8,0,5,63,98,1420605796
120,14,7,Jits_ISO_8,1,1,48,54,1420615140
120,14,7,Jits_ISO_8,2,5,80,127,1420666184
120,14,7,Jits_ISO_8,3,5,56,103,1420685820
120,14,7,Jits_ISO_8,0,5,63,98,1421365572
120,14,7,Jits_ISO_8,1,1,48,54,1421409596
120,14,7,Jits_ISO_8,2,5,56,103,1421415768
120,14,7,Jits_ISO_8,3,5,80,127,1421426112
120,14,7,Jits_ISO_8,0,1,48,55,1422133160
120,14,7,Jits_ISO_8,1,5,56,103,1422196208
120,14,7,Jits_ISO_8,2,5,80,127,1422206256
120,14,7,Jits_ISO_8,3,5,63,98,1422305668
120,14,7,Jits_ISO_8,0,5,80,127,1422956140
120,14,7,Jits_ISO_8,1,5,63,98,1422966112
120,14,7,Jits_ISO_8,2,1,48,49,1422974408
120,14,7,Jits_ISO_8,3,5,56,103,1423115732
120,14,7,Jits_ISO_8,0,5,63,98,1423766124
120,14,7,Jits_ISO_8,1,1,48,52,1423772684
120,14,7,Jits_ISO_8,2,5,80,127,1423805836
120,14,7,Jits_ISO_8,3,5,56,103,1423885564
120,14,7,Jits_ISO_8,0,5,56,103,1424556468
120,14,7,Jits_ISO_8,1,1,48,55,1424597648
120,14,7,Jits_ISO_8,2,5,80,127,1424655688
120,14,7,Jits_ISO_8,3,5,63,98,1424676072
120,14,7,Jits_ISO_8,0,1,48,48,1425362440
120,14,7,Jits_ISO_8,1,5,80,127,1425415476
120,14,7,Jits_ISO_8,2,5,56,103,1425425748
120,14,7,Jits_ISO_8,3,5,63,98,1425516084
120,14,7,Jits_ISO_8,0,5,56,103,1426216168
120,14,7,Jits_ISO_8,1,1,48,67,1426229172
120,14,7,Jits_ISO_8,2,5,63,98,1426235872
120,14,7,Jits_ISO_8,3,5,80,127,1426315740
120,14,7,Jits_ISO_8,0,5,63,98,1426966140
120,14,7,Jits_ISO_8,1,1,48,56,1426967856
120,14,7,Jits_ISO_8,2,5,56,103,1427055972
120,14,7,Jits_ISO_8,3,5,80,127,1427059040
120,14,7,Jits_ISO_8,0,1,48,61,1427742192
120,14,7,Jits_ISO_8,1,5,56,103,1427796324
120,14,7,Jits_ISO_8,2,5,80,127,1427855876
120,14,7,Jits_ISO_8,3,5,63,98,1427865924
120,14,7,Jits_ISO_8,0,1,48,57,1428546556
120,14,7,Jits_ISO_8,1,5,80,127,1428646292
120,14,7,Jits_ISO_8,2,5,56,103,1428655444
120,14,7,Jits_ISO_8,3,5,63,98,1428658508
120,14,7,Jits_ISO_8,0,1,48,60,1429381620
120,14,7,Jits_ISO_8,1,5,56,103,1429406152
120,14,7,Jits_ISO_8,2,5,80,127,1429416276
120,14,7,Jits_ISO_8,3,5,63,98,1429435836
120,14,7,Jits_ISO_8,0,5,63,98,1430176044
120,14,7,Jits_ISO_8,1,1,48,63,1430177012
120,14,7,Jits_ISO_8,2,5,80,127,1430235384
120,14,7,Jits_ISO_8,3,5,56,103,1430285968
120,14,7,Jits_ISO_8,0,1,48,60,1430971592
120,14,7,Jits_ISO_8,1,5,63,98,1431055864
120,14,7,Jits_ISO_8,2,5,56,103,1431066120
120,14,7,Jits_ISO_8,3,5,80,127,1431116172
120,14,7,Jits_ISO_8,0,5,63,98,1431756284
120,14,7,Jits_ISO_8,1,1,48,56,1431772584
120,14,7,Jits_ISO_8,2,5,80,127,1431775916
120,14,7,Jits_ISO_8,3,5,56,103,1431786260
120,14,7,Jits_ISO_8,0,1,48,56,1432510696
120,14,7,Jits_ISO_8,1,5,63,98,1432555980
120,14,7,Jits_ISO_8,2,5,80,127,1432559268
120,14,7,Jits_ISO_8,3,5,56,103,1432596088
120,14,7,Jits_ISO_8,0,1,48,58,1433322968
120,14,7,Jits_ISO_8,1,5,63,98,1433426188
120,14,7,Jits_ISO_8,2,5,80,127,1433456088
120,14,7,Jits_ISO_8,3,5,56,103,1433466208
120,14,7,Jits_ISO_8,0,1,48,58,1434148852
120,14,7,Jits_ISO_8,1,5,56,103,1434176008
120,14,7,Jits_ISO_8,2,5,80,127,1434205684
120,14,7,Jits_ISO_8,3,5,63,98,1434236184
120,14,7,Jits_ISO_8,0,1,48,60,1434906080
120,14,7,Jits_ISO_8,1,5,63,98,1435076020
120,14,7,Jits_ISO_8,2,5,56,103,1435115884
120,14,7,Jits_ISO_8,3,5,80,127,1435119096
120,14,7,Jits_ISO_8,0,5,80,127,1435776324
120,14,7,Jits_ISO_8,1,5,56,103,1435856196
120,14,7,Jits_ISO_8,2,1,48,65,1435861932
120,14,7,Jits_ISO_8,3,5,63,98,1435906568
120,14,7,Jits_ISO_8,0,5,80,127,1436555744
120,14,7,Jits_ISO_8,1,5,56,103,1436576052
120,14,7,Jits_ISO_8,2,1,48,57,1436586664
120,14,7,Jits_ISO_8,3,5,63,98,1436666204
120,14,7,Jits_ISO_8,0,1,48,45,1437370484
120,14,7,Jits_ISO_8,1,5,80,127,1437396360
120,14,7,Jits_ISO_8,2,5,63,98,1437436328
120,14,7,Jits_ISO_8,3,5,56,103,1437476176
120,14,7,Jits_ISO_8,0,1,48,53,1438129056
120,14,7,Jits_ISO_8,1,5,63,98,1438166324
120,14,7,Jits_ISO_8,2,5,80,127,1438226052
120,14,7,Jits_ISO_8,3,5,56,103,1438255356
120,14,7,Jits_ISO_8,0,1,48,59,1438927864
120,14,7,Jits_ISO_8,1,5,56,103,1438966128
120,14,7,Jits_ISO_8,2,5,80,127,1438995808
120,14,7,Jits_ISO_8,3,5,63,98,1439085848
120,14,7,Jits_ISO_8,0,1,48,58,1439749844
120,14,7,Jits_ISO_8,1,5,56,103,1439776024
120,14,7,Jits_ISO_8,2,5,80,127,1439885780
120,14,7,Jits_ISO_8,3,5,63,98,1439916352
120,14,7,Jits_ISO_8,0,1,48,63,1440584780
120,14,7,Jits_ISO_8,1,5,56,103,1440626232
120,14,7,Jits_ISO_8,2,5,63,98,1440685488
120,14,7,Jits_ISO_8,3,5,80,127,1440716284
120,14,7,Jits_ISO_8,0,1,48,56,1441388380
120,14,7,Jits_ISO_8,1,5,56,103,1441396052
120,14,7,Jits_ISO_8,2,5,63,98,1441465736
120,14,7,Jits_ISO_8,3,5,80,127,1441486048
120,14,7,Jits_ISO_8,0,5,80,127,1442166024
120,14,7,Jits_ISO_8,1,1,48,59,1442179112
120,14,7,Jits_ISO_8,2,5,63,98,1442185804
120,14,7,Jits_ISO_8,3,5,56,103,1442236004
120,14,7,Jits_ISO_8,0,9999,9999,9999,1347433524
120,14,7,Jits_ISO_8,1,9999,9999,9999,1348233296
120,14,7,Jits_ISO_8,2,9999,9999,9999,1349034064
120,14,7,Jits_ISO_8,3,9999,9999,9999,1349833784
120,14,7,Jits_ISO_8,4,9999,9999,9999,1350633548
120,14,7,Jits_ISO_8,5,9999,9999,9999,1351433284
120,14,7,Jits_ISO_8,6,9999,9999,9999,1352234048
120,14,7,Jits_ISO_8,7,9999,9999,9999,1353033844
120,14,7,Jits_ISO_8,8,9999,9999,9999,1353833560
120,14,7,Jits_ISO_8,9,9999,9999,9999,1354633328
120,14,7,Jits_ISO_8,10,9999,9999,9999,1355434104
120,14,7,Jits_ISO_8,11,9999,9999,9999,1356233812
120,14,7,Jits_ISO_8,12,9999,9999,9999,1357033544
120,14,7,Jits_ISO_8,13,9999,9999,9999,1357833284
120,14,7,Jits_ISO_8,14,9999,9999,9999,1358634100
120,14,7,Jits_ISO_8,15,9999,9999,9999,1359433816
120,14,7,Jits_ISO_8,16,9999,9999,9999,1360233584
120,14,7,Jits_ISO_8,17,9999,9999,9999,1361033312
120,14,7,Jits_ISO_8,18,9999,9999,9999,1361834072
120,14,7,Jits_ISO_8,19,9999,9999,9999,1362633792
120,14,7,Jits_ISO_8,20,9999,9999,9999,1363433576
120,14,7,Jits_ISO_8,21,9999,9999,9999,1364233308
120,14,7,Jits_ISO_8,22,9999,9999,9999,1365034068
120,14,7,Jits_ISO_8,23,9999,9999,9999,1365833848
120,14,7,Jits_ISO_8,24,9999,9999,9999,1366633552
120,14,7,Jits_ISO_8,25,9999,9999,9999,1367433332
120,14,7,Jits_ISO_8,26,9999,9999,9999,1368234084
120,14,7,Jits_ISO_8,27,9999,9999,9999,1369033796
120,14,7,Jits_ISO_8,28,9999,9999,9999,1369833592
120,14,7,Jits_ISO_8,29,9999,9999,9999,1370633332
120,14,7,Jits_ISO_8,30,9999,9999,9999,1371434084
120,14,7,Jits_ISO_8,31,9999,9999,9999,1372233792
120,14,7,Jits_ISO_8,32,9999,9999,9999,1373033576
120,14,7,Jits_ISO_8,33,9999,9999,9999,1373833292
120,14,7,Jits_ISO_8,34,9999,9999,9999,1374634060
120,14,7,Jits_ISO_8,35,9999,9999,9999,1375433852
120,14,7,Jits_ISO_8,36,9999,9999,9999,1376233568
120,14,7,Jits_ISO_8,37,9999,9999,9999,1377033308
120,14,7,Jits_ISO_8,38,9999,9999,9999,1377834068
120,14,7,Jits_ISO_8,39,9999,9999,9999,1378633792
120,14,7,Jits_ISO_8,40,9999,9999,9999,1379433580
120,14,7,Jits_ISO_8,41,9999,9999,9999,1380233300
120,14,7,Jits_ISO_8,42,9999,9999,9999,1381034056
120,14,7,Jits_ISO_8,43,9999,9999,9999,1381833840
120,14,7,Jits_ISO_8,44,9999,9999,9999,1382633532
120,14,7,Jits_ISO_8,45,9999,9999,9999,1383433340
120,14,7,Jits_ISO_8,46,9999,9999,9999,1384234096
120,14,7,Jits_ISO_8,47,9999,9999,9999,1385033816
120,14,7,Jits_ISO_8,48,9999,9999,9999,1385833596
120,14,7,Jits_ISO_8,49,9999,9999,9999,1386633300
120,14,7,Jits_ISO_8,50,9999,9999,9999,1387434056
120,14,7,Jits_ISO_8,51,9999,9999,9999,1388233836
120,14,7,Jits_ISO_8,52,9999,9999,9999,1389033548
120,14,7,Jits_ISO_8,53,9999,9999,9999,1389833280
120,14,7,Jits_ISO_8,54,9999,9999,9999,1390634104
120,14,7,Jits_ISO_8,55,9999,9999,9999,1391433828
120,14,7,Jits_ISO_8,56,9999,9999,9999,1392233584
120,14,7,Jits_ISO_8,57,9999,9999,9999,1393033296
120,14,7,Jits_ISO_8,58,9999,9999,9999,1393834056
120,14,7,Jits_ISO_8,59,9999,9999,9999,1394633836
120,14,7,Jits_ISO_8,60,9999,9999,9999,1395433556
120,14,7,Jits_ISO_8,61,9999,9999,9999,1396233288
120,14,7,Jits_ISO_8,62,9999,9999,9999,1397034056
120,14,7,Jits_ISO_8,63,9999,9999,9999,1397833832
120,14,7,Jits_ISO_8,64,9999,9999,9999,1398633564
120,14,7,Jits_ISO_8,65,9999,9999,9999,1399433280
120,14,7,Jits_ISO_8,66,9999,9999,9999,1400234052
120,14,7,Jits_ISO_8,67,9999,9999,9999,1401033844
120,14,7,Jits_ISO_8,68,9999,9999,9999,1401833540
120,14,7,Jits_ISO_8,69,9999,9999,9999,1402633340
120,14,7,Jits_ISO_8,70,9999,9999,9999,1403434092
120,14,7,Jits_ISO_8,71,9999,9999,9999,1404233808
120,14,7,Jits_ISO_8,72,9999,9999,9999,1405033588
120,14,7,Jits_ISO_8,73,9999,9999,9999,1405833312
120,14,7,Jits_ISO_8,74,9999,9999,9999,1406634072
120,14,7,Jits_ISO_8,75,9999,9999,9999,1407433784
120,14,7,Jits_ISO_8,76,9999,9999,9999,1408233564
120,14,7,Jits_ISO_8,77,9999,9999,9999,1409033312
120,14,7,Jits_ISO_8,78,9999,9999,9999,1409834060
120,14,7,Jits_ISO_8,79,9999,9999,9999,1410633780
120,14,7,Jits_ISO_8,80,9999,9999,9999,1411433564
120,14,7,Jits_ISO_8,81,9999,9999,9999,1412233272
120,14,7,Jits_ISO_8,82,9999,9999,9999,1413034104
120,14,7,Jits_ISO_8,83,9999,9999,9999,1413833812
120,14,7,Jits_ISO_8,84,9999,9999,9999,1414633588
120,14,7,Jits_ISO_8,85,9999,9999,9999,1415433320
120,14,7,Jits_ISO_8,86,9999,9999,9999,1416234072
120,14,7,Jits_ISO_8,87,9999,9999,9999,1417033852
120,14,7,Jits_ISO_8,88,9999,9999,9999,1417833556
120,14,7,Jits_ISO_8,89,9999,9999,9999,1418633272
120,14,7,Jits_ISO_8,90,9999,9999,9999,1419434040
120,14,7,Jits_ISO_8,91,9999,9999,9999,1420233816
120,14,7,Jits_ISO_8,92,9999,9999,9999,1421033544
120,14,7,Jits_ISO_8,93,9999,9999,9999,1421833268
120,14,7,Jits_ISO_8,94,9999,9999,9999,1422634100
120,14,7,Jits_ISO_8,95,9999,9999,9999,1423433804
120,14,7,Jits_ISO_8,96,9999,9999,9999,1424233524
120,14,7,Jits_ISO_8,97,9999,9999,9999,1425033308
120,14,7,Jits_ISO_8,98,9999,9999,9999,1425834084
120,14,7,Jits_ISO_8,99,9999,9999,9999,1426633796
120,14,7,Jits_ISO_8,100,9999,9999,9999,1427433584
120,14,7,Jits_ISO_8,101,9999,9999,9999,1428233316
120,14,7,Jits_ISO_8,102,9999,9999,9999,1429034068
120,14,7,Jits_ISO_8,103,9999,9999,9999,1429833848
120,14,7,Jits_ISO_8,104,9999,9999,9999,1430633556
120,14,7,Jits_ISO_8,105,9999,9999,9999,1431433272
120,14,7,Jits_ISO_8,106,9999,9999,9999,1432234092
120,14,7,Jits_ISO_8,107,9999,9999,9999,1433033784
120,14,7,Jits_ISO_8,108,9999,9999,9999,1433833572
120,14,7,Jits_ISO_8,109,9999,9999,9999,1434633296
120,14,7,Jits_ISO_8,110,9999,9999,9999,1435434052
120,14,7,Jits_ISO_8,111,9999,9999,9999,1436233836
120,14,7,Jits_ISO_8,112,9999,9999,9999,1437033552
120,14,7,Jits_ISO_8,113,9999,9999,9999,1437833276
120,14,7,Jits_ISO_8,114,9999,9999,9999,1438634104
120,14,7,Jits_ISO_8,115,9999,9999,9999,1439433812
120,14,7,Jits_ISO_8,116,9999,9999,9999,1440233524
120,14,7,Jits_ISO_8,117,9999,9999,9999,1441033332
120,14,7,Jits_ISO_8,118,9999,9999,9999,1441834092
120,14,7,Jits_ISO_8,119,9999,9999,9999,1442633796
120,15,16,Jits_ISO_5,0,5,56,103,1450458624
120,15,16,Jits_ISO_5,1,5,63,98,1450461800
120,15,16,Jits_ISO_5,2,5,80,127,1450464768
120,15,16,Jits_ISO_5,0,5,56,103,1450959240
120,15,16,Jits_ISO_5,1,5,63,98,1450962488
120,15,16,Jits_ISO_5,2,5,80,127,1450965536
120,15,16,Jits_ISO_5,0,5,56,103,1451459052
120,15,16,Jits_ISO_5,1,5,80,127,1451469100
120,15,16,Jits_ISO_5,2,5,63,98,1451488588
120,15,16,Jits_ISO_5,0,5,63,98,1451908524
120,15,16,Jits_ISO_5,1,5,80,127,1451939320
120,15,16,Jits_ISO_5,2,5,56,103,1451949516
120,15,16,Jits_ISO_5,0,1,48,64,1452437208
120,15,16,Jits_ISO_5,1,5,80,127,1452468548
120,15,16,Jits_ISO_5,2,5,56,103,1452478744
120,15,16,Jits_ISO_5,3,5,63,98,1452508716
120,15,16,Jits_ISO_5,0,5,63,98,1452959300
120,15,16,Jits_ISO_5,1,5,56,103,1452988752
120,15,16,Jits_ISO_5,2,5,80,127,1452999096
120,15,16,Jits_ISO_5,3,1,48,72,1453009116
120,15,16,Jits_ISO_5,0,5,56,103,1453408692
120,15,16,Jits_ISO_5,1,5,63,98,1453458896
120,15,16,Jits_ISO_5,2,5,80,127,1453479204
120,15,16,Jits_ISO_5,3,1,48,67,1453511312
120,15,16,Jits_ISO_5,0,5,80,127,1453909560
120,15,16,Jits_ISO_5,1,5,63,98,1453958716
120,15,16,Jits_ISO_5,2,1,48,67,1453969400
120,15,16,Jits_ISO_5,3,5,56,103,1453998572
120,15,16,Jits_ISO_5,0,5,56,103,1454409164
120,15,16,Jits_ISO_5,1,5,63,98,1454438688
120,15,16,Jits_ISO_5,2,1,48,65,1454463824
120,15,16,Jits_ISO_5,3,5,80,127,1454509480
120,15,16,Jits_ISO_5,0,5,56,103,1454908832
120,15,16,Jits_ISO_5,1,1,48,64,1454925428
120,15,16,Jits_ISO_5,2,5,80,127,1454969288
120,15,16,Jits_ISO_5,3,5,63,98,1454998888
120,15,16,Jits_ISO_5,0,1,48,65,1455402620
120,15,16,Jits_ISO_5,1,5,56,103,1455418760
120,15,16,Jits_ISO_5,2,5,63,98,1455428956
120,15,16,Jits_ISO_5,3,5,80,127,1455468968
120,15,16,Jits_ISO_5,0,1,48,64,1455890520
120,15,16,Jits_ISO_5,1,5,63,98,1455909424
120,15,16,Jits_ISO_5,2,5,80,127,1455988996
120,15,16,Jits_ISO_5,3,5,56,103,1455999472
120,15,16,Jits_ISO_5,0,1,48,61,1456402084
120,15,16,Jits_ISO_5,1,5,63,98,1456458980
120,15,16,Jits_ISO_5,2,5,56,103,1456498992
120,15,16,Jits_ISO_5,3,5,80,127,1456503016
120,15,16,Jits_ISO_5,0,1,48,53,1456905628
120,15,16,Jits_ISO_5,1,5,56,103,1456918924
120,15,16,Jits_ISO_5,2,5,63,98,1456929120
120,15,16,Jits_ISO_5,3,5,80,127,1456969056
120,15,16,Jits_ISO_5,0,1,48,64,1457407916
120,15,16,Jits_ISO_5,1,5,56,103,1457409512
120,15,16,Jits_ISO_5,2,5,63,98,1457412280
120,15,16,Jits_ISO_5,3,5,80,127,1457428776
120,15,16,Jits_ISO_5,0,1,48,67,1457899144
120,15,16,Jits_ISO_5,1,5,80,127,1457928488
120,15,16,Jits_ISO_5,2,5,56,103,1457938908
120,15,16,Jits_ISO_5,3,5,63,98,1458008420
120,15,16,Jits_ISO_5,0,1,48,58,1458392948
120,15,16,Jits_ISO_5,1,5,63,98,1458419152
120,15,16,Jits_ISO_5,2,5,56,103,1458438416
120,15,16,Jits_ISO_5,3,5,80,127,1458519388
120,15,16,Jits_ISO_5,0,1,48,62,1458908352
120,15,16,Jits_ISO_5,1,5,56,103,1458929072
120,15,16,Jits_ISO_5,2,5,80,127,1458968936
120,15,16,Jits_ISO_5,3,5,63,98,1458979428
120,15,16,Jits_ISO_5,0,1,48,63,1459401856
120,15,16,Jits_ISO_5,1,5,80,127,1459418444
120,15,16,Jits_ISO_5,2,5,63,98,1459449336
120,15,16,Jits_ISO_5,3,5,56,103,1459489348
120,15,16,Jits_ISO_5,0,1,48,65,1459928416
120,15,16,Jits_ISO_5,1,5,56,103,1459938848
120,15,16,Jits_ISO_5,2,5,63,98,1459969596
120,15,16,Jits_ISO_5,3,5,80,127,1460018524
120,15,16,Jits_ISO_5,0,1,48,59,1460415244
120,15,16,Jits_ISO_5,1,5,80,127,1460439332
120,15,16,Jits_ISO_5,2,5,56,103,1460479516
120,15,16,Jits_ISO_5,3,5,63,98,1460488440
120,15,16,Jits_ISO_5,0,1,48,59,1460898880
120,15,16,Jits_ISO_5,1,5,80,127,1460918680
120,15,16,Jits_ISO_5,2,5,63,98,1460958544
120,15,16,Jits_ISO_5,3,5,56,103,1461018868
120,15,16,Jits_ISO_5,0,1,48,62,1461357480
120,15,16,Jits_ISO_5,1,5,56,103,1461419608
120,15,16,Jits_ISO_5,2,5,80,127,1461428684
120,15,16,Jits_ISO_5,3,5,63,98,1461508336
120,15,16,Jits_ISO_5,0,1,48,60,1461873984
120,15,16,Jits_ISO_5,1,5,80,127,1461919192
120,15,16,Jits_ISO_5,2,5,63,98,1461978668
120,15,16,Jits_ISO_5,3,5,56,103,1462009340
120,15,16,Jits_ISO_5,0,5,56,103,1462418784
120,15,16,Jits_ISO_5,1,1,48,70,1462432988
120,15,16,Jits_ISO_5,2,5,80,127,1462479168
120,15,16,Jits_ISO_5,3,5,63,98,1462519276
120,15,16,Jits_ISO_5,0,1,48,57,1462954752
120,15,16,Jits_ISO_5,1,5,56,103,1462968572
120,15,16,Jits_ISO_5,2,5,63,98,1462978836
120,15,16,Jits_ISO_5,3,5,80,127,1462982280
120,15,16,Jits_ISO_5,0,5,80,127,1463419456
120,15,16,Jits_ISO_5,1,1,48,63,1463476600
120,15,16,Jits_ISO_5,2,5,63,98,1463509280
120,15,16,Jits_ISO_5,3,5,56,103,1463518504
120,15,16,Jits_ISO_5,0,5,56,103,1463918892
120,15,16,Jits_ISO_5,1,5,63,98,1463921912
120,15,16,Jits_ISO_5,2,5,80,127,1463925184
120,15,16,Jits_ISO_5,3,1,48,64,1463964564
120,15,16,Jits_ISO_5,0,1,48,57,1464418528
120,15,16,Jits_ISO_5,1,5,80,127,1464439448
120,15,16,Jits_ISO_5,2,5,63,98,1464489572
120,15,16,Jits_ISO_5,3,5,56,103,1464519084
120,15,16,Jits_ISO_5,0,1,48,65,1464914576
120,15,16,Jits_ISO_5,1,5,56,103,1464919332
120,15,16,Jits_ISO_5,2,5,80,127,1464928628
120,15,16,Jits_ISO_5,3,5,63,98,1464999500
120,15,16,Jits_ISO_5,0,5,56,103,1465429552
120,15,16,Jits_ISO_5,1,1,48,66,1465439648
120,15,16,Jits_ISO_5,2,5,63,98,1465448884
120,15,16,Jits_ISO_5,3,5,80,127,1465509420
120,15,16,Jits_ISO_5,0,5,80,127,1465918744
120,15,16,Jits_ISO_5,1,1,48,67,1465938496
120,15,16,Jits_ISO_5,2,5,63,98,1465988492
120,15,16,Jits_ISO_5,3,5,56,103,1466008872
120,15,16,Jits_ISO_5,0,5,80,127,1466439240
120,15,16,Jits_ISO_5,1,5,56,103,1466449364
120,15,16,Jits_ISO_5,2,1,48,54,1466455548
120,15,16,Jits_ISO_5,3,5,63,98,1466458356
120,15,16,Jits_ISO_5,0,5,80,127,1466928424
120,15,16,Jits_ISO_5,1,1,48,59,1466934156
120,15,16,Jits_ISO_5,2,5,56,103,1466948952
120,15,16,Jits_ISO_5,3,5,63,98,1467018556
120,15,16,Jits_ISO_5,0,1,48,55,1467413072
120,15,16,Jits_ISO_5,1,5,56,103,1467438504
120,15,16,Jits_ISO_5,2,5,80,127,1467469376
120,15,16,Jits_ISO_5,3,5,63,98,1467488564
120,15,16,Jits_ISO_5,0,1,48,67,1467901424
120,15,16,Jits_ISO_5,1,5,63,98,1467928948
120,15,16,Jits_ISO_5,2,5,56,103,1467989488
120,15,16,Jits_ISO_5,3,5,80,127,1468018924
120,15,16,Jits_ISO_5,0,5,63,98,1468418576
120,15,16,Jits_ISO_5,1,5,80,127,1468421720
120,15,16,Jits_ISO_5,2,1,48,67,1468451068
120,15,16,Jits_ISO_5,3,5,56,103,1468508476
120,15,16,Jits_ISO_5,0,1,48,66,1468921784
120,15,16,Jits_ISO_5,1,5,56,103,1468938672
120,15,16,Jits_ISO_5,2,5,63,98,1468969244
120,15,16,Jits_ISO_5,3,5,80,127,1469009480
120,15,16,Jits_ISO_5,0,1,48,62,1469405456
120,15,16,Jits_ISO_5,1,5,63,98,1469439600
120,15,16,Jits_ISO_5,2,5,56,103,1469479240
120,15,16,Jits_ISO_5,3,5,80,127,1469498800
120,15,16,Jits_ISO_5,0,1,48,54,1469895972
120,15,16,Jits_ISO_5,1,5,63,98,1469949524
120,15,16,Jits_ISO_5,2,5,56,103,1469989388
120,15,16,Jits_ISO_5,3,5,80,127,1469998448
120,15,16,Jits_ISO_5,0,1,48,62,1470419764
120,15,16,Jits_ISO_5,1,5,80,127,1470428484
120,15,16,Jits_ISO_5,2,5,63,98,1470499384
120,15,16,Jits_ISO_5,3,5,56,103,1470518556
120,15,16,Jits_ISO_5,0,5,56,103,1470919008
120,15,16,Jits_ISO_5,1,1,48,55,1470938492
120,15,16,Jits_ISO_5,2,5,80,127,1470939904
120,15,16,Jits_ISO_5,3,5,63,98,1470978372
120,15,16,Jits_ISO_5,0,5,63,98,1471429092
120,15,16,Jits_ISO_5,1,1,48,62,1471439704
120,15,16,Jits_ISO_5,2,5,80,127,1471448424
120,15,16,Jits_ISO_5,3,5,56,103,1471489432
120,15,16,Jits_ISO_5,0,5,63,98,1471928596
120,15,16,Jits_ISO_5,1,1,48,61,1471942876
120,15,16,Jits_ISO_5,2,5,56,103,1471949420
120,15,16,Jits_ISO_5,3,5,80,127,1471959392
120,15,16,Jits_ISO_5,0,5,80,127,1472429524
120,15,16,Jits_ISO_5,1,1,48,63,1472441784
120,15,16,Jits_ISO_5,2,5,56,103,1472449004
120,15,16,Jits_ISO_5,3,5,63,98,1472478456
120,15,16,Jits_ISO_5,0,1,48,56,1472935672
120,15,16,Jits_ISO_5,1,5,56,103,1472998788
120,15,16,Jits_ISO_5,2,5,80,127,1473001932
120,15,16,Jits_ISO_5,3,5,63,98,1473019348
120,15,16,Jits_ISO_5,0,5,63,98,1473418516
120,15,16,Jits_ISO_5,1,5,56,103,1473449388
120,15,16,Jits_ISO_5,2,1,48,60,1473458804
120,15,16,Jits_ISO_5,3,5,80,127,1473508792
120,15,16,Jits_ISO_5,0,1,48,57,1473936652
120,15,16,Jits_ISO_5,1,5,63,98,1473999376
120,15,16,Jits_ISO_5,2,5,56,103,1474008376
120,15,16,Jits_ISO_5,3,5,80,127,1474018572
120,15,16,Jits_ISO_5,0,5,56,103,1474448828
120,15,16,Jits_ISO_5,1,5,80,127,1474478352
120,15,16,Jits_ISO_5,2,5,63,98,1474488548
120,15,16,Jits_ISO_5,3,1,48,58,1474491668
120,15,16,Jits_ISO_5,0,1,48,57,1474966508
120,15,16,Jits_ISO_5,1,5,63,98,1474989400
120,15,16,Jits_ISO_5,2,5,56,103,1474998624
120,15,16,Jits_ISO_5,3,5,80,127,1475019380
120,15,16,Jits_ISO_5,0,5,56,103,1475418420
120,15,16,Jits_ISO_5,1,1,48,55,1475456608
120,15,16,Jits_ISO_5,2,5,63,98,1475479100
120,15,16,Jits_ISO_5,3,5,80,127,1475482312
120,15,16,Jits_ISO_5,0,5,80,127,1475938536
120,15,16,Jits_ISO_5,1,1,48,65,1475943672
120,15,16,Jits_ISO_5,2,5,56,103,1475949244
120,15,16,Jits_ISO_5,3,5,63,98,1476018400
120,15,16,Jits_ISO_5,0,5,80,127,1476429288
120,15,16,Jits_ISO_5,1,1,48,67,1476454128
120,15,16,Jits_ISO_5,2,5,56,103,1476498888
120,15,16,Jits_ISO_5,3,5,63,98,1476509456
120,15,16,Jits_ISO_5,0,1,48,59,1476938520
120,15,16,Jits_ISO_5,1,5,63,98,1476968964
120,15,16,Jits_ISO_5,2,5,56,103,1476979160
120,15,16,Jits_ISO_5,3,5,80,127,1476998496
120,15,16,Jits_ISO_5,0,5,80,127,1477419480
120,15,16,Jits_ISO_5,1,1,48,73,1477422156
120,15,16,Jits_ISO_5,2,5,63,98,1477478820
120,15,16,Jits_ISO_5,3,5,56,103,1477518664
120,15,16,Jits_ISO_5,0,1,48,69,1477897780
120,15,16,Jits_ISO_5,1,5,56,103,1477959232
120,15,16,Jits_ISO_5,2,5,63,98,1477969208
120,15,16,Jits_ISO_5,3,5,80,127,1478009348
120,15,16,Jits_ISO_5,0,1,48,70,1478414280
120,15,16,Jits_ISO_5,1,5,56,103,1478418736
120,15,16,Jits_ISO_5,2,5,80,127,1478448488
120,15,16,Jits_ISO_5,3,5,63,98,1478498536
120,15,16,Jits_ISO_5,0,1,48,65,1478913712
120,15,16,Jits_ISO_5,1,5,56,103,1478958476
120,15,16,Jits_ISO_5,2,5,63,98,1478999456
120,15,16,Jits_ISO_5,3,5,80,127,1479002820
120,15,16,Jits_ISO_5,0,1,48,56,1479398140
120,15,16,Jits_ISO_5,1,5,56,103,1479459320
120,15,16,Jits_ISO_5,2,5,63,98,1479469516
120,15,16,Jits_ISO_5,3,5,80,127,1479489000
120,15,16,Jits_ISO_5,0,5,56,103,1479918976
120,15,16,Jits_ISO_5,1,5,80,127,1479922044
120,15,16,Jits_ISO_5,2,1,48,64,1479927948
120,15,16,Jits_ISO_5,3,5,63,98,1479958832
120,15,16,Jits_ISO_5,0,1,48,57,1480406304
120,15,16,Jits_ISO_5,1,5,63,98,1480458492
120,15,16,Jits_ISO_5,2,5,56,103,1480489436
120,15,16,Jits_ISO_5,3,5,80,127,1480508760
120,15,16,Jits_ISO_5,0,1,48,60,1480922512
120,15,16,Jits_ISO_5,1,5,80,127,1480928608
120,15,16,Jits_ISO_5,2,5,56,103,1480939028
120,15,16,Jits_ISO_5,3,5,63,98,1480949324
120,15,16,Jits_ISO_5,0,1,48,55,1481421640
120,15,16,Jits_ISO_5,1,5,56,103,1481429312
120,15,16,Jits_ISO_5,2,5,80,127,1481469348
120,15,16,Jits_ISO_5,3,5,63,98,1481499024
120,15,16,Jits_ISO_5,0,1,48,54,1481915296
120,15,16,Jits_ISO_5,1,5,63,98,1481939308
120,15,16,Jits_ISO_5,2,5,80,127,1481948456
120,15,16,Jits_ISO_5,3,5,56,103,1481958652
120,15,16,Jits_ISO_5,0,1,48,67,1482417456
120,15,16,Jits_ISO_5,1,5,56,103,1482418952
120,15,16,Jits_ISO_5,2,5,63,98,1482489184
120,15,16,Jits_ISO_5,3,5,80,127,1482498556
120,15,16,Jits_ISO_5,0,1,48,57,1482895948
120,15,16,Jits_ISO_5,1,5,80,127,1482919360
120,15,16,Jits_ISO_5,2,5,56,103,1482928360
120,15,16,Jits_ISO_5,3,5,63,98,1482978632
120,15,16,Jits_ISO_5,0,1,48,51,1483394832
120,15,16,Jits_ISO_5,1,5,80,127,1483429252
120,15,16,Jits_ISO_5,2,5,56,103,1483488596
120,15,16,Jits_ISO_5,3,5,63,98,1483519400
120,15,16,Jits_ISO_5,0,1,48,59,1483908812
120,15,16,Jits_ISO_5,1,5,56,103,1483929060
120,15,16,Jits_ISO_5,2,5,80,127,1483932124
120,15,16,Jits_ISO_5,3,5,63,98,1483969144
120,15,16,Jits_ISO_5,0,1,48,54,1484420144
120,15,16,Jits_ISO_5,1,5,56,103,1484459348
120,15,16,Jits_ISO_5,2,5,63,98,1484489024
120,15,16,Jits_ISO_5,3,5,80,127,1484499220
120,15,16,Jits_ISO_5,0,1,48,57,1484899428
120,15,16,Jits_ISO_5,1,5,63,98,1484969276
120,15,16,Jits_ISO_5,2,5,80,127,1484978500
120,15,16,Jits_ISO_5,3,5,56,103,1484988992
120,15,16,Jits_ISO_5,0,1,48,55,1485411368
120,15,16,Jits_ISO_5,1,5,80,127,1485418964
120,15,16,Jits_ISO_5,2,5,56,103,1485469316
120,15,16,Jits_ISO_5,3,5,63,98,1485472152
120,15,16,Jits_ISO_5,0,1,48,62,1485918132
120,15,16,Jits_ISO_5,1,5,56,103,1485949324
120,15,16,Jits_ISO_5,2,5,80,127,1485968960
120,15,16,Jits_ISO_5,3,5,63,98,1485979008
120,15,16,Jits_ISO_5,0,1,48,52,1486409104
120,15,16,Jits_ISO_5,1,5,63,98,1486428532
120,15,16,Jits_ISO_5,2,5,56,103,1486459104
120,15,16,Jits_ISO_5,3,5,80,127,1486478740
120,15,16,Jits_ISO_5,0,1,48,53,1486889724
120,15,16,Jits_ISO_5,1,5,56,103,1486938524
120,15,16,Jits_ISO_5,2,5,80,127,1486948724
120,15,16,Jits_ISO_5,3,5,63,98,1487019284
120,15,16,Jits_ISO_5,0,1,48,55,1487399352
120,15,16,Jits_ISO_5,1,5,63,98,1487429040
120,15,16,Jits_ISO_5,2,5,80,127,1487469128
120,15,16,Jits_ISO_5,3,5,56,103,1487508976
120,15,16,Jits_ISO_5,0,1,48,61,1487916324
120,15,16,Jits_ISO_5,1,5,56,103,1487939116
120,15,16,Jits_ISO_5,2,5,63,98,1487949236
120,15,16,Jits_ISO_5,3,5,80,127,1487968500
120,15,16,Jits_ISO_5,0,1,48,65,1488430952
120,15,16,Jits_ISO_5,1,5,63,98,1488478484
120,15,16,Jits_ISO_5,2,5,80,127,1488499016
120,15,16,Jits_ISO_5,3,5,56,103,1488518428
120,15,16,Jits_ISO_5,0,5,56,103,1488919188
120,15,16,Jits_ISO_5,1,1,48,67,1488941860
120,15,16,Jits_ISO_5,2,5,80,127,1488998976
120,15,16,Jits_ISO_5,3,5,63,98,1489009168
120,15,16,Jits_ISO_5,0,1,48,59,1489429244
120,15,16,Jits_ISO_5,1,5,80,127,1489458416
120,15,16,Jits_ISO_5,2,5,63,98,1489469056
120,15,16,Jits_ISO_5,3,5,56,103,1489498432
120,15,16,Jits_ISO_5,0,5,63,98,1489919416
120,15,16,Jits_ISO_5,1,1,48,64,1489946500
120,15,16,Jits_ISO_5,2,5,80,127,1489959200
120,15,16,Jits_ISO_5,3,5,56,103,1490018612
120,15,16,Jits_ISO_5,0,1,48,54,1490426676
120,15,16,Jits_ISO_5,1,5,63,98,1490429260
120,15,16,Jits_ISO_5,2,5,56,103,1490478340
120,15,16,Jits_ISO_5,3,5,80,127,1490509136
120,15,16,Jits_ISO_5,0,1,48,59,1490925040
120,15,16,Jits_ISO_5,1,5,80,127,1490939232
120,15,16,Jits_ISO_5,2,5,63,98,1490948604
120,15,16,Jits_ISO_5,3,5,56,103,1491019164
120,15,16,Jits_ISO_5,0,1,48,58,1491447488
120,15,16,Jits_ISO_5,1,5,80,127,1491508716
120,15,16,Jits_ISO_5,2,5,56,103,1491518984
120,15,16,Jits_ISO_5,3,5,63,98,1491521904
120,15,16,Jits_ISO_5,0,1,48,61,1491945232
120,15,16,Jits_ISO_5,1,5,56,103,1491948940
120,15,16,Jits_ISO_5,2,5,80,127,1491969248
120,15,16,Jits_ISO_5,3,5,63,98,1491978620
120,15,16,Jits_ISO_5,0,5,63,98,1492458988
120,15,16,Jits_ISO_5,1,1,48,57,1492462256
120,15,16,Jits_ISO_5,2,5,56,103,1492498920
120,15,16,Jits_ISO_5,3,5,80,127,1492519156
120,15,16,Jits_ISO_5,0,1,48,66,1492923976
120,15,16,Jits_ISO_5,1,5,63,98,1492958700
120,15,16,Jits_ISO_5,2,5,56,103,1493018960
120,15,16,Jits_ISO_5,3,5,80,127,1493022908
120,15,16,Jits_ISO_5,0,5,56,103,1493419472
120,15,16,Jits_ISO_5,1,5,80,127,1493438812
120,15,16,Jits_ISO_5,2,1,48,60,1493445444
120,15,16,Jits_ISO_5,3,5,63,98,1493478964
120,15,16,Jits_ISO_5,0,1,48,62,1493921132
120,15,16,Jits_ISO_5,1,5,56,103,1493948880
120,15,16,Jits_ISO_5,2,5,63,98,1493969192
120,15,16,Jits_ISO_5,3,5,80,127,1493978340
120,15,16,Jits_ISO_5,0,1,48,59,1494415764
120,15,16,Jits_ISO_5,1,5,80,127,1494419316
120,15,16,Jits_ISO_5,2,5,56,103,1494448620
120,15,16,Jits_ISO_5,3,5,63,98,1494488556
120,15,16,Jits_ISO_5,0,1,48,57,1494906056
120,15,16,Jits_ISO_5,1,5,80,127,1494928864
120,15,16,Jits_ISO_5,2,5,56,103,1494949100
120,15,16,Jits_ISO_5,3,5,63,98,1495008648
120,15,16,Jits_ISO_5,0,1,48,60,1495398156
120,15,16,Jits_ISO_5,1,5,56,103,1495438788
120,15,16,Jits_ISO_5,2,5,80,127,1495459172
120,15,16,Jits_ISO_5,3,5,63,98,1495518796
120,15,16,Jits_ISO_5,0,5,80,127,1495919124
120,15,16,Jits_ISO_5,1,1,48,59,1495927356
120,15,16,Jits_ISO_5,2,5,56,103,1495929092
120,15,16,Jits_ISO_5,3,5,63,98,1495969100
120,15,16,Jits_ISO_5,0,5,63,98,1496418944
120,15,16,Jits_ISO_5,1,1,48,58,1496427768
120,15,16,Jits_ISO_5,2,5,56,103,1496458576
120,15,16,Jits_ISO_5,3,5,80,127,1496461792
120,15,16,Jits_ISO_5,0,1,48,56,1496898184
120,15,16,Jits_ISO_5,1,5,63,98,1496938964
120,15,16,Jits_ISO_5,2,5,80,127,1496978976
120,15,16,Jits_ISO_5,3,5,56,103,1497008484
120,15,16,Jits_ISO_5,0,1,48,54,1497395880
120,15,16,Jits_ISO_5,1,5,56,103,1497429408
120,15,16,Jits_ISO_5,2,5,63,98,1497438704
120,15,16,Jits_ISO_5,3,5,80,127,1497469276
120,15,16,Jits_ISO_5,0,1,48,60,1497889628
120,15,16,Jits_ISO_5,1,5,80,127,1497919168
120,15,16,Jits_ISO_5,2,5,63,98,1497988464
120,15,16,Jits_ISO_5,3,5,56,103,1497998736
120,15,16,Jits_ISO_5,0,1,48,51,1498403440
120,15,16,Jits_ISO_5,1,5,63,98,1498418756
120,15,16,Jits_ISO_5,2,5,56,103,1498489336
120,15,16,Jits_ISO_5,3,5,80,127,1498498396
120,15,16,Jits_ISO_5,0,1,48,62,1498885196
120,15,16,Jits_ISO_5,1,5,63,98,1498919240
120,15,16,Jits_ISO_5,2,5,56,103,1498938876
120,15,16,Jits_ISO_5,3,5,80,127,1498978884
120,15,16,Jits_ISO_5,0,1,48,58,1499361148
120,15,16,Jits_ISO_5,1,5,56,103,1499429232
120,15,16,Jits_ISO_5,2,5,63,98,1499438380
120,15,16,Jits_ISO_5,3,5,80,127,1499519200
120,15,16,Jits_ISO_5,0,5,63,98,1499918856
120,15,16,Jits_ISO_5,1,1,48,55,1499925640
120,15,16,Jits_ISO_5,2,5,56,103,1499949424
120,15,16,Jits_ISO_5,3,5,80,127,1499989508
120,15,16,Jits_ISO_5,0,5,56,103,1500418440
120,15,16,Jits_ISO_5,1,1,48,57,1500448680
120,15,16,Jits_ISO_5,2,5,63,98,1500459268
120,15,16,Jits_ISO_5,3,5,80,127,1500499352
120,15,16,Jits_ISO_5,0,5,80,127,1500919232
120,15,16,Jits_ISO_5,1,1,48,58,1500937040
120,15,16,Jits_ISO_5,2,5,56,103,1500999168
120,15,16,Jits_ISO_5,3,5,63,98,1501009364
120,15,16,Jits_ISO_5,0,1,48,61,1501414720
120,15,16,Jits_ISO_5,1,5,56,103,1501458904
120,15,16,Jits_ISO_5,2,5,63,98,1501461972
120,15,16,Jits_ISO_5,3,5,80,127,1501469024
120,15,16,Jits_ISO_5,0,1,48,55,1501909880
120,15,16,Jits_ISO_5,1,5,56,103,1501979084
120,15,16,Jits_ISO_5,2,5,63,98,1501998496
120,15,16,Jits_ISO_5,3,5,80,127,1502008748
120,15,16,Jits_ISO_5,0,5,63,98,1502438944
120,15,16,Jits_ISO_5,1,1,48,51,1502446128
120,15,16,Jits_ISO_5,2,5,80,127,1502448860
120,15,16,Jits_ISO_5,3,5,56,103,1502468420
120,15,16,Jits_ISO_5,0,5,63,98,1502938752
120,15,16,Jits_ISO_5,1,1,48,54,1502942320
120,15,16,Jits_ISO_5,2,5,56,103,1503019384
120,15,16,Jits_ISO_5,3,5,80,127,1503022304
120,15,16,Jits_ISO_5,0,5,63,98,1503439304
120,15,16,Jits_ISO_5,1,5,56,103,1503458644
120,15,16,Jits_ISO_5,2,1,48,57,1503473316
120,15,16,Jits_ISO_5,3,5,80,127,1503489308
120,15,16,Jits_ISO_5,0,5,56,103,1503939032
120,15,16,Jits_ISO_5,1,1,48,59,1503953988
120,15,16,Jits_ISO_5,2,5,63,98,1503959264
120,15,16,Jits_ISO_5,3,5,80,127,1503968708
120,15,16,Jits_ISO_5,0,1,48,53,1504446624
120,15,16,Jits_ISO_5,1,5,56,103,1504469340
120,15,16,Jits_ISO_5,2,5,63,98,1504499112
120,15,16,Jits_ISO_5,3,5,80,127,1504502404
120,15,16,Jits_ISO_5,0,5,56,103,1504918808
120,15,16,Jits_ISO_5,1,5,63,98,1504958968
120,15,16,Jits_ISO_5,2,1,48,60,1504965376
120,15,16,Jits_ISO_5,3,5,80,127,1505019148
120,15,16,Jits_ISO_5,0,5,56,103,1505439008
120,15,16,Jits_ISO_5,1,5,63,98,1505449500
120,15,16,Jits_ISO_5,2,1,48,58,1505455980
120,15,16,Jits_ISO_5,3,5,80,127,1505508832
120,15,16,Jits_ISO_5,0,5,56,103,1505938904
120,15,16,Jits_ISO_5,1,1,48,55,1505959660
120,15,16,Jits_ISO_5,2,5,80,127,1505960920
120,15,16,Jits_ISO_5,3,5,63,98,1505988952
120,15,16,Jits_ISO_5,0,5,80,127,1506438872
120,15,16,Jits_ISO_5,1,1,48,55,1506440588
120,15,16,Jits_ISO_5,2,5,56,103,1506448616
120,15,16,Jits_ISO_5,3,5,63,98,1506469296
120,15,16,Jits_ISO_5,0,5,63,98,1506929104
120,15,16,Jits_ISO_5,1,1,48,59,1506946324
120,15,16,Jits_ISO_5,2,5,80,127,1507008820
120,15,16,Jits_ISO_5,3,5,56,103,1507019092
120,15,16,Jits_ISO_5,0,1,48,56,1507458932
120,15,16,Jits_ISO_5,1,5,80,127,1507489072
120,15,16,Jits_ISO_5,2,5,56,103,1507508856
120,15,16,Jits_ISO_5,3,5,63,98,1507511848
120,15,16,Jits_ISO_5,0,1,48,59,1507944640
120,15,16,Jits_ISO_5,1,5,63,98,1507959052
120,15,16,Jits_ISO_5,2,5,80,127,1507962272
120,15,16,Jits_ISO_5,3,5,56,103,1508018620
120,15,16,Jits_ISO_5,0,5,56,103,1508439384
120,15,16,Jits_ISO_5,1,5,80,127,1508448904
120,15,16,Jits_ISO_5,2,1,48,59,1508463184
120,15,16,Jits_ISO_5,3,5,63,98,1508488760
120,15,16,Jits_ISO_5,0,5,56,103,1508918828
120,15,16,Jits_ISO_5,1,1,48,61,1508943220
120,15,16,Jits_ISO_5,2,5,63,98,1508978912
120,15,16,Jits_ISO_5,3,5,80,127,1508989184
120,15,16,Jits_ISO_5,0,1,48,58,1509419072
120,15,16,Jits_ISO_5,1,5,63,98,1509428832
120,15,16,Jits_ISO_5,2,5,80,127,1509468548
120,15,16,Jits_ISO_5,3,5,56,103,1509508780
120,15,16,Jits_ISO_5,0,5,56,103,1509929396
120,15,16,Jits_ISO_5,1,1,48,62,1509949300
120,15,16,Jits_ISO_5,2,5,63,98,1510009332
120,15,16,Jits_ISO_5,3,5,80,127,1510012620
120,15,16,Jits_ISO_5,0,9999,9999,9999,1450707024
120,15,16,Jits_ISO_5,1,9999,9999,9999,1451206744
120,15,16,Jits_ISO_5,2,9999,9999,9999,1451706484
120,15,16,Jits_ISO_5,3,9999,9999,9999,1452206148
120,15,16,Jits_ISO_5,4,9999,9999,9999,1452706900
120,15,16,Jits_ISO_5,5,9999,9999,9999,1453206636
120,15,16,Jits_ISO_5,6,9999,9999,9999,1453706296
120,15,16,Jits_ISO_5,7,9999,9999,9999,1454207088
120,15,16,Jits_ISO_5,8,9999,9999,9999,1454706764
120,15,16,Jits_ISO_5,9,9999,9999,9999,1455206512
120,15,16,Jits_ISO_5,10,9999,9999,9999,1455706180
120,15,16,Jits_ISO_5,11,9999,9999,9999,1456206960
120,15,16,Jits_ISO_5,12,9999,9999,9999,1456706616
120,15,16,Jits_ISO_5,13,9999,9999,9999,1457206344
120,15,16,Jits_ISO_5,14,9999,9999,9999,1457707108
120,15,16,Jits_ISO_5,15,9999,9999,9999,1458217032
120,15,16,Jits_ISO_5,16,9999,9999,9999,1458716764
120,15,16,Jits_ISO_5,17,9999,9999,9999,1459216492
120,15,16,Jits_ISO_5,18,9999,9999,9999,1459716152
120,15,16,Jits_ISO_5,19,9999,9999,9999,1460216932
120,15,16,Jits_ISO_5,20,9999,9999,9999,1460716640
120,15,16,Jits_ISO_5,21,9999,9999,9999,1461216368
120,15,16,Jits_ISO_5,22,9999,9999,9999,1461717068
120,15,16,Jits_ISO_5,23,9999,9999,9999,1462216804
120,15,16,Jits_ISO_5,24,9999,9999,9999,1462716536
120,15,16,Jits_ISO_5,25,9999,9999,9999,1463216204
120,15,16,Jits_ISO_5,26,9999,9999,9999,1463716988
120,15,16,Jits_ISO_5,27,9999,9999,9999,1464216632
120,15,16,Jits_ISO_5,28,9999,9999,9999,1464716384
120,15,16,Jits_ISO_5,29,9999,9999,9999,1465216116
120,15,16,Jits_ISO_5,30,9999,9999,9999,1465716820
120,15,16,Jits_ISO_5,31,9999,9999,9999,1466216572
120,15,16,Jits_ISO_5,32,9999,9999,9999,1466716240
120,15,16,Jits_ISO_5,33,9999,9999,9999,1467216960
120,15,16,Jits_ISO_5,34,9999,9999,9999,1467716708
120,15,16,Jits_ISO_5,35,9999,9999,9999,1468216372
120,15,16,Jits_ISO_5,36,9999,9999,9999,1468716100
120,15,16,Jits_ISO_5,37,9999,9999,9999,1469216876
120,15,16,Jits_ISO_5,38,9999,9999,9999,1469716536
120,15,16,Jits_ISO_5,39,9999,9999,9999,1470216272
120,15,16,Jits_ISO_5,40,9999,9999,9999,1470717052
120,15,16,Jits_ISO_5,41,9999,9999,9999,1471216708
120,15,16,Jits_ISO_5,42,9999,9999,9999,1471716432
120,15,16,Jits_ISO_5,43,9999,9999,9999,1472216156
120,15,16,Jits_ISO_5,44,9999,9999,9999,1472716864
120,15,16,Jits_ISO_5,45,9999,9999,9999,1473216608
120,15,16,Jits_ISO_5,46,9999,9999,9999,1473716344
120,15,16,Jits_ISO_5,47,9999,9999,9999,1474217028
120,15,16,Jits_ISO_5,48,9999,9999,9999,1474716764
120,15,16,Jits_ISO_5,49,9999,9999,9999,1475216444
120,15,16,Jits_ISO_5,50,9999,9999,9999,1475716164
120,15,16,Jits_ISO_5,51,9999,9999,9999,1476216956
120,15,16,Jits_ISO_5,52,9999,9999,9999,1476716632
120,15,16,Jits_ISO_5,53,9999,9999,9999,1477216380
120,15,16,Jits_ISO_5,54,9999,9999,9999,1477717088
120,15,16,Jits_ISO_5,55,9999,9999,9999,1478216764
120,15,16,Jits_ISO_5,56,9999,9999,9999,1478716496
120,15,16,Jits_ISO_5,57,9999,9999,9999,1479216220
120,15,16,Jits_ISO_5,58,9999,9999,9999,1479716924
120,15,16,Jits_ISO_5,59,9999,9999,9999,1480216644
120,15,16,Jits_ISO_5,60,9999,9999,9999,1480716396
120,15,16,Jits_ISO_5,61,9999,9999,9999,1481216056
120,15,16,Jits_ISO_5,62,9999,9999,9999,1481716836
120,15,16,Jits_ISO_5,63,9999,9999,9999,1482216540
120,15,16,Jits_ISO_5,64,9999,9999,9999,1482716264
120,15,16,Jits_ISO_5,65,9999,9999,9999,1483217016
120,15,16,Jits_ISO_5,66,9999,9999,9999,1483716676
120,15,16,Jits_ISO_5,67,9999,9999,9999,1484216396
120,15,16,Jits_ISO_5,68,9999,9999,9999,1484716132
120,15,16,Jits_ISO_5,69,9999,9999,9999,1485216840
120,15,16,Jits_ISO_5,70,9999,9999,9999,1485716560
120,15,16,Jits_ISO_5,71,9999,9999,9999,1486216292
120,15,16,Jits_ISO_5,72,9999,9999,9999,1486717000
120,15,16,Jits_ISO_5,73,9999,9999,9999,1487216732
120,15,16,Jits_ISO_5,74,9999,9999,9999,1487716464
120,15,16,Jits_ISO_5,75,9999,9999,9999,1488216124
120,15,16,Jits_ISO_5,76,9999,9999,9999,1488716908
120,15,16,Jits_ISO_5,77,9999,9999,9999,1489216568
120,15,16,Jits_ISO_5,78,9999,9999,9999,1489716316
120,15,16,Jits_ISO_5,79,9999,9999,9999,1490217020
120,15,16,Jits_ISO_5,80,9999,9999,9999,1490716756
120,15,16,Jits_ISO_5,81,9999,9999,9999,1491216468
120,15,16,Jits_ISO_5,82,9999,9999,9999,1491716200
120,15,16,Jits_ISO_5,83,9999,9999,9999,1492216952
120,15,16,Jits_ISO_5,84,9999,9999,9999,1492716640
120,15,16,Jits_ISO_5,85,9999,9999,9999,1493216372
120,15,16,Jits_ISO_5,86,9999,9999,9999,1493717072
120,15,16,Jits_ISO_5,87,9999,9999,9999,1494216824
120,15,16,Jits_ISO_5,88,9999,9999,9999,1494716480
120,15,16,Jits_ISO_5,89,9999,9999,9999,1495216212
120,15,16,Jits_ISO_5,90,9999,9999,9999,1495716920
120,15,16,Jits_ISO_5,91,9999,9999,9999,1496216652
120,15,16,Jits_ISO_5,92,9999,9999,9999,1496716388
120,15,16,Jits_ISO_5,93,9999,9999,9999,1497216124
120,15,16,Jits_ISO_5,94,9999,9999,9999,1497716824
120,15,16,Jits_ISO_5,95,9999,9999,9999,1498216560
120,15,16,Jits_ISO_5,96,9999,9999,9999,1498716220
120,15,16,Jits_ISO_5,97,9999,9999,9999,1499216996
120,15,16,Jits_ISO_5,98,9999,9999,9999,1499716724
120,15,16,Jits_ISO_5,99,9999,9999,9999,1500216384
120,15,16,Jits_ISO_5,100,9999,9999,9999,1500716116
120,15,16,Jits_ISO_5,101,9999,9999,9999,1501216836
120,15,16,Jits_ISO_5,102,9999,9999,9999,1501716576
120,15,16,Jits_ISO_5,103,9999,9999,9999,1502216312
120,15,16,Jits_ISO_5,104,9999,9999,9999,1502717020
120,15,16,Jits_ISO_5,105,9999,9999,9999,1503216748
120,15,16,Jits_ISO_5,106,9999,9999,9999,1503716456
120,15,16,Jits_ISO_5,107,9999,9999,9999,1504216184
120,15,16,Jits_ISO_5,108,9999,9999,9999,1504716900
120,15,16,Jits_ISO_5,109,9999,9999,9999,1505216632
120,15,16,Jits_ISO_5,110,9999,9999,9999,1505716304
120,15,16,Jits_ISO_5,111,9999,9999,9999,1506217024
120,15,16,Jits_ISO_5,112,9999,9999,9999,1506716772
120,15,16,Jits_ISO_5,113,9999,9999,9999,1507216452
120,15,16,Jits_ISO_5,114,9999,9999,9999,1507716180
120,15,16,Jits_ISO_5,115,9999,9999,9999,1508216952
120,15,16,Jits_ISO_5,116,9999,9999,9999,1508716608
120,15,16,Jits_ISO_5,117,9999,9999,9999,1509216356
120,15,16,Jits_ISO_5,118,9999,9999,9999,1509717080
120,15,16,Jits_ISO_5,119,9999,9999,9999,1510216808
120,16,18,Jits_Linear_8,0,5,56,103,1519021776
120,16,18,Jits_Linear_8,1,5,63,98,1519024796
120,16,18,Jits_Linear_8,2,5,80,127,1519027840
120,16,18,Jits_Linear_8,0,5,56,103,1519840664
120,16,18,Jits_Linear_8,1,5,63,98,1519843840
120,16,18,Jits_Linear_8,2,5,80,127,1519847032
120,16,18,Jits_Linear_8,0,5,80,127,1520600528
120,16,18,Jits_Linear_8,1,5,63,98,1520690616
120,16,18,Jits_Linear_8,2,5,56,103,1520700736
120,16,18,Jits_Linear_8,0,5,56,103,1521441112
120,16,18,Jits_Linear_8,1,5,63,98,1521451456
120,16,18,Jits_Linear_8,2,5,80,127,1521540540
120,16,18,Jits_Linear_8,0,5,63,98,1522230572
120,16,18,Jits_Linear_8,1,5,80,127,1522261444
120,16,18,Jits_Linear_8,2,1,48,75,1522278660
120,16,18,Jits_Linear_8,3,5,56,103,1522290964
120,16,18,Jits_Linear_8,0,5,56,103,1523050848
120,16,18,Jits_Linear_8,1,1,48,79,1523069336
120,16,18,Jits_Linear_8,2,5,80,127,1523151464
120,16,18,Jits_Linear_8,3,5,63,98,1523201528
120,16,18,Jits_Linear_8,0,5,56,103,1523860960
120,16,18,Jits_Linear_8,1,5,80,127,1523910940
120,16,18,Jits_Linear_8,2,1,48,87,1523944924
120,16,18,Jits_Linear_8,3,5,63,98,1523950900
120,16,18,Jits_Linear_8,0,5,80,127,1524700512
120,16,18,Jits_Linear_8,1,5,63,98,1524731408
120,16,18,Jits_Linear_8,2,1,48,81,1524743444
120,16,18,Jits_Linear_8,3,5,56,103,1524800784
120,16,18,Jits_Linear_8,0,5,63,98,1525541436
120,16,18,Jits_Linear_8,1,1,48,85,1525571188
120,16,18,Jits_Linear_8,2,5,56,103,1525572680
120,16,18,Jits_Linear_8,3,5,80,127,1525631496
120,16,18,Jits_Linear_8,0,5,56,103,1526290920
120,16,18,Jits_Linear_8,1,5,80,127,1526293840
120,16,18,Jits_Linear_8,2,1,48,78,1526397124
120,16,18,Jits_Linear_8,3,5,63,98,1526410716
120,16,18,Jits_Linear_8,0,5,56,103,1527170320
120,16,18,Jits_Linear_8,1,1,48,69,1527176504
120,16,18,Jits_Linear_8,2,5,80,127,1527211448
120,16,18,Jits_Linear_8,3,5,63,98,1527220524
120,16,18,Jits_Linear_8,0,5,56,103,1527931352
120,16,18,Jits_Linear_8,1,5,80,127,1527950692
120,16,18,Jits_Linear_8,2,1,48,78,1527972464
120,16,18,Jits_Linear_8,3,5,63,98,1528030480
120,16,18,Jits_Linear_8,0,5,80,127,1528720860
120,16,18,Jits_Linear_8,1,1,48,63,1528781592
120,16,18,Jits_Linear_8,2,5,56,103,1528821276
120,16,18,Jits_Linear_8,3,5,63,98,1528831472
120,16,18,Jits_Linear_8,0,5,63,98,1529490888
120,16,18,Jits_Linear_8,1,5,80,127,1529551428
120,16,18,Jits_Linear_8,2,5,56,103,1529560504
120,16,18,Jits_Linear_8,3,1,48,76,1529611820
120,16,18,Jits_Linear_8,0,5,56,103,1530290564
120,16,18,Jits_Linear_8,1,5,63,98,1530361620
120,16,18,Jits_Linear_8,2,5,80,127,1530364756
120,16,18,Jits_Linear_8,3,1,48,65,1530376944
120,16,18,Jits_Linear_8,0,1,48,59,1531120696
120,16,18,Jits_Linear_8,1,5,63,98,1531122032
120,16,18,Jits_Linear_8,2,5,56,103,1531171408
120,16,18,Jits_Linear_8,3,5,80,127,1531174400
120,16,18,Jits_Linear_8,0,1,48,65,1531849884
120,16,18,Jits_Linear_8,1,5,56,103,1531870656
120,16,18,Jits_Linear_8,2,5,80,127,1531873648
120,16,18,Jits_Linear_8,3,5,63,98,1531960648
120,16,18,Jits_Linear_8,0,1,48,59,1532645864
120,16,18,Jits_Linear_8,1,5,63,98,1532700916
120,16,18,Jits_Linear_8,2,5,56,103,1532791408
120,16,18,Jits_Linear_8,3,5,80,127,1532820788
120,16,18,Jits_Linear_8,0,5,56,103,1533481500
120,16,18,Jits_Linear_8,1,1,48,57,1533505072
120,16,18,Jits_Linear_8,2,5,63,98,1533580700
120,16,18,Jits_Linear_8,3,5,80,127,1533611628
120,16,18,Jits_Linear_8,0,5,63,98,1534291468
120,16,18,Jits_Linear_8,1,1,48,59,1534292508
120,16,18,Jits_Linear_8,2,5,56,103,1534300536
120,16,18,Jits_Linear_8,3,5,80,127,1534390580
120,16,18,Jits_Linear_8,0,1,48,54,1535084824
120,16,18,Jits_Linear_8,1,5,63,98,1535091000
120,16,18,Jits_Linear_8,2,5,56,103,1535171016
120,16,18,Jits_Linear_8,3,5,80,127,1535174232
120,16,18,Jits_Linear_8,0,5,80,127,1535831344
120,16,18,Jits_Linear_8,1,5,63,98,1535850904
120,16,18,Jits_Linear_8,2,1,48,57,1535910996
120,16,18,Jits_Linear_8,3,5,56,103,1535912336
120,16,18,Jits_Linear_8,0,5,56,103,1536650524
120,16,18,Jits_Linear_8,1,5,63,98,1536671276
120,16,18,Jits_Linear_8,2,5,80,127,1536674568
120,16,18,Jits_Linear_8,3,1,48,50,1536690436
120,16,18,Jits_Linear_8,0,5,63,98,1537370560
120,16,18,Jits_Linear_8,1,1,48,65,1537431748
120,16,18,Jits_Linear_8,2,5,80,127,1537451400
120,16,18,Jits_Linear_8,3,5,56,103,1537460700
120,16,18,Jits_Linear_8,0,1,48,57,1538170684
120,16,18,Jits_Linear_8,1,5,63,98,1538172324
120,16,18,Jits_Linear_8,2,5,56,103,1538190692
120,16,18,Jits_Linear_8,3,5,80,127,1538240968
120,16,18,Jits_Linear_8,0,1,48,69,1538934892
120,16,18,Jits_Linear_8,1,5,80,127,1538950504
120,16,18,Jits_Linear_8,2,5,63,98,1538990520
120,16,18,Jits_Linear_8,3,5,56,103,1539011052
120,16,18,Jits_Linear_8,0,1,48,58,1539734044
120,16,18,Jits_Linear_8,1,5,56,103,1539760372
120,16,18,Jits_Linear_8,2,5,63,98,1539770864
120,16,18,Jits_Linear_8,3,5,80,127,1539791176
120,16,18,Jits_Linear_8,0,5,56,103,1540460860
120,16,18,Jits_Linear_8,1,1,48,62,1540528720
120,16,18,Jits_Linear_8,2,5,63,98,1540551212
120,16,18,Jits_Linear_8,3,5,80,127,1540610432
120,16,18,Jits_Linear_8,0,5,80,127,1541260780
120,16,18,Jits_Linear_8,1,5,56,103,1541270752
120,16,18,Jits_Linear_8,2,1,48,70,1541305636
120,16,18,Jits_Linear_8,3,5,63,98,1541340652
120,16,18,Jits_Linear_8,0,1,48,58,1542050480
120,16,18,Jits_Linear_8,1,5,63,98,1542061440
120,16,18,Jits_Linear_8,2,5,80,127,1542151588
120,16,18,Jits_Linear_8,3,5,56,103,1542160736
120,16,18,Jits_Linear_8,0,5,63,98,1542760964
120,16,18,Jits_Linear_8,1,5,80,127,1542811244
120,16,18,Jits_Linear_8,2,1,48,63,1542857736
120,16,18,Jits_Linear_8,3,5,56,103,1542871404
120,16,18,Jits_Linear_8,0,5,56,103,1543551200
120,16,18,Jits_Linear_8,1,1,48,62,1543590140
120,16,18,Jits_Linear_8,2,5,80,127,1543600424
120,16,18,Jits_Linear_8,3,5,63,98,1543621180
120,16,18,Jits_Linear_8,0,5,56,103,1544290804
120,16,18,Jits_Linear_8,1,1,48,73,1544326292
120,16,18,Jits_Linear_8,2,5,80,127,1544351192
120,16,18,Jits_Linear_8,3,5,63,98,1544420652
120,16,18,Jits_Linear_8,0,5,56,103,1545050492
120,16,18,Jits_Linear_8,1,5,80,127,1545081144
120,16,18,Jits_Linear_8,2,5,63,98,1545111040
120,16,18,Jits_Linear_8,3,1,48,63,1545117300
120,16,18,Jits_Linear_8,0,1,48,57,1545848116
120,16,18,Jits_Linear_8,1,5,56,103,1545851372
120,16,18,Jits_Linear_8,2,5,80,127,1545870636
120,16,18,Jits_Linear_8,3,5,63,98,1545931176
120,16,18,Jits_Linear_8,0,1,48,65,1546602928
120,16,18,Jits_Linear_8,1,5,80,127,1546691212
120,16,18,Jits_Linear_8,2,5,56,103,1546701764
120,16,18,Jits_Linear_8,3,5,63,98,1546711292
120,16,18,Jits_Linear_8,0,1,48,59,1547397816
120,16,18,Jits_Linear_8,1,5,56,103,1547400476
120,16,18,Jits_Linear_8,2,5,80,127,1547440488
120,16,18,Jits_Linear_8,3,5,63,98,1547471288
120,16,18,Jits_Linear_8,0,5,56,103,1548120448
120,16,18,Jits_Linear_8,1,5,63,98,1548151248
120,16,18,Jits_Linear_8,2,1,48,70,1548161788
120,16,18,Jits_Linear_8,3,5,80,127,1548191252
120,16,18,Jits_Linear_8,0,5,80,127,1548821092
120,16,18,Jits_Linear_8,1,1,48,62,1548842196
120,16,18,Jits_Linear_8,2,5,63,98,1548870992
120,16,18,Jits_Linear_8,3,5,56,103,1548890628
120,16,18,Jits_Linear_8,0,1,48,65,1549553168
120,16,18,Jits_Linear_8,1,5,56,103,1549601148
120,16,18,Jits_Linear_8,2,5,80,127,1549670668
120,16,18,Jits_Linear_8,3,5,63,98,1549731056
120,16,18,Jits_Linear_8,0,5,80,127,1550340604
120,16,18,Jits_Linear_8,1,1,48,67,1550363352
120,16,18,Jits_Linear_8,2,5,63,98,1550430436
120,16,18,Jits_Linear_8,3,5,56,103,1550451192
120,16,18,Jits_Linear_8,0,5,63,98,1551101340
120,16,18,Jits_Linear_8,1,1,48,65,1551120904
120,16,18,Jits_Linear_8,2,5,56,103,1551122240
120,16,18,Jits_Linear_8,3,5,80,127,1551160760
120,16,18,Jits_Linear_8,0,5,80,127,1551800828
120,16,18,Jits_Linear_8,1,5,63,98,1551821216
120,16,18,Jits_Linear_8,2,1,48,66,1551828596
120,16,18,Jits_Linear_8,3,5,56,103,1551901104
120,16,18,Jits_Linear_8,0,5,63,98,1552530992
120,16,18,Jits_Linear_8,1,1,48,65,1552557188
120,16,18,Jits_Linear_8,2,5,56,103,1552641452
120,16,18,Jits_Linear_8,3,5,80,127,1552644520
120,16,18,Jits_Linear_8,0,1,48,62,1553275856
120,16,18,Jits_Linear_8,1,5,63,98,1553290576
120,16,18,Jits_Linear_8,2,5,56,103,1553300920
120,16,18,Jits_Linear_8,3,5,80,127,1553303988
120,16,18,Jits_Linear_8,0,1,48,61,1553964640
120,16,18,Jits_Linear_8,1,5,56,103,1554010524
120,16,18,Jits_Linear_8,2,5,80,127,1554131288
120,16,18,Jits_Linear_8,3,5,63,98,1554171100
120,16,18,Jits_Linear_8,0,5,56,103,1554761068
120,16,18,Jits_Linear_8,1,1,48,57,1554768896
120,16,18,Jits_Linear_8,2,5,80,127,1554841156
120,16,18,Jits_Linear_8,3,5,63,98,1554861468
120,16,18,Jits_Linear_8,0,5,56,103,1555491164
120,16,18,Jits_Linear_8,1,1,48,62,1555504916
120,16,18,Jits_Linear_8,2,5,63,98,1555601280
120,16,18,Jits_Linear_8,3,5,80,127,1555604572
120,16,18,Jits_Linear_8,0,1,48,67,1556240408
120,16,18,Jits_Linear_8,1,5,56,103,1556250988
120,16,18,Jits_Linear_8,2,5,80,127,1556280668
120,16,18,Jits_Linear_8,3,5,63,98,1556301200
120,16,18,Jits_Linear_8,0,1,48,65,1556946916
120,16,18,Jits_Linear_8,1,5,63,98,1556960668
120,16,18,Jits_Linear_8,2,5,56,103,1556971112
120,16,18,Jits_Linear_8,3,5,80,127,1556981084
120,16,18,Jits_Linear_8,0,1,48,58,1557608904
120,16,18,Jits_Linear_8,1,5,80,127,1557671260
120,16,18,Jits_Linear_8,2,5,56,103,1557720404
120,16,18,Jits_Linear_8,3,5,63,98,1557761412
120,16,18,Jits_Linear_8,0,1,48,54,1558401912
120,16,18,Jits_Linear_8,1,5,80,127,1558410628
120,16,18,Jits_Linear_8,2,5,63,98,1558431016
120,16,18,Jits_Linear_8,3,5,56,103,1558481216
120,16,18,Jits_Linear_8,0,1,48,54,1559128088
120,16,18,Jits_Linear_8,1,5,80,127,1559141004
120,16,18,Jits_Linear_8,2,5,56,103,1559170532
120,16,18,Jits_Linear_8,3,5,63,98,1559240948
120,16,18,Jits_Linear_8,0,1,48,51,1559842440
120,16,18,Jits_Linear_8,1,5,56,103,1559911020
120,16,18,Jits_Linear_8,2,5,80,127,1559920996
120,16,18,Jits_Linear_8,3,5,63,98,1559961068
120,16,18,Jits_Linear_8,0,5,56,103,1560540616
120,16,18,Jits_Linear_8,1,5,63,98,1560560876
120,16,18,Jits_Linear_8,2,1,48,62,1560561844
120,16,18,Jits_Linear_8,3,5,80,127,1560630624
120,16,18,Jits_Linear_8,0,1,48,46,1561277180
120,16,18,Jits_Linear_8,1,5,63,98,1561281036
120,16,18,Jits_Linear_8,2,5,80,127,1561341232
120,16,18,Jits_Linear_8,3,5,56,103,1561360868
120,16,18,Jits_Linear_8,0,1,48,60,1561975348
120,16,18,Jits_Linear_8,1,5,80,127,1561981152
120,16,18,Jits_Linear_8,2,5,56,103,1562010976
120,16,18,Jits_Linear_8,3,5,63,98,1562040872
120,16,18,Jits_Linear_8,0,5,56,103,1562690856
120,16,18,Jits_Linear_8,1,1,48,39,1562699300
120,16,18,Jits_Linear_8,2,5,63,98,1562751316
120,16,18,Jits_Linear_8,3,5,80,127,1562810792
120,16,18,Jits_Linear_8,0,1,48,50,1563410204
120,16,18,Jits_Linear_8,1,5,80,127,1563420944
120,16,18,Jits_Linear_8,2,5,56,103,1563440360
120,16,18,Jits_Linear_8,3,5,63,98,1563511072
120,16,18,Jits_Linear_8,0,5,80,127,1564130780
120,16,18,Jits_Linear_8,1,1,48,44,1564133900
120,16,18,Jits_Linear_8,2,5,63,98,1564151108
120,16,18,Jits_Linear_8,3,5,56,103,1564180784
120,16,18,Jits_Linear_8,0,5,80,127,1564820792
120,16,18,Jits_Linear_8,1,1,48,65,1564825480
120,16,18,Jits_Linear_8,2,5,63,98,1564841392
120,16,18,Jits_Linear_8,3,5,56,103,1564901036
120,16,18,Jits_Linear_8,0,1,48,66,1565499760
120,16,18,Jits_Linear_8,1,5,80,127,1565521356
120,16,18,Jits_Linear_8,2,5,56,103,1565620768
120,16,18,Jits_Linear_8,3,5,63,98,1565651344
120,16,18,Jits_Linear_8,0,5,63,98,1566210392
120,16,18,Jits_Linear_8,1,1,48,59,1566229776
120,16,18,Jits_Linear_8,2,5,80,127,1566260740
120,16,18,Jits_Linear_8,3,5,56,103,1566281124
120,16,18,Jits_Linear_8,0,1,48,55,1566919068
120,16,18,Jits_Linear_8,1,5,80,127,1566950852
120,16,18,Jits_Linear_8,2,5,56,103,1566980480
120,16,18,Jits_Linear_8,3,5,63,98,1566983696
120,16,18,Jits_Linear_8,0,1,48,54,1567605000
120,16,18,Jits_Linear_8,1,5,63,98,1567680776
120,16,18,Jits_Linear_8,2,5,56,103,1567720928
120,16,18,Jits_Linear_8,3,5,80,127,1567741188
120,16,18,Jits_Linear_8,0,5,80,127,1568320816
120,16,18,Jits_Linear_8,1,1,48,57,1568330836
120,16,18,Jits_Linear_8,2,5,63,98,1568400832
120,16,18,Jits_Linear_8,3,5,56,103,1568440828
120,16,18,Jits_Linear_8,0,1,48,51,1569025552
120,16,18,Jits_Linear_8,1,5,63,98,1569030456
120,16,18,Jits_Linear_8,2,5,80,127,1569111376
120,16,18,Jits_Linear_8,3,5,56,103,1569130996
120,16,18,Jits_Linear_8,0,1,48,56,1569736808
120,16,18,Jits_Linear_8,1,5,56,103,1569760740
120,16,18,Jits_Linear_8,2,5,63,98,1569770888
120,16,18,Jits_Linear_8,3,5,80,127,1569810824
120,16,18,Jits_Linear_8,0,5,56,103,1570371028
120,16,18,Jits_Linear_8,1,5,80,127,1570374244
120,16,18,Jits_Linear_8,2,1,48,51,1570417748
120,16,18,Jits_Linear_8,3,5,63,98,1570511348
120,16,18,Jits_Linear_8,0,5,56,103,1571050844
120,16,18,Jits_Linear_8,1,1,48,53,1571104088
120,16,18,Jits_Linear_8,2,5,63,98,1571140976
120,16,18,Jits_Linear_8,3,5,80,127,1571210716
120,16,18,Jits_Linear_8,0,1,48,41,1571768832
120,16,18,Jits_Linear_8,1,5,63,98,1571810808
120,16,18,Jits_Linear_8,2,5,80,127,1571814172
120,16,18,Jits_Linear_8,3,5,56,103,1571871132
120,16,18,Jits_Linear_8,0,1,48,44,1572458680
120,16,18,Jits_Linear_8,1,5,80,127,1572530472
120,16,18,Jits_Linear_8,2,5,56,103,1572551160
120,16,18,Jits_Linear_8,3,5,63,98,1572561264
120,16,18,Jits_Linear_8,0,5,56,103,1573121288
120,16,18,Jits_Linear_8,1,5,63,98,1573130736
120,16,18,Jits_Linear_8,2,1,48,53,1573169524
120,16,18,Jits_Linear_8,3,5,80,127,1573201232
120,16,18,Jits_Linear_8,0,5,80,127,1573801228
120,16,18,Jits_Linear_8,1,1,48,55,1573807564
120,16,18,Jits_Linear_8,2,5,56,103,1573850752
120,16,18,Jits_Linear_8,3,5,63,98,1573901788
120,16,18,Jits_Linear_8,0,1,48,43,1574482592
120,16,18,Jits_Linear_8,1,5,56,103,1574561212
120,16,18,Jits_Linear_8,2,5,63,98,1574571484
120,16,18,Jits_Linear_8,3,5,80,127,1574611184
120,16,18,Jits_Linear_8,0,5,56,103,1575180944
120,16,18,Jits_Linear_8,1,1,48,38,1575188104
120,16,18,Jits_Linear_8,2,5,63,98,1575220804
120,16,18,Jits_Linear_8,3,5,80,127,1575270856
120,16,18,Jits_Linear_8,0,5,80,127,1575810624
120,16,18,Jits_Linear_8,1,1,48,52,1575827600
120,16,18,Jits_Linear_8,2,5,56,103,1575860824
120,16,18,Jits_Linear_8,3,5,63,98,1575881132
120,16,18,Jits_Linear_8,0,1,48,60,1576482996
120,16,18,Jits_Linear_8,1,5,80,127,1576491560
120,16,18,Jits_Linear_8,2,5,63,98,1576550980
120,16,18,Jits_Linear_8,3,5,56,103,1576630612
120,16,18,Jits_Linear_8,0,5,80,127,1577140636
120,16,18,Jits_Linear_8,1,5,56,103,1577180872
120,16,18,Jits_Linear_8,2,1,48,62,1577184068
120,16,18,Jits_Linear_8,3,5,63,98,1577201128
120,16,18,Jits_Linear_8,0,1,48,60,1577842372
120,16,18,Jits_Linear_8,1,5,56,103,1577860752
120,16,18,Jits_Linear_8,2,5,80,127,1577870952
120,16,18,Jits_Linear_8,3,5,63,98,1577910516
120,16,18,Jits_Linear_8,0,1,48,62,1578504796
120,16,18,Jits_Linear_8,1,5,56,103,1578590688
120,16,18,Jits_Linear_8,2,5,63,98,1578630760
120,16,18,Jits_Linear_8,3,5,80,127,1578633976
120,16,18,Jits_Linear_8,0,5,63,98,1579140564
120,16,18,Jits_Linear_8,1,5,80,127,1579181552
120,16,18,Jits_Linear_8,2,1,48,66,1579188652
120,16,18,Jits_Linear_8,3,5,56,103,1579250952
120,16,18,Jits_Linear_8,0,5,63,98,1579790700
120,16,18,Jits_Linear_8,1,1,48,56,1579833976
120,16,18,Jits_Linear_8,2,5,56,103,1579870792
120,16,18,Jits_Linear_8,3,5,80,127,1579930944
120,16,18,Jits_Linear_8,0,5,80,127,1580461716
120,16,18,Jits_Linear_8,1,1,48,63,1580466032
120,16,18,Jits_Linear_8,2,5,63,98,1580510644
120,16,18,Jits_Linear_8,3,5,56,103,1580541168
120,16,18,Jits_Linear_8,0,5,56,103,1581110596
120,16,18,Jits_Linear_8,1,1,48,59,1581128540
120,16,18,Jits_Linear_8,2,5,63,98,1581160796
120,16,18,Jits_Linear_8,3,5,80,127,1581170916
120,16,18,Jits_Linear_8,0,1,48,57,1581749976
120,16,18,Jits_Linear_8,1,5,56,103,1581781316
120,16,18,Jits_Linear_8,2,5,63,98,1581890872
120,16,18,Jits_Linear_8,3,5,80,127,1581911404
120,16,18,Jits_Linear_8,0,1,48,59,1582426856
120,16,18,Jits_Linear_8,1,5,63,98,1582430712
120,16,18,Jits_Linear_8,2,5,80,127,1582480692
120,16,18,Jits_Linear_8,3,5,56,103,1582570908
120,16,18,Jits_Linear_8,0,5,63,98,1583070788
120,16,18,Jits_Linear_8,1,5,80,127,1583101164
120,16,18,Jits_Linear_8,2,1,48,56,1583138216
120,16,18,Jits_Linear_8,3,5,56,103,1583191512
120,16,18,Jits_Linear_8,0,5,63,98,1583720704
120,16,18,Jits_Linear_8,1,5,56,103,1583731120
120,16,18,Jits_Linear_8,2,1,48,61,1583771032
120,16,18,Jits_Linear_8,3,5,80,127,1583831588
120,16,18,Jits_Linear_8,0,1,48,56,1584416648
120,16,18,Jits_Linear_8,1,5,63,98,1584471600
120,16,18,Jits_Linear_8,2,5,80,127,1584501056
120,16,18,Jits_Linear_8,3,5,56,103,1584530792
120,16,18,Jits_Linear_8,0,1,48,53,1585110840
120,16,18,Jits_Linear_8,1,5,80,127,1585130820
120,16,18,Jits_Linear_8,2,5,63,98,1585141240
120,16,18,Jits_Linear_8,3,5,56,103,1585170840
120,16,18,Jits_Linear_8,0,5,80,127,1585670588
120,16,18,Jits_Linear_8,1,5,63,98,1585690976
120,16,18,Jits_Linear_8,2,5,56,103,1585741252
120,16,18,Jits_Linear_8,3,1,48,46,1585795164
120,16,18,Jits_Linear_8,0,5,63,98,1586341468
120,16,18,Jits_Linear_8,1,1,48,63,1586395080
120,16,18,Jits_Linear_8,2,5,80,127,1586400584
120,16,18,Jits_Linear_8,3,5,56,103,1586421292
120,16,18,Jits_Linear_8,0,5,63,98,1586941488
120,16,18,Jits_Linear_8,1,5,56,103,1586990496
120,16,18,Jits_Linear_8,2,5,80,127,1587000840
120,16,18,Jits_Linear_8,3,1,48,56,1587041720
120,16,18,Jits_Linear_8,0,5,56,103,1587611008
120,16,18,Jits_Linear_8,1,5,80,127,1587621204
120,16,18,Jits_Linear_8,2,1,48,59,1587651220
120,16,18,Jits_Linear_8,3,5,63,98,1587720644
120,16,18,Jits_Linear_8,0,5,80,127,1588211040
120,16,18,Jits_Linear_8,1,5,63,98,1588221456
120,16,18,Jits_Linear_8,2,1,48,66,1588302644
120,16,18,Jits_Linear_8,3,5,56,103,1588370696
120,16,18,Jits_Linear_8,0,5,63,98,1588850980
120,16,18,Jits_Linear_8,1,5,80,127,1588890920
120,16,18,Jits_Linear_8,2,1,48,59,1588964688
120,16,18,Jits_Linear_8,3,5,56,103,1588970956
120,16,18,Jits_Linear_8,0,5,56,103,1589470528
120,16,18,Jits_Linear_8,1,5,80,127,1589570804
120,16,18,Jits_Linear_8,2,1,48,60,1589587476
120,16,18,Jits_Linear_8,3,5,63,98,1589591628
120,16,18,Jits_Linear_8,0,5,80,127,1590160692
120,16,18,Jits_Linear_8,1,5,56,103,1590170964
120,16,18,Jits_Linear_8,2,1,48,64,1590197824
120,16,18,Jits_Linear_8,3,5,63,98,1590261040
120,16,18,Jits_Linear_8,0,5,56,103,1590790548
120,16,18,Jits_Linear_8,1,5,63,98,1590810860
120,16,18,Jits_Linear_8,2,1,48,62,1590828596
120,16,18,Jits_Linear_8,3,5,80,127,1590890872
120,16,18,Jits_Linear_8,0,5,63,98,1591360964
120,16,18,Jits_Linear_8,1,5,56,103,1591450948
120,16,18,Jits_Linear_8,2,5,80,127,1591454016
120,16,18,Jits_Linear_8,3,1,48,60,1591462680
120,16,18,Jits_Linear_8,0,5,56,103,1592011068
120,16,18,Jits_Linear_8,1,1,48,57,1592067700
120,16,18,Jits_Linear_8,2,5,80,127,1592070508
120,16,18,Jits_Linear_8,3,5,63,98,1592080628
120,16,18,Jits_Linear_8,0,1,48,57,1592675800
120,16,18,Jits_Linear_8,1,5,80,127,1592680928
120,16,18,Jits_Linear_8,2,5,56,103,1592691196
120,16,18,Jits_Linear_8,3,5,63,98,1592694260
120,16,18,Jits_Linear_8,0,5,56,103,1593261364
120,16,18,Jits_Linear_8,1,5,80,127,1593270588
120,16,18,Jits_Linear_8,2,1,48,57,1593289608
120,16,18,Jits_Linear_8,3,5,63,98,1593290968
120,16,18,Jits_Linear_8,0,5,63,98,1593851584
120,16,18,Jits_Linear_8,1,1,48,63,1593868180
120,16,18,Jits_Linear_8,2,5,80,127,1593910624
120,16,18,Jits_Linear_8,3,5,56,103,1593960900
120,16,18,Jits_Linear_8,0,1,48,59,1594487956
120,16,18,Jits_Linear_8,1,5,63,98,1594550624
120,16,18,Jits_Linear_8,2,5,56,103,1594560896
120,16,18,Jits_Linear_8,3,5,80,127,1594611180
120,16,18,Jits_Linear_8,0,5,63,98,1595060500
120,16,18,Jits_Linear_8,1,5,80,127,1595081256
120,16,18,Jits_Linear_8,2,5,56,103,1595091528
120,16,18,Jits_Linear_8,3,1,48,58,1595119104
120,16,18,Jits_Linear_8,0,5,63,98,1595670920
120,16,18,Jits_Linear_8,1,5,80,127,1595674432
120,16,18,Jits_Linear_8,2,1,48,65,1595696884
120,16,18,Jits_Linear_8,3,5,56,103,1595710704
120,16,18,Jits_Linear_8,0,1,48,59,1596281960
120,16,18,Jits_Linear_8,1,5,63,98,1596350840
120,16,18,Jits_Linear_8,2,5,80,127,1596381624
120,16,18,Jits_Linear_8,3,5,56,103,1596390772
120,16,18,Jits_Linear_8,0,5,56,103,1596910936
120,16,18,Jits_Linear_8,1,1,48,62,1596920500
120,16,18,Jits_Linear_8,2,5,80,127,1596940680
120,16,18,Jits_Linear_8,3,5,63,98,1596971252
120,16,18,Jits_Linear_8,0,1,48,59,1597503116
120,16,18,Jits_Linear_8,1,5,63,98,1597611468
120,16,18,Jits_Linear_8,2,5,56,103,1597651332
120,16,18,Jits_Linear_8,3,5,80,127,1597654400
120,16,18,Jits_Linear_8,0,5,80,127,1598110940
120,16,18,Jits_Linear_8,1,1,48,59,1598187272
120,16,18,Jits_Linear_8,2,5,56,103,1598190980
120,16,18,Jits_Linear_8,3,5,63,98,1598241404
120,16,18,Jits_Linear_8,0,5,80,127,1598690648
120,16,18,Jits_Linear_8,1,5,56,103,1598711280
120,16,18,Jits_Linear_8,2,5,63,98,1598801488
120,16,18,Jits_Linear_8,3,1,48,62,1598825356
120,16,18,Jits_Linear_8,0,5,80,127,1599330540
120,16,18,Jits_Linear_8,1,5,63,98,1599370552
120,16,18,Jits_Linear_8,2,5,56,103,1599410492
120,16,18,Jits_Linear_8,3,1,48,66,1599448380
120,16,18,Jits_Linear_8,0,5,63,98,1599901176
120,16,18,Jits_Linear_8,1,5,80,127,1599960452
120,16,18,Jits_Linear_8,2,5,56,103,1599991348
120,16,18,Jits_Linear_8,3,1,48,77,1600021436
120,16,18,Jits_Linear_8,0,5,56,103,1600501344
120,16,18,Jits_Linear_8,1,5,80,127,1600530724
120,16,18,Jits_Linear_8,2,1,48,74,1600606808
120,16,18,Jits_Linear_8,3,5,63,98,1600620852
120,16,18,Jits_Linear_8,0,5,56,103,1601101276
120,16,18,Jits_Linear_8,1,1,48,69,1601204788
120,16,18,Jits_Linear_8,2,5,80,127,1601210740
120,16,18,Jits_Linear_8,3,5,63,98,1601240416
120,16,18,Jits_Linear_8,0,5,56,103,1601741376
120,16,18,Jits_Linear_8,1,1,48,67,1601778848
120,16,18,Jits_Linear_8,2,5,63,98,1601800520
120,16,18,Jits_Linear_8,3,5,80,127,1601831240
120,16,18,Jits_Linear_8,0,5,56,103,1602301408
120,16,18,Jits_Linear_8,1,1,48,78,1602356448
120,16,18,Jits_Linear_8,2,5,63,98,1602370792
120,16,18,Jits_Linear_8,3,5,80,127,1602391472
120,16,18,Jits_Linear_8,0,5,80,127,1602861416
120,16,18,Jits_Linear_8,1,5,63,98,1602880976
120,16,18,Jits_Linear_8,2,5,56,103,1602931252
120,16,18,Jits_Linear_8,3,1,48,77,1602949812
120,16,18,Jits_Linear_8,0,5,63,98,1603460600
120,16,18,Jits_Linear_8,1,5,80,127,1603470796
120,16,18,Jits_Linear_8,2,1,48,64,1603515568
120,16,18,Jits_Linear_8,3,5,56,103,1603520988
120,16,18,Jits_Linear_8,0,5,63,98,1604041036
120,16,18,Jits_Linear_8,1,1,48,64,1604096544
120,16,18,Jits_Linear_8,2,5,80,127,1604110812
120,16,18,Jits_Linear_8,3,5,56,103,1604131344
120,16,18,Jits_Linear_8,0,5,63,98,1604651392
120,16,18,Jits_Linear_8,1,5,80,127,1604654756
120,16,18,Jits_Linear_8,2,1,48,63,1604666192
120,16,18,Jits_Linear_8,3,5,56,103,1604721212
120,16,18,Jits_Linear_8,0,5,80,127,1605180652
120,16,18,Jits_Linear_8,1,5,56,103,1605201264
120,16,18,Jits_Linear_8,2,5,63,98,1605210412
120,16,18,Jits_Linear_8,3,1,48,78,1605246264
120,16,18,Jits_Linear_8,0,5,56,103,1605780880
120,16,18,Jits_Linear_8,1,1,48,73,1605789324
120,16,18,Jits_Linear_8,2,5,63,98,1605871336
120,16,18,Jits_Linear_8,3,5,80,127,1605874472
120,16,18,Jits_Linear_8,0,5,80,127,1606330756
120,16,18,Jits_Linear_8,1,5,56,103,1606341176
120,16,18,Jits_Linear_8,2,5,63,98,1606360368
120,16,18,Jits_Linear_8,3,1,48,68,1606381940
120,16,18,Jits_Linear_8,0,5,63,98,1606901112
120,16,18,Jits_Linear_8,1,1,48,60,1606958096
120,16,18,Jits_Linear_8,2,5,80,127,1606960452
120,16,18,Jits_Linear_8,3,5,56,103,1606970796
120,16,18,Jits_Linear_8,0,1,48,70,1607517400
120,16,18,Jits_Linear_8,1,5,63,98,1607541256
120,16,18,Jits_Linear_8,2,5,80,127,1607570860
120,16,18,Jits_Linear_8,3,5,56,103,1607610724
120,16,18,Jits_Linear_8,0,5,56,103,1608101332
120,16,18,Jits_Linear_8,1,5,80,127,1608110408
120,16,18,Jits_Linear_8,2,1,48,66,1608139008
120,16,18,Jits_Linear_8,3,5,63,98,1608151460
120,16,18,Jits_Linear_8,0,5,80,127,1608630616
120,16,18,Jits_Linear_8,1,1,48,76,1608691152
120,16,18,Jits_Linear_8,2,5,56,103,1608710508
120,16,18,Jits_Linear_8,3,5,63,98,1608720928
120,16,18,Jits_Linear_8,0,5,80,127,1609241216
120,16,18,Jits_Linear_8,1,1,48,70,1609256320
120,16,18,Jits_Linear_8,2,5,56,103,1609320860
120,16,18,Jits_Linear_8,3,5,63,98,1609331132
120,16,18,Jits_Linear_8,0,5,80,127,1609761292
120,16,18,Jits_Linear_8,1,5,56,103,1609811272
120,16,18,Jits_Linear_8,2,1,48,75,1609825852
120,16,18,Jits_Linear_8,3,5,63,98,1609860424
120,16,18,Jits_Linear_8,0,5,56,103,1610380632
120,16,18,Jits_Linear_8,1,5,63,98,1610383700
120,16,18,Jits_Linear_8,2,1,48,70,1610386524
120,16,18,Jits_Linear_8,3,5,80,127,1610430828
120,16,18,Jits_Linear_8,0,1,48,58,1610929668
120,16,18,Jits_Linear_8,1,5,56,103,1610961156
120,16,18,Jits_Linear_8,2,5,63,98,1610991080
120,16,18,Jits_Linear_8,3,5,80,127,1611001352
120,16,18,Jits_Linear_8,0,5,63,98,1611431176
120,16,18,Jits_Linear_8,1,5,56,103,1611501108
120,16,18,Jits_Linear_8,2,1,48,60,1611509856
120,16,18,Jits_Linear_8,3,5,80,127,1611551228
120,16,18,Jits_Linear_8,0,5,63,98,1612021240
120,16,18,Jits_Linear_8,1,1,48,59,1612030748
120,16,18,Jits_Linear_8,2,5,56,103,1612032268
120,16,18,Jits_Linear_8,3,5,80,127,1612035168
120,16,18,Jits_Linear_8,0,5,80,127,1612520828
120,16,18,Jits_Linear_8,1,1,48,59,1612562008
120,16,18,Jits_Linear_8,2,5,56,103,1612581212
120,16,18,Jits_Linear_8,3,5,63,98,1612671332
120,16,18,Jits_Linear_8,0,1,48,62,1613069436
120,16,18,Jits_Linear_8,1,5,80,127,1613071080
120,16,18,Jits_Linear_8,2,5,56,103,1613171020
120,16,18,Jits_Linear_8,3,5,63,98,1613210956
120,16,18,Jits_Linear_8,0,1,48,49,1613645880
120,16,18,Jits_Linear_8,1,5,56,103,1613670784
120,16,18,Jits_Linear_8,2,5,63,98,1613691244
120,16,18,Jits_Linear_8,3,5,80,127,1613731180
120,16,18,Jits_Linear_8,0,5,63,98,1614191140
120,16,18,Jits_Linear_8,1,1,48,61,1614204676
120,16,18,Jits_Linear_8,2,5,56,103,1614210328
120,16,18,Jits_Linear_8,3,5,80,127,1614310636
120,16,18,Jits_Linear_8,0,5,63,98,1614721440
120,16,18,Jits_Linear_8,1,1,48,45,1614757968
120,16,18,Jits_Linear_8,2,5,80,127,1614831372
120,16,18,Jits_Linear_8,3,5,56,103,1614860736
120,16,18,Jits_Linear_8,0,5,56,103,1615280532
120,16,18,Jits_Linear_8,1,1,48,60,1615296232
120,16,18,Jits_Linear_8,2,5,63,98,1615311100
120,16,18,Jits_Linear_8,3,5,80,127,1615361252
120,16,18,Jits_Linear_8,0,5,63,98,1615790484
120,16,18,Jits_Linear_8,1,5,56,103,1615821136
120,16,18,Jits_Linear_8,2,1,48,63,1615853272
120,16,18,Jits_Linear_8,3,5,80,127,1615871356
120,16,18,Jits_Linear_8,0,1,48,56,1616361204
120,16,18,Jits_Linear_8,1,5,56,103,1616362548
120,16,18,Jits_Linear_8,2,5,63,98,1616381436
120,16,18,Jits_Linear_8,3,5,80,127,1616461140
120,16,18,Jits_Linear_8,0,5,63,98,1616870748
120,16,18,Jits_Linear_8,1,1,48,59,1616892892
120,16,18,Jits_Linear_8,2,5,56,103,1616931132
120,16,18,Jits_Linear_8,3,5,80,127,1616961104
120,16,18,Jits_Linear_8,0,1,48,56,1617411520
120,16,18,Jits_Linear_8,1,5,56,103,1617451404
120,16,18,Jits_Linear_8,2,5,80,127,1617511032
120,16,18,Jits_Linear_8,3,5,63,98,1617550896
120,16,18,Jits_Linear_8,0,1,48,54,1617934496
120,16,18,Jits_Linear_8,1,5,63,98,1617961348
120,16,18,Jits_Linear_8,2,5,56,103,1618020620
120,16,18,Jits_Linear_8,3,5,80,127,1618091332
120,16,18,Jits_Linear_8,0,1,48,61,1618506920
120,16,18,Jits_Linear_8,1,5,56,103,1618570712
120,16,18,Jits_Linear_8,2,5,63,98,1618581132
120,16,18,Jits_Linear_8,3,5,80,127,1618584496
120,16,18,Jits_Linear_8,0,5,63,98,1619040796
120,16,18,Jits_Linear_8,1,1,48,57,1619085044
120,16,18,Jits_Linear_8,2,5,56,103,1619100952
120,16,18,Jits_Linear_8,3,5,80,127,1619104172
120,16,18,Jits_Linear_8,0,5,63,98,1619550504
120,16,18,Jits_Linear_8,1,5,80,127,1619581228
120,16,18,Jits_Linear_8,2,1,48,57,1619593492
120,16,18,Jits_Linear_8,3,5,56,103,1619600708
120,16,18,Jits_Linear_8,0,5,56,103,1620081196
120,16,18,Jits_Linear_8,1,1,48,56,1620125668
120,16,18,Jits_Linear_8,2,5,63,98,1620131244
120,16,18,Jits_Linear_8,3,5,80,127,1620211288
120,16,18,Jits_Linear_8,0,5,80,127,1620580964
120,16,18,Jits_Linear_8,1,5,63,98,1620620608
120,16,18,Jits_Linear_8,2,1,48,60,1620639096
120,16,18,Jits_Linear_8,3,5,56,103,1620641060
120,16,18,Jits_Linear_8,0,1,48,48,1621161540
120,16,18,Jits_Linear_8,1,5,56,103,1621170484
120,16,18,Jits_Linear_8,2,5,80,127,1621180900
120,16,18,Jits_Linear_8,3,5,63,98,1621201360
120,16,18,Jits_Linear_8,0,1,48,40,1621669400
120,16,18,Jits_Linear_8,1,5,56,103,1621671208
120,16,18,Jits_Linear_8,2,5,63,98,1621720368
120,16,18,Jits_Linear_8,3,5,80,127,1621751116
120,16,18,Jits_Linear_8,0,5,56,103,1622141376
120,16,18,Jits_Linear_8,1,5,63,98,1622150528
120,16,18,Jits_Linear_8,2,1,48,40,1622178436
120,16,18,Jits_Linear_8,3,5,80,127,1622200572
120,16,18,Jits_Linear_8,0,5,56,103,1622651252
120,16,18,Jits_Linear_8,1,5,80,127,1622654168
120,16,18,Jits_Linear_8,2,1,48,48,1622667024
120,16,18,Jits_Linear_8,3,5,63,98,1622810984
120,16,18,Jits_Linear_8,0,1,48,57,1623178936
120,16,18,Jits_Linear_8,1,5,63,98,1623180676
120,16,18,Jits_Linear_8,2,1,38,13,1623195032
120,16,18,Jits_Linear_8,3,5,56,103,1623251248
120,16,18,Jits_Linear_8,4,5,80,127,1623291108
120,16,18,Jits_Linear_8,0,1,48,58,1623685764
120,16,18,Jits_Linear_8,1,5,63,98,1623730452
120,16,18,Jits_Linear_8,2,5,56,103,1623820600
120,16,18,Jits_Linear_8,3,5,80,127,1623823816
120,16,18,Jits_Linear_8,0,5,56,103,1624221068
120,16,18,Jits_Linear_8,1,1,48,52,1624226280
120,16,18,Jits_Linear_8,2,5,63,98,1624311148
120,16,18,Jits_Linear_8,3,5,80,127,1624321272
120,16,18,Jits_Linear_8,0,5,56,103,1624701360
120,16,18,Jits_Linear_8,1,5,63,98,1624750444
120,16,18,Jits_Linear_8,2,5,80,127,1624781164
120,16,18,Jits_Linear_8,3,1,48,57,1624790212
120,16,18,Jits_Linear_8,0,5,63,98,1625281068
120,16,18,Jits_Linear_8,1,1,48,59,1625286208
120,16,18,Jits_Linear_8,2,5,80,127,1625291036
120,16,18,Jits_Linear_8,3,5,56,103,1625350404
120,16,18,Jits_Linear_8,0,5,63,98,1625700740
120,16,18,Jits_Linear_8,1,5,80,127,1625761132
120,16,18,Jits_Linear_8,2,1,48,57,1625788760
120,16,18,Jits_Linear_8,3,5,56,103,1625800992
120,16,18,Jits_Linear_8,0,5,56,103,1626300888
120,16,18,Jits_Linear_8,1,1,48,60,1626306100
120,16,18,Jits_Linear_8,2,5,80,127,1626321268
120,16,18,Jits_Linear_8,3,5,63,98,1626340980
120,16,18,Jits_Linear_8,0,5,63,98,1626720496
120,16,18,Jits_Linear_8,1,5,56,103,1626741028
120,16,18,Jits_Linear_8,2,5,80,127,1626780968
120,16,18,Jits_Linear_8,3,1,48,61,1626824016
120,16,18,Jits_Linear_8,0,5,63,98,1627230436
120,16,18,Jits_Linear_8,1,5,80,127,1627261308
120,16,18,Jits_Linear_8,2,5,56,103,1627281092
120,16,18,Jits_Linear_8,3,1,48,52,1627321000
120,16,18,Jits_Linear_8,0,5,80,127,1627700592
120,16,18,Jits_Linear_8,1,5,56,103,1627750868
120,16,18,Jits_Linear_8,2,1,48,56,1627781564
120,16,18,Jits_Linear_8,3,5,63,98,1627811256
120,16,18,Jits_Linear_8,0,5,63,98,1628181028
120,16,18,Jits_Linear_8,1,1,48,62,1628274200
120,16,18,Jits_Linear_8,2,1,38,15,1628290148
120,16,18,Jits_Linear_8,3,5,56,103,1628300660
120,16,18,Jits_Linear_8,4,5,80,127,1628331308
120,16,18,Jits_Linear_8,0,5,80,127,1628711224
120,16,18,Jits_Linear_8,1,5,63,98,1628731012
120,16,18,Jits_Linear_8,2,1,48,64,1628773764
120,16,18,Jits_Linear_8,3,5,56,103,1628801360
120,16,18,Jits_Linear_8,0,5,63,98,1629221184
120,16,18,Jits_Linear_8,1,5,56,103,1629230332
120,16,18,Jits_Linear_8,2,1,48,59,1629277796
120,16,18,Jits_Linear_8,3,5,80,127,1629311316
120,16,18,Jits_Linear_8,0,1,48,62,1629770992
120,16,18,Jits_Linear_8,1,5,56,103,1629772328
120,16,18,Jits_Linear_8,2,5,80,127,1629800812
120,16,18,Jits_Linear_8,3,5,63,98,1629811156
120,16,18,Jits_Linear_8,0,9999,9999,9999,1519428732
120,16,18,Jits_Linear_8,1,9999,9999,9999,1520248896
120,16,18,Jits_Linear_8,2,9999,9999,9999,1521068104
120,16,18,Jits_Linear_8,3,9999,9999,9999,1521888356
120,16,18,Jits_Linear_8,4,9999,9999,9999,1522708536
120,16,18,Jits_Linear_8,5,9999,9999,9999,1523518556
120,16,18,Jits_Linear_8,6,9999,9999,9999,1524328516
120,16,18,Jits_Linear_8,7,9999,9999,9999,1525138544
120,16,18,Jits_Linear_8,8,9999,9999,9999,1525948508
120,16,18,Jits_Linear_8,9,9999,9999,9999,1526758512
120,16,18,Jits_Linear_8,10,9999,9999,9999,1527558232
120,16,18,Jits_Linear_8,11,9999,9999,9999,1528358976
120,16,18,Jits_Linear_8,12,9999,9999,9999,1529158748
120,16,18,Jits_Linear_8,13,9999,9999,9999,1529958516
120,16,18,Jits_Linear_8,14,9999,9999,9999,1530758256
120,16,18,Jits_Linear_8,15,9999,9999,9999,1531548728
120,16,18,Jits_Linear_8,16,9999,9999,9999,1532338280
120,16,18,Jits_Linear_8,17,9999,9999,9999,1533128824
120,16,18,Jits_Linear_8,18,9999,9999,9999,1533918320
120,16,18,Jits_Linear_8,19,9999,9999,9999,1534708828
120,16,18,Jits_Linear_8,20,9999,9999,9999,1535488056
120,16,18,Jits_Linear_8,21,9999,9999,9999,1536268404
120,16,18,Jits_Linear_8,22,9999,9999,9999,1537048688
120,16,18,Jits_Linear_8,23,9999,9999,9999,1537828976
120,16,18,Jits_Linear_8,24,9999,9999,9999,1538608196
120,16,18,Jits_Linear_8,25,9999,9999,9999,1539378280
120,16,18,Jits_Linear_8,26,9999,9999,9999,1540148292
120,16,18,Jits_Linear_8,27,9999,9999,9999,1540918380
120,16,18,Jits_Linear_8,28,9999,9999,9999,1541688404
120,16,18,Jits_Linear_8,29,9999,9999,9999,1542458436
120,16,18,Jits_Linear_8,30,9999,9999,9999,1543218256
120,16,18,Jits_Linear_8,31,9999,9999,9999,1543979124
120,16,18,Jits_Linear_8,32,9999,9999,9999,1544748100
120,16,18,Jits_Linear_8,33,9999,9999,9999,1545508976
120,16,18,Jits_Linear_8,34,9999,9999,9999,1546268740
120,16,18,Jits_Linear_8,35,9999,9999,9999,1547018308
120,16,18,Jits_Linear_8,36,9999,9999,9999,1547768920
120,16,18,Jits_Linear_8,37,9999,9999,9999,1548518456
120,16,18,Jits_Linear_8,38,9999,9999,9999,1549269064
120,16,18,Jits_Linear_8,39,9999,9999,9999,1550018640
120,16,18,Jits_Linear_8,40,9999,9999,9999,1550758988
120,16,18,Jits_Linear_8,41,9999,9999,9999,1551498300
120,16,18,Jits_Linear_8,42,9999,9999,9999,1552238712
120,16,18,Jits_Linear_8,43,9999,9999,9999,1552979064
120,16,18,Jits_Linear_8,44,9999,9999,9999,1553718340
120,16,18,Jits_Linear_8,45,9999,9999,9999,1554448500
120,16,18,Jits_Linear_8,46,9999,9999,9999,1555178580
120,16,18,Jits_Linear_8,47,9999,9999,9999,1555908716
120,16,18,Jits_Linear_8,48,9999,9999,9999,1556638816
120,16,18,Jits_Linear_8,49,9999,9999,9999,1557368888
120,16,18,Jits_Linear_8,50,9999,9999,9999,1558088776
120,16,18,Jits_Linear_8,51,9999,9999,9999,1558808664
120,16,18,Jits_Linear_8,52,9999,9999,9999,1559528532
120,16,18,Jits_Linear_8,53,9999,9999,9999,1560248428
120,16,18,Jits_Linear_8,54,9999,9999,9999,1560968312
120,16,18,Jits_Linear_8,55,9999,9999,9999,1561678928
120,16,18,Jits_Linear_8,56,9999,9999,9999,1562388552
120,16,18,Jits_Linear_8,57,9999,9999,9999,1563098228
120,16,18,Jits_Linear_8,58,9999,9999,9999,1563808848
120,16,18,Jits_Linear_8,59,9999,9999,9999,1564518472
120,16,18,Jits_Linear_8,60,9999,9999,9999,1565218896
120,16,18,Jits_Linear_8,61,9999,9999,9999,1565918328
120,16,18,Jits_Linear_8,62,9999,9999,9999,1566618736
120,16,18,Jits_Linear_8,63,9999,9999,9999,1567318092
120,16,18,Jits_Linear_8,64,9999,9999,9999,1568018512
120,16,18,Jits_Linear_8,65,9999,9999,9999,1568708712
120,16,18,Jits_Linear_8,66,9999,9999,9999,1569398880
120,16,18,Jits_Linear_8,67,9999,9999,9999,1570089028
120,16,18,Jits_Linear_8,68,9999,9999,9999,1570778172
120,16,18,Jits_Linear_8,69,9999,9999,9999,1571468412
120,16,18,Jits_Linear_8,70,9999,9999,9999,1572148308
120,16,18,Jits_Linear_8,71,9999,9999,9999,1572828252
120,16,18,Jits_Linear_8,72,9999,9999,9999,1573508208
120,16,18,Jits_Linear_8,73,9999,9999,9999,1574188100
120,16,18,Jits_Linear_8,74,9999,9999,9999,1574869104
120,16,18,Jits_Linear_8,75,9999,9999,9999,1575538800
120,16,18,Jits_Linear_8,76,9999,9999,9999,1576208504
120,16,18,Jits_Linear_8,77,9999,9999,9999,1576878196
120,16,18,Jits_Linear_8,78,9999,9999,9999,1577548856
120,16,18,Jits_Linear_8,79,9999,9999,9999,1578218564
120,16,18,Jits_Linear_8,80,9999,9999,9999,1578879092
120,16,18,Jits_Linear_8,81,9999,9999,9999,1579538520
120,16,18,Jits_Linear_8,82,9999,9999,9999,1580198976
120,16,18,Jits_Linear_8,83,9999,9999,9999,1580858476
120,16,18,Jits_Linear_8,84,9999,9999,9999,1581518944
120,16,18,Jits_Linear_8,85,9999,9999,9999,1582168124
120,16,18,Jits_Linear_8,86,9999,9999,9999,1582818392
120,16,18,Jits_Linear_8,87,9999,9999,9999,1583468596
120,16,18,Jits_Linear_8,88,9999,9999,9999,1584118884
120,16,18,Jits_Linear_8,89,9999,9999,9999,1584768108
120,16,18,Jits_Linear_8,90,9999,9999,9999,1585408068
120,16,18,Jits_Linear_8,91,9999,9999,9999,1586048068
120,16,18,Jits_Linear_8,92,9999,9999,9999,1586688112
120,16,18,Jits_Linear_8,93,9999,9999,9999,1587328112
120,16,18,Jits_Linear_8,94,9999,9999,9999,1587968064
120,16,18,Jits_Linear_8,95,9999,9999,9999,1588598860
120,16,18,Jits_Linear_8,96,9999,9999,9999,1589228636
120,16,18,Jits_Linear_8,97,9999,9999,9999,1589858376
120,16,18,Jits_Linear_8,98,9999,9999,9999,1590488132
120,16,18,Jits_Linear_8,99,9999,9999,9999,1591118960
120,16,18,Jits_Linear_8,100,9999,9999,9999,1591738436
120,16,18,Jits_Linear_8,101,9999,9999,9999,1592358984
120,16,18,Jits_Linear_8,102,9999,9999,9999,1592978544
120,16,18,Jits_Linear_8,103,9999,9999,9999,1593599088
120,16,18,Jits_Linear_8,104,9999,9999,9999,1594218580
120,16,18,Jits_Linear_8,105,9999,9999,9999,1594828924
120,16,18,Jits_Linear_8,106,9999,9999,9999,1595438152
120,16,18,Jits_Linear_8,107,9999,9999,9999,1596048468
120,16,18,Jits_Linear_8,108,9999,9999,9999,1596658756
120,16,18,Jits_Linear_8,109,9999,9999,9999,1597269084
120,16,18,Jits_Linear_8,110,9999,9999,9999,1597868128
120,16,18,Jits_Linear_8,111,9999,9999,9999,1598468148
120,16,18,Jits_Linear_8,112,9999,9999,9999,1599068228
120,16,18,Jits_Linear_8,113,9999,9999,9999,1599668312
120,16,18,Jits_Linear_8,114,9999,9999,9999,1600268348
120,16,18,Jits_Linear_8,115,9999,9999,9999,1600858228
120,16,18,Jits_Linear_8,116,9999,9999,9999,1601449028
120,16,18,Jits_Linear_8,117,9999,9999,9999,1602038876
120,16,18,Jits_Linear_8,118,9999,9999,9999,1602628704
120,16,18,Jits_Linear_8,119,9999,9999,9999,1603218520
120,16,18,Jits_Linear_8,120,9999,9999,9999,1603798076
120,16,18,Jits_Linear_8,121,9999,9999,9999,1604378688
120,16,18,Jits_Linear_8,122,9999,9999,9999,1604958296
120,16,18,Jits_Linear_8,123,9999,9999,9999,1605538876
120,16,18,Jits_Linear_8,124,9999,9999,9999,1606118500
120,16,18,Jits_Linear_8,125,9999,9999,9999,1606688856
120,16,18,Jits_Linear_8,126,9999,9999,9999,1607258216
120,16,18,Jits_Linear_8,127,9999,9999,9999,1607828552
120,16,18,Jits_Linear_8,128,9999,9999,9999,1608398952
120,16,18,Jits_Linear_8,129,9999,9999,9999,1608968272
120,16,18,Jits_Linear_8,130,9999,9999,9999,1609528432
120,16,18,Jits_Linear_8,131,9999,9999,9999,1610088508
120,16,18,Jits_Linear_8,132,9999,9999,9999,1610648652
120,16,18,Jits_Linear_8,133,9999,9999,9999,1611208816
120,16,18,Jits_Linear_8,134,9999,9999,9999,1611768908
120,16,18,Jits_Linear_8,135,9999,9999,9999,1612318776
120,16,18,Jits_Linear_8,136,9999,9999,9999,1612868724
120,16,18,Jits_Linear_8,137,9999,9999,9999,1613418612
120,16,18,Jits_Linear_8,138,9999,9999,9999,1613968488
120,16,18,Jits_Linear_8,139,9999,9999,9999,1614518336
120,16,18,Jits_Linear_8,140,9999,9999,9999,1615058996
120,16,18,Jits_Linear_8,141,9999,9999,9999,1615598704
120,16,18,Jits_Linear_8,142,9999,9999,9999,1616138324
120,16,18,Jits_Linear_8,143,9999,9999,9999,1616678980
120,16,18,Jits_Linear_8,144,9999,9999,9999,1617218636
120,16,18,Jits_Linear_8,145,9999,9999,9999,1617749108
120,16,18,Jits_Linear_8,146,9999,9999,9999,1618278460
120,16,18,Jits_Linear_8,147,9999,9999,9999,1618808924
120,16,18,Jits_Linear_8,148,9999,9999,9999,1619338336
120,16,18,Jits_Linear_8,149,9999,9999,9999,1619868728
120,16,18,Jits_Linear_8,150,9999,9999,9999,1620388940
120,16,18,Jits_Linear_8,151,9999,9999,9999,1620908108
120,16,18,Jits_Linear_8,152,9999,9999,9999,1621428328
120,16,18,Jits_Linear_8,153,9999,9999,9999,1621948540
120,16,18,Jits_Linear_8,154,9999,9999,9999,1622468664
120,16,18,Jits_Linear_8,155,9999,9999,9999,1622978684
120,16,18,Jits_Linear_8,156,9999,9999,9999,1623488624
120,16,18,Jits_Linear_8,157,9999,9999,9999,1623998560
120,16,18,Jits_Linear_8,158,9999,9999,9999,1624508508
120,16,18,Jits_Linear_8,159,9999,9999,9999,1625018460
120,16,18,Jits_Linear_8,160,9999,9999,9999,1625518164
120,16,18,Jits_Linear_8,161,9999,9999,9999,1626018888
120,16,18,Jits_Linear_8,162,9999,9999,9999,1626518652
120,16,18,Jits_Linear_8,163,9999,9999,9999,1627018340
120,16,18,Jits_Linear_8,164,9999,9999,9999,1627519064
120,16,18,Jits_Linear_8,165,9999,9999,9999,1628008556
120,16,18,Jits_Linear_8,166,9999,9999,9999,1628499060
120,16,18,Jits_Linear_8,167,9999,9999,9999,1628988472
120,16,18,Jits_Linear_8,168,9999,9999,9999,1629479028
120,16,18,Jits_Linear_8,169,9999,9999,9999,1629968452
120,17,19,Jits_Linear_5,0,5,56,103,1638454816
120,17,19,Jits_Linear_5,1,5,63,98,1638457916
120,17,19,Jits_Linear_5,2,5,80,127,1638460960
120,17,19,Jits_Linear_5,0,5,56,103,1638934824
120,17,19,Jits_Linear_5,1,5,63,98,1638937996
120,17,19,Jits_Linear_5,2,5,80,127,1638940968
120,17,19,Jits_Linear_5,0,5,56,103,1639415148
120,17,19,Jits_Linear_5,1,5,80,127,1639425792
120,17,19,Jits_Linear_5,2,5,63,98,1639444908
120,17,19,Jits_Linear_5,0,5,63,98,1639845180
120,17,19,Jits_Linear_5,1,5,80,127,1639874784
120,17,19,Jits_Linear_5,2,5,56,103,1639885204
120,17,19,Jits_Linear_5,0,5,80,127,1640384836
120,17,19,Jits_Linear_5,1,5,56,103,1640395256
120,17,19,Jits_Linear_5,2,5,63,98,1640424956
120,17,19,Jits_Linear_5,0,5,63,98,1640865168
120,17,19,Jits_Linear_5,1,5,56,103,1640894772
120,17,19,Jits_Linear_5,2,5,80,127,1640905116
120,17,19,Jits_Linear_5,0,5,56,103,1641304504
120,17,19,Jits_Linear_5,1,5,63,98,1641354636
120,17,19,Jits_Linear_5,2,5,80,127,1641375092
120,17,19,Jits_Linear_5,0,5,80,127,1641794800
120,17,19,Jits_Linear_5,1,5,63,98,1641845228
120,17,19,Jits_Linear_5,2,5,56,103,1641885168
120,17,19,Jits_Linear_5,0,5,56,103,1642285392
120,17,19,Jits_Linear_5,1,5,63,98,1642315068
120,17,19,Jits_Linear_5,2,5,80,127,1642384824
120,17,19,Jits_Linear_5,0,5,56,103,1642775012
120,17,19,Jits_Linear_5,1,5,80,127,1642835256
120,17,19,Jits_Linear_5,2,5,63,98,1642865008
120,17,19,Jits_Linear_5,0,5,56,103,1643274824
120,17,19,Jits_Linear_5,1,5,63,98,1643284800
120,17,19,Jits_Linear_5,2,5,80,127,1643324664
120,17,19,Jits_Linear_5,0,5,63,98,1643775452
120,17,19,Jits_Linear_5,1,5,80,127,1643855108
120,17,19,Jits_Linear_5,2,5,56,103,1643864552
120,17,19,Jits_Linear_5,0,5,63,98,1644325228
120,17,19,Jits_Linear_5,1,1,48,94,1644365168
120,17,19,Jits_Linear_5,2,5,56,103,1644366904
120,17,19,Jits_Linear_5,3,5,80,127,1644369496
120,17,19,Jits_Linear_5,0,5,56,103,1644785048
120,17,19,Jits_Linear_5,1,5,63,98,1644795544
120,17,19,Jits_Linear_5,2,5,80,127,1644835036
120,17,19,Jits_Linear_5,3,1,48,78,1644850812
120,17,19,Jits_Linear_5,0,5,56,103,1645274756
120,17,19,Jits_Linear_5,1,5,63,98,1645277672
120,17,19,Jits_Linear_5,2,5,80,127,1645295020
120,17,19,Jits_Linear_5,3,1,48,75,1645328176
120,17,19,Jits_Linear_5,0,5,80,127,1645794752
120,17,19,Jits_Linear_5,1,5,56,103,1645804828
120,17,19,Jits_Linear_5,2,1,48,80,1645818960
120,17,19,Jits_Linear_5,3,5,63,98,1645874504
120,17,19,Jits_Linear_5,0,5,63,98,1646295356
120,17,19,Jits_Linear_5,1,5,56,103,1646314792
120,17,19,Jits_Linear_5,2,1,48,69,1646318736
120,17,19,Jits_Linear_5,3,5,80,127,1646394732
120,17,19,Jits_Linear_5,0,1,48,78,1646813692
120,17,19,Jits_Linear_5,1,5,56,103,1646815184
120,17,19,Jits_Linear_5,2,5,80,127,1646854704
120,17,19,Jits_Linear_5,3,5,63,98,1646864752
120,17,19,Jits_Linear_5,0,1,48,73,1647307804
120,17,19,Jits_Linear_5,1,5,80,127,1647315320
120,17,19,Jits_Linear_5,2,5,63,98,1647345096
120,17,19,Jits_Linear_5,3,5,56,103,1647384964
120,17,19,Jits_Linear_5,0,1,48,66,1647823748
120,17,19,Jits_Linear_5,1,5,56,103,1647844752
120,17,19,Jits_Linear_5,2,5,63,98,1647874604
120,17,19,Jits_Linear_5,3,5,80,127,1647924716
120,17,19,Jits_Linear_5,0,1,48,69,1648335876
120,17,19,Jits_Linear_5,1,5,80,127,1648354632
120,17,19,Jits_Linear_5,2,5,56,103,1648394524
120,17,19,Jits_Linear_5,3,5,63,98,1648404792
120,17,19,Jits_Linear_5,0,1,48,73,1648838476
120,17,19,Jits_Linear_5,1,5,80,127,1648855512
120,17,19,Jits_Linear_5,2,5,63,98,1648895480
120,17,19,Jits_Linear_5,3,5,56,103,1648954808
120,17,19,Jits_Linear_5,0,1,48,63,1649362576
120,17,19,Jits_Linear_5,1,5,56,103,1649374680
120,17,19,Jits_Linear_5,2,5,80,127,1649384900
120,17,19,Jits_Linear_5,3,5,63,98,1649464684
120,17,19,Jits_Linear_5,0,1,48,59,1649878900
120,17,19,Jits_Linear_5,1,5,80,127,1649894840
120,17,19,Jits_Linear_5,2,5,63,98,1649955088
120,17,19,Jits_Linear_5,3,5,56,103,1649984896
120,17,19,Jits_Linear_5,0,5,56,103,1650414988
120,17,19,Jits_Linear_5,1,1,48,57,1650418108
120,17,19,Jits_Linear_5,2,5,80,127,1650475600
120,17,19,Jits_Linear_5,3,5,63,98,1650515524
120,17,19,Jits_Linear_5,0,1,48,65,1650937432
120,17,19,Jits_Linear_5,1,5,56,103,1650994480
120,17,19,Jits_Linear_5,2,5,63,98,1651004896
120,17,19,Jits_Linear_5,3,5,80,127,1651008188
120,17,19,Jits_Linear_5,0,1,48,65,1651438160
120,17,19,Jits_Linear_5,1,5,80,127,1651474752
120,17,19,Jits_Linear_5,2,5,63,98,1651564952
120,17,19,Jits_Linear_5,3,5,56,103,1651575444
120,17,19,Jits_Linear_5,0,1,48,69,1651972476
120,17,19,Jits_Linear_5,1,5,56,103,1652005144
120,17,19,Jits_Linear_5,2,5,63,98,1652008540
120,17,19,Jits_Linear_5,3,5,80,127,1652011584
120,17,19,Jits_Linear_5,0,1,48,71,1652510928
120,17,19,Jits_Linear_5,1,5,80,127,1652555020
120,17,19,Jits_Linear_5,2,5,63,98,1652606032
120,17,19,Jits_Linear_5,3,5,56,103,1652635108
120,17,19,Jits_Linear_5,0,1,48,72,1653044044
120,17,19,Jits_Linear_5,1,5,56,103,1653065044
120,17,19,Jits_Linear_5,2,5,80,127,1653075464
120,17,19,Jits_Linear_5,3,5,63,98,1653144908
120,17,19,Jits_Linear_5,0,1,48,61,1653546344
120,17,19,Jits_Linear_5,1,5,56,103,1653604664
120,17,19,Jits_Linear_5,2,5,63,98,1653625124
120,17,19,Jits_Linear_5,3,5,80,127,1653684528
120,17,19,Jits_Linear_5,0,1,48,68,1654091348
120,17,19,Jits_Linear_5,1,5,80,127,1654135140
120,17,19,Jits_Linear_5,2,5,63,98,1654204812
120,17,19,Jits_Linear_5,3,5,56,103,1654225348
120,17,19,Jits_Linear_5,0,1,48,62,1654645292
120,17,19,Jits_Linear_5,1,5,80,127,1654695516
120,17,19,Jits_Linear_5,2,5,56,103,1654704592
120,17,19,Jits_Linear_5,3,5,63,98,1654714716
120,17,19,Jits_Linear_5,0,1,48,64,1655170816
120,17,19,Jits_Linear_5,1,5,80,127,1655224648
120,17,19,Jits_Linear_5,2,5,56,103,1655245108
120,17,19,Jits_Linear_5,3,5,63,98,1655314728
120,17,19,Jits_Linear_5,0,1,48,63,1655741456
120,17,19,Jits_Linear_5,1,5,56,103,1655774532
120,17,19,Jits_Linear_5,2,5,80,127,1655805432
120,17,19,Jits_Linear_5,3,5,63,98,1655824844
120,17,19,Jits_Linear_5,0,1,48,65,1656271188
120,17,19,Jits_Linear_5,1,5,63,98,1656315452
120,17,19,Jits_Linear_5,2,5,56,103,1656374632
120,17,19,Jits_Linear_5,3,5,80,127,1656405504
120,17,19,Jits_Linear_5,0,1,48,56,1656831884
120,17,19,Jits_Linear_5,1,5,63,98,1656854772
120,17,19,Jits_Linear_5,2,5,80,127,1656858140
120,17,19,Jits_Linear_5,3,5,56,103,1656944896
120,17,19,Jits_Linear_5,0,1,48,56,1657398552
120,17,19,Jits_Linear_5,1,5,56,103,1657425404
120,17,19,Jits_Linear_5,2,5,63,98,1657454932
120,17,19,Jits_Linear_5,3,5,80,127,1657494872
120,17,19,Jits_Linear_5,0,1,48,52,1657949636
120,17,19,Jits_Linear_5,1,5,63,98,1657975288
120,17,19,Jits_Linear_5,2,5,56,103,1658015380
120,17,19,Jits_Linear_5,3,5,80,127,1658034492
120,17,19,Jits_Linear_5,0,1,48,53,1658520796
120,17,19,Jits_Linear_5,1,5,63,98,1658535216
120,17,19,Jits_Linear_5,2,5,56,103,1658575380
120,17,19,Jits_Linear_5,3,5,80,127,1658584308
120,17,19,Jits_Linear_5,0,5,80,127,1659064656
120,17,19,Jits_Linear_5,1,1,48,50,1659091664
120,17,19,Jits_Linear_5,2,5,63,98,1659135628
120,17,19,Jits_Linear_5,3,5,56,103,1659154744
120,17,19,Jits_Linear_5,0,5,56,103,1659614632
120,17,19,Jits_Linear_5,1,5,80,127,1659635044
120,17,19,Jits_Linear_5,2,1,48,64,1659640476
120,17,19,Jits_Linear_5,3,5,63,98,1659674900
120,17,19,Jits_Linear_5,0,5,63,98,1660184932
120,17,19,Jits_Linear_5,1,1,48,57,1660199808
120,17,19,Jits_Linear_5,2,5,80,127,1660205460
120,17,19,Jits_Linear_5,3,5,56,103,1660245400
120,17,19,Jits_Linear_5,0,5,63,98,1660745152
120,17,19,Jits_Linear_5,1,1,48,67,1660753596
120,17,19,Jits_Linear_5,2,5,56,103,1660764412
120,17,19,Jits_Linear_5,3,5,80,127,1660774904
120,17,19,Jits_Linear_5,0,1,48,61,1661302480
120,17,19,Jits_Linear_5,1,5,80,127,1661305292
120,17,19,Jits_Linear_5,2,5,56,103,1661324632
120,17,19,Jits_Linear_5,3,5,63,98,1661355504
120,17,19,Jits_Linear_5,0,1,48,60,1661854856
120,17,19,Jits_Linear_5,1,5,56,103,1661945332
120,17,19,Jits_Linear_5,2,5,80,127,1661949060
120,17,19,Jits_Linear_5,3,5,63,98,1661964732
120,17,19,Jits_Linear_5,0,5,63,98,1662434588
120,17,19,Jits_Linear_5,1,1,48,47,1662453372
120,17,19,Jits_Linear_5,2,5,56,103,1662465528
120,17,19,Jits_Linear_5,3,5,80,127,1662524800
120,17,19,Jits_Linear_5,0,1,48,53,1662974772
120,17,19,Jits_Linear_5,1,5,63,98,1663084924
120,17,19,Jits_Linear_5,2,5,56,103,1663095344
120,17,19,Jits_Linear_5,3,5,80,127,1663105392
120,17,19,Jits_Linear_5,0,1,48,56,1663591636
120,17,19,Jits_Linear_5,1,5,56,103,1663615272
120,17,19,Jits_Linear_5,2,5,80,127,1663645024
120,17,19,Jits_Linear_5,3,5,63,98,1663655592
120,17,19,Jits_Linear_5,0,1,48,54,1664168948
120,17,19,Jits_Linear_5,1,5,63,98,1664224652
120,17,19,Jits_Linear_5,2,5,56,103,1664234876
120,17,19,Jits_Linear_5,3,5,80,127,1664255332
120,17,19,Jits_Linear_5,0,5,56,103,1664725392
120,17,19,Jits_Linear_5,1,1,48,54,1664734060
120,17,19,Jits_Linear_5,2,5,63,98,1664784680
120,17,19,Jits_Linear_5,3,5,80,127,1664787892
120,17,19,Jits_Linear_5,0,1,48,52,1665281552
120,17,19,Jits_Linear_5,1,5,80,127,1665325492
120,17,19,Jits_Linear_5,2,5,56,103,1665334644
120,17,19,Jits_Linear_5,3,5,63,98,1665405432
120,17,19,Jits_Linear_5,0,1,48,53,1665888008
120,17,19,Jits_Linear_5,1,5,80,127,1665894632
120,17,19,Jits_Linear_5,2,5,56,103,1665965364
120,17,19,Jits_Linear_5,3,5,63,98,1665974588
120,17,19,Jits_Linear_5,0,1,48,42,1666511012
120,17,19,Jits_Linear_5,1,5,63,98,1666515316
120,17,19,Jits_Linear_5,2,5,56,103,1666524468
120,17,19,Jits_Linear_5,3,5,80,127,1666544876
120,17,19,Jits_Linear_5,0,5,80,127,1667044856
120,17,19,Jits_Linear_5,1,1,48,56,1667095180
120,17,19,Jits_Linear_5,2,5,63,98,1667105092
120,17,19,Jits_Linear_5,3,5,56,103,1667145256
120,17,19,Jits_Linear_5,0,5,56,103,1667674476
120,17,19,Jits_Linear_5,1,5,63,98,1667684748
120,17,19,Jits_Linear_5,2,1,48,57,1667703304
120,17,19,Jits_Linear_5,3,5,80,127,1667724604
120,17,19,Jits_Linear_5,0,5,56,103,1668225348
120,17,19,Jits_Linear_5,1,1,48,54,1668247652
120,17,19,Jits_Linear_5,2,5,80,127,1668255168
120,17,19,Jits_Linear_5,3,5,63,98,1668305148
120,17,19,Jits_Linear_5,0,1,48,55,1668825712
120,17,19,Jits_Linear_5,1,5,56,103,1668855356
120,17,19,Jits_Linear_5,2,5,63,98,1668895376
120,17,19,Jits_Linear_5,3,5,80,127,1668898732
120,17,19,Jits_Linear_5,0,1,48,56,1669430896
120,17,19,Jits_Linear_5,1,5,56,103,1669445016
120,17,19,Jits_Linear_5,2,5,63,98,1669455364
120,17,19,Jits_Linear_5,3,5,80,127,1669474552
120,17,19,Jits_Linear_5,0,5,56,103,1669994832
120,17,19,Jits_Linear_5,1,5,80,127,1669997900
120,17,19,Jits_Linear_5,2,1,48,60,1670031132
120,17,19,Jits_Linear_5,3,5,63,98,1670034764
120,17,19,Jits_Linear_5,0,1,48,53,1670612332
120,17,19,Jits_Linear_5,1,5,63,98,1670624580
120,17,19,Jits_Linear_5,2,5,56,103,1670655404
120,17,19,Jits_Linear_5,3,5,80,127,1670674892
120,17,19,Jits_Linear_5,0,5,80,127,1671195100
120,17,19,Jits_Linear_5,1,1,48,58,1671198220
120,17,19,Jits_Linear_5,2,5,56,103,1671205216
120,17,19,Jits_Linear_5,3,5,63,98,1671214588
120,17,19,Jits_Linear_5,0,1,48,57,1671788564
120,17,19,Jits_Linear_5,1,5,56,103,1671795332
120,17,19,Jits_Linear_5,2,5,80,127,1671835128
120,17,19,Jits_Linear_5,3,5,63,98,1671864580
120,17,19,Jits_Linear_5,0,1,48,60,1672379576
120,17,19,Jits_Linear_5,1,5,63,98,1672405380
120,17,19,Jits_Linear_5,2,5,80,127,1672414528
120,17,19,Jits_Linear_5,3,5,56,103,1672424676
120,17,19,Jits_Linear_5,0,1,48,55,1672961172
120,17,19,Jits_Linear_5,1,5,56,103,1672985252
120,17,19,Jits_Linear_5,2,5,63,98,1673054716
120,17,19,Jits_Linear_5,3,5,80,127,1673064900
120,17,19,Jits_Linear_5,0,1,48,59,1673576392
120,17,19,Jits_Linear_5,1,5,80,127,1673595452
120,17,19,Jits_Linear_5,2,5,56,103,1673604528
120,17,19,Jits_Linear_5,3,5,63,98,1673654728
120,17,19,Jits_Linear_5,0,5,80,127,1674214744
120,17,19,Jits_Linear_5,1,1,48,53,1674224688
120,17,19,Jits_Linear_5,2,5,56,103,1674275132
120,17,19,Jits_Linear_5,3,5,63,98,1674304808
120,17,19,Jits_Linear_5,0,5,56,103,1674825028
120,17,19,Jits_Linear_5,1,5,80,127,1674828096
120,17,19,Jits_Linear_5,2,1,48,63,1674835048
120,17,19,Jits_Linear_5,3,5,63,98,1674865112
120,17,19,Jits_Linear_5,0,1,48,57,1675442916
120,17,19,Jits_Linear_5,1,5,56,103,1675465192
120,17,19,Jits_Linear_5,2,5,63,98,1675494672
120,17,19,Jits_Linear_5,3,5,80,127,1675505088
120,17,19,Jits_Linear_5,0,1,48,57,1676045868
120,17,19,Jits_Linear_5,1,5,63,98,1676084560
120,17,19,Jits_Linear_5,2,5,80,127,1676095052
120,17,19,Jits_Linear_5,3,5,56,103,1676105324
120,17,19,Jits_Linear_5,0,5,80,127,1676644640
120,17,19,Jits_Linear_5,1,1,48,51,1676654576
120,17,19,Jits_Linear_5,2,5,56,103,1676694908
120,17,19,Jits_Linear_5,3,5,63,98,1676698048
120,17,19,Jits_Linear_5,0,1,48,61,1677250372
120,17,19,Jits_Linear_5,1,5,56,103,1677295160
120,17,19,Jits_Linear_5,2,5,80,127,1677314352
120,17,19,Jits_Linear_5,3,5,63,98,1677324548
120,17,19,Jits_Linear_5,0,5,63,98,1677895100
120,17,19,Jits_Linear_5,1,1,48,57,1677906092
120,17,19,Jits_Linear_5,2,5,56,103,1677924696
120,17,19,Jits_Linear_5,3,5,80,127,1677945156
120,17,19,Jits_Linear_5,0,1,48,57,1678490116
120,17,19,Jits_Linear_5,1,5,56,103,1678524692
120,17,19,Jits_Linear_5,2,5,80,127,1678535260
120,17,19,Jits_Linear_5,3,5,63,98,1678604804
120,17,19,Jits_Linear_5,0,5,63,98,1679135140
120,17,19,Jits_Linear_5,1,1,48,61,1679140352
120,17,19,Jits_Linear_5,2,5,80,127,1679175372
120,17,19,Jits_Linear_5,3,5,56,103,1679215088
120,17,19,Jits_Linear_5,0,1,48,51,1679762368
120,17,19,Jits_Linear_5,1,5,56,103,1679775072
120,17,19,Jits_Linear_5,2,5,63,98,1679785268
120,17,19,Jits_Linear_5,3,5,80,127,1679805128
120,17,19,Jits_Linear_5,0,1,48,53,1680344184
120,17,19,Jits_Linear_5,1,5,63,98,1680444916
120,17,19,Jits_Linear_5,2,5,80,127,1680465224
120,17,19,Jits_Linear_5,3,5,56,103,1680484712
120,17,19,Jits_Linear_5,0,5,56,103,1681015268
120,17,19,Jits_Linear_5,1,1,48,62,1681053236
120,17,19,Jits_Linear_5,2,5,80,127,1681095136
120,17,19,Jits_Linear_5,3,5,63,98,1681105260
120,17,19,Jits_Linear_5,0,5,80,127,1681685136
120,17,19,Jits_Linear_5,1,5,63,98,1681695036
120,17,19,Jits_Linear_5,2,1,48,48,1681699880
120,17,19,Jits_Linear_5,3,5,56,103,1681724856
120,17,19,Jits_Linear_5,0,5,63,98,1682274668
120,17,19,Jits_Linear_5,1,1,48,59,1682313480
120,17,19,Jits_Linear_5,2,5,80,127,1682314976
120,17,19,Jits_Linear_5,3,5,56,103,1682375216
120,17,19,Jits_Linear_5,0,5,63,98,1682914604
120,17,19,Jits_Linear_5,1,1,48,50,1682959552
120,17,19,Jits_Linear_5,2,5,56,103,1682964976
120,17,19,Jits_Linear_5,3,5,80,127,1682994504
120,17,19,Jits_Linear_5,0,1,48,56,1683558952
120,17,19,Jits_Linear_5,1,5,80,127,1683565200
120,17,19,Jits_Linear_5,2,5,63,98,1683575100
120,17,19,Jits_Linear_5,3,5,56,103,1683644928
120,17,19,Jits_Linear_5,0,1,48,57,1684206556
120,17,19,Jits_Linear_5,1,5,80,127,1684274620
120,17,19,Jits_Linear_5,2,5,56,103,1684284960
120,17,19,Jits_Linear_5,3,5,63,98,1684288028
120,17,19,Jits_Linear_5,0,1,48,51,1684845372
120,17,19,Jits_Linear_5,1,5,56,103,1684855136
120,17,19,Jits_Linear_5,2,5,80,127,1684874552
120,17,19,Jits_Linear_5,3,5,63,98,1684885120
120,17,19,Jits_Linear_5,0,1,48,53,1685494476
120,17,19,Jits_Linear_5,1,5,63,98,1685505588
120,17,19,Jits_Linear_5,2,5,56,103,1685545376
120,17,19,Jits_Linear_5,3,5,80,127,1685565012
120,17,19,Jits_Linear_5,0,1,48,59,1686153160
120,17,19,Jits_Linear_5,1,5,63,98,1686154668
120,17,19,Jits_Linear_5,2,1,38,14,1686169472
120,17,19,Jits_Linear_5,3,5,56,103,1686215128
120,17,19,Jits_Linear_5,4,5,80,127,1686218196
120,17,19,Jits_Linear_5,0,5,56,103,1686765000
120,17,19,Jits_Linear_5,1,5,80,127,1686785384
120,17,19,Jits_Linear_5,2,1,48,36,1686813608
120,17,19,Jits_Linear_5,3,5,63,98,1686825540
120,17,19,Jits_Linear_5,0,5,56,103,1687445032
120,17,19,Jits_Linear_5,1,1,48,54,1687456024
120,17,19,Jits_Linear_5,2,5,63,98,1687465336
120,17,19,Jits_Linear_5,3,5,80,127,1687474560
120,17,19,Jits_Linear_5,0,5,80,127,1688065456
120,17,19,Jits_Linear_5,1,5,56,103,1688095056
120,17,19,Jits_Linear_5,2,1,48,55,1688097804
120,17,19,Jits_Linear_5,3,5,63,98,1688135136
120,17,19,Jits_Linear_5,0,1,48,48,1688724056
120,17,19,Jits_Linear_5,1,5,80,127,1688725700
120,17,19,Jits_Linear_5,2,5,56,103,1688745264
120,17,19,Jits_Linear_5,3,5,63,98,1688805004
120,17,19,Jits_Linear_5,0,5,56,103,1689385224
120,17,19,Jits_Linear_5,1,1,48,57,1689395912
120,17,19,Jits_Linear_5,2,5,80,127,1689404928
120,17,19,Jits_Linear_5,3,5,63,98,1689465244
120,17,19,Jits_Linear_5,0,5,80,127,1690025324
120,17,19,Jits_Linear_5,1,5,56,103,1690034400
120,17,19,Jits_Linear_5,2,1,48,57,1690046060
120,17,19,Jits_Linear_5,3,5,63,98,1690074552
120,17,19,Jits_Linear_5,0,5,63,98,1690685072
120,17,19,Jits_Linear_5,1,1,48,63,1690692228
120,17,19,Jits_Linear_5,2,5,56,103,1690724780
120,17,19,Jits_Linear_5,3,5,80,127,1690727848
120,17,19,Jits_Linear_5,0,1,48,61,1691365104
120,17,19,Jits_Linear_5,1,5,63,98,1691366292
120,17,19,Jits_Linear_5,2,5,80,127,1691404668
120,17,19,Jits_Linear_5,3,5,56,103,1691435316
120,17,19,Jits_Linear_5,0,5,56,103,1692015156
120,17,19,Jits_Linear_5,1,5,63,98,1692025132
120,17,19,Jits_Linear_5,2,5,80,127,1692055180
120,17,19,Jits_Linear_5,3,1,48,73,1692060992
120,17,19,Jits_Linear_5,0,5,80,127,1692674460
120,17,19,Jits_Linear_5,1,1,48,67,1692689336
120,17,19,Jits_Linear_5,2,5,63,98,1692745112
120,17,19,Jits_Linear_5,3,5,56,103,1692755308
120,17,19,Jits_Linear_5,0,1,48,67,1693328536
120,17,19,Jits_Linear_5,1,5,63,98,1693345048
120,17,19,Jits_Linear_5,2,5,56,103,1693414980
120,17,19,Jits_Linear_5,3,5,80,127,1693426212
120,17,19,Jits_Linear_5,0,1,48,70,1693973152
120,17,19,Jits_Linear_5,1,5,63,98,1694015052
120,17,19,Jits_Linear_5,2,5,56,103,1694035292
120,17,19,Jits_Linear_5,3,5,80,127,1694075140
120,17,19,Jits_Linear_5,0,1,48,59,1694629112
120,17,19,Jits_Linear_5,1,5,56,103,1694695020
120,17,19,Jits_Linear_5,2,5,63,98,1694704996
120,17,19,Jits_Linear_5,3,5,80,127,1694784852
120,17,19,Jits_Linear_5,0,1,48,85,1695298368
120,17,19,Jits_Linear_5,1,5,63,98,1695355264
120,17,19,Jits_Linear_5,2,5,56,103,1695385092
120,17,19,Jits_Linear_5,3,5,80,127,1695425016
120,17,19,Jits_Linear_5,0,1,48,76,1695932372
120,17,19,Jits_Linear_5,1,5,56,103,1696025048
120,17,19,Jits_Linear_5,2,5,63,98,1696065048
120,17,19,Jits_Linear_5,3,5,80,127,1696104764
120,17,19,Jits_Linear_5,0,1,48,73,1696614984
120,17,19,Jits_Linear_5,1,5,80,127,1696704992
120,17,19,Jits_Linear_5,2,5,56,103,1696784800
120,17,19,Jits_Linear_5,3,5,63,98,1696795076
120,17,19,Jits_Linear_5,0,1,48,81,1697313840
120,17,19,Jits_Linear_5,1,5,56,103,1697424956
120,17,19,Jits_Linear_5,2,5,63,98,1697427876
120,17,19,Jits_Linear_5,3,5,80,127,1697434928
120,17,19,Jits_Linear_5,0,1,48,69,1697984476
120,17,19,Jits_Linear_5,1,5,56,103,1698125148
120,17,19,Jits_Linear_5,2,5,63,98,1698144784
120,17,19,Jits_Linear_5,3,5,80,127,1698154904
120,17,19,Jits_Linear_5,0,5,63,98,1698765032
120,17,19,Jits_Linear_5,1,1,48,71,1698765996
120,17,19,Jits_Linear_5,2,5,80,127,1698775296
120,17,19,Jits_Linear_5,3,5,56,103,1698794808
120,17,19,Jits_Linear_5,0,1,48,79,1699428556
120,17,19,Jits_Linear_5,1,5,63,98,1699455256
120,17,19,Jits_Linear_5,2,5,56,103,1699535188
120,17,19,Jits_Linear_5,3,5,80,127,1699538256
120,17,19,Jits_Linear_5,0,5,63,98,1700144524
120,17,19,Jits_Linear_5,1,5,56,103,1700164832
120,17,19,Jits_Linear_5,2,1,48,76,1700180012
120,17,19,Jits_Linear_5,3,5,80,127,1700194948
120,17,19,Jits_Linear_5,0,5,56,103,1700835128
120,17,19,Jits_Linear_5,1,1,48,77,1700848664
120,17,19,Jits_Linear_5,2,5,63,98,1700855136
120,17,19,Jits_Linear_5,3,5,80,127,1700865480
120,17,19,Jits_Linear_5,0,1,48,67,1701487404
120,17,19,Jits_Linear_5,1,5,56,103,1701554644
120,17,19,Jits_Linear_5,2,5,63,98,1701585196
120,17,19,Jits_Linear_5,3,5,80,127,1701588564
120,17,19,Jits_Linear_5,0,1,48,66,1702161816
120,17,19,Jits_Linear_5,1,5,56,103,1702194744
120,17,19,Jits_Linear_5,2,5,63,98,1702234688
120,17,19,Jits_Linear_5,3,5,80,127,1702294840
120,17,19,Jits_Linear_5,0,1,48,58,1702867324
120,17,19,Jits_Linear_5,1,5,56,103,1702905136
120,17,19,Jits_Linear_5,2,5,63,98,1702914288
120,17,19,Jits_Linear_5,3,5,80,127,1702974812
120,17,19,Jits_Linear_5,0,1,48,72,1703580324
120,17,19,Jits_Linear_5,1,5,56,103,1703604712
120,17,19,Jits_Linear_5,2,5,80,127,1703625172
120,17,19,Jits_Linear_5,3,5,63,98,1703654872
120,17,19,Jits_Linear_5,0,1,48,79,1704261720
120,17,19,Jits_Linear_5,1,5,80,127,1704304984
120,17,19,Jits_Linear_5,2,5,56,103,1704315180
120,17,19,Jits_Linear_5,3,5,63,98,1704334892
120,17,19,Jits_Linear_5,0,1,48,78,1704919632
120,17,19,Jits_Linear_5,1,5,63,98,1704995216
120,17,19,Jits_Linear_5,2,5,80,127,1705075148
120,17,19,Jits_Linear_5,3,5,56,103,1705085492
120,17,19,Jits_Linear_5,0,1,48,90,1705663300
120,17,19,Jits_Linear_5,1,5,80,127,1705754908
120,17,19,Jits_Linear_5,2,5,56,103,1705774380
120,17,19,Jits_Linear_5,3,5,63,98,1705777592
120,17,19,Jits_Linear_5,0,1,48,55,1706416168
120,17,19,Jits_Linear_5,1,5,63,98,1706434840
120,17,19,Jits_Linear_5,2,5,80,127,1706438360
120,17,19,Jits_Linear_5,3,5,56,103,1706495336
120,17,19,Jits_Linear_5,0,1,48,58,1707116880
120,17,19,Jits_Linear_5,1,5,56,103,1707125072
120,17,19,Jits_Linear_5,2,5,80,127,1707135492
120,17,19,Jits_Linear_5,3,5,63,98,1707175136
120,17,19,Jits_Linear_5,0,1,48,64,1707799312
120,17,19,Jits_Linear_5,1,5,56,103,1707815228
120,17,19,Jits_Linear_5,2,5,63,98,1707874728
120,17,19,Jits_Linear_5,3,5,80,127,1707884920
120,17,19,Jits_Linear_5,0,1,48,74,1708495820
120,17,19,Jits_Linear_5,1,5,63,98,1708535208
120,17,19,Jits_Linear_5,2,5,80,127,1708575072
120,17,19,Jits_Linear_5,3,5,56,103,1708614996
120,17,19,Jits_Linear_5,0,1,48,63,1709225244
120,17,19,Jits_Linear_5,1,5,56,103,1709244824
120,17,19,Jits_Linear_5,2,5,63,98,1709324708
120,17,19,Jits_Linear_5,3,5,80,127,1709327996
120,17,19,Jits_Linear_5,0,1,48,53,1709947016
120,17,19,Jits_Linear_5,1,5,80,127,1710014696
120,17,19,Jits_Linear_5,2,5,56,103,1710044656
120,17,19,Jits_Linear_5,3,5,63,98,1710047872
120,17,19,Jits_Linear_5,0,5,56,103,1710694744
120,17,19,Jits_Linear_5,1,1,48,51,1710700104
120,17,19,Jits_Linear_5,2,5,80,127,1710715344
120,17,19,Jits_Linear_5,3,5,63,98,1710755060
120,17,19,Jits_Linear_5,0,5,80,127,1711395324
120,17,19,Jits_Linear_5,1,5,63,98,1711414812
120,17,19,Jits_Linear_5,2,1,48,55,1711418976
120,17,19,Jits_Linear_5,3,5,56,103,1711475344
120,17,19,Jits_Linear_5,0,5,63,98,1712125576
120,17,19,Jits_Linear_5,1,5,56,103,1712134580
120,17,19,Jits_Linear_5,2,1,48,55,1712144448
120,17,19,Jits_Linear_5,3,5,80,127,1712184624
120,17,19,Jits_Linear_5,0,1,48,59,1712834896
120,17,19,Jits_Linear_5,1,5,56,103,1712836160
120,17,19,Jits_Linear_5,2,5,63,98,1712855500
120,17,19,Jits_Linear_5,3,5,80,127,1712864576
120,17,19,Jits_Linear_5,0,1,48,62,1713519240
120,17,19,Jits_Linear_5,1,5,56,103,1713554788
120,17,19,Jits_Linear_5,2,5,63,98,1713558076
120,17,19,Jits_Linear_5,3,5,80,127,1713575392
120,17,19,Jits_Linear_5,0,1,48,71,1714215236
120,17,19,Jits_Linear_5,1,5,63,98,1714324864
120,17,19,Jits_Linear_5,2,5,56,103,1714354688
120,17,19,Jits_Linear_5,3,5,80,127,1714385264
120,17,19,Jits_Linear_5,0,5,80,127,1715025232
120,17,19,Jits_Linear_5,1,1,48,55,1715032708
120,17,19,Jits_Linear_5,2,5,56,103,1715115660
120,17,19,Jits_Linear_5,3,5,63,98,1715118652
120,17,19,Jits_Linear_5,0,5,56,103,1715755632
120,17,19,Jits_Linear_5,1,5,80,127,1715758700
120,17,19,Jits_Linear_5,2,5,63,98,1715835208
120,17,19,Jits_Linear_5,3,1,48,52,1715841688
120,17,19,Jits_Linear_5,0,5,80,127,1716484608
120,17,19,Jits_Linear_5,1,5,63,98,1716544856
120,17,19,Jits_Linear_5,2,1,48,52,1716547976
120,17,19,Jits_Linear_5,3,5,56,103,1716574452
120,17,19,Jits_Linear_5,0,5,63,98,1717214620
120,17,19,Jits_Linear_5,1,5,80,127,1717224764
120,17,19,Jits_Linear_5,2,1,48,40,1717286100
120,17,19,Jits_Linear_5,3,5,56,103,1717294592
120,17,19,Jits_Linear_5,0,5,56,103,1717965088
120,17,19,Jits_Linear_5,1,5,80,127,1717994788
120,17,19,Jits_Linear_5,2,1,48,40,1717998356
120,17,19,Jits_Linear_5,3,5,63,98,1718044912
120,17,19,Jits_Linear_5,0,1,48,57,1718706324
120,17,19,Jits_Linear_5,1,5,63,98,1718744412
120,17,19,Jits_Linear_5,2,5,56,103,1718775084
120,17,19,Jits_Linear_5,3,5,80,127,1718778300
120,17,19,Jits_Linear_5,0,1,48,57,1719444804
120,17,19,Jits_Linear_5,1,5,63,98,1719484836
120,17,19,Jits_Linear_5,2,5,80,127,1719505444
120,17,19,Jits_Linear_5,3,5,56,103,1719514448
120,17,19,Jits_Linear_5,0,1,48,61,1720165532
120,17,19,Jits_Linear_5,1,5,56,103,1720235456
120,17,19,Jits_Linear_5,2,5,63,98,1720238452
120,17,19,Jits_Linear_5,3,5,80,127,1720254796
120,17,19,Jits_Linear_5,0,1,48,60,1720917344
120,17,19,Jits_Linear_5,1,5,56,103,1720934828
120,17,19,Jits_Linear_5,2,5,63,98,1720944952
120,17,19,Jits_Linear_5,3,5,80,127,1720974704
120,17,19,Jits_Linear_5,0,1,48,82,1721652388
120,17,19,Jits_Linear_5,1,5,63,98,1721704928
120,17,19,Jits_Linear_5,2,5,80,127,1721725388
120,17,19,Jits_Linear_5,3,5,56,103,1721765464
120,17,19,Jits_Linear_5,0,1,48,73,1722392424
120,17,19,Jits_Linear_5,1,5,56,103,1722485296
120,17,19,Jits_Linear_5,2,5,63,98,1722525220
120,17,19,Jits_Linear_5,3,5,80,127,1722528584
120,17,19,Jits_Linear_5,0,5,80,127,1723175296
120,17,19,Jits_Linear_5,1,1,48,78,1723201636
120,17,19,Jits_Linear_5,2,5,56,103,1723215156
120,17,19,Jits_Linear_5,3,5,63,98,1723265584
120,17,19,Jits_Linear_5,0,1,48,77,1723927248
120,17,19,Jits_Linear_5,1,5,56,103,1723985196
120,17,19,Jits_Linear_5,2,5,80,127,1723994644
120,17,19,Jits_Linear_5,3,5,63,98,1724025496
120,17,19,Jits_Linear_5,0,5,56,103,1724684652
120,17,19,Jits_Linear_5,1,1,48,84,1724691356
120,17,19,Jits_Linear_5,2,5,80,127,1724724512
120,17,19,Jits_Linear_5,3,5,63,98,1724774792
120,17,19,Jits_Linear_5,0,1,48,87,1725442308
120,17,19,Jits_Linear_5,1,5,56,103,1725444424
120,17,19,Jits_Linear_5,2,5,80,127,1725485412
120,17,19,Jits_Linear_5,3,5,63,98,1725534568
120,17,19,Jits_Linear_5,0,1,48,61,1726181364
120,17,19,Jits_Linear_5,1,5,80,127,1726195112
120,17,19,Jits_Linear_5,2,5,63,98,1726274916
120,17,19,Jits_Linear_5,3,5,56,103,1726285244
120,17,19,Jits_Linear_5,0,1,48,60,1726954404
120,17,19,Jits_Linear_5,1,5,80,127,1727005076
120,17,19,Jits_Linear_5,2,5,56,103,1727015572
120,17,19,Jits_Linear_5,3,5,63,98,1727034688
120,17,19,Jits_Linear_5,0,1,48,75,1727706648
120,17,19,Jits_Linear_5,1,5,63,98,1727735244
120,17,19,Jits_Linear_5,2,5,56,103,1727804684
120,17,19,Jits_Linear_5,3,5,80,127,1727807832
120,17,19,Jits_Linear_5,0,1,48,62,1728447820
120,17,19,Jits_Linear_5,1,5,80,127,1728494852
120,17,19,Jits_Linear_5,2,5,63,98,1728545264
120,17,19,Jits_Linear_5,3,5,56,103,1728585204
120,17,19,Jits_Linear_5,0,1,48,60,1729209900
120,17,19,Jits_Linear_5,1,5,63,98,1729305696
120,17,19,Jits_Linear_5,2,5,56,103,1729344892
120,17,19,Jits_Linear_5,3,5,80,127,1729355456
120,17,19,Jits_Linear_5,0,1,48,62,1730023948
120,17,19,Jits_Linear_5,1,5,63,98,1730064804
120,17,19,Jits_Linear_5,2,5,56,103,1730085412
120,17,19,Jits_Linear_5,3,5,80,127,1730104676
120,17,19,Jits_Linear_5,0,1,48,59,1730754460
120,17,19,Jits_Linear_5,1,5,80,127,1730794896
120,17,19,Jits_Linear_5,2,5,56,103,1730805240
120,17,19,Jits_Linear_5,3,5,63,98,1730824432
120,17,19,Jits_Linear_5,0,1,48,51,1731480116
120,17,19,Jits_Linear_5,1,5,63,98,1731594572
120,17,19,Jits_Linear_5,2,5,56,103,1731634512
120,17,19,Jits_Linear_5,3,5,80,127,1731665236
120,17,19,Jits_Linear_5,0,1,48,49,1732287312
120,17,19,Jits_Linear_5,1,5,56,103,1732374956
120,17,19,Jits_Linear_5,2,5,63,98,1732404692
120,17,19,Jits_Linear_5,3,5,80,127,1732435416
120,17,19,Jits_Linear_5,0,1,48,74,1733070372
120,17,19,Jits_Linear_5,1,5,80,127,1733124452
120,17,19,Jits_Linear_5,2,5,56,103,1733195168
120,17,19,Jits_Linear_5,3,5,63,98,1733198160
120,17,19,Jits_Linear_5,0,1,48,54,1733848632
120,17,19,Jits_Linear_5,1,5,56,103,1733914996
120,17,19,Jits_Linear_5,2,5,63,98,1733965412
120,17,19,Jits_Linear_5,3,5,80,127,1733994864
120,17,19,Jits_Linear_5,0,1,48,81,1734646556
120,17,19,Jits_Linear_5,1,5,63,98,1734674680
120,17,19,Jits_Linear_5,2,5,80,127,1734678344
120,17,19,Jits_Linear_5,3,5,56,103,1734735296
120,17,19,Jits_Linear_5,0,1,48,69,1735406308
120,17,19,Jits_Linear_5,1,5,56,103,1735484780
120,17,19,Jits_Linear_5,2,5,80,127,1735494980
120,17,19,Jits_Linear_5,3,5,63,98,1735545316
120,17,19,Jits_Linear_5,0,1,48,63,1736220908
120,17,19,Jits_Linear_5,1,5,63,98,1736244692
120,17,19,Jits_Linear_5,2,5,56,103,1736254964
120,17,19,Jits_Linear_5,3,5,80,127,1736284564
120,17,19,Jits_Linear_5,0,1,48,60,1736957368
120,17,19,Jits_Linear_5,1,5,63,98,1737064972
120,17,19,Jits_Linear_5,2,5,80,127,1737068188
120,17,19,Jits_Linear_5,3,5,56,103,1737094500
120,17,19,Jits_Linear_5,0,1,48,56,1737772272
120,17,19,Jits_Linear_5,1,5,63,98,1737874776
120,17,19,Jits_Linear_5,2,5,56,103,1737895308
120,17,19,Jits_Linear_5,3,5,80,127,1737898228
120,17,19,Jits_Linear_5,0,1,48,69,1738549768
120,17,19,Jits_Linear_5,1,5,63,98,1738625400
120,17,19,Jits_Linear_5,2,5,56,103,1738695144
120,17,19,Jits_Linear_5,3,5,80,127,1738714480
120,17,19,Jits_Linear_5,0,1,48,61,1739359508
120,17,19,Jits_Linear_5,1,5,56,103,1739404644
120,17,19,Jits_Linear_5,2,5,63,98,1739414912
120,17,19,Jits_Linear_5,3,5,80,127,1739505056
120,17,19,Jits_Linear_5,0,1,48,63,1740127808
120,17,19,Jits_Linear_5,1,5,56,103,1740214600
120,17,19,Jits_Linear_5,2,5,80,127,1740254600
120,17,19,Jits_Linear_5,3,5,63,98,1740264872
120,17,19,Jits_Linear_5,0,1,48,61,1740951600
120,17,19,Jits_Linear_5,1,5,56,103,1741034752
120,17,19,Jits_Linear_5,2,5,63,98,1741064564
120,17,19,Jits_Linear_5,3,5,80,127,1741095360
120,17,19,Jits_Linear_5,0,5,80,127,1741794596
120,17,19,Jits_Linear_5,1,1,48,70,1741802344
120,17,19,Jits_Linear_5,2,5,63,98,1741834604
120,17,19,Jits_Linear_5,3,5,56,103,1741855284
120,17,19,Jits_Linear_5,0,1,48,63,1742608572
120,17,19,Jits_Linear_5,1,5,56,103,1742635348
120,17,19,Jits_Linear_5,2,5,80,127,1742654984
120,17,19,Jits_Linear_5,3,5,63,98,1742675296
120,17,19,Jits_Linear_5,0,1,48,74,1743366164
120,17,19,Jits_Linear_5,1,5,63,98,1743405300
120,17,19,Jits_Linear_5,2,5,56,103,1743414744
120,17,19,Jits_Linear_5,3,5,80,127,1743475268
120,17,19,Jits_Linear_5,0,1,48,65,1744174396
120,17,19,Jits_Linear_5,1,5,56,103,1744215476
120,17,19,Jits_Linear_5,2,5,63,98,1744285296
120,17,19,Jits_Linear_5,3,5,80,127,1744304412
120,17,19,Jits_Linear_5,0,1,48,74,1744985704
120,17,19,Jits_Linear_5,1,5,56,103,1745025364
120,17,19,Jits_Linear_5,2,5,63,98,1745055192
120,17,19,Jits_Linear_5,3,5,80,127,1745095040
120,17,19,Jits_Linear_5,0,1,48,71,1745801644
120,17,19,Jits_Linear_5,1,5,63,98,1745825132
120,17,19,Jits_Linear_5,2,5,56,103,1745875336
120,17,19,Jits_Linear_5,3,5,80,127,1745884412
120,17,19,Jits_Linear_5,0,1,48,69,1746627720
120,17,19,Jits_Linear_5,1,5,56,103,1746675272
120,17,19,Jits_Linear_5,2,5,63,98,1746725312
120,17,19,Jits_Linear_5,3,5,80,127,1746734388
120,17,19,Jits_Linear_5,0,5,56,103,1747455344
120,17,19,Jits_Linear_5,1,5,63,98,1747464644
120,17,19,Jits_Linear_5,2,1,48,76,1747518032
120,17,19,Jits_Linear_5,3,5,80,127,1747544432
120,17,19,Jits_Linear_5,0,9999,9999,9999,1638692972
120,17,19,Jits_Linear_5,1,9999,9999,9999,1639172160
120,17,19,Jits_Linear_5,2,9999,9999,9999,1639652464
120,17,19,Jits_Linear_5,3,9999,9999,9999,1640132716
120,17,19,Jits_Linear_5,4,9999,9999,9999,1640612956
120,17,19,Jits_Linear_5,5,9999,9999,9999,1641102436
120,17,19,Jits_Linear_5,6,9999,9999,9999,1641592940
120,17,19,Jits_Linear_5,7,9999,9999,9999,1642082412
120,17,19,Jits_Linear_5,8,9999,9999,9999,1642572928
120,17,19,Jits_Linear_5,9,9999,9999,9999,1643062328
120,17,19,Jits_Linear_5,10,9999,9999,9999,1643563108
120,17,19,Jits_Linear_5,11,9999,9999,9999,1644073032
120,17,19,Jits_Linear_5,12,9999,9999,9999,1644572728
120,17,19,Jits_Linear_5,13,9999,9999,9999,1645072484
120,17,19,Jits_Linear_5,14,9999,9999,9999,1645572176
120,17,19,Jits_Linear_5,15,9999,9999,9999,1646082140
120,17,19,Jits_Linear_5,16,9999,9999,9999,1646592108
120,17,19,Jits_Linear_5,17,9999,9999,9999,1647103032
120,17,19,Jits_Linear_5,18,9999,9999,9999,1647613052
120,17,19,Jits_Linear_5,19,9999,9999,9999,1648123008
120,17,19,Jits_Linear_5,20,9999,9999,9999,1648642100
120,17,19,Jits_Linear_5,21,9999,9999,9999,1649162312
120,17,19,Jits_Linear_5,22,9999,9999,9999,1649682524
120,17,19,Jits_Linear_5,23,9999,9999,9999,1650202740
120,17,19,Jits_Linear_5,24,9999,9999,9999,1650722880
120,17,19,Jits_Linear_5,25,9999,9999,9999,1651252320
120,17,19,Jits_Linear_5,26,9999,9999,9999,1651782728
120,17,19,Jits_Linear_5,27,9999,9999,9999,1652312136
120,17,19,Jits_Linear_5,28,9999,9999,9999,1652842616
120,17,19,Jits_Linear_5,29,9999,9999,9999,1653373016
120,17,19,Jits_Linear_5,30,9999,9999,9999,1653912636
120,17,19,Jits_Linear_5,31,9999,9999,9999,1654452332
120,17,19,Jits_Linear_5,32,9999,9999,9999,1654993000
120,17,19,Jits_Linear_5,33,9999,9999,9999,1655532644
120,17,19,Jits_Linear_5,34,9999,9999,9999,1656072268
120,17,19,Jits_Linear_5,35,9999,9999,9999,1656622152
120,17,19,Jits_Linear_5,36,9999,9999,9999,1657173076
120,17,19,Jits_Linear_5,37,9999,9999,9999,1657722960
120,17,19,Jits_Linear_5,38,9999,9999,9999,1658272848
120,17,19,Jits_Linear_5,39,9999,9999,9999,1658822736
120,17,19,Jits_Linear_5,40,9999,9999,9999,1659382912
120,17,19,Jits_Linear_5,41,9999,9999,9999,1659942996
120,17,19,Jits_Linear_5,42,9999,9999,9999,1660502112
120,17,19,Jits_Linear_5,43,9999,9999,9999,1661062256
120,17,19,Jits_Linear_5,44,9999,9999,9999,1661622328
120,17,19,Jits_Linear_5,45,9999,9999,9999,1662192764
120,17,19,Jits_Linear_5,46,9999,9999,9999,1662763080
120,17,19,Jits_Linear_5,47,9999,9999,9999,1663342712
120,17,19,Jits_Linear_5,48,9999,9999,9999,1663913056
120,17,19,Jits_Linear_5,49,9999,9999,9999,1664482428
120,17,19,Jits_Linear_5,50,9999,9999,9999,1665063036
120,17,19,Jits_Linear_5,51,9999,9999,9999,1665642604
120,17,19,Jits_Linear_5,52,9999,9999,9999,1666222160
120,17,19,Jits_Linear_5,53,9999,9999,9999,1666802784
120,17,19,Jits_Linear_5,54,9999,9999,9999,1667382340
120,17,19,Jits_Linear_5,55,9999,9999,9999,1667972176
120,17,19,Jits_Linear_5,56,9999,9999,9999,1668563056
120,17,19,Jits_Linear_5,57,9999,9999,9999,1669152828
120,17,19,Jits_Linear_5,58,9999,9999,9999,1669742648
120,17,19,Jits_Linear_5,59,9999,9999,9999,1670332528
120,17,19,Jits_Linear_5,60,9999,9999,9999,1670932576
120,17,19,Jits_Linear_5,61,9999,9999,9999,1671532656
120,17,19,Jits_Linear_5,62,9999,9999,9999,1672132672
120,17,19,Jits_Linear_5,63,9999,9999,9999,1672732780
120,17,19,Jits_Linear_5,64,9999,9999,9999,1673332860
120,17,19,Jits_Linear_5,65,9999,9999,9999,1673942080
120,17,19,Jits_Linear_5,66,9999,9999,9999,1674552376
120,17,19,Jits_Linear_5,67,9999,9999,9999,1675162724
120,17,19,Jits_Linear_5,68,9999,9999,9999,1675773036
120,17,19,Jits_Linear_5,69,9999,9999,9999,1676382264
120,17,19,Jits_Linear_5,70,9999,9999,9999,1677002860
120,17,19,Jits_Linear_5,71,9999,9999,9999,1677622384
120,17,19,Jits_Linear_5,72,9999,9999,9999,1678242920
120,17,19,Jits_Linear_5,73,9999,9999,9999,1678862428
120,17,19,Jits_Linear_5,74,9999,9999,9999,1679482960
120,17,19,Jits_Linear_5,75,9999,9999,9999,1680112732
120,17,19,Jits_Linear_5,76,9999,9999,9999,1680742484
120,17,19,Jits_Linear_5,77,9999,9999,9999,1681372236
120,17,19,Jits_Linear_5,78,9999,9999,9999,1682003064
120,17,19,Jits_Linear_5,79,9999,9999,9999,1682632824
120,17,19,Jits_Linear_5,80,9999,9999,9999,1683272788
120,17,19,Jits_Linear_5,81,9999,9999,9999,1683912804
120,17,19,Jits_Linear_5,82,9999,9999,9999,1684552760
120,17,19,Jits_Linear_5,83,9999,9999,9999,1685192772
120,17,19,Jits_Linear_5,84,9999,9999,9999,1685832812
120,17,19,Jits_Linear_5,85,9999,9999,9999,1686483048
120,17,19,Jits_Linear_5,86,9999,9999,9999,1687132224
120,17,19,Jits_Linear_5,87,9999,9999,9999,1687782460
120,17,19,Jits_Linear_5,88,9999,9999,9999,1688432752
120,17,19,Jits_Linear_5,89,9999,9999,9999,1689082988
120,17,19,Jits_Linear_5,90,9999,9999,9999,1689742408
120,17,19,Jits_Linear_5,91,9999,9999,9999,1690402908
120,17,19,Jits_Linear_5,92,9999,9999,9999,1691062400
120,17,19,Jits_Linear_5,93,9999,9999,9999,1691722816
120,17,19,Jits_Linear_5,94,9999,9999,9999,1692382308
120,17,19,Jits_Linear_5,95,9999,9999,9999,1693052996
120,17,19,Jits_Linear_5,96,9999,9999,9999,1693722720
120,17,19,Jits_Linear_5,97,9999,9999,9999,1694392400
120,17,19,Jits_Linear_5,98,9999,9999,9999,1695062104
120,17,19,Jits_Linear_5,99,9999,9999,9999,1695732856
120,17,19,Jits_Linear_5,100,9999,9999,9999,1696412728
120,17,19,Jits_Linear_5,101,9999,9999,9999,1697092700
120,17,19,Jits_Linear_5,102,9999,9999,9999,1697772660
120,17,19,Jits_Linear_5,103,9999,9999,9999,1698452536
120,17,19,Jits_Linear_5,104,9999,9999,9999,1699132500
120,17,19,Jits_Linear_5,105,9999,9999,9999,1699822656
120,17,19,Jits_Linear_5,106,9999,9999,9999,1700512864
120,17,19,Jits_Linear_5,107,9999,9999,9999,1701203024
120,17,19,Jits_Linear_5,108,9999,9999,9999,1701892220
120,17,19,Jits_Linear_5,109,9999,9999,9999,1702582356
120,17,19,Jits_Linear_5,110,9999,9999,9999,1703282776
120,17,19,Jits_Linear_5,111,9999,9999,9999,1703982152
120,17,19,Jits_Linear_5,112,9999,9999,9999,1704682576
120,17,19,Jits_Linear_5,113,9999,9999,9999,1705382972
120,17,19,Jits_Linear_5,114,9999,9999,9999,1706082420
120,17,19,Jits_Linear_5,115,9999,9999,9999,1706793024
120,17,19,Jits_Linear_5,116,9999,9999,9999,1707502664
120,17,19,Jits_Linear_5,117,9999,9999,9999,1708212348
120,17,19,Jits_Linear_5,118,9999,9999,9999,1708922964
120,17,19,Jits_Linear_5,119,9999,9999,9999,1709632600
120,17,19,Jits_Linear_5,120,9999,9999,9999,1710352500
120,17,19,Jits_Linear_5,121,9999,9999,9999,1711072380
120,17,19,Jits_Linear_5,122,9999,9999,9999,1711792212
120,17,19,Jits_Linear_5,123,9999,9999,9999,1712512056
120,17,19,Jits_Linear_5,124,9999,9999,9999,1713233004
120,17,19,Jits_Linear_5,125,9999,9999,9999,1713963084
120,17,19,Jits_Linear_5,126,9999,9999,9999,1714702392
120,17,19,Jits_Linear_5,127,9999,9999,9999,1715432556
120,17,19,Jits_Linear_5,128,9999,9999,9999,1716162628
120,17,19,Jits_Linear_5,129,9999,9999,9999,1716892740
120,17,19,Jits_Linear_5,130,9999,9999,9999,1717632060
120,17,19,Jits_Linear_5,131,9999,9999,9999,1718372416
120,17,19,Jits_Linear_5,132,9999,9999,9999,1719112776
120,17,19,Jits_Linear_5,133,9999,9999,9999,1719852092
120,17,19,Jits_Linear_5,134,9999,9999,9999,1720592440
120,17,19,Jits_Linear_5,135,9999,9999,9999,1721343060
120,17,19,Jits_Linear_5,136,9999,9999,9999,1722092636
120,17,19,Jits_Linear_5,137,9999,9999,9999,1722842176
120,17,19,Jits_Linear_5,138,9999,9999,9999,1723592788
120,17,19,Jits_Linear_5,139,9999,9999,9999,1724342384
120,17,19,Jits_Linear_5,140,9999,9999,9999,1725102144
120,17,19,Jits_Linear_5,141,9999,9999,9999,1725862968
120,17,19,Jits_Linear_5,142,9999,9999,9999,1726622804
120,17,19,Jits_Linear_5,143,9999,9999,9999,1727382644
120,17,19,Jits_Linear_5,144,9999,9999,9999,1728142396
120,17,19,Jits_Linear_5,145,9999,9999,9999,1728912500
120,17,19,Jits_Linear_5,146,9999,9999,9999,1729682532
120,17,19,Jits_Linear_5,147,9999,9999,9999,1730452556
120,17,19,Jits_Linear_5,148,9999,9999,9999,1731222652
120,17,19,Jits_Linear_5,149,9999,9999,9999,1731992680
120,17,19,Jits_Linear_5,150,9999,9999,9999,1732772972
120,17,19,Jits_Linear_5,151,9999,9999,9999,1733552208
120,17,19,Jits_Linear_5,152,9999,9999,9999,1734332496
120,17,19,Jits_Linear_5,153,9999,9999,9999,1735112772
120,17,19,Jits_Linear_5,154,9999,9999,9999,1735893064
120,17,19,Jits_Linear_5,155,9999,9999,9999,1736682592
120,17,19,Jits_Linear_5,156,9999,9999,9999,1737472088
120,17,19,Jits_Linear_5,157,9999,9999,9999,1738262632
120,17,19,Jits_Linear_5,158,9999,9999,9999,1739052140
120,17,19,Jits_Linear_5,159,9999,9999,9999,1739842616
120,17,19,Jits_Linear_5,160,9999,9999,9999,1740642360
120,17,19,Jits_Linear_5,161,9999,9999,9999,1741442136
120,17,19,Jits_Linear_5,162,9999,9999,9999,1742242872
120,17,19,Jits_Linear_5,163,9999,9999,9999,1743042656
120,17,19,Jits_Linear_5,164,9999,9999,9999,1743842372
120,17,19,Jits_Linear_5,165,9999,9999,9999,1744652408
120,17,19,Jits_Linear_5,166,9999,9999,9999,1745462368
120,17,19,Jits_Linear_5,167,9999,9999,9999,1746272320
120,17,19,Jits_Linear_5,168,9999,9999,9999,1747082360
120,17,19,Jits_Linear_5,169,9999,9999,9999,1747892316
120,18,15,Jits_Phase_8,0,5,56,103,1757500000
120,18,15,Jits_Phase_8,1,5,63,98,1757503024
120,18,15,Jits_Phase_8,2,5,80,127,1757506072
120,18,15,Jits_Phase_8,0,5,56,103,1758299572
120,18,15,Jits_Phase_8,1,5,63,98,1758302516
120,18,15,Jits_Phase_8,2,5,80,127,1758305716
120,18,15,Jits_Phase_8,0,5,80,127,1759039964
120,18,15,Jits_Phase_8,1,5,63,98,1759130024
120,18,15,Jits_Phase_8,2,5,56,103,1759140148
120,18,15,Jits_Phase_8,0,5,56,103,1759860008
120,18,15,Jits_Phase_8,1,5,63,98,1759870428
120,18,15,Jits_Phase_8,2,5,80,127,1759960484
120,18,15,Jits_Phase_8,0,5,63,98,1760630076
120,18,15,Jits_Phase_8,1,5,80,127,1760659752
120,18,15,Jits_Phase_8,2,5,56,103,1760689724
120,18,15,Jits_Phase_8,0,5,56,103,1761429944
120,18,15,Jits_Phase_8,1,5,80,127,1761530140
120,18,15,Jits_Phase_8,2,5,63,98,1761580344
120,18,15,Jits_Phase_8,0,5,56,103,1762229680
120,18,15,Jits_Phase_8,1,5,80,127,1762279756
120,18,15,Jits_Phase_8,2,5,63,98,1762319920
120,18,15,Jits_Phase_8,3,1,48,58,1762346332
120,18,15,Jits_Phase_8,0,5,80,127,1763060192
120,18,15,Jits_Phase_8,1,1,48,88,1763077628
120,18,15,Jits_Phase_8,2,5,63,98,1763089860
120,18,15,Jits_Phase_8,3,5,56,103,1763160364
120,18,15,Jits_Phase_8,0,5,63,98,1763889784
120,18,15,Jits_Phase_8,1,1,48,78,1763898532
120,18,15,Jits_Phase_8,2,5,56,103,1763920204
120,18,15,Jits_Phase_8,3,5,80,127,1763979768
120,18,15,Jits_Phase_8,0,5,56,103,1764629908
120,18,15,Jits_Phase_8,1,5,80,127,1764633048
120,18,15,Jits_Phase_8,2,1,48,76,1764698880
120,18,15,Jits_Phase_8,3,5,63,98,1764749772
120,18,15,Jits_Phase_8,0,1,48,63,1765450840
120,18,15,Jits_Phase_8,1,5,56,103,1765509752
120,18,15,Jits_Phase_8,2,5,80,127,1765549304
120,18,15,Jits_Phase_8,3,5,63,98,1765559872
120,18,15,Jits_Phase_8,0,5,56,103,1766270264
120,18,15,Jits_Phase_8,1,1,48,65,1766281624
120,18,15,Jits_Phase_8,2,5,80,127,1766289668
120,18,15,Jits_Phase_8,3,5,63,98,1766369784
120,18,15,Jits_Phase_8,0,1,48,77,1767057652
120,18,15,Jits_Phase_8,1,5,80,127,1767059768
120,18,15,Jits_Phase_8,2,5,56,103,1767160100
120,18,15,Jits_Phase_8,3,5,63,98,1767170372
120,18,15,Jits_Phase_8,0,5,63,98,1767829868
120,18,15,Jits_Phase_8,1,1,48,65,1767875456
120,18,15,Jits_Phase_8,2,5,80,127,1767890252
120,18,15,Jits_Phase_8,3,5,56,103,1767899772
120,18,15,Jits_Phase_8,0,1,48,61,1768617292
120,18,15,Jits_Phase_8,1,5,56,103,1768629688
120,18,15,Jits_Phase_8,2,5,63,98,1768700140
120,18,15,Jits_Phase_8,3,5,80,127,1768703580
120,18,15,Jits_Phase_8,0,1,48,64,1769391424
120,18,15,Jits_Phase_8,1,5,63,98,1769460104
120,18,15,Jits_Phase_8,2,5,56,103,1769510288
120,18,15,Jits_Phase_8,3,5,80,127,1769513208
120,18,15,Jits_Phase_8,0,1,48,60,1770214716
120,18,15,Jits_Phase_8,1,5,56,103,1770219764
120,18,15,Jits_Phase_8,2,5,80,127,1770222908
120,18,15,Jits_Phase_8,3,5,63,98,1770310032
120,18,15,Jits_Phase_8,0,1,48,54,1770986664
120,18,15,Jits_Phase_8,1,5,63,98,1771059672
120,18,15,Jits_Phase_8,2,5,56,103,1771149864
120,18,15,Jits_Phase_8,3,5,80,127,1771180660
120,18,15,Jits_Phase_8,0,1,48,58,1771837520
120,18,15,Jits_Phase_8,1,5,56,103,1771849992
120,18,15,Jits_Phase_8,2,5,63,98,1771949552
120,18,15,Jits_Phase_8,3,5,80,127,1771980124
120,18,15,Jits_Phase_8,0,1,48,56,1772661340
120,18,15,Jits_Phase_8,1,5,63,98,1772670504
120,18,15,Jits_Phase_8,2,5,56,103,1772679656
120,18,15,Jits_Phase_8,3,5,80,127,1772769796
120,18,15,Jits_Phase_8,0,1,48,58,1773455776
120,18,15,Jits_Phase_8,1,5,63,98,1773489452
120,18,15,Jits_Phase_8,2,5,56,103,1773570524
120,18,15,Jits_Phase_8,3,5,80,127,1773573816
120,18,15,Jits_Phase_8,0,5,80,127,1774250624
120,18,15,Jits_Phase_8,1,5,63,98,1774269888
120,18,15,Jits_Phase_8,2,1,48,55,1774299684
120,18,15,Jits_Phase_8,3,5,56,103,1774330296
120,18,15,Jits_Phase_8,0,1,48,60,1775046836
120,18,15,Jits_Phase_8,1,5,56,103,1775089976
120,18,15,Jits_Phase_8,2,5,63,98,1775109608
120,18,15,Jits_Phase_8,3,5,80,127,1775112900
120,18,15,Jits_Phase_8,0,5,63,98,1775830440
120,18,15,Jits_Phase_8,1,1,48,57,1775861084
120,18,15,Jits_Phase_8,2,5,80,127,1775910180
120,18,15,Jits_Phase_8,3,5,56,103,1775919628
120,18,15,Jits_Phase_8,0,5,63,98,1776649776
120,18,15,Jits_Phase_8,1,1,48,59,1776657852
120,18,15,Jits_Phase_8,2,5,56,103,1776670156
120,18,15,Jits_Phase_8,3,5,80,127,1776720204
120,18,15,Jits_Phase_8,0,5,80,127,1777450428
120,18,15,Jits_Phase_8,1,1,48,52,1777451988
120,18,15,Jits_Phase_8,2,5,63,98,1777490212
120,18,15,Jits_Phase_8,3,5,56,103,1777509696
120,18,15,Jits_Phase_8,0,1,48,66,1778196512
120,18,15,Jits_Phase_8,1,5,56,103,1778289976
120,18,15,Jits_Phase_8,2,5,63,98,1778300604
120,18,15,Jits_Phase_8,3,5,80,127,1778319720
120,18,15,Jits_Phase_8,0,5,56,103,1779020288
120,18,15,Jits_Phase_8,1,1,48,54,1779025648
120,18,15,Jits_Phase_8,2,5,63,98,1779110416
120,18,15,Jits_Phase_8,3,5,80,127,1779169692
120,18,15,Jits_Phase_8,0,5,80,127,1779849732
120,18,15,Jits_Phase_8,1,1,48,53,1779856596
120,18,15,Jits_Phase_8,2,5,56,103,1779859700
120,18,15,Jits_Phase_8,3,5,63,98,1779929604
120,18,15,Jits_Phase_8,0,1,48,83,1780654116
120,18,15,Jits_Phase_8,1,5,63,98,1780680064
120,18,15,Jits_Phase_8,2,5,80,127,1780770284
120,18,15,Jits_Phase_8,3,5,56,103,1780780480
120,18,15,Jits_Phase_8,0,5,63,98,1781410160
120,18,15,Jits_Phase_8,1,5,80,127,1781460512
120,18,15,Jits_Phase_8,2,5,56,103,1781519728
120,18,15,Jits_Phase_8,3,1,48,57,1781521444
120,18,15,Jits_Phase_8,0,5,56,103,1782230520
120,18,15,Jits_Phase_8,1,5,80,127,1782279700
120,18,15,Jits_Phase_8,2,5,63,98,1782300084
120,18,15,Jits_Phase_8,3,1,48,73,1782308380
120,18,15,Jits_Phase_8,0,5,56,103,1783000772
120,18,15,Jits_Phase_8,1,1,48,78,1783055984
120,18,15,Jits_Phase_8,2,5,80,127,1783059764
120,18,15,Jits_Phase_8,3,5,63,98,1783129444
120,18,15,Jits_Phase_8,0,5,56,103,1783800120
120,18,15,Jits_Phase_8,1,1,48,59,1783821452
120,18,15,Jits_Phase_8,2,5,80,127,1783829792
120,18,15,Jits_Phase_8,3,5,63,98,1783859692
120,18,15,Jits_Phase_8,0,1,48,58,1784541460
120,18,15,Jits_Phase_8,1,5,56,103,1784650208
120,18,15,Jits_Phase_8,2,5,80,127,1784669768
120,18,15,Jits_Phase_8,3,5,63,98,1784729936
120,18,15,Jits_Phase_8,0,1,48,48,1785362592
120,18,15,Jits_Phase_8,1,5,80,127,1785539872
120,18,15,Jits_Phase_8,2,5,56,103,1785550068
120,18,15,Jits_Phase_8,3,5,63,98,1785560712
120,18,15,Jits_Phase_8,0,1,48,45,1786263652
120,18,15,Jits_Phase_8,1,5,56,103,1786299720
120,18,15,Jits_Phase_8,2,5,80,127,1786339760
120,18,15,Jits_Phase_8,3,5,63,98,1786370392
120,18,15,Jits_Phase_8,0,1,48,54,1786999660
120,18,15,Jits_Phase_8,1,5,56,103,1787069812
120,18,15,Jits_Phase_8,2,5,63,98,1787099548
120,18,15,Jits_Phase_8,3,5,80,127,1787139584
120,18,15,Jits_Phase_8,0,1,48,46,1787816268
120,18,15,Jits_Phase_8,1,5,80,127,1787820644
120,18,15,Jits_Phase_8,2,5,63,98,1787869576
120,18,15,Jits_Phase_8,3,5,56,103,1787889984
120,18,15,Jits_Phase_8,0,1,48,43,1788585896
120,18,15,Jits_Phase_8,1,5,56,103,1788649868
120,18,15,Jits_Phase_8,2,5,80,127,1788719460
120,18,15,Jits_Phase_8,3,5,63,98,1788779848
120,18,15,Jits_Phase_8,0,1,48,46,1789428480
120,18,15,Jits_Phase_8,1,5,80,127,1789449704
120,18,15,Jits_Phase_8,2,5,63,98,1789539600
120,18,15,Jits_Phase_8,3,5,56,103,1789560280
120,18,15,Jits_Phase_8,0,1,48,56,1790261428
120,18,15,Jits_Phase_8,1,5,63,98,1790269692
120,18,15,Jits_Phase_8,2,5,56,103,1790290228
120,18,15,Jits_Phase_8,3,5,80,127,1790330540
120,18,15,Jits_Phase_8,0,1,48,61,1791025064
120,18,15,Jits_Phase_8,1,5,80,127,1791029668
120,18,15,Jits_Phase_8,2,5,63,98,1791050056
120,18,15,Jits_Phase_8,3,5,56,103,1791129908
120,18,15,Jits_Phase_8,0,5,63,98,1791820364
120,18,15,Jits_Phase_8,1,1,48,74,1791828288
120,18,15,Jits_Phase_8,2,5,56,103,1791929656
120,18,15,Jits_Phase_8,3,5,80,127,1791932796
120,18,15,Jits_Phase_8,0,5,63,98,1792640492
120,18,15,Jits_Phase_8,1,1,48,64,1792647808
120,18,15,Jits_Phase_8,2,5,56,103,1792649476
120,18,15,Jits_Phase_8,3,5,80,127,1792652552
120,18,15,Jits_Phase_8,0,5,56,103,1793419556
120,18,15,Jits_Phase_8,1,1,48,61,1793435404
120,18,15,Jits_Phase_8,2,5,80,127,1793539360
120,18,15,Jits_Phase_8,3,5,63,98,1793580568
120,18,15,Jits_Phase_8,0,5,56,103,1794239932
120,18,15,Jits_Phase_8,1,1,48,59,1794277456
120,18,15,Jits_Phase_8,2,5,80,127,1794319672
120,18,15,Jits_Phase_8,3,5,63,98,1794340504
120,18,15,Jits_Phase_8,0,1,48,69,1795038376
120,18,15,Jits_Phase_8,1,5,56,103,1795039948
120,18,15,Jits_Phase_8,2,5,63,98,1795150440
120,18,15,Jits_Phase_8,3,5,80,127,1795153804
120,18,15,Jits_Phase_8,0,5,56,103,1795880316
120,18,15,Jits_Phase_8,1,1,48,62,1795893020
120,18,15,Jits_Phase_8,2,5,80,127,1795909908
120,18,15,Jits_Phase_8,3,5,63,98,1795929544
120,18,15,Jits_Phase_8,0,1,48,70,1796660500
120,18,15,Jits_Phase_8,1,5,63,98,1796669740
120,18,15,Jits_Phase_8,2,5,56,103,1796680236
120,18,15,Jits_Phase_8,3,5,80,127,1796690280
120,18,15,Jits_Phase_8,0,1,48,64,1797440624
120,18,15,Jits_Phase_8,1,5,80,127,1797460424
120,18,15,Jits_Phase_8,2,5,56,103,1797509432
120,18,15,Jits_Phase_8,3,5,63,98,1797549352
120,18,15,Jits_Phase_8,0,1,48,63,1798219176
120,18,15,Jits_Phase_8,1,5,80,127,1798279512
120,18,15,Jits_Phase_8,2,5,63,98,1798300120
120,18,15,Jits_Phase_8,3,5,56,103,1798350380
120,18,15,Jits_Phase_8,0,1,48,56,1799044252
120,18,15,Jits_Phase_8,1,5,80,127,1799089460
120,18,15,Jits_Phase_8,2,5,56,103,1799120332
120,18,15,Jits_Phase_8,3,5,63,98,1799189796
120,18,15,Jits_Phase_8,0,1,48,66,1799876444
120,18,15,Jits_Phase_8,1,5,56,103,1799939368
120,18,15,Jits_Phase_8,2,5,80,127,1799949788
120,18,15,Jits_Phase_8,3,5,63,98,1799989636
120,18,15,Jits_Phase_8,0,5,56,103,1800650476
120,18,15,Jits_Phase_8,1,5,63,98,1800669516
120,18,15,Jits_Phase_8,2,1,48,56,1800726488
120,18,15,Jits_Phase_8,3,5,80,127,1800740160
120,18,15,Jits_Phase_8,0,5,63,98,1801470400
120,18,15,Jits_Phase_8,1,1,48,69,1801475984
120,18,15,Jits_Phase_8,2,5,80,127,1801529588
120,18,15,Jits_Phase_8,3,5,56,103,1801550268
120,18,15,Jits_Phase_8,0,5,80,127,1802259968
120,18,15,Jits_Phase_8,1,5,56,103,1802289496
120,18,15,Jits_Phase_8,2,1,48,56,1802313740
120,18,15,Jits_Phase_8,3,5,63,98,1802320212
120,18,15,Jits_Phase_8,0,5,56,103,1803059512
120,18,15,Jits_Phase_8,1,1,48,66,1803062180
120,18,15,Jits_Phase_8,2,5,63,98,1803120048
120,18,15,Jits_Phase_8,3,5,80,127,1803180496
120,18,15,Jits_Phase_8,0,1,48,68,1803834376
120,18,15,Jits_Phase_8,1,5,80,127,1803879660
120,18,15,Jits_Phase_8,2,5,56,103,1803900416
120,18,15,Jits_Phase_8,3,5,63,98,1803970080
120,18,15,Jits_Phase_8,0,1,48,59,1804647308
120,18,15,Jits_Phase_8,1,5,80,127,1804679492
120,18,15,Jits_Phase_8,2,5,63,98,1804700100
120,18,15,Jits_Phase_8,3,5,56,103,1804729772
120,18,15,Jits_Phase_8,0,5,80,127,1805470332
120,18,15,Jits_Phase_8,1,1,48,54,1805472704
120,18,15,Jits_Phase_8,2,5,63,98,1805489516
120,18,15,Jits_Phase_8,3,5,56,103,1805550228
120,18,15,Jits_Phase_8,0,1,48,71,1806245944
120,18,15,Jits_Phase_8,1,5,80,127,1806269948
120,18,15,Jits_Phase_8,2,5,56,103,1806370208
120,18,15,Jits_Phase_8,3,5,63,98,1806399884
120,18,15,Jits_Phase_8,0,5,63,98,1807060352
120,18,15,Jits_Phase_8,1,5,80,127,1807109384
120,18,15,Jits_Phase_8,2,1,48,59,1807122388
120,18,15,Jits_Phase_8,3,5,56,103,1807130060
120,18,15,Jits_Phase_8,0,5,80,127,1807900140
120,18,15,Jits_Phase_8,1,1,48,53,1807902512
120,18,15,Jits_Phase_8,2,5,56,103,1807929660
120,18,15,Jits_Phase_8,3,5,63,98,1807932728
120,18,15,Jits_Phase_8,0,1,48,62,1808661140
120,18,15,Jits_Phase_8,1,5,63,98,1808750024
120,18,15,Jits_Phase_8,2,5,56,103,1808790096
120,18,15,Jits_Phase_8,3,5,80,127,1808810332
120,18,15,Jits_Phase_8,0,1,48,66,1809503004
120,18,15,Jits_Phase_8,1,5,80,127,1809509628
120,18,15,Jits_Phase_8,2,5,63,98,1809589648
120,18,15,Jits_Phase_8,3,5,56,103,1809629668
120,18,15,Jits_Phase_8,0,5,63,98,1810330000
120,18,15,Jits_Phase_8,1,1,48,60,1810352892
120,18,15,Jits_Phase_8,2,5,80,127,1810409812
120,18,15,Jits_Phase_8,3,5,56,103,1810430196
120,18,15,Jits_Phase_8,0,5,56,103,1811169644
120,18,15,Jits_Phase_8,1,5,63,98,1811180140
120,18,15,Jits_Phase_8,2,1,48,63,1811187000
120,18,15,Jits_Phase_8,3,5,80,127,1811219920
120,18,15,Jits_Phase_8,0,5,56,103,1811889528
120,18,15,Jits_Phase_8,1,5,80,127,1811892520
120,18,15,Jits_Phase_8,2,1,48,67,1811994928
120,18,15,Jits_Phase_8,3,5,63,98,1812029868
120,18,15,Jits_Phase_8,0,5,56,103,1812680220
120,18,15,Jits_Phase_8,1,5,63,98,1812770084
120,18,15,Jits_Phase_8,2,1,48,63,1812777392
120,18,15,Jits_Phase_8,3,5,80,127,1812839756
120,18,15,Jits_Phase_8,0,1,48,52,1813542924
120,18,15,Jits_Phase_8,1,5,63,98,1813559808
120,18,15,Jits_Phase_8,2,5,80,127,1813563320
120,18,15,Jits_Phase_8,3,5,56,103,1813620272
120,18,15,Jits_Phase_8,0,1,48,55,1814324544
120,18,15,Jits_Phase_8,1,5,80,127,1814400248
120,18,15,Jits_Phase_8,2,5,56,103,1814420032
120,18,15,Jits_Phase_8,3,5,63,98,1814430212
120,18,15,Jits_Phase_8,0,1,48,56,1815104828
120,18,15,Jits_Phase_8,1,5,56,103,1815110180
120,18,15,Jits_Phase_8,2,5,63,98,1815120228
120,18,15,Jits_Phase_8,3,5,80,127,1815190128
120,18,15,Jits_Phase_8,0,1,48,53,1815862632
120,18,15,Jits_Phase_8,1,5,80,127,1815909784
120,18,15,Jits_Phase_8,2,5,56,103,1815960048
120,18,15,Jits_Phase_8,3,5,63,98,1816010024
120,18,15,Jits_Phase_8,0,1,48,56,1816668988
120,18,15,Jits_Phase_8,1,5,56,103,1816790292
120,18,15,Jits_Phase_8,2,5,63,98,1816799472
120,18,15,Jits_Phase_8,3,5,80,127,1816839408
120,18,15,Jits_Phase_8,0,1,48,60,1817481784
120,18,15,Jits_Phase_8,1,5,56,103,1817529764
120,18,15,Jits_Phase_8,2,5,63,98,1817569800
120,18,15,Jits_Phase_8,3,5,80,127,1817620208
120,18,15,Jits_Phase_8,0,1,48,59,1818256360
120,18,15,Jits_Phase_8,1,5,80,127,1818289588
120,18,15,Jits_Phase_8,2,5,56,103,1818339816
120,18,15,Jits_Phase_8,3,5,63,98,1818360036
120,18,15,Jits_Phase_8,0,1,48,57,1819057240
120,18,15,Jits_Phase_8,1,5,80,127,1819099384
120,18,15,Jits_Phase_8,2,5,63,98,1819159856
120,18,15,Jits_Phase_8,3,5,56,103,1819239948
120,18,15,Jits_Phase_8,0,5,80,127,1819880064
120,18,15,Jits_Phase_8,1,1,48,55,1819891428
120,18,15,Jits_Phase_8,2,5,56,103,1819919848
120,18,15,Jits_Phase_8,3,5,63,98,1819940160
120,18,15,Jits_Phase_8,0,1,48,58,1820680848
120,18,15,Jits_Phase_8,1,5,56,103,1820729796
120,18,15,Jits_Phase_8,2,5,80,127,1820740068
120,18,15,Jits_Phase_8,3,5,63,98,1820779992
120,18,15,Jits_Phase_8,0,1,48,58,1821531252
120,18,15,Jits_Phase_8,1,5,56,103,1821599980
120,18,15,Jits_Phase_8,2,5,63,98,1821639980
120,18,15,Jits_Phase_8,3,5,80,127,1821643416
120,18,15,Jits_Phase_8,0,5,63,98,1822269836
120,18,15,Jits_Phase_8,1,5,80,127,1822309996
120,18,15,Jits_Phase_8,2,5,56,103,1822380424
120,18,15,Jits_Phase_8,3,1,48,68,1822421972
120,18,15,Jits_Phase_8,0,5,63,98,1823039924
120,18,15,Jits_Phase_8,1,5,56,103,1823120020
120,18,15,Jits_Phase_8,2,1,48,54,1823160300
120,18,15,Jits_Phase_8,3,5,80,127,1823180252
120,18,15,Jits_Phase_8,0,5,80,127,1823849800
120,18,15,Jits_Phase_8,1,1,48,61,1823896140
120,18,15,Jits_Phase_8,2,5,63,98,1823899996
120,18,15,Jits_Phase_8,3,5,56,103,1823929748
120,18,15,Jits_Phase_8,0,5,56,103,1824640352
120,18,15,Jits_Phase_8,1,1,48,57,1824665724
120,18,15,Jits_Phase_8,2,5,63,98,1824689580
120,18,15,Jits_Phase_8,3,5,80,127,1824699996
120,18,15,Jits_Phase_8,0,1,48,60,1825443308
120,18,15,Jits_Phase_8,1,5,56,103,1825450380
120,18,15,Jits_Phase_8,2,5,63,98,1825560076
120,18,15,Jits_Phase_8,3,5,80,127,1825580388
120,18,15,Jits_Phase_8,0,1,48,58,1826229660
120,18,15,Jits_Phase_8,1,5,63,98,1826250136
120,18,15,Jits_Phase_8,2,5,80,127,1826300292
120,18,15,Jits_Phase_8,3,5,56,103,1826390256
120,18,15,Jits_Phase_8,0,1,48,62,1827033312
120,18,15,Jits_Phase_8,1,5,63,98,1827039732
120,18,15,Jits_Phase_8,2,5,80,127,1827070380
120,18,15,Jits_Phase_8,3,5,56,103,1827160420
120,18,15,Jits_Phase_8,0,5,63,98,1827840244
120,18,15,Jits_Phase_8,1,1,48,58,1827844408
120,18,15,Jits_Phase_8,2,5,56,103,1827849684
120,18,15,Jits_Phase_8,3,5,80,127,1827949912
120,18,15,Jits_Phase_8,0,1,48,54,1828625936
120,18,15,Jits_Phase_8,1,5,63,98,1828739540
120,18,15,Jits_Phase_8,2,5,80,127,1828770116
120,18,15,Jits_Phase_8,3,5,56,103,1828799940
120,18,15,Jits_Phase_8,0,1,48,48,1829493964
120,18,15,Jits_Phase_8,1,5,80,127,1829559772
120,18,15,Jits_Phase_8,2,5,63,98,1829569896
120,18,15,Jits_Phase_8,3,5,56,103,1829599652
120,18,15,Jits_Phase_8,0,5,80,127,1830260048
120,18,15,Jits_Phase_8,1,5,63,98,1830279612
120,18,15,Jits_Phase_8,2,1,48,53,1830281548
120,18,15,Jits_Phase_8,3,5,56,103,1830329880
120,18,15,Jits_Phase_8,0,1,48,46,1830986804
120,18,15,Jits_Phase_8,1,5,63,98,1831089840
120,18,15,Jits_Phase_8,2,5,80,127,1831150032
120,18,15,Jits_Phase_8,3,5,56,103,1831170340
120,18,15,Jits_Phase_8,0,1,48,37,1831799840
120,18,15,Jits_Phase_8,1,5,63,98,1831850432
120,18,15,Jits_Phase_8,2,5,56,103,1831899500
120,18,15,Jits_Phase_8,3,5,80,127,1831909720
120,18,15,Jits_Phase_8,0,1,48,37,1832565636
120,18,15,Jits_Phase_8,1,5,56,103,1832679864
120,18,15,Jits_Phase_8,2,5,80,127,1832690136
120,18,15,Jits_Phase_8,3,5,63,98,1832790304
120,18,15,Jits_Phase_8,0,5,80,127,1833439788
120,18,15,Jits_Phase_8,1,5,63,98,1833449836
120,18,15,Jits_Phase_8,2,1,48,44,1833451848
120,18,15,Jits_Phase_8,3,5,56,103,1833600252
120,18,15,Jits_Phase_8,0,5,63,98,1834249528
120,18,15,Jits_Phase_8,1,1,48,46,1834255784
120,18,15,Jits_Phase_8,2,5,80,127,1834289460
120,18,15,Jits_Phase_8,3,5,56,103,1834370432
120,18,15,Jits_Phase_8,0,5,56,103,1835000132
120,18,15,Jits_Phase_8,1,1,48,40,1835022360
120,18,15,Jits_Phase_8,2,5,80,127,1835099480
120,18,15,Jits_Phase_8,3,5,63,98,1835119924
120,18,15,Jits_Phase_8,0,1,48,43,1835734892
120,18,15,Jits_Phase_8,1,5,80,127,1835820512
120,18,15,Jits_Phase_8,2,5,56,103,1835829812
120,18,15,Jits_Phase_8,3,5,63,98,1835919628
120,18,15,Jits_Phase_8,0,1,48,44,1836560836
120,18,15,Jits_Phase_8,1,5,56,103,1836620124
120,18,15,Jits_Phase_8,2,5,63,98,1836639832
120,18,15,Jits_Phase_8,3,5,80,127,1836719836
120,18,15,Jits_Phase_8,0,5,63,98,1837369696
120,18,15,Jits_Phase_8,1,1,48,42,1837374008
120,18,15,Jits_Phase_8,2,5,56,103,1837459820
120,18,15,Jits_Phase_8,3,5,80,127,1837462884
120,18,15,Jits_Phase_8,0,1,48,47,1838133740
120,18,15,Jits_Phase_8,1,5,56,103,1838200152
120,18,15,Jits_Phase_8,2,5,80,127,1838259704
120,18,15,Jits_Phase_8,3,5,63,98,1838269828
120,18,15,Jits_Phase_8,0,1,48,48,1838947820
120,18,15,Jits_Phase_8,1,5,80,127,1839050168
120,18,15,Jits_Phase_8,2,5,56,103,1839060364
120,18,15,Jits_Phase_8,3,5,63,98,1839063280
120,18,15,Jits_Phase_8,0,1,48,57,1839769520
120,18,15,Jits_Phase_8,1,5,56,103,1839809928
120,18,15,Jits_Phase_8,2,5,80,127,1839820272
120,18,15,Jits_Phase_8,3,5,63,98,1839839784
120,18,15,Jits_Phase_8,0,1,48,45,1840542448
120,18,15,Jits_Phase_8,1,5,63,98,1840579940
120,18,15,Jits_Phase_8,2,5,80,127,1840641760
120,18,15,Jits_Phase_8,3,5,56,103,1840689644
120,18,15,Jits_Phase_8,0,1,48,36,1841304220
120,18,15,Jits_Phase_8,1,5,63,98,1841459800
120,18,15,Jits_Phase_8,2,5,56,103,1841469772
120,18,15,Jits_Phase_8,3,5,80,127,1841519972
120,18,15,Jits_Phase_8,0,1,48,42,1842104132
120,18,15,Jits_Phase_8,1,5,63,98,1842159932
120,18,15,Jits_Phase_8,2,5,80,127,1842179568
120,18,15,Jits_Phase_8,3,5,56,103,1842189840
120,18,15,Jits_Phase_8,0,1,48,43,1842899692
120,18,15,Jits_Phase_8,1,5,63,98,1842959756
120,18,15,Jits_Phase_8,2,5,80,127,1842963044
120,18,15,Jits_Phase_8,3,5,56,103,1842999752
120,18,15,Jits_Phase_8,0,1,48,41,1843679456
120,18,15,Jits_Phase_8,1,5,63,98,1843830060
120,18,15,Jits_Phase_8,2,5,80,127,1843859960
120,18,15,Jits_Phase_8,3,5,56,103,1843870008
120,18,15,Jits_Phase_8,0,5,56,103,1844579716
120,18,15,Jits_Phase_8,1,5,80,127,1844610588
120,18,15,Jits_Phase_8,2,1,48,35,1844629524
120,18,15,Jits_Phase_8,3,5,63,98,1844640256
120,18,15,Jits_Phase_8,0,1,48,20,1845402676
120,18,15,Jits_Phase_8,1,5,63,98,1845479752
120,18,15,Jits_Phase_8,2,5,56,103,1845519672
120,18,15,Jits_Phase_8,3,5,80,127,1845522736
120,18,15,Jits_Phase_8,0,5,80,127,1846180140
120,18,15,Jits_Phase_8,1,5,56,103,1846260184
120,18,15,Jits_Phase_8,2,1,48,38,1846262776
120,18,15,Jits_Phase_8,3,5,63,98,1846310676
120,18,15,Jits_Phase_8,0,5,80,127,1846959608
120,18,15,Jits_Phase_8,1,5,56,103,1846979996
120,18,15,Jits_Phase_8,2,1,48,33,1847027628
120,18,15,Jits_Phase_8,3,5,63,98,1847069996
120,18,15,Jits_Phase_8,0,1,48,31,1847771728
120,18,15,Jits_Phase_8,1,5,80,127,1847800300
120,18,15,Jits_Phase_8,2,5,63,98,1847840316
120,18,15,Jits_Phase_8,3,5,56,103,1847880016
120,18,15,Jits_Phase_8,0,1,48,50,1848587532
120,18,15,Jits_Phase_8,1,5,63,98,1848610100
120,18,15,Jits_Phase_8,2,5,80,127,1848669668
120,18,15,Jits_Phase_8,3,5,56,103,1848700524
120,18,15,Jits_Phase_8,0,1,48,50,1849415284
120,18,15,Jits_Phase_8,1,5,56,103,1849449784
120,18,15,Jits_Phase_8,2,5,80,127,1849479684
120,18,15,Jits_Phase_8,3,5,63,98,1849569600
120,18,15,Jits_Phase_8,0,5,56,103,1850259736
120,18,15,Jits_Phase_8,1,1,48,49,1850294988
120,18,15,Jits_Phase_8,2,5,80,127,1850370636
120,18,15,Jits_Phase_8,3,5,63,98,1850400076
120,18,15,Jits_Phase_8,0,5,56,103,1851109732
120,18,15,Jits_Phase_8,1,1,48,52,1851128664
120,18,15,Jits_Phase_8,2,5,63,98,1851170268
120,18,15,Jits_Phase_8,3,5,80,127,1851199716
120,18,15,Jits_Phase_8,0,5,56,103,1851879696
120,18,15,Jits_Phase_8,1,5,63,98,1851949452
120,18,15,Jits_Phase_8,2,1,48,46,1851951392
120,18,15,Jits_Phase_8,3,5,80,127,1851969828
120,18,15,Jits_Phase_8,0,5,80,127,1852649800
120,18,15,Jits_Phase_8,1,5,63,98,1852670484
120,18,15,Jits_Phase_8,2,1,48,47,1852713976
120,18,15,Jits_Phase_8,3,5,56,103,1852719404
120,18,15,Jits_Phase_8,0,5,63,98,1853470020
120,18,15,Jits_Phase_8,1,5,80,127,1853480440
120,18,15,Jits_Phase_8,2,1,48,42,1853488588
120,18,15,Jits_Phase_8,3,5,56,103,1853529436
120,18,15,Jits_Phase_8,0,1,48,31,1854250188
120,18,15,Jits_Phase_8,1,5,63,98,1854269916
120,18,15,Jits_Phase_8,2,5,80,127,1854339452
120,18,15,Jits_Phase_8,3,5,56,103,1854360044
120,18,15,Jits_Phase_8,0,1,48,38,1855037668
120,18,15,Jits_Phase_8,1,5,63,98,1855100316
120,18,15,Jits_Phase_8,2,5,80,127,1855103752
120,18,15,Jits_Phase_8,3,5,56,103,1855169908
120,18,15,Jits_Phase_8,0,5,80,127,1855849804
120,18,15,Jits_Phase_8,1,5,56,103,1855870412
120,18,15,Jits_Phase_8,2,1,48,45,1855875024
120,18,15,Jits_Phase_8,3,5,63,98,1855879480
120,18,15,Jits_Phase_8,0,1,48,48,1856634172
120,18,15,Jits_Phase_8,1,5,56,103,1856670016
120,18,15,Jits_Phase_8,2,5,63,98,1856760456
120,18,15,Jits_Phase_8,3,5,80,127,1856763672
120,18,15,Jits_Phase_8,0,5,80,127,1857440104
120,18,15,Jits_Phase_8,1,5,56,103,1857450672
120,18,15,Jits_Phase_8,2,1,48,56,1857454768
120,18,15,Jits_Phase_8,3,5,63,98,1857469856
120,18,15,Jits_Phase_8,0,1,48,50,1858184240
120,18,15,Jits_Phase_8,1,5,63,98,1858239712
120,18,15,Jits_Phase_8,2,5,80,127,1858300264
120,18,15,Jits_Phase_8,3,5,56,103,1858309488
120,18,15,Jits_Phase_8,0,1,48,43,1858993804
120,18,15,Jits_Phase_8,1,5,63,98,1859110424
120,18,15,Jits_Phase_8,2,5,80,127,1859139952
120,18,15,Jits_Phase_8,3,5,56,103,1859179812
120,18,15,Jits_Phase_8,0,1,48,49,1859801884
120,18,15,Jits_Phase_8,1,5,56,103,1859899624
120,18,15,Jits_Phase_8,2,5,80,127,1859909892
120,18,15,Jits_Phase_8,3,5,63,98,1859949904
120,18,15,Jits_Phase_8,0,1,48,53,1860594468
120,18,15,Jits_Phase_8,1,5,80,127,1860659536
120,18,15,Jits_Phase_8,2,5,56,103,1860739392
120,18,15,Jits_Phase_8,3,5,63,98,1860749588
120,18,15,Jits_Phase_8,0,1,48,38,1861417004
120,18,15,Jits_Phase_8,1,5,80,127,1861509420
120,18,15,Jits_Phase_8,2,5,56,103,1861590468
120,18,15,Jits_Phase_8,3,5,63,98,1861599568
120,18,15,Jits_Phase_8,0,1,48,35,1862283528
120,18,15,Jits_Phase_8,1,5,80,127,1862350240
120,18,15,Jits_Phase_8,2,5,56,103,1862400524
120,18,15,Jits_Phase_8,3,5,63,98,1862449456
120,18,15,Jits_Phase_8,0,1,48,29,1863113688
120,18,15,Jits_Phase_8,1,5,56,103,1863290248
120,18,15,Jits_Phase_8,2,5,63,98,1863293464
120,18,15,Jits_Phase_8,3,5,80,127,1863340376
120,18,15,Jits_Phase_8,0,1,48,38,1863994388
120,18,15,Jits_Phase_8,1,5,56,103,1864109408
120,18,15,Jits_Phase_8,2,5,63,98,1864140356
120,18,15,Jits_Phase_8,3,5,80,127,1864150476
120,18,15,Jits_Phase_8,0,1,48,36,1864804420
120,18,15,Jits_Phase_8,1,5,63,98,1864820180
120,18,15,Jits_Phase_8,2,5,56,103,1864889788
120,18,15,Jits_Phase_8,3,5,80,127,1864939848
120,18,15,Jits_Phase_8,0,1,48,31,1865585816
120,18,15,Jits_Phase_8,1,5,63,98,1865649384
120,18,15,Jits_Phase_8,2,5,56,103,1865659728
120,18,15,Jits_Phase_8,3,5,80,127,1865662868
120,18,15,Jits_Phase_8,0,1,48,40,1866354848
120,18,15,Jits_Phase_8,1,5,80,127,1866400280
120,18,15,Jits_Phase_8,2,5,56,103,1866459488
120,18,15,Jits_Phase_8,3,5,63,98,1866549544
120,18,15,Jits_Phase_8,0,1,48,32,1867145316
120,18,15,Jits_Phase_8,1,5,80,127,1867199888
120,18,15,Jits_Phase_8,2,5,56,103,1867300300
120,18,15,Jits_Phase_8,3,5,63,98,1867340312
120,18,15,Jits_Phase_8,0,1,48,43,1867968012
120,18,15,Jits_Phase_8,1,5,56,103,1868049796
120,18,15,Jits_Phase_8,2,5,63,98,1868070168
120,18,15,Jits_Phase_8,3,5,80,127,1868110104
120,18,15,Jits_Phase_8,0,1,48,36,1868728732
120,18,15,Jits_Phase_8,1,5,63,98,1868819812
120,18,15,Jits_Phase_8,2,5,56,103,1868840404
120,18,15,Jits_Phase_8,3,5,80,127,1868939528
120,18,15,Jits_Phase_8,0,1,48,32,1869525776
120,18,15,Jits_Phase_8,1,5,63,98,1869610348
120,18,15,Jits_Phase_8,2,5,80,127,1869719800
120,18,15,Jits_Phase_8,3,5,56,103,1869749548
120,18,15,Jits_Phase_8,0,1,48,38,1870312908
120,18,15,Jits_Phase_8,1,5,56,103,1870429500
120,18,15,Jits_Phase_8,2,5,63,98,1870460224
120,18,15,Jits_Phase_8,3,5,80,127,1870509452
120,18,15,Jits_Phase_8,0,1,48,31,1871099036
120,18,15,Jits_Phase_8,1,5,63,98,1871199512
120,18,15,Jits_Phase_8,2,5,56,103,1871230460
120,18,15,Jits_Phase_8,3,5,80,127,1871279464
120,18,15,Jits_Phase_8,0,1,48,40,1871892936
120,18,15,Jits_Phase_8,1,5,56,103,1872030356
120,18,15,Jits_Phase_8,2,5,63,98,1872049544
120,18,15,Jits_Phase_8,3,5,80,127,1872130408
120,18,15,Jits_Phase_8,0,1,48,34,1872744008
120,18,15,Jits_Phase_8,1,5,63,98,1872800384
120,18,15,Jits_Phase_8,2,5,56,103,1872859512
120,18,15,Jits_Phase_8,3,5,80,127,1872890084
120,18,15,Jits_Phase_8,0,1,48,52,1873536044
120,18,15,Jits_Phase_8,1,5,56,103,1873639704
120,18,15,Jits_Phase_8,2,5,80,127,1873700244
120,18,15,Jits_Phase_8,3,5,63,98,1873740332
120,18,15,Jits_Phase_8,0,5,63,98,1874420304
120,18,15,Jits_Phase_8,1,1,48,50,1874448680
120,18,15,Jits_Phase_8,2,5,56,103,1874479420
120,18,15,Jits_Phase_8,3,5,80,127,1874550352
120,18,15,Jits_Phase_8,0,1,48,50,1875293976
120,18,15,Jits_Phase_8,1,5,56,103,1875299776
120,18,15,Jits_Phase_8,2,5,63,98,1875309896
120,18,15,Jits_Phase_8,3,5,80,127,1875313484
120,18,15,Jits_Phase_8,0,5,63,98,1876040272
120,18,15,Jits_Phase_8,1,1,48,53,1876067208
120,18,15,Jits_Phase_8,2,5,56,103,1876099460
120,18,15,Jits_Phase_8,3,5,80,127,1876102600
120,18,15,Jits_Phase_8,0,5,63,98,1876820244
120,18,15,Jits_Phase_8,1,1,48,51,1876830636
120,18,15,Jits_Phase_8,2,5,80,127,1876850212
120,18,15,Jits_Phase_8,3,5,56,103,1876869472
120,18,15,Jits_Phase_8,0,5,56,103,1877549496
120,18,15,Jits_Phase_8,1,1,48,48,1877589108
120,18,15,Jits_Phase_8,2,5,63,98,1877599468
120,18,15,Jits_Phase_8,3,5,80,127,1877679336
120,18,15,Jits_Phase_8,0,5,80,127,1878249936
120,18,15,Jits_Phase_8,1,5,63,98,1878289728
120,18,15,Jits_Phase_8,2,5,56,103,1878310264
120,18,15,Jits_Phase_8,3,1,48,52,1878369120
120,18,15,Jits_Phase_8,0,1,48,55,1879068788
120,18,15,Jits_Phase_8,1,5,56,103,1879120276
120,18,15,Jits_Phase_8,2,5,80,127,1879129424
120,18,15,Jits_Phase_8,3,5,63,98,1879149884
120,18,15,Jits_Phase_8,0,1,48,54,1879863892
120,18,15,Jits_Phase_8,1,1,38,13,1879879840
120,18,15,Jits_Phase_8,2,5,56,103,1879899640
120,18,15,Jits_Phase_8,3,5,63,98,1879949544
120,18,15,Jits_Phase_8,4,5,80,127,1879980372
120,18,15,Jits_Phase_8,0,5,56,103,1880650060
120,18,15,Jits_Phase_8,1,5,63,98,1880660404
120,18,15,Jits_Phase_8,2,1,48,42,1880679640
120,18,15,Jits_Phase_8,3,5,80,127,1880709480
120,18,15,Jits_Phase_8,0,5,56,103,1881439636
120,18,15,Jits_Phase_8,1,1,48,56,1881441220
120,18,15,Jits_Phase_8,2,5,80,127,1881443820
120,18,15,Jits_Phase_8,3,5,63,98,1881600416
120,18,15,Jits_Phase_8,0,1,48,54,1882212916
120,18,15,Jits_Phase_8,1,5,63,98,1882259848
120,18,15,Jits_Phase_8,2,5,56,103,1882329516
120,18,15,Jits_Phase_8,3,5,80,127,1882370352
120,18,15,Jits_Phase_8,0,1,48,54,1882967784
120,18,15,Jits_Phase_8,1,5,63,98,1883099456
120,18,15,Jits_Phase_8,2,5,56,103,1883189588
120,18,15,Jits_Phase_8,3,5,80,127,1883192876
120,18,15,Jits_Phase_8,0,1,48,54,1883857876
120,18,15,Jits_Phase_8,1,5,56,103,1883880044
120,18,15,Jits_Phase_8,2,5,63,98,1883970088
120,18,15,Jits_Phase_8,3,5,80,127,1883980208
120,18,15,Jits_Phase_8,0,5,56,103,1884649772
120,18,15,Jits_Phase_8,1,1,48,57,1884671988
120,18,15,Jits_Phase_8,2,5,63,98,1884700040
120,18,15,Jits_Phase_8,3,5,80,127,1884729564
120,18,15,Jits_Phase_8,0,1,48,50,1885457212
120,18,15,Jits_Phase_8,1,5,63,98,1885529400
120,18,15,Jits_Phase_8,2,5,80,127,1885539820
120,18,15,Jits_Phase_8,3,5,56,103,1885600192
120,18,15,Jits_Phase_8,0,5,63,98,1886250348
120,18,15,Jits_Phase_8,1,1,48,41,1886253248
120,18,15,Jits_Phase_8,2,5,80,127,1886309988
120,18,15,Jits_Phase_8,3,5,56,103,1886349776
120,18,15,Jits_Phase_8,0,1,48,34,1886991408
120,18,15,Jits_Phase_8,1,5,56,103,1887149356
120,18,15,Jits_Phase_8,2,5,80,127,1887169964
120,18,15,Jits_Phase_8,3,5,63,98,1887190276
120,18,15,Jits_Phase_8,0,5,63,98,1887870328
120,18,15,Jits_Phase_8,1,5,56,103,1887889888
120,18,15,Jits_Phase_8,2,1,48,41,1887895628
120,18,15,Jits_Phase_8,3,5,80,127,1887929896
120,18,15,Jits_Phase_8,0,1,48,32,1888651168
120,18,15,Jits_Phase_8,1,5,63,98,1888680264
120,18,15,Jits_Phase_8,2,5,80,127,1888710016
120,18,15,Jits_Phase_8,3,5,56,103,1888729676
120,18,15,Jits_Phase_8,0,5,80,127,1889450212
120,18,15,Jits_Phase_8,1,1,48,53,1889469744
120,18,15,Jits_Phase_8,2,5,56,103,1889499460
120,18,15,Jits_Phase_8,3,5,63,98,1889560072
120,18,15,Jits_Phase_8,0,5,63,98,1890239792
120,18,15,Jits_Phase_8,1,1,48,48,1890263436
120,18,15,Jits_Phase_8,2,5,56,103,1890359760
120,18,15,Jits_Phase_8,3,5,80,127,1890390244
120,18,15,Jits_Phase_8,0,5,80,127,1891079660
120,18,15,Jits_Phase_8,1,1,48,49,1891083224
120,18,15,Jits_Phase_8,2,5,63,98,1891100036
120,18,15,Jits_Phase_8,3,5,56,103,1891169716
120,18,15,Jits_Phase_8,0,5,63,98,1891899888
120,18,15,Jits_Phase_8,1,5,56,103,1891909932
120,18,15,Jits_Phase_8,2,1,48,57,1891926756
120,18,15,Jits_Phase_8,3,5,80,127,1891989868
120,18,15,Jits_Phase_8,0,1,48,50,1892703432
120,18,15,Jits_Phase_8,1,5,56,103,1892760028
120,18,15,Jits_Phase_8,2,5,80,127,1892789556
120,18,15,Jits_Phase_8,3,5,63,98,1892799960
120,18,15,Jits_Phase_8,0,9999,9999,9999,1757897788
120,18,15,Jits_Phase_8,1,9999,9999,9999,1758697528
120,18,15,Jits_Phase_8,2,9999,9999,9999,1759497344
120,18,15,Jits_Phase_8,3,9999,9999,9999,1760298056
120,18,15,Jits_Phase_8,4,9999,9999,9999,1761097784
120,18,15,Jits_Phase_8,5,9999,9999,9999,1761897584
120,18,15,Jits_Phase_8,6,9999,9999,9999,1762697296
120,18,15,Jits_Phase_8,7,9999,9999,9999,1763498040
120,18,15,Jits_Phase_8,8,9999,9999,9999,1764297820
120,18,15,Jits_Phase_8,9,9999,9999,9999,1765097588
120,18,15,Jits_Phase_8,10,9999,9999,9999,1765897292
120,18,15,Jits_Phase_8,11,9999,9999,9999,1766698096
120,18,15,Jits_Phase_8,12,9999,9999,9999,1767497804
120,18,15,Jits_Phase_8,13,9999,9999,9999,1768297556
120,18,15,Jits_Phase_8,14,9999,9999,9999,1769097304
120,18,15,Jits_Phase_8,15,9999,9999,9999,1769898100
120,18,15,Jits_Phase_8,16,9999,9999,9999,1770697840
120,18,15,Jits_Phase_8,17,9999,9999,9999,1771497556
120,18,15,Jits_Phase_8,18,9999,9999,9999,1772297320
120,18,15,Jits_Phase_8,19,9999,9999,9999,1773098052
120,18,15,Jits_Phase_8,20,9999,9999,9999,1773897808
120,18,15,Jits_Phase_8,21,9999,9999,9999,1774697564
120,18,15,Jits_Phase_8,22,9999,9999,9999,1775497328
120,18,15,Jits_Phase_8,23,9999,9999,9999,1776298056
120,18,15,Jits_Phase_8,24,9999,9999,9999,1777097812
120,18,15,Jits_Phase_8,25,9999,9999,9999,1777897592
120,18,15,Jits_Phase_8,26,9999,9999,9999,1778697292
120,18,15,Jits_Phase_8,27,9999,9999,9999,1779498096
120,18,15,Jits_Phase_8,28,9999,9999,9999,1780297796
120,18,15,Jits_Phase_8,29,9999,9999,9999,1781097572
120,18,15,Jits_Phase_8,30,9999,9999,9999,1781877848
120,18,15,Jits_Phase_8,31,9999,9999,9999,1782677612
120,18,15,Jits_Phase_8,32,9999,9999,9999,1783477308
120,18,15,Jits_Phase_8,33,9999,9999,9999,1784278120
120,18,15,Jits_Phase_8,34,9999,9999,9999,1785088104
120,18,15,Jits_Phase_8,35,9999,9999,9999,1785898056
120,18,15,Jits_Phase_8,36,9999,9999,9999,1786697820
120,18,15,Jits_Phase_8,37,9999,9999,9999,1787497580
120,18,15,Jits_Phase_8,38,9999,9999,9999,1788297332
120,18,15,Jits_Phase_8,39,9999,9999,9999,1789098064
120,18,15,Jits_Phase_8,40,9999,9999,9999,1789897824
120,18,15,Jits_Phase_8,41,9999,9999,9999,1790697536
120,18,15,Jits_Phase_8,42,9999,9999,9999,1791497292
120,18,15,Jits_Phase_8,43,9999,9999,9999,1792298088
120,18,15,Jits_Phase_8,44,9999,9999,9999,1793097828
120,18,15,Jits_Phase_8,45,9999,9999,9999,1793897588
120,18,15,Jits_Phase_8,46,9999,9999,9999,1794697288
120,18,15,Jits_Phase_8,47,9999,9999,9999,1795498100
120,18,15,Jits_Phase_8,48,9999,9999,9999,1796317264
120,18,15,Jits_Phase_8,49,9999,9999,9999,1797118028
120,18,15,Jits_Phase_8,50,9999,9999,9999,1797917784
120,18,15,Jits_Phase_8,51,9999,9999,9999,1798717540
120,18,15,Jits_Phase_8,52,9999,9999,9999,1799517304
120,18,15,Jits_Phase_8,53,9999,9999,9999,1800318040
120,18,15,Jits_Phase_8,54,9999,9999,9999,1801117768
120,18,15,Jits_Phase_8,55,9999,9999,9999,1801917540
120,18,15,Jits_Phase_8,56,9999,9999,9999,1802717244
120,18,15,Jits_Phase_8,57,9999,9999,9999,1803518064
120,18,15,Jits_Phase_8,58,9999,9999,9999,1804317764
120,18,15,Jits_Phase_8,59,9999,9999,9999,1805117520
120,18,15,Jits_Phase_8,60,9999,9999,9999,1805917272
120,18,15,Jits_Phase_8,61,9999,9999,9999,1806718024
120,18,15,Jits_Phase_8,62,9999,9999,9999,1807517780
120,18,15,Jits_Phase_8,63,9999,9999,9999,1808317528
120,18,15,Jits_Phase_8,64,9999,9999,9999,1809157188
120,18,15,Jits_Phase_8,65,9999,9999,9999,1809958000
120,18,15,Jits_Phase_8,66,9999,9999,9999,1810757688
120,18,15,Jits_Phase_8,67,9999,9999,9999,1811557452
120,18,15,Jits_Phase_8,68,9999,9999,9999,1812357212
120,18,15,Jits_Phase_8,69,9999,9999,9999,1813157956
120,18,15,Jits_Phase_8,70,9999,9999,9999,1813957728
120,18,15,Jits_Phase_8,71,9999,9999,9999,1814757444
120,18,15,Jits_Phase_8,72,9999,9999,9999,1815557200
120,18,15,Jits_Phase_8,73,9999,9999,9999,1816358004
120,18,15,Jits_Phase_8,74,9999,9999,9999,1817157696
120,18,15,Jits_Phase_8,75,9999,9999,9999,1817957456
120,18,15,Jits_Phase_8,76,9999,9999,9999,1818757212
120,18,15,Jits_Phase_8,77,9999,9999,9999,1819558016
120,18,15,Jits_Phase_8,78,9999,9999,9999,1820357692
120,18,15,Jits_Phase_8,79,9999,9999,9999,1821157488
120,18,15,Jits_Phase_8,80,9999,9999,9999,1821957176
120,18,15,Jits_Phase_8,81,9999,9999,9999,1822718048
120,18,15,Jits_Phase_8,82,9999,9999,9999,1823517808
120,18,15,Jits_Phase_8,83,9999,9999,9999,1824317564
120,18,15,Jits_Phase_8,84,9999,9999,9999,1825117260
120,18,15,Jits_Phase_8,85,9999,9999,9999,1825918008
120,18,15,Jits_Phase_8,86,9999,9999,9999,1826717760
120,18,15,Jits_Phase_8,87,9999,9999,9999,1827517516
120,18,15,Jits_Phase_8,88,9999,9999,9999,1828317296
120,18,15,Jits_Phase_8,89,9999,9999,9999,1829118028
120,18,15,Jits_Phase_8,90,9999,9999,9999,1829917796
120,18,15,Jits_Phase_8,91,9999,9999,9999,1830717548
120,18,15,Jits_Phase_8,92,9999,9999,9999,1831517252
120,18,15,Jits_Phase_8,93,9999,9999,9999,1832318052
120,18,15,Jits_Phase_8,94,9999,9999,9999,1833117812
120,18,15,Jits_Phase_8,95,9999,9999,9999,1833917492
120,18,15,Jits_Phase_8,96,9999,9999,9999,1834717292
120,18,15,Jits_Phase_8,97,9999,9999,9999,1835437168
120,18,15,Jits_Phase_8,98,9999,9999,9999,1836237916
120,18,15,Jits_Phase_8,99,9999,9999,9999,1837037632
120,18,15,Jits_Phase_8,100,9999,9999,9999,1837837376
120,18,15,Jits_Phase_8,101,9999,9999,9999,1838637136
120,18,15,Jits_Phase_8,102,9999,9999,9999,1839437936
120,18,15,Jits_Phase_8,103,9999,9999,9999,1840237692
120,18,15,Jits_Phase_8,104,9999,9999,9999,1841037376
120,18,15,Jits_Phase_8,105,9999,9999,9999,1841837144
120,18,15,Jits_Phase_8,106,9999,9999,9999,1842637936
120,18,15,Jits_Phase_8,107,9999,9999,9999,1843437628
120,18,15,Jits_Phase_8,108,9999,9999,9999,1844237388
120,18,15,Jits_Phase_8,109,9999,9999,9999,1845037144
120,18,15,Jits_Phase_8,110,9999,9999,9999,1845837888
120,18,15,Jits_Phase_8,111,9999,9999,9999,1846637648
120,18,15,Jits_Phase_8,112,9999,9999,9999,1847437412
120,18,15,Jits_Phase_8,113,9999,9999,9999,1848237112
120,18,15,Jits_Phase_8,114,9999,9999,9999,1849117800
120,18,15,Jits_Phase_8,115,9999,9999,9999,1849917556
120,18,15,Jits_Phase_8,116,9999,9999,9999,1850717240
120,18,15,Jits_Phase_8,117,9999,9999,9999,1851518068
120,18,15,Jits_Phase_8,118,9999,9999,9999,1852317772
120,18,15,Jits_Phase_8,119,9999,9999,9999,1853117536
120,18,15,Jits_Phase_8,120,9999,9999,9999,1853917256
120,18,15,Jits_Phase_8,121,9999,9999,9999,1854718060
120,18,15,Jits_Phase_8,122,9999,9999,9999,1855517812
120,18,15,Jits_Phase_8,123,9999,9999,9999,1856317564
120,18,15,Jits_Phase_8,124,9999,9999,9999,1857117256
120,18,15,Jits_Phase_8,125,9999,9999,9999,1857918052
120,18,15,Jits_Phase_8,126,9999,9999,9999,1858717820
120,18,15,Jits_Phase_8,127,9999,9999,9999,1859517508
120,18,15,Jits_Phase_8,128,9999,9999,9999,1860317288
120,18,15,Jits_Phase_8,129,9999,9999,9999,1861118020
120,18,15,Jits_Phase_8,130,9999,9999,9999,1861917784
120,18,15,Jits_Phase_8,131,9999,9999,9999,1862877292
120,18,15,Jits_Phase_8,132,9999,9999,9999,1863678016
120,18,15,Jits_Phase_8,133,9999,9999,9999,1864477784
120,18,15,Jits_Phase_8,134,9999,9999,9999,1865277540
120,18,15,Jits_Phase_8,135,9999,9999,9999,1866077288
120,18,15,Jits_Phase_8,136,9999,9999,9999,1866878020
120,18,15,Jits_Phase_8,137,9999,9999,9999,1867677780
120,18,15,Jits_Phase_8,138,9999,9999,9999,1868477540
120,18,15,Jits_Phase_8,139,9999,9999,9999,1869277244
120,18,15,Jits_Phase_8,140,9999,9999,9999,1870078052
120,18,15,Jits_Phase_8,141,9999,9999,9999,1870877808
120,18,15,Jits_Phase_8,142,9999,9999,9999,1871677560
120,18,15,Jits_Phase_8,143,9999,9999,9999,1872477244
120,18,15,Jits_Phase_8,144,9999,9999,9999,1873278040
120,18,15,Jits_Phase_8,145,9999,9999,9999,1874077800
120,18,15,Jits_Phase_8,146,9999,9999,9999,1874877560
120,18,15,Jits_Phase_8,147,9999,9999,9999,1875677264
120,18,15,Jits_Phase_8,148,9999,9999,9999,1876478064
120,18,15,Jits_Phase_8,149,9999,9999,9999,1877277816
120,18,15,Jits_Phase_8,150,9999,9999,9999,1877917756
120,18,15,Jits_Phase_8,151,9999,9999,9999,1878717524
120,18,15,Jits_Phase_8,152,9999,9999,9999,1879517252
120,18,15,Jits_Phase_8,153,9999,9999,9999,1880318016
120,18,15,Jits_Phase_8,154,9999,9999,9999,1881117820
120,18,15,Jits_Phase_8,155,9999,9999,9999,1881917512
120,18,15,Jits_Phase_8,156,9999,9999,9999,1882717260
120,18,15,Jits_Phase_8,157,9999,9999,9999,1883518064
120,18,15,Jits_Phase_8,158,9999,9999,9999,1884317752
120,18,15,Jits_Phase_8,159,9999,9999,9999,1885117508
120,18,15,Jits_Phase_8,160,9999,9999,9999,1885917240
120,18,15,Jits_Phase_8,161,9999,9999,9999,1886718040
120,18,15,Jits_Phase_8,162,9999,9999,9999,1887517804
120,18,15,Jits_Phase_8,163,9999,9999,9999,1888317564
120,18,15,Jits_Phase_8,164,9999,9999,9999,1889117248
120,18,15,Jits_Phase_8,165,9999,9999,9999,1889918048
120,18,15,Jits_Phase_8,166,9999,9999,9999,1890717824
120,18,15,Jits_Phase_8,167,9999,9999,9999,1891517508
120,18,15,Jits_Phase_8,168,9999,9999,9999,1892317308
120,18,15,Jits_Phase_8,169,9999,9999,9999,1893118052
120,19,17,Jits_Phase_5,0,5,56,103,1900709072
120,19,17,Jits_Phase_5,1,5,63,98,1900712096
120,19,17,Jits_Phase_5,2,5,80,127,1900715444
120,19,17,Jits_Phase_5,0,5,56,103,1901209008
120,19,17,Jits_Phase_5,1,5,63,98,1901211880
120,19,17,Jits_Phase_5,2,5,80,127,1901215076
120,19,17,Jits_Phase_5,0,5,56,103,1901708804
120,19,17,Jits_Phase_5,1,5,80,127,1901718852
120,19,17,Jits_Phase_5,2,5,63,98,1901739236
120,19,17,Jits_Phase_5,0,5,63,98,1902159160
120,19,17,Jits_Phase_5,1,5,80,127,1902188984
120,19,17,Jits_Phase_5,2,5,56,103,1902199180
120,19,17,Jits_Phase_5,0,5,80,127,1902719256
120,19,17,Jits_Phase_5,1,5,56,103,1902728628
120,19,17,Jits_Phase_5,2,5,63,98,1902759200
120,19,17,Jits_Phase_5,0,5,63,98,1903208800
120,19,17,Jits_Phase_5,1,5,56,103,1903238700
120,19,17,Jits_Phase_5,2,5,80,127,1903248820
120,19,17,Jits_Phase_5,0,5,56,103,1903659664
120,19,17,Jits_Phase_5,1,5,63,98,1903708668
120,19,17,Jits_Phase_5,2,5,80,127,1903728904
120,19,17,Jits_Phase_5,0,5,80,127,1904159164
120,19,17,Jits_Phase_5,1,5,63,98,1904209292
120,19,17,Jits_Phase_5,2,5,56,103,1904249080
120,19,17,Jits_Phase_5,0,5,56,103,1904658892
120,19,17,Jits_Phase_5,1,5,63,98,1904688792
120,19,17,Jits_Phase_5,2,5,80,127,1904759144
120,19,17,Jits_Phase_5,0,5,56,103,1905158616
120,19,17,Jits_Phase_5,1,5,80,127,1905218856
120,19,17,Jits_Phase_5,2,5,63,98,1905248756
120,19,17,Jits_Phase_5,0,5,56,103,1905668460
120,19,17,Jits_Phase_5,1,5,63,98,1905678656
120,19,17,Jits_Phase_5,2,5,80,127,1905718664
120,19,17,Jits_Phase_5,0,5,63,98,1906159040
120,19,17,Jits_Phase_5,1,5,80,127,1906238760
120,19,17,Jits_Phase_5,2,5,56,103,1906248956
120,19,17,Jits_Phase_5,0,1,48,67,1906702992
120,19,17,Jits_Phase_5,1,5,63,98,1906708868
120,19,17,Jits_Phase_5,2,5,56,103,1906748804
120,19,17,Jits_Phase_5,3,5,80,127,1906751724
120,19,17,Jits_Phase_5,0,5,56,103,1907168764
120,19,17,Jits_Phase_5,1,5,63,98,1907178812
120,19,17,Jits_Phase_5,2,5,80,127,1907218748
120,19,17,Jits_Phase_5,3,1,48,72,1907237904
120,19,17,Jits_Phase_5,0,5,56,103,1907659060
120,19,17,Jits_Phase_5,1,5,63,98,1907662200
120,19,17,Jits_Phase_5,2,5,80,127,1907678716
120,19,17,Jits_Phase_5,3,1,48,67,1907734044
120,19,17,Jits_Phase_5,0,5,80,127,1908169076
120,19,17,Jits_Phase_5,1,5,56,103,1908179420
120,19,17,Jits_Phase_5,2,1,48,70,1908213124
120,19,17,Jits_Phase_5,3,5,63,98,1908248816
120,19,17,Jits_Phase_5,0,5,63,98,1908658576
120,19,17,Jits_Phase_5,1,5,56,103,1908679108
120,19,17,Jits_Phase_5,2,1,48,66,1908711472
120,19,17,Jits_Phase_5,3,5,80,127,1908758916
120,19,17,Jits_Phase_5,0,5,56,103,1909168436
120,19,17,Jits_Phase_5,1,1,48,56,1909188488
120,19,17,Jits_Phase_5,2,5,80,127,1909208692
120,19,17,Jits_Phase_5,3,5,63,98,1909218664
120,19,17,Jits_Phase_5,0,5,80,127,1909659124
120,19,17,Jits_Phase_5,1,1,48,51,1909664864
120,19,17,Jits_Phase_5,2,5,63,98,1909688792
120,19,17,Jits_Phase_5,3,5,56,103,1909728680
120,19,17,Jits_Phase_5,0,1,48,57,1910173308
120,19,17,Jits_Phase_5,1,5,56,103,1910179184
120,19,17,Jits_Phase_5,2,5,63,98,1910208860
120,19,17,Jits_Phase_5,3,5,80,127,1910259084
120,19,17,Jits_Phase_5,0,5,80,127,1910679016
120,19,17,Jits_Phase_5,1,1,48,58,1910696884
120,19,17,Jits_Phase_5,2,5,56,103,1910718800
120,19,17,Jits_Phase_5,3,5,63,98,1910729144
120,19,17,Jits_Phase_5,0,5,80,127,1911159008
120,19,17,Jits_Phase_5,1,5,63,98,1911198944
120,19,17,Jits_Phase_5,2,1,48,53,1911222136
120,19,17,Jits_Phase_5,3,5,56,103,1911258676
120,19,17,Jits_Phase_5,0,5,56,103,1911658844
120,19,17,Jits_Phase_5,1,5,80,127,1911668968
120,19,17,Jits_Phase_5,2,1,48,56,1911713208
120,19,17,Jits_Phase_5,3,5,63,98,1911748900
120,19,17,Jits_Phase_5,0,5,80,127,1912158464
120,19,17,Jits_Phase_5,1,1,48,58,1912196184
120,19,17,Jits_Phase_5,2,5,63,98,1912219068
120,19,17,Jits_Phase_5,3,5,56,103,1912248668
120,19,17,Jits_Phase_5,0,5,56,103,1912659424
120,19,17,Jits_Phase_5,1,1,48,57,1912699556
120,19,17,Jits_Phase_5,2,5,80,127,1912718684
120,19,17,Jits_Phase_5,3,5,63,98,1912758624
120,19,17,Jits_Phase_5,0,1,48,56,1913182752
120,19,17,Jits_Phase_5,1,5,56,103,1913209304
120,19,17,Jits_Phase_5,2,5,63,98,1913218528
120,19,17,Jits_Phase_5,3,5,80,127,1913222112
120,19,17,Jits_Phase_5,0,5,80,127,1913658712
120,19,17,Jits_Phase_5,1,1,48,63,1913688136
120,19,17,Jits_Phase_5,2,5,63,98,1913748764
120,19,17,Jits_Phase_5,3,5,56,103,1913759108
120,19,17,Jits_Phase_5,0,5,56,103,1914158608
120,19,17,Jits_Phase_5,1,5,63,98,1914161784
120,19,17,Jits_Phase_5,2,5,80,127,1914164904
120,19,17,Jits_Phase_5,3,1,48,58,1914224736
120,19,17,Jits_Phase_5,0,5,80,127,1914678596
120,19,17,Jits_Phase_5,1,1,48,67,1914713996
120,19,17,Jits_Phase_5,2,5,63,98,1914728788
120,19,17,Jits_Phase_5,3,5,56,103,1914758684
120,19,17,Jits_Phase_5,0,5,56,103,1915158880
120,19,17,Jits_Phase_5,1,5,80,127,1915169004
120,19,17,Jits_Phase_5,2,1,48,66,1915224184
120,19,17,Jits_Phase_5,3,5,63,98,1915238748
120,19,17,Jits_Phase_5,0,5,56,103,1915668760
120,19,17,Jits_Phase_5,1,5,63,98,1915689440
120,19,17,Jits_Phase_5,2,1,48,57,1915745596
120,19,17,Jits_Phase_5,3,5,80,127,1915748700
120,19,17,Jits_Phase_5,0,5,80,127,1916159608
120,19,17,Jits_Phase_5,1,5,63,98,1916228992
120,19,17,Jits_Phase_5,2,5,56,103,1916248400
120,19,17,Jits_Phase_5,3,1,48,59,1916251816
120,19,17,Jits_Phase_5,0,5,80,127,1916678632
120,19,17,Jits_Phase_5,1,5,56,103,1916688680
120,19,17,Jits_Phase_5,2,5,63,98,1916699024
120,19,17,Jits_Phase_5,3,1,48,59,1916755916
120,19,17,Jits_Phase_5,0,5,80,127,1917169104
120,19,17,Jits_Phase_5,1,5,56,103,1917188368
120,19,17,Jits_Phase_5,2,1,48,47,1917250744
120,19,17,Jits_Phase_5,3,5,63,98,1917259308
120,19,17,Jits_Phase_5,0,5,56,103,1917678984
120,19,17,Jits_Phase_5,1,5,80,127,1917708660
120,19,17,Jits_Phase_5,2,5,63,98,1917729268
120,19,17,Jits_Phase_5,3,1,48,52,1917764516
120,19,17,Jits_Phase_5,0,5,63,98,1918168560
120,19,17,Jits_Phase_5,1,5,56,103,1918228804
120,19,17,Jits_Phase_5,2,5,80,127,1918258476
120,19,17,Jits_Phase_5,3,1,48,50,1918264512
120,19,17,Jits_Phase_5,0,5,63,98,1918658840
120,19,17,Jits_Phase_5,1,5,80,127,1918662212
120,19,17,Jits_Phase_5,2,1,48,36,1918746480
120,19,17,Jits_Phase_5,3,5,56,103,1918748992
120,19,17,Jits_Phase_5,0,5,56,103,1919179264
120,19,17,Jits_Phase_5,1,5,63,98,1919208668
120,19,17,Jits_Phase_5,2,1,48,38,1919246556
120,19,17,Jits_Phase_5,3,5,80,127,1919248672
120,19,17,Jits_Phase_5,0,5,63,98,1919678808
120,19,17,Jits_Phase_5,1,5,56,103,1919718696
120,19,17,Jits_Phase_5,2,1,48,43,1919729604
120,19,17,Jits_Phase_5,3,5,80,127,1919739520
120,19,17,Jits_Phase_5,0,1,48,40,1920188968
120,19,17,Jits_Phase_5,1,5,63,98,1920190452
120,19,17,Jits_Phase_5,2,5,56,103,1920228700
120,19,17,Jits_Phase_5,3,5,80,127,1920238896
120,19,17,Jits_Phase_5,0,5,80,127,1920669016
120,19,17,Jits_Phase_5,1,1,48,38,1920680600
120,19,17,Jits_Phase_5,2,5,63,98,1920738640
120,19,17,Jits_Phase_5,3,5,56,103,1920759320
120,19,17,Jits_Phase_5,0,5,56,103,1921158588
120,19,17,Jits_Phase_5,1,5,80,127,1921179120
120,19,17,Jits_Phase_5,2,1,48,45,1921201940
120,19,17,Jits_Phase_5,3,5,63,98,1921218904
120,19,17,Jits_Phase_5,0,5,63,98,1921668388
120,19,17,Jits_Phase_5,1,1,48,46,1921687408
120,19,17,Jits_Phase_5,2,5,80,127,1921688916
120,19,17,Jits_Phase_5,3,5,56,103,1921728852
120,19,17,Jits_Phase_5,0,1,48,42,1922141352
120,19,17,Jits_Phase_5,1,5,63,98,1922169396
120,19,17,Jits_Phase_5,2,5,56,103,1922188660
120,19,17,Jits_Phase_5,3,5,80,127,1922198856
120,19,17,Jits_Phase_5,0,1,48,51,1922651960
120,19,17,Jits_Phase_5,1,5,80,127,1922668920
120,19,17,Jits_Phase_5,2,5,56,103,1922689604
120,19,17,Jits_Phase_5,3,5,63,98,1922718980
120,19,17,Jits_Phase_5,0,1,48,26,1923142120
120,19,17,Jits_Phase_5,1,5,56,103,1923239604
120,19,17,Jits_Phase_5,2,5,80,127,1923242444
120,19,17,Jits_Phase_5,3,5,63,98,1923258864
120,19,17,Jits_Phase_5,0,5,63,98,1923659136
120,19,17,Jits_Phase_5,1,1,48,24,1923663224
120,19,17,Jits_Phase_5,2,5,56,103,1923688804
120,19,17,Jits_Phase_5,3,5,80,127,1923749488
120,19,17,Jits_Phase_5,0,1,48,32,1924168516
120,19,17,Jits_Phase_5,1,5,63,98,1924238668
120,19,17,Jits_Phase_5,2,5,56,103,1924249084
120,19,17,Jits_Phase_5,3,5,80,127,1924259280
120,19,17,Jits_Phase_5,0,1,48,71,1924647300
120,19,17,Jits_Phase_5,1,5,56,103,1924698488
120,19,17,Jits_Phase_5,2,5,80,127,1924729212
120,19,17,Jits_Phase_5,3,5,63,98,1924738360
120,19,17,Jits_Phase_5,0,1,48,59,1925151532
120,19,17,Jits_Phase_5,1,5,63,98,1925239444
120,19,17,Jits_Phase_5,2,5,56,103,1925249548
120,19,17,Jits_Phase_5,3,5,80,127,1925268812
120,19,17,Jits_Phase_5,0,1,48,66,1925655552
120,19,17,Jits_Phase_5,1,5,56,103,1925669372
120,19,17,Jits_Phase_5,2,5,63,98,1925728564
120,19,17,Jits_Phase_5,3,5,80,127,1925732076
120,19,17,Jits_Phase_5,0,1,48,74,1926128108
120,19,17,Jits_Phase_5,1,5,80,127,1926189564
120,19,17,Jits_Phase_5,2,5,56,103,1926198564
120,19,17,Jits_Phase_5,3,5,63,98,1926269496
120,19,17,Jits_Phase_5,0,1,48,59,1926654596
120,19,17,Jits_Phase_5,1,5,80,127,1926678904
120,19,17,Jits_Phase_5,2,5,56,103,1926748508
120,19,17,Jits_Phase_5,3,5,63,98,1926758764
120,19,17,Jits_Phase_5,0,1,48,69,1927182452
120,19,17,Jits_Phase_5,1,5,63,98,1927218592
120,19,17,Jits_Phase_5,2,5,56,103,1927228712
120,19,17,Jits_Phase_5,3,5,80,127,1927249468
120,19,17,Jits_Phase_5,0,5,80,127,1927679536
120,19,17,Jits_Phase_5,1,1,48,65,1927697124
120,19,17,Jits_Phase_5,2,5,63,98,1927738648
120,19,17,Jits_Phase_5,3,5,56,103,1927778584
120,19,17,Jits_Phase_5,0,5,56,103,1928218936
120,19,17,Jits_Phase_5,1,1,48,51,1928223472
120,19,17,Jits_Phase_5,2,5,63,98,1928229424
120,19,17,Jits_Phase_5,3,5,80,127,1928269360
120,19,17,Jits_Phase_5,0,5,56,103,1928678696
120,19,17,Jits_Phase_5,1,5,80,127,1928708448
120,19,17,Jits_Phase_5,2,1,48,69,1928709340
120,19,17,Jits_Phase_5,3,5,63,98,1928758712
120,19,17,Jits_Phase_5,0,1,48,64,1929214676
120,19,17,Jits_Phase_5,1,5,56,103,1929218532
120,19,17,Jits_Phase_5,2,5,63,98,1929259516
120,19,17,Jits_Phase_5,3,5,80,127,1929262732
120,19,17,Jits_Phase_5,0,1,48,57,1929697436
120,19,17,Jits_Phase_5,1,5,56,103,1929719252
120,19,17,Jits_Phase_5,2,5,63,98,1929729524
120,19,17,Jits_Phase_5,3,5,80,127,1929748712
120,19,17,Jits_Phase_5,0,5,56,103,1930178900
120,19,17,Jits_Phase_5,1,5,80,127,1930182040
120,19,17,Jits_Phase_5,2,1,48,57,1930205108
120,19,17,Jits_Phase_5,3,5,63,98,1930219004
120,19,17,Jits_Phase_5,0,1,48,60,1930681836
120,19,17,Jits_Phase_5,1,5,63,98,1930718528
120,19,17,Jits_Phase_5,2,5,56,103,1930749400
120,19,17,Jits_Phase_5,3,5,80,127,1930768808
120,19,17,Jits_Phase_5,0,5,80,127,1931188596
120,19,17,Jits_Phase_5,1,1,48,60,1931193360
120,19,17,Jits_Phase_5,2,5,56,103,1931198708
120,19,17,Jits_Phase_5,3,5,63,98,1931209200
120,19,17,Jits_Phase_5,0,1,48,56,1931672200
120,19,17,Jits_Phase_5,1,5,56,103,1931689460
120,19,17,Jits_Phase_5,2,5,80,127,1931729324
120,19,17,Jits_Phase_5,3,5,63,98,1931758948
120,19,17,Jits_Phase_5,0,1,48,60,1932197516
120,19,17,Jits_Phase_5,1,5,63,98,1932199404
120,19,17,Jits_Phase_5,2,5,80,127,1932208552
120,19,17,Jits_Phase_5,3,5,56,103,1932218748
120,19,17,Jits_Phase_5,0,5,56,103,1932688748
120,19,17,Jits_Phase_5,1,1,48,69,1932705272
120,19,17,Jits_Phase_5,2,5,63,98,1932759568
120,19,17,Jits_Phase_5,3,5,80,127,1932768640
120,19,17,Jits_Phase_5,0,5,80,127,1933198776
120,19,17,Jits_Phase_5,1,5,56,103,1933209044
120,19,17,Jits_Phase_5,2,1,48,65,1933211056
120,19,17,Jits_Phase_5,3,5,63,98,1933259312
120,19,17,Jits_Phase_5,0,5,80,127,1933708800
120,19,17,Jits_Phase_5,1,1,48,65,1933715512
120,19,17,Jits_Phase_5,2,5,56,103,1933769256
120,19,17,Jits_Phase_5,3,5,63,98,1933798660
120,19,17,Jits_Phase_5,0,5,56,103,1934209532
120,19,17,Jits_Phase_5,1,5,80,127,1934212452
120,19,17,Jits_Phase_5,2,1,48,65,1934243068
120,19,17,Jits_Phase_5,3,5,63,98,1934249464
120,19,17,Jits_Phase_5,0,1,48,63,1934724680
120,19,17,Jits_Phase_5,1,5,56,103,1934738948
120,19,17,Jits_Phase_5,2,5,63,98,1934768400
120,19,17,Jits_Phase_5,3,5,80,127,1934778672
120,19,17,Jits_Phase_5,0,1,48,64,1935218828
120,19,17,Jits_Phase_5,1,5,63,98,1935248740
120,19,17,Jits_Phase_5,2,5,80,127,1935258864
120,19,17,Jits_Phase_5,3,5,56,103,1935269428
120,19,17,Jits_Phase_5,0,5,80,127,1935699500
120,19,17,Jits_Phase_5,1,1,48,59,1935734832
120,19,17,Jits_Phase_5,2,5,56,103,1935748496
120,19,17,Jits_Phase_5,3,5,63,98,1935751564
120,19,17,Jits_Phase_5,0,5,56,103,1936228696
120,19,17,Jits_Phase_5,1,1,48,63,1936236524
120,19,17,Jits_Phase_5,2,5,80,127,1936249300
120,19,17,Jits_Phase_5,3,5,63,98,1936258448
120,19,17,Jits_Phase_5,0,5,63,98,1936708908
120,19,17,Jits_Phase_5,1,1,48,66,1936737828
120,19,17,Jits_Phase_5,2,5,56,103,1936739476
120,19,17,Jits_Phase_5,3,5,80,127,1936759552
120,19,17,Jits_Phase_5,0,1,48,60,1937219140
120,19,17,Jits_Phase_5,1,5,56,103,1937220476
120,19,17,Jits_Phase_5,2,5,80,127,1937229104
120,19,17,Jits_Phase_5,3,5,63,98,1937298784
120,19,17,Jits_Phase_5,0,5,63,98,1937709524
120,19,17,Jits_Phase_5,1,1,48,62,1937725000
120,19,17,Jits_Phase_5,2,5,80,127,1937749456
120,19,17,Jits_Phase_5,3,5,56,103,1937789244
120,19,17,Jits_Phase_5,0,1,48,70,1938209244
120,19,17,Jits_Phase_5,1,5,56,103,1938219236
120,19,17,Jits_Phase_5,2,5,63,98,1938228460
120,19,17,Jits_Phase_5,3,5,80,127,1938249212
120,19,17,Jits_Phase_5,0,1,48,68,1938735356
120,19,17,Jits_Phase_5,1,5,63,98,1938759212
120,19,17,Jits_Phase_5,2,5,80,127,1938778476
120,19,17,Jits_Phase_5,3,5,56,103,1938799084
120,19,17,Jits_Phase_5,0,5,56,103,1939199416
120,19,17,Jits_Phase_5,1,1,48,65,1939248168
120,19,17,Jits_Phase_5,2,5,80,127,1939279424
120,19,17,Jits_Phase_5,3,5,63,98,1939288424
120,19,17,Jits_Phase_5,0,5,80,127,1939739116
120,19,17,Jits_Phase_5,1,5,63,98,1939749088
120,19,17,Jits_Phase_5,2,1,48,74,1939758504
120,19,17,Jits_Phase_5,3,5,56,103,1939778904
120,19,17,Jits_Phase_5,0,5,63,98,1940198652
120,19,17,Jits_Phase_5,1,1,48,70,1940234952
120,19,17,Jits_Phase_5,2,5,80,127,1940238660
120,19,17,Jits_Phase_5,3,5,56,103,1940299196
120,19,17,Jits_Phase_5,0,5,63,98,1940708668
120,19,17,Jits_Phase_5,1,1,48,58,1940754484
120,19,17,Jits_Phase_5,2,5,56,103,1940758860
120,19,17,Jits_Phase_5,3,5,80,127,1940788536
120,19,17,Jits_Phase_5,0,5,80,127,1941208564
120,19,17,Jits_Phase_5,1,5,63,98,1941218612
120,19,17,Jits_Phase_5,2,1,48,54,1941247732
120,19,17,Jits_Phase_5,3,5,56,103,1941289252
120,19,17,Jits_Phase_5,0,1,48,56,1941711640
120,19,17,Jits_Phase_5,1,5,80,127,1941768488
120,19,17,Jits_Phase_5,2,5,56,103,1941778676
120,19,17,Jits_Phase_5,3,5,63,98,1941782044
120,19,17,Jits_Phase_5,0,5,56,103,1942208876
120,19,17,Jits_Phase_5,1,1,48,61,1942210816
120,19,17,Jits_Phase_5,2,5,80,127,1942229328
120,19,17,Jits_Phase_5,3,5,63,98,1942238504
120,19,17,Jits_Phase_5,0,1,48,61,1942713312
120,19,17,Jits_Phase_5,1,5,63,98,1942718744
120,19,17,Jits_Phase_5,2,5,56,103,1942758852
120,19,17,Jits_Phase_5,3,5,80,127,1942779236
120,19,17,Jits_Phase_5,0,1,48,66,1943212100
120,19,17,Jits_Phase_5,1,5,63,98,1943218496
120,19,17,Jits_Phase_5,2,5,56,103,1943279132
120,19,17,Jits_Phase_5,3,5,80,127,1943282272
120,19,17,Jits_Phase_5,0,5,56,103,1943679288
120,19,17,Jits_Phase_5,1,5,80,127,1943698848
120,19,17,Jits_Phase_5,2,5,63,98,1943738712
120,19,17,Jits_Phase_5,3,1,48,54,1943741608
120,19,17,Jits_Phase_5,0,5,56,103,1944208648
120,19,17,Jits_Phase_5,1,1,48,59,1944218584
120,19,17,Jits_Phase_5,2,5,63,98,1944229100
120,19,17,Jits_Phase_5,3,5,80,127,1944238324
120,19,17,Jits_Phase_5,0,5,80,127,1944678892
120,19,17,Jits_Phase_5,1,5,56,103,1944708416
120,19,17,Jits_Phase_5,2,1,48,63,1944717464
120,19,17,Jits_Phase_5,3,5,63,98,1944749320
120,19,17,Jits_Phase_5,0,5,80,127,1945188840
120,19,17,Jits_Phase_5,1,1,48,65,1945203640
120,19,17,Jits_Phase_5,2,5,56,103,1945209144
120,19,17,Jits_Phase_5,3,5,63,98,1945268632
120,19,17,Jits_Phase_5,0,5,56,103,1945698624
120,19,17,Jits_Phase_5,1,1,48,65,1945705928
120,19,17,Jits_Phase_5,2,5,80,127,1945719372
120,19,17,Jits_Phase_5,3,5,63,98,1945778488
120,19,17,Jits_Phase_5,0,5,80,127,1946179052
120,19,17,Jits_Phase_5,1,5,56,103,1946189100
120,19,17,Jits_Phase_5,2,1,48,63,1946210872
120,19,17,Jits_Phase_5,3,5,63,98,1946229032
120,19,17,Jits_Phase_5,0,5,63,98,1946678588
120,19,17,Jits_Phase_5,1,1,48,59,1946698196
120,19,17,Jits_Phase_5,2,5,56,103,1946718596
120,19,17,Jits_Phase_5,3,5,80,127,1946721584
120,19,17,Jits_Phase_5,0,5,63,98,1947198780
120,19,17,Jits_Phase_5,1,1,48,63,1947201520
120,19,17,Jits_Phase_5,2,5,80,127,1947238932
120,19,17,Jits_Phase_5,3,5,56,103,1947268384
120,19,17,Jits_Phase_5,0,5,56,103,1947689312
120,19,17,Jits_Phase_5,1,5,63,98,1947698464
120,19,17,Jits_Phase_5,2,1,48,58,1947701284
120,19,17,Jits_Phase_5,3,5,80,127,1947729252
120,19,17,Jits_Phase_5,0,1,48,62,1948156144
120,19,17,Jits_Phase_5,1,5,80,127,1948178956
120,19,17,Jits_Phase_5,2,5,63,98,1948248488
120,19,17,Jits_Phase_5,3,5,56,103,1948258816
120,19,17,Jits_Phase_5,0,1,48,55,1948638900
120,19,17,Jits_Phase_5,1,5,63,98,1948678408
120,19,17,Jits_Phase_5,2,5,56,103,1948749196
120,19,17,Jits_Phase_5,3,5,80,127,1948759540
120,19,17,Jits_Phase_5,0,1,48,60,1949146056
120,19,17,Jits_Phase_5,1,5,63,98,1949159052
120,19,17,Jits_Phase_5,2,5,56,103,1949179140
120,19,17,Jits_Phase_5,3,5,80,127,1949219152
120,19,17,Jits_Phase_5,0,1,48,56,1949636568
120,19,17,Jits_Phase_5,1,5,56,103,1949639080
120,19,17,Jits_Phase_5,2,5,63,98,1949649276
120,19,17,Jits_Phase_5,3,5,80,127,1949729240
120,19,17,Jits_Phase_5,0,1,48,54,1950109584
120,19,17,Jits_Phase_5,1,5,63,98,1950128492
120,19,17,Jits_Phase_5,2,5,56,103,1950159212
120,19,17,Jits_Phase_5,3,5,80,127,1950199100
120,19,17,Jits_Phase_5,0,1,48,61,1950581012
120,19,17,Jits_Phase_5,1,5,56,103,1950629136
120,19,17,Jits_Phase_5,2,5,63,98,1950669148
120,19,17,Jits_Phase_5,3,5,80,127,1950709096
120,19,17,Jits_Phase_5,0,1,48,60,1951084044
120,19,17,Jits_Phase_5,1,5,80,127,1951129028
120,19,17,Jits_Phase_5,2,5,56,103,1951208980
120,19,17,Jits_Phase_5,3,5,63,98,1951219328
120,19,17,Jits_Phase_5,0,1,48,51,1951580956
120,19,17,Jits_Phase_5,1,5,56,103,1951668564
120,19,17,Jits_Phase_5,2,5,63,98,1951671480
120,19,17,Jits_Phase_5,3,5,80,127,1951678892
120,19,17,Jits_Phase_5,0,1,48,65,1952029004
120,19,17,Jits_Phase_5,1,5,56,103,1952188744
120,19,17,Jits_Phase_5,2,5,63,98,1952209204
120,19,17,Jits_Phase_5,3,5,80,127,1952218524
120,19,17,Jits_Phase_5,0,1,48,57,1952526888
120,19,17,Jits_Phase_5,1,5,63,98,1952659052
120,19,17,Jits_Phase_5,2,5,80,127,1952669176
120,19,17,Jits_Phase_5,3,5,56,103,1952688436
120,19,17,Jits_Phase_5,0,1,48,57,1953059296
120,19,17,Jits_Phase_5,1,5,63,98,1953158504
120,19,17,Jits_Phase_5,2,5,56,103,1953239284
120,19,17,Jits_Phase_5,3,5,80,127,1953242804
120,19,17,Jits_Phase_5,0,1,48,52,1953618604
120,19,17,Jits_Phase_5,1,5,63,98,1953659232
120,19,17,Jits_Phase_5,2,5,56,103,1953678792
120,19,17,Jits_Phase_5,3,5,80,127,1953709364
120,19,17,Jits_Phase_5,0,1,48,59,1954112576
120,19,17,Jits_Phase_5,1,5,56,103,1954159204
120,19,17,Jits_Phase_5,2,5,63,98,1954178392
120,19,17,Jits_Phase_5,3,5,80,127,1954188808
120,19,17,Jits_Phase_5,0,1,48,57,1954605796
120,19,17,Jits_Phase_5,1,5,56,103,1954689292
120,19,17,Jits_Phase_5,2,5,63,98,1954719100
120,19,17,Jits_Phase_5,3,5,80,127,1954722464
120,19,17,Jits_Phase_5,0,1,48,55,1955132820
120,19,17,Jits_Phase_5,1,5,56,103,1955138920
120,19,17,Jits_Phase_5,2,5,63,98,1955179004
120,19,17,Jits_Phase_5,3,5,80,127,1955239228
120,19,17,Jits_Phase_5,0,1,48,54,1955650780
120,19,17,Jits_Phase_5,1,5,56,103,1955659048
120,19,17,Jits_Phase_5,2,5,63,98,1955669464
120,19,17,Jits_Phase_5,3,5,80,127,1955729028
120,19,17,Jits_Phase_5,0,1,48,56,1956133368
120,19,17,Jits_Phase_5,1,5,56,103,1956159020
120,19,17,Jits_Phase_5,2,5,80,127,1956179328
120,19,17,Jits_Phase_5,3,5,63,98,1956208928
120,19,17,Jits_Phase_5,0,1,48,46,1956581724
120,19,17,Jits_Phase_5,1,5,80,127,1956658472
120,19,17,Jits_Phase_5,2,5,56,103,1956669040
120,19,17,Jits_Phase_5,3,5,63,98,1956689184
120,19,17,Jits_Phase_5,0,1,48,47,1957100728
120,19,17,Jits_Phase_5,1,5,63,98,1957149004
120,19,17,Jits_Phase_5,2,5,80,127,1957229080
120,19,17,Jits_Phase_5,3,5,56,103,1957239204
120,19,17,Jits_Phase_5,0,1,48,54,1957611120
120,19,17,Jits_Phase_5,1,5,80,127,1957739020
120,19,17,Jits_Phase_5,2,5,56,103,1957759332
120,19,17,Jits_Phase_5,3,5,63,98,1957762396
120,19,17,Jits_Phase_5,0,1,48,55,1958156432
120,19,17,Jits_Phase_5,1,5,63,98,1958229416
120,19,17,Jits_Phase_5,2,5,80,127,1958232856
120,19,17,Jits_Phase_5,3,5,56,103,1958289040
120,19,17,Jits_Phase_5,0,1,48,50,1958687708
120,19,17,Jits_Phase_5,1,5,56,103,1958708488
120,19,17,Jits_Phase_5,2,5,80,127,1958718980
120,19,17,Jits_Phase_5,3,5,63,98,1958758916
120,19,17,Jits_Phase_5,0,5,56,103,1959188988
120,19,17,Jits_Phase_5,1,1,48,54,1959212856
120,19,17,Jits_Phase_5,2,5,63,98,1959249372
120,19,17,Jits_Phase_5,3,5,80,127,1959258448
120,19,17,Jits_Phase_5,0,5,63,98,1959698868
120,19,17,Jits_Phase_5,1,1,48,62,1959705052
120,19,17,Jits_Phase_5,2,5,80,127,1959739020
120,19,17,Jits_Phase_5,3,5,56,103,1959778660
120,19,17,Jits_Phase_5,0,5,56,103,1960198472
120,19,17,Jits_Phase_5,1,1,48,59,1960243316
120,19,17,Jits_Phase_5,2,5,63,98,1960279600
120,19,17,Jits_Phase_5,3,5,80,127,1960283036
120,19,17,Jits_Phase_5,0,5,80,127,1960758612
120,19,17,Jits_Phase_5,1,1,48,58,1960763000
120,19,17,Jits_Phase_5,2,5,56,103,1960789324
120,19,17,Jits_Phase_5,3,5,63,98,1960792468
120,19,17,Jits_Phase_5,0,5,56,103,1961218368
120,19,17,Jits_Phase_5,1,5,80,127,1961239048
120,19,17,Jits_Phase_5,2,1,48,62,1961257904
120,19,17,Jits_Phase_5,3,5,63,98,1961278828
120,19,17,Jits_Phase_5,0,5,80,127,1961698800
120,19,17,Jits_Phase_5,1,5,63,98,1961719112
120,19,17,Jits_Phase_5,2,1,48,64,1961732936
120,19,17,Jits_Phase_5,3,5,56,103,1961778592
120,19,17,Jits_Phase_5,0,5,63,98,1962208828
120,19,17,Jits_Phase_5,1,5,56,103,1962218800
120,19,17,Jits_Phase_5,2,1,48,63,1962221392
120,19,17,Jits_Phase_5,3,5,80,127,1962268920
120,19,17,Jits_Phase_5,0,5,56,103,1962699184
120,19,17,Jits_Phase_5,1,1,48,56,1962711396
120,19,17,Jits_Phase_5,2,5,63,98,1962718544
120,19,17,Jits_Phase_5,3,5,80,127,1962729036
120,19,17,Jits_Phase_5,0,1,48,57,1963174192
120,19,17,Jits_Phase_5,1,5,56,103,1963188452
120,19,17,Jits_Phase_5,2,5,63,98,1963191524
120,19,17,Jits_Phase_5,3,5,80,127,1963209140
120,19,17,Jits_Phase_5,0,1,48,65,1963675124
120,19,17,Jits_Phase_5,1,5,63,98,1963729248
120,19,17,Jits_Phase_5,2,5,56,103,1963759096
120,19,17,Jits_Phase_5,3,5,80,127,1963788756
120,19,17,Jits_Phase_5,0,5,80,127,1964189000
120,19,17,Jits_Phase_5,1,1,48,57,1964195704
120,19,17,Jits_Phase_5,2,5,56,103,1964279144
120,19,17,Jits_Phase_5,3,5,63,98,1964282212
120,19,17,Jits_Phase_5,0,5,56,103,1964688976
120,19,17,Jits_Phase_5,1,5,80,127,1964691892
120,19,17,Jits_Phase_5,2,1,48,55,1964707988
120,19,17,Jits_Phase_5,3,5,63,98,1964768712
120,19,17,Jits_Phase_5,0,1,48,57,1965166360
120,19,17,Jits_Phase_5,1,5,80,127,1965188576
120,19,17,Jits_Phase_5,2,5,63,98,1965249040
120,19,17,Jits_Phase_5,3,5,56,103,1965278724
120,19,17,Jits_Phase_5,0,5,63,98,1965689156
120,19,17,Jits_Phase_5,1,1,48,63,1965692352
120,19,17,Jits_Phase_5,2,5,80,127,1965698376
120,19,17,Jits_Phase_5,3,5,56,103,1965769024
120,19,17,Jits_Phase_5,0,1,48,57,1966186016
120,19,17,Jits_Phase_5,1,5,56,103,1966249360
120,19,17,Jits_Phase_5,2,5,80,127,1966279844
120,19,17,Jits_Phase_5,3,5,63,98,1966329172
120,19,17,Jits_Phase_5,0,1,48,51,1966709368
120,19,17,Jits_Phase_5,1,5,63,98,1966839092
120,19,17,Jits_Phase_5,2,5,56,103,1966868988
120,19,17,Jits_Phase_5,3,5,80,127,1966871976
120,19,17,Jits_Phase_5,0,1,48,53,1967292044
120,19,17,Jits_Phase_5,1,5,63,98,1967338848
120,19,17,Jits_Phase_5,2,5,80,127,1967359232
120,19,17,Jits_Phase_5,3,5,56,103,1967368528
120,19,17,Jits_Phase_5,0,1,48,53,1967815388
120,19,17,Jits_Phase_5,1,5,56,103,1967848860
120,19,17,Jits_Phase_5,2,5,63,98,1967851852
120,19,17,Jits_Phase_5,3,5,80,127,1967869392
120,19,17,Jits_Phase_5,0,5,56,103,1968299364
120,19,17,Jits_Phase_5,1,5,63,98,1968308888
120,19,17,Jits_Phase_5,2,1,48,51,1968322644
120,19,17,Jits_Phase_5,3,5,80,127,1968339376
120,19,17,Jits_Phase_5,0,1,48,51,1968798688
120,19,17,Jits_Phase_5,1,5,63,98,1968818496
120,19,17,Jits_Phase_5,2,5,80,127,1968839100
120,19,17,Jits_Phase_5,3,5,56,103,1968878912
120,19,17,Jits_Phase_5,0,1,48,47,1969304724
120,19,17,Jits_Phase_5,1,5,56,103,1969348960
120,19,17,Jits_Phase_5,2,5,63,98,1969388768
120,19,17,Jits_Phase_5,3,5,80,127,1969392136
120,19,17,Jits_Phase_5,0,5,80,127,1969789224
120,19,17,Jits_Phase_5,1,1,48,49,1969818948
120,19,17,Jits_Phase_5,2,5,56,103,1969829232
120,19,17,Jits_Phase_5,3,5,63,98,1969879528
120,19,17,Jits_Phase_5,0,1,48,55,1970308292
120,19,17,Jits_Phase_5,1,5,56,103,1970349292
120,19,17,Jits_Phase_5,2,5,80,127,1970358816
120,19,17,Jits_Phase_5,3,5,63,98,1970389560
120,19,17,Jits_Phase_5,0,5,56,103,1970798856
120,19,17,Jits_Phase_5,1,1,48,49,1970810292
120,19,17,Jits_Phase_5,2,5,80,127,1970838936
120,19,17,Jits_Phase_5,3,5,63,98,1970889060
120,19,17,Jits_Phase_5,0,5,56,103,1971298772
120,19,17,Jits_Phase_5,1,1,48,53,1971314700
120,19,17,Jits_Phase_5,2,5,80,127,1971338704
120,19,17,Jits_Phase_5,3,5,63,98,1971388904
120,19,17,Jits_Phase_5,0,5,80,127,1971789096
120,19,17,Jits_Phase_5,1,1,48,52,1971811472
120,19,17,Jits_Phase_5,2,5,63,98,1971869108
120,19,17,Jits_Phase_5,3,5,56,103,1971879228
120,19,17,Jits_Phase_5,0,1,48,44,1972325156
120,19,17,Jits_Phase_5,1,5,80,127,1972339052
120,19,17,Jits_Phase_5,2,5,56,103,1972349172
120,19,17,Jits_Phase_5,3,5,63,98,1972368884
120,19,17,Jits_Phase_5,0,5,63,98,1972808992
120,19,17,Jits_Phase_5,1,1,48,51,1972815700
120,19,17,Jits_Phase_5,2,5,56,103,1972878888
120,19,17,Jits_Phase_5,3,5,80,127,1972881956
120,19,17,Jits_Phase_5,0,5,80,127,1973298472
120,19,17,Jits_Phase_5,1,1,48,56,1973316336
120,19,17,Jits_Phase_5,2,5,63,98,1973348740
120,19,17,Jits_Phase_5,3,5,56,103,1973389048
120,19,17,Jits_Phase_5,0,1,48,51,1973799700
120,19,17,Jits_Phase_5,1,5,63,98,1973839284
120,19,17,Jits_Phase_5,2,5,56,103,1973879072
120,19,17,Jits_Phase_5,3,5,80,127,1973889268
120,19,17,Jits_Phase_5,0,1,48,51,1974308744
120,19,17,Jits_Phase_5,1,5,63,98,1974328848
120,19,17,Jits_Phase_5,2,5,56,103,1974349160
120,19,17,Jits_Phase_5,3,5,80,127,1974368720
120,19,17,Jits_Phase_5,0,5,80,127,1974788596
120,19,17,Jits_Phase_5,1,5,56,103,1974798572
120,19,17,Jits_Phase_5,2,1,48,48,1974799536
120,19,17,Jits_Phase_5,3,5,63,98,1974819096
120,19,17,Jits_Phase_5,0,1,48,53,1975275728
120,19,17,Jits_Phase_5,1,5,63,98,1975318916
120,19,17,Jits_Phase_5,2,5,56,103,1975358928
120,19,17,Jits_Phase_5,3,5,80,127,1975388960
120,19,17,Jits_Phase_5,0,1,48,50,1975771144
120,19,17,Jits_Phase_5,1,5,56,103,1975778660
120,19,17,Jits_Phase_5,2,5,63,98,1975809308
120,19,17,Jits_Phase_5,3,5,80,127,1975839056
120,19,17,Jits_Phase_5,0,5,80,127,1976198764
120,19,17,Jits_Phase_5,1,1,48,43,1976266524
120,19,17,Jits_Phase_5,2,5,56,103,1976269184
120,19,17,Jits_Phase_5,3,5,63,98,1976272248
120,19,17,Jits_Phase_5,0,5,56,103,1976708784
120,19,17,Jits_Phase_5,1,1,48,45,1976735344
120,19,17,Jits_Phase_5,2,5,63,98,1976758904
120,19,17,Jits_Phase_5,3,5,80,127,1976789572
120,19,17,Jits_Phase_5,0,5,63,98,1977188768
120,19,17,Jits_Phase_5,1,5,80,127,1977192056
120,19,17,Jits_Phase_5,2,5,56,103,1977249080
120,19,17,Jits_Phase_5,3,1,48,44,1977250640
120,19,17,Jits_Phase_5,0,1,48,35,1977682700
120,19,17,Jits_Phase_5,1,5,56,103,1977719216
120,19,17,Jits_Phase_5,2,5,80,127,1977729560
120,19,17,Jits_Phase_5,3,5,63,98,1977778476
120,19,17,Jits_Phase_5,0,1,48,49,1978182224
120,19,17,Jits_Phase_5,1,5,63,98,1978189148
120,19,17,Jits_Phase_5,2,5,56,103,1978199344
120,19,17,Jits_Phase_5,3,5,80,127,1978229092
120,19,17,Jits_Phase_5,0,1,48,48,1978675972
120,19,17,Jits_Phase_5,1,5,63,98,1978718712
120,19,17,Jits_Phase_5,2,5,80,127,1978722148
120,19,17,Jits_Phase_5,3,5,56,103,1978749284
120,19,17,Jits_Phase_5,0,1,48,47,1979189208
120,19,17,Jits_Phase_5,1,5,63,98,1979238756
120,19,17,Jits_Phase_5,2,5,56,103,1979259212
120,19,17,Jits_Phase_5,3,5,80,127,1979262424
120,19,17,Jits_Phase_5,0,1,48,57,1979678912
120,19,17,Jits_Phase_5,1,5,63,98,1979698712
120,19,17,Jits_Phase_5,2,5,56,103,1979769068
120,19,17,Jits_Phase_5,3,5,80,127,1979788760
120,19,17,Jits_Phase_5,0,5,56,103,1980189028
120,19,17,Jits_Phase_5,1,5,63,98,1980199376
120,19,17,Jits_Phase_5,2,1,48,60,1980216740
120,19,17,Jits_Phase_5,3,5,80,127,1980289272
120,19,17,Jits_Phase_5,0,1,48,58,1980685532
120,19,17,Jits_Phase_5,1,5,56,103,1980709092
120,19,17,Jits_Phase_5,2,5,80,127,1980749104
120,19,17,Jits_Phase_5,3,5,63,98,1980759448
120,19,17,Jits_Phase_5,0,1,48,56,1981196684
120,19,17,Jits_Phase_5,1,5,56,103,1981229664
120,19,17,Jits_Phase_5,2,5,63,98,1981259044
120,19,17,Jits_Phase_5,3,5,80,127,1981288940
120,19,17,Jits_Phase_5,0,5,80,127,1981689272
120,19,17,Jits_Phase_5,1,1,48,55,1981718020
120,19,17,Jits_Phase_5,2,5,63,98,1981729056
120,19,17,Jits_Phase_5,3,5,56,103,1981748468
120,19,17,Jits_Phase_5,0,1,48,54,1982228524
120,19,17,Jits_Phase_5,1,5,56,103,1982229936
120,19,17,Jits_Phase_5,2,5,80,127,1982249272
120,19,17,Jits_Phase_5,3,5,63,98,1982268832
120,19,17,Jits_Phase_5,0,5,63,98,1982698904
120,19,17,Jits_Phase_5,1,5,56,103,1982709100
120,19,17,Jits_Phase_5,2,1,48,53,1982737096
120,19,17,Jits_Phase_5,3,5,80,127,1982768728
120,19,17,Jits_Phase_5,0,5,56,103,1983198724
120,19,17,Jits_Phase_5,1,1,48,55,1983202816
120,19,17,Jits_Phase_5,2,5,63,98,1983269372
120,19,17,Jits_Phase_5,3,5,80,127,1983288560
120,19,17,Jits_Phase_5,0,1,48,54,1983695724
120,19,17,Jits_Phase_5,1,5,56,103,1983699432
120,19,17,Jits_Phase_5,2,5,63,98,1983729132
120,19,17,Jits_Phase_5,3,5,80,127,1983768920
120,19,17,Jits_Phase_5,0,1,48,54,1984183496
120,19,17,Jits_Phase_5,1,5,63,98,1984188920
120,19,17,Jits_Phase_5,2,5,56,103,1984238920
120,19,17,Jits_Phase_5,3,5,80,127,1984249116
120,19,17,Jits_Phase_5,0,1,48,51,1984682120
120,19,17,Jits_Phase_5,1,5,56,103,1984728400
120,19,17,Jits_Phase_5,2,5,63,98,1984778676
120,19,17,Jits_Phase_5,3,5,80,127,1984788784
120,19,17,Jits_Phase_5,0,5,56,103,1985198468
120,19,17,Jits_Phase_5,1,1,48,47,1985200836
120,19,17,Jits_Phase_5,2,5,63,98,1985208808
120,19,17,Jits_Phase_5,3,5,80,127,1985288548
120,19,17,Jits_Phase_5,0,9999,9999,9999,1900956732
120,19,17,Jits_Phase_5,1,9999,9999,9999,1901456440
120,19,17,Jits_Phase_5,2,9999,9999,9999,1901956168
120,19,17,Jits_Phase_5,3,9999,9999,9999,1902456936
120,19,17,Jits_Phase_5,4,9999,9999,9999,1902956652
120,19,17,Jits_Phase_5,5,9999,9999,9999,1903456312
120,19,17,Jits_Phase_5,6,9999,9999,9999,1903957068
120,19,17,Jits_Phase_5,7,9999,9999,9999,1904456796
120,19,17,Jits_Phase_5,8,9999,9999,9999,1904956520
120,19,17,Jits_Phase_5,9,9999,9999,9999,1905456248
120,19,17,Jits_Phase_5,10,9999,9999,9999,1905956944
120,19,17,Jits_Phase_5,11,9999,9999,9999,1906456672
120,19,17,Jits_Phase_5,12,9999,9999,9999,1906956360
120,19,17,Jits_Phase_5,13,9999,9999,9999,1907456108
120,19,17,Jits_Phase_5,14,9999,9999,9999,1907956828
120,19,17,Jits_Phase_5,15,9999,9999,9999,1908456520
120,19,17,Jits_Phase_5,16,9999,9999,9999,1908956280
120,19,17,Jits_Phase_5,17,9999,9999,9999,1909456976
120,19,17,Jits_Phase_5,18,9999,9999,9999,1909956732
120,19,17,Jits_Phase_5,19,9999,9999,9999,1910456424
120,19,17,Jits_Phase_5,20,9999,9999,9999,1910956100
120,19,17,Jits_Phase_5,21,9999,9999,9999,1911456836
120,19,17,Jits_Phase_5,22,9999,9999,9999,1911956604
120,19,17,Jits_Phase_5,23,9999,9999,9999,1912456292
120,19,17,Jits_Phase_5,24,9999,9999,9999,1912957032
120,19,17,Jits_Phase_5,25,9999,9999,9999,1913456716
120,19,17,Jits_Phase_5,26,9999,9999,9999,1913956472
120,19,17,Jits_Phase_5,27,9999,9999,9999,1914456136
120,19,17,Jits_Phase_5,28,9999,9999,9999,1914956872
120,19,17,Jits_Phase_5,29,9999,9999,9999,1915456636
120,19,17,Jits_Phase_5,30,9999,9999,9999,1915947112
120,19,17,Jits_Phase_5,31,9999,9999,9999,1916457068
120,19,17,Jits_Phase_5,32,9999,9999,9999,1916956760
120,19,17,Jits_Phase_5,33,9999,9999,9999,1917456452
120,19,17,Jits_Phase_5,34,9999,9999,9999,1917956216
120,19,17,Jits_Phase_5,35,9999,9999,9999,1918456956
120,19,17,Jits_Phase_5,36,9999,9999,9999,1918956620
120,19,17,Jits_Phase_5,37,9999,9999,9999,1919456372
120,19,17,Jits_Phase_5,38,9999,9999,9999,1919957088
120,19,17,Jits_Phase_5,39,9999,9999,9999,1920456760
120,19,17,Jits_Phase_5,40,9999,9999,9999,1920956512
120,19,17,Jits_Phase_5,41,9999,9999,9999,1921456196
120,19,17,Jits_Phase_5,42,9999,9999,9999,1921956928
120,19,17,Jits_Phase_5,43,9999,9999,9999,1922456672
120,19,17,Jits_Phase_5,44,9999,9999,9999,1922956344
120,19,17,Jits_Phase_5,45,9999,9999,9999,1923456096
120,19,17,Jits_Phase_5,46,9999,9999,9999,1923956816
120,19,17,Jits_Phase_5,47,9999,9999,9999,1924456572
120,19,17,Jits_Phase_5,48,9999,9999,9999,1924966512
120,19,17,Jits_Phase_5,49,9999,9999,9999,1925466192
120,19,17,Jits_Phase_5,50,9999,9999,9999,1925966904
120,19,17,Jits_Phase_5,51,9999,9999,9999,1926466656
120,19,17,Jits_Phase_5,52,9999,9999,9999,1926966332
120,19,17,Jits_Phase_5,53,9999,9999,9999,1927467132
120,19,17,Jits_Phase_5,54,9999,9999,9999,1927977072
120,19,17,Jits_Phase_5,55,9999,9999,9999,1928476764
120,19,17,Jits_Phase_5,56,9999,9999,9999,1928976452
120,19,17,Jits_Phase_5,57,9999,9999,9999,1929476212
120,19,17,Jits_Phase_5,58,9999,9999,9999,1929976936
120,19,17,Jits_Phase_5,59,9999,9999,9999,1930476672
120,19,17,Jits_Phase_5,60,9999,9999,9999,1930976364
120,19,17,Jits_Phase_5,61,9999,9999,9999,1931477056
120,19,17,Jits_Phase_5,62,9999,9999,9999,1931976816
120,19,17,Jits_Phase_5,63,9999,9999,9999,1932476488
120,19,17,Jits_Phase_5,64,9999,9999,9999,1932996692
120,19,17,Jits_Phase_5,65,9999,9999,9999,1933496380
120,19,17,Jits_Phase_5,66,9999,9999,9999,1933996148
120,19,17,Jits_Phase_5,67,9999,9999,9999,1934496868
120,19,17,Jits_Phase_5,68,9999,9999,9999,1934996560
120,19,17,Jits_Phase_5,69,9999,9999,9999,1935496312
120,19,17,Jits_Phase_5,70,9999,9999,9999,1935997024
120,19,17,Jits_Phase_5,71,9999,9999,9999,1936496712
120,19,17,Jits_Phase_5,72,9999,9999,9999,1936996472
120,19,17,Jits_Phase_5,73,9999,9999,9999,1937496148
120,19,17,Jits_Phase_5,74,9999,9999,9999,1937996872
120,19,17,Jits_Phase_5,75,9999,9999,9999,1938496616
120,19,17,Jits_Phase_5,76,9999,9999,9999,1938996300
120,19,17,Jits_Phase_5,77,9999,9999,9999,1939497024
120,19,17,Jits_Phase_5,78,9999,9999,9999,1939996792
120,19,17,Jits_Phase_5,79,9999,9999,9999,1940496484
120,19,17,Jits_Phase_5,80,9999,9999,9999,1940996160
120,19,17,Jits_Phase_5,81,9999,9999,9999,1941476432
120,19,17,Jits_Phase_5,82,9999,9999,9999,1941976120
120,19,17,Jits_Phase_5,83,9999,9999,9999,1942476892
120,19,17,Jits_Phase_5,84,9999,9999,9999,1942976576
120,19,17,Jits_Phase_5,85,9999,9999,9999,1943476324
120,19,17,Jits_Phase_5,86,9999,9999,9999,1943977044
120,19,17,Jits_Phase_5,87,9999,9999,9999,1944476736
120,19,17,Jits_Phase_5,88,9999,9999,9999,1944976496
120,19,17,Jits_Phase_5,89,9999,9999,9999,1945476160
120,19,17,Jits_Phase_5,90,9999,9999,9999,1945976900
120,19,17,Jits_Phase_5,91,9999,9999,9999,1946476656
120,19,17,Jits_Phase_5,92,9999,9999,9999,1946976336
120,19,17,Jits_Phase_5,93,9999,9999,9999,1947477056
120,19,17,Jits_Phase_5,94,9999,9999,9999,1947976808
120,19,17,Jits_Phase_5,95,9999,9999,9999,1948476496
120,19,17,Jits_Phase_5,96,9999,9999,9999,1948976248
120,19,17,Jits_Phase_5,97,9999,9999,9999,1949426780
120,19,17,Jits_Phase_5,98,9999,9999,9999,1949926456
120,19,17,Jits_Phase_5,99,9999,9999,9999,1950426204
120,19,17,Jits_Phase_5,100,9999,9999,9999,1950926972
120,19,17,Jits_Phase_5,101,9999,9999,9999,1951426648
120,19,17,Jits_Phase_5,102,9999,9999,9999,1951926388
120,19,17,Jits_Phase_5,103,9999,9999,9999,1952427116
120,19,17,Jits_Phase_5,104,9999,9999,9999,1952937052
120,19,17,Jits_Phase_5,105,9999,9999,9999,1953436796
120,19,17,Jits_Phase_5,106,9999,9999,9999,1953936468
120,19,17,Jits_Phase_5,107,9999,9999,9999,1954436216
120,19,17,Jits_Phase_5,108,9999,9999,9999,1954936932
120,19,17,Jits_Phase_5,109,9999,9999,9999,1955436608
120,19,17,Jits_Phase_5,110,9999,9999,9999,1955936360
120,19,17,Jits_Phase_5,111,9999,9999,9999,1956437080
120,19,17,Jits_Phase_5,112,9999,9999,9999,1956936828
120,19,17,Jits_Phase_5,113,9999,9999,9999,1957436508
120,19,17,Jits_Phase_5,114,9999,9999,9999,1957986376
120,19,17,Jits_Phase_5,115,9999,9999,9999,1958486124
120,19,17,Jits_Phase_5,116,9999,9999,9999,1958986844
120,19,17,Jits_Phase_5,117,9999,9999,9999,1959486520
120,19,17,Jits_Phase_5,118,9999,9999,9999,1959986288
120,19,17,Jits_Phase_5,119,9999,9999,9999,1960487004
120,19,17,Jits_Phase_5,120,9999,9999,9999,1960986692
120,19,17,Jits_Phase_5,121,9999,9999,9999,1961486456
120,19,17,Jits_Phase_5,122,9999,9999,9999,1961986144
120,19,17,Jits_Phase_5,123,9999,9999,9999,1962486880
120,19,17,Jits_Phase_5,124,9999,9999,9999,1962986556
120,19,17,Jits_Phase_5,125,9999,9999,9999,1963486308
120,19,17,Jits_Phase_5,126,9999,9999,9999,1963987012
120,19,17,Jits_Phase_5,127,9999,9999,9999,1964486748
120,19,17,Jits_Phase_5,128,9999,9999,9999,1964986424
120,19,17,Jits_Phase_5,129,9999,9999,9999,1965486192
120,19,17,Jits_Phase_5,130,9999,9999,9999,1965986912
120,19,17,Jits_Phase_5,131,9999,9999,9999,1966587000
120,19,17,Jits_Phase_5,132,9999,9999,9999,1967086668
120,19,17,Jits_Phase_5,133,9999,9999,9999,1967586416
120,19,17,Jits_Phase_5,134,9999,9999,9999,1968086084
120,19,17,Jits_Phase_5,135,9999,9999,9999,1968586828
120,19,17,Jits_Phase_5,136,9999,9999,9999,1969086588
120,19,17,Jits_Phase_5,137,9999,9999,9999,1969586260
120,19,17,Jits_Phase_5,138,9999,9999,9999,1970086980
120,19,17,Jits_Phase_5,139,9999,9999,9999,1970586748
120,19,17,Jits_Phase_5,140,9999,9999,9999,1971086428
120,19,17,Jits_Phase_5,141,9999,9999,9999,1971586120
120,19,17,Jits_Phase_5,142,9999,9999,9999,1972086856
120,19,17,Jits_Phase_5,143,9999,9999,9999,1972586620
120,19,17,Jits_Phase_5,144,9999,9999,9999,1973086292
120,19,17,Jits_Phase_5,145,9999,9999,9999,1973587012
120,19,17,Jits_Phase_5,146,9999,9999,9999,1974086780
120,19,17,Jits_Phase_5,147,9999,9999,9999,1974586456
120,19,17,Jits_Phase_5,148,9999,9999,9999,1975086200
120,19,17,Jits_Phase_5,149,9999,9999,9999,1975586936
120,19,17,Jits_Phase_5,150,9999,9999,9999,1975986284
120,19,17,Jits_Phase_5,151,9999,9999,9999,1976486996
120,19,17,Jits_Phase_5,152,9999,9999,9999,1976986688
120,19,17,Jits_Phase_5,153,9999,9999,9999,1977486440
120,19,17,Jits_Phase_5,154,9999,9999,9999,1977986116
120,19,17,Jits_Phase_5,155,9999,9999,9999,1978486908
120,19,17,Jits_Phase_5,156,9999,9999,9999,1978986572
120,19,17,Jits_Phase_5,157,9999,9999,9999,1979486316
120,19,17,Jits_Phase_5,158,9999,9999,9999,1979987040
120,19,17,Jits_Phase_5,159,9999,9999,9999,1980486712
120,19,17,Jits_Phase_5,160,9999,9999,9999,1980986476
120,19,17,Jits_Phase_5,161,9999,9999,9999,1981486160
120,19,17,Jits_Phase_5,162,9999,9999,9999,1981986880
120,19,17,Jits_Phase_5,163,9999,9999,9999,1982486648
120,19,17,Jits_Phase_5,164,9999,9999,9999,1982986320
120,19,17,Jits_Phase_5,165,9999,9999,9999,1983487044
120,19,17,Jits_Phase_5,166,9999,9999,9999,1983986808
120,19,17,Jits_Phase_5,167,9999,9999,9999,1984486484
120,19,17,Jits_Phase_5,168,9999,9999,9999,1984986236
120,19,17,Jits_Phase_5,169,9999,9999,9999,1985486936
120,20,3,ISIP_8,0,5,42,127,2056540492
120,20,3,ISIP_8,1,5,42,127,2057341440
120,20,3,ISIP_8,2,5,42,127,2058140972
120,20,3,ISIP_8,3,5,42,127,2058940652
120,20,3,ISIP_8,4,5,42,127,2059740508
120,20,3,ISIP_8,5,1,48,73,2059743328
120,20,3,ISIP_8,6,1,48,69,2060534736
120,20,3,ISIP_8,7,5,42,127,2060541428
120,20,3,ISIP_8,8,1,48,71,2061322432
120,20,3,ISIP_8,9,5,42,127,2061341164
120,20,3,ISIP_8,10,1,48,69,2062121196
120,20,3,ISIP_8,11,5,42,127,2062140824
120,20,3,ISIP_8,12,1,48,64,2062940640
120,20,3,ISIP_8,13,5,42,127,2062941976
120,20,3,ISIP_8,14,5,42,127,2063741416
120,20,3,ISIP_8,15,1,48,65,2063742384
120,20,3,ISIP_8,16,5,42,127,2064541004
120,20,3,ISIP_8,17,1,48,65,2064544568
120,20,3,ISIP_8,18,5,42,127,2065340660
120,20,3,ISIP_8,19,1,48,69,2065344752
120,20,3,ISIP_8,20,5,42,127,2066140420
120,20,3,ISIP_8,21,1,48,62,2066149368
120,20,3,ISIP_8,22,1,48,61,2066932480
120,20,3,ISIP_8,23,5,42,127,2066941416
120,20,3,ISIP_8,24,1,48,57,2067715460
120,20,3,ISIP_8,25,5,42,127,2067741296
120,20,3,ISIP_8,26,1,48,63,2068520136
120,20,3,ISIP_8,27,5,42,127,2068540736
120,20,3,ISIP_8,28,1,48,61,2069316272
120,20,3,ISIP_8,29,5,42,127,2069340468
120,20,3,ISIP_8,30,1,48,62,2070121464
120,20,3,ISIP_8,31,5,42,127,2070141248
120,20,3,ISIP_8,32,1,48,58,2070930028
120,20,3,ISIP_8,33,5,42,127,2070941280
120,20,3,ISIP_8,34,1,48,52,2071702380
120,20,3,ISIP_8,35,5,42,127,2071740640
120,20,3,ISIP_8,36,1,48,61,2072500172
120,20,3,ISIP_8,37,5,42,127,2072540476
120,20,3,ISIP_8,38,1,48,60,2073274628
120,20,3,ISIP_8,39,5,42,127,2073341180
120,20,3,ISIP_8,40,1,48,58,2074071988
120,20,3,ISIP_8,41,5,42,127,2074141284
120,20,3,ISIP_8,42,1,48,60,2074853244
120,20,3,ISIP_8,43,5,42,127,2074940648
120,20,3,ISIP_8,44,1,48,55,2075705640
120,20,3,ISIP_8,45,5,42,127,2075740380
120,20,3,ISIP_8,46,1,48,57,2076495424
120,20,3,ISIP_8,47,5,42,127,2076541232
120,20,3,ISIP_8,48,1,48,58,2077290144
120,20,3,ISIP_8,49,5,42,127,2077340968
120,20,3,ISIP_8,50,1,48,58,2078092268
120,20,3,ISIP_8,51,5,42,127,2078140996
120,20,3,ISIP_8,52,1,48,49,2078904872
120,20,3,ISIP_8,53,5,42,127,2078940460
120,20,3,ISIP_8,54,1,48,58,2079701040
120,20,3,ISIP_8,55,5,42,127,2079741164
120,20,3,ISIP_8,56,1,48,48,2080497256
120,20,3,ISIP_8,57,1,48,51,2081297440
120,20,3,ISIP_8,58,1,48,62,2082094020
120,20,3,ISIP_8,59,1,48,68,2082888368
120,20,3,ISIP_8,60,1,48,63,2083652116
120,20,3,ISIP_8,61,1,48,60,2084389320
120,20,3,ISIP_8,62,1,48,58,2085136988
120,20,3,ISIP_8,63,1,48,52,2085932080
120,20,3,ISIP_8,64,1,48,53,2086723128
120,20,3,ISIP_8,65,1,48,57,2087465416
120,20,3,ISIP_8,66,1,48,55,2088221240
120,20,3,ISIP_8,67,1,48,53,2088976312
120,20,3,ISIP_8,68,1,48,51,2089749488
120,20,3,ISIP_8,69,1,48,57,2090548172
120,20,3,ISIP_8,70,1,48,62,2091303548
120,20,3,ISIP_8,71,1,48,58,2092055404
120,20,3,ISIP_8,72,1,48,66,2092776824
120,20,3,ISIP_8,73,1,48,66,2093536612
120,20,3,ISIP_8,74,1,48,63,2094306120
120,20,3,ISIP_8,75,1,48,62,2095074884
120,20,3,ISIP_8,76,1,48,58,2095827268
120,20,3,ISIP_8,77,1,48,57,2096624300
120,20,3,ISIP_8,78,1,48,57,2097390896
120,20,3,ISIP_8,79,1,48,51,2098158836
120,20,3,ISIP_8,80,1,48,56,2098899536
120,20,3,ISIP_8,81,1,48,57,2099662064
120,20,3,ISIP_8,82,1,48,68,2100395496
120,20,3,ISIP_8,83,1,48,65,2101174284
120,20,3,ISIP_8,84,1,48,70,2101918964
120,20,3,ISIP_8,85,1,48,56,2102709112
120,20,3,ISIP_8,86,1,48,60,2103509692
120,20,3,ISIP_8,87,1,48,62,2104298732
120,20,3,ISIP_8,88,1,48,65,2105076016
120,20,3,ISIP_8,89,1,48,63,2105821892
120,20,3,ISIP_8,90,1,48,69,2106553760
120,20,3,ISIP_8,91,1,48,68,2107316012
120,20,3,ISIP_8,92,1,48,69,2108104148
120,20,3,ISIP_8,93,1,48,63,2108903608
120,20,3,ISIP_8,94,1,48,56,2109643688
120,20,3,ISIP_8,95,1,48,61,2110440460
120,20,3,ISIP_8,96,1,48,66,2111205176
120,20,3,ISIP_8,97,1,48,59,2111971848
120,20,3,ISIP_8,98,1,48,70,2112736572
120,20,3,ISIP_8,99,1,48,66,2113511468
120,20,3,ISIP_8,100,1,48,73,2114289808
120,20,3,ISIP_8,101,1,48,60,2115075396
120,20,3,ISIP_8,102,1,48,75,2115829500
120,20,3,ISIP_8,103,1,48,72,2116601328
120,20,3,ISIP_8,104,1,48,77,2117357152
120,20,3,ISIP_8,105,1,48,70,2118140572
120,20,3,ISIP_8,106,1,48,76,2118889652
120,20,3,ISIP_8,107,1,48,70,2119664996
120,20,3,ISIP_8,108,1,48,70,2120424408
120,20,3,ISIP_8,109,1,48,68,2121184044
120,20,3,ISIP_8,110,1,48,66,2121914260
120,20,3,ISIP_8,111,1,48,62,2122714088
120,20,3,ISIP_8,112,1,48,69,2123515096
120,20,3,ISIP_8,113,1,48,65,2124303604
120,20,3,ISIP_8,114,1,48,68,2125061444
120,20,3,ISIP_8,115,1,48,61,2125826472
120,20,3,ISIP_8,116,1,48,59,2126573692
120,20,3,ISIP_8,117,1,48,60,2127335420
120,20,3,ISIP_8,118,1,48,59,2128111584
120,20,3,ISIP_8,119,1,48,57,2128861356
120,20,3,ISIP_8,120,1,48,64,2129657492
120,20,3,ISIP_8,121,1,48,59,2130436804
120,20,3,ISIP_8,122,1,48,44,2131198460
120,20,3,ISIP_8,123,1,48,43,2131998336
120,20,3,ISIP_8,124,1,48,42,2132771512
120,20,3,ISIP_8,125,1,48,52,2133537060
120,20,3,ISIP_8,126,1,48,62,2134276800
120,20,3,ISIP_8,127,1,48,58,2135003452
120,20,3,ISIP_8,128,1,48,41,2135783280
120,20,3,ISIP_8,129,1,48,75,2136507656
120,20,3,ISIP_8,130,1,48,67,2137255400
120,20,3,ISIP_8,131,1,48,64,2137998436
120,20,3,ISIP_8,132,1,48,58,2138756648
120,20,3,ISIP_8,133,1,48,58,2139488312
120,20,3,ISIP_8,134,1,48,72,2140227004
120,20,3,ISIP_8,135,1,48,58,2141005940
120,20,3,ISIP_8,136,1,48,54,2141748824
120,20,3,ISIP_8,137,1,48,57,2142494248
120,20,3,ISIP_8,138,1,48,71,2143250524
120,20,3,ISIP_8,139,1,48,66,2144021228
120,20,3,ISIP_8,140,1,48,58,2144792236
120,20,3,ISIP_8,141,1,48,57,2145522252
120,20,3,ISIP_8,142,1,48,57,2146278600
120,20,3,ISIP_8,143,1,48,58,2146984356
120,20,3,ISIP_8,144,1,48,56,2147753716
120,20,3,ISIP_8,145,1,48,63,2148536680
120,20,3,ISIP_8,146,1,48,55,2149267672
120,20,3,ISIP_8,147,1,48,58,2150026104
120,20,3,ISIP_8,148,1,48,58,2150738028
120,20,3,ISIP_8,149,1,48,56,2151457644
120,20,3,ISIP_8,150,1,48,67,2152166268
120,20,3,ISIP_8,151,1,48,55,2152922768
120,20,3,ISIP_8,152,1,48,58,2153696240
120,20,3,ISIP_8,153,1,48,59,2154430348
120,20,3,ISIP_8,154,1,48,57,2155155276
120,20,3,ISIP_8,155,1,48,52,2155900480
120,20,3,ISIP_8,156,1,48,57,2156626828
120,20,3,ISIP_8,157,1,48,59,2157364028
120,20,3,ISIP_8,158,1,48,55,2158068304
120,20,3,ISIP_8,159,1,48,55,2158863844
120,20,3,ISIP_8,160,1,48,53,2159600220
120,20,3,ISIP_8,161,1,48,59,2160333528
120,20,3,ISIP_8,162,1,48,62,2161067936
120,20,3,ISIP_8,163,1,48,55,2161837080
120,20,3,ISIP_8,164,1,48,54,2162615856
120,20,3,ISIP_8,165,1,48,44,2163401976
120,20,3,ISIP_8,166,1,48,62,2164146284
120,20,3,ISIP_8,167,1,48,62,2164871216
120,20,3,ISIP_8,168,1,48,55,2165605040
120,20,3,ISIP_8,169,1,48,54,2166368500
120,20,3,ISIP_8,170,1,48,61,2167114592
120,20,3,ISIP_8,171,1,48,65,2167825688
120,20,3,ISIP_8,172,1,48,60,2168590488
120,20,3,ISIP_8,173,1,48,50,2169324832
120,20,3,ISIP_8,174,1,48,59,2170048840
120,20,3,ISIP_8,175,1,48,63,2170742128
120,20,3,ISIP_8,176,1,48,59,2171568336
120,20,3,ISIP_8,177,1,38,13,2171583800
120,20,3,ISIP_8,178,1,48,60,2172314984
120,20,3,ISIP_8,179,1,48,59,2173042604
120,20,3,ISIP_8,180,1,48,58,2173785640
120,20,3,ISIP_8,181,1,48,54,2174611624
120,20,3,ISIP_8,182,1,48,57,2175377392
120,20,3,ISIP_8,183,1,48,61,2176124464
120,20,3,ISIP_8,0,9999,9999,9999,2056538204
120,20,3,ISIP_8,1,9999,9999,9999,2057338928
120,20,3,ISIP_8,2,9999,9999,9999,2058138684
120,20,3,ISIP_8,3,9999,9999,9999,2058938440
120,20,3,ISIP_8,4,9999,9999,9999,2059738220
120,20,3,ISIP_8,5,9999,9999,9999,2060538992
120,20,3,ISIP_8,6,9999,9999,9999,2061338728
120,20,3,ISIP_8,7,9999,9999,9999,2062138460
120,20,3,ISIP_8,8,9999,9999,9999,2062938200
120,20,3,ISIP_8,9,9999,9999,9999,2063738980
120,20,3,ISIP_8,10,9999,9999,9999,2064538716
120,20,3,ISIP_8,11,9999,9999,9999,2065338448
120,20,3,ISIP_8,12,9999,9999,9999,2066138204
120,20,3,ISIP_8,13,9999,9999,9999,2066938980
120,20,3,ISIP_8,14,9999,9999,9999,2067738712
120,20,3,ISIP_8,15,9999,9999,9999,2068538448
120,20,3,ISIP_8,16,9999,9999,9999,2069338180
120,20,3,ISIP_8,17,9999,9999,9999,2070138960
120,20,3,ISIP_8,18,9999,9999,9999,2070938692
120,20,3,ISIP_8,19,9999,9999,9999,2071738428
120,20,3,ISIP_8,20,9999,9999,9999,2072538188
120,20,3,ISIP_8,21,9999,9999,9999,2073338968
120,20,3,ISIP_8,22,9999,9999,9999,2074138700
120,20,3,ISIP_8,23,9999,9999,9999,2074938432
120,20,3,ISIP_8,24,9999,9999,9999,2075738164
120,20,3,ISIP_8,25,9999,9999,9999,2076538948
120,20,3,ISIP_8,26,9999,9999,9999,2077338680
120,20,3,ISIP_8,27,9999,9999,9999,2078138488
120,20,3,ISIP_8,28,9999,9999,9999,2078938172
120,20,3,ISIP_8,29,9999,9999,9999,2079738948
120,20,3,ISIP_8,30,9999,9999,9999,2080538684
120,20,3,ISIP_8,31,9999,9999,9999,2081338416
120,20,3,ISIP_8,32,9999,9999,9999,2082138220
120,20,3,ISIP_8,33,9999,9999,9999,2082938996
120,20,3,ISIP_8,34,9999,9999,9999,2083738724
120,20,3,ISIP_8,35,9999,9999,9999,2084538436
120,20,3,ISIP_8,36,9999,9999,9999,2085338192
120,20,3,ISIP_8,37,9999,9999,9999,2086138968
120,20,3,ISIP_8,38,9999,9999,9999,2086938700
120,20,3,ISIP_8,39,9999,9999,9999,2087738428
120,20,3,ISIP_8,40,9999,9999,9999,2088538160
120,20,3,ISIP_8,41,9999,9999,9999,2089338936
120,20,3,ISIP_8,42,9999,9999,9999,2090138740
120,20,3,ISIP_8,43,9999,9999,9999,2090938468
120,20,3,ISIP_8,44,9999,9999,9999,2091738224
120,20,3,ISIP_8,45,9999,9999,9999,2092539000
120,20,3,ISIP_8,46,9999,9999,9999,2093338728
120,20,3,ISIP_8,47,9999,9999,9999,2094138456
120,20,3,ISIP_8,48,9999,9999,9999,2094938188
120,20,3,ISIP_8,49,9999,9999,9999,2095738960
120,20,3,ISIP_8,50,9999,9999,9999,2096538692
120,20,3,ISIP_8,51,9999,9999,9999,2097338420
120,20,3,ISIP_8,52,9999,9999,9999,2098138172
120,20,3,ISIP_8,53,9999,9999,9999,2098938944
120,20,3,ISIP_8,54,9999,9999,9999,2099738720
120,20,3,ISIP_8,55,9999,9999,9999,2100538436
120,20,3,ISIP_8,56,9999,9999,9999,2101338164
120,20,3,ISIP_8,57,9999,9999,9999,2102138940
120,20,3,ISIP_8,58,9999,9999,9999,2102938744
120,20,3,ISIP_8,59,9999,9999,9999,2103738472
120,20,3,ISIP_8,60,9999,9999,9999,2104538228
120,20,3,ISIP_8,61,9999,9999,9999,2105338932
120,20,3,ISIP_8,62,9999,9999,9999,2106138736
120,20,3,ISIP_8,63,9999,9999,9999,2106938468
120,20,3,ISIP_8,64,9999,9999,9999,2107738196
120,20,3,ISIP_8,65,9999,9999,9999,2108538972
120,20,3,ISIP_8,66,9999,9999,9999,2109338700
120,20,3,ISIP_8,67,9999,9999,9999,2110138428
120,20,3,ISIP_8,68,9999,9999,9999,2110938184
120,20,3,ISIP_8,69,9999,9999,9999,2111738960
120,20,3,ISIP_8,70,9999,9999,9999,2112538688
120,20,3,ISIP_8,71,9999,9999,9999,2113338420
120,20,3,ISIP_8,72,9999,9999,9999,2114138224
120,20,3,ISIP_8,73,9999,9999,9999,2114939000
120,20,3,ISIP_8,74,9999,9999,9999,2115738728
120,20,3,ISIP_8,75,9999,9999,9999,2116538456
120,20,3,ISIP_8,76,9999,9999,9999,2117338212
120,20,3,ISIP_8,77,9999,9999,9999,2118138984
120,20,3,ISIP_8,78,9999,9999,9999,2118938708
120,20,3,ISIP_8,79,9999,9999,9999,2119738436
120,20,3,ISIP_8,80,9999,9999,9999,2120538228
120,20,3,ISIP_8,81,9999,9999,9999,2121338928
120,20,3,ISIP_8,82,9999,9999,9999,2122138732
120,20,3,ISIP_8,83,9999,9999,9999,2122938460
120,20,3,ISIP_8,84,9999,9999,9999,2123738216
120,20,3,ISIP_8,85,9999,9999,9999,2124538992
120,20,3,ISIP_8,86,9999,9999,9999,2125338720
120,20,3,ISIP_8,87,9999,9999,9999,2126138448
120,20,3,ISIP_8,88,9999,9999,9999,2126938180
120,20,3,ISIP_8,89,9999,9999,9999,2127738956
120,20,3,ISIP_8,90,9999,9999,9999,2128538684
120,20,3,ISIP_8,91,9999,9999,9999,2129338416
120,20,3,ISIP_8,92,9999,9999,9999,2130138168
120,20,3,ISIP_8,93,9999,9999,9999,2130938944
120,20,3,ISIP_8,94,9999,9999,9999,2131738672
120,20,3,ISIP_8,95,9999,9999,9999,2132538476
120,20,3,ISIP_8,96,9999,9999,9999,2133338204
120,20,3,ISIP_8,97,9999,9999,9999,2134138980
120,20,3,ISIP_8,98,9999,9999,9999,2134938708
120,20,3,ISIP_8,99,9999,9999,9999,2135738440
120,20,3,ISIP_8,100,9999,9999,9999,2136538188
120,20,3,ISIP_8,101,9999,9999,9999,2137338964
120,20,3,ISIP_8,102,9999,9999,9999,2138138676
120,20,3,ISIP_8,103,9999,9999,9999,2138938480
120,20,3,ISIP_8,104,9999,9999,9999,2139738208
120,20,3,ISIP_8,105,9999,9999,9999,2140538984
120,20,3,ISIP_8,106,9999,9999,9999,2141338716
120,20,3,ISIP_8,107,9999,9999,9999,2142138444
120,20,3,ISIP_8,108,9999,9999,9999,2142938196
120,20,3,ISIP_8,109,9999,9999,9999,2143738972
120,20,3,ISIP_8,110,9999,9999,9999,2144538704
120,20,3,ISIP_8,111,9999,9999,9999,2145338432
120,20,3,ISIP_8,112,9999,9999,9999,2146138164
120,20,3,ISIP_8,113,9999,9999,9999,2146938940
120,20,3,ISIP_8,114,9999,9999,9999,2147738740
120,20,3,ISIP_8,115,9999,9999,9999,2148538464
120,20,3,ISIP_8,116,9999,9999,9999,2149338216
120,20,3,ISIP_8,117,9999,9999,9999,2150138976
120,20,3,ISIP_8,118,9999,9999,9999,2150938708
120,20,3,ISIP_8,119,9999,9999,9999,2151738436
120,20,3,ISIP_8,120,9999,9999,9999,2152538164
120,20,3,ISIP_8,121,9999,9999,9999,2153338940
120,20,3,ISIP_8,122,9999,9999,9999,2154138672
120,20,3,ISIP_8,123,9999,9999,9999,2154938476
120,20,3,ISIP_8,124,9999,9999,9999,2155738228
120,20,3,ISIP_8,125,9999,9999,9999,2156538928
120,20,3,ISIP_8,126,9999,9999,9999,2157338732
120,20,3,ISIP_8,127,9999,9999,9999,2158138456
120,20,3,ISIP_8,128,9999,9999,9999,2158938184
120,20,3,ISIP_8,129,9999,9999,9999,2159738944
120,20,3,ISIP_8,130,9999,9999,9999,2160538676
120,20,3,ISIP_8,131,9999,9999,9999,2161338480
120,20,3,ISIP_8,132,9999,9999,9999,2162138160
120,20,3,ISIP_8,133,9999,9999,9999,2162938936
120,20,3,ISIP_8,134,9999,9999,9999,2163738740
120,20,3,ISIP_8,135,9999,9999,9999,2164538468
120,20,3,ISIP_8,136,9999,9999,9999,2165338200
120,20,3,ISIP_8,137,9999,9999,9999,2166138972
120,20,3,ISIP_8,138,9999,9999,9999,2166938704
120,20,3,ISIP_8,139,9999,9999,9999,2167738432
120,20,3,ISIP_8,140,9999,9999,9999,2168538188
120,20,3,ISIP_8,141,9999,9999,9999,2169338956
120,20,3,ISIP_8,142,9999,9999,9999,2170138684
120,20,3,ISIP_8,143,9999,9999,9999,2170938472
120,20,3,ISIP_8,144,9999,9999,9999,2171738228
120,20,3,ISIP_8,145,9999,9999,9999,2172538928
120,20,3,ISIP_8,146,9999,9999,9999,2173338732
120,20,3,ISIP_8,147,9999,9999,9999,2174138460
120,20,3,ISIP_8,148,9999,9999,9999,2174938216
120,20,3,ISIP_8,149,9999,9999,9999,2175738988
120,21,5,ISIP_5,0,5,42,127,2203174164
120,21,5,ISIP_5,1,5,42,127,2203674028
120,21,5,ISIP_5,2,5,42,127,2204173672
120,21,5,ISIP_5,3,5,42,127,2204674284
120,21,5,ISIP_5,4,5,42,127,2205174000
120,21,5,ISIP_5,5,1,48,62,2205197840
120,21,5,ISIP_5,6,5,42,127,2205673920
120,21,5,ISIP_5,7,1,48,83,2205688704
120,21,5,ISIP_5,8,5,42,127,2206173540
120,21,5,ISIP_5,9,1,48,92,2206180476
120,21,5,ISIP_5,10,5,42,127,2206674136
120,21,5,ISIP_5,11,1,48,89,2206683908
120,21,5,ISIP_5,12,1,48,67,2207172060
120,21,5,ISIP_5,13,5,42,127,2207174096
120,21,5,ISIP_5,14,1,48,73,2207656328
120,21,5,ISIP_5,15,5,42,127,2207673716
120,21,5,ISIP_5,16,1,48,74,2208136876
120,21,5,ISIP_5,17,5,42,127,2208173408
120,21,5,ISIP_5,18,1,48,73,2208642108
120,21,5,ISIP_5,19,5,42,127,2208674080
120,21,5,ISIP_5,20,1,48,71,2209129536
120,21,5,ISIP_5,21,5,42,127,2209174068
120,21,5,ISIP_5,22,1,48,67,2209617856
120,21,5,ISIP_5,23,5,42,127,2209673468
120,21,5,ISIP_5,24,1,48,64,2210123460
120,21,5,ISIP_5,25,5,42,127,2210174436
120,21,5,ISIP_5,26,1,48,66,2210633108
120,21,5,ISIP_5,27,5,42,127,2210673980
120,21,5,ISIP_5,28,1,48,62,2211133100
120,21,5,ISIP_5,29,5,42,127,2211173676
120,21,5,ISIP_5,30,1,48,57,2211624048
120,21,5,ISIP_5,31,5,42,127,2211673444
120,21,5,ISIP_5,32,1,48,62,2212118280
120,21,5,ISIP_5,33,5,42,127,2212174112
120,21,5,ISIP_5,34,1,48,58,2212648420
120,21,5,ISIP_5,35,5,42,127,2212673884
120,21,5,ISIP_5,36,1,48,61,2213161500
120,21,5,ISIP_5,37,5,42,127,2213173652
120,21,5,ISIP_5,38,5,42,127,2213674252
120,21,5,ISIP_5,39,1,48,59,2213675220
120,21,5,ISIP_5,40,1,48,56,2214165904
120,21,5,ISIP_5,41,5,42,127,2214174016
120,21,5,ISIP_5,42,1,48,63,2214660660
120,21,5,ISIP_5,43,5,42,127,2214673860
120,21,5,ISIP_5,44,1,48,65,2215157220
120,21,5,ISIP_5,45,5,42,127,2215173332
120,21,5,ISIP_5,46,5,42,127,2215674232
120,21,5,ISIP_5,47,1,48,63,2215679444
120,21,5,ISIP_5,48,1,48,65,2216167228
120,21,5,ISIP_5,49,5,42,127,2216174216
120,21,5,ISIP_5,50,1,48,61,2216659444
120,21,5,ISIP_5,51,5,42,127,2216673836
120,21,5,ISIP_5,52,1,48,62,2217159484
120,21,5,ISIP_5,53,5,42,127,2217174356
120,21,5,ISIP_5,54,1,48,69,2217660608
120,21,5,ISIP_5,55,5,42,127,2217674052
120,21,5,ISIP_5,56,1,48,70,2218134568
120,21,5,ISIP_5,57,5,42,127,2218174020
120,21,5,ISIP_5,58,1,48,66,2218653260
120,21,5,ISIP_5,59,5,42,127,2218673640
120,21,5,ISIP_5,60,1,48,67,2219148324
120,21,5,ISIP_5,61,5,42,127,2219174308
120,21,5,ISIP_5,62,1,48,74,2219654820
120,21,5,ISIP_5,63,5,42,127,2219674004
120,21,5,ISIP_5,64,1,48,66,2220157212
120,21,5,ISIP_5,65,5,42,127,2220173848
120,21,5,ISIP_5,66,1,48,63,2220653160
120,21,5,ISIP_5,67,5,42,127,2220674440
120,21,5,ISIP_5,68,1,48,66,2221137452
120,21,5,ISIP_5,69,5,42,127,2221173984
120,21,5,ISIP_5,70,1,48,65,2221637072
120,21,5,ISIP_5,71,5,42,127,2221673980
120,21,5,ISIP_5,72,1,48,69,2222149628
120,21,5,ISIP_5,73,5,42,127,2222173524
120,21,5,ISIP_5,74,1,48,73,2222658900
120,21,5,ISIP_5,75,5,42,127,2222674192
120,21,5,ISIP_5,76,1,48,66,2223154260
120,21,5,ISIP_5,77,1,48,69,2223651400
120,21,5,ISIP_5,78,1,48,74,2224158952
120,21,5,ISIP_5,79,1,48,74,2224663128
120,21,5,ISIP_5,80,1,48,70,2225136716
120,21,5,ISIP_5,81,1,48,70,2225647472
120,21,5,ISIP_5,82,1,48,73,2226136544
120,21,5,ISIP_5,83,1,48,74,2226616764
120,21,5,ISIP_5,84,1,48,73,2227123928
120,21,5,ISIP_5,85,1,48,76,2227635664
120,21,5,ISIP_5,86,1,48,76,2228118676
120,21,5,ISIP_5,87,1,48,76,2228625472
120,21,5,ISIP_5,88,1,48,73,2229096812
120,21,5,ISIP_5,89,1,48,76,2229596356
120,21,5,ISIP_5,90,1,48,77,2230085272
120,21,5,ISIP_5,91,1,48,71,2230552348
120,21,5,ISIP_5,92,1,48,81,2231045832
120,21,5,ISIP_5,93,1,48,76,2231527800
120,21,5,ISIP_5,94,1,48,80,2232009016
120,21,5,ISIP_5,95,1,48,77,2232513916
120,21,5,ISIP_5,96,1,48,74,2232990792
120,21,5,ISIP_5,97,1,48,77,2233451212
120,21,5,ISIP_5,98,1,48,73,2233930932
120,21,5,ISIP_5,99,1,48,78,2234403616
120,21,5,ISIP_5,100,1,48,79,2234897176
120,21,5,ISIP_5,101,1,48,76,2235376296
120,21,5,ISIP_5,102,1,48,76,2235879804
120,21,5,ISIP_5,103,1,48,75,2236368720
120,21,5,ISIP_5,104,1,48,72,2236824032
120,21,5,ISIP_5,105,1,48,70,2237319980
120,21,5,ISIP_5,106,1,48,80,2237809876
120,21,5,ISIP_5,107,1,48,74,2238324752
120,21,5,ISIP_5,108,1,48,66,2238812092
120,21,5,ISIP_5,109,1,48,55,2239285460
120,21,5,ISIP_5,110,1,48,62,2239787844
120,21,5,ISIP_5,111,1,48,66,2240283944
120,21,5,ISIP_5,112,1,48,73,2240758648
120,21,5,ISIP_5,113,1,48,73,2241233356
120,21,5,ISIP_5,114,1,48,77,2241706248
120,21,5,ISIP_5,115,1,48,85,2242188440
120,21,5,ISIP_5,116,1,48,76,2242682660
120,21,5,ISIP_5,117,1,48,61,2243178016
120,21,5,ISIP_5,118,1,48,70,2243668268
120,21,5,ISIP_5,119,1,48,62,2244146116
120,21,5,ISIP_5,120,1,48,73,2244632120
120,21,5,ISIP_5,121,1,48,66,2245111992
120,21,5,ISIP_5,122,1,48,65,2245614748
120,21,5,ISIP_5,123,1,48,66,2246081496
120,21,5,ISIP_5,124,1,48,66,2246563460
120,21,5,ISIP_5,125,1,48,63,2247042436
120,21,5,ISIP_5,126,1,48,69,2247492832
120,21,5,ISIP_5,127,1,48,81,2247969340
120,21,5,ISIP_5,128,1,48,61,2248458484
120,21,5,ISIP_5,129,1,48,71,2248933112
120,21,5,ISIP_5,130,1,48,70,2249403612
120,21,5,ISIP_5,131,1,48,72,2249881084
120,21,5,ISIP_5,132,1,48,70,2250379952
120,21,5,ISIP_5,133,1,48,65,2250847260
120,21,5,ISIP_5,134,1,48,68,2251303264
120,21,5,ISIP_5,135,1,48,70,2251781936
120,21,5,ISIP_5,136,1,48,77,2252244528
120,21,5,ISIP_5,137,1,48,70,2252737688
120,21,5,ISIP_5,138,1,48,82,2253201624
120,21,5,ISIP_5,139,1,48,81,2253661656
120,21,5,ISIP_5,140,1,48,71,2254129336
120,21,5,ISIP_5,141,1,48,68,2254585192
120,21,5,ISIP_5,142,1,48,66,2255048908
120,21,5,ISIP_5,143,1,48,70,2255508032
120,21,5,ISIP_5,144,1,48,63,2255964416
120,21,5,ISIP_5,145,1,48,62,2256425432
120,21,5,ISIP_5,146,1,48,66,2256921456
120,21,5,ISIP_5,147,1,48,69,2257407540
120,21,5,ISIP_5,148,1,48,80,2257850436
120,21,5,ISIP_5,149,1,48,65,2258339276
120,21,5,ISIP_5,150,1,48,70,2258816004
120,21,5,ISIP_5,151,1,48,66,2259272836
120,21,5,ISIP_5,152,1,48,67,2259755248
120,21,5,ISIP_5,153,1,48,69,2260227564
120,21,5,ISIP_5,154,1,48,70,2260706156
120,21,5,ISIP_5,155,1,48,70,2261200240
120,21,5,ISIP_5,156,1,48,67,2261683972
120,21,5,ISIP_5,157,1,48,69,2262145504
120,21,5,ISIP_5,158,1,48,71,2262610340
120,21,5,ISIP_5,159,1,48,76,2263078020
120,21,5,ISIP_5,160,1,48,67,2263553176
120,21,5,ISIP_5,161,1,48,66,2264024516
120,21,5,ISIP_5,162,1,48,68,2264479672
120,21,5,ISIP_5,163,1,48,68,2264968596
120,21,5,ISIP_5,164,1,48,65,2265437092
120,21,5,ISIP_5,165,1,48,68,2265871636
120,21,5,ISIP_5,166,1,48,66,2266363248
120,21,5,ISIP_5,167,1,48,69,2266821400
120,21,5,ISIP_5,168,1,48,65,2267281296
120,21,5,ISIP_5,169,1,48,65,2267728108
120,21,5,ISIP_5,170,1,48,67,2268181124
120,21,5,ISIP_5,171,1,48,66,2268648336
120,21,5,ISIP_5,172,1,48,64,2269120628
120,21,5,ISIP_5,173,1,48,70,2269591516
120,21,5,ISIP_5,174,1,48,66,2270073704
120,21,5,ISIP_5,175,1,48,62,2270544004
120,21,5,ISIP_5,176,1,48,65,2271033376
120,21,5,ISIP_5,177,1,48,69,2271506356
120,21,5,ISIP_5,178,1,48,67,2271980540
120,21,5,ISIP_5,179,1,48,66,2272424336
120,21,5,ISIP_5,180,1,48,63,2272899792
120,21,5,ISIP_5,181,1,48,52,2273381384
120,21,5,ISIP_5,182,1,48,67,2273836496
120,21,5,ISIP_5,183,1,48,70,2274296240
120,21,5,ISIP_5,184,1,48,68,2274796300
120,21,5,ISIP_5,185,1,48,77,2275257752
120,21,5,ISIP_5,186,1,48,64,2275738440
120,21,5,ISIP_5,187,1,48,68,2276215764
120,21,5,ISIP_5,188,1,48,61,2276690472
120,21,5,ISIP_5,189,1,48,63,2277143100
120,21,5,ISIP_5,190,1,48,65,2277611152
120,21,5,ISIP_5,191,1,48,70,2278089904
120,21,5,ISIP_5,192,1,48,63,2278562116
120,21,5,ISIP_5,193,1,48,68,2279015352
120,21,5,ISIP_5,194,1,48,72,2279455580
120,21,5,ISIP_5,195,1,48,61,2279957816
120,21,5,ISIP_5,196,1,48,69,2280444712
120,21,5,ISIP_5,197,1,48,64,2280929072
120,21,5,ISIP_5,198,1,48,69,2281392536
120,21,5,ISIP_5,199,1,48,62,2281870612
120,21,5,ISIP_5,200,1,48,62,2282337016
120,21,5,ISIP_5,201,1,48,59,2282803424
120,21,5,ISIP_5,0,9999,9999,9999,2203171948
120,21,5,ISIP_5,1,9999,9999,9999,2203671668
120,21,5,ISIP_5,2,9999,9999,9999,2204171384
120,21,5,ISIP_5,3,9999,9999,9999,2204672072
120,21,5,ISIP_5,4,9999,9999,9999,2205171788
120,21,5,ISIP_5,5,9999,9999,9999,2205671484
120,21,5,ISIP_5,6,9999,9999,9999,2206171252
120,21,5,ISIP_5,7,9999,9999,9999,2206671920
120,21,5,ISIP_5,8,9999,9999,9999,2207171688
120,21,5,ISIP_5,9,9999,9999,9999,2207671352
120,21,5,ISIP_5,10,9999,9999,9999,2208171124
120,21,5,ISIP_5,11,9999,9999,9999,2208671864
120,21,5,ISIP_5,12,9999,9999,9999,2209171560
120,21,5,ISIP_5,13,9999,9999,9999,2209671256
120,21,5,ISIP_5,14,9999,9999,9999,2210172000
120,21,5,ISIP_5,15,9999,9999,9999,2210671692
120,21,5,ISIP_5,16,9999,9999,9999,2211171388
120,21,5,ISIP_5,17,9999,9999,9999,2211671156
120,21,5,ISIP_5,18,9999,9999,9999,2212171828
120,21,5,ISIP_5,19,9999,9999,9999,2212671596
120,21,5,ISIP_5,20,9999,9999,9999,2213171292
120,21,5,ISIP_5,21,9999,9999,9999,2213672040
120,21,5,ISIP_5,22,9999,9999,9999,2214171728
120,21,5,ISIP_5,23,9999,9999,9999,2214671424
120,21,5,ISIP_5,24,9999,9999,9999,2215171120
120,21,5,ISIP_5,25,9999,9999,9999,2215671868
120,21,5,ISIP_5,26,9999,9999,9999,2216171632
120,21,5,ISIP_5,27,9999,9999,9999,2216671328
120,21,5,ISIP_5,28,9999,9999,9999,2217172068
120,21,5,ISIP_5,29,9999,9999,9999,2217671740
120,21,5,ISIP_5,30,9999,9999,9999,2218171508
120,21,5,ISIP_5,31,9999,9999,9999,2218671204
120,21,5,ISIP_5,32,9999,9999,9999,2219171948
120,21,5,ISIP_5,33,9999,9999,9999,2219671640
120,21,5,ISIP_5,34,9999,9999,9999,2220171336
120,21,5,ISIP_5,35,9999,9999,9999,2220672080
120,21,5,ISIP_5,36,9999,9999,9999,2221171772
120,21,5,ISIP_5,37,9999,9999,9999,2221671544
120,21,5,ISIP_5,38,9999,9999,9999,2222171240
120,21,5,ISIP_5,39,9999,9999,9999,2222671980
120,21,5,ISIP_5,40,9999,9999,9999,2223171676
120,21,5,ISIP_5,41,9999,9999,9999,2223671364
120,21,5,ISIP_5,42,9999,9999,9999,2224171056
120,21,5,ISIP_5,43,9999,9999,9999,2224671796
120,21,5,ISIP_5,44,9999,9999,9999,2225171560
120,21,5,ISIP_5,45,9999,9999,9999,2225671252
120,21,5,ISIP_5,46,9999,9999,9999,2226171988
120,21,5,ISIP_5,47,9999,9999,9999,2226671676
120,21,5,ISIP_5,48,9999,9999,9999,2227171444
120,21,5,ISIP_5,49,9999,9999,9999,2227671132
120,21,5,ISIP_5,50,9999,9999,9999,2228171868
120,21,5,ISIP_5,51,9999,9999,9999,2228671536
120,21,5,ISIP_5,52,9999,9999,9999,2229171300
120,21,5,ISIP_5,53,9999,9999,9999,2229672040
120,21,5,ISIP_5,54,9999,9999,9999,2230171728
120,21,5,ISIP_5,55,9999,9999,9999,2230671480
120,21,5,ISIP_5,56,9999,9999,9999,2231171172
120,21,5,ISIP_5,57,9999,9999,9999,2231671908
120,21,5,ISIP_5,58,9999,9999,9999,2232171596
120,21,5,ISIP_5,59,9999,9999,9999,2232671288
120,21,5,ISIP_5,60,9999,9999,9999,2233172024
120,21,5,ISIP_5,61,9999,9999,9999,2233671788
120,21,5,ISIP_5,62,9999,9999,9999,2234171480
120,21,5,ISIP_5,63,9999,9999,9999,2234671172
120,21,5,ISIP_5,64,9999,9999,9999,2235171908
120,21,5,ISIP_5,65,9999,9999,9999,2235671672
120,21,5,ISIP_5,66,9999,9999,9999,2236171364
120,21,5,ISIP_5,67,9999,9999,9999,2236672104
120,21,5,ISIP_5,68,9999,9999,9999,2237171792
120,21,5,ISIP_5,69,9999,9999,9999,2237671480
120,21,5,ISIP_5,70,9999,9999,9999,2238171248
120,21,5,ISIP_5,71,9999,9999,9999,2238671984
120,21,5,ISIP_5,72,9999,9999,9999,2239171652
120,21,5,ISIP_5,73,9999,9999,9999,2239671416
120,21,5,ISIP_5,74,9999,9999,9999,2240171104
120,21,5,ISIP_5,75,9999,9999,9999,2240671844
120,21,5,ISIP_5,76,9999,9999,9999,2241171532
120,21,5,ISIP_5,77,9999,9999,9999,2241671228
120,21,5,ISIP_5,78,9999,9999,9999,2242171964
120,21,5,ISIP_5,79,9999,9999,9999,2242671728
120,21,5,ISIP_5,80,9999,9999,9999,2243171416
120,21,5,ISIP_5,81,9999,9999,9999,2243671100
120,21,5,ISIP_5,82,9999,9999,9999,2244171840
120,21,5,ISIP_5,83,9999,9999,9999,2244671604
120,21,5,ISIP_5,84,9999,9999,9999,2245171296
120,21,5,ISIP_5,85,9999,9999,9999,2245672032
120,21,5,ISIP_5,86,9999,9999,9999,2246171724
120,21,5,ISIP_5,87,9999,9999,9999,2246671472
120,21,5,ISIP_5,88,9999,9999,9999,2247171160
120,21,5,ISIP_5,89,9999,9999,9999,2247671900
120,21,5,ISIP_5,90,9999,9999,9999,2248171592
120,21,5,ISIP_5,91,9999,9999,9999,2248671284
120,21,5,ISIP_5,92,9999,9999,9999,2249172020
120,21,5,ISIP_5,93,9999,9999,9999,2249671784
120,21,5,ISIP_5,94,9999,9999,9999,2250171452
120,21,5,ISIP_5,95,9999,9999,9999,2250671216
120,21,5,ISIP_5,96,9999,9999,9999,2251171952
120,21,5,ISIP_5,97,9999,9999,9999,2251671644
120,21,5,ISIP_5,98,9999,9999,9999,2252171332
120,21,5,ISIP_5,99,9999,9999,9999,2252672072
120,21,5,ISIP_5,100,9999,9999,9999,2253171760
120,21,5,ISIP_5,101,9999,9999,9999,2253671520
120,21,5,ISIP_5,102,9999,9999,9999,2254171212
120,21,5,ISIP_5,103,9999,9999,9999,2254671948
120,21,5,ISIP_5,104,9999,9999,9999,2255171700
120,21,5,ISIP_5,105,9999,9999,9999,2255671388
120,21,5,ISIP_5,106,9999,9999,9999,2256171080
120,21,5,ISIP_5,107,9999,9999,9999,2256671820
120,21,5,ISIP_5,108,9999,9999,9999,2257171508
120,21,5,ISIP_5,109,9999,9999,9999,2257671276
120,21,5,ISIP_5,110,9999,9999,9999,2258172012
120,21,5,ISIP_5,111,9999,9999,9999,2258671700
120,21,5,ISIP_5,112,9999,9999,9999,2259171392
120,21,5,ISIP_5,113,9999,9999,9999,2259671156
120,21,5,ISIP_5,114,9999,9999,9999,2260171896
120,21,5,ISIP_5,115,9999,9999,9999,2260671560
120,21,5,ISIP_5,116,9999,9999,9999,2261171252
120,21,5,ISIP_5,117,9999,9999,9999,2261671988
120,21,5,ISIP_5,118,9999,9999,9999,2262171748
120,21,5,ISIP_5,119,9999,9999,9999,2262671440
120,21,5,ISIP_5,120,9999,9999,9999,2263171132
120,21,5,ISIP_5,121,9999,9999,9999,2263671924
120,21,5,ISIP_5,122,9999,9999,9999,2264171616
120,21,5,ISIP_5,123,9999,9999,9999,2264671308
120,21,5,ISIP_5,124,9999,9999,9999,2265172044
120,21,5,ISIP_5,125,9999,9999,9999,2265671736
120,21,5,ISIP_5,126,9999,9999,9999,2266171500
120,21,5,ISIP_5,127,9999,9999,9999,2266671192
120,21,5,ISIP_5,128,9999,9999,9999,2267171928
120,21,5,ISIP_5,129,9999,9999,9999,2267671616
120,21,5,ISIP_5,130,9999,9999,9999,2268171384
120,21,5,ISIP_5,131,9999,9999,9999,2268672116
120,21,5,ISIP_5,132,9999,9999,9999,2269171804
120,21,5,ISIP_5,133,9999,9999,9999,2269671496
120,21,5,ISIP_5,134,9999,9999,9999,2270171244
120,21,5,ISIP_5,135,9999,9999,9999,2270671984
120,21,5,ISIP_5,136,9999,9999,9999,2271171648
120,21,5,ISIP_5,137,9999,9999,9999,2271671412
120,21,5,ISIP_5,138,9999,9999,9999,2272171104
120,21,5,ISIP_5,139,9999,9999,9999,2272671844
120,21,5,ISIP_5,140,9999,9999,9999,2273171532
120,21,5,ISIP_5,141,9999,9999,9999,2273671224
120,21,5,ISIP_5,142,9999,9999,9999,2274171960
120,21,5,ISIP_5,143,9999,9999,9999,2274671724
120,21,5,ISIP_5,144,9999,9999,9999,2275171416
120,21,5,ISIP_5,145,9999,9999,9999,2275671104
120,21,5,ISIP_5,146,9999,9999,9999,2276171844
120,21,5,ISIP_5,147,9999,9999,9999,2276671608
120,21,5,ISIP_5,148,9999,9999,9999,2277171292
120,21,5,ISIP_5,149,9999,9999,9999,2277672028
120,21,5,ISIP_5,150,9999,9999,9999,2278171720
120,21,5,ISIP_5,151,9999,9999,9999,2278671468
120,21,5,ISIP_5,152,9999,9999,9999,2279171160
120,21,5,ISIP_5,153,9999,9999,9999,2279671896
120,21,5,ISIP_5,154,9999,9999,9999,2280171588
120,21,5,ISIP_5,155,9999,9999,9999,2280671352
120,21,5,ISIP_5,156,9999,9999,9999,2281172088
120,21,5,ISIP_5,157,9999,9999,9999,2281671780
120,21,5,ISIP_5,158,9999,9999,9999,2282171448
120,21,5,ISIP_5,159,9999,9999,9999,2282671212
120,22,11,Pattern_Practice,0,5,42,127,2392547584
120,22,11,Pattern_Practice,1,5,42,127,2393048420
120,22,11,Pattern_Practice,2,5,42,127,2393548284
120,22,11,Pattern_Practice,3,5,42,127,2394048152
120,22,11,Pattern_Practice,4,5,42,127,2394547472
120,22,11,Pattern_Practice,5,5,42,127,2395048236
120,22,11,Pattern_Practice,6,5,42,127,2395548468
120,22,11,Pattern_Practice,7,5,42,127,2396047668
120,22,11,Pattern_Practice,8,5,42,127,2396547384
120,22,11,Pattern_Practice,9,1,38,47,2396552224
120,22,11,Pattern_Practice,10,1,48,54,2397033648
120,22,11,Pattern_Practice,11,5,42,127,2397048196
120,22,11,Pattern_Practice,12,1,38,49,2397515168
120,22,11,Pattern_Practice,13,5,42,127,2397548112
120,22,11,Pattern_Practice,14,1,48,55,2397984344
120,22,11,Pattern_Practice,15,5,42,127,2398047660
120,22,11,Pattern_Practice,16,1,38,52,2398480972
120,22,11,Pattern_Practice,17,5,42,127,2398548400
120,22,11,Pattern_Practice,18,1,48,51,2398968700
120,22,11,Pattern_Practice,19,5,42,127,2399048096
120,22,11,Pattern_Practice,20,1,38,58,2399437800
120,22,11,Pattern_Practice,21,5,42,127,2399547996
120,22,11,Pattern_Practice,22,1,48,59,2399935628
120,22,11,Pattern_Practice,23,5,42,127,2400047472
120,22,11,Pattern_Practice,24,1,48,63,2400524928
120,22,11,Pattern_Practice,25,5,42,127,2400548228
120,22,11,Pattern_Practice,26,1,48,47,2400765500
120,22,11,Pattern_Practice,27,1,38,64,2401037768
120,22,11,Pattern_Practice,28,5,42,127,2401048196
120,22,11,Pattern_Practice,29,1,48,61,2401288364
120,22,11,Pattern_Practice,30,1,48,56,2401531160
120,22,11,Pattern_Practice,31,5,42,127,2401547500
120,22,11,Pattern_Practice,32,1,48,55,2401761408
120,22,11,Pattern_Practice,33,1,38,67,2402012280
120,22,11,Pattern_Practice,34,5,42,127,2402048220
120,22,11,Pattern_Practice,35,1,48,54,2402224028
120,22,11,Pattern_Practice,36,1,48,58,2402500356
120,22,11,Pattern_Practice,37,5,42,127,2402548040
120,22,11,Pattern_Practice,38,1,48,64,2402731184
120,22,11,Pattern_Practice,39,1,38,80,2403002248
120,22,11,Pattern_Practice,40,5,42,127,2403047864
120,22,11,Pattern_Practice,41,1,48,62,2403247980
120,22,11,Pattern_Practice,42,1,48,57,2403502300
120,22,11,Pattern_Practice,43,5,42,127,2403547388
120,22,11,Pattern_Practice,44,1,48,57,2403742944
120,22,11,Pattern_Practice,45,1,38,62,2404047284
120,22,11,Pattern_Practice,46,5,42,127,2404050048
120,22,11,Pattern_Practice,47,5,42,127,2404548028
120,22,11,Pattern_Practice,48,1,48,61,2404565212
120,22,11,Pattern_Practice,49,1,48,68,2404818552
120,22,11,Pattern_Practice,50,5,42,127,2405047752
120,22,11,Pattern_Practice,51,1,38,70,2405064652
120,22,11,Pattern_Practice,52,5,42,127,2405548344
120,22,11,Pattern_Practice,53,1,48,62,2405579536
120,22,11,Pattern_Practice,54,1,48,57,2405814900
120,22,11,Pattern_Practice,55,5,42,127,2406048312
120,22,11,Pattern_Practice,56,1,38,79,2406081152
120,22,11,Pattern_Practice,57,5,42,127,2406547784
120,22,11,Pattern_Practice,58,1,48,75,2406569972
120,22,11,Pattern_Practice,59,1,48,48,2406804692
120,22,11,Pattern_Practice,60,5,42,127,2407047384
120,22,11,Pattern_Practice,61,1,38,64,2407062388
120,22,11,Pattern_Practice,62,1,48,66,2407271828
120,22,11,Pattern_Practice,63,1,48,56,2407520684
120,22,11,Pattern_Practice,64,5,42,127,2407548392
120,22,11,Pattern_Practice,65,1,48,70,2407745444
120,22,11,Pattern_Practice,66,1,38,72,2408022724
120,22,11,Pattern_Practice,67,5,42,127,2408047892
120,22,11,Pattern_Practice,68,5,42,127,2408547744
120,22,11,Pattern_Practice,69,1,48,81,2408560888
120,22,11,Pattern_Practice,70,1,38,58,2409039320
120,22,11,Pattern_Practice,71,5,42,127,2409048704
120,22,11,Pattern_Practice,72,1,48,76,2409528916
120,22,11,Pattern_Practice,73,5,42,127,2409548100
120,22,11,Pattern_Practice,74,1,38,74,2410026068
120,22,11,Pattern_Practice,75,5,42,127,2410047796
120,22,11,Pattern_Practice,76,1,48,69,2410529576
120,22,11,Pattern_Practice,77,5,42,127,2410547640
120,22,11,Pattern_Practice,78,1,48,68,2410772388
120,22,11,Pattern_Practice,79,5,42,127,2411048292
120,22,11,Pattern_Practice,80,1,38,65,2411054256
120,22,11,Pattern_Practice,81,1,48,75,2411281864
120,22,11,Pattern_Practice,82,1,48,62,2411532064
120,22,11,Pattern_Practice,83,5,42,127,2411547956
120,22,11,Pattern_Practice,84,1,48,54,2411741968
120,22,11,Pattern_Practice,85,1,38,46,2412021940
120,22,11,Pattern_Practice,86,5,42,127,2412047704
120,22,11,Pattern_Practice,87,1,48,83,2412534276
120,22,11,Pattern_Practice,88,5,42,127,2412547624
120,22,11,Pattern_Practice,89,1,38,77,2413017440
120,22,11,Pattern_Practice,90,5,42,127,2413048068
120,22,11,Pattern_Practice,91,1,48,93,2413535908
120,22,11,Pattern_Practice,92,5,42,127,2413547836
120,22,11,Pattern_Practice,93,1,38,82,2414020944
120,22,11,Pattern_Practice,94,5,42,127,2414047604
120,22,11,Pattern_Practice,95,1,48,68,2414546688
120,22,11,Pattern_Practice,96,5,42,127,2414548200
120,22,11,Pattern_Practice,97,1,48,61,2414786644
120,22,11,Pattern_Practice,98,5,42,127,2415048032
120,22,11,Pattern_Practice,99,1,38,70,2415061320
120,22,11,Pattern_Practice,100,1,48,57,2415296484
120,22,11,Pattern_Practice,101,5,42,127,2415547752
120,22,11,Pattern_Practice,102,1,48,61,2415556808
120,22,11,Pattern_Practice,103,1,48,69,2415766592
120,22,11,Pattern_Practice,104,1,38,76,2416032872
120,22,11,Pattern_Practice,105,5,42,127,2416047420
120,22,11,Pattern_Practice,106,1,48,77,2416251452
120,22,11,Pattern_Practice,107,1,48,64,2416527388
120,22,11,Pattern_Practice,108,5,42,127,2416548140
120,22,11,Pattern_Practice,109,1,48,60,2416762492
120,22,11,Pattern_Practice,110,1,38,71,2417037828
120,22,11,Pattern_Practice,111,5,42,127,2417047812
120,22,11,Pattern_Practice,112,1,48,53,2417219008
120,22,11,Pattern_Practice,113,1,48,64,2417508632
120,22,11,Pattern_Practice,114,5,42,127,2417547708
120,22,11,Pattern_Practice,115,1,48,58,2417745532
120,22,11,Pattern_Practice,116,1,38,63,2418022288
120,22,11,Pattern_Practice,117,5,42,127,2418048428
120,22,11,Pattern_Practice,118,1,48,62,2418259124
120,22,11,Pattern_Practice,119,1,38,80,2418496684
120,22,11,Pattern_Practice,120,5,42,127,2418548028
120,22,11,Pattern_Practice,121,1,48,65,2418714964
120,22,11,Pattern_Practice,122,1,38,82,2419000768
120,22,11,Pattern_Practice,123,5,42,127,2419047700
120,22,11,Pattern_Practice,124,1,48,89,2419245080
120,22,11,Pattern_Practice,125,1,48,79,2419537836
120,22,11,Pattern_Practice,126,5,42,127,2419547596
120,22,11,Pattern_Practice,127,5,42,127,2420048272
120,22,11,Pattern_Practice,128,1,38,85,2420055428
120,22,11,Pattern_Practice,129,5,42,127,2420547968
120,22,11,Pattern_Practice,130,1,48,72,2420552652
120,22,11,Pattern_Practice,131,1,48,75,2420811384
120,22,11,Pattern_Practice,132,5,42,127,2421047564
120,22,11,Pattern_Practice,133,1,38,78,2421082092
120,22,11,Pattern_Practice,134,5,42,127,2421548456
120,22,11,Pattern_Practice,135,1,48,87,2421609168
120,22,11,Pattern_Practice,136,5,42,127,2422048148
120,22,11,Pattern_Practice,137,1,38,90,2422082232
120,22,11,Pattern_Practice,138,5,42,127,2422547992
120,22,11,Pattern_Practice,139,1,48,87,2422580360
120,22,11,Pattern_Practice,140,1,48,62,2422812456
120,22,11,Pattern_Practice,141,5,42,127,2423047668
120,22,11,Pattern_Practice,142,1,38,78,2423098132
120,22,11,Pattern_Practice,143,5,42,127,2423548332
120,22,11,Pattern_Practice,144,1,48,78,2423593856
120,22,11,Pattern_Practice,145,1,48,68,2423824092
120,22,11,Pattern_Practice,146,5,42,127,2424048080
120,22,11,Pattern_Practice,147,1,38,76,2424070348
120,22,11,Pattern_Practice,148,1,48,65,2424307912
120,22,11,Pattern_Practice,149,1,38,63,2424533796
120,22,11,Pattern_Practice,150,5,42,127,2424547672
120,22,11,Pattern_Practice,151,1,48,71,2424770480
120,22,11,Pattern_Practice,152,1,38,89,2425046656
120,22,11,Pattern_Practice,153,5,42,127,2425049736
120,22,11,Pattern_Practice,154,5,42,127,2425548092
120,22,11,Pattern_Practice,155,1,48,66,2425551808
120,22,11,Pattern_Practice,156,1,38,78,2426039792
120,22,11,Pattern_Practice,157,5,42,127,2426047928
120,22,11,Pattern_Practice,158,5,42,127,2426547756
120,22,11,Pattern_Practice,159,1,48,76,2426569596
120,22,11,Pattern_Practice,160,1,48,59,2426805860
120,22,11,Pattern_Practice,161,5,42,127,2427048552
120,22,11,Pattern_Practice,162,1,38,84,2427075032
120,22,11,Pattern_Practice,163,5,42,127,2427548020
120,22,11,Pattern_Practice,164,1,48,80,2427572308
120,22,11,Pattern_Practice,165,5,42,127,2428047792
120,22,11,Pattern_Practice,166,1,38,88,2428061080
120,22,11,Pattern_Practice,167,1,48,72,2428532784
120,22,11,Pattern_Practice,168,5,42,127,2428547628
120,22,11,Pattern_Practice,169,1,48,58,2428778892
120,22,11,Pattern_Practice,170,5,42,127,2429048056
120,22,11,Pattern_Practice,171,1,38,84,2429064416
120,22,11,Pattern_Practice,172,5,42,127,2429547900
120,22,11,Pattern_Practice,173,1,48,70,2429560592
120,22,11,Pattern_Practice,174,1,48,72,2429810492
120,22,11,Pattern_Practice,175,5,42,127,2430047872
120,22,11,Pattern_Practice,176,1,38,83,2430073056
120,22,11,Pattern_Practice,177,1,48,81,2430329992
120,22,11,Pattern_Practice,178,5,42,127,2430548440
120,22,11,Pattern_Practice,179,1,38,93,2430554700
120,22,11,Pattern_Practice,180,1,48,69,2430788372
120,22,11,Pattern_Practice,181,1,38,87,2431026608
120,22,11,Pattern_Practice,182,5,42,127,2431048032
120,22,11,Pattern_Practice,183,1,48,76,2431249824
120,22,11,Pattern_Practice,184,1,38,119,2431521340
120,22,11,Pattern_Practice,185,5,42,127,2431547928
120,22,11,Pattern_Practice,186,1,48,87,2431775080
120,22,11,Pattern_Practice,187,5,42,127,2432047760
120,22,11,Pattern_Practice,188,1,48,96,2432071296
120,22,11,Pattern_Practice,0,9999,9999,9999,2392545368
120,22,11,Pattern_Practice,1,9999,9999,9999,2393046136
120,22,11,Pattern_Practice,2,9999,9999,9999,2393545848
120,22,11,Pattern_Practice,3,9999,9999,9999,2394045540
120,22,11,Pattern_Practice,4,9999,9999,9999,2394545256
120,22,11,Pattern_Practice,5,9999,9999,9999,2395045944
120,22,11,Pattern_Practice,6,9999,9999,9999,2395545660
120,22,11,Pattern_Practice,7,9999,9999,9999,2396045380
120,22,11,Pattern_Practice,8,9999,9999,9999,2396545096
120,22,11,Pattern_Practice,9,9999,9999,9999,2397045828
120,22,11,Pattern_Practice,10,9999,9999,9999,2397545528
120,22,11,Pattern_Practice,11,9999,9999,9999,2398045296
120,22,11,Pattern_Practice,12,9999,9999,9999,2398546036
120,22,11,Pattern_Practice,13,9999,9999,9999,2399045732
120,22,11,Pattern_Practice,14,9999,9999,9999,2399545412
120,22,11,Pattern_Practice,15,9999,9999,9999,2400045108
120,22,11,Pattern_Practice,16,9999,9999,9999,2400545864
120,22,11,Pattern_Practice,17,9999,9999,9999,2401045612
120,22,11,Pattern_Practice,18,9999,9999,9999,2401545284
120,22,11,Pattern_Practice,19,9999,9999,9999,2402046004
120,22,11,Pattern_Practice,20,9999,9999,9999,2402545752
120,22,11,Pattern_Practice,21,9999,9999,9999,2403045424
120,22,11,Pattern_Practice,22,9999,9999,9999,2403545172
120,22,11,Pattern_Practice,23,9999,9999,9999,2404045896
120,22,11,Pattern_Practice,24,9999,9999,9999,2404545592
120,22,11,Pattern_Practice,25,9999,9999,9999,2405045312
120,22,11,Pattern_Practice,26,9999,9999,9999,2405546056
120,22,11,Pattern_Practice,27,9999,9999,9999,2406045800
120,22,11,Pattern_Practice,28,9999,9999,9999,2406545496
120,22,11,Pattern_Practice,29,9999,9999,9999,2407045168
120,22,11,Pattern_Practice,30,9999,9999,9999,2407545956
120,22,11,Pattern_Practice,31,9999,9999,9999,2408045680
120,22,11,Pattern_Practice,32,9999,9999,9999,2408545380
120,22,11,Pattern_Practice,33,9999,9999,9999,2409046120
120,22,11,Pattern_Practice,34,9999,9999,9999,2409545812
120,22,11,Pattern_Practice,35,9999,9999,9999,2410045508
120,22,11,Pattern_Practice,36,9999,9999,9999,2410545204
120,22,11,Pattern_Practice,37,9999,9999,9999,2411046004
120,22,11,Pattern_Practice,38,9999,9999,9999,2411545668
120,22,11,Pattern_Practice,39,9999,9999,9999,2412045416
120,22,11,Pattern_Practice,40,9999,9999,9999,2412545112
120,22,11,Pattern_Practice,41,9999,9999,9999,2413045852
120,22,11,Pattern_Practice,42,9999,9999,9999,2413545548
120,22,11,Pattern_Practice,43,9999,9999,9999,2414045244
120,22,11,Pattern_Practice,44,9999,9999,9999,2414545996
120,22,11,Pattern_Practice,45,9999,9999,9999,2415045740
120,22,11,Pattern_Practice,46,9999,9999,9999,2415545464
120,22,11,Pattern_Practice,47,9999,9999,9999,2416045128
120,22,11,Pattern_Practice,48,9999,9999,9999,2416545852
120,22,11,Pattern_Practice,49,9999,9999,9999,2417045596
120,22,11,Pattern_Practice,50,9999,9999,9999,2417545272
120,22,11,Pattern_Practice,51,9999,9999,9999,2418046064
120,22,11,Pattern_Practice,52,9999,9999,9999,2418545740
120,22,11,Pattern_Practice,53,9999,9999,9999,2419045488
120,22,11,Pattern_Practice,54,9999,9999,9999,2419545160
120,22,11,Pattern_Practice,55,9999,9999,9999,2420045908
120,22,11,Pattern_Practice,56,9999,9999,9999,2420545604
120,22,11,Pattern_Practice,57,9999,9999,9999,2421045352
120,22,11,Pattern_Practice,58,9999,9999,9999,2421546092
120,22,11,Pattern_Practice,59,9999,9999,9999,2422045784
120,22,11,Pattern_Practice,60,9999,9999,9999,2422545480
120,22,11,Pattern_Practice,61,9999,9999,9999,2423045228
120,22,11,Pattern_Practice,62,9999,9999,9999,2423545968
120,22,11,Pattern_Practice,63,9999,9999,9999,2424045644
120,22,11,Pattern_Practice,64,9999,9999,9999,2424545384
120,22,11,Pattern_Practice,65,9999,9999,9999,2425046132
120,22,11,Pattern_Practice,66,9999,9999,9999,2425545804
120,22,11,Pattern_Practice,67,9999,9999,9999,2426045492
120,22,11,Pattern_Practice,68,9999,9999,9999,2426545244
120,22,11,Pattern_Practice,69,9999,9999,9999,2427045964
120,22,11,Pattern_Practice,70,9999,9999,9999,2427545660
120,22,11,Pattern_Practice,71,9999,9999,9999,2428045428
120,22,11,Pattern_Practice,72,9999,9999,9999,2428545116
120,22,11,Pattern_Practice,73,9999,9999,9999,2429045840
120,22,11,Pattern_Practice,74,9999,9999,9999,2429545536
120,22,11,Pattern_Practice,75,9999,9999,9999,2430045284
120,22,11,Pattern_Practice,76,9999,9999,9999,2430546004
120,22,11,Pattern_Practice,77,9999,9999,9999,2431045744
120,22,11,Pattern_Practice,78,9999,9999,9999,2431545416
120,22,11,Pattern_Practice,79,9999,9999,9999,2432045172
120,23,13,Improv_Metronome,0,5,42,127,2472361260
120,23,13,Improv_Metronome,1,5,42,127,2472860900
120,23,13,Improv_Metronome,2,5,42,127,2473360916
120,23,13,Improv_Metronome,3,5,42,127,2473860332
120,23,13,Improv_Metronome,4,1,48,45,2474356192
120,23,13,Improv_Metronome,5,5,42,127,2474361164
120,23,13,Improv_Metronome,6,1,38,67,2474859960
120,23,13,Improv_Metronome,7,5,42,127,2474862804
120,23,13,Improv_Metronome,8,5,42,127,2475360560
120,23,13,Improv_Metronome,9,1,48,57,2475391056
120,23,13,Improv_Metronome,10,1,38,71,2475625020
120,23,13,Improv_Metronome,11,5,42,127,2475861428
120,23,13,Improv_Metronome,12,1,48,59,2475895360
120,23,13,Improv_Metronome,13,5,42,127,2476361120
120,23,13,Improv_Metronome,14,1,38,75,2476390340
120,23,13,Improv_Metronome,15,5,42,127,2476860816
120,23,13,Improv_Metronome,16,1,48,77,2476901784
120,23,13,Improv_Metronome,17,5,42,127,2477360436
120,23,13,Improv_Metronome,18,1,38,74,2477412920
120,23,13,Improv_Metronome,19,5,42,127,2477861252
120,23,13,Improv_Metronome,20,1,48,67,2477918148
120,23,13,Improv_Metronome,21,1,38,73,2478145764
120,23,13,Improv_Metronome,22,5,42,127,2478361000
120,23,13,Improv_Metronome,23,1,48,71,2478399124
120,23,13,Improv_Metronome,24,5,42,127,2478860620
120,23,13,Improv_Metronome,25,1,38,78,2478886176
120,23,13,Improv_Metronome,26,5,42,127,2479361508
120,23,13,Improv_Metronome,27,1,48,76,2479390584
120,23,13,Improv_Metronome,28,5,42,127,2479861204
120,23,13,Improv_Metronome,29,1,38,82,2479913464
120,23,13,Improv_Metronome,30,5,42,127,2480360752
120,23,13,Improv_Metronome,31,1,48,78,2480393184
120,23,13,Improv_Metronome,32,1,38,83,2480624316
120,23,13,Improv_Metronome,33,5,42,127,2480860648
120,23,13,Improv_Metronome,34,1,48,79,2480862288
120,23,13,Improv_Metronome,35,1,38,81,2481345944
120,23,13,Improv_Metronome,36,5,42,127,2481361236
120,23,13,Improv_Metronome,37,1,48,71,2481848384
120,23,13,Improv_Metronome,38,5,42,127,2481861004
120,23,13,Improv_Metronome,39,1,48,71,2482086108
120,23,13,Improv_Metronome,40,1,38,103,2482353132
120,23,13,Improv_Metronome,41,5,42,127,2482360800
120,23,13,Improv_Metronome,42,1,48,61,2482610064
120,23,13,Improv_Metronome,43,1,48,58,2482842460
120,23,13,Improv_Metronome,44,5,42,127,2482861420
120,23,13,Improv_Metronome,45,1,48,51,2483056404
120,23,13,Improv_Metronome,46,1,38,86,2483340864
120,23,13,Improv_Metronome,47,1,48,70,2483344132
120,23,13,Improv_Metronome,48,5,42,127,2483361148
120,23,13,Improv_Metronome,49,1,48,48,2483554684
120,23,13,Improv_Metronome,50,1,48,62,2483816400
120,23,13,Improv_Metronome,51,5,42,127,2483860792
120,23,13,Improv_Metronome,52,1,48,62,2484022716
120,23,13,Improv_Metronome,53,1,48,81,2484307548
120,23,13,Improv_Metronome,54,1,38,77,2484327576
120,23,13,Improv_Metronome,55,5,42,127,2484360592
120,23,13,Improv_Metronome,56,1,48,53,2484519436
120,23,13,Improv_Metronome,57,1,48,73,2484800080
120,23,13,Improv_Metronome,58,5,42,127,2484861224
120,23,13,Improv_Metronome,59,1,48,70,2485006992
120,23,13,Improv_Metronome,60,1,48,75,2485289876
120,23,13,Improv_Metronome,61,1,38,81,2485321876
120,23,13,Improv_Metronome,62,5,42,127,2485361028
120,23,13,Improv_Metronome,63,1,48,48,2485510732
120,23,13,Improv_Metronome,64,1,48,71,2485761004
120,23,13,Improv_Metronome,65,5,42,127,2485860804
120,23,13,Improv_Metronome,66,1,48,69,2486000084
120,23,13,Improv_Metronome,67,1,48,93,2486273176
120,23,13,Improv_Metronome,68,1,38,82,2486302248
120,23,13,Improv_Metronome,69,5,42,127,2486360700
120,23,13,Improv_Metronome,70,1,48,70,2486488564
120,23,13,Improv_Metronome,71,1,48,71,2486755744
120,23,13,Improv_Metronome,72,5,42,127,2486861152
120,23,13,Improv_Metronome,73,1,48,69,2486971180
120,23,13,Improv_Metronome,74,1,48,88,2487251080
120,23,13,Improv_Metronome,75,1,38,82,2487282472
120,23,13,Improv_Metronome,76,5,42,127,2487360808
120,23,13,Improv_Metronome,77,1,48,51,2487480068
120,23,13,Improv_Metronome,78,1,48,69,2487730644
120,23,13,Improv_Metronome,79,5,42,127,2487860760
120,23,13,Improv_Metronome,80,1,48,67,2487960896
120,23,13,Improv_Metronome,81,1,48,79,2488226204
120,23,13,Improv_Metronome,82,1,38,97,2488248024
120,23,13,Improv_Metronome,83,5,42,127,2488361432
120,23,13,Improv_Metronome,84,1,48,64,2488458352
120,23,13,Improv_Metronome,85,1,48,77,2488707280
120,23,13,Improv_Metronome,86,5,42,127,2488861032
120,23,13,Improv_Metronome,87,1,48,66,2488926004
120,23,13,Improv_Metronome,88,1,48,89,2489199844
120,23,13,Improv_Metronome,89,1,38,86,2489221220
120,23,13,Improv_Metronome,90,5,42,127,2489360732
120,23,13,Improv_Metronome,91,1,48,59,2489432364
120,23,13,Improv_Metronome,92,1,48,82,2489704400
120,23,13,Improv_Metronome,93,5,42,127,2489860624
120,23,13,Improv_Metronome,94,1,48,74,2489920216
120,23,13,Improv_Metronome,95,1,48,76,2490197720
120,23,13,Improv_Metronome,96,1,38,86,2490221336
120,23,13,Improv_Metronome,97,5,42,127,2490361160
120,23,13,Improv_Metronome,98,1,48,59,2490429880
120,23,13,Improv_Metronome,99,1,48,88,2490687260
120,23,13,Improv_Metronome,100,5,42,127,2490860760
120,23,13,Improv_Metronome,101,1,48,78,2490902172
120,23,13,Improv_Metronome,102,1,48,83,2491178628
120,23,13,Improv_Metronome,103,1,38,103,2491186012
120,23,13,Improv_Metronome,104,5,42,127,2491360760
120,23,13,Improv_Metronome,105,1,48,79,2491709544
120,23,13,Improv_Metronome,106,5,42,127,2491861500
120,23,13,Improv_Metronome,107,1,38,76,2492176928
120,23,13,Improv_Metronome,108,5,42,127,2492361120
120,23,13,Improv_Metronome,109,1,48,68,2492680956
120,23,13,Improv_Metronome,110,5,42,127,2492860964
120,23,13,Improv_Metronome,111,1,48,73,2492902376
120,23,13,Improv_Metronome,112,1,38,81,2493161332
120,23,13,Improv_Metronome,113,5,42,127,2493360688
120,23,13,Improv_Metronome,114,1,48,92,2493664472
120,23,13,Improv_Metronome,115,5,42,127,2493861132
120,23,13,Improv_Metronome,116,1,38,94,2494167976
120,23,13,Improv_Metronome,117,5,42,127,2494360900
120,23,13,Improv_Metronome,118,1,48,78,2494629204
120,23,13,Improv_Metronome,119,1,48,57,2494859388
120,23,13,Improv_Metronome,120,5,42,127,2494860960
120,23,13,Improv_Metronome,121,1,38,86,2495117736
120,23,13,Improv_Metronome,122,5,42,127,2495361392
120,23,13,Improv_Metronome,123,1,48,71,2495627076
120,23,13,Improv_Metronome,124,1,48,70,2495856860
120,23,13,Improv_Metronome,125,5,42,127,2495861080
120,23,13,Improv_Metronome,126,1,38,95,2496098248
120,23,13,Improv_Metronome,127,1,48,84,2496337380
120,23,13,Improv_Metronome,128,5,42,127,2496360900
120,23,13,Improv_Metronome,129,1,38,77,2496537260
120,23,13,Improv_Metronome,130,1,48,92,2496783796
120,23,13,Improv_Metronome,131,5,42,127,2496860720
120,23,13,Improv_Metronome,132,1,38,89,2497034392
120,23,13,Improv_Metronome,133,1,48,94,2497259760
120,23,13,Improv_Metronome,134,5,42,127,2497361128
120,23,13,Improv_Metronome,135,1,38,108,2497534212
120,23,13,Improv_Metronome,136,1,48,92,2497542420
120,23,13,Improv_Metronome,137,5,42,127,2497860848
120,23,13,Improv_Metronome,138,1,48,100,2498040736
120,23,13,Improv_Metronome,139,5,42,127,2498360620
120,23,13,Improv_Metronome,140,1,48,80,2498540736
120,23,13,Improv_Metronome,141,1,38,81,2498548568
120,23,13,Improv_Metronome,142,5,42,127,2498861460
120,23,13,Improv_Metronome,143,1,48,65,2499077336
120,23,13,Improv_Metronome,144,1,48,61,2499307112
120,23,13,Improv_Metronome,145,5,42,127,2499361000
120,23,13,Improv_Metronome,146,1,38,94,2499547608
120,23,13,Improv_Metronome,147,1,48,108,2499797140
120,23,13,Improv_Metronome,148,5,42,127,2499860748
120,23,13,Improv_Metronome,149,1,48,65,2500044512
120,23,13,Improv_Metronome,150,5,42,127,2500360724
120,23,13,Improv_Metronome,151,1,38,81,2500534384
120,23,13,Improv_Metronome,152,1,48,71,2500536908
120,23,13,Improv_Metronome,153,5,42,127,2500861420
120,23,13,Improv_Metronome,154,1,48,81,2501092096
120,23,13,Improv_Metronome,155,1,48,70,2501316416
120,23,13,Improv_Metronome,156,5,42,127,2501360960
120,23,13,Improv_Metronome,157,1,38,87,2501558316
120,23,13,Improv_Metronome,158,1,48,88,2501784428
120,23,13,Improv_Metronome,159,5,42,127,2501860708
120,23,13,Improv_Metronome,160,1,48,89,2502059036
120,23,13,Improv_Metronome,161,5,42,127,2502360460
120,23,13,Improv_Metronome,162,1,48,119,2502536664
120,23,13,Improv_Metronome,163,1,38,80,2502547260
120,23,13,Improv_Metronome,164,5,42,127,2502861376
120,23,13,Improv_Metronome,165,1,48,82,2503047604
120,23,13,Improv_Metronome,166,1,48,65,2503283512
120,23,13,Improv_Metronome,167,5,42,127,2503360768
120,23,13,Improv_Metronome,168,1,38,98,2503523488
120,23,13,Improv_Metronome,169,1,48,73,2503760300
120,23,13,Improv_Metronome,170,5,42,127,2503860548
120,23,13,Improv_Metronome,171,1,48,75,2504016352
120,23,13,Improv_Metronome,172,5,42,127,2504361288
120,23,13,Improv_Metronome,173,1,38,92,2504479544
120,23,13,Improv_Metronome,174,1,48,119,2504490524
120,23,13,Improv_Metronome,175,5,42,127,2504861160
120,23,13,Improv_Metronome,176,1,48,72,2505012408
120,23,13,Improv_Metronome,177,1,48,79,2505238600
120,23,13,Improv_Metronome,178,5,42,127,2505360836
120,23,13,Improv_Metronome,179,1,48,89,2505532196
120,23,13,Improv_Metronome,180,1,38,87,2505537116
120,23,13,Improv_Metronome,181,5,42,127,2505860332
120,23,13,Improv_Metronome,182,1,48,85,2505984572
120,23,13,Improv_Metronome,183,1,48,82,2506212560
120,23,13,Improv_Metronome,184,5,42,127,2506361128
120,23,13,Improv_Metronome,185,1,48,102,2506508484
120,23,13,Improv_Metronome,186,1,38,104,2506515116
120,23,13,Improv_Metronome,187,5,42,127,2506860924
120,23,13,Improv_Metronome,188,1,48,90,2506993320
120,23,13,Improv_Metronome,189,1,48,76,2507216220
120,23,13,Improv_Metronome,190,5,42,127,2507360524
120,23,13,Improv_Metronome,191,1,48,118,2507498532
120,23,13,Improv_Metronome,192,1,38,127,2507504488
120,23,13,Improv_Metronome,193,1,48,84,2507707240
120,23,13,Improv_Metronome,194,5,42,127,2507861496
120,23,13,Improv_Metronome,195,1,38,97,2507976684
120,23,13,Improv_Metronome,196,1,48,127,2508205916
120,23,13,Improv_Metronome,197,5,42,127,2508361020
120,23,13,Improv_Metronome,198,1,48,85,2508464816
120,23,13,Improv_Metronome,199,1,48,100,2508692952
120,23,13,Improv_Metronome,200,5,42,127,2508860692
120,23,13,Improv_Metronome,201,1,48,127,2508973984
120,23,13,Improv_Metronome,202,1,38,127,2508983988
120,23,13,Improv_Metronome,203,5,42,127,2509360488
120,23,13,Improv_Metronome,204,1,48,92,2509452240
120,23,13,Improv_Metronome,205,5,42,127,2509861228
120,23,13,Improv_Metronome,206,1,38,97,2509956048
120,23,13,Improv_Metronome,207,1,48,86,2509959176
120,23,13,Improv_Metronome,208,5,42,127,2510360876
120,23,13,Improv_Metronome,209,1,48,89,2510474844
120,23,13,Improv_Metronome,210,1,48,70,2510692360
120,23,13,Improv_Metronome,211,5,42,127,2510860548
120,23,13,Improv_Metronome,212,1,38,80,2510969504
120,23,13,Improv_Metronome,213,1,48,62,2510972700
120,23,13,Improv_Metronome,214,5,42,127,2511361464
120,23,13,Improv_Metronome,215,1,48,76,2511488524
120,23,13,Improv_Metronome,216,5,42,127,2511861384
120,23,13,Improv_Metronome,217,1,38,74,2511969524
120,23,13,Improv_Metronome,218,1,48,79,2511987676
120,23,13,Improv_Metronome,219,5,42,127,2512360880
120,23,13,Improv_Metronome,220,1,48,71,2512480908
120,23,13,Improv_Metronome,221,1,48,81,2512700524
120,23,13,Improv_Metronome,222,5,42,127,2512860408
120,23,13,Improv_Metronome,223,1,38,94,2512971532
120,23,13,Improv_Metronome,224,1,48,107,2513000984
120,23,13,Improv_Metronome,225,5,42,127,2513361560
120,23,13,Improv_Metronome,226,1,48,100,2513435744
120,23,13,Improv_Metronome,227,5,42,127,2513861404
120,23,13,Improv_Metronome,228,1,38,80,2513921892
120,23,13,Improv_Metronome,229,1,48,88,2513932872
120,23,13,Improv_Metronome,230,5,42,127,2514360804
120,23,13,Improv_Metronome,231,1,48,68,2514387808
120,23,13,Improv_Metronome,232,1,48,60,2514624172
120,23,13,Improv_Metronome,233,5,42,127,2514861376
120,23,13,Improv_Metronome,234,1,48,70,2514896308
120,23,13,Improv_Metronome,235,1,38,86,2514901748
120,23,13,Improv_Metronome,236,5,42,127,2515361396
120,23,13,Improv_Metronome,237,1,48,105,2515394612
120,23,13,Improv_Metronome,238,1,48,83,2515626608
120,23,13,Improv_Metronome,239,5,42,127,2515860700
120,23,13,Improv_Metronome,240,1,38,97,2515879300
120,23,13,Improv_Metronome,241,1,48,95,2516138624
120,23,13,Improv_Metronome,242,5,42,127,2516360592
120,23,13,Improv_Metronome,243,1,48,76,2516400512
120,23,13,Improv_Metronome,244,1,48,73,2516623488
120,23,13,Improv_Metronome,245,5,42,127,2516861312
120,23,13,Improv_Metronome,246,1,38,78,2516869296
120,23,13,Improv_Metronome,247,1,48,100,2517119940
120,23,13,Improv_Metronome,248,5,42,127,2517361280
120,23,13,Improv_Metronome,249,1,48,71,2517369564
120,23,13,Improv_Metronome,250,1,38,89,2517574584
120,23,13,Improv_Metronome,251,1,48,97,2517827708
120,23,13,Improv_Metronome,252,5,42,127,2517860796
120,23,13,Improv_Metronome,253,1,38,87,2518045760
120,23,13,Improv_Metronome,254,1,48,97,2518284140
120,23,13,Improv_Metronome,255,5,42,127,2518360324
120,23,13,Improv_Metronome,256,1,38,101,2518501972
120,23,13,Improv_Metronome,257,1,48,124,2518734372
120,23,13,Improv_Metronome,258,5,42,127,2518861324
120,23,13,Improv_Metronome,259,1,48,101,2519230632
120,23,13,Improv_Metronome,260,1,38,87,2519244000
120,23,13,Improv_Metronome,261,5,42,127,2519360748
120,23,13,Improv_Metronome,262,1,48,93,2519730552
120,23,13,Improv_Metronome,263,5,42,127,2519860444
120,23,13,Improv_Metronome,264,1,38,86,2520230172
120,23,13,Improv_Metronome,265,1,48,84,2520233440
120,23,13,Improv_Metronome,266,5,42,127,2520361436
120,23,13,Improv_Metronome,267,1,48,107,2520697432
120,23,13,Improv_Metronome,268,5,42,127,2520861352
120,23,13,Improv_Metronome,269,1,48,97,2521200792
120,23,13,Improv_Metronome,270,1,38,74,2521203312
120,23,13,Improv_Metronome,271,5,42,127,2521360704
120,23,13,Improv_Metronome,272,1,48,95,2521719360
120,23,13,Improv_Metronome,273,5,42,127,2521860396
120,23,13,Improv_Metronome,274,1,48,111,2522209704
120,23,13,Improv_Metronome,275,1,38,97,2522213048
120,23,13,Improv_Metronome,276,5,42,127,2522361164
120,23,13,Improv_Metronome,277,1,48,104,2522753852
120,23,13,Improv_Metronome,278,5,42,127,2522860784
120,23,13,Improv_Metronome,279,1,48,119,2523259984
120,23,13,Improv_Metronome,280,1,38,100,2523272604
120,23,13,Improv_Metronome,281,5,42,127,2523360832
120,23,13,Improv_Metronome,282,1,48,81,2523741544
120,23,13,Improv_Metronome,283,5,42,127,2523861336
120,23,13,Improv_Metronome,284,1,48,82,2524003276
120,23,13,Improv_Metronome,285,1,38,94,2524225132
120,23,13,Improv_Metronome,286,5,42,127,2524361232
120,23,13,Improv_Metronome,287,1,48,114,2524465632
120,23,13,Improv_Metronome,288,1,48,71,2524735128
120,23,13,Improv_Metronome,289,5,42,127,2524860760
120,23,13,Improv_Metronome,290,1,38,92,2524967696
120,23,13,Improv_Metronome,291,1,48,99,2525220664
120,23,13,Improv_Metronome,292,5,42,127,2525360408
120,23,13,Improv_Metronome,293,1,48,76,2525464004
120,23,13,Improv_Metronome,294,1,38,97,2525696032
120,23,13,Improv_Metronome,295,5,42,127,2525861352
120,23,13,Improv_Metronome,296,1,48,92,2525906380
120,23,13,Improv_Metronome,297,1,48,70,2526170044
120,23,13,Improv_Metronome,298,5,42,127,2526361100
120,23,13,Improv_Metronome,299,1,48,77,2526398276
120,23,13,Improv_Metronome,300,1,38,95,2526610904
120,23,13,Improv_Metronome,301,1,48,103,2526855348
120,23,13,Improv_Metronome,302,5,42,127,2526860616
120,23,13,Improv_Metronome,303,1,48,64,2527109976
120,23,13,Improv_Metronome,304,1,48,74,2527355540
120,23,13,Improv_Metronome,305,5,42,127,2527361484
120,23,13,Improv_Metronome,306,1,38,125,2527565000
120,23,13,Improv_Metronome,307,1,48,119,2527763816
120,23,13,Improv_Metronome,308,5,42,127,2527861820
120,23,13,Improv_Metronome,309,1,48,69,2528037444
120,23,13,Improv_Metronome,310,1,48,71,2528267600
120,23,13,Improv_Metronome,311,5,42,127,2528360756
120,23,13,Improv_Metronome,312,1,38,87,2528489320
120,23,13,Improv_Metronome,313,1,48,84,2528705640
120,23,13,Improv_Metronome,314,5,42,127,2528860416
120,23,13,Improv_Metronome,315,1,48,101,2528996320
120,23,13,Improv_Metronome,316,1,38,93,2529006928
120,23,13,Improv_Metronome,317,5,42,127,2529361188
120,23,13,Improv_Metronome,318,1,48,83,2529373356
120,23,13,Improv_Metronome,319,5,42,127,2529861080
120,23,13,Improv_Metronome,320,1,48,108,2529898756
120,23,13,Improv_Metronome,321,1,38,72,2529926188
120,23,13,Improv_Metronome,322,5,42,127,2530360652
120,23,13,Improv_Metronome,323,1,48,72,2530415156
120,23,13,Improv_Metronome,324,5,42,127,2530861392
120,23,13,Improv_Metronome,325,1,48,76,2530874836
120,23,13,Improv_Metronome,326,1,38,57,2530877356
120,23,13,Improv_Metronome,327,5,42,127,2531361264
120,23,13,Improv_Metronome,328,1,48,67,2531375380
120,23,13,Improv_Metronome,329,5,42,127,2531860960
120,23,13,Improv_Metronome,330,1,38,47,2531863708
120,23,13,Improv_Metronome,331,1,48,54,2531866904
120,23,13,Improv_Metronome,332,1,48,49,2532337904
120,23,13,Improv_Metronome,333,5,42,127,2532360748
120,23,13,Improv_Metronome,334,1,38,54,2532816056
120,23,13,Improv_Metronome,335,1,48,52,2532841764
120,23,13,Improv_Metronome,336,5,42,127,2532861172
120,23,13,Improv_Metronome,337,1,48,48,2533357816
120,23,13,Improv_Metronome,338,5,42,127,2533360988
120,23,13,Improv_Metronome,339,1,38,51,2533846140
120,23,13,Improv_Metronome,340,1,48,49,2533856740
120,23,13,Improv_Metronome,341,5,42,127,2533860736
120,23,13,Improv_Metronome,342,5,42,127,2534360484
120,23,13,Improv_Metronome,343,1,48,42,2534379612
120,23,13,Improv_Metronome,344,1,38,57,2534853856
120,23,13,Improv_Metronome,345,5,42,127,2534861144
120,23,13,Improv_Metronome,346,1,48,45,2534923576
120,23,13,Improv_Metronome,347,5,42,127,2535360960
120,23,13,Improv_Metronome,348,1,48,46,2535395644
120,23,13,Improv_Metronome,349,1,48,42,2535837856
120,23,13,Improv_Metronome,350,5,42,127,2535860700
120,23,13,Improv_Metronome,351,1,38,43,2535861664
120,23,13,Improv_Metronome,352,1,48,46,2536354932
120,23,13,Improv_Metronome,353,5,42,127,2536361248
120,23,13,Improv_Metronome,354,1,38,54,2536837724
120,23,13,Improv_Metronome,355,1,48,39,2536840992
120,23,13,Improv_Metronome,356,5,42,127,2536861148
120,23,13,Improv_Metronome,357,5,42,127,2537360824
120,23,13,Improv_Metronome,358,1,48,50,2537368660
120,23,13,Improv_Metronome,359,1,48,51,2537649968
120,23,13,Improv_Metronome,360,5,42,127,2537860420
120,23,13,Improv_Metronome,361,1,38,69,2537894804
120,23,13,Improv_Metronome,362,1,48,54,2538131168
120,23,13,Improv_Metronome,363,5,42,127,2538361064
120,23,13,Improv_Metronome,364,1,48,54,2538402032
120,23,13,Improv_Metronome,365,1,48,62,2538623660
120,23,13,Improv_Metronome,366,5,42,127,2538860964
120,23,13,Improv_Metronome,367,1,48,69,2538901404
120,23,13,Improv_Metronome,368,1,38,67,2538914176
120,23,13,Improv_Metronome,369,5,42,127,2539360832
120,23,13,Improv_Metronome,370,1,48,81,2539430820
120,23,13,Improv_Metronome,371,5,42,127,2539861352
120,23,13,Improv_Metronome,372,1,48,72,2539943232
120,23,13,Improv_Metronome,373,1,38,72,2539953756
120,23,13,Improv_Metronome,374,5,42,127,2540361072
120,23,13,Improv_Metronome,375,1,48,85,2540514784
120,23,13,Improv_Metronome,376,5,42,127,2540860768
120,23,13,Improv_Metronome,377,1,48,64,2541002884
120,23,13,Improv_Metronome,378,1,38,81,2541017972
120,23,13,Improv_Metronome,379,5,42,127,2541360712
120,23,13,Improv_Metronome,380,1,48,62,2541517268
120,23,13,Improv_Metronome,381,1,48,62,2541766344
120,23,13,Improv_Metronome,382,5,42,127,2541861224
120,23,13,Improv_Metronome,383,1,38,75,2542008640
120,23,13,Improv_Metronome,384,1,48,74,2542242060
120,23,13,Improv_Metronome,0,9999,9999,9999,2472358972
120,23,13,Improv_Metronome,1,9999,9999,9999,2472858688
120,23,13,Improv_Metronome,2,9999,9999,9999,2473358404
120,23,13,Improv_Metronome,3,9999,9999,9999,2473858120
120,23,13,Improv_Metronome,4,9999,9999,9999,2474358876
120,23,13,Improv_Metronome,5,9999,9999,9999,2474858576
120,23,13,Improv_Metronome,6,9999,9999,9999,2475358272
120,23,13,Improv_Metronome,7,9999,9999,9999,2475858992
120,23,13,Improv_Metronome,8,9999,9999,9999,2476358760
120,23,13,Improv_Metronome,9,9999,9999,9999,2476858456
120,23,13,Improv_Metronome,10,9999,9999,9999,2477358148
120,23,13,Improv_Metronome,11,9999,9999,9999,2477858892
120,23,13,Improv_Metronome,12,9999,9999,9999,2478358640
120,23,13,Improv_Metronome,13,9999,9999,9999,2478858332
120,23,13,Improv_Metronome,14,9999,9999,9999,2479359076
120,23,13,Improv_Metronome,15,9999,9999,9999,2479858772
120,23,13,Improv_Metronome,16,9999,9999,9999,2480358464
120,23,13,Improv_Metronome,17,9999,9999,9999,2480858212
120,23,13,Improv_Metronome,18,9999,9999,9999,2481358948
120,23,13,Improv_Metronome,19,9999,9999,9999,2481858644
120,23,13,Improv_Metronome,20,9999,9999,9999,2482358364
120,23,13,Improv_Metronome,21,9999,9999,9999,2482859060
120,23,13,Improv_Metronome,22,9999,9999,9999,2483358788
120,23,13,Improv_Metronome,23,9999,9999,9999,2483858508
120,23,13,Improv_Metronome,24,9999,9999,9999,2484358232
120,23,13,Improv_Metronome,25,9999,9999,9999,2484858936
120,23,13,Improv_Metronome,26,9999,9999,9999,2485358668
120,23,13,Improv_Metronome,27,9999,9999,9999,2485858372
120,23,13,Improv_Metronome,28,9999,9999,9999,2486358116
120,23,13,Improv_Metronome,29,9999,9999,9999,2486858864
120,23,13,Improv_Metronome,30,9999,9999,9999,2487358520
120,23,13,Improv_Metronome,31,9999,9999,9999,2487858252
120,23,13,Improv_Metronome,32,9999,9999,9999,2488358996
120,23,13,Improv_Metronome,33,9999,9999,9999,2488858744
120,23,13,Improv_Metronome,34,9999,9999,9999,2489358444
120,23,13,Improv_Metronome,35,9999,9999,9999,2489858116
120,23,13,Improv_Metronome,36,9999,9999,9999,2490358876
120,23,13,Improv_Metronome,37,9999,9999,9999,2490858548
120,23,13,Improv_Metronome,38,9999,9999,9999,2491358324
120,23,13,Improv_Metronome,39,9999,9999,9999,2491859064
120,23,13,Improv_Metronome,40,9999,9999,9999,2492358760
120,23,13,Improv_Metronome,41,9999,9999,9999,2492858456
120,23,13,Improv_Metronome,42,9999,9999,9999,2493358176
120,23,13,Improv_Metronome,43,9999,9999,9999,2493858920
120,23,13,Improv_Metronome,44,9999,9999,9999,2494358616
120,23,13,Improv_Metronome,45,9999,9999,9999,2494858308
120,23,13,Improv_Metronome,46,9999,9999,9999,2495359032
120,23,13,Improv_Metronome,47,9999,9999,9999,2495858792
120,23,13,Improv_Metronome,48,9999,9999,9999,2496358464
120,23,13,Improv_Metronome,49,9999,9999,9999,2496858212
120,23,13,Improv_Metronome,50,9999,9999,9999,2497358916
120,23,13,Improv_Metronome,51,9999,9999,9999,2497858636
120,23,13,Improv_Metronome,52,9999,9999,9999,2498358332
120,23,13,Improv_Metronome,53,9999,9999,9999,2498859100
120,23,13,Improv_Metronome,54,9999,9999,9999,2499358788
120,23,13,Improv_Metronome,55,9999,9999,9999,2499858536
120,23,13,Improv_Metronome,56,9999,9999,9999,2500358216
120,23,13,Improv_Metronome,57,9999,9999,9999,2500858984
120,23,13,Improv_Metronome,58,9999,9999,9999,2501358672
120,23,13,Improv_Metronome,59,9999,9999,9999,2501858420
120,23,13,Improv_Metronome,60,9999,9999,9999,2502358100
120,23,13,Improv_Metronome,61,9999,9999,9999,2502858868
120,23,13,Improv_Metronome,62,9999,9999,9999,2503358556
120,23,13,Improv_Metronome,63,9999,9999,9999,2503858260
120,23,13,Improv_Metronome,64,9999,9999,9999,2504359004
120,23,13,Improv_Metronome,65,9999,9999,9999,2504858728
120,23,13,Improv_Metronome,66,9999,9999,9999,2505358400
120,23,13,Improv_Metronome,67,9999,9999,9999,2505858120
120,23,13,Improv_Metronome,68,9999,9999,9999,2506358840
120,23,13,Improv_Metronome,69,9999,9999,9999,2506858564
120,23,13,Improv_Metronome,70,9999,9999,9999,2507358312
120,23,13,Improv_Metronome,71,9999,9999,9999,2507859060
120,23,13,Improv_Metronome,72,9999,9999,9999,2508358732
120,23,13,Improv_Metronome,73,9999,9999,9999,2508858480
120,23,13,Improv_Metronome,74,9999,9999,9999,2509358128
120,23,13,Improv_Metronome,75,9999,9999,9999,2509858868
120,23,13,Improv_Metronome,76,9999,9999,9999,2510358592
120,23,13,Improv_Metronome,77,9999,9999,9999,2510858336
120,23,13,Improv_Metronome,78,9999,9999,9999,2511359028
120,23,13,Improv_Metronome,79,9999,9999,9999,2511858800
120,23,13,Improv_Metronome,80,9999,9999,9999,2512358520
120,23,13,Improv_Metronome,81,9999,9999,9999,2512858196
120,23,13,Improv_Metronome,82,9999,9999,9999,2513358904
120,23,13,Improv_Metronome,83,9999,9999,9999,2513858672
120,23,13,Improv_Metronome,84,9999,9999,9999,2514358368
120,23,13,Improv_Metronome,85,9999,9999,9999,2514859088
120,23,13,Improv_Metronome,86,9999,9999,9999,2515358812
120,23,13,Improv_Metronome,87,9999,9999,9999,2515858488
120,23,13,Improv_Metronome,88,9999,9999,9999,2516358232
120,23,13,Improv_Metronome,89,9999,9999,9999,2516858952
120,23,13,Improv_Metronome,90,9999,9999,9999,2517358696
120,23,13,Improv_Metronome,91,9999,9999,9999,2517858364
120,23,13,Improv_Metronome,92,9999,9999,9999,2518358112
120,23,13,Improv_Metronome,93,9999,9999,9999,2518858812
120,23,13,Improv_Metronome,94,9999,9999,9999,2519358536
120,23,13,Improv_Metronome,95,9999,9999,9999,2519858232
120,23,13,Improv_Metronome,96,9999,9999,9999,2520359000
120,23,13,Improv_Metronome,97,9999,9999,9999,2520858696
120,23,13,Improv_Metronome,98,9999,9999,9999,2521358416
120,23,13,Improv_Metronome,99,9999,9999,9999,2521858112
120,23,13,Improv_Metronome,100,9999,9999,9999,2522358880
120,23,13,Improv_Metronome,101,9999,9999,9999,2522858572
120,23,13,Improv_Metronome,102,9999,9999,9999,2523358324
120,23,13,Improv_Metronome,103,9999,9999,9999,2523859048
120,23,13,Improv_Metronome,104,9999,9999,9999,2524358724
120,23,13,Improv_Metronome,105,9999,9999,9999,2524858472
120,23,13,Improv_Metronome,106,9999,9999,9999,2525358196
120,23,13,Improv_Metronome,107,9999,9999,9999,2525858916
120,23,13,Improv_Metronome,108,9999,9999,9999,2526358588
120,23,13,Improv_Metronome,109,9999,9999,9999,2526858328
120,23,13,Improv_Metronome,110,9999,9999,9999,2527359052
120,23,13,Improv_Metronome,111,9999,9999,9999,2527858796
120,23,13,Improv_Metronome,112,9999,9999,9999,2528358472
120,23,13,Improv_Metronome,113,9999,9999,9999,2528858204
120,23,13,Improv_Metronome,114,9999,9999,9999,2529358900
120,23,13,Improv_Metronome,115,9999,9999,9999,2529858644
120,23,13,Improv_Metronome,116,9999,9999,9999,2530358364
120,23,13,Improv_Metronome,117,9999,9999,9999,2530859104
120,23,13,Improv_Metronome,118,9999,9999,9999,2531358828
120,23,13,Improv_Metronome,119,9999,9999,9999,2531858524
120,23,13,Improv_Metronome,120,9999,9999,9999,2532358240
120,23,13,Improv_Metronome,121,9999,9999,9999,2532858960
120,23,13,Improv_Metronome,122,9999,9999,9999,2533358700
120,23,13,Improv_Metronome,123,9999,9999,9999,2533858376
120,23,13,Improv_Metronome,124,9999,9999,9999,2534358124
120,23,13,Improv_Metronome,125,9999,9999,9999,2534858856
120,23,13,Improv_Metronome,126,9999,9999,9999,2535358524
120,23,13,Improv_Metronome,127,9999,9999,9999,2535858264
120,23,13,Improv_Metronome,128,9999,9999,9999,2536358964
120,23,13,Improv_Metronome,129,9999,9999,9999,2536858712
120,23,13,Improv_Metronome,130,9999,9999,9999,2537358388
120,23,13,Improv_Metronome,131,9999,9999,9999,2537858132
120,23,13,Improv_Metronome,132,9999,9999,9999,2538358852
120,23,13,Improv_Metronome,133,9999,9999,9999,2538858600
120,23,13,Improv_Metronome,134,9999,9999,9999,2539358324
120,23,13,Improv_Metronome,135,9999,9999,9999,2539859064
120,23,13,Improv_Metronome,136,9999,9999,9999,2540358712
120,23,13,Improv_Metronome,137,9999,9999,9999,2540858480
120,23,13,Improv_Metronome,138,9999,9999,9999,2541358200
120,23,13,Improv_Metronome,139,9999,9999,9999,2541858936
120,24,14,Improv_Melody,0,2,48,80,2608588888
120,24,14,Improv_Melody,1,2,72,80,2608591932
120,24,14,Improv_Melody,2,5,42,127,2608593268
120,24,14,Improv_Melody,3,5,42,110,2609085808
120,24,14,Improv_Melody,4,5,42,110,2609585728
120,24,14,Improv_Melody,5,5,42,110,2610086124
120,24,14,Improv_Melody,6,5,42,127,2610585920
120,24,14,Improv_Melody,7,5,42,110,2611085792
120,24,14,Improv_Melody,8,5,42,110,2611586560
120,24,14,Improv_Melody,9,5,42,110,2612086056
120,24,14,Improv_Melody,10,2,43,80,2612588436
120,24,14,Improv_Melody,11,2,67,80,2612590508
120,24,14,Improv_Melody,12,5,42,127,2612592900
120,24,14,Improv_Melody,13,5,42,110,2613085884
120,24,14,Improv_Melody,14,5,42,110,2613586428
120,24,14,Improv_Melody,15,5,42,110,2614085852
120,24,14,Improv_Melody,16,5,42,127,2614585648
120,24,14,Improv_Melody,17,5,42,110,2615085668
120,24,14,Improv_Melody,18,5,42,110,2615586140
120,24,14,Improv_Melody,19,5,42,110,2616085860
120,24,14,Improv_Melody,20,2,45,80,2616588320
120,24,14,Improv_Melody,21,2,69,80,2616590312
120,24,14,Improv_Melody,22,5,42,127,2616592928
120,24,14,Improv_Melody,23,1,38,95,2616611528
120,24,14,Improv_Melody,24,1,48,77,2616614652
120,24,14,Improv_Melody,25,1,38,125,2616821516
120,24,14,Improv_Melody,26,1,48,89,2616828528
120,24,14,Improv_Melody,27,5,42,110,2617086452
120,24,14,Improv_Melody,28,5,42,110,2617586096
120,24,14,Improv_Melody,29,5,42,110,2618085672
120,24,14,Improv_Melody,30,5,42,127,2618585544
120,24,14,Improv_Melody,31,5,42,110,2619086164
120,24,14,Improv_Melody,32,5,42,110,2619585956
120,24,14,Improv_Melody,33,5,42,110,2620085608
120,24,14,Improv_Melody,34,2,41,80,2620588932
120,24,14,Improv_Melody,35,2,65,80,2620591080
120,24,14,Improv_Melody,36,5,42,127,2620593692
120,24,14,Improv_Melody,37,1,38,105,2620641040
120,24,14,Improv_Melody,38,1,48,86,2620651572
120,24,14,Improv_Melody,39,1,38,117,2620852380
120,24,14,Improv_Melody,40,1,48,84,2620855576
120,24,14,Improv_Melody,41,5,42,110,2621086024
120,24,14,Improv_Melody,42,5,42,110,2621585896
120,24,14,Improv_Melody,43,5,42,110,2622085616
120,24,14,Improv_Melody,44,5,42,127,2622586384
120,24,14,Improv_Melody,45,5,42,110,2623085960
120,24,14,Improv_Melody,46,5,42,110,2623585680
120,24,14,Improv_Melody,47,5,42,110,2624086452
120,24,14,Improv_Melody,48,2,48,80,2624588604
120,24,14,Improv_Melody,49,2,72,80,2624590752
120,24,14,Improv_Melody,50,5,42,127,2624593288
120,24,14,Improv_Melody,51,1,38,67,2624635228
120,24,14,Improv_Melody,52,1,48,69,2624649192
120,24,14,Improv_Melody,53,5,42,110,2625085760
120,24,14,Improv_Melody,54,1,48,60,2625149612
120,24,14,Improv_Melody,55,5,42,110,2625585460
120,24,14,Improv_Melody,56,1,38,86,2625637344
120,24,14,Improv_Melody,57,1,48,60,2625653936
120,24,14,Improv_Melody,58,5,42,110,2626086456
120,24,14,Improv_Melody,59,1,48,65,2626111044
120,24,14,Improv_Melody,60,5,42,127,2626586008
120,24,14,Improv_Melody,61,1,38,70,2626603564
120,24,14,Improv_Melody,62,1,48,50,2626615364
120,24,14,Improv_Melody,63,5,42,110,2627085808
120,24,14,Improv_Melody,64,1,48,60,2627126248
120,24,14,Improv_Melody,65,5,42,110,2627586632
120,24,14,Improv_Melody,66,1,38,64,2627624304
120,24,14,Improv_Melody,67,1,48,54,2627630940
120,24,14,Improv_Melody,68,5,42,110,2628086056
120,24,14,Improv_Melody,69,1,48,62,2628145572
120,24,14,Improv_Melody,70,2,43,80,2628588412
120,24,14,Improv_Melody,71,2,67,80,2628590340
120,24,14,Improv_Melody,72,5,42,127,2628592952
120,24,14,Improv_Melody,73,1,38,82,2628644916
120,24,14,Improv_Melody,74,1,48,58,2628648188
120,24,14,Improv_Melody,75,1,48,66,2628864028
120,24,14,Improv_Melody,76,1,38,83,2628873804
120,24,14,Improv_Melody,77,5,42,110,2629085504
120,24,14,Improv_Melody,78,1,48,73,2629132528
120,24,14,Improv_Melody,79,5,42,110,2629586472
120,24,14,Improv_Melody,80,1,38,76,2629595576
120,24,14,Improv_Melody,81,1,48,59,2629598100
120,24,14,Improv_Melody,82,5,42,110,2630085976
120,24,14,Improv_Melody,83,1,48,68,2630102112
120,24,14,Improv_Melody,84,5,42,127,2630585824
120,24,14,Improv_Melody,85,1,38,70,2630607272
120,24,14,Improv_Melody,86,1,48,61,2630611812
120,24,14,Improv_Melody,87,5,42,110,2631085452
120,24,14,Improv_Melody,88,1,48,66,2631115744
120,24,14,Improv_Melody,89,5,42,110,2631586348
120,24,14,Improv_Melody,90,1,48,56,2631602332
120,24,14,Improv_Melody,91,1,38,63,2631605188
120,24,14,Improv_Melody,92,1,48,63,2632071236
120,24,14,Improv_Melody,93,5,42,110,2632086080
120,24,14,Improv_Melody,94,2,45,80,2632588144
120,24,14,Improv_Melody,95,2,69,80,2632590220
120,24,14,Improv_Melody,96,5,42,127,2632593056
120,24,14,Improv_Melody,97,1,48,74,2632608368
120,24,14,Improv_Melody,98,1,38,102,2632614036
120,24,14,Improv_Melody,99,1,48,65,2632810728
120,24,14,Improv_Melody,100,1,38,108,2633083140
120,24,14,Improv_Melody,101,5,42,110,2633086472
120,24,14,Improv_Melody,102,1,48,82,2633300456
120,24,14,Improv_Melody,103,1,48,77,2633552600
120,24,14,Improv_Melody,104,5,42,110,2633586224
120,24,14,Improv_Melody,105,1,38,85,2634038164
120,24,14,Improv_Melody,106,1,48,71,2634044204
120,24,14,Improv_Melody,107,5,42,110,2634085680
120,24,14,Improv_Melody,108,1,48,74,2634542604
120,24,14,Improv_Melody,109,5,42,127,2634585428
120,24,14,Improv_Melody,110,1,48,67,2635040656
120,24,14,Improv_Melody,111,1,38,81,2635055896
120,24,14,Improv_Melody,112,5,42,110,2635086376
120,24,14,Improv_Melody,113,1,48,66,2635545396
120,24,14,Improv_Melody,114,5,42,110,2635585828
120,24,14,Improv_Melody,115,1,48,74,2636049516
120,24,14,Improv_Melody,116,1,38,73,2636052856
120,24,14,Improv_Melody,117,5,42,110,2636085584
120,24,14,Improv_Melody,118,1,48,68,2636548716
120,24,14,Improv_Melody,119,2,41,80,2636589112
120,24,14,Improv_Melody,120,2,65,80,2636591260
120,24,14,Improv_Melody,121,5,42,127,2636593500
120,24,14,Improv_Melody,122,1,48,48,2636804564
120,24,14,Improv_Melody,123,1,48,70,2637061200
120,24,14,Improv_Melody,124,1,38,84,2637085000
120,24,14,Improv_Melody,125,5,42,110,2637087848
120,24,14,Improv_Melody,126,1,48,65,2637554720
120,24,14,Improv_Melody,127,5,42,110,2637585724
120,24,14,Improv_Melody,128,1,48,57,2638030480
120,24,14,Improv_Melody,129,1,38,72,2638052976
120,24,14,Improv_Melody,130,5,42,110,2638085404
120,24,14,Improv_Melody,131,1,48,56,2638563792
120,24,14,Improv_Melody,132,5,42,127,2638586344
120,24,14,Improv_Melody,133,1,38,58,2639060056
120,24,14,Improv_Melody,134,1,48,62,2639065420
120,24,14,Improv_Melody,135,5,42,110,2639086172
120,24,14,Improv_Melody,136,1,48,56,2639548488
120,24,14,Improv_Melody,137,5,42,110,2639585844
120,24,14,Improv_Melody,138,1,38,66,2640062392
120,24,14,Improv_Melody,139,1,48,56,2640066640
120,24,14,Improv_Melody,140,5,42,110,2640086280
120,24,14,Improv_Melody,141,1,48,54,2640575516
120,24,14,Improv_Melody,142,2,48,80,2640589056
120,24,14,Improv_Melody,143,2,72,80,2640591056
120,24,14,Improv_Melody,144,5,42,127,2640593664
120,24,14,Improv_Melody,145,1,48,53,2640812264
120,24,14,Improv_Melody,146,1,48,60,2641076924
120,24,14,Improv_Melody,147,1,38,76,2641082360
120,24,14,Improv_Melody,148,5,42,110,2641085768
120,24,14,Improv_Melody,149,1,48,48,2641297080
120,24,14,Improv_Melody,150,1,48,53,2641548252
120,24,14,Improv_Melody,151,5,42,110,2641585396
120,24,14,Improv_Melody,152,1,48,56,2641769456
120,24,14,Improv_Melody,153,1,38,93,2642060948
120,24,14,Improv_Melody,154,5,42,110,2642086192
120,24,14,Improv_Melody,155,1,48,68,2642524144
120,24,14,Improv_Melody,156,5,42,127,2642586044
120,24,14,Improv_Melody,157,1,38,75,2643053840
120,24,14,Improv_Melody,158,1,48,61,2643061828
120,24,14,Improv_Melody,159,5,42,110,2643085572
120,24,14,Improv_Melody,160,1,48,67,2643578104
120,24,14,Improv_Melody,161,5,42,110,2643586368
120,24,14,Improv_Melody,162,1,48,62,2644047884
120,24,14,Improv_Melody,163,1,38,70,2644055640
120,24,14,Improv_Melody,164,5,42,110,2644086120
120,24,14,Improv_Melody,165,1,48,69,2644585376
120,24,14,Improv_Melody,166,2,43,80,2644589496
120,24,14,Improv_Melody,167,2,67,80,2644591420
120,24,14,Improv_Melody,168,5,42,127,2644594036
120,24,14,Improv_Melody,169,1,48,47,2644809588
120,24,14,Improv_Melody,170,1,38,84,2645070560
120,24,14,Improv_Melody,171,5,42,110,2645085560
120,24,14,Improv_Melody,172,1,48,67,2645574948
120,24,14,Improv_Melody,173,5,42,110,2645586204
120,24,14,Improv_Melody,174,1,48,67,2646074500
120,24,14,Improv_Melody,175,1,38,78,2646077768
120,24,14,Improv_Melody,176,5,42,110,2646086108
120,24,14,Improv_Melody,177,1,48,73,2646553956
120,24,14,Improv_Melody,178,5,42,127,2646585632
120,24,14,Improv_Melody,179,1,38,76,2647045132
120,24,14,Improv_Melody,180,1,48,69,2647061412
120,24,14,Improv_Melody,181,5,42,110,2647085392
120,24,14,Improv_Melody,182,1,48,63,2647555028
120,24,14,Improv_Melody,183,5,42,110,2647586036
120,24,14,Improv_Melody,184,1,48,57,2648074332
120,24,14,Improv_Melody,185,1,38,70,2648077528
120,24,14,Improv_Melody,186,5,42,110,2648085940
120,24,14,Improv_Melody,187,2,45,80,2648588200
120,24,14,Improv_Melody,188,2,69,80,2648590356
120,24,14,Improv_Melody,189,5,42,127,2648592960
120,24,14,Improv_Melody,190,1,48,57,2648600492
120,24,14,Improv_Melody,191,1,48,55,2648837080
120,24,14,Improv_Melody,192,1,38,78,2649071952
120,24,14,Improv_Melody,193,5,42,110,2649086200
120,24,14,Improv_Melody,194,1,48,68,2649317164
120,24,14,Improv_Melody,195,1,48,70,2649581204
120,24,14,Improv_Melody,196,5,42,110,2649586104
120,24,14,Improv_Melody,197,1,48,79,2650071776
120,24,14,Improv_Melody,198,1,38,87,2650079088
120,24,14,Improv_Melody,199,5,42,110,2650085860
120,24,14,Improv_Melody,200,5,42,127,2650585388
120,24,14,Improv_Melody,201,1,48,74,2650598760
120,24,14,Improv_Melody,202,1,48,66,2651081676
120,24,14,Improv_Melody,203,5,42,110,2651086132
120,24,14,Improv_Melody,204,1,38,81,2651088872
120,24,14,Improv_Melody,205,1,48,64,2651575956
120,24,14,Improv_Melody,206,5,42,110,2651585868
120,24,14,Improv_Melody,207,1,38,86,2652076084
120,24,14,Improv_Melody,208,1,48,62,2652079204
120,24,14,Improv_Melody,209,5,42,110,2652085476
120,24,14,Improv_Melody,210,2,41,80,2652588980
120,24,14,Improv_Melody,211,2,65,80,2652591132
120,24,14,Improv_Melody,212,5,42,127,2652593816
120,24,14,Improv_Melody,213,1,48,60,2652594780
120,24,14,Improv_Melody,214,1,38,57,2652862772
120,24,14,Improv_Melody,215,5,42,110,2653085988
120,24,14,Improv_Melody,216,1,48,72,2653097932
120,24,14,Improv_Melody,217,5,42,110,2653585836
120,24,14,Improv_Melody,218,1,38,79,2653588960
120,24,14,Improv_Melody,219,1,48,83,2653592228
120,24,14,Improv_Melody,220,1,48,76,2654082304
120,24,14,Improv_Melody,221,5,42,110,2654085484
120,24,14,Improv_Melody,222,1,48,72,2654575268
120,24,14,Improv_Melody,223,1,38,80,2654582504
120,24,14,Improv_Melody,224,5,42,127,2654586212
120,24,14,Improv_Melody,225,1,48,54,2655071032
120,24,14,Improv_Melody,226,5,42,110,2655086032
120,24,14,Improv_Melody,227,1,38,65,2655571852
120,24,14,Improv_Melody,228,1,48,56,2655575056
120,24,14,Improv_Melody,229,5,42,110,2655585636
120,24,14,Improv_Melody,230,1,48,56,2656079904
120,24,14,Improv_Melody,231,5,42,110,2656086372
120,24,14,Improv_Melody,232,1,48,60,2656569804
120,24,14,Improv_Melody,233,1,38,69,2656576592
120,24,14,Improv_Melody,234,2,48,80,2656588632
120,24,14,Improv_Melody,235,2,72,80,2656590708
120,24,14,Improv_Melody,236,5,42,127,2656593172
120,24,14,Improv_Melody,237,1,48,62,2657060640
120,24,14,Improv_Melody,238,5,42,110,2657085812
120,24,14,Improv_Melody,239,1,48,55,2657313256
120,24,14,Improv_Melody,240,1,38,88,2657531816
120,24,14,Improv_Melody,241,5,42,110,2657585416
120,24,14,Improv_Melody,242,1,48,77,2658059196
120,24,14,Improv_Melody,243,5,42,110,2658086312
120,24,14,Improv_Melody,244,1,38,88,2658551564
120,24,14,Improv_Melody,245,5,42,127,2658585864
120,24,14,Improv_Melody,246,1,48,68,2659058148
120,24,14,Improv_Melody,247,5,42,110,2659085788
120,24,14,Improv_Melody,248,1,38,91,2659541988
120,24,14,Improv_Melody,249,5,42,110,2659586536
120,24,14,Improv_Melody,250,1,48,67,2660059864
120,24,14,Improv_Melody,251,5,42,110,2660086156
120,24,14,Improv_Melody,252,1,38,87,2660532564
120,24,14,Improv_Melody,253,2,43,80,2660588288
120,24,14,Improv_Melody,254,2,67,80,2660590440
120,24,14,Improv_Melody,255,5,42,127,2660593052
120,24,14,Improv_Melody,256,1,48,64,2661057336
120,24,14,Improv_Melody,257,5,42,110,2661085500
120,24,14,Improv_Melody,258,1,38,94,2661549308
120,24,14,Improv_Melody,259,1,48,61,2661556052
120,24,14,Improv_Melody,260,5,42,110,2661586388
120,24,14,Improv_Melody,261,1,48,55,2662053680
120,24,14,Improv_Melody,262,5,42,110,2662086132
120,24,14,Improv_Melody,263,1,38,91,2662530044
120,24,14,Improv_Melody,264,1,48,57,2662534364
120,24,14,Improv_Melody,265,5,42,127,2662585812
120,24,14,Improv_Melody,266,1,48,55,2663044804
120,24,14,Improv_Melody,267,5,42,110,2663085460
120,24,14,Improv_Melody,268,1,48,70,2663544956
120,24,14,Improv_Melody,269,1,38,89,2663549944
120,24,14,Improv_Melody,270,5,42,110,2663586040
120,24,14,Improv_Melody,271,1,48,62,2664056424
120,24,14,Improv_Melody,272,5,42,110,2664085860
120,24,14,Improv_Melody,273,1,48,73,2664553736
120,24,14,Improv_Melody,274,1,38,98,2664562840
120,24,14,Improv_Melody,275,2,45,80,2664588196
120,24,14,Improv_Melody,276,2,69,80,2664590424
120,24,14,Improv_Melody,277,5,42,127,2664593180
120,24,14,Improv_Melody,278,1,48,67,2665054968
120,24,14,Improv_Melody,279,5,42,110,2665086272
120,24,14,Improv_Melody,280,1,48,53,2665310200
120,24,14,Improv_Melody,281,1,38,94,2665566988
120,24,14,Improv_Melody,282,5,42,110,2665586100
120,24,14,Improv_Melody,283,1,48,67,2666073496
120,24,14,Improv_Melody,284,5,42,110,2666085652
120,24,14,Improv_Melody,285,1,48,58,2666277424
120,24,14,Improv_Melody,286,5,42,127,2666585564
120,24,14,Improv_Melody,287,1,38,100,2666601996
120,24,14,Improv_Melody,288,5,42,110,2667086236
120,24,14,Improv_Melody,289,1,48,67,2667088756
120,24,14,Improv_Melody,290,1,48,56,2667315472
120,24,14,Improv_Melody,291,1,38,98,2667580932
120,24,14,Improv_Melody,292,5,42,110,2667585832
120,24,14,Improv_Melody,293,1,48,68,2668084484
120,24,14,Improv_Melody,294,5,42,110,2668086056
120,24,14,Improv_Melody,295,1,48,64,2668561932
120,24,14,Improv_Melody,296,1,38,86,2668565728
120,24,14,Improv_Melody,297,2,41,80,2668588916
120,24,14,Improv_Melody,298,2,65,80,2668590844
120,24,14,Improv_Melody,299,5,42,127,2668593680
120,24,14,Improv_Melody,300,1,48,62,2669063916
120,24,14,Improv_Melody,301,5,42,110,2669085944
120,24,14,Improv_Melody,302,1,48,56,2669297688
120,24,14,Improv_Melody,303,1,38,81,2669559256
120,24,14,Improv_Melody,304,5,42,110,2669585772
120,24,14,Improv_Melody,305,1,48,69,2669774252
120,24,14,Improv_Melody,306,1,38,85,2670035224
120,24,14,Improv_Melody,307,5,42,110,2670085672
120,24,14,Improv_Melody,308,1,48,70,2670262860
120,24,14,Improv_Melody,309,1,38,74,2670527724
120,24,14,Improv_Melody,310,5,42,127,2670586176
120,24,14,Improv_Melody,311,1,48,84,2670744860
120,24,14,Improv_Melody,312,1,38,78,2670989380
120,24,14,Improv_Melody,313,5,42,110,2671085856
120,24,14,Improv_Melody,314,1,48,72,2671213944
120,24,14,Improv_Melody,315,1,38,86,2671482692
120,24,14,Improv_Melody,316,5,42,110,2671585812
120,24,14,Improv_Melody,317,1,48,90,2671704124
120,24,14,Improv_Melody,318,1,38,91,2672003316
120,24,14,Improv_Melody,319,1,48,80,2672020272
120,24,14,Improv_Melody,320,5,42,110,2672086536
120,24,14,Improv_Melody,321,1,48,85,2672482772
120,24,14,Improv_Melody,322,2,48,80,2672588320
120,24,14,Improv_Melody,323,2,72,80,2672590620
120,24,14,Improv_Melody,324,5,42,127,2672593088
120,24,14,Improv_Melody,325,1,48,79,2673025272
120,24,14,Improv_Melody,326,1,38,73,2673046416
120,24,14,Improv_Melody,327,5,42,110,2673085900
120,24,14,Improv_Melody,328,1,48,65,2673546316
120,24,14,Improv_Melody,329,5,42,110,2673585720
120,24,14,Improv_Melody,330,1,38,78,2674035536
120,24,14,Improv_Melody,331,1,48,62,2674049584
120,24,14,Improv_Melody,332,5,42,110,2674086124
120,24,14,Improv_Melody,333,1,48,58,2674547460
120,24,14,Improv_Melody,334,5,42,127,2674586020
120,24,14,Improv_Melody,335,1,48,47,2674785568
120,24,14,Improv_Melody,336,5,42,110,2675085704
120,24,14,Improv_Melody,337,1,48,60,2675093616
120,24,14,Improv_Melody,338,1,38,63,2675096888
120,24,14,Improv_Melody,339,5,42,110,2675586556
120,24,14,Improv_Melody,340,1,48,62,2675590272
120,24,14,Improv_Melody,341,1,48,63,2676073340
120,24,14,Improv_Melody,342,1,38,60,2676076536
120,24,14,Improv_Melody,343,5,42,110,2676086080
120,24,14,Improv_Melody,344,2,43,80,2676588568
120,24,14,Improv_Melody,345,2,67,80,2676590560
120,24,14,Improv_Melody,346,1,48,60,2676592880
120,24,14,Improv_Melody,347,5,42,127,2676594440
120,24,14,Improv_Melody,348,1,38,69,2677069124
120,24,14,Improv_Melody,349,1,48,57,2677078748
120,24,14,Improv_Melody,350,5,42,110,2677085668
120,24,14,Improv_Melody,351,1,48,62,2677585580
120,24,14,Improv_Melody,352,5,42,110,2677587376
120,24,14,Improv_Melody,353,1,38,68,2678053672
120,24,14,Improv_Melody,354,1,48,60,2678063076
120,24,14,Improv_Melody,355,5,42,110,2678085932
120,24,14,Improv_Melody,356,1,48,64,2678577416
120,24,14,Improv_Melody,357,5,42,127,2678585756
120,24,14,Improv_Melody,358,1,38,65,2679069560
120,24,14,Improv_Melody,359,1,48,74,2679076124
120,24,14,Improv_Melody,360,5,42,110,2679085588
120,24,14,Improv_Melody,361,1,48,64,2679578116
120,24,14,Improv_Melody,362,5,42,110,2679586156
120,24,14,Improv_Melody,363,1,48,45,2679817424
120,24,14,Improv_Melody,364,5,42,110,2680085916
120,24,14,Improv_Melody,365,1,48,56,2680096288
120,24,14,Improv_Melody,366,1,38,77,2680112280
120,24,14,Improv_Melody,367,1,48,59,2680580960
120,24,14,Improv_Melody,368,2,45,80,2680588216
120,24,14,Improv_Melody,369,2,69,80,2680590372
120,24,14,Improv_Melody,370,5,42,127,2680592828
120,24,14,Improv_Melody,371,1,48,54,2680834636
120,24,14,Improv_Melody,372,1,38,89,2681080724
120,24,14,Improv_Melody,373,5,42,110,2681086520
120,24,14,Improv_Melody,374,5,42,110,2681586152
120,24,14,Improv_Melody,375,1,48,85,2681587724
120,24,14,Improv_Melody,376,1,48,59,2682086000
120,24,14,Improv_Melody,377,5,42,110,2682087340
120,24,14,Improv_Melody,378,1,38,82,2682090616
120,24,14,Improv_Melody,379,5,42,127,2682585520
120,24,14,Improv_Melody,380,1,48,62,2682598284
120,24,14,Improv_Melody,381,1,48,67,2683062208
120,24,14,Improv_Melody,382,1,38,84,2683070268
120,24,14,Improv_Melody,383,5,42,110,2683086240
120,24,14,Improv_Melody,384,1,48,66,2683583476
120,24,14,Improv_Melody,385,5,42,110,2683585912
120,24,14,Improv_Melody,386,1,38,87,2684065428
120,24,14,Improv_Melody,387,1,48,55,2684081528
120,24,14,Improv_Melody,388,5,42,110,2684085756
120,24,14,Improv_Melody,389,1,48,54,2684540560
120,24,14,Improv_Melody,390,2,41,80,2684589108
120,24,14,Improv_Melody,391,2,65,80,2684591108
120,24,14,Improv_Melody,392,5,42,127,2684593592
120,24,14,Improv_Melody,393,1,48,56,2684809348
120,24,14,Improv_Melody,394,1,38,84,2685064108
120,24,14,Improv_Melody,395,5,42,110,2685086136
120,24,14,Improv_Melody,396,1,48,69,2685286884
120,24,14,Improv_Melody,397,1,38,78,2685532596
120,24,14,Improv_Melody,398,5,42,110,2685585740
120,24,14,Improv_Melody,399,1,48,67,2685773692
120,24,14,Improv_Melody,400,1,38,70,2686030856
120,24,14,Improv_Melody,401,5,42,110,2686085568
120,24,14,Improv_Melody,402,1,48,60,2686225204
120,24,14,Improv_Melody,403,1,38,77,2686513700
120,24,14,Improv_Melody,404,5,42,127,2686586292
120,24,14,Improv_Melody,405,1,48,75,2686736476
120,24,14,Improv_Melody,406,1,38,69,2686982416
120,24,14,Improv_Melody,407,5,42,110,2687085884
120,24,14,Improv_Melody,408,1,48,62,2687201148
120,24,14,Improv_Melody,409,1,48,72,2687514852
120,24,14,Improv_Melody,410,5,42,110,2687585576
120,24,14,Improv_Melody,411,1,38,89,2688028612
120,24,14,Improv_Melody,412,1,48,87,2688031812
120,24,14,Improv_Melody,413,5,42,110,2688086456
120,24,14,Improv_Melody,414,1,48,70,2688546816
120,24,14,Improv_Melody,415,2,48,80,2688588780
120,24,14,Improv_Melody,416,2,72,80,2688590936
120,24,14,Improv_Melody,417,5,42,127,2688593468
120,24,14,Improv_Melody,418,1,48,64,2689034640
120,24,14,Improv_Melody,419,1,38,57,2689038512
120,24,14,Improv_Melody,420,5,42,110,2689085744
120,24,14,Improv_Melody,421,1,48,62,2689278680
120,24,14,Improv_Melody,422,1,38,59,2689581168
120,24,14,Improv_Melody,0,9999,9999,9999,2608583756
120,24,14,Improv_Melody,1,9999,9999,9999,2609083444
120,24,14,Improv_Melody,2,9999,9999,9999,2609583212
120,24,14,Improv_Melody,3,9999,9999,9999,2610083908
120,24,14,Improv_Melody,4,9999,9999,9999,2610583628
120,24,14,Improv_Melody,5,9999,9999,9999,2611083352
120,24,14,Improv_Melody,6,9999,9999,9999,2611584116
120,24,14,Improv_Melody,7,9999,9999,9999,2612083764
120,24,14,Improv_Melody,8,9999,9999,9999,2612583488
120,24,14,Improv_Melody,9,9999,9999,9999,2613083220
120,24,14,Improv_Melody,10,9999,9999,9999,2613583988
120,24,14,Improv_Melody,11,9999,9999,9999,2614083636
120,24,14,Improv_Melody,12,9999,9999,9999,2614583356
120,24,14,Improv_Melody,13,9999,9999,9999,2615083080
120,24,14,Improv_Melody,14,9999,9999,9999,2615583848
120,24,14,Improv_Melody,15,9999,9999,9999,2616083568
120,24,14,Improv_Melody,16,9999,9999,9999,2616583216
120,24,14,Improv_Melody,17,9999,9999,9999,2617084008
120,24,14,Improv_Melody,18,9999,9999,9999,2617583732
120,24,14,Improv_Melody,19,9999,9999,9999,2618083380
120,24,14,Improv_Melody,20,9999,9999,9999,2618583100
120,24,14,Improv_Melody,21,9999,9999,9999,2619083872
120,24,14,Improv_Melody,22,9999,9999,9999,2619583592
120,24,14,Improv_Melody,23,9999,9999,9999,2620083296
120,24,14,Improv_Melody,24,9999,9999,9999,2620584060
120,24,14,Improv_Melody,25,9999,9999,9999,2621083732
120,24,14,Improv_Melody,26,9999,9999,9999,2621583452
120,24,14,Improv_Melody,27,9999,9999,9999,2622083176
120,24,14,Improv_Melody,28,9999,9999,9999,2622583868
120,24,14,Improv_Melody,29,9999,9999,9999,2623083592
120,24,14,Improv_Melody,30,9999,9999,9999,2623583312
120,24,14,Improv_Melody,31,9999,9999,9999,2624084080
120,24,14,Improv_Melody,32,9999,9999,9999,2624583728
120,24,14,Improv_Melody,33,9999,9999,9999,2625083468
120,24,14,Improv_Melody,34,9999,9999,9999,2625583168
120,24,14,Improv_Melody,35,9999,9999,9999,2626083940
120,24,14,Improv_Melody,36,9999,9999,9999,2626583640
120,24,14,Improv_Melody,37,9999,9999,9999,2627083368
120,24,14,Improv_Melody,38,9999,9999,9999,2627584112
120,24,14,Improv_Melody,39,9999,9999,9999,2628083764
120,24,14,Improv_Melody,40,9999,9999,9999,2628583540
120,24,14,Improv_Melody,41,9999,9999,9999,2629083212
120,24,14,Improv_Melody,42,9999,9999,9999,2629583960
120,24,14,Improv_Melody,43,9999,9999,9999,2630083684
120,24,14,Improv_Melody,44,9999,9999,9999,2630583384
120,24,14,Improv_Melody,45,9999,9999,9999,2631083088
120,24,14,Improv_Melody,46,9999,9999,9999,2631583832
120,24,14,Improv_Melody,47,9999,9999,9999,2632083564
120,24,14,Improv_Melody,48,9999,9999,9999,2632583272
120,24,14,Improv_Melody,49,9999,9999,9999,2633083956
120,24,14,Improv_Melody,50,9999,9999,9999,2633583708
120,24,14,Improv_Melody,51,9999,9999,9999,2634083388
120,24,14,Improv_Melody,52,9999,9999,9999,2634583136
120,24,14,Improv_Melody,53,9999,9999,9999,2635083864
120,24,14,Improv_Melody,54,9999,9999,9999,2635583608
120,24,14,Improv_Melody,55,9999,9999,9999,2636083292
120,24,14,Improv_Melody,56,9999,9999,9999,2636584012
120,24,14,Improv_Melody,57,9999,9999,9999,2637083704
120,24,14,Improv_Melody,58,9999,9999,9999,2637583432
120,24,14,Improv_Melody,59,9999,9999,9999,2638083184
120,24,14,Improv_Melody,60,9999,9999,9999,2638583904
120,24,14,Improv_Melody,61,9999,9999,9999,2639083584
120,24,14,Improv_Melody,62,9999,9999,9999,2639583332
120,24,14,Improv_Melody,63,9999,9999,9999,2640084060
120,24,14,Improv_Melody,64,9999,9999,9999,2640583732
120,24,14,Improv_Melody,65,9999,9999,9999,2641083476
120,24,14,Improv_Melody,66,9999,9999,9999,2641583176
120,24,14,Improv_Melody,67,9999,9999,9999,2642083900
120,24,14,Improv_Melody,68,9999,9999,9999,2642583600
120,24,14,Improv_Melody,69,9999,9999,9999,2643083356
120,24,14,Improv_Melody,70,9999,9999,9999,2643584076
120,24,14,Improv_Melody,71,9999,9999,9999,2644083828
120,24,14,Improv_Melody,72,9999,9999,9999,2644583508
120,24,14,Improv_Melody,73,9999,9999,9999,2645083192
120,24,14,Improv_Melody,74,9999,9999,9999,2645583988
120,24,14,Improv_Melody,75,9999,9999,9999,2646083668
120,24,14,Improv_Melody,76,9999,9999,9999,2646583416
120,24,14,Improv_Melody,77,9999,9999,9999,2647083100
120,24,14,Improv_Melody,78,9999,9999,9999,2647583820
120,24,14,Improv_Melody,79,9999,9999,9999,2648083576
120,24,14,Improv_Melody,80,9999,9999,9999,2648583252
120,24,14,Improv_Melody,81,9999,9999,9999,2649083984
120,24,14,Improv_Melody,82,9999,9999,9999,2649583664
120,24,14,Improv_Melody,83,9999,9999,9999,2650083420
120,24,14,Improv_Melody,84,9999,9999,9999,2650583096
120,24,14,Improv_Melody,85,9999,9999,9999,2651083840
120,24,14,Improv_Melody,86,9999,9999,9999,2651583576
120,24,14,Improv_Melody,87,9999,9999,9999,2652083256
120,24,14,Improv_Melody,88,9999,9999,9999,2652584032
120,24,14,Improv_Melody,89,9999,9999,9999,2653083696
120,24,14,Improv_Melody,90,9999,9999,9999,2653583472
120,24,14,Improv_Melody,91,9999,9999,9999,2654083192
120,24,14,Improv_Melody,92,9999,9999,9999,2654583920
120,24,14,Improv_Melody,93,9999,9999,9999,2655083592
120,24,14,Improv_Melody,94,9999,9999,9999,2655583344
120,24,14,Improv_Melody,95,9999,9999,9999,2656084080
120,24,14,Improv_Melody,96,9999,9999,9999,2656583760
120,24,14,Improv_Melody,97,9999,9999,9999,2657083444
120,24,14,Improv_Melody,98,9999,9999,9999,2657583200
120,24,14,Improv_Melody,99,9999,9999,9999,2658083944
120,24,14,Improv_Melody,100,9999,9999,9999,2658583644
120,24,14,Improv_Melody,101,9999,9999,9999,2659083348
120,24,14,Improv_Melody,102,9999,9999,9999,2659584092
120,24,14,Improv_Melody,103,9999,9999,9999,2660083792
120,24,14,Improv_Melody,104,9999,9999,9999,2660583492
120,24,14,Improv_Melody,105,9999,9999,9999,2661083208
120,24,14,Improv_Melody,106,9999,9999,9999,2661583948
120,24,14,Improv_Melody,107,9999,9999,9999,2662083692
120,24,14,Improv_Melody,108,9999,9999,9999,2662583372
120,24,14,Improv_Melody,109,9999,9999,9999,2663083092
120,24,14,Improv_Melody,110,9999,9999,9999,2663583820
120,24,14,Improv_Melody,111,9999,9999,9999,2664083568
120,24,14,Improv_Melody,112,9999,9999,9999,2664583248
120,24,14,Improv_Melody,113,9999,9999,9999,2665083980
120,24,14,Improv_Melody,114,9999,9999,9999,2665583736
120,24,14,Improv_Melody,115,9999,9999,9999,2666083436
120,24,14,Improv_Melody,116,9999,9999,9999,2666583120
120,24,14,Improv_Melody,117,9999,9999,9999,2667083868
120,24,14,Improv_Melody,118,9999,9999,9999,2667583544
120,24,14,Improv_Melody,119,9999,9999,9999,2668083248
120,24,14,Improv_Melody,120,9999,9999,9999,2668584044
120,24,14,Improv_Melody,121,9999,9999,9999,2669083728
120,24,14,Improv_Melody,122,9999,9999,9999,2669583480
120,24,14,Improv_Melody,123,9999,9999,9999,2670083160
120,24,14,Improv_Melody,124,9999,9999,9999,2670583884
120,24,14,Improv_Melody,125,9999,9999,9999,2671083636
120,24,14,Improv_Melody,126,9999,9999,9999,2671583300
120,24,14,Improv_Melody,127,9999,9999,9999,2672084020
120,24,14,Improv_Melody,128,9999,9999,9999,2672583748
120,24,14,Improv_Melody,129,9999,9999,9999,2673083460
120,24,14,Improv_Melody,130,9999,9999,9999,2673583180
120,24,14,Improv_Melody,131,9999,9999,9999,2674083904
120,24,14,Improv_Melody,132,9999,9999,9999,2674583652
120,24,14,Improv_Melody,133,9999,9999,9999,2675083340
120,24,14,Improv_Melody,134,9999,9999,9999,2675584112
120,24,14,Improv_Melody,135,9999,9999,9999,2676083788
120,24,14,Improv_Melody,136,9999,9999,9999,2676583540
120,24,14,Improv_Melody,137,9999,9999,9999,2677083228
120,24,14,Improv_Melody,138,9999,9999,9999,2677583968
120,24,14,Improv_Melody,139,9999,9999,9999,2678083644
120,24,14,Improv_Melody,140,9999,9999,9999,2678583388
120,24,14,Improv_Melody,141,9999,9999,9999,2679083072
120,24,14,Improv_Melody,142,9999,9999,9999,2679583864
120,24,14,Improv_Melody,143,9999,9999,9999,2680083548
120,24,14,Improv_Melody,144,9999,9999,9999,2680583272
120,24,14,Improv_Melody,145,9999,9999,9999,2681084008
120,24,14,Improv_Melody,146,9999,9999,9999,2681583712
120,24,14,Improv_Melody,147,9999,9999,9999,2682083412
120,24,14,Improv_Melody,148,9999,9999,9999,2682583152
120,24,14,Improv_Melody,149,9999,9999,9999,2683083876
120,24,14,Improv_Melody,150,9999,9999,9999,2683583548
120,24,14,Improv_Melody,151,9999,9999,9999,2684083316
120,24,14,Improv_Melody,152,9999,9999,9999,2684584008
120,24,14,Improv_Melody,153,9999,9999,9999,2685083696
120,24,14,Improv_Melody,154,9999,9999,9999,2685583448
120,24,14,Improv_Melody,155,9999,9999,9999,2686083128
120,24,14,Improv_Melody,156,9999,9999,9999,2686583928
120,24,14,Improv_Melody,157,9999,9999,9999,2687083592
120,24,14,Improv_Melody,158,9999,9999,9999,2687583284
120,24,14,Improv_Melody,159,9999,9999,9999,2688084088
120,24,14,Improv_Melody,160,9999,9999,9999,2688583760
120,24,14,Improv_Melody,161,9999,9999,9999,2689083452
